# Blender v2.79 (sub 0) OBJ File: 'tire.blend'
# www.blender.org
mtllib tire.mtl
o tire
v 0.250000 -0.500000 -0.250000
v 0.250000 -0.500000 0.250000
v -0.250000 0.500000 0.250000
v -0.250000 0.500000 -0.250000
v -0.250000 -0.500000 0.250000
v -0.250000 -0.500000 -0.250000
v -0.250000 -0.250000 0.500000
v 0.250000 0.250000 0.500000
v 0.250000 0.500000 0.250000
v 0.250000 0.500000 -0.250000
v -0.250000 -0.500000 0.250000
v 0.250000 -0.500000 0.250000
v 0.250000 -0.250000 0.500000
v -0.250000 0.250000 0.500000
v 0.250000 0.500000 0.250000
v -0.250000 0.500000 0.250000
v 0.250000 0.250000 -0.500000
v -0.250000 0.250000 -0.500000
v -0.250000 0.500000 -0.250000
v 0.250000 0.500000 -0.250000
v 0.250000 -0.250000 -0.500000
v -0.250000 -0.250000 -0.500000
v -0.250000 -0.500000 -0.250000
v 0.250000 -0.500000 -0.250000
v 0.312500 -0.125000 -0.187500
v 0.250000 -0.125000 -0.187500
v 0.312500 0.125000 -0.187500
v 0.250000 0.125000 -0.187500
v 0.312500 0.125000 0.187500
v 0.250000 0.125000 0.187500
v 0.312500 -0.125000 0.187500
v 0.250000 -0.125000 0.187500
vt 0.125000 0.000000
vt 0.375000 0.000000
vt 0.500000 0.250000
vt 0.500000 0.750000
vt 0.375000 1.000000
vt 0.125000 1.000000
vt 0.000000 0.750000
vt 0.000000 0.250000
vt 0.250000 0.250000
vt 0.500000 0.250000
vt 0.500000 0.750000
vt 0.250000 0.750000
vt 0.000000 0.250000
vt 0.250000 0.250000
vt 0.250000 0.750000
vt 0.000000 0.750000
vt 0.000000 0.250000
vt 0.250000 0.250000
vt 0.250000 0.750000
vt 0.000000 0.750000
vt 0.000000 0.750000
vt 0.000000 0.250000
vt 0.125000 0.000000
vt 0.375000 0.000000
vt 0.500000 0.250000
vt 0.500000 0.750000
vt 0.375000 1.000000
vt 0.125000 1.000000
vt 0.250000 0.250000
vt 0.500000 0.250000
vt 0.500000 0.750000
vt 0.250000 0.750000
vt 0.250000 0.000000
vt 0.500000 0.000000
vt 0.500000 1.000000
vt 0.250000 1.000000
vt 0.250000 1.000000
vt 0.000000 1.000000
vt 0.000000 0.000000
vt 0.250000 0.000000
vt 0.687500 0.062500
vt 0.812500 0.062500
vt 0.812500 0.125000
vt 0.687500 0.125000
vt 0.656250 0.062500
vt 0.843750 0.062500
vt 0.843750 0.125000
vt 0.656250 0.125000
vt 0.656250 0.062500
vt 0.843750 0.062500
vt 0.843750 0.125000
vt 0.656250 0.125000
vt 0.656250 0.625000
vt 0.843750 0.625000
vt 0.843750 0.375000
vt 0.656250 0.375000
vt 0.687500 0.062500
vt 0.812500 0.062500
vt 0.812500 0.125000
vt 0.687500 0.125000
vt 0.656250 0.375000
vt 0.843750 0.375000
vt 0.843750 0.625000
vt 0.656250 0.625000
vn 1.0000 0.0000 -0.0000
vn 0.0000 1.0000 0.0000
vn 0.0000 0.0000 -1.0000
vn -0.0000 -1.0000 -0.0000
vn -1.0000 0.0000 0.0000
vn 0.0000 0.0000 1.0000
vn 0.0000 -0.7071 0.7071
vn 0.0000 0.7071 0.7071
vn 0.0000 0.7071 -0.7071
vn -0.0000 -0.7071 -0.7071
usemtl None
s off
f 2/1/1 1/2/1 21/3/1 17/4/1 10/5/1 9/6/1 8/7/1 13/8/1
f 3/9/2 9/10/2 10/11/2 4/12/2
f 21/13/3 22/14/3 18/15/3 17/16/3
f 6/17/4 1/18/4 2/19/4 5/20/4
f 18/21/5 22/22/5 6/23/5 5/24/5 7/25/5 14/26/5 3/27/5 4/28/5
f 7/29/6 13/30/6 8/31/6 14/32/6
f 11/33/7 12/34/7 13/30/7 7/29/7
f 14/32/8 8/31/8 15/35/8 16/36/8
f 17/16/9 18/15/9 19/37/9 20/38/9
f 21/13/10 24/39/10 23/40/10 22/14/10
usemtl m_texture.002
f 30/41/6 32/42/6 31/43/6 29/44/6
f 32/45/4 26/46/4 25/47/4 31/48/4
f 28/49/2 30/50/2 29/51/2 27/52/2
f 31/53/1 25/54/1 27/55/1 29/56/1
f 26/57/3 28/58/3 27/59/3 25/60/3
f 30/61/5 28/62/5 26/63/5 32/64/5
