# Blender v2.78 (sub 0) OBJ File: ''
# www.blender.org
mtllib chest.mtl
o chesttop
v -0.344664 0.365388 -0.344664
v -0.344664 0.119199 -0.344664
v -0.344664 0.365388 0.344664
v -0.344664 0.119199 0.344664
v 0.344664 0.365388 0.344664
v 0.344664 0.119199 0.344664
v 0.344664 0.365388 -0.344664
v 0.344664 0.119199 -0.344664
v -0.049238 0.217675 0.344664
v -0.049238 0.020724 0.344664
v -0.049238 0.217675 0.393902
v -0.049238 0.020724 0.393902
v 0.049238 0.217675 0.393902
v 0.049238 0.020724 0.393902
v 0.049238 0.217675 0.344664
v 0.049238 0.020724 0.344664
vt 0.0469 0.9844
vt 0.0156 0.9844
vt 0.0156 0.9688
vt 0.0469 0.9688
vt 0.4375 0.7812
vt 0.6562 0.7812
vt 0.6562 1.0000
vt 0.4375 1.0000
vt 0.6562 0.7031
vt 0.8750 0.7031
vt 0.8750 0.7812
vt 0.6562 0.7812
vt 0.6562 0.7031
vt 0.4375 0.7031
vt 0.4375 0.7812
vt 0.6562 0.7812
vt 0.0312 0.9219
vt 0.0469 0.9219
vt 0.0312 0.9844
vt 0.0469 0.9375
vt 0.0156 0.9375
vt 0.0156 0.9219
vt 0.0156 0.9219
vt 0.0469 0.9219
vt 0.0469 0.9844
vt 0.0156 0.9844
vt 0.0312 0.9219
vt 0.0312 0.9844
vt 0.2188 0.7031
vt 0.0000 0.7031
vt 0.0000 0.7812
vt 0.2188 0.7812
vt 0.2188 0.7031
vt 0.4375 0.7031
vt 0.4375 0.7812
vt 0.2188 0.7812
vt 0.2188 0.7812
vt 0.4375 0.7812
vt 0.4375 1.0000
vt 0.2188 1.0000
vt 0.0625 0.9219
vt 0.0938 0.9219
vt 0.0938 0.9844
vt 0.0625 0.9844
vn 0.0000 1.0000 0.0000
vn 0.0000 -1.0000 -0.0000
vn 0.0000 0.0000 -1.0000
vn 1.0000 0.0000 0.0000
vn 0.0000 0.0000 1.0000
vn -1.0000 0.0000 0.0000
usemtl m_0
s 1
f 15/1/1 9/2/1 11/3/1 13/4/1
f 6/5/2 4/6/2 2/7/2 8/8/2
f 8/9/3 2/10/3 1/11/3 7/12/3
f 6/13/4 8/14/4 7/15/4 5/16/4
f 14/17/4 16/18/4 15/1/4 13/19/4
f 14/20/2 12/21/2 10/22/2 16/18/2
f 12/23/5 14/24/5 13/25/5 11/26/5
f 10/22/6 12/27/6 11/28/6 9/2/6
f 2/29/6 4/30/6 3/31/6 1/32/6
f 4/33/5 6/34/5 5/35/5 3/36/5
f 7/37/1 1/38/1 3/39/1 5/40/1
f 16/41/3 10/42/3 9/43/3 15/44/3
o chestbottom
v -0.344664 0.119199 -0.344664
v -0.344664 -0.373178 -0.344664
v -0.344664 0.119199 0.344664
v -0.344664 -0.373178 0.344664
v 0.344664 0.119199 0.344664
v 0.344664 -0.373178 0.344664
v 0.344664 0.119199 -0.344664
v 0.344664 -0.373178 -0.344664
vt 0.6562 0.3281
vt 0.4375 0.3281
vt 0.4375 0.4844
vt 0.6562 0.4844
vt 0.6562 0.3281
vt 0.8750 0.3281
vt 0.8750 0.4844
vt 0.6562 0.4844
vt 0.2188 0.3281
vt 0.4375 0.3281
vt 0.4375 0.4844
vt 0.2188 0.4844
vt 0.2188 0.4844
vt 0.4375 0.4844
vt 0.4375 0.7031
vt 0.2188 0.7031
vt 0.2188 0.3281
vt 0.0000 0.3281
vt 0.0000 0.4844
vt 0.2188 0.4844
vt 0.4375 0.4844
vt 0.6562 0.4844
vt 0.6562 0.7031
vt 0.4375 0.7031
vn 1.0000 0.0000 0.0000
vn 0.0000 0.0000 -1.0000
vn 0.0000 -0.0000 1.0000
vn 0.0000 1.0000 0.0000
vn -1.0000 0.0000 0.0000
vn 0.0000 -1.0000 -0.0000
usemtl m_0
s 1
f 22/45/7 24/46/7 23/47/7 21/48/7
f 24/49/8 18/50/8 17/51/8 23/52/8
f 20/53/9 22/54/9 21/55/9 19/56/9
f 23/57/10 17/58/10 19/59/10 21/60/10
f 18/61/11 20/62/11 19/63/11 17/64/11
f 22/65/12 20/66/12 18/67/12 24/68/12
