# Blender v2.78 (sub 0) OBJ File: ''
# www.blender.org
mtllib flaregun.mtl
o gunModel
v -0.031250 0.053748 -0.083494
v -0.031250 0.053748 0.041506
v 0.031250 0.053748 0.041506
v 0.031250 0.053748 -0.083494
v 0.031250 -0.196252 -0.145994
v 0.031250 -0.196252 -0.020994
v -0.031250 -0.196252 -0.020994
v -0.031250 -0.196252 -0.145994
v -0.031250 0.053748 0.041506
v -0.031250 0.053748 0.291506
v 0.031250 0.053748 0.291506
v 0.031250 0.053748 0.041506
v 0.031250 0.022498 0.010256
v 0.031250 0.022498 0.272756
v -0.031250 0.022498 0.272756
v -0.031250 0.022498 0.010256
v -0.031250 0.178748 -0.020994
v -0.031250 0.178748 0.041506
v 0.031250 0.178748 0.041506
v 0.031250 0.178748 -0.020994
v 0.031250 0.053748 -0.083494
v 0.031250 0.053748 0.041506
v -0.031250 0.053748 0.041506
v -0.031250 0.053748 -0.083494
v -0.037500 0.178748 0.041506
v -0.037500 0.178748 0.416506
v 0.037500 0.178748 0.416506
v 0.037500 0.178748 0.041506
v 0.037500 0.053748 0.041506
v 0.037500 0.053748 0.416506
v -0.037500 0.053748 0.416506
v -0.037500 0.053748 0.041506
v -0.043750 0.041248 -0.064744
v -0.043750 0.041248 0.022756
v -0.031250 0.041248 0.022756
v -0.031250 0.041248 -0.064744
v -0.031250 -0.183752 -0.127244
v -0.031250 -0.183752 -0.033494
v -0.043750 -0.183752 -0.033494
v -0.043750 -0.183752 -0.127244
v 0.031250 0.041248 -0.064744
v 0.031250 0.041248 0.022756
v 0.043750 0.041248 0.022756
v 0.043750 0.041248 -0.064744
v 0.043750 -0.177502 -0.127244
v 0.043750 -0.177502 -0.033494
v 0.031250 -0.177502 -0.033494
v 0.031250 -0.177502 -0.127244
v -0.012500 0.133592 -0.121665
v -0.012500 0.160200 -0.078874
v 0.006250 0.160200 -0.078874
v 0.006250 0.133592 -0.121665
v 0.006250 0.067677 -0.044161
v 0.006250 0.107009 0.004411
v -0.012500 0.107009 0.004411
v -0.012500 0.067677 -0.044161
v -0.031250 0.022498 0.154006
v -0.031250 0.022498 0.197756
v 0.031250 0.022498 0.197756
v 0.031250 0.022498 0.154006
v 0.031250 -0.027502 0.135256
v 0.031250 -0.027502 0.179006
v -0.031250 -0.027502 0.179006
v -0.031250 -0.027502 0.135256
v -0.031250 -0.027502 0.016506
v -0.031250 -0.027502 0.179006
v 0.031250 -0.027502 0.179006
v 0.031250 -0.027502 0.016506
v 0.031250 -0.046252 0.010256
v 0.031250 -0.046252 0.141506
v -0.031250 -0.046252 0.141506
v -0.031250 -0.046252 0.010256
v -0.006250 0.022498 0.029006
v -0.006250 0.022498 0.066506
v 0.006250 0.022498 0.066506
v 0.006250 0.022498 0.029006
v 0.006250 -0.027502 0.010256
v 0.006250 -0.027502 0.054006
v -0.006250 -0.027502 0.054006
v -0.006250 -0.027502 0.010256
vt 1.0312 0.9375
vt 1.0938 0.9375
vt 1.0938 0.9688
vt 1.0312 0.9688
vt 1.0938 0.9375
vt 1.1562 0.9375
vt 1.1562 0.9688
vt 1.0938 0.9688
vt 1.0312 0.8125
vt 1.0938 0.8125
vt 1.1875 0.9375
vt 1.1250 0.9375
vt 1.1250 0.8125
vt 1.1875 0.8125
vt 1.0000 0.9375
vt 1.0000 0.8125
vt 1.4062 0.9375
vt 1.5625 0.9375
vt 1.5625 0.9688
vt 1.4062 0.9688
vt 1.5625 0.9375
vt 1.7188 0.9375
vt 1.7188 0.9688
vt 1.5625 0.9688
vt 1.4062 0.8750
vt 1.5625 0.8750
vt 1.7500 0.9375
vt 1.5938 0.9375
vt 1.5938 0.8750
vt 1.7500 0.8750
vt 1.3750 0.9375
vt 1.3750 0.8750
vt 1.8125 0.9375
vt 1.8750 0.9375
vt 1.8750 0.9688
vt 1.8125 0.9688
vt 1.8750 0.9375
vt 1.9375 0.9375
vt 1.9375 0.9688
vt 1.8750 0.9688
vt 1.8125 0.8750
vt 1.8750 0.8750
vt 1.9688 0.9375
vt 1.9062 0.9375
vt 1.9062 0.8750
vt 1.9688 0.8750
vt 1.7812 0.9375
vt 1.7812 0.8750
vt 1.2188 0.6250
vt 1.4062 0.6250
vt 1.4062 0.6875
vt 1.2188 0.6875
vt 1.4062 0.6250
vt 1.5938 0.6250
vt 1.5938 0.6875
vt 1.4062 0.6875
vt 1.2188 0.5625
vt 1.4062 0.5625
vt 1.6562 0.6250
vt 1.4688 0.6250
vt 1.4688 0.5625
vt 1.6562 0.5625
vt 1.1562 0.6250
vt 1.1562 0.5625
vt 1.8125 0.6875
vt 1.8750 0.6875
vt 1.8750 0.7188
vt 1.8125 0.7188
vt 1.8750 0.6875
vt 1.9375 0.6875
vt 1.9375 0.7188
vt 1.8750 0.7188
vt 1.8125 0.5625
vt 1.8750 0.5625
vt 1.9688 0.6875
vt 1.9062 0.6875
vt 1.9062 0.5625
vt 1.9688 0.5625
vt 1.7812 0.6875
vt 1.7812 0.5625
vt 1.5625 0.4375
vt 1.6250 0.4375
vt 1.6250 0.4688
vt 1.5625 0.4688
vt 1.6250 0.4375
vt 1.6875 0.4375
vt 1.6875 0.4688
vt 1.6250 0.4688
vt 1.5625 0.3125
vt 1.6250 0.3125
vt 1.7188 0.4375
vt 1.6562 0.4375
vt 1.6562 0.3125
vt 1.7188 0.3125
vt 1.5312 0.4375
vt 1.5312 0.3125
vt 1.8125 0.4375
vt 1.8438 0.4375
vt 1.8438 0.4688
vt 1.8125 0.4688
vt 1.8438 0.4375
vt 1.8750 0.4375
vt 1.8750 0.4688
vt 1.8438 0.4688
vt 1.8125 0.4062
vt 1.8438 0.4062
vt 1.9062 0.4375
vt 1.8750 0.4375
vt 1.8750 0.4062
vt 1.9062 0.4062
vt 1.7812 0.4375
vt 1.7812 0.4062
vt 1.8125 0.1875
vt 1.8750 0.1875
vt 1.8750 0.2188
vt 1.8125 0.2188
vt 1.8750 0.1875
vt 1.9375 0.1875
vt 1.9375 0.2188
vt 1.8750 0.2188
vt 1.8125 0.1250
vt 1.8750 0.1250
vt 1.9688 0.1875
vt 1.9062 0.1875
vt 1.9062 0.1250
vt 1.9688 0.1250
vt 1.7812 0.1875
vt 1.7812 0.1250
vt 1.0938 0.3438
vt 1.2500 0.3438
vt 1.2500 0.3750
vt 1.0938 0.3750
vt 1.2500 0.3438
vt 1.4062 0.3438
vt 1.4062 0.3750
vt 1.2500 0.3750
vt 1.0938 0.2812
vt 1.2500 0.2812
vt 1.4375 0.3438
vt 1.2812 0.3438
vt 1.2812 0.2812
vt 1.4375 0.2812
vt 1.0625 0.3438
vt 1.0625 0.2812
vt 1.2188 0.9688
vt 1.2812 0.9688
vt 1.2812 1.0000
vt 1.2188 1.0000
vt 1.2812 0.9688
vt 1.3438 0.9688
vt 1.3438 1.0000
vt 1.2812 1.0000
vt 1.2188 0.9062
vt 1.2812 0.9062
vt 1.3750 0.9688
vt 1.3125 0.9688
vt 1.3125 0.9062
vt 1.3750 0.9062
vt 1.1875 0.9688
vt 1.1875 0.9062
vn 0.0000 1.0000 0.0000
vn 0.0000 -1.0000 0.0000
vn -1.0000 -0.0000 0.0000
vn 1.0000 0.0000 -0.0000
vn 0.0000 -0.2425 0.9701
vn 0.0000 0.2425 -0.9701
vn 0.0000 -0.5145 0.8575
vn 0.0000 0.7071 -0.7071
vn 0.0000 0.0000 1.0000
vn 0.0000 0.4472 -0.8944
vn 0.0000 0.0000 -1.0000
vn 0.0000 0.2676 -0.9635
vn 0.0000 -0.2490 0.9685
vn 0.0000 0.2747 -0.9615
vn 0.0000 0.8492 -0.5281
vn 0.0000 -0.7771 0.6293
vn 0.0000 0.8428 0.5383
vn 0.0000 -0.7618 -0.6479
vn 0.0000 -0.3511 0.9363
vn 0.0000 0.3511 -0.9363
vn -0.0000 -0.8944 0.4472
vn -0.0000 0.3162 -0.9487
usemtl ModelMaterial
s off
f 1/1/1 2/2/1 3/3/1 4/4/1
f 5/5/2 6/6/2 7/7/2 8/8/2
f 2/2/3 1/1/3 8/9/3 7/10/3
f 4/11/4 3/12/4 6/13/4 5/14/4
f 3/12/5 2/2/5 7/10/5 6/13/5
f 1/1/6 4/15/6 5/16/6 8/9/6
f 9/17/1 10/18/1 11/19/1 12/20/1
f 13/21/2 14/22/2 15/23/2 16/24/2
f 10/18/3 9/17/3 16/25/3 15/26/3
f 12/27/4 11/28/4 14/29/4 13/30/4
f 11/28/7 10/18/7 15/26/7 14/29/7
f 9/17/8 12/31/8 13/32/8 16/25/8
f 17/33/1 18/34/1 19/35/1 20/36/1
f 21/37/2 22/38/2 23/39/2 24/40/2
f 18/34/3 17/33/3 24/41/3 23/42/3
f 20/43/4 19/44/4 22/45/4 21/46/4
f 19/44/9 18/34/9 23/42/9 22/45/9
f 17/33/10 20/47/10 21/48/10 24/41/10
f 25/49/1 26/50/1 27/51/1 28/52/1
f 29/53/2 30/54/2 31/55/2 32/56/2
f 26/50/3 25/49/3 32/57/3 31/58/3
f 28/59/4 27/60/4 30/61/4 29/62/4
f 27/60/9 26/50/9 31/58/9 30/61/9
f 25/49/11 28/63/11 29/64/11 32/57/11
f 33/65/1 34/66/1 35/67/1 36/68/1
f 37/69/2 38/70/2 39/71/2 40/72/2
f 34/66/3 33/65/3 40/73/3 39/74/3
f 36/75/4 35/76/4 38/77/4 37/78/4
f 35/76/5 34/66/5 39/74/5 38/77/5
f 33/65/12 36/79/12 37/80/12 40/73/12
f 41/81/1 42/82/1 43/83/1 44/84/1
f 45/85/2 46/86/2 47/87/2 48/88/2
f 42/82/3 41/81/3 48/89/3 47/90/3
f 44/91/4 43/92/4 46/93/4 45/94/4
f 43/92/13 42/82/13 47/90/13 46/93/13
f 41/81/14 44/95/14 45/96/14 48/89/14
f 49/97/15 50/98/15 51/99/15 52/100/15
f 53/101/16 54/102/16 55/103/16 56/104/16
f 50/98/3 49/97/3 56/105/3 55/106/3
f 52/107/4 51/108/4 54/109/4 53/110/4
f 51/108/17 50/98/17 55/106/17 54/109/17
f 49/97/18 52/111/18 53/112/18 56/105/18
f 57/113/1 58/114/1 59/115/1 60/116/1
f 61/117/2 62/118/2 63/119/2 64/120/2
f 58/114/3 57/113/3 64/121/3 63/122/3
f 60/123/4 59/124/4 62/125/4 61/126/4
f 59/124/19 58/114/19 63/122/19 62/125/19
f 57/113/20 60/127/20 61/128/20 64/121/20
f 65/129/1 66/130/1 67/131/1 68/132/1
f 69/133/2 70/134/2 71/135/2 72/136/2
f 66/130/3 65/129/3 72/137/3 71/138/3
f 68/139/4 67/140/4 70/141/4 69/142/4
f 67/140/21 66/130/21 71/138/21 70/141/21
f 65/129/22 68/143/22 69/144/22 72/137/22
f 73/145/1 74/146/1 75/147/1 76/148/1
f 77/149/2 78/150/2 79/151/2 80/152/2
f 74/146/3 73/145/3 80/153/3 79/154/3
f 76/155/4 75/156/4 78/157/4 77/158/4
f 75/156/5 74/146/5 79/154/5 78/157/5
f 73/145/20 76/159/20 77/160/20 80/153/20
o breakActionModel
v -0.062500 0.153748 0.041506
v -0.062500 0.153748 0.416506
v -0.037500 0.178748 0.416506
v -0.037500 0.178748 0.041506
v -0.037500 0.053748 0.041506
v -0.037500 0.053748 0.416506
v -0.062500 0.078748 0.416506
v -0.062500 0.078748 0.041506
v 0.037500 0.178748 0.041506
v 0.037500 0.178748 0.416506
v 0.062500 0.153748 0.416506
v 0.062500 0.153748 0.041506
v 0.062500 0.078748 0.041506
v 0.062500 0.078748 0.416506
v 0.037500 0.053748 0.416506
v 0.037500 0.053748 0.041506
v 0.031250 0.178748 0.010256
v 0.031250 0.178748 0.041506
v 0.056250 0.147498 0.041506
v 0.056250 0.147498 0.029006
v 0.056250 0.084998 0.029006
v 0.056250 0.084998 0.041506
v 0.031250 0.053748 0.041506
v 0.031250 0.053748 0.010256
v -0.056250 0.147498 0.029006
v -0.056250 0.147498 0.041506
v -0.031250 0.178748 0.041506
v -0.031250 0.178748 0.010256
v -0.031250 0.053748 0.010256
v -0.031250 0.053748 0.041506
v -0.056250 0.084998 0.041506
v -0.056250 0.084998 0.029006
vt 1.0938 0.1562
vt 1.2812 0.1562
vt 1.2812 0.2188
vt 1.0938 0.2188
vt 1.2812 0.1562
vt 1.4688 0.1562
vt 1.4688 0.2188
vt 1.2812 0.2188
vt 1.0938 0.0938
vt 1.2812 0.0938
vt 1.5312 0.1562
vt 1.3438 0.1562
vt 1.3438 0.0938
vt 1.5312 0.0938
vt 1.0312 0.1562
vt 1.0312 0.0938
vt 1.3125 0.7812
vt 1.5000 0.7812
vt 1.5000 0.8438
vt 1.3125 0.8438
vt 1.5000 0.7812
vt 1.6875 0.7812
vt 1.6875 0.8438
vt 1.5000 0.8438
vt 1.3125 0.7188
vt 1.5000 0.7188
vt 1.7500 0.7812
vt 1.5625 0.7812
vt 1.5625 0.7188
vt 1.7500 0.7188
vt 1.2500 0.7812
vt 1.2500 0.7188
vt 1.0625 0.7500
vt 1.0938 0.7500
vt 1.0938 0.8125
vt 1.0625 0.8125
vt 1.0938 0.7500
vt 1.1250 0.7500
vt 1.1250 0.8125
vt 1.0938 0.8125
vt 1.0625 0.6875
vt 1.0938 0.6875
vt 1.1875 0.7500
vt 1.1562 0.7500
vt 1.1562 0.6875
vt 1.1875 0.6875
vt 1.0000 0.7500
vt 1.0000 0.6875
vt 1.0625 0.7500
vt 1.0938 0.7500
vt 1.0938 0.8125
vt 1.0625 0.8125
vt 1.0938 0.7500
vt 1.1250 0.7500
vt 1.1250 0.8125
vt 1.0938 0.8125
vt 1.0625 0.6875
vt 1.0938 0.6875
vt 1.1875 0.7500
vt 1.1562 0.7500
vt 1.1562 0.6875
vt 1.1875 0.6875
vt 1.0000 0.7500
vt 1.0000 0.6875
vn -0.7071 0.7071 0.0000
vn -0.7071 -0.7071 0.0000
vn -1.0000 0.0000 0.0000
vn 1.0000 0.0000 -0.0000
vn 0.0000 0.0000 1.0000
vn -0.0000 0.0000 -1.0000
vn 0.7071 0.7071 -0.0000
vn 0.7071 -0.7071 -0.0000
vn 0.7809 0.6247 -0.0000
vn 0.7809 -0.6247 -0.0000
vn 0.6000 0.0000 -0.8000
vn -0.7809 0.6247 0.0000
vn -0.7809 -0.6247 0.0000
vn -0.6000 -0.0000 -0.8000
usemtl ModelMaterial
s off
f 81/161/23 82/162/23 83/163/23 84/164/23
f 85/165/24 86/166/24 87/167/24 88/168/24
f 82/162/25 81/161/25 88/169/25 87/170/25
f 84/171/26 83/172/26 86/173/26 85/174/26
f 83/172/27 82/162/27 87/170/27 86/173/27
f 81/161/28 84/175/28 85/176/28 88/169/28
f 89/177/29 90/178/29 91/179/29 92/180/29
f 93/181/30 94/182/30 95/183/30 96/184/30
f 90/178/25 89/177/25 96/185/25 95/186/25
f 92/187/26 91/188/26 94/189/26 93/190/26
f 91/188/27 90/178/27 95/186/27 94/189/27
f 89/177/28 92/191/28 93/192/28 96/185/28
f 97/193/31 98/194/31 99/195/31 100/196/31
f 101/197/32 102/198/32 103/199/32 104/200/32
f 98/194/25 97/193/25 104/201/25 103/202/25
f 100/203/26 99/204/26 102/205/26 101/206/26
f 99/204/27 98/194/27 103/202/27 102/205/27
f 97/193/33 100/207/33 101/208/33 104/201/33
f 105/209/34 106/210/34 107/211/34 108/212/34
f 109/213/35 110/214/35 111/215/35 112/216/35
f 106/210/25 105/209/25 112/217/25 111/218/25
f 108/219/26 107/220/26 110/221/26 109/222/26
f 107/220/27 106/210/27 111/218/27 110/221/27
f 105/209/36 108/223/36 109/224/36 112/217/36
