# Blender v2.79 (sub 0) OBJ File: ''
# www.blender.org
mtllib hitch.mtl
o joint
v 0.062500 0.062500 -0.125000
v 0.062500 0.062500 -0.031250
v 0.062500 0.000000 -0.062500
v 0.062500 0.000000 -0.125000
v -0.062500 0.000000 -0.062500
v -0.062500 0.062500 -0.031250
v -0.062500 0.062500 -0.125000
v -0.062500 0.000000 -0.125000
vt 0.093750 1.000000
vt 0.000000 1.000000
vt 0.031250 0.911613
vt 0.093750 0.911613
vt 0.125000 0.911613
vt 0.156250 1.000000
vt 0.062500 1.000000
vt 0.062500 0.911613
vt 0.000000 0.906250
vt 0.250000 0.906250
vt 0.250000 1.000000
vt 0.000000 1.000000
vt 0.125000 0.937500
vt 0.125000 1.000000
vt 0.000000 1.000000
vt 0.000000 0.937500
vt 0.187500 0.930119
vt 0.250000 1.000000
vt 0.000000 1.000000
vt 0.062500 0.930119
vt 0.250000 1.000000
vt 0.000000 1.000000
vt 0.062500 0.937500
vt 0.187500 0.937500
vn 1.0000 0.0000 0.0000
vn -1.0000 0.0000 0.0000
vn 0.0000 1.0000 0.0000
vn 0.0000 -1.0000 -0.0000
vn 0.0000 -0.4472 0.8944
vn 0.0000 0.0000 -1.0000
usemtl m_0.003
s 1
f 1/1/1 2/2/1 3/3/1 4/4/1
f 5/5/2 6/6/2 7/7/2 8/8/2
f 6/9/3 2/10/3 1/11/3 7/12/3
f 4/13/4 3/14/4 5/15/4 8/16/4
f 3/17/5 2/18/5 6/19/5 5/20/5
f 7/21/6 1/22/6 4/23/6 8/24/6
o #joint_alt
v 0.078125 0.058594 -0.171875
v 0.078125 0.058594 -0.109375
v 0.078125 -0.003906 -0.109375
v 0.078125 -0.003906 -0.171875
v -0.078125 -0.003906 -0.109375
v -0.078125 0.058594 -0.109375
v -0.078125 0.058594 -0.171875
v -0.078125 -0.003906 -0.171875
v 0.015625 0.058594 -0.109375
v 0.015625 0.058594 -0.171875
v 0.015625 -0.003906 -0.109375
v 0.015625 -0.003906 -0.171875
v 0.000000 0.050781 -0.109375
v 0.000000 0.003906 -0.109375
v 0.000000 0.050781 -0.171875
v 0.000000 0.003906 -0.171875
v -0.015625 -0.003906 -0.109375
v -0.015625 0.058594 -0.109375
v -0.015625 0.058594 -0.171875
v -0.015625 -0.003906 -0.171875
vt 0.625000 0.375000
vt 0.562500 0.375000
vt 0.562500 0.312500
vt 0.625000 0.312500
vt 0.625000 0.312500
vt 0.625000 0.375000
vt 0.562500 0.375000
vt 0.562500 0.312500
vt 0.500000 0.312500
vt 0.562500 0.312500
vt 0.562500 0.375000
vt 0.500000 0.375000
vt 0.562500 0.312500
vt 0.562500 0.375000
vt 0.500000 0.375000
vt 0.500000 0.312500
vt 0.500000 0.375000
vt 0.500000 0.312500
vt 0.625000 0.375000
vt 0.625000 0.312500
vt 0.140625 0.875000
vt 0.125000 0.867188
vt 0.125000 0.820312
vt 0.140625 0.812500
vt 0.062500 0.937500
vt 0.062500 0.920031
vt 0.125000 0.920031
vt 0.125000 0.937500
vt 0.000000 0.812500
vt 0.015625 0.820312
vt 0.015625 0.867188
vt 0.000000 0.875000
vt 0.125000 0.982531
vt 0.125000 1.000000
vt 0.062500 1.000000
vt 0.062500 0.982531
vt 0.562500 0.312500
vt 0.562500 0.250000
vt 0.625000 0.250000
vt 0.625000 0.312500
vt 0.500000 0.437500
vt 0.500000 0.375000
vt 0.562500 0.375000
vt 0.562500 0.437500
vt 0.562500 0.250000
vt 0.562500 0.312500
vt 0.500000 0.312500
vt 0.500000 0.250000
vt 0.500000 0.437500
vt 0.500000 0.375000
vt 0.562500 0.375000
vt 0.562500 0.437500
vt 0.125000 0.982531
vt 0.125000 1.000000
vt 0.062500 1.000000
vt 0.062500 0.982531
vt 0.062500 0.812500
vt 0.078125 0.820312
vt 0.078125 0.867188
vt 0.062500 0.875000
vt 0.062500 0.937500
vt 0.062500 0.920031
vt 0.125000 0.920031
vt 0.125000 0.937500
vt 0.078125 0.875000
vt 0.062500 0.867188
vt 0.062500 0.820312
vt 0.078125 0.812500
vn 1.0000 0.0000 0.0000
vn -1.0000 0.0000 0.0000
vn 0.0000 1.0000 0.0000
vn 0.0000 -1.0000 -0.0000
vn 0.0000 0.0000 1.0000
vn 0.0000 0.0000 -1.0000
vn -0.4472 0.8944 0.0000
vn -0.4472 -0.8944 -0.0000
vn 0.4472 -0.8944 -0.0000
vn 0.4472 0.8944 0.0000
usemtl m_0.003
s 1
f 9/25/7 10/26/7 11/27/7 12/28/7
f 13/29/8 14/30/8 15/31/8 16/32/8
f 17/33/9 10/34/9 9/35/9 18/36/9
f 12/37/10 11/38/10 19/39/10 20/40/10
f 11/27/11 10/26/11 17/41/11 19/42/11
f 18/43/12 9/35/12 12/37/12 20/44/12
f 17/45/11 21/46/11 22/47/11 19/48/11
f 18/49/13 23/50/13 21/51/13 17/52/13
f 20/53/12 24/54/12 23/55/12 18/56/12
f 19/57/14 22/58/14 24/59/14 20/60/14
f 14/61/11 13/62/11 25/63/11 26/64/11
f 15/65/9 14/66/9 26/67/9 27/68/9
f 16/69/12 15/70/12 27/71/12 28/72/12
f 13/73/10 16/74/10 28/75/10 25/76/10
f 28/77/15 24/78/15 22/79/15 25/80/15
f 25/81/11 22/82/11 21/83/11 26/84/11
f 26/85/16 21/86/16 23/87/16 27/88/16
f 27/89/12 23/90/12 24/91/12 28/92/12
o pivot
v -0.046875 -0.062500 -0.453125
v -0.046875 -0.062500 -0.421875
v -0.046875 -0.031250 -0.421875
v -0.046875 -0.031250 -0.515625
v 0.046875 -0.031250 -0.515625
v 0.046875 -0.031250 -0.421875
v 0.046875 -0.062500 -0.421875
v 0.046875 -0.062500 -0.453125
v 0.062500 0.046875 -0.125000
v -0.062500 0.046875 -0.125000
v -0.062500 0.015625 -0.125000
v 0.062500 0.015625 -0.125000
v -0.054688 0.000000 -0.281250
v -0.054688 -0.031250 -0.281250
v 0.054688 -0.031250 -0.281250
v 0.054688 0.000000 -0.281250
vt 0.187500 0.968750
vt 0.218750 0.968750
vt 0.218750 1.000000
vt 0.125000 1.000000
vt 0.093750 1.000000
vt 0.000000 1.000000
vt 0.000000 0.968750
vt 0.031250 0.968750
vt 0.125000 0.875000
vt 0.125000 0.781250
vt 0.218750 0.781250
vt 0.218750 0.875000
vt 0.218750 0.968750
vt 0.218750 1.000000
vt 0.125000 1.000000
vt 0.125000 0.968750
vt 0.218750 0.867619
vt 0.218750 0.937500
vt 0.125000 0.937500
vt 0.125000 0.867619
vt 0.187500 0.937500
vt 0.062500 0.937500
vt 0.062500 0.906250
vt 0.187500 0.906250
vt 0.203344 0.937500
vt 0.062500 0.906250
vt 0.062500 0.875000
vt 0.203344 0.906250
vt 0.125000 1.000000
vt 0.132812 0.855944
vt 0.226562 0.855944
vt 0.234375 1.000000
vt 0.000000 0.906250
vt 0.140844 0.875000
vt 0.140844 0.906250
vt 0.000000 0.937500
vt 0.187500 1.000000
vt 0.195312 0.855950
vt 0.289062 0.855950
vt 0.296875 1.000000
vt 0.187500 1.000000
vt 0.062500 1.000000
vt 0.070312 0.836869
vt 0.179688 0.836869
vt 0.218950 0.906250
vt 0.218950 0.937500
vt 0.062500 0.890625
vt 0.062500 0.859375
vt 0.125000 1.000000
vt 0.000000 1.000000
vt 0.007812 0.836869
vt 0.117188 0.836869
vt 0.000000 0.875000
vt 0.000000 0.843750
vt 0.156450 0.796875
vt 0.156450 0.828125
vn -1.0000 0.0000 0.0000
vn 1.0000 0.0000 0.0000
vn 0.0000 1.0000 0.0000
vn 0.0000 -1.0000 0.0000
vn 0.0000 -0.8944 -0.4472
vn 0.0000 0.0000 1.0000
vn -0.9985 -0.0000 -0.0551
vn -0.9985 0.0000 -0.0555
vn -0.9987 -0.0000 -0.0503
vn 0.0000 -0.9762 0.2169
vn 0.9987 -0.0000 -0.0503
vn 0.9985 0.0000 -0.0555
vn 0.9985 -0.0000 -0.0551
vn 0.0000 0.9762 -0.2169
vn 0.0000 0.9578 -0.2873
vn -0.9988 0.0000 -0.0499
vn 0.0000 -0.9578 0.2873
vn 0.9988 0.0000 -0.0499
usemtl m_0.003
s 1
f 29/93/17 30/94/17 31/95/17 32/96/17
f 33/97/18 34/98/18 35/99/18 36/100/18
f 32/101/19 31/102/19 34/103/19 33/104/19
f 36/105/20 35/106/20 30/107/20 29/108/20
f 29/109/21 32/110/21 33/111/21 36/112/21
f 37/113/22 38/114/22 39/115/22 40/116/22
f 41/117/23 31/118/24 30/119/24 42/120/25
f 42/121/26 30/122/26 35/123/26 43/124/26
f 43/125/27 35/126/28 34/127/28 44/128/29
f 44/129/30 34/130/30 31/131/30 41/132/30
f 38/133/31 37/134/31 44/135/31 41/136/31
f 39/137/32 38/138/32 41/139/23 42/140/25
f 40/141/33 39/142/33 42/143/33 43/144/33
f 37/145/34 40/146/34 43/147/27 44/148/29
o bolt
v 0.013532 -0.007812 -0.085938
v 0.000000 -0.007812 -0.078125
v 0.000000 -0.007812 -0.093750
v 0.013532 -0.007812 -0.101562
v 0.000000 -0.007812 -0.109375
v -0.013532 -0.007812 -0.101562
v -0.013532 -0.007812 -0.085938
v 0.000000 0.039063 -0.078125
v 0.013532 0.039063 -0.085938
v 0.000000 0.039063 -0.093750
v 0.013532 0.039063 -0.101562
v 0.000000 0.039063 -0.109375
v -0.013532 0.039063 -0.101562
v -0.013532 0.039063 -0.085938
v 0.027063 -0.023437 -0.078125
v 0.000000 -0.023437 -0.062500
v 0.000000 -0.023437 -0.093750
v 0.027063 -0.007812 -0.078125
v 0.000000 -0.007812 -0.062500
v 0.000000 -0.007812 -0.093750
v 0.027063 -0.023437 -0.109375
v 0.027063 -0.007812 -0.109375
v 0.000000 -0.023437 -0.125000
v 0.000000 -0.007812 -0.125000
v -0.027063 -0.023437 -0.109375
v -0.027063 -0.007812 -0.109375
v -0.027063 -0.023437 -0.078125
v -0.027063 -0.007812 -0.078125
vt 0.812500 0.210938
vt 0.798969 0.203125
vt 0.798969 0.218750
vt 0.812500 0.210938
vt 0.812500 0.195312
vt 0.798969 0.203125
vt 0.798969 0.203125
vt 0.812500 0.195312
vt 0.798969 0.187500
vt 0.785297 0.195312
vt 0.798828 0.203125
vt 0.798828 0.187500
vt 0.785297 0.195312
vt 0.785297 0.210938
vt 0.798828 0.203125
vt 0.798828 0.203125
vt 0.785297 0.210938
vt 0.798828 0.218750
vt 0.798969 0.234375
vt 0.812500 0.242188
vt 0.798969 0.250000
vt 0.812500 0.226562
vt 0.812500 0.242188
vt 0.798969 0.234375
vt 0.812500 0.226562
vt 0.798969 0.234375
vt 0.798969 0.218750
vt 0.798828 0.234375
vt 0.785297 0.226562
vt 0.798828 0.218750
vt 0.785297 0.242188
vt 0.785297 0.226562
vt 0.798828 0.234375
vt 0.785297 0.242188
vt 0.798828 0.234375
vt 0.798828 0.250000
vt 0.812500 0.250000
vt 0.812500 0.000000
vt 0.875000 0.000000
vt 0.875000 0.250000
vt 0.812500 0.250000
vt 0.812500 0.000000
vt 0.875000 0.000000
vt 0.875000 0.250000
vt 0.812500 0.250000
vt 0.812500 0.000000
vt 0.875000 0.000000
vt 0.875000 0.250000
vt 0.812500 0.250000
vt 0.812500 0.000000
vt 0.875000 0.000000
vt 0.875000 0.250000
vt 0.812500 0.250000
vt 0.812500 0.000000
vt 0.875000 0.000000
vt 0.875000 0.250000
vt 0.812500 0.000000
vt 0.875000 0.250000
vt 1.000000 0.140625
vt 0.972938 0.156250
vt 0.972938 0.125000
vt 0.937500 0.000000
vt 1.000000 0.000000
vt 1.000000 0.125000
vt 0.937500 0.125000
vt 0.972938 0.218750
vt 1.000000 0.234375
vt 0.972938 0.250000
vt 1.000000 0.140625
vt 1.000000 0.171875
vt 0.972938 0.156250
vt 0.937500 0.000000
vt 1.000000 0.000000
vt 1.000000 0.125000
vt 0.937500 0.125000
vt 1.000000 0.203125
vt 1.000000 0.234375
vt 0.972938 0.218750
vt 0.972938 0.156250
vt 1.000000 0.171875
vt 0.972938 0.187500
vt 0.937500 0.000000
vt 1.000000 0.000000
vt 1.000000 0.125000
vt 0.937500 0.125000
vt 1.000000 0.203125
vt 0.972938 0.218750
vt 0.972938 0.187500
vt 0.945594 0.171875
vt 0.972656 0.156250
vt 0.972656 0.187500
vt 0.937500 0.000000
vt 1.000000 0.000000
vt 1.000000 0.125000
vt 0.937500 0.125000
vt 0.972375 0.218750
vt 0.945312 0.203125
vt 0.972375 0.187500
vt 0.945594 0.171875
vt 0.945594 0.140625
vt 0.972656 0.156250
vt 0.937500 0.000000
vt 1.000000 0.000000
vt 1.000000 0.125000
vt 0.937500 0.125000
vt 0.945312 0.234375
vt 0.945312 0.203125
vt 0.972375 0.218750
vt 0.972656 0.156250
vt 0.945594 0.140625
vt 0.972656 0.125000
vt 0.937500 0.000000
vt 1.000000 0.000000
vt 1.000000 0.125000
vt 0.937500 0.125000
vt 0.945312 0.234375
vt 0.972375 0.218750
vt 0.972375 0.250000
vn 0.0000 -1.0000 -0.0000
vn 0.0000 1.0000 0.0000
vn 1.0000 0.0000 0.0000
vn 0.5000 0.0000 -0.8660
vn -0.5000 0.0000 -0.8660
vn -1.0000 0.0000 0.0000
vn -0.5000 0.0000 0.8660
vn 0.5000 0.0000 0.8660
usemtl m_0.003
s 1
f 45/149/35 46/150/35 47/151/35
f 48/152/35 45/153/35 47/154/35
f 49/155/35 48/156/35 47/157/35
f 50/158/35 49/159/35 47/160/35
f 51/161/35 50/162/35 47/163/35
f 46/164/35 51/165/35 47/166/35
f 52/167/36 53/168/36 54/169/36
f 53/170/36 55/171/36 54/172/36
f 55/173/36 56/174/36 54/175/36
f 56/176/36 57/177/36 54/178/36
f 57/179/36 58/180/36 54/181/36
f 58/182/36 52/183/36 54/184/36
f 53/185/37 45/186/37 48/187/37 55/188/37
f 49/189/38 56/190/38 55/191/38 48/192/38
f 56/193/39 49/194/39 50/195/39 57/196/39
f 51/197/40 58/198/40 57/199/40 50/200/40
f 58/201/41 51/202/41 46/203/41 52/204/41
f 53/185/42 52/205/42 46/203/42 45/206/42
f 59/207/35 60/208/35 61/209/35
f 60/210/42 59/211/42 62/212/42 63/213/42
f 63/214/36 62/215/36 64/216/36
f 65/217/35 59/218/35 61/219/35
f 59/220/37 65/221/37 66/222/37 62/223/37
f 62/224/36 66/225/36 64/226/36
f 67/227/35 65/228/35 61/229/35
f 65/230/38 67/231/38 68/232/38 66/233/38
f 66/234/36 68/235/36 64/236/36
f 69/237/35 67/238/35 61/239/35
f 67/240/39 69/241/39 70/242/39 68/243/39
f 68/244/36 70/245/36 64/246/36
f 71/247/35 69/248/35 61/249/35
f 69/250/40 71/251/40 72/252/40 70/253/40
f 70/254/36 72/255/36 64/256/36
f 60/257/35 71/258/35 61/259/35
f 71/260/41 60/261/41 63/262/41 72/263/41
f 72/264/36 63/265/36 64/266/36
o mount
v -0.062500 0.062500 0.062500
v -0.062500 0.062500 -0.062500
v -0.062500 0.000000 -0.062500
v -0.062500 -0.000000 0.062500
v 0.062500 0.000000 -0.062500
v 0.062500 0.062500 -0.062500
v 0.062500 0.062500 0.062500
v 0.062500 -0.000000 0.062500
v -0.031250 0.007812 0.031250
v -0.031250 0.007813 -0.031250
v 0.031250 0.007813 -0.031250
v 0.031250 0.007812 0.031250
vt 0.500000 0.500000
vt 0.500000 0.750000
vt 0.375000 0.750000
vt 0.375000 0.500000
vt 0.500000 0.875000
vt 0.500000 1.000000
vt 0.250000 1.000000
vt 0.250000 0.875000
vt 0.250000 0.750000
vt 0.250000 1.000000
vt 0.000000 1.000000
vt 0.000000 0.750000
vt 0.625000 0.125000
vt 0.625000 0.375000
vt 0.375000 0.375000
vt 0.375000 0.125000
vt 0.500000 0.750000
vt 0.500000 0.875000
vt 0.250000 0.875000
vt 0.250000 0.750000
vt 0.375000 0.500000
vt 0.375000 0.750000
vt 0.250000 0.750000
vt 0.250000 0.500000
vt 0.187500 0.687500
vt 0.187500 0.562500
vt 0.250000 0.500000
vt 0.250000 0.750000
vt 0.062500 0.562500
vt 0.062500 0.687500
vt 0.000000 0.750000
vt 0.000000 0.500000
vt 0.187500 0.562500
vt 0.187500 0.687500
vt 0.125000 0.750000
vt 0.125000 0.500000
vt 0.062500 0.562500
vt 0.062500 0.687500
vt 0.125000 0.750000
vt 0.125000 0.500000
vn -1.0000 0.0000 0.0000
vn 1.0000 0.0000 0.0000
vn 0.0000 1.0000 0.0000
vn 0.0000 -1.0000 -0.0000
vn 0.0000 0.0000 -1.0000
vn 0.0000 0.0000 1.0000
vn 0.2425 -0.9701 -0.0000
vn 0.0000 -0.9701 0.2425
vn -0.2425 -0.9701 -0.0000
vn 0.0000 -0.9701 -0.2425
usemtl m_0.003
s 1
f 73/267/43 74/268/43 75/269/43 76/270/43
f 77/271/44 78/272/44 79/273/44 80/274/44
f 78/275/45 74/276/45 73/277/45 79/278/45
f 81/279/46 82/280/46 83/281/46 84/282/46
f 75/283/47 74/284/47 78/285/47 77/286/47
f 79/287/48 73/288/48 76/289/48 80/290/48
f 82/291/49 81/292/49 76/293/49 75/294/49
f 83/295/50 82/296/50 75/297/50 77/298/50
f 84/299/51 83/300/51 77/301/51 80/302/51
f 81/303/52 84/304/52 80/305/52 76/306/52
