# Blender v2.79 (sub 0) OBJ File: ''
# www.blender.org
mtllib hitch.mtl
o bolt
v 0.013532 -0.070312 0.007812
v 0.000000 -0.070313 0.015625
v 0.000000 -0.070312 -0.000000
v 0.013532 -0.070312 -0.007812
v 0.000000 -0.070312 -0.015625
v -0.013532 -0.070312 -0.007812
v -0.013532 -0.070312 0.007812
v 0.000000 -0.023438 0.015625
v 0.013532 -0.023438 0.007813
v 0.000000 -0.023438 0.000000
v 0.013532 -0.023438 -0.007812
v 0.000000 -0.023438 -0.015625
v -0.013532 -0.023438 -0.007812
v -0.013532 -0.023438 0.007813
v 0.027063 -0.085938 0.015625
v 0.000000 -0.085938 0.031250
v 0.000000 -0.085938 -0.000000
v 0.027063 -0.070313 0.015625
v 0.000000 -0.070313 0.031250
v 0.000000 -0.070312 -0.000000
v 0.027063 -0.085938 -0.015625
v 0.027063 -0.070312 -0.015625
v 0.000000 -0.085937 -0.031250
v 0.000000 -0.070312 -0.031250
v -0.027063 -0.085938 -0.015625
v -0.027063 -0.070312 -0.015625
v -0.027063 -0.085938 0.015625
v -0.027063 -0.070313 0.015625
vt 0.812500 0.210938
vt 0.798969 0.203125
vt 0.798969 0.218750
vt 0.812500 0.210938
vt 0.812500 0.195312
vt 0.798969 0.203125
vt 0.798969 0.203125
vt 0.812500 0.195312
vt 0.798969 0.187500
vt 0.785297 0.195312
vt 0.798828 0.203125
vt 0.798828 0.187500
vt 0.785297 0.195312
vt 0.785297 0.210938
vt 0.798828 0.203125
vt 0.798828 0.203125
vt 0.785297 0.210938
vt 0.798828 0.218750
vt 0.798969 0.234375
vt 0.812500 0.242188
vt 0.798969 0.250000
vt 0.812500 0.226562
vt 0.812500 0.242188
vt 0.798969 0.234375
vt 0.812500 0.226562
vt 0.798969 0.234375
vt 0.798969 0.218750
vt 0.798828 0.234375
vt 0.785297 0.226562
vt 0.798828 0.218750
vt 0.785297 0.242188
vt 0.785297 0.226562
vt 0.798828 0.234375
vt 0.785297 0.242188
vt 0.798828 0.234375
vt 0.798828 0.250000
vt 0.812500 0.250000
vt 0.812500 0.000000
vt 0.875000 0.000000
vt 0.875000 0.250000
vt 0.812500 0.250000
vt 0.812500 0.000000
vt 0.875000 0.000000
vt 0.875000 0.250000
vt 0.812500 0.250000
vt 0.812500 0.000000
vt 0.875000 0.000000
vt 0.875000 0.250000
vt 0.812500 0.250000
vt 0.812500 0.000000
vt 0.875000 0.000000
vt 0.875000 0.250000
vt 0.812500 0.250000
vt 0.812500 0.000000
vt 0.875000 0.000000
vt 0.875000 0.250000
vt 0.812500 0.000000
vt 0.875000 0.250000
vt 1.000000 0.140625
vt 0.972938 0.156250
vt 0.972938 0.125000
vt 0.937500 0.000000
vt 1.000000 0.000000
vt 1.000000 0.125000
vt 0.937500 0.125000
vt 0.972938 0.218750
vt 1.000000 0.234375
vt 0.972938 0.250000
vt 1.000000 0.140625
vt 1.000000 0.171875
vt 0.972938 0.156250
vt 0.937500 0.000000
vt 1.000000 0.000000
vt 1.000000 0.125000
vt 0.937500 0.125000
vt 1.000000 0.203125
vt 1.000000 0.234375
vt 0.972938 0.218750
vt 0.972938 0.156250
vt 1.000000 0.171875
vt 0.972938 0.187500
vt 0.937500 0.000000
vt 1.000000 0.000000
vt 1.000000 0.125000
vt 0.937500 0.125000
vt 1.000000 0.203125
vt 0.972938 0.218750
vt 0.972938 0.187500
vt 0.945594 0.171875
vt 0.972656 0.156250
vt 0.972656 0.187500
vt 0.937500 0.000000
vt 1.000000 0.000000
vt 1.000000 0.125000
vt 0.937500 0.125000
vt 0.972375 0.218750
vt 0.945312 0.203125
vt 0.972375 0.187500
vt 0.945594 0.171875
vt 0.945594 0.140625
vt 0.972656 0.156250
vt 0.937500 0.000000
vt 1.000000 0.000000
vt 1.000000 0.125000
vt 0.937500 0.125000
vt 0.945312 0.234375
vt 0.945312 0.203125
vt 0.972375 0.218750
vt 0.972656 0.156250
vt 0.945594 0.140625
vt 0.972656 0.125000
vt 0.937500 0.000000
vt 1.000000 0.000000
vt 1.000000 0.125000
vt 0.937500 0.125000
vt 0.945312 0.234375
vt 0.972375 0.218750
vt 0.972375 0.250000
vn 0.0000 -1.0000 -0.0000
vn 0.0000 -1.0000 -0.0001
vn 0.0000 1.0000 0.0000
vn 1.0000 -0.0000 0.0000
vn 0.5000 0.0000 -0.8660
vn -0.5000 0.0000 -0.8660
vn -1.0000 -0.0000 0.0000
vn -0.5000 -0.0000 0.8660
vn 0.5000 -0.0000 0.8660
usemtl m_0
s 1
f 1/1/1 2/2/2 3/3/1
f 4/4/1 1/5/1 3/6/1
f 5/7/1 4/8/1 3/9/1
f 6/10/1 5/11/1 3/12/1
f 7/13/1 6/14/1 3/15/1
f 2/16/2 7/17/1 3/18/1
f 8/19/3 9/20/3 10/21/3
f 9/22/3 11/23/3 10/24/3
f 11/25/3 12/26/3 10/27/3
f 12/28/3 13/29/3 10/30/3
f 13/31/3 14/32/3 10/33/3
f 14/34/3 8/35/3 10/36/3
f 9/37/4 1/38/4 4/39/4 11/40/4
f 5/41/5 12/42/5 11/43/5 4/44/5
f 12/45/6 5/46/6 6/47/6 13/48/6
f 7/49/7 14/50/7 13/51/7 6/52/7
f 14/53/8 7/54/8 2/55/8 8/56/8
f 9/37/9 8/57/9 2/55/9 1/58/9
f 15/59/1 16/60/1 17/61/1
f 16/62/9 15/63/9 18/64/9 19/65/9
f 19/66/3 18/67/3 20/68/3
f 21/69/1 15/70/1 17/71/1
f 15/72/4 21/73/4 22/74/4 18/75/4
f 18/76/3 22/77/3 20/78/3
f 23/79/1 21/80/1 17/81/1
f 21/82/5 23/83/5 24/84/5 22/85/5
f 22/86/3 24/87/3 20/88/3
f 25/89/1 23/90/1 17/91/1
f 23/92/6 25/93/6 26/94/6 24/95/6
f 24/96/3 26/97/3 20/98/3
f 27/99/1 25/100/1 17/101/1
f 25/102/7 27/103/7 28/104/7 26/105/7
f 26/106/3 28/107/3 20/108/3
f 16/109/1 27/110/1 17/111/1
f 27/112/8 16/113/8 19/114/8 28/115/8
f 28/116/3 19/117/3 20/118/3
o joint
v 0.125000 0.000000 -0.056250
v 0.125000 0.000000 0.037500
v 0.062500 -0.062500 0.006250
v 0.062500 -0.062500 -0.056250
v -0.062500 -0.062500 0.006250
v -0.125000 0.000000 0.037500
v -0.125000 0.000000 -0.056250
v -0.062500 -0.062500 -0.056250
vt 0.093750 1.000000
vt 0.000000 1.000000
vt 0.031250 0.911613
vt 0.093750 0.911613
vt 0.125000 0.911613
vt 0.156250 1.000000
vt 0.062500 1.000000
vt 0.062500 0.911613
vt 0.000000 0.906250
vt 0.250000 0.906250
vt 0.250000 1.000000
vt 0.000000 1.000000
vt 0.125000 0.937500
vt 0.125000 1.000000
vt 0.000000 1.000000
vt 0.000000 0.937500
vt 0.187500 0.930119
vt 0.250000 1.000000
vt 0.000000 1.000000
vt 0.062500 0.930119
vt 0.250000 1.000000
vt 0.000000 1.000000
vt 0.062500 0.937500
vt 0.187500 0.937500
vn 0.7071 -0.7071 -0.0000
vn -0.7071 -0.7071 -0.0000
vn 0.0000 1.0000 0.0000
vn 0.0000 -1.0000 -0.0000
vn 0.0000 -0.4472 0.8944
vn 0.0000 0.0000 -1.0000
usemtl m_0
s 1
f 29/119/10 30/120/10 31/121/10 32/122/10
f 33/123/11 34/124/11 35/125/11 36/126/11
f 34/127/12 30/128/12 29/129/12 35/130/12
f 32/131/13 31/132/13 33/133/13 36/134/13
f 31/135/14 30/136/14 34/137/14 33/138/14
f 35/139/15 29/140/15 32/141/15 36/142/15
o pivot
v -0.046875 -0.156250 -0.431250
v -0.046875 -0.156250 -0.400000
v -0.046875 -0.125000 -0.400000
v -0.046875 -0.125000 -0.493750
v 0.046875 -0.125000 -0.493750
v 0.046875 -0.125000 -0.400000
v 0.046875 -0.156250 -0.400000
v 0.046875 -0.156250 -0.431250
v 0.093750 -0.031250 -0.056250
v -0.093750 -0.031250 -0.056250
v -0.062500 -0.062500 -0.056250
v 0.062500 -0.062500 -0.056250
v -0.093750 -0.078125 -0.243750
v -0.062500 -0.109375 -0.243750
v 0.062500 -0.109375 -0.243750
v 0.093750 -0.078125 -0.243750
v -0.023438 0.000000 -0.423438
v -0.023438 0.000000 -0.470313
v -0.031250 -0.031250 -0.478125
v -0.031250 -0.031250 -0.415625
v 0.031250 -0.031250 -0.478125
v 0.023438 0.000000 -0.470313
v 0.023438 0.000000 -0.423438
v 0.031250 -0.031250 -0.415625
v -0.031250 -0.125000 -0.415625
v -0.031250 -0.125000 -0.478125
v 0.031250 -0.125000 -0.478125
v 0.031250 -0.125000 -0.415625
vt 0.062500 0.968750
vt 0.093750 0.968750
vt 0.093750 1.000000
vt 0.000000 1.000000
vt 0.093750 1.000000
vt 0.000000 1.000000
vt 0.000000 0.968750
vt 0.031250 0.968750
vt 0.000000 0.875000
vt 0.125000 0.875000
vt 0.125000 1.000000
vt 0.125000 0.937500
vt 0.125000 1.000000
vt 0.000000 1.000000
vt 0.000000 0.937500
vt 0.125000 0.937500
vt 0.125000 1.000000
vt 0.000000 1.000000
vt 0.000000 0.937500
vt 0.187500 1.000000
vt 0.000000 1.000000
vt 0.031250 0.968750
vt 0.156250 0.968750
vt 0.198563 1.000000
vt 0.000000 1.000000
vt 0.000000 0.937500
vt 0.172088 0.937500
vt 0.000000 1.000000
vt 0.031250 0.875000
vt 0.218750 0.875000
vt 0.250000 1.000000
vt 0.009945 0.937500
vt 0.193931 0.937500
vt 0.193931 1.000000
vt 0.000000 1.000000
vt 0.187500 0.875000
vt 0.140625 1.000000
vt 0.046875 1.000000
vt 0.000000 0.875000
vt 0.000000 0.937500
vt 0.187500 0.937500
vt 0.187500 1.000000
vt 0.000000 1.000000
vt 0.062500 0.955806
vt 0.062500 1.000000
vt 0.000000 0.955806
vt 0.125000 1.000000
vt 0.000000 1.000000
vt 0.000000 0.937500
vt 0.125000 0.937500
vt 0.000000 1.000000
vt 0.000000 0.955806
vt 0.062500 0.955806
vt 0.062500 1.000000
vt 0.312500 0.187500
vt 0.500000 0.187500
vt 0.500000 0.250000
vt 0.312500 0.250000
vt 0.312500 0.187500
vt 0.500000 0.187500
vt 0.500000 0.250000
vt 0.312500 0.250000
vt 0.312500 0.000000
vt 0.500000 0.000000
vt 0.500000 0.187500
vt 0.312500 0.187500
vt 0.500000 0.125000
vt 0.625000 0.125000
vt 0.625000 0.250000
vt 0.500000 0.250000
vt 0.312500 0.187500
vt 0.500000 0.250000
vt 0.312500 0.250000
vt 0.500000 0.250000
vt 0.625000 0.000000
vt 0.812500 0.000000
vt 0.812500 0.281250
vt 0.625000 0.281250
vt 0.812500 0.000000
vt 0.812500 0.281250
vt 0.625000 0.000000
vt 0.625000 0.281250
vn -1.0000 0.0000 0.0000
vn 1.0000 0.0000 0.0000
vn 0.0000 1.0000 0.0000
vn 0.0000 -1.0000 -0.0000
vn 0.0000 -0.8944 -0.4472
vn 0.0000 0.0000 1.0000
vn -0.9578 0.0000 -0.2874
vn -0.9578 -0.0000 -0.2873
vn 0.0000 -0.9578 0.2873
vn 0.9950 -0.0000 -0.0995
vn 0.0000 0.9578 -0.2873
vn 0.0000 0.9701 -0.2425
vn -0.6963 -0.6963 0.1741
vn 0.0000 -0.9701 0.2425
vn 0.6963 -0.6963 0.1741
vn -0.9701 0.2425 0.0000
vn 0.9701 0.2425 0.0000
vn 0.0000 0.2425 -0.9701
vn 0.0000 0.2426 0.9701
vn 0.0000 0.0000 -1.0000
usemtl m_0
s 1
f 37/143/16 38/144/16 39/145/16 40/146/16
f 41/147/17 42/148/17 43/149/17 44/150/17
f 40/146/18 39/151/18 42/152/18 41/153/18
f 44/154/19 43/155/19 38/156/19 37/157/19
f 37/158/20 40/159/20 41/160/20 44/161/20
f 45/162/21 46/163/21 47/164/21 48/165/21
f 49/166/22 39/167/23 38/168/22 50/169/23
f 50/170/24 38/171/24 43/172/24 51/173/24
f 51/174/25 43/175/25 42/176/25 52/177/25
f 52/178/26 42/179/26 39/180/26 49/181/26
f 46/182/27 45/183/27 52/184/27 49/185/27
f 47/186/28 46/187/28 49/185/28 50/188/28
f 48/189/29 47/190/29 50/191/29 51/192/29
f 45/193/30 48/194/30 51/195/30 52/196/30
f 53/197/31 54/198/31 55/199/31 56/200/31
f 57/201/32 58/202/32 59/203/32 60/204/32
f 58/205/18 54/206/18 53/207/18 59/208/18
f 61/209/19 62/210/19 63/211/19 64/212/19
f 55/213/33 54/198/33 58/214/33 57/215/33
f 59/208/34 53/207/34 56/216/34 60/204/34
f 62/217/16 61/218/16 56/219/16 55/220/16
f 63/221/35 62/217/35 55/220/35 57/222/35
f 64/223/17 63/221/17 57/222/17 60/224/17
f 61/218/21 64/223/21 60/224/21 56/219/21
