# Blender v2.79 (sub 0) OBJ File: 'hudmodel.blend'
# www.blender.org
mtllib mp7.mtl
o ammoModel
v -0.046875 -0.013332 -0.097290
v -0.046875 -0.013332 0.008960
v 0.046875 -0.013332 0.008960
v 0.046875 -0.013332 -0.097290
v 0.046875 -0.388332 -0.097290
v 0.046875 -0.388332 0.008960
v -0.046875 -0.388332 0.008960
v -0.046875 -0.388332 -0.097290
vt 1.062500 0.937500
vt 1.125000 0.937500
vt 1.125000 1.000000
vt 1.062500 1.000000
vt 1.125000 0.937500
vt 1.187500 0.937500
vt 1.187500 1.000000
vt 1.125000 1.000000
vt 1.062500 0.750000
vt 1.125000 0.750000
vt 1.250000 0.937500
vt 1.187500 0.937500
vt 1.187500 0.750000
vt 1.250000 0.750000
vt 1.000000 0.937500
vt 1.000000 0.750000
vn 0.0000 1.0000 0.0000
vn 0.0000 -1.0000 0.0000
vn -1.0000 0.0000 0.0000
vn 1.0000 0.0000 0.0000
vn 0.0000 -0.0000 1.0000
vn 0.0000 0.0000 -1.0000
usemtl ModelMaterial
s 1
f 1/1/1 2/2/1 3/3/1 4/4/1
f 5/5/2 6/6/2 7/7/2 8/8/2
f 2/2/3 1/1/3 8/9/3 7/10/3
f 4/11/4 3/12/4 6/13/4 5/14/4
f 3/12/5 2/2/5 7/10/5 6/13/5
f 1/1/6 4/15/6 5/16/6 8/9/6
o hudModel.001
v -0.000001 -0.000001 0.000001
v -0.000001 0.000001 0.000001
v -0.000001 0.000001 -0.000001
v -0.000001 -0.000001 -0.000001
v 0.000001 0.000001 -0.000001
v 0.000001 -0.000001 -0.000001
v 0.000001 0.000001 0.000001
v 0.000001 -0.000001 0.000001
vt 0.000000 0.000000
vt 1.000000 0.000000
vt 1.000000 1.000000
vt 0.000000 1.000000
vt 0.000000 0.000000
vt 1.000000 0.000000
vt 1.000000 1.000000
vt 0.000000 1.000000
vt 0.000000 0.000000
vt 1.000000 0.000000
vt 1.000000 1.000000
vt 0.000000 1.000000
vt 0.000000 0.000000
vt 1.000000 0.000000
vt 1.000000 1.000000
vt 0.000000 1.000000
vt 1.000000 0.000000
vt 1.000000 1.000000
vt 0.000000 0.000000
vt 0.000000 1.000000
vn -1.0000 0.0000 0.0000
vn 0.0000 0.0000 -1.0000
vn 1.0000 0.0000 0.0000
vn 0.0000 0.0000 1.0000
vn 0.0000 -1.0000 0.0000
vn 0.0000 1.0000 0.0000
usemtl None
s off
f 9/17/7 10/18/7 11/19/7 12/20/7
f 12/21/8 11/22/8 13/23/8 14/24/8
f 14/25/9 13/26/9 15/27/9 16/28/9
f 16/29/10 15/30/10 10/31/10 9/32/10
f 12/21/11 14/33/11 16/34/11 9/32/11
f 13/35/12 11/22/12 10/31/12 15/36/12
o gunModel
v -0.062500 0.080418 -0.231665
v -0.062500 0.080418 0.268335
v 0.062500 0.080418 0.268335
v 0.062500 0.080418 -0.231665
v 0.062500 0.017918 -0.231665
v 0.062500 0.017918 0.268335
v -0.062500 0.017918 0.268335
v -0.062500 0.017918 -0.231665
v -0.056250 0.017918 -0.106665
v -0.056250 0.017918 0.018335
v 0.056250 0.017918 0.018335
v 0.056250 0.017918 -0.106665
v 0.056250 -0.232082 -0.106665
v 0.056250 -0.232082 0.018335
v -0.056250 -0.232082 0.018335
v -0.056250 -0.232082 -0.106665
v -0.062500 0.174168 -0.231665
v -0.062500 0.174168 -0.044165
v 0.062500 0.174168 -0.044165
v 0.062500 0.174168 -0.231665
v 0.062500 0.080418 -0.231665
v 0.062500 0.080418 -0.044165
v -0.062500 0.080418 -0.044165
v -0.062500 0.080418 -0.231665
v -0.046875 0.174168 -0.044165
v -0.046875 0.174168 0.237085
v 0.046875 0.174168 0.237085
v 0.046875 0.174168 -0.044165
v 0.062500 0.080418 -0.044165
v 0.062500 0.080418 0.268335
v -0.062500 0.080418 0.268335
v -0.062500 0.080418 -0.044165
v -0.062500 0.174168 -0.294165
v -0.062500 0.174168 -0.231665
v 0.062500 0.174168 -0.231665
v 0.062500 0.174168 -0.294165
v 0.062500 -0.075832 -0.294165
v 0.062500 -0.075832 -0.231665
v -0.062500 -0.075832 -0.231665
v -0.062500 -0.075832 -0.294165
v -0.031250 0.096043 0.237085
v -0.031250 0.096043 0.362085
v 0.031250 0.096043 0.362085
v 0.031250 0.096043 0.237085
v 0.031250 0.033543 0.237085
v 0.031250 0.033543 0.362085
v -0.031250 0.033543 0.362085
v -0.031250 0.033543 0.237085
v -0.037500 0.017918 0.168335
v -0.037500 0.017918 0.243335
v 0.037500 0.017918 0.243335
v 0.037500 0.017918 0.168335
v 0.037500 -0.169582 0.168335
v 0.037500 -0.169582 0.243335
v -0.037500 -0.169582 0.243335
v -0.037500 -0.169582 0.168335
vt 1.062500 0.687500
vt 1.312500 0.687500
vt 1.312500 0.750000
vt 1.062500 0.750000
vt 1.312500 0.687500
vt 1.562500 0.687500
vt 1.562500 0.750000
vt 1.312500 0.750000
vt 1.062500 0.656200
vt 1.312500 0.656200
vt 1.625000 0.687500
vt 1.375000 0.687500
vt 1.375000 0.656200
vt 1.625000 0.656200
vt 1.000000 0.687500
vt 1.000000 0.656200
vt 1.062500 0.593800
vt 1.125000 0.593800
vt 1.125000 0.656200
vt 1.062500 0.656200
vt 1.125000 0.593800
vt 1.187500 0.593800
vt 1.187500 0.656200
vt 1.125000 0.656200
vt 1.062500 0.468800
vt 1.125000 0.468800
vt 1.250000 0.593800
vt 1.187500 0.593800
vt 1.187500 0.468800
vt 1.250000 0.468800
vt 1.000000 0.593800
vt 1.000000 0.468800
vt 1.062500 0.406200
vt 1.156200 0.406200
vt 1.156200 0.468800
vt 1.062500 0.468800
vt 1.156200 0.406200
vt 1.250000 0.406200
vt 1.250000 0.468800
vt 1.156200 0.468800
vt 1.062500 0.343800
vt 1.156200 0.343800
vt 1.312500 0.406200
vt 1.218800 0.406200
vt 1.218800 0.343800
vt 1.312500 0.343800
vt 1.000000 0.406200
vt 1.000000 0.343800
vt 1.312500 0.593800
vt 1.468800 0.593800
vt 1.468800 0.656200
vt 1.312500 0.656200
vt 1.468800 0.593800
vt 1.625000 0.593800
vt 1.625000 0.656200
vt 1.468800 0.656200
vt 1.312500 0.531200
vt 1.468800 0.531200
vt 1.687500 0.593800
vt 1.531200 0.593800
vt 1.531200 0.531200
vt 1.687500 0.531200
vt 1.250000 0.593800
vt 1.250000 0.531200
vt 1.312500 0.875000
vt 1.343800 0.875000
vt 1.343800 0.937500
vt 1.312500 0.937500
vt 1.343800 0.875000
vt 1.375000 0.875000
vt 1.375000 0.937500
vt 1.343800 0.937500
vt 1.312500 0.750000
vt 1.343800 0.750000
vt 1.437500 0.875000
vt 1.406200 0.875000
vt 1.406200 0.750000
vt 1.437500 0.750000
vt 1.250000 0.875000
vt 1.250000 0.750000
vt 1.281200 0.437500
vt 1.343800 0.437500
vt 1.343800 0.468800
vt 1.281200 0.468800
vt 1.343800 0.437500
vt 1.406200 0.437500
vt 1.406200 0.468800
vt 1.343800 0.468800
vt 1.281200 0.406200
vt 1.343800 0.406200
vt 1.437500 0.437500
vt 1.375000 0.437500
vt 1.375000 0.406200
vt 1.437500 0.406200
vt 1.250000 0.437500
vt 1.250000 0.406200
vt 1.031200 0.312500
vt 1.062500 0.312500
vt 1.062500 0.343800
vt 1.031200 0.343800
vt 1.062500 0.312500
vt 1.093800 0.312500
vt 1.093800 0.343800
vt 1.062500 0.343800
vt 1.031200 0.218800
vt 1.062500 0.218800
vt 1.125000 0.312500
vt 1.093800 0.312500
vt 1.093800 0.218800
vt 1.125000 0.218800
vt 1.000000 0.312500
vt 1.000000 0.218800
vn 0.0000 1.0000 0.0000
vn 0.0000 -1.0000 -0.0000
vn -1.0000 0.0000 0.0000
vn 1.0000 0.0000 0.0000
vn 0.0000 0.0000 1.0000
vn 0.0000 0.0000 -1.0000
vn -0.9864 0.1644 0.0000
vn 0.9864 0.1644 0.0000
vn 0.0000 0.3162 0.9487
usemtl ModelMaterial
s 1
f 17/37/13 18/38/13 19/39/13 20/40/13
f 21/41/14 22/42/14 23/43/14 24/44/14
f 18/38/15 17/37/15 24/45/15 23/46/15
f 20/47/16 19/48/16 22/49/16 21/50/16
f 19/48/17 18/38/17 23/46/17 22/49/17
f 17/37/18 20/51/18 21/52/18 24/45/18
f 25/53/13 26/54/13 27/55/13 28/56/13
f 29/57/14 30/58/14 31/59/14 32/60/14
f 26/54/15 25/53/15 32/61/15 31/62/15
f 28/63/16 27/64/16 30/65/16 29/66/16
f 27/64/17 26/54/17 31/62/17 30/65/17
f 25/53/18 28/67/18 29/68/18 32/61/18
f 33/69/13 34/70/13 35/71/13 36/72/13
f 37/73/14 38/74/14 39/75/14 40/76/14
f 34/70/15 33/69/15 40/77/15 39/78/15
f 36/79/16 35/80/16 38/81/16 37/82/16
f 35/80/17 34/70/17 39/78/17 38/81/17
f 33/69/18 36/83/18 37/84/18 40/77/18
f 41/85/13 42/86/13 43/87/13 44/88/13
f 45/89/14 46/90/14 47/91/14 48/92/14
f 42/86/19 41/85/19 48/93/19 47/94/19
f 44/95/20 43/96/20 46/97/20 45/98/20
f 43/96/21 42/86/21 47/94/21 46/97/21
f 41/85/18 44/99/18 45/100/18 48/93/18
f 49/101/13 50/102/13 51/103/13 52/104/13
f 53/105/14 54/106/14 55/107/14 56/108/14
f 50/102/15 49/101/15 56/109/15 55/110/15
f 52/111/16 51/112/16 54/113/16 53/114/16
f 51/112/17 50/102/17 55/110/17 54/113/17
f 49/101/18 52/115/18 53/116/18 56/109/18
f 57/117/13 58/118/13 59/119/13 60/120/13
f 61/121/14 62/122/14 63/123/14 64/124/14
f 58/118/15 57/117/15 64/125/15 63/126/15
f 60/127/16 59/128/16 62/129/16 61/130/16
f 59/128/17 58/118/17 63/126/17 62/129/17
f 57/117/18 60/131/18 61/132/18 64/125/18
f 65/133/13 66/134/13 67/135/13 68/136/13
f 69/137/14 70/138/14 71/139/14 72/140/14
f 66/134/15 65/133/15 72/141/15 71/142/15
f 68/143/16 67/144/16 70/145/16 69/146/16
f 67/144/17 66/134/17 71/142/17 70/145/17
f 65/133/18 68/147/18 69/148/18 72/141/18
o hudAmmoModel.001
v -0.000001 -0.000001 0.000001
v -0.000001 0.000001 0.000001
v -0.000001 0.000001 -0.000001
v -0.000001 -0.000001 -0.000001
v 0.000001 0.000001 -0.000001
v 0.000001 -0.000001 -0.000001
v 0.000001 0.000001 0.000001
v 0.000001 -0.000001 0.000001
vt 0.000000 0.000000
vt 1.000000 0.000000
vt 1.000000 1.000000
vt 0.000000 1.000000
vt 0.000000 0.000000
vt 1.000000 0.000000
vt 1.000000 1.000000
vt 0.000000 1.000000
vt 0.000000 0.000000
vt 1.000000 0.000000
vt 1.000000 1.000000
vt 0.000000 1.000000
vt 0.000000 0.000000
vt 1.000000 0.000000
vt 1.000000 1.000000
vt 0.000000 1.000000
vt 1.000000 0.000000
vt 1.000000 1.000000
vt 0.000000 0.000000
vt 0.000000 1.000000
vn -1.0000 0.0000 0.0000
vn 0.0000 0.0000 -1.0000
vn 1.0000 0.0000 0.0000
vn 0.0000 0.0000 1.0000
vn 0.0000 -1.0000 0.0000
vn 0.0000 1.0000 0.0000
usemtl None
s off
f 73/149/22 74/150/22 75/151/22 76/152/22
f 76/153/23 75/154/23 77/155/23 78/156/23
f 78/157/24 77/158/24 79/159/24 80/160/24
f 80/161/25 79/162/25 74/163/25 73/164/25
f 76/153/26 78/165/26 80/166/26 73/164/26
f 77/167/27 75/154/27 74/163/27 79/168/27
o hudReloadModel.001
v -0.000001 -0.000001 0.000001
v -0.000001 0.000001 0.000001
v -0.000001 0.000001 -0.000001
v -0.000001 -0.000001 -0.000001
v 0.000001 0.000001 -0.000001
v 0.000001 -0.000001 -0.000001
v 0.000001 0.000001 0.000001
v 0.000001 -0.000001 0.000001
vt 0.000000 0.000000
vt 1.000000 0.000000
vt 1.000000 1.000000
vt 0.000000 1.000000
vt 0.000000 0.000000
vt 1.000000 0.000000
vt 1.000000 1.000000
vt 0.000000 1.000000
vt 0.000000 0.000000
vt 1.000000 0.000000
vt 1.000000 1.000000
vt 0.000000 1.000000
vt 0.000000 0.000000
vt 1.000000 0.000000
vt 1.000000 1.000000
vt 0.000000 1.000000
vt 1.000000 0.000000
vt 1.000000 1.000000
vt 0.000000 0.000000
vt 0.000000 1.000000
vn -1.0000 0.0000 0.0000
vn 0.0000 0.0000 -1.0000
vn 1.0000 0.0000 0.0000
vn 0.0000 0.0000 1.0000
vn 0.0000 -1.0000 0.0000
vn 0.0000 1.0000 0.0000
usemtl None
s off
f 81/169/28 82/170/28 83/171/28 84/172/28
f 84/173/29 83/174/29 85/175/29 86/176/29
f 86/177/30 85/178/30 87/179/30 88/180/30
f 88/181/31 87/182/31 82/183/31 81/184/31
f 84/173/32 86/185/32 88/186/32 81/184/32
f 85/187/33 83/174/33 82/183/33 87/188/33
o hudAmmoModel
v 0.000977 -0.000977 -0.000977
v -0.000977 -0.000977 -0.000977
v -0.000977 0.000977 -0.000977
v 0.000977 0.000977 -0.000977
v 0.000977 -0.000977 0.000977
v 0.000977 0.000977 0.000977
v -0.000977 -0.000977 0.000977
v -0.000977 0.000977 0.000977
vt 0.937500 0.000000
vt 1.000000 0.000000
vt 1.000000 0.062500
vt 0.937500 0.062500
vt 0.937500 0.000000
vt 1.000000 0.000000
vt 1.000000 0.062500
vt 0.937500 0.062500
vt 0.937500 0.000000
vt 1.000000 0.000000
vt 1.000000 0.062500
vt 0.937500 0.062500
vt 0.937500 0.000000
vt 1.000000 0.000000
vt 1.000000 0.062500
vt 0.937500 0.062500
vt 0.937500 0.000000
vt 1.000000 0.000000
vt 1.000000 0.062500
vt 0.937500 0.062500
vn 0.0000 0.0000 -1.0000
vn 1.0000 0.0000 0.0000
vn 0.0000 -0.0000 1.0000
vn -1.0000 0.0000 0.0000
vn 0.0000 1.0000 0.0000
vn 0.0000 -1.0000 -0.0000
usemtl none
s 1
f 89/189/34 90/190/34 91/191/34 92/192/34
f 93/193/35 89/194/35 92/195/35 94/196/35
f 95/197/36 93/198/36 94/199/36 96/200/36
f 90/201/37 95/202/37 96/203/37 91/204/37
f 96/205/38 94/206/38 92/195/38 91/204/38
f 90/201/39 89/194/39 93/207/39 95/208/39
o hudReloadModel
v 0.000977 -0.000977 -0.000977
v -0.000977 -0.000977 -0.000977
v -0.000977 0.000977 -0.000977
v 0.000977 0.000977 -0.000977
v 0.000977 -0.000977 0.000977
v 0.000977 0.000977 0.000977
v -0.000977 -0.000977 0.000977
v -0.000977 0.000977 0.000977
vt 0.937500 0.000000
vt 1.000000 0.000000
vt 1.000000 0.062500
vt 0.937500 0.062500
vt 0.937500 0.000000
vt 1.000000 0.000000
vt 1.000000 0.062500
vt 0.937500 0.062500
vt 0.937500 0.000000
vt 1.000000 0.000000
vt 1.000000 0.062500
vt 0.937500 0.062500
vt 0.937500 0.000000
vt 1.000000 0.000000
vt 1.000000 0.062500
vt 0.937500 0.062500
vt 0.937500 0.000000
vt 1.000000 0.000000
vt 1.000000 0.062500
vt 0.937500 0.062500
vn 0.0000 0.0000 -1.0000
vn 1.0000 0.0000 0.0000
vn 0.0000 -0.0000 1.0000
vn -1.0000 0.0000 0.0000
vn 0.0000 1.0000 0.0000
vn 0.0000 -1.0000 -0.0000
usemtl none
s 1
f 97/209/40 98/210/40 99/211/40 100/212/40
f 101/213/41 97/214/41 100/215/41 102/216/41
f 103/217/42 101/218/42 102/219/42 104/220/42
f 98/221/43 103/222/43 104/223/43 99/224/43
f 104/225/44 102/226/44 100/215/44 99/224/44
f 98/221/45 97/214/45 101/227/45 103/228/45
o hudModel
v 0.000977 -0.000977 -0.000977
v -0.000977 -0.000977 -0.000977
v -0.000977 0.000977 -0.000977
v 0.000977 0.000977 -0.000977
v 0.000977 -0.000977 0.000977
v 0.000977 0.000977 0.000977
v -0.000977 -0.000977 0.000977
v -0.000977 0.000977 0.000977
vt 0.937500 0.000000
vt 1.000000 0.000000
vt 1.000000 0.062500
vt 0.937500 0.062500
vt 0.937500 0.000000
vt 1.000000 0.000000
vt 1.000000 0.062500
vt 0.937500 0.062500
vt 0.937500 0.000000
vt 1.000000 0.000000
vt 1.000000 0.062500
vt 0.937500 0.062500
vt 0.937500 0.000000
vt 1.000000 0.000000
vt 1.000000 0.062500
vt 0.937500 0.062500
vt 0.937500 0.000000
vt 1.000000 0.000000
vt 1.000000 0.062500
vt 0.937500 0.062500
vn 0.0000 0.0000 -1.0000
vn 1.0000 0.0000 0.0000
vn 0.0000 -0.0000 1.0000
vn -1.0000 0.0000 0.0000
vn 0.0000 1.0000 0.0000
vn 0.0000 -1.0000 -0.0000
usemtl none
s 1
f 105/229/46 106/230/46 107/231/46 108/232/46
f 109/233/47 105/234/47 108/235/47 110/236/47
f 111/237/48 109/238/48 110/239/48 112/240/48
f 106/241/49 111/242/49 112/243/49 107/244/49
f 112/245/50 110/246/50 108/235/50 107/244/50
f 106/241/51 105/234/51 109/247/51 111/248/51
