# Blender v2.78 (sub 0) OBJ File: ''
# www.blender.org
mtllib mp7.mtl
o gunModel
v -0.062500 0.080418 -0.231665
v -0.062500 0.080418 0.268335
v 0.062500 0.080418 0.268335
v 0.062500 0.080418 -0.231665
v 0.062500 0.017918 -0.231665
v 0.062500 0.017918 0.268335
v -0.062500 0.017918 0.268335
v -0.062500 0.017918 -0.231665
v -0.056250 0.017918 -0.106665
v -0.056250 0.017918 0.018335
v 0.056250 0.017918 0.018335
v 0.056250 0.017918 -0.106665
v 0.056250 -0.232082 -0.106665
v 0.056250 -0.232082 0.018335
v -0.056250 -0.232082 0.018335
v -0.056250 -0.232082 -0.106665
v -0.062500 0.174168 -0.231665
v -0.062500 0.174168 -0.044165
v 0.062500 0.174168 -0.044165
v 0.062500 0.174168 -0.231665
v 0.062500 0.080418 -0.231665
v 0.062500 0.080418 -0.044165
v -0.062500 0.080418 -0.044165
v -0.062500 0.080418 -0.231665
v -0.046875 0.174168 -0.044165
v -0.046875 0.174168 0.237085
v 0.046875 0.174168 0.237085
v 0.046875 0.174168 -0.044165
v 0.062500 0.080418 -0.044165
v 0.062500 0.080418 0.268335
v -0.062500 0.080418 0.268335
v -0.062500 0.080418 -0.044165
v -0.062500 0.174168 -0.294165
v -0.062500 0.174168 -0.231665
v 0.062500 0.174168 -0.231665
v 0.062500 0.174168 -0.294165
v 0.062500 -0.075832 -0.294165
v 0.062500 -0.075832 -0.231665
v -0.062500 -0.075832 -0.231665
v -0.062500 -0.075832 -0.294165
v -0.031250 0.096043 0.237085
v -0.031250 0.096043 0.362085
v 0.031250 0.096043 0.362085
v 0.031250 0.096043 0.237085
v 0.031250 0.033543 0.237085
v 0.031250 0.033543 0.362085
v -0.031250 0.033543 0.362085
v -0.031250 0.033543 0.237085
v -0.037500 0.017918 0.168335
v -0.037500 0.017918 0.243335
v 0.037500 0.017918 0.243335
v 0.037500 0.017918 0.168335
v 0.037500 -0.169582 0.168335
v 0.037500 -0.169582 0.243335
v -0.037500 -0.169582 0.243335
v -0.037500 -0.169582 0.168335
vt 1.0625 0.6875
vt 1.3125 0.6875
vt 1.3125 0.7500
vt 1.0625 0.7500
vt 1.3125 0.6875
vt 1.5625 0.6875
vt 1.5625 0.7500
vt 1.3125 0.7500
vt 1.0625 0.6562
vt 1.3125 0.6562
vt 1.6250 0.6875
vt 1.3750 0.6875
vt 1.3750 0.6562
vt 1.6250 0.6562
vt 1.0000 0.6875
vt 1.0000 0.6562
vt 1.0625 0.5938
vt 1.1250 0.5938
vt 1.1250 0.6562
vt 1.0625 0.6562
vt 1.1250 0.5938
vt 1.1875 0.5938
vt 1.1875 0.6562
vt 1.1250 0.6562
vt 1.0625 0.4688
vt 1.1250 0.4688
vt 1.2500 0.5938
vt 1.1875 0.5938
vt 1.1875 0.4688
vt 1.2500 0.4688
vt 1.0000 0.5938
vt 1.0000 0.4688
vt 1.0625 0.4062
vt 1.1562 0.4062
vt 1.1562 0.4688
vt 1.0625 0.4688
vt 1.1562 0.4062
vt 1.2500 0.4062
vt 1.2500 0.4688
vt 1.1562 0.4688
vt 1.0625 0.3438
vt 1.1562 0.3438
vt 1.3125 0.4062
vt 1.2188 0.4062
vt 1.2188 0.3438
vt 1.3125 0.3438
vt 1.0000 0.4062
vt 1.0000 0.3438
vt 1.3125 0.5938
vt 1.4688 0.5938
vt 1.4688 0.6562
vt 1.3125 0.6562
vt 1.4688 0.5938
vt 1.6250 0.5938
vt 1.6250 0.6562
vt 1.4688 0.6562
vt 1.3125 0.5312
vt 1.4688 0.5312
vt 1.6875 0.5938
vt 1.5312 0.5938
vt 1.5312 0.5312
vt 1.6875 0.5312
vt 1.2500 0.5938
vt 1.2500 0.5312
vt 1.3125 0.8750
vt 1.3438 0.8750
vt 1.3438 0.9375
vt 1.3125 0.9375
vt 1.3438 0.8750
vt 1.3750 0.8750
vt 1.3750 0.9375
vt 1.3438 0.9375
vt 1.3125 0.7500
vt 1.3438 0.7500
vt 1.4375 0.8750
vt 1.4062 0.8750
vt 1.4062 0.7500
vt 1.4375 0.7500
vt 1.2500 0.8750
vt 1.2500 0.7500
vt 1.2812 0.4375
vt 1.3438 0.4375
vt 1.3438 0.4688
vt 1.2812 0.4688
vt 1.3438 0.4375
vt 1.4062 0.4375
vt 1.4062 0.4688
vt 1.3438 0.4688
vt 1.2812 0.4062
vt 1.3438 0.4062
vt 1.4375 0.4375
vt 1.3750 0.4375
vt 1.3750 0.4062
vt 1.4375 0.4062
vt 1.2500 0.4375
vt 1.2500 0.4062
vt 1.0312 0.3125
vt 1.0625 0.3125
vt 1.0625 0.3438
vt 1.0312 0.3438
vt 1.0625 0.3125
vt 1.0938 0.3125
vt 1.0938 0.3438
vt 1.0625 0.3438
vt 1.0312 0.2188
vt 1.0625 0.2188
vt 1.1250 0.3125
vt 1.0938 0.3125
vt 1.0938 0.2188
vt 1.1250 0.2188
vt 1.0000 0.3125
vt 1.0000 0.2188
vn 0.0000 1.0000 -0.0000
vn 0.0000 -1.0000 -0.0000
vn -1.0000 -0.0000 0.0000
vn 1.0000 0.0000 -0.0000
vn 0.0000 0.0000 1.0000
vn -0.0000 -0.0000 -1.0000
vn -0.9864 0.1644 0.0000
vn 0.9864 0.1644 -0.0000
vn 0.0000 0.3162 0.9487
usemtl ModelMaterial
s off
f 1/1/1 2/2/1 3/3/1 4/4/1
f 5/5/2 6/6/2 7/7/2 8/8/2
f 2/2/3 1/1/3 8/9/3 7/10/3
f 4/11/4 3/12/4 6/13/4 5/14/4
f 3/12/5 2/2/5 7/10/5 6/13/5
f 1/1/6 4/15/6 5/16/6 8/9/6
f 9/17/1 10/18/1 11/19/1 12/20/1
f 13/21/2 14/22/2 15/23/2 16/24/2
f 10/18/3 9/17/3 16/25/3 15/26/3
f 12/27/4 11/28/4 14/29/4 13/30/4
f 11/28/5 10/18/5 15/26/5 14/29/5
f 9/17/6 12/31/6 13/32/6 16/25/6
f 17/33/1 18/34/1 19/35/1 20/36/1
f 21/37/2 22/38/2 23/39/2 24/40/2
f 18/34/3 17/33/3 24/41/3 23/42/3
f 20/43/4 19/44/4 22/45/4 21/46/4
f 19/44/5 18/34/5 23/42/5 22/45/5
f 17/33/6 20/47/6 21/48/6 24/41/6
f 25/49/1 26/50/1 27/51/1 28/52/1
f 29/53/2 30/54/2 31/55/2 32/56/2
f 26/50/7 25/49/7 32/57/7 31/58/7
f 28/59/8 27/60/8 30/61/8 29/62/8
f 27/60/9 26/50/9 31/58/9 30/61/9
f 25/49/6 28/63/6 29/64/6 32/57/6
f 33/65/1 34/66/1 35/67/1 36/68/1
f 37/69/2 38/70/2 39/71/2 40/72/2
f 34/66/3 33/65/3 40/73/3 39/74/3
f 36/75/4 35/76/4 38/77/4 37/78/4
f 35/76/5 34/66/5 39/74/5 38/77/5
f 33/65/6 36/79/6 37/80/6 40/73/6
f 41/81/1 42/82/1 43/83/1 44/84/1
f 45/85/2 46/86/2 47/87/2 48/88/2
f 42/82/3 41/81/3 48/89/3 47/90/3
f 44/91/4 43/92/4 46/93/4 45/94/4
f 43/92/5 42/82/5 47/90/5 46/93/5
f 41/81/6 44/95/6 45/96/6 48/89/6
f 49/97/1 50/98/1 51/99/1 52/100/1
f 53/101/2 54/102/2 55/103/2 56/104/2
f 50/98/3 49/97/3 56/105/3 55/106/3
f 52/107/4 51/108/4 54/109/4 53/110/4
f 51/108/5 50/98/5 55/106/5 54/109/5
f 49/97/6 52/111/6 53/112/6 56/105/6
o ammoModel
v -0.046875 -0.013332 -0.097290
v -0.046875 -0.013332 0.008960
v 0.046875 -0.013332 0.008960
v 0.046875 -0.013332 -0.097290
v 0.046875 -0.388332 -0.097290
v 0.046875 -0.388332 0.008960
v -0.046875 -0.388332 0.008960
v -0.046875 -0.388332 -0.097290
vt 1.0625 0.9375
vt 1.1250 0.9375
vt 1.1250 1.0000
vt 1.0625 1.0000
vt 1.1250 0.9375
vt 1.1875 0.9375
vt 1.1875 1.0000
vt 1.1250 1.0000
vt 1.0625 0.7500
vt 1.1250 0.7500
vt 1.2500 0.9375
vt 1.1875 0.9375
vt 1.1875 0.7500
vt 1.2500 0.7500
vt 1.0000 0.9375
vt 1.0000 0.7500
vn 0.0000 1.0000 0.0000
vn 0.0000 -1.0000 0.0000
vn -1.0000 -0.0000 0.0000
vn 1.0000 0.0000 -0.0000
vn 0.0000 0.0000 1.0000
vn -0.0000 -0.0000 -1.0000
usemtl ModelMaterial
s off
f 57/113/10 58/114/10 59/115/10 60/116/10
f 61/117/11 62/118/11 63/119/11 64/120/11
f 58/114/12 57/113/12 64/121/12 63/122/12
f 60/123/13 59/124/13 62/125/13 61/126/13
f 59/124/14 58/114/14 63/122/14 62/125/14
f 57/113/15 60/127/15 61/128/15 64/121/15
