# Blender v2.79 (sub 0) OBJ File: ''
# www.blender.org
mtllib radiocopradio.mtl
o ledbar
v 0.054688 0.117187 0.125000
v 0.046875 0.109375 0.132812
v 0.046875 0.078125 0.132812
v 0.054688 0.070312 0.125000
v -0.171875 0.078125 0.132812
v -0.171875 0.109375 0.132812
v -0.179688 0.117187 0.125000
v -0.179688 0.070312 0.125000
vt 0.070312 0.687500
vt 0.062500 0.687500
vt 0.062500 0.671875
vt 0.070312 0.671875
vt 0.195312 0.671875
vt 0.195312 0.687500
vt 0.187500 0.687500
vt 0.187500 0.671875
vt 0.062500 0.742188
vt 0.171875 0.742188
vt 0.171875 0.750000
vt 0.062500 0.750000
vt 0.171875 0.742188
vt 0.171875 0.750000
vt 0.062500 0.750000
vt 0.062500 0.742188
vt 0.171875 0.703125
vt 0.171875 0.718750
vt 0.062500 0.718750
vt 0.062500 0.703125
vt 0.171875 0.718750
vt 0.062500 0.718750
vt 0.062500 0.703125
vt 0.171875 0.703125
vn 0.7071 0.0000 0.7071
vn -0.7071 0.0000 0.7071
vn 0.0000 0.7071 0.7071
vn 0.0000 -0.7071 0.7071
vn 0.0000 0.0000 1.0000
vn 0.0000 0.0000 -1.0000
usemtl m_0
s 1
f 1/1/1 2/2/1 3/3/1 4/4/1
f 5/5/2 6/6/2 7/7/2 8/8/2
f 6/9/3 2/10/3 1/11/3 7/12/3
f 4/13/4 3/14/4 5/15/4 8/16/4
f 3/17/5 2/18/5 6/19/5 5/20/5
f 7/21/6 1/22/6 4/23/6 8/24/6
o thing
v 0.078125 0.109375 0.078125
v 0.078125 0.109375 0.171875
v 0.171875 0.109375 0.171875
v 0.171875 0.109375 0.078125
v 0.171875 0.015625 0.171875
v 0.078125 0.015625 0.171875
v 0.078125 0.015625 0.078125
v 0.171875 0.015625 0.078125
v 0.148438 0.085937 0.171875
v 0.101562 0.085937 0.171875
v 0.101562 0.039062 0.171875
v 0.148438 0.039062 0.171875
v 0.101562 0.085937 0.179688
v 0.148438 0.085937 0.179688
v 0.101562 0.039062 0.179688
v 0.148438 0.039062 0.179688
v 0.156250 0.015625 0.093750
v 0.156250 0.015625 0.156250
v 0.156250 -0.015625 0.156250
v 0.156250 -0.015625 0.093750
v 0.093750 -0.015625 0.156250
v 0.093750 0.015625 0.156250
v 0.093750 0.015625 0.093750
v 0.093750 -0.015625 0.093750
vt 0.625000 0.812500
vt 0.625000 0.875000
vt 0.562500 0.875000
vt 0.562500 0.812500
vt 0.625000 0.875000
vt 0.625000 0.812500
vt 0.562500 0.812500
vt 0.562500 0.875000
vt 0.562500 0.875000
vt 0.625000 0.812500
vt 0.312500 0.906250
vt 0.312500 0.968750
vt 0.250000 0.968750
vt 0.250000 0.906250
vt 0.531250 0.968750
vt 0.531250 0.875000
vt 0.656250 0.875000
vt 0.656250 0.968750
vt 0.613281 0.859375
vt 0.613281 0.828125
vt 0.625631 0.812500
vt 0.625631 0.875000
vt 0.578125 0.862647
vt 0.609375 0.862647
vt 0.562500 0.875000
vt 0.574850 0.828125
vt 0.574850 0.859375
vt 0.562500 0.812500
vt 0.609375 0.824219
vt 0.578125 0.824219
vt 0.562500 0.811866
vt 0.625000 0.811866
vt 0.187500 0.718750
vt 0.187500 0.695312
vt 0.218750 0.695312
vt 0.218750 0.718750
vt 0.187500 0.687500
vt 0.210938 0.687500
vt 0.210938 0.718750
vt 0.187500 0.718750
vt 0.218750 0.695312
vt 0.218750 0.718750
vt 0.187500 0.695312
vt 0.210938 0.718750
vt 0.187500 0.718750
vt 0.187500 0.687500
vt 0.210938 0.687500
vt 0.625000 0.812500
vt 0.625000 0.875000
vt 0.593750 0.875000
vt 0.593750 0.812500
vt 0.625000 0.812500
vt 0.625000 0.843750
vt 0.562500 0.843750
vt 0.562500 0.812500
vt 0.625000 0.812500
vt 0.562500 0.875000
vt 0.562500 0.812500
vt 0.625000 0.812500
vt 0.625000 0.875000
vt 0.562500 0.875000
vt 0.625000 0.843750
vt 0.562500 0.875000
vt 0.562500 0.843750
vt 0.593750 0.812500
vt 0.593750 0.875000
vt 0.562500 0.875000
vn 0.0000 1.0000 0.0000
vn 0.0000 -1.0000 -0.0000
vn -1.0000 0.0000 0.0000
vn 1.0000 0.0000 0.0000
vn 0.0000 0.0000 1.0000
vn 0.0000 0.0000 -1.0000
vn 0.0000 0.3162 0.9487
vn -0.3162 0.0000 0.9487
vn 0.0000 -0.3162 0.9487
vn 0.3162 0.0000 0.9487
usemtl m_0
s 1
f 9/25/7 10/26/7 11/27/7 12/28/7
f 13/29/8 14/30/8 15/31/8 16/32/8
f 14/30/9 10/26/9 9/33/9 15/31/9
f 12/28/10 11/27/10 13/29/10 16/34/10
f 17/35/11 18/36/11 19/37/11 20/38/11
f 15/39/12 9/40/12 12/41/12 16/42/12
f 21/43/13 22/44/13 11/45/13 10/46/13
f 23/47/14 21/48/14 10/26/14 14/49/14
f 24/50/15 23/51/15 14/49/15 13/52/15
f 22/53/16 24/54/16 13/55/16 11/56/16
f 18/57/8 17/58/8 22/59/8 21/60/8
f 19/61/10 18/62/10 21/63/10 23/64/10
f 20/65/7 19/66/7 23/64/7 24/67/7
f 17/68/9 20/69/9 24/70/9 22/71/9
f 25/72/10 26/73/10 27/74/10 28/75/10
f 29/76/9 30/77/9 31/78/9 32/79/9
f 30/80/7 26/73/7 25/81/7 31/82/7
f 28/83/8 27/84/8 29/85/8 32/79/8
f 27/86/11 26/73/11 30/87/11 29/88/11
f 31/89/12 25/90/12 28/91/12 32/79/12
o led5
v 0.046875 0.109375 0.132812
v 0.039062 0.101562 0.140625
v 0.039062 0.085937 0.140625
v 0.046875 0.078125 0.132812
v 0.023438 0.085937 0.140625
v 0.023438 0.101562 0.140625
v 0.015625 0.109375 0.132812
v 0.015625 0.078125 0.132812
vt 0.039062 0.468750
vt 0.031250 0.468750
vt 0.031250 0.453125
vt 0.039062 0.453125
vt 0.039062 0.421875
vt 0.039062 0.437500
vt 0.031250 0.437500
vt 0.031250 0.421875
vt 0.062500 0.460938
vt 0.078125 0.460938
vt 0.078125 0.468750
vt 0.062500 0.468750
vt 0.078125 0.429688
vt 0.078125 0.437500
vt 0.062500 0.437500
vt 0.062500 0.429688
vt 0.046875 0.453125
vt 0.046875 0.468750
vt 0.031250 0.468750
vt 0.031250 0.453125
vt 0.046875 0.468750
vt 0.031250 0.468750
vt 0.031250 0.453125
vt 0.046875 0.453125
vn 0.7071 0.0000 0.7071
vn -0.7071 0.0000 0.7071
vn 0.0000 0.7071 0.7071
vn 0.0000 -0.7071 0.7071
vn 0.0000 0.0000 1.0000
vn 0.0000 0.0000 -1.0000
usemtl m_0
s 1
f 33/92/17 34/93/17 35/94/17 36/95/17
f 37/96/18 38/97/18 39/98/18 40/99/18
f 38/100/19 34/101/19 33/102/19 39/103/19
f 36/104/20 35/105/20 37/106/20 40/107/20
f 35/108/21 34/109/21 38/110/21 37/111/21
f 39/112/22 33/113/22 36/114/22 40/115/22
o led4
v 0.000000 0.109375 0.132812
v -0.007812 0.101562 0.140625
v -0.007812 0.085937 0.140625
v 0.000000 0.078125 0.132812
v -0.023438 0.085937 0.140625
v -0.023438 0.101562 0.140625
v -0.031250 0.109375 0.132812
v -0.031250 0.078125 0.132812
vt 0.039062 0.468750
vt 0.031250 0.468750
vt 0.031250 0.453125
vt 0.039062 0.453125
vt 0.039062 0.421875
vt 0.039062 0.437500
vt 0.031250 0.437500
vt 0.031250 0.421875
vt 0.062500 0.460938
vt 0.078125 0.460938
vt 0.078125 0.468750
vt 0.062500 0.468750
vt 0.078125 0.429688
vt 0.078125 0.437500
vt 0.062500 0.437500
vt 0.062500 0.429688
vt 0.046875 0.453125
vt 0.046875 0.468750
vt 0.031250 0.468750
vt 0.031250 0.453125
vt 0.046875 0.468750
vt 0.031250 0.468750
vt 0.031250 0.453125
vt 0.046875 0.453125
vn 0.7071 0.0000 0.7071
vn -0.7071 0.0000 0.7071
vn 0.0000 0.7071 0.7071
vn 0.0000 -0.7071 0.7071
vn 0.0000 0.0000 1.0000
vn 0.0000 0.0000 -1.0000
usemtl m_0
s 1
f 41/116/23 42/117/23 43/118/23 44/119/23
f 45/120/24 46/121/24 47/122/24 48/123/24
f 46/124/25 42/125/25 41/126/25 47/127/25
f 44/128/26 43/129/26 45/130/26 48/131/26
f 43/132/27 42/133/27 46/134/27 45/135/27
f 47/136/28 41/137/28 44/138/28 48/139/28
o led2
v -0.093750 0.109375 0.132812
v -0.101562 0.101562 0.140625
v -0.101562 0.085937 0.140625
v -0.093750 0.078125 0.132812
v -0.117188 0.085937 0.140625
v -0.117188 0.101562 0.140625
v -0.125000 0.109375 0.132812
v -0.125000 0.078125 0.132812
vt 0.039062 0.468750
vt 0.031250 0.468750
vt 0.031250 0.453125
vt 0.039062 0.453125
vt 0.039062 0.421875
vt 0.039062 0.437500
vt 0.031250 0.437500
vt 0.031250 0.421875
vt 0.062500 0.460938
vt 0.078125 0.460938
vt 0.078125 0.468750
vt 0.062500 0.468750
vt 0.078125 0.429688
vt 0.078125 0.437500
vt 0.062500 0.437500
vt 0.062500 0.429688
vt 0.046875 0.453125
vt 0.046875 0.468750
vt 0.031250 0.468750
vt 0.031250 0.453125
vt 0.046875 0.468750
vt 0.031250 0.468750
vt 0.031250 0.453125
vt 0.046875 0.453125
vn 0.7071 0.0000 0.7071
vn -0.7071 0.0000 0.7071
vn 0.0000 0.7071 0.7071
vn 0.0000 -0.7071 0.7071
vn 0.0000 0.0000 1.0000
vn 0.0000 0.0000 -1.0000
usemtl m_0
s 1
f 49/140/29 50/141/29 51/142/29 52/143/29
f 53/144/30 54/145/30 55/146/30 56/147/30
f 54/148/31 50/149/31 49/150/31 55/151/31
f 52/152/32 51/153/32 53/154/32 56/155/32
f 51/156/33 50/157/33 54/158/33 53/159/33
f 55/160/34 49/161/34 52/162/34 56/163/34
o cube
v 0.187500 0.125000 -0.125000
v 0.187500 0.125000 0.125000
v 0.187500 -0.000000 0.125000
v 0.187500 0.000000 -0.125000
v -0.187500 -0.000000 0.125000
v -0.187500 0.125000 0.125000
v -0.187500 0.125000 -0.125000
v -0.187500 0.000000 -0.125000
vt 0.125000 0.812500
vt 0.000000 0.812500
vt 0.000000 0.750000
vt 0.125000 0.750000
vt 0.250000 0.750000
vt 0.250000 0.812500
vt 0.125000 0.812500
vt 0.125000 0.750000
vt 0.187500 0.875000
vt 0.375000 0.875000
vt 0.375000 1.000000
vt 0.187500 1.000000
vt 0.187500 0.875000
vt 0.187500 1.000000
vt 0.000000 1.000000
vt 0.000000 0.875000
vt 0.375000 0.812500
vt 0.187500 0.812500
vt 0.187500 0.875000
vt 0.000000 0.875000
vt 0.000000 0.812500
vt 0.187500 0.812500
vn 1.0000 0.0000 0.0000
vn -1.0000 -0.0000 0.0000
vn 0.0000 1.0000 0.0000
vn 0.0000 -1.0000 -0.0000
vn 0.0000 0.0000 1.0000
vn 0.0000 0.0000 -1.0000
usemtl m_0
s 1
f 57/164/35 58/165/35 59/166/35 60/167/35
f 61/168/36 62/169/36 63/170/36 64/171/36
f 62/172/37 58/173/37 57/174/37 63/175/37
f 60/176/38 59/177/38 61/178/38 64/179/38
f 59/180/39 58/173/39 62/172/39 61/181/39
f 63/182/40 57/183/40 60/184/40 64/185/40
o knob1
v -0.117188 0.054687 0.109375
v -0.117188 0.054687 0.140625
v -0.117188 0.007812 0.140625
v -0.117188 0.007812 0.109375
v -0.164062 0.007812 0.140625
v -0.164062 0.054687 0.140625
v -0.164062 0.054687 0.109375
v -0.164062 0.007812 0.109375
vt 0.937500 0.937500
vt 0.937500 1.000000
vt 0.875000 1.000000
vt 0.875000 0.937500
vt 0.875000 0.875000
vt 0.875000 0.937500
vt 0.812500 0.937500
vt 0.812500 0.875000
vt 1.000000 0.937500
vt 1.000000 1.000000
vt 0.937500 1.000000
vt 0.937500 0.937500
vt 0.937500 0.875000
vt 0.937500 0.937500
vt 0.875000 0.937500
vt 0.875000 0.875000
vt 0.875000 0.937500
vt 0.875000 1.000000
vt 0.812500 1.000000
vt 0.812500 0.937500
vt 0.531250 0.968750
vt 0.531250 0.875000
vt 0.656250 0.875000
vt 0.656250 0.968750
vn 1.0000 0.0000 0.0000
vn -1.0000 0.0000 0.0000
vn 0.0000 1.0000 0.0000
vn 0.0000 -1.0000 -0.0000
vn 0.0000 0.0000 1.0000
vn 0.0000 0.0000 -1.0000
usemtl m_0
s 1
f 65/186/41 66/187/41 67/188/41 68/189/41
f 69/190/42 70/191/42 71/192/42 72/193/42
f 70/194/43 66/195/43 65/196/43 71/197/43
f 68/198/44 67/199/44 69/200/44 72/201/44
f 67/202/45 66/203/45 70/204/45 69/205/45
f 71/206/46 65/207/46 68/208/46 72/209/46
o led1
v -0.140625 0.109375 0.132812
v -0.148438 0.101562 0.140625
v -0.148438 0.085937 0.140625
v -0.140625 0.078125 0.132812
v -0.164062 0.085937 0.140625
v -0.164062 0.101562 0.140625
v -0.171875 0.109375 0.132812
v -0.171875 0.078125 0.132812
vt 0.039062 0.468750
vt 0.031250 0.468750
vt 0.031250 0.453125
vt 0.039062 0.453125
vt 0.039062 0.421875
vt 0.039062 0.437500
vt 0.031250 0.437500
vt 0.031250 0.421875
vt 0.062500 0.460938
vt 0.078125 0.460938
vt 0.078125 0.468750
vt 0.062500 0.468750
vt 0.078125 0.429688
vt 0.078125 0.437500
vt 0.062500 0.437500
vt 0.062500 0.429688
vt 0.046875 0.453125
vt 0.046875 0.468750
vt 0.031250 0.468750
vt 0.031250 0.453125
vt 0.046875 0.468750
vt 0.031250 0.468750
vt 0.031250 0.453125
vt 0.046875 0.453125
vn 0.7071 0.0000 0.7071
vn -0.7071 0.0000 0.7071
vn 0.0000 0.7071 0.7071
vn 0.0000 -0.7071 0.7071
vn 0.0000 0.0000 1.0000
vn 0.0000 0.0000 -1.0000
usemtl m_0
s 1
f 73/210/47 74/211/47 75/212/47 76/213/47
f 77/214/48 78/215/48 79/216/48 80/217/48
f 78/218/49 74/219/49 73/220/49 79/221/49
f 76/222/50 75/223/50 77/224/50 80/225/50
f 75/226/51 74/227/51 78/228/51 77/229/51
f 79/230/52 73/231/52 76/232/52 80/233/52
o led3
v -0.046875 0.109375 0.132812
v -0.054688 0.101562 0.140625
v -0.054688 0.085937 0.140625
v -0.046875 0.078125 0.132812
v -0.070312 0.085937 0.140625
v -0.070312 0.101562 0.140625
v -0.078125 0.109375 0.132812
v -0.078125 0.078125 0.132812
vt 0.039062 0.468750
vt 0.031250 0.468750
vt 0.031250 0.453125
vt 0.039062 0.453125
vt 0.039062 0.421875
vt 0.039062 0.437500
vt 0.031250 0.437500
vt 0.031250 0.421875
vt 0.062500 0.460938
vt 0.078125 0.460938
vt 0.078125 0.468750
vt 0.062500 0.468750
vt 0.078125 0.429688
vt 0.078125 0.437500
vt 0.062500 0.437500
vt 0.062500 0.429688
vt 0.046875 0.453125
vt 0.046875 0.468750
vt 0.031250 0.468750
vt 0.031250 0.453125
vt 0.046875 0.468750
vt 0.031250 0.468750
vt 0.031250 0.453125
vt 0.046875 0.453125
vn 0.7071 0.0000 0.7071
vn -0.7071 0.0000 0.7071
vn 0.0000 0.7071 0.7071
vn 0.0000 -0.7071 0.7071
vn 0.0000 0.0000 1.0000
vn 0.0000 0.0000 -1.0000
usemtl m_0
s 1
f 81/234/53 82/235/53 83/236/53 84/237/53
f 85/238/54 86/239/54 87/240/54 88/241/54
f 86/242/55 82/243/55 81/244/55 87/245/55
f 84/246/56 83/247/56 85/248/56 88/249/56
f 83/250/57 82/251/57 86/252/57 85/253/57
f 87/254/58 81/255/58 84/256/58 88/257/58
o knob3
v 0.039062 0.054687 0.109375
v 0.039062 0.054687 0.140625
v 0.039062 0.007812 0.140625
v 0.039062 0.007812 0.109375
v -0.007812 0.007812 0.140625
v -0.007812 0.054687 0.140625
v -0.007812 0.054687 0.109375
v -0.007812 0.007812 0.109375
vt 0.937500 0.937500
vt 0.937500 1.000000
vt 0.875000 1.000000
vt 0.875000 0.937500
vt 0.875000 0.875000
vt 0.875000 0.937500
vt 0.812500 0.937500
vt 0.812500 0.875000
vt 1.000000 0.937500
vt 1.000000 1.000000
vt 0.937500 1.000000
vt 0.937500 0.937500
vt 0.937500 0.875000
vt 0.937500 0.937500
vt 0.875000 0.937500
vt 0.875000 0.875000
vt 0.875000 0.937500
vt 0.875000 1.000000
vt 0.812500 1.000000
vt 0.812500 0.937500
vt 0.531250 0.968750
vt 0.531250 0.875000
vt 0.656250 0.875000
vt 0.656250 0.968750
vn 1.0000 0.0000 0.0000
vn -1.0000 0.0000 0.0000
vn 0.0000 1.0000 0.0000
vn 0.0000 -1.0000 -0.0000
vn 0.0000 0.0000 1.0000
vn 0.0000 0.0000 -1.0000
usemtl m_0
s 1
f 89/258/59 90/259/59 91/260/59 92/261/59
f 93/262/60 94/263/60 95/264/60 96/265/60
f 94/266/61 90/267/61 89/268/61 95/269/61
f 92/270/62 91/271/62 93/272/62 96/273/62
f 91/274/63 90/275/63 94/276/63 93/277/63
f 95/278/64 89/279/64 92/280/64 96/281/64
o knob2
v -0.085938 0.007812 0.140625
v -0.085938 0.054687 0.140625
v -0.085938 0.054687 0.109375
v -0.085938 0.007812 0.109375
v -0.039062 0.054687 0.109375
v -0.039062 0.054687 0.140625
v -0.039062 0.007812 0.140625
v -0.039062 0.007812 0.109375
vt 0.875000 1.000000
vt 0.937500 1.000000
vt 0.937500 0.937500
vt 0.875000 0.937500
vt 0.812500 0.937500
vt 0.875000 0.937500
vt 0.875000 0.875000
vt 0.812500 0.875000
vt 0.937500 1.000000
vt 1.000000 1.000000
vt 1.000000 0.937500
vt 0.937500 0.937500
vt 0.875000 0.937500
vt 0.937500 0.937500
vt 0.937500 0.875000
vt 0.875000 0.875000
vt 0.812500 1.000000
vt 0.875000 1.000000
vt 0.875000 0.937500
vt 0.812500 0.937500
vt 0.656250 0.875000
vt 0.531250 0.875000
vt 0.531250 0.968750
vt 0.656250 0.968750
vn -1.0000 0.0000 0.0000
vn 1.0000 0.0000 0.0000
vn 0.0000 1.0000 0.0000
vn 0.0000 -1.0000 -0.0000
vn 0.0000 0.0000 1.0000
vn 0.0000 0.0000 -1.0000
usemtl m_0
s 1
f 97/282/65 98/283/65 99/284/65 100/285/65
f 101/286/66 102/287/66 103/288/66 104/289/66
f 99/290/67 98/291/67 102/292/67 101/293/67
f 103/294/68 97/295/68 100/296/68 104/297/68
f 102/298/69 98/299/69 97/300/69 103/301/69
f 100/302/70 99/303/70 101/304/70 104/305/70
