# Blender v2.79 (sub 0) OBJ File: ''
# www.blender.org
mtllib revolver.mtl
o breakActionModel
v 0.023438 0.125000 0.093750
v 0.023438 0.125000 0.210938
v 0.031250 0.109375 0.210938
v 0.031250 0.109375 0.093750
v -0.031250 0.109375 0.210938
v -0.023438 0.125000 0.210938
v -0.023438 0.125000 0.093750
v -0.031250 0.109375 0.093750
v 0.031250 0.097656 0.210938
v 0.015625 0.124720 0.210938
v 0.015625 0.124720 0.460938
v 0.031250 0.097656 0.460938
v 0.000000 0.097656 0.453125
v -0.015625 0.124720 0.210938
v -0.015625 0.124720 0.460938
v -0.031250 0.097656 0.210938
v -0.031250 0.097656 0.460938
v -0.015625 0.070593 0.210938
v -0.015625 0.070593 0.460938
v 0.015625 0.070593 0.210938
v 0.015625 0.070593 0.460938
v 0.000000 0.054687 0.085938
v 0.005719 0.058594 0.085938
v 0.005719 0.058594 0.382812
v 0.000000 0.054687 0.382812
v 0.000000 0.062500 0.382812
v 0.005719 0.066406 0.085938
v 0.005719 0.066406 0.382812
v 0.000000 0.070312 0.085938
v 0.000000 0.070312 0.382812
v -0.005719 0.066406 0.085938
v -0.005719 0.066406 0.382812
v -0.005719 0.058594 0.085938
v -0.005719 0.058594 0.382812
v 0.003906 0.132812 0.402344
v 0.003906 0.132812 0.433594
v 0.007812 0.125000 0.437500
v 0.007812 0.125000 0.398438
v -0.007812 0.125000 0.437500
v -0.003906 0.132812 0.433594
v -0.003906 0.132812 0.402344
v -0.007812 0.125000 0.398438
v 0.031250 0.046875 0.179688
v 0.031250 0.046875 0.210938
v 0.015625 0.023437 0.210938
v 0.015625 -0.000000 0.179688
v -0.015625 0.023437 0.210938
v -0.031250 0.046875 0.210938
v -0.031250 0.046875 0.179688
v -0.015625 -0.000000 0.179688
v 0.031250 0.109375 0.179688
v 0.031250 0.109375 0.210938
v 0.031250 0.046875 0.210938
v 0.031250 0.046875 0.179688
v -0.031250 0.046875 0.210938
v -0.031250 0.109375 0.210938
v -0.031250 0.109375 0.179688
v -0.031250 0.046875 0.179688
v 0.000000 0.046875 0.210938
v 0.013532 0.054687 0.210938
v 0.013532 0.054687 0.367188
v 0.000000 0.046875 0.367188
v 0.000000 0.062500 0.367188
v 0.013532 0.070312 0.210938
v 0.013532 0.070312 0.367188
v 0.000000 0.078125 0.210938
v 0.000000 0.078125 0.367188
v -0.013532 0.070312 0.210938
v -0.013532 0.070312 0.367188
v -0.013532 0.054687 0.210938
v -0.013532 0.054687 0.367188
v 0.021484 0.015625 0.179688
v 0.015625 -0.000000 0.179688
v 0.031250 -0.000000 0.093750
v 0.031250 0.015625 0.093750
v -0.031250 -0.000000 0.093750
v -0.015625 -0.000000 0.179688
v -0.021484 0.015625 0.179688
v -0.031250 0.015625 0.093750
vt 0.187500 0.875000
vt 0.000000 0.875000
vt 0.000000 0.812500
vt 0.187500 0.812500
vt 0.187500 0.750000
vt 0.187500 0.812500
vt 0.000000 0.812500
vt 0.000000 0.750000
vt 0.000000 0.687500
vt 0.062500 0.687500
vt 0.062500 0.875000
vt 0.000000 0.875000
vt 0.187500 0.687500
vt 0.187500 0.875000
vt 0.062500 0.875000
vt 0.062500 0.687500
vt 0.187500 0.750000
vt 0.164062 0.812500
vt 0.023438 0.812500
vt 0.000000 0.750000
vt 0.164062 0.750000
vt 0.023438 0.750000
vt 0.000000 0.687500
vt 0.187500 0.687500
vt 0.437500 0.937500
vt 0.437500 1.000000
vt 0.000000 1.000000
vt 0.000000 0.937500
vt 0.687500 0.625000
vt 0.687500 0.750000
vt 0.562500 0.750000
vt 0.437500 0.937500
vt 0.437500 1.000000
vt 0.000000 1.000000
vt 0.000000 0.937500
vt 0.562500 0.750000
vt 0.562500 0.625000
vt 0.687500 0.625000
vt 0.437500 0.937500
vt 0.437500 1.000000
vt 0.000000 1.000000
vt 0.000000 0.937500
vt 0.687500 0.625000
vt 0.687500 0.750000
vt 0.437500 0.937500
vt 0.437500 1.000000
vt 0.000000 1.000000
vt 0.000000 0.937500
vt 0.562500 0.750000
vt 0.562500 0.625000
vt 0.437500 0.937500
vt 0.437500 1.000000
vt 0.000000 1.000000
vt 0.000000 0.937500
vt 0.687500 0.625000
vt 0.687500 0.750000
vt 0.437500 0.937500
vt 0.437500 1.000000
vt 0.000000 1.000000
vt 0.000000 0.937500
vt 0.562500 0.750000
vt 0.562500 0.625000
vt 0.437500 0.937500
vt 0.437500 1.000000
vt 0.000000 1.000000
vt 0.000000 0.937500
vt 0.062500 0.937500
vt 0.062500 1.000000
vt 0.000000 1.000000
vt 0.437500 0.937500
vt 0.437500 1.000000
vt 0.000000 1.000000
vt 0.000000 0.937500
vt 0.062500 0.937500
vt 0.062500 1.000000
vt 0.437500 0.937500
vt 0.437500 1.000000
vt 0.000000 1.000000
vt 0.000000 0.937500
vt 0.062500 0.937500
vt 0.062500 1.000000
vt 0.437500 0.937500
vt 0.437500 1.000000
vt 0.000000 1.000000
vt 0.000000 0.937500
vt 0.062500 0.937500
vt 0.062500 1.000000
vt 0.437500 0.937500
vt 0.437500 1.000000
vt 0.000000 1.000000
vt 0.000000 0.937500
vt 0.062500 0.937500
vt 0.062500 1.000000
vt 0.437500 0.937500
vt 0.437500 1.000000
vt 0.000000 1.000000
vt 0.000000 0.937500
vt 0.062500 0.937500
vt 0.062500 1.000000
vt 0.500000 0.937500
vt 0.437500 0.937500
vt 0.437500 0.875000
vt 0.500000 0.875000
vt 0.500000 0.937500
vt 0.437500 0.937500
vt 0.437500 0.875000
vt 0.500000 0.875000
vt 0.500000 0.937500
vt 0.437500 0.875000
vt 0.500000 0.875000
vt 0.500000 0.937500
vt 0.437500 0.937500
vt 0.437500 0.875000
vt 0.500000 0.937500
vt 0.437500 0.875000
vt 0.500000 0.875000
vt 0.500000 0.937500
vt 0.437500 0.937500
vt 0.437500 0.875000
vt 0.375000 0.875000
vt 0.312500 0.875000
vt 0.312500 0.812500
vt 0.375000 0.750000
vt 0.312500 0.812500
vt 0.312500 0.875000
vt 0.250000 0.875000
vt 0.250000 0.750000
vt 0.187500 0.625000
vt 0.187500 0.750000
vt 0.062500 0.750000
vt 0.062500 0.625000
vt 0.343750 0.812500
vt 0.375000 0.875000
vt 0.250000 0.875000
vt 0.281250 0.812500
vt 0.187500 0.937500
vt 0.062500 0.937500
vt 0.093750 0.812500
vt 0.156250 0.812500
vt 0.312500 0.750000
vt 0.250000 0.750000
vt 0.250000 0.625000
vt 0.312500 0.625000
vt 0.062500 0.625000
vt 0.062500 0.750000
vt 0.000000 0.750000
vt 0.000000 0.625000
vt 0.375000 0.750000
vt 0.375000 0.875000
vt 0.250000 0.875000
vt 0.250000 0.750000
vt 0.500000 0.937500
vt 0.375000 0.937500
vt 0.375000 0.812500
vt 0.500000 0.812500
vt 0.312500 0.937500
vt 0.312500 1.000000
vt 0.000000 1.000000
vt 0.000000 0.937500
vt 0.062500 0.937500
vt 0.062500 1.000000
vt 0.000000 1.000000
vt 0.312500 0.937500
vt 0.312500 1.000000
vt 0.000000 1.000000
vt 0.000000 0.937500
vt 0.062500 0.937500
vt 0.062500 1.000000
vt 0.312500 0.937500
vt 0.312500 1.000000
vt 0.000000 1.000000
vt 0.000000 0.937500
vt 0.062500 0.937500
vt 0.062500 1.000000
vt 0.312500 0.937500
vt 0.312500 1.000000
vt 0.000000 1.000000
vt 0.000000 0.937500
vt 0.062500 0.937500
vt 0.062500 1.000000
vt 0.312500 0.937500
vt 0.312500 1.000000
vt 0.000000 1.000000
vt 0.000000 0.937500
vt 0.062500 0.937500
vt 0.062500 1.000000
vt 0.312500 0.937500
vt 0.312500 1.000000
vt 0.000000 1.000000
vt 0.000000 0.937500
vt 0.062500 0.937500
vt 0.062500 1.000000
vt 0.000000 0.812500
vt 0.000000 0.875000
vt 0.187500 0.875000
vt 0.187500 0.812500
vt 0.000000 0.812500
vt 0.187500 0.812500
vt 0.187500 0.750000
vt 0.000000 0.750000
vt 0.062500 0.875000
vt 0.062500 0.687500
vt 0.000000 0.687500
vt 0.000000 0.875000
vt 0.062500 0.875000
vt 0.187500 0.875000
vt 0.187500 0.687500
vt 0.062500 0.687500
vt 0.023438 0.812500
vt 0.164062 0.812500
vt 0.187500 0.750000
vt 0.000000 0.750000
vt 0.000000 0.687500
vt 0.023438 0.750000
vt 0.164062 0.750000
vt 0.187500 0.687500
vn 0.8944 0.4472 0.0000
vn -0.8944 0.4472 0.0000
vn 0.0000 1.0000 0.0000
vn 0.0000 -1.0000 0.0000
vn 0.0000 0.0000 1.0000
vn 0.0000 0.0000 -1.0000
vn 0.8660 0.5000 0.0000
vn -0.2402 -0.1387 0.9608
vn 0.0000 -0.2774 0.9608
vn -0.8660 0.5000 0.0000
vn 0.2402 -0.1387 0.9608
vn -0.8660 -0.5000 -0.0000
vn 0.2402 0.1387 0.9608
vn 0.0000 0.2774 0.9608
vn 0.8660 -0.5000 -0.0000
vn -0.2402 0.1387 0.9608
vn 0.5640 -0.8258 -0.0000
vn 1.0000 0.0000 0.0000
vn 0.5640 0.8258 0.0000
vn -0.5640 0.8258 0.0000
vn -1.0000 0.0000 0.0000
vn -0.5640 -0.8258 -0.0000
vn 0.0000 0.4472 0.8944
vn 0.0000 0.4472 -0.8944
vn 0.8321 -0.5547 0.0000
vn 0.8320 -0.5547 0.0000
vn -0.8320 -0.5547 0.0000
vn -0.8321 -0.5547 0.0000
vn 0.0000 -0.8000 0.6000
vn 0.5000 -0.8660 -0.0000
vn 0.5000 0.8660 0.0000
vn -0.5000 0.8660 0.0000
vn -0.5000 -0.8660 -0.0000
vn 0.9230 -0.3462 0.1678
vn 0.9231 -0.3461 0.1678
vn -0.9231 -0.3461 0.1678
vn -0.9230 -0.3462 0.1678
usemtl m_0
s 1
f 1/1/1 2/2/1 3/3/1 4/4/1
f 5/5/2 6/6/2 7/7/2 8/8/2
f 6/9/3 2/10/3 1/11/3 7/12/3
f 4/13/4 3/14/4 5/15/4 8/16/4
f 3/17/5 2/18/5 6/19/5 5/20/5
f 7/21/6 1/22/6 4/23/6 8/24/6
f 9/25/7 10/26/7 11/27/7 12/28/7
f 12/29/8 11/30/8 13/31/8
f 10/32/3 14/33/3 15/34/3 11/35/3
f 11/36/9 15/37/9 13/38/9
f 14/39/10 16/40/10 17/41/10 15/42/10
f 15/43/11 17/44/11 13/31/11
f 16/45/12 18/46/12 19/47/12 17/48/12
f 17/49/13 19/50/13 13/38/13
f 18/51/4 20/52/4 21/53/4 19/54/4
f 19/55/14 21/56/14 13/31/14
f 20/57/15 9/58/15 12/59/15 21/60/15
f 21/61/16 12/62/16 13/38/16
f 22/63/17 23/64/17 24/65/17 25/66/17
f 25/67/5 24/68/5 26/69/5
f 23/70/18 27/71/18 28/72/18 24/73/18
f 24/74/5 28/75/5 26/69/5
f 27/76/19 29/77/19 30/78/19 28/79/19
f 28/80/5 30/81/5 26/69/5
f 29/82/20 31/83/20 32/84/20 30/85/20
f 30/86/5 32/87/5 26/69/5
f 31/88/21 33/89/21 34/90/21 32/91/21
f 32/92/5 34/93/5 26/69/5
f 33/94/22 22/95/22 25/96/22 34/97/22
f 34/98/5 25/99/5 26/69/5
f 35/100/1 36/101/1 37/102/1 38/103/1
f 39/104/2 40/105/2 41/106/2 42/107/2
f 40/108/3 36/101/3 35/109/3 41/110/3
f 38/111/4 37/112/4 39/113/4 42/107/4
f 37/114/23 36/101/23 40/115/23 39/116/23
f 41/117/24 35/118/24 38/119/24 42/107/24
f 43/120/25 44/121/25 45/122/26 46/123/26
f 47/124/27 48/125/28 49/126/28 50/127/27
f 46/128/29 45/129/29 47/130/29 50/131/29
f 45/132/5 44/133/5 48/134/5 47/135/5
f 49/136/6 43/137/6 46/138/6 50/139/6
f 51/140/18 52/141/18 53/142/18 54/143/18
f 55/144/21 56/145/21 57/146/21 58/147/21
f 53/148/5 52/149/5 56/150/5 55/151/5
f 57/152/6 51/153/6 54/154/6 58/155/6
f 59/156/30 60/157/30 61/158/30 62/159/30
f 62/160/5 61/161/5 63/162/5
f 60/163/18 64/164/18 65/165/18 61/166/18
f 61/167/5 65/168/5 63/162/5
f 64/169/31 66/170/31 67/171/31 65/172/31
f 65/173/5 67/174/5 63/162/5
f 66/175/32 68/176/32 69/177/32 67/178/32
f 67/179/5 69/180/5 63/162/5
f 68/181/21 70/182/21 71/183/21 69/184/21
f 69/185/5 71/186/5 63/162/5
f 70/187/33 59/188/33 62/189/33 71/190/33
f 71/191/5 62/192/5 63/162/5
f 72/193/34 73/194/35 74/195/35 75/196/35
f 76/197/36 77/198/36 78/199/37 79/200/36
f 74/201/4 73/202/4 77/203/4 76/204/4
f 78/205/3 72/206/3 75/207/3 79/208/3
f 77/209/5 73/210/5 72/211/5 78/212/5
f 75/213/6 74/214/6 76/215/6 79/216/6
o cylinderModel
v 0.037212 0.083984 0.179688
v 0.000000 0.105469 0.179688
v 0.000000 0.062500 0.179688
v 0.037212 0.083984 0.093750
v 0.000000 0.105469 0.093750
v 0.000000 0.062500 0.093750
v 0.037212 0.041016 0.179688
v 0.037212 0.041016 0.093750
v 0.000000 0.019531 0.179688
v 0.000000 0.019531 0.093750
v -0.037212 0.041016 0.179688
v -0.037212 0.041016 0.093750
v -0.037212 0.083984 0.179688
v -0.037212 0.083984 0.093750
vt 0.750000 1.000000
vt 0.593750 0.906250
vt 0.750000 0.812500
vt 0.062500 0.812500
vt 0.125000 0.812500
vt 0.125000 0.937500
vt 0.062500 0.937500
vt 0.750000 1.000000
vt 0.593750 0.906250
vt 0.750000 0.812500
vt 0.750000 1.000000
vt 0.593750 0.906250
vt 0.312500 0.812500
vt 0.375000 0.812500
vt 0.375000 0.937500
vt 0.312500 0.937500
vt 0.750000 1.000000
vt 0.593750 0.906250
vt 0.750000 1.000000
vt 0.593750 0.906250
vt 0.125000 0.812500
vt 0.187506 0.812500
vt 0.187506 0.937500
vt 0.125000 0.937500
vt 0.750000 1.000000
vt 0.593750 0.906250
vt 0.750000 1.000000
vt 0.593750 0.906250
vt 0.250000 0.812500
vt 0.250000 0.937500
vt 0.750000 1.000000
vt 0.593750 0.906250
vt 0.750000 1.000000
vt 0.593750 0.906250
vt 0.000000 0.812500
vt 0.062500 0.812500
vt 0.062500 0.937500
vt 0.000000 0.937500
vt 0.750000 1.000000
vt 0.593750 0.906250
vt 0.750000 1.000000
vt 0.593750 0.906250
vt 0.250000 0.812500
vt 0.312500 0.812500
vt 0.312500 0.937500
vt 0.250000 0.937500
vt 0.750000 1.000000
vt 0.593750 0.906250
vn 0.0000 0.0000 1.0000
vn 0.5000 0.8660 0.0000
vn 0.0000 0.0000 -1.0000
vn 1.0000 0.0000 0.0000
vn 0.5000 -0.8660 -0.0000
vn -0.5000 -0.8660 -0.0000
vn -1.0000 0.0000 0.0000
vn -0.5000 0.8660 0.0000
usemtl m_0
s 1
f 80/217/38 81/218/38 82/219/38
f 81/220/39 80/221/39 83/222/39 84/223/39
f 84/224/40 83/225/40 85/226/40
f 86/227/38 80/228/38 82/219/38
f 80/229/41 86/230/41 87/231/41 83/232/41
f 83/233/40 87/234/40 85/226/40
f 88/235/38 86/236/38 82/219/38
f 86/237/42 88/238/42 89/239/42 87/240/42
f 87/241/40 89/242/40 85/226/40
f 90/243/38 88/244/38 82/219/38
f 88/238/43 90/245/43 91/246/43 89/239/43
f 89/247/40 91/248/40 85/226/40
f 92/249/38 90/250/38 82/219/38
f 90/251/44 92/252/44 93/253/44 91/254/44
f 91/255/40 93/256/40 85/226/40
f 81/257/38 92/258/38 82/219/38
f 92/259/45 81/260/45 84/261/45 93/262/45
f 93/263/40 84/264/40 85/226/40
o gunModel
v 0.015625 -0.078125 -0.125000
v 0.031250 -0.078125 -0.031250
v 0.031250 -0.140625 -0.015625
v 0.015625 -0.140625 -0.140625
v -0.031250 -0.140625 -0.015625
v -0.031250 -0.078125 -0.031250
v -0.015625 -0.078125 -0.125000
v -0.015625 -0.140625 -0.140625
v 0.015625 0.031250 -0.031250
v 0.031250 0.031250 0.031250
v 0.031250 -0.031250 0.031250
v 0.023438 -0.031250 -0.031250
v -0.031250 -0.031250 0.031250
v -0.031250 0.031250 0.031250
v -0.015625 0.031250 -0.031250
v -0.023438 -0.031250 -0.031250
v 0.015625 -0.031250 -0.093750
v 0.031250 -0.031250 0.031250
v 0.031250 -0.078125 -0.031250
v 0.015625 -0.078125 -0.125000
v -0.031250 -0.078125 -0.031250
v -0.031250 -0.031250 0.031250
v -0.015625 -0.031250 -0.093750
v -0.015625 -0.078125 -0.125000
v -0.015625 0.015625 -0.062500
v 0.015625 0.015625 -0.062500
v 0.015625 -0.031250 -0.093750
v -0.015625 -0.031250 -0.093750
v 0.015625 0.031250 -0.031250
v 0.023438 -0.031250 -0.031250
v -0.023438 -0.031250 -0.031250
v -0.015625 0.031250 -0.031250
v 0.031250 0.109375 0.031250
v 0.031250 0.109375 0.093750
v 0.031250 -0.000000 0.093750
v 0.031250 -0.031250 0.031250
v -0.031250 -0.000000 0.093750
v -0.031250 0.109375 0.093750
v -0.031250 0.109375 0.031250
v -0.031250 -0.031250 0.031250
v 0.015625 0.093750 0.000000
v 0.031250 0.109375 0.031250
v 0.031250 0.031250 0.031250
v 0.015625 0.031250 -0.031250
v -0.031250 0.031250 0.031250
v -0.031250 0.109375 0.031250
v -0.015625 0.093750 0.000000
v -0.015625 0.031250 -0.031250
v 0.015625 0.007812 0.078125
v 0.015625 0.007812 0.093750
v 0.015625 -0.031250 0.109375
v 0.015625 -0.031250 0.093750
v -0.015625 -0.031250 0.109375
v -0.015625 0.007812 0.093750
v -0.015625 0.007812 0.078125
v -0.015625 -0.031250 0.093750
v -0.011719 0.132812 0.058594
v -0.011719 0.132812 0.074219
v -0.007812 0.125000 0.078125
v -0.007812 0.125000 0.054688
v -0.023438 0.125000 0.078125
v -0.019531 0.132812 0.074219
v -0.019531 0.132812 0.058594
v -0.023438 0.125000 0.054688
v 0.019531 0.132812 0.058594
v 0.019531 0.132812 0.074219
v 0.023438 0.125000 0.078125
v 0.023438 0.125000 0.054688
v 0.007812 0.125000 0.078125
v 0.011719 0.132812 0.074219
v 0.011719 0.132812 0.058594
v 0.007812 0.125000 0.054688
v 0.023438 0.125000 0.031250
v 0.023438 0.125000 0.093750
v 0.031250 0.109375 0.093750
v 0.031250 0.109375 0.031250
v -0.031250 0.109375 0.093750
v -0.023438 0.125000 0.093750
v -0.023438 0.125000 0.031250
v -0.031250 0.109375 0.031250
v 0.011719 0.117188 0.015625
v 0.023438 0.125000 0.031250
v 0.031250 0.109375 0.031250
v 0.015625 0.093750 0.000000
v -0.031250 0.109375 0.031250
v -0.023438 0.125000 0.031250
v -0.011719 0.117188 0.015625
v -0.015625 0.093750 0.000000
vt 0.164062 0.625000
vt 0.023438 0.625000
vt 0.000000 0.500000
vt 0.187500 0.500000
vt 0.187500 0.500000
vt 0.164062 0.625000
vt 0.023438 0.625000
vt 0.000000 0.500000
vt 0.093750 0.437500
vt 0.125000 0.625000
vt 0.000000 0.625000
vt 0.031250 0.437500
vt 0.125000 0.500000
vt 0.125000 0.625000
vt 0.000000 0.625000
vt 0.000000 0.500000
vt 0.125000 0.625000
vt 0.062500 0.625000
vt 0.062500 0.500000
vt 0.125000 0.500000
vt 0.125000 0.625000
vt 0.000000 0.625000
vt 0.000000 0.500000
vt 0.125000 0.500000
vt 0.250000 0.500000
vt 0.250000 0.625000
vt 0.125000 0.625000
vt 0.125000 0.500000
vt 0.000000 0.375000
vt 0.125000 0.375000
vt 0.093750 0.500000
vt 0.031250 0.500000
vt 0.250000 0.375000
vt 0.250000 0.500000
vt 0.125000 0.500000
vt 0.125000 0.375000
vt 0.218750 0.562500
vt 0.000000 0.562500
vt 0.109375 0.437500
vt 0.281250 0.437500
vt 0.187500 0.437500
vt 0.296875 0.562500
vt 0.062500 0.562500
vt 0.000000 0.437500
vt 0.125000 0.500000
vt 0.125000 0.625000
vt 0.000000 0.625000
vt 0.000000 0.500000
vt 0.187500 0.625000
vt 0.125000 0.625000
vt 0.125000 0.500000
vt 0.187500 0.500000
vt 0.250000 0.625000
vt 0.125000 0.625000
vt 0.125000 0.500000
vt 0.250000 0.500000
vt 0.187500 0.593750
vt 0.125000 0.625000
vt 0.125000 0.500000
vt 0.250000 0.500000
vt 0.125000 0.500000
vt 0.125000 0.625000
vt 0.062500 0.593750
vt 0.000000 0.500000
vt 0.000000 0.500000
vt 0.125000 0.500000
vt 0.000000 0.625000
vt 0.000000 0.937500
vt 0.125000 0.937500
vt 0.125000 0.687500
vt 0.000000 0.625000
vt 0.187500 0.687500
vt 0.187500 0.937500
vt 0.312500 0.937500
vt 0.312500 0.625000
vt 0.187500 0.750000
vt 0.187500 0.937500
vt 0.000000 0.937500
vt 0.000000 0.750000
vt 0.515625 0.687500
vt 0.515625 0.937500
vt 0.359375 0.937500
vt 0.359375 0.687500
vt 0.187500 0.789062
vt 0.125000 0.812500
vt 0.125000 0.687500
vt 0.250000 0.687500
vt 0.250000 0.687500
vt 0.250000 0.812500
vt 0.187500 0.789062
vt 0.125000 0.687500
vt 0.187500 0.812500
vt 0.125000 0.812500
vt 0.125000 0.687500
vt 0.187500 0.687500
vt 0.437500 0.937500
vt 0.375000 0.937500
vt 0.375000 0.812500
vt 0.437500 0.812500
vt 0.500000 0.937500
vt 0.375000 0.937500
vt 0.375000 0.875000
vt 0.500000 0.875000
vt 0.437500 0.937500
vt 0.375000 0.812500
vt 0.437500 0.812500
vt 0.437500 0.937500
vt 0.375000 0.937500
vt 0.375000 0.812500
vt 0.437500 0.812500
vt 0.500000 0.937500
vt 0.375000 0.875000
vt 0.500000 0.875000
vt 0.437500 0.937500
vt 0.375000 0.937500
vt 0.375000 0.812500
vt 0.437500 0.937500
vt 0.375000 0.937500
vt 0.375000 0.875000
vt 0.437500 0.875000
vt 0.437500 0.937500
vt 0.375000 0.937500
vt 0.375000 0.875000
vt 0.437500 0.875000
vt 0.437500 0.937500
vt 0.375000 0.875000
vt 0.437500 0.875000
vt 0.437500 0.937500
vt 0.375000 0.937500
vt 0.375000 0.875000
vt 0.437500 0.937500
vt 0.375000 0.875000
vt 0.437500 0.875000
vt 0.437500 0.937500
vt 0.375000 0.937500
vt 0.375000 0.875000
vt 0.437500 0.937500
vt 0.375000 0.937500
vt 0.375000 0.875000
vt 0.437500 0.875000
vt 0.437500 0.937500
vt 0.375000 0.937500
vt 0.375000 0.875000
vt 0.437500 0.875000
vt 0.437500 0.937500
vt 0.375000 0.875000
vt 0.437500 0.875000
vt 0.437500 0.937500
vt 0.375000 0.937500
vt 0.375000 0.875000
vt 0.437500 0.937500
vt 0.375000 0.875000
vt 0.437500 0.875000
vt 0.437500 0.937500
vt 0.375000 0.937500
vt 0.375000 0.875000
vt 0.187500 0.937500
vt 0.187500 0.812500
vt 0.171875 0.812500
vt 0.171875 0.937500
vt 0.015625 0.812500
vt 0.000000 0.812500
vt 0.000000 0.937500
vt 0.015625 0.937500
vt 0.015625 0.812500
vt 0.171875 0.812500
vt 0.171875 0.937500
vt 0.015625 0.937500
vt 0.187500 0.812500
vt 0.164062 0.875000
vt 0.023438 0.875000
vt 0.000000 0.812500
vt 0.312500 0.812500
vt 0.250000 0.812500
vt 0.250000 0.750000
vt 0.312500 0.750000
vt 0.375000 0.812500
vt 0.375000 0.875000
vt 0.312500 0.875000
vt 0.312500 0.812500
vt 0.250000 0.812500
vt 0.312500 0.812500
vt 0.312500 0.875000
vt 0.250000 0.875000
vt 0.375000 0.812500
vt 0.375000 0.750000
vn 0.9856 -0.0411 -0.1643
vn -0.9856 -0.0411 -0.1643
vn 0.0000 -1.0000 0.0000
vn 0.0000 0.2425 0.9701
vn 0.0000 0.2425 -0.9701
vn 0.9701 0.0000 -0.2425
vn -0.9701 0.0000 -0.2425
vn 0.0000 1.0000 0.0000
vn 0.0000 -0.0000 1.0000
vn 0.9790 0.1632 -0.1224
vn -0.9790 0.1632 -0.1224
vn 0.0000 -0.8000 0.6000
vn 0.0000 0.5547 -0.8321
vn 0.9904 0.1238 -0.0619
vn -0.9904 0.1238 -0.0619
vn 0.0000 0.8944 -0.4472
vn 1.0000 0.0000 0.0000
vn -1.0000 0.0000 0.0000
vn 0.0000 -0.8944 0.4472
vn 0.8944 0.0000 -0.4472
vn -0.8944 -0.0000 -0.4472
vn 0.0000 0.4472 -0.8944
vn 0.0000 0.3714 0.9285
vn 0.0000 -0.3714 -0.9285
vn 0.8944 0.4472 0.0000
vn -0.8944 0.4472 0.0000
vn 0.0000 0.4472 0.8944
vn 0.6667 0.3333 -0.6667
vn -0.6667 0.3333 -0.6667
usemtl m_0
s 1
f 94/265/46 95/266/46 96/267/46 97/268/46
f 98/269/47 99/270/47 100/271/47 101/272/47
f 97/273/48 96/274/48 98/275/48 101/276/48
f 96/277/49 95/278/49 99/279/49 98/280/49
f 100/281/50 94/282/50 97/283/50 101/284/50
f 102/285/51 103/286/51 104/287/51 105/288/51
f 106/289/52 107/290/52 108/291/52 109/292/52
f 107/293/53 103/294/53 102/295/53 108/296/53
f 104/297/54 103/298/54 107/299/54 106/300/54
f 110/301/55 111/302/55 112/303/55 113/304/55
f 114/305/56 115/306/56 116/307/56 117/308/56
f 112/309/57 111/310/57 115/311/57 114/312/57
f 116/313/58 110/314/58 113/315/58 117/316/58
f 118/317/58 119/318/58 120/319/58 121/320/58
f 119/321/59 122/322/59 123/323/59 120/324/59
f 124/325/60 125/326/60 118/327/60 121/328/60
f 125/329/61 122/330/61 119/318/61 118/331/61
f 126/332/62 127/333/62 128/334/62 129/335/62
f 130/336/63 131/337/63 132/338/63 133/339/63
f 129/340/64 128/341/64 130/342/64 133/343/64
f 128/344/54 127/345/54 131/346/54 130/347/54
f 134/348/65 135/349/65 136/350/65 137/351/65
f 138/352/66 139/353/66 140/354/66 141/355/66
f 140/356/67 134/357/67 137/358/67 141/359/67
f 142/360/62 143/361/62 144/362/62 145/363/62
f 146/364/63 147/365/63 148/366/63 149/367/63
f 147/368/53 143/361/53 142/369/53 148/370/53
f 145/371/48 144/372/48 146/373/48 149/374/48
f 144/375/68 143/361/68 147/376/68 146/377/68
f 148/378/69 142/379/69 145/380/69 149/374/69
f 150/381/70 151/382/70 152/383/70 153/384/70
f 154/385/71 155/386/71 156/387/71 157/388/71
f 155/389/53 151/382/53 150/390/53 156/391/53
f 153/392/48 152/393/48 154/394/48 157/388/48
f 152/395/72 151/382/72 155/396/72 154/397/72
f 156/398/67 150/399/67 153/400/67 157/388/67
f 158/401/70 159/402/70 160/403/70 161/404/70
f 162/405/71 163/406/71 164/407/71 165/408/71
f 163/409/53 159/402/53 158/410/53 164/411/53
f 161/412/48 160/413/48 162/414/48 165/408/48
f 160/415/72 159/402/72 163/416/72 162/417/72
f 164/418/67 158/419/67 161/420/67 165/408/67
f 166/421/70 167/422/70 168/423/70 169/424/70
f 170/425/71 171/426/71 172/427/71 173/428/71
f 171/429/53 167/430/53 166/431/53 172/432/53
f 168/433/54 167/434/54 171/435/54 170/436/54
f 174/437/73 175/438/73 176/439/73 177/440/73
f 178/441/74 179/442/74 180/443/74 181/444/74
f 179/445/61 175/446/61 174/447/61 180/448/61
f 180/449/58 174/437/58 177/440/58 181/450/58
