# Blender v2.78 (sub 0) OBJ File: ''
# www.blender.org
mtllib rpg.mtl
o rpgammo
v 0.043301 0.137273 0.746686
v 0.000000 0.112273 0.746686
v 0.000000 0.162273 0.746686
v 0.000000 0.162273 0.846686
v 0.043301 0.187273 0.746686
v 0.000000 0.212273 0.746686
v -0.043301 0.187273 0.746686
v -0.043301 0.137273 0.746686
v 0.043301 0.137273 0.521686
v 0.000000 0.112273 0.521686
v 0.000000 0.162273 0.521686
v 0.043301 0.137273 0.746686
v 0.000000 0.112273 0.746686
v 0.000000 0.162273 0.746686
v 0.043301 0.187273 0.521686
v 0.043301 0.187273 0.746686
v 0.000000 0.212273 0.521686
v 0.000000 0.212273 0.746686
v -0.043301 0.187273 0.521686
v -0.043301 0.187273 0.746686
v -0.043301 0.137273 0.521686
v -0.043301 0.137273 0.746686
vt 0.0312 0.5312
vt 0.2188 0.5312
vt 0.2188 0.7188
vt 0.0312 0.5312
vt 0.2188 0.5312
vt 0.2188 0.7188
vt 0.0312 0.5312
vt 0.2188 0.5312
vt 0.0312 0.5312
vt 0.2188 0.5312
vt 0.0312 0.5312
vt 0.2188 0.5312
vt 0.0312 0.5312
vt 0.2188 0.5312
vt 0.0312 0.7812
vt 0.2188 0.7812
vt 0.2188 0.9688
vt 0.0312 0.7812
vt 0.2188 0.7812
vt 0.2188 0.9688
vt 0.0312 0.9688
vt 0.0312 0.7812
vt 0.2188 0.7812
vt 0.2188 0.9688
vt 0.0312 0.7812
vt 0.2188 0.7812
vt 0.2188 0.9688
vt 0.0312 0.9688
vt 0.0312 0.7812
vt 0.2188 0.7812
vt 0.0312 0.7812
vt 0.2188 0.7812
vt 0.2188 0.9688
vt 0.0312 0.9688
vt 0.0312 0.7812
vt 0.2188 0.7812
vt 0.0312 0.7812
vt 0.2188 0.7812
vt 0.2188 0.9688
vt 0.0312 0.9688
vt 0.0312 0.7812
vt 0.2188 0.7812
vt 0.0312 0.7812
vt 0.2188 0.7812
vt 0.2188 0.9688
vt 0.0312 0.9688
vt 0.0312 0.7812
vt 0.2188 0.7812
vt 0.2188 0.9688
vt 0.0312 0.9688
vt 0.0312 0.7812
vt 0.2188 0.7812
vn 0.0000 0.0000 -1.0000
vn 0.4588 -0.7947 0.3974
vn 0.9177 0.0000 0.3974
vn 0.4588 0.7947 0.3974
vn -0.4588 0.7947 0.3974
vn -0.9177 0.0000 0.3974
vn -0.4588 -0.7947 0.3974
vn 0.5000 -0.8660 -0.0000
vn 0.0000 0.0000 1.0000
vn 1.0000 0.0000 0.0000
vn 0.5000 0.8660 0.0000
vn -0.5000 0.8660 0.0000
vn -1.0000 0.0000 0.0000
vn -0.5000 -0.8660 -0.0000
usemtl m_0
s 1
f 1/1/1 2/2/1 3/3/1
f 2/4/2 1/5/2 4/6/2
f 5/7/1 1/5/1 3/3/1
f 1/1/3 5/8/3 4/6/3
f 6/9/1 5/8/1 3/3/1
f 5/7/4 6/10/4 4/6/4
f 7/11/1 6/10/1 3/3/1
f 6/9/5 7/12/5 4/6/5
f 8/13/1 7/12/1 3/3/1
f 7/11/6 8/14/6 4/6/6
f 2/4/1 8/14/1 3/3/1
f 8/13/7 2/2/7 4/6/7
f 9/15/1 10/16/1 11/17/1
f 10/18/8 9/19/8 12/20/8 13/21/8
f 13/22/9 12/23/9 14/24/9
f 15/25/1 9/19/1 11/17/1
f 9/15/10 15/26/10 16/27/10 12/28/10
f 12/29/9 16/30/9 14/24/9
f 17/31/1 15/26/1 11/17/1
f 15/25/11 17/32/11 18/33/11 16/34/11
f 16/35/9 18/36/9 14/24/9
f 19/37/1 17/32/1 11/17/1
f 17/31/12 19/38/12 20/39/12 18/40/12
f 18/41/9 20/42/9 14/24/9
f 21/43/1 19/38/1 11/17/1
f 19/37/13 21/44/13 22/45/13 20/46/13
f 20/47/9 22/48/9 14/24/9
f 10/18/1 21/44/1 11/17/1
f 21/43/14 10/16/14 13/49/14 22/50/14
f 22/51/9 13/52/9 14/24/9
o cube
v 0.225000 0.112273 0.071686
v 0.225000 0.212273 0.071686
v 0.125000 0.212273 0.071686
v 0.125000 0.112273 0.071686
v 0.125000 0.212273 0.071686
v 0.225000 0.212273 0.071686
v 0.225000 0.112273 0.071686
v 0.125000 0.112273 0.071686
vt 1.0000 0.5000
vt 1.0000 1.0000
vt 0.5000 1.0000
vt 0.5000 0.5000
vt 0.5000 1.0000
vt 1.0000 1.0000
vt 1.0000 0.5000
vt 0.5000 0.5000
vn 0.0000 0.0000 1.0000
vn 0.0000 0.0000 -1.0000
usemtl m_0
s 1
f 23/53/15 24/54/15 25/55/15 26/56/15
f 27/57/16 28/58/16 29/59/16 30/60/16
o gunModel
v 0.099551 0.109148 0.596686
v -0.000000 0.056023 0.596686
v -0.000000 0.162273 0.596686
v 0.074551 0.121648 0.721686
v -0.000000 0.081023 0.721686
v -0.000000 0.162273 0.671686
v 0.099551 0.215398 0.596686
v 0.074551 0.202898 0.721686
v 0.000000 0.268523 0.596686
v 0.000000 0.243523 0.721686
v -0.099551 0.215398 0.596686
v -0.074551 0.202898 0.721686
v -0.099551 0.109148 0.596686
v -0.074551 0.121648 0.721686
v 0.124551 0.096648 0.321686
v -0.000000 0.031023 0.321686
v -0.000000 0.162273 0.321686
v 0.124551 0.096648 0.471686
v -0.000000 0.031023 0.471686
v -0.000000 0.162273 0.471686
v 0.124551 0.227898 0.321686
v 0.124551 0.227898 0.471686
v 0.000000 0.293523 0.321686
v 0.000000 0.293523 0.471686
v -0.124551 0.227898 0.321686
v -0.124551 0.227898 0.471686
v -0.124551 0.096648 0.321686
v -0.124551 0.096648 0.471686
v 0.099551 0.109148 0.196686
v -0.000000 0.056023 0.196686
v -0.000000 0.162273 0.196686
v 0.099551 0.109148 0.321686
v -0.000000 0.056023 0.321686
v -0.000000 0.162273 0.321686
v 0.099551 0.215398 0.196686
v 0.099551 0.215398 0.321686
v 0.000000 0.268523 0.196686
v 0.000000 0.268523 0.321686
v -0.099551 0.215398 0.196686
v -0.099551 0.215398 0.321686
v -0.099551 0.109148 0.196686
v -0.099551 0.109148 0.321686
v 0.099551 0.109148 0.071686
v -0.000000 0.056023 0.071686
v -0.000000 0.162273 0.071686
v 0.099551 0.109148 0.196686
v -0.000000 0.056023 0.196686
v -0.000000 0.162273 0.196686
v 0.099551 0.215398 0.071686
v 0.099551 0.215398 0.196686
v 0.000000 0.268523 0.071686
v 0.000000 0.268523 0.196686
v -0.099551 0.215398 0.071686
v -0.099551 0.215398 0.196686
v -0.099551 0.109148 0.071686
v -0.099551 0.109148 0.196686
v 0.099551 0.109148 -0.328314
v -0.000000 0.056023 -0.328314
v -0.000000 0.162273 -0.328314
v 0.099551 0.109148 -0.203314
v -0.000000 0.056023 -0.203314
v -0.000000 0.162273 -0.203314
v 0.099551 0.215398 -0.328314
v 0.099551 0.215398 -0.203314
v 0.000000 0.268524 -0.328314
v 0.000000 0.268523 -0.203314
v -0.099551 0.215398 -0.328314
v -0.099551 0.215398 -0.203314
v -0.099551 0.109148 -0.328314
v -0.099551 0.109148 -0.203314
v 0.099551 0.109148 -0.203314
v -0.000000 0.056023 -0.203314
v -0.000000 0.162273 -0.203314
v 0.099551 0.109148 -0.078314
v -0.000000 0.056023 -0.078314
v -0.000000 0.162273 -0.078314
v 0.099551 0.215398 -0.203314
v 0.099551 0.215398 -0.078314
v 0.000000 0.268523 -0.203314
v 0.000000 0.268523 -0.078314
v -0.099551 0.215398 -0.203314
v -0.099551 0.215398 -0.078314
v -0.099551 0.109148 -0.203314
v -0.099551 0.109148 -0.078314
v 0.149551 0.084149 -0.553314
v -0.000000 0.006023 -0.553314
v -0.000000 0.162273 -0.503314
v 0.099551 0.109148 -0.328314
v -0.000000 0.056023 -0.328314
v -0.000000 0.162273 -0.328314
v 0.149551 0.240398 -0.553314
v 0.099551 0.215398 -0.328314
v 0.000000 0.318523 -0.553314
v 0.000000 0.268524 -0.328314
v -0.149551 0.240398 -0.553314
v -0.099551 0.215398 -0.328314
v -0.149551 0.084149 -0.553314
v -0.099551 0.109148 -0.328314
v 0.124551 0.096648 -0.078314
v -0.000000 0.031023 -0.078314
v -0.000000 0.162273 -0.078314
v 0.124551 0.096648 0.071686
v -0.000000 0.031023 0.071686
v -0.000000 0.162273 0.071686
v 0.124551 0.227898 -0.078314
v 0.124551 0.227898 0.071686
v 0.000000 0.293523 -0.078314
v 0.000000 0.293523 0.071686
v -0.124551 0.227898 -0.078314
v -0.124551 0.227898 0.071686
v -0.124551 0.096648 -0.078314
v -0.124551 0.096648 0.071686
v 0.050000 0.062273 0.346686
v 0.050000 0.062273 0.446686
v 0.050000 -0.137727 0.396686
v 0.050000 -0.137727 0.296686
v -0.050000 -0.137727 0.396686
v -0.050000 0.062273 0.446686
v -0.050000 0.062273 0.346686
v -0.050000 -0.137727 0.296686
v 0.050000 0.062273 -0.053314
v 0.050000 0.062273 0.046686
v 0.050000 -0.137727 -0.003314
v 0.050000 -0.137727 -0.103314
v -0.050000 -0.137727 -0.003314
v -0.050000 0.062273 0.046686
v -0.050000 0.062273 -0.053314
v -0.050000 -0.137727 -0.103314
v 0.099551 0.109148 0.471686
v -0.000000 0.056023 0.471686
v -0.000000 0.162273 0.471686
v 0.099551 0.109148 0.596686
v -0.000000 0.056023 0.596686
v -0.000000 0.162273 0.596686
v 0.099551 0.215398 0.471686
v 0.099551 0.215398 0.596686
v 0.000000 0.268523 0.471686
v 0.000000 0.268523 0.596686
v -0.099551 0.215398 0.471686
v -0.099551 0.215398 0.596686
v -0.099551 0.109148 0.471686
v -0.099551 0.109148 0.596686
vt 0.2812 0.5312
vt 0.4688 0.5312
vt 0.4688 0.7188
vt 0.2812 0.2812
vt 0.4688 0.2812
vt 0.4688 0.4688
vt 0.2812 0.4688
vt 0.2812 0.5312
vt 0.4688 0.5312
vt 0.4688 0.7188
vt 0.2812 0.5312
vt 0.4688 0.5312
vt 0.2812 0.2812
vt 0.4688 0.2812
vt 0.4688 0.4688
vt 0.2812 0.4688
vt 0.2812 0.5312
vt 0.4688 0.5312
vt 0.2812 0.5312
vt 0.4688 0.5312
vt 0.2812 0.2812
vt 0.4688 0.2812
vt 0.4688 0.4688
vt 0.2812 0.4688
vt 0.2812 0.5312
vt 0.4688 0.5312
vt 0.2812 0.5312
vt 0.4688 0.5312
vt 0.2812 0.2812
vt 0.4688 0.2812
vt 0.4688 0.4688
vt 0.2812 0.4688
vt 0.2812 0.5312
vt 0.4688 0.5312
vt 0.2812 0.5312
vt 0.4688 0.5312
vt 0.2812 0.2812
vt 0.4688 0.2812
vt 0.4688 0.4688
vt 0.2812 0.4688
vt 0.2812 0.5312
vt 0.4688 0.5312
vt 0.2812 0.5312
vt 0.4688 0.5312
vt 0.2812 0.2812
vt 0.4688 0.2812
vt 0.4688 0.4688
vt 0.2812 0.4688
vt 0.2812 0.5312
vt 0.4688 0.5312
vt 0.2812 0.7812
vt 0.4688 0.7812
vt 0.4688 0.9688
vt 0.2812 0.7812
vt 0.4688 0.7812
vt 0.4688 0.9688
vt 0.2812 0.9688
vt 0.2812 0.7812
vt 0.4688 0.7812
vt 0.4688 0.9688
vt 0.2812 0.7812
vt 0.4688 0.7812
vt 0.4688 0.9688
vt 0.2812 0.9688
vt 0.2812 0.7812
vt 0.4688 0.7812
vt 0.2812 0.7812
vt 0.4688 0.7812
vt 0.4688 0.9688
vt 0.2812 0.9688
vt 0.2812 0.7812
vt 0.4688 0.7812
vt 0.2812 0.7812
vt 0.4688 0.7812
vt 0.4688 0.9688
vt 0.2812 0.9688
vt 0.2812 0.7812
vt 0.4688 0.7812
vt 0.2812 0.7812
vt 0.4688 0.7812
vt 0.4688 0.9688
vt 0.2812 0.9688
vt 0.2812 0.7812
vt 0.4688 0.7812
vt 0.4688 0.9688
vt 0.2812 0.9688
vt 0.2812 0.7812
vt 0.4688 0.7812
vt 0.2812 0.5312
vt 0.4688 0.5312
vt 0.4688 0.7188
vt 0.2812 0.2812
vt 0.4688 0.2812
vt 0.4688 0.4688
vt 0.2812 0.4688
vt 0.2812 0.5312
vt 0.4688 0.5312
vt 0.4688 0.7188
vt 0.2812 0.5312
vt 0.4688 0.5312
vt 0.2812 0.2812
vt 0.4688 0.2812
vt 0.4688 0.4688
vt 0.2812 0.4688
vt 0.2812 0.5312
vt 0.4688 0.5312
vt 0.2812 0.5312
vt 0.4688 0.5312
vt 0.2812 0.2812
vt 0.4688 0.2812
vt 0.4688 0.4688
vt 0.2812 0.4688
vt 0.2812 0.5312
vt 0.4688 0.5312
vt 0.2812 0.5312
vt 0.4688 0.5312
vt 0.2812 0.2812
vt 0.4688 0.2812
vt 0.4688 0.4688
vt 0.2812 0.4688
vt 0.2812 0.5312
vt 0.4688 0.5312
vt 0.2812 0.5312
vt 0.4688 0.5312
vt 0.2812 0.2812
vt 0.4688 0.2812
vt 0.4688 0.4688
vt 0.2812 0.4688
vt 0.2812 0.5312
vt 0.4688 0.5312
vt 0.2812 0.5312
vt 0.4688 0.5312
vt 0.2812 0.2812
vt 0.4688 0.2812
vt 0.4688 0.4688
vt 0.2812 0.4688
vt 0.2812 0.5312
vt 0.4688 0.5312
vt 0.2812 0.5312
vt 0.4688 0.5312
vt 0.4688 0.7188
vt 0.2812 0.2812
vt 0.4688 0.2812
vt 0.4688 0.4688
vt 0.2812 0.4688
vt 0.2812 0.5312
vt 0.4688 0.5312
vt 0.4688 0.7188
vt 0.2812 0.5312
vt 0.4688 0.5312
vt 0.2812 0.2812
vt 0.4688 0.2812
vt 0.4688 0.4688
vt 0.2812 0.4688
vt 0.2812 0.5312
vt 0.4688 0.5312
vt 0.2812 0.5312
vt 0.4688 0.5312
vt 0.2812 0.2812
vt 0.4688 0.2812
vt 0.4688 0.4688
vt 0.2812 0.4688
vt 0.2812 0.5312
vt 0.4688 0.5312
vt 0.2812 0.5312
vt 0.4688 0.5312
vt 0.2812 0.2812
vt 0.4688 0.2812
vt 0.4688 0.4688
vt 0.2812 0.4688
vt 0.2812 0.5312
vt 0.4688 0.5312
vt 0.2812 0.5312
vt 0.4688 0.5312
vt 0.2812 0.2812
vt 0.4688 0.2812
vt 0.4688 0.4688
vt 0.2812 0.4688
vt 0.2812 0.5312
vt 0.4688 0.5312
vt 0.2812 0.5312
vt 0.4688 0.5312
vt 0.2812 0.2812
vt 0.4688 0.2812
vt 0.4688 0.4688
vt 0.2812 0.4688
vt 0.2812 0.5312
vt 0.4688 0.5312
vt 0.2812 0.5312
vt 0.4688 0.5312
vt 0.4688 0.7188
vt 0.2812 0.2812
vt 0.4688 0.2812
vt 0.4688 0.4688
vt 0.2812 0.4688
vt 0.2812 0.5312
vt 0.4688 0.5312
vt 0.4688 0.7188
vt 0.2812 0.5312
vt 0.4688 0.5312
vt 0.2812 0.2812
vt 0.4688 0.2812
vt 0.4688 0.4688
vt 0.2812 0.4688
vt 0.2812 0.5312
vt 0.4688 0.5312
vt 0.2812 0.5312
vt 0.4688 0.5312
vt 0.2812 0.2812
vt 0.4688 0.2812
vt 0.4688 0.4688
vt 0.2812 0.4688
vt 0.2812 0.5312
vt 0.4688 0.5312
vt 0.2812 0.5312
vt 0.4688 0.5312
vt 0.2812 0.2812
vt 0.4688 0.2812
vt 0.4688 0.4688
vt 0.2812 0.4688
vt 0.2812 0.5312
vt 0.4688 0.5312
vt 0.2812 0.5312
vt 0.4688 0.5312
vt 0.2812 0.2812
vt 0.4688 0.2812
vt 0.4688 0.4688
vt 0.2812 0.4688
vt 0.2812 0.5312
vt 0.4688 0.5312
vt 0.2812 0.5312
vt 0.4688 0.5312
vt 0.2812 0.2812
vt 0.4688 0.2812
vt 0.4688 0.4688
vt 0.2812 0.4688
vt 0.2812 0.5312
vt 0.4688 0.5312
vt 0.2812 0.5312
vt 0.4688 0.5312
vt 0.4688 0.7188
vt 0.2812 0.2812
vt 0.4688 0.2812
vt 0.4688 0.4688
vt 0.2812 0.4688
vt 0.2812 0.5312
vt 0.4688 0.5312
vt 0.4688 0.7188
vt 0.2812 0.5312
vt 0.4688 0.5312
vt 0.2812 0.2812
vt 0.4688 0.2812
vt 0.4688 0.4688
vt 0.2812 0.4688
vt 0.2812 0.5312
vt 0.4688 0.5312
vt 0.2812 0.5312
vt 0.4688 0.5312
vt 0.2812 0.2812
vt 0.4688 0.2812
vt 0.4688 0.4688
vt 0.2812 0.4688
vt 0.2812 0.5312
vt 0.4688 0.5312
vt 0.2812 0.5312
vt 0.4688 0.5312
vt 0.2812 0.2812
vt 0.4688 0.2812
vt 0.4688 0.4688
vt 0.2812 0.4688
vt 0.2812 0.5312
vt 0.4688 0.5312
vt 0.2812 0.5312
vt 0.4688 0.5312
vt 0.2812 0.2812
vt 0.4688 0.2812
vt 0.4688 0.4688
vt 0.2812 0.4688
vt 0.2812 0.5312
vt 0.4688 0.5312
vt 0.2812 0.5312
vt 0.4688 0.5312
vt 0.2812 0.2812
vt 0.4688 0.2812
vt 0.4688 0.4688
vt 0.2812 0.4688
vt 0.2812 0.5312
vt 0.4688 0.5312
vt 0.2812 0.5312
vt 0.4688 0.5312
vt 0.4688 0.7188
vt 0.2812 0.2812
vt 0.4688 0.2812
vt 0.4688 0.4688
vt 0.2812 0.4688
vt 0.2812 0.5312
vt 0.4688 0.5312
vt 0.4688 0.7188
vt 0.2812 0.5312
vt 0.4688 0.5312
vt 0.2812 0.2812
vt 0.4688 0.2812
vt 0.4688 0.4688
vt 0.2812 0.4688
vt 0.2812 0.5312
vt 0.4688 0.5312
vt 0.2812 0.5312
vt 0.4688 0.5312
vt 0.2812 0.2812
vt 0.4688 0.2812
vt 0.4688 0.4688
vt 0.2812 0.4688
vt 0.2812 0.5312
vt 0.4688 0.5312
vt 0.2812 0.5312
vt 0.4688 0.5312
vt 0.2812 0.2812
vt 0.4688 0.2812
vt 0.4688 0.4688
vt 0.2812 0.4688
vt 0.2812 0.5312
vt 0.4688 0.5312
vt 0.2812 0.5312
vt 0.4688 0.5312
vt 0.2812 0.2812
vt 0.4688 0.2812
vt 0.4688 0.4688
vt 0.2812 0.4688
vt 0.2812 0.5312
vt 0.4688 0.5312
vt 0.2812 0.5312
vt 0.4688 0.5312
vt 0.2812 0.2812
vt 0.4688 0.2812
vt 0.4688 0.4688
vt 0.2812 0.4688
vt 0.2812 0.5312
vt 0.4688 0.5312
vt 0.2812 0.7812
vt 0.4688 0.7812
vt 0.4688 0.9688
vt 0.2812 0.7812
vt 0.4688 0.7812
vt 0.4688 0.9688
vt 0.2812 0.9688
vt 0.2812 0.7812
vt 0.4688 0.7812
vt 0.4688 0.9688
vt 0.2812 0.7812
vt 0.4688 0.7812
vt 0.4688 0.9688
vt 0.2812 0.9688
vt 0.2812 0.7812
vt 0.4688 0.7812
vt 0.2812 0.7812
vt 0.4688 0.7812
vt 0.4688 0.9688
vt 0.2812 0.9688
vt 0.2812 0.7812
vt 0.4688 0.7812
vt 0.2812 0.7812
vt 0.4688 0.7812
vt 0.4688 0.9688
vt 0.2812 0.9688
vt 0.2812 0.7812
vt 0.4688 0.7812
vt 0.2812 0.7812
vt 0.4688 0.7812
vt 0.4688 0.9688
vt 0.2812 0.9688
vt 0.2812 0.7812
vt 0.4688 0.7812
vt 0.4688 0.9688
vt 0.2812 0.9688
vt 0.2812 0.7812
vt 0.4688 0.7812
vt 0.4062 0.9688
vt 0.3438 0.9688
vt 0.3438 0.8750
vt 0.4062 0.8750
vt 0.4062 0.8750
vt 0.4062 0.9688
vt 0.3438 0.9688
vt 0.3438 0.8750
vt 0.0000 0.9688
vt 0.0312 0.9688
vt 0.0312 1.0000
vt 0.0000 1.0000
vt 0.4062 0.8125
vt 0.4062 0.8750
vt 0.3438 0.8750
vt 0.3438 0.8125
vt 0.4062 0.9688
vt 0.3438 0.9688
vt 0.3438 0.8750
vt 0.4062 0.8750
vt 0.4062 0.8750
vt 0.4062 0.9688
vt 0.3438 0.9688
vt 0.3438 0.8750
vt 0.0000 0.9688
vt 0.0312 0.9688
vt 0.0312 1.0000
vt 0.0000 1.0000
vt 0.4062 0.8125
vt 0.4062 0.8750
vt 0.3438 0.8750
vt 0.3438 0.8125
vt 0.2812 0.5312
vt 0.4688 0.5312
vt 0.4688 0.7188
vt 0.2812 0.2812
vt 0.4688 0.2812
vt 0.4688 0.4688
vt 0.2812 0.4688
vt 0.2812 0.5312
vt 0.4688 0.5312
vt 0.4688 0.7188
vt 0.2812 0.5312
vt 0.4688 0.5312
vt 0.2812 0.2812
vt 0.4688 0.2812
vt 0.4688 0.4688
vt 0.2812 0.4688
vt 0.2812 0.5312
vt 0.4688 0.5312
vt 0.2812 0.5312
vt 0.4688 0.5312
vt 0.2812 0.2812
vt 0.4688 0.2812
vt 0.4688 0.4688
vt 0.2812 0.4688
vt 0.2812 0.5312
vt 0.4688 0.5312
vt 0.2812 0.5312
vt 0.4688 0.5312
vt 0.2812 0.2812
vt 0.4688 0.2812
vt 0.4688 0.4688
vt 0.2812 0.4688
vt 0.2812 0.5312
vt 0.4688 0.5312
vt 0.2812 0.5312
vt 0.4688 0.5312
vt 0.2812 0.2812
vt 0.4688 0.2812
vt 0.4688 0.4688
vt 0.2812 0.4688
vt 0.2812 0.5312
vt 0.4688 0.5312
vt 0.2812 0.5312
vt 0.4688 0.5312
vt 0.2812 0.2812
vt 0.4688 0.2812
vt 0.4688 0.4688
vt 0.2812 0.4688
vt 0.2812 0.5312
vt 0.4688 0.5312
vn -0.0000 0.0000 -1.0000
vn 0.4632 -0.8679 0.1794
vn -0.2746 0.5039 0.8189
vn 0.9806 0.0000 0.1961
vn -0.5570 0.0000 0.8305
vn 0.4636 0.8688 0.1738
vn 0.4637 0.8688 0.1738
vn -0.2746 -0.5039 0.8189
vn -0.4632 0.8679 0.1794
vn 0.2746 -0.5039 0.8189
vn -0.9806 0.0000 0.1961
vn 0.5570 0.0000 0.8305
vn -0.4636 -0.8688 0.1738
vn -0.4637 -0.8688 0.1738
vn 0.2746 0.5039 0.8189
vn 0.4661 -0.8847 -0.0000
vn 0.0000 0.0000 1.0000
vn 1.0000 0.0000 0.0000
vn 0.4661 0.8847 0.0000
vn -0.4661 0.8847 0.0000
vn -1.0000 0.0000 0.0000
vn -0.4661 -0.8847 -0.0000
vn 0.4708 -0.8822 -0.0000
vn 0.4708 0.8822 0.0000
vn -0.4708 0.8822 0.0000
vn -0.4708 -0.8822 -0.0000
vn -0.1572 0.3010 -0.9406
vn 0.4539 -0.8689 0.1974
vn -0.3171 0.0000 -0.9484
vn 0.9762 0.0000 0.2169
vn -0.1572 -0.3010 -0.9406
vn 0.4543 0.8696 0.1933
vn 0.1572 -0.3010 -0.9406
vn -0.4539 0.8689 0.1974
vn 0.3171 0.0000 -0.9484
vn -0.9762 0.0000 0.2169
vn 0.1572 0.3010 -0.9406
vn -0.4543 -0.8696 0.1933
vn 0.0000 1.0000 0.0000
vn 0.0000 -1.0000 0.0000
vn 0.0000 -0.2425 0.9701
vn 0.0000 0.2425 -0.9701
usemtl m_0
s 1
f 31/61/17 32/62/17 33/63/17
f 32/64/18 31/65/18 34/66/18 35/67/18
f 35/68/19 34/69/19 36/70/19
f 37/71/17 31/72/17 33/63/17
f 31/73/20 37/74/20 38/75/20 34/76/20
f 34/77/21 38/78/21 36/70/21
f 39/79/17 37/80/17 33/63/17
f 37/81/22 39/82/23 40/83/22 38/84/23
f 38/85/24 40/86/24 36/70/24
f 41/87/17 39/88/17 33/63/17
f 39/89/25 41/90/25 42/91/25 40/92/25
f 40/93/26 42/94/26 36/70/26
f 43/95/17 41/96/17 33/63/17
f 41/97/27 43/98/27 44/99/27 42/100/27
f 42/101/28 44/102/28 36/70/28
f 32/103/17 43/104/17 33/63/17
f 43/105/29 32/106/30 35/107/29 44/108/30
f 44/109/31 35/110/31 36/70/31
f 45/111/17 46/112/17 47/113/17
f 46/114/32 45/115/32 48/116/32 49/117/32
f 49/118/33 48/119/33 50/120/33
f 51/121/17 45/115/17 47/113/17
f 45/111/34 51/122/34 52/123/34 48/124/34
f 48/125/33 52/126/33 50/120/33
f 53/127/17 51/122/17 47/113/17
f 51/121/35 53/128/35 54/129/35 52/130/35
f 52/131/33 54/132/33 50/120/33
f 55/133/17 53/128/17 47/113/17
f 53/127/36 55/134/36 56/135/36 54/136/36
f 54/137/33 56/138/33 50/120/33
f 57/139/17 55/134/17 47/113/17
f 55/133/37 57/140/37 58/141/37 56/142/37
f 56/143/33 58/144/33 50/120/33
f 46/114/17 57/140/17 47/113/17
f 57/139/38 46/112/38 49/145/38 58/146/38
f 58/147/33 49/148/33 50/120/33
f 59/149/17 60/150/17 61/151/17
f 60/152/39 59/153/39 62/154/39 63/155/39
f 63/156/33 62/157/33 64/158/33
f 65/159/17 59/160/17 61/151/17
f 59/161/34 65/162/34 66/163/34 62/164/34
f 62/165/33 66/166/33 64/158/33
f 67/167/17 65/168/17 61/151/17
f 65/169/40 67/170/40 68/171/40 66/172/40
f 66/173/33 68/174/33 64/158/33
f 69/175/17 67/176/17 61/151/17
f 67/177/41 69/178/41 70/179/41 68/180/41
f 68/181/33 70/182/33 64/158/33
f 71/183/17 69/184/17 61/151/17
f 69/185/37 71/186/37 72/187/37 70/188/37
f 70/189/33 72/190/33 64/158/33
f 60/191/17 71/192/17 61/151/17
f 71/193/42 60/194/42 63/195/42 72/196/42
f 72/197/33 63/198/33 64/158/33
f 73/199/17 74/200/17 75/201/17
f 74/202/39 73/203/39 76/204/39 77/205/39
f 77/206/33 76/207/33 78/208/33
f 79/209/17 73/210/17 75/201/17
f 73/211/34 79/212/34 80/213/34 76/214/34
f 76/215/33 80/216/33 78/208/33
f 81/217/17 79/218/17 75/201/17
f 79/219/40 81/220/40 82/221/40 80/222/40
f 80/223/33 82/224/33 78/208/33
f 83/225/17 81/226/17 75/201/17
f 81/227/41 83/228/41 84/229/41 82/230/41
f 82/231/33 84/232/33 78/208/33
f 85/233/17 83/234/17 75/201/17
f 83/235/37 85/236/37 86/237/37 84/238/37
f 84/239/33 86/240/33 78/208/33
f 74/241/17 85/242/17 75/201/17
f 85/243/42 74/244/42 77/245/42 86/246/42
f 86/247/33 77/248/33 78/208/33
f 87/249/17 88/250/17 89/251/17
f 88/252/39 87/253/39 90/254/39 91/255/39
f 91/256/33 90/257/33 92/258/33
f 93/259/17 87/260/17 89/251/17
f 87/261/34 93/262/34 94/263/34 90/264/34
f 90/265/33 94/266/33 92/258/33
f 95/267/17 93/268/17 89/251/17
f 93/269/40 95/270/40 96/271/40 94/272/40
f 94/273/33 96/274/33 92/258/33
f 97/275/17 95/276/17 89/251/17
f 95/277/41 97/278/41 98/279/41 96/280/41
f 96/281/33 98/282/33 92/258/33
f 99/283/17 97/284/17 89/251/17
f 97/285/37 99/286/37 100/287/37 98/288/37
f 98/289/33 100/290/33 92/258/33
f 88/291/17 99/292/17 89/251/17
f 99/293/42 88/294/42 91/295/42 100/296/42
f 100/297/33 91/298/33 92/258/33
f 101/299/17 102/300/17 103/301/17
f 102/302/39 101/303/39 104/304/39 105/305/39
f 105/306/33 104/307/33 106/308/33
f 107/309/17 101/310/17 103/301/17
f 101/311/34 107/312/34 108/313/34 104/314/34
f 104/315/33 108/316/33 106/308/33
f 109/317/17 107/318/17 103/301/17
f 107/319/40 109/320/40 110/321/40 108/322/40
f 108/323/33 110/324/33 106/308/33
f 111/325/17 109/326/17 103/301/17
f 109/327/41 111/328/41 112/329/41 110/330/41
f 110/331/33 112/332/33 106/308/33
f 113/333/17 111/334/17 103/301/17
f 111/335/37 113/336/37 114/337/37 112/338/37
f 112/339/33 114/340/33 106/308/33
f 102/341/17 113/342/17 103/301/17
f 113/343/42 102/344/42 105/345/42 114/346/42
f 114/347/33 105/348/33 106/308/33
f 115/349/43 116/350/43 117/351/43
f 116/352/44 115/353/44 118/354/44 119/355/44
f 119/356/33 118/357/33 120/358/33
f 121/359/45 115/360/45 117/351/45
f 115/361/46 121/362/46 122/363/46 118/364/46
f 118/365/33 122/366/33 120/358/33
f 123/367/47 121/368/47 117/351/47
f 121/369/48 123/370/48 124/371/48 122/372/48
f 122/373/33 124/374/33 120/358/33
f 125/375/49 123/376/49 117/351/49
f 123/377/50 125/378/50 126/379/50 124/380/50
f 124/381/33 126/382/33 120/358/33
f 127/383/51 125/384/51 117/351/51
f 125/385/52 127/386/52 128/387/52 126/388/52
f 126/389/33 128/390/33 120/358/33
f 116/391/53 127/392/53 117/351/53
f 127/393/54 116/394/54 119/395/54 128/396/54
f 128/397/33 119/398/33 120/358/33
f 129/399/17 130/400/17 131/401/17
f 130/402/32 129/403/32 132/404/32 133/405/32
f 133/406/33 132/407/33 134/408/33
f 135/409/17 129/403/17 131/401/17
f 129/399/34 135/410/34 136/411/34 132/412/34
f 132/413/33 136/414/33 134/408/33
f 137/415/17 135/410/17 131/401/17
f 135/409/35 137/416/35 138/417/35 136/418/35
f 136/419/33 138/420/33 134/408/33
f 139/421/17 137/416/17 131/401/17
f 137/415/36 139/422/36 140/423/36 138/424/36
f 138/425/33 140/426/33 134/408/33
f 141/427/17 139/422/17 131/401/17
f 139/421/37 141/428/37 142/429/37 140/430/37
f 140/431/33 142/432/33 134/408/33
f 130/402/17 141/428/17 131/401/17
f 141/427/38 130/400/38 133/433/38 142/434/38
f 142/435/33 133/436/33 134/408/33
f 143/437/34 144/438/34 145/439/34 146/440/34
f 147/441/37 148/442/37 149/443/37 150/444/37
f 148/445/55 144/446/55 143/447/55 149/448/55
f 146/449/56 145/450/56 147/451/56 150/452/56
f 145/439/57 144/438/57 148/442/57 147/441/57
f 149/443/58 143/437/58 146/440/58 150/444/58
f 151/453/34 152/454/34 153/455/34 154/456/34
f 155/457/37 156/458/37 157/459/37 158/460/37
f 156/461/55 152/462/55 151/463/55 157/464/55
f 154/465/56 153/466/56 155/467/56 158/468/56
f 153/455/57 152/454/57 156/458/57 155/457/57
f 157/459/58 151/453/58 154/456/58 158/460/58
f 159/469/17 160/470/17 161/471/17
f 160/472/39 159/473/39 162/474/39 163/475/39
f 163/476/33 162/477/33 164/478/33
f 165/479/17 159/480/17 161/471/17
f 159/481/34 165/482/34 166/483/34 162/484/34
f 162/485/33 166/486/33 164/478/33
f 167/487/17 165/488/17 161/471/17
f 165/489/40 167/490/40 168/491/40 166/492/40
f 166/493/33 168/494/33 164/478/33
f 169/495/17 167/496/17 161/471/17
f 167/497/41 169/498/41 170/499/41 168/500/41
f 168/501/33 170/502/33 164/478/33
f 171/503/17 169/504/17 161/471/17
f 169/505/37 171/506/37 172/507/37 170/508/37
f 170/509/33 172/510/33 164/478/33
f 160/511/17 171/512/17 161/471/17
f 171/513/42 160/514/42 163/515/42 172/516/42
f 172/517/33 163/518/33 164/478/33
