# Blender v2.79 (sub 0) OBJ File: ''
# www.blender.org
mtllib topendmod.mtl
o cube
v 0.031250 0.031250 -0.390625
v 0.031250 0.031250 0.000000
v 0.031250 -0.031250 -0.000000
v 0.031250 -0.031250 -0.390625
v -0.031250 -0.031250 -0.390625
v -0.031250 -0.031250 -0.000000
v -0.031250 0.031250 0.000000
v -0.031250 0.031250 -0.390625
v 0.031250 -0.031250 0.390625
v 0.031250 0.031250 0.390625
v -0.031250 0.031250 0.390625
v -0.031250 -0.031250 0.390625
v 0.062500 0.000000 -0.453125
v 0.062500 0.000000 -0.390625
v 0.062500 -0.125000 -0.390625
v 0.062500 -0.125000 -0.453125
v -0.062500 -0.125000 -0.390625
v -0.062500 0.000000 -0.390625
v -0.062500 0.000000 -0.453125
v -0.062500 -0.125000 -0.453125
v -0.031250 0.062500 -0.390625
v 0.031250 0.062500 -0.390625
v 0.031250 0.062500 -0.453125
v -0.031250 0.062500 -0.453125
v 0.062500 -0.125000 -0.453125
v 0.062500 -0.125000 -0.000000
v 0.031250 -0.156250 -0.000000
v 0.031250 -0.156250 -0.453125
v -0.031250 -0.156250 -0.453125
v -0.031250 -0.156250 -0.000000
v -0.062500 -0.125000 -0.000000
v -0.062500 -0.125000 -0.453125
v 0.031250 -0.156250 0.453125
v 0.062500 -0.125000 0.453125
v -0.062500 -0.125000 0.453125
v -0.031250 -0.156250 0.453125
v 0.062500 -0.000000 0.390625
v 0.062500 -0.000000 0.453125
v 0.062500 -0.125000 0.453125
v 0.062500 -0.125000 0.390625
v -0.062500 -0.125000 0.453125
v -0.062500 -0.000000 0.453125
v -0.062500 -0.000000 0.390625
v -0.062500 -0.125000 0.390625
v -0.031250 0.062500 0.453125
v 0.031250 0.062500 0.453125
v 0.031250 0.062500 0.390625
v -0.031250 0.062500 0.390625
v 0.046875 0.046875 -0.359375
v 0.046875 0.046875 -0.296875
v 0.046875 -0.046875 -0.296875
v 0.046875 -0.046875 -0.359375
v -0.078125 -0.031250 -0.296875
v -0.078125 0.031250 -0.296875
v -0.078125 0.031250 -0.359375
v -0.078125 -0.031250 -0.359375
v -0.046875 0.046875 -0.296875
v -0.046875 0.046875 -0.359375
v -0.046875 -0.046875 -0.296875
v -0.046875 -0.046875 -0.359375
v -0.046875 0.046875 -0.265625
v -0.046875 0.046875 -0.203125
v 0.046875 0.046875 -0.203125
v 0.046875 0.046875 -0.265625
v 0.031250 -0.078125 -0.203125
v -0.031250 -0.078125 -0.203125
v -0.031250 -0.078125 -0.265625
v 0.031250 -0.078125 -0.265625
v -0.046875 -0.046875 -0.203125
v -0.046875 -0.046875 -0.265625
v 0.046875 -0.046875 -0.203125
v 0.046875 -0.046875 -0.265625
v -0.046875 -0.046875 -0.171875
v -0.046875 -0.046875 -0.109375
v -0.046875 0.046875 -0.109375
v -0.046875 0.046875 -0.171875
v 0.078125 0.031250 -0.109375
v 0.078125 -0.031250 -0.109375
v 0.078125 -0.031250 -0.171875
v 0.078125 0.031250 -0.171875
v 0.046875 -0.046875 -0.109375
v 0.046875 -0.046875 -0.171875
v 0.046875 0.046875 -0.109375
v 0.046875 0.046875 -0.171875
v 0.046875 -0.046875 -0.078125
v 0.046875 -0.046875 -0.015625
v -0.046875 -0.046875 -0.015625
v -0.046875 -0.046875 -0.078125
v -0.031250 0.078125 -0.015625
v 0.031250 0.078125 -0.015625
v 0.031250 0.078125 -0.078125
v -0.031250 0.078125 -0.078125
v 0.046875 0.046875 -0.015625
v 0.046875 0.046875 -0.078125
v -0.046875 0.046875 -0.015625
v -0.046875 0.046875 -0.078125
v 0.046875 0.046875 0.015625
v 0.046875 0.046875 0.078125
v 0.046875 -0.046875 0.078125
v 0.046875 -0.046875 0.015625
v -0.078125 -0.031250 0.078125
v -0.078125 0.031250 0.078125
v -0.078125 0.031250 0.015625
v -0.078125 -0.031250 0.015625
v -0.046875 0.046875 0.078125
v -0.046875 0.046875 0.015625
v -0.046875 -0.046875 0.078125
v -0.046875 -0.046875 0.015625
v -0.046875 0.046875 0.109375
v -0.046875 0.046875 0.171875
v 0.046875 0.046875 0.171875
v 0.046875 0.046875 0.109375
v 0.031250 -0.078125 0.171875
v -0.031250 -0.078125 0.171875
v -0.031250 -0.078125 0.109375
v 0.031250 -0.078125 0.109375
v -0.046875 -0.046875 0.171875
v -0.046875 -0.046875 0.109375
v 0.046875 -0.046875 0.171875
v 0.046875 -0.046875 0.109375
v -0.046875 -0.046875 0.203125
v -0.046875 -0.046875 0.265625
v -0.046875 0.046875 0.265625
v -0.046875 0.046875 0.203125
v 0.078125 0.031250 0.265625
v 0.078125 -0.031250 0.265625
v 0.078125 -0.031250 0.203125
v 0.078125 0.031250 0.203125
v 0.046875 -0.046875 0.265625
v 0.046875 -0.046875 0.203125
v 0.046875 0.046875 0.265625
v 0.046875 0.046875 0.203125
v 0.046875 -0.046875 0.296875
v 0.046875 -0.046875 0.359375
v -0.046875 -0.046875 0.359375
v -0.046875 -0.046875 0.296875
v -0.031250 0.078125 0.359375
v 0.031250 0.078125 0.359375
v 0.031250 0.078125 0.296875
v -0.031250 0.078125 0.296875
v 0.046875 0.046875 0.359375
v 0.046875 0.046875 0.296875
v -0.046875 0.046875 0.359375
v -0.046875 0.046875 0.296875
vt 0.062500 1.000000
vt 0.031250 1.000000
vt 0.031250 0.937500
vt 0.062500 0.937500
vt 0.000000 0.937500
vt 0.031250 0.937500
vt 0.031250 1.000000
vt 0.000000 1.000000
vt 0.000000 0.625000
vt 0.062500 0.625000
vt 0.062500 0.968750
vt 0.000000 0.968750
vt 0.062500 0.937500
vt 0.062500 1.000000
vt 0.000000 1.000000
vt 0.000000 0.937500
vt 0.062500 1.000000
vt 0.000000 1.000000
vt 0.000000 0.937500
vt 0.062500 0.937500
vt 0.062500 0.625000
vt 0.062500 1.000000
vt 0.000000 1.000000
vt 0.000000 0.625000
vt 0.062500 1.000000
vt 0.062500 0.937500
vt 0.000000 1.000000
vt 0.062500 1.000000
vt 0.000000 0.937500
vt 0.000000 1.000000
vt 0.625000 1.000000
vt 0.562500 1.000000
vt 0.562500 0.937500
vt 0.625000 0.937500
vt 0.625000 0.937500
vt 0.625000 1.000000
vt 0.562500 1.000000
vt 0.562500 0.937500
vt 0.625000 0.937500
vt 0.687500 0.937500
vt 0.687500 1.000000
vt 0.625000 1.000000
vt 0.625000 1.000000
vt 0.562500 1.000000
vt 0.625000 0.937500
vt 0.625000 1.000000
vt 0.562500 1.000000
vt 0.562500 0.937500
vt 0.625000 1.000000
vt 0.562500 1.000000
vt 0.562500 0.937500
vt 0.625000 0.937500
vt 0.562500 0.937500
vt 0.562500 0.875000
vt 0.687500 0.875000
vt 0.625000 1.000000
vt 0.562500 1.000000
vt 0.562500 0.937500
vt 0.625000 0.937500
vt 0.687500 1.000000
vt 0.562500 1.000000
vt 0.562500 0.937500
vt 0.687500 0.937500
vt 0.625000 1.000000
vt 0.562500 1.000000
vt 0.562500 0.937500
vt 0.625000 0.937500
vt 0.937500 0.437500
vt 0.906250 0.437500
vt 0.906250 0.375000
vt 0.937500 0.375000
vt 0.875000 0.375000
vt 0.906250 0.375000
vt 0.906250 0.437500
vt 0.875000 0.437500
vt 0.875000 0.000000
vt 1.000000 0.000000
vt 1.000000 0.437500
vt 0.937500 0.406250
vt 0.875000 0.406250
vt 0.937500 0.375000
vt 0.937500 0.437500
vt 0.875000 0.437500
vt 0.875000 0.375000
vt 0.937500 0.437500
vt 0.875000 0.437500
vt 0.875000 0.375000
vt 0.937500 0.375000
vt 1.000000 0.000000
vt 1.000000 0.437500
vt 0.875000 0.437500
vt 0.875000 0.000000
vt 0.937500 0.437500
vt 0.937500 0.375000
vt 0.875000 0.437500
vt 0.937500 0.437500
vt 0.875000 0.375000
vt 0.875000 0.437500
vt 0.750000 1.000000
vt 0.687500 1.000000
vt 0.687500 0.937500
vt 0.750000 0.937500
vt 0.750000 0.937500
vt 0.750000 1.000000
vt 0.687500 1.000000
vt 0.687500 0.937500
vt 0.750000 0.937500
vt 0.812500 0.937500
vt 0.812500 1.000000
vt 0.750000 1.000000
vt 0.750000 1.000000
vt 0.687500 1.000000
vt 0.750000 0.937500
vt 0.750000 1.000000
vt 0.687500 1.000000
vt 0.687500 0.937500
vt 0.750000 1.000000
vt 0.687500 1.000000
vt 0.687500 0.937500
vt 0.750000 0.937500
vt 0.687500 0.937500
vt 0.687500 0.875000
vt 0.812500 0.875000
vt 0.750000 1.000000
vt 0.687500 1.000000
vt 0.687500 0.937500
vt 0.750000 0.937500
vt 0.812500 1.000000
vt 0.687500 1.000000
vt 0.687500 0.937500
vt 0.812500 0.937500
vt 0.750000 1.000000
vt 0.687500 1.000000
vt 0.687500 0.937500
vt 0.750000 0.937500
vt 0.125000 0.437500
vt 0.062500 0.437500
vt 0.062500 0.375000
vt 0.125000 0.375000
vt 0.125000 0.375000
vt 0.125000 0.437500
vt 0.062500 0.437500
vt 0.062500 0.375000
vt 0.125000 0.312500
vt 0.218750 0.312500
vt 0.218750 0.375000
vt 0.125000 0.375000
vt 0.125000 0.437500
vt 0.062500 0.437500
vt 0.062500 0.375000
vt 0.125000 0.375000
vt 0.125000 0.437500
vt 0.062500 0.437500
vt 0.062500 0.375000
vt 0.125000 0.437500
vt 0.062500 0.437500
vt 0.062500 0.375000
vt 0.125000 0.375000
vt 0.125000 0.343750
vt 0.187500 0.343750
vt 0.187500 0.437500
vt 0.125000 0.437500
vt 0.125000 0.375000
vt 0.187500 0.375000
vt 0.187500 0.437500
vt 0.125000 0.343750
vt 0.062500 0.437500
vt 0.062500 0.343750
vt 0.125000 0.312500
vt 0.187500 0.312500
vt 0.187500 0.375000
vt 0.125000 0.437500
vt 0.062500 0.437500
vt 0.062500 0.375000
vt 0.125000 0.375000
vt 0.125000 0.375000
vt 0.125000 0.437500
vt 0.062500 0.437500
vt 0.062500 0.375000
vt 0.125000 0.312500
vt 0.218750 0.312500
vt 0.218750 0.375000
vt 0.125000 0.375000
vt 0.125000 0.437500
vt 0.062500 0.437500
vt 0.062500 0.375000
vt 0.125000 0.375000
vt 0.125000 0.437500
vt 0.062500 0.437500
vt 0.062500 0.375000
vt 0.125000 0.437500
vt 0.062500 0.437500
vt 0.062500 0.375000
vt 0.125000 0.375000
vt 0.125000 0.343750
vt 0.187500 0.343750
vt 0.187500 0.437500
vt 0.125000 0.437500
vt 0.125000 0.375000
vt 0.187500 0.375000
vt 0.187500 0.437500
vt 0.125000 0.343750
vt 0.062500 0.437500
vt 0.062500 0.343750
vt 0.125000 0.312500
vt 0.187500 0.312500
vt 0.187500 0.375000
vt 0.125000 0.437500
vt 0.062500 0.437500
vt 0.062500 0.375000
vt 0.125000 0.375000
vt 0.125000 0.375000
vt 0.125000 0.437500
vt 0.062500 0.437500
vt 0.062500 0.375000
vt 0.125000 0.312500
vt 0.218750 0.312500
vt 0.218750 0.375000
vt 0.125000 0.375000
vt 0.125000 0.437500
vt 0.062500 0.437500
vt 0.062500 0.375000
vt 0.125000 0.375000
vt 0.125000 0.437500
vt 0.062500 0.437500
vt 0.062500 0.375000
vt 0.125000 0.437500
vt 0.062500 0.437500
vt 0.062500 0.375000
vt 0.125000 0.375000
vt 0.125000 0.343750
vt 0.187500 0.343750
vt 0.187500 0.437500
vt 0.125000 0.437500
vt 0.125000 0.375000
vt 0.187500 0.375000
vt 0.187500 0.437500
vt 0.125000 0.343750
vt 0.062500 0.437500
vt 0.062500 0.343750
vt 0.125000 0.312500
vt 0.187500 0.312500
vt 0.187500 0.375000
vt 0.125000 0.437500
vt 0.062500 0.437500
vt 0.062500 0.375000
vt 0.125000 0.375000
vt 0.125000 0.375000
vt 0.125000 0.437500
vt 0.062500 0.437500
vt 0.062500 0.375000
vt 0.125000 0.312500
vt 0.218750 0.312500
vt 0.218750 0.375000
vt 0.125000 0.375000
vt 0.125000 0.437500
vt 0.062500 0.437500
vt 0.062500 0.375000
vt 0.125000 0.375000
vt 0.125000 0.437500
vt 0.062500 0.437500
vt 0.062500 0.375000
vt 0.125000 0.437500
vt 0.062500 0.437500
vt 0.062500 0.375000
vt 0.125000 0.375000
vt 0.125000 0.343750
vt 0.187500 0.343750
vt 0.187500 0.437500
vt 0.125000 0.437500
vt 0.125000 0.375000
vt 0.187500 0.375000
vt 0.187500 0.437500
vt 0.125000 0.343750
vt 0.062500 0.437500
vt 0.062500 0.343750
vt 0.125000 0.312500
vt 0.187500 0.312500
vt 0.187500 0.375000
vt 0.125000 0.437500
vt 0.062500 0.437500
vt 0.062500 0.375000
vt 0.125000 0.375000
vt 0.125000 0.375000
vt 0.125000 0.437500
vt 0.062500 0.437500
vt 0.062500 0.375000
vt 0.125000 0.312500
vt 0.218750 0.312500
vt 0.218750 0.375000
vt 0.125000 0.375000
vt 0.125000 0.437500
vt 0.062500 0.437500
vt 0.062500 0.375000
vt 0.125000 0.375000
vt 0.125000 0.437500
vt 0.062500 0.437500
vt 0.062500 0.375000
vt 0.125000 0.437500
vt 0.062500 0.437500
vt 0.062500 0.375000
vt 0.125000 0.375000
vt 0.125000 0.343750
vt 0.187500 0.343750
vt 0.187500 0.437500
vt 0.125000 0.437500
vt 0.125000 0.375000
vt 0.187500 0.375000
vt 0.187500 0.437500
vt 0.125000 0.343750
vt 0.062500 0.437500
vt 0.062500 0.343750
vt 0.125000 0.312500
vt 0.187500 0.312500
vt 0.187500 0.375000
vt 0.125000 0.437500
vt 0.062500 0.437500
vt 0.062500 0.375000
vt 0.125000 0.375000
vt 0.125000 0.375000
vt 0.125000 0.437500
vt 0.062500 0.437500
vt 0.062500 0.375000
vt 0.125000 0.312500
vt 0.218750 0.312500
vt 0.218750 0.375000
vt 0.125000 0.375000
vt 0.125000 0.437500
vt 0.062500 0.437500
vt 0.062500 0.375000
vt 0.125000 0.375000
vt 0.125000 0.437500
vt 0.062500 0.437500
vt 0.062500 0.375000
vt 0.125000 0.437500
vt 0.062500 0.437500
vt 0.062500 0.375000
vt 0.125000 0.375000
vt 0.125000 0.343750
vt 0.187500 0.343750
vt 0.187500 0.437500
vt 0.125000 0.437500
vt 0.125000 0.375000
vt 0.187500 0.375000
vt 0.187500 0.437500
vt 0.125000 0.343750
vt 0.062500 0.437500
vt 0.062500 0.343750
vt 0.125000 0.312500
vt 0.187500 0.312500
vt 0.187500 0.375000
vt 0.125000 0.437500
vt 0.062500 0.437500
vt 0.062500 0.375000
vt 0.125000 0.375000
vt 0.125000 0.375000
vt 0.125000 0.437500
vt 0.062500 0.437500
vt 0.062500 0.375000
vt 0.125000 0.312500
vt 0.218750 0.312500
vt 0.218750 0.375000
vt 0.125000 0.375000
vt 0.125000 0.437500
vt 0.062500 0.437500
vt 0.062500 0.375000
vt 0.125000 0.375000
vt 0.125000 0.437500
vt 0.062500 0.437500
vt 0.062500 0.375000
vt 0.125000 0.437500
vt 0.062500 0.437500
vt 0.062500 0.375000
vt 0.125000 0.375000
vt 0.125000 0.343750
vt 0.187500 0.343750
vt 0.187500 0.437500
vt 0.125000 0.437500
vt 0.125000 0.375000
vt 0.187500 0.375000
vt 0.187500 0.437500
vt 0.125000 0.343750
vt 0.062500 0.437500
vt 0.062500 0.343750
vt 0.125000 0.312500
vt 0.187500 0.312500
vt 0.187500 0.375000
vt 0.125000 0.437500
vt 0.062500 0.437500
vt 0.062500 0.375000
vt 0.125000 0.375000
vt 0.125000 0.375000
vt 0.125000 0.437500
vt 0.062500 0.437500
vt 0.062500 0.375000
vt 0.125000 0.312500
vt 0.218750 0.312500
vt 0.218750 0.375000
vt 0.125000 0.375000
vt 0.125000 0.437500
vt 0.062500 0.437500
vt 0.062500 0.375000
vt 0.125000 0.375000
vt 0.125000 0.437500
vt 0.062500 0.437500
vt 0.062500 0.375000
vt 0.125000 0.437500
vt 0.062500 0.437500
vt 0.062500 0.375000
vt 0.125000 0.375000
vt 0.125000 0.343750
vt 0.187500 0.343750
vt 0.187500 0.437500
vt 0.125000 0.437500
vt 0.125000 0.375000
vt 0.187500 0.375000
vt 0.187500 0.437500
vt 0.125000 0.343750
vt 0.062500 0.437500
vt 0.062500 0.343750
vt 0.125000 0.312500
vt 0.187500 0.312500
vt 0.187500 0.375000
vn 1.0000 0.0000 0.0000
vn -1.0000 0.0000 0.0000
vn 0.0000 1.0000 0.0000
vn 0.0000 -1.0000 -0.0000
vn 0.0000 0.0000 1.0000
vn 0.0000 0.0000 -1.0000
vn 0.8944 0.4472 0.0000
vn -0.8944 0.4472 0.0000
vn 0.7071 -0.7071 -0.0000
vn -0.7071 -0.7071 -0.0000
vn -0.4472 0.8944 0.0000
vn -0.4472 -0.8944 -0.0000
vn -0.8944 -0.4472 -0.0000
vn 0.8944 -0.4472 -0.0000
vn 0.4472 -0.8944 -0.0000
vn 0.4472 0.8944 0.0000
usemtl m_0
s 1
f 1/1/1 2/2/1 3/3/1 4/4/1
f 5/5/2 6/6/2 7/7/2 8/8/2
f 8/8/3 7/9/3 2/10/3 1/1/3
f 4/4/4 3/11/4 6/12/4 5/5/4
f 9/13/5 10/14/5 11/15/5 12/16/5
f 8/17/6 1/18/6 4/19/6 5/20/6
f 10/21/3 2/22/3 7/23/3 11/24/3
f 11/25/2 7/7/2 6/6/2 12/26/2
f 12/27/4 6/12/4 3/11/4 9/28/4
f 9/29/1 3/3/1 2/2/1 10/30/1
f 13/31/1 14/32/1 15/33/1 16/34/1
f 17/35/2 18/36/2 19/37/2 20/38/2
f 21/39/3 22/40/3 23/41/3 24/42/3
f 16/34/4 15/43/4 17/44/4 20/38/4
f 15/45/5 14/46/5 18/47/5 17/48/5
f 19/49/6 13/50/6 16/51/6 20/52/6
f 22/40/5 21/53/5 18/54/5 14/55/5
f 23/56/7 22/57/7 14/58/7 13/59/7
f 24/60/6 23/61/6 13/62/6 19/63/6
f 21/64/8 24/65/8 19/66/8 18/67/8
f 25/68/9 26/69/9 27/70/9 28/71/9
f 29/72/10 30/73/10 31/74/10 32/75/10
f 32/75/3 31/76/3 26/77/3 25/78/3
f 28/71/4 27/79/4 30/80/4 29/72/4
f 33/81/5 34/82/5 35/83/5 36/84/5
f 32/85/6 25/86/6 28/87/6 29/88/6
f 34/89/3 26/90/3 31/91/3 35/92/3
f 35/93/10 31/74/10 30/73/10 36/94/10
f 36/95/4 30/80/4 27/79/4 33/96/4
f 33/97/9 27/70/9 26/69/9 34/98/9
f 37/99/1 38/100/1 39/101/1 40/102/1
f 41/103/2 42/104/2 43/105/2 44/106/2
f 45/107/3 46/108/3 47/109/3 48/110/3
f 40/102/4 39/111/4 41/112/4 44/106/4
f 39/113/5 38/114/5 42/115/5 41/116/5
f 43/117/6 37/118/6 40/119/6 44/120/6
f 46/108/5 45/121/5 42/122/5 38/123/5
f 47/124/7 46/125/7 38/126/7 37/127/7
f 48/128/6 47/129/6 37/130/6 43/131/6
f 45/132/8 48/133/8 43/134/8 42/135/8
f 49/136/1 50/137/1 51/138/1 52/139/1
f 53/140/2 54/141/2 55/142/2 56/143/2
f 57/144/3 50/145/3 49/146/3 58/147/3
f 52/139/4 51/148/4 59/149/4 60/150/4
f 51/151/5 50/152/5 57/153/5 59/154/5
f 58/155/6 49/156/6 52/157/6 60/158/6
f 54/141/5 53/159/5 59/160/5 57/161/5
f 55/162/11 54/163/11 57/164/11 58/165/11
f 56/166/6 55/162/6 58/167/6 60/168/6
f 53/140/12 56/169/12 60/170/12 59/171/12
f 61/172/3 62/173/3 63/174/3 64/175/3
f 65/176/4 66/177/4 67/178/4 68/179/4
f 69/180/2 62/181/2 61/182/2 70/183/2
f 64/175/1 63/184/1 71/185/1 72/186/1
f 63/187/5 62/188/5 69/189/5 71/190/5
f 70/191/6 61/192/6 64/193/6 72/194/6
f 66/177/5 65/195/5 71/196/5 69/197/5
f 67/198/13 66/199/13 69/200/13 70/201/13
f 68/202/6 67/198/6 70/203/6 72/204/6
f 65/176/14 68/205/14 72/206/14 71/207/14
f 73/208/2 74/209/2 75/210/2 76/211/2
f 77/212/1 78/213/1 79/214/1 80/215/1
f 81/216/4 74/217/4 73/218/4 82/219/4
f 76/211/3 75/220/3 83/221/3 84/222/3
f 75/223/5 74/224/5 81/225/5 83/226/5
f 82/227/6 73/228/6 76/229/6 84/230/6
f 78/213/5 77/231/5 83/232/5 81/233/5
f 79/234/15 78/235/15 81/236/15 82/237/15
f 80/238/6 79/234/6 82/239/6 84/240/6
f 77/212/16 80/241/16 84/242/16 83/243/16
f 85/244/4 86/245/4 87/246/4 88/247/4
f 89/248/3 90/249/3 91/250/3 92/251/3
f 93/252/1 86/253/1 85/254/1 94/255/1
f 88/247/2 87/256/2 95/257/2 96/258/2
f 87/259/5 86/260/5 93/261/5 95/262/5
f 94/263/6 85/264/6 88/265/6 96/266/6
f 90/249/5 89/267/5 95/268/5 93/269/5
f 91/270/7 90/271/7 93/272/7 94/273/7
f 92/274/6 91/270/6 94/275/6 96/276/6
f 89/248/8 92/277/8 96/278/8 95/279/8
f 97/280/1 98/281/1 99/282/1 100/283/1
f 101/284/2 102/285/2 103/286/2 104/287/2
f 105/288/3 98/289/3 97/290/3 106/291/3
f 100/283/4 99/292/4 107/293/4 108/294/4
f 99/295/5 98/296/5 105/297/5 107/298/5
f 106/299/6 97/300/6 100/301/6 108/302/6
f 102/285/5 101/303/5 107/304/5 105/305/5
f 103/306/11 102/307/11 105/308/11 106/309/11
f 104/310/6 103/306/6 106/311/6 108/312/6
f 101/284/12 104/313/12 108/314/12 107/315/12
f 109/316/3 110/317/3 111/318/3 112/319/3
f 113/320/4 114/321/4 115/322/4 116/323/4
f 117/324/2 110/325/2 109/326/2 118/327/2
f 112/319/1 111/328/1 119/329/1 120/330/1
f 111/331/5 110/332/5 117/333/5 119/334/5
f 118/335/6 109/336/6 112/337/6 120/338/6
f 114/321/5 113/339/5 119/340/5 117/341/5
f 115/342/13 114/343/13 117/344/13 118/345/13
f 116/346/6 115/342/6 118/347/6 120/348/6
f 113/320/14 116/349/14 120/350/14 119/351/14
f 121/352/2 122/353/2 123/354/2 124/355/2
f 125/356/1 126/357/1 127/358/1 128/359/1
f 129/360/4 122/361/4 121/362/4 130/363/4
f 124/355/3 123/364/3 131/365/3 132/366/3
f 123/367/5 122/368/5 129/369/5 131/370/5
f 130/371/6 121/372/6 124/373/6 132/374/6
f 126/357/5 125/375/5 131/376/5 129/377/5
f 127/378/15 126/379/15 129/380/15 130/381/15
f 128/382/6 127/378/6 130/383/6 132/384/6
f 125/356/16 128/385/16 132/386/16 131/387/16
f 133/388/4 134/389/4 135/390/4 136/391/4
f 137/392/3 138/393/3 139/394/3 140/395/3
f 141/396/1 134/397/1 133/398/1 142/399/1
f 136/391/2 135/400/2 143/401/2 144/402/2
f 135/403/5 134/404/5 141/405/5 143/406/5
f 142/407/6 133/408/6 136/409/6 144/410/6
f 138/393/5 137/411/5 143/412/5 141/413/5
f 139/414/7 138/415/7 141/416/7 142/417/7
f 140/418/6 139/414/6 142/419/6 144/420/6
f 137/392/8 140/421/8 144/422/8 143/423/8
