# Blender v2.78 (sub 0) OBJ File: ''
# www.blender.org
mtllib gpp_v6.mtl
o cube
v -0.058227 0.286281 0.145147
v -0.058227 0.252315 0.145147
v -0.058227 0.286281 0.261600
v -0.058227 0.252315 0.261600
v 0.058227 0.286281 0.261600
v 0.058227 0.252315 0.261600
v 0.058227 0.286281 0.145147
v 0.058227 0.252315 0.145147
v -0.067931 0.295985 0.135443
v -0.067931 0.286281 0.135443
v -0.067931 0.295985 0.271305
v -0.067931 0.286281 0.271305
v 0.067931 0.295985 0.271305
v 0.067931 0.286281 0.271305
v 0.067931 0.295985 0.135443
v 0.067931 0.286281 0.135443
v -0.063079 0.329950 0.140295
v -0.063079 0.295985 0.140295
v -0.063079 0.329950 0.266452
v -0.063079 0.295985 0.266452
v 0.063079 0.329950 0.266452
v 0.063079 0.295985 0.266452
v 0.063079 0.329950 0.140295
v 0.063079 0.295985 0.140295
v -0.067931 0.339655 0.135443
v -0.067931 0.329950 0.135443
v -0.067931 0.339655 0.271305
v -0.067931 0.329950 0.271305
v 0.067931 0.339655 0.271305
v 0.067931 0.329950 0.271305
v 0.067931 0.339655 0.135443
v 0.067931 0.329950 0.135443
vt 0.1875 0.5000
vt 0.3125 0.5000
vt 0.3125 0.6250
vt 0.1875 0.6250
vt 0.0000 0.0000
vt 0.5000 0.0000
vt 0.5000 0.1875
vt 0.0000 0.1875
vt 0.1875 0.5000
vt 0.3125 0.5000
vt 0.3125 0.6250
vt 0.1875 0.6250
vt 0.1875 0.5000
vt 0.3125 0.5000
vt 0.3125 0.6250
vt 0.1875 0.6250
vt 0.0000 0.0000
vt 0.5000 0.0000
vt 0.5000 0.1875
vt 0.0000 0.1875
vt 0.1875 0.5000
vt 0.3125 0.5000
vt 0.1875 0.6250
vt 0.1875 0.5000
vt 0.3125 0.5000
vt 0.3125 0.6250
vt 0.1875 0.6250
vt 0.1875 0.5000
vt 0.3125 0.5000
vt 0.3125 0.6250
vt 0.1875 0.6250
vt 0.1875 0.5000
vt 0.3125 0.5000
vt 0.3125 0.6250
vt 0.1875 0.6250
vt 0.0000 0.0000
vt 0.5000 0.0000
vt 0.5000 0.1875
vt 0.0000 0.1875
vt 0.1875 0.5000
vt 0.3125 0.5000
vt 0.3125 0.6250
vt 0.1875 0.6250
vt 0.1875 0.5000
vt 0.3125 0.5000
vt 0.1875 0.6250
vt 0.1875 0.5000
vt 0.3125 0.6250
vt 0.1875 0.6250
vt 0.1875 0.5000
vt 0.3125 0.5000
vt 0.3125 0.6250
vt 0.1875 0.6250
vt 0.1875 0.5000
vt 0.3125 0.6250
vt 0.1875 0.6250
vt 0.1875 0.5000
vt 0.3125 0.5000
vt 0.3125 0.6250
vt 0.1875 0.6250
vt 0.1875 0.5000
vt 0.3125 0.5000
vt 0.3125 0.6250
vt 0.3125 0.6250
vt 0.1875 0.6250
vt 0.3125 0.5000
vt 0.3125 0.6250
vt 0.1875 0.6250
vt 0.1875 0.5000
vt 0.3125 0.5000
vt 0.3125 0.6250
vt 0.1875 0.6250
vt 0.1875 0.5000
vt 0.3125 0.5000
vt 0.1875 0.5000
vt 0.3125 0.5000
vt 0.3125 0.6250
vt 0.1875 0.6250
vt 0.3125 0.5000
vt 0.3125 0.6250
vt 0.0000 0.0000
vt 0.5000 0.0000
vt 0.5000 0.1875
vt 0.0000 0.1875
vn 0.0000 1.0000 0.0000
vn 1.0000 0.0000 0.0000
vn -1.0000 0.0000 -0.0000
vn -0.0000 0.0000 1.0000
vn 0.0000 0.0000 -1.0000
vn 0.0000 -1.0000 0.0000
usemtl m_0
s 1
f 23/1/1 17/2/1 19/3/1 21/4/1
f 22/5/2 24/6/2 23/7/2 21/8/2
f 10/9/3 12/10/3 11/11/3 9/12/3
f 2/13/3 4/14/3 3/15/3 1/16/3
f 20/17/4 22/18/4 21/19/4 19/20/4
f 15/21/1 9/22/1 11/11/1 13/23/1
f 32/24/5 26/25/5 25/26/5 31/27/5
f 31/28/1 25/29/1 27/30/1 29/31/1
f 16/32/5 10/33/5 9/34/5 15/35/5
f 24/36/5 18/37/5 17/38/5 23/39/5
f 12/40/4 14/41/4 13/42/4 11/43/4
f 26/44/3 28/45/3 27/30/3 25/46/3
f 6/47/6 4/14/6 2/48/6 8/49/6
f 22/50/6 20/51/6 18/52/6 24/53/6
f 30/54/6 28/45/6 26/55/6 32/56/6
f 28/57/4 30/58/4 29/59/4 27/60/4
f 14/61/2 16/62/2 15/63/2 13/23/2
f 14/61/6 12/10/6 10/64/6 16/65/6
f 6/47/2 8/66/2 7/67/2 5/68/2
f 4/69/4 6/70/4 5/71/4 3/72/4
f 7/73/1 1/74/1 3/15/1 5/68/1
f 8/75/5 2/76/5 1/77/5 7/78/5
f 30/54/2 32/79/2 31/80/2 29/31/2
f 18/81/3 20/82/3 19/83/3 17/84/3
o engine
v -0.232906 0.252315 0.004433
v -0.232906 -0.000000 0.004433
v -0.232906 0.252315 0.470245
v -0.232906 0.000000 0.470245
v 0.232906 0.252315 0.470245
v 0.232906 0.000000 0.470245
v 0.232906 0.252315 0.004433
v 0.232906 -0.000000 0.004433
v -0.397596 0.242325 0.004433
v -0.232906 0.077635 0.004433
v -0.397596 0.242325 0.470245
v -0.232906 0.077635 0.470245
v -0.260355 0.379566 0.470245
v -0.095665 0.214877 0.470245
v -0.260354 0.379566 0.004433
v -0.095665 0.214877 0.004433
v 0.260355 0.379566 0.004433
v 0.095665 0.214877 0.004433
v 0.260354 0.379566 0.470245
v 0.095665 0.214877 0.470245
v 0.397596 0.242325 0.470245
v 0.232906 0.077635 0.470245
v 0.397596 0.242325 0.004433
v 0.232906 0.077635 0.004433
vt 0.0000 0.8125
vt 0.1875 0.8125
vt 0.1875 1.0000
vt 0.0000 1.0000
vt 0.0000 0.8125
vt 0.0625 0.8125
vt 0.0625 1.0000
vt 0.0000 1.0000
vt 0.0000 0.8125
vt 0.0625 0.8125
vt 0.0625 1.0000
vt 0.0000 1.0000
vt 0.0000 0.8125
vt 0.0625 0.8125
vt 0.0625 1.0000
vt 0.0000 1.0000
vt 0.0000 0.3750
vt 0.5000 0.3750
vt 0.5000 0.8125
vt 0.0000 0.8125
vt 0.0000 0.9375
vt 0.0625 0.9375
vt 0.0625 1.0000
vt 0.0000 1.0000
vt 0.0000 0.8125
vt 0.0625 0.8125
vt 0.0625 1.0000
vt 0.0000 1.0000
vt 0.0000 0.9375
vt 0.1875 0.9375
vt 0.1875 1.0000
vt 0.0000 1.0000
vt 0.0000 0.0000
vt 1.0000 0.0000
vt 1.0000 1.0000
vt 0.0000 1.0000
vt 0.0000 0.9375
vt 0.0625 0.9375
vt 0.0625 1.0000
vt 0.0000 1.0000
vt 0.0000 0.8125
vt 0.0625 0.8125
vt 0.0625 1.0000
vt 0.0000 1.0000
vt 0.0000 0.8125
vt 0.0625 0.8125
vt 0.0625 1.0000
vt 0.0000 1.0000
vt 0.0000 0.8125
vt 0.0625 0.8125
vt 0.0625 1.0000
vt 0.0000 1.0000
vt 1.0000 0.2500
vt 0.5000 0.2500
vt 0.5000 1.0000
vt 1.0000 1.0000
vt 1.0000 0.2500
vt 0.5000 0.2500
vt 0.5000 1.0000
vt 1.0000 1.0000
vt 0.0000 0.9375
vt 0.1875 0.9375
vt 0.1875 1.0000
vt 0.0000 1.0000
vt 0.0000 0.8125
vt 0.0625 0.8125
vt 0.0625 1.0000
vt 0.0000 1.0000
vt 0.0000 0.0000
vt 1.0000 0.0000
vt 1.0000 1.0000
vt 0.0000 1.0000
vn -0.0000 -1.0000 0.0000
vn 0.0000 -0.0000 -1.0000
vn -0.0000 0.0000 1.0000
vn 0.0000 1.0000 0.0000
vn 1.0000 0.0000 0.0000
vn 0.7071 -0.7071 0.0000
vn -0.7071 -0.7071 -0.0000
vn -1.0000 -0.0000 -0.0000
vn 0.7071 0.7071 0.0000
vn -0.7071 0.7071 -0.0000
usemtl m_0
s 1
f 38/85/7 36/86/7 34/87/7 40/88/7
f 56/89/8 50/90/8 49/91/8 55/92/8
f 52/93/9 54/94/9 53/95/9 51/96/9
f 44/97/9 46/98/9 45/99/9 43/100/9
f 39/101/10 33/102/10 35/103/10 37/104/10
f 38/105/11 40/106/11 39/107/11 37/108/11
f 54/109/12 56/110/12 55/111/12 53/112/12
f 36/113/9 38/114/9 37/115/9 35/116/9
f 54/117/13 52/118/13 50/119/13 56/120/13
f 34/121/14 36/122/14 35/123/14 33/124/14
f 46/125/15 48/126/15 47/127/15 45/128/15
f 42/129/13 44/130/13 43/131/13 41/132/13
f 50/133/16 52/134/16 51/135/16 49/136/16
f 47/137/16 41/138/16 43/139/16 45/140/16
f 55/141/15 49/142/15 51/143/15 53/144/15
f 40/145/8 34/146/8 33/147/8 39/148/8
f 48/149/8 42/150/8 41/151/8 47/152/8
f 46/153/12 44/154/12 42/155/12 48/156/12
