# Blender v2.78 (sub 0) OBJ File: ''
# www.blender.org
mtllib backpack.mtl
o cube
v -0.053779 -0.027101 0.134892
v -0.053779 -0.027101 0.188849
v -0.054884 -0.000145 0.188849
v -0.054884 -0.000145 0.134892
v 0.239928 0.003624 -0.188849
v 0.188425 -0.012464 -0.188849
v 0.180380 0.013288 -0.188849
v 0.231883 0.029376 -0.188849
v 0.188425 -0.012464 0.188848
v 0.239928 0.003624 0.188848
v 0.231883 0.029376 0.188848
v 0.180380 0.013288 0.188848
v 0.239928 0.003624 0.134892
v 0.213886 0.010676 0.134892
v 0.220938 0.036717 0.134892
v 0.246978 0.029665 0.134892
v 0.239928 0.003624 0.134892
v 0.188425 -0.012464 0.134892
v 0.180380 0.013288 0.134892
v 0.231883 0.029376 0.134892
v -0.158934 -0.005894 -0.134892
v -0.158934 -0.005894 -0.188849
v -0.133558 0.003266 -0.188849
v -0.133558 0.003266 -0.134892
v -0.045042 0.039192 -0.215827
v -0.045042 0.039192 -0.242805
v -0.051673 0.200927 -0.242805
v -0.051673 0.200927 -0.215827
v 0.279532 0.025499 0.215827
v 0.279532 0.025499 -0.215827
v 0.270690 0.241145 -0.215827
v 0.270690 0.241145 0.215827
v -0.247210 0.030904 -0.215827
v -0.253841 0.192638 -0.215827
v -0.099337 0.003453 0.188849
v -0.099337 0.003453 0.134892
v -0.150753 0.019814 0.134892
v -0.150753 0.019814 0.188849
v -0.247210 0.030904 -0.242805
v -0.039300 0.228435 0.161870
v -0.039301 0.228436 -0.161870
v -0.039439 0.231804 -0.161870
v -0.039438 0.231805 0.161870
v -0.099506 0.050460 0.215827
v -0.247763 0.044382 0.215827
v -0.253289 0.179160 0.215827
v -0.105032 0.185238 0.215827
v 0.213886 0.010676 -0.134892
v 0.213886 0.010676 -0.188849
v 0.239928 0.003624 -0.188849
v 0.239928 0.003624 -0.134892
v -0.158934 -0.005894 -0.134892
v -0.158934 -0.005894 -0.188849
v -0.107518 -0.022256 -0.188849
v -0.107518 -0.022256 -0.134892
v 0.085369 0.233547 -0.013489
v 0.044936 0.231889 -0.013489
v 0.044660 0.238627 -0.013489
v 0.085093 0.240285 -0.013489
v -0.051356 -0.000232 0.188849
v -0.051356 -0.000232 0.134892
v -0.105095 0.004614 0.134892
v -0.105095 0.004614 0.188849
v -0.168094 0.019482 -0.188849
v -0.142718 0.028642 -0.188849
v -0.253841 0.192638 -0.242805
v 0.134912 -0.019365 0.188849
v 0.133806 0.007592 0.188849
v -0.241606 0.223515 -0.161870
v -0.241606 0.223515 0.161870
v 0.085093 0.240285 0.013489
v 0.044660 0.238627 0.013489
v -0.241469 0.220146 0.161870
v 0.246978 0.029665 -0.134892
v 0.220938 0.036717 -0.134892
v 0.213886 0.010676 0.188848
v 0.239928 0.003624 0.188848
v -0.053779 -0.027101 -0.188849
v -0.053779 -0.027101 -0.134892
v -0.054884 -0.000145 -0.134892
v -0.054884 -0.000145 -0.188849
v -0.247763 0.044382 0.222572
v -0.099506 0.050460 0.222572
v 0.216779 0.238935 0.161870
v 0.216779 0.238935 -0.161870
v 0.216641 0.242304 -0.161870
v 0.216641 0.242304 0.161870
v 0.054906 0.235673 -0.161870
v 0.054906 0.235673 0.161870
v -0.107518 -0.022256 -0.188849
v -0.107518 -0.022256 -0.134892
v -0.105095 0.004614 -0.134892
v -0.105095 0.004614 -0.188849
v -0.253289 0.179160 0.222572
v 0.188425 -0.012464 -0.188849
v 0.134911 -0.019365 -0.188849
v 0.131461 0.007393 -0.188849
v 0.184974 0.014293 -0.188849
v -0.053779 -0.027101 -0.134892
v -0.051356 -0.000232 -0.134892
v -0.259582 0.003395 -0.215827
v -0.259582 0.003395 0.215827
v -0.268424 0.219041 0.215827
v -0.268424 0.219041 -0.215827
v -0.107518 -0.022256 0.134892
v -0.158934 -0.005894 0.134892
v 0.134911 -0.019365 -0.134892
v 0.131461 0.007393 -0.134892
v 0.133806 0.007592 -0.134892
v 0.133806 0.007592 -0.188849
v -0.133558 0.003266 0.188849
v -0.133558 0.003266 0.134892
v -0.142718 0.028642 0.134892
v -0.142718 0.028642 0.188849
v 0.055045 0.232303 -0.161870
v 0.055045 0.232303 0.161870
v 0.246978 0.029665 -0.188849
v 0.220938 0.036717 -0.188849
v -0.053779 -0.027101 0.188849
v -0.053779 -0.027101 0.134892
v 0.231883 0.029376 -0.134892
v 0.180380 0.013288 -0.134892
v 0.246978 0.029665 0.188848
v 0.134911 -0.019365 -0.188849
v 0.134911 -0.019365 -0.134892
v -0.099337 0.003453 -0.188849
v -0.099337 0.003453 -0.134892
v 0.184974 0.014293 0.188848
v 0.184974 0.014293 0.134892
v 0.131461 0.007393 0.134892
v 0.131461 0.007393 0.188849
v -0.150753 0.019814 -0.188849
v -0.150753 0.019814 -0.134892
v 0.134912 -0.019365 0.134892
v 0.133806 0.007592 0.134892
v -0.158934 -0.005894 0.188849
v -0.168094 0.019482 0.188849
v 0.188425 -0.012464 -0.134892
v 0.239928 0.003624 -0.134892
v 0.184974 0.014293 -0.134892
v -0.168094 0.019482 -0.134892
v -0.158934 -0.005894 0.134892
v -0.107518 -0.022256 0.134892
v -0.168094 0.019482 0.134892
v -0.053779 -0.027101 -0.188849
v -0.051356 -0.000232 -0.188849
v -0.241469 0.220146 -0.161870
v 0.134912 -0.019365 0.134892
v 0.134912 -0.019365 0.188849
v -0.107518 -0.022256 0.188849
v -0.158934 -0.005894 0.188849
v -0.107518 -0.022256 0.188849
v -0.105032 0.185238 0.222572
v 0.188425 -0.012464 0.188848
v 0.188425 -0.012464 -0.134892
v 0.044936 0.231889 0.013489
v 0.085369 0.233547 0.013489
v 0.220938 0.036717 0.188848
v -0.142718 0.028642 -0.134892
v 0.188425 -0.012464 0.134892
vt 0.0000 0.5000
vt 0.5000 0.5000
vt 0.5000 1.0000
vt 0.0000 1.0000
vt 0.0000 0.5000
vt 0.5000 0.5000
vt 0.5000 1.0000
vt 0.0000 1.0000
vt 0.0000 0.5000
vt 0.5000 0.5000
vt 0.5000 1.0000
vt 0.0000 1.0000
vt 0.0000 0.5000
vt 0.5000 0.5000
vt 0.5000 1.0000
vt 0.0000 1.0000
vt 0.0000 0.5000
vt 0.5000 0.5000
vt 0.5000 1.0000
vt 0.0000 1.0000
vt 0.0000 0.5000
vt 0.5000 0.5000
vt 0.5000 1.0000
vt 0.0000 1.0000
vt 0.5000 0.5000
vt 1.0000 0.5000
vt 1.0000 1.0000
vt 0.5000 1.0000
vt 0.0000 0.5000
vt 0.5000 0.5000
vt 0.5000 1.0000
vt 0.0000 1.0000
vt 0.5000 0.5000
vt 1.0000 0.5000
vt 1.0000 1.0000
vt 0.5000 1.0000
vt 0.0000 0.5000
vt 0.5000 0.5000
vt 0.5000 1.0000
vt 0.0000 1.0000
vt 1.0000 0.5000
vt 1.0000 1.0000
vt 0.5000 1.0000
vt 0.5000 0.5000
vt 1.0000 0.5000
vt 1.0000 1.0000
vt 0.5000 1.0000
vt 0.5000 0.0000
vt 1.0000 0.0000
vt 1.0000 0.5000
vt 0.5000 0.5000
vt 0.0000 0.5000
vt 0.5000 0.5000
vt 0.5000 1.0000
vt 0.0000 1.0000
vt 0.0000 0.5000
vt 0.5000 0.5000
vt 0.5000 1.0000
vt 0.0000 1.0000
vt 0.0000 0.0000
vt 0.5000 0.0000
vt 0.5000 0.5000
vt 0.0000 0.5000
vt 0.0000 0.5000
vt 0.5000 0.5000
vt 0.5000 1.0000
vt 0.0000 1.0000
vt 0.0000 0.5000
vt 0.5000 1.0000
vt 0.0000 1.0000
vt 0.5000 0.5000
vt 1.0000 0.5000
vt 1.0000 1.0000
vt 0.0000 0.5000
vt 0.5000 0.5000
vt 0.5000 1.0000
vt 0.0000 1.0000
vt 0.5000 0.5000
vt 1.0000 0.5000
vt 1.0000 1.0000
vt 0.5000 1.0000
vt 0.0000 0.0000
vt 0.5000 0.0000
vt 0.0000 0.5000
vt 0.5000 0.5000
vt 1.0000 0.5000
vt 1.0000 1.0000
vt 0.5000 0.5000
vt 0.5000 1.0000
vt 0.0000 1.0000
vt 0.0000 0.5000
vt 0.5000 1.0000
vt 0.0000 1.0000
vt 0.5000 0.5000
vt 0.5000 1.0000
vt 0.0000 0.5000
vt 0.5000 0.5000
vt 0.5000 1.0000
vt 0.0000 1.0000
vt 0.5000 0.5000
vt 1.0000 0.5000
vt 1.0000 1.0000
vt 0.5000 1.0000
vt 0.5000 0.0000
vt 1.0000 0.5000
vt 0.5000 0.5000
vt 0.5000 0.5000
vt 1.0000 0.5000
vt 1.0000 1.0000
vt 0.5000 1.0000
vt 0.5000 0.5000
vt 1.0000 0.5000
vt 1.0000 1.0000
vt 0.5000 1.0000
vt 0.0000 0.5000
vt 0.5000 0.5000
vt 0.5000 1.0000
vt 0.0000 1.0000
vt 0.5000 0.0000
vt 1.0000 0.0000
vt 1.0000 0.5000
vt 0.5000 0.5000
vt 0.0000 0.5000
vt 0.5000 0.5000
vt 0.5000 1.0000
vt 0.0000 1.0000
vt 0.0000 0.5000
vt 0.5000 0.5000
vt 0.5000 1.0000
vt 0.0000 1.0000
vt 0.0000 0.5000
vt 0.5000 0.5000
vt 0.5000 1.0000
vt 0.0000 1.0000
vt 0.0000 0.5000
vt 0.5000 0.5000
vt 0.0000 1.0000
vt 0.0000 0.5000
vt 0.5000 0.5000
vt 0.5000 1.0000
vt 0.0000 1.0000
vt 0.0000 0.5000
vt 0.5000 0.5000
vt 0.5000 1.0000
vt 0.0000 1.0000
vt 0.0000 0.5000
vt 0.5000 0.5000
vt 0.5000 1.0000
vt 0.0000 1.0000
vt 0.5000 0.5000
vt 1.0000 0.5000
vt 1.0000 1.0000
vt 0.5000 1.0000
vt 0.0000 0.5000
vt 0.5000 0.5000
vt 0.5000 1.0000
vt 0.0000 0.5000
vt 0.5000 0.5000
vt 0.5000 1.0000
vt 0.0000 1.0000
vt 0.0000 0.5000
vt 0.5000 0.5000
vt 0.5000 1.0000
vt 0.0000 1.0000
vt 0.0000 0.5000
vt 0.5000 0.5000
vt 0.0000 1.0000
vt 0.0000 0.5000
vt 0.5000 0.5000
vt 0.5000 1.0000
vt 0.0000 1.0000
vt 0.0000 0.5000
vt 0.5000 0.5000
vt 0.5000 1.0000
vt 0.0000 1.0000
vt 0.0000 0.5000
vt 0.5000 0.5000
vt 0.5000 1.0000
vt 0.0000 1.0000
vt 0.0000 0.5000
vt 0.5000 0.5000
vt 0.5000 1.0000
vt 0.0000 1.0000
vt 0.0000 0.5000
vt 0.5000 1.0000
vt 0.0000 1.0000
vt 0.0000 0.5000
vt 0.0000 1.0000
vt 0.0000 0.5000
vt 0.5000 0.5000
vt 0.0000 1.0000
vt 0.0000 0.5000
vt 0.5000 0.5000
vt 0.5000 1.0000
vt 0.0000 1.0000
vt 0.0000 0.5000
vt 0.5000 0.5000
vt 0.5000 1.0000
vt 0.0000 1.0000
vt 0.0000 0.5000
vt 0.5000 0.5000
vt 0.5000 1.0000
vt 0.0000 0.5000
vt 0.5000 0.5000
vt 0.0000 1.0000
vt 0.0000 0.5000
vt 0.5000 0.5000
vt 0.5000 1.0000
vt 0.0000 1.0000
vt 0.0000 0.5000
vt 0.5000 0.5000
vt 0.5000 1.0000
vt 0.0000 1.0000
vt 0.5000 0.5000
vt 0.5000 1.0000
vt 0.0000 1.0000
vt 0.0000 0.5000
vt 0.5000 0.5000
vt 0.0000 1.0000
vt 0.0000 0.5000
vt 0.5000 1.0000
vt 0.0000 1.0000
vt 0.0000 0.5000
vt 0.5000 0.5000
vt 0.5000 1.0000
vt 0.0000 1.0000
vt 1.0000 0.5000
vt 1.0000 1.0000
vt 0.5000 1.0000
vt 0.0000 0.5000
vt 0.5000 0.5000
vt 0.5000 1.0000
vt 0.0000 1.0000
vt 0.0000 0.5000
vt 0.5000 1.0000
vt 0.0000 1.0000
vt 0.0000 0.5000
vt 0.5000 0.5000
vt 0.5000 1.0000
vt 0.0000 1.0000
vt 0.0000 0.5000
vt 0.5000 0.5000
vt 0.5000 1.0000
vt 0.0000 1.0000
vt 0.0000 0.5000
vt 0.5000 0.5000
vt 0.5000 1.0000
vt 0.0000 1.0000
vt 0.5000 0.5000
vt 0.5000 1.0000
vt 0.0000 0.5000
vt 0.5000 0.5000
vt 0.5000 1.0000
vt 0.0000 1.0000
vt 0.0000 0.5000
vt 0.5000 0.5000
vt 0.5000 1.0000
vt 0.0000 1.0000
vt 0.0000 0.5000
vt 0.5000 0.5000
vt 0.5000 1.0000
vt 0.0000 0.5000
vt 0.5000 0.5000
vt 0.5000 1.0000
vt 0.0000 1.0000
vt 0.5000 0.0000
vt 1.0000 0.0000
vt 1.0000 0.5000
vt 0.5000 0.5000
vt 0.5000 0.5000
vt 1.0000 0.5000
vt 1.0000 1.0000
vt 0.5000 1.0000
vt 0.0000 0.5000
vt 0.5000 0.5000
vt 0.5000 1.0000
vt 0.0000 0.5000
vt 0.5000 0.5000
vt 0.5000 1.0000
vt 0.0000 0.5000
vt 0.5000 1.0000
vt 0.0000 1.0000
vt 0.0000 0.5000
vt 0.5000 0.5000
vt 0.5000 0.5000
vt 1.0000 0.5000
vt 1.0000 1.0000
vt 0.5000 0.5000
vt 0.5000 1.0000
vt 0.0000 1.0000
vt 0.0000 0.5000
vt 0.0000 1.0000
vt 0.0000 0.5000
vt 0.5000 0.5000
vt 0.5000 1.0000
vt 0.0000 1.0000
vt 0.0000 0.0000
vt 0.5000 0.0000
vt 0.5000 0.5000
vt 0.5000 1.0000
vt 0.0000 1.0000
vt 0.0000 0.5000
vt 0.5000 0.5000
vt 1.0000 0.5000
vt 1.0000 1.0000
vt 0.5000 1.0000
vt 0.0000 0.5000
vt 0.5000 0.5000
vt 0.0000 1.0000
vt 0.5000 0.5000
vt 0.5000 1.0000
vt 0.5000 0.0000
vt 1.0000 0.0000
vt 0.5000 0.5000
vt 0.5000 0.5000
vt 0.0000 0.5000
vt 0.0000 0.5000
vt 0.5000 0.5000
vt 0.5000 1.0000
vt 0.0000 1.0000
vt 0.5000 1.0000
vt 0.0000 1.0000
vt 0.0000 0.5000
vt 0.5000 0.5000
vt 0.0000 1.0000
vt 0.5000 0.5000
vt 0.5000 1.0000
vt 0.0000 1.0000
vt 0.0000 0.0000
vt 0.5000 0.0000
vt 0.5000 0.5000
vt 0.0000 0.5000
vt 0.5000 0.5000
vt 0.5000 1.0000
vt 0.0000 0.5000
vt 0.5000 0.5000
vt 0.5000 1.0000
vt 0.0000 1.0000
vt 0.0000 0.5000
vt 0.0000 1.0000
vt 0.5000 0.5000
vt 0.5000 1.0000
vt 0.0000 1.0000
vt 0.0000 0.5000
vt 0.5000 1.0000
vt 0.0000 1.0000
vt 0.0000 0.5000
vt 0.5000 0.5000
vt 0.5000 1.0000
vt 0.0000 1.0000
vt 0.0000 0.5000
vt 0.5000 0.5000
vt 0.5000 1.0000
vt 0.0000 1.0000
vt 0.0000 0.5000
vt 0.5000 0.5000
vt 0.5000 1.0000
vt 0.0000 1.0000
vt 0.0000 0.5000
vt 0.5000 0.5000
vt 0.0000 0.0000
vt 0.5000 0.0000
vt 0.5000 0.5000
vt 0.0000 0.5000
vt 0.5000 0.5000
vt 0.5000 1.0000
vt 0.5000 0.5000
vt 0.5000 1.0000
vt 0.0000 0.5000
vt 0.5000 0.5000
vt 0.5000 1.0000
vt 0.0000 1.0000
vt 1.0000 0.0000
vt 1.0000 0.5000
vt 0.5000 0.5000
vt 0.5000 1.0000
vt 0.5000 0.5000
vt 0.5000 1.0000
vt 0.0000 0.5000
vt 0.5000 0.5000
vt 0.5000 1.0000
vt 0.0000 1.0000
vt 0.0000 0.5000
vt 0.5000 0.5000
vt 0.5000 1.0000
vt 0.0000 1.0000
vt 0.0000 0.5000
vt 0.5000 0.5000
vt 0.5000 1.0000
vt 0.0000 1.0000
vt 0.5000 0.5000
vt 0.5000 1.0000
vt 0.0000 0.5000
vt 0.5000 0.5000
vt 0.5000 1.0000
vt 0.0000 1.0000
vt 0.0000 0.5000
vt 0.0000 1.0000
vt 0.5000 1.0000
vt 0.0000 1.0000
vn -0.9992 -0.0410 -0.0000
vn 0.0000 0.0000 -1.0000
vn -0.0000 -0.0000 1.0000
vn 0.3395 -0.9406 0.0000
vn 0.9992 0.0410 0.0000
vn 0.3032 0.9529 0.0000
vn 0.0410 -0.9992 -0.0000
vn -0.2614 -0.9652 0.0000
vn -0.3032 -0.9529 -0.0000
vn 0.0898 0.9960 0.0000
vn -0.0410 0.9992 0.0000
vn 0.9992 0.0411 0.0000
vn -0.9960 0.0898 0.0000
vn -0.9918 -0.1279 -0.0000
vn 0.9406 0.3395 0.0000
vn -0.9992 -0.0412 -0.0000
vn 0.2614 0.9652 0.0000
vn 0.9960 -0.0898 -0.0000
vn -0.2982 0.9545 0.0000
vn 0.9652 -0.2613 0.0000
vn 0.9529 -0.3032 -0.0000
vn -0.1279 0.9918 0.0000
vn -0.9406 -0.3395 0.0000
vn -0.9545 -0.2982 -0.0000
vn -0.0898 -0.9960 -0.0000
vn 0.9545 0.2982 0.0000
vn 0.2982 -0.9545 -0.0000
vn -0.9992 -0.0408 0.0000
vn 0.1279 -0.9918 -0.0000
vn -0.3395 0.9406 0.0000
vn -0.9652 0.2614 0.0000
vn -0.9992 -0.0409 0.0000
vn -0.9529 0.3032 0.0000
vn 0.9992 0.0409 0.0000
vn 0.9918 0.1279 0.0000
usemtl m_0
s 1
f 1/1/1 2/2/1 3/3/1 4/4/1
f 5/5/2 6/6/2 7/7/2 8/8/2
f 9/9/3 10/10/3 11/11/3 12/12/3
f 13/13/2 14/14/2 15/15/2 16/16/2
f 17/17/2 18/18/2 19/19/2 20/20/2
f 21/21/4 22/22/4 23/23/4 24/24/4
f 25/25/5 26/26/5 27/27/5 28/28/5
f 29/29/5 30/30/5 31/31/5 32/32/5
f 33/33/3 25/34/3 28/35/3 34/36/3
f 35/37/6 36/38/6 37/39/6 38/40/6
f 33/33/7 39/41/7 26/42/7 25/43/7
f 40/44/5 41/45/5 42/46/5 43/47/5
f 44/48/2 45/49/2 46/50/2 47/51/2
f 48/52/8 49/53/8 50/54/8 51/55/8
f 52/56/9 53/57/9 54/58/9 55/59/9
f 56/60/2 57/61/2 58/62/2 59/63/2
f 60/64/10 61/65/10 62/66/10 63/67/10
f 23/68/2 22/22/2 64/69/2 65/70/2
f 28/71/11 27/72/11 66/73/11 34/36/11
f 2/74/3 67/75/3 68/76/3 3/77/3
f 43/78/11 42/79/11 69/80/11 70/81/11
f 71/82/11 59/83/11 58/62/11 72/84/11
f 73/85/3 40/86/3 43/87/3 70/81/3
f 48/52/3 51/88/3 74/89/3 75/90/3
f 76/91/8 14/14/8 13/92/8 77/93/8
f 26/94/2 39/41/2 66/73/2 27/95/2
f 78/96/1 79/97/1 80/98/1 81/99/1
f 39/100/1 33/101/1 34/102/1 66/103/1
f 82/104/7 45/49/7 44/105/7 83/106/7
f 84/107/12 85/108/12 86/109/12 87/110/12
f 87/111/11 86/112/11 88/113/11 89/114/11
f 90/115/13 91/116/13 92/117/13 93/118/13
f 45/119/1 82/120/1 94/121/1 46/122/1
f 95/123/2 96/124/2 97/125/2 98/126/2
f 91/127/3 99/128/3 100/129/3 92/130/3
f 101/131/1 102/132/1 103/133/1 104/134/1
f 105/135/2 106/136/2 37/39/2 36/137/2
f 96/138/14 107/139/14 108/140/14 97/141/14
f 109/142/11 110/143/11 81/144/11 80/145/11
f 111/146/15 112/147/15 113/148/15 114/149/15
f 115/150/16 116/151/16 89/152/16 88/153/16
f 74/154/17 117/155/17 118/156/17 75/90/17
f 32/157/11 31/158/11 104/159/11 103/160/11
f 119/161/18 120/162/18 61/163/18 60/164/18
f 121/165/19 8/166/19 7/7/19 122/167/19
f 77/168/20 13/169/20 16/170/20 123/171/20
f 79/172/7 78/173/7 124/174/7 125/175/7
f 55/176/21 54/177/21 126/178/21 127/179/21
f 128/180/22 129/181/22 130/182/22 131/183/22
f 54/184/2 53/57/2 132/185/2 126/186/2
f 124/187/2 78/173/2 81/144/2 110/188/2
f 127/189/6 126/190/6 132/185/6 133/191/6
f 67/192/5 134/193/5 135/194/5 68/195/5
f 136/196/3 111/197/3 114/198/3 137/199/3
f 138/200/3 139/201/3 121/202/3 122/167/3
f 140/203/22 98/204/22 97/125/22 108/205/22
f 22/206/23 21/207/23 141/208/23 64/209/23
f 18/210/24 9/211/24 12/212/24 19/213/24
f 136/196/4 142/214/4 112/215/4 111/216/4
f 120/217/2 143/218/2 62/66/2 61/219/2
f 112/220/2 142/214/2 144/221/2 113/222/2
f 99/223/18 145/224/18 146/225/18 100/226/18
f 73/85/7 147/227/7 41/228/7 40/229/7
f 148/230/14 149/231/14 131/232/14 130/233/14
f 150/234/25 143/218/25 120/235/25 119/236/25
f 51/237/20 50/238/20 117/239/20 74/240/20
f 139/241/26 5/242/26 8/243/26 121/244/26
f 11/245/19 20/246/19 19/19/19 12/12/19
f 9/9/27 18/18/27 17/247/27 10/248/27
f 52/56/3 55/249/3 127/250/3 133/191/3
f 10/251/26 17/252/26 20/253/26 11/254/26
f 145/255/2 90/256/2 93/257/2 146/258/2
f 151/259/3 152/260/3 35/261/3 38/40/3
f 152/262/21 105/263/21 36/264/21 35/265/21
f 83/266/5 44/267/5 47/268/5 153/269/5
f 147/270/28 73/271/28 70/272/28 69/273/28
f 68/274/11 135/275/11 4/276/11 3/77/11
f 149/277/3 154/278/3 128/279/3 131/183/3
f 107/280/29 96/124/29 95/281/29 155/282/29
f 100/283/10 146/284/10 93/257/10 92/130/10
f 116/285/3 84/286/3 87/287/3 89/114/3
f 2/74/7 1/288/7 134/289/7 67/290/7
f 134/291/2 1/288/2 4/276/2 135/292/2
f 143/293/13 150/294/13 63/295/13 62/296/13
f 156/297/3 157/298/3 71/299/3 72/84/3
f 151/259/9 106/136/9 105/300/9 152/301/9
f 114/302/30 113/303/30 144/221/30 137/199/30
f 116/285/7 115/304/7 85/305/7 84/306/7
f 30/307/2 101/308/2 104/159/2 31/309/2
f 79/172/3 125/310/3 109/311/3 80/145/3
f 153/312/11 47/313/11 46/50/11 94/314/11
f 156/297/7 57/61/7 56/315/7 157/316/7
f 14/317/31 76/318/31 158/319/31 15/320/31
f 91/127/25 90/256/25 145/321/25 99/322/25
f 159/323/30 65/324/30 64/69/30 141/325/30
f 76/91/3 77/326/3 123/327/3 158/328/3
f 57/329/32 156/330/32 72/331/32 58/332/32
f 41/333/2 147/227/2 69/80/2 42/334/2
f 106/335/33 151/336/33 38/337/33 37/338/33
f 50/339/2 49/53/2 118/156/2 117/340/2
f 149/277/29 148/341/29 160/342/29 154/343/29
f 102/344/7 101/308/7 30/345/7 29/346/7
f 6/347/24 138/348/24 122/349/24 7/350/24
f 53/351/33 52/352/33 133/353/33 132/354/33
f 24/355/15 23/356/15 65/357/15 159/358/15
f 123/359/17 16/360/17 15/15/17 158/328/17
f 157/361/34 56/362/34 59/363/34 71/364/34
f 102/344/3 29/365/3 32/366/3 103/160/3
f 85/367/2 115/304/2 88/113/2 86/368/2
f 142/369/23 136/370/23 137/371/23 144/372/23
f 82/104/3 83/373/3 153/374/3 94/314/3
f 150/234/3 119/375/3 60/376/3 63/67/3
f 21/21/3 24/377/3 159/378/3 141/325/3
f 125/379/5 124/380/5 110/381/5 109/382/5
f 49/383/31 48/384/31 75/385/31 118/386/31
f 155/387/35 95/388/35 98/389/35 140/390/35
f 107/280/3 155/391/3 140/392/3 108/205/3
f 154/393/35 160/394/35 129/395/35 128/396/35
f 160/397/2 148/341/2 130/182/2 129/398/2
f 138/200/27 6/6/27 5/399/27 139/400/27
