# Blender v2.79 (sub 0) OBJ File: ''
# www.blender.org
mtllib chest.mtl
o chestbottom
v 0.344664 0.001822 0.344664
v 0.344664 0.001822 -0.344664
v 0.344664 0.494199 -0.344664
v 0.344664 0.494199 0.344664
v -0.344664 0.001822 -0.344664
v -0.344664 0.494199 -0.344664
v -0.344664 0.001822 0.344664
v -0.344664 0.494199 0.344664
vt 0.656200 0.328100
vt 0.437500 0.328100
vt 0.437500 0.484400
vt 0.656200 0.484400
vt 0.656200 0.328100
vt 0.875000 0.328100
vt 0.875000 0.484400
vt 0.656200 0.484400
vt 0.218800 0.328100
vt 0.437500 0.328100
vt 0.437500 0.484400
vt 0.218800 0.484400
vt 0.218800 0.484400
vt 0.437500 0.484400
vt 0.437500 0.703100
vt 0.218800 0.703100
vt 0.218800 0.328100
vt 0.000000 0.328100
vt 0.000000 0.484400
vt 0.218800 0.484400
vt 0.437500 0.484400
vt 0.656200 0.484400
vt 0.656200 0.703100
vt 0.437500 0.703100
vn 1.0000 0.0000 0.0000
vn 0.0000 0.0000 -1.0000
vn 0.0000 -0.0000 1.0000
vn 0.0000 1.0000 0.0000
vn -1.0000 0.0000 0.0000
vn 0.0000 -1.0000 -0.0000
usemtl m_0
s 1
f 1/1/1 2/2/1 3/3/1 4/4/1
f 2/5/2 5/6/2 6/7/2 3/8/2
f 7/9/3 1/10/3 4/11/3 8/12/3
f 3/13/4 6/14/4 8/15/4 4/16/4
f 5/17/5 7/18/5 8/19/5 6/20/5
f 1/21/6 7/22/6 5/23/6 2/24/6
o chesttop
v 0.049238 0.592675 0.344664
v -0.049238 0.592675 0.344664
v -0.049238 0.592675 0.393902
v 0.049238 0.592675 0.393902
v 0.344664 0.494199 0.344664
v -0.344664 0.494199 0.344664
v -0.344664 0.494199 -0.344664
v 0.344664 0.494199 -0.344664
v -0.344664 0.740388 -0.344664
v 0.344664 0.740388 -0.344664
v 0.344664 0.740388 0.344664
v 0.049238 0.395724 0.393902
v 0.049238 0.395724 0.344664
v -0.049238 0.395724 0.393902
v -0.049238 0.395724 0.344664
v -0.344664 0.740388 0.344664
vt 0.046900 0.984400
vt 0.015600 0.984400
vt 0.015600 0.968800
vt 0.046900 0.968800
vt 0.437500 0.781200
vt 0.656200 0.781200
vt 0.656200 1.000000
vt 0.437500 1.000000
vt 0.656200 0.703100
vt 0.875000 0.703100
vt 0.875000 0.781200
vt 0.656200 0.781200
vt 0.656200 0.703100
vt 0.437500 0.703100
vt 0.437500 0.781200
vt 0.656200 0.781200
vt 0.031200 0.921900
vt 0.046900 0.921900
vt 0.031200 0.984400
vt 0.046900 0.937500
vt 0.015600 0.937500
vt 0.015600 0.921900
vt 0.015600 0.921900
vt 0.046900 0.921900
vt 0.046900 0.984400
vt 0.015600 0.984400
vt 0.031200 0.921900
vt 0.031200 0.984400
vt 0.218800 0.703100
vt 0.000000 0.703100
vt 0.000000 0.781200
vt 0.218800 0.781200
vt 0.218800 0.703100
vt 0.437500 0.703100
vt 0.437500 0.781200
vt 0.218800 0.781200
vt 0.218800 0.781200
vt 0.437500 0.781200
vt 0.437500 1.000000
vt 0.218800 1.000000
vt 0.062500 0.921900
vt 0.093800 0.921900
vt 0.093800 0.984400
vt 0.062500 0.984400
vn 0.0000 1.0000 0.0000
vn 0.0000 -1.0000 -0.0000
vn 0.0000 0.0000 -1.0000
vn 1.0000 0.0000 0.0000
vn 0.0000 0.0000 1.0000
vn -1.0000 0.0000 0.0000
usemtl m_0
s 1
f 9/25/7 10/26/7 11/27/7 12/28/7
f 13/29/8 14/30/8 15/31/8 16/32/8
f 16/33/9 15/34/9 17/35/9 18/36/9
f 13/37/10 16/38/10 18/39/10 19/40/10
f 20/41/10 21/42/10 9/25/10 12/43/10
f 20/44/8 22/45/8 23/46/8 21/42/8
f 22/47/11 20/48/11 12/49/11 11/50/11
f 23/46/12 22/51/12 11/52/12 10/26/12
f 15/53/12 14/54/12 24/55/12 17/56/12
f 14/57/11 13/58/11 19/59/11 24/60/11
f 18/61/7 17/62/7 24/63/7 19/64/7
f 21/65/9 23/66/9 10/67/9 9/68/9
