# Blender v2.78 (sub 0) OBJ File: ''
# www.blender.org
mtllib crate.mtl
o cube
v 0.316406 -0.316406 -0.316406
v -0.316406 -0.316406 -0.316406
v -0.316406 0.316406 -0.316406
v 0.316406 0.316406 -0.316406
v 0.316406 -0.316406 0.316406
v 0.316406 0.316406 0.316406
v -0.316406 -0.316406 0.316406
v -0.316406 0.316406 0.316406
v -0.234375 0.316406 0.375000
v -0.363281 0.316406 0.375000
v -0.363281 0.363281 0.375000
v -0.234375 0.363281 0.375000
v -0.234375 0.316406 0.380859
v -0.234375 0.363281 0.380859
v -0.363281 0.316406 0.380859
v -0.363281 0.363281 0.380859
v 0.375000 -0.375163 -0.281413
v 0.281250 -0.375163 -0.281413
v 0.281250 -0.281413 -0.281413
v 0.375000 -0.281413 -0.281413
v 0.375000 -0.375163 0.281087
v 0.375000 -0.281413 0.281087
v 0.281250 -0.375163 0.281087
v 0.281250 -0.281413 0.281087
v 0.375000 0.281087 -0.281413
v 0.281250 0.281087 -0.281413
v 0.281250 0.374837 -0.281413
v 0.375000 0.374837 -0.281413
v 0.375000 0.281087 0.281087
v 0.375000 0.374837 0.281087
v 0.281250 0.281087 0.281087
v 0.281250 0.374837 0.281087
v -0.281250 -0.375163 -0.375163
v -0.281250 -0.375163 -0.281413
v -0.281250 -0.281413 -0.281413
v -0.281250 -0.281413 -0.375163
v 0.281250 -0.375163 -0.375163
v 0.281250 -0.281413 -0.375163
v 0.281250 -0.375163 -0.281413
v 0.281250 -0.281413 -0.281413
v -0.281250 0.281087 -0.375163
v -0.281250 0.281087 -0.281413
v -0.281250 0.374837 -0.281413
v -0.281250 0.374837 -0.375163
v 0.281250 0.281087 -0.375163
v 0.281250 0.374837 -0.375163
v 0.281250 0.281087 -0.281413
v 0.281250 0.374837 -0.281413
v -0.281250 -0.375163 0.281087
v -0.281250 -0.375163 0.374837
v -0.281250 -0.281413 0.374837
v -0.281250 -0.281413 0.281087
v 0.281250 -0.375163 0.281087
v 0.281250 -0.281413 0.281087
v 0.281250 -0.375163 0.374837
v 0.281250 -0.281413 0.374837
v -0.281250 0.281087 0.281087
v -0.281250 0.281087 0.374837
v -0.281250 0.374837 0.374837
v -0.281250 0.374837 0.281087
v 0.281250 0.281087 0.281087
v 0.281250 0.374837 0.281087
v 0.281250 0.281087 0.374837
v 0.281250 0.374837 0.374837
v 0.375000 -0.375163 -0.375163
v 0.281250 -0.375163 -0.375163
v 0.281250 0.374837 -0.375163
v 0.375000 0.374837 -0.375163
v 0.375000 -0.375163 -0.281413
v 0.375000 0.374837 -0.281413
v 0.281250 -0.375163 -0.281413
v 0.281250 0.374837 -0.281413
v 0.375000 -0.375163 0.281087
v 0.281250 -0.375163 0.281087
v 0.281250 0.374837 0.281087
v 0.375000 0.374837 0.281087
v 0.375000 -0.375163 0.374837
v 0.375000 0.374837 0.374837
v 0.281250 -0.375163 0.374837
v 0.281250 0.374837 0.374837
v 0.351562 -0.314558 -0.248267
v 0.304688 -0.314558 -0.248267
v 0.304688 -0.248267 -0.314558
v 0.351562 -0.248267 -0.314558
v 0.351562 0.248917 0.315209
v 0.351562 0.315209 0.248917
v 0.304688 0.248917 0.315209
v 0.304688 0.315209 0.248917
v -0.304688 -0.314558 -0.248267
v -0.351562 -0.314558 -0.248267
v -0.351562 -0.248267 -0.314558
v -0.304688 -0.248267 -0.314558
v -0.304688 0.248917 0.315209
v -0.304688 0.315209 0.248917
v -0.351562 0.248917 0.315209
v -0.351562 0.315209 0.248917
v -0.248592 -0.314558 0.305013
v -0.248592 -0.314558 0.351888
v -0.314884 -0.248267 0.351888
v -0.314884 -0.248267 0.305013
v 0.314884 0.248917 0.305013
v 0.248592 0.315209 0.305013
v 0.314884 0.248917 0.351888
v 0.248592 0.315209 0.351888
v -0.248592 -0.314558 -0.351237
v -0.248592 -0.314558 -0.304362
v -0.314884 -0.248267 -0.304362
v -0.314884 -0.248267 -0.351237
v 0.314884 0.248917 -0.351237
v 0.248592 0.315209 -0.351237
v 0.314884 0.248917 -0.304362
v 0.248592 0.315209 -0.304362
v 0.248592 0.305013 -0.314558
v 0.248592 0.351888 -0.314558
v 0.314884 0.351888 -0.248267
v 0.314884 0.305013 -0.248267
v -0.314884 0.305013 0.248917
v -0.248592 0.305013 0.315209
v -0.314884 0.351888 0.248917
v -0.248592 0.351888 0.315209
v 0.248592 -0.351237 -0.314558
v 0.248592 -0.304362 -0.314558
v 0.314884 -0.304362 -0.248267
v 0.314884 -0.351237 -0.248267
v -0.314884 -0.351237 0.248917
v -0.248592 -0.351237 0.315209
v -0.314884 -0.304362 0.248917
v -0.248592 -0.304362 0.315209
v -0.281250 -0.375163 0.281087
v -0.375000 -0.375163 0.281087
v -0.375000 0.374837 0.281087
v -0.281250 0.374837 0.281087
v -0.281250 -0.375163 0.374837
v -0.281250 0.374837 0.374837
v -0.375000 -0.375163 0.374837
v -0.375000 0.374837 0.374837
v -0.281250 -0.375163 -0.281413
v -0.375000 -0.375163 -0.281413
v -0.375000 -0.281413 -0.281413
v -0.281250 -0.281413 -0.281413
v -0.281250 -0.375163 0.281087
v -0.281250 -0.281413 0.281087
v -0.375000 -0.375163 0.281087
v -0.375000 -0.281413 0.281087
v -0.281250 0.281087 -0.281413
v -0.375000 0.281087 -0.281413
v -0.375000 0.374837 -0.281413
v -0.281250 0.374837 -0.281413
v -0.281250 0.281087 0.281087
v -0.281250 0.374837 0.281087
v -0.375000 0.281087 0.281087
v -0.375000 0.374837 0.281087
v -0.281250 -0.375163 -0.375163
v -0.375000 -0.375163 -0.375163
v -0.375000 0.374837 -0.375163
v -0.281250 0.374837 -0.375163
v -0.281250 -0.375163 -0.281413
v -0.281250 0.374837 -0.281413
v -0.375000 -0.375163 -0.281413
v -0.375000 0.374837 -0.281413
vt 0.0000 0.9375
vt 0.0625 0.9375
vt 0.0625 1.0000
vt 0.0000 1.0000
vt 0.0000 0.9375
vt 0.0625 0.9375
vt 0.0625 1.0000
vt 0.0000 1.0000
vt 0.0000 0.9375
vt 0.0625 0.9375
vt 0.0625 1.0000
vt 0.0000 1.0000
vt 0.0000 0.9375
vt 0.0625 0.9375
vt 0.0625 1.0000
vt 0.0000 1.0000
vt 0.0000 0.9375
vt 0.0625 0.9375
vt 0.0625 1.0000
vt 0.0000 1.0000
vt 0.0000 0.9375
vt 0.0625 0.9375
vt 0.0625 1.0000
vt 0.0000 1.0000
vt 0.0000 0.9375
vt 0.0625 0.9375
vt 0.0625 1.0000
vt 0.0000 1.0000
vt 0.0000 0.9375
vt 0.0625 0.9375
vt 0.0625 1.0000
vt 0.0000 1.0000
vt 0.0000 0.9375
vt 0.0625 0.9375
vt 0.0625 1.0000
vt 0.0000 1.0000
vt 0.0000 0.9375
vt 0.0625 0.9375
vt 0.0625 1.0000
vt 0.0000 1.0000
vt 0.0000 0.9375
vt 0.0625 0.9375
vt 0.0625 1.0000
vt 0.0000 1.0000
vt 0.0000 0.9375
vt 0.0625 0.9375
vt 0.0625 1.0000
vt 0.0000 1.0000
vt 0.0000 0.6250
vt 0.3750 0.6250
vt 0.3750 1.0000
vt 0.0000 1.0000
vt 0.3750 0.6250
vt 0.3750 1.0000
vt 0.0000 0.6250
vt 0.0000 1.0000
vt 0.0000 0.6250
vt 0.3750 0.6250
vt 0.3750 1.0000
vt 0.0000 1.0000
vt 0.0000 0.6250
vt 0.3750 0.6250
vt 0.3750 1.0000
vt 0.0000 1.0000
vt 0.0000 0.2812
vt 0.7500 0.2812
vt 0.7500 0.5625
vt 0.0000 0.5625
vt 0.7188 0.2812
vt 0.7500 0.2812
vt 0.7500 0.5625
vt 0.7188 0.5625
vt 0.0000 0.2812
vt 0.7500 0.2812
vt 0.7500 0.5625
vt 0.0000 0.5625
vt 0.0000 0.2812
vt 0.0312 0.2812
vt 0.0312 0.5625
vt 0.0000 0.5625
vt 0.0000 0.5312
vt 0.7500 0.5312
vt 0.7500 0.3125
vt 0.0000 0.3125
vt 0.0000 0.9375
vt 0.0625 0.9375
vt 0.0625 1.0000
vt 0.0000 1.0000
vt 0.0625 0.0000
vt 0.4375 0.0000
vt 0.4375 0.0625
vt 0.0625 0.0625
vt 0.0000 0.9375
vt 0.0625 0.9375
vt 0.0625 1.0000
vt 0.0000 1.0000
vt 0.0625 0.0625
vt 0.4375 0.0625
vt 0.4375 0.0000
vt 0.0625 0.0000
vt 0.4375 0.0625
vt 0.0625 0.0625
vt 0.4375 0.0625
vt 0.0625 0.0625
vt 0.0000 0.9375
vt 0.0625 0.9375
vt 0.0625 1.0000
vt 0.0000 1.0000
vt 0.0625 0.0000
vt 0.4375 0.0000
vt 0.4375 0.0625
vt 0.0625 0.0625
vt 0.0000 0.9375
vt 0.0625 0.9375
vt 0.0625 1.0000
vt 0.0000 1.0000
vt 0.0625 0.0625
vt 0.4375 0.0625
vt 0.4375 0.0000
vt 0.0625 0.0000
vt 0.4375 0.0625
vt 0.0625 0.0625
vt 0.4375 0.0625
vt 0.0625 0.0625
vt 0.0000 0.9375
vt 0.0625 0.9375
vt 0.0625 1.0000
vt 0.0000 1.0000
vt 0.0625 0.0000
vt 0.4375 0.0000
vt 0.4375 0.0625
vt 0.0625 0.0625
vt 0.0000 0.9375
vt 0.0625 0.9375
vt 0.0625 1.0000
vt 0.0000 1.0000
vt 0.0625 0.0625
vt 0.4375 0.0625
vt 0.4375 0.0000
vt 0.0625 0.0000
vt 0.4375 0.0625
vt 0.0625 0.0625
vt 0.4375 0.0625
vt 0.0625 0.0625
vt 0.0000 0.9375
vt 0.0625 0.9375
vt 0.0625 1.0000
vt 0.0000 1.0000
vt 0.0625 0.0000
vt 0.4375 0.0000
vt 0.4375 0.0625
vt 0.0625 0.0625
vt 0.0000 0.9375
vt 0.0625 0.9375
vt 0.0625 1.0000
vt 0.0000 1.0000
vt 0.0625 0.0625
vt 0.4375 0.0625
vt 0.4375 0.0000
vt 0.0625 0.0000
vt 0.4375 0.0625
vt 0.0625 0.0625
vt 0.4375 0.0625
vt 0.0625 0.0625
vt 0.0000 0.9375
vt 0.0625 0.9375
vt 0.0625 1.0000
vt 0.0000 1.0000
vt 0.0625 0.0000
vt 0.4375 0.0000
vt 0.4375 0.0625
vt 0.0625 0.0625
vt 0.0000 0.9375
vt 0.0625 0.9375
vt 0.0625 1.0000
vt 0.0000 1.0000
vt 0.0625 0.0625
vt 0.4375 0.0625
vt 0.4375 0.0000
vt 0.0625 0.0000
vt 0.4375 0.0625
vt 0.0625 0.0625
vt 0.4375 0.0625
vt 0.0625 0.0625
vt 0.0000 0.9375
vt 0.0625 0.9375
vt 0.0625 1.0000
vt 0.0000 1.0000
vt 0.0625 0.0000
vt 0.4375 0.0000
vt 0.4375 0.0625
vt 0.0625 0.0625
vt 0.0000 0.9375
vt 0.0625 0.9375
vt 0.0625 1.0000
vt 0.0000 1.0000
vt 0.0625 0.0625
vt 0.4375 0.0625
vt 0.4375 0.0000
vt 0.0625 0.0000
vt 0.4375 0.0625
vt 0.0625 0.0625
vt 0.4375 0.0625
vt 0.0625 0.0625
vt 1.0000 0.0000
vt 0.9375 0.0000
vt 0.9375 0.5000
vt 1.0000 0.5000
vt 0.9375 0.0000
vt 0.9375 0.5000
vt 1.0000 0.0000
vt 1.0000 0.5000
vt 0.8750 0.0625
vt 0.9375 0.0625
vt 0.9375 0.1250
vt 0.8750 0.1250
vt 0.8750 0.0000
vt 0.9375 0.0000
vt 0.9375 0.0625
vt 0.8750 0.0625
vt 1.0000 0.0000
vt 0.9375 0.0000
vt 0.9375 0.5000
vt 1.0000 0.5000
vt 0.9375 0.0000
vt 0.9375 0.5000
vt 1.0000 0.0000
vt 1.0000 0.5000
vt 0.8750 0.0625
vt 0.9375 0.0625
vt 0.9375 0.1250
vt 0.8750 0.1250
vt 0.8750 0.0000
vt 0.9375 0.0000
vt 0.9375 0.0625
vt 0.8750 0.0625
vt 0.0000 0.0000
vt 0.5312 0.0000
vt 0.5312 0.0625
vt 0.0000 0.0625
vt 0.0000 0.0000
vt 0.5312 0.0000
vt 0.5312 0.0625
vt 0.0000 0.0625
vt 0.0000 0.0625
vt 0.0000 0.0312
vt 0.5312 0.0312
vt 0.5312 0.0625
vt 0.0000 0.0312
vt 0.0000 0.0000
vt 0.5312 0.0000
vt 0.5312 0.0312
vt 0.0000 0.0000
vt 0.5312 0.0000
vt 0.5312 0.0625
vt 0.0000 0.0625
vt 0.0000 0.0000
vt 0.5312 0.0000
vt 0.5312 0.0625
vt 0.0000 0.0625
vt 0.0000 0.0625
vt 0.0000 0.0312
vt 0.5312 0.0312
vt 0.5312 0.0625
vt 0.0000 0.0312
vt 0.0000 0.0000
vt 0.5312 0.0000
vt 0.5312 0.0312
vt 0.0000 0.0000
vt 0.5312 0.0000
vt 0.5312 0.0625
vt 0.0000 0.0625
vt 0.0000 0.0000
vt 0.5312 0.0000
vt 0.5312 0.0625
vt 0.0000 0.0625
vt 0.0000 0.0625
vt 0.0000 0.0312
vt 0.5312 0.0312
vt 0.5312 0.0625
vt 0.0000 0.0312
vt 0.0000 0.0000
vt 0.5312 0.0000
vt 0.5312 0.0312
vt 0.0000 0.0000
vt 0.5312 0.0000
vt 0.5312 0.0625
vt 0.0000 0.0625
vt 0.0000 0.0000
vt 0.5312 0.0000
vt 0.5312 0.0625
vt 0.0000 0.0625
vt 0.0000 0.0625
vt 0.0000 0.0312
vt 0.5312 0.0312
vt 0.5312 0.0625
vt 0.0000 0.0312
vt 0.0000 0.0000
vt 0.5312 0.0000
vt 0.5312 0.0312
vt 0.0000 0.0000
vt 0.5312 0.0000
vt 0.5312 0.0625
vt 0.0000 0.0625
vt 0.0000 0.0000
vt 0.5312 0.0000
vt 0.5312 0.0625
vt 0.0000 0.0625
vt 0.0000 0.0625
vt 0.0000 0.0312
vt 0.5312 0.0312
vt 0.5312 0.0625
vt 0.0000 0.0312
vt 0.0000 0.0000
vt 0.5312 0.0000
vt 0.5312 0.0312
vt 0.0000 0.0000
vt 0.5312 0.0000
vt 0.5312 0.0625
vt 0.0000 0.0625
vt 0.0000 0.0000
vt 0.5312 0.0000
vt 0.5312 0.0625
vt 0.0000 0.0625
vt 0.0000 0.0625
vt 0.0000 0.0312
vt 0.5312 0.0312
vt 0.5312 0.0625
vt 0.0000 0.0312
vt 0.0000 0.0000
vt 0.5312 0.0000
vt 0.5312 0.0312
vt 1.0000 0.0000
vt 0.9375 0.0000
vt 0.9375 0.5000
vt 1.0000 0.5000
vt 0.9375 0.0000
vt 0.9375 0.5000
vt 1.0000 0.0000
vt 1.0000 0.5000
vt 0.8750 0.0625
vt 0.9375 0.0625
vt 0.9375 0.1250
vt 0.8750 0.1250
vt 0.8750 0.0000
vt 0.9375 0.0000
vt 0.9375 0.0625
vt 0.8750 0.0625
vt 0.0000 0.9375
vt 0.0625 0.9375
vt 0.0625 1.0000
vt 0.0000 1.0000
vt 0.0625 0.0000
vt 0.4375 0.0000
vt 0.4375 0.0625
vt 0.0625 0.0625
vt 0.0000 0.9375
vt 0.0625 0.9375
vt 0.0625 1.0000
vt 0.0000 1.0000
vt 0.0625 0.0625
vt 0.4375 0.0625
vt 0.4375 0.0000
vt 0.0625 0.0000
vt 0.4375 0.0625
vt 0.0625 0.0625
vt 0.4375 0.0625
vt 0.0625 0.0625
vt 0.0000 0.9375
vt 0.0625 0.9375
vt 0.0625 1.0000
vt 0.0000 1.0000
vt 0.0625 0.0000
vt 0.4375 0.0000
vt 0.4375 0.0625
vt 0.0625 0.0625
vt 0.0000 0.9375
vt 0.0625 0.9375
vt 0.0625 1.0000
vt 0.0000 1.0000
vt 0.0625 0.0625
vt 0.4375 0.0625
vt 0.4375 0.0000
vt 0.0625 0.0000
vt 0.4375 0.0625
vt 0.0625 0.0625
vt 0.4375 0.0625
vt 0.0625 0.0625
vt 1.0000 0.0000
vt 0.9375 0.0000
vt 0.9375 0.5000
vt 1.0000 0.5000
vt 0.9375 0.0000
vt 0.9375 0.5000
vt 1.0000 0.0000
vt 1.0000 0.5000
vt 0.8750 0.0625
vt 0.9375 0.0625
vt 0.9375 0.1250
vt 0.8750 0.1250
vt 0.8750 0.0000
vt 0.9375 0.0000
vt 0.9375 0.0625
vt 0.8750 0.0625
vn 0.0000 -0.7071 -0.7071
vn 0.0000 0.7071 0.7071
vn -0.7071 -0.7071 -0.0000
vn 0.7071 0.7071 0.0000
vn 0.7071 0.0000 -0.7071
vn -0.7071 -0.0000 0.7071
vn 0.0000 0.0000 -1.0000
vn 1.0000 0.0000 0.0000
vn 0.0000 0.0000 1.0000
vn -1.0000 0.0000 0.0000
vn 0.0000 1.0000 0.0000
vn 0.0000 -1.0000 0.0000
vn 0.0000 0.7071 -0.7071
vn 0.0000 -0.7071 0.7071
vn -0.7071 0.7071 0.0000
vn 0.7071 -0.7071 -0.0000
vn 0.7071 -0.0000 0.7071
vn -0.7071 0.0000 -0.7071
usemtl none
s 1
f 81/1/1 82/2/1 83/3/1 84/4/1
f 87/5/2 85/6/2 86/7/2 88/8/2
f 89/9/1 90/10/1 91/11/1 92/12/1
f 95/13/2 93/14/2 94/15/2 96/16/2
f 97/17/3 98/18/3 99/19/3 100/20/3
f 103/21/4 101/22/4 102/23/4 104/24/4
f 105/25/3 106/26/3 107/27/3 108/28/3
f 111/29/4 109/30/4 110/31/4 112/32/4
f 113/33/5 114/34/5 115/35/5 116/36/5
f 119/37/6 117/38/6 118/39/6 120/40/6
f 121/41/5 122/42/5 123/43/5 124/44/5
f 127/45/6 125/46/6 126/47/6 128/48/6
usemtl m_0
f 1/49/7 2/50/7 3/51/7 4/52/7
f 5/53/8 1/49/8 4/52/8 6/54/8
f 7/55/9 5/53/9 6/54/9 8/56/9
f 2/50/10 7/55/10 8/56/10 3/51/10
f 8/57/11 6/58/11 4/59/11 3/60/11
f 2/61/12 1/62/12 5/63/12 7/64/12
f 9/65/7 10/66/7 11/67/7 12/68/7
f 13/69/8 9/70/8 12/71/8 14/72/8
f 15/73/9 13/74/9 14/75/9 16/76/9
f 10/77/10 15/78/10 16/79/10 11/80/10
f 16/81/11 14/82/11 12/71/11 11/80/11
f 10/77/12 9/70/12 13/83/12 15/84/12
f 17/85/7 18/86/7 19/87/7 20/88/7
f 21/89/8 17/90/8 20/91/8 22/92/8
f 23/93/9 21/94/9 22/95/9 24/96/9
f 18/97/10 23/98/10 24/99/10 19/100/10
f 24/99/11 22/101/11 20/102/11 19/100/11
f 18/103/12 17/90/12 21/89/12 23/104/12
f 25/105/7 26/106/7 27/107/7 28/108/7
f 29/109/8 25/110/8 28/111/8 30/112/8
f 31/113/9 29/114/9 30/115/9 32/116/9
f 26/117/10 31/118/10 32/119/10 27/120/10
f 32/119/11 30/121/11 28/122/11 27/120/11
f 26/123/12 25/110/12 29/109/12 31/124/12
f 33/125/10 34/126/10 35/127/10 36/128/10
f 37/129/7 33/130/7 36/131/7 38/132/7
f 39/133/8 37/134/8 38/135/8 40/136/8
f 34/137/9 39/138/9 40/139/9 35/140/9
f 40/139/11 38/141/11 36/142/11 35/140/11
f 34/143/12 33/130/12 37/129/12 39/144/12
f 41/145/10 42/146/10 43/147/10 44/148/10
f 45/149/7 41/150/7 44/151/7 46/152/7
f 47/153/8 45/154/8 46/155/8 48/156/8
f 42/157/9 47/158/9 48/159/9 43/160/9
f 48/159/11 46/161/11 44/162/11 43/160/11
f 42/163/12 41/150/12 45/149/12 47/164/12
f 49/165/10 50/166/10 51/167/10 52/168/10
f 53/169/7 49/170/7 52/171/7 54/172/7
f 55/173/8 53/174/8 54/175/8 56/176/8
f 50/177/9 55/178/9 56/179/9 51/180/9
f 56/179/11 54/181/11 52/182/11 51/180/11
f 50/183/12 49/170/12 53/169/12 55/184/12
f 57/185/10 58/186/10 59/187/10 60/188/10
f 61/189/7 57/190/7 60/191/7 62/192/7
f 63/193/8 61/194/8 62/195/8 64/196/8
f 58/197/9 63/198/9 64/199/9 59/200/9
f 64/199/11 62/201/11 60/202/11 59/200/11
f 58/203/12 57/190/12 61/189/12 63/204/12
f 65/205/7 66/206/7 67/207/7 68/208/7
f 69/209/8 65/205/8 68/208/8 70/210/8
f 71/211/9 69/209/9 70/210/9 72/212/9
f 66/206/10 71/211/10 72/212/10 67/207/10
f 72/213/11 70/214/11 68/215/11 67/216/11
f 66/217/12 65/218/12 69/219/12 71/220/12
f 73/221/7 74/222/7 75/223/7 76/224/7
f 77/225/8 73/221/8 76/224/8 78/226/8
f 79/227/9 77/225/9 78/226/9 80/228/9
f 74/222/10 79/227/10 80/228/10 75/223/10
f 80/229/11 78/230/11 76/231/11 75/232/11
f 74/233/12 73/234/12 77/235/12 79/236/12
f 85/237/8 81/238/8 84/239/8 86/240/8
f 82/241/10 87/242/10 88/243/10 83/244/10
f 88/245/13 86/246/13 84/247/13 83/248/13
f 82/249/14 81/250/14 85/251/14 87/252/14
f 93/253/8 89/254/8 92/255/8 94/256/8
f 90/257/10 95/258/10 96/259/10 91/260/10
f 96/261/13 94/262/13 92/263/13 91/264/13
f 90/265/14 89/266/14 93/267/14 95/268/14
f 101/269/7 97/270/7 100/271/7 102/272/7
f 98/273/9 103/274/9 104/275/9 99/276/9
f 104/277/15 102/278/15 100/279/15 99/280/15
f 98/281/16 97/282/16 101/283/16 103/284/16
f 109/285/7 105/286/7 108/287/7 110/288/7
f 106/289/9 111/290/9 112/291/9 107/292/9
f 112/293/15 110/294/15 108/295/15 107/296/15
f 106/297/16 105/298/16 109/299/16 111/300/16
f 117/301/12 113/302/12 116/303/12 118/304/12
f 114/305/11 119/306/11 120/307/11 115/308/11
f 120/309/17 118/310/17 116/311/17 115/312/17
f 114/313/18 113/314/18 117/315/18 119/316/18
f 125/317/12 121/318/12 124/319/12 126/320/12
f 122/321/11 127/322/11 128/323/11 123/324/11
f 128/325/17 126/326/17 124/327/17 123/328/17
f 122/329/18 121/330/18 125/331/18 127/332/18
f 129/333/7 130/334/7 131/335/7 132/336/7
f 133/337/8 129/333/8 132/336/8 134/338/8
f 135/339/9 133/337/9 134/338/9 136/340/9
f 130/334/10 135/339/10 136/340/10 131/335/10
f 136/341/11 134/342/11 132/343/11 131/344/11
f 130/345/12 129/346/12 133/347/12 135/348/12
f 137/349/7 138/350/7 139/351/7 140/352/7
f 141/353/8 137/354/8 140/355/8 142/356/8
f 143/357/9 141/358/9 142/359/9 144/360/9
f 138/361/10 143/362/10 144/363/10 139/364/10
f 144/363/11 142/365/11 140/366/11 139/364/11
f 138/367/12 137/354/12 141/353/12 143/368/12
f 145/369/7 146/370/7 147/371/7 148/372/7
f 149/373/8 145/374/8 148/375/8 150/376/8
f 151/377/9 149/378/9 150/379/9 152/380/9
f 146/381/10 151/382/10 152/383/10 147/384/10
f 152/383/11 150/385/11 148/386/11 147/384/11
f 146/387/12 145/374/12 149/373/12 151/388/12
f 153/389/7 154/390/7 155/391/7 156/392/7
f 157/393/8 153/389/8 156/392/8 158/394/8
f 159/395/9 157/393/9 158/394/9 160/396/9
f 154/390/10 159/395/10 160/396/10 155/391/10
f 160/397/11 158/398/11 156/399/11 155/400/11
f 154/401/12 153/402/12 157/403/12 159/404/12
