# Blender v2.79 (sub 0) OBJ File: ''
# www.blender.org
mtllib hitchconnector.mtl
o slider
v -0.062500 0.062500 0.000000
v -0.062500 0.062500 -0.093750
v -0.062500 0.000000 -0.093750
v -0.062500 -0.000000 0.000000
v 0.062500 -0.000000 0.000000
v 0.062500 0.000000 -0.093750
v 0.062500 0.062500 -0.093750
v 0.062500 0.062500 0.000000
v 0.000000 0.062500 0.000000
v 0.000000 0.062500 -0.093750
v -0.031250 0.007813 -0.093750
v 0.000000 0.015625 -0.093750
v 0.000000 0.015625 -0.031250
v -0.031250 0.007813 -0.031250
v -0.062500 0.062500 -0.187500
v 0.000000 0.062500 -0.187500
v 0.000000 0.000000 -0.187500
v -0.062500 0.000000 -0.187500
v 0.000000 -0.000000 0.000000
v 0.000000 0.015625 -0.156250
v -0.031250 0.007813 -0.156250
v 0.031250 0.007813 -0.031250
v 0.031250 0.007813 -0.093750
v 0.062500 0.062500 -0.187500
v 0.062500 0.000000 -0.187500
v 0.031250 0.007813 -0.156250
vt 0.187500 0.875000
vt 0.375000 0.875000
vt 0.375000 1.000000
vt 0.187500 1.000000
vt 0.000000 0.750000
vt 0.187500 0.750000
vt 0.187500 0.875000
vt 0.000000 0.875000
vt 0.375000 0.750000
vt 0.375000 0.875000
vt 0.187500 0.875000
vt 0.187500 0.750000
vt 0.750000 0.187500
vt 0.750000 0.312500
vt 0.500000 0.312500
vt 0.500000 0.187500
vt 0.375000 0.750000
vt 0.500000 0.750000
vt 0.500000 0.875000
vt 0.375000 0.875000
vt 0.375000 0.875000
vt 0.500000 0.875000
vt 0.500000 1.000000
vt 0.375000 1.000000
vt 0.000000 0.937500
vt 0.062500 0.937500
vt 0.062500 1.000000
vt 0.000000 1.000000
vt 0.000000 0.937500
vt 0.062500 0.937500
vt 0.062500 1.000000
vt 0.000000 1.000000
vt 0.000000 0.937500
vt 0.062500 0.937500
vt 0.062500 1.000000
vt 0.000000 1.000000
vt 0.000000 0.937500
vt 0.062500 0.937500
vt 0.062500 1.000000
vt 0.000000 1.000000
vt 0.187500 0.750000
vt 0.375000 0.750000
vt 0.375000 0.875000
vt 0.187500 0.875000
vt 0.000000 0.937500
vt 0.062500 0.937500
vt 0.062500 1.000000
vt 0.000000 1.000000
vt 1.000000 0.187500
vt 1.000000 0.312500
vt 0.000000 0.937500
vt 0.062500 0.937500
vt 0.062500 1.000000
vt 0.000000 1.000000
vt 0.000000 0.875000
vt 0.187500 0.875000
vt 0.187500 1.000000
vt 0.000000 1.000000
vt 0.000000 0.875000
vt 0.000000 0.750000
vt 1.000000 0.187500
vt 1.000000 0.312500
vt 0.750000 0.312500
vt 0.750000 0.187500
vt 0.000000 0.937500
vt 0.062500 0.937500
vt 0.062500 1.000000
vt 0.000000 1.000000
vt 0.375000 0.875000
vt 0.500000 1.000000
vt 0.375000 1.000000
vt 0.187500 0.875000
vt 0.187500 1.000000
vt 0.000000 1.000000
vt 0.000000 0.875000
vt 0.375000 0.875000
vt 0.375000 1.000000
vt 0.187500 1.000000
vt 0.187500 0.875000
vt 0.375000 0.750000
vt 0.500000 0.750000
vt 0.375000 0.875000
vt 0.000000 0.937500
vt 0.062500 0.937500
vt 0.062500 1.000000
vt 0.000000 1.000000
vt 0.750000 0.187500
vt 0.750000 0.312500
vt 0.500000 0.312500
vt 0.500000 0.187500
vn -1.0000 0.0000 0.0000
vn 1.0000 0.0000 0.0000
vn 0.0000 1.0000 0.0000
vn 0.2425 -0.9701 -0.0000
vn 0.0000 0.0000 -1.0000
vn 0.0000 -0.0000 1.0000
vn 0.0000 -0.8944 0.4472
vn -0.2425 -0.9701 -0.0000
vn 0.2182 -0.8729 -0.4364
vn -0.2182 -0.8729 0.4364
vn -0.0000 -0.8944 -0.4472
usemtl m_0
s 1
f 1/1/1 2/2/1 3/3/1 4/4/1
f 5/5/2 6/6/2 7/7/2 8/8/2
f 1/9/3 9/10/3 10/11/3 2/12/3
f 11/13/4 12/14/4 13/15/4 14/16/4
f 15/17/5 16/18/5 17/19/5 18/20/5
f 4/21/6 19/22/6 9/23/6 1/24/6
f 4/25/4 3/26/4 11/27/4 14/28/4
f 18/29/7 17/30/7 20/31/7 21/32/7
f 22/33/8 23/34/8 6/35/8 5/36/8
f 14/37/9 13/38/9 19/39/9 4/40/9
f 24/41/2 7/42/2 6/43/2 25/44/2
f 25/45/8 6/46/8 23/47/8 26/48/8
f 21/49/4 20/50/4 12/14/4 11/13/4
f 21/51/4 11/52/4 3/53/4 18/54/4
f 18/55/1 3/56/1 2/57/1 15/58/1
f 2/12/3 10/11/3 16/59/3 15/60/3
f 23/61/8 12/62/8 20/63/8 26/64/8
f 26/65/10 20/66/10 17/67/10 25/68/10
f 25/69/5 17/19/5 16/70/5 24/71/5
f 24/72/3 16/73/3 10/74/3 7/75/3
f 7/76/3 10/77/3 9/78/3 8/79/3
f 8/80/6 9/81/6 19/22/6 5/82/6
f 5/83/11 19/84/11 13/85/11 22/86/11
f 22/87/8 13/88/8 12/89/8 23/90/8
o bolt
v 0.013532 0.010615 -0.146290
v 0.000000 0.012305 -0.138662
v 0.000000 0.008924 -0.153917
v 0.013532 0.007233 -0.161544
v 0.000000 0.005542 -0.169172
v -0.013532 0.007233 -0.161544
v -0.013532 0.010615 -0.146290
v 0.000000 0.058069 -0.148808
v 0.013532 0.056378 -0.156435
v 0.000000 0.054688 -0.164062
v 0.013532 0.052997 -0.171690
v 0.000000 0.051306 -0.179317
v -0.013532 0.052997 -0.171690
v -0.013532 0.056378 -0.156435
v 0.027063 -0.002949 -0.135280
v 0.000000 0.000433 -0.120026
v 0.000000 -0.006331 -0.150535
v 0.027063 0.012305 -0.138662
v 0.000000 0.015687 -0.123408
v 0.000000 0.008924 -0.153917
v 0.027063 -0.009713 -0.165790
v 0.027063 0.005542 -0.169172
v 0.000000 -0.013095 -0.181044
v 0.000000 0.002160 -0.184426
v -0.027063 -0.009713 -0.165790
v -0.027063 0.005542 -0.169172
v -0.027063 -0.002949 -0.135280
v -0.027063 0.012305 -0.138662
vt 0.812500 0.210938
vt 0.798969 0.203125
vt 0.798969 0.218750
vt 0.812500 0.210938
vt 0.812500 0.195312
vt 0.798969 0.203125
vt 0.798969 0.203125
vt 0.812500 0.195312
vt 0.798969 0.187500
vt 0.785297 0.195312
vt 0.798828 0.203125
vt 0.798828 0.187500
vt 0.785297 0.195312
vt 0.785297 0.210938
vt 0.798828 0.203125
vt 0.798828 0.203125
vt 0.785297 0.210938
vt 0.798828 0.218750
vt 0.798969 0.234375
vt 0.812500 0.242188
vt 0.798969 0.250000
vt 0.812500 0.226562
vt 0.812500 0.242188
vt 0.798969 0.234375
vt 0.812500 0.226562
vt 0.798969 0.234375
vt 0.798969 0.218750
vt 0.798828 0.234375
vt 0.785297 0.226562
vt 0.798828 0.218750
vt 0.785297 0.242188
vt 0.785297 0.226562
vt 0.798828 0.234375
vt 0.785297 0.242188
vt 0.798828 0.234375
vt 0.798828 0.250000
vt 0.812500 0.250000
vt 0.812500 0.000000
vt 0.875000 0.000000
vt 0.875000 0.250000
vt 0.812500 0.250000
vt 0.812500 0.000000
vt 0.875000 0.000000
vt 0.875000 0.250000
vt 0.812500 0.250000
vt 0.812500 0.000000
vt 0.875000 0.000000
vt 0.875000 0.250000
vt 0.812500 0.250000
vt 0.812500 0.000000
vt 0.875000 0.000000
vt 0.875000 0.250000
vt 0.812500 0.250000
vt 0.812500 0.000000
vt 0.875000 0.000000
vt 0.875000 0.250000
vt 0.812500 0.000000
vt 0.875000 0.250000
vt 1.000000 0.140625
vt 0.972938 0.156250
vt 0.972938 0.125000
vt 0.937500 0.000000
vt 1.000000 0.000000
vt 1.000000 0.125000
vt 0.937500 0.125000
vt 0.972938 0.218750
vt 1.000000 0.234375
vt 0.972938 0.250000
vt 1.000000 0.140625
vt 1.000000 0.171875
vt 0.972938 0.156250
vt 0.937500 0.000000
vt 1.000000 0.000000
vt 1.000000 0.125000
vt 0.937500 0.125000
vt 1.000000 0.203125
vt 1.000000 0.234375
vt 0.972938 0.218750
vt 0.972938 0.156250
vt 1.000000 0.171875
vt 0.972938 0.187500
vt 0.937500 0.000000
vt 1.000000 0.000000
vt 1.000000 0.125000
vt 0.937500 0.125000
vt 1.000000 0.203125
vt 0.972938 0.218750
vt 0.972938 0.187500
vt 0.945594 0.171875
vt 0.972656 0.156250
vt 0.972656 0.187500
vt 0.937500 0.000000
vt 1.000000 0.000000
vt 1.000000 0.125000
vt 0.937500 0.125000
vt 0.972375 0.218750
vt 0.945312 0.203125
vt 0.972375 0.187500
vt 0.945594 0.171875
vt 0.945594 0.140625
vt 0.972656 0.156250
vt 0.937500 0.000000
vt 1.000000 0.000000
vt 1.000000 0.125000
vt 0.937500 0.125000
vt 0.945312 0.234375
vt 0.945312 0.203125
vt 0.972375 0.218750
vt 0.972656 0.156250
vt 0.945594 0.140625
vt 0.972656 0.125000
vt 0.937500 0.000000
vt 1.000000 0.000000
vt 1.000000 0.125000
vt 0.937500 0.125000
vt 0.945312 0.234375
vt 0.972375 0.218750
vt 0.972375 0.250000
vn -0.0000 -0.9763 0.2164
vn 0.0000 0.9763 -0.2164
vn 1.0000 0.0000 0.0000
vn 0.5000 -0.1874 -0.8455
vn -0.5000 -0.1874 -0.8455
vn -1.0000 0.0000 0.0000
vn -0.5000 0.1874 0.8455
vn 0.5000 0.1874 0.8455
usemtl m_0
s 1
f 27/91/12 28/92/12 29/93/12
f 30/94/12 27/95/12 29/96/12
f 31/97/12 30/98/12 29/99/12
f 32/100/12 31/101/12 29/102/12
f 33/103/12 32/104/12 29/105/12
f 28/106/12 33/107/12 29/108/12
f 34/109/13 35/110/13 36/111/13
f 35/112/13 37/113/13 36/114/13
f 37/115/13 38/116/13 36/117/13
f 38/118/13 39/119/13 36/120/13
f 39/121/13 40/122/13 36/123/13
f 40/124/13 34/125/13 36/126/13
f 35/127/14 27/128/14 30/129/14 37/130/14
f 31/131/15 38/132/15 37/133/15 30/134/15
f 38/135/16 31/136/16 32/137/16 39/138/16
f 33/139/17 40/140/17 39/141/17 32/142/17
f 40/143/18 33/144/18 28/145/18 34/146/18
f 35/127/19 34/147/19 28/145/19 27/148/19
f 41/149/12 42/150/12 43/151/12
f 42/152/19 41/153/19 44/154/19 45/155/19
f 45/156/13 44/157/13 46/158/13
f 47/159/12 41/160/12 43/161/12
f 41/162/14 47/163/14 48/164/14 44/165/14
f 44/166/13 48/167/13 46/168/13
f 49/169/12 47/170/12 43/171/12
f 47/172/15 49/173/15 50/174/15 48/175/15
f 48/176/13 50/177/13 46/178/13
f 51/179/12 49/180/12 43/181/12
f 49/182/16 51/183/16 52/184/16 50/185/16
f 50/186/13 52/187/13 46/188/13
f 53/189/12 51/190/12 43/191/12
f 51/192/17 53/193/17 54/194/17 52/195/17
f 52/196/13 54/197/13 46/198/13
f 42/199/12 53/200/12 43/201/12
f 53/202/18 42/203/18 45/204/18 54/205/18
f 54/206/13 45/207/13 46/208/13
