# Blender v2.79 (sub 0) OBJ File: ''
# www.blender.org
mtllib hitchconnector.mtl
o connector_large
v -0.023438 0.156250 0.023438
v -0.023438 0.156250 -0.023437
v -0.039062 0.125000 -0.039062
v -0.039062 0.125000 0.039063
v 0.039062 0.125000 -0.039062
v 0.023438 0.156250 -0.023437
v 0.023438 0.156250 0.023438
v 0.039062 0.125000 0.039063
v -0.039062 -0.000000 0.039062
v -0.039062 0.000000 -0.039062
v 0.039062 0.000000 -0.039062
v 0.039062 -0.000000 0.039062
vt 0.125000 0.000000
vt 0.312500 0.000000
vt 0.312500 0.062500
vt 0.125000 0.062500
vt 0.125000 0.000000
vt 0.312500 0.000000
vt 0.312500 0.062500
vt 0.125000 0.062500
vt 0.125000 0.000000
vt 0.312500 0.187500
vt 0.125000 0.187500
vt 0.500000 0.250000
vt 0.625000 0.250000
vt 0.625000 0.375000
vt 0.500000 0.375000
vt 0.125000 0.000000
vt 0.312500 0.062500
vt 0.125000 0.062500
vt 0.125000 0.000000
vt 0.312500 0.000000
vt 0.312500 0.062500
vt 0.625000 0.000000
vt 0.812500 0.000000
vt 0.812500 0.312500
vt 0.625000 0.312500
vt 0.812500 0.000000
vt 0.812500 0.312500
vt 0.625000 0.000000
vt 0.625000 0.312500
vn -0.8944 0.4472 0.0000
vn 0.8944 0.4472 0.0000
vn 0.0000 1.0000 0.0000
vn 0.0000 -1.0000 -0.0000
vn 0.0000 0.4472 -0.8944
vn 0.0000 0.4472 0.8944
vn -1.0000 0.0000 0.0000
vn 0.0000 0.0000 -1.0000
vn 1.0000 0.0000 0.0000
vn 0.0000 -0.0000 1.0000
usemtl m_0
s 1
f 1/1/1 2/2/1 3/3/1 4/4/1
f 5/5/2 6/6/2 7/7/2 8/8/2
f 6/9/3 2/2/3 1/10/3 7/11/3
f 9/12/4 10/13/4 11/14/4 12/15/4
f 3/16/5 2/2/5 6/17/5 5/18/5
f 7/19/6 1/20/6 4/21/6 8/8/6
f 10/22/7 9/23/7 4/24/7 3/25/7
f 11/26/8 10/22/8 3/25/8 5/27/8
f 12/28/9 11/26/9 5/27/9 8/29/9
f 9/23/10 12/28/10 8/29/10 4/24/10
