# Blender v2.79 (sub 0) OBJ File: ''
# www.blender.org
mtllib hoverwheel.mtl
o hover
v 0.137188 0.031250 0.039062
v 0.137188 0.031250 0.085938
v 0.137188 -0.000000 0.085938
v 0.137188 -0.000000 0.039062
v 0.090312 -0.000000 0.085938
v 0.090312 0.031250 0.085938
v 0.090312 0.031250 0.039062
v 0.090312 -0.000000 0.039062
v 0.137188 0.000000 -0.085938
v 0.137188 0.031250 -0.085938
v 0.137188 0.031250 -0.039062
v 0.137188 0.000000 -0.039062
v 0.090312 0.031250 -0.039062
v 0.090312 0.031250 -0.085938
v 0.090312 0.000000 -0.085938
v 0.090312 0.000000 -0.039062
vt 0.156200 0.906200
vt 0.218800 0.906200
vt 0.218800 0.968800
vt 0.156200 0.968800
vt 0.156200 0.906200
vt 0.218800 0.906200
vt 0.218800 0.968800
vt 0.156200 0.968800
vt 0.156200 0.906200
vt 0.218800 0.968800
vt 0.156200 0.968800
vt 0.156200 0.906200
vt 0.218800 0.906200
vt 0.218800 0.968800
vt 0.156200 0.906200
vt 0.218800 0.968800
vt 0.156200 0.968800
vt 0.156200 0.906200
vt 0.218800 0.906200
vt 0.218800 0.968800
vt 0.218800 0.968800
vt 0.218800 0.906200
vt 0.156200 0.906200
vt 0.156200 0.968800
vt 0.218800 0.968800
vt 0.218800 0.906200
vt 0.156200 0.906200
vt 0.156200 0.968800
vt 0.218800 0.968800
vt 0.156200 0.906200
vt 0.156200 0.968800
vt 0.218800 0.968800
vt 0.218800 0.906200
vt 0.156200 0.906200
vt 0.218800 0.968800
vt 0.156200 0.906200
vt 0.156200 0.968800
vt 0.218800 0.968800
vt 0.218800 0.906200
vt 0.156200 0.906200
vn 1.0000 0.0000 0.0000
vn -1.0000 0.0000 0.0000
vn 0.0000 1.0000 0.0000
vn 0.0000 -1.0000 -0.0000
vn 0.0000 0.0000 1.0000
vn 0.0000 0.0000 -1.0000
usemtl m_0
s 1
f 1/1/1 2/2/1 3/3/1 4/4/1
f 5/5/2 6/6/2 7/7/2 8/8/2
f 6/9/3 2/2/3 1/10/3 7/11/3
f 4/12/4 3/13/4 5/14/4 8/8/4
f 3/15/5 2/2/5 6/16/5 5/17/5
f 7/18/6 1/19/6 4/20/6 8/8/6
f 9/21/1 10/22/1 11/23/1 12/24/1
f 13/25/2 14/26/2 15/27/2 16/28/2
f 11/29/3 10/22/3 14/30/3 13/31/3
f 15/32/4 9/33/4 12/34/4 16/28/4
f 14/35/6 10/22/6 9/36/6 15/37/6
f 12/38/5 11/39/5 13/40/5 16/28/5
o cube
v 0.066875 0.187500 -0.187500
v 0.066875 0.187500 0.187500
v 0.066875 -0.187500 0.187500
v 0.066875 -0.187500 -0.187500
v -0.011250 -0.218750 0.218750
v -0.011250 0.218750 0.218750
v -0.011250 0.218750 -0.218750
v -0.011250 -0.218750 -0.218750
v 0.129375 0.031250 -0.039062
v 0.129375 0.031250 0.039062
v 0.129375 -0.000000 0.039062
v 0.129375 0.000000 -0.039062
v 0.098125 -0.000000 0.039062
v 0.098125 0.031250 0.039062
v 0.098125 0.031250 -0.039062
v 0.098125 0.000000 -0.039062
v 0.051250 0.195313 -0.195312
v 0.051250 0.195312 0.195313
v 0.051250 -0.195313 0.195312
v 0.051250 -0.195312 -0.195313
v 0.004375 -0.218750 0.218750
v 0.004375 0.218750 0.218750
v 0.004375 0.218750 -0.218750
v 0.004375 -0.218750 -0.218750
v 0.074688 0.164062 0.000000
v 0.074688 0.164062 0.156250
v 0.074688 0.085937 0.156250
v 0.074688 0.085938 0.000000
v 0.059062 0.085937 0.156250
v 0.059062 0.164062 0.156250
v 0.059062 0.164062 0.000000
v 0.059062 0.085938 0.000000
v 0.074688 0.085938 -0.156250
v 0.074688 0.164062 -0.156250
v 0.074688 0.164062 0.000000
v 0.074688 0.085938 0.000000
v 0.059062 0.164062 0.000000
v 0.059062 0.164062 -0.156250
v 0.059062 0.085938 -0.156250
v 0.059062 0.085938 0.000000
v 0.129375 0.031250 0.085938
v 0.098125 0.031250 0.117188
v 0.098125 -0.000000 0.117188
v 0.129375 -0.000000 0.085938
v 0.066875 -0.000000 0.117188
v 0.066875 0.031250 0.117188
v 0.066875 0.031250 0.085938
v 0.066875 -0.000000 0.085938
v 0.098125 0.031250 -0.117188
v 0.129375 0.031250 -0.085938
v 0.129375 0.000000 -0.085938
v 0.098125 0.000000 -0.117188
v 0.066875 0.000000 -0.085938
v 0.066875 0.031250 -0.085938
v 0.066875 0.031250 -0.117188
v 0.066875 0.000000 -0.117188
v 0.074688 -0.046875 -0.140625
v 0.074688 -0.046875 0.140625
v 0.074688 -0.171875 0.140625
v 0.074688 -0.171875 -0.140625
v 0.059062 -0.171875 0.140625
v 0.059062 -0.046875 0.140625
v 0.059062 -0.046875 -0.140625
v 0.059062 -0.171875 -0.140625
v 0.074688 -0.046875 0.140625
v 0.074688 -0.046875 0.171875
v 0.074688 -0.171875 0.171875
v 0.074688 -0.171875 0.140625
v 0.059062 -0.171875 0.171875
v 0.059062 -0.046875 0.171875
v 0.059062 -0.046875 0.140625
v 0.059062 -0.171875 0.140625
v 0.074688 -0.046875 -0.171875
v 0.074688 -0.046875 -0.140625
v 0.074688 -0.171875 -0.140625
v 0.074688 -0.171875 -0.171875
v 0.059062 -0.171875 -0.140625
v 0.059062 -0.046875 -0.140625
v 0.059062 -0.046875 -0.171875
v 0.059062 -0.171875 -0.171875
v 0.082500 -0.140625 -0.156250
v 0.082500 -0.140625 0.156250
v 0.082500 -0.156250 0.156250
v 0.082500 -0.156250 -0.156250
v 0.066875 -0.156250 0.156250
v 0.066875 -0.140625 0.156250
v 0.066875 -0.140625 -0.156250
v 0.066875 -0.156250 -0.156250
v 0.082500 -0.062500 -0.156250
v 0.082500 -0.062500 0.156250
v 0.082500 -0.078125 0.156250
v 0.082500 -0.078125 -0.156250
v 0.066875 -0.078125 0.156250
v 0.066875 -0.062500 0.156250
v 0.066875 -0.062500 -0.156250
v 0.066875 -0.078125 -0.156250
vt 0.031200 0.781200
vt 0.093800 0.781200
vt 0.093800 0.843800
vt 0.031200 0.843800
vt 0.031200 0.781200
vt 0.093800 0.781200
vt 0.093800 0.843800
vt 0.031200 0.843800
vt 0.031200 0.781200
vt 0.093800 0.843800
vt 0.031200 0.843800
vt 0.031200 0.781200
vt 0.093800 0.781200
vt 0.093800 0.843800
vt 0.031200 0.781200
vt 0.093800 0.843800
vt 0.031200 0.843800
vt 0.031200 0.781200
vt 0.093800 0.781200
vt 0.093800 0.843800
vt 0.156200 0.781200
vt 0.218800 0.781200
vt 0.218800 0.843800
vt 0.156200 0.843800
vt 0.156200 0.781200
vt 0.218800 0.781200
vt 0.218800 0.843800
vt 0.156200 0.843800
vt 0.156200 0.781200
vt 0.218800 0.843800
vt 0.156200 0.843800
vt 0.156200 0.781200
vt 0.218800 0.781200
vt 0.218800 0.843800
vt 0.156200 0.781200
vt 0.218800 0.843800
vt 0.156200 0.843800
vt 0.156200 0.781200
vt 0.218800 0.781200
vt 0.218800 0.843800
vt 0.156200 0.781200
vt 0.218800 0.781200
vt 0.218800 0.843800
vt 0.156200 0.843800
vt 0.156200 0.781200
vt 0.218800 0.781200
vt 0.218800 0.843800
vt 0.156200 0.843800
vt 0.156200 0.781200
vt 0.218800 0.843800
vt 0.156200 0.843800
vt 0.156200 0.781200
vt 0.218800 0.781200
vt 0.218800 0.843800
vt 0.156200 0.781200
vt 0.218800 0.843800
vt 0.156200 0.843800
vt 0.156200 0.781200
vt 0.218800 0.781200
vt 0.218800 0.843800
vt 0.593800 0.218800
vt 0.187500 0.218800
vt 0.187500 0.000000
vt 0.593800 0.000000
vt 0.281200 0.777300
vt 0.343800 0.781200
vt 0.343800 0.843800
vt 0.281200 0.843800
vt 0.281200 0.781200
vt 0.343800 0.781200
vt 0.343800 0.843800
vt 0.281200 0.843800
vt 0.281200 0.781200
vt 0.343800 0.781200
vt 0.343800 0.843800
vt 0.281200 0.781200
vt 0.343800 0.843800
vt 0.281200 0.843800
vt 0.281200 0.781200
vt 0.343800 0.781200
vt 0.343800 0.843800
vt 1.000000 0.000000
vt 1.000000 0.218800
vt 0.593800 0.218800
vt 0.593800 0.000000
vt 0.343800 0.843800
vt 0.343800 0.781200
vt 0.281200 0.777300
vt 0.281200 0.843800
vt 0.343800 0.843800
vt 0.343800 0.781200
vt 0.281200 0.781200
vt 0.281200 0.843800
vt 0.343800 0.843800
vt 0.343800 0.781200
vt 0.281200 0.781200
vt 0.343800 0.843800
vt 0.281200 0.781200
vt 0.281200 0.843800
vt 0.343800 0.843800
vt 0.343800 0.781200
vt 0.281200 0.781200
vt 0.156200 0.781200
vt 0.218800 0.781200
vt 0.218800 0.843800
vt 0.156200 0.843800
vt 0.156200 0.781200
vt 0.218800 0.781200
vt 0.218800 0.843800
vt 0.156200 0.843800
vt 0.156200 0.781200
vt 0.218800 0.843800
vt 0.156200 0.843800
vt 0.156200 0.781200
vt 0.218800 0.781200
vt 0.218800 0.843800
vt 0.156200 0.781200
vt 0.218800 0.843800
vt 0.156200 0.843800
vt 0.156200 0.781200
vt 0.218800 0.781200
vt 0.218800 0.843800
vt 0.156200 0.781200
vt 0.218800 0.781200
vt 0.218800 0.843800
vt 0.156200 0.843800
vt 0.156200 0.781200
vt 0.218800 0.781200
vt 0.218800 0.843800
vt 0.156200 0.843800
vt 0.156200 0.781200
vt 0.218800 0.843800
vt 0.156200 0.843800
vt 0.156200 0.781200
vt 0.218800 0.781200
vt 0.218800 0.843800
vt 0.156200 0.781200
vt 0.218800 0.843800
vt 0.156200 0.843800
vt 0.156200 0.781200
vt 0.218800 0.781200
vt 0.218800 0.843800
vt 0.218800 0.968800
vt 0.156200 0.968800
vt 0.156200 0.906200
vt 0.218800 0.906200
vt 0.218800 0.968800
vt 0.156200 0.968800
vt 0.156200 0.906200
vt 0.218800 0.906200
vt 0.218800 0.968800
vt 0.156200 0.906200
vt 0.218800 0.906200
vt 0.218800 0.968800
vt 0.156200 0.968800
vt 0.156200 0.906200
vt 0.218800 0.968800
vt 0.156200 0.906200
vt 0.218800 0.906200
vt 0.218800 0.968800
vt 0.156200 0.968800
vt 0.156200 0.906200
vt 0.468800 0.968800
vt 0.406200 0.968800
vt 0.406200 0.906200
vt 0.468800 0.906200
vt 0.468800 0.968800
vt 0.406200 0.968800
vt 0.406200 0.906200
vt 0.468800 0.906200
vt 0.468800 0.968800
vt 0.406200 0.906200
vt 0.468800 0.906200
vt 0.468800 0.968800
vt 0.406200 0.968800
vt 0.406200 0.906200
vt 0.468800 0.968800
vt 0.406200 0.906200
vt 0.468800 0.906200
vt 0.468800 0.968800
vt 0.406200 0.968800
vt 0.406200 0.906200
vt 0.468800 0.843800
vt 0.406200 0.843800
vt 0.406200 0.781200
vt 0.468800 0.781200
vt 0.468800 0.843800
vt 0.406200 0.843800
vt 0.406200 0.781200
vt 0.468800 0.781200
vt 0.468800 0.843800
vt 0.406200 0.781200
vt 0.468800 0.781200
vt 0.468800 0.843800
vt 0.406200 0.843800
vt 0.406200 0.781200
vt 0.468800 0.843800
vt 0.406200 0.781200
vt 0.468800 0.781200
vt 0.468800 0.843800
vt 0.406200 0.843800
vt 0.406200 0.781200
vt 0.343800 0.968800
vt 0.281200 0.968800
vt 0.281200 0.906200
vt 0.343800 0.906200
vt 0.343800 0.968800
vt 0.281200 0.968800
vt 0.281200 0.906200
vt 0.343800 0.906200
vt 0.343800 0.968800
vt 0.281200 0.906200
vt 0.343800 0.906200
vt 0.343800 0.968800
vt 0.281200 0.968800
vt 0.281200 0.906200
vt 0.343800 0.968800
vt 0.281200 0.906200
vt 0.343800 0.906200
vt 0.343800 0.968800
vt 0.281200 0.968800
vt 0.281200 0.906200
vt 0.343800 0.968800
vt 0.281200 0.968800
vt 0.281200 0.906200
vt 0.343800 0.906200
vt 0.343800 0.968800
vt 0.281200 0.968800
vt 0.281200 0.906200
vt 0.343800 0.906200
vt 0.343800 0.968800
vt 0.281200 0.906200
vt 0.343800 0.906200
vt 0.343800 0.968800
vt 0.281200 0.968800
vt 0.281200 0.906200
vt 0.343800 0.968800
vt 0.281200 0.906200
vt 0.343800 0.906200
vt 0.343800 0.968800
vt 0.281200 0.968800
vt 0.281200 0.906200
vn 1.0000 0.0000 0.0000
vn -1.0000 0.0000 0.0000
vn 0.3714 0.9285 0.0000
vn 0.3714 -0.9285 -0.0000
vn 0.3714 -0.0000 0.9285
vn 0.3714 0.0000 -0.9285
vn 0.0000 1.0000 0.0000
vn 0.0000 -1.0000 -0.0000
vn 0.0000 0.0000 1.0000
vn 0.0000 0.0000 -1.0000
vn 0.4472 0.8944 0.0000
vn 0.4472 -0.8944 -0.0000
vn 0.4472 -0.0000 0.8944
vn 0.4472 0.0000 -0.8944
vn 0.7071 0.0000 0.7071
vn 0.7071 0.0000 -0.7071
usemtl m_0
s 1
f 17/41/7 18/42/7 19/43/7 20/44/7
f 21/45/8 22/46/8 23/47/8 24/48/8
f 22/49/9 18/42/9 17/50/9 23/51/9
f 20/52/10 19/53/10 21/54/10 24/48/10
f 19/55/11 18/42/11 22/56/11 21/57/11
f 23/58/12 17/59/12 20/60/12 24/48/12
f 25/61/7 26/62/7 27/63/7 28/64/7
f 29/65/8 30/66/8 31/67/8 32/68/8
f 30/69/13 26/62/13 25/70/13 31/71/13
f 28/72/14 27/73/14 29/74/14 32/68/14
f 27/75/15 26/62/15 30/76/15 29/77/15
f 31/78/16 25/79/16 28/80/16 32/68/16
f 33/81/7 34/82/7 35/83/7 36/84/7
f 37/85/8 38/86/8 39/87/8 40/88/8
f 38/89/17 34/82/17 33/90/17 39/91/17
f 36/92/18 35/93/18 37/94/18 40/88/18
f 35/95/19 34/82/19 38/96/19 37/97/19
f 39/98/20 33/99/20 36/100/20 40/88/20
f 41/101/7 42/102/7 43/103/7 44/104/7
f 45/105/8 46/106/8 47/107/8 48/108/8
f 46/109/13 42/110/13 41/111/13 47/112/13
f 44/113/14 43/114/14 45/115/14 48/108/14
f 43/116/15 42/110/15 46/117/15 45/118/15
f 47/119/16 41/120/16 44/121/16 48/108/16
f 49/122/7 50/123/7 51/124/7 52/125/7
f 53/126/8 54/127/8 55/128/8 56/129/8
f 51/130/13 50/131/13 54/132/13 53/133/13
f 55/134/14 49/135/14 52/136/14 56/129/14
f 54/137/16 50/131/16 49/138/16 55/139/16
f 52/140/15 51/141/15 53/142/15 56/129/15
f 57/143/21 58/144/21 59/145/21 60/146/21
f 61/147/8 62/148/8 63/149/8 64/150/8
f 62/151/13 58/144/13 57/152/13 63/153/13
f 60/154/14 59/155/14 61/156/14 64/150/14
f 59/157/15 58/144/15 62/158/15 61/159/15
f 63/160/16 57/161/16 60/162/16 64/150/16
f 65/163/22 66/164/22 67/165/22 68/166/22
f 69/167/8 70/168/8 71/169/8 72/170/8
f 70/171/13 66/164/13 65/172/13 71/173/13
f 68/174/14 67/175/14 69/176/14 72/170/14
f 67/177/15 66/164/15 70/178/15 69/179/15
f 71/180/16 65/181/16 68/182/16 72/170/16
f 73/183/7 74/184/7 75/185/7 76/186/7
f 77/187/8 78/188/8 79/189/8 80/190/8
f 78/191/13 74/184/13 73/192/13 79/193/13
f 76/194/14 75/195/14 77/196/14 80/190/14
f 75/197/15 74/184/15 78/198/15 77/199/15
f 79/200/16 73/201/16 76/202/16 80/190/16
f 81/203/7 82/204/7 83/205/7 84/206/7
f 85/207/8 86/208/8 87/209/8 88/210/8
f 86/211/13 82/204/13 81/212/13 87/213/13
f 84/214/14 83/215/14 85/216/14 88/210/14
f 83/217/15 82/204/15 86/218/15 85/219/15
f 87/220/16 81/221/16 84/222/16 88/210/16
f 89/223/7 90/224/7 91/225/7 92/226/7
f 93/227/8 94/228/8 95/229/8 96/230/8
f 94/231/13 90/224/13 89/232/13 95/233/13
f 92/234/14 91/235/14 93/236/14 96/230/14
f 91/237/15 90/224/15 94/238/15 93/239/15
f 95/240/16 89/241/16 92/242/16 96/230/16
f 97/243/7 98/244/7 99/245/7 100/246/7
f 101/247/8 102/248/8 103/249/8 104/250/8
f 102/251/13 98/244/13 97/252/13 103/253/13
f 100/254/14 99/255/14 101/256/14 104/250/14
f 99/257/15 98/244/15 102/258/15 101/259/15
f 103/260/16 97/261/16 100/262/16 104/250/16
f 105/263/7 106/264/7 107/265/7 108/266/7
f 109/267/8 110/268/8 111/269/8 112/270/8
f 110/271/13 106/264/13 105/272/13 111/273/13
f 108/274/14 107/275/14 109/276/14 112/270/14
f 107/277/15 106/264/15 110/278/15 109/279/15
f 111/280/16 105/281/16 108/282/16 112/270/16
o hoverthrusterright
v 0.231914 -0.023437 -0.101562
v 0.231914 0.039063 -0.101562
v 0.231914 0.039062 -0.039062
v 0.231914 -0.023437 -0.039062
v 0.229961 0.039062 -0.039062
v 0.229961 0.039063 -0.101562
v 0.229961 -0.023437 -0.101562
v 0.229961 -0.023437 -0.039062
v 0.230938 -0.054687 -0.117188
v 0.230938 0.054688 -0.117188
v 0.230938 0.054688 -0.023437
v 0.230938 -0.054688 -0.023438
v 0.137188 0.054688 -0.023437
v 0.137188 0.054688 -0.117188
v 0.137188 -0.054687 -0.117188
v 0.137188 -0.054688 -0.023438
v 0.223125 0.054688 -0.109375
v 0.215312 0.062500 -0.101562
v 0.215312 0.062500 -0.039062
v 0.223125 0.054688 -0.031250
v 0.152812 0.062500 -0.039062
v 0.152812 0.062500 -0.101562
v 0.145000 0.054688 -0.109375
v 0.145000 0.054688 -0.031250
v 0.238750 -0.085937 -0.125000
v 0.223125 -0.054687 -0.109375
v 0.223125 -0.054688 -0.031250
v 0.238750 -0.085938 -0.015625
v 0.145000 -0.054688 -0.031250
v 0.145000 -0.054687 -0.109375
v 0.129375 -0.085937 -0.125000
v 0.129375 -0.085938 -0.015625
vt 0.968800 0.250000
vt 0.968800 0.625000
vt 0.531200 0.625000
vt 0.531200 0.250000
vt 0.156200 0.093800
vt 0.156200 0.031200
vt 0.093800 0.031200
vt 0.093800 0.093800
vt 0.156200 0.093800
vt 0.156200 0.031200
vt 0.093800 0.031200
vt 0.093800 0.093800
vt 0.156200 0.093800
vt 0.156200 0.031200
vt 0.093800 0.031200
vt 0.156200 0.093800
vt 0.093800 0.031200
vt 0.093800 0.093800
vt 0.156200 0.093800
vt 0.156200 0.031200
vt 0.093800 0.031200
vt 0.218800 0.843800
vt 0.218800 0.781200
vt 0.156200 0.781200
vt 0.156200 0.843800
vt 0.218800 0.843800
vt 0.218800 0.781200
vt 0.156200 0.781200
vt 0.156200 0.843800
vt 0.218800 0.843800
vt 0.156200 0.781200
vt 0.156200 0.843800
vt 0.218800 0.843800
vt 0.218800 0.781200
vt 0.156200 0.781200
vt 0.218800 0.843800
vt 0.156200 0.781200
vt 0.156200 0.843800
vt 0.218800 0.843800
vt 0.218800 0.781200
vt 0.156200 0.781200
vt 0.281200 0.906200
vt 0.343800 0.906200
vt 0.343800 0.968800
vt 0.281200 0.968800
vt 0.281200 0.906200
vt 0.343800 0.906200
vt 0.343800 0.968800
vt 0.281200 0.968800
vt 0.281200 0.906200
vt 0.343800 0.968800
vt 0.281200 0.968800
vt 0.281200 0.906200
vt 0.343800 0.906200
vt 0.343800 0.968800
vt 0.281200 0.906200
vt 0.343800 0.968800
vt 0.281200 0.968800
vt 0.281200 0.906200
vt 0.343800 0.906200
vt 0.343800 0.968800
vt 0.093800 0.843800
vt 0.093800 0.781200
vt 0.031200 0.781200
vt 0.031200 0.843800
vt 0.093800 0.843800
vt 0.093800 0.781200
vt 0.031200 0.781200
vt 0.031200 0.843800
vt 0.093800 0.843800
vt 0.031200 0.781200
vt 0.031200 0.843800
vt 0.218800 0.968800
vt 0.218800 0.906200
vt 0.156200 0.906200
vt 0.156200 0.968800
vt 0.093800 0.843800
vt 0.031200 0.781200
vt 0.031200 0.843800
vt 0.093800 0.843800
vt 0.093800 0.781200
vt 0.031200 0.781200
vn 1.0000 0.0000 0.0000
vn -1.0000 0.0000 0.0000
vn 0.0000 1.0000 0.0000
vn 0.0000 -1.0000 -0.0000
vn 0.0000 0.0000 -1.0000
vn 0.0000 0.0000 1.0000
vn 0.7071 0.7072 0.0000
vn -0.7071 0.7071 0.0000
vn 0.0000 0.7072 -0.7071
vn 0.0000 0.7071 0.7071
vn 0.8944 0.4472 0.0000
vn -0.8944 0.4472 0.0000
vn 0.0000 0.4472 -0.8944
vn 0.0000 0.4472 0.8944
usemtl m_0
s 1
f 113/283/23 114/284/23 115/285/23 116/286/23
f 117/287/24 118/288/24 119/289/24 120/290/24
f 115/291/25 114/292/25 118/293/25 117/294/25
f 119/295/26 113/296/26 116/297/26 120/290/26
f 118/298/27 114/292/27 113/299/27 119/300/27
f 116/301/28 115/302/28 117/303/28 120/290/28
f 121/304/23 122/305/23 123/306/23 124/307/23
f 125/308/24 126/309/24 127/310/24 128/311/24
f 123/312/25 122/305/25 126/313/25 125/314/25
f 127/315/26 121/316/26 124/317/26 128/311/26
f 126/318/27 122/305/27 121/319/27 127/320/27
f 124/321/28 123/322/28 125/323/28 128/311/28
f 129/324/29 130/325/29 131/326/29 132/327/29
f 133/328/30 134/329/30 135/330/30 136/331/30
f 131/332/25 130/325/25 134/333/25 133/334/25
f 135/335/26 129/336/26 132/337/26 136/331/26
f 134/338/31 130/325/31 129/339/31 135/340/31
f 132/341/32 131/342/32 133/343/32 136/331/32
f 137/344/33 138/345/33 139/346/33 140/347/33
f 141/348/34 142/349/34 143/350/34 144/351/34
f 139/352/25 138/345/25 142/353/25 141/354/25
f 143/355/26 137/356/26 140/357/26 144/358/26
f 142/359/35 138/345/35 137/360/35 143/361/35
f 140/362/36 139/363/36 141/364/36 144/351/36
o hoverthrusterleft
v 0.230938 0.054688 0.023438
v 0.230938 0.054687 0.117188
v 0.230938 -0.054688 0.117188
v 0.230938 -0.054688 0.023437
v 0.137188 -0.054688 0.117188
v 0.137188 0.054687 0.117188
v 0.137188 0.054688 0.023438
v 0.137188 -0.054688 0.023437
v 0.223125 -0.054688 0.031250
v 0.223125 -0.054688 0.109375
v 0.238750 -0.085938 0.125000
v 0.238750 -0.085938 0.015625
v 0.129375 -0.085938 0.125000
v 0.145000 -0.054688 0.109375
v 0.145000 -0.054688 0.031250
v 0.129375 -0.085938 0.015625
v 0.215312 0.062500 0.039063
v 0.215312 0.062500 0.101562
v 0.223125 0.054687 0.109375
v 0.223125 0.054688 0.031250
v 0.145000 0.054687 0.109375
v 0.152812 0.062500 0.101562
v 0.152812 0.062500 0.039063
v 0.145000 0.054688 0.031250
v 0.231914 0.039062 0.039062
v 0.231914 0.039062 0.101562
v 0.231914 -0.023438 0.101562
v 0.231914 -0.023438 0.039062
v 0.229961 -0.023438 0.101562
v 0.229961 0.039062 0.101562
v 0.229961 0.039062 0.039062
v 0.229961 -0.023438 0.039062
vt 0.156200 0.781200
vt 0.218800 0.781200
vt 0.218800 0.843800
vt 0.156200 0.843800
vt 0.156200 0.781200
vt 0.218800 0.781200
vt 0.218800 0.843800
vt 0.156200 0.843800
vt 0.156200 0.781200
vt 0.218800 0.843800
vt 0.156200 0.843800
vt 0.156200 0.781200
vt 0.218800 0.781200
vt 0.218800 0.843800
vt 0.156200 0.781200
vt 0.218800 0.843800
vt 0.156200 0.843800
vt 0.156200 0.781200
vt 0.218800 0.781200
vt 0.218800 0.843800
vt 0.031200 0.781200
vt 0.093800 0.781200
vt 0.093800 0.843800
vt 0.031200 0.843800
vt 0.031200 0.781200
vt 0.093800 0.781200
vt 0.093800 0.843800
vt 0.031200 0.843800
vt 0.031200 0.781200
vt 0.093800 0.843800
vt 0.031200 0.843800
vt 0.156200 0.906200
vt 0.218800 0.906200
vt 0.218800 0.968800
vt 0.156200 0.968800
vt 0.031200 0.781200
vt 0.093800 0.843800
vt 0.031200 0.843800
vt 0.031200 0.781200
vt 0.093800 0.781200
vt 0.093800 0.843800
vt 0.343800 0.968800
vt 0.343800 0.906200
vt 0.281200 0.906200
vt 0.281200 0.968800
vt 0.343800 0.968800
vt 0.343800 0.906200
vt 0.281200 0.906200
vt 0.281200 0.968800
vt 0.343800 0.968800
vt 0.281200 0.906200
vt 0.281200 0.968800
vt 0.343800 0.968800
vt 0.343800 0.906200
vt 0.281200 0.906200
vt 0.343800 0.968800
vt 0.281200 0.906200
vt 0.281200 0.968800
vt 0.343800 0.968800
vt 0.343800 0.906200
vt 0.281200 0.906200
vt 0.531200 0.625000
vt 0.968800 0.625000
vt 0.968800 0.250000
vt 0.531200 0.250000
vt 0.093800 0.031200
vt 0.156200 0.031200
vt 0.156200 0.093800
vt 0.093800 0.093800
vt 0.093800 0.031200
vt 0.156200 0.031200
vt 0.156200 0.093800
vt 0.093800 0.093800
vt 0.093800 0.031200
vt 0.156200 0.031200
vt 0.156200 0.093800
vt 0.093800 0.031200
vt 0.156200 0.093800
vt 0.093800 0.093800
vt 0.093800 0.031200
vt 0.156200 0.031200
vt 0.156200 0.093800
vn 1.0000 0.0000 0.0000
vn -1.0000 -0.0000 0.0000
vn 0.0000 1.0000 0.0000
vn 0.0000 -1.0000 -0.0000
vn 0.0000 0.0000 1.0000
vn 0.0000 0.0000 -1.0000
vn 0.8944 0.4472 0.0000
vn -0.8944 0.4472 0.0000
vn 0.0000 0.4472 0.8944
vn 0.0000 0.4472 -0.8944
vn 0.7071 0.7071 0.0000
vn -0.7071 0.7071 0.0000
vn 0.0000 0.7071 0.7071
vn 0.0000 0.7072 -0.7071
usemtl m_0
s 1
f 145/365/37 146/366/37 147/367/37 148/368/37
f 149/369/38 150/370/38 151/371/38 152/372/38
f 150/373/39 146/366/39 145/374/39 151/375/39
f 148/376/40 147/377/40 149/378/40 152/372/40
f 147/379/41 146/366/41 150/380/41 149/381/41
f 151/382/42 145/383/42 148/384/42 152/372/42
f 153/385/43 154/386/43 155/387/43 156/388/43
f 157/389/44 158/390/44 159/391/44 160/392/44
f 158/393/39 154/386/39 153/394/39 159/395/39
f 156/396/40 155/397/40 157/398/40 160/399/40
f 155/400/45 154/386/45 158/401/45 157/402/45
f 159/403/46 153/404/46 156/405/46 160/392/46
f 161/406/47 162/407/47 163/408/47 164/409/47
f 165/410/48 166/411/48 167/412/48 168/413/48
f 166/414/39 162/407/39 161/415/39 167/416/39
f 164/417/40 163/418/40 165/419/40 168/413/40
f 163/420/49 162/407/49 166/421/49 165/422/49
f 167/423/50 161/424/50 164/425/50 168/413/50
f 169/426/37 170/427/37 171/428/37 172/429/37
f 173/430/38 174/431/38 175/432/38 176/433/38
f 174/434/39 170/435/39 169/436/39 175/437/39
f 172/438/40 171/439/40 173/440/40 176/433/40
f 171/441/41 170/435/41 174/442/41 173/443/41
f 175/444/42 169/445/42 172/446/42 176/433/42
