# Blender v2.78 (sub 0) OBJ File: 'hydraulicsmall.blend'
# www.blender.org
mtllib hydraulicsmall.mtl
o piston
v 0.195642 -0.119181 0.158909
v 0.089703 -0.119181 0.158909
v 0.195642 -0.158909 0.158909
v 0.089703 -0.158909 0.158909
v 0.195642 -0.158909 -0.158909
v 0.089702 -0.158909 -0.158909
v 0.195642 -0.119181 -0.158909
v 0.089702 -0.119181 -0.158909
v 0.222126 -0.119181 0.105939
v 0.195642 -0.119181 0.105939
v 0.222126 -0.158909 0.105939
v 0.195642 -0.158909 0.105939
v 0.222126 -0.158909 -0.105939
v 0.195642 -0.158909 -0.105939
v 0.222126 -0.119181 -0.105939
v 0.195642 -0.119181 -0.105939
v 0.275096 0.105939 0.105939
v 0.222126 0.105939 0.105939
v 0.275096 -0.105939 0.105939
v 0.222126 -0.105939 0.105939
v 0.275096 -0.105939 -0.105939
v 0.222126 -0.105939 -0.105939
v 0.275096 0.105939 -0.105939
v 0.222126 0.105939 -0.105939
v 0.288338 0.086075 0.052969
v 0.275096 0.086075 0.052969
v 0.288338 -0.033106 0.052969
v 0.275096 -0.033106 0.052969
v 0.288338 -0.033106 -0.052970
v 0.275096 -0.033106 -0.052970
v 0.288338 0.086075 -0.052970
v 0.275096 0.086075 -0.052970
v 0.102945 0.145666 0.145666
v 0.102945 -0.119181 0.145666
v 0.182399 0.145666 0.145666
v 0.182399 -0.119181 0.145666
v 0.182399 0.145666 0.066212
v 0.182399 -0.119181 0.066212
v 0.102945 0.145666 0.066212
v 0.102945 -0.119181 0.066212
v 0.102945 0.145666 -0.066212
v 0.102945 -0.119181 -0.066212
v 0.182399 0.145666 -0.066212
v 0.182399 -0.119181 -0.066212
v 0.182399 0.145666 -0.145666
v 0.182399 -0.119181 -0.145666
v 0.102945 0.145666 -0.145666
v 0.102945 -0.119181 -0.145666
v 0.222126 -0.083998 0.105939
v 0.184671 -0.121453 0.105939
v 0.259581 -0.121453 0.105939
v 0.222126 -0.158909 0.105939
v 0.259581 -0.121453 -0.105939
v 0.222126 -0.158909 -0.105939
v 0.222126 -0.083998 -0.105939
v 0.184671 -0.121453 -0.105939
v 0.237641 -0.068484 0.105939
v 0.200186 -0.105939 0.105939
v 0.275096 -0.105939 0.105939
v 0.237641 -0.143394 0.105939
v 0.275096 -0.105939 -0.105939
v 0.237641 -0.143394 -0.105939
v 0.237641 -0.068484 -0.105939
v 0.200186 -0.105939 -0.105939
v 0.288338 -0.006621 0.026485
v 0.394277 -0.006621 0.026485
v 0.288338 0.059591 0.026485
v 0.394277 0.059591 0.026485
v 0.288338 0.059591 -0.026485
v 0.394277 0.059591 -0.026485
v 0.288338 -0.006621 -0.026485
v 0.394277 -0.006621 -0.026485
vt 0.0625 0.8750
vt 0.1250 0.8750
vt 0.1250 0.9375
vt 0.0625 0.9375
vt 0.1250 0.8750
vt 0.1250 0.9375
vt 0.0625 0.9375
vt 0.2500 0.8750
vt 0.3125 0.8750
vt 0.3125 0.9375
vt 0.2500 0.9375
vt 0.2500 0.8750
vt 0.3125 0.8750
vt 0.3125 0.9375
vt 0.2500 0.9375
vt 0.0625 0.8750
vt 0.1250 0.8750
vt 0.1250 0.9375
vt 0.0625 0.8750
vt 0.1250 0.8750
vt 0.1250 0.9375
vt 0.0625 0.9375
vt 0.0625 0.8750
vt 0.1250 0.8750
vt 0.1250 0.9375
vt 0.0625 0.9375
vt 0.2500 0.9375
vt 0.3125 0.9375
vt 0.3125 0.8750
vt 0.2500 0.8750
vt 0.2500 0.8750
vt 0.3125 0.9375
vt 0.2500 0.9375
vt 0.0625 0.8750
vt 0.1250 0.8750
vt 0.1250 0.9375
vt 0.0625 0.9375
vt 0.2500 0.8750
vt 0.3125 0.8750
vt 0.3125 0.9375
vt 0.2500 0.9375
vt 0.2500 0.8750
vt 0.3125 0.8750
vt 0.3125 0.9375
vt 0.2500 0.9375
vt 0.0625 0.8750
vt 0.1250 0.8750
vt 0.1250 0.9375
vt 0.0625 0.9375
vt 0.0625 0.8750
vt 0.1250 0.8750
vt 0.1250 0.9375
vt 0.0625 0.9375
vt 0.0625 0.8750
vt 0.1250 0.8750
vt 0.1250 0.9375
vt 0.0625 0.9375
vt 0.0625 0.8750
vt 0.1250 0.8750
vt 0.1250 0.9375
vt 0.2500 0.8750
vt 0.3125 0.8750
vt 0.2500 0.9375
vt 0.0625 0.8750
vt 0.1250 0.8750
vt 0.1250 0.9375
vt 0.0625 0.9375
vt 0.2500 0.8750
vt 0.3125 0.8750
vt 0.3125 0.9375
vt 0.2500 0.9375
vt 0.0625 0.8750
vt 0.1250 0.8750
vt 0.1250 0.9375
vt 0.0625 0.9375
vt 0.0625 0.8750
vt 0.1250 0.8750
vt 0.1250 0.9375
vt 0.0625 0.9375
vt 0.0625 0.8750
vt 0.1250 0.8750
vt 0.1250 0.9375
vt 0.0625 0.8750
vt 0.1250 0.8750
vt 0.1250 0.9375
vt 0.0625 0.9375
vt 0.3125 0.9375
vt 0.2500 0.9375
vt 0.0625 0.8750
vt 0.1250 0.8750
vt 0.1250 0.9375
vt 0.0625 0.9375
vt 0.2500 0.9375
vt 0.3125 0.9375
vt 0.3125 0.8750
vt 0.2500 0.8750
vt 0.1250 0.8750
vt 0.1250 0.9375
vt 0.0625 0.9375
vt 0.1250 0.8750
vt 0.1250 0.9375
vt 0.0625 0.9375
vt 0.0625 0.8750
vt 0.1250 0.8750
vt 0.1250 0.9375
vt 0.2500 0.8750
vt 0.3125 0.8750
vt 0.0625 0.8750
vt 0.1250 0.8750
vt 0.1250 0.9375
vt 0.0625 0.9375
vt 0.2500 0.9375
vt 0.3125 0.9375
vt 0.2500 0.8750
vt 0.0625 0.8750
vt 0.0625 0.9375
vt 0.0625 0.8750
vt 0.0625 0.9375
vt 0.2500 0.8750
vt 0.3125 0.8750
vt 0.3125 0.9375
vt 0.2500 0.9375
vt 0.0625 0.8750
vt 0.1250 0.8750
vt 0.1250 0.9375
vt 0.0625 0.8750
vt 0.1250 0.8750
vt 0.1250 0.9375
vt 0.0625 0.9375
vt 0.2500 0.9375
vt 0.3125 0.9375
vt 0.3125 0.8750
vt 0.0625 0.8750
vt 0.1250 0.8750
vt 0.1250 0.9375
vt 0.0625 0.9375
vt 0.0625 0.8750
vt 0.1250 0.8750
vt 0.1250 0.9375
vt 0.0625 0.9375
vt 0.1250 0.8750
vt 0.1250 0.9375
vt 0.0625 0.9375
vt 0.2500 0.9375
vt 0.3125 0.9375
vt 0.3125 0.8750
vt 0.2500 0.8750
vt 0.3125 0.8750
vt 0.2500 0.8750
vt 0.0625 0.8750
vt 0.1250 0.8750
vt 0.1250 0.9375
vt 0.0625 0.9375
vt 0.0625 0.8750
vt 0.1250 0.8750
vt 0.0625 0.8750
vt 0.0625 0.9375
vt 0.0625 0.8750
vt 0.1250 0.8750
vt 0.1250 0.9375
vt 0.0625 0.9375
vt 0.0625 0.8750
vt 0.1250 0.8750
vt 0.1250 0.9375
vt 0.0625 0.9375
vt 0.3125 0.8750
vt 0.3125 0.9375
vt 0.0625 0.8750
vt 0.1250 0.8750
vt 0.0625 0.9375
vt 0.2500 0.8750
vt 0.3125 0.8750
vt 0.3125 0.9375
vt 0.2500 0.9375
vt 0.0625 0.8750
vt 0.0625 0.9375
vt 0.1250 0.9375
vt 0.0625 0.9375
vt 0.1250 0.9375
vt 0.0625 0.9375
vn -1.0000 0.0000 0.0000
vn 0.0000 0.0000 -1.0000
vn 0.0000 0.0000 1.0000
vn 1.0000 0.0000 -0.0000
vn 0.0000 -1.0000 0.0000
vn 0.0000 1.0000 -0.0000
vn 0.7071 0.7071 -0.0000
vn -0.7071 0.7071 0.0000
vn 0.7071 -0.7071 -0.0000
vn -0.7071 -0.7071 0.0000
usemtl m_0.001
s 1
f 14/1/1 12/2/1 10/3/1 16/4/1
f 14/1/2 16/5/2 15/6/2 13/7/2
f 34/8/3 36/9/3 35/10/3 33/11/3
f 36/12/4 38/13/4 37/14/4 35/15/4
f 15/16/4 9/17/4 11/18/4 13/7/4
f 31/19/4 25/20/4 27/21/4 29/22/4
f 6/23/2 8/24/2 7/25/2 5/26/2
f 66/27/3 68/28/3 67/29/3 65/30/3
f 38/31/5 36/9/5 34/32/5 40/33/5
f 16/34/6 10/35/6 9/36/6 15/37/6
f 48/38/1 42/39/1 41/40/1 47/41/1
f 46/42/2 48/43/2 47/44/2 45/45/2
f 12/46/5 14/47/5 13/48/5 11/49/5
f 62/50/2 64/51/2 63/52/2 61/53/2
f 55/54/7 49/55/7 51/56/7 53/57/7
f 54/58/2 56/59/2 55/60/2 53/57/2
f 39/61/6 33/62/6 35/10/6 37/63/6
f 22/64/2 24/65/2 23/66/2 21/67/2
f 42/68/3 44/69/3 43/70/3 41/71/3
f 58/72/3 60/73/3 59/74/3 57/75/3
f 28/76/5 30/77/5 29/78/5 27/79/5
f 7/80/4 1/81/4 3/82/4 5/26/4
f 20/83/5 22/84/5 21/85/5 19/86/5
f 46/42/5 44/69/5 42/87/5 48/88/5
f 32/89/6 26/90/6 25/91/6 31/92/6
f 72/93/5 66/94/5 65/95/5 71/96/5
f 6/23/1 4/97/1 2/98/1 8/99/1
f 22/64/1 20/100/1 18/101/1 24/102/1
f 23/103/4 17/104/4 19/105/4 21/67/4
f 47/106/6 41/107/6 43/70/6 45/45/6
f 8/108/6 2/109/6 1/110/6 7/111/6
f 71/112/1 65/113/1 67/29/1 69/114/1
f 18/115/3 20/100/3 19/105/3 17/116/3
f 2/117/3 4/97/3 3/82/3 1/118/3
f 44/119/4 46/120/4 45/121/4 43/122/4
f 30/123/2 32/124/2 31/125/2 29/22/2
f 56/126/8 50/127/8 49/128/8 55/129/8
f 70/130/2 72/131/2 71/132/2 69/114/2
f 24/133/6 18/134/6 17/135/6 23/136/6
f 60/137/9 62/138/9 61/139/9 59/140/9
f 54/58/10 52/141/10 50/142/10 56/143/10
f 68/144/6 70/145/6 69/146/6 67/147/6
f 70/130/4 68/28/4 66/148/4 72/149/4
f 52/150/9 54/151/9 53/152/9 51/153/9
f 63/154/7 57/155/7 59/74/7 61/53/7
f 10/156/3 12/2/3 11/18/3 9/157/3
f 64/158/8 58/159/8 57/160/8 63/161/8
f 4/162/5 6/163/5 5/164/5 3/165/5
f 38/31/2 40/166/2 39/167/2 37/63/2
f 26/168/3 28/169/3 27/21/3 25/170/3
f 40/171/1 34/172/1 33/173/1 39/174/1
f 50/175/3 52/141/3 51/56/3 49/176/3
f 30/123/1 28/169/1 26/177/1 32/178/1
f 62/50/10 60/73/10 58/179/10 64/180/10
o axle
v 0.195642 0.158909 -0.052970
v 0.089702 0.158909 -0.052970
v 0.195642 -0.105939 -0.052970
v 0.089702 -0.105939 -0.052970
v 0.195642 -0.105939 -0.158909
v 0.089702 -0.105939 -0.158909
v 0.195642 0.158909 -0.158909
v 0.089702 0.158909 -0.158909
v 0.195642 0.158909 0.158909
v 0.089703 0.158909 0.158909
v 0.195642 -0.105939 0.158909
v 0.089703 -0.105939 0.158909
v 0.195642 -0.105939 0.052969
v 0.089703 -0.105939 0.052970
v 0.195642 0.158909 0.052969
v 0.089703 0.158909 0.052970
v 0.208884 0.211878 0.172151
v 0.076460 0.211878 0.172151
v 0.208884 0.158909 0.172151
v 0.076460 0.158909 0.172151
v 0.208884 0.158909 -0.172151
v 0.076460 0.158909 -0.172151
v 0.208884 0.211878 -0.172151
v 0.076460 0.211878 -0.172151
v 0.076460 0.198636 -0.052970
v 0.049975 0.198636 -0.052970
v 0.076460 0.172151 -0.052970
v 0.049975 0.172151 -0.052970
v 0.076460 0.172151 -0.158909
v 0.049975 0.172151 -0.158909
v 0.076460 0.198636 -0.158909
v 0.049975 0.198636 -0.158909
v 0.076460 0.198636 0.158909
v 0.049975 0.198636 0.158909
v 0.076460 0.172151 0.158909
v 0.049975 0.172151 0.158909
v 0.076460 0.172151 0.052970
v 0.049975 0.172151 0.052970
v 0.076460 0.198636 0.052970
v 0.049975 0.198636 0.052970
v 0.049975 0.198636 0.158909
v 0.036733 0.198636 0.158909
v 0.049975 0.172151 0.158909
v 0.036733 0.172151 0.158909
v 0.049975 0.172151 -0.158909
v 0.036733 0.172151 -0.158909
v 0.049975 0.198636 -0.158909
v 0.036733 0.198636 -0.158909
v 0.076460 0.105939 0.105939
v -0.030097 0.105939 0.105939
v 0.076460 -0.105939 0.105939
v -0.030097 -0.105939 0.105939
v 0.076460 -0.105939 -0.105939
v -0.030097 -0.105939 -0.105939
v 0.076460 0.105939 -0.105939
v -0.030097 0.105939 -0.105939
v 0.063218 0.172151 -0.066212
v 0.036733 0.172151 -0.066212
v 0.063218 0.105939 -0.066212
v 0.036733 0.105939 -0.066212
v 0.063218 0.105939 -0.092697
v 0.036733 0.105939 -0.092697
v 0.063218 0.172151 -0.092697
v 0.036733 0.172151 -0.092697
v 0.063218 0.172151 0.092697
v 0.036733 0.172151 0.092697
v 0.063218 0.105939 0.092697
v 0.036733 0.105939 0.092697
v 0.063218 0.105939 0.066212
v 0.036733 0.105939 0.066212
v 0.063218 0.172151 0.066212
v 0.036733 0.172151 0.066212
v 0.063218 0.172151 -0.013242
v 0.036733 0.172151 -0.013242
v 0.063218 0.105939 -0.013242
v 0.036733 0.105939 -0.013242
v 0.063218 0.105939 -0.039727
v 0.036733 0.105939 -0.039727
v 0.063218 0.172151 -0.039727
v 0.036733 0.172151 -0.039727
v 0.063218 0.172151 0.039727
v 0.036733 0.172151 0.039727
v 0.063218 0.105939 0.039727
v 0.036733 0.105939 0.039727
v 0.063218 0.105939 0.013242
v 0.036733 0.105939 0.013242
v 0.063218 0.172151 0.013242
v 0.036733 0.172151 0.013242
vt 0.0625 0.8750
vt 0.1250 0.8750
vt 0.1250 0.9375
vt 0.0625 0.9375
vt 0.0625 0.8750
vt 0.1250 0.8750
vt 0.1250 0.9375
vt 0.0625 0.9375
vt 0.0000 0.0000
vt 0.8125 0.0000
vt 0.8125 0.2500
vt 0.0000 0.2500
vt 0.8125 0.0000
vt 0.8125 0.2500
vt 0.0000 0.2500
vt 0.0000 0.0000
vt 0.0625 0.8750
vt 0.1250 0.8750
vt 0.1250 0.9375
vt 0.0625 0.9375
vt 0.0625 0.8750
vt 0.1250 0.8750
vt 0.1250 0.9375
vt 0.0625 0.9375
vt 0.0625 0.8750
vt 0.1250 0.8750
vt 0.1250 0.9375
vt 0.0625 0.9375
vt 0.0625 0.8750
vt 0.1250 0.8750
vt 0.1250 0.9375
vt 0.0625 0.9375
vt 0.0625 0.8750
vt 0.1250 0.8750
vt 0.1250 0.9375
vt 0.0625 0.9375
vt 0.0625 0.8750
vt 0.1250 0.8750
vt 0.1250 0.9375
vt 0.0625 0.9375
vt 0.8125 0.0000
vt 0.8125 0.2500
vt 0.0000 0.2500
vt 0.0000 0.0000
vt 0.4375 0.8750
vt 0.5000 0.8750
vt 0.5000 0.9375
vt 0.4375 0.9375
vt 0.0625 0.8750
vt 0.1250 0.8750
vt 0.1250 0.9375
vt 0.0625 0.9375
vt 0.0625 0.8750
vt 0.1250 0.8750
vt 0.1250 0.9375
vt 0.0625 0.9375
vt 0.0625 0.8750
vt 0.1250 0.9375
vt 0.0625 0.9375
vt 0.0625 0.8750
vt 0.1250 0.8750
vt 0.1250 0.9375
vt 0.0625 0.9375
vt 0.0625 0.8750
vt 0.1250 0.8750
vt 0.1250 0.9375
vt 0.0625 0.9375
vt 0.0625 0.8750
vt 0.1250 0.8750
vt 0.1250 0.9375
vt 0.0625 0.9375
vt 0.0625 0.8750
vt 0.1250 0.8750
vt 0.1250 0.9375
vt 0.0625 0.9375
vt 0.0625 0.8750
vt 0.1250 0.8750
vt 0.0625 0.9375
vt 0.0625 0.8750
vt 0.1250 0.8750
vt 0.1250 0.9375
vt 0.0625 0.8750
vt 0.1250 0.8750
vt 0.1250 0.9375
vt 0.0625 0.9375
vt 0.0625 0.8750
vt 0.1250 0.8750
vt 0.1250 0.9375
vt 0.0625 0.9375
vt 0.0625 0.8750
vt 0.1250 0.8750
vt 0.1250 0.9375
vt 0.0625 0.9375
vt 0.1250 0.8750
vt 0.1250 0.9375
vt 0.0625 0.9375
vt 0.0625 0.8750
vt 0.1250 0.8750
vt 0.1250 0.9375
vt 0.0625 0.9375
vt 0.4375 0.8750
vt 0.5000 0.8750
vt 0.5000 0.9375
vt 0.4375 0.9375
vt 0.0625 0.8750
vt 0.1250 0.8750
vt 0.1250 0.8750
vt 0.1250 0.9375
vt 0.0625 0.9375
vt 0.4375 0.8750
vt 0.5000 0.8750
vt 0.5000 0.9375
vt 0.4375 0.9375
vt 0.0625 0.8750
vt 0.1250 0.8750
vt 0.1250 0.9375
vt 0.0625 0.9375
vt 0.0625 0.8750
vt 0.1250 0.8750
vt 0.1250 0.9375
vt 0.0625 0.9375
vt 0.0625 0.8750
vt 0.1250 0.8750
vt 0.0625 0.9375
vt 0.0625 0.8750
vt 0.0625 0.9375
vt 0.0625 0.8750
vt 0.1250 0.8750
vt 0.0625 0.9375
vt 0.0625 0.8750
vt 0.1250 0.8750
vt 0.1250 0.9375
vt 0.0625 0.9375
vt 0.0625 0.8750
vt 0.1250 0.8750
vt 0.1250 0.9375
vt 0.0625 0.9375
vt 0.1250 0.8750
vt 0.1250 0.9375
vt 0.0625 0.9375
vt 0.0625 0.8750
vt 0.1250 0.9375
vt 0.0625 0.9375
vt 0.0625 0.8750
vt 0.1250 0.8750
vt 0.1250 0.9375
vt 0.0625 0.9375
vt 0.0625 0.8750
vt 0.1250 0.8750
vt 0.1250 0.8750
vt 0.1250 0.9375
vt 0.0625 0.8750
vt 0.0625 0.9375
vt 0.0625 0.8750
vt 0.1250 0.8750
vt 0.1250 0.9375
vt 0.0625 0.9375
vt 0.0000 0.2500
vt 0.0000 0.0000
vt 0.8125 0.0000
vt 0.8125 0.2500
vt 0.0625 0.8750
vt 0.1250 0.8750
vt 0.1250 0.9375
vt 0.0625 0.8750
vt 0.1250 0.8750
vt 0.1250 0.9375
vt 0.0625 0.8750
vt 0.1250 0.8750
vt 0.1250 0.9375
vt 0.0625 0.9375
vt 0.0000 0.0000
vt 0.8125 0.0000
vt 0.8125 0.2500
vt 0.0000 0.2500
vt 0.1250 0.9375
vt 0.0625 0.9375
vt 0.0625 0.8750
vt 0.1250 0.8750
vt 0.1250 0.9375
vt 0.0625 0.9375
vt 0.0625 0.8750
vt 0.1250 0.8750
vt 0.0625 0.9375
vt 0.0625 0.8750
vt 0.1250 0.9375
vt 0.0625 0.9375
vt 0.0625 0.8750
vt 0.1250 0.8750
vt 0.1250 0.9375
vt 0.0625 0.9375
vt 0.0000 0.2500
vt 0.0000 0.0000
vt 0.8125 0.0000
vt 0.8125 0.2500
vt 0.8125 0.2500
vt 0.0000 0.2500
vt 0.0000 0.0000
vt 0.8125 0.0000
vt 0.0625 0.8750
vt 0.1250 0.8750
vt 0.1250 0.9375
vt 0.0625 0.9375
vt 0.4375 0.8750
vt 0.5000 0.8750
vt 0.5000 0.9375
vt 0.4375 0.9375
vt 0.1250 0.9375
vt 0.0625 0.9375
vt 0.1250 0.8750
vt 0.1250 0.9375
vt 0.0625 0.8750
vt 0.0625 0.9375
vt 0.0625 0.8750
vt 0.1250 0.8750
vt 0.1250 0.9375
vt 0.0625 0.9375
vt 0.0625 0.8750
vt 0.1250 0.8750
vt 0.1250 0.9375
vt 0.1250 0.9375
vt 0.0625 0.9375
vt 0.1250 0.8750
vt 0.1250 0.9375
vt 0.8125 0.2500
vt 0.0000 0.2500
vt 0.0000 0.0000
vt 0.8125 0.0000
vn -1.0000 0.0000 0.0000
vn 0.0000 1.0000 -0.0000
vn -0.0000 -0.0000 -1.0000
vn 1.0000 0.0000 -0.0000
vn 0.0000 -1.0000 0.0000
vn 0.0000 0.0000 1.0000
usemtl m_0.001
s 1
f 142/181/11 140/182/11 138/183/11 144/184/11
f 136/185/12 130/186/12 129/187/12 135/188/12
f 78/189/13 80/190/13 79/191/13 77/192/13
f 87/193/14 81/194/14 83/195/14 85/196/14
f 111/197/14 105/198/14 107/199/14 109/200/14
f 100/201/15 102/202/15 101/203/15 99/204/15
f 140/205/15 142/206/15 141/207/15 139/208/15
f 119/209/14 113/210/14 115/211/14 117/212/14
f 126/213/11 124/214/11 122/215/11 128/216/11
f 150/217/13 152/218/13 151/219/13 149/220/13
f 79/221/14 73/222/14 75/223/14 77/224/14
f 88/225/12 82/226/12 81/227/12 87/228/12
f 154/229/16 156/230/16 155/231/16 153/232/16
f 116/233/15 118/234/15 117/235/15 115/236/15
f 138/237/16 140/182/16 139/238/16 137/239/16
f 98/240/16 100/241/16 99/242/16 97/243/16
f 152/244/12 146/245/12 145/246/12 151/247/12
f 132/248/15 134/249/15 133/250/15 131/251/15
f 127/252/14 121/253/14 123/254/14 125/255/14
f 159/256/14 153/257/14 155/231/14 157/258/14
f 110/259/13 112/260/13 111/261/13 109/200/13
f 108/262/15 110/263/15 109/264/15 107/265/15
f 156/266/15 158/267/15 157/268/15 155/269/15
f 130/270/16 132/271/16 131/272/16 129/273/16
f 150/217/11 148/274/11 146/275/11 152/276/11
f 134/277/13 136/278/13 135/279/13 133/280/13
f 84/281/15 86/282/15 85/283/15 83/284/15
f 135/285/14 129/286/14 131/272/14 133/280/14
f 110/259/11 108/287/11 106/288/11 112/289/11
f 80/290/12 74/291/12 73/292/12 79/293/12
f 112/294/12 106/295/12 105/296/12 111/297/12
f 94/298/13 96/299/13 95/300/13 93/301/13
f 143/302/14 137/303/14 139/238/14 141/304/14
f 122/305/16 124/214/16 123/254/16 121/306/16
f 103/307/14 97/308/14 99/242/14 101/309/14
f 124/310/15 126/311/15 125/312/15 123/313/15
f 144/314/12 138/315/12 137/316/12 143/317/12
f 94/298/11 92/318/11 90/319/11 96/320/11
f 90/321/16 92/318/16 91/322/16 89/323/16
f 148/324/15 150/325/15 149/326/15 147/327/15
f 95/328/14 89/329/14 91/322/14 93/301/14
f 142/181/13 144/330/13 143/331/13 141/304/13
f 106/332/16 108/287/16 107/199/16 105/333/16
f 92/334/15 94/335/15 93/336/15 91/337/15
f 78/338/11 76/339/11 74/340/11 80/341/11
f 151/342/14 145/343/14 147/344/14 149/220/14
f 158/345/13 160/346/13 159/347/13 157/258/13
f 160/348/12 154/349/12 153/350/12 159/351/12
f 86/352/13 88/353/13 87/354/13 85/355/13
f 134/277/11 132/271/11 130/356/11 136/357/11
f 120/358/12 114/359/12 113/360/12 119/361/12
f 114/362/16 116/363/16 115/211/16 113/364/16
f 102/365/11 100/241/11 98/366/11 104/367/11
f 96/368/12 90/369/12 89/370/12 95/371/12
f 86/372/11 84/373/11 82/374/11 88/375/11
f 82/376/16 84/377/16 83/378/16 81/379/16
f 104/380/12 98/381/12 97/382/12 103/383/12
f 76/384/15 78/385/15 77/386/15 75/387/15
f 158/345/11 156/230/11 154/388/11 160/389/11
f 102/365/13 104/390/13 103/391/13 101/309/13
f 146/392/16 148/274/16 147/344/16 145/393/16
f 128/394/12 122/395/12 121/396/12 127/397/12
f 118/398/13 120/399/13 119/400/13 117/212/13
f 118/398/11 116/363/11 114/401/11 120/402/11
f 126/213/13 128/403/13 127/404/13 125/255/13
f 74/405/16 76/406/16 75/407/16 73/408/16
