# Blender v2.78 (sub 0) OBJ File: 'kartparts.blend'
# www.blender.org
mtllib mk50.mtl
o cube
v 0.137898 0.157429 0.000000
v 0.137898 0.000000 0.000000
v 0.137898 -0.000000 0.308299
v 0.137898 0.157429 0.308299
v -0.074599 -0.122188 -0.000000
v 0.036720 -0.010868 -0.000000
v 0.036720 -0.010868 0.308299
v -0.074599 -0.122188 0.308299
v 0.321566 0.144310 0.295180
v 0.321566 0.013119 0.295180
v 0.321566 0.013119 0.163989
v 0.321566 0.144310 0.163989
v -0.255970 0.013119 0.019679
v -0.255970 0.013119 0.150870
v -0.321566 0.013119 0.150870
v -0.321566 0.013119 0.019679
v 0.255970 0.144310 0.295180
v 0.255970 0.013119 0.295180
v -0.100837 0.227140 0.308299
v 0.010675 0.227140 0.308299
v 0.010675 0.227140 0.000000
v -0.100837 0.227140 0.000000
v -0.255970 0.144310 0.150870
v -0.321566 0.144310 0.150870
v -0.137944 -0.032605 -0.000000
v -0.249262 0.078715 0.000000
v -0.100837 0.227140 0.000000
v 0.010482 0.115821 0.000000
v -0.255970 -0.000000 0.308299
v -0.255970 0.157429 0.308299
v -0.255970 0.157429 0.000000
v -0.255970 0.000000 0.000000
v -0.111705 0.137557 0.000000
v -0.111705 0.137557 0.308299
v 0.255970 0.013119 0.163989
v 0.255970 0.144310 0.163989
v -0.137898 0.000000 0.000000
v -0.137898 0.157429 0.000000
v -0.137898 0.157429 0.308299
v -0.137898 -0.000000 0.308299
v -0.249262 0.078715 0.308299
v -0.100837 0.227140 0.308299
v 0.137944 -0.032605 -0.000000
v 0.137944 -0.032605 0.308299
v -0.010482 0.115821 0.308299
v -0.010482 0.115821 0.000000
v 0.111705 0.137557 0.308299
v 0.223025 0.026238 0.308299
v 0.223025 0.026238 0.000000
v 0.111705 0.137557 0.000000
v 0.255970 0.000000 0.000000
v 0.255970 -0.000000 0.308299
v 0.074599 -0.122188 0.308299
v 0.074599 -0.122188 -0.000000
v 0.074599 0.127075 0.000000
v 0.074599 0.127075 0.308299
v -0.223025 0.026238 0.000000
v -0.223025 0.026238 0.308299
v -0.223025 0.065595 0.308299
v -0.223025 0.065595 0.000000
v 0.074599 -0.122188 0.308299
v 0.074599 -0.122188 -0.000000
v -0.137944 -0.032605 0.308299
v 0.010482 0.115821 0.308299
v -0.223025 0.026238 0.308299
v -0.223025 0.026238 0.000000
v 0.255970 0.144310 0.019679
v 0.255970 0.013119 0.019679
v 0.255970 0.013119 0.150870
v 0.255970 0.144310 0.150870
v -0.321566 0.144310 0.019679
v -0.074599 0.127075 0.308299
v 0.010675 0.127075 0.308299
v 0.010675 0.127075 0.000000
v -0.074599 0.127075 0.000000
v 0.100837 0.227140 0.308299
v 0.100837 0.227140 0.000000
v -0.036720 -0.010868 -0.000000
v 0.010675 -0.122188 0.308299
v 0.010675 -0.122188 -0.000000
v -0.255970 0.144310 0.019679
v -0.010675 0.227140 0.308299
v 0.100837 0.227140 0.308299
v 0.100837 0.227140 0.000000
v -0.010675 0.227140 0.000000
v -0.010675 -0.022122 -0.000000
v 0.100837 -0.022122 -0.000000
v 0.100837 -0.022122 0.308299
v -0.010675 -0.022122 0.308299
v -0.010675 -0.122188 -0.000000
v -0.010675 -0.122188 0.308299
v -0.255970 0.144310 0.163989
v -0.255970 0.013119 0.163989
v -0.321566 0.013119 0.163989
v -0.321566 0.144310 0.163989
v -0.255970 0.144310 0.295180
v -0.321566 0.144310 0.295180
v 0.255970 0.157429 0.000000
v -0.036720 -0.010868 0.308299
v 0.010675 -0.022122 -0.000000
v -0.100837 -0.022122 -0.000000
v -0.074599 -0.122188 -0.000000
v -0.074599 -0.122188 0.308299
v 0.255970 0.157429 0.308299
v 0.249262 0.078715 0.000000
v 0.249262 0.078715 0.308299
v 0.223025 0.026238 0.308299
v 0.223025 0.065595 0.308299
v -0.255970 0.013119 0.295180
v -0.010675 0.127075 0.000000
v -0.321566 0.013119 0.295180
v -0.010675 0.127075 0.308299
v 0.223025 0.026238 0.000000
v 0.223025 0.065595 0.000000
v -0.100837 -0.022122 0.308299
v 0.321566 0.144310 0.150870
v 0.321566 0.144310 0.019679
v 0.010675 -0.022122 0.308299
v 0.321566 0.013119 0.150870
v 0.321566 0.013119 0.019679
vt 0.0625 0.9375
vt 0.1250 0.9375
vt 0.1250 1.0000
vt 0.0625 1.0000
vt 0.1250 0.9375
vt 0.0625 0.9375
vt 0.0625 1.0000
vt 0.1250 1.0000
vt 0.6875 0.6875
vt 1.0000 0.6875
vt 1.0000 1.0000
vt 0.6875 1.0000
vt 0.0625 0.9375
vt 0.0000 0.9375
vt 0.0000 1.0000
vt 0.0625 1.0000
vt 0.0000 0.9375
vt 0.0625 0.9375
vt 0.0625 1.0000
vt 0.0000 1.0000
vt 0.0625 1.0000
vt 0.1250 1.0000
vt 0.1250 0.9375
vt 0.0625 0.9375
vt 0.0625 0.9375
vt 0.0000 0.9375
vt 0.0000 1.0000
vt 0.0625 1.0000
vt 0.1250 1.0000
vt 0.0625 1.0000
vt 0.0625 0.9375
vt 0.1250 0.9375
vt 0.1250 0.9375
vt 0.0625 0.9375
vt 0.0625 1.0000
vt 0.1250 1.0000
vt 0.1250 0.9375
vt 0.0625 1.0000
vt 0.1250 1.0000
vt 0.0000 0.9375
vt 0.0625 0.9375
vt 0.0625 1.0000
vt 0.0000 1.0000
vt 0.0000 0.9375
vt 0.0625 0.9375
vt 0.0625 1.0000
vt 0.0000 1.0000
vt 0.1250 0.9375
vt 0.0625 0.9375
vt 0.0625 1.0000
vt 0.1250 1.0000
vt 0.1250 1.0000
vt 0.0625 1.0000
vt 0.0625 0.9375
vt 0.1250 0.9375
vt 0.0625 1.0000
vt 0.1250 1.0000
vt 0.1250 0.9375
vt 0.0625 0.9375
vt 0.0625 0.9375
vt 0.1250 0.9375
vt 0.1250 1.0000
vt 0.0625 1.0000
vt 0.0625 0.9375
vt 0.1250 1.0000
vt 0.0625 1.0000
vt 0.0625 0.9375
vt 0.1250 0.9375
vt 0.1250 1.0000
vt 0.0625 1.0000
vt 0.0625 0.9375
vt 0.1250 0.9375
vt 0.1250 1.0000
vt 0.0625 1.0000
vt 0.0625 0.9375
vt 0.1250 0.9375
vt 0.0625 1.0000
vt 0.1250 1.0000
vt 0.0625 1.0000
vt 0.0625 0.9375
vt 0.1250 0.9375
vt 0.1250 0.9375
vt 0.0625 0.9375
vt 0.1250 1.0000
vt 0.0000 0.9375
vt 0.0625 0.9375
vt 0.0625 1.0000
vt 0.0000 1.0000
vt 1.0000 0.6875
vt 0.6875 0.6875
vt 0.6875 1.0000
vt 1.0000 1.0000
vt 0.0625 0.9375
vt 0.1250 0.9375
vt 0.1250 1.0000
vt 0.0625 1.0000
vt 0.0625 1.0000
vt 0.1250 1.0000
vt 0.1250 0.9375
vt 0.0625 0.9375
vt 0.1250 0.9375
vt 0.1250 1.0000
vt 0.0625 1.0000
vt 0.0625 0.9375
vt 0.1250 0.9375
vt 0.0625 1.0000
vt 0.1250 0.9375
vt 0.0625 0.9375
vt 0.0625 1.0000
vt 0.1250 1.0000
vt 0.0000 0.9375
vt 0.0000 1.0000
vt 0.0625 1.0000
vt 0.0625 1.0000
vt 0.1250 1.0000
vt 0.1250 0.9375
vt 0.0625 0.9375
vt 0.0625 1.0000
vt 0.1250 1.0000
vt 0.1250 0.9375
vt 0.0625 0.9375
vt 0.0625 0.9375
vt 0.1250 1.0000
vt 0.0625 1.0000
vt 0.0625 0.9375
vt 0.0000 0.9375
vt 0.0000 1.0000
vt 0.0625 1.0000
vt 0.0625 0.9375
vt 0.0000 0.9375
vt 0.0000 1.0000
vt 0.0625 1.0000
vt 0.0625 0.9375
vt 0.1250 0.9375
vt 0.1250 1.0000
vt 0.0625 1.0000
vt 0.0625 0.9375
vt 0.1250 0.9375
vt 0.1250 1.0000
vt 0.0625 0.9375
vt 0.1250 0.9375
vt 0.1250 1.0000
vt 0.0625 1.0000
vt 0.0625 1.0000
vt 0.1250 1.0000
vt 0.1250 0.9375
vt 0.0625 0.9375
vt 0.0625 0.9375
vt 0.1250 1.0000
vt 0.0625 1.0000
vt 0.1250 1.0000
vt 0.0625 1.0000
vt 0.0625 0.9375
vt 0.1250 0.9375
vt 0.0625 1.0000
vt 0.0625 0.9375
vt 0.0625 1.0000
vt 0.1250 1.0000
vt 0.1250 0.9375
vt 0.0625 0.9375
vt 0.0625 1.0000
vt 0.1250 1.0000
vt 0.1250 0.9375
vt 0.0625 0.9375
vt 0.0625 1.0000
vt 0.1250 1.0000
vt 0.1250 0.9375
vt 0.0625 0.9375
vt 0.0625 1.0000
vt 0.1250 1.0000
vt 0.1250 0.9375
vt 0.0625 0.9375
vt 0.0625 0.9375
vt 0.1250 0.9375
vt 0.1250 1.0000
vt 0.0625 1.0000
vt 0.1250 1.0000
vt 0.0625 1.0000
vt 0.0625 0.9375
vt 0.1250 0.9375
vt 0.1250 0.9375
vt 0.1250 1.0000
vt 0.0625 1.0000
vt 0.0625 0.9375
vt 0.1250 1.0000
vt 0.1250 0.9375
vt 0.0625 0.9375
vt 0.1250 0.9375
vt 0.1250 1.0000
vt 0.0625 1.0000
vt 0.1250 0.9375
vt 0.0625 0.9375
vt 0.0625 1.0000
vt 0.1250 1.0000
vt 0.0625 0.9375
vt 0.0000 1.0000
vt 0.0625 1.0000
vt 0.0625 0.9375
vt 0.1250 0.9375
vt 0.1250 1.0000
vt 0.0625 1.0000
vt 0.0625 1.0000
vt 0.1250 1.0000
vt 0.1250 0.9375
vt 0.0625 0.9375
vt 0.0000 0.9375
vt 0.0000 1.0000
vt 0.0625 1.0000
vt 0.0625 0.9375
vt 0.1250 0.9375
vt 0.1250 1.0000
vt 0.0625 1.0000
vt 0.1250 0.9375
vt 0.0625 0.9375
vt 0.0625 1.0000
vt 0.1250 1.0000
vt 0.0625 0.9375
vt 0.1250 0.9375
vt 0.1250 1.0000
vt 0.0625 1.0000
vt 0.0625 1.0000
vt 0.0625 0.9375
vt 0.0625 0.9375
vt 0.1250 0.9375
vt 0.1250 1.0000
vt 0.0625 1.0000
vt 0.0625 0.9375
vt 0.1250 0.9375
vt 0.1250 1.0000
vt 0.0625 1.0000
vt 0.1250 1.0000
vt 0.0625 1.0000
vt 0.0625 0.9375
vt 0.1250 0.9375
vt 0.1250 1.0000
vt 0.0625 1.0000
vt 0.0625 1.0000
vt 0.1250 1.0000
vt 0.1250 0.9375
vt 0.0625 0.9375
vt 0.0625 1.0000
vt 0.0000 1.0000
vt 0.0625 1.0000
vt 0.1250 1.0000
vt 0.1250 0.9375
vt 0.0625 0.9375
vt 0.1250 0.9375
vt 0.1250 1.0000
vt 0.0625 0.9375
vt 0.0625 1.0000
vt 0.0625 1.0000
vt 0.1250 1.0000
vt 0.0625 0.9375
vt 0.0000 0.9375
vt 0.0625 1.0000
vt 0.0000 1.0000
vt 0.0000 0.9375
vt 0.0625 0.9375
vt 0.0625 1.0000
vt 0.0000 1.0000
vt 0.0625 0.9375
vt 0.0000 0.9375
vt 0.0000 1.0000
vt 0.0625 1.0000
vt 0.0625 0.9375
vt 0.0000 1.0000
vt 0.0625 1.0000
vt 0.0625 0.9375
vt 0.1250 0.9375
vt 0.1250 1.0000
vt 0.0625 1.0000
vt 0.0625 0.9375
vt 0.1250 0.9375
vt 0.1250 0.9375
vt 0.1250 1.0000
vt 0.0625 0.9375
vt 0.0000 0.9375
vt 0.0000 1.0000
vt 0.0625 1.0000
vt 0.0000 0.9375
vt 0.0625 1.0000
vt 0.0000 1.0000
vt 0.1250 0.9375
vt 0.0625 0.9375
vt 0.0625 1.0000
vt 0.1250 1.0000
vt 1.0000 0.6875
vt 0.6875 0.6875
vt 0.6875 1.0000
vt 1.0000 1.0000
vt 0.0625 0.9375
vt 0.1250 0.9375
vt 0.0625 1.0000
vt 0.1250 0.9375
vt 0.0625 0.9375
vt 0.0000 0.9375
vt 0.0625 0.9375
vt 0.0625 1.0000
vt 0.0000 1.0000
vt 0.1250 0.9375
vt 0.1250 1.0000
vt 0.6875 0.6875
vt 1.0000 0.6875
vt 1.0000 1.0000
vt 0.6875 1.0000
vt 0.0625 0.9375
vt 0.0625 1.0000
vt 0.0000 1.0000
vn -1.0000 0.0000 0.0000
vn 0.7071 -0.7071 -0.0000
vn 1.0000 0.0000 0.0000
vn 0.0000 -1.0000 -0.0000
vn 0.0000 0.0000 1.0000
vn 0.0000 1.0000 0.0000
vn 0.0000 0.0000 -1.0000
vn 0.7071 0.7071 0.0000
vn -0.7071 0.7071 0.0000
vn -0.7071 -0.7071 -0.0000
usemtl m_0
s 1
f 1/1/1 2/2/1 3/3/1 4/4/1
f 5/5/2 6/6/2 7/7/2 8/8/2
f 9/9/3 10/10/3 11/11/3 12/12/3
f 13/13/4 14/14/4 15/15/4 16/16/4
f 17/17/5 18/18/5 10/19/5 9/20/5
f 19/21/6 20/22/6 21/23/6 22/24/6
f 14/25/5 23/26/5 24/27/5 15/28/5
f 25/29/7 26/30/7 27/31/7 28/32/7
f 29/33/1 30/34/1 31/35/1 32/36/1
f 7/37/8 6/6/8 33/38/8 34/39/8
f 18/40/4 35/41/4 11/42/4 10/43/4
f 35/44/7 36/45/7 12/46/7 11/47/7
f 37/48/3 38/49/3 39/50/3 40/51/3
f 26/52/9 41/53/9 42/54/9 27/55/9
f 43/56/10 44/57/10 45/58/10 46/59/10
f 47/60/8 48/61/8 49/62/8 50/63/8
f 3/64/4 2/2/4 51/65/4 52/66/4
f 53/67/3 54/68/3 55/69/3 56/70/3
f 57/71/1 58/72/1 59/73/1 60/74/1
f 61/75/2 62/76/2 49/62/2 48/77/2
f 63/78/2 25/79/2 28/80/2 64/81/2
f 65/82/9 34/83/9 33/38/9 66/84/9
f 67/85/1 68/86/1 69/87/1 70/88/1
f 15/89/1 24/90/1 71/91/1 16/92/1
f 72/93/6 73/94/6 74/95/6 75/96/6
f 45/97/9 76/98/9 77/99/9 46/59/9
f 62/100/7 78/101/7 50/102/7 49/103/7
f 79/104/3 80/105/3 74/95/3 73/106/3
f 40/107/5 39/108/5 30/109/5 29/110/5
f 13/13/3 81/111/3 23/112/3 14/113/3
f 82/114/6 83/115/6 84/116/6 85/117/6
f 86/118/4 87/119/4 88/120/4 89/121/4
f 90/122/4 54/68/4 53/123/4 91/124/4
f 92/125/7 93/126/7 94/127/7 95/128/7
f 96/129/6 92/130/6 95/131/6 97/132/6
f 2/133/7 1/134/7 98/135/7 51/136/7
f 78/137/9 99/138/9 47/139/9 50/63/9
f 26/52/10 25/79/10 63/140/10 41/141/10
f 42/142/8 64/143/8 28/80/8 27/55/8
f 100/144/7 101/145/7 22/146/7 21/147/7
f 102/148/4 80/105/4 79/149/4 103/150/4
f 78/137/10 62/76/10 61/151/10 99/152/10
f 104/153/3 52/154/3 51/65/3 98/155/3
f 5/5/10 8/156/10 65/157/10 66/84/10
f 43/56/2 105/158/2 106/159/2 44/160/2
f 87/161/7 86/162/7 85/163/7 84/164/7
f 89/165/5 88/166/5 83/167/5 82/168/5
f 105/169/7 43/170/7 46/171/7 77/172/7
f 99/173/5 61/174/5 48/175/5 47/176/5
f 41/177/5 63/178/5 64/179/5 42/180/5
f 39/181/6 38/49/6 31/35/6 30/182/6
f 88/183/3 87/119/3 84/116/3 83/184/3
f 86/118/1 89/185/1 82/186/1 85/117/1
f 58/187/5 107/188/5 108/189/5 59/190/5
f 8/191/5 7/192/5 34/193/5 65/194/5
f 93/195/3 92/130/3 96/196/3 109/197/3
f 54/198/7 90/199/7 110/200/7 55/201/7
f 44/202/5 106/203/5 76/204/5 45/205/5
f 93/195/4 109/206/4 111/207/4 94/208/4
f 91/209/5 53/210/5 56/211/5 112/212/5
f 6/213/7 5/214/7 66/215/7 33/216/7
f 107/217/3 113/218/3 114/219/3 108/220/3
f 106/221/8 105/158/8 77/99/8 76/222/8
f 103/223/5 79/224/5 73/225/5 72/226/5
f 4/227/5 3/228/5 52/229/5 104/230/5
f 57/71/4 113/218/4 107/231/4 58/232/4
f 113/233/7 57/234/7 60/235/7 114/236/7
f 101/237/1 115/238/1 19/239/1 22/24/1
f 67/85/6 70/240/6 116/241/6 117/242/6
f 115/243/5 118/244/5 20/245/5 19/246/5
f 1/1/6 4/247/6 104/248/6 98/155/6
f 37/48/4 40/249/4 29/250/4 32/36/4
f 118/251/3 100/252/3 21/23/3 20/253/3
f 36/254/1 35/41/1 18/255/1 17/256/1
f 70/257/5 69/258/5 119/259/5 116/260/5
f 109/261/5 96/262/5 97/263/5 111/264/5
f 23/265/6 81/111/6 71/266/6 24/267/6
f 80/268/7 102/269/7 75/270/7 74/271/7
f 59/272/6 108/273/6 114/219/6 60/74/6
f 102/148/1 103/274/1 72/275/1 75/96/1
f 81/276/7 13/277/7 16/278/7 71/279/7
f 69/280/4 68/86/4 120/281/4 119/282/4
f 38/283/7 37/284/7 32/285/7 31/286/7
f 111/287/1 97/288/1 95/289/1 94/290/1
f 112/291/6 56/292/6 55/69/6 110/293/6
f 101/237/4 100/252/4 118/294/4 115/295/4
f 68/296/7 67/297/7 117/298/7 120/299/7
f 90/122/1 91/300/1 112/301/1 110/293/1
f 116/302/3 119/303/3 120/304/3 117/305/3
f 36/254/6 17/306/6 9/307/6 12/308/6
