# Made in Blockbench 4.2.5
mtllib npcsteve.mtl

o Head
v -0.24999999999999997 0.6875 0.25000000000000006
v 0.25000000000000006 0.6875 0.24999999999999997
v 0.25000000000000006 1.1875 0.24999999999999997
v -0.24999999999999997 1.1875 0.25000000000000006
v -0.25000000000000006 0.6875 -0.24999999999999997
v -0.25000000000000006 1.1875 -0.24999999999999997
v 0.24999999999999997 0.6875 -0.25000000000000006
v 0.24999999999999997 1.1875 -0.25000000000000006
vt 0.125 0.75
vt 0.25 0.75
vt 0.25 0.875
vt 0.125 0.875
vt 0 0.75
vt 0.125 0.75
vt 0.125 0.875
vt 0 0.875
vt 0.375 0.75
vt 0.5 0.75
vt 0.5 0.875
vt 0.375 0.875
vt 0.25 0.75
vt 0.375 0.75
vt 0.375 0.875
vt 0.25 0.875
vt 0.25 1
vt 0.125 1
vt 0.125 0.875
vt 0.25 0.875
vt 0.375 0.875
vt 0.25 0.875
vt 0.25 1
vt 0.375 1
vn 1.6653345369377348e-16 0 1
vn -1 0 1.6653345369377348e-16
vn -1.6653345369377348e-16 0 -1
vn 1 0 -1.6653345369377348e-16
vn 0 1 0
vn 0 -1 0
usemtl none
f 1/1/1 2/2/1 3/3/1 4/4/1
f 5/5/2 1/6/2 4/7/2 6/8/2
f 7/9/3 5/10/3 6/11/3 8/12/3
f 2/13/4 7/14/4 8/15/4 3/16/4
f 8/17/5 6/18/5 4/19/5 3/20/5
f 2/21/6 1/22/6 5/23/6 7/24/6
o Head_translucent
v -0.28124999999999994 0.65625 0.28125000000000006
v 0.28125000000000006 0.65625 0.28124999999999994
v 0.28125000000000006 1.21875 0.28124999999999994
v -0.28124999999999994 1.21875 0.28125000000000006
v -0.28125000000000006 0.65625 -0.28124999999999994
v -0.28125000000000006 1.21875 -0.28124999999999994
v 0.28124999999999994 0.65625 -0.28125000000000006
v 0.28124999999999994 1.21875 -0.28125000000000006
vt 0.625 0.75
vt 0.75 0.75
vt 0.75 0.875
vt 0.625 0.875
vt 0.5 0.75
vt 0.625 0.75
vt 0.625 0.875
vt 0.5 0.875
vt 0.875 0.75
vt 1 0.75
vt 1 0.875
vt 0.875 0.875
vt 0.75 0.75
vt 0.875 0.75
vt 0.875 0.875
vt 0.75 0.875
vt 0.75 1
vt 0.625 1
vt 0.625 0.875
vt 0.75 0.875
vt 0.875 0.875
vt 0.75 0.875
vt 0.75 1
vt 0.875 1
vn 1.9737298215558337e-16 0 1
vn -1 0 1.9737298215558337e-16
vn -1.9737298215558337e-16 0 -1
vn 1 0 -1.9737298215558337e-16
vn 0 1 0
vn 0 -1 0
usemtl none
f 9/25/7 10/26/7 11/27/7 12/28/7
f 13/29/8 9/30/8 12/31/8 14/32/8
f 15/33/9 13/34/9 14/35/9 16/36/9
f 10/37/10 15/38/10 16/39/10 11/40/10
f 16/41/11 14/42/11 12/43/11 11/44/11
f 10/45/12 9/46/12 13/47/12 15/48/12
o Body
v -0.24999999999999997 -0.0625 0.12500000000000003
v 0.25 -0.0625 0.12499999999999997
v 0.25 0.6875 0.12499999999999997
v -0.24999999999999997 0.6875 0.12500000000000003
v -0.25 -0.0625 -0.12499999999999997
v -0.25 0.6875 -0.12499999999999997
v 0.24999999999999997 -0.0625 -0.12500000000000003
v 0.24999999999999997 0.6875 -0.12500000000000003
vt 0.3125 0.5
vt 0.4375 0.5
vt 0.4375 0.6875
vt 0.3125 0.6875
vt 0.25 0.5
vt 0.3125 0.5
vt 0.3125 0.6875
vt 0.25 0.6875
vt 0.5 0.5
vt 0.625 0.5
vt 0.625 0.6875
vt 0.5 0.6875
vt 0.4375 0.5
vt 0.5 0.5
vt 0.5 0.6875
vt 0.4375 0.6875
vt 0.4375 0.75
vt 0.3125 0.75
vt 0.3125 0.6875
vt 0.4375 0.6875
vt 0.5625 0.6875
vt 0.4375 0.6875
vt 0.4375 0.75
vt 0.5625 0.75
vn 1.1102230246251565e-16 0 1
vn -1 0 1.1102230246251565e-16
vn -1.1102230246251565e-16 0 -1
vn 1 0 -1.1102230246251565e-16
vn 0 1 0
vn 0 -1 0
usemtl none
f 17/49/13 18/50/13 19/51/13 20/52/13
f 21/53/14 17/54/14 20/55/14 22/56/14
f 23/57/15 21/58/15 22/59/15 24/60/15
f 18/61/16 23/62/16 24/63/16 19/64/16
f 24/65/17 22/66/17 20/67/17 19/68/17
f 18/69/18 17/70/18 21/71/18 23/72/18
o Body_translucent
v -0.265625 -0.078125 0.14062500000000003
v 0.265625 -0.078125 0.14062499999999997
v 0.265625 0.703125 0.14062499999999997
v -0.265625 0.703125 0.14062500000000003
v -0.265625 -0.078125 -0.14062499999999997
v -0.265625 0.703125 -0.14062499999999997
v 0.265625 -0.078125 -0.14062500000000003
v 0.265625 0.703125 -0.14062500000000003
vt 0.3125 0.25
vt 0.4375 0.25
vt 0.4375 0.4375
vt 0.3125 0.4375
vt 0.25 0.25
vt 0.3125 0.25
vt 0.3125 0.4375
vt 0.25 0.4375
vt 0.5 0.25
vt 0.625 0.25
vt 0.625 0.4375
vt 0.5 0.4375
vt 0.4375 0.25
vt 0.5 0.25
vt 0.5 0.4375
vt 0.4375 0.4375
vt 0.4375 0.5
vt 0.3125 0.5
vt 0.3125 0.4375
vt 0.4375 0.4375
vt 0.5625 0.4375
vt 0.4375 0.4375
vt 0.4375 0.5
vt 0.5625 0.5
vn 1.0449157878825003e-16 0 1
vn -1 0 0
vn -1.0449157878825003e-16 0 -1
vn 1 0 0
vn 0 1 0
vn 0 -1 0
usemtl none
f 25/73/19 26/74/19 27/75/19 28/76/19
f 29/77/20 25/78/20 28/79/20 30/80/20
f 31/81/21 29/82/21 30/83/21 32/84/21
f 26/85/22 31/86/22 32/87/22 27/88/22
f 32/89/23 30/90/23 28/91/23 27/92/23
f 26/93/24 25/94/24 29/95/24 31/96/24
o RightArm
v -0.49999999999999994 0.6874999999999998 0.6250000000000001
v -0.24999999999999994 0.6874999999999998 0.625
v -0.25 0.6875 -0.125
v -0.5 0.6875 -0.125
v -0.49999999999999994 0.43749999999999983 0.6250000000000001
v -0.5 0.4375 -0.125
v -0.24999999999999994 0.43749999999999983 0.625
v -0.25 0.4375 -0.125
vt 0.6875 0.5
vt 0.75 0.5
vt 0.75 0.6875
vt 0.6875 0.6875
vt 0.625 0.5
vt 0.6875 0.5
vt 0.6875 0.6875
vt 0.625 0.6875
vt 0.8125 0.5
vt 0.875 0.5
vt 0.875 0.6875
vt 0.8125 0.6875
vt 0.75 0.5
vt 0.8125 0.5
vt 0.8125 0.6875
vt 0.75 0.6875
vt 0.75 0.75
vt 0.6875 0.75
vt 0.6875 0.6875
vt 0.75 0.6875
vt 0.8125 0.6875
vt 0.75 0.6875
vt 0.75 0.75
vt 0.8125 0.75
vn 1.314768175368353e-31 1 2.9605947323337506e-16
vn -1 0 7.401486830834377e-17
vn -9.860761315262646e-32 -1 -2.2204460492503128e-16
vn 1 0 -7.401486830834378e-17
vn 0 0 -1
vn 4.440892098500626e-16 0 1
usemtl none
f 33/97/25 34/98/25 35/99/25 36/100/25
f 37/101/26 33/102/26 36/103/26 38/104/26
f 39/105/27 37/106/27 38/107/27 40/108/27
f 34/109/28 39/110/28 40/111/28 35/112/28
f 40/113/29 38/114/29 36/115/29 35/116/29
f 34/117/30 33/118/30 37/119/30 39/120/30
o RightArm_translucent
v -0.515625 0.7031249999999998 0.6406250000000001
v -0.23437499999999992 0.7031249999999998 0.640625
v -0.23437500000000003 0.703125 -0.140625
v -0.515625 0.703125 -0.140625
v -0.515625 0.42187499999999983 0.6406250000000001
v -0.515625 0.421875 -0.140625
v -0.23437499999999992 0.42187499999999983 0.640625
v -0.23437500000000003 0.421875 -0.140625
vt 0.6875 0.25
vt 0.75 0.25
vt 0.75 0.4375
vt 0.6875 0.4375
vt 0.625 0.25
vt 0.6875 0.25
vt 0.6875 0.4375
vt 0.625 0.4375
vt 0.8125 0.25
vt 0.875 0.25
vt 0.875 0.4375
vt 0.8125 0.4375
vt 0.75 0.25
vt 0.8125 0.25
vt 0.8125 0.4375
vt 0.75 0.4375
vt 0.75 0.5
vt 0.6875 0.5
vt 0.6875 0.4375
vt 0.75 0.4375
vt 0.8125 0.4375
vt 0.75 0.4375
vt 0.75 0.5
vt 0.8125 0.5
vn 1.1219355096476608e-31 1 2.842170943040401e-16
vn -1 0 0
vn -8.414516322357455e-32 -1 -2.1316282072803002e-16
vn 1 0 -1.4210854715202004e-16
vn 0 0 -1
vn 3.947459643111666e-16 0 1
usemtl none
f 41/121/31 42/122/31 43/123/31 44/124/31
f 45/125/32 41/126/32 44/127/32 46/128/32
f 47/129/33 45/130/33 46/131/33 48/132/33
f 42/133/34 47/134/34 48/135/34 43/136/34
f 48/137/35 46/138/35 44/139/35 43/140/35
f 42/141/36 41/142/36 45/143/36 47/144/36
o LeftArm
v 0.2500000000000001 0.6874999999999998 0.625
v 0.5 0.6874999999999998 0.6249999999999999
v 0.5 0.6875 -0.125
v 0.24999999999999997 0.6875 -0.125
v 0.2500000000000001 0.43749999999999983 0.625
v 0.24999999999999997 0.4375 -0.125
v 0.5 0.43749999999999983 0.6249999999999999
v 0.5 0.4375 -0.125
vt 0.5625 0
vt 0.625 0
vt 0.625 0.1875
vt 0.5625 0.1875
vt 0.5 0
vt 0.5625 0
vt 0.5625 0.1875
vt 0.5 0.1875
vt 0.6875 0
vt 0.75 0
vt 0.75 0.1875
vt 0.6875 0.1875
vt 0.625 0
vt 0.6875 0
vt 0.6875 0.1875
vt 0.625 0.1875
vt 0.625 0.25
vt 0.5625 0.25
vt 0.5625 0.1875
vt 0.625 0.1875
vt 0.6875 0.1875
vt 0.625 0.1875
vt 0.625 0.25
vt 0.6875 0.25
vn 1.3147681753683538e-31 1 2.960594732333751e-16
vn -1 0 1.8503717077085946e-16
vn -9.860761315262652e-32 -1 -2.220446049250313e-16
vn 1 0 0
vn 0 0 -1
vn 4.440892098500628e-16 0 1
usemtl none
f 49/145/37 50/146/37 51/147/37 52/148/37
f 53/149/38 49/150/38 52/151/38 54/152/38
f 55/153/39 53/154/39 54/155/39 56/156/39
f 50/157/40 55/158/40 56/159/40 51/160/40
f 56/161/41 54/162/41 52/163/41 51/164/41
f 50/165/42 49/166/42 53/167/42 55/168/42
o LeftArm_translucent
v 0.23437500000000008 0.7031249999999998 0.640625
v 0.515625 0.7031249999999998 0.6406249999999999
v 0.515625 0.703125 -0.140625
v 0.23437499999999997 0.703125 -0.140625
v 0.23437500000000008 0.42187499999999983 0.640625
v 0.23437499999999997 0.421875 -0.140625
v 0.515625 0.42187499999999983 0.6406249999999999
v 0.515625 0.421875 -0.140625
vt 0.8125 0
vt 0.875 0
vt 0.875 0.1875
vt 0.8125 0.1875
vt 0.75 0
vt 0.8125 0
vt 0.8125 0.1875
vt 0.75 0.1875
vt 0.9375 0
vt 1 0
vt 1 0.1875
vt 0.9375 0.1875
vt 0.875 0
vt 0.9375 0
vt 0.9375 0.1875
vt 0.875 0.1875
vt 0.875 0.25
vt 0.8125 0.25
vt 0.8125 0.1875
vt 0.875 0.1875
vt 0.9375 0.1875
vt 0.875 0.1875
vt 0.875 0.25
vt 0.9375 0.25
vn 1.1219355096476619e-31 1 2.8421709430404013e-16
vn -1 0 1.4210854715202004e-16
vn -8.414516322357462e-32 -1 -2.1316282072803005e-16
vn 1 0 0
vn 0 0 -1
vn 3.947459643111669e-16 0 1
usemtl none
f 57/169/43 58/170/43 59/171/43 60/172/43
f 61/173/44 57/174/44 60/175/44 62/176/44
f 63/177/45 61/178/45 62/179/45 64/180/45
f 58/181/46 63/182/46 64/183/46 59/184/46
f 64/185/47 62/186/47 60/187/47 59/188/47
f 58/189/48 57/190/48 61/191/48 63/192/48
o RightLeg
v -0.2437499999999999 0.06249999999999983 0.7500000000000001
v 0.006250000000000103 0.06249999999999983 0.75
v 0.006250000000000011 0.0625 0
v -0.24374999999999997 0.0625 0
v -0.2437499999999999 -0.18750000000000017 0.75
v -0.24374999999999997 -0.1875 0
v 0.006250000000000103 -0.18750000000000017 0.75
v 0.006250000000000011 -0.1875 0
vt 0.0625 0.5
vt 0.125 0.5
vt 0.125 0.6875
vt 0.0625 0.6875
vt 0 0.5
vt 0.0625 0.5
vt 0.0625 0.6875
vt 0 0.6875
vt 0.1875 0.5
vt 0.25 0.5
vt 0.25 0.6875
vt 0.1875 0.6875
vt 0.125 0.5
vt 0.1875 0.5
vt 0.1875 0.6875
vt 0.125 0.6875
vt 0.125 0.75
vt 0.0625 0.75
vt 0.0625 0.6875
vt 0.125 0.6875
vt 0.1875 0.6875
vt 0.125 0.6875
vt 0.125 0.75
vt 0.1875 0.75
vn 9.860761315262648e-32 1 2.220446049250313e-16
vn -1 -3.286920438420882e-32 7.401486830834375e-17
vn 0 -1 -2.220446049250313e-16
vn 1 0 -1.2258712563569438e-16
vn 0 0 -1
vn 4.440892098500626e-16 -4.440892098500626e-16 1
usemtl none
f 65/193/49 66/194/49 67/195/49 68/196/49
f 69/197/50 65/198/50 68/199/50 70/200/50
f 71/201/51 69/202/51 70/203/51 72/204/51
f 66/205/52 71/206/52 72/207/52 67/208/52
f 72/209/53 70/210/53 68/211/53 67/212/53
f 66/213/54 65/214/54 69/215/54 71/216/54
o RightLeg_translucent
v -0.2593749999999999 0.07812499999999983 0.7656250000000001
v 0.021875000000000106 0.07812499999999983 0.765625
v 0.02187500000000001 0.078125 -0.015625
v -0.259375 0.078125 -0.015625
v -0.2593749999999999 -0.20312500000000017 0.765625
v -0.259375 -0.203125 -0.015625
v 0.021875000000000106 -0.20312500000000017 0.765625
v 0.02187500000000001 -0.203125 -0.015625
vt 0.0625 0.25
vt 0.125 0.25
vt 0.125 0.4375
vt 0.0625 0.4375
vt 0 0.25
vt 0.0625 0.25
vt 0.0625 0.4375
vt 0 0.4375
vt 0.1875 0.25
vt 0.25 0.25
vt 0.25 0.4375
vt 0.1875 0.4375
vt 0.125 0.25
vt 0.1875 0.25
vt 0.1875 0.4375
vt 0.125 0.4375
vt 0.125 0.5
vt 0.0625 0.5
vt 0.0625 0.4375
vt 0.125 0.4375
vt 0.1875 0.4375
vt 0.125 0.4375
vt 0.125 0.5
vt 0.1875 0.5
vn 8.41451632235746e-32 1 2.1316282072803005e-16
vn -1 -5.609677548238305e-32 1.4210854715202002e-16
vn 0 -1 -2.1316282072803005e-16
vn 1 0 -1.2434497875801754e-16
vn 0 0 -1
vn 3.9474596431116675e-16 -3.9474596431116675e-16 1
usemtl none
f 73/217/55 74/218/55 75/219/55 76/220/55
f 77/221/56 73/222/56 76/223/56 78/224/56
f 79/225/57 77/226/57 78/227/57 80/228/57
f 74/229/58 79/230/58 80/231/58 75/232/58
f 80/233/59 78/234/59 76/235/59 75/236/59
f 74/237/60 73/238/60 77/239/60 79/240/60
o LeftLeg
v -0.006249999999999908 0.06249999999999983 0.75
v 0.24375000000000008 0.06249999999999983 0.75
v 0.24375000000000002 0.0625 0
v -0.00625 0.0625 0
v -0.006249999999999908 -0.18750000000000017 0.75
v -0.00625 -0.1875 0
v 0.24375000000000008 -0.18750000000000017 0.7499999999999999
v 0.24375000000000002 -0.1875 0
vt 0.3125 0
vt 0.375 0
vt 0.375 0.1875
vt 0.3125 0.1875
vt 0.25 0
vt 0.3125 0
vt 0.3125 0.1875
vt 0.25 0.1875
vt 0.4375 0
vt 0.5 0
vt 0.5 0.1875
vt 0.4375 0.1875
vt 0.375 0
vt 0.4375 0
vt 0.4375 0.1875
vt 0.375 0.1875
vt 0.375 0.25
vt 0.3125 0.25
vt 0.3125 0.1875
vt 0.375 0.1875
vt 0.4375 0.1875
vt 0.375 0.1875
vt 0.375 0.25
vt 0.4375 0.25
vn 0 1 2.220446049250313e-16
vn -1 0 1.2258712563569438e-16
vn -9.860761315262648e-32 -1 -2.220446049250313e-16
vn 1 3.286920438420883e-32 -7.401486830834378e-17
vn 0 0 -1
vn 0 0 1
usemtl none
f 81/241/61 82/242/61 83/243/61 84/244/61
f 85/245/62 81/246/62 84/247/62 86/248/62
f 87/249/63 85/250/63 86/251/63 88/252/63
f 82/253/64 87/254/64 88/255/64 83/256/64
f 88/257/65 86/258/65 84/259/65 83/260/65
f 82/261/66 81/262/66 85/263/66 87/264/66
o LeftLeg_translucent
v -0.021874999999999905 0.07812499999999983 0.765625
v 0.25937500000000013 0.07812499999999983 0.765625
v 0.259375 0.078125 -0.015625
v -0.021875000000000002 0.078125 -0.015625
v -0.021874999999999905 -0.20312500000000017 0.765625
v -0.021875000000000002 -0.203125 -0.015625
v 0.25937500000000013 -0.20312500000000017 0.7656249999999999
v 0.259375 -0.203125 -0.015625
vt 0.0625 0
vt 0.125 0
vt 0.125 0.1875
vt 0.0625 0.1875
vt 0 0
vt 0.0625 0
vt 0.0625 0.1875
vt 0 0.1875
vt 0.1875 0
vt 0.25 0
vt 0.25 0.1875
vt 0.1875 0.1875
vt 0.125 0
vt 0.1875 0
vt 0.1875 0.1875
vt 0.125 0.1875
vt 0.125 0.25
vt 0.0625 0.25
vt 0.0625 0.1875
vt 0.125 0.1875
vt 0.1875 0.1875
vt 0.125 0.1875
vt 0.125 0.25
vt 0.1875 0.25
vn 0 1 2.1316282072803005e-16
vn -1 0 1.2434497875801754e-16
vn -8.414516322357459e-32 -1 -2.131628207280301e-16
vn 1 5.609677548238307e-32 -1.4210854715202006e-16
vn 0 0 -1
vn 0 0 1
usemtl none
f 89/265/67 90/266/67 91/267/67 92/268/67
f 93/269/68 89/270/68 92/271/68 94/272/68
f 95/273/69 93/274/69 94/275/69 96/276/69
f 90/277/70 95/278/70 96/279/70 91/280/70
f 96/281/71 94/282/71 92/283/71 91/284/71
f 90/285/72 89/286/72 93/287/72 95/288/72