# Blender v2.78 (sub 0) OBJ File: ''
# www.blender.org
mtllib pwtire.mtl
o Cylinder.007
v 0.088493 0.000000 -0.212202
v 0.088493 -0.092071 -0.191188
v -0.088493 -0.092071 -0.191188
v -0.088493 0.000000 -0.212202
v 0.088493 -0.165907 -0.132306
v -0.088493 -0.165907 -0.132306
v 0.088493 -0.206882 -0.047220
v -0.088493 -0.206882 -0.047220
v 0.088493 -0.206882 0.047220
v -0.088493 -0.206882 0.047220
v 0.088493 -0.165907 0.132306
v -0.088493 -0.165907 0.132306
v 0.088493 -0.092071 0.191188
v -0.088493 -0.092071 0.191188
v 0.088493 -0.000000 0.212202
v -0.088493 -0.000000 0.212202
v 0.088493 0.092071 0.191188
v -0.088493 0.092071 0.191188
v 0.088493 0.165906 0.132306
v -0.088493 0.165906 0.132306
v 0.088493 0.206882 0.047220
v -0.088493 0.206882 0.047220
v 0.088493 0.206882 -0.047220
v -0.088493 0.206882 -0.047220
v 0.088493 0.165906 -0.132306
v -0.088493 0.165906 -0.132306
v -0.088493 -0.000000 0.175489
v 0.087380 -0.000000 0.175489
v 0.087380 -0.076142 0.158110
v -0.088493 -0.076142 0.158110
v 0.088493 0.092071 -0.191188
v -0.088493 0.092071 -0.191188
v 0.088493 -0.076142 -0.158110
v 0.088493 0.000000 -0.175489
v -0.088493 0.000000 -0.175489
v -0.088493 -0.076142 -0.158110
v 0.088493 -0.137203 -0.109415
v -0.088493 -0.137203 -0.109415
v 0.088493 -0.171089 -0.039050
v -0.088493 -0.171089 -0.039050
v 0.088493 -0.171089 0.039050
v -0.088493 -0.171089 0.039050
v 0.088493 -0.137203 0.109415
v -0.088493 -0.137203 0.109415
v 0.088493 -0.076142 0.158110
v 0.088493 -0.000000 0.175489
v 0.088493 0.076142 0.158110
v -0.088493 0.076142 0.158110
v 0.088493 0.137202 0.109415
v -0.088493 0.137202 0.109415
v 0.088493 0.171089 0.039050
v -0.088493 0.171089 0.039050
v 0.088493 0.171089 -0.039050
v -0.088493 0.171089 -0.039050
v 0.088493 0.137202 -0.109415
v -0.088493 0.137202 -0.109415
v 0.088493 0.076142 -0.158110
v -0.088493 0.076142 -0.158110
v 0.087380 0.171089 -0.039050
v 0.087380 0.171089 0.039050
v 0.087380 -0.171089 0.039050
v 0.087380 -0.171089 -0.039050
v 0.087380 0.076142 0.158110
v 0.087380 0.137202 -0.109415
v 0.087380 -0.076142 -0.158110
v 0.087380 0.000000 -0.175489
v 0.087380 -0.137203 0.109415
v 0.087380 0.137202 0.109415
v 0.087380 0.076142 -0.158110
v 0.087380 -0.137203 -0.109415
v -0.051863 0.042058 -0.207357
v 0.034720 0.042058 -0.207357
v 0.034720 -0.119898 0.174773
v -0.051863 -0.119898 0.174773
v -0.051863 -0.207663 -0.041972
v -0.084770 -0.207663 -0.041972
v -0.084770 0.207372 -0.041972
v -0.051863 0.207372 -0.041972
v -0.084770 -0.207663 0.042255
v -0.084770 0.207372 0.042255
v -0.051863 -0.207663 0.042255
v -0.051863 0.207372 0.042255
v -0.051863 0.156696 0.142401
v 0.034720 0.156696 0.142401
v 0.034720 -0.089123 -0.192004
v -0.051863 -0.089123 -0.192004
v -0.084770 -0.119898 0.174773
v -0.084770 0.042058 -0.207357
v -0.084770 -0.042349 0.207640
v -0.084770 0.119607 -0.174490
v -0.051863 -0.042349 0.207640
v -0.051863 0.119607 -0.174490
v 0.034720 -0.207663 0.042255
v 0.034720 0.207372 0.042255
v -0.051863 0.088832 0.192287
v -0.084770 0.088832 0.192287
v -0.084770 -0.156986 -0.142118
v -0.051863 -0.156986 -0.142118
v -0.084770 0.156696 0.142401
v -0.084770 -0.089123 -0.192004
v 0.090555 0.000000 -0.228839
v 0.090555 -0.099290 -0.206177
v -0.090555 -0.099290 -0.206177
v -0.090555 0.000000 -0.228839
v 0.090555 -0.178914 -0.142679
v -0.090555 -0.178914 -0.142679
v 0.090555 -0.223102 -0.050922
v -0.090555 -0.223102 -0.050922
v 0.090555 -0.223102 0.050922
v -0.090555 -0.223102 0.050922
v 0.090555 -0.178914 0.142679
v -0.090555 -0.178914 0.142679
v 0.090555 -0.099290 0.206177
v -0.090555 -0.099290 0.206177
v 0.090555 -0.000000 0.228839
v -0.090555 -0.000000 0.228839
v 0.090555 0.099290 0.206177
v -0.090555 0.099290 0.206177
v 0.090555 0.178914 0.142679
v -0.090555 0.178914 0.142679
v 0.090555 0.223102 0.050922
v -0.090555 0.223102 0.050922
v 0.090555 0.223102 -0.050922
v -0.090555 0.223102 -0.050922
v 0.090555 0.178914 -0.142679
v -0.090555 0.178914 -0.142679
v -0.090555 -0.000000 0.189247
v 0.089417 -0.000000 0.189247
v 0.089417 -0.082111 0.170506
v -0.090555 -0.082111 0.170506
v 0.090555 0.099290 -0.206177
v -0.090555 0.099290 -0.206177
v 0.090555 -0.082111 -0.170506
v 0.090555 0.000000 -0.189247
v -0.090555 0.000000 -0.189247
v -0.090555 -0.082111 -0.170506
v 0.090555 -0.147959 -0.117994
v -0.090555 -0.147959 -0.117994
v 0.090555 -0.184502 -0.042111
v -0.090555 -0.184502 -0.042111
v 0.090555 -0.184502 0.042111
v -0.090555 -0.184502 0.042111
v 0.090555 -0.147959 0.117994
v -0.090555 -0.147959 0.117994
v 0.090555 -0.082111 0.170506
v 0.090555 -0.000000 0.189247
v 0.090555 0.082111 0.170506
v -0.090555 0.082111 0.170506
v 0.090555 0.147959 0.117994
v -0.090555 0.147959 0.117994
v 0.090555 0.184502 0.042111
v -0.090555 0.184502 0.042111
v 0.090555 0.184502 -0.042111
v -0.090555 0.184502 -0.042111
v 0.090555 0.147959 -0.117994
v -0.090555 0.147959 -0.117994
v 0.090555 0.082111 -0.170506
v -0.090555 0.082111 -0.170506
v 0.089417 0.184502 -0.042111
v 0.089417 0.184502 0.042111
v 0.089417 -0.184502 0.042111
v 0.089417 -0.184502 -0.042111
v 0.089417 0.082111 0.170506
v 0.089417 0.147959 -0.117994
v 0.089417 -0.082111 -0.170506
v 0.089417 0.000000 -0.189247
v 0.089417 -0.147959 0.117994
v 0.089417 0.147959 0.117994
v 0.089417 0.082111 -0.170506
v 0.089417 -0.147959 -0.117994
v 0.034720 -0.207663 -0.041972
v 0.034720 0.207372 -0.041972
v 0.034720 -0.042349 0.207640
v 0.034720 0.119607 -0.174490
v 0.034720 0.088832 0.192287
v 0.034720 -0.156986 -0.142118
vt -0.0000 0.5000
vt 0.2500 0.5000
vt 0.2500 0.7500
vt -0.0000 0.7500
vt -0.0000 0.5000
vt 0.2500 0.5000
vt 0.2500 0.7500
vt -0.0000 0.7500
vt -0.0000 0.5000
vt 0.2500 0.5000
vt 0.2500 0.7500
vt -0.0000 0.7500
vt -0.0000 0.5000
vt 0.2500 0.5000
vt 0.2500 0.7500
vt -0.0000 0.7500
vt -0.0000 0.5000
vt 0.2500 0.5000
vt 0.2500 0.7500
vt -0.0000 0.7500
vt -0.0000 0.5000
vt 0.2500 0.5000
vt 0.2500 0.7500
vt -0.0000 0.7500
vt -0.0000 0.5000
vt 0.2500 0.5000
vt 0.2500 0.7500
vt -0.0000 0.7500
vt -0.0000 0.5000
vt 0.2500 0.5000
vt 0.2500 0.7500
vt -0.0000 0.7500
vt -0.0000 0.5000
vt 0.2500 0.5000
vt 0.2500 0.7500
vt -0.0000 0.7500
vt -0.0000 0.5000
vt 0.2500 0.5000
vt 0.2500 0.7500
vt -0.0000 0.7500
vt -0.0000 0.5000
vt 0.2500 0.5000
vt 0.2500 0.7500
vt -0.0000 0.7500
vt -0.0000 0.5000
vt 0.2500 0.5000
vt 0.2500 0.7500
vt -0.0000 0.7500
vt -0.0000 0.5000
vt 0.2500 0.5000
vt 0.2500 0.7500
vt -0.0000 0.7500
vt -0.0000 0.5000
vt 0.2500 0.5000
vt 0.2500 0.7500
vt -0.0000 0.7500
vt -0.0000 0.5000
vt 0.2500 0.5000
vt 0.2500 0.7500
vt -0.0000 0.7500
vt -0.0000 0.5000
vt 0.2500 0.7500
vt -0.0000 0.7500
vt -0.0000 0.5000
vt 0.2500 0.5000
vt -0.0000 0.7500
vt -0.0000 0.5000
vt 0.2500 0.7500
vt -0.0000 0.7500
vt -0.0000 0.5000
vt 0.2500 0.5000
vt -0.0000 0.7500
vt -0.0000 0.5000
vt 0.2500 0.7500
vt -0.0000 0.7500
vt -0.0000 0.5000
vt 0.2500 0.5000
vt -0.0000 0.7500
vt -0.0000 0.5000
vt 0.2500 0.7500
vt -0.0000 0.7500
vt -0.0000 0.5000
vt 0.2500 0.5000
vt -0.0000 0.7500
vt -0.0000 0.5000
vt 0.2500 0.7500
vt -0.0000 0.7500
vt -0.0000 0.5000
vt 0.2500 0.5000
vt -0.0000 0.7500
vt -0.0000 0.5000
vt 0.2500 0.7500
vt -0.0000 0.7500
vt -0.0000 0.5000
vt 0.2500 0.5000
vt -0.0000 0.5000
vt 0.2500 0.7500
vt -0.0000 0.7500
vt -0.0000 0.5000
vt 0.2500 0.5000
vt -0.0000 0.7500
vt -0.0000 0.5000
vt 0.2500 0.7500
vt -0.0000 0.7500
vt 0.2500 0.5000
vt -0.0000 0.7500
vt -0.0000 0.5000
vt 0.2500 0.7500
vt -0.0000 0.7500
vt -0.0000 0.5000
vt 0.2500 0.5000
vt -0.0000 0.7500
vt -0.0000 0.5000
vt 0.2500 0.7500
vt -0.0000 0.7500
vt -0.0000 0.5000
vt 0.2500 0.5000
vt -0.0000 0.7500
vt -0.0000 0.5000
vt 0.2500 0.7500
vt -0.0000 0.7500
vt -0.0000 0.5000
vt 0.2500 0.5000
vt -0.0000 0.7500
vt -0.0000 0.5000
vt 0.2500 0.7500
vt -0.0000 0.7500
vt -0.0000 0.5000
vt 0.2500 0.5000
vt -0.0000 0.7500
vt -0.0000 0.5000
vt 0.2500 0.7500
vt -0.0000 0.7500
vt -0.0000 0.5000
vt 0.2500 0.5000
vt -0.0000 0.7500
vt -0.0000 0.5000
vt 0.2500 0.7500
vt -0.0000 0.7500
vt -0.0000 0.5000
vt 0.2500 0.5000
vt -0.0000 0.7500
vt 0.2500 0.5000
vt 0.2500 0.7500
vt 0.2500 0.5000
vt 0.2500 0.7500
vt 0.2500 0.5000
vt 0.2500 0.7500
vt 0.2500 0.5000
vt 0.2500 0.7500
vt 0.2500 0.5000
vt 0.2500 0.7500
vt 0.2500 0.5000
vt 0.2500 0.7500
vt 0.2500 0.5000
vt 0.2500 0.7500
vt 0.2500 0.5000
vt 0.2500 0.7500
vt 0.2500 0.5000
vt 0.2500 0.7500
vt 0.2500 0.5000
vt 0.2500 0.7500
vt 0.2500 0.5000
vt 0.2500 0.7500
vt 0.2500 0.5000
vt 0.2500 0.7500
vt 0.2500 0.5000
vt 0.2500 0.7500
vt -0.0000 0.5000
vt 0.2500 0.5000
vt 0.2500 0.7500
vt -0.0000 0.7500
vt -0.0000 0.5000
vt 0.2500 0.5000
vt 0.2500 0.7500
vt -0.0000 0.7500
vt -0.0000 0.5000
vt 0.2500 0.5000
vt 0.2500 0.7500
vt -0.0000 0.7500
vt -0.0000 0.5000
vt 0.2500 0.5000
vt 0.2500 0.7500
vt -0.0000 0.7500
vt 0.2500 0.7500
vt -0.0000 0.7500
vt -0.0000 0.5000
vt 0.2500 0.5000
vt -0.0000 0.5000
vt 0.2500 0.5000
vt 0.2500 0.7500
vt -0.0000 0.7500
vt -0.0000 0.5000
vt 0.2500 0.5000
vt 0.2500 0.7500
vt -0.0000 0.7500
vt -0.0000 0.5000
vt 0.2500 0.5000
vt 0.2500 0.7500
vt -0.0000 0.7500
vt -0.0000 0.5000
vt 0.2500 0.5000
vt 0.2500 0.7500
vt -0.0000 0.7500
vt 0.2500 0.7500
vt -0.0000 0.7500
vt -0.0000 0.5000
vt 0.2500 0.5000
vt -0.0000 0.5000
vt 0.2500 0.5000
vt 0.2500 0.7500
vt -0.0000 0.7500
vt -0.0000 0.5000
vt 0.2500 0.5000
vt 0.2500 0.7500
vt -0.0000 0.7500
vt -0.0000 0.5000
vt 0.2500 0.5000
vt 0.2500 0.7500
vt -0.0000 0.7500
vt -0.0000 0.5000
vt 0.2500 0.5000
vt 0.2500 0.7500
vt -0.0000 0.7500
vt 0.2500 0.7500
vt -0.0000 0.7500
vt -0.0000 0.5000
vt 0.2500 0.5000
vt -0.0000 0.7500
vt 0.2500 0.7500
vt 0.2500 1.0000
vt -0.0000 1.0000
vt -0.0000 0.7500
vt 0.2500 0.7500
vt 0.2500 1.0000
vt -0.0000 1.0000
vt -0.0000 0.7500
vt 0.2500 0.7500
vt 0.2500 1.0000
vt -0.0000 1.0000
vt -0.0000 0.7500
vt 0.2500 0.7500
vt 0.2500 1.0000
vt -0.0000 1.0000
vt -0.0000 0.7500
vt 0.2500 0.7500
vt 0.2500 1.0000
vt -0.0000 1.0000
vt -0.0000 0.7500
vt 0.2500 0.7500
vt 0.2500 1.0000
vt -0.0000 1.0000
vt -0.0000 0.7500
vt 0.2500 0.7500
vt 0.2500 1.0000
vt -0.0000 1.0000
vt -0.0000 0.7500
vt 0.2500 0.7500
vt 0.2500 1.0000
vt -0.0000 1.0000
vt -0.0000 0.7500
vt 0.2500 0.7500
vt 0.2500 1.0000
vt -0.0000 1.0000
vt -0.0000 0.7500
vt 0.2500 0.7500
vt 0.2500 1.0000
vt -0.0000 1.0000
vt -0.0000 0.7500
vt 0.2500 0.7500
vt 0.2500 1.0000
vt -0.0000 1.0000
vt -0.0000 0.7500
vt 0.2500 0.7500
vt 0.2500 1.0000
vt -0.0000 1.0000
vt -0.0000 0.7500
vt 0.2500 0.7500
vt 0.2500 1.0000
vt -0.0000 1.0000
vt -0.0000 0.7500
vt 0.2500 0.7500
vt 0.2500 1.0000
vt -0.0000 1.0000
vt -0.0000 0.7500
vt 0.2500 0.7500
vt 0.2500 1.0000
vt -0.0000 1.0000
vt -0.0000 0.7500
vt 0.2500 1.0000
vt -0.0000 1.0000
vt -0.0000 0.7500
vt 0.2500 0.7500
vt -0.0000 1.0000
vt -0.0000 0.7500
vt 0.2500 1.0000
vt -0.0000 1.0000
vt -0.0000 0.7500
vt 0.2500 0.7500
vt -0.0000 1.0000
vt -0.0000 0.7500
vt 0.2500 1.0000
vt -0.0000 1.0000
vt -0.0000 0.7500
vt 0.2500 0.7500
vt -0.0000 1.0000
vt -0.0000 0.7500
vt 0.2500 1.0000
vt -0.0000 1.0000
vt -0.0000 0.7500
vt 0.2500 0.7500
vt -0.0000 1.0000
vt -0.0000 0.7500
vt 0.2500 1.0000
vt -0.0000 1.0000
vt -0.0000 0.7500
vt 0.2500 0.7500
vt -0.0000 1.0000
vt -0.0000 0.7500
vt 0.2500 1.0000
vt -0.0000 1.0000
vt -0.0000 0.7500
vt 0.2500 0.7500
vt -0.0000 0.7500
vt 0.2500 1.0000
vt -0.0000 1.0000
vt -0.0000 0.7500
vt 0.2500 0.7500
vt -0.0000 1.0000
vt -0.0000 0.7500
vt 0.2500 1.0000
vt -0.0000 1.0000
vt 0.2500 0.7500
vt -0.0000 1.0000
vt -0.0000 0.7500
vt 0.2500 1.0000
vt -0.0000 1.0000
vt -0.0000 0.7500
vt 0.2500 0.7500
vt -0.0000 1.0000
vt -0.0000 0.7500
vt 0.2500 1.0000
vt -0.0000 1.0000
vt -0.0000 0.7500
vt 0.2500 0.7500
vt -0.0000 1.0000
vt -0.0000 0.7500
vt 0.2500 1.0000
vt -0.0000 1.0000
vt -0.0000 0.7500
vt 0.2500 0.7500
vt -0.0000 1.0000
vt -0.0000 0.7500
vt 0.2500 1.0000
vt -0.0000 1.0000
vt -0.0000 0.7500
vt 0.2500 0.7500
vt -0.0000 1.0000
vt -0.0000 0.7500
vt 0.2500 1.0000
vt -0.0000 1.0000
vt -0.0000 0.7500
vt 0.2500 0.7500
vt -0.0000 1.0000
vt -0.0000 0.7500
vt 0.2500 1.0000
vt -0.0000 1.0000
vt -0.0000 0.7500
vt 0.2500 0.7500
vt -0.0000 1.0000
vt 0.2500 0.7500
vt 0.2500 1.0000
vt 0.2500 0.7500
vt 0.2500 1.0000
vt 0.2500 0.7500
vt 0.2500 1.0000
vt 0.2500 0.7500
vt 0.2500 1.0000
vt 0.2500 0.7500
vt 0.2500 1.0000
vt 0.2500 0.7500
vt 0.2500 1.0000
vt 0.2500 0.7500
vt 0.2500 1.0000
vt 0.2500 0.7500
vt 0.2500 1.0000
vt 0.2500 0.7500
vt 0.2500 1.0000
vt 0.2500 0.7500
vt 0.2500 1.0000
vt 0.2500 0.7500
vt 0.2500 1.0000
vt 0.2500 0.7500
vt 0.2500 1.0000
vt 0.2500 0.7500
vt 0.2500 1.0000
vt -0.0000 0.5000
vt 0.2500 0.5000
vt 0.2500 0.7500
vt -0.0000 0.7500
vt -0.0000 0.5000
vt 0.2500 0.5000
vt 0.2500 0.7500
vt -0.0000 0.7500
vt -0.0000 0.5000
vt 0.2500 0.5000
vt 0.2500 0.7500
vt -0.0000 0.7500
vt 0.2500 0.7500
vt -0.0000 0.7500
vt -0.0000 0.5000
vt 0.2500 0.5000
vt -0.0000 0.5000
vt 0.2500 0.5000
vt -0.0000 0.5000
vt 0.2500 0.5000
vt 0.2500 0.7500
vt -0.0000 0.7500
vt -0.0000 0.5000
vt 0.2500 0.5000
vt 0.2500 0.7500
vt -0.0000 0.7500
vt -0.0000 0.5000
vt 0.2500 0.5000
vt 0.2500 0.7500
vt -0.0000 0.7500
vt 0.2500 0.7500
vt -0.0000 0.7500
vt 0.2500 0.7500
vt -0.0000 0.7500
vt -0.0000 0.5000
vt 0.2500 0.5000
vn 0.0000 -0.2225 -0.9749
vn 0.0000 -0.6235 -0.7818
vn 0.0000 -0.9010 -0.4339
vn 0.0000 -1.0000 0.0000
vn 0.0000 -0.9010 0.4339
vn 0.0000 -0.6235 0.7818
vn 0.0000 -0.2225 0.9749
vn 0.0000 0.2225 0.9749
vn 0.0000 0.6235 0.7818
vn 0.0000 0.9010 0.4339
vn 0.0000 1.0000 0.0000
vn 0.0000 0.9010 -0.4339
vn 0.0000 0.2225 -0.9749
vn 0.0000 0.6235 -0.7818
vn 1.0000 0.0000 0.0000
vn -1.0000 -0.0000 0.0000
vn 0.0000 -0.9207 -0.3902
vn 0.0000 0.0000 -1.0000
vn 0.0000 -0.0000 1.0000
vn 0.0000 0.8057 -0.5923
vn 0.0000 0.9207 0.3902
vn 0.0000 -0.3902 0.9207
vn 0.0000 0.3902 -0.9207
vn 0.0000 -0.8057 0.5923
vn 0.0000 0.5923 0.8057
vn 0.0000 -0.5923 -0.8057
usemtl Material.001
s 1
f 1/1/1 2/2/1 3/3/1 4/4/1
f 2/5/2 5/6/2 6/7/2 3/8/2
f 5/9/3 7/10/3 8/11/3 6/12/3
f 7/13/4 9/14/4 10/15/4 8/16/4
f 9/17/5 11/18/5 12/19/5 10/20/5
f 11/21/6 13/22/6 14/23/6 12/24/6
f 13/25/7 15/26/7 16/27/7 14/28/7
f 15/29/8 17/30/8 18/31/8 16/32/8
f 17/33/9 19/34/9 20/35/9 18/36/9
f 19/37/10 21/38/10 22/39/10 20/40/10
f 21/41/11 23/42/11 24/43/11 22/44/11
f 23/45/12 25/46/12 26/47/12 24/48/12
f 27/49/13 28/50/13 29/51/13 30/52/13
f 25/53/14 31/54/14 32/55/14 26/56/14
f 31/57/13 1/58/13 4/59/13 32/60/13
f 33/61/15 2/2/15 1/62/15 34/63/15
f 35/64/16 4/65/16 3/3/16 36/66/16
f 37/67/15 5/6/15 2/68/15 33/69/15
f 36/70/16 3/71/16 6/7/16 38/72/16
f 39/73/15 7/10/15 5/74/15 37/75/15
f 38/76/16 6/77/16 8/11/16 40/78/16
f 41/79/15 9/14/15 7/80/15 39/81/15
f 40/82/16 8/83/16 10/15/16 42/84/16
f 43/85/15 11/18/15 9/86/15 41/87/15
f 42/88/16 10/89/16 12/19/16 44/90/16
f 45/91/15 13/22/15 11/92/15 43/93/15
f 44/94/16 12/95/16 14/23/16 30/52/16
f 46/96/15 15/26/15 13/97/15 45/98/15
f 30/99/16 14/100/16 16/27/16 27/101/16
f 47/102/15 17/30/15 15/103/15 46/104/15
f 27/49/16 16/105/16 18/31/16 48/106/16
f 49/107/15 19/34/15 17/108/15 47/109/15
f 48/110/16 18/111/16 20/35/16 50/112/16
f 51/113/15 21/38/15 19/114/15 49/115/15
f 50/116/16 20/117/16 22/39/16 52/118/16
f 53/119/15 23/42/15 21/120/15 51/121/15
f 52/122/16 22/123/16 24/43/16 54/124/16
f 55/125/15 25/46/15 23/126/15 53/127/15
f 54/128/16 24/129/16 26/47/16 56/130/16
f 57/131/15 31/54/15 25/132/15 55/133/15
f 56/134/16 26/135/16 32/55/16 58/136/16
f 34/137/15 1/58/15 31/138/15 57/139/15
f 58/140/16 32/141/16 4/59/16 35/142/16
f 54/128/4 59/143/4 60/144/4 52/118/4
f 42/88/11 61/145/11 62/146/11 40/78/11
f 48/110/1 63/147/1 28/148/1 27/101/1
f 56/134/5 64/149/5 59/150/5 54/124/5
f 36/70/8 65/151/8 66/152/8 35/142/8
f 44/94/12 67/153/12 61/154/12 42/84/12
f 50/116/2 68/155/2 63/156/2 48/106/2
f 58/140/6 69/157/6 64/158/6 56/130/6
f 38/76/9 70/159/9 65/160/9 36/66/9
f 30/99/14 29/161/14 67/162/14 44/90/14
f 52/122/3 60/163/3 68/164/3 50/112/3
f 35/64/7 66/165/7 69/166/7 58/136/7
f 40/82/10 62/167/10 70/168/10 38/72/10
f 71/169/17 72/170/17 73/171/17 74/172/17
f 75/173/18 76/174/18 77/175/18 78/176/18
f 76/177/16 79/178/16 80/179/16 77/180/16
f 79/181/19 81/182/19 82/183/19 80/184/19
f 75/173/4 81/182/4 79/185/4 76/186/4
f 77/187/11 80/188/11 82/183/11 78/176/11
f 83/189/20 84/190/20 85/191/20 86/192/20
f 74/193/17 87/194/17 88/195/17 71/196/17
f 87/197/16 89/198/16 90/199/16 88/200/16
f 89/201/21 91/202/21 92/203/21 90/204/21
f 74/193/22 91/202/22 89/205/22 87/206/22
f 88/207/23 90/208/23 92/203/23 71/196/23
f 81/209/19 93/210/19 94/211/19 82/212/19
f 95/213/24 96/214/24 97/215/24 98/216/24
f 96/217/16 99/218/16 100/219/16 97/220/16
f 99/221/20 83/222/20 86/223/20 100/224/20
f 95/213/25 83/222/25 99/225/25 96/226/25
f 97/227/26 100/228/26 86/223/26 98/216/26
f 101/229/1 102/230/1 103/231/1 104/232/1
f 102/233/2 105/234/2 106/235/2 103/236/2
f 105/237/3 107/238/3 108/239/3 106/240/3
f 107/241/4 109/242/4 110/243/4 108/244/4
f 109/245/5 111/246/5 112/247/5 110/248/5
f 111/249/6 113/250/6 114/251/6 112/252/6
f 113/253/7 115/254/7 116/255/7 114/256/7
f 115/257/8 117/258/8 118/259/8 116/260/8
f 117/261/9 119/262/9 120/263/9 118/264/9
f 119/265/10 121/266/10 122/267/10 120/268/10
f 121/269/11 123/270/11 124/271/11 122/272/11
f 123/273/12 125/274/12 126/275/12 124/276/12
f 127/277/13 128/278/13 129/279/13 130/280/13
f 125/281/14 131/282/14 132/283/14 126/284/14
f 131/285/13 101/286/13 104/287/13 132/288/13
f 133/289/15 102/230/15 101/290/15 134/291/15
f 135/292/16 104/293/16 103/231/16 136/294/16
f 137/295/15 105/234/15 102/296/15 133/297/15
f 136/298/16 103/299/16 106/235/16 138/300/16
f 139/301/15 107/238/15 105/302/15 137/303/15
f 138/304/16 106/305/16 108/239/16 140/306/16
f 141/307/15 109/242/15 107/308/15 139/309/15
f 140/310/16 108/311/16 110/243/16 142/312/16
f 143/313/15 111/246/15 109/314/15 141/315/15
f 142/316/16 110/317/16 112/247/16 144/318/16
f 145/319/15 113/250/15 111/320/15 143/321/15
f 144/322/16 112/323/16 114/251/16 130/280/16
f 146/324/15 115/254/15 113/325/15 145/326/15
f 130/327/16 114/328/16 116/255/16 127/329/16
f 147/330/15 117/258/15 115/331/15 146/332/15
f 127/277/16 116/333/16 118/259/16 148/334/16
f 149/335/15 119/262/15 117/336/15 147/337/15
f 148/338/16 118/339/16 120/263/16 150/340/16
f 151/341/15 121/266/15 119/342/15 149/343/15
f 150/344/16 120/345/16 122/267/16 152/346/16
f 153/347/15 123/270/15 121/348/15 151/349/15
f 152/350/16 122/351/16 124/271/16 154/352/16
f 155/353/15 125/274/15 123/354/15 153/355/15
f 154/356/16 124/357/16 126/275/16 156/358/16
f 157/359/15 131/282/15 125/360/15 155/361/15
f 156/362/16 126/363/16 132/283/16 158/364/16
f 134/365/15 101/286/15 131/366/15 157/367/15
f 158/368/16 132/369/16 104/287/16 135/370/16
f 154/356/4 159/371/4 160/372/4 152/346/4
f 142/316/11 161/373/11 162/374/11 140/306/11
f 148/338/1 163/375/1 128/376/1 127/329/1
f 156/362/5 164/377/5 159/378/5 154/352/5
f 136/298/8 165/379/8 166/380/8 135/370/8
f 144/322/12 167/381/12 161/382/12 142/312/12
f 150/344/2 168/383/2 163/384/2 148/334/2
f 158/368/6 169/385/6 164/386/6 156/358/6
f 138/304/9 170/387/9 165/388/9 136/294/9
f 130/327/14 129/389/14 167/390/14 144/318/14
f 152/350/3 160/391/3 168/392/3 150/340/3
f 135/292/7 166/393/7 169/394/7 158/364/7
f 140/310/10 162/395/10 170/396/10 138/300/10
f 93/397/15 171/398/15 172/399/15 94/400/15
f 173/401/15 73/402/15 72/403/15 174/404/15
f 84/405/15 175/406/15 176/407/15 85/408/15
f 74/193/22 73/402/22 173/409/22 91/410/22
f 82/411/11 94/412/11 172/399/11 78/176/11
f 86/413/26 85/414/26 176/407/26 98/216/26
f 91/415/21 173/416/21 174/417/21 92/418/21
f 78/419/18 172/420/18 171/421/18 75/422/18
f 98/423/24 176/424/24 175/425/24 95/426/24
f 75/173/4 171/398/4 93/427/4 81/428/4
f 95/213/25 175/406/25 84/429/25 83/430/25
f 92/431/23 174/432/23 72/403/23 71/196/23
