# Blender v2.79 (sub 0) OBJ File: ''
# www.blender.org
mtllib cbradio.mtl
o knob
v 0.164062 0.093750 0.109375
v 0.164062 0.093750 0.140625
v 0.164062 0.031250 0.140625
v 0.164062 0.031250 0.109375
v 0.101562 0.031250 0.140625
v 0.101562 0.093750 0.140625
v 0.101562 0.093750 0.109375
v 0.101562 0.031250 0.109375
vt 0.937500 0.937500
vt 0.937500 1.000000
vt 0.875000 1.000000
vt 0.875000 0.937500
vt 0.875000 0.875000
vt 0.875000 0.937500
vt 0.812500 0.937500
vt 0.812500 0.875000
vt 1.000000 0.937500
vt 1.000000 1.000000
vt 0.937500 1.000000
vt 0.937500 0.937500
vt 0.937500 0.875000
vt 0.937500 0.937500
vt 0.875000 0.937500
vt 0.875000 0.875000
vt 0.875000 0.937500
vt 0.875000 1.000000
vt 0.812500 1.000000
vt 0.812500 0.937500
vt 0.531250 0.968750
vt 0.531250 0.875000
vt 0.656250 0.875000
vt 0.656250 0.968750
vn 1.0000 0.0000 0.0000
vn -1.0000 0.0000 0.0000
vn 0.0000 1.0000 0.0000
vn 0.0000 -1.0000 0.0000
vn 0.0000 0.0000 1.0000
vn 0.0000 0.0000 -1.0000
usemtl m_0
s 1
f 1/1/1 2/2/1 3/3/1 4/4/1
f 5/5/2 6/6/2 7/7/2 8/8/2
f 6/9/3 2/10/3 1/11/3 7/12/3
f 4/13/4 3/14/4 5/15/4 8/16/4
f 3/17/5 2/18/5 6/19/5 5/20/5
f 7/21/6 1/22/6 4/23/6 8/24/6
o thing
v -0.164062 0.109375 0.078125
v -0.164062 0.109375 0.171875
v -0.070312 0.109375 0.171875
v -0.070312 0.109375 0.078125
v -0.070312 0.015625 0.171875
v -0.164062 0.015625 0.171875
v -0.164062 0.015625 0.078125
v -0.070312 0.015625 0.078125
v -0.085938 0.015625 0.093750
v -0.085938 0.015625 0.156250
v -0.085938 -0.015625 0.156250
v -0.085938 -0.015625 0.093750
v -0.148438 -0.015625 0.156250
v -0.148438 0.015625 0.156250
v -0.148438 0.015625 0.093750
v -0.148438 -0.015625 0.093750
vt 0.625000 0.812500
vt 0.625000 0.875000
vt 0.562500 0.875000
vt 0.562500 0.812500
vt 0.625000 0.875000
vt 0.625000 0.812500
vt 0.562500 0.812500
vt 0.562500 0.875000
vt 0.562500 0.875000
vt 0.625000 0.812500
vt 0.625000 0.812500
vt 0.562500 0.875000
vt 0.562500 0.812500
vt 0.531250 0.968750
vt 0.531250 0.875000
vt 0.656250 0.875000
vt 0.656250 0.968750
vt 0.562500 0.812500
vt 0.562500 0.875000
vt 0.531250 0.875000
vt 0.531250 0.812500
vt 0.625000 0.843750
vt 0.625000 0.875000
vt 0.562500 0.875000
vt 0.562500 0.843750
vt 0.625000 0.843750
vt 0.625000 0.875000
vt 0.562500 0.875000
vt 0.562500 0.843750
vt 0.625000 0.843750
vt 0.625000 0.875000
vt 0.562500 0.875000
vt 0.625000 0.843750
vt 0.562500 0.875000
vt 0.562500 0.843750
vt 0.562500 0.812500
vt 0.531250 0.875000
vt 0.531250 0.812500
vn 0.0000 1.0000 0.0000
vn 0.0000 -1.0000 -0.0000
vn -1.0000 -0.0000 0.0000
vn 1.0000 0.0000 0.0000
vn 0.0000 0.0000 1.0000
vn 0.0000 0.0000 -1.0000
usemtl m_0
s 1
f 9/25/7 10/26/7 11/27/7 12/28/7
f 13/29/8 14/30/8 15/31/8 16/32/8
f 14/30/9 10/26/9 9/33/9 15/31/9
f 12/28/10 11/27/10 13/29/10 16/34/10
f 11/35/11 10/26/11 14/36/11 13/37/11
f 15/38/12 9/39/12 12/40/12 16/41/12
f 17/42/10 18/43/10 19/44/10 20/45/10
f 21/46/9 22/47/9 23/48/9 24/49/9
f 22/50/7 18/51/7 17/52/7 23/53/7
f 20/54/8 19/55/8 21/56/8 24/49/8
f 19/57/11 18/51/11 22/58/11 21/59/11
f 23/60/12 17/52/12 20/61/12 24/62/12
o screen
v 0.085938 0.093750 0.109375
v 0.085938 0.093750 0.140625
v 0.085938 0.031250 0.140625
v 0.085938 0.031250 0.109375
v -0.054688 0.031250 0.140625
v -0.054688 0.093750 0.140625
v -0.054688 0.093750 0.109375
v -0.054688 0.031250 0.109375
vt 0.656250 0.875000
vt 0.625000 0.875000
vt 0.625000 0.812500
vt 0.656250 0.812500
vt 0.625000 0.812500
vt 0.625000 0.875000
vt 0.593750 0.875000
vt 0.593750 0.812500
vt 0.375000 0.843750
vt 0.593750 0.843750
vt 0.593750 0.875000
vt 0.375000 0.875000
vt 0.593750 0.812500
vt 0.593750 0.843750
vt 0.375000 0.843750
vt 0.375000 0.812500
vt 0.656250 0.875000
vt 0.656250 1.000000
vt 0.375000 1.000000
vt 0.375000 0.875000
vt 0.812500 0.875000
vt 0.812500 1.000000
vt 0.375000 1.000000
vt 0.375000 0.875000
vn 1.0000 0.0000 0.0000
vn -1.0000 0.0000 0.0000
vn 0.0000 1.0000 0.0000
vn 0.0000 -1.0000 0.0000
vn 0.0000 0.0000 1.0000
vn 0.0000 0.0000 -1.0000
usemtl m_0
s 1
f 25/63/13 26/64/13 27/65/13 28/66/13
f 29/67/14 30/68/14 31/69/14 32/70/14
f 30/71/15 26/72/15 25/73/15 31/74/15
f 28/75/16 27/76/16 29/77/16 32/78/16
f 27/79/17 26/80/17 30/81/17 29/82/17
f 31/83/18 25/84/18 28/85/18 32/86/18
o cube
v 0.187500 0.125000 -0.125000
v 0.187500 0.125000 0.125000
v 0.187500 -0.000000 0.125000
v 0.187500 0.000000 -0.125000
v -0.187500 -0.000000 0.125000
v -0.187500 0.125000 0.125000
v -0.187500 0.125000 -0.125000
v -0.187500 0.000000 -0.125000
vt 0.125000 0.812500
vt 0.000000 0.812500
vt 0.000000 0.750000
vt 0.125000 0.750000
vt 0.250000 0.750000
vt 0.250000 0.812500
vt 0.125000 0.812500
vt 0.125000 0.750000
vt 0.187500 0.875000
vt 0.375000 0.875000
vt 0.375000 1.000000
vt 0.187500 1.000000
vt 0.187500 0.875000
vt 0.187500 1.000000
vt 0.000000 1.000000
vt 0.000000 0.875000
vt 0.375000 0.812500
vt 0.187500 0.812500
vt 0.187500 0.875000
vt 0.000000 0.875000
vt 0.000000 0.812500
vt 0.187500 0.812500
vn 1.0000 0.0000 0.0000
vn -1.0000 -0.0000 0.0000
vn 0.0000 1.0000 0.0000
vn 0.0000 -1.0000 -0.0000
vn 0.0000 0.0000 1.0000
vn 0.0000 0.0000 -1.0000
usemtl m_0
s 1
f 33/87/19 34/88/19 35/89/19 36/90/19
f 37/91/20 38/92/20 39/93/20 40/94/20
f 38/95/21 34/96/21 33/97/21 39/98/21
f 36/99/22 35/100/22 37/101/22 40/102/22
f 35/103/23 34/96/23 38/95/23 37/104/23
f 39/105/24 33/106/24 36/107/24 40/108/24
