# Blender v2.78 (sub 0) OBJ File: ''
# www.blender.org
mtllib scoutgl.mtl
o $launcher
v -0.212577 -0.082671 -0.196003
v -0.118098 -0.082671 -0.196003
v -0.118098 -0.047241 -0.196003
v -0.212577 -0.047241 -0.196003
v 0.059049 -0.047241 0.524397
v -0.047239 -0.047241 0.524397
v -0.047239 -0.047241 0.559827
v 0.059049 -0.047241 0.559827
v 0.118098 0.013486 -0.290482
v -0.118098 0.013486 -0.290482
v -0.118098 -0.070022 -0.206974
v 0.118098 -0.070022 -0.206974
v 0.118098 -0.083655 0.284520
v -0.118098 -0.083655 0.284520
v -0.118098 -0.088544 0.228636
v 0.118098 -0.088544 0.228636
v 0.059049 0.059047 0.252771
v -0.059049 0.059047 0.252771
v -0.059049 0.059047 0.524397
v 0.059049 0.059047 0.524397
v 0.118098 -0.079718 0.273438
v -0.118098 -0.079718 0.273438
v -0.118098 -0.079718 0.134673
v 0.118098 -0.079718 0.134673
v -0.059049 -0.059051 0.252771
v -0.059049 -0.059051 0.524397
v 0.059049 -0.059051 0.524397
v 0.059049 -0.059051 0.252771
v 0.118098 -0.153530 0.134673
v -0.118098 -0.153530 0.134673
v -0.118098 -0.046496 0.084762
v 0.118098 -0.046496 0.084762
v -0.212577 -0.082671 -0.231433
v -0.118098 -0.082671 -0.231433
v 0.047239 0.059047 0.512588
v -0.047239 0.059047 0.512588
v -0.047239 0.059047 0.512493
v 0.047239 0.059047 0.512493
v 0.118098 -0.153530 -0.290482
v -0.118098 -0.153530 -0.290482
v -0.118098 -0.070022 -0.373990
v 0.118098 -0.070022 -0.373990
v -0.212577 0.059047 -0.231433
v -0.248007 0.059047 -0.231433
v -0.248007 0.059047 -0.196003
v -0.212577 0.059047 -0.196003
v -0.118098 0.047237 0.046099
v -0.118098 0.057219 0.067505
v -0.118098 0.067923 0.062514
v -0.118098 0.057941 0.041108
v -0.118098 0.066347 0.271396
v -0.118098 0.061458 0.215513
v 0.118098 0.047237 0.046099
v 0.094479 0.047237 0.046099
v 0.094479 0.057941 0.041108
v 0.118098 0.057941 0.041108
v 0.047239 0.079714 -0.119239
v 0.047239 0.079714 -0.131049
v 0.047239 0.085619 -0.131049
v 0.047239 0.085619 -0.119239
v 0.118098 0.082667 0.134673
v -0.118098 0.082667 0.134673
v -0.118098 0.082667 0.273438
v 0.118098 0.082667 0.273438
v -0.094479 0.082667 0.046099
v -0.118098 0.082667 0.046099
v -0.118098 0.082667 0.069718
v -0.094479 0.082667 0.069718
v -0.118098 0.056095 0.046099
v -0.118098 0.056095 0.069718
v -0.094479 0.057219 0.067505
v -0.094479 0.047237 0.046099
v 0.059049 -0.047241 0.559827
v 0.059049 -0.047241 0.524397
v 0.059049 0.059047 0.524397
v 0.059049 0.059047 0.559827
v 0.118098 0.047237 0.046099
v -0.118098 0.047237 0.046099
v -0.118098 0.047237 -0.125144
v 0.118098 0.047237 -0.125144
v -0.047239 0.188955 0.512493
v 0.047239 0.188955 0.512493
v 0.118098 -0.036271 -0.338560
v 0.118098 -0.036271 -0.373990
v 0.118098 -0.000841 -0.373990
v 0.118098 -0.000841 -0.338560
v 0.118098 -0.153530 -0.125144
v -0.118098 -0.153530 -0.125144
v -0.118098 -0.118100 -0.125144
v 0.118098 -0.118100 -0.125144
v -0.115146 -0.118100 -0.125144
v -0.115146 -0.118100 0.063814
v -0.115146 0.047237 0.063814
v -0.115146 0.047237 -0.125144
v 0.118098 -0.153530 -0.125144
v 0.118098 -0.153530 -0.290482
v 0.118098 0.082667 -0.290482
v 0.118098 0.082667 -0.125144
v 0.118098 0.066347 0.271396
v -0.047239 0.079714 -0.119239
v -0.047239 0.085619 -0.119239
v -0.118098 -0.036271 -0.373990
v -0.118098 -0.000841 -0.373990
v 0.047239 -0.047241 0.524397
v 0.047239 0.059047 0.524397
v 0.094479 0.057219 0.067505
v 0.094479 0.067923 0.062514
v -0.118098 -0.083655 0.284520
v -0.118098 0.023378 0.234609
v -0.094479 0.056095 0.069718
v 0.118098 0.082667 0.063814
v -0.118098 0.082667 0.063814
v -0.118098 0.082667 0.134673
v 0.118098 0.082667 0.134673
v 0.118098 -0.070022 -0.338560
v 0.118098 -0.070022 -0.373990
v 0.118098 -0.034592 -0.373990
v 0.118098 -0.034592 -0.338560
v 0.047239 0.047237 0.524397
v -0.059049 0.047237 0.524397
v -0.059049 0.059047 0.524397
v 0.047239 0.059047 0.524397
v 0.118098 -0.153530 0.063814
v 0.118098 -0.118100 0.063814
v -0.118098 -0.070022 -0.338560
v -0.118098 -0.034592 -0.338560
v -0.212577 -0.082671 -0.231433
v -0.248007 -0.082671 -0.231433
v -0.118098 0.082667 0.046099
v -0.118098 0.082667 -0.125144
v -0.047239 0.079714 -0.131049
v -0.047239 0.085619 -0.131049
v -0.059049 0.047237 0.559827
v 0.047239 0.047237 0.559827
v 0.047239 0.059047 0.559827
v -0.059049 0.059047 0.559827
v 0.118098 0.082667 0.046099
v 0.118098 -0.153530 0.063814
v -0.118098 -0.153530 0.063814
v -0.118098 -0.153530 0.134673
v -0.118098 -0.118100 0.063814
v -0.118098 -0.047241 -0.231433
v 0.115146 -0.118100 0.063814
v 0.115146 -0.118100 -0.125144
v 0.115146 0.047237 -0.125144
v 0.115146 0.047237 0.063814
v -0.059049 -0.059051 0.524397
v -0.059049 -0.059051 0.559827
v -0.059049 0.047237 0.559827
v -0.059049 0.047237 0.524397
v -0.118098 -0.000841 -0.373990
v -0.118098 -0.084350 -0.290482
v -0.118098 -0.000841 -0.206974
v -0.118098 0.082667 -0.290482
v -0.118098 -0.034592 -0.373990
v 0.118098 0.082667 -0.125144
v 0.118098 -0.082671 -0.196003
v 0.212577 -0.082671 -0.196003
v 0.212577 -0.047241 -0.196003
v 0.118098 -0.047241 -0.196003
v -0.212577 -0.082671 -0.196003
v -0.248007 -0.082671 -0.196003
v -0.118098 -0.070022 -0.373990
v -0.118098 -0.036271 -0.338560
v -0.118098 -0.153530 -0.290482
v -0.118098 0.082667 -0.290482
v 0.047239 -0.047241 0.559827
v 0.047239 0.059047 0.559827
v -0.118098 -0.153530 0.063814
v -0.047239 0.188955 0.512588
v 0.118098 0.057219 0.067505
v 0.118098 0.067923 0.062514
v 0.094479 0.056095 0.069718
v 0.118098 0.056095 0.069718
v 0.118098 0.082667 0.069718
v 0.094479 0.082667 0.069718
v 0.248007 -0.082671 -0.196003
v 0.212577 -0.082671 -0.196003
v 0.212577 -0.082671 -0.231433
v 0.248007 -0.082671 -0.231433
v 0.118098 -0.153530 0.134673
v -0.047239 -0.059051 0.524397
v -0.047239 0.047237 0.524397
v 0.248007 0.059047 -0.196003
v 0.212577 0.059047 -0.196003
v 0.212577 0.059047 -0.231433
v 0.212577 -0.047241 -0.231433
v 0.118098 -0.047241 -0.231433
v -0.118098 -0.153530 -0.125144
v -0.118098 0.082667 -0.125144
v -0.047239 -0.059051 0.524397
v -0.047239 -0.059051 0.559827
v -0.094479 0.056095 0.046099
v 0.047239 0.188955 0.512588
v -0.094479 0.057941 0.041108
v 0.118098 0.056095 0.046099
v 0.094479 0.056095 0.046099
v 0.094479 0.082667 0.046099
v 0.118098 0.082667 0.046099
v -0.094479 0.067923 0.062514
v 0.212577 -0.082671 -0.231433
v 0.118098 -0.082671 -0.231433
v 0.248007 0.059047 -0.231433
v 0.059049 -0.059051 0.524397
v 0.118098 -0.084350 -0.290482
v 0.118098 -0.000841 -0.373990
v 0.118098 0.082667 -0.290482
v 0.118098 -0.000841 -0.206974
v -0.212577 -0.047241 -0.231433
v 0.059049 -0.059051 0.559827
v -0.118098 -0.000841 -0.338560
v 0.118098 -0.083655 0.284520
v 0.118098 0.023378 0.234609
v -0.047239 -0.059051 0.559827
v -0.047239 0.047237 0.559827
v 0.118098 0.061458 0.215513
vt 0.1250 0.8750
vt 0.2500 0.8750
vt 0.2500 1.0000
vt 0.1250 1.0000
vt 0.1250 0.8750
vt 0.2500 0.8750
vt 0.2500 1.0000
vt 0.1250 1.0000
vt 0.0000 0.8750
vt 0.1250 0.8750
vt 0.1250 1.0000
vt 0.0000 1.0000
vt 0.0000 0.8750
vt 0.1250 0.8750
vt 0.1250 1.0000
vt 0.0000 1.0000
vt 0.1250 0.8750
vt 0.2500 0.8750
vt 0.2500 1.0000
vt 0.1250 1.0000
vt 0.0000 0.8750
vt 0.1250 0.8750
vt 0.1250 1.0000
vt 0.0000 1.0000
vt 0.1250 0.8750
vt 0.2500 0.8750
vt 0.1250 1.0000
vt 0.1250 0.8750
vt 0.2500 0.8750
vt 0.2500 1.0000
vt 0.0000 0.8750
vt 0.1250 0.8750
vt 0.1250 1.0000
vt 0.0000 1.0000
vt 0.1250 0.8750
vt 0.2500 0.8750
vt 0.2500 1.0000
vt 0.1250 1.0000
vt 0.5000 1.0000
vt 0.5000 1.0000
vt 0.5000 1.0000
vt 0.5000 1.0000
vt 0.0000 0.8750
vt 0.1250 0.8750
vt 0.1250 1.0000
vt 0.0000 1.0000
vt 0.1250 0.8750
vt 0.2500 0.8750
vt 0.2500 1.0000
vt 0.1250 1.0000
vt 0.1250 0.7500
vt 0.2500 0.7500
vt 0.2500 0.8750
vt 0.1250 0.8750
vt 0.0000 0.8750
vt 0.1250 1.0000
vt 0.0000 1.0000
vt 0.1250 0.7500
vt 0.2500 0.7500
vt 0.2500 0.8750
vt 0.1250 0.8750
vt 0.1250 0.8750
vt 0.2500 0.8750
vt 0.2500 1.0000
vt 0.1250 1.0000
vt 0.0000 0.8750
vt 0.1250 0.8750
vt 0.1250 1.0000
vt 0.0000 1.0000
vt 0.1250 0.8750
vt 0.1250 1.0000
vt 0.2500 1.0000
vt 0.1250 1.0000
vt 0.0000 0.8750
vt 0.0000 1.0000
vt 0.1250 0.7500
vt 0.2500 0.7500
vt 0.2500 0.8750
vt 0.1250 0.8750
vt 0.1250 0.7500
vt 0.2500 0.7500
vt 0.1250 0.8750
vt 0.1250 0.7500
vt 0.2500 0.8750
vt 0.1250 0.8750
vt 0.1250 0.8750
vt 0.2500 0.8750
vt 0.2500 1.0000
vt 0.1250 1.0000
vt 0.0000 0.8750
vt 0.1250 0.8750
vt 0.1250 1.0000
vt 0.0000 1.0000
vt 0.0000 0.3750
vt 0.2500 0.3750
vt 0.2500 0.7500
vt 0.0000 0.7500
vt 0.0000 0.8750
vt 0.1250 0.8750
vt 0.1250 1.0000
vt 0.0000 1.0000
vt 0.0000 0.8750
vt 0.1250 0.8750
vt 0.1250 1.0000
vt 0.0000 1.0000
vt 0.4375 0.0000
vt 1.0000 0.0000
vt 1.0000 0.5000
vt 0.4375 0.5000
vt 0.0000 0.8750
vt 0.1250 0.8750
vt 0.1250 1.0000
vt 0.0000 1.0000
vt 0.0000 0.8750
vt 0.1250 0.8750
vt 0.1250 1.0000
vt 0.0000 1.0000
vt 0.1250 0.8750
vt 0.2500 0.8750
vt 0.2500 1.0000
vt 0.1250 1.0000
vt 0.0000 0.8750
vt 0.1250 0.8750
vt 0.1250 1.0000
vt 0.0000 1.0000
vt 0.1250 0.8750
vt 0.2500 0.8750
vt 0.2500 1.0000
vt 0.1250 1.0000
vt 0.1250 0.7500
vt 0.2500 0.7500
vt 0.2500 0.8750
vt 0.1250 0.8750
vt 0.0000 0.8750
vt 0.1250 0.8750
vt 0.1250 1.0000
vt 0.0000 1.0000
vt 0.1250 0.7500
vt 0.2500 0.7500
vt 0.2500 0.8750
vt 0.1250 0.8750
vt 0.0000 0.8750
vt 0.1250 0.8750
vt 0.1250 1.0000
vt 0.0000 1.0000
vt 0.0000 0.8750
vt 0.1250 0.8750
vt 0.1250 1.0000
vt 0.0000 1.0000
vt 0.1250 0.8750
vt 0.2500 0.8750
vt 0.2500 1.0000
vt 0.1250 1.0000
vt 0.0000 0.8750
vt 0.1250 0.8750
vt 0.1250 1.0000
vt 0.0000 1.0000
vt 0.0000 0.8750
vt 0.1250 0.8750
vt 0.1250 1.0000
vt 0.0000 1.0000
vt 0.0000 0.0000
vt 0.0938 0.0000
vt 0.0938 0.3125
vt 0.0000 0.3125
vt 0.0000 0.8750
vt 0.1250 1.0000
vt 0.0000 1.0000
vt 0.1250 0.8750
vt 0.2500 0.8750
vt 0.2500 1.0000
vt 0.1250 1.0000
vt 0.1250 0.8750
vt 0.2500 0.8750
vt 0.2500 1.0000
vt 0.1250 1.0000
vt 0.0000 0.8750
vt 0.1250 0.8750
vt 0.1250 1.0000
vt 0.0000 1.0000
vt 0.1250 0.8750
vt 0.2500 0.8750
vt 0.2500 1.0000
vt 0.1250 1.0000
vt 0.0000 0.8750
vt 0.1250 0.8750
vt 0.1250 1.0000
vt 0.0000 1.0000
vt 0.0000 0.8750
vt 0.1250 0.8750
vt 0.0000 1.0000
vt 0.0000 0.7500
vt 0.1250 0.7500
vt 0.1250 0.8750
vt 0.0000 0.8750
vt 0.0000 0.8750
vt 0.1250 0.8750
vt 0.1250 1.0000
vt 0.2500 0.8750
vt 0.2500 1.0000
vt 0.1250 1.0000
vt 0.4375 0.0000
vt 1.0000 0.0000
vt 1.0000 0.5000
vt 0.4375 0.5000
vt 0.4375 0.0000
vt 1.0000 0.0000
vt 0.1250 0.8750
vt 0.2500 0.8750
vt 0.2500 1.0000
vt 0.1250 1.0000
vt 0.1250 0.8750
vt 0.2500 0.8750
vt 0.2500 1.0000
vt 0.1250 1.0000
vt 0.0000 0.8750
vt 0.1250 0.8750
vt 0.1250 1.0000
vt 0.0000 1.0000
vt 0.0000 0.8750
vt 0.1250 0.8750
vt 0.1250 1.0000
vt 0.1250 0.8750
vt 0.1250 1.0000
vt 0.0000 1.0000
vt 0.2500 0.8750
vt 0.1250 0.8750
vt 0.1250 1.0000
vt 0.2500 1.0000
vt 0.1250 0.8750
vt 0.2500 0.8750
vt 0.2500 1.0000
vt 0.1250 1.0000
vt 0.0000 0.8750
vt 0.1250 0.8750
vt 0.1250 1.0000
vt 0.0000 1.0000
vt 0.1250 0.8750
vt 0.1250 1.0000
vt 0.0000 1.0000
vt 0.0000 0.8750
vt 0.1250 0.8750
vt 0.1250 1.0000
vt 0.0000 1.0000
vt 0.1250 0.8750
vt 0.2500 0.8750
vt 0.2500 1.0000
vt 0.1250 1.0000
vt 0.0000 0.8750
vt 0.1250 0.8750
vt 0.1250 1.0000
vt 0.0000 1.0000
vt 0.5000 1.0000
vt 0.5000 1.0000
vt 0.1250 0.7500
vt 0.2500 0.7500
vt 0.2500 0.8750
vt 0.1250 0.8750
vt 0.1250 0.7500
vt 0.2500 0.7500
vt 0.2500 0.8750
vt 0.1250 0.8750
vt 0.1250 0.8750
vt 0.2500 0.8750
vt 0.2500 1.0000
vt 0.1250 1.0000
vt 0.0000 0.8750
vt 0.1250 1.0000
vt 0.0000 1.0000
vt 0.0000 0.8750
vt 0.1250 0.8750
vt 0.1250 1.0000
vt 0.0000 1.0000
vt 0.1250 0.8750
vt 0.2500 0.8750
vt 0.2500 1.0000
vt 0.1250 1.0000
vt 0.0938 0.0000
vt 0.0000 0.0000
vt 0.0000 0.3125
vt 0.0938 0.3125
vt 0.0000 0.0000
vt 0.0000 0.3125
vt 0.2500 0.8750
vt 0.1250 0.8750
vt 0.1250 1.0000
vt 0.2500 1.0000
vt 0.1250 0.8750
vt 0.1250 1.0000
vt 0.0000 1.0000
vt 0.1250 0.8750
vt 0.1250 1.0000
vt 0.0000 1.0000
vt 0.0000 0.8750
vt 0.1250 0.8750
vt 0.1250 1.0000
vt 0.1250 0.8750
vt 0.2500 0.8750
vt 0.1250 1.0000
vt 0.0000 0.8750
vt 0.1250 0.8750
vt 0.1250 1.0000
vt 0.0000 1.0000
vt 0.1250 0.7500
vt 0.2500 0.8750
vt 0.1250 0.8750
vt 0.5000 1.0000
vt 0.5000 1.0000
vt 0.1250 0.7500
vt 0.2500 0.7500
vt 0.2500 0.8750
vt 0.1250 0.8750
vt 0.1250 0.7500
vt 0.2500 0.7500
vt 0.2500 0.8750
vt 0.1250 0.8750
vt 0.1250 0.7500
vt 0.2500 0.7500
vt 0.1250 0.8750
vt 0.1250 0.8750
vt 0.2500 0.8750
vt 0.2500 1.0000
vt 0.1250 1.0000
vt 0.0000 0.0000
vt 0.0938 0.0000
vt 0.0938 0.3125
vt 0.0000 0.3125
vt 0.1250 0.8750
vt 0.2500 0.8750
vt 0.2500 1.0000
vt 0.1250 1.0000
vt 0.1250 0.8750
vt 0.2500 0.8750
vt 0.2500 0.8750
vt 0.1250 0.8750
vt 0.1250 0.7500
vt 0.2500 0.7500
vt 0.2500 0.8750
vt 0.1250 0.8750
vt 0.1250 0.7500
vt 0.2500 0.7500
vt 0.2500 0.8750
vt 0.1250 0.8750
vt 0.2500 1.0000
vt 0.1250 1.0000
vt 0.2500 0.8750
vt 0.1250 0.8750
vt 0.1250 1.0000
vt 0.2500 1.0000
vt 0.0938 0.0000
vt 0.0938 0.3125
vt 0.1250 0.8750
vt 0.2500 0.8750
vt 0.1250 0.8750
vt 0.2500 0.8750
vt 0.2500 1.0000
vt 0.1250 1.0000
vt 0.1250 0.8750
vt 0.1250 1.0000
vt 0.1250 0.8750
vt 0.2500 0.8750
vt 0.2500 1.0000
vt 0.1250 1.0000
vt 0.0000 0.8750
vt 0.1250 0.8750
vt 0.1250 1.0000
vt 0.0000 1.0000
vt 0.1250 0.7500
vt 0.2500 0.7500
vt 0.1250 0.8750
vt 0.2500 0.8750
vt 0.2500 1.0000
vt 0.0000 0.8750
vt 0.1250 0.8750
vt 0.1250 1.0000
vt 0.0000 1.0000
vt 0.1250 0.8750
vt 0.2500 1.0000
vt 0.1250 1.0000
vt 0.2500 1.0000
vt 0.1250 1.0000
vt 0.0000 0.8750
vt 0.1250 0.8750
vt 0.1250 1.0000
vt 0.0000 0.8750
vt 0.1250 0.8750
vt 0.1250 1.0000
vt 0.0000 1.0000
vt 0.0000 0.8750
vt 0.1250 0.8750
vt 0.1250 1.0000
vt 0.0000 1.0000
vt 0.0000 0.8750
vt 0.1250 1.0000
vt 0.0000 1.0000
vt 0.0000 0.8750
vt 0.1250 0.8750
vt 0.1250 1.0000
vt 0.0000 1.0000
vt 0.0000 0.8750
vt 0.0000 1.0000
vt 0.2500 0.8750
vt 0.1250 0.8750
vt 0.1250 1.0000
vt 0.2500 1.0000
vt 0.0000 0.8750
vt 0.1250 0.8750
vt 0.1250 1.0000
vt 0.0000 1.0000
vt 0.1250 0.7500
vt 0.2500 0.7500
vt 0.2500 0.8750
vt 0.1250 0.8750
vt 0.1250 1.0000
vt 0.0000 1.0000
vt 0.2500 0.8750
vt 0.2500 1.0000
vt 0.1250 0.8750
vt 0.1250 1.0000
vt 0.0000 0.8750
vt 0.1250 0.8750
vt 0.1250 1.0000
vt 0.0000 1.0000
vt 0.0000 0.8750
vt 0.1250 0.8750
vt 0.1250 0.8750
vt 0.2500 0.8750
vt 0.2500 1.0000
vt 0.1250 1.0000
vt 0.1250 0.8750
vt 0.2500 0.8750
vt 0.2500 1.0000
vt 0.1250 1.0000
vt 0.1250 0.8750
vt 0.2500 0.8750
vt 1.0000 0.5000
vt 0.4375 0.5000
vt 0.0000 0.8750
vt 0.1250 0.8750
vt 0.0000 0.8750
vt 0.1250 0.8750
vt 0.0000 1.0000
vt 0.0000 0.8750
vt 0.1250 0.8750
vt 0.1250 1.0000
vt 0.0000 1.0000
vt 0.0000 0.8750
vt 0.1250 0.8750
vt 0.1250 1.0000
vt 0.0000 1.0000
vt 0.1250 0.7500
vt 0.2500 0.7500
vt 0.2500 0.8750
vt 0.1250 0.8750
vt 0.1250 0.8750
vt 0.1250 1.0000
vt 0.1250 0.8750
vt 0.1250 1.0000
vt 0.0000 0.8750
vt 0.1250 0.8750
vt 0.1250 1.0000
vt 0.0000 1.0000
vt 0.2500 0.7500
vt 0.2500 0.8750
vt 0.1250 0.8750
vt 0.2500 1.0000
vt 0.1250 1.0000
vt 0.1250 0.7500
vt 0.2500 0.7500
vt 0.2500 0.8750
vt 0.1250 0.7500
vt 0.1250 0.8750
vt 0.0000 0.8750
vt 0.0000 1.0000
vt 0.0000 0.8750
vt 0.1250 0.8750
vt 0.0000 1.0000
vt 0.0000 0.8750
vt 0.0000 1.0000
vt 0.0000 0.8750
vt 0.0000 1.0000
vt 0.1250 0.8750
vt 0.2500 0.8750
vt 0.2500 1.0000
vt 0.1250 1.0000
vt 0.1250 0.8750
vt 0.1250 1.0000
vt 0.0000 1.0000
vt 0.0000 0.8750
vt 0.1250 0.8750
vt 0.1250 1.0000
vt 0.0000 1.0000
vt 0.1250 0.8750
vt 0.2500 0.8750
vt 0.2500 1.0000
vt 0.1250 1.0000
vt 0.1250 1.0000
vt 0.0000 1.0000
vt 0.2500 0.8750
vt 0.2500 1.0000
vt 0.1250 0.8750
vt 0.2500 0.8750
vt 0.2500 1.0000
vt 0.1250 1.0000
vt 0.0000 0.8750
vt 0.1250 0.8750
vt 0.0000 0.8750
vt 0.1250 0.8750
vt 0.1250 1.0000
vt 0.0000 1.0000
vt 0.2500 0.7500
vt 0.2500 0.8750
vt 0.1250 0.8750
vt 0.2500 0.8750
vt 0.2500 1.0000
vt 0.1250 1.0000
vt 0.2500 0.7500
vt 0.2500 0.8750
vt 0.1250 0.8750
vt 0.1250 1.0000
vt 0.0000 0.8750
vt 0.1250 0.8750
vt 0.1250 1.0000
vt 0.0000 1.0000
vn 0.0000 0.0000 1.0000
vn 0.0000 1.0000 0.0000
vn 0.0000 0.7071 0.7071
vn 0.0000 -0.9962 0.0872
vn 0.0000 -1.0000 -0.0000
vn -1.0000 0.0000 0.0000
vn 1.0000 0.0000 0.0000
vn 0.0000 -0.4226 -0.9063
vn 0.0000 -0.7071 -0.7071
vn 0.0000 -0.9063 0.4226
vn 0.0000 0.0000 -1.0000
vn 0.0000 0.0872 0.9962
vn 0.0000 0.9063 -0.4226
vn 0.0000 0.4226 0.9063
vn 0.0000 -0.7071 0.7071
vn 0.0000 0.7071 -0.7071
vn 0.0000 0.9962 -0.0872
vn 0.0000 -0.0872 -0.9962
usemtl m_0.002
s 1
f 1/1/1 2/2/1 3/3/1 4/4/1
f 5/5/2 6/6/2 7/7/2 8/8/2
f 9/9/3 10/10/3 11/11/3 12/12/3
f 13/13/4 14/14/4 15/15/4 16/16/4
f 17/17/2 18/18/2 19/19/2 20/20/2
f 21/21/5 22/22/5 23/23/5 24/24/5
f 25/25/6 26/26/6 19/19/6 18/27/6
f 27/28/7 28/29/7 17/30/7 20/20/7
f 29/31/8 30/32/8 31/33/8 32/34/8
f 2/35/5 1/36/5 33/37/5 34/38/5
f 35/39/5 36/40/5 37/41/5 38/42/5
f 39/43/9 40/44/9 41/45/9 42/46/9
f 43/47/2 44/48/2 45/49/2 46/50/2
f 47/51/6 48/52/6 49/53/6 50/54/6
f 15/55/6 14/14/6 51/56/6 52/57/6
f 53/58/8 54/59/8 55/60/8 56/61/8
f 57/62/7 58/63/7 59/64/7 60/65/7
f 61/66/2 62/67/2 63/68/2 64/69/2
f 21/21/7 24/70/7 61/71/7 64/69/7
f 27/28/5 26/26/5 25/72/5 28/73/5
f 23/74/6 22/22/6 63/68/6 62/75/6
f 65/76/2 66/77/2 67/78/2 68/79/2
f 69/80/6 70/81/6 67/78/6 66/82/6
f 71/83/10 48/52/10 47/84/10 72/85/10
f 73/86/7 74/87/7 75/88/7 76/89/7
f 77/90/5 78/91/5 79/92/5 80/93/5
f 38/94/11 37/95/11 81/96/11 82/97/11
f 83/98/7 84/99/7 85/100/7 86/101/7
f 87/102/11 88/103/11 89/104/11 90/105/11
f 91/106/6 92/107/6 93/108/6 94/109/6
f 95/110/7 96/111/7 97/112/7 98/113/7
f 14/114/12 13/115/12 99/116/12 51/117/12
f 100/118/1 57/119/1 60/120/1 101/121/1
f 84/122/11 102/123/11 103/124/11 85/125/11
f 74/126/11 104/127/11 105/128/11 75/129/11
f 54/130/6 106/131/6 107/132/6 55/133/6
f 30/134/6 108/135/6 109/136/6 31/137/6
f 70/138/1 110/139/1 68/140/1 67/141/1
f 111/142/2 112/143/2 113/144/2 114/145/2
f 115/146/7 116/147/7 117/148/7 118/149/7
f 119/150/11 120/151/11 121/152/11 122/153/11
f 123/154/7 87/155/7 90/156/7 124/157/7
f 125/158/1 115/159/1 118/160/1 126/161/1
f 127/162/11 128/163/11 44/164/11 43/165/11
f 79/166/6 78/91/6 129/167/6 130/168/6
f 131/169/6 100/170/6 101/171/6 132/172/6
f 133/173/1 134/174/1 135/175/1 136/176/1
f 78/177/1 77/178/1 137/179/1 129/180/1
f 120/181/6 133/182/6 136/183/6 121/184/6
f 138/185/11 139/186/11 112/187/11 111/188/11
f 139/189/6 140/190/6 113/144/6 112/191/6
f 26/192/1 27/193/1 20/194/1 19/195/1
f 90/196/2 89/197/2 141/198/2 124/157/2
f 2/35/7 34/199/7 142/200/7 3/201/7
f 143/202/7 144/203/7 145/204/7 146/205/7
f 145/206/2 94/207/2 93/108/2 146/205/2
f 147/208/6 148/209/6 149/210/6 150/211/6
f 28/212/11 25/213/11 18/214/11 17/215/11
f 151/216/6 152/217/6 153/218/6 154/219/6
f 117/220/2 155/221/2 126/222/2 118/149/2
f 77/90/7 80/223/7 156/224/7 137/225/7
f 157/226/1 158/227/1 159/228/1 160/229/1
f 161/230/5 162/231/5 128/232/5 127/233/5
f 116/234/11 163/235/11 155/236/11 117/237/11
f 83/98/5 164/238/5 102/239/5 84/240/5
f 96/241/11 165/242/11 166/243/11 97/244/11
f 104/245/6 167/246/6 168/247/6 105/248/6
f 169/249/1 123/250/1 124/251/1 141/252/1
f 37/41/6 36/40/6 170/253/6 81/254/6
f 171/255/7 53/256/7 56/257/7 172/258/7
f 173/259/1 174/260/1 175/261/1 176/262/1
f 177/263/5 178/264/5 179/265/5 180/266/5
f 181/267/5 140/190/5 139/268/5 138/269/5
f 24/270/11 23/271/11 62/272/11 61/273/11
f 182/274/11 147/275/11 150/276/11 183/277/11
f 178/278/1 177/279/1 184/280/1 185/281/1
f 179/282/6 178/278/6 185/281/6 186/283/6
f 187/284/2 188/285/2 160/286/2 159/287/2
f 115/146/5 125/288/5 163/289/5 116/290/5
f 95/110/5 189/291/5 165/292/5 96/293/5
f 97/294/2 166/295/2 190/296/2 98/113/2
f 191/297/6 192/298/6 7/7/6 6/299/6
f 22/300/1 21/301/1 64/302/1 63/303/1
f 110/304/5 70/81/5 69/305/5 193/306/5
f 82/307/2 81/254/2 170/253/2 194/308/2
f 72/309/8 47/310/8 50/311/8 195/312/8
f 196/313/11 197/314/11 198/315/11 199/316/11
f 195/317/13 50/318/13 49/53/13 200/319/13
f 58/320/11 131/321/11 132/322/11 59/323/11
f 162/324/1 161/325/1 46/326/1 45/327/1
f 134/328/7 119/329/7 122/330/7 135/331/7
f 122/332/2 121/333/2 136/183/2 135/331/2
f 171/255/10 106/131/10 54/334/10 53/335/10
f 48/336/14 71/337/14 200/338/14 49/339/14
f 106/340/14 171/341/14 172/342/14 107/343/14
f 57/62/5 100/170/5 131/344/5 58/345/5
f 201/346/11 202/347/11 188/348/11 187/349/11
f 180/350/11 179/282/11 186/283/11 203/351/11
f 59/352/2 132/353/2 101/171/2 60/65/2
f 204/354/11 191/355/11 6/356/11 5/357/11
f 181/267/7 138/358/7 111/359/7 114/145/7
f 203/360/2 186/361/2 185/362/2 184/363/2
f 205/364/7 206/365/7 207/366/7 208/367/7
f 56/368/13 55/369/13 107/132/13 172/258/13
f 142/370/2 209/371/2 4/372/2 3/201/2
f 140/373/1 181/374/1 114/375/1 113/376/1
f 210/377/5 192/298/5 191/378/5 204/379/5
f 134/328/5 133/182/5 120/380/5 119/381/5
f 85/382/2 103/383/2 211/384/2 86/101/2
f 152/385/15 205/386/15 208/387/15 153/388/15
f 42/389/16 41/390/16 10/391/16 9/392/16
f 212/393/10 108/135/10 30/394/10 29/395/10
f 108/396/14 212/397/14 213/398/14 109/399/14
f 41/400/6 40/44/6 11/11/6 10/401/6
f 158/402/5 157/403/5 202/404/5 201/405/5
f 92/406/1 143/407/1 146/408/1 93/409/1
f 193/410/11 69/411/11 66/412/11 65/413/11
f 205/364/9 152/217/9 151/414/9 206/415/9
f 202/416/6 157/403/6 160/286/6 188/417/6
f 33/418/6 1/36/6 4/372/6 209/419/6
f 36/40/1 35/39/1 194/308/1 170/253/1
f 164/420/1 83/421/1 86/422/1 211/423/1
f 156/424/2 130/425/2 129/167/2 137/225/2
f 192/426/1 210/427/1 8/428/1 7/429/1
f 214/430/7 182/431/7 183/432/7 215/433/7
f 75/434/2 105/435/2 168/247/2 76/89/2
f 143/202/5 92/107/5 91/436/5 144/437/5
f 207/438/3 154/439/3 153/218/3 208/367/3
f 32/440/13 31/441/13 109/136/13 213/442/13
f 40/443/15 39/444/15 12/445/15 11/446/15
f 206/447/16 151/448/16 154/449/16 207/450/16
f 177/279/7 180/350/7 203/351/7 184/280/7
f 174/451/7 196/452/7 199/453/7 175/454/7
f 212/393/7 29/455/7 32/456/7 213/442/7
f 158/402/7 201/457/7 187/458/7 159/287/7
f 144/459/11 91/460/11 94/461/11 145/462/11
f 174/451/5 173/463/5 197/464/5 196/465/5
f 161/325/7 127/162/7 43/165/7 46/326/7
f 214/430/5 148/209/5 147/466/5 182/467/5
f 199/468/2 198/469/2 176/470/2 175/454/2
f 197/471/6 173/463/6 176/470/6 198/472/6
f 165/473/6 189/291/6 190/296/6 166/474/6
f 88/475/6 169/476/6 141/198/6 89/477/6
f 163/478/6 125/288/6 126/222/6 155/479/6
f 102/480/6 164/238/6 211/384/6 103/481/6
f 167/482/1 73/483/1 76/484/1 168/485/1
f 35/39/7 38/42/7 82/307/7 194/308/7
f 13/13/7 16/486/7 216/487/7 99/488/7
f 80/489/11 79/490/11 130/491/11 156/492/11
f 34/493/11 33/494/11 209/495/11 142/496/11
f 123/154/5 169/476/5 88/497/5 87/498/5
f 210/377/7 204/499/7 5/500/7 8/8/7
f 148/501/1 214/502/1 215/503/1 149/504/1
f 216/505/17 52/506/17 51/56/17 99/488/17
f 128/163/6 162/324/6 45/327/6 44/164/6
f 189/507/1 95/508/1 98/509/1 190/510/1
f 110/304/7 193/511/7 65/512/7 68/79/7
f 183/513/2 150/514/2 149/210/2 215/433/2
f 73/86/5 167/246/5 104/515/5 74/516/5
f 71/83/7 72/517/7 195/518/7 200/319/7
f 39/43/7 42/519/7 9/520/7 12/12/7
f 16/521/18 15/522/18 52/523/18 216/524/18
