# Blender v2.79 (sub 0) OBJ File: ''
# www.blender.org
mtllib speaker.mtl
o cube
v -0.375000 0.062500 0.062500
v -0.375000 0.062500 -0.062500
v -0.437500 -0.000000 -0.125000
v -0.437500 0.000000 0.125000
v 0.437500 -0.000000 -0.125000
v 0.375000 0.062500 -0.062500
v 0.375000 0.062500 0.062500
v 0.437500 0.000000 0.125000
v -0.022886 0.062500 -0.202790
v -0.022886 1.000000 -0.202790
v -0.109710 1.000000 0.289614
v -0.109710 0.062500 0.289614
v -0.602114 1.000000 0.202790
v -0.515290 1.000000 -0.289614
v -0.515290 0.062500 -0.289614
v -0.602114 0.062500 0.202790
v -0.165834 0.125000 0.247986
v -0.165834 0.500000 0.247986
v -0.176687 0.500000 0.309536
v -0.176687 0.125000 0.309536
v -0.545990 0.500000 0.244418
v -0.535137 0.500000 0.182868
v -0.535137 0.125000 0.182868
v -0.545990 0.125000 0.244418
v -0.165834 0.562500 0.247986
v -0.165834 0.937500 0.247986
v -0.176687 0.937500 0.309536
v -0.176687 0.562500 0.309536
v -0.545990 0.937500 0.244418
v -0.535137 0.937500 0.182868
v -0.535137 0.562500 0.182868
v -0.545990 0.562500 0.244418
v 0.109710 1.000000 0.289614
v 0.022886 1.000000 -0.202790
v 0.022886 0.062500 -0.202790
v 0.109710 0.062500 0.289614
v 0.515290 0.062500 -0.289614
v 0.515290 1.000000 -0.289614
v 0.602114 1.000000 0.202790
v 0.602114 0.062500 0.202790
v 0.176687 0.500000 0.309536
v 0.165834 0.500000 0.247986
v 0.165834 0.125000 0.247986
v 0.176687 0.125000 0.309536
v 0.535137 0.125000 0.182868
v 0.535137 0.500000 0.182868
v 0.545990 0.500000 0.244418
v 0.545990 0.125000 0.244418
v 0.176687 0.937500 0.309536
v 0.165834 0.937500 0.247986
v 0.165834 0.562500 0.247986
v 0.176687 0.562500 0.309536
v 0.535137 0.562500 0.182868
v 0.535137 0.937500 0.182868
v 0.545990 0.937500 0.244418
v 0.545990 0.562500 0.244418
v -0.062500 0.312500 -0.062500
v -0.062500 0.312500 -0.187500
v -0.062500 0.187500 -0.187500
v -0.062500 0.187500 -0.062500
v 0.062500 0.187500 -0.187500
v 0.062500 0.312500 -0.187500
v 0.062500 0.312500 -0.062500
v 0.062500 0.187500 -0.062500
v -0.062500 0.875000 -0.062500
v -0.062500 0.875000 -0.187500
v -0.062500 0.750000 -0.187500
v -0.062500 0.750000 -0.062500
v 0.062500 0.750000 -0.187500
v 0.062500 0.875000 -0.187500
v 0.062500 0.875000 -0.062500
v 0.062500 0.750000 -0.062500
vt 0.812500 0.125000
vt 0.687500 0.125000
vt 0.625000 0.067863
vt 0.875000 0.067863
vt 0.875000 0.067863
vt 0.812500 0.125000
vt 0.687500 0.125000
vt 0.625000 0.067863
vt 0.562500 0.062500
vt 0.937500 0.062500
vt 0.937500 0.125000
vt 0.562500 0.125000
vt 1.000000 0.000000
vt 1.000000 0.187500
vt 0.500000 0.187500
vt 0.500000 0.000000
vt 0.968750 0.067863
vt 0.937500 0.125000
vt 0.562500 0.125000
vt 0.531250 0.067863
vt 0.937500 0.125000
vt 0.562500 0.125000
vt 0.531250 0.067863
vt 0.968750 0.067863
vt 0.000000 0.062500
vt 0.000000 1.000000
vt 0.500000 1.000000
vt 0.500000 0.062500
vt 0.000000 1.000000
vt 0.500000 1.000000
vt 0.500000 0.062500
vt 0.000000 0.062500
vt 0.500000 0.500000
vt 0.000000 0.500000
vt 0.000000 1.000000
vt 0.500000 1.000000
vt 0.500000 0.500000
vt 0.000000 0.500000
vt 0.000000 1.000000
vt 0.500000 1.000000
vt 0.500000 0.062500
vt 0.000000 0.062500
vt 0.000000 0.062500
vt 0.000000 1.000000
vt 0.500000 1.000000
vt 0.500000 0.062500
vt 0.750000 0.562500
vt 0.750000 0.937500
vt 0.781250 0.937500
vt 0.781250 0.562500
vt 0.750000 0.937500
vt 0.781250 0.937500
vt 0.781250 0.562500
vt 0.750000 0.562500
vt 0.937500 0.750000
vt 0.937500 0.718750
vt 0.562500 0.718750
vt 0.562500 0.750000
vt 0.562500 0.750000
vt 0.937500 0.750000
vt 0.937500 0.718750
vt 0.562500 0.718750
vt 0.562500 0.937500
vt 0.937500 0.937500
vt 0.937500 0.562500
vt 0.562500 0.562500
vt 0.562500 0.562500
vt 0.562500 0.937500
vt 0.937500 0.937500
vt 0.937500 0.562500
vt 0.750000 0.562500
vt 0.750000 0.937500
vt 0.781250 0.937500
vt 0.781250 0.562500
vt 0.750000 0.937500
vt 0.781250 0.937500
vt 0.781250 0.562500
vt 0.750000 0.562500
vt 0.937500 0.750000
vt 0.937500 0.718750
vt 0.562500 0.718750
vt 0.562500 0.750000
vt 0.562500 0.750000
vt 0.937500 0.750000
vt 0.937500 0.718750
vt 0.562500 0.718750
vt 0.562500 0.937500
vt 0.937500 0.937500
vt 0.937500 0.562500
vt 0.562500 0.562500
vt 0.562500 0.562500
vt 0.562500 0.937500
vt 0.937500 0.937500
vt 0.937500 0.562500
vt 0.500000 1.000000
vt 0.000000 1.000000
vt 0.000000 0.062500
vt 0.500000 0.062500
vt 0.500000 0.062500
vt 0.500000 1.000000
vt 0.000000 1.000000
vt 0.000000 0.062500
vt 0.000000 0.500000
vt 0.500000 0.500000
vt 0.500000 0.500000
vt 0.500000 1.000000
vt 0.000000 1.000000
vt 0.000000 0.500000
vt 0.500000 0.062500
vt 0.500000 1.000000
vt 0.000000 1.000000
vt 0.000000 0.062500
vt 0.500000 1.000000
vt 0.000000 1.000000
vt 0.000000 0.062500
vt 0.500000 0.062500
vt 0.781250 0.937500
vt 0.750000 0.937500
vt 0.750000 0.562500
vt 0.781250 0.562500
vt 0.781250 0.562500
vt 0.781250 0.937500
vt 0.750000 0.937500
vt 0.750000 0.562500
vt 0.562500 0.718750
vt 0.937500 0.718750
vt 0.937500 0.750000
vt 0.562500 0.750000
vt 0.937500 0.718750
vt 0.937500 0.750000
vt 0.562500 0.750000
vt 0.562500 0.718750
vt 0.937500 0.562500
vt 0.937500 0.937500
vt 0.562500 0.937500
vt 0.562500 0.562500
vt 0.937500 0.937500
vt 0.562500 0.937500
vt 0.562500 0.562500
vt 0.937500 0.562500
vt 0.781250 0.937500
vt 0.750000 0.937500
vt 0.750000 0.562500
vt 0.781250 0.562500
vt 0.781250 0.562500
vt 0.781250 0.937500
vt 0.750000 0.937500
vt 0.750000 0.562500
vt 0.562500 0.718750
vt 0.937500 0.718750
vt 0.937500 0.750000
vt 0.562500 0.750000
vt 0.937500 0.718750
vt 0.937500 0.750000
vt 0.562500 0.750000
vt 0.562500 0.718750
vt 0.937500 0.562500
vt 0.937500 0.937500
vt 0.562500 0.937500
vt 0.562500 0.562500
vt 0.937500 0.937500
vt 0.562500 0.937500
vt 0.562500 0.562500
vt 0.937500 0.562500
vt 0.812500 0.312500
vt 0.687500 0.312500
vt 0.687500 0.187500
vt 0.812500 0.187500
vt 0.812500 0.187500
vt 0.812500 0.312500
vt 0.687500 0.312500
vt 0.687500 0.187500
vt 0.687500 0.187500
vt 0.812500 0.187500
vt 0.812500 0.312500
vt 0.687500 0.312500
vt 0.812500 0.187500
vt 0.812500 0.312500
vt 0.687500 0.312500
vt 0.687500 0.187500
vt 0.812500 0.312500
vt 0.687500 0.312500
vt 0.687500 0.187500
vt 0.812500 0.187500
vt 0.812500 0.312500
vt 0.687500 0.312500
vt 0.687500 0.187500
vt 0.812500 0.187500
vt 0.812500 0.187500
vt 0.812500 0.312500
vt 0.687500 0.312500
vt 0.687500 0.187500
vt 0.687500 0.187500
vt 0.812500 0.187500
vt 0.812500 0.312500
vt 0.687500 0.312500
vt 0.812500 0.187500
vt 0.812500 0.312500
vt 0.687500 0.312500
vt 0.687500 0.187500
vt 0.812500 0.312500
vt 0.687500 0.312500
vt 0.687500 0.187500
vt 0.812500 0.187500
vn -0.7071 0.7071 0.0000
vn 0.7071 0.7071 -0.0000
vn -0.0000 1.0000 -0.0000
vn 0.0000 -1.0000 0.0000
vn -0.0000 0.7071 -0.7071
vn 0.0000 0.7071 0.7071
vn 0.9848 0.0000 0.1736
vn -0.9848 0.0000 -0.1736
vn 0.1736 -0.0000 -0.9848
vn -0.1736 0.0000 0.9848
vn -0.9848 0.0000 0.1736
vn 0.9848 0.0000 -0.1736
vn -0.1736 -0.0000 -0.9848
vn 0.1736 0.0000 0.9848
vn -1.0000 0.0000 0.0000
vn 1.0000 0.0000 -0.0000
vn -0.0000 -0.0000 -1.0000
vn 0.0000 0.0000 1.0000
usemtl m_0
s 1
f 1/1/1 2/2/1 3/3/1 4/4/1
f 5/5/2 6/6/2 7/7/2 8/8/2
f 6/9/3 2/10/3 1/11/3 7/12/3
f 4/13/4 3/14/4 5/15/4 8/16/4
f 3/17/5 2/18/5 6/19/5 5/20/5
f 7/21/6 1/22/6 4/23/6 8/24/6
f 9/25/7 10/26/7 11/27/7 12/28/7
f 13/29/8 14/30/8 15/31/8 16/32/8
f 11/27/3 10/33/3 14/34/3 13/29/3
f 15/35/4 9/36/4 12/37/4 16/38/4
f 14/39/9 10/40/9 9/41/9 15/42/9
f 12/43/10 11/44/10 13/45/10 16/46/10
f 17/47/7 18/48/7 19/49/7 20/50/7
f 21/51/8 22/52/8 23/53/8 24/54/8
f 19/55/3 18/56/3 22/57/3 21/58/3
f 23/59/4 17/60/4 20/61/4 24/62/4
f 22/63/9 18/64/9 17/65/9 23/66/9
f 20/67/10 19/68/10 21/69/10 24/70/10
f 25/71/7 26/72/7 27/73/7 28/74/7
f 29/75/8 30/76/8 31/77/8 32/78/8
f 27/79/3 26/80/3 30/81/3 29/82/3
f 31/83/4 25/84/4 28/85/4 32/86/4
f 30/87/9 26/88/9 25/89/9 31/90/9
f 28/91/10 27/92/10 29/93/10 32/94/10
f 33/95/11 34/96/11 35/97/11 36/98/11
f 37/99/12 38/100/12 39/101/12 40/102/12
f 38/103/3 34/104/3 33/95/3 39/101/3
f 36/105/4 35/106/4 37/107/4 40/108/4
f 35/109/13 34/110/13 38/111/13 37/112/13
f 39/113/14 33/114/14 36/115/14 40/116/14
f 41/117/11 42/118/11 43/119/11 44/120/11
f 45/121/12 46/122/12 47/123/12 48/124/12
f 46/125/3 42/126/3 41/127/3 47/128/3
f 44/129/4 43/130/4 45/131/4 48/132/4
f 43/133/13 42/134/13 46/135/13 45/136/13
f 47/137/14 41/138/14 44/139/14 48/140/14
f 49/141/11 50/142/11 51/143/11 52/144/11
f 53/145/12 54/146/12 55/147/12 56/148/12
f 54/149/3 50/150/3 49/151/3 55/152/3
f 52/153/4 51/154/4 53/155/4 56/156/4
f 51/157/13 50/158/13 54/159/13 53/160/13
f 55/161/14 49/162/14 52/163/14 56/164/14
f 57/165/15 58/166/15 59/167/15 60/168/15
f 61/169/16 62/170/16 63/171/16 64/172/16
f 62/173/3 58/174/3 57/165/3 63/171/3
f 60/168/4 59/175/4 61/176/4 64/172/4
f 59/177/17 58/178/17 62/179/17 61/180/17
f 63/181/18 57/182/18 60/183/18 64/184/18
f 65/185/15 66/186/15 67/187/15 68/188/15
f 69/189/16 70/190/16 71/191/16 72/192/16
f 70/193/3 66/194/3 65/185/3 71/191/3
f 68/188/4 67/195/4 69/196/4 72/192/4
f 67/197/17 66/198/17 70/199/17 69/200/17
f 71/201/18 65/202/18 68/203/18 72/204/18
