# Blender v2.78 (sub 0) OBJ File: ''
# www.blender.org
mtllib bsticker.mtl
o cube
v -0.165811 -0.081767 -0.000043
v -0.165811 -0.081767 0.000123
v -0.165811 0.084044 0.000124
v -0.165811 0.084044 -0.000043
v 0.165811 -0.081767 0.000123
v 0.165811 0.084044 0.000124
v 0.165811 -0.081767 -0.000043
v 0.165811 0.084044 -0.000043
vt 0.0000 0.5000
vt 0.0000 0.5000
vt 0.0000 1.0000
vt 0.0000 1.0000
vt 0.0000 0.0000
vt 1.0000 0.0000
vt 1.0000 0.5000
vt 0.0000 0.5000
vt 0.0000 0.0000
vt 1.0000 0.0000
vt 1.0000 0.5000
vt 0.0000 0.5000
vt 1.0000 1.0000
vt 0.0000 1.0000
vt 0.0000 1.0000
vt 1.0000 1.0000
vt 0.0000 0.5000
vt 0.0000 0.5000
vt 1.0000 1.0000
vt 0.0000 1.0000
vt 0.0000 1.0000
vt 1.0000 1.0000
vn -1.0000 0.0000 0.0000
vn 0.0000 -0.0000 1.0000
vn 0.0000 0.0000 -1.0000
vn 0.0000 1.0000 0.0000
vn 1.0000 0.0000 0.0000
vn 0.0000 -1.0000 0.0000
usemtl 0
s 1
f 1/1/1 2/2/1 3/3/1 4/4/1
f 2/5/2 5/6/2 6/7/2 3/8/2
f 7/9/3 1/10/3 4/11/3 8/12/3
f 3/13/4 6/14/4 8/15/4 4/16/4
f 5/17/5 7/18/5 8/15/5 6/14/5
f 1/19/6 7/20/6 5/21/6 2/22/6
