# Blender v2.78 (sub 0) OBJ File: ''
# www.blender.org
mtllib tda.mtl
o ears
v 0.795781 0.121449 0.014305
v 0.806217 0.134943 0.073488
v 0.930003 -0.000000 0.066917
v 0.876217 -0.000000 -0.076157
v 0.653026 -0.000000 0.115755
v 0.702351 0.148437 0.091802
v 0.691915 0.134943 0.032619
v 0.649417 -0.000000 -0.066678
v 0.804432 0.088084 0.058547
v 0.805411 0.073403 0.088886
v 0.871611 -0.000000 0.092469
v 0.876014 -0.000000 0.030669
v 0.693555 -0.000000 0.123865
v 0.729101 0.088084 0.102341
v 0.715404 0.102764 0.074245
v 0.668281 -0.000000 0.067298
v -0.930003 -0.000000 0.066917
v -0.806217 0.134943 0.073488
v -0.795781 0.121449 0.014305
v -0.876217 -0.000000 -0.076157
v -0.691915 0.134943 0.032619
v -0.702351 0.148437 0.091802
v -0.653026 -0.000000 0.115755
v -0.649417 -0.000000 -0.066678
v -0.871611 -0.000000 0.092469
v -0.805411 0.073403 0.088886
v -0.804432 0.088084 0.058547
v -0.876014 -0.000000 0.030669
v -0.715404 0.102764 0.074245
v -0.729101 0.088084 0.102341
v -0.693555 -0.000000 0.123865
v -0.668281 -0.000000 0.067298
vt 0.0156 0.0215
vt 0.0254 0.0215
vt 0.0254 0.0137
vt 0.0156 0.0137
vt 0.0156 0.0137
vt 0.0156 0.0215
vt 0.0254 0.0215
vt 0.0254 0.0137
vt 0.0254 0.0137
vt 0.0156 0.0137
vt 0.0156 0.0215
vt 0.0254 0.0215
vt 0.0059 0.0137
vt 0.0059 0.0156
vt 0.0078 0.0156
vt 0.0078 0.0137
vt 0.0156 0.0215
vt 0.0254 0.0215
vt 0.0254 0.0137
vt 0.0156 0.0137
vt 0.0078 0.0137
vt 0.0078 0.0156
vt 0.0098 0.0156
vt 0.0098 0.0137
vt 0.0078 0.0137
vt 0.0078 0.0156
vt 0.0098 0.0156
vt 0.0098 0.0137
vt 0.0078 0.0137
vt 0.0098 0.0156
vt 0.0098 0.0137
vt 0.0078 0.0137
vt 0.0078 0.0156
vt 0.0098 0.0156
vt 0.0078 0.0137
vt 0.0098 0.0156
vt 0.0098 0.0137
vt 0.0078 0.0137
vt 0.0078 0.0156
vt 0.0098 0.0156
vt 0.0254 0.0137
vt 0.0254 0.0215
vt 0.0156 0.0215
vt 0.0156 0.0137
vt 0.0254 0.0215
vt 0.0156 0.0215
vt 0.0156 0.0137
vt 0.0254 0.0137
vt 0.0156 0.0137
vt 0.0254 0.0137
vt 0.0254 0.0215
vt 0.0156 0.0215
vt 0.0078 0.0156
vt 0.0059 0.0156
vt 0.0059 0.0137
vt 0.0078 0.0137
vt 0.0254 0.0137
vt 0.0254 0.0215
vt 0.0156 0.0215
vt 0.0156 0.0137
vt 0.0098 0.0156
vt 0.0078 0.0156
vt 0.0078 0.0137
vt 0.0098 0.0137
vt 0.0098 0.0156
vt 0.0078 0.0156
vt 0.0078 0.0137
vt 0.0098 0.0137
vt 0.0098 0.0156
vt 0.0078 0.0137
vt 0.0098 0.0137
vt 0.0098 0.0156
vt 0.0078 0.0156
vt 0.0078 0.0137
vt 0.0098 0.0156
vt 0.0078 0.0137
vt 0.0098 0.0137
vt 0.0098 0.0156
vt 0.0078 0.0156
vt 0.0078 0.0137
vn 0.7021 0.6574 -0.2737
vn -0.9405 0.3273 0.0912
vn -0.9405 0.3272 0.0912
vn 0.0842 0.9682 -0.2356
vn 0.0000 -1.0000 -0.0000
vn 0.1880 0.1250 0.9742
vn -0.0715 0.5649 -0.8220
vn -0.0716 0.5649 -0.8220
vn 0.7033 0.6485 0.2911
vn -0.7071 0.4237 0.5661
vn 0.2420 0.8764 0.4163
vn 0.2129 0.2383 0.9476
vn -0.1392 0.1942 -0.9710
vn -0.7021 0.6574 -0.2737
vn 0.9405 0.3272 0.0912
vn 0.9405 0.3273 0.0912
vn -0.0842 0.9682 -0.2356
vn -0.1880 0.1250 0.9742
vn -0.1880 0.1251 0.9742
vn 0.0715 0.5649 -0.8220
vn 0.0716 0.5649 -0.8220
vn -0.7033 0.6485 0.2911
vn 0.7071 0.4237 0.5661
vn -0.2420 0.8764 0.4163
vn -0.2129 0.2383 0.9476
vn 0.1392 0.1942 -0.9710
usemtl m_0
s 1
f 1/1/1 2/2/1 3/3/1 4/4/1
f 5/5/2 6/6/3 7/7/3 8/8/2
f 6/9/4 2/10/4 1/1/4 7/7/4
f 4/4/5 3/11/5 5/12/5 8/8/5
f 3/13/6 2/14/6 6/15/6 5/16/6
f 7/17/7 1/18/8 4/19/7 8/20/8
f 9/21/9 10/22/9 11/23/9 12/24/9
f 13/25/10 14/26/10 15/27/10 16/28/10
f 14/29/11 10/22/11 9/30/11 15/31/11
f 12/32/5 11/33/5 13/34/5 16/28/5
f 11/35/12 10/22/12 14/36/12 13/37/12
f 15/38/13 9/39/13 12/40/13 16/28/13
f 17/41/14 18/42/14 19/43/14 20/44/14
f 21/45/15 22/46/15 23/47/16 24/48/16
f 19/43/17 18/49/17 22/50/17 21/45/17
f 23/51/5 17/52/5 20/44/5 24/48/5
f 22/53/18 18/54/18 17/55/19 23/56/18
f 20/57/20 19/58/21 21/59/20 24/60/21
f 25/61/22 26/62/22 27/63/22 28/64/22
f 29/65/23 30/66/23 31/67/23 32/68/23
f 27/69/24 26/62/24 30/70/24 29/71/24
f 31/72/5 25/73/5 28/74/5 32/68/5
f 30/75/25 26/62/25 25/76/25 31/77/25
f 28/78/26 27/79/26 29/80/26 32/68/26
o faceblush
v -0.742973 -1.220600 2.063797
v -0.853458 -1.318601 2.114813
v -0.897652 -1.279401 2.094407
v -0.787167 -1.181399 2.043390
v -0.742973 -1.209777 2.084586
v -0.787167 -1.170577 2.064179
v -0.853458 -1.307779 2.135602
v -0.897652 -1.268579 2.115196
v -0.617973 -1.220600 2.063797
v -0.728458 -1.318601 2.114813
v -0.772652 -1.279401 2.094407
v -0.662167 -1.181399 2.043390
v -0.617973 -1.209777 2.084586
v -0.662167 -1.170577 2.064179
v -0.728458 -1.307779 2.135602
v -0.772652 -1.268579 2.115196
v -0.867973 -1.220600 2.063797
v -0.978458 -1.318601 2.114813
v -1.022652 -1.279401 2.094407
v -0.912167 -1.181399 2.043390
v -0.867973 -1.209777 2.084586
v -0.912167 -1.170577 2.064179
v -0.978458 -1.307779 2.135602
v -1.022652 -1.268579 2.115196
v 1.007027 -1.220600 2.063797
v 0.896542 -1.318601 2.114813
v 0.852348 -1.279401 2.094407
v 0.962833 -1.181399 2.043390
v 1.007027 -1.209777 2.084586
v 0.962833 -1.170577 2.064179
v 0.896542 -1.307779 2.135602
v 0.852348 -1.268579 2.115196
v 0.882027 -1.220600 2.063797
v 0.771542 -1.318601 2.114813
v 0.727348 -1.279401 2.094407
v 0.837833 -1.181399 2.043390
v 0.882027 -1.209777 2.084586
v 0.837833 -1.170577 2.064179
v 0.771542 -1.307779 2.135602
v 0.727348 -1.268579 2.115196
v 0.757027 -1.220600 2.063797
v 0.646542 -1.318601 2.114813
v 0.602348 -1.279401 2.094407
v 0.712833 -1.181399 2.043390
v 0.757027 -1.209777 2.084586
v 0.712833 -1.170577 2.064179
v 0.646542 -1.307779 2.135602
v 0.602348 -1.268579 2.115196
vt 0.0493 0.0063
vt 0.0503 0.0063
vt 0.0503 0.0073
vt 0.0493 0.0073
vt 0.0493 0.0063
vt 0.0503 0.0063
vt 0.0503 0.0073
vt 0.0493 0.0073
vt 0.0493 0.0063
vt 0.0503 0.0063
vt 0.0503 0.0073
vt 0.0493 0.0073
vt 0.0493 0.0063
vt 0.0503 0.0063
vt 0.0503 0.0073
vt 0.0493 0.0073
vt 0.0493 0.0063
vt 0.0503 0.0063
vt 0.0503 0.0073
vt 0.0493 0.0073
vt 0.0493 0.0063
vt 0.0503 0.0063
vt 0.0503 0.0073
vt 0.0493 0.0073
vt 0.0493 0.0063
vt 0.0503 0.0063
vt 0.0503 0.0073
vt 0.0493 0.0073
vt 0.0493 0.0063
vt 0.0503 0.0063
vt 0.0503 0.0073
vt 0.0493 0.0073
vt 0.0493 0.0063
vt 0.0503 0.0063
vt 0.0503 0.0073
vt 0.0493 0.0073
vt 0.0493 0.0063
vt 0.0503 0.0063
vt 0.0503 0.0073
vt 0.0493 0.0073
vt 0.0493 0.0063
vt 0.0503 0.0063
vt 0.0503 0.0073
vt 0.0493 0.0073
vt 0.0493 0.0063
vt 0.0503 0.0063
vt 0.0503 0.0073
vt 0.0493 0.0073
vt 0.0493 0.0063
vt 0.0503 0.0063
vt 0.0503 0.0073
vt 0.0493 0.0073
vt 0.0493 0.0063
vt 0.0503 0.0063
vt 0.0503 0.0073
vt 0.0493 0.0073
vt 0.0493 0.0063
vt 0.0503 0.0063
vt 0.0503 0.0073
vt 0.0493 0.0073
vt 0.0493 0.0063
vt 0.0503 0.0063
vt 0.0503 0.0073
vt 0.0493 0.0073
vt 0.0493 0.0063
vt 0.0503 0.0063
vt 0.0503 0.0073
vt 0.0493 0.0073
vt 0.0493 0.0063
vt 0.0503 0.0063
vt 0.0503 0.0073
vt 0.0493 0.0073
vt 0.0493 0.0063
vt 0.0503 0.0063
vt 0.0503 0.0073
vt 0.0493 0.0073
vt 0.0493 0.0063
vt 0.0503 0.0063
vt 0.0503 0.0073
vt 0.0493 0.0073
vt 0.0493 0.0063
vt 0.0503 0.0063
vt 0.0503 0.0073
vt 0.0493 0.0073
vt 0.0493 0.0063
vt 0.0503 0.0063
vt 0.0503 0.0073
vt 0.0493 0.0073
vt 0.0493 0.0063
vt 0.0503 0.0063
vt 0.0503 0.0073
vt 0.0493 0.0073
vt 0.0493 0.0063
vt 0.0503 0.0063
vt 0.0503 0.0073
vt 0.0493 0.0073
vt 0.0493 0.0063
vt 0.0503 0.0063
vt 0.0503 0.0073
vt 0.0493 0.0073
vt 0.0493 0.0063
vt 0.0503 0.0063
vt 0.0503 0.0073
vt 0.0493 0.0073
vt 0.0493 0.0063
vt 0.0503 0.0063
vt 0.0503 0.0073
vt 0.0493 0.0073
vt 0.0493 0.0063
vt 0.0503 0.0063
vt 0.0503 0.0073
vt 0.0493 0.0073
vt 0.0493 0.0063
vt 0.0503 0.0063
vt 0.0503 0.0073
vt 0.0493 0.0073
vt 0.0493 0.0063
vt 0.0503 0.0063
vt 0.0503 0.0073
vt 0.0493 0.0073
vn -0.0000 -0.4618 -0.8870
vn 0.7071 0.6272 -0.3265
vn -0.0000 0.4617 0.8870
vn -0.7071 -0.6272 0.3265
vn -0.7071 0.6272 -0.3265
vn 0.7071 -0.6272 0.3265
usemtl m_0
s 1
f 33/81/27 34/82/27 35/83/27 36/84/27
f 37/85/28 33/86/28 36/87/28 38/88/28
f 39/89/29 37/90/29 38/91/29 40/92/29
f 34/93/30 39/94/30 40/95/30 35/96/30
f 40/97/31 38/98/31 36/87/31 35/96/31
f 34/93/32 33/86/32 37/99/32 39/100/32
f 41/101/27 42/102/27 43/103/27 44/104/27
f 45/105/28 41/106/28 44/107/28 46/108/28
f 47/109/29 45/110/29 46/111/29 48/112/29
f 42/113/30 47/114/30 48/115/30 43/116/30
f 48/117/31 46/118/31 44/107/31 43/116/31
f 42/113/32 41/106/32 45/119/32 47/120/32
f 49/121/27 50/122/27 51/123/27 52/124/27
f 53/125/28 49/126/28 52/127/28 54/128/28
f 55/129/29 53/130/29 54/131/29 56/132/29
f 50/133/30 55/134/30 56/135/30 51/136/30
f 56/137/31 54/138/31 52/127/31 51/136/31
f 50/133/32 49/126/32 53/139/32 55/140/32
f 57/141/27 58/142/27 59/143/27 60/144/27
f 61/145/28 57/146/28 60/147/28 62/148/28
f 63/149/29 61/150/29 62/151/29 64/152/29
f 58/153/30 63/154/30 64/155/30 59/156/30
f 64/157/31 62/158/31 60/147/31 59/156/31
f 58/153/32 57/146/32 61/159/32 63/160/32
f 65/161/27 66/162/27 67/163/27 68/164/27
f 69/165/28 65/166/28 68/167/28 70/168/28
f 71/169/29 69/170/29 70/171/29 72/172/29
f 66/173/30 71/174/30 72/175/30 67/176/30
f 72/177/31 70/178/31 68/167/31 67/176/31
f 66/173/32 65/166/32 69/179/32 71/180/32
f 73/181/27 74/182/27 75/183/27 76/184/27
f 77/185/28 73/186/28 76/187/28 78/188/28
f 79/189/29 77/190/29 78/191/29 80/192/29
f 74/193/30 79/194/30 80/195/30 75/196/30
f 80/197/31 78/198/31 76/187/31 75/196/31
f 74/193/32 73/186/32 77/199/32 79/200/32
o face
v -0.437500 -1.453125 2.126953
v -0.453125 -1.375000 2.126953
v -0.453125 -1.375000 2.064453
v -0.437500 -1.453125 2.064453
v -0.359375 -1.375000 2.064453
v -0.359375 -1.375000 2.126953
v -0.375000 -1.453125 2.126953
v -0.375000 -1.453125 2.064453
v 0.453125 -1.375000 2.064453
v 0.453125 -1.375000 2.126953
v 0.437500 -1.453125 2.126953
v 0.437500 -1.453125 2.064453
v 0.375000 -1.453125 2.126953
v 0.359375 -1.375000 2.126953
v 0.359375 -1.375000 2.064453
v 0.375000 -1.453125 2.064453
v 0.468750 -1.500000 2.126953
v 0.531250 -1.437500 2.126953
v 0.531250 -1.437500 2.063477
v 0.468750 -1.500000 2.063477
v 0.593750 -1.437500 2.063477
v 0.593750 -1.437500 2.126953
v 0.468750 -1.562500 2.126953
v 0.468750 -1.562500 2.063477
v -0.531250 -1.375000 2.063477
v -0.531250 -1.375000 2.126953
v -0.531250 -1.437500 2.126953
v -0.531250 -1.437500 2.063477
v -0.593750 -1.437500 2.126953
v -0.593750 -1.375000 2.126953
v -0.593750 -1.375000 2.063477
v -0.593750 -1.437500 2.063477
v 0.468750 -1.500000 2.063477
v 0.468750 -1.500000 2.126953
v 0.468750 -1.562500 2.126953
v 0.468750 -1.562500 2.063477
v -0.468750 -1.562500 2.126953
v -0.468750 -1.500000 2.126953
v -0.468750 -1.500000 2.063477
v -0.468750 -1.562500 2.063477
v -0.531250 -1.437500 2.063477
v -0.531250 -1.437500 2.126953
v -0.468750 -1.500000 2.126953
v -0.468750 -1.500000 2.063477
v -0.468750 -1.562500 2.126953
v -0.593750 -1.437500 2.126953
v -0.593750 -1.437500 2.063477
v -0.468750 -1.562500 2.063477
v 0.531250 -1.437500 2.126953
v 0.531250 -1.375000 2.126953
v 0.531250 -1.375000 2.063477
v 0.531250 -1.437500 2.063477
v 0.593750 -1.375000 2.063477
v 0.593750 -1.375000 2.126953
v 0.593750 -1.437500 2.126953
v 0.593750 -1.437500 2.063477
v 0.531250 -1.437500 2.062500
v 0.531250 -1.437500 2.125977
v 0.468750 -1.500000 2.125977
v 0.468750 -1.500000 2.062500
v -0.468750 -1.500000 2.125977
v -0.531250 -1.437500 2.125977
v -0.531250 -1.437500 2.062500
v -0.468750 -1.500000 2.062500
v 0.531250 -1.375000 2.062500
v 0.531250 -1.375000 2.125977
v 0.531250 -1.437500 2.125977
v 0.531250 -1.437500 2.062500
v -0.531250 -1.437500 2.125977
v -0.531250 -1.375000 2.125977
v -0.531250 -1.375000 2.062500
v -0.531250 -1.437500 2.062500
vt 0.7935 0.6821
vt 0.7935 0.6831
vt 0.7944 0.6831
vt 0.7944 0.6821
vt 0.7935 0.6821
vt 0.7935 0.6831
vt 0.7944 0.6831
vt 0.7944 0.6821
vt 0.7935 0.6821
vt 0.7944 0.6831
vt 0.7944 0.6821
vt 0.7935 0.6821
vt 0.7935 0.6831
vt 0.7944 0.6831
vt 0.7935 0.6821
vt 0.7944 0.6831
vt 0.7944 0.6821
vt 0.7935 0.6821
vt 0.7935 0.6831
vt 0.7944 0.6831
vt 0.7935 0.6821
vt 0.7935 0.6831
vt 0.7944 0.6831
vt 0.7944 0.6821
vt 0.7935 0.6821
vt 0.7935 0.6831
vt 0.7944 0.6831
vt 0.7944 0.6821
vt 0.7935 0.6821
vt 0.7944 0.6831
vt 0.7944 0.6821
vt 0.7935 0.6821
vt 0.7935 0.6831
vt 0.7944 0.6831
vt 0.7935 0.6821
vt 0.7944 0.6831
vt 0.7944 0.6821
vt 0.7935 0.6821
vt 0.7935 0.6831
vt 0.7944 0.6831
vt 0.0713 0.9482
vt 0.0713 0.9502
vt 0.0693 0.9502
vt 0.0693 0.9482
vt 0.0713 0.9482
vt 0.0713 0.9502
vt 0.0693 0.9502
vt 0.0693 0.9482
vt 0.0713 0.9482
vt 0.0693 0.9502
vt 0.0693 0.9482
vt 0.0713 0.9482
vt 0.0713 0.9502
vt 0.0693 0.9502
vt 0.0713 0.9482
vt 0.0693 0.9502
vt 0.0693 0.9482
vt 0.0713 0.9482
vt 0.0713 0.9502
vt 0.0693 0.9502
vt 0.0693 0.9502
vt 0.0713 0.9502
vt 0.0713 0.9482
vt 0.0693 0.9482
vt 0.0693 0.9502
vt 0.0713 0.9502
vt 0.0713 0.9482
vt 0.0693 0.9482
vt 0.0693 0.9502
vt 0.0713 0.9482
vt 0.0693 0.9482
vt 0.0693 0.9502
vt 0.0713 0.9502
vt 0.0713 0.9482
vt 0.0693 0.9502
vt 0.0713 0.9482
vt 0.0693 0.9482
vt 0.0693 0.9502
vt 0.0713 0.9502
vt 0.0713 0.9482
vt 0.0693 0.9502
vt 0.0713 0.9502
vt 0.0713 0.9482
vt 0.0693 0.9482
vt 0.0693 0.9502
vt 0.0713 0.9502
vt 0.0713 0.9482
vt 0.0693 0.9482
vt 0.0693 0.9502
vt 0.0713 0.9482
vt 0.0693 0.9482
vt 0.0693 0.9502
vt 0.0713 0.9502
vt 0.0713 0.9482
vt 0.0693 0.9502
vt 0.0713 0.9482
vt 0.0693 0.9482
vt 0.0693 0.9502
vt 0.0713 0.9502
vt 0.0713 0.9482
vt 0.0693 0.9502
vt 0.0713 0.9502
vt 0.0713 0.9482
vt 0.0693 0.9482
vt 0.0693 0.9502
vt 0.0713 0.9502
vt 0.0713 0.9482
vt 0.0693 0.9482
vt 0.0693 0.9502
vt 0.0713 0.9482
vt 0.0693 0.9482
vt 0.0693 0.9502
vt 0.0713 0.9502
vt 0.0713 0.9482
vt 0.0693 0.9502
vt 0.0713 0.9482
vt 0.0693 0.9482
vt 0.0693 0.9502
vt 0.0713 0.9502
vt 0.0713 0.9482
vt 0.0713 0.9482
vt 0.0713 0.9502
vt 0.0693 0.9502
vt 0.0693 0.9482
vt 0.0713 0.9482
vt 0.0713 0.9502
vt 0.0693 0.9502
vt 0.0693 0.9482
vt 0.0713 0.9482
vt 0.0693 0.9502
vt 0.0693 0.9482
vt 0.0713 0.9482
vt 0.0713 0.9502
vt 0.0693 0.9502
vt 0.0713 0.9482
vt 0.0693 0.9502
vt 0.0693 0.9482
vt 0.0713 0.9482
vt 0.0713 0.9502
vt 0.0693 0.9502
vt 0.8657 0.0405
vt 0.8667 0.0405
vt 0.8667 0.0396
vt 0.8657 0.0396
vt 0.8657 0.0405
vt 0.8667 0.0405
vt 0.8667 0.0396
vt 0.8657 0.0396
vt 0.8657 0.0405
vt 0.8667 0.0396
vt 0.8657 0.0396
vt 0.8657 0.0405
vt 0.8667 0.0405
vt 0.8667 0.0396
vt 0.8657 0.0405
vt 0.8667 0.0396
vt 0.8657 0.0396
vt 0.8657 0.0405
vt 0.8667 0.0405
vt 0.8667 0.0396
vt 0.8657 0.0405
vt 0.8667 0.0405
vt 0.8667 0.0396
vt 0.8657 0.0396
vt 0.8657 0.0405
vt 0.8667 0.0405
vt 0.8667 0.0396
vt 0.8657 0.0396
vt 0.8657 0.0405
vt 0.8667 0.0396
vt 0.8657 0.0396
vt 0.8657 0.0405
vt 0.8667 0.0405
vt 0.8667 0.0396
vt 0.8657 0.0405
vt 0.8667 0.0396
vt 0.8657 0.0396
vt 0.8657 0.0405
vt 0.8667 0.0405
vt 0.8667 0.0396
vn -0.9806 -0.1961 0.0000
vn 0.9806 -0.1961 0.0000
vn 0.0000 1.0000 0.0000
vn 0.0000 -1.0000 0.0000
vn 0.0000 0.0000 1.0000
vn 0.0000 0.0000 -1.0000
vn -0.7071 0.7071 0.0000
vn 0.7071 -0.7071 0.0000
vn -1.0000 0.0000 0.0000
vn 1.0000 0.0000 0.0000
vn 0.7071 0.7071 0.0000
vn -0.7071 -0.7071 0.0000
usemtl m_0
s 1
f 81/201/33 82/202/33 83/203/33 84/204/33
f 85/205/34 86/206/34 87/207/34 88/208/34
f 83/209/35 82/202/35 86/210/35 85/211/35
f 87/212/36 81/213/36 84/214/36 88/208/36
f 86/215/37 82/202/37 81/216/37 87/217/37
f 84/218/38 83/219/38 85/220/38 88/208/38
f 89/221/34 90/222/34 91/223/34 92/224/34
f 93/225/33 94/226/33 95/227/33 96/228/33
f 94/229/35 90/222/35 89/230/35 95/231/35
f 92/232/36 91/233/36 93/234/36 96/228/36
f 91/235/37 90/222/37 94/236/37 93/237/37
f 95/238/38 89/239/38 92/240/38 96/228/38
f 97/241/39 98/242/39 99/243/39 100/244/39
f 101/245/40 102/246/40 103/247/40 104/248/40
f 99/249/35 98/242/35 102/250/35 101/251/35
f 103/252/41 97/253/41 100/254/41 104/248/41
f 102/255/37 98/242/37 97/256/37 103/257/37
f 100/258/38 99/259/38 101/260/38 104/248/38
f 105/261/42 106/262/42 107/263/42 108/264/42
f 109/265/41 110/266/41 111/267/41 112/268/41
f 110/269/35 106/262/35 105/270/35 111/271/35
f 108/272/36 107/273/36 109/274/36 112/268/36
f 107/275/37 106/262/37 110/276/37 109/277/37
f 111/278/38 105/279/38 108/280/38 112/268/38
f 113/281/42 114/282/42 115/283/42 116/284/42
f 117/285/41 118/286/41 119/287/41 120/288/41
f 118/289/35 114/282/35 113/290/35 119/291/35
f 116/292/36 115/293/36 117/294/36 120/288/36
f 115/295/37 114/282/37 118/296/37 117/297/37
f 119/298/38 113/299/38 116/300/38 120/288/38
f 121/301/43 122/302/43 123/303/43 124/304/43
f 125/305/44 126/306/44 127/307/44 128/308/44
f 126/309/35 122/302/35 121/310/35 127/311/35
f 124/312/42 123/313/42 125/314/42 128/308/42
f 123/315/37 122/302/37 126/316/37 125/317/37
f 127/318/38 121/319/38 124/320/38 128/308/38
f 129/321/41 130/322/41 131/323/41 132/324/41
f 133/325/42 134/326/42 135/327/42 136/328/42
f 131/329/35 130/322/35 134/330/35 133/331/35
f 135/332/36 129/333/36 132/334/36 136/328/36
f 134/335/37 130/322/37 129/336/37 135/337/37
f 132/338/38 131/339/38 133/340/38 136/328/38
f 137/341/40 138/342/40 139/343/40 140/344/40
f 141/345/44 142/346/44 143/347/44 144/348/44
f 142/349/35 138/342/35 137/350/35 143/351/35
f 140/352/36 139/353/36 141/354/36 144/348/36
f 139/355/37 138/342/37 142/356/37 141/357/37
f 143/358/38 137/359/38 140/360/38 144/348/38
f 145/361/42 146/362/42 147/363/42 148/364/42
f 149/365/41 150/366/41 151/367/41 152/368/41
f 150/369/35 146/362/35 145/370/35 151/371/35
f 148/372/36 147/373/36 149/374/36 152/368/36
f 147/375/37 146/362/37 150/376/37 149/377/37
f 151/378/38 145/379/38 148/380/38 152/368/38
o ohno
v -0.093750 -1.593750 2.287380
v -0.187500 -1.531250 2.218750
v 0.000000 -1.531250 2.218750
v -0.093750 -1.531250 2.287380
v -0.187500 -1.468750 2.218750
v 0.000000 -1.468750 2.218750
v 0.093750 -1.593750 2.287380
v 0.093750 -1.531250 2.287380
v 0.187500 -1.531250 2.218750
v 0.187500 -1.468750 2.218750
v 0.187500 -1.500000 2.118870
v 0.187500 -1.437500 2.118870
v -0.187500 -1.500000 2.118870
v -0.187500 -1.437500 2.118870
v -0.687500 -0.968750 1.921875
v -0.687500 -0.968750 1.929688
v -0.687500 -1.031250 1.929688
v -0.687500 -1.031250 1.921875
v -0.812500 -1.062500 1.929688
v -0.812500 -0.968750 1.929688
v -0.812500 -0.968750 1.921875
v -0.812500 -1.062500 1.921875
v -0.812500 -0.968750 1.906250
v -0.812500 -0.968750 1.914062
v -0.812500 -1.062500 1.914062
v -0.812500 -1.062500 1.906250
v -0.937500 -1.093750 1.914062
v -0.937500 -0.968750 1.914062
v -0.937500 -0.968750 1.906250
v -0.937500 -1.093750 1.906250
v 0.687500 -1.000000 1.929688
v 0.687500 -0.968750 1.929688
v 0.687500 -0.968750 1.921875
v 0.687500 -1.000000 1.921875
v 0.812500 -0.968750 1.921875
v 0.812500 -0.968750 1.929688
v 0.812500 -1.031250 1.929688
v 0.812500 -1.031250 1.921875
v 0.812500 -1.031250 1.914062
v 0.812500 -0.968750 1.914062
v 0.812500 -0.968750 1.906250
v 0.812500 -1.031250 1.906250
v 0.937500 -0.968750 1.906250
v 0.937500 -0.968750 1.914062
v 0.937500 -1.062500 1.914062
v 0.937500 -1.062500 1.906250
vt 0.2705 0.8037
vt 0.2686 0.8037
vt 0.2686 0.8057
vt 0.2705 0.8037
vt 0.2686 0.8037
vt 0.2686 0.8057
vt 0.2705 0.8057
vt 0.2705 0.8037
vt 0.2686 0.8037
vt 0.2686 0.8057
vt 0.2705 0.8037
vt 0.2686 0.8037
vt 0.2686 0.8057
vt 0.2705 0.8057
vt 0.2705 0.8037
vt 0.2686 0.8037
vt 0.2705 0.8037
vt 0.2686 0.8037
vt 0.2686 0.8057
vt 0.2705 0.8057
vt 0.2705 0.8037
vt 0.2686 0.8037
vt 0.2705 0.8037
vt 0.2686 0.8037
vt 0.2686 0.8057
vt 0.2705 0.8057
vt 0.2705 0.8037
vt 0.2686 0.8037
vt 0.2705 0.8037
vt 0.2686 0.8037
vt 0.2686 0.8057
vt 0.2705 0.8057
vt 0.2705 0.8037
vt 0.2686 0.8037
vt 0.2686 0.8057
vt 0.2705 0.8057
vt 0.2705 0.8037
vt 0.2686 0.8037
vt 0.1304 0.7446
vt 0.1294 0.7446
vt 0.1294 0.7456
vt 0.1304 0.7456
vt 0.1304 0.7446
vt 0.1294 0.7446
vt 0.1294 0.7456
vt 0.1304 0.7456
vt 0.1304 0.7446
vt 0.1294 0.7456
vt 0.1304 0.7456
vt 0.1304 0.7446
vt 0.1294 0.7446
vt 0.1294 0.7456
vt 0.1304 0.7446
vt 0.1294 0.7456
vt 0.1304 0.7456
vt 0.1304 0.7446
vt 0.1294 0.7446
vt 0.1294 0.7456
vt 0.1304 0.7446
vt 0.1294 0.7446
vt 0.1294 0.7456
vt 0.1304 0.7456
vt 0.1304 0.7446
vt 0.1294 0.7446
vt 0.1294 0.7456
vt 0.1304 0.7456
vt 0.1304 0.7446
vt 0.1294 0.7456
vt 0.1304 0.7456
vt 0.1304 0.7446
vt 0.1294 0.7446
vt 0.1294 0.7456
vt 0.1304 0.7446
vt 0.1294 0.7456
vt 0.1304 0.7456
vt 0.1304 0.7446
vt 0.1294 0.7446
vt 0.1294 0.7456
vt 0.1294 0.7456
vt 0.1294 0.7446
vt 0.1304 0.7446
vt 0.1304 0.7456
vt 0.1294 0.7456
vt 0.1294 0.7446
vt 0.1304 0.7446
vt 0.1304 0.7456
vt 0.1294 0.7456
vt 0.1304 0.7446
vt 0.1304 0.7456
vt 0.1294 0.7456
vt 0.1294 0.7446
vt 0.1304 0.7446
vt 0.1294 0.7456
vt 0.1304 0.7446
vt 0.1304 0.7456
vt 0.1294 0.7456
vt 0.1294 0.7446
vt 0.1304 0.7446
vt 0.1294 0.7456
vt 0.1294 0.7446
vt 0.1304 0.7446
vt 0.1304 0.7456
vt 0.1294 0.7456
vt 0.1294 0.7446
vt 0.1304 0.7446
vt 0.1304 0.7456
vt 0.1294 0.7456
vt 0.1304 0.7446
vt 0.1304 0.7456
vt 0.1294 0.7456
vt 0.1294 0.7446
vt 0.1304 0.7446
vt 0.1294 0.7456
vt 0.1304 0.7446
vt 0.1304 0.7456
vt 0.1294 0.7456
vt 0.1294 0.7446
vt 0.1304 0.7446
vn 0.0000 -0.7394 -0.6733
vn -0.5907 0.0000 0.8069
vn 0.0000 0.7394 0.6733
vn 0.0000 0.0000 1.0000
vn 0.5907 0.0000 0.8069
vn 0.0000 -0.9544 -0.2986
vn 1.0000 0.0000 0.0000
vn 0.0000 0.9544 0.2986
vn 0.0000 0.0000 -1.0000
vn -1.0000 0.0000 0.0000
vn 0.0000 1.0000 0.0000
vn 0.2425 -0.9701 0.0000
vn -0.2425 -0.9701 0.0000
usemtl m_0
s 1
f 153/381/45 154/382/45 155/383/45
f 154/384/46 153/385/46 156/386/46 157/387/46
f 157/388/47 156/389/47 158/390/47
f 159/391/45 153/385/45 155/383/45
f 153/381/48 159/392/48 160/393/48 156/394/48
f 156/395/47 160/396/47 158/390/47
f 161/397/45 159/392/45 155/383/45
f 159/391/49 161/398/49 162/399/49 160/400/49
f 160/401/47 162/402/47 158/390/47
f 163/403/50 161/398/50 155/383/50
f 161/397/51 163/404/51 164/405/51 162/406/51
f 162/407/52 164/408/52 158/390/52
f 165/409/50 163/404/50 155/383/50
f 163/403/53 165/410/53 166/411/53 164/412/53
f 164/413/52 166/414/52 158/390/52
f 154/384/50 165/410/50 155/383/50
f 165/409/54 154/382/54 157/415/54 166/416/54
f 166/417/52 157/418/52 158/390/52
f 167/419/51 168/420/51 169/421/51 170/422/51
f 171/423/54 172/424/54 173/425/54 174/426/54
f 172/427/55 168/420/55 167/428/55 173/429/55
f 170/430/56 169/431/56 171/432/56 174/426/56
f 169/433/48 168/420/48 172/434/48 171/435/48
f 173/436/53 167/437/53 170/438/53 174/426/53
f 175/439/51 176/440/51 177/441/51 178/442/51
f 179/443/54 180/444/54 181/445/54 182/446/54
f 180/447/55 176/440/55 175/448/55 181/449/55
f 178/450/56 177/451/56 179/452/56 182/446/56
f 177/453/48 176/440/48 180/454/48 179/455/48
f 181/456/53 175/457/53 178/458/53 182/446/53
f 183/459/54 184/460/54 185/461/54 186/462/54
f 187/463/51 188/464/51 189/465/51 190/466/51
f 185/467/55 184/460/55 188/468/55 187/469/55
f 189/470/57 183/471/57 186/472/57 190/466/57
f 188/473/48 184/460/48 183/474/48 189/475/48
f 186/476/53 185/477/53 187/478/53 190/466/53
f 191/479/54 192/480/54 193/481/54 194/482/54
f 195/483/51 196/484/51 197/485/51 198/486/51
f 193/487/55 192/480/55 196/488/55 195/489/55
f 197/490/57 191/491/57 194/492/57 198/486/57
f 196/493/48 192/480/48 191/494/48 197/495/48
f 194/496/53 193/497/53 195/498/53 198/486/53
