# Blender v2.79 (sub 0) OBJ File: ''
# www.blender.org
mtllib teddy.mtl
o leftleg_translucent
v -0.124471 -0.189063 -0.034125
v 0.005450 -0.189063 0.019690
v 0.005450 -0.048438 0.019690
v -0.124471 -0.048438 -0.034125
v -0.273956 -0.189063 0.326765
v -0.273956 -0.048438 0.326765
v -0.144036 -0.189063 0.380580
v -0.144036 -0.048438 0.380580
vt 0.062500 0.500000
vt 0.062500 0.437500
vt 0.125000 0.437500
vt 0.125000 0.500000
vt 0.000000 0.250000
vt 0.062500 0.250000
vt 0.000000 0.437500
vt 0.187500 0.500000
vt 0.187500 0.437500
vt 0.125000 0.437500
vt 0.125000 0.500000
vt 0.187500 0.437500
vt 0.125000 0.250000
vt 0.187500 0.250000
vt 0.250000 0.250000
vt 0.250000 0.437500
vn 0.3827 0.0000 -0.9239
vn -0.9239 -0.0000 -0.3827
vn -0.3827 0.0000 0.9239
vn 0.9239 -0.0000 0.3827
vn -0.0000 1.0000 0.0000
vn 0.0000 -1.0000 -0.0000
usemtl m_0
s 1
f 1/1/1 4/2/1 3/3/1 2/4/1
f 5/5/2 6/6/2 4/2/2 1/7/2
f 7/8/3 8/9/3 6/10/3 5/11/3
f 2/12/4 3/3/4 8/13/4 7/14/4
f 8/13/5 3/3/5 4/2/5 6/6/5
f 2/12/6 7/14/6 5/15/6 1/16/6
o rightleg_translucent
v -0.005450 -0.189063 0.019690
v 0.124471 -0.189063 -0.034125
v 0.124471 -0.048438 -0.034125
v -0.005450 -0.048438 0.019690
v 0.144036 -0.189063 0.380580
v 0.144036 -0.048438 0.380580
v 0.273956 -0.189063 0.326765
v 0.273956 -0.048438 0.326765
vt 0.062500 0.250000
vt 0.062500 0.187500
vt 0.125000 0.187500
vt 0.125000 0.250000
vt 0.000000 0.000000
vt 0.062500 0.000000
vt 0.000000 0.187500
vt 0.187500 0.250000
vt 0.187500 0.187500
vt 0.125000 0.187500
vt 0.125000 0.250000
vt 0.187500 0.187500
vt 0.125000 0.000000
vt 0.187500 0.000000
vt 0.250000 0.000000
vt 0.250000 0.187500
vn -0.3827 0.0000 -0.9239
vn -0.9239 -0.0000 0.3827
vn 0.3827 0.0000 0.9239
vn 0.9239 0.0000 -0.3827
vn 0.0000 1.0000 0.0000
vn -0.0000 -1.0000 -0.0000
usemtl m_0
s 1
f 9/17/7 12/18/7 11/19/7 10/20/7
f 13/21/8 14/22/8 12/18/8 9/23/8
f 15/24/9 16/25/9 14/26/9 13/27/9
f 10/28/10 11/19/10 16/29/10 15/30/10
f 16/29/11 11/19/11 12/18/11 14/22/11
f 10/28/12 15/30/12 13/31/12 9/32/12
o leftarm_translucent
v -0.257812 -0.082464 0.176777
v -0.117188 -0.082464 0.176777
v -0.117188 0.193750 -0.099437
v -0.257812 0.193750 -0.099437
v -0.257812 0.016973 0.276214
v -0.257812 0.293187 0.000000
v -0.117188 0.016973 0.276214
v -0.117188 0.293187 0.000000
vt 0.875000 0.250000
vt 0.875000 0.437500
vt 0.812500 0.437500
vt 0.812500 0.250000
vt 0.687500 0.250000
vt 0.687500 0.437500
vt 0.625000 0.437500
vt 0.625000 0.250000
vt 0.750000 0.250000
vt 0.750000 0.437500
vt 0.750000 0.500000
vt 0.687500 0.500000
vt 0.812500 0.500000
vt 0.812500 0.437500
vt 0.750000 0.437500
vt 0.750000 0.500000
vn 0.0000 -0.7071 -0.7071
vn -1.0000 0.0000 0.0000
vn 0.0000 0.7071 0.7071
vn 1.0000 0.0000 0.0000
vn 0.0000 0.7071 -0.7071
vn 0.0000 -0.7071 0.7071
usemtl m_0
s 1
f 17/33/13 20/34/13 19/35/13 18/36/13
f 21/37/14 22/38/14 20/39/14 17/40/14
f 23/41/15 24/42/15 22/38/15 21/37/15
f 18/36/16 19/35/16 24/42/16 23/41/16
f 24/42/17 19/43/17 20/44/17 22/38/17
f 18/45/18 23/46/18 21/47/18 17/48/18
o torso_translucent
v -0.132812 -0.126563 -0.070312
v 0.132812 -0.126563 -0.070312
v 0.132812 0.264062 -0.070312
v -0.132812 0.264062 -0.070312
v -0.132812 -0.126563 0.070313
v -0.132812 0.264062 0.070313
v 0.132812 -0.126563 0.070313
v 0.132812 0.264062 0.070313
vt 0.625000 0.250000
vt 0.625000 0.437500
vt 0.500000 0.437500
vt 0.500000 0.250000
vt 0.312500 0.250000
vt 0.312500 0.437500
vt 0.250000 0.437500
vt 0.250000 0.250000
vt 0.437500 0.250000
vt 0.437500 0.437500
vt 0.437500 0.500000
vt 0.312500 0.500000
vt 0.562500 0.500000
vt 0.562500 0.437500
vt 0.437500 0.437500
vt 0.437500 0.500000
vn 0.0000 0.0000 -1.0000
vn -1.0000 0.0000 0.0000
vn 0.0000 -0.0000 1.0000
vn 1.0000 -0.0000 0.0000
vn 0.0000 1.0000 0.0000
vn 0.0000 -1.0000 0.0000
usemtl m_0
s 1
f 25/49/19 28/50/19 27/51/19 26/52/19
f 29/53/20 30/54/20 28/55/20 25/56/20
f 31/57/21 32/58/21 30/54/21 29/53/21
f 26/52/22 27/51/22 32/58/22 31/57/22
f 32/58/23 27/59/23 28/60/23 30/54/23
f 26/61/24 31/62/24 29/63/24 25/64/24
o rightarm_translucent
v 0.117188 -0.082464 0.176777
v 0.257812 -0.082464 0.176777
v 0.257812 0.193750 -0.099437
v 0.117188 0.193750 -0.099437
v 0.117188 0.016973 0.276214
v 0.117188 0.293187 0.000000
v 0.257812 0.016973 0.276214
v 0.257812 0.293187 0.000000
vt 1.000000 0.000000
vt 1.000000 0.187500
vt 0.937500 0.187500
vt 0.937500 0.000000
vt 0.812500 0.000000
vt 0.812500 0.187500
vt 0.750000 0.187500
vt 0.750000 0.000000
vt 0.875000 0.000000
vt 0.875000 0.187500
vt 0.875000 0.250000
vt 0.812500 0.250000
vt 0.937500 0.250000
vt 0.937500 0.187500
vt 0.875000 0.187500
vt 0.875000 0.250000
vn 0.0000 -0.7071 -0.7071
vn -1.0000 0.0000 0.0000
vn 0.0000 0.7071 0.7071
vn 1.0000 0.0000 0.0000
vn 0.0000 0.7071 -0.7071
vn 0.0000 -0.7071 0.7071
usemtl m_0
s 1
f 33/65/25 36/66/25 35/67/25 34/68/25
f 37/69/26 38/70/26 36/71/26 33/72/26
f 39/73/27 40/74/27 38/70/27 37/69/27
f 34/68/28 35/67/28 40/74/28 39/73/28
f 40/74/29 35/75/29 36/76/29 38/70/29
f 34/77/30 39/78/30 37/79/30 33/80/30
o head_translucent
v -0.140625 0.240625 -0.140625
v 0.140625 0.240625 -0.140625
v 0.140625 0.521875 -0.140625
v -0.140625 0.521875 -0.140625
v -0.140625 0.240625 0.140625
v -0.140625 0.521875 0.140625
v 0.140625 0.240625 0.140625
v 0.140625 0.521875 0.140625
vt 1.000000 0.750000
vt 1.000000 0.875000
vt 0.875000 0.875000
vt 0.875000 0.750000
vt 0.625000 0.750000
vt 0.625000 0.875000
vt 0.500000 0.875000
vt 0.500000 0.750000
vt 0.750000 0.750000
vt 0.750000 0.875000
vt 0.750000 1.000000
vt 0.625000 1.000000
vt 0.875000 1.000000
vt 0.875000 0.875000
vt 0.750000 0.875000
vt 0.750000 1.000000
vn 0.0000 0.0000 -1.0000
vn -1.0000 0.0000 0.0000
vn 0.0000 -0.0000 1.0000
vn 1.0000 -0.0000 0.0000
vn 0.0000 1.0000 0.0000
vn 0.0000 -1.0000 0.0000
usemtl m_0
s 1
f 41/81/31 44/82/31 43/83/31 42/84/31
f 45/85/32 46/86/32 44/87/32 41/88/32
f 47/89/33 48/90/33 46/86/33 45/85/33
f 42/84/34 43/83/34 48/90/34 47/89/34
f 48/90/35 43/91/35 44/92/35 46/86/35
f 42/93/36 47/94/36 45/95/36 41/96/36
o head
v -0.125000 0.256250 -0.125000
v 0.125000 0.256250 -0.125000
v 0.125000 0.506250 -0.125000
v -0.125000 0.506250 -0.125000
v -0.125000 0.256250 0.125000
v -0.125000 0.506250 0.125000
v 0.125000 0.256250 0.125000
v 0.125000 0.506250 0.125000
vt 0.500000 0.750000
vt 0.500000 0.875000
vt 0.375000 0.875000
vt 0.375000 0.750000
vt 0.125000 0.750000
vt 0.125000 0.875000
vt 0.000000 0.875000
vt 0.000000 0.750000
vt 0.250000 0.750000
vt 0.250000 0.875000
vt 0.250000 1.000000
vt 0.125000 1.000000
vt 0.375000 1.000000
vt 0.375000 0.875000
vt 0.250000 0.875000
vt 0.250000 1.000000
vn 0.0000 0.0000 -1.0000
vn -1.0000 -0.0000 0.0000
vn 0.0000 0.0000 1.0000
vn 1.0000 0.0000 0.0000
vn 0.0000 1.0000 0.0000
vn 0.0000 -1.0000 0.0000
usemtl m_0
s 1
f 49/97/37 52/98/37 51/99/37 50/100/37
f 53/101/38 54/102/38 52/103/38 49/104/38
f 55/105/39 56/106/39 54/102/39 53/101/39
f 50/100/40 51/99/40 56/106/40 55/105/40
f 56/106/41 51/107/41 52/108/41 54/102/41
f 50/109/42 55/110/42 53/111/42 49/112/42
o rightleg
v 0.004758 -0.181250 0.023918
v 0.120242 -0.181250 -0.023918
v 0.120242 -0.056250 -0.023918
v 0.004758 -0.056250 0.023918
v 0.148264 -0.181250 0.370373
v 0.148264 -0.056250 0.370373
v 0.263749 -0.181250 0.322537
v 0.263749 -0.056250 0.322537
vt 0.312500 0.250000
vt 0.312500 0.187500
vt 0.375000 0.187500
vt 0.375000 0.250000
vt 0.250000 0.000000
vt 0.312500 0.000000
vt 0.250000 0.187500
vt 0.437500 0.250000
vt 0.437500 0.187500
vt 0.375000 0.187500
vt 0.375000 0.250000
vt 0.437500 0.187500
vt 0.375000 0.000000
vt 0.437500 0.000000
vt 0.500000 0.000000
vt 0.500000 0.187500
vn -0.3827 0.0000 -0.9239
vn -0.9239 0.0000 0.3827
vn 0.3827 0.0000 0.9239
vn 0.9239 0.0000 -0.3827
vn 0.0000 1.0000 0.0000
vn -0.0000 -1.0000 0.0000
usemtl m_0
s 1
f 57/113/43 60/114/43 59/115/43 58/116/43
f 61/117/44 62/118/44 60/114/44 57/119/44
f 63/120/45 64/121/45 62/122/45 61/123/45
f 58/124/46 59/115/46 64/125/46 63/126/46
f 64/125/47 59/115/47 60/114/47 62/118/47
f 58/124/48 63/126/48 61/127/48 57/128/48
o leftleg
v -0.120242 -0.181250 -0.023918
v -0.004758 -0.181250 0.023918
v -0.004758 -0.056250 0.023918
v -0.120242 -0.056250 -0.023918
v -0.263749 -0.181250 0.322537
v -0.263749 -0.056250 0.322537
v -0.148264 -0.181250 0.370373
v -0.148264 -0.056250 0.370373
vt 0.062500 0.750000
vt 0.062500 0.687500
vt 0.125000 0.687500
vt 0.125000 0.750000
vt 0.000000 0.500000
vt 0.062500 0.500000
vt 0.000000 0.687500
vt 0.187500 0.750000
vt 0.187500 0.687500
vt 0.125000 0.687500
vt 0.125000 0.750000
vt 0.187500 0.687500
vt 0.125000 0.500000
vt 0.187500 0.500000
vt 0.250000 0.500000
vt 0.250000 0.687500
vn 0.3827 0.0000 -0.9239
vn -0.9239 -0.0000 -0.3827
vn -0.3827 0.0000 0.9239
vn 0.9239 0.0000 0.3827
vn -0.0000 1.0000 0.0000
vn 0.0000 -1.0000 -0.0000
usemtl m_0
s 1
f 65/129/49 68/130/49 67/131/49 66/132/49
f 69/133/50 70/134/50 68/130/50 65/135/50
f 71/136/51 72/137/51 70/138/51 69/139/51
f 66/140/52 67/131/52 72/141/52 71/142/52
f 72/141/53 67/131/53 68/130/53 70/134/53
f 66/140/54 71/142/54 69/143/54 65/144/54
o rightarm
v 0.125000 -0.071415 0.176777
v 0.250000 -0.071415 0.176777
v 0.250000 0.193750 -0.088388
v 0.125000 0.193750 -0.088388
v 0.125000 0.016973 0.265165
v 0.125000 0.282138 0.000000
v 0.250000 0.016973 0.265165
v 0.250000 0.282138 0.000000
vt 0.750000 0.000000
vt 0.750000 0.187500
vt 0.687500 0.187500
vt 0.687500 0.000000
vt 0.562500 0.000000
vt 0.562500 0.187500
vt 0.500000 0.187500
vt 0.500000 0.000000
vt 0.625000 0.000000
vt 0.625000 0.187500
vt 0.625000 0.250000
vt 0.562500 0.250000
vt 0.687500 0.250000
vt 0.687500 0.187500
vt 0.625000 0.187500
vt 0.625000 0.250000
vn 0.0000 -0.7071 -0.7071
vn -1.0000 0.0000 0.0000
vn 0.0000 0.7071 0.7071
vn 1.0000 -0.0000 0.0000
vn 0.0000 0.7071 -0.7071
vn 0.0000 -0.7071 0.7071
usemtl m_0
s 1
f 73/145/55 76/146/55 75/147/55 74/148/55
f 77/149/56 78/150/56 76/151/56 73/152/56
f 79/153/57 80/154/57 78/150/57 77/149/57
f 74/148/58 75/147/58 80/154/58 79/153/58
f 80/154/59 75/155/59 76/156/59 78/150/59
f 74/157/60 79/158/60 77/159/60 73/160/60
o leftarm
v -0.250000 -0.071415 0.176777
v -0.125000 -0.071415 0.176777
v -0.125000 0.193750 -0.088388
v -0.250000 0.193750 -0.088388
v -0.250000 0.016973 0.265165
v -0.250000 0.282138 0.000000
v -0.125000 0.016973 0.265165
v -0.125000 0.282138 0.000000
vt 0.875000 0.500000
vt 0.875000 0.687500
vt 0.812500 0.687500
vt 0.812500 0.500000
vt 0.687500 0.500000
vt 0.687500 0.687500
vt 0.625000 0.687500
vt 0.625000 0.500000
vt 0.750000 0.500000
vt 0.750000 0.687500
vt 0.750000 0.750000
vt 0.687500 0.750000
vt 0.812500 0.750000
vt 0.812500 0.687500
vt 0.750000 0.687500
vt 0.750000 0.750000
vn 0.0000 -0.7071 -0.7071
vn -1.0000 -0.0000 0.0000
vn 0.0000 0.7071 0.7071
vn 1.0000 0.0000 0.0000
vn 0.0000 0.7071 -0.7071
vn 0.0000 -0.7071 0.7071
usemtl m_0
s 1
f 81/161/61 84/162/61 83/163/61 82/164/61
f 85/165/62 86/166/62 84/167/62 81/168/62
f 87/169/63 88/170/63 86/166/63 85/165/63
f 82/164/64 83/163/64 88/170/64 87/169/64
f 88/170/65 83/171/65 84/172/65 86/166/65
f 82/173/66 87/174/66 85/175/66 81/176/66
o torso
v -0.125000 -0.118750 -0.062500
v 0.125000 -0.118750 -0.062500
v 0.125000 0.256250 -0.062500
v -0.125000 0.256250 -0.062500
v -0.125000 -0.118750 0.062500
v -0.125000 0.256250 0.062500
v 0.125000 -0.118750 0.062500
v 0.125000 0.256250 0.062500
vt 0.625000 0.500000
vt 0.625000 0.687500
vt 0.500000 0.687500
vt 0.500000 0.500000
vt 0.312500 0.500000
vt 0.312500 0.687500
vt 0.250000 0.687500
vt 0.250000 0.500000
vt 0.437500 0.500000
vt 0.437500 0.687500
vt 0.437500 0.750000
vt 0.312500 0.750000
vt 0.562500 0.750000
vt 0.562500 0.687500
vt 0.437500 0.687500
vt 0.437500 0.750000
vn 0.0000 0.0000 -1.0000
vn -1.0000 -0.0000 0.0000
vn 0.0000 -0.0000 1.0000
vn 1.0000 0.0000 0.0000
vn 0.0000 1.0000 0.0000
vn 0.0000 -1.0000 0.0000
usemtl m_0
s 1
f 89/177/67 92/178/67 91/179/67 90/180/67
f 93/181/68 94/182/68 92/183/68 89/184/68
f 95/185/69 96/186/69 94/182/69 93/181/69
f 90/180/70 91/179/70 96/186/70 95/185/70
f 96/186/71 91/187/71 92/188/71 94/182/71
f 90/189/72 95/190/72 93/191/72 89/192/72
