# Blender v2.78 (sub 0) OBJ File: 'jeep.blend'
# www.blender.org
mtllib therobloxwheel.mtl
o touch_my_wood
v -0.718187 0.000018 0.000038
v -0.718147 0.398396 0.597601
v -0.718151 0.507852 0.507868
v -0.718147 0.227130 0.681366
v -0.718151 0.000021 0.718223
v -0.718158 -0.227087 0.681370
v -0.718165 -0.398356 0.597605
v -0.718172 -0.507814 0.507871
v -0.718180 -0.597543 0.398417
v -0.718172 -0.507814 0.507871
v -0.718190 -0.681309 0.227148
v -0.718205 -0.718166 0.000038
v -0.718215 -0.681312 -0.227070
v -0.718223 -0.597547 -0.398338
v -0.718223 -0.507817 -0.507796
v -0.718226 -0.398363 -0.597530
v -0.718223 -0.507817 -0.507796
v -0.718226 -0.227094 -0.681295
v -0.718223 0.000014 -0.718148
v -0.718215 0.227124 -0.681295
v -0.718208 0.398391 -0.597533
v -0.718201 0.507847 -0.507800
v -0.718190 0.597580 -0.398345
v -0.718201 0.507847 -0.507800
v -0.718183 0.681345 -0.227077
v -0.718169 0.718199 0.000034
v -0.718158 0.681345 0.227145
v -0.718151 0.597584 0.398410
v -0.718151 0.507852 0.507868
v 0.718174 0.507812 -0.507872
v -0.718201 0.507847 -0.507800
v 0.718182 0.597545 -0.398417
v -0.718190 0.597580 -0.398345
v 0.718192 0.681309 -0.227148
v -0.718183 0.681345 -0.227077
v 0.718207 0.718167 -0.000041
v -0.718169 0.718199 0.000034
v 0.718217 0.681313 0.227069
v -0.718158 0.681345 0.227145
v 0.718221 0.597549 0.398338
v -0.718151 0.597584 0.398410
v 0.718224 0.507817 0.507796
v -0.718151 0.507852 0.507868
v -0.718201 0.507847 -0.507800
v 0.718174 0.507812 -0.507872
v -0.718208 0.398391 -0.597533
v 0.718167 0.398356 -0.597605
v -0.718215 0.227124 -0.681295
v 0.718160 0.227089 -0.681370
v -0.718223 0.000014 -0.718148
v 0.718153 -0.000021 -0.718223
v -0.718226 -0.227094 -0.681295
v 0.718149 -0.227130 -0.681366
v -0.718226 -0.398363 -0.597530
v 0.718149 -0.398395 -0.597601
v -0.718223 -0.507817 -0.507796
v 0.718149 -0.507853 -0.507868
v 0.718189 -0.000018 -0.000038
v 0.718167 0.398356 -0.597605
v 0.718174 0.507812 -0.507872
v 0.718160 0.227089 -0.681370
v 0.718153 -0.000021 -0.718223
v 0.718149 -0.227130 -0.681366
v 0.718149 -0.398395 -0.597601
v 0.718149 -0.507853 -0.507868
v 0.718153 -0.597583 -0.398410
v 0.718149 -0.507853 -0.507868
v 0.718160 -0.681348 -0.227145
v 0.718171 -0.718202 -0.000034
v 0.718181 -0.681345 0.227077
v 0.718192 -0.597579 0.398345
v 0.718203 -0.507846 0.507800
v 0.718210 -0.398391 0.597533
v 0.718203 -0.507846 0.507800
v 0.718217 -0.227123 0.681295
v 0.718224 -0.000014 0.718148
v 0.718228 0.227095 0.681295
v 0.718228 0.398361 0.597530
v 0.718224 0.507817 0.507796
v 0.718221 0.597549 0.398338
v 0.718224 0.507817 0.507796
v 0.718217 0.681313 0.227069
v 0.718207 0.718167 -0.000041
v 0.718192 0.681309 -0.227148
v 0.718182 0.597545 -0.398417
v 0.718174 0.507812 -0.507872
v 0.718203 -0.507846 0.507800
v -0.718172 -0.507814 0.507871
v 0.718192 -0.597579 0.398345
v -0.718180 -0.597543 0.398417
v 0.718181 -0.681345 0.227077
v -0.718190 -0.681309 0.227148
v 0.718171 -0.718202 -0.000034
v -0.718205 -0.718166 0.000038
v 0.718160 -0.681348 -0.227145
v -0.718215 -0.681312 -0.227070
v 0.718153 -0.597583 -0.398413
v -0.718223 -0.597547 -0.398338
v 0.718149 -0.507853 -0.507868
v -0.718223 -0.507817 -0.507796
v 0.718224 0.507817 0.507796
v -0.718151 0.507852 0.507868
v 0.718228 0.398361 0.597530
v -0.718147 0.398396 0.597601
v 0.718228 0.227095 0.681295
v -0.718147 0.227130 0.681366
v 0.718224 -0.000014 0.718148
v -0.718151 0.000021 0.718223
v 0.718217 -0.227123 0.681295
v -0.718158 -0.227087 0.681370
v 0.718210 -0.398391 0.597533
v -0.718165 -0.398356 0.597605
v 0.718203 -0.507846 0.507800
v -0.718172 -0.507814 0.507871
vt 1.4408 -0.3361
vt 1.4874 -0.2407
vt 1.5079 -0.1142
vt 1.4874 0.0123
vt 1.4408 0.1077
vt 1.3908 0.1687
vt 1.1079 -0.1142
vt 1.3908 -0.3970
vt 0.8251 -0.3970
vt 0.8861 -0.4470
vt 0.9815 -0.4936
vt 1.1079 -0.5142
vt 1.2344 -0.4936
vt 1.3298 -0.4470
vt 1.3908 -0.3970
vt 0.8251 0.1687
vt 0.7751 0.1077
vt 0.7285 0.0123
vt 0.7079 -0.1142
vt 0.7285 -0.2407
vt 0.7751 -0.3361
vt 0.8251 -0.3970
vt 1.4159 -1.0950
vt 1.4159 -1.2283
vt 2.2159 -1.2283
vt 2.2159 -1.0950
vt 1.4159 -0.6950
vt 1.4159 -0.8283
vt 2.2159 -0.8283
vt 2.2159 -0.6950
vt 0.8861 -0.4470
vt 0.9815 -0.4936
vt 1.1079 -0.5142
vt 1.2344 -0.4936
vt 1.3298 -0.4470
vt 1.3908 -0.3970
vt 1.1079 -0.1142
vt 0.8251 -0.3970
vt 1.4159 -1.0950
vt 1.4159 -1.2283
vt 2.2159 -1.2283
vt 2.2159 -1.0950
vt 1.4159 -0.9617
vt 2.2159 -0.9617
vt 1.1079 0.2858
vt 0.9815 0.2653
vt 0.8861 0.2186
vt 0.8251 0.1687
vt 1.3908 0.1687
vt 1.3298 0.2186
vt 1.2344 0.2653
vt 1.4159 -0.5617
vt 2.2159 -0.5617
vt 1.4159 -0.6950
vt 1.4159 -0.8283
vt 2.2159 -0.8283
vt 2.2159 -0.6950
vt 0.7285 -0.2407
vt 0.7751 -0.3361
vt 0.8251 -0.3970
vt 0.8251 0.1687
vt 0.7751 0.1077
vt 0.7285 0.0123
vt 0.7079 -0.1142
vt 1.4159 -0.5617
vt 1.4159 -0.6950
vt 2.2159 -0.6950
vt 2.2159 -0.5617
vt 1.4159 -0.8283
vt 1.4159 -0.9617
vt 2.2159 -0.9617
vt 2.2159 -0.8283
vt 1.4159 -0.4283
vt 2.2159 -0.4283
vt 1.3298 0.2186
vt 1.2344 0.2653
vt 1.1079 0.2858
vt 0.9815 0.2653
vt 0.8861 0.2186
vt 0.8251 0.1687
vt 1.3908 0.1687
vt 1.4159 -0.5617
vt 2.2159 -0.5617
vt 1.4159 -0.4283
vt 1.4159 -0.5617
vt 2.2159 -0.5617
vt 2.2159 -0.4283
vt 1.4159 -0.6950
vt 2.2159 -0.6950
vt 1.4159 -0.8283
vt 2.2159 -0.8283
vt 1.4874 0.0123
vt 1.4408 0.1077
vt 1.3908 0.1687
vt 1.3908 -0.3970
vt 1.4408 -0.3361
vt 1.4874 -0.2407
vt 1.5079 -0.1142
vt 1.4159 -1.0950
vt 1.4159 -1.2283
vt 2.2159 -1.2283
vt 2.2159 -1.0950
vt 1.4159 -0.9617
vt 2.2159 -0.9617
vt 1.4159 -0.4283
vt 2.2159 -0.4283
vt 1.4159 -0.4283
vt 2.2159 -0.4283
vt 1.4159 -1.0950
vt 1.4159 -1.2283
vt 2.2159 -1.2283
vt 2.2159 -1.0950
vt 1.4159 -0.9617
vt 2.2159 -0.9617
vn -1.0000 0.0000 0.0001
vn -0.0000 -0.8344 -0.5512
vn -0.0000 -0.7071 -0.7071
vn 0.0000 0.9486 -0.3164
vn 0.0000 1.0000 -0.0000
vn 1.0000 -0.0000 -0.0001
vn 0.0000 0.8344 0.5512
vn -0.0000 0.7071 0.7071
vn 0.0000 0.9486 0.3164
vn -1.0000 0.0000 0.0000
vn 0.0000 0.8344 -0.5512
vn -0.0000 0.3164 -0.9486
vn -0.0001 -0.0000 -1.0000
vn 0.0000 -0.8344 0.5512
vn 0.0000 -0.9486 0.3164
vn -0.0000 -1.0000 0.0000
vn -0.0000 -0.9486 -0.3164
vn 0.0000 0.7071 -0.7071
vn 1.0000 -0.0000 -0.0000
vn -0.0000 0.5512 -0.8344
vn -0.0000 0.5512 0.8344
vn 0.0001 0.5512 0.8344
vn -0.0000 0.3164 0.9486
vn 0.0001 0.3164 0.9486
vn 0.0001 0.0000 1.0000
vn -0.0001 -0.5512 -0.8344
vn 0.0000 -0.5512 -0.8344
vn 0.0000 -0.3164 0.9486
vn 0.0000 -0.7071 0.7071
vn 0.0000 -0.5512 0.8344
vn -0.0001 -0.3164 -0.9486
vn 0.0000 -0.3164 -0.9486
usemtl robloxtext
s 1
f 7/1/1 6/2/1 5/3/1 4/4/1 2/5/1 3/6/1 1/7/1 8/8/1
f 1/7/1 15/9/1 14/10/1 13/11/1 12/12/1 11/13/1 9/14/1 10/15/1
f 1/7/1 22/16/1 21/17/1 20/18/1 19/19/1 18/20/1 16/21/1 17/22/1
f 98/23/2 100/24/3 99/25/3 97/26/2
f 35/27/4 37/28/5 36/29/5 34/30/4
f 71/31/6 70/32/6 69/33/6 68/34/6 66/35/6 67/36/6 58/37/6 72/38/6
f 41/39/7 43/40/8 42/41/8 40/42/7
f 39/43/9 41/39/7 40/42/7 38/44/9
f 26/45/10 25/46/10 23/47/10 24/48/10 1/7/10 29/49/10 28/50/10 27/51/10
f 33/52/11 35/27/4 34/30/4 32/53/11
f 49/54/12 51/55/13 50/56/13 48/57/12
f 75/58/6 73/59/6 74/60/6 58/37/6 79/61/6 78/62/6 77/63/6 76/64/6
f 90/65/14 92/66/15 91/67/15 89/68/14
f 94/69/16 96/70/17 95/71/17 93/72/16
f 31/73/18 33/52/11 32/53/11 30/74/18
f 85/75/19 84/76/19 83/77/19 82/78/19 80/79/19 81/80/19 58/37/19 86/81/19
f 92/66/15 94/69/16 93/72/16 91/67/15
f 47/82/20 49/54/12 48/57/12 46/83/20
f 102/84/8 104/85/21 103/86/22 101/87/8
f 104/85/21 106/88/23 105/89/24 103/86/22
f 106/88/23 108/90/25 107/91/25 105/89/24
f 61/92/19 59/93/19 60/94/19 58/37/19 65/95/19 64/96/19 63/97/19 62/98/19
f 55/99/26 57/100/3 56/101/3 54/102/27
f 108/90/25 110/103/28 109/104/28 107/91/25
f 45/105/18 47/82/20 46/83/20 44/106/18
f 88/107/29 90/65/14 89/68/14 87/108/29
f 112/109/30 114/110/29 113/111/29 111/112/30
f 53/113/31 55/99/26 54/102/27 52/114/32
f 96/70/17 98/23/2 97/26/2 95/71/17
f 37/28/5 39/43/9 38/44/9 36/29/5
f 51/55/13 53/113/31 52/114/32 50/56/13
f 110/103/28 112/109/30 111/112/30 109/104/28
