# Blender v2.78 (sub 0) OBJ File: ''
# www.blender.org
mtllib tnt.mtl
o cube
v 0.500000 0.500000 -0.500000
v 0.500000 0.500000 0.500000
v 0.500000 -0.500000 -0.500000
v 0.500000 -0.500000 0.500000
v -0.500000 -0.500000 -0.500000
v -0.500000 -0.500000 0.500000
v -0.500000 0.500000 -0.500000
v -0.500000 0.500000 0.500000
vt 0.0000 0.0000
vt 0.5000 0.0000
vt 0.5000 0.5000
vt 0.0000 0.5000
vt 0.0000 0.0000
vt 0.5000 0.0000
vt 0.5000 0.5000
vt 0.0000 0.5000
vt 0.0000 0.0000
vt 0.5000 0.0000
vt 0.5000 0.5000
vt 0.0000 0.5000
vt 0.5000 1.0000
vt 0.0000 1.0000
vt 0.0000 0.0000
vt 0.5000 0.0000
vt 0.5000 0.5000
vt 0.0000 0.5000
vt 0.5000 0.5000
vt 1.0000 0.5000
vt 1.0000 1.0000
vt 0.5000 1.0000
vn -1.0000 -0.0000 0.0000
vn 0.0000 1.0000 0.0000
vn 0.0000 -1.0000 -0.0000
vn 0.0000 0.0000 -1.0000
vn 1.0000 -0.0000 0.0000
vn 0.0000 -0.0000 1.0000
usemtl m_0
s 1
f 6/1/1 8/2/1 7/3/1 5/4/1
f 8/5/2 2/6/2 1/7/2 7/8/2
f 4/9/3 6/10/3 5/11/3 3/12/3
f 7/8/4 1/7/4 3/13/4 5/14/4
f 2/15/5 4/16/5 3/17/5 1/18/5
f 6/19/6 4/20/6 2/21/6 8/22/6
