# Blender v2.79 (sub 0) OBJ File: ''
# www.blender.org
mtllib transmod.mtl
o cube
v 0.250000 0.093750 -0.093750
v 0.250000 0.093750 0.093750
v 0.250000 -0.093750 0.093750
v 0.250000 -0.093750 -0.093750
v -0.250000 -0.093750 0.093750
v -0.250000 0.093750 0.093750
v -0.250000 0.093750 -0.093750
v -0.250000 -0.093750 -0.093750
v 0.000000 0.125000 0.125000
v 0.000000 0.125000 -0.125000
v 0.000000 -0.125000 -0.125000
v 0.000000 -0.125000 0.125000
v 0.156250 0.046875 -0.117188
v 0.156250 0.046875 0.117188
v 0.156250 -0.046875 0.117188
v 0.156250 -0.046875 -0.117188
v -0.156250 -0.046875 0.117188
v -0.156250 0.046875 0.117188
v -0.156250 0.046875 -0.117188
v -0.156250 -0.046875 -0.117188
v 0.000000 0.046875 0.140625
v 0.000000 0.046875 -0.140625
v 0.000000 -0.046875 -0.140625
v 0.000000 -0.046875 0.140625
vt 0.687500 0.937500
vt 0.062500 0.937500
vt 0.062500 0.312500
vt 0.687500 0.312500
vt 0.687500 0.312500
vt 0.687500 0.937500
vt 0.062500 0.937500
vt 0.062500 0.312500
vt 0.601562 0.310556
vt 0.687500 1.000000
vt 0.000000 1.000000
vt 0.085938 0.310556
vt 0.085938 1.000000
vt 0.000000 0.310556
vt 0.687500 0.310556
vt 0.601562 1.000000
vt 0.000000 0.398438
vt 0.689450 0.312500
vt 0.689450 1.000000
vt 0.000000 0.914062
vt 0.751950 0.914062
vt 0.062500 1.000000
vt 0.062500 0.312500
vt 0.751950 0.398438
vt 0.751950 0.914062
vt 0.062500 1.000000
vt 0.062500 0.312500
vt 0.751950 0.398438
vt 0.148438 1.000000
vt 0.062500 0.310556
vt 0.750000 0.310556
vt 0.664062 1.000000
vt 0.000000 0.398438
vt 0.689450 0.312500
vt 0.689450 1.000000
vt 0.000000 0.914062
vt 0.664062 0.310556
vt 0.750000 1.000000
vt 0.148438 0.310556
vt 1.000000 0.062500
vt 0.750000 0.062500
vt 0.750000 0.000000
vt 1.000000 0.000000
vt 1.000000 0.062500
vt 1.000000 0.125000
vt 0.750000 0.125000
vt 0.750000 0.062500
vt 0.750000 0.276042
vt 0.937500 0.250000
vt 0.937500 0.562500
vt 0.750000 0.536458
vt 0.750000 0.276042
vt 0.937500 0.250000
vt 0.937500 0.562500
vt 0.750000 0.536458
vt 0.750000 0.125000
vt 0.937500 0.125000
vt 0.750000 0.250000
vt 0.750000 0.250000
vt 0.937500 0.250000
vt 0.937500 0.125000
vt 0.750000 0.125000
vt 0.750000 0.250000
vt 0.750000 0.125000
vt 0.937500 0.536458
vt 0.750000 0.562500
vt 0.750000 0.250000
vt 0.937500 0.276042
vt 0.750000 0.125000
vt 0.750000 0.250000
vt 0.937500 0.536458
vt 0.750000 0.562500
vt 0.750000 0.250000
vt 0.937500 0.276042
vn 1.0000 0.0000 0.0000
vn -1.0000 0.0000 0.0000
vn -0.1240 0.9923 0.0000
vn -0.1240 -0.9923 -0.0000
vn -0.1240 -0.0000 0.9923
vn -0.1240 0.0000 -0.9923
vn 0.1240 -0.0000 0.9923
vn 0.1240 -0.9923 -0.0000
vn 0.1240 0.0000 -0.9923
vn 0.1240 0.9923 0.0000
vn 0.0000 1.0000 0.0000
vn 0.0000 -1.0000 -0.0000
vn -0.1483 0.0000 0.9889
vn -0.1483 0.0000 -0.9889
vn 0.1483 0.0000 0.9889
vn 0.1483 0.0000 -0.9889
usemtl m_0
s 1
f 1/1/1 2/2/1 3/3/1 4/4/1
f 5/5/2 6/6/2 7/7/2 8/8/2
f 6/9/3 9/10/3 10/11/3 7/12/3
f 8/13/4 11/14/4 12/15/4 5/16/4
f 5/17/5 12/18/5 9/19/5 6/20/5
f 7/21/6 10/22/6 11/23/6 8/24/6
f 2/25/7 9/26/7 12/27/7 3/28/7
f 3/29/8 12/30/8 11/31/8 4/32/8
f 4/33/9 11/34/9 10/35/9 1/36/9
f 1/37/10 10/38/10 9/26/10 2/39/10
f 13/40/1 14/41/1 15/42/1 16/43/1
f 17/44/2 18/45/2 19/46/2 20/47/2
f 18/48/11 21/49/11 22/50/11 19/51/11
f 20/52/12 23/53/12 24/54/12 17/55/12
f 17/56/13 24/57/13 21/49/13 18/58/13
f 19/59/14 22/60/14 23/61/14 20/62/14
f 14/63/15 21/49/15 24/57/15 15/64/15
f 15/65/12 24/66/12 23/67/12 16/68/12
f 16/69/16 23/61/16 22/60/16 13/70/16
f 13/71/11 22/72/11 21/73/11 14/74/11
