# Blender v2.78 (sub 0) OBJ File: ''
# www.blender.org
mtllib winchmount.mtl
o winch
v 0.188672 0.071875 0.071875
v 0.188672 -0.071875 0.071875
v 0.188672 0.071875 0.000000
v 0.188672 -0.071875 -0.000000
v -0.188672 0.071875 0.000000
v -0.188672 -0.071875 -0.000000
v -0.188672 0.071875 0.071875
v -0.188672 -0.071875 0.071875
v 0.296484 0.107812 0.071875
v 0.296484 -0.107812 0.071875
v 0.296484 0.107812 0.000000
v 0.296484 -0.107812 -0.000000
v 0.188672 0.107812 0.000000
v 0.188672 -0.107812 -0.000000
v 0.188672 0.107812 0.071875
v 0.188672 -0.107812 0.071875
v -0.188672 0.107812 0.071875
v -0.188672 -0.107812 0.071875
v -0.188672 0.107812 0.000000
v -0.188672 -0.107812 -0.000000
v -0.296484 0.107812 0.000000
v -0.296484 -0.107812 -0.000000
v -0.296484 0.107812 0.071875
v -0.296484 -0.107812 0.071875
vt 0.0000 0.0000
vt 1.0000 0.0000
vt 1.0000 1.0000
vt 0.0000 1.0000
vt 0.0000 0.0000
vt 1.0000 0.0000
vt 1.0000 1.0000
vt 0.0000 1.0000
vt 0.0000 0.0000
vt 1.0000 0.0000
vt 0.0000 1.0000
vt 0.0000 0.0000
vt 1.0000 0.0000
vt 1.0000 1.0000
vt 0.0000 1.0000
vt 0.0000 0.0000
vt 1.0000 0.0000
vt 1.0000 1.0000
vt 0.0000 1.0000
vt 0.0000 0.0000
vt 1.0000 0.0000
vt 1.0000 1.0000
vt 0.0000 1.0000
vt 0.0000 0.0000
vt 1.0000 0.0000
vt 1.0000 1.0000
vt 1.0000 0.0000
vt 1.0000 1.0000
vt 0.0000 1.0000
vt 0.0000 0.0000
vt 1.0000 0.0000
vt 1.0000 1.0000
vt 0.0000 1.0000
vt 0.0000 0.0000
vt 1.0000 0.0000
vt 1.0000 1.0000
vt 0.0000 1.0000
vt 1.0000 1.0000
vt 0.0000 1.0000
vt 0.0000 0.0000
vt 1.0000 0.0000
vt 1.0000 1.0000
vt 1.0000 1.0000
vt 0.0000 1.0000
vt 0.0000 0.0000
vt 1.0000 0.0000
vt 1.0000 1.0000
vt 0.0000 1.0000
vt 0.0000 0.0000
vt 1.0000 0.0000
vt 0.0000 0.0000
vt 1.0000 0.0000
vt 1.0000 1.0000
vt 0.0000 1.0000
vt 0.0000 0.0000
vt 1.0000 0.0000
vt 1.0000 1.0000
vt 0.0000 1.0000
vt 0.0000 0.0000
vt 0.0000 1.0000
vn 0.0000 0.0000 1.0000
vn 1.0000 0.0000 0.0000
vn 0.0000 1.0000 0.0000
vn -1.0000 -0.0000 0.0000
vn 0.0000 -1.0000 0.0000
vn 0.0000 0.0000 -1.0000
usemtl m_0
s 1
f 8/1/1 2/2/1 1/3/1 7/4/1
f 10/5/2 12/6/2 11/7/2 9/8/2
f 15/9/3 9/10/3 11/7/3 13/11/3
f 2/12/2 4/13/2 3/14/2 1/15/2
f 6/16/4 8/17/4 7/18/4 5/19/4
f 22/20/4 24/21/4 23/22/4 21/23/4
f 14/24/4 16/25/4 15/26/4 13/11/4
f 22/20/5 20/27/5 18/28/5 24/29/5
f 12/30/6 14/31/6 13/32/6 11/33/6
f 16/34/1 10/35/1 9/36/1 15/37/1
f 6/16/5 4/13/5 2/38/5 8/39/5
f 23/40/3 17/41/3 19/42/3 21/23/3
f 14/24/5 12/6/5 10/43/5 16/44/5
f 24/45/1 18/46/1 17/47/1 23/48/1
f 7/49/3 1/50/3 3/14/3 5/19/3
f 20/51/6 22/52/6 21/53/6 19/54/6
f 4/55/6 6/56/6 5/57/6 3/58/6
f 18/59/2 20/27/2 19/42/2 17/60/2
