# Made in Blockbench 4.3.1
mtllib painting.mtl

o cube
v -0.449928 0.04531774999999999 -0.497725
v 0.449928 0.04531774999999999 -0.497725
v 0.449928 0.04531774999999999 -0.463983
v -0.449928 0.04531774999999999 -0.463983
v 0.449928 1.66505675 -0.463981
v -0.449928 1.66505675 -0.463981
v 0.449928 0.04531774999999999 -0.452733
v 0.494921 0.04531774999999999 -0.452733
v 0.494921 1.66505675 -0.452733
v 0.449928 1.66505675 -0.452733
v -0.494921 1.66505675 -0.497725
v 0.494921 1.66505675 -0.497725
v 0.494921 1.66505675 -0.452733
v -0.494921 1.66505675 -0.452733
v -0.494921 0.04531774999999999 -0.452733
v 0.494921 0.04531774999999999 -0.452733
v 0.494921 0.04531774999999999 -0.497725
v -0.494921 0.04531774999999999 -0.497725
v -0.494921 1.71004875 -0.452733
v 0.494921 1.71004875 -0.452733
v 0.494921 1.71004875 -0.497725
v -0.494921 1.71004875 -0.497725
v -0.449928 0.04531774999999999 -0.497725
v -0.494921 0.04531774999999999 -0.497725
v -0.494921 1.66505675 -0.497725
v -0.449928 1.66505675 -0.497725
v 0.449928 0.04531774999999999 -0.497725
v 0.449928 1.66505675 -0.497725
v 0.494921 0.0003247499999999848 -0.452733
v 0.494921 0.0003247499999999848 -0.497725
v -0.494921 0.0003247499999999848 -0.452733
v -0.449928 0.04531774999999999 -0.452733
v -0.449928 1.66505675 -0.452733
v -0.494921 1.66505675 -0.452733
v -0.494921 0.04531774999999999 -0.452733
v -0.494921 0.0003247499999999848 -0.497725
v 0.449928 1.66505675 -0.497725
v -0.449928 1.66505675 -0.497725
v 0.494921 0.04531774999999999 -0.497725
v 0.494921 1.66505675 -0.497725
vt 0.5312 0
vt 1 0
vt 1 0.75
vt 0.5312 0.75
vt 0.5312 0
vt 1 0
vt 1 0.75
vt 0.5312 0.75
vt 0.0078 0.9922
vt 0 0.9922
vt 0 0.7109
vt 0.0078 0.7109
vt 0 0.9922
vt 0.1719 0.9922
vt 0.1719 1
vt 0 1
vt 0.1719 0.9922
vt 0 0.9922
vt 0 1
vt 0.1719 1
vt 0 0.9922
vt 0.1719 0.9922
vt 0.1719 1
vt 0 1
vt 0 0.7109
vt 0.0078 0.7109
vt 0.0078 0.9922
vt 0 0.9922
vt 0.0078 0.9922
vt 0 0.9922
vt 0 0.7109
vt 0.0078 0.7109
vt 0.0078 0.9922
vt 0 0.9922
vt 0 1
vt 0.0078 1
vt 0.1719 0.9922
vt 0 0.9922
vt 0 1
vt 0.1719 1
vt 0 0.7109
vt 0.0078 0.7109
vt 0.0078 0.9922
vt 0 0.9922
vt 0 0.9844
vt 0.0078 0.9844
vt 0.0078 0.9922
vt 0 0.9922
vt 0 0.7109
vt 0.0078 0.7109
vt 0.0078 0.7188
vt 0 0.7188
vt 0.1719 0.9922
vt 0 0.9922
vt 0 1
vt 0.1719 1
vt 0.1641 0.9922
vt 0.1719 0.9922
vt 0.1719 1
vt 0.1641 1
vt 0 0.7109
vt 0.0078 0.7109
vt 0.0078 0.9922
vt 0 0.9922
vt 0 0.9922
vt 0.0078 0.9922
vt 0.0078 1
vt 0 1
vt 0.5312 0
vt 1 0
vt 1 0.75
vt 0.5312 0.75
vt 0.1719 0.9922
vt 0 0.9922
vt 0 1
vt 0.1719 1
vt 0.5312 0
vt 1 0
vt 1 0.75
vt 0.5312 0.75
vt 0.5312 0
vt 1 0
vt 1 0.75
vt 0.5312 0.75
vt 0 0.9922
vt 0.1719 0.9922
vt 0.1719 1
vt 0 1
vt 0.0078 0.6172
vt 0.2422 0.6172
vt 0.2422 0.9922
vt 0.0078 0.9922
vt 0 0.7109
vt 0.0078 0.7109
vt 0.0078 0.9922
vt 0 0.9922
vt 0.0078 0.9922
vt 0 0.9922
vt 0 0.7109
vt 0.0078 0.7109
vt 0 0.9922
vt 0.1719 0.9922
vt 0.1719 1
vt 0 1
vt 0.0078 0.9922
vt 0 0.9922
vt 0 0.9844
vt 0.0078 0.9844
vt 0.0078 0.7188
vt 0 0.7188
vt 0 0.7109
vt 0.0078 0.7109
vt 0.1719 0.9922
vt 0.1641 0.9922
vt 0.1641 1
vt 0.1719 1
vt 0.0078 0.9922
vt 0 0.9922
vt 0 0.7109
vt 0.0078 0.7109
vn 0 -1 0
vn 0 -0.0000012347668358917551 0.9999999999992377
vn 0 0 1
vn 0 -1 0
vn 0 1 0
vn 0 1 0
vn 0 0 -1
vn -1 0 0
vn 1 0 0
vn 0 0 1
vn 1 0 0
vn 0 1 0
vn 0 -1 0
vn 0 -1 0
vn 1 0 0
vn -1 0 0
vn -1 0 0
vn 0 1 0
vn 0 0 -1
vn -1 0 0
vn 1 0 0
vn 0 0 -1
vn 0 0 -1
vn 0 0 1
vn 1 0 0
vn 0 0 1
vn 0 -1 0
vn 0 1 0
vn -1 0 0
vn 0 0 -1
usemtl m_0
f 1/1/1 2/2/1 3/3/1 4/4/1
f 4/5/2 3/6/2 5/7/2 6/8/2
f 7/9/3 8/10/3 9/11/3 10/12/3
f 11/13/4 12/14/4 13/15/4 14/16/4
f 15/17/5 16/18/5 17/19/5 18/20/5
f 19/21/6 20/22/6 21/23/6 22/24/6
f 23/25/7 24/26/7 25/27/7 26/28/7
f 27/29/8 7/30/8 10/31/8 28/32/8
f 29/33/9 30/34/9 17/35/9 16/36/9
f 31/37/10 29/38/10 16/39/10 15/40/10
f 32/41/11 23/42/11 26/43/11 33/44/11
f 34/45/12 33/46/12 26/47/12 25/48/12
f 24/49/13 23/50/13 32/51/13 35/52/13
f 36/53/14 30/54/14 29/55/14 31/56/14
f 13/57/15 12/58/15 21/59/15 20/60/15
f 24/61/16 35/62/16 34/63/16 25/64/16
f 11/65/17 14/66/17 19/67/17 22/68/17
f 6/69/18 5/70/18 37/71/18 38/72/18
f 12/73/19 11/74/19 22/75/19 21/76/19
f 1/77/20 4/78/20 6/79/20 38/80/20
f 3/81/21 2/82/21 37/83/21 5/84/21
f 30/85/22 36/86/22 18/87/22 17/88/22
f 2/89/23 1/90/23 38/91/23 37/92/23
f 35/93/24 32/94/24 33/95/24 34/96/24
f 8/97/25 39/98/25 40/99/25 9/100/25
f 14/101/26 13/102/26 20/103/26 19/104/26
f 27/105/27 39/106/27 8/107/27 7/108/27
f 10/109/28 9/110/28 40/111/28 28/112/28
f 36/113/29 31/114/29 15/115/29 18/116/29
f 39/117/30 27/118/30 28/119/30 40/120/30