# Blender v2.78 (sub 0) OBJ File: ''
# www.blender.org
mtllib paperclipstack.mtl
o Cube.006
v 1.500000 -0.000000 0.500000
v 1.500000 1.000000 0.500000
v 1.500000 1.000000 1.500000
v 1.500000 -0.000000 1.500000
v 0.500000 1.000000 1.500000
v 0.500000 -0.000000 1.500000
v 0.500000 -0.000000 0.500000
v -1.500000 2.000000 1.500000
v -1.500000 3.000000 1.500000
v -1.500000 3.000000 0.500000
v -1.500000 2.000000 0.500000
v -0.500000 2.000000 1.500000
v -0.500000 3.000000 1.500000
v -0.500000 3.000000 0.500000
v -1.500000 2.000000 1.500000
v -1.500000 2.000000 0.500000
v -1.500000 1.000000 0.500000
v -1.500000 1.000000 1.500000
v -0.500000 1.000000 1.500000
v -0.500000 2.000000 1.500000
v -1.500000 1.000000 -0.500000
v -1.500000 0.000000 -0.500000
v -1.500000 -0.000000 0.500000
v -1.500000 1.000000 0.500000
v -0.500000 -0.000000 0.500000
v -0.500000 0.000000 -0.500000
v -1.500000 0.000000 -0.500000
v -1.500000 1.000000 -0.500000
v -1.500000 1.000000 -1.500000
v -1.500000 0.000000 -1.500000
v -0.500000 1.000000 -1.500000
v -0.500000 0.000000 -1.500000
v -0.500000 0.000000 -0.500000
v 0.500000 1.000000 -1.500000
v 0.500000 0.000000 -1.500000
v -0.500000 0.000000 -1.500000
v -0.500000 1.000000 -1.500000
v 0.500000 0.000000 -0.500000
v -0.500000 0.000000 -0.500000
v -0.500000 3.000000 1.500000
v -0.500000 2.000000 1.500000
v 0.500000 2.000000 1.500000
v 0.500000 3.000000 1.500000
v 0.500000 3.000000 0.500000
v -0.500000 3.000000 0.500000
vt -5.0670 1.5043
vt -0.5043 -5.0670
vt 6.0670 -0.5043
vt 1.5043 6.0670
vt -5.0670 1.5043
vt -0.5043 -5.0670
vt 6.0670 -0.5043
vt 1.5043 6.0670
vt -5.0670 1.5043
vt -0.5043 -5.0670
vt 6.0670 -0.5043
vt -5.0670 1.5043
vt -0.5043 -5.0670
vt 6.0670 -0.5043
vt 1.5043 6.0670
vt -5.0670 1.5043
vt -0.5043 -5.0670
vt 6.0670 -0.5043
vt 1.5043 6.0670
vt -5.0670 1.5043
vt -0.5043 -5.0670
vt 1.5043 6.0670
vt -5.0670 1.5043
vt -0.5043 -5.0670
vt 6.0670 -0.5043
vt 1.5043 6.0670
vt -5.0670 1.5043
vt -0.5043 -5.0670
vt 6.0670 -0.5043
vt 1.5043 6.0670
vt -5.0670 1.5043
vt -0.5043 -5.0670
vt 6.0670 -0.5043
vt 1.5043 6.0670
vt -5.0670 1.5043
vt -0.5043 -5.0670
vt 6.0670 -0.5043
vt 1.5043 6.0670
vt -5.0670 1.5043
vt -0.5043 -5.0670
vt 6.0670 -0.5043
vt 1.5043 6.0670
vt -5.0670 1.5043
vt -0.5043 -5.0670
vt 6.0670 -0.5043
vt 1.5043 6.0670
vt -0.5043 -5.0670
vt 6.0670 -0.5043
vt 1.5043 6.0670
vt -5.0670 1.5043
vt -0.5043 -5.0670
vt 6.0670 -0.5043
vt 1.5043 6.0670
vt -5.0670 1.5043
vt -0.5043 -5.0670
vt 1.5043 6.0670
vt -5.0670 1.5043
vt -0.5043 -5.0670
vt 6.0670 -0.5043
vt 1.5043 6.0670
vt -0.5043 -5.0670
vt 6.0670 -0.5043
vt 1.5043 6.0670
vn 1.0000 0.0000 0.0000
vn 0.0000 0.0000 1.0000
vn 0.0000 -1.0000 -0.0000
vn -1.0000 -0.0000 0.0000
vn 0.0000 1.0000 0.0000
vn 0.0000 0.0000 -1.0000
usemtl m_0
s 1
f 1/1/1 2/2/1 3/3/1 4/4/1
f 4/5/2 3/6/2 5/7/2 6/8/2
f 7/9/3 1/10/3 4/11/3 6/8/3
f 8/12/4 9/13/4 10/14/4 11/15/4
f 12/16/2 13/17/2 9/18/2 8/19/2
f 14/20/5 10/21/5 9/18/5 13/22/5
f 15/23/4 16/24/4 17/25/4 18/26/4
f 18/27/2 19/28/2 20/29/2 15/30/2
f 21/31/4 22/32/4 23/33/4 24/34/4
f 25/35/3 23/36/3 22/37/3 26/38/3
f 27/39/4 28/40/4 29/41/4 30/42/4
f 30/43/6 29/44/6 31/45/6 32/46/6
f 30/43/3 32/47/3 33/48/3 27/49/3
f 34/50/6 35/51/6 36/52/6 37/53/6
f 38/54/3 39/55/3 36/52/3 35/56/3
f 40/57/2 41/58/2 42/59/2 43/60/2
f 40/57/5 43/61/5 44/62/5 45/63/5
o Cube.004
v 1.500000 2.000000 -1.500000
v 1.500000 2.000000 -0.500000
v 1.500000 1.000000 -0.500000
v 1.500000 1.000000 -1.500000
v 0.500000 2.000000 -1.500000
v 0.500000 1.000000 -1.500000
v 1.500000 3.000000 0.500000
v 1.500000 2.000000 0.500000
v 1.500000 2.000000 -0.500000
v 1.500000 3.000000 -0.500000
v 0.500000 3.000000 0.500000
v 0.500000 3.000000 -0.500000
v 0.500000 2.000000 -1.500000
v 0.500000 3.000000 -1.500000
v 1.500000 3.000000 -1.500000
v 1.500000 2.000000 -1.500000
v 1.500000 3.000000 -0.500000
v 1.500000 2.000000 -0.500000
v 0.500000 3.000000 -0.500000
v -1.500000 1.000000 0.500000
v -1.500000 2.000000 0.500000
v -1.500000 2.000000 -0.500000
v -1.500000 1.000000 -0.500000
v -0.500000 1.000000 -1.500000
v -0.500000 2.000000 -1.500000
v 0.500000 2.000000 -1.500000
v 0.500000 1.000000 -1.500000
v -0.500000 0.000000 -0.500000
v 0.500000 0.000000 -0.500000
v 0.500000 -0.000000 0.500000
v -0.500000 -0.000000 0.500000
vt -5.0670 1.5043
vt -0.5043 -5.0670
vt 6.0670 -0.5043
vt 1.5043 6.0670
vt -5.0670 1.5043
vt -0.5043 -5.0670
vt 6.0670 -0.5043
vt 1.5043 6.0670
vt -5.0670 1.5043
vt -0.5043 -5.0670
vt 6.0670 -0.5043
vt 1.5043 6.0670
vt -5.0670 1.5043
vt -0.5043 -5.0670
vt 6.0670 -0.5043
vt 1.5043 6.0670
vt -5.0670 1.5043
vt -0.5043 -5.0670
vt 6.0670 -0.5043
vt 1.5043 6.0670
vt -5.0670 1.5043
vt -0.5043 -5.0670
vt 6.0670 -0.5043
vt 1.5043 6.0670
vt -5.0670 1.5043
vt 6.0670 -0.5043
vt 1.5043 6.0670
vt -5.0670 1.5043
vt -0.5043 -5.0670
vt 6.0670 -0.5043
vt 1.5043 6.0670
vt -5.0670 1.5043
vt -0.5043 -5.0670
vt 6.0670 -0.5043
vt 1.5043 6.0670
vt -5.0670 1.5043
vt -0.5043 -5.0670
vt 6.0670 -0.5043
vt 1.5043 6.0670
vn 1.0000 -0.0000 0.0000
vn 0.0000 0.0000 -1.0000
vn 0.0000 1.0000 0.0000
vn -1.0000 -0.0000 0.0000
vn 0.0000 -1.0000 -0.0000
usemtl m_0
s 1
f 46/64/7 47/65/7 48/66/7 49/67/7
f 50/68/8 46/69/8 49/70/8 51/71/8
f 52/72/7 53/73/7 54/74/7 55/75/7
f 56/76/9 52/77/9 55/78/9 57/79/9
f 58/80/8 59/81/8 60/82/8 61/83/8
f 61/84/7 60/85/7 62/86/7 63/87/7
f 60/88/9 59/81/9 64/89/9 62/90/9
f 65/91/10 66/92/10 67/93/10 68/94/10
f 69/95/8 70/96/8 71/97/8 72/98/8
f 73/99/11 74/100/11 75/101/11 76/102/11
o Cube.003
v 1.500000 1.000000 -0.500000
v 1.500000 2.000000 -0.500000
v 1.500000 2.000000 0.500000
v 1.500000 1.000000 0.500000
vt -5.0670 1.5043
vt -0.5043 -5.0670
vt 6.0670 -0.5043
vt 1.5043 6.0670
vn 1.0000 -0.0000 0.0000
usemtl m_0
s 1
f 77/103/12 78/104/12 79/105/12 80/106/12
o Cube.007
v -1.500000 -0.000000 1.500000
v -1.500000 1.000000 1.500000
v -1.500000 1.000000 0.500000
v -1.500000 -0.000000 0.500000
v -0.500000 -0.000000 1.500000
v -0.500000 1.000000 1.500000
v -0.500000 -0.000000 0.500000
v -0.500000 1.000000 1.500000
v -0.500000 -0.000000 1.500000
v 0.500000 -0.000000 1.500000
v 0.500000 1.000000 1.500000
v -0.500000 -0.000000 0.500000
v 0.500000 -0.000000 0.500000
vt -5.0670 1.5043
vt -0.5043 -5.0670
vt 6.0670 -0.5043
vt 1.5043 6.0670
vt -5.0670 1.5043
vt -0.5043 -5.0670
vt 6.0670 -0.5043
vt 1.5043 6.0670
vt -5.0670 1.5043
vt -0.5043 -5.0670
vt 6.0670 -0.5043
vt -5.0670 1.5043
vt -0.5043 -5.0670
vt 6.0670 -0.5043
vt 1.5043 6.0670
vt -5.0670 1.5043
vt 6.0670 -0.5043
vt 1.5043 6.0670
vn -1.0000 0.0000 0.0000
vn 0.0000 0.0000 1.0000
vn 0.0000 -1.0000 -0.0000
usemtl m_0
s 1
f 81/107/13 82/108/13 83/109/13 84/110/13
f 85/111/14 86/112/14 82/113/14 81/114/14
f 84/115/15 87/116/15 85/117/15 81/114/15
f 88/118/14 89/119/14 90/120/14 91/121/14
f 90/122/15 89/119/15 92/123/15 93/124/15
o Cube.005
v 1.500000 1.000000 1.500000
v 1.500000 1.000000 0.500000
v 1.500000 2.000000 0.500000
v 1.500000 2.000000 1.500000
v 0.500000 1.000000 1.500000
v 0.500000 2.000000 1.500000
v 1.500000 1.000000 0.500000
v 1.500000 -0.000000 0.500000
v 1.500000 0.000000 -0.500000
v 1.500000 1.000000 -0.500000
v 0.500000 -0.000000 0.500000
v 0.500000 0.000000 -0.500000
v 1.500000 2.000000 0.500000
v 1.500000 3.000000 0.500000
v 1.500000 3.000000 1.500000
v 1.500000 2.000000 1.500000
v 0.500000 3.000000 1.500000
v 0.500000 2.000000 1.500000
v 0.500000 3.000000 0.500000
v 0.500000 0.000000 -1.500000
v 0.500000 1.000000 -1.500000
v 1.500000 1.000000 -1.500000
v 1.500000 0.000000 -1.500000
v 1.500000 1.000000 -0.500000
v 1.500000 0.000000 -0.500000
v 0.500000 0.000000 -0.500000
v -1.500000 2.000000 -0.500000
v -1.500000 3.000000 -0.500000
v -1.500000 3.000000 -1.500000
v -1.500000 2.000000 -1.500000
v -0.500000 3.000000 -1.500000
v -0.500000 2.000000 -1.500000
v -0.500000 3.000000 -0.500000
v -1.500000 3.000000 -0.500000
v -1.500000 2.000000 -0.500000
v -1.500000 2.000000 0.500000
v -1.500000 3.000000 0.500000
v -0.500000 3.000000 0.500000
v -0.500000 3.000000 -0.500000
v -1.500000 1.000000 -1.500000
v -1.500000 1.000000 -0.500000
v -1.500000 2.000000 -0.500000
v -1.500000 2.000000 -1.500000
v -0.500000 2.000000 -1.500000
v -0.500000 1.000000 -1.500000
v 0.500000 3.000000 -1.500000
v 0.500000 2.000000 -1.500000
v -0.500000 2.000000 -1.500000
v -0.500000 3.000000 -1.500000
v -0.500000 3.000000 -0.500000
v 0.500000 3.000000 -0.500000
v 0.500000 1.000000 1.500000
v 0.500000 2.000000 1.500000
v -0.500000 2.000000 1.500000
v -0.500000 1.000000 1.500000
v 0.500000 3.000000 -0.500000
v -0.500000 3.000000 -0.500000
v -0.500000 3.000000 0.500000
v 0.500000 3.000000 0.500000
vt -5.0670 1.5043
vt -0.5043 -5.0670
vt 6.0670 -0.5043
vt 1.5043 6.0670
vt -5.0670 1.5043
vt -0.5043 -5.0670
vt 6.0670 -0.5043
vt 1.5043 6.0670
vt -5.0670 1.5043
vt -0.5043 -5.0670
vt 6.0670 -0.5043
vt 1.5043 6.0670
vt -5.0670 1.5043
vt -0.5043 -5.0670
vt 6.0670 -0.5043
vt 1.5043 6.0670
vt -5.0670 1.5043
vt -0.5043 -5.0670
vt 6.0670 -0.5043
vt 1.5043 6.0670
vt -5.0670 1.5043
vt -0.5043 -5.0670
vt 6.0670 -0.5043
vt 1.5043 6.0670
vt -5.0670 1.5043
vt -0.5043 -5.0670
vt 1.5043 6.0670
vt -5.0670 1.5043
vt -0.5043 -5.0670
vt 6.0670 -0.5043
vt 1.5043 6.0670
vt -5.0670 1.5043
vt -0.5043 -5.0670
vt 6.0670 -0.5043
vt 1.5043 6.0670
vt -0.5043 -5.0670
vt 6.0670 -0.5043
vt 1.5043 6.0670
vt -5.0670 1.5043
vt -0.5043 -5.0670
vt 6.0670 -0.5043
vt 1.5043 6.0670
vt -5.0670 1.5043
vt -0.5043 -5.0670
vt 6.0670 -0.5043
vt 1.5043 6.0670
vt -5.0670 1.5043
vt 6.0670 -0.5043
vt 1.5043 6.0670
vt -5.0670 1.5043
vt -0.5043 -5.0670
vt 6.0670 -0.5043
vt 1.5043 6.0670
vt -5.0670 1.5043
vt -0.5043 -5.0670
vt 6.0670 -0.5043
vt 1.5043 6.0670
vt -5.0670 1.5043
vt -0.5043 -5.0670
vt 6.0670 -0.5043
vt 1.5043 6.0670
vt -5.0670 1.5043
vt -0.5043 -5.0670
vt 6.0670 -0.5043
vt 1.5043 6.0670
vt -5.0670 1.5043
vt -0.5043 -5.0670
vt 6.0670 -0.5043
vt 1.5043 6.0670
vt -5.0670 1.5043
vt -0.5043 -5.0670
vt 6.0670 -0.5043
vt -5.0670 1.5043
vt -0.5043 -5.0670
vt 6.0670 -0.5043
vt 1.5043 6.0670
vt -5.0670 1.5043
vt -0.5043 -5.0670
vt 6.0670 -0.5043
vt 1.5043 6.0670
vn 1.0000 0.0000 0.0000
vn 0.0000 -0.0000 1.0000
vn 0.0000 -1.0000 -0.0000
vn 0.0000 1.0000 0.0000
vn 0.0000 0.0000 -1.0000
vn -1.0000 0.0000 0.0000
usemtl m_0
s 1
f 94/125/16 95/126/16 96/127/16 97/128/16
f 98/129/17 94/130/17 97/131/17 99/132/17
f 100/133/16 101/134/16 102/135/16 103/136/16
f 101/137/18 104/138/18 105/139/18 102/140/18
f 106/141/16 107/142/16 108/143/16 109/144/16
f 109/145/17 108/146/17 110/147/17 111/148/17
f 107/149/19 112/150/19 110/147/19 108/151/19
f 113/152/20 114/153/20 115/154/20 116/155/20
f 116/156/16 115/157/16 117/158/16 118/159/16
f 113/152/18 116/160/18 118/161/18 119/162/18
f 120/163/21 121/164/21 122/165/21 123/166/21
f 123/167/20 122/168/20 124/169/20 125/170/20
f 124/171/19 122/168/19 121/172/19 126/173/19
f 127/174/21 128/175/21 129/176/21 130/177/21
f 130/178/19 131/179/19 132/180/19 127/181/19
f 133/182/21 134/183/21 135/184/21 136/185/21
f 136/186/20 137/187/20 138/188/20 133/189/20
f 139/190/20 140/191/20 141/192/20 142/193/20
f 143/194/19 144/195/19 139/196/19 142/193/19
f 145/197/17 146/198/17 147/199/17 148/200/17
f 149/201/19 150/202/19 151/203/19 152/204/19
