# Blender v2.78 (sub 0) OBJ File: ''
# www.blender.org
mtllib rip.mtl
o star
v 0.343297 0.001953 -0.216378
v 0.343297 -0.000000 -0.216378
v 0.389128 0.001953 -0.332673
v 0.389128 0.000000 -0.332673
v 0.272832 0.001953 -0.378504
v 0.272832 0.000000 -0.378504
v 0.227002 0.001953 -0.262209
v 0.227002 -0.000000 -0.262209
vt 0.3906 0.4062
vt 0.3906 0.3906
vt 0.4219 0.4062
vt 0.4219 0.3906
vt 0.3906 0.3906
vt 0.3906 0.3750
vt 0.4219 0.3906
vt 0.4219 0.3750
vt 0.3906 0.4062
vt 0.3906 0.3750
vt 0.4219 0.3750
vt 0.4219 0.4062
vt 0.4219 0.3750
vt 0.3906 0.4062
vt 0.3906 0.3750
vt 0.4062 0.3750
vt 0.4062 0.4062
vt 0.3906 0.3750
vt 0.4062 0.3750
vt 0.4062 0.4062
vn 0.9304 0.0000 0.3666
vn -0.9304 0.0000 -0.3666
vn -0.0000 1.0000 0.0000
vn 0.0000 -1.0000 -0.0000
vn -0.3666 0.0000 0.9304
vn 0.3666 0.0000 -0.9304
usemtl m_0.001
s 1
f 1/1/1 2/2/1 3/3/1
f 2/2/1 4/4/1 3/3/1
f 5/5/2 6/6/2 7/7/2
f 6/6/2 8/8/2 7/7/2
f 5/9/3 7/10/3 3/3/3
f 7/10/3 1/11/3 3/3/3
f 8/12/4 6/13/4 2/14/4
f 6/13/4 4/15/4 2/14/4
f 7/10/5 8/16/5 1/1/5
f 8/16/5 2/17/5 1/1/5
f 3/18/6 4/19/6 5/9/6
f 4/19/6 6/20/6 5/9/6
o hat
v 0.170724 0.187500 0.310190
v 0.170724 -0.000000 0.310190
v 0.079339 0.187500 -0.181388
v 0.079339 0.000000 -0.181388
v -0.412239 0.187500 -0.090003
v -0.412239 0.000000 -0.090003
v -0.320854 0.187500 0.401575
v -0.320854 -0.000000 0.401575
v 0.129363 0.062500 -0.254259
v 0.129363 0.000000 -0.254259
v 0.067916 0.062500 -0.242835
v 0.067916 0.000000 -0.242835
v 0.182147 0.062500 0.371637
v 0.182147 -0.000000 0.371637
v 0.243594 0.062500 0.360214
v 0.243594 -0.000000 0.360214
v -0.485109 0.062500 -0.140027
v -0.485109 0.000000 -0.140028
v -0.473686 0.062500 -0.078580
v -0.473686 0.000000 -0.078580
v 0.140786 0.062500 -0.192811
v 0.140786 0.000000 -0.192811
v 0.129363 0.062500 -0.254259
v 0.129363 0.000000 -0.254259
v -0.370878 0.062500 0.474445
v -0.370878 -0.000000 0.474445
v -0.309431 0.062500 0.463022
v -0.309431 -0.000000 0.463022
v -0.423662 0.062500 -0.151451
v -0.423662 0.000000 -0.151451
v -0.485109 0.062500 -0.140027
v -0.485109 0.000000 -0.140028
v 0.243594 0.062500 0.360214
v 0.243594 -0.000000 0.360214
v 0.232171 0.062500 0.298767
v 0.232171 -0.000000 0.298767
v -0.382301 0.062500 0.412998
v -0.382301 -0.000000 0.412998
v -0.370878 0.062500 0.474445
v -0.370878 -0.000000 0.474445
vt 0.1250 0.8750
vt 0.1250 0.8281
vt 0.2500 0.8750
vt 0.2500 0.8281
vt 0.1250 0.8750
vt 0.1250 0.8281
vt 0.2500 0.8750
vt 0.2500 0.8281
vt 0.1250 1.0000
vt 0.1250 0.8750
vt 0.2500 1.0000
vt 0.2500 0.8750
vt 0.1250 1.0000
vt 0.1250 0.8750
vt 0.2500 1.0000
vt 0.2500 0.8750
vt 0.1250 0.8281
vt 0.2500 0.8281
vt 0.1250 0.8750
vt 0.1250 0.8281
vt 0.2500 0.8750
vt 0.2500 0.8281
vt 0.5000 0.8438
vt 0.5000 0.8281
vt 0.5156 0.8438
vt 0.5156 0.8281
vt 0.5000 0.8438
vt 0.5000 0.8281
vt 0.5156 0.8438
vt 0.5156 0.8281
vt 0.5000 0.8281
vt 0.6250 0.8438
vt 0.6250 0.8281
vt 0.5000 0.8438
vt 0.6250 0.8438
vt 0.6250 0.8281
vt 0.5000 0.8438
vt 0.5000 0.8281
vt 0.6250 0.8438
vt 0.6250 0.8281
vt 0.5000 0.8438
vt 0.5000 0.8281
vt 0.6250 0.8438
vt 0.6250 0.8281
vt 0.5000 0.8438
vt 0.5000 0.8281
vt 0.5156 0.8438
vt 0.5156 0.8281
vt 0.5000 0.8438
vt 0.5000 0.8281
vt 0.5156 0.8438
vt 0.5156 0.8281
vt 0.5000 0.8281
vt 0.6250 0.8438
vt 0.6250 0.8281
vt 0.5000 0.8438
vt 0.6250 0.8438
vt 0.6250 0.8281
vt 0.5000 0.8438
vt 0.5000 0.8281
vt 0.6250 0.8438
vt 0.6250 0.8281
vt 0.5000 0.8438
vt 0.5000 0.8281
vt 0.6250 0.8438
vt 0.6250 0.8281
vt 0.5000 0.8438
vt 0.5000 0.8281
vt 0.5156 0.8438
vt 0.5156 0.8281
vt 0.5000 0.8438
vt 0.5000 0.8281
vt 0.5156 0.8438
vt 0.5156 0.8281
vt 0.5000 0.8281
vt 0.6250 0.8438
vt 0.6250 0.8281
vt 0.5000 0.8438
vt 0.6250 0.8438
vt 0.6250 0.8281
vt 0.5000 0.8438
vt 0.5000 0.8281
vt 0.6250 0.8438
vt 0.6250 0.8281
vt 0.5000 0.8438
vt 0.5000 0.8281
vt 0.6250 0.8438
vt 0.6250 0.8281
vt 0.5000 0.8438
vt 0.5000 0.8281
vt 0.5156 0.8438
vt 0.5156 0.8281
vt 0.5000 0.8438
vt 0.5000 0.8281
vt 0.5156 0.8438
vt 0.5156 0.8281
vt 0.5000 0.8281
vt 0.6250 0.8438
vt 0.6250 0.8281
vt 0.5000 0.8438
vt 0.6250 0.8438
vt 0.6250 0.8281
vt 0.5000 0.8438
vt 0.5000 0.8281
vt 0.6250 0.8438
vt 0.6250 0.8281
vt 0.5000 0.8438
vt 0.5000 0.8281
vt 0.6250 0.8438
vt 0.6250 0.8281
vn 0.9832 0.0000 -0.1828
vn -0.9832 0.0000 0.1828
vn 0.0000 1.0000 0.0000
vn -0.0000 -1.0000 -0.0000
vn 0.1828 -0.0000 0.9832
vn -0.1828 0.0000 -0.9832
usemtl m_0
s 1
f 9/21/7 10/22/7 11/23/7
f 10/22/7 12/24/7 11/23/7
f 13/25/8 14/26/8 15/27/8
f 14/26/8 16/28/8 15/27/8
f 13/29/9 15/30/9 11/31/9
f 15/30/9 9/32/9 11/31/9
f 16/33/10 14/34/10 10/35/10
f 14/34/10 12/36/10 10/35/10
f 15/30/11 16/37/11 9/32/11
f 16/37/11 10/38/11 9/32/11
f 11/39/12 12/40/12 13/41/12
f 12/40/12 14/42/12 13/41/12
f 17/43/12 18/44/12 19/45/12
f 18/44/12 20/46/12 19/45/12
f 21/47/11 22/48/11 23/49/11
f 22/48/11 24/50/11 23/49/11
f 21/47/9 23/51/9 19/52/9
f 23/51/9 17/53/9 19/52/9
f 24/54/10 22/48/10 18/55/10
f 22/48/10 20/56/10 18/55/10
f 23/57/7 24/58/7 17/59/7
f 24/58/7 18/60/7 17/59/7
f 19/61/8 20/62/8 21/63/8
f 20/62/8 22/64/8 21/63/8
f 25/65/8 26/66/8 27/67/8
f 26/66/8 28/68/8 27/67/8
f 29/69/7 30/70/7 31/71/7
f 30/70/7 32/72/7 31/71/7
f 29/69/9 31/73/9 27/74/9
f 31/73/9 25/75/9 27/74/9
f 32/76/10 30/70/10 26/77/10
f 30/70/10 28/78/10 26/77/10
f 31/79/12 32/80/12 25/81/12
f 32/80/12 26/82/12 25/81/12
f 27/83/11 28/84/11 29/85/11
f 28/84/11 30/86/11 29/85/11
f 33/87/11 34/88/11 35/89/11
f 34/88/11 36/90/11 35/89/11
f 37/91/12 38/92/12 39/93/12
f 38/92/12 40/94/12 39/93/12
f 37/91/9 39/95/9 35/96/9
f 39/95/9 33/97/9 35/96/9
f 40/98/10 38/92/10 34/99/10
f 38/92/10 36/100/10 34/99/10
f 39/101/8 40/102/8 33/103/8
f 40/102/8 34/104/8 33/103/8
f 35/105/7 36/106/7 37/107/7
f 36/106/7 38/108/7 37/107/7
f 41/109/7 42/110/7 43/111/7
f 42/110/7 44/112/7 43/111/7
f 45/113/8 46/114/8 47/115/8
f 46/114/8 48/116/8 47/115/8
f 45/113/9 47/117/9 43/118/9
f 47/117/9 41/119/9 43/118/9
f 48/120/10 46/114/10 42/121/10
f 46/114/10 44/122/10 42/121/10
f 47/123/11 48/124/11 41/125/11
f 48/124/11 42/126/11 41/125/11
f 43/127/12 44/128/12 45/129/12
f 44/128/12 46/130/12 45/129/12
