# Blender v2.78 (sub 0) OBJ File: ''
# www.blender.org
mtllib robotpdupose1.mtl
o 1
v -0.017500 -0.012500 0.112500
v 0.207500 -0.012500 0.112500
v 0.207500 0.612500 0.112500
v -0.017500 0.612500 0.112500
v -0.017500 -0.012500 -0.112500
v -0.017500 0.612500 -0.112500
v 0.207500 -0.012500 -0.112500
v 0.207500 0.612500 -0.112500
v 0.200000 0.895127 0.466934
v 0.400000 0.895127 0.466934
v 0.400000 1.239273 -0.024558
v 0.200000 1.239273 -0.024558
v 0.200000 0.731297 0.352218
v 0.200000 1.075442 -0.139273
v 0.400000 0.731297 0.352218
v 0.400000 1.075442 -0.139273
v -0.225000 1.136309 0.217241
v 0.225000 1.136309 0.217241
v 0.225000 1.579473 0.295382
v -0.225000 1.579473 0.295382
v -0.225000 1.214450 -0.225923
v -0.225000 1.657614 -0.147782
v 0.225000 1.214450 -0.225923
v 0.225000 1.657614 -0.147782
v -0.200000 0.600000 0.100000
v 0.200000 0.600000 0.100000
v 0.200000 1.200000 0.100000
v -0.200000 1.200000 0.100000
v -0.200000 0.600000 -0.100000
v -0.200000 1.200000 -0.100000
v 0.200000 0.600000 -0.100000
v 0.200000 1.200000 -0.100000
v -0.400000 0.895127 0.466934
v -0.200000 0.895127 0.466934
v -0.200000 1.239273 -0.024558
v -0.400000 1.239273 -0.024558
v -0.400000 0.731297 0.352218
v -0.400000 1.075442 -0.139273
v -0.200000 0.731297 0.352218
v -0.200000 1.075442 -0.139273
v -0.195000 -0.000000 0.100000
v 0.005000 -0.000000 0.100000
v 0.005000 0.600000 0.100000
v -0.195000 0.600000 0.100000
v -0.195000 0.000000 -0.100000
v -0.195000 0.600000 -0.100000
v 0.005000 0.000000 -0.100000
v 0.005000 0.600000 -0.100000
v -0.005000 -0.000000 0.100000
v 0.195000 -0.000000 0.100000
v 0.195000 0.600000 0.100000
v -0.005000 0.600000 0.100000
v -0.005000 0.000000 -0.100000
v -0.005000 0.600000 -0.100000
v 0.195000 0.000000 -0.100000
v 0.195000 0.600000 -0.100000
v -0.412500 0.898197 0.484342
v -0.187500 0.898197 0.484342
v -0.187500 1.256682 -0.027627
v -0.412500 1.256682 -0.027627
v -0.412500 0.713887 0.355288
v -0.412500 1.072373 -0.156682
v -0.187500 0.713887 0.355288
v -0.187500 1.072373 -0.156682
v -0.207500 -0.012500 0.112500
v 0.017500 -0.012500 0.112500
v 0.017500 0.612500 0.112500
v -0.207500 0.612500 0.112500
v -0.207500 -0.012500 -0.112500
v -0.207500 0.612500 -0.112500
v 0.017500 -0.012500 -0.112500
v 0.017500 0.612500 -0.112500
v -0.200000 1.165270 0.196962
v 0.200000 1.165270 0.196962
v 0.200000 1.559194 0.266421
v -0.200000 1.559194 0.266421
v -0.200000 1.234730 -0.196962
v -0.200000 1.628653 -0.127502
v 0.200000 1.234730 -0.196962
v 0.200000 1.628653 -0.127502
v -0.212500 0.587500 0.112500
v 0.212500 0.587500 0.112500
v 0.212500 1.212500 0.112500
v -0.212500 1.212500 0.112500
v -0.212500 0.587500 -0.112500
v -0.212500 1.212500 -0.112500
v 0.212500 0.587500 -0.112500
v 0.212500 1.212500 -0.112500
v 0.187500 0.898197 0.484342
v 0.412500 0.898197 0.484342
v 0.412500 1.256682 -0.027627
v 0.187500 1.256682 -0.027627
v 0.187500 0.713887 0.355288
v 0.187500 1.072373 -0.156682
v 0.412500 0.713887 0.355288
v 0.412500 1.072373 -0.156682
vt 0.0625 0.0000
vt 0.1250 0.0000
vt 0.1250 0.1875
vt 0.0625 0.1875
vt 0.0000 0.0000
vt 0.0000 0.1875
vt 0.1875 0.0000
vt 0.2500 0.0000
vt 0.2500 0.1875
vt 0.1875 0.1875
vt 0.1250 0.2500
vt 0.0625 0.2500
vt 0.1875 0.1875
vt 0.1250 0.1875
vt 0.1250 0.2500
vt 0.1875 0.2500
vt 0.5625 0.0000
vt 0.6250 0.0000
vt 0.6250 0.1875
vt 0.5625 0.1875
vt 0.5000 0.0000
vt 0.5000 0.1875
vt 0.6875 0.0000
vt 0.7500 0.0000
vt 0.7500 0.1875
vt 0.6875 0.1875
vt 0.6250 0.2500
vt 0.5625 0.2500
vt 0.6875 0.1875
vt 0.6250 0.1875
vt 0.6250 0.2500
vt 0.6875 0.2500
vt 0.6250 0.7500
vt 0.7500 0.7500
vt 0.7500 0.8750
vt 0.6250 0.8750
vt 0.5000 0.7500
vt 0.5000 0.8750
vt 0.8750 0.7500
vt 1.0000 0.7500
vt 1.0000 0.8750
vt 0.8750 0.8750
vt 0.7500 1.0000
vt 0.6250 1.0000
vt 0.8750 0.8750
vt 0.7500 0.8750
vt 0.7500 1.0000
vt 0.8750 1.0000
vt 0.3125 0.5000
vt 0.4375 0.5000
vt 0.4375 0.6875
vt 0.3125 0.6875
vt 0.2500 0.5000
vt 0.2500 0.6875
vt 0.5000 0.5000
vt 0.6250 0.5000
vt 0.6250 0.6875
vt 0.5000 0.6875
vt 0.4375 0.7500
vt 0.3125 0.7500
vt 0.5625 0.6875
vt 0.4375 0.6875
vt 0.4375 0.7500
vt 0.5625 0.7500
vt 0.6875 0.5000
vt 0.7500 0.5000
vt 0.7500 0.6875
vt 0.6875 0.6875
vt 0.6250 0.5000
vt 0.6250 0.6875
vt 0.8125 0.5000
vt 0.8750 0.5000
vt 0.8750 0.6875
vt 0.8125 0.6875
vt 0.7500 0.7500
vt 0.6875 0.7500
vt 0.8125 0.6875
vt 0.7500 0.6875
vt 0.7500 0.7500
vt 0.8125 0.7500
vt 0.0625 0.5000
vt 0.1250 0.5000
vt 0.1250 0.6875
vt 0.0625 0.6875
vt 0.0000 0.5000
vt 0.0000 0.6875
vt 0.1875 0.5000
vt 0.2500 0.5000
vt 0.2500 0.6875
vt 0.1875 0.6875
vt 0.1250 0.7500
vt 0.0625 0.7500
vt 0.1875 0.6875
vt 0.1250 0.6875
vt 0.1250 0.7500
vt 0.1875 0.7500
vt 0.3125 0.0000
vt 0.3750 0.0000
vt 0.3750 0.1875
vt 0.3125 0.1875
vt 0.2500 0.0000
vt 0.2500 0.1875
vt 0.4375 0.0000
vt 0.5000 0.0000
vt 0.5000 0.1875
vt 0.4375 0.1875
vt 0.3750 0.2500
vt 0.3125 0.2500
vt 0.4375 0.1875
vt 0.3750 0.1875
vt 0.3750 0.2500
vt 0.4375 0.2500
vt 0.6875 0.2500
vt 0.7500 0.2500
vt 0.7500 0.4375
vt 0.6875 0.4375
vt 0.6250 0.2500
vt 0.6250 0.4375
vt 0.8125 0.2500
vt 0.8750 0.2500
vt 0.8750 0.4375
vt 0.8125 0.4375
vt 0.7500 0.5000
vt 0.6875 0.5000
vt 0.8125 0.4375
vt 0.7500 0.4375
vt 0.7500 0.5000
vt 0.8125 0.5000
vt 0.0625 0.2500
vt 0.1250 0.2500
vt 0.1250 0.4375
vt 0.0625 0.4375
vt 0.0000 0.2500
vt 0.0000 0.4375
vt 0.1875 0.2500
vt 0.2500 0.2500
vt 0.2500 0.4375
vt 0.1875 0.4375
vt 0.1250 0.5000
vt 0.0625 0.5000
vt 0.1875 0.4375
vt 0.1250 0.4375
vt 0.1250 0.5000
vt 0.1875 0.5000
vt 0.1250 0.7500
vt 0.2500 0.7500
vt 0.2500 0.8750
vt 0.1250 0.8750
vt 0.0000 0.7500
vt 0.0000 0.8750
vt 0.3750 0.7500
vt 0.5000 0.7500
vt 0.5000 0.8750
vt 0.3750 0.8750
vt 0.2500 1.0000
vt 0.1250 1.0000
vt 0.3750 0.8750
vt 0.2500 0.8750
vt 0.2500 1.0000
vt 0.3750 1.0000
vt 0.3125 0.2500
vt 0.4375 0.2500
vt 0.4375 0.4375
vt 0.3125 0.4375
vt 0.2500 0.2500
vt 0.2500 0.4375
vt 0.5000 0.2500
vt 0.6250 0.2500
vt 0.6250 0.4375
vt 0.5000 0.4375
vt 0.4375 0.5000
vt 0.3125 0.5000
vt 0.5625 0.4375
vt 0.4375 0.4375
vt 0.4375 0.5000
vt 0.5625 0.5000
vt 0.8125 0.0000
vt 0.8750 0.0000
vt 0.8750 0.1875
vt 0.8125 0.1875
vt 0.7500 0.0000
vt 0.7500 0.1875
vt 0.9375 0.0000
vt 1.0000 0.0000
vt 1.0000 0.1875
vt 0.9375 0.1875
vt 0.8750 0.2500
vt 0.8125 0.2500
vt 0.9375 0.1875
vt 0.8750 0.1875
vt 0.8750 0.2500
vt 0.9375 0.2500
vn 0.0000 -0.0000 1.0000
vn -1.0000 0.0000 0.0000
vn 0.0000 0.0000 -1.0000
vn 1.0000 0.0000 0.0000
vn 0.0000 1.0000 0.0000
vn 0.0000 -1.0000 -0.0000
vn 0.0000 0.8192 0.5736
vn 0.0000 -0.8192 -0.5736
vn 0.0000 0.5736 -0.8192
vn 0.0000 -0.5736 0.8192
vn 0.0000 -0.1736 0.9848
vn 0.0000 0.1736 -0.9848
vn 0.0000 0.9848 0.1736
vn 0.0000 -0.9848 -0.1736
usemtl m_0.001
s 1
f 1/1/1 2/2/1 3/3/1 4/4/1
f 5/5/2 1/1/2 4/4/2 6/6/2
f 7/7/3 5/8/3 6/9/3 8/10/3
f 2/2/4 7/7/4 8/10/4 3/3/4
f 8/11/5 6/12/5 4/4/5 3/3/5
f 2/13/6 1/14/6 5/15/6 7/16/6
f 9/17/7 10/18/7 11/19/7 12/20/7
f 13/21/2 9/17/2 12/20/2 14/22/2
f 15/23/8 13/24/8 14/25/8 16/26/8
f 10/18/4 15/23/4 16/26/4 11/19/4
f 16/27/9 14/28/9 12/20/9 11/19/9
f 10/29/10 9/30/10 13/31/10 15/32/10
f 17/33/11 18/34/11 19/35/11 20/36/11
f 21/37/2 17/33/2 20/36/2 22/38/2
f 23/39/12 21/40/12 22/41/12 24/42/12
f 18/34/4 23/39/4 24/42/4 19/35/4
f 24/43/13 22/44/13 20/36/13 19/35/13
f 18/45/14 17/46/14 21/47/14 23/48/14
f 25/49/1 26/50/1 27/51/1 28/52/1
f 29/53/2 25/49/2 28/52/2 30/54/2
f 31/55/3 29/56/3 30/57/3 32/58/3
f 26/50/4 31/55/4 32/58/4 27/51/4
f 32/59/5 30/60/5 28/52/5 27/51/5
f 26/61/6 25/62/6 29/63/6 31/64/6
f 33/65/7 34/66/7 35/67/7 36/68/7
f 37/69/2 33/65/2 36/68/2 38/70/2
f 39/71/8 37/72/8 38/73/8 40/74/8
f 34/66/4 39/71/4 40/74/4 35/67/4
f 40/75/9 38/76/9 36/68/9 35/67/9
f 34/77/10 33/78/10 37/79/10 39/80/10
f 41/81/1 42/82/1 43/83/1 44/84/1
f 45/85/2 41/81/2 44/84/2 46/86/2
f 47/87/3 45/88/3 46/89/3 48/90/3
f 42/82/4 47/87/4 48/90/4 43/83/4
f 48/91/5 46/92/5 44/84/5 43/83/5
f 42/93/6 41/94/6 45/95/6 47/96/6
f 49/97/1 50/98/1 51/99/1 52/100/1
f 53/101/2 49/97/2 52/100/2 54/102/2
f 55/103/3 53/104/3 54/105/3 56/106/3
f 50/98/4 55/103/4 56/106/4 51/99/4
f 56/107/5 54/108/5 52/100/5 51/99/5
f 50/109/6 49/110/6 53/111/6 55/112/6
f 57/113/7 58/114/7 59/115/7 60/116/7
f 61/117/2 57/113/2 60/116/2 62/118/2
f 63/119/8 61/120/8 62/121/8 64/122/8
f 58/114/4 63/119/4 64/122/4 59/115/4
f 64/123/9 62/124/9 60/116/9 59/115/9
f 58/125/10 57/126/10 61/127/10 63/128/10
f 65/129/1 66/130/1 67/131/1 68/132/1
f 69/133/2 65/129/2 68/132/2 70/134/2
f 71/135/3 69/136/3 70/137/3 72/138/3
f 66/130/4 71/135/4 72/138/4 67/131/4
f 72/139/5 70/140/5 68/132/5 67/131/5
f 66/141/6 65/142/6 69/143/6 71/144/6
f 73/145/11 74/146/11 75/147/11 76/148/11
f 77/149/2 73/145/2 76/148/2 78/150/2
f 79/151/12 77/152/12 78/153/12 80/154/12
f 74/146/4 79/151/4 80/154/4 75/147/4
f 80/155/13 78/156/13 76/148/13 75/147/13
f 74/157/14 73/158/14 77/159/14 79/160/14
f 81/161/1 82/162/1 83/163/1 84/164/1
f 85/165/2 81/161/2 84/164/2 86/166/2
f 87/167/3 85/168/3 86/169/3 88/170/3
f 82/162/4 87/167/4 88/170/4 83/163/4
f 88/171/5 86/172/5 84/164/5 83/163/5
f 82/173/6 81/174/6 85/175/6 87/176/6
f 89/177/7 90/178/7 91/179/7 92/180/7
f 93/181/2 89/177/2 92/180/2 94/182/2
f 95/183/8 93/184/8 94/185/8 96/186/8
f 90/178/4 95/183/4 96/186/4 91/179/4
f 96/187/9 94/188/9 92/180/9 91/179/9
f 90/189/10 89/190/10 93/191/10 95/192/10
