# Blender v2.79 (sub 0) OBJ File: ''
# www.blender.org
mtllib siren.mtl
o cube
v 0.062500 0.437500 0.000000
v 0.062500 0.437500 0.125000
v 0.093750 0.250000 0.156250
v 0.093750 0.250000 -0.031250
v -0.093750 0.250000 0.156250
v -0.062500 0.437500 0.125000
v -0.062500 0.437500 0.000000
v -0.093750 0.250000 -0.031250
v -0.062500 0.625000 0.062500
v 0.062500 0.625000 0.062500
v 0.062500 0.625000 -0.062500
v -0.062500 0.625000 -0.062500
v 0.500000 0.125000 -0.500000
v 0.500000 0.125000 0.500000
v 0.500000 -0.000000 0.500000
v 0.500000 0.000000 -0.500000
v -0.500000 -0.000000 0.500000
v -0.500000 0.125000 0.500000
v -0.500000 0.125000 -0.500000
v -0.500000 0.000000 -0.500000
v -0.375000 0.250000 0.375000
v 0.375000 0.250000 0.375000
v 0.375000 0.250000 -0.375000
v -0.375000 0.250000 -0.375000
v 0.125000 0.810769 -0.176147
v 0.125000 0.864879 0.067927
v 0.125000 0.620805 0.122037
v 0.125000 0.566695 -0.122037
v -0.125000 0.620805 0.122037
v -0.125000 0.864879 0.067927
v -0.125000 0.810769 -0.176147
v -0.125000 0.566695 -0.122037
v 0.203125 0.632533 0.391511
v 0.203125 1.029153 0.303583
v -0.203125 1.029153 0.303583
v -0.203125 0.632533 0.391511
v -0.062500 0.736223 -0.223638
v 0.062500 0.736223 -0.223638
v 0.062500 0.614186 -0.196583
v -0.062500 0.614186 -0.196583
v 0.218750 1.027498 0.223928
v 0.218750 0.600369 0.318620
v -0.218750 1.027498 0.223928
v -0.218750 0.600369 0.318620
v 0.281250 1.115572 0.332437
v 0.281250 0.566405 0.454184
v -0.281250 1.115572 0.332437
v -0.281250 0.566405 0.454184
v 0.218750 1.051171 0.330710
v 0.218750 0.624042 0.425402
v -0.218750 1.051171 0.330710
v -0.218750 0.624042 0.425402
v 0.250000 0.312500 -0.250000
v 0.250000 0.312500 -0.125000
v 0.312500 0.250000 -0.062500
v 0.312500 0.250000 -0.312500
v -0.312500 0.250000 -0.062500
v -0.250000 0.312500 -0.125000
v -0.250000 0.312500 -0.250000
v -0.312500 0.250000 -0.312500
vt 0.468750 0.385137
vt 0.343750 0.385137
vt 0.312500 0.195050
vt 0.500000 0.195050
vt 0.500000 0.195050
vt 0.468750 0.385137
vt 0.343750 0.385137
vt 0.312500 0.195050
vt 0.312500 0.072637
vt 0.437500 0.072637
vt 0.437500 0.197637
vt 0.312500 0.197637
vt 0.375000 0.260137
vt 0.375000 0.447637
vt 0.187500 0.447637
vt 0.187500 0.260137
vt 0.437500 0.007550
vt 0.406250 0.197637
vt 0.281250 0.197637
vt 0.250000 0.007550
vt 0.468750 0.385137
vt 0.343750 0.385137
vt 0.312500 0.195050
vt 0.500000 0.195050
vt 0.250000 0.197637
vt 0.125000 0.197637
vt 0.125000 0.000000
vt 0.250000 0.000000
vt 0.312500 0.385137
vt 0.187500 0.385137
vt 0.125000 0.197637
vt 0.250000 0.197637
vt 0.250000 0.385137
vt 0.125000 0.385137
vt 0.125000 0.187494
vt 0.250000 0.187494
vt 0.125000 0.385137
vt 0.000000 0.385137
vt 0.062500 0.197637
vt 0.187500 0.197637
vt 0.500000 0.687500
vt 0.000000 0.687500
vt 0.000000 0.625000
vt 0.500000 0.625000
vt 0.500000 0.750000
vt 0.500000 0.812500
vt 0.000000 0.812500
vt 0.000000 0.750000
vt 0.062500 0.562500
vt 0.437500 0.562500
vt 0.437500 0.937500
vt 0.062500 0.937500
vt 0.500000 0.500000
vt 0.500000 1.000000
vt 0.000000 1.000000
vt 0.000000 0.500000
vt 0.500000 0.875000
vt 0.500000 0.937500
vt 0.000000 0.937500
vt 0.000000 0.875000
vt 0.500000 0.562500
vt 0.000000 0.562500
vt 0.000000 0.500000
vt 0.500000 0.500000
vt 0.437500 1.000000
vt 0.062500 1.000000
vt 0.000000 0.911613
vt 0.500000 0.911613
vt 0.437500 0.750000
vt 0.062500 0.750000
vt 0.000000 0.661613
vt 0.500000 0.661613
vt 0.437500 0.625000
vt 0.062500 0.625000
vt 0.000000 0.536613
vt 0.500000 0.536613
vt 0.437500 0.875000
vt 0.062500 0.875000
vt 0.000000 0.786613
vt 0.500000 0.786613
vt 1.000000 0.937500
vt 0.750000 0.937500
vt 0.750000 0.687500
vt 1.000000 0.687500
vt 0.875000 0.687500
vt 0.875000 0.937500
vt 0.625000 0.937500
vt 0.625000 0.687500
vt 0.625000 0.750000
vt 0.875000 0.750000
vt 0.875000 1.000000
vt 0.625000 1.000000
vt 0.875000 0.687500
vt 0.875000 0.937500
vt 0.625000 0.937500
vt 1.000000 0.000000
vt 1.000000 0.500000
vt 0.500000 0.500000
vt 0.500000 0.000000
vt 0.625000 0.937500
vt 0.500000 0.937500
vt 0.500000 0.812500
vt 0.625000 0.812500
vt 0.500000 1.000000
vt 0.500000 0.562500
vt 0.709631 0.625000
vt 0.709631 0.875000
vt 1.000000 0.875000
vt 0.562500 0.875000
vt 0.656250 0.649650
vt 0.906250 0.649650
vt 0.834631 0.562500
vt 0.834631 1.000000
vt 0.625000 0.875000
vt 0.625000 0.625000
vt 0.562500 0.802363
vt 1.000000 0.802363
vt 0.906250 1.000000
vt 0.656250 1.000000
vt 0.812500 1.000000
vt 0.812500 0.718750
vt 0.882378 0.750000
vt 0.882378 0.968750
vt 0.968750 0.875000
vt 0.687500 0.875000
vt 0.718750 0.805122
vt 0.937500 0.805122
vt 0.882378 0.718750
vt 0.882378 1.000000
vt 0.812500 0.968750
vt 0.812500 0.750000
vt 0.625000 0.805122
vt 0.906250 0.805122
vt 0.875000 0.875000
vt 0.656250 0.875000
vt 0.812500 0.911613
vt 0.937500 0.911613
vt 1.000000 1.000000
vt 0.750000 1.000000
vt 0.713387 0.812500
vt 0.713387 0.937500
vt 0.625000 1.000000
vt 0.625000 0.750000
vt 0.875000 0.875000
vt 0.750000 0.875000
vt 0.687500 0.786613
vt 0.937500 0.786613
vt 0.562500 0.937500
vt 0.562500 0.812500
vt 0.650887 0.750000
vt 0.650887 1.000000
vt 0.750000 0.968750
vt 0.750000 0.750000
vt 0.819878 0.718750
vt 0.819878 1.000000
vt 0.656250 0.842791
vt 0.875000 0.842791
vt 0.906250 0.875000
vt 0.625000 0.875000
vt 0.757378 0.750000
vt 0.757378 0.968750
vt 0.687500 1.000000
vt 0.687500 0.718750
vt 0.937500 0.875000
vt 0.718750 0.875000
vt 0.687500 0.842791
vt 0.968750 0.842791
vt 0.562500 1.000000
vt 0.562500 0.562500
vt 0.593750 0.562500
vt 0.593750 1.000000
vt 0.500000 0.906250
vt 0.937500 0.906250
vt 0.937500 0.937500
vt 0.500000 0.937500
vt 0.781250 0.562500
vt 0.781250 1.000000
vt 0.750000 1.000000
vt 0.750000 0.562500
vt 0.937500 0.875000
vt 0.500000 0.875000
vt 0.500000 0.843750
vt 0.937500 0.843750
vt 0.625000 0.937500
vt 0.562500 0.937500
vt 0.531250 0.893306
vt 0.656250 0.893306
vt 0.656250 0.830806
vt 0.625000 0.875000
vt 0.562500 0.875000
vt 0.531250 0.830806
vt 0.500000 0.562500
vt 1.000000 0.562500
vt 1.000000 0.687500
vt 0.500000 0.687500
vt 0.906250 0.687500
vt 0.906250 0.812500
vt 0.593750 0.812500
vt 0.593750 0.687500
vt 0.968750 0.830806
vt 0.937500 0.875000
vt 0.687500 0.875000
vt 0.937500 0.937500
vt 0.687500 0.937500
vt 0.968750 0.893306
vn 0.9864 0.1644 0.0000
vn -0.9864 0.1644 0.0000
vn 0.0000 1.0000 0.0000
vn 0.0000 -1.0000 0.0000
vn 0.0000 0.1644 0.9864
vn 0.0000 0.1644 -0.9864
vn 0.0000 0.3162 0.9487
vn 1.0000 0.0000 0.0000
vn 0.0000 -0.3162 -0.9487
vn -1.0000 0.0000 0.0000
vn 0.0000 0.0000 1.0000
vn 0.0000 0.0000 -1.0000
vn 0.0000 0.7071 0.7071
vn 0.7071 0.7071 0.0000
vn 0.0000 0.7071 -0.7071
vn -0.7071 0.7071 0.0000
vn 0.0000 0.9763 -0.2164
vn 0.0000 -0.9763 0.2164
vn 0.0000 0.2164 0.9763
vn 0.0000 -0.2164 -0.9763
vn 0.8944 -0.0968 -0.4366
vn 0.0000 0.6923 -0.7216
vn -0.8944 -0.0968 -0.4366
vn 0.0000 -0.9946 -0.1034
vn 0.0000 0.7764 -0.6302
vn 0.0000 -0.9700 -0.2430
vn 0.0000 0.5373 -0.8434
vn 0.7071 -0.1530 -0.6903
vn 0.0000 -0.8434 -0.5373
vn -0.7071 -0.1530 -0.6903
vn -0.2425 0.2100 0.9471
vn 0.0000 -0.0268 0.9996
vn 0.2425 0.2100 0.9471
vn 0.0000 0.4468 0.8947
vn -0.8944 0.0968 0.4366
vn 0.0000 -0.7764 0.6302
vn 0.8944 0.0968 0.4366
vn 0.0000 0.9700 0.2430
usemtl m_0
s 1
f 1/1/1 2/2/1 3/3/1 4/4/1
f 5/5/2 6/6/2 7/7/2 8/8/2
f 9/9/3 10/10/3 11/11/3 12/12/3
f 4/13/4 3/14/4 5/15/4 8/16/4
f 3/17/5 2/18/5 6/19/5 5/20/5
f 7/21/6 1/22/6 4/23/6 8/24/6
f 10/25/7 9/26/7 6/27/7 2/28/7
f 11/29/8 10/30/8 2/31/8 1/32/8
f 12/33/9 11/34/9 1/35/9 7/36/9
f 9/37/10 12/38/10 7/39/10 6/40/10
f 13/41/8 14/42/8 15/43/8 16/44/8
f 17/45/10 18/46/10 19/47/10 20/48/10
f 21/49/3 22/50/3 23/51/3 24/52/3
f 16/53/4 15/54/4 17/55/4 20/56/4
f 15/57/11 14/58/11 18/59/11 17/60/11
f 19/61/12 13/62/12 16/63/12 20/64/12
f 22/65/13 21/66/13 18/67/13 14/68/13
f 23/69/14 22/70/14 14/71/14 13/72/14
f 24/73/15 23/74/15 13/75/15 19/76/15
f 21/77/16 24/78/16 19/79/16 18/80/16
f 25/81/8 26/82/8 27/83/8 28/84/8
f 29/85/10 30/86/10 31/87/10 32/88/10
f 30/89/17 26/90/17 25/91/17 31/92/17
f 28/93/18 27/94/18 29/95/18 32/88/18
f 33/96/19 34/97/19 35/98/19 36/99/19
f 37/100/20 38/101/20 39/102/20 40/103/20
f 41/104/21 42/105/21 27/106/21 26/107/21
f 43/108/22 41/109/22 26/110/22 30/111/22
f 44/112/23 43/113/23 30/114/23 29/115/23
f 42/116/24 44/117/24 29/118/24 27/119/24
f 45/120/21 46/121/21 42/122/21 41/123/21
f 47/124/25 45/125/25 41/126/25 43/127/25
f 48/128/23 47/129/23 43/130/23 44/131/23
f 46/132/26 48/133/26 44/134/26 42/135/26
f 38/136/27 37/137/27 31/138/27 25/139/27
f 39/140/28 38/141/28 25/142/28 28/143/28
f 40/144/29 39/145/29 28/146/29 32/147/29
f 37/148/30 40/149/30 32/150/30 31/151/30
f 49/152/31 50/153/31 46/154/31 45/155/31
f 51/156/32 49/157/32 45/158/32 47/159/32
f 52/160/33 51/161/33 47/162/33 48/163/33
f 50/164/34 52/165/34 48/166/34 46/167/34
f 34/168/35 33/169/35 50/170/35 49/171/35
f 35/172/36 34/173/36 49/174/36 51/175/36
f 36/176/37 35/177/37 51/178/37 52/179/37
f 33/180/38 36/181/38 52/182/38 50/183/38
f 53/184/14 54/185/14 55/186/14 56/187/14
f 57/188/16 58/189/16 59/190/16 60/191/16
f 58/192/3 54/193/3 53/194/3 59/195/3
f 56/196/4 55/197/4 57/198/4 60/199/4
f 55/200/13 54/201/13 58/202/13 57/188/13
f 59/203/15 53/204/15 56/187/15 60/205/15
