# Blender v2.78 (sub 0) OBJ File: ''
# www.blender.org
mtllib lmgammo.mtl
o cube
v 0.007374 -0.007374 -0.014748
v -0.007374 -0.007374 -0.014748
v -0.007374 0.007374 -0.014748
v 0.007374 0.007374 -0.014748
v -0.007374 -0.007374 0.014748
v -0.007374 0.007374 0.014748
v 0.007374 -0.007374 0.014748
v 0.007374 0.007374 0.014748
vt 0.0000 0.0000
vt 0.7500 0.0000
vt 0.7500 1.0000
vt 0.0000 1.0000
vt 0.0000 0.0000
vt 1.0000 0.0000
vt 1.0000 1.0000
vt 0.0000 1.0000
vt 1.0000 1.0000
vt 0.0000 1.0000
vt 0.0000 0.0000
vt 1.0000 0.0000
vt 0.0000 0.0000
vt 1.0000 0.0000
vt 1.0000 1.0000
vt 0.7500 0.0000
vt 1.0000 0.0000
vt 0.7500 1.0000
vt 1.0000 1.0000
vt 0.0000 1.0000
vn 0.0000 0.0000 -1.0000
vn -1.0000 0.0000 0.0000
vn 1.0000 0.0000 0.0000
vn 0.0000 1.0000 0.0000
vn 0.0000 0.0000 1.0000
vn 0.0000 -1.0000 -0.0000
usemtl m_0
s 1
f 1/1/1 2/2/1 3/3/1 4/4/1
f 2/5/2 5/6/2 6/7/2 3/8/2
f 7/9/3 1/10/3 4/11/3 8/12/3
f 3/13/4 6/14/4 8/15/4 4/4/4
f 5/16/5 7/17/5 8/15/5 6/18/5
f 1/1/6 7/17/6 5/19/6 2/20/6
