# Blender v2.79 (sub 0) OBJ File: ''
# www.blender.org
mtllib casing.mtl
o cube
v -0.023437 0.023438 0.031250
v -0.023438 0.023437 -0.031250
v -0.023438 -0.023438 -0.031250
v -0.023437 -0.023437 0.031250
v 0.023437 -0.023438 -0.031250
v 0.023437 0.023437 -0.031250
v 0.023438 0.023438 0.031250
v 0.023438 -0.023437 0.031250
v 0.015625 0.015625 -0.015625
v -0.015625 0.015625 -0.015625
v -0.015625 -0.015625 -0.015625
v 0.015625 -0.015625 -0.015625
vt 0.250000 0.937500
vt 0.000000 0.937500
vt 0.000000 0.750000
vt 0.250000 0.750000
vt 0.250000 0.750000
vt 0.250000 0.937500
vt 0.000000 0.937500
vt 0.000000 0.750000
vt 0.062500 0.750000
vt 0.250000 0.750000
vt 0.250000 1.000000
vt 0.062500 1.000000
vt 0.250000 1.000000
vt 0.062500 1.000000
vt 0.062500 0.750000
vt 0.187500 0.812500
vt 0.187500 1.000000
vt 0.000000 1.000000
vt 0.000000 0.812500
vt 0.187500 1.000000
vt 0.000000 1.000000
vt 0.000000 0.812500
vt 0.187500 0.812500
vt 0.109375 1.000000
vt 0.062500 1.000000
vt 0.062500 0.937500
vt 0.109375 0.937500
vt 0.062500 0.890625
vt 0.062500 0.937500
vt 0.000000 0.937500
vt 0.000000 0.890625
vt 0.062500 0.875000
vt 0.109375 0.875000
vt 0.109375 0.937500
vt 0.062500 0.937500
vt 0.125000 0.937500
vt 0.125000 0.890625
vt 0.187500 0.890625
vt 0.187500 0.937500
vn -1.0000 0.0000 0.0000
vn 1.0000 -0.0000 -0.0000
vn -0.0000 1.0000 -0.0000
vn 0.0000 -1.0000 0.0000
vn -0.0000 -0.0000 -1.0000
vn 0.0000 0.0000 1.0000
vn 0.0000 -0.9864 0.1644
vn 0.9864 0.0000 0.1644
vn 0.0000 0.9864 0.1644
vn -0.9864 0.0000 0.1644
usemtl m_de8d8bb7-02d4-7170-48d8-a0a6ad966e49
s 1
f 1/1/1 2/2/1 3/3/1 4/4/1
f 5/5/2 6/6/2 7/7/2 8/8/2
f 6/9/3 2/10/3 1/11/3 7/12/3
f 4/4/4 3/13/4 5/14/4 8/15/4
f 3/16/5 2/17/5 6/18/5 5/19/5
f 9/20/6 10/21/6 11/22/6 12/23/6
f 10/24/7 9/25/7 7/26/7 1/27/7
f 11/28/8 10/29/8 1/30/8 4/31/8
f 12/32/9 11/33/9 4/34/9 8/35/9
f 9/36/10 12/37/10 8/38/10 7/39/10
