# Blender v2.79 (sub 0) OBJ File: ''
# www.blender.org
mtllib explosion.mtl
o sphere
v 0.146447 0.353553 0.353553
v 0.353553 0.353553 0.146447
v 0.000000 0.500000 0.000000
v 0.207107 -0.000000 0.500000
v 0.500000 -0.000000 0.207107
v 0.146447 -0.353553 0.353553
v 0.353553 -0.353553 0.146447
v 0.000000 -0.500000 -0.000000
v 0.353553 0.353553 -0.146447
v 0.500000 0.000000 -0.207107
v 0.353553 -0.353553 -0.146447
v 0.146447 0.353553 -0.353553
v 0.207107 0.000000 -0.500000
v 0.146447 -0.353553 -0.353553
v -0.146447 0.353553 -0.353553
v -0.207107 0.000000 -0.500000
v -0.146447 -0.353553 -0.353553
v -0.353553 0.353553 -0.146447
v -0.500000 0.000000 -0.207107
v -0.353553 -0.353553 -0.146447
v -0.353553 0.353553 0.146447
v -0.500000 -0.000000 0.207107
v -0.353553 -0.353553 0.146447
v -0.146447 0.353553 0.353553
v -0.207107 -0.000000 0.500000
v -0.146447 -0.353553 0.353553
vt 0.250000 0.750000
vt 0.500000 0.750000
vt 0.375000 1.000000
vt 0.286613 0.750000
vt 0.250000 0.500000
vt 0.500000 0.500000
vt 0.463387 0.750000
vt 0.286613 0.250000
vt 0.463387 0.250000
vt 0.500000 0.250000
vt 0.250000 0.250000
vt 0.375000 0.000000
vt 0.750000 0.750000
vt 0.625000 1.000000
vt 0.536613 0.750000
vt 0.750000 0.500000
vt 0.713387 0.750000
vt 0.536613 0.250000
vt 0.713387 0.250000
vt 0.750000 0.250000
vt 0.625000 0.000000
vt 1.000000 0.750000
vt 0.875000 1.000000
vt 0.786613 0.750000
vt 1.000000 0.500000
vt 0.963387 0.750000
vt 0.786613 0.250000
vt 0.963387 0.250000
vt 1.000000 0.250000
vt 0.875000 0.000000
vt 0.000000 0.750000
vt 0.250000 0.750000
vt 0.125000 1.000000
vt 0.036613 0.750000
vt 0.000000 0.500000
vt 0.250000 0.500000
vt 0.213387 0.750000
vt 0.036613 0.250000
vt 0.213387 0.250000
vt 0.250000 0.250000
vt 0.000000 0.250000
vt 0.125000 0.000000
vt 0.500000 0.750000
vt 0.286613 0.750000
vt 0.500000 0.500000
vt 0.463387 0.750000
vt 0.286613 0.250000
vt 0.463387 0.250000
vt 0.500000 0.250000
vt 0.750000 0.750000
vt 0.536613 0.750000
vt 0.750000 0.500000
vt 0.713387 0.750000
vt 0.536613 0.250000
vt 0.713387 0.250000
vt 0.750000 0.250000
vt 1.000000 0.750000
vt 0.786613 0.750000
vt 1.000000 0.500000
vt 0.963387 0.750000
vt 0.786613 0.250000
vt 0.963387 0.250000
vt 1.000000 0.250000
vt 0.000000 0.750000
vt 0.036613 0.750000
vt 0.000000 0.500000
vt 0.213387 0.750000
vt 0.036613 0.250000
vt 0.213387 0.250000
vt 0.000000 0.250000
vn 0.2706 0.9239 0.2706
vn 0.6533 0.3827 0.6533
vn 0.6533 -0.3827 0.6533
vn 0.2706 -0.9239 0.2706
vn 0.3827 0.9239 0.0000
vn 0.9239 0.3827 0.0000
vn 0.9239 -0.3827 0.0000
vn 0.3827 -0.9239 0.0000
vn 0.2706 0.9239 -0.2706
vn 0.6533 0.3827 -0.6533
vn 0.6533 -0.3827 -0.6533
vn 0.2706 -0.9239 -0.2706
vn 0.0000 0.9239 -0.3827
vn 0.0000 0.3827 -0.9239
vn 0.0000 -0.3827 -0.9239
vn 0.0000 -0.9239 -0.3827
vn -0.2706 0.9239 -0.2706
vn -0.6533 0.3827 -0.6533
vn -0.6533 -0.3827 -0.6533
vn -0.2706 -0.9239 -0.2706
vn -0.3827 0.9239 0.0000
vn -0.9239 0.3827 0.0000
vn -0.9239 -0.3827 0.0000
vn -0.3827 -0.9239 0.0000
vn -0.2706 0.9239 0.2706
vn -0.6533 0.3827 0.6533
vn -0.6533 -0.3827 0.6533
vn -0.2706 -0.9239 0.2706
vn 0.0000 0.9239 0.3827
vn 0.0000 0.3827 0.9239
vn 0.0000 -0.3827 0.9239
vn 0.0000 -0.9239 0.3827
usemtl m_ab3a349e-dcc8-9fba-416c-5257f2bb8944
s 1
f 1/1/1 2/2/1 3/3/1
f 1/4/2 4/5/2 5/6/2 2/7/2
f 4/5/3 6/8/3 7/9/3 5/6/3
f 7/10/4 6/11/4 8/12/4
f 2/2/5 9/13/5 3/14/5
f 2/15/6 5/6/6 10/16/6 9/17/6
f 5/6/7 7/18/7 11/19/7 10/16/7
f 11/20/8 7/10/8 8/21/8
f 9/13/9 12/22/9 3/23/9
f 9/24/10 10/16/10 13/25/10 12/26/10
f 10/16/11 11/27/11 14/28/11 13/25/11
f 14/29/12 11/20/12 8/30/12
f 12/31/13 15/32/13 3/33/13
f 12/34/14 13/35/14 16/36/14 15/37/14
f 13/35/15 14/38/15 17/39/15 16/36/15
f 17/40/16 14/41/16 8/42/16
f 15/32/17 18/43/17 3/3/17
f 15/44/18 16/36/18 19/45/18 18/46/18
f 16/36/19 17/47/19 20/48/19 19/45/19
f 20/49/20 17/40/20 8/12/20
f 18/43/21 21/50/21 3/14/21
f 18/51/22 19/45/22 22/52/22 21/53/22
f 19/45/23 20/54/23 23/55/23 22/52/23
f 23/56/24 20/49/24 8/21/24
f 21/50/25 24/57/25 3/23/25
f 21/58/26 22/52/26 25/59/26 24/60/26
f 22/52/27 23/61/27 26/62/27 25/59/27
f 26/63/28 23/56/28 8/30/28
f 24/64/29 1/1/29 3/33/29
f 24/65/30 25/66/30 4/5/30 1/67/30
f 25/66/31 26/68/31 6/69/31 4/5/31
f 6/11/32 26/70/32 8/42/32
