# Blender v2.79 (sub 0) OBJ File: ''
# www.blender.org
mtllib explosionring.mtl
o torus
v 0.184095 0.067649 0.444444
v 0.207107 -0.000000 0.500000
v 0.500000 -0.000000 0.207107
v 0.444444 0.067650 0.184095
v 0.184095 -0.067650 0.444444
v 0.444444 -0.067650 0.184095
v 0.161083 -0.000000 0.388889
v 0.388889 -0.000000 0.161083
v 0.500000 0.000000 -0.207107
v 0.444444 0.067650 -0.184095
v 0.444444 -0.067650 -0.184095
v 0.388889 0.000000 -0.161083
v 0.207107 0.000000 -0.500000
v 0.184095 0.067650 -0.444444
v 0.184095 -0.067649 -0.444444
v 0.161083 0.000000 -0.388889
v -0.207107 0.000000 -0.500000
v -0.184095 0.067650 -0.444444
v -0.184095 -0.067649 -0.444444
v -0.161083 0.000000 -0.388889
v -0.500000 0.000000 -0.207107
v -0.444444 0.067650 -0.184095
v -0.444444 -0.067650 -0.184095
v -0.388889 0.000000 -0.161083
v -0.500000 -0.000000 0.207107
v -0.444444 0.067650 0.184095
v -0.444444 -0.067650 0.184095
v -0.388889 -0.000000 0.161083
v -0.207107 -0.000000 0.500000
v -0.184095 0.067649 0.444444
v -0.184095 -0.067650 0.444444
v -0.161083 -0.000000 0.388889
vt 0.027777 0.875000
vt 0.000000 0.750000
vt 0.500000 0.750000
vt 0.472223 0.875000
vt 0.500000 0.875000
vt 0.527777 0.750000
vt 0.972223 0.750000
vt 1.000000 0.875000
vt 1.000000 0.750000
vt 0.968751 0.875000
vt 0.531249 0.875000
vt 0.500000 0.750000
vt 0.468751 0.750000
vt 0.500000 0.875000
vt 0.000000 0.875000
vt 0.031249 0.750000
vt 0.027777 0.750000
vt 0.000000 0.625000
vt 0.500000 0.625000
vt 0.472223 0.750000
vt 0.527777 0.625000
vt 0.972223 0.625000
vt 1.000000 0.750000
vt 1.000000 0.625000
vt 0.968751 0.750000
vt 0.531249 0.750000
vt 0.500000 0.625000
vt 0.468751 0.625000
vt 0.500000 0.750000
vt 0.000000 0.750000
vt 0.031249 0.625000
vt 0.027777 0.625000
vt 0.000000 0.500000
vt 0.500000 0.500000
vt 0.472223 0.625000
vt 0.527777 0.500000
vt 0.972223 0.500000
vt 1.000000 0.625000
vt 1.000000 0.500000
vt 0.968751 0.625000
vt 0.531249 0.625000
vt 0.500000 0.500000
vt 0.468751 0.500000
vt 0.500000 0.625000
vt 0.000000 0.625000
vt 0.031249 0.500000
vt 0.027777 0.500000
vt 0.000000 0.375000
vt 0.500000 0.375000
vt 0.472223 0.500000
vt 0.527777 0.375000
vt 0.972223 0.375000
vt 1.000000 0.500000
vt 1.000000 0.375000
vt 0.968751 0.500000
vt 0.531249 0.500000
vt 0.500000 0.375000
vt 0.468751 0.375000
vt 0.500000 0.500000
vt 0.000000 0.500000
vt 0.031249 0.375000
vt 0.027777 0.375000
vt 0.000000 0.250000
vt 0.500000 0.250000
vt 0.472223 0.375000
vt 0.527777 0.250000
vt 0.972223 0.250000
vt 1.000000 0.375000
vt 1.000000 0.250000
vt 0.968751 0.375000
vt 0.531249 0.375000
vt 0.500000 0.250000
vt 0.468751 0.250000
vt 0.500000 0.375000
vt 0.000000 0.375000
vt 0.031249 0.250000
vt 0.027777 0.250000
vt 0.000000 0.125000
vt 0.500000 0.125000
vt 0.472223 0.250000
vt 0.527777 0.125000
vt 0.972223 0.125000
vt 1.000000 0.250000
vt 1.000000 0.125000
vt 0.968751 0.250000
vt 0.531249 0.250000
vt 0.500000 0.125000
vt 0.468751 0.125000
vt 0.500000 0.250000
vt 0.000000 0.250000
vt 0.031249 0.125000
vt 0.027777 0.125000
vt 0.000000 0.000000
vt 0.500000 0.000000
vt 0.472223 0.125000
vt 0.527777 0.000000
vt 0.972223 0.000000
vt 1.000000 0.125000
vt 1.000000 0.000000
vt 0.968751 0.125000
vt 0.531249 0.125000
vt 0.500000 0.000000
vt 0.468751 0.000000
vt 0.500000 0.125000
vt 0.000000 0.125000
vt 0.031249 0.000000
vt 0.027777 1.000000
vt 0.000000 0.875000
vt 0.472223 1.000000
vt 0.500000 1.000000
vt 0.527777 0.875000
vt 0.972223 0.875000
vt 1.000000 1.000000
vt 1.000000 0.875000
vt 0.968751 1.000000
vt 0.531249 1.000000
vt 0.500000 0.875000
vt 0.468751 0.875000
vt 0.500000 1.000000
vt 0.000000 1.000000
vt 0.031249 0.875000
vn 0.5465 0.6346 0.5465
vn 0.5465 -0.6346 0.5465
vn -0.5465 -0.6346 -0.5465
vn -0.5465 0.6346 -0.5465
vn 0.7728 0.6346 0.0000
vn 0.7728 -0.6346 -0.0000
vn -0.7728 -0.6346 -0.0000
vn -0.7728 0.6346 0.0000
vn 0.5465 0.6346 -0.5465
vn 0.5465 -0.6346 -0.5465
vn -0.5465 -0.6346 0.5465
vn -0.5465 0.6346 0.5465
vn 0.0000 0.6346 -0.7728
vn 0.0000 -0.6346 -0.7728
vn 0.0000 -0.6346 0.7728
vn 0.0000 0.6346 0.7728
usemtl m_6c5a1a74-b779-ea12-446a-62044f91a460
s 1
f 1/1/1 2/2/1 3/3/1 4/4/1
f 2/5/2 5/6/2 6/7/2 3/8/2
f 5/9/3 7/10/3 8/11/3 6/12/3
f 7/13/4 1/14/4 4/15/4 8/16/4
f 4/17/5 3/18/5 9/19/5 10/20/5
f 3/3/6 6/21/6 11/22/6 9/23/6
f 6/24/7 8/25/7 12/26/7 11/27/7
f 8/28/8 4/29/8 10/30/8 12/31/8
f 10/32/9 9/33/9 13/34/9 14/35/9
f 9/19/10 11/36/10 15/37/10 13/38/10
f 11/39/11 12/40/11 16/41/11 15/42/11
f 12/43/12 10/44/12 14/45/12 16/46/12
f 14/47/13 13/48/13 17/49/13 18/50/13
f 13/34/14 15/51/14 19/52/14 17/53/14
f 15/54/15 16/55/15 20/56/15 19/57/15
f 16/58/16 14/59/16 18/60/16 20/61/16
f 18/62/4 17/63/4 21/64/4 22/65/4
f 17/49/3 19/66/3 23/67/3 21/68/3
f 19/69/2 20/70/2 24/71/2 23/72/2
f 20/73/1 18/74/1 22/75/1 24/76/1
f 22/77/8 21/78/8 25/79/8 26/80/8
f 21/64/7 23/81/7 27/82/7 25/83/7
f 23/84/6 24/85/6 28/86/6 27/87/6
f 24/88/5 22/89/5 26/90/5 28/91/5
f 26/92/12 25/93/12 29/94/12 30/95/12
f 25/79/11 27/96/11 31/97/11 29/98/11
f 27/99/10 28/100/10 32/101/10 31/102/10
f 28/103/9 26/104/9 30/105/9 32/106/9
f 30/107/16 29/108/16 2/5/16 1/109/16
f 29/110/15 31/111/15 5/112/15 2/113/15
f 31/114/14 32/115/14 7/116/14 5/117/14
f 32/118/13 30/119/13 1/120/13 7/121/13
