# Blender v2.79 (sub 0) OBJ File: ''
# www.blender.org
mtllib mag_drum_alt.mtl
o ammoModelExtended
v -0.091506 0.091506 -0.031250
v -0.033494 0.125000 -0.031250
v -0.000000 0.000000 -0.031250
v -0.091506 0.091506 0.031250
v -0.033494 0.125000 0.031250
v -0.000000 -0.000000 0.031250
v -0.125000 0.033494 -0.031250
v -0.125000 0.033494 0.031250
v -0.125000 -0.033494 -0.031250
v -0.125000 -0.033494 0.031250
v -0.091506 -0.091506 -0.031250
v -0.091506 -0.091506 0.031250
v -0.033494 -0.125000 -0.031250
v -0.033494 -0.125000 0.031250
v 0.033494 -0.125000 -0.031250
v 0.033494 -0.125000 0.031250
v 0.091506 -0.091506 -0.031250
v 0.091506 -0.091506 0.031250
v 0.125000 -0.033494 -0.031250
v 0.125000 -0.033494 0.031250
v 0.125000 0.033494 -0.031250
v 0.125000 0.033494 0.031250
v 0.091506 0.091506 -0.031250
v 0.091506 0.091506 0.031250
v 0.033494 0.125000 -0.031250
v 0.033494 0.125000 0.031250
vt 0.081191 0.987441
vt 0.059434 1.000000
vt 0.046875 0.953125
vt 0.249703 0.875000
vt 0.274822 0.875000
vt 0.274822 0.906250
vt 0.249703 0.906250
vt 0.059434 0.781250
vt 0.081191 0.793809
vt 0.046875 0.828125
vt 0.093750 0.965684
vt 0.299941 0.875000
vt 0.299941 0.906250
vt 0.093750 0.815566
vt 0.093750 0.940566
vt 0.325059 0.875000
vt 0.325059 0.906250
vt 0.093750 0.840684
vt 0.081191 0.918809
vt 0.350178 0.875000
vt 0.350178 0.906250
vt 0.081191 0.862441
vt 0.059434 0.906250
vt 0.375297 0.875000
vt 0.375297 0.906250
vt 0.059434 0.875000
vt 0.034316 0.906250
vt 0.400416 0.875000
vt 0.400416 0.906250
vt 0.034316 0.875000
vt 0.012559 0.918809
vt 0.288766 0.968750
vt 0.313884 0.968750
vt 0.313884 1.000000
vt 0.288766 1.000000
vt 0.012559 0.862441
vt 0.000000 0.940566
vt 0.339003 0.968750
vt 0.339003 1.000000
vt 0.000000 0.840684
vt 0.000000 0.965684
vt 0.364122 0.968750
vt 0.364122 1.000000
vt 0.000000 0.815566
vt 0.012559 0.987441
vt 0.389241 0.968750
vt 0.389241 1.000000
vt 0.012559 0.793809
vt 0.034316 1.000000
vt 0.414359 0.968750
vt 0.414359 1.000000
vt 0.034316 0.781250
vt 0.224584 0.875000
vt 0.224584 0.906250
vn 0.0000 0.0000 -1.0000
vn -0.5000 0.8660 0.0000
vn 0.0000 -0.0000 1.0000
vn -0.8660 0.5000 0.0000
vn -1.0000 0.0000 0.0000
vn -0.8660 -0.5000 0.0000
vn -0.5000 -0.8660 0.0000
vn 0.0000 -1.0000 0.0000
vn 0.5000 -0.8660 0.0000
vn 0.8660 -0.5000 0.0000
vn 1.0000 0.0000 0.0000
vn 0.8660 0.5000 0.0000
vn 0.5000 0.8660 0.0000
vn 0.0000 1.0000 0.0000
usemtl m_c9deb06b-8597-35a1-7049-7cc79a3459d9
s 1
f 1/1/1 2/2/1 3/3/1
f 2/4/2 1/5/2 4/6/2 5/7/2
f 5/8/3 4/9/3 6/10/3
f 7/11/1 1/1/1 3/3/1
f 1/5/4 7/12/4 8/13/4 4/6/4
f 4/9/3 8/14/3 6/10/3
f 9/15/1 7/11/1 3/3/1
f 7/12/5 9/16/5 10/17/5 8/13/5
f 8/14/3 10/18/3 6/10/3
f 11/19/1 9/15/1 3/3/1
f 9/16/6 11/20/6 12/21/6 10/17/6
f 10/18/3 12/22/3 6/10/3
f 13/23/1 11/19/1 3/3/1
f 11/20/7 13/24/7 14/25/7 12/21/7
f 12/22/3 14/26/3 6/10/3
f 15/27/1 13/23/1 3/3/1
f 13/24/8 15/28/8 16/29/8 14/25/8
f 14/26/3 16/30/3 6/10/3
f 17/31/1 15/27/1 3/3/1
f 15/32/9 17/33/9 18/34/9 16/35/9
f 16/30/3 18/36/3 6/10/3
f 19/37/1 17/31/1 3/3/1
f 17/33/10 19/38/10 20/39/10 18/34/10
f 18/36/3 20/40/3 6/10/3
f 21/41/1 19/37/1 3/3/1
f 19/38/11 21/42/11 22/43/11 20/39/11
f 20/40/3 22/44/3 6/10/3
f 23/45/1 21/41/1 3/3/1
f 21/42/12 23/46/12 24/47/12 22/43/12
f 22/44/3 24/48/3 6/10/3
f 25/49/1 23/45/1 3/3/1
f 23/46/13 25/50/13 26/51/13 24/47/13
f 24/48/3 26/52/3 6/10/3
f 2/2/1 25/49/1 3/3/1
f 25/53/14 2/4/14 5/7/14 26/54/14
f 26/52/3 5/8/3 6/10/3
