# Blender v2.79 (sub 0) OBJ File: ''
# www.blender.org
mtllib mag_pistol_extended.mtl
o magazineextended
v 0.031250 0.291993 -0.001953
v 0.031250 0.291993 0.107423
v 0.031250 0.120117 0.076172
v 0.031250 0.120117 -0.033203
v -0.031250 0.120117 0.076172
v -0.031250 0.291993 0.107423
v -0.031250 0.291993 -0.001953
v -0.031250 0.120117 -0.033203
v 0.031250 0.120117 -0.033203
v 0.031250 0.120117 0.076172
v 0.031250 -0.051757 0.044922
v 0.031250 -0.051757 -0.064453
v -0.031250 -0.051757 0.044922
v -0.031250 0.120117 0.076172
v -0.031250 0.120117 -0.033203
v -0.031250 -0.051757 -0.064453
v 0.039062 -0.137695 -0.087890
v 0.039062 -0.137695 0.037110
v 0.039062 -0.153320 0.037110
v 0.039062 -0.153320 -0.087890
v -0.039062 -0.153320 0.037110
v -0.039062 -0.137695 0.037110
v -0.039062 -0.137695 -0.087890
v -0.039062 -0.153320 -0.087890
v 0.031250 -0.051757 -0.064453
v 0.031250 -0.051757 0.044922
v 0.031250 -0.137695 0.029297
v 0.031250 -0.137695 -0.080078
v -0.031250 -0.137695 0.029297
v -0.031250 -0.051757 0.044922
v -0.031250 -0.051757 -0.064453
v -0.031250 -0.137695 -0.080078
vt 0.125000 0.640625
vt 0.078125 0.640625
vt 0.078125 0.578125
vt 0.125000 0.578125
vt 0.046875 0.578125
vt 0.046875 0.640625
vt 0.000000 0.640625
vt 0.000000 0.578125
vt 0.000000 0.531250
vt 0.031250 0.531250
vt 0.031250 0.578125
vt 0.000000 0.578125
vt 0.062500 0.531250
vt 0.062500 0.578125
vt 0.031250 0.578125
vt 0.031250 0.531250
vt 0.156250 0.640625
vt 0.156250 0.578125
vt 0.125000 0.640625
vt 0.078125 0.640625
vt 0.078125 0.578125
vt 0.125000 0.578125
vt 0.046875 0.578125
vt 0.046875 0.640625
vt 0.000000 0.640625
vt 0.000000 0.578125
vt 0.000000 0.531250
vt 0.031250 0.531250
vt 0.031250 0.578125
vt 0.000000 0.578125
vt 0.062500 0.531250
vt 0.062500 0.578125
vt 0.031250 0.578125
vt 0.031250 0.531250
vt 0.156250 0.640625
vt 0.156250 0.578125
vt 0.343750 0.843750
vt 0.296875 0.843750
vt 0.296875 0.812500
vt 0.343750 0.812500
vt 0.265625 0.812500
vt 0.265625 0.843750
vt 0.218750 0.843750
vt 0.218750 0.812500
vt 0.218750 0.765625
vt 0.250000 0.765625
vt 0.250000 0.812500
vt 0.218750 0.812500
vt 0.281250 0.765625
vt 0.281250 0.812500
vt 0.250000 0.812500
vt 0.250000 0.765625
vt 0.375000 0.843750
vt 0.375000 0.812500
vt 0.125000 0.640625
vt 0.078125 0.640625
vt 0.078125 0.609375
vt 0.125000 0.609375
vt 0.046875 0.609375
vt 0.046875 0.640625
vt 0.000000 0.640625
vt 0.000000 0.609375
vt 0.000000 0.531250
vt 0.031250 0.531250
vt 0.031250 0.578125
vt 0.000000 0.578125
vt 0.062500 0.531250
vt 0.062500 0.578125
vt 0.031250 0.578125
vt 0.031250 0.531250
vt 0.156250 0.640625
vt 0.156250 0.609375
vn 1.0000 0.0000 0.0000
vn -1.0000 0.0000 0.0000
vn 0.0000 1.0000 0.0000
vn 0.0000 -1.0000 0.0000
vn 0.0000 -0.1789 0.9839
vn 0.0000 0.1789 -0.9839
vn 0.0000 0.0000 1.0000
vn 0.0000 0.0000 -1.0000
usemtl m_ba4642e7-c2b3-114b-7196-cb08d766124d
s 1
f 1/1/1 2/2/1 3/3/1 4/4/1
f 5/5/2 6/6/2 7/7/2 8/8/2
f 6/9/3 2/10/3 1/11/3 7/12/3
f 4/13/4 3/14/4 5/15/4 8/16/4
f 3/3/5 2/2/5 6/6/5 5/5/5
f 7/17/6 1/1/6 4/4/6 8/18/6
f 9/19/1 10/20/1 11/21/1 12/22/1
f 13/23/2 14/24/2 15/25/2 16/26/2
f 14/27/3 10/28/3 9/29/3 15/30/3
f 12/31/4 11/32/4 13/33/4 16/34/4
f 11/21/5 10/20/5 14/24/5 13/23/5
f 15/35/6 9/19/6 12/22/6 16/36/6
f 17/37/1 18/38/1 19/39/1 20/40/1
f 21/41/2 22/42/2 23/43/2 24/44/2
f 22/45/3 18/46/3 17/47/3 23/48/3
f 20/49/4 19/50/4 21/51/4 24/52/4
f 19/39/7 18/38/7 22/42/7 21/41/7
f 23/53/8 17/37/8 20/40/8 24/54/8
f 25/55/1 26/56/1 27/57/1 28/58/1
f 29/59/2 30/60/2 31/61/2 32/62/2
f 30/63/3 26/64/3 25/65/3 31/66/3
f 28/67/4 27/68/4 29/69/4 32/70/4
f 27/57/5 26/56/5 30/60/5 29/59/5
f 31/71/6 25/55/6 28/58/6 32/72/6
