# Blender v2.78 (sub 0) OBJ File: ''
# www.blender.org
mtllib robotpdupose6.mtl
o 6
v -0.005000 0.010998 -0.248087
v 0.195000 0.010998 -0.248087
v 0.195000 0.608715 -0.300381
v -0.005000 0.608715 -0.300381
v -0.005000 -0.006433 -0.447326
v -0.005000 0.591285 -0.499619
v 0.195000 -0.006433 -0.447326
v 0.195000 0.591285 -0.499619
v -0.200000 1.182569 -0.150761
v 0.200000 1.182569 -0.150761
v 0.200000 1.581046 -0.115899
v -0.200000 1.581046 -0.115899
v -0.200000 1.217431 -0.549239
v -0.200000 1.615909 -0.514377
v 0.200000 1.217431 -0.549239
v 0.200000 1.615909 -0.514377
v -0.150248 0.034608 -0.160669
v 0.046526 0.035615 -0.196431
v 0.020752 0.621819 -0.321735
v -0.176022 0.620811 -0.285973
v -0.184978 -0.008022 -0.352962
v -0.210752 0.578181 -0.478266
v 0.011796 -0.007015 -0.388724
v -0.013978 0.579189 -0.514027
v -0.017500 -0.000364 -0.234546
v 0.207500 -0.000364 -0.234546
v 0.207500 0.622258 -0.289018
v -0.017500 0.622258 -0.289018
v -0.017500 -0.019974 -0.458689
v -0.017500 0.602647 -0.513162
v 0.207500 -0.019974 -0.458689
v 0.207500 0.602647 -0.513162
v -0.092568 0.803913 -0.110250
v 0.067906 0.723306 -0.022214
v 0.409108 1.167389 -0.237557
v 0.248634 1.247995 -0.325594
v -0.056338 0.696254 -0.274862
v 0.284863 1.140335 -0.490206
v 0.104136 0.615647 -0.186825
v 0.445338 1.059729 -0.402169
v -0.212500 0.587500 -0.287500
v 0.212500 0.587500 -0.287500
v 0.212500 1.212500 -0.287500
v -0.212500 1.212500 -0.287500
v -0.212500 0.587500 -0.512500
v -0.212500 1.212500 -0.512500
v 0.212500 0.587500 -0.512500
v 0.212500 1.212500 -0.512500
v -0.028465 0.857967 0.018142
v 0.122416 0.922933 -0.095938
v -0.263256 1.247938 -0.420944
v -0.414138 1.182973 -0.306863
v -0.055070 0.702910 -0.105346
v -0.440742 1.027914 -0.430351
v 0.095812 0.767874 -0.219426
v -0.289861 1.092880 -0.544431
v -0.028198 0.856827 0.039761
v 0.141544 0.929914 -0.088580
v -0.260198 1.268460 -0.427127
v -0.429940 1.195374 -0.298786
v -0.058127 0.682387 -0.099163
v -0.459870 1.020934 -0.437710
v 0.111614 0.755473 -0.227503
v -0.290128 1.094020 -0.566050
v -0.111970 0.806428 -0.100978
v 0.068563 0.715746 -0.001937
v 0.423982 1.178331 -0.226253
v 0.243448 1.269014 -0.325294
v -0.071212 0.685311 -0.286166
v 0.284206 1.147897 -0.510482
v 0.109322 0.594629 -0.187124
v 0.464740 1.057214 -0.411441
v -0.200000 0.600000 -0.300000
v 0.200000 0.600000 -0.300000
v 0.200000 1.200000 -0.300000
v -0.200000 1.200000 -0.300000
v -0.200000 0.600000 -0.500000
v -0.200000 1.200000 -0.500000
v 0.200000 0.600000 -0.500000
v 0.200000 1.200000 -0.500000
v -0.225000 1.155485 -0.128035
v 0.225000 1.155485 -0.128035
v 0.225000 1.603773 -0.088815
v -0.225000 1.603773 -0.088815
v -0.225000 1.194706 -0.576322
v -0.225000 1.642993 -0.537102
v 0.225000 1.194706 -0.576322
v 0.225000 1.642993 -0.537102
v -0.159839 0.024997 -0.143806
v 0.061532 0.026130 -0.184038
v 0.034684 0.636758 -0.314562
v -0.186687 0.635626 -0.274330
v -0.198910 -0.022962 -0.360134
v -0.225758 0.587666 -0.490659
v 0.022461 -0.021829 -0.400367
v -0.004387 0.588800 -0.530891
vt 0.3125 0.0000
vt 0.3750 0.0000
vt 0.3750 0.1875
vt 0.3125 0.1875
vt 0.2500 0.0000
vt 0.2500 0.1875
vt 0.4375 0.0000
vt 0.5000 0.0000
vt 0.5000 0.1875
vt 0.4375 0.1875
vt 0.3750 0.2500
vt 0.3125 0.2500
vt 0.4375 0.1875
vt 0.3750 0.1875
vt 0.3750 0.2500
vt 0.4375 0.2500
vt 0.1250 0.7500
vt 0.2500 0.7500
vt 0.2500 0.8750
vt 0.1250 0.8750
vt 0.0000 0.7500
vt 0.0000 0.8750
vt 0.3750 0.7500
vt 0.5000 0.7500
vt 0.5000 0.8750
vt 0.3750 0.8750
vt 0.2500 1.0000
vt 0.1250 1.0000
vt 0.3750 0.8750
vt 0.2500 0.8750
vt 0.2500 1.0000
vt 0.3750 1.0000
vt 0.0625 0.5000
vt 0.1250 0.5000
vt 0.1250 0.6875
vt 0.0625 0.6875
vt 0.0000 0.5000
vt 0.0000 0.6875
vt 0.1875 0.5000
vt 0.2500 0.5000
vt 0.2500 0.6875
vt 0.1875 0.6875
vt 0.1250 0.7500
vt 0.0625 0.7500
vt 0.1875 0.6875
vt 0.1250 0.6875
vt 0.1250 0.7500
vt 0.1875 0.7500
vt 0.0625 0.0000
vt 0.1250 0.0000
vt 0.1250 0.1875
vt 0.0625 0.1875
vt 0.0000 0.0000
vt 0.0000 0.1875
vt 0.1875 0.0000
vt 0.2500 0.0000
vt 0.2500 0.1875
vt 0.1875 0.1875
vt 0.1250 0.2500
vt 0.0625 0.2500
vt 0.1875 0.1875
vt 0.1250 0.1875
vt 0.1250 0.2500
vt 0.1875 0.2500
vt 0.5625 0.0000
vt 0.6250 0.0000
vt 0.6250 0.1875
vt 0.5625 0.1875
vt 0.5000 0.0000
vt 0.5000 0.1875
vt 0.6875 0.0000
vt 0.7500 0.0000
vt 0.7500 0.1875
vt 0.6875 0.1875
vt 0.6250 0.2500
vt 0.5625 0.2500
vt 0.6875 0.1875
vt 0.6250 0.1875
vt 0.6250 0.2500
vt 0.6875 0.2500
vt 0.3125 0.2500
vt 0.4375 0.2500
vt 0.4375 0.4375
vt 0.3125 0.4375
vt 0.2500 0.2500
vt 0.2500 0.4375
vt 0.5000 0.2500
vt 0.6250 0.2500
vt 0.6250 0.4375
vt 0.5000 0.4375
vt 0.4375 0.5000
vt 0.3125 0.5000
vt 0.5625 0.4375
vt 0.4375 0.4375
vt 0.4375 0.5000
vt 0.5625 0.5000
vt 0.6875 0.5000
vt 0.7500 0.5000
vt 0.7500 0.6875
vt 0.6875 0.6875
vt 0.6250 0.5000
vt 0.6250 0.6875
vt 0.8125 0.5000
vt 0.8750 0.5000
vt 0.8750 0.6875
vt 0.8125 0.6875
vt 0.7500 0.7500
vt 0.6875 0.7500
vt 0.8125 0.6875
vt 0.7500 0.6875
vt 0.7500 0.7500
vt 0.8125 0.7500
vt 0.6875 0.2500
vt 0.7500 0.2500
vt 0.7500 0.4375
vt 0.6875 0.4375
vt 0.6250 0.2500
vt 0.6250 0.4375
vt 0.8125 0.2500
vt 0.8750 0.2500
vt 0.8750 0.4375
vt 0.8125 0.4375
vt 0.7500 0.5000
vt 0.6875 0.5000
vt 0.8125 0.4375
vt 0.7500 0.4375
vt 0.7500 0.5000
vt 0.8125 0.5000
vt 0.8125 0.0000
vt 0.8750 0.0000
vt 0.8750 0.1875
vt 0.8125 0.1875
vt 0.7500 0.0000
vt 0.7500 0.1875
vt 0.9375 0.0000
vt 1.0000 0.0000
vt 1.0000 0.1875
vt 0.9375 0.1875
vt 0.8750 0.2500
vt 0.8125 0.2500
vt 0.9375 0.1875
vt 0.8750 0.1875
vt 0.8750 0.2500
vt 0.9375 0.2500
vt 0.3125 0.5000
vt 0.4375 0.5000
vt 0.4375 0.6875
vt 0.3125 0.6875
vt 0.2500 0.5000
vt 0.2500 0.6875
vt 0.5000 0.5000
vt 0.6250 0.5000
vt 0.6250 0.6875
vt 0.5000 0.6875
vt 0.4375 0.7500
vt 0.3125 0.7500
vt 0.5625 0.6875
vt 0.4375 0.6875
vt 0.4375 0.7500
vt 0.5625 0.7500
vt 0.6250 0.7500
vt 0.7500 0.7500
vt 0.7500 0.8750
vt 0.6250 0.8750
vt 0.5000 0.7500
vt 0.5000 0.8750
vt 0.8750 0.7500
vt 1.0000 0.7500
vt 1.0000 0.8750
vt 0.8750 0.8750
vt 0.7500 1.0000
vt 0.6250 1.0000
vt 0.8750 0.8750
vt 0.7500 0.8750
vt 0.7500 1.0000
vt 0.8750 1.0000
vt 0.0625 0.2500
vt 0.1250 0.2500
vt 0.1250 0.4375
vt 0.0625 0.4375
vt 0.0000 0.2500
vt 0.0000 0.4375
vt 0.1875 0.2500
vt 0.2500 0.2500
vt 0.2500 0.4375
vt 0.1875 0.4375
vt 0.1250 0.5000
vt 0.0625 0.5000
vt 0.1875 0.4375
vt 0.1250 0.4375
vt 0.1250 0.5000
vt 0.1875 0.5000
vn 0.0000 0.0872 0.9962
vn -1.0000 0.0000 0.0000
vn 0.0000 -0.0872 -0.9962
vn 1.0000 0.0000 0.0000
vn 0.0000 0.9962 -0.0872
vn 0.0000 -0.9962 0.0872
vn 0.0000 -0.0872 0.9962
vn 0.0000 0.0872 -0.9962
vn 0.0000 0.9962 0.0872
vn 0.0000 -0.9962 -0.0872
vn 0.1736 0.2132 0.9615
vn -0.9839 -0.0050 0.1788
vn -0.1736 -0.2132 -0.9615
vn 0.9839 0.0050 -0.1788
vn -0.0430 0.9770 -0.2088
vn 0.0430 -0.9770 0.2088
vn -0.1811 0.5383 0.8231
vn -0.8024 0.4030 -0.4402
vn 0.1811 -0.5383 -0.8231
vn 0.8024 -0.4030 0.4402
vn 0.5687 0.7401 -0.3589
vn -0.5687 -0.7401 0.3589
vn 0.0000 -0.0000 1.0000
vn 0.0000 0.0000 -1.0000
vn 0.0000 1.0000 0.0000
vn 0.0000 -1.0000 0.0000
vn 0.1330 0.7753 0.6174
vn -0.7544 -0.3248 0.5704
vn -0.1330 -0.7753 -0.6174
vn 0.7544 0.3248 -0.5704
vn -0.6428 0.5417 -0.5417
vn 0.6428 -0.5417 0.5417
usemtl m_0.006
s 1
f 1/1/1 2/2/1 3/3/1 4/4/1
f 5/5/2 1/1/2 4/4/2 6/6/2
f 7/7/3 5/8/3 6/9/3 8/10/3
f 2/2/4 7/7/4 8/10/4 3/3/4
f 8/11/5 6/12/5 4/4/5 3/3/5
f 2/13/6 1/14/6 5/15/6 7/16/6
f 9/17/7 10/18/7 11/19/7 12/20/7
f 13/21/2 9/17/2 12/20/2 14/22/2
f 15/23/8 13/24/8 14/25/8 16/26/8
f 10/18/4 15/23/4 16/26/4 11/19/4
f 16/27/9 14/28/9 12/20/9 11/19/9
f 10/29/10 9/30/10 13/31/10 15/32/10
f 17/33/11 18/34/11 19/35/11 20/36/11
f 21/37/12 17/33/12 20/36/12 22/38/12
f 23/39/13 21/40/13 22/41/13 24/42/13
f 18/34/14 23/39/14 24/42/14 19/35/14
f 24/43/15 22/44/15 20/36/15 19/35/15
f 18/45/16 17/46/16 21/47/16 23/48/16
f 25/49/1 26/50/1 27/51/1 28/52/1
f 29/53/2 25/49/2 28/52/2 30/54/2
f 31/55/3 29/56/3 30/57/3 32/58/3
f 26/50/4 31/55/4 32/58/4 27/51/4
f 32/59/5 30/60/5 28/52/5 27/51/5
f 26/61/6 25/62/6 29/63/6 31/64/6
f 33/65/17 34/66/17 35/67/17 36/68/17
f 37/69/18 33/65/18 36/68/18 38/70/18
f 39/71/19 37/72/19 38/73/19 40/74/19
f 34/66/20 39/71/20 40/74/20 35/67/20
f 40/75/21 38/76/21 36/68/21 35/67/21
f 34/77/22 33/78/22 37/79/22 39/80/22
f 41/81/23 42/82/23 43/83/23 44/84/23
f 45/85/2 41/81/2 44/84/2 46/86/2
f 47/87/24 45/88/24 46/89/24 48/90/24
f 42/82/4 47/87/4 48/90/4 43/83/4
f 48/91/25 46/92/25 44/84/25 43/83/25
f 42/93/26 41/94/26 45/95/26 47/96/26
f 49/97/27 50/98/27 51/99/27 52/100/27
f 53/101/28 49/97/28 52/100/28 54/102/28
f 55/103/29 53/104/29 54/105/29 56/106/29
f 50/98/30 55/103/30 56/106/30 51/99/30
f 56/107/31 54/108/31 52/100/31 51/99/31
f 50/109/32 49/110/32 53/111/32 55/112/32
f 57/113/27 58/114/27 59/115/27 60/116/27
f 61/117/28 57/113/28 60/116/28 62/118/28
f 63/119/29 61/120/29 62/121/29 64/122/29
f 58/114/30 63/119/30 64/122/30 59/115/30
f 64/123/31 62/124/31 60/116/31 59/115/31
f 58/125/32 57/126/32 61/127/32 63/128/32
f 65/129/17 66/130/17 67/131/17 68/132/17
f 69/133/18 65/129/18 68/132/18 70/134/18
f 71/135/19 69/136/19 70/137/19 72/138/19
f 66/130/20 71/135/20 72/138/20 67/131/20
f 72/139/21 70/140/21 68/132/21 67/131/21
f 66/141/22 65/142/22 69/143/22 71/144/22
f 73/145/23 74/146/23 75/147/23 76/148/23
f 77/149/2 73/145/2 76/148/2 78/150/2
f 79/151/24 77/152/24 78/153/24 80/154/24
f 74/146/4 79/151/4 80/154/4 75/147/4
f 80/155/25 78/156/25 76/148/25 75/147/25
f 74/157/26 73/158/26 77/159/26 79/160/26
f 81/161/7 82/162/7 83/163/7 84/164/7
f 85/165/2 81/161/2 84/164/2 86/166/2
f 87/167/8 85/168/8 86/169/8 88/170/8
f 82/162/4 87/167/4 88/170/4 83/163/4
f 88/171/9 86/172/9 84/164/9 83/163/9
f 82/173/10 81/174/10 85/175/10 87/176/10
f 89/177/11 90/178/11 91/179/11 92/180/11
f 93/181/12 89/177/12 92/180/12 94/182/12
f 95/183/13 93/184/13 94/185/13 96/186/13
f 90/178/14 95/183/14 96/186/14 91/179/14
f 96/187/15 94/188/15 92/180/15 91/179/15
f 90/189/16 89/190/16 93/191/16 95/192/16
