# Blender v2.78 (sub 0) OBJ File: ''
# www.blender.org
mtllib boat.mtl
o &HeadLight_fde4c5_fffff_000
v -0.390625 0.171875 1.120419
v -0.234375 0.171875 1.120419
v -0.234375 0.328125 1.120419
v -0.390625 0.328125 1.120419
v 0.234375 0.171875 1.112606
v 0.390625 0.171875 1.112606
v 0.390625 0.328125 1.112606
v 0.234375 0.328125 1.112606
vt 0.9141 0.0312
vt 0.9219 0.0312
vt 0.9219 0.0469
vt 0.9141 0.0469
vt 0.9219 0.0312
vt 0.9141 0.0312
vt 0.9141 0.0469
vt 0.9219 0.0469
vn 0.0000 0.0000 1.0000
usemtl m_0
s 1
f 1/1/1 2/2/1 3/3/1 4/4/1
f 5/5/1 6/6/1 7/7/1 8/8/1
o cube
v 0.250000 0.143227 0.802882
v -0.250000 0.143227 0.802882
v -0.250000 0.378150 0.888387
v 0.250000 0.378150 0.888387
v 0.046875 0.212891 -1.156250
v 0.062500 0.212891 -1.156250
v 0.062500 0.212891 -1.062500
v 0.046875 0.212891 -1.062500
v -0.046875 0.212891 -0.937500
v -0.046875 0.212891 -1.062500
v -0.046875 0.291016 -1.062500
v -0.046875 0.291016 -0.937500
v 0.042299 0.212891 -1.051451
v 0.050585 0.212891 -1.059738
v 0.050585 0.291016 -1.059738
v 0.042299 0.291016 -1.051451
v 0.046875 0.212891 -1.062500
v -0.046875 0.212891 -1.062500
v -0.046875 0.291016 -1.062500
v 0.046875 0.291016 -1.062500
v -0.500000 -0.130859 0.875000
v -0.500000 -0.130859 -0.875000
v -0.500000 -0.318359 -0.875000
v -0.500000 -0.318359 0.875000
v -0.046875 0.212891 -0.937500
v -0.046875 0.291016 -0.937500
v -0.437500 0.375000 1.054688
v -0.187500 0.375000 1.054688
v -0.187500 0.375000 0.992188
v -0.437500 0.375000 0.992188
v 0.625000 0.244141 0.875000
v 0.625000 0.244141 -0.875000
v 0.500000 0.244141 -0.875000
v 0.500000 0.244141 0.875000
v 0.062500 0.212891 -1.062500
v 0.046875 0.212891 -1.062500
v 0.046875 0.291016 -1.062500
v 0.062500 0.291016 -1.062500
v -0.500000 -0.130859 0.875000
v 0.500000 -0.130859 0.875000
v 0.500000 -0.130859 1.000000
v -0.500000 -0.130859 1.000000
v 0.062500 0.291016 -1.156250
v 0.062500 0.291016 -1.062500
v 0.046875 0.212891 -1.171875
v -0.046875 0.212891 -1.171875
v -0.046875 0.291016 -1.171875
v 0.046875 0.291016 -1.171875
v 0.035826 0.212891 -1.160826
v 0.044113 0.212891 -1.152540
v 0.044113 0.291016 -1.152540
v 0.035826 0.291016 -1.160826
v 0.046875 0.212891 -0.937500
v 0.062500 0.212891 -0.937500
v 0.062500 0.291016 -0.937500
v 0.046875 0.291016 -0.937500
v -0.406250 0.156250 0.960938
v -0.406250 0.156250 0.992188
v -0.406250 0.343750 0.992188
v -0.406250 0.343750 0.960938
v 0.625000 -0.130859 -0.875000
v 0.500000 -0.130859 -0.875000
v 0.625000 -0.130859 0.875000
v 0.406250 0.156250 0.953125
v 0.218750 0.156250 0.953125
v 0.218750 0.343750 0.953125
v 0.406250 0.343750 0.953125
v -0.046875 0.212891 -1.171875
v -0.055161 0.212891 -1.163589
v -0.055161 0.291016 -1.163589
v -0.046875 0.291016 -1.171875
v 0.218750 0.343750 0.984375
v 0.406250 0.343750 0.984375
v 0.187500 0.125000 1.046875
v 0.437500 0.125000 1.046875
v 0.437500 0.375000 1.046875
v 0.187500 0.375000 1.046875
v 0.187500 0.125000 0.984375
v 0.187500 0.375000 0.984375
v 0.406250 0.156250 0.984375
v -0.062500 0.212891 -1.156250
v -0.062500 0.212891 -1.062500
v -0.062500 0.291016 -1.062500
v -0.062500 0.291016 -1.156250
v 0.500000 -0.318359 -0.875000
v 0.500000 -0.318359 0.875000
v 0.500000 -0.130859 -0.875000
v -0.046875 0.212891 -1.156250
v 0.046875 0.212891 -1.156250
v 0.046875 0.291016 -1.156250
v -0.046875 0.291016 -1.156250
v -0.250000 0.121850 0.861613
v -0.250000 0.356773 0.947118
v -0.218750 0.156250 0.960938
v -0.218750 0.343750 0.960938
v 0.055161 0.291016 -1.163589
v 0.046875 0.291016 -1.171875
v 0.250000 0.121850 0.861613
v 0.250000 0.356773 0.947118
v -0.046875 0.212891 -1.078125
v -0.057924 0.212891 -1.067076
v -0.057924 0.291016 -1.067076
v -0.046875 0.291016 -1.078125
v 0.562500 -0.130859 -1.000000
v -0.562500 -0.130859 -1.000000
v -0.562500 0.244141 -1.000000
v 0.562500 0.244141 -1.000000
v -0.046875 0.212891 -1.156250
v -0.046875 0.212891 -1.062500
v -0.042299 0.291016 -1.051451
v -0.031250 0.291016 -1.062500
v -0.039536 0.291016 -1.070786
v -0.050585 0.291016 -1.059738
v -0.044113 0.291016 -1.152540
v -0.035826 0.291016 -1.160826
v -0.038589 0.212891 -1.069839
v -0.049637 0.212891 -1.058790
v -0.038589 0.291016 -1.069839
v -0.049637 0.291016 -1.058790
v -0.062500 0.212891 -0.937500
v -0.062500 0.291016 -0.937500
v -0.218750 0.343750 0.992188
v 0.055161 0.212891 -1.163589
v 0.046875 0.212891 -1.171875
v -0.035826 0.212891 -1.160826
v -0.044113 0.212891 -1.152540
v -0.050585 0.212891 -1.059738
v -0.042299 0.212891 -1.051451
v -0.054214 0.212891 -1.164536
v -0.062500 0.212891 -1.156250
v -0.062500 0.291016 -1.156250
v -0.054214 0.291016 -1.164536
v 0.500000 -0.130859 0.875000
v 0.039536 0.212891 -1.070786
v 0.031250 0.212891 -1.062500
v 0.038589 0.291016 -1.069839
v 0.049637 0.291016 -1.058790
v 0.057924 0.291016 -1.067076
v 0.046875 0.291016 -1.078125
v -0.031250 0.212891 -1.062500
v 0.031250 0.291016 -1.062500
v -0.500000 0.244141 0.875000
v 0.500000 0.244141 0.875000
v -0.039536 0.212891 -1.070786
v -0.437500 0.125000 1.054688
v -0.187500 0.125000 1.054688
v -0.218750 0.156250 0.992188
v 0.562500 -0.130859 -0.875000
v 0.562500 0.244141 -0.875000
v -0.625000 0.244141 -0.875000
v -0.625000 0.244141 0.875000
v -0.500000 0.244141 0.875000
v -0.500000 0.244141 -0.875000
v 0.046875 0.291016 -1.062500
v -0.062500 0.212891 -1.062500
v -0.062500 0.291016 -1.062500
v 0.437500 0.125000 0.984375
v 0.437500 0.375000 0.984375
v -0.562500 -0.130859 -0.875000
v -0.562500 0.244141 -0.875000
v 0.046875 0.291016 -1.156250
v -0.187500 0.125000 0.992188
v -0.437500 0.125000 0.992188
v 0.039536 0.291016 -1.070786
v -0.500000 -0.130859 0.875000
v -0.500000 -0.130859 -0.875000
v -0.051451 0.212891 -1.145201
v -0.043165 0.212891 -1.153488
v -0.043165 0.291016 -1.153488
v -0.051451 0.291016 -1.145201
v -0.625000 -0.130859 0.875000
v -0.625000 -0.130859 -0.875000
v 0.500000 0.244141 1.000000
v 0.057924 0.212891 -1.067076
v 0.046875 0.212891 -1.078125
v 0.038589 0.212891 -1.069839
v 0.049637 0.212891 -1.058790
v -0.046875 0.291016 -1.062500
v 0.051451 0.291016 -1.145201
v 0.062500 0.291016 -1.156250
v 0.054214 0.291016 -1.164536
v 0.043165 0.291016 -1.153488
v 0.062500 0.212891 -1.156250
v 0.054214 0.212891 -1.164536
v -0.046875 0.291016 -1.156250
v -0.500000 0.244141 1.000000
v 0.218750 0.156250 0.984375
v 0.043165 0.212891 -1.153488
v 0.051451 0.212891 -1.145201
v 0.500000 -0.130859 0.875000
v 0.046875 0.212891 -0.937500
v 0.046875 0.291016 -0.937500
vt 0.8750 0.8125
vt 1.0000 0.8125
vt 1.0000 0.9375
vt 0.8750 0.9375
vt 0.9609 0.2500
vt 0.9609 0.2656
vt 1.0000 0.2656
vt 1.0000 0.2500
vt 1.0000 0.9375
vt 0.9688 0.9375
vt 0.9688 1.0000
vt 1.0000 1.0000
vt 1.0000 0.9375
vt 0.9688 0.9375
vt 0.9688 1.0000
vt 1.0000 1.0000
vt 0.9375 0.2500
vt 0.9375 0.3125
vt 0.9062 0.3125
vt 0.9062 0.2500
vt 0.0234 1.0000
vt 0.2422 1.0000
vt 0.2422 0.9531
vt 0.0234 0.9531
vt 0.9688 0.9375
vt 1.0000 0.9375
vt 1.0000 1.0000
vt 0.9688 1.0000
vt 0.8594 0.0000
vt 0.9219 0.0000
vt 0.9219 0.0312
vt 0.8594 0.0312
vt 0.0156 0.3281
vt 0.2344 0.3281
vt 0.2344 0.2969
vt 0.0156 0.2969
vt 0.9688 0.9375
vt 1.0000 0.9375
vt 1.0000 1.0000
vt 0.9688 1.0000
vt 0.1406 0.5469
vt 0.2656 0.5469
vt 0.2656 0.5781
vt 0.1406 0.5781
vt 0.9609 0.2500
vt 1.0000 0.2500
vt 1.0000 0.3125
vt 0.9609 0.3125
vt 0.9297 0.2500
vt 0.9688 0.2500
vt 0.9688 0.3125
vt 0.9297 0.3125
vt 0.9922 0.2500
vt 1.0000 0.2500
vt 1.0000 0.3125
vt 0.9922 0.3125
vt 0.9688 0.9375
vt 1.0000 0.9375
vt 1.0000 1.0000
vt 0.9688 1.0000
vt 0.9453 0.1406
vt 0.9531 0.1406
vt 0.9531 0.2344
vt 0.9453 0.2344
vt 0.9062 0.3125
vt 0.9062 0.2969
vt 0.9609 0.2969
vt 0.9609 0.3125
vt 0.2500 0.2031
vt 0.2344 0.2031
vt 0.2500 0.2969
vt 0.4688 0.2031
vt 0.4688 0.2969
vt 0.9922 0.1406
vt 0.9453 0.1406
vt 0.9453 0.2344
vt 0.9922 0.2344
vt 1.0000 0.2500
vt 0.9922 0.2500
vt 0.9922 0.3125
vt 1.0000 0.3125
vt 0.9922 0.2188
vt 0.9453 0.2188
vt 0.9453 0.2344
vt 0.9922 0.2344
vt 1.0000 0.0000
vt 0.9375 0.0000
vt 0.9375 0.1250
vt 1.0000 0.1250
vt 0.9375 0.0000
vt 0.9219 0.0000
vt 0.9219 0.1250
vt 0.9375 0.1250
vt 0.9531 0.1406
vt 0.9453 0.1406
vt 0.9531 0.2344
vt 1.0000 0.2500
vt 0.9609 0.2500
vt 0.9609 0.3125
vt 1.0000 0.3125
vt 0.9062 0.2500
vt 0.9609 0.2500
vt 0.9609 0.3125
vt 0.9062 0.3125
vt 0.2422 0.7031
vt 0.0234 0.7031
vt 0.2656 0.7031
vt 0.2656 0.9531
vt 0.9688 0.2500
vt 0.9297 0.2500
vt 0.9297 0.3125
vt 0.9688 0.3125
vt 0.9141 0.9375
vt 0.9219 0.9375
vt 0.9219 1.0000
vt 0.9141 1.0000
vt 0.9453 0.1406
vt 0.9922 0.1406
vt 0.9922 0.2344
vt 0.9453 0.2344
vt 0.9922 0.2969
vt 1.0000 0.2969
vt 1.0000 0.3125
vt 0.9062 0.9375
vt 0.9141 0.9375
vt 0.9141 1.0000
vt 0.9062 1.0000
vt 0.9688 0.9375
vt 1.0000 0.9375
vt 1.0000 1.0000
vt 0.9688 1.0000
vt 0.9062 0.2656
vt 0.9062 0.2500
vt 0.9609 0.2500
vt 0.9609 0.2656
vt 0.3125 0.5781
vt 0.1719 0.5781
vt 0.1719 0.6719
vt 0.3125 0.6719
vt 0.9609 0.2656
vt 0.9609 0.2500
vt 1.0000 0.2500
vt 1.0000 0.2656
vt 1.0000 0.3125
vt 1.0000 0.2969
vt 0.9922 0.2969
vt 0.9922 0.3125
vt 1.0000 0.2969
vt 0.9922 0.2969
vt 0.9922 0.3125
vt 1.0000 0.2656
vt 1.0000 0.2500
vt 0.9922 0.2500
vt 0.9922 0.2656
vt 0.9688 0.9375
vt 1.0000 0.9375
vt 1.0000 1.0000
vt 0.9688 1.0000
vt 1.0000 0.9375
vt 0.9688 0.9375
vt 0.9688 1.0000
vt 1.0000 1.0000
vt 0.9453 0.2188
vt 0.9922 0.2188
vt 0.9922 0.2344
vt 0.9922 0.2500
vt 1.0000 0.2500
vt 0.9922 0.3125
vt 0.9922 0.2500
vt 0.9922 0.2656
vt 1.0000 0.2656
vt 0.9688 0.9375
vt 1.0000 0.9375
vt 1.0000 1.0000
vt 0.9688 1.0000
vt 0.9688 0.9375
vt 1.0000 0.9375
vt 1.0000 1.0000
vt 0.9688 1.0000
vt 1.0000 0.2500
vt 0.9922 0.2500
vt 0.9922 0.3125
vt 1.0000 0.3125
vt 0.0156 0.2031
vt 0.0000 0.2031
vt 0.0000 0.2969
vt 1.0000 0.2500
vt 1.0000 0.2656
vt 0.9922 0.2656
vt 0.9922 0.2500
vt 1.0000 0.2969
vt 1.0000 0.3125
vt 0.9922 0.3125
vt 0.9922 0.2969
vt 0.9688 0.9375
vt 1.0000 0.9375
vt 1.0000 1.0000
vt 0.9688 1.0000
vt 1.0000 0.9375
vt 0.9688 0.9375
vt 0.9688 1.0000
vt 1.0000 1.0000
vt 0.1406 0.4531
vt 0.0156 0.4531
vt 0.0156 0.5469
vt 0.1406 0.5469
vt 1.0000 0.2656
vt 1.0000 0.2500
vt 0.9922 0.2500
vt 0.9922 0.2656
vt 0.9688 0.9375
vt 1.0000 0.9375
vt 1.0000 1.0000
vt 0.9688 1.0000
vt 0.9375 0.0000
vt 1.0000 0.0000
vt 1.0000 0.1250
vt 0.9375 0.1250
vt 0.2344 0.2969
vt 0.4531 0.2969
vt 0.4531 0.3281
vt 0.2344 0.3281
vt 0.9922 0.1406
vt 0.9922 0.1562
vt 0.9453 0.1562
vt 0.9688 0.9375
vt 1.0000 0.9375
vt 1.0000 1.0000
vt 0.9688 1.0000
vt 0.0156 0.5781
vt 0.0000 0.5781
vt 0.0000 0.6719
vt 0.0156 0.6719
vt 0.0156 0.4531
vt 0.2344 0.4531
vt 0.2344 0.4219
vt 0.0156 0.4219
vt 0.9688 0.9375
vt 1.0000 0.9375
vt 1.0000 1.0000
vt 0.9688 1.0000
vt 1.0000 0.9375
vt 0.9688 0.9375
vt 0.9688 1.0000
vt 1.0000 1.0000
vt 0.9219 0.0000
vt 0.9219 0.1250
vt 0.1562 0.5781
vt 0.1562 0.6719
vt 0.9609 0.2969
vt 1.0000 0.2969
vt 0.9375 0.1250
vt 1.0000 0.1250
vt 1.0000 0.2500
vt 0.9375 0.2500
vt 0.9297 0.2969
vt 0.9688 0.2969
vt 1.0000 0.2969
vt 1.0000 0.3125
vt 0.9922 0.3125
vt 0.9922 0.2969
vt 0.2344 0.3281
vt 0.0156 0.3281
vt 1.0000 0.2500
vt 0.9922 0.2500
vt 0.9922 0.3125
vt 1.0000 0.3125
vt 0.8750 0.6875
vt 1.0000 0.6875
vt 1.0000 0.8125
vt 0.8750 0.8125
vt 1.0000 0.1250
vt 0.9375 0.1250
vt 0.9375 0.2500
vt 1.0000 0.2500
vt 0.9062 0.2656
vt 0.9062 0.2500
vt 0.9609 0.2500
vt 0.9609 0.2656
vt 0.2344 0.4219
vt 0.4531 0.4219
vt 0.4531 0.4531
vt 0.2344 0.4531
vt 1.0000 0.9375
vt 0.9688 0.9375
vt 0.9688 1.0000
vt 1.0000 1.0000
vt 0.1562 0.4531
vt 0.1562 0.5469
vt 0.9922 0.2656
vt 1.0000 0.2656
vt 1.0000 0.3125
vt 1.0000 0.2969
vt 0.9922 0.2969
vt 0.9922 0.3125
vt 1.0000 0.9375
vt 0.9688 0.9375
vt 0.9688 1.0000
vt 1.0000 1.0000
vt 1.0000 0.9375
vt 0.9688 0.9375
vt 0.9688 1.0000
vt 1.0000 1.0000
vt 0.2500 0.3281
vt 0.2500 0.4219
vt 1.0000 0.9375
vt 0.9688 0.9375
vt 0.9688 1.0000
vt 1.0000 1.0000
vt 1.0000 0.9375
vt 0.9688 0.9375
vt 0.9688 1.0000
vt 1.0000 1.0000
vt 0.9922 0.2969
vt 1.0000 0.2969
vt 1.0000 0.3125
vt 0.9922 0.3125
vt 0.9688 0.9375
vt 1.0000 0.9375
vt 1.0000 1.0000
vt 0.9688 1.0000
vt 0.9922 0.2500
vt 1.0000 0.2500
vt 0.9922 0.3125
vt 0.9688 0.9375
vt 1.0000 0.9375
vt 1.0000 1.0000
vt 0.9688 1.0000
vt 0.9609 0.2969
vt 1.0000 0.2969
vt 1.0000 0.9375
vt 0.9688 0.9375
vt 0.9688 1.0000
vt 1.0000 1.0000
vt 0.9922 0.3125
vt 1.0000 0.3125
vt 0.9844 0.1406
vt 0.9844 0.2344
vt 0.9219 0.0000
vt 0.9375 0.0000
vt 0.9375 0.1250
vt 0.9219 0.1250
vt 0.2812 0.4531
vt 0.2812 0.5469
vt 1.0000 0.2500
vt 1.0000 0.3125
vt 1.0000 0.2656
vt 0.9922 0.2656
vt 1.0000 0.9375
vt 0.9688 0.9375
vt 0.9688 1.0000
vt 1.0000 1.0000
vt 1.0000 0.9375
vt 0.9688 0.9375
vt 0.9688 1.0000
vt 1.0000 1.0000
vt 0.9922 0.1406
vt 0.9453 0.1406
vt 0.9453 0.2344
vt 0.9922 0.2344
vt 0.9688 0.9375
vt 1.0000 0.9375
vt 1.0000 1.0000
vt 0.9688 1.0000
vt 1.0000 0.2500
vt 1.0000 0.2656
vt 0.9922 0.2656
vt 0.9922 0.2500
vt 0.9922 0.2500
vt 1.0000 0.2656
vt 0.9922 0.2656
vt 0.9688 0.9375
vt 1.0000 0.9375
vt 1.0000 1.0000
vt 0.9688 1.0000
vt 0.4844 0.7031
vt 0.4844 0.9531
vt 1.0000 0.3125
vt 0.9922 0.3125
vt 0.4688 0.3281
vt 0.4688 0.4219
vt 0.9219 0.0000
vt 0.8594 0.0000
vt 0.8594 0.0312
vt 0.9219 0.0312
vt 0.9922 0.1406
vt 0.9844 0.1406
vt 0.9844 0.2344
vt 0.9453 0.1562
vt 0.9922 0.1562
vt 1.0000 0.2969
vt 0.9922 0.2969
vt 0.9609 0.2500
vt 0.9609 0.3125
vt 0.9062 0.3125
vt 0.9062 0.2500
vt 0.9609 0.2500
vt 1.0000 0.2500
vt 1.0000 0.3125
vt 0.9609 0.3125
vt 0.9688 0.2656
vt 0.9297 0.2656
vt 1.0000 0.3125
vt 0.9922 0.3125
vt 0.9609 0.2500
vt 0.9609 0.3125
vt 0.9062 0.3125
vt 0.9062 0.2500
vt 0.9688 0.9375
vt 1.0000 0.9375
vt 1.0000 1.0000
vt 0.9688 1.0000
vt 0.8594 0.0000
vt 0.9219 0.0000
vt 0.9219 0.0312
vt 0.8594 0.0312
vt 1.0000 0.2500
vt 1.0000 0.3125
vt 0.9219 0.0000
vt 0.9219 0.1250
vt 0.9375 0.9844
vt 1.0000 0.9844
vt 1.0000 1.0000
vt 0.9375 1.0000
vt 0.9922 0.3125
vt 1.0000 0.3125
vt 0.9219 0.0000
vt 0.8594 0.0000
vt 0.8594 0.0312
vt 0.9219 0.0312
vt 1.0000 0.9375
vt 0.9688 0.9375
vt 0.9688 1.0000
vt 1.0000 1.0000
vt 0.0000 0.3281
vt 0.0000 0.4219
vt 0.9688 0.9375
vt 1.0000 0.9375
vt 1.0000 1.0000
vt 0.9688 1.0000
vt 0.0156 0.7031
vt 0.1562 0.7031
vt 0.9453 0.1406
vt 0.9922 0.1406
vt 0.9922 0.2344
vt 0.9453 0.2344
vt 0.9609 0.2500
vt 0.9062 0.2500
vt 0.9062 0.3125
vt 0.9609 0.3125
vt 0.0156 0.5781
vt 0.1406 0.5781
vt 0.9688 0.9375
vt 1.0000 0.9375
vt 1.0000 1.0000
vt 0.9688 1.0000
vt 0.9062 0.2969
vt 0.9062 0.3125
vt 0.9609 0.3125
vt 0.9609 0.2969
vt 0.9688 0.9375
vt 1.0000 0.9375
vt 1.0000 1.0000
vt 0.9688 1.0000
vt 0.9375 0.9688
vt 1.0000 0.9688
vt 1.0000 0.9844
vt 0.9375 0.9844
vt 1.0000 0.9375
vt 0.9688 0.9375
vt 0.9688 1.0000
vt 1.0000 1.0000
vt 0.9688 0.9375
vt 1.0000 0.9375
vt 1.0000 1.0000
vt 0.9688 1.0000
vt 0.2422 0.9531
vt 0.4609 0.9531
vt 0.4609 1.0000
vt 0.2422 1.0000
vt 1.0000 0.2500
vt 0.9609 0.2500
vt 0.9609 0.3125
vt 1.0000 0.3125
vt 0.1562 0.6719
vt 0.2969 0.6719
vt 0.2969 0.7031
vt 0.1562 0.7031
vt 0.0000 0.7031
vt 0.0000 0.9531
vt 0.0000 0.4531
vt 0.0000 0.5469
vn 0.0000 0.3420 -0.9397
vn 0.0000 -1.0000 0.0000
vn 1.0000 0.0000 0.0000
vn 0.7072 0.0000 0.7071
vn 0.0000 0.0000 -1.0000
vn -1.0000 0.0000 0.0000
vn 0.0000 1.0000 0.0000
vn -0.7071 0.0000 0.7071
vn 0.0000 0.0000 1.0000
vn -0.7071 0.0000 -0.7071
vn 0.7071 0.0000 0.7071
vn 0.7071 0.0000 -0.7071
vn -0.7072 0.0000 0.7071
vn 0.0000 -0.3420 0.9397
vn 0.0000 0.9397 0.3420
vn 0.0000 -0.9397 -0.3420
usemtl m_0
s 1
f 9/9/2 10/10/2 11/11/2 12/12/2
f 13/13/3 14/14/3 15/15/3 16/16/3
f 17/17/4 18/18/4 19/19/4 20/20/4
f 21/21/5 22/22/5 23/23/5 24/24/5
f 25/25/6 26/26/6 27/27/6 28/28/6
f 29/29/7 30/30/7 31/31/7 32/32/7
f 26/33/7 33/34/7 34/35/7 27/36/7
f 35/37/8 36/38/8 37/39/8 38/40/8
f 39/41/8 40/42/8 41/43/8 42/44/8
f 43/45/6 44/46/6 45/47/6 46/48/6
f 47/49/3 48/50/3 49/51/3 50/52/3
f 15/53/4 14/54/4 51/55/4 52/56/4
f 53/57/6 54/58/6 55/59/6 56/60/6
f 57/61/9 58/62/9 59/63/9 60/64/9
f 61/65/10 62/66/10 63/67/10 64/68/10
f 65/69/7 66/70/7 67/71/7 68/72/7
f 64/73/8 63/74/8 46/75/8 45/76/8
f 69/77/6 70/78/6 41/43/6 40/79/6
f 71/80/4 69/77/4 40/79/4 39/81/4
f 72/82/6 73/83/6 74/84/6 75/85/6
f 76/86/11 77/87/11 78/88/11 79/89/11
f 80/90/8 81/91/8 75/92/8 74/93/8
f 82/94/10 83/95/10 84/96/10 85/97/10
f 86/98/7 82/99/7 85/100/7 87/101/7
f 88/102/4 72/103/4 75/92/4 81/104/4
f 89/105/7 90/106/7 91/107/7 92/108/7
f 62/109/4 43/110/4 46/111/4 63/112/4
f 93/113/3 94/114/3 32/32/3 31/31/3
f 95/115/6 93/113/6 31/31/6 30/116/6
f 96/117/10 97/118/10 98/119/10 99/120/10
f 10/121/7 100/122/7 101/123/7 11/124/7
f 102/125/6 65/126/6 68/127/6 103/128/6
f 59/129/8 104/130/8 105/131/8 60/64/8
f 106/132/4 9/133/4 12/134/4 107/135/4
f 108/136/11 109/137/11 110/138/11 111/139/11
f 44/140/3 43/141/3 62/142/3 61/143/3
f 112/144/6 113/145/6 114/146/6 115/147/6
f 89/148/3 116/149/3 117/150/3 90/151/3
f 118/152/8 119/153/8 120/154/8 121/155/8
f 78/156/8 122/157/8 123/158/8 79/89/8
f 109/159/3 108/160/3 124/161/3 125/162/3
f 125/163/12 124/164/12 126/165/12 127/166/12
f 128/167/10 17/168/10 20/169/10 129/170/10
f 67/171/8 130/172/8 103/173/8 68/72/8
f 131/174/13 132/175/13 105/131/13 104/176/13
f 76/86/3 133/177/3 134/178/3 77/179/3
f 58/180/12 131/181/12 104/182/12 59/183/12
f 135/184/14 136/185/14 118/186/14 121/187/14
f 137/188/11 138/189/11 139/190/11 140/191/11
f 141/192/10 71/193/10 39/194/10 42/44/10
f 142/195/3 22/196/3 21/197/3 143/198/3
f 144/199/8 145/200/8 146/201/8 147/202/8
f 136/203/12 148/204/12 119/205/12 118/206/12
f 143/207/9 21/208/9 24/209/9 149/210/9
f 48/211/6 47/212/6 150/213/6 151/214/6
f 135/215/3 152/216/3 148/217/3 136/218/3
f 44/219/7 61/220/7 64/221/7 45/222/7
f 153/223/10 154/224/10 36/225/10 35/226/10
f 141/227/3 70/228/3 69/229/3 71/230/3
f 65/69/3 102/231/3 155/232/3 66/233/3
f 109/234/9 125/235/9 127/236/9 110/237/9
f 156/238/4 112/239/4 115/240/4 157/241/4
f 158/242/8 159/243/8 160/244/8 161/245/8
f 16/246/10 15/247/10 52/248/10 162/249/10
f 18/250/6 163/251/6 164/252/6 19/253/6
f 83/95/4 165/254/4 166/255/4 84/96/4
f 113/145/7 167/256/7 168/257/7 114/146/7
f 162/258/8 52/56/8 51/55/8 169/259/8
f 170/260/6 171/261/6 38/262/6 37/263/6
f 99/120/8 98/119/8 56/264/8 55/265/8
f 70/78/7 141/192/7 42/44/7 41/43/7
f 149/266/8 24/267/8 23/268/8 172/269/8
f 173/270/4 174/271/4 161/245/4 160/244/4
f 175/272/5 176/273/5 177/274/5 178/275/5
f 100/276/15 106/277/15 107/278/15 101/279/15
f 165/280/6 86/281/6 87/282/6 166/283/6
f 163/284/3 18/285/3 17/286/3 128/287/3
f 174/288/3 173/289/3 179/290/3 180/291/3
f 176/292/13 137/293/13 140/294/13 177/295/13
f 49/296/4 48/211/4 151/214/4 181/297/4
f 137/188/3 176/273/3 175/298/3 138/299/3
f 127/300/8 126/301/8 111/302/8 110/303/8
f 182/304/13 183/305/13 147/306/13 146/307/13
f 184/308/9 185/309/9 145/310/9 144/311/9
f 179/312/10 173/270/10 160/244/10 159/313/10
f 90/314/10 117/315/10 186/316/10 91/317/10
f 138/318/9 175/319/9 178/320/9 139/321/9
f 187/322/8 188/323/8 189/324/8 190/325/8
f 132/326/11 57/327/11 60/328/11 105/329/11
f 191/330/13 192/331/13 189/324/13 188/332/13
f 54/333/7 96/334/7 99/335/7 55/336/7
f 91/107/8 186/337/8 193/338/8 92/108/8
f 116/339/6 89/340/6 92/341/6 193/342/6
f 142/195/11 143/198/11 149/343/11 172/344/11
f 155/345/4 102/231/4 103/173/4 130/346/4
f 154/347/4 170/348/4 37/349/4 36/350/4
f 50/351/10 49/296/10 181/297/10 194/352/10
f 134/353/12 133/177/12 123/158/12 122/354/12
f 57/61/3 132/175/3 131/355/3 58/356/3
f 133/357/13 76/358/13 79/359/13 123/360/13
f 77/361/9 134/362/9 122/363/9 78/364/9
f 195/365/10 88/366/10 81/367/10 80/368/10
f 97/369/4 53/370/4 56/371/4 98/372/4
f 183/373/3 182/374/3 185/375/3 184/376/3
f 196/377/3 192/331/3 191/378/3 197/379/3
f 197/380/12 191/381/12 188/382/12 187/383/12
f 198/384/8 95/115/8 30/116/8 29/385/8
f 124/161/13 108/160/13 111/386/13 126/387/13
f 180/388/7 179/312/7 159/313/7 158/389/7
f 86/390/3 165/391/3 83/392/3 82/393/3
f 73/394/7 195/395/7 80/396/7 74/93/7
f 73/394/3 72/103/3 88/397/3 195/398/3
f 139/399/8 178/400/8 177/274/8 140/191/8
f 26/401/3 25/402/3 199/403/3 33/404/3
f 117/405/4 116/406/4 193/407/4 186/408/4
f 167/256/10 156/238/10 157/241/10 168/257/10
f 54/409/3 53/410/3 97/118/3 96/117/3
f 148/217/13 152/216/13 120/411/13 119/412/13
f 34/413/8 200/414/8 28/415/8 27/416/8
f 33/417/10 199/418/10 200/419/10 34/420/10
f 171/421/3 170/422/3 154/423/3 153/424/3
f 196/377/14 197/425/14 187/426/14 190/325/14
f 171/427/7 153/223/7 35/226/7 38/428/7
f 101/429/16 107/430/16 12/431/16 11/432/16
f 183/373/11 184/376/11 144/433/11 147/434/11
f 85/435/8 84/436/8 166/437/8 87/438/8
f 22/439/13 142/440/13 172/441/13 23/442/13
f 174/271/6 180/443/6 158/444/6 161/245/6
f 14/445/6 13/446/6 169/447/6 51/448/6
f 115/449/8 114/450/8 168/257/8 157/241/8
f 66/451/10 155/452/10 130/453/10 67/454/10
f 163/455/7 128/456/7 129/457/7 164/458/7
f 194/459/8 181/460/8 151/214/8 150/213/8
f 152/461/11 135/462/11 121/463/11 120/464/11
f 129/465/8 20/466/8 19/467/8 164/468/8
f 192/469/11 196/470/11 190/471/11 189/472/11
f 10/473/17 9/474/17 106/475/17 100/476/17
f 185/477/12 182/478/12 146/479/12 145/480/12
f 199/481/4 25/482/4 28/483/4 200/484/4
f 94/485/4 93/486/4 95/487/4 198/488/4
f 13/489/7 16/490/7 162/491/7 169/492/7
f 156/493/3 167/494/3 113/495/3 112/496/3
f 94/114/10 198/497/10 29/498/10 32/32/10
f 47/212/7 50/499/7 194/500/7 150/213/7
o &RunningLight_fdd8a9_fffff_010
v 0.218750 0.187500 1.047127
v 0.406250 0.187500 1.047127
v 0.406250 0.312500 1.047127
v 0.218750 0.312500 1.047127
v -0.375000 0.156250 1.054939
v -0.250000 0.156250 1.054939
v -0.250000 0.343750 1.054939
v -0.375000 0.343750 1.054939
v 0.250000 0.156250 1.047127
v 0.375000 0.156250 1.047127
v 0.375000 0.343750 1.047127
v 0.250000 0.343750 1.047127
v -0.406250 0.187500 1.054939
v -0.218750 0.187500 1.054939
v -0.218750 0.312500 1.054939
v -0.406250 0.312500 1.054939
vt 0.9219 0.0312
vt 0.9141 0.0312
vt 0.9141 0.0469
vt 0.9219 0.0469
vt 0.9141 0.0312
vt 0.9219 0.0312
vt 0.9219 0.0469
vt 0.9141 0.0469
vt 0.9219 0.0312
vt 0.9141 0.0312
vt 0.9141 0.0469
vt 0.9219 0.0469
vt 0.9141 0.0312
vt 0.9219 0.0312
vt 0.9219 0.0469
vt 0.9141 0.0469
vn 0.0000 0.0000 1.0000
usemtl m_0
s 1
f 201/501/18 202/502/18 203/503/18 204/504/18
f 205/505/18 206/506/18 207/507/18 208/508/18
f 209/509/18 210/510/18 211/511/18 212/512/18
f 213/513/18 214/514/18 215/515/18 216/516/18
