# Blender v2.79 (sub 0) OBJ File: ''
# www.blender.org
mtllib owlbert_vehicle.mtl
o owlbert_perched
v 0.046875 -0.046875 0.734375
v -0.046875 -0.046875 0.734375
v -0.046875 0.046875 0.734375
v 0.046875 0.046875 0.734375
v 0.046875 -0.046875 1.046875
v 0.046875 0.046875 1.046875
v -0.046875 -0.046875 1.046875
v -0.046875 0.046875 1.046875
v 0.062500 -0.054688 0.812500
v -0.062500 -0.054688 0.812500
v -0.062500 0.054687 0.812500
v 0.062500 0.054687 0.812500
v 0.062500 -0.054688 1.015625
v 0.062500 0.054687 1.015625
v -0.062500 -0.054688 1.015625
v -0.062500 0.054687 1.015625
v 0.093750 -0.070313 0.906250
v -0.093750 -0.070313 0.906250
v -0.093750 0.070312 0.906250
v 0.093750 0.070312 0.906250
v 0.093750 -0.070313 0.953125
v 0.093750 0.070312 0.953125
v -0.093750 -0.070313 0.953125
v -0.093750 0.070312 0.953125
v 0.078125 -0.062500 0.859375
v -0.078125 -0.062500 0.859375
v -0.078125 0.062500 0.859375
v 0.078125 0.062500 0.859375
v 0.078125 -0.062500 0.984375
v 0.078125 0.062500 0.984375
v -0.078125 -0.062500 0.984375
v -0.078125 0.062500 0.984375
vt 0.484375 0.953125
vt 0.437500 0.953125
vt 0.437500 1.000000
vt 0.484375 1.000000
vt 0.187500 0.843750
vt 0.187500 0.687500
vt 0.234375 0.687500
vt 0.234375 0.843750
vt 0.406250 0.640625
vt 0.453125 0.640625
vt 0.453125 0.687500
vt 0.406250 0.687500
vt 0.171875 0.687500
vt 0.171875 0.843750
vt 0.125000 0.843750
vt 0.125000 0.687500
vt 0.234375 1.000000
vt 0.187500 1.000000
vt 0.187500 0.843750
vt 0.234375 0.843750
vt 0.125000 0.843750
vt 0.171875 0.843750
vt 0.171875 1.000000
vt 0.125000 1.000000
vt 0.437500 0.695312
vt 0.375000 0.695312
vt 0.375000 0.750000
vt 0.437500 0.750000
vt 0.312500 0.812500
vt 0.312500 0.710938
vt 0.367188 0.710938
vt 0.367188 0.812500
vt 0.250000 0.570312
vt 0.312500 0.570312
vt 0.312500 0.625000
vt 0.250000 0.625000
vt 0.242188 0.585938
vt 0.242188 0.687500
vt 0.187500 0.687500
vt 0.187500 0.585938
vt 0.125000 0.687500
vt 0.125000 0.585938
vt 0.250000 0.710938
vt 0.250000 0.812500
vt 0.343750 0.835938
vt 0.250000 0.835938
vt 0.250000 0.906250
vt 0.343750 0.906250
vt 0.437500 0.875000
vt 0.437500 0.851562
vt 0.507812 0.851562
vt 0.507812 0.875000
vt 0.250000 0.929688
vt 0.343750 0.929688
vt 0.343750 1.000000
vt 0.250000 1.000000
vt 0.195312 0.539062
vt 0.195312 0.562500
vt 0.125000 0.562500
vt 0.125000 0.539062
vt 0.531250 0.906250
vt 0.437500 0.906250
vt 0.437500 0.882812
vt 0.531250 0.882812
vt 0.437500 0.914062
vt 0.531250 0.914062
vt 0.531250 0.937500
vt 0.437500 0.937500
vt 0.421875 0.812500
vt 0.343750 0.812500
vt 0.343750 0.875000
vt 0.421875 0.875000
vt 0.375000 0.812500
vt 0.375000 0.750000
vt 0.437500 0.750000
vt 0.437500 0.812500
vt 0.343750 0.875000
vt 0.421875 0.875000
vt 0.421875 0.937500
vt 0.343750 0.937500
vt 0.406250 0.625000
vt 0.406250 0.687500
vt 0.343750 0.687500
vt 0.343750 0.625000
vt 0.421875 1.000000
vt 0.343750 1.000000
vt 0.343750 0.937500
vt 0.421875 0.937500
vt 0.250000 0.625000
vt 0.328125 0.625000
vt 0.328125 0.687500
vt 0.250000 0.687500
vn 0.0000 0.0000 -1.0000
vn 1.0000 0.0000 0.0000
vn 0.0000 0.0000 1.0000
vn -1.0000 0.0000 0.0000
vn 0.0000 1.0000 0.0000
vn 0.0000 -1.0000 -0.0000
usemtl m_900b705e-c954-6982-e2db-fbe2d6ec5644
s 1
f 1/1/1 2/2/1 3/3/1 4/4/1
f 5/5/2 1/6/2 4/7/2 6/8/2
f 7/9/3 5/10/3 6/11/3 8/12/3
f 2/13/4 7/14/4 8/15/4 3/16/4
f 8/17/5 6/18/5 4/19/5 3/20/5
f 2/21/6 1/22/6 5/23/6 7/24/6
f 9/25/1 10/26/1 11/27/1 12/28/1
f 13/29/2 9/30/2 12/31/2 14/32/2
f 15/33/3 13/34/3 14/35/3 16/36/3
f 10/37/4 15/38/4 16/39/4 11/40/4
f 16/39/5 14/41/5 12/42/5 11/40/5
f 10/43/6 9/30/6 13/29/6 15/44/6
f 17/45/1 18/46/1 19/47/1 20/48/1
f 21/49/2 17/50/2 20/51/2 22/52/2
f 23/53/3 21/54/3 22/55/3 24/56/3
f 18/57/4 23/58/4 24/59/4 19/60/4
f 24/61/5 22/62/5 20/63/5 19/64/5
f 18/65/6 17/66/6 21/67/6 23/68/6
f 25/69/1 26/70/1 27/71/1 28/72/1
f 29/73/2 25/74/2 28/75/2 30/76/2
f 31/77/3 29/78/3 30/79/3 32/80/3
f 26/81/4 31/82/4 32/83/4 27/84/4
f 32/85/5 30/86/5 28/87/5 27/88/5
f 26/89/6 25/90/6 29/91/6 31/92/6
o owlbert_flying
v 0.046875 -0.046875 0.734375
v -0.046875 -0.046875 0.734375
v -0.046875 0.046875 0.734375
v 0.046875 0.046875 0.734375
v 0.046875 -0.046875 0.812500
v 0.046875 0.046875 0.812500
v -0.046875 -0.046875 0.812500
v -0.046875 0.046875 0.812500
v 0.062500 -0.054688 0.812500
v -0.062500 -0.054688 0.812500
v -0.062500 0.054687 0.812500
v 0.062500 0.054687 0.812500
v 0.062500 -0.054688 1.015625
v 0.062500 0.054687 1.015625
v -0.062500 -0.054688 1.015625
v -0.062500 0.054687 1.015625
v 0.078125 -0.062500 0.859375
v -0.078125 -0.062500 0.859375
v -0.078125 0.062500 0.859375
v 0.078125 0.062500 0.859375
v 0.078125 -0.062500 0.984375
v 0.078125 0.062500 0.984375
v -0.078125 -0.062500 0.984375
v -0.078125 0.062500 0.984375
v 0.093750 -0.070313 0.906250
v -0.093750 -0.070313 0.906250
v -0.093750 0.070312 0.906250
v 0.093750 0.070312 0.906250
v 0.093750 -0.070313 0.953125
v 0.093750 0.070312 0.953125
v -0.093750 -0.070313 0.953125
v -0.093750 0.070312 0.953125
vt 0.898438 0.953125
vt 0.851562 0.953125
vt 0.851562 1.000000
vt 0.898438 1.000000
vt 0.601562 0.726562
vt 0.601562 0.687500
vt 0.648438 0.687500
vt 0.648438 0.726562
vt 0.820312 0.640625
vt 0.867188 0.640625
vt 0.867188 0.687500
vt 0.820312 0.687500
vt 0.585938 0.687500
vt 0.585938 0.726562
vt 0.539062 0.726562
vt 0.539062 0.687500
vt 0.648438 0.882812
vt 0.601562 0.882812
vt 0.601562 0.843750
vt 0.648438 0.843750
vt 0.539062 0.843750
vt 0.585938 0.843750
vt 0.585938 0.882812
vt 0.539062 0.882812
vt 0.851562 0.695312
vt 0.789062 0.695312
vt 0.789062 0.750000
vt 0.851562 0.750000
vt 0.726562 0.812500
vt 0.726562 0.710938
vt 0.781250 0.710938
vt 0.781250 0.812500
vt 0.664062 0.570312
vt 0.726562 0.570312
vt 0.726562 0.625000
vt 0.664062 0.625000
vt 0.656250 0.585938
vt 0.656250 0.687500
vt 0.601562 0.687500
vt 0.601562 0.585938
vt 0.539062 0.687500
vt 0.539062 0.585938
vt 0.664062 0.710938
vt 0.664062 0.812500
vt 0.835938 0.812500
vt 0.757812 0.812500
vt 0.757812 0.875000
vt 0.835938 0.875000
vt 0.789062 0.812500
vt 0.789062 0.750000
vt 0.851562 0.750000
vt 0.851562 0.812500
vt 0.757812 0.875000
vt 0.835938 0.875000
vt 0.835938 0.937500
vt 0.757812 0.937500
vt 0.820312 0.625000
vt 0.820312 0.687500
vt 0.757812 0.687500
vt 0.757812 0.625000
vt 0.835938 1.000000
vt 0.757812 1.000000
vt 0.757812 0.937500
vt 0.835938 0.937500
vt 0.664062 0.625000
vt 0.742188 0.625000
vt 0.742188 0.687500
vt 0.664062 0.687500
vt 0.757812 0.835938
vt 0.664062 0.835938
vt 0.664062 0.906250
vt 0.757812 0.906250
vt 0.851562 0.875000
vt 0.851562 0.851562
vt 0.921875 0.851562
vt 0.921875 0.875000
vt 0.664062 0.929688
vt 0.757812 0.929688
vt 0.757812 1.000000
vt 0.664062 1.000000
vt 0.609375 0.539062
vt 0.609375 0.562500
vt 0.539062 0.562500
vt 0.539062 0.539062
vt 0.945312 0.906250
vt 0.851562 0.906250
vt 0.851562 0.882812
vt 0.945312 0.882812
vt 0.851562 0.914062
vt 0.945312 0.914062
vt 0.945312 0.937500
vt 0.851562 0.937500
vn 0.0000 0.0000 -1.0000
vn 1.0000 0.0000 0.0000
vn 0.0000 0.0000 1.0000
vn -1.0000 0.0000 0.0000
vn 0.0000 1.0000 0.0000
vn 0.0000 -1.0000 -0.0000
usemtl m_900b705e-c954-6982-e2db-fbe2d6ec5644
s 1
f 33/93/7 34/94/7 35/95/7 36/96/7
f 37/97/8 33/98/8 36/99/8 38/100/8
f 39/101/9 37/102/9 38/103/9 40/104/9
f 34/105/10 39/106/10 40/107/10 35/108/10
f 40/109/11 38/110/11 36/111/11 35/112/11
f 34/113/12 33/114/12 37/115/12 39/116/12
f 41/117/7 42/118/7 43/119/7 44/120/7
f 45/121/8 41/122/8 44/123/8 46/124/8
f 47/125/9 45/126/9 46/127/9 48/128/9
f 42/129/10 47/130/10 48/131/10 43/132/10
f 48/131/11 46/133/11 44/134/11 43/132/11
f 42/135/12 41/122/12 45/121/12 47/136/12
f 49/137/7 50/138/7 51/139/7 52/140/7
f 53/141/8 49/142/8 52/143/8 54/144/8
f 55/145/9 53/146/9 54/147/9 56/148/9
f 50/149/10 55/150/10 56/151/10 51/152/10
f 56/153/11 54/154/11 52/155/11 51/156/11
f 50/157/12 49/158/12 53/159/12 55/160/12
f 57/161/7 58/162/7 59/163/7 60/164/7
f 61/165/8 57/166/8 60/167/8 62/168/8
f 63/169/9 61/170/9 62/171/9 64/172/9
f 58/173/10 63/174/10 64/175/10 59/176/10
f 64/177/11 62/178/11 60/179/11 59/180/11
f 58/181/12 57/182/12 61/183/12 63/184/12
o owlbert_flying_wing_left_root
v 0.062500 -0.007813 0.984375
v 0.062500 0.007812 0.984375
v 0.062500 0.007812 0.812500
v 0.062500 -0.007813 0.812500
v 0.203125 0.007812 0.781250
v 0.203125 0.007812 0.984375
v 0.203125 -0.007813 0.984375
v 0.203125 -0.007813 0.781250
v 0.203125 -0.007813 0.983887
v 0.203125 0.007812 0.984375
v 0.203125 0.007812 0.781250
v 0.203125 -0.007813 0.781738
v 0.343750 0.007812 0.796875
v 0.343750 0.007812 0.968750
v 0.343750 -0.007813 0.968750
v 0.343750 -0.007813 0.796875
v 0.671875 0.007812 0.640625
v 0.546875 0.007812 0.843750
v 0.546875 -0.007813 0.843750
v 0.671875 -0.007813 0.640625
v 0.343750 -0.007813 0.968262
v 0.343750 0.007812 0.968750
v 0.343750 0.007812 0.796875
v 0.343750 -0.007813 0.797363
vt 0.695312 0.199219
vt 0.695312 0.207031
vt 0.781250 0.207031
vt 0.781250 0.199219
vt 0.695312 0.218750
vt 0.796875 0.218750
vt 0.796875 0.210938
vt 0.695312 0.210938
vt 0.695312 0.183594
vt 0.765625 0.183594
vt 0.765625 0.175781
vt 0.695312 0.175781
vt 0.695312 0.187500
vt 0.695312 0.195312
vt 0.767338 0.195312
vt 0.767338 0.187500
vt 0.843750 0.312500
vt 0.843750 0.226562
vt 0.773438 0.226562
vt 0.773438 0.328125
vt 0.695312 0.328125
vt 0.765625 0.328125
vt 0.765625 0.242188
vt 0.695312 0.226562
vt 0.851562 0.210938
vt 0.851562 0.218750
vt 0.953125 0.218750
vt 0.953125 0.210938
vt 0.851562 0.207031
vt 0.937500 0.207031
vt 0.937500 0.199219
vt 0.851562 0.199219
vt 0.851562 0.195312
vt 0.921875 0.195312
vt 0.921875 0.187500
vt 0.851562 0.187500
vt 0.851562 0.175781
vt 0.851562 0.183594
vt 0.921875 0.183594
vt 0.921875 0.175781
vt 1.000000 0.328125
vt 1.000000 0.226562
vt 0.929688 0.234375
vt 0.929688 0.320312
vt 0.851562 0.320312
vt 0.921875 0.328125
vt 0.921875 0.226562
vt 0.851562 0.234375
vt 0.664062 0.347656
vt 0.781250 0.347656
vt 0.781250 0.339844
vt 0.664062 0.339844
vt 0.914062 0.339844
vt 0.914062 0.347656
vt 1.000000 0.347656
vt 1.000000 0.339844
vt 0.882812 0.355469
vt 0.882812 0.363281
vt 1.000000 0.363281
vt 1.000000 0.355469
vt 0.664062 0.363281
vt 0.845775 0.363281
vt 0.845775 0.355469
vt 0.664062 0.355469
vt 1.000000 0.367188
vt 0.898438 0.429688
vt 0.835938 0.531250
vt 1.000000 0.453125
vt 0.664062 0.367188
vt 0.726562 0.468750
vt 0.828125 0.531250
vt 0.828125 0.445312
vn -1.0000 0.0000 0.0000
vn 1.0000 0.0000 0.0000
vn 0.0000 0.0000 1.0000
vn -0.2169 0.0000 -0.9762
vn -0.0000 1.0000 0.0000
vn -0.0000 -1.0000 -0.0000
vn 0.1104 -0.0311 0.9934
vn 0.1104 -0.0310 0.9934
vn 0.1104 -0.0311 -0.9934
vn 0.1104 -0.0310 -0.9934
vn 0.8517 0.0000 0.5241
vn 0.5241 -0.0000 0.8517
vn -0.4299 -0.0000 -0.9029
usemtl m_900b705e-c954-6982-e2db-fbe2d6ec5644
s 1
f 65/185/13 66/186/13 67/187/13 68/188/13
f 69/189/14 70/190/14 71/191/14 72/192/14
f 70/193/15 66/194/15 65/195/15 71/196/15
f 68/197/16 67/198/16 69/199/16 72/200/16
f 67/201/17 66/202/17 70/203/17 69/204/17
f 71/205/18 65/206/18 68/207/18 72/208/18
f 73/209/13 74/210/13 75/211/13 76/212/13
f 77/213/14 78/214/14 79/215/14 80/216/14
f 78/217/19 74/218/20 73/219/19 79/220/20
f 76/221/21 75/222/22 77/223/21 80/224/22
f 75/225/17 74/226/17 78/227/17 77/228/17
f 79/229/18 73/230/18 76/231/18 80/232/18
f 81/233/23 82/234/23 83/235/23 84/236/23
f 85/237/13 86/238/13 87/239/13 88/240/13
f 83/241/24 82/242/24 86/243/24 85/244/24
f 87/245/25 81/246/25 84/247/25 88/248/25
f 86/249/17 82/250/17 81/251/17 87/252/17
f 84/253/18 83/254/18 85/255/18 88/256/18
o cube
v 0.031250 -0.031250 -0.750000
v -0.031250 -0.031250 -0.750000
v -0.031250 0.031250 -0.750000
v 0.031250 0.031250 -0.750000
v 0.031250 -0.031250 0.750000
v 0.031250 0.031250 0.750000
v -0.031250 -0.031250 0.750000
v -0.031250 0.031250 0.750000
v 0.062500 -0.054688 0.750000
v -0.062500 -0.054688 0.750000
v -0.062500 0.054687 0.750000
v 0.062500 0.054687 0.750000
v 0.062500 -0.054688 0.781250
v 0.062500 0.054687 0.781250
v -0.062500 -0.054688 0.781250
v -0.062500 0.054687 0.781250
vt 0.468750 0.781250
vt 0.437500 0.781250
vt 0.437500 0.812500
vt 0.468750 0.812500
vt 0.093750 1.000000
vt 0.093750 0.250000
vt 0.125000 0.250000
vt 0.125000 1.000000
vt 0.437500 0.812500
vt 0.468750 0.812500
vt 0.468750 0.843750
vt 0.437500 0.843750
vt 0.062500 0.250000
vt 0.062500 1.000000
vt 0.031250 1.000000
vt 0.031250 0.250000
vt 0.093750 1.000000
vt 0.062500 1.000000
vt 0.062500 0.250000
vt 0.093750 0.250000
vt 0.000000 0.250000
vt 0.031250 0.250000
vt 0.031250 1.000000
vt 0.000000 1.000000
vt 0.437500 0.570312
vt 0.375000 0.570312
vt 0.375000 0.625000
vt 0.437500 0.625000
vt 0.281250 0.562500
vt 0.281250 0.546875
vt 0.335938 0.546875
vt 0.335938 0.562500
vt 0.312500 0.570312
vt 0.375000 0.570312
vt 0.375000 0.625000
vt 0.312500 0.625000
vt 0.492188 0.734375
vt 0.492188 0.750000
vt 0.437500 0.750000
vt 0.437500 0.734375
vt 0.500000 0.781250
vt 0.437500 0.781250
vt 0.437500 0.765625
vt 0.500000 0.765625
vt 0.218750 0.546875
vt 0.218750 0.562500
vn 0.0000 0.0000 -1.0000
vn 1.0000 0.0000 0.0000
vn 0.0000 0.0000 1.0000
vn -1.0000 0.0000 0.0000
vn 0.0000 1.0000 0.0000
vn 0.0000 -1.0000 -0.0000
usemtl m_900b705e-c954-6982-e2db-fbe2d6ec5644
s 1
f 89/257/26 90/258/26 91/259/26 92/260/26
f 93/261/27 89/262/27 92/263/27 94/264/27
f 95/265/28 93/266/28 94/267/28 96/268/28
f 90/269/29 95/270/29 96/271/29 91/272/29
f 96/273/30 94/274/30 92/275/30 91/276/30
f 90/277/31 89/278/31 93/279/31 95/280/31
f 97/281/26 98/282/26 99/283/26 100/284/26
f 101/285/27 97/286/27 100/287/27 102/288/27
f 103/289/28 101/290/28 102/291/28 104/292/28
f 98/293/29 103/294/29 104/295/29 99/296/29
f 104/297/30 102/298/30 100/299/30 99/300/30
f 98/301/31 97/286/31 101/285/31 103/302/31
o owlbert_flying_wing_right_root
v -0.062500 0.007812 0.812500
v -0.062500 0.007812 0.984375
v -0.062500 -0.007813 0.984375
v -0.062500 -0.007813 0.812500
v -0.203125 -0.007813 0.984375
v -0.203125 0.007812 0.984375
v -0.203125 0.007812 0.781250
v -0.203125 -0.007813 0.781250
v -0.203125 0.007812 0.781250
v -0.203125 0.007812 0.984375
v -0.203125 -0.007813 0.983887
v -0.203125 -0.007813 0.781738
v -0.343750 -0.007813 0.968750
v -0.343750 0.007812 0.968750
v -0.343750 0.007812 0.796875
v -0.343750 -0.007813 0.796875
v -0.546875 -0.007813 0.843750
v -0.546875 0.007812 0.843750
v -0.671875 0.007812 0.640625
v -0.671875 -0.007813 0.640625
v -0.343750 0.007812 0.796875
v -0.343750 0.007812 0.968750
v -0.343750 -0.007813 0.968262
v -0.343750 -0.007813 0.797363
vt 0.781250 0.207031
vt 0.695312 0.207031
vt 0.695312 0.199219
vt 0.781250 0.199219
vt 0.796875 0.210938
vt 0.796875 0.218750
vt 0.695312 0.218750
vt 0.695312 0.210938
vt 0.765625 0.175781
vt 0.765625 0.183594
vt 0.695312 0.183594
vt 0.695312 0.175781
vt 0.767338 0.195312
vt 0.695312 0.195312
vt 0.695312 0.187500
vt 0.767338 0.187500
vt 0.773438 0.226562
vt 0.843750 0.226562
vt 0.843750 0.312500
vt 0.773438 0.328125
vt 0.765625 0.242188
vt 0.765625 0.328125
vt 0.695312 0.328125
vt 0.695312 0.226562
vt 0.953125 0.218750
vt 0.851562 0.218750
vt 0.851562 0.210938
vt 0.953125 0.210938
vt 0.937500 0.199219
vt 0.937500 0.207031
vt 0.851562 0.207031
vt 0.851562 0.199219
vt 0.921875 0.187500
vt 0.921875 0.195312
vt 0.851562 0.195312
vt 0.851562 0.187500
vt 0.921875 0.183594
vt 0.851562 0.183594
vt 0.851562 0.175781
vt 0.921875 0.175781
vt 0.929688 0.234375
vt 1.000000 0.226562
vt 1.000000 0.328125
vt 0.929688 0.320312
vt 0.921875 0.226562
vt 0.921875 0.328125
vt 0.851562 0.320312
vt 0.851562 0.234375
vt 0.781250 0.339844
vt 0.781250 0.347656
vt 0.664062 0.347656
vt 0.664062 0.339844
vt 1.000000 0.347656
vt 0.914062 0.347656
vt 0.914062 0.339844
vt 1.000000 0.339844
vt 1.000000 0.363281
vt 0.882812 0.363281
vt 0.882812 0.355469
vt 1.000000 0.355469
vt 0.845775 0.355469
vt 0.845775 0.363281
vt 0.664062 0.363281
vt 0.664062 0.355469
vt 0.835938 0.531250
vt 0.898438 0.429688
vt 1.000000 0.367188
vt 1.000000 0.453125
vt 0.828125 0.531250
vt 0.726562 0.468750
vt 0.664062 0.367188
vt 0.828125 0.445312
vn 1.0000 0.0000 0.0000
vn -1.0000 0.0000 0.0000
vn 0.0000 0.0000 1.0000
vn 0.2169 0.0000 -0.9762
vn 0.0000 1.0000 0.0000
vn 0.0000 -1.0000 -0.0000
vn -0.1104 -0.0311 0.9934
vn -0.1104 -0.0310 0.9934
vn -0.1104 -0.0311 -0.9934
vn -0.1104 -0.0310 -0.9934
vn -0.8517 0.0000 0.5241
vn -0.5241 -0.0000 0.8517
vn 0.4299 -0.0000 -0.9029
usemtl m_900b705e-c954-6982-e2db-fbe2d6ec5644
s 1
f 105/303/32 106/304/32 107/305/32 108/306/32
f 109/307/33 110/308/33 111/309/33 112/310/33
f 107/311/34 106/312/34 110/313/34 109/314/34
f 111/315/35 105/316/35 108/317/35 112/318/35
f 110/319/36 106/320/36 105/321/36 111/322/36
f 108/323/37 107/324/37 109/325/37 112/326/37
f 113/327/32 114/328/32 115/329/32 116/330/32
f 117/331/33 118/332/33 119/333/33 120/334/33
f 115/335/38 114/336/39 118/337/38 117/338/39
f 119/339/40 113/340/41 116/341/40 120/342/41
f 118/343/36 114/344/36 113/345/36 119/346/36
f 116/347/37 115/348/37 117/349/37 120/350/37
f 121/351/42 122/352/42 123/353/42 124/354/42
f 125/355/32 126/356/32 127/357/32 128/358/32
f 126/359/43 122/360/43 121/361/43 127/362/43
f 124/363/44 123/364/44 125/365/44 128/366/44
f 123/367/36 122/368/36 126/369/36 125/370/36
f 127/371/37 121/372/37 124/373/37 128/374/37
o owlbert_flying_eyes_translucent
v 0.062500 -0.054688 1.016602
v 0.062500 0.054687 1.016602
v -0.062500 0.054687 1.016602
v -0.062500 -0.054688 1.016602
vt 0.792969 0.566406
vt 0.792969 0.621094
vt 0.730469 0.621094
vt 0.730469 0.566406
vn 0.0000 0.0000 1.0000
usemtl m_900b705e-c954-6982-e2db-fbe2d6ec5644
s 1
f 129/375/45 130/376/45 131/377/45 132/378/45
