# Blender v2.78 (sub 0) OBJ File: ''
# www.blender.org
mtllib hwtrackstraight.mtl
o cube
v 0.125000 0.062500 1.000001
v 4.875000 0.062500 1.000000
v 4.875000 0.125000 1.000000
v 0.125000 0.125000 1.000001
v 0.125000 0.062500 0.000001
v 0.125000 0.125000 0.000001
v 4.875000 0.062500 0.000000
v 4.875000 0.125000 0.000000
v 4.875000 0.062500 1.000000
v 5.000000 0.062500 1.000000
v 5.000000 0.406250 1.000000
v 4.875000 0.406250 1.000000
v 4.875000 0.062500 0.000000
v 4.875000 0.406250 0.000000
v 5.000000 0.062500 0.000000
v 5.000000 0.406250 0.000000
v 4.853211 0.094701 1.000000
v 4.915473 0.089254 1.000000
v 4.937262 0.338303 1.000000
v 4.875000 0.343750 1.000000
v 4.853211 0.094701 0.000000
v 4.875000 0.343750 0.000000
v 4.915473 0.089254 0.000000
v 4.937262 0.338303 0.000000
v 0.084527 0.089254 1.000001
v 0.146789 0.094701 1.000001
v 0.125000 0.343750 1.000001
v 0.062738 0.338303 1.000001
v 0.084527 0.089254 0.000001
v 0.062738 0.338303 0.000001
v 0.146789 0.094701 0.000001
v 0.125000 0.343750 0.000001
v 0.000000 0.062500 1.000001
v 0.125000 0.062500 1.000001
v 0.125000 0.406250 1.000001
v 0.000000 0.406250 1.000001
v 0.000000 0.062500 0.000001
v 0.000000 0.406250 0.000001
v 0.125000 0.062500 0.000001
v 0.125000 0.406250 0.000001
v 4.911612 0.062500 1.000000
v 4.955806 0.018306 1.000000
v 5.000000 0.062500 1.000000
v 4.955806 0.106694 1.000000
v 4.911612 0.062500 0.000000
v 4.955806 0.106694 0.000000
v 4.955806 0.018306 0.000000
v 5.000000 0.062500 0.000000
v 2.987056 0.018306 1.000000
v 4.955806 0.018306 1.000000
v 4.955806 0.080806 1.000000
v 2.987056 0.080806 1.000000
v 2.987056 0.018306 0.000000
v 2.987056 0.080806 0.000000
v 4.955806 0.018306 0.000000
v 4.955806 0.080806 0.000000
v 0.044194 0.018306 1.000001
v 3.012944 0.018306 1.000000
v 3.012944 0.080806 1.000000
v 0.044194 0.080806 1.000001
v 0.044194 0.018306 0.000001
v 0.044194 0.080806 0.000001
v 3.012944 0.018306 0.000000
v 3.012944 0.080806 0.000000
v 0.044194 0.018306 1.000001
v 0.088388 0.062500 1.000001
v 0.044194 0.106694 1.000001
v 0.000000 0.062500 1.000001
v 0.044194 0.018306 0.000001
v 0.000000 0.062500 0.000001
v 0.088388 0.062500 0.000001
v 0.044194 0.106694 0.000001
v 4.955806 0.406250 1.000000
v 4.977903 0.384153 1.000000
v 5.000000 0.406250 1.000000
v 4.977903 0.428347 1.000000
v 4.955806 0.406250 0.000000
v 4.977903 0.428347 0.000000
v 4.977903 0.384153 0.000000
v 5.000000 0.406250 0.000000
v 4.936887 0.397097 1.000000
v 4.977903 0.397097 1.000000
v 4.977903 0.428347 1.000000
v 4.936887 0.428347 1.000000
v 4.936887 0.397097 0.000000
v 4.936887 0.428347 0.000000
v 4.977903 0.397097 0.000000
v 4.977903 0.428347 0.000000
v 4.897097 0.384153 1.000000
v 4.919194 0.406250 1.000000
v 4.897097 0.428347 1.000000
v 4.875000 0.406250 1.000000
v 4.897097 0.384153 0.000000
v 4.875000 0.406250 0.000000
v 4.919194 0.406250 0.000000
v 4.897097 0.428347 0.000000
v 4.897097 0.397097 1.000000
v 4.938113 0.397097 1.000000
v 4.938113 0.428347 1.000000
v 4.897097 0.428347 1.000000
v 4.897097 0.397097 0.000000
v 4.897097 0.428347 0.000000
v 4.938113 0.397097 0.000000
v 4.938113 0.428347 0.000000
v 0.080806 0.406250 1.000001
v 0.102903 0.384153 1.000001
v 0.125000 0.406250 1.000001
v 0.102903 0.428347 1.000001
v 0.080806 0.406250 0.000001
v 0.102903 0.428347 0.000001
v 0.102903 0.384153 0.000001
v 0.125000 0.406250 0.000001
v 0.061887 0.397097 1.000001
v 0.102903 0.397097 1.000001
v 0.102903 0.428347 1.000001
v 0.061887 0.428347 1.000001
v 0.061887 0.397097 0.000001
v 0.061887 0.428347 0.000001
v 0.102903 0.397097 0.000001
v 0.102903 0.428347 0.000001
v 0.022097 0.384153 1.000001
v 0.044194 0.406250 1.000001
v 0.022097 0.428347 1.000001
v 0.000000 0.406250 1.000001
v 0.022097 0.384153 0.000001
v 0.000000 0.406250 0.000001
v 0.044194 0.406250 0.000001
v 0.022097 0.428347 0.000001
v 0.022097 0.397097 1.000001
v 0.063113 0.397097 1.000001
v 0.063113 0.428347 1.000001
v 0.022097 0.428347 1.000001
v 0.022097 0.397097 0.000001
v 0.022097 0.428347 0.000001
v 0.063113 0.397097 0.000001
v 0.063113 0.428347 0.000001
vt 0.1250 0.1250
vt 0.8750 0.1250
vt 0.8750 0.8750
vt 0.1250 0.8750
vt 0.1250 0.1250
vt 0.8750 0.1250
vt 0.8750 0.8750
vt 0.1250 0.8750
vt 0.1250 0.1250
vt 0.8750 0.1250
vt 0.8750 0.8750
vt 0.1250 0.8750
vt 0.1250 0.1250
vt 0.8750 0.1250
vt 0.8750 0.8750
vt 0.1250 0.8750
vt 0.1250 0.1250
vt 0.8750 0.1250
vt 0.8750 0.8750
vt 0.1250 0.8750
vt 0.1250 0.1250
vt 0.8750 0.1250
vt 0.8750 0.8750
vt 0.1250 0.8750
vt 0.1250 0.1250
vt 0.8750 0.1250
vt 0.8750 0.8750
vt 0.1250 0.8750
vt 0.1250 0.1250
vt 0.8750 0.1250
vt 0.8750 0.8750
vt 0.1250 0.8750
vt 0.1250 0.1250
vt 0.8750 0.1250
vt 0.8750 0.8750
vt 0.1250 0.8750
vt 0.1250 0.1250
vt 0.8750 0.1250
vt 0.8750 0.8750
vt 0.1250 0.8750
vt 0.1250 0.1250
vt 0.8750 0.1250
vt 0.8750 0.8750
vt 0.1250 0.8750
vt 0.1250 0.1250
vt 0.8750 0.1250
vt 0.8750 0.8750
vt 0.1250 0.8750
vt 0.1250 0.1250
vt 0.8750 0.1250
vt 0.8750 0.8750
vt 0.1250 0.8750
vt 0.1250 0.1250
vt 0.8750 0.1250
vt 0.8750 0.8750
vt 0.1250 0.8750
vt 0.1250 0.1250
vt 0.8750 0.1250
vt 0.8750 0.8750
vt 0.1250 0.8750
vt 0.1250 0.1250
vt 0.8750 0.1250
vt 0.8750 0.8750
vt 0.1250 0.8750
vt 0.1250 0.1250
vt 0.8750 0.1250
vt 0.8750 0.8750
vt 0.1250 0.8750
vt 0.1250 0.1250
vt 0.8750 0.1250
vt 0.8750 0.8750
vt 0.1250 0.8750
vt 0.1250 0.1250
vt 0.8750 0.1250
vt 0.8750 0.8750
vt 0.1250 0.8750
vt 0.1250 0.1250
vt 0.8750 0.1250
vt 0.8750 0.8750
vt 0.1250 0.8750
vt 0.1250 0.1250
vt 0.8750 0.1250
vt 0.8750 0.8750
vt 0.1250 0.8750
vt 0.1250 0.1250
vt 0.8750 0.1250
vt 0.8750 0.8750
vt 0.1250 0.8750
vt 0.1250 0.1250
vt 0.8750 0.1250
vt 0.8750 0.8750
vt 0.1250 0.8750
vt 0.1250 0.1250
vt 0.8750 0.1250
vt 0.8750 0.8750
vt 0.1250 0.8750
vt 0.1250 0.1250
vt 0.8750 0.1250
vt 0.8750 0.8750
vt 0.1250 0.8750
vt 0.1250 0.1250
vt 0.8750 0.1250
vt 0.8750 0.8750
vt 0.1250 0.8750
vt 0.1250 0.1250
vt 0.8750 0.1250
vt 0.8750 0.8750
vt 0.1250 0.8750
vt 0.1250 0.1250
vt 0.8750 0.1250
vt 0.8750 0.8750
vt 0.1250 0.8750
vt 0.1250 0.1250
vt 0.8750 0.1250
vt 0.8750 0.8750
vt 0.1250 0.8750
vt 0.1250 0.1250
vt 0.8750 0.1250
vt 0.8750 0.8750
vt 0.1250 0.8750
vt 0.1250 0.1250
vt 0.8750 0.1250
vt 0.8750 0.8750
vt 0.1250 0.8750
vt 0.1250 0.1250
vt 0.8750 0.1250
vt 0.8750 0.8750
vt 0.1250 0.8750
vt 0.1250 0.1250
vt 0.8750 0.1250
vt 0.8750 0.8750
vt 0.1250 0.8750
vt 0.1250 0.1250
vt 0.8750 0.1250
vt 0.8750 0.8750
vt 0.1250 0.8750
vt 0.1250 0.1250
vt 0.8750 0.1250
vt 0.8750 0.8750
vt 0.1250 0.8750
vt 0.1250 0.1250
vt 0.8750 0.1250
vt 0.8750 0.8750
vt 0.1250 0.8750
vt 0.1250 0.1250
vt 0.8750 0.1250
vt 0.8750 0.8750
vt 0.1250 0.8750
vt 0.1250 0.1250
vt 0.8750 0.1250
vt 0.8750 0.8750
vt 0.1250 0.8750
vt 0.1250 0.1250
vt 0.8750 0.1250
vt 0.8750 0.8750
vt 0.1250 0.8750
vt 0.1250 0.1250
vt 0.8750 0.1250
vt 0.8750 0.8750
vt 0.1250 0.8750
vt 0.1250 0.1250
vt 0.8750 0.1250
vt 0.8750 0.8750
vt 0.1250 0.8750
vt 0.1250 0.1250
vt 0.8750 0.1250
vt 0.8750 0.8750
vt 0.1250 0.8750
vt 0.1250 0.1250
vt 0.8750 0.1250
vt 0.8750 0.8750
vt 0.1250 0.8750
vt 0.1250 0.1250
vt 0.8750 0.1250
vt 0.8750 0.8750
vt 0.1250 0.8750
vt 0.1250 0.1250
vt 0.8750 0.1250
vt 0.8750 0.8750
vt 0.1250 0.8750
vt 0.1250 0.1250
vt 0.8750 0.1250
vt 0.8750 0.8750
vt 0.1250 0.8750
vt 0.1250 0.1250
vt 0.8750 0.1250
vt 0.8750 0.8750
vt 0.1250 0.8750
vt 0.1250 0.1250
vt 0.8750 0.1250
vt 0.8750 0.8750
vt 0.1250 0.8750
vt 0.1250 0.1250
vt 0.8750 0.1250
vt 0.8750 0.8750
vt 0.1250 0.8750
vt 0.1250 0.1250
vt 0.8750 0.1250
vt 0.8750 0.8750
vt 0.1250 0.8750
vt 0.1250 0.1250
vt 0.8750 0.1250
vt 0.8750 0.8750
vt 0.1250 0.8750
vt 0.1250 0.1250
vt 0.8750 0.1250
vt 0.8750 0.8750
vt 0.1250 0.8750
vt 0.1250 0.1250
vt 0.8750 0.1250
vt 0.8750 0.8750
vt 0.1250 0.8750
vt 0.1250 0.1250
vt 0.8750 0.1250
vt 0.8750 0.8750
vt 0.1250 0.8750
vt 0.1250 0.1250
vt 0.8750 0.1250
vt 0.8750 0.8750
vt 0.1250 0.8750
vt 0.1250 0.1250
vt 0.8750 0.1250
vt 0.8750 0.8750
vt 0.1250 0.8750
vt 0.1250 0.1250
vt 0.8750 0.1250
vt 0.8750 0.8750
vt 0.1250 0.8750
vt 0.1250 0.1250
vt 0.8750 0.1250
vt 0.8750 0.8750
vt 0.1250 0.8750
vt 0.1250 0.1250
vt 0.8750 0.1250
vt 0.8750 0.8750
vt 0.1250 0.8750
vt 0.1250 0.1250
vt 0.8750 0.1250
vt 0.8750 0.8750
vt 0.1250 0.8750
vt 0.1250 0.1250
vt 0.8750 0.1250
vt 0.8750 0.8750
vt 0.1250 0.8750
vt 0.1250 0.1250
vt 0.8750 0.1250
vt 0.8750 0.8750
vt 0.1250 0.8750
vt 0.1250 0.1250
vt 0.8750 0.1250
vt 0.8750 0.8750
vt 0.1250 0.8750
vt 0.1250 0.1250
vt 0.8750 0.1250
vt 0.8750 0.8750
vt 0.1250 0.8750
vt 0.1250 0.1250
vt 0.8750 0.1250
vt 0.8750 0.8750
vt 0.1250 0.8750
vt 0.1250 0.1250
vt 0.8750 0.1250
vt 0.8750 0.8750
vt 0.1250 0.8750
vt 0.1250 0.1250
vt 0.8750 0.1250
vt 0.8750 0.8750
vt 0.1250 0.8750
vt 0.1250 0.1250
vt 0.8750 0.1250
vt 0.8750 0.8750
vt 0.1250 0.8750
vt 0.1250 0.1250
vt 0.8750 0.1250
vt 0.8750 0.8750
vt 0.1250 0.8750
vt 0.1250 0.1250
vt 0.8750 0.1250
vt 0.8750 0.8750
vt 0.1250 0.8750
vt 0.1250 0.1250
vt 0.8750 0.1250
vt 0.8750 0.8750
vt 0.1250 0.8750
vt 0.1250 0.1250
vt 0.8750 0.1250
vt 0.8750 0.8750
vt 0.1250 0.8750
vt 0.1250 0.1250
vt 0.8750 0.1250
vt 0.8750 0.8750
vt 0.1250 0.8750
vt 0.1250 0.1250
vt 0.8750 0.1250
vt 0.8750 0.8750
vt 0.1250 0.8750
vt 0.1250 0.1250
vt 0.8750 0.1250
vt 0.8750 0.8750
vt 0.1250 0.8750
vt 0.1250 0.1250
vt 0.8750 0.1250
vt 0.8750 0.8750
vt 0.1250 0.8750
vt 0.1250 0.1250
vt 0.8750 0.1250
vt 0.8750 0.8750
vt 0.1250 0.8750
vt 0.1250 0.1250
vt 0.8750 0.1250
vt 0.8750 0.8750
vt 0.1250 0.8750
vt 0.1250 0.1250
vt 0.8750 0.1250
vt 0.8750 0.8750
vt 0.1250 0.8750
vt 0.1250 0.1250
vt 0.8750 0.1250
vt 0.8750 0.8750
vt 0.1250 0.8750
vt 0.1250 0.1250
vt 0.8750 0.1250
vt 0.8750 0.8750
vt 0.1250 0.8750
vt 0.1250 0.1250
vt 0.8750 0.1250
vt 0.8750 0.8750
vt 0.1250 0.8750
vt 0.1250 0.1250
vt 0.8750 0.1250
vt 0.8750 0.8750
vt 0.1250 0.8750
vt 0.1250 0.1250
vt 0.8750 0.1250
vt 0.8750 0.8750
vt 0.1250 0.8750
vt 0.1250 0.1250
vt 0.8750 0.1250
vt 0.8750 0.8750
vt 0.1250 0.8750
vn 0.0000 0.0000 1.0000
vn -1.0000 0.0000 0.0000
vn -0.0000 0.0000 -1.0000
vn 1.0000 0.0000 0.0000
vn 0.0000 1.0000 0.0000
vn -0.0000 -1.0000 -0.0000
vn -0.9962 0.0872 0.0000
vn 0.9962 -0.0872 -0.0000
vn 0.0872 0.9962 0.0000
vn -0.0872 -0.9962 -0.0000
vn -0.9962 -0.0872 -0.0000
vn 0.9962 0.0872 0.0000
vn -0.0872 0.9962 0.0000
vn 0.0872 -0.9962 -0.0000
vn -0.7071 0.7071 0.0000
vn 0.7071 -0.7071 -0.0000
vn 0.7071 0.7071 0.0000
vn -0.7071 -0.7071 -0.0000
usemtl m_0
s 1
f 1/1/1 2/2/1 3/3/1 4/4/1
f 5/5/2 1/6/2 4/7/2 6/8/2
f 7/9/3 5/10/3 6/11/3 8/12/3
f 2/13/4 7/14/4 8/15/4 3/16/4
f 8/17/5 6/18/5 4/7/5 3/16/5
f 2/13/6 1/6/6 5/19/6 7/20/6
f 9/21/1 10/22/1 11/23/1 12/24/1
f 13/25/2 9/26/2 12/27/2 14/28/2
f 15/29/3 13/30/3 14/31/3 16/32/3
f 10/33/4 15/34/4 16/35/4 11/36/4
f 16/37/5 14/38/5 12/27/5 11/36/5
f 10/33/6 9/26/6 13/39/6 15/40/6
f 17/41/1 18/42/1 19/43/1 20/44/1
f 21/45/7 17/46/7 20/47/7 22/48/7
f 23/49/3 21/50/3 22/51/3 24/52/3
f 18/53/8 23/54/8 24/55/8 19/56/8
f 24/57/9 22/58/9 20/47/9 19/56/9
f 18/53/10 17/46/10 21/59/10 23/60/10
f 25/61/1 26/62/1 27/63/1 28/64/1
f 29/65/11 25/66/11 28/67/11 30/68/11
f 31/69/3 29/70/3 30/71/3 32/72/3
f 26/73/12 31/74/12 32/75/12 27/76/12
f 32/77/13 30/78/13 28/67/13 27/76/13
f 26/73/14 25/66/14 29/79/14 31/80/14
f 33/81/1 34/82/1 35/83/1 36/84/1
f 37/85/2 33/86/2 36/87/2 38/88/2
f 39/89/3 37/90/3 38/91/3 40/92/3
f 34/93/4 39/94/4 40/95/4 35/96/4
f 40/97/5 38/98/5 36/87/5 35/96/5
f 34/93/6 33/86/6 37/99/6 39/100/6
f 41/101/1 42/102/1 43/103/1 44/104/1
f 45/105/15 41/106/15 44/107/15 46/108/15
f 47/109/3 45/110/3 46/111/3 48/112/3
f 42/113/16 47/114/16 48/115/16 43/116/16
f 48/117/17 46/118/17 44/107/17 43/116/17
f 42/113/18 41/106/18 45/119/18 47/120/18
f 49/121/1 50/122/1 51/123/1 52/124/1
f 53/125/2 49/126/2 52/127/2 54/128/2
f 55/129/3 53/130/3 54/131/3 56/132/3
f 50/133/4 55/134/4 56/135/4 51/136/4
f 56/137/5 54/138/5 52/127/5 51/136/5
f 50/133/6 49/126/6 53/139/6 55/140/6
f 57/141/1 58/142/1 59/143/1 60/144/1
f 61/145/2 57/146/2 60/147/2 62/148/2
f 63/149/3 61/150/3 62/151/3 64/152/3
f 58/153/4 63/154/4 64/155/4 59/156/4
f 64/157/5 62/158/5 60/147/5 59/156/5
f 58/153/6 57/146/6 61/159/6 63/160/6
f 65/161/1 66/162/1 67/163/1 68/164/1
f 69/165/18 65/166/18 68/167/18 70/168/18
f 71/169/3 69/170/3 70/171/3 72/172/3
f 66/173/17 71/174/17 72/175/17 67/176/17
f 72/177/15 70/178/15 68/167/15 67/176/15
f 66/173/16 65/166/16 69/179/16 71/180/16
f 73/181/1 74/182/1 75/183/1 76/184/1
f 77/185/15 73/186/15 76/187/15 78/188/15
f 79/189/3 77/190/3 78/191/3 80/192/3
f 74/193/16 79/194/16 80/195/16 75/196/16
f 80/197/17 78/198/17 76/187/17 75/196/17
f 74/193/18 73/186/18 77/199/18 79/200/18
f 81/201/1 82/202/1 83/203/1 84/204/1
f 85/205/2 81/206/2 84/207/2 86/208/2
f 87/209/3 85/210/3 86/211/3 88/212/3
f 82/213/4 87/214/4 88/215/4 83/216/4
f 88/217/5 86/218/5 84/207/5 83/216/5
f 82/213/6 81/206/6 85/219/6 87/220/6
f 89/221/1 90/222/1 91/223/1 92/224/1
f 93/225/18 89/226/18 92/227/18 94/228/18
f 95/229/3 93/230/3 94/231/3 96/232/3
f 90/233/17 95/234/17 96/235/17 91/236/17
f 96/237/15 94/238/15 92/227/15 91/236/15
f 90/233/16 89/226/16 93/239/16 95/240/16
f 97/241/1 98/242/1 99/243/1 100/244/1
f 101/245/2 97/246/2 100/247/2 102/248/2
f 103/249/3 101/250/3 102/251/3 104/252/3
f 98/253/4 103/254/4 104/255/4 99/256/4
f 104/257/5 102/258/5 100/247/5 99/256/5
f 98/253/6 97/246/6 101/259/6 103/260/6
f 105/261/1 106/262/1 107/263/1 108/264/1
f 109/265/15 105/266/15 108/267/15 110/268/15
f 111/269/3 109/270/3 110/271/3 112/272/3
f 106/273/16 111/274/16 112/275/16 107/276/16
f 112/277/17 110/278/17 108/267/17 107/276/17
f 106/273/18 105/266/18 109/279/18 111/280/18
f 113/281/1 114/282/1 115/283/1 116/284/1
f 117/285/2 113/286/2 116/287/2 118/288/2
f 119/289/3 117/290/3 118/291/3 120/292/3
f 114/293/4 119/294/4 120/295/4 115/296/4
f 120/297/5 118/298/5 116/287/5 115/296/5
f 114/293/6 113/286/6 117/299/6 119/300/6
f 121/301/1 122/302/1 123/303/1 124/304/1
f 125/305/18 121/306/18 124/307/18 126/308/18
f 127/309/3 125/310/3 126/311/3 128/312/3
f 122/313/17 127/314/17 128/315/17 123/316/17
f 128/317/15 126/318/15 124/307/15 123/316/15
f 122/313/16 121/306/16 125/319/16 127/320/16
f 129/321/1 130/322/1 131/323/1 132/324/1
f 133/325/2 129/326/2 132/327/2 134/328/2
f 135/329/3 133/330/3 134/331/3 136/332/3
f 130/333/4 135/334/4 136/335/4 131/336/4
f 136/337/5 134/338/5 132/327/5 131/336/5
f 130/333/6 129/326/6 133/339/6 135/340/6
