# Blender v2.79 (sub 0) OBJ File: ''
# www.blender.org
mtllib rail.mtl
o cube
v 2.000000 0.093750 0.312500
v 0.000000 0.093750 0.312500
v 0.000000 -0.000000 0.312500
v 2.000000 -0.000000 0.312500
v 0.000000 -0.000000 0.062500
v 0.000000 0.093750 0.062500
v 2.000000 0.093750 0.062500
v 2.000000 -0.000000 0.062500
v 0.312500 0.250000 1.000000
v 0.187500 0.250000 1.000000
v 0.187500 0.125000 1.000000
v 0.312500 0.125000 1.000000
v 0.187500 0.125000 0.000000
v 0.187500 0.250000 0.000000
v 0.312500 0.250000 0.000000
v 0.312500 0.125000 0.000000
v 0.359375 0.312500 1.000000
v 0.140625 0.312500 1.000000
v 0.140625 0.250000 1.000000
v 0.359375 0.250000 1.000000
v 0.140625 0.250000 0.000000
v 0.140625 0.312500 0.000000
v 0.359375 0.312500 0.000000
v 0.359375 0.250000 0.000000
v 0.375000 0.125000 1.000000
v 0.125000 0.125000 1.000000
v 0.125000 -0.000000 1.000000
v 0.375000 -0.000000 1.000000
v 0.125000 0.000000 0.000000
v 0.125000 0.125000 0.000000
v 0.375000 0.125000 0.000000
v 0.375000 0.000000 0.000000
v 0.093750 0.125000 0.218750
v 0.031250 0.125000 0.218750
v 0.031250 0.093750 0.218750
v 0.093750 0.093750 0.218750
v 0.031250 0.093750 0.156250
v 0.031250 0.125000 0.156250
v 0.093750 0.125000 0.156250
v 0.093750 0.093750 0.156250
v 1.968750 0.125000 0.218750
v 1.906250 0.125000 0.218750
v 1.906250 0.093750 0.218750
v 1.968750 0.093750 0.218750
v 1.906250 0.093750 0.156250
v 1.906250 0.125000 0.156250
v 1.968750 0.125000 0.156250
v 1.968750 0.093750 0.156250
v 1.968750 0.125000 0.718750
v 1.906250 0.125000 0.718750
v 1.906250 0.093750 0.718750
v 1.968750 0.093750 0.718750
v 1.906250 0.093750 0.656250
v 1.906250 0.125000 0.656250
v 1.968750 0.125000 0.656250
v 1.968750 0.093750 0.656250
v 2.000000 0.093750 0.812500
v 0.000000 0.093750 0.812500
v 0.000000 -0.000000 0.812500
v 2.000000 -0.000000 0.812500
v 0.000000 -0.000000 0.562500
v 0.000000 0.093750 0.562500
v 2.000000 0.093750 0.562500
v 2.000000 -0.000000 0.562500
v 0.093750 0.125000 0.718750
v 0.031250 0.125000 0.718750
v 0.031250 0.093750 0.718750
v 0.093750 0.093750 0.718750
v 0.031250 0.093750 0.656250
v 0.031250 0.125000 0.656250
v 0.093750 0.125000 0.656250
v 0.093750 0.093750 0.656250
v 1.875000 0.125000 1.000000
v 1.625000 0.125000 1.000000
v 1.625000 -0.000000 1.000000
v 1.875000 -0.000000 1.000000
v 1.625000 0.000000 0.000000
v 1.625000 0.125000 0.000000
v 1.875000 0.125000 0.000000
v 1.875000 0.000000 0.000000
v 1.859375 0.312500 1.000000
v 1.640625 0.312500 1.000000
v 1.640625 0.250000 1.000000
v 1.859375 0.250000 1.000000
v 1.640625 0.250000 0.000000
v 1.640625 0.312500 0.000000
v 1.859375 0.312500 0.000000
v 1.859375 0.250000 0.000000
v 1.812500 0.250000 1.000000
v 1.687500 0.250000 1.000000
v 1.687500 0.125000 1.000000
v 1.812500 0.125000 1.000000
v 1.687500 0.125000 0.000000
v 1.687500 0.250000 0.000000
v 1.812500 0.250000 0.000000
v 1.812500 0.125000 0.000000
vt 1.000000 0.875000
vt 0.000000 0.875000
vt 0.000000 0.812500
vt 1.000000 0.812500
vt 1.000000 0.750000
vt 1.000000 0.812500
vt 0.000000 0.812500
vt 0.000000 0.750000
vt 1.000000 0.875000
vt 1.000000 1.000000
vt 0.000000 1.000000
vt 0.000000 0.875000
vt 1.000000 0.875000
vt 0.000000 0.875000
vt 0.000000 1.000000
vt 1.000000 1.000000
vt 0.312500 0.843750
vt 0.312500 0.906250
vt 0.187500 0.906250
vt 0.187500 0.843750
vt 0.156250 0.906250
vt 0.031250 0.906250
vt 0.031250 0.843750
vt 0.156250 0.843750
vt 0.093750 0.031250
vt 0.093750 0.093750
vt 0.031250 0.093750
vt 0.031250 0.031250
vt 0.093750 0.031250
vt 0.093750 0.093750
vt 0.031250 0.093750
vt 0.031250 0.031250
vt 0.093750 0.031250
vt 0.031250 0.093750
vt 0.031250 0.031250
vt 0.093750 0.031250
vt 0.093750 0.093750
vt 0.031250 0.093750
vt 0.093750 0.031250
vt 0.031250 0.093750
vt 0.031250 0.031250
vt 0.093750 0.031250
vt 0.093750 0.093750
vt 0.031250 0.093750
vt 0.093750 0.031250
vt 0.093750 0.093750
vt 0.031250 0.093750
vt 0.031250 0.031250
vt 0.093750 0.031250
vt 0.093750 0.093750
vt 0.031250 0.093750
vt 0.031250 0.031250
vt 0.093750 0.031250
vt 0.031250 0.093750
vt 0.031250 0.031250
vt 0.093750 0.031250
vt 0.093750 0.093750
vt 0.031250 0.093750
vt 0.093750 0.031250
vt 0.031250 0.093750
vt 0.031250 0.031250
vt 0.093750 0.031250
vt 0.093750 0.093750
vt 0.031250 0.093750
vt 0.093750 0.031250
vt 0.093750 0.093750
vt 0.031250 0.093750
vt 0.031250 0.031250
vt 0.093750 0.031250
vt 0.093750 0.093750
vt 0.031250 0.093750
vt 0.031250 0.031250
vt 0.093750 0.031250
vt 0.031250 0.093750
vt 0.031250 0.031250
vt 0.093750 0.031250
vt 0.093750 0.093750
vt 0.031250 0.093750
vt 0.093750 0.031250
vt 0.031250 0.093750
vt 0.031250 0.031250
vt 0.093750 0.031250
vt 0.093750 0.093750
vt 0.031250 0.093750
vt 0.218750 0.031250
vt 0.218750 0.093750
vt 0.156250 0.093750
vt 0.156250 0.031250
vt 0.218750 0.031250
vt 0.218750 0.093750
vt 0.156250 0.093750
vt 0.156250 0.031250
vt 0.218750 0.031250
vt 0.156250 0.093750
vt 0.156250 0.031250
vt 0.218750 0.031250
vt 0.218750 0.093750
vt 0.156250 0.093750
vt 0.218750 0.031250
vt 0.156250 0.093750
vt 0.156250 0.031250
vt 0.218750 0.031250
vt 0.218750 0.093750
vt 0.156250 0.093750
vt 0.218750 0.031250
vt 0.218750 0.093750
vt 0.156250 0.093750
vt 0.156250 0.031250
vt 0.218750 0.031250
vt 0.218750 0.093750
vt 0.156250 0.093750
vt 0.156250 0.031250
vt 0.218750 0.031250
vt 0.156250 0.093750
vt 0.156250 0.031250
vt 0.218750 0.031250
vt 0.218750 0.093750
vt 0.156250 0.093750
vt 0.218750 0.031250
vt 0.156250 0.093750
vt 0.156250 0.031250
vt 0.218750 0.031250
vt 0.218750 0.093750
vt 0.156250 0.093750
vt 0.218750 0.031250
vt 0.218750 0.093750
vt 0.156250 0.093750
vt 0.156250 0.031250
vt 0.218750 0.031250
vt 0.218750 0.093750
vt 0.156250 0.093750
vt 0.156250 0.031250
vt 0.218750 0.031250
vt 0.156250 0.093750
vt 0.156250 0.031250
vt 0.218750 0.031250
vt 0.218750 0.093750
vt 0.156250 0.093750
vt 0.218750 0.031250
vt 0.156250 0.093750
vt 0.156250 0.031250
vt 0.218750 0.031250
vt 0.218750 0.093750
vt 0.156250 0.093750
vt 1.000000 0.875000
vt 0.000000 0.875000
vt 0.000000 0.812500
vt 1.000000 0.812500
vt 1.000000 0.750000
vt 1.000000 0.812500
vt 0.000000 0.812500
vt 0.000000 0.750000
vt 1.000000 0.875000
vt 1.000000 1.000000
vt 0.000000 1.000000
vt 0.000000 0.875000
vt 1.000000 0.875000
vt 0.000000 0.875000
vt 0.000000 1.000000
vt 1.000000 1.000000
vt 0.312500 0.843750
vt 0.312500 0.906250
vt 0.187500 0.906250
vt 0.187500 0.843750
vt 0.156250 0.906250
vt 0.031250 0.906250
vt 0.031250 0.843750
vt 0.156250 0.843750
vt 0.218750 0.031250
vt 0.218750 0.093750
vt 0.156250 0.093750
vt 0.156250 0.031250
vt 0.218750 0.031250
vt 0.218750 0.093750
vt 0.156250 0.093750
vt 0.156250 0.031250
vt 0.218750 0.031250
vt 0.156250 0.093750
vt 0.156250 0.031250
vt 0.218750 0.031250
vt 0.218750 0.093750
vt 0.156250 0.093750
vt 0.218750 0.031250
vt 0.156250 0.093750
vt 0.156250 0.031250
vt 0.218750 0.031250
vt 0.218750 0.093750
vt 0.156250 0.093750
vt 0.093750 0.031250
vt 0.093750 0.093750
vt 0.031250 0.093750
vt 0.031250 0.031250
vt 0.093750 0.031250
vt 0.093750 0.093750
vt 0.031250 0.093750
vt 0.031250 0.031250
vt 0.093750 0.031250
vt 0.031250 0.093750
vt 0.031250 0.031250
vt 0.093750 0.031250
vt 0.093750 0.093750
vt 0.031250 0.093750
vt 0.093750 0.031250
vt 0.031250 0.093750
vt 0.031250 0.031250
vt 0.093750 0.031250
vt 0.093750 0.093750
vt 0.031250 0.093750
vt 0.093750 0.031250
vt 0.093750 0.093750
vt 0.031250 0.093750
vt 0.031250 0.031250
vt 0.093750 0.031250
vt 0.093750 0.093750
vt 0.031250 0.093750
vt 0.031250 0.031250
vt 0.093750 0.031250
vt 0.031250 0.093750
vt 0.031250 0.031250
vt 0.093750 0.031250
vt 0.093750 0.093750
vt 0.031250 0.093750
vt 0.093750 0.031250
vt 0.031250 0.093750
vt 0.031250 0.031250
vt 0.093750 0.031250
vt 0.093750 0.093750
vt 0.031250 0.093750
vt 0.093750 0.031250
vt 0.093750 0.093750
vt 0.031250 0.093750
vt 0.031250 0.031250
vt 0.093750 0.031250
vt 0.093750 0.093750
vt 0.031250 0.093750
vt 0.031250 0.031250
vt 0.093750 0.031250
vt 0.031250 0.093750
vt 0.031250 0.031250
vt 0.093750 0.031250
vt 0.093750 0.093750
vt 0.031250 0.093750
vt 0.093750 0.031250
vt 0.031250 0.093750
vt 0.031250 0.031250
vt 0.093750 0.031250
vt 0.093750 0.093750
vt 0.031250 0.093750
vn 0.0000 0.0000 1.0000
vn 0.0000 0.0000 -1.0000
vn 0.0000 1.0000 0.0000
vn 0.0000 -1.0000 -0.0000
vn -1.0000 0.0000 0.0000
vn 1.0000 0.0000 0.0000
usemtl m_0
s 1
f 1/1/1 2/2/1 3/3/1 4/4/1
f 5/5/2 6/6/2 7/7/2 8/8/2
f 6/9/3 2/10/3 1/11/3 7/12/3
f 4/13/4 3/14/4 5/15/4 8/16/4
f 3/17/5 2/18/5 6/19/5 5/20/5
f 7/21/6 1/22/6 4/23/6 8/24/6
f 9/25/1 10/26/1 11/27/1 12/28/1
f 13/29/2 14/30/2 15/31/2 16/32/2
f 14/33/3 10/26/3 9/34/3 15/35/3
f 12/36/4 11/37/4 13/38/4 16/32/4
f 11/39/5 10/26/5 14/40/5 13/41/5
f 15/42/6 9/43/6 12/44/6 16/32/6
f 17/45/1 18/46/1 19/47/1 20/48/1
f 21/49/2 22/50/2 23/51/2 24/52/2
f 22/53/3 18/46/3 17/54/3 23/55/3
f 20/56/4 19/57/4 21/58/4 24/52/4
f 19/59/5 18/46/5 22/60/5 21/61/5
f 23/62/6 17/63/6 20/64/6 24/52/6
f 25/65/1 26/66/1 27/67/1 28/68/1
f 29/69/2 30/70/2 31/71/2 32/72/2
f 30/73/3 26/66/3 25/74/3 31/75/3
f 28/76/4 27/77/4 29/78/4 32/72/4
f 27/79/5 26/66/5 30/80/5 29/81/5
f 31/82/6 25/83/6 28/84/6 32/72/6
f 33/85/1 34/86/1 35/87/1 36/88/1
f 37/89/2 38/90/2 39/91/2 40/92/2
f 38/93/3 34/86/3 33/94/3 39/95/3
f 36/96/4 35/97/4 37/98/4 40/92/4
f 35/99/5 34/86/5 38/100/5 37/101/5
f 39/102/6 33/103/6 36/104/6 40/92/6
f 41/105/1 42/106/1 43/107/1 44/108/1
f 45/109/2 46/110/2 47/111/2 48/112/2
f 46/113/3 42/106/3 41/114/3 47/115/3
f 44/116/4 43/117/4 45/118/4 48/112/4
f 43/119/5 42/106/5 46/120/5 45/121/5
f 47/122/6 41/123/6 44/124/6 48/112/6
f 49/125/1 50/126/1 51/127/1 52/128/1
f 53/129/2 54/130/2 55/131/2 56/132/2
f 54/133/3 50/126/3 49/134/3 55/135/3
f 52/136/4 51/137/4 53/138/4 56/132/4
f 51/139/5 50/126/5 54/140/5 53/141/5
f 55/142/6 49/143/6 52/144/6 56/132/6
f 57/145/1 58/146/1 59/147/1 60/148/1
f 61/149/2 62/150/2 63/151/2 64/152/2
f 62/153/3 58/154/3 57/155/3 63/156/3
f 60/157/4 59/158/4 61/159/4 64/160/4
f 59/161/5 58/162/5 62/163/5 61/164/5
f 63/165/6 57/166/6 60/167/6 64/168/6
f 65/169/1 66/170/1 67/171/1 68/172/1
f 69/173/2 70/174/2 71/175/2 72/176/2
f 70/177/3 66/170/3 65/178/3 71/179/3
f 68/180/4 67/181/4 69/182/4 72/176/4
f 67/183/5 66/170/5 70/184/5 69/185/5
f 71/186/6 65/187/6 68/188/6 72/176/6
f 73/189/1 74/190/1 75/191/1 76/192/1
f 77/193/2 78/194/2 79/195/2 80/196/2
f 78/197/3 74/190/3 73/198/3 79/199/3
f 76/200/4 75/201/4 77/202/4 80/196/4
f 75/203/5 74/190/5 78/204/5 77/205/5
f 79/206/6 73/207/6 76/208/6 80/196/6
f 81/209/1 82/210/1 83/211/1 84/212/1
f 85/213/2 86/214/2 87/215/2 88/216/2
f 86/217/3 82/210/3 81/218/3 87/219/3
f 84/220/4 83/221/4 85/222/4 88/216/4
f 83/223/5 82/210/5 86/224/5 85/225/5
f 87/226/6 81/227/6 84/228/6 88/216/6
f 89/229/1 90/230/1 91/231/1 92/232/1
f 93/233/2 94/234/2 95/235/2 96/236/2
f 94/237/3 90/230/3 89/238/3 95/239/3
f 92/240/4 91/241/4 93/242/4 96/236/4
f 91/243/5 90/230/5 94/244/5 93/245/5
f 95/246/6 89/247/6 92/248/6 96/236/6
