# Blender v2.78 (sub 0) OBJ File: ''
# www.blender.org
mtllib capacitor.mtl
o cube
v 0.391856 -0.130494 0.129694
v 0.399264 -0.178100 0.142161
v 0.123478 -0.285150 -0.301401
v 0.130886 -0.332756 -0.288934
v -0.327650 -0.282093 -0.021648
v -0.320242 -0.329699 -0.009181
v -0.059273 -0.127437 0.409447
v -0.051865 -0.175043 0.421913
v 0.381978 -0.067019 0.113072
v 0.391856 -0.130494 0.129694
v 0.113600 -0.221675 -0.318023
v 0.123478 -0.285150 -0.301401
v -0.337528 -0.218618 -0.038271
v -0.327650 -0.282093 -0.021648
v -0.069151 -0.063962 0.392824
v -0.059273 -0.127437 0.409447
v 0.354554 -0.040019 0.100031
v 0.359493 -0.071756 0.108342
v 0.102951 -0.185009 -0.304121
v 0.107889 -0.216747 -0.295809
v -0.319982 -0.182143 -0.041852
v -0.315044 -0.213881 -0.033541
v -0.068379 -0.037153 0.362299
v -0.063440 -0.068890 0.370610
v 0.278262 0.599467 -0.061464
v 0.377039 -0.035281 0.104760
v 0.009885 0.444811 -0.492559
v 0.108662 -0.189938 -0.326334
v -0.441244 0.447868 -0.212806
v -0.342467 -0.186881 -0.046582
v -0.172866 0.602525 0.218289
v -0.074090 -0.032224 0.384513
v 0.016667 -0.234185 0.155346
v 0.046300 -0.424610 0.205213
v -0.050427 -0.272849 0.047572
v -0.020794 -0.463274 0.097439
v -0.163210 -0.272085 0.117510
v -0.133577 -0.462510 0.167377
v -0.096115 -0.233421 0.225284
v -0.066482 -0.423846 0.275151
v 0.242231 -0.235714 0.015469
v 0.281742 -0.489614 0.081959
v 0.175137 -0.274378 -0.092304
v 0.214648 -0.528278 -0.025815
v 0.062355 -0.273614 -0.022366
v 0.101865 -0.527513 0.044124
v 0.129449 -0.234950 0.085407
v 0.168960 -0.488849 0.151897
vt 0.6250 0.1250
vt 0.8750 0.1250
vt 0.8750 0.3750
vt 0.6250 0.3750
vt 0.6250 0.1250
vt 0.8750 0.1250
vt 0.8750 0.3750
vt 0.6250 0.3750
vt 0.1250 0.6250
vt 0.3750 0.6250
vt 0.3750 0.8750
vt 0.1250 0.8750
vt 0.1250 0.6250
vt 0.3750 0.6250
vt 0.3750 0.8750
vt 0.1250 0.8750
vt 0.6250 0.1250
vt 0.8750 0.1250
vt 0.8750 0.3750
vt 0.6250 0.3750
vt 0.6250 0.1250
vt 0.8750 0.3750
vt 0.6250 0.3750
vt 0.6250 0.6250
vt 0.8750 0.6250
vt 0.8750 0.8750
vt 0.6250 0.8750
vt 0.8750 0.6250
vt 0.8750 0.8750
vt 0.6250 0.8750
vt 0.1250 0.6250
vt 0.3750 0.6250
vt 0.3750 0.8750
vt 0.1250 0.8750
vt 0.6250 0.1250
vt 0.8750 0.1250
vt 0.8750 0.3750
vt 0.6250 0.3750
vt 0.6250 0.6250
vt 0.8750 0.6250
vt 0.8750 0.8750
vt 0.6250 0.8750
vt 0.8750 0.1250
vt 0.8750 0.3750
vt 0.6250 0.3750
vt 0.1250 0.1250
vt 0.3750 0.1250
vt 0.3750 0.3750
vt 0.1250 0.3750
vt 0.1250 0.6250
vt 0.3750 0.6250
vt 0.3750 0.8750
vt 0.1250 0.8750
vt 0.1250 0.6250
vt 0.3750 0.6250
vt 0.3750 0.8750
vt 0.1250 0.8750
vt 0.6250 0.1250
vt 0.8750 0.1250
vt 0.8750 0.3750
vt 0.6250 0.3750
vt 0.6250 0.1250
vt 0.8750 0.1250
vt 0.8750 0.3750
vt 0.6250 0.3750
vt 0.6250 0.1250
vt 0.8750 0.3750
vt 0.6250 0.3750
vt 0.3750 0.6250
vt 0.3750 0.8750
vt 0.1250 0.8750
vt 0.6250 0.6250
vt 0.8750 0.8750
vt 0.6250 0.8750
vt 0.1250 0.1250
vt 0.3750 0.1250
vt 0.3750 0.3750
vt 0.1250 0.3750
vt 0.1250 0.6250
vt 0.3750 0.6250
vt 0.3750 0.8750
vt 0.1250 0.8750
vt 0.6250 0.1250
vt 0.8750 0.1250
vt 0.6250 0.3750
vt 0.1250 0.6250
vt 0.3750 0.6250
vt 0.3750 0.8750
vt 0.1250 0.8750
vt 0.1250 0.1250
vt 0.3750 0.1250
vt 0.3750 0.3750
vt 0.1250 0.3750
vt 0.1250 0.6250
vt 0.3750 0.6250
vt 0.3750 0.8750
vt 0.1250 0.1250
vt 0.3750 0.1250
vt 0.1250 0.3750
vt 0.1250 0.1250
vt 0.3750 0.1250
vt 0.3750 0.3750
vt 0.6250 0.6250
vt 0.8750 0.6250
vt 0.1250 0.6250
vt 0.1250 0.8750
vt 0.6250 0.1250
vt 0.8750 0.1250
vt 0.6250 0.6250
vt 0.8750 0.6250
vt 0.8750 0.8750
vt 0.6250 0.8750
vt 0.3750 0.3750
vt 0.1250 0.3750
vt 0.8750 0.1250
vt 0.8750 0.3750
vt 0.1250 0.6250
vt 0.3750 0.6250
vt 0.3750 0.8750
vt 0.1250 0.8750
vn 0.1489 -0.9566 0.2505
vn 0.8498 -0.0058 -0.5270
vn -0.8498 0.0058 0.5270
vn 0.5056 0.2913 0.8121
vn -0.5056 -0.2913 -0.8121
vn -0.1489 0.9566 -0.2505
usemtl m_0
s 1
f 38/1/1 36/2/1 34/3/1 40/4/1
f 42/5/2 44/6/2 43/7/2 41/8/2
f 30/9/3 32/10/3 31/11/3 29/12/3
f 32/13/4 26/14/4 25/15/4 31/16/4
f 48/17/4 42/18/4 41/19/4 47/20/4
f 46/21/1 44/6/1 42/22/1 48/23/1
f 22/24/1 20/25/1 18/26/1 24/27/1
f 22/24/3 24/28/3 23/29/3 21/30/3
f 12/31/5 14/32/5 13/33/5 11/34/5
f 40/35/4 34/36/4 33/37/4 39/38/4
f 20/39/5 22/40/5 21/41/5 19/42/5
f 38/1/3 40/43/3 39/44/3 37/45/3
f 7/46/6 1/47/6 3/48/6 5/49/6
f 10/50/2 12/51/2 11/52/2 9/53/2
f 14/54/3 16/55/3 15/56/3 13/57/3
f 44/58/5 46/59/5 45/60/5 43/61/5
f 36/62/5 38/63/5 37/64/5 35/65/5
f 34/66/2 36/2/2 35/67/2 33/68/2
f 30/9/1 28/69/1 26/70/1 32/71/1
f 18/72/2 20/25/2 19/73/2 17/74/2
f 4/75/5 6/76/5 5/77/5 3/78/5
f 16/79/4 10/80/4 9/81/4 15/82/4
f 47/83/6 41/84/6 43/7/6 45/85/6
f 15/86/6 9/87/6 11/52/6 13/57/6
f 14/54/1 12/51/1 10/88/1 16/89/1
f 8/90/4 2/91/4 1/92/4 7/93/4
f 31/94/6 25/95/6 27/96/6 29/12/6
f 2/97/2 4/98/2 3/48/2 1/99/2
f 6/100/3 8/101/3 7/102/3 5/49/3
f 23/103/6 17/104/6 19/73/6 21/30/6
f 26/105/2 28/69/2 27/96/2 25/106/2
f 39/107/6 33/108/6 35/67/6 37/45/6
f 24/109/4 18/110/4 17/111/4 23/112/4
f 6/100/1 4/98/1 2/113/1 8/114/1
f 46/21/3 48/115/3 47/116/3 45/85/3
f 28/117/5 30/118/5 29/119/5 27/120/5
