# Blender v2.78 (sub 0) OBJ File: ''
# www.blender.org
mtllib licenseplateeuro.mtl
o european_cube_or_fucken_something_idk
v -0.096571 0.062500 -0.000250
v 0.203429 0.062500 -0.000250
v 0.203429 0.062500 -0.062750
v -0.096571 0.062500 -0.062750
v -0.221571 -0.062500 -0.062750
v -0.096571 -0.062500 -0.062750
v -0.096571 -0.062500 -0.000250
v -0.221571 -0.062500 -0.000250
v -0.096571 0.062500 -0.000250
v -0.221571 0.062500 -0.000250
v -0.221571 0.062500 -0.062750
v -0.096571 -0.062500 -0.062750
v -0.096571 -0.062500 -0.000250
v 0.203429 -0.062500 -0.062750
v 0.203429 -0.062500 -0.000250
v -0.096571 0.062500 -0.062750
vt 0.0000 0.0000
vt 0.0625 0.0000
vt 0.0625 0.0625
vt 0.0000 0.0625
vt 0.0000 0.0000
vt 0.0625 0.0000
vt 0.0625 0.0625
vt 0.0000 0.0625
vt 0.5000 0.0000
vt 1.0000 0.0000
vt 1.0000 0.5000
vt 0.5000 0.5000
vt 0.0625 0.0000
vt 0.0625 0.0625
vt 0.0000 0.0625
vt 0.0000 0.0000
vt 0.0625 0.0000
vt 0.0625 0.0625
vt 0.0625 0.0000
vt 0.0625 0.0625
vt 0.0000 0.0625
vt 0.0000 0.0000
vt 0.0625 0.0000
vt 0.0625 0.0625
vt 0.0000 0.0625
vt 0.0000 0.0000
vt 0.0000 0.0625
vt 0.0000 0.0000
vt 0.0625 0.0625
vt 0.0000 0.0625
vt 0.0000 0.0000
vt 0.0625 0.0000
vt 0.0625 0.0625
vt 0.0000 0.0625
vt 0.0000 0.0000
vt 0.0625 0.0000
vt 0.0000 0.5000
vt 1.0000 0.5000
vt 1.0000 1.0000
vt 0.0000 1.0000
vn 0.0000 1.0000 0.0000
vn 0.0000 -1.0000 0.0000
vn 0.0000 -0.0000 1.0000
vn -1.0000 0.0000 0.0000
vn 0.0000 0.0000 -1.0000
vn 1.0000 0.0000 0.0000
usemtl m_0.001
s 1
f 1/1/1 2/2/1 3/3/1 4/4/1
f 5/5/2 6/6/2 7/7/2 8/8/2
f 8/9/3 7/10/3 9/11/3 10/12/3
f 5/5/4 8/13/4 10/14/4 11/15/4
f 12/16/4 13/17/4 1/18/4 4/4/4
f 12/16/2 14/19/2 15/20/2 13/21/2
f 14/22/5 12/23/5 4/24/5 3/25/5
f 15/26/6 14/19/6 3/3/6 2/27/6
f 7/28/6 6/6/6 16/29/6 9/30/6
f 6/31/5 5/32/5 11/33/5 16/34/5
f 10/35/1 9/36/1 16/29/1 11/15/1
f 13/37/3 15/38/3 2/39/3 1/40/3
