# Blender v2.78 (sub 0) OBJ File: ''
# www.blender.org
mtllib npcalex.mtl
o Alex
v -0.006250 0.062625 0.750000
v 0.243750 0.062625 0.750000
v 0.243750 0.062625 0.000000
v -0.006250 0.062625 0.000000
v -0.250000 -0.104681 0.041021
v -0.437500 -0.104681 0.041021
v -0.437500 0.619763 -0.153093
v -0.250000 0.619763 -0.153093
v 0.250000 -0.104681 0.041021
v 0.250000 -0.039976 0.282503
v 0.250000 0.684468 0.088388
v 0.250000 0.619763 -0.153093
v 0.243750 -0.187375 0.750000
v -0.006250 -0.187375 0.750000
v -0.006250 -0.187375 -0.000000
v 0.243750 -0.187375 -0.000000
v 0.006250 -0.187375 -0.000000
v -0.243750 -0.187375 -0.000000
v -0.243750 0.062625 0.000000
v 0.006250 0.062625 0.000000
v 0.250000 0.687625 0.250000
v 0.250000 0.687625 -0.250000
v 0.250000 1.187625 -0.250000
v 0.250000 1.187625 0.250000
v -0.250000 0.687625 0.250000
v -0.250000 0.687625 -0.250000
v 0.437500 -0.104681 0.041021
v 0.437500 0.619763 -0.153093
v -0.250000 -0.039976 0.282503
v -0.250000 0.684468 0.088388
v -0.250000 -0.062375 0.125000
v 0.250000 -0.062375 0.125000
v 0.250000 0.687625 0.125000
v -0.250000 0.687625 0.125000
v 0.006250 0.062625 0.750000
v 0.006250 -0.187375 0.750000
v 0.250000 -0.062375 -0.125000
v -0.250000 -0.062375 -0.125000
v -0.250000 0.687625 -0.125000
v 0.250000 0.687625 -0.125000
v -0.437500 -0.039976 0.282503
v -0.437500 0.684468 0.088388
v -0.250000 1.187625 -0.250000
v -0.250000 1.187625 0.250000
v -0.243750 0.062625 0.750000
v -0.243750 -0.187375 0.750000
v 0.437500 0.684468 0.088388
v 0.437500 -0.039976 0.282503
vt 0.3127 0.0002
vt 0.3748 0.0002
vt 0.3748 0.1873
vt 0.3127 0.1873
vt 0.7971 0.5002
vt 0.8435 0.5002
vt 0.8435 0.6873
vt 0.7971 0.6873
vt 0.5002 0.0002
vt 0.5623 0.0002
vt 0.5623 0.1873
vt 0.5002 0.1873
vt 0.4377 0.0002
vt 0.4998 0.0002
vt 0.4998 0.1873
vt 0.4377 0.1873
vt 0.1248 0.7498
vt 0.0627 0.7498
vt 0.0627 0.6877
vt 0.1248 0.6877
vt 0.2502 0.7502
vt 0.3748 0.7502
vt 0.3748 0.8748
vt 0.2502 0.8748
vt 0.3748 0.8752
vt 0.2502 0.8752
vt 0.2502 0.9998
vt 0.3748 0.9998
vt 0.6721 0.0002
vt 0.7185 0.0002
vt 0.7185 0.1873
vt 0.6721 0.1873
vt 0.7346 0.5002
vt 0.7966 0.5002
vt 0.7966 0.6873
vt 0.7346 0.6873
vt 0.3127 0.5002
vt 0.4373 0.5002
vt 0.4373 0.6873
vt 0.3127 0.6873
vt 0.1252 0.5002
vt 0.1873 0.5002
vt 0.1873 0.6873
vt 0.1252 0.6873
vt 0.5002 0.5002
vt 0.6248 0.5002
vt 0.6248 0.6873
vt 0.5002 0.6873
vt 0.6252 0.5002
vt 0.6873 0.5002
vt 0.6873 0.6873
vt 0.6252 0.6873
vt 0.2498 0.9998
vt 0.1252 0.9998
vt 0.1252 0.8752
vt 0.2498 0.8752
vt 0.0627 0.5002
vt 0.1248 0.5002
vt 0.1248 0.6873
vt 0.0627 0.6873
vt 0.2502 0.5002
vt 0.3123 0.5002
vt 0.3123 0.6873
vt 0.2502 0.6873
vt 0.3752 0.0002
vt 0.4373 0.0002
vt 0.4373 0.1873
vt 0.3752 0.1873
vt 0.4373 0.7498
vt 0.3127 0.7498
vt 0.3127 0.6877
vt 0.4373 0.6877
vt 0.0002 0.7502
vt 0.1248 0.7502
vt 0.1248 0.8748
vt 0.0002 0.8748
vt 0.1877 0.5002
vt 0.2498 0.5002
vt 0.2498 0.6873
vt 0.1877 0.6873
vt 0.4373 0.1877
vt 0.3752 0.1877
vt 0.3752 0.2498
vt 0.4373 0.2498
vt 0.1873 0.6877
vt 0.1252 0.6877
vt 0.1252 0.7498
vt 0.1873 0.7498
vt 0.6091 0.2498
vt 0.5627 0.2498
vt 0.5627 0.1877
vt 0.6091 0.1877
vt 0.0002 0.5002
vt 0.0623 0.5002
vt 0.0623 0.6873
vt 0.0002 0.6873
vt 0.7810 0.6877
vt 0.7346 0.6877
vt 0.7346 0.7498
vt 0.7810 0.7498
vt 0.3752 0.7502
vt 0.4998 0.7502
vt 0.4998 0.8748
vt 0.3752 0.8748
vt 0.6877 0.5002
vt 0.7341 0.5002
vt 0.7341 0.6873
vt 0.6877 0.6873
vt 0.1252 0.7502
vt 0.2498 0.7502
vt 0.2498 0.8748
vt 0.1252 0.8748
vt 0.2502 0.0002
vt 0.3123 0.0002
vt 0.3123 0.1873
vt 0.2502 0.1873
vt 0.7341 0.7498
vt 0.6877 0.7498
vt 0.6877 0.6877
vt 0.7341 0.6877
vt 0.6096 0.0002
vt 0.6716 0.0002
vt 0.6716 0.1873
vt 0.6096 0.1873
vt 0.5627 0.0002
vt 0.6091 0.0002
vt 0.6091 0.1873
vt 0.5627 0.1873
vt 0.5623 0.6877
vt 0.4377 0.6877
vt 0.4377 0.7498
vt 0.5623 0.7498
vt 0.4377 0.5002
vt 0.4998 0.5002
vt 0.4998 0.6873
vt 0.4377 0.6873
vt 0.3748 0.2498
vt 0.3127 0.2498
vt 0.3127 0.1877
vt 0.3748 0.1877
vt 0.6560 0.1877
vt 0.6096 0.1877
vt 0.6096 0.2498
vt 0.6560 0.2498
vn 0.0000 1.0000 0.0000
vn 0.0000 -0.2588 -0.9659
vn -1.0000 0.0000 0.0000
vn 0.0000 -1.0000 -0.0000
vn 0.0000 0.0000 -1.0000
vn 1.0000 0.0000 0.0000
vn 0.0000 -0.0000 1.0000
vn 0.0000 0.9659 -0.2588
vn 0.0000 -0.9659 0.2588
vn 0.0000 0.2588 0.9659
usemtl m_0
s 1
f 1/1/1 2/2/1 3/3/1 4/4/1
f 5/5/2 6/6/2 7/7/2 8/8/2
f 9/9/3 10/10/3 11/11/3 12/12/3
f 13/13/4 14/14/4 15/15/4 16/16/4
f 17/17/5 18/18/5 19/19/5 20/20/5
f 21/21/6 22/22/6 23/23/6 24/24/6
f 21/25/4 25/26/4 26/27/4 22/28/4
f 27/29/2 9/30/2 12/31/2 28/32/2
f 29/33/6 5/34/6 8/35/6 30/36/6
f 31/37/7 32/38/7 33/39/7 34/40/7
f 35/41/6 36/42/6 17/43/6 20/44/6
f 37/45/5 38/46/5 39/47/5 40/48/5
f 6/49/3 41/50/3 42/51/3 7/52/3
f 23/53/1 43/54/1 44/55/1 24/56/1
f 45/57/1 35/58/1 20/59/1 19/60/1
f 38/61/3 31/62/3 34/63/3 39/64/3
f 2/65/6 13/66/6 16/67/6 3/68/6
f 40/69/1 39/70/1 34/71/1 33/72/1
f 26/73/3 25/74/3 44/75/3 43/76/3
f 36/77/4 46/78/4 18/79/4 17/80/4
f 2/81/7 1/82/7 14/83/7 13/84/7
f 35/85/7 45/86/7 46/87/7 36/88/7
f 28/89/8 12/90/8 11/91/8 47/92/8
f 46/93/3 45/94/3 19/95/3 18/96/3
f 29/97/9 41/98/9 6/99/9 5/100/9
f 22/101/5 26/102/5 43/103/5 23/104/5
f 41/105/10 29/106/10 30/107/10 42/108/10
f 25/109/7 21/110/7 24/111/7 44/112/7
f 14/113/3 1/114/3 4/115/3 15/116/3
f 8/117/8 7/118/8 42/119/8 30/120/8
f 48/121/6 27/122/6 28/123/6 47/124/6
f 10/125/10 48/126/10 47/127/10 11/128/10
f 32/129/4 31/130/4 38/131/4 37/132/4
f 32/133/6 37/134/6 40/135/6 33/136/6
f 16/137/5 15/138/5 4/139/5 3/140/5
f 48/141/9 10/142/9 9/143/9 27/144/9
o Alex_translucent
v 0.021875 -0.203000 0.765625
v -0.259375 -0.203000 0.765625
v -0.259375 -0.203000 -0.015625
v 0.021875 -0.203000 -0.015625
v -0.281250 0.656375 0.281250
v 0.281250 0.656375 0.281250
v 0.281250 1.218875 0.281250
v -0.281250 1.218875 0.281250
v -0.259375 0.078250 0.765625
v -0.259375 0.078250 -0.015625
v -0.021875 0.078250 0.765625
v 0.259375 0.078250 0.765625
v 0.259375 0.078250 -0.015625
v -0.021875 0.078250 -0.015625
v 0.021875 0.078250 0.765625
v 0.021875 0.078250 -0.015625
v -0.281250 0.656375 -0.281250
v -0.281250 1.218875 -0.281250
v 0.265625 -0.078000 -0.140625
v -0.265625 -0.078000 -0.140625
v -0.265625 0.703250 -0.140625
v 0.265625 0.703250 -0.140625
v 0.281250 0.656375 -0.281250
v 0.281250 1.218875 -0.281250
v -0.265625 0.703250 0.140625
v 0.265625 0.703250 0.140625
v -0.021875 -0.203000 0.765625
v 0.259375 -0.203000 0.765625
v 0.453125 -0.123818 0.029973
v 0.234375 -0.123818 0.029973
v 0.234375 0.630812 -0.172230
v 0.453125 0.630812 -0.172230
v 0.265625 -0.078000 0.140625
v -0.265625 -0.078000 0.140625
v 0.453125 -0.051025 0.301639
v 0.234375 -0.051025 0.301639
v 0.453125 0.703605 0.099437
v 0.234375 0.703605 0.099437
v -0.234375 -0.051025 0.301639
v -0.234375 -0.123818 0.029973
v -0.234375 0.630812 -0.172230
v -0.234375 0.703605 0.099437
v -0.453125 0.630812 -0.172230
v -0.453125 0.703605 0.099437
v 0.259375 -0.203000 -0.015625
v -0.021875 -0.203000 -0.015625
v -0.453125 -0.051025 0.301639
v -0.453125 -0.123818 0.029973
vt 0.1877 0.2502
vt 0.2498 0.2502
vt 0.2498 0.4373
vt 0.1877 0.4373
vt 0.6252 0.7502
vt 0.7498 0.7502
vt 0.7498 0.8748
vt 0.6252 0.8748
vt 0.0002 0.2502
vt 0.0623 0.2502
vt 0.0623 0.4373
vt 0.0002 0.4373
vt 0.0627 0.0002
vt 0.1248 0.0002
vt 0.1248 0.1873
vt 0.0627 0.1873
vt 0.0627 0.2502
vt 0.1248 0.2502
vt 0.1248 0.4373
vt 0.0627 0.4373
vt 0.5002 0.7502
vt 0.6248 0.7502
vt 0.6248 0.8748
vt 0.5002 0.8748
vt 0.5002 0.2502
vt 0.6248 0.2502
vt 0.6248 0.4373
vt 0.5002 0.4373
vt 0.1248 0.4998
vt 0.0627 0.4998
vt 0.0627 0.4377
vt 0.1248 0.4377
vt 0.7502 0.7502
vt 0.8748 0.7502
vt 0.8748 0.8748
vt 0.7502 0.8748
vt 0.8752 0.7502
vt 0.9998 0.7502
vt 0.9998 0.8748
vt 0.8752 0.8748
vt 0.4373 0.4998
vt 0.3127 0.4998
vt 0.3127 0.4377
vt 0.4373 0.4377
vt 0.1873 0.1877
vt 0.1252 0.1877
vt 0.1252 0.2498
vt 0.1873 0.2498
vt 0.9221 0.0002
vt 0.9685 0.0002
vt 0.9685 0.1873
vt 0.9221 0.1873
vt 0.5623 0.4377
vt 0.4377 0.4377
vt 0.4377 0.4998
vt 0.5623 0.4998
vt 0.1873 0.4377
vt 0.1252 0.4377
vt 0.1252 0.4998
vt 0.1873 0.4998
vt 0.9060 0.1877
vt 0.8596 0.1877
vt 0.8596 0.2498
vt 0.9060 0.2498
vt 0.8127 0.0002
vt 0.8591 0.0002
vt 0.8591 0.1873
vt 0.8127 0.1873
vt 0.7346 0.2502
vt 0.7966 0.2502
vt 0.7966 0.4373
vt 0.7346 0.4373
vt 0.7502 0.0002
vt 0.8123 0.0002
vt 0.8123 0.1873
vt 0.7502 0.1873
vt 0.8596 0.0002
vt 0.9216 0.0002
vt 0.9216 0.1873
vt 0.8596 0.1873
vt 0.7341 0.4998
vt 0.6877 0.4998
vt 0.6877 0.4377
vt 0.7341 0.4377
vt 0.4377 0.2502
vt 0.4998 0.2502
vt 0.4998 0.4373
vt 0.4377 0.4373
vt 0.1252 0.0002
vt 0.1873 0.0002
vt 0.1873 0.1873
vt 0.1252 0.1873
vt 0.8591 0.2498
vt 0.8127 0.2498
vt 0.8127 0.1877
vt 0.8591 0.1877
vt 0.2502 0.2502
vt 0.3123 0.2502
vt 0.3123 0.4373
vt 0.2502 0.4373
vt 0.8748 0.8752
vt 0.7502 0.8752
vt 0.7502 0.9998
vt 0.8748 0.9998
vt 0.1248 0.2498
vt 0.0627 0.2498
vt 0.0627 0.1877
vt 0.1248 0.1877
vt 0.1877 0.0002
vt 0.2498 0.0002
vt 0.2498 0.1873
vt 0.1877 0.1873
vt 0.7498 0.9998
vt 0.6252 0.9998
vt 0.6252 0.8752
vt 0.7498 0.8752
vt 0.0002 0.0002
vt 0.0623 0.0002
vt 0.0623 0.1873
vt 0.0002 0.1873
vt 0.6877 0.2502
vt 0.7341 0.2502
vt 0.7341 0.4373
vt 0.6877 0.4373
vt 0.6252 0.2502
vt 0.6873 0.2502
vt 0.6873 0.4373
vt 0.6252 0.4373
vt 0.1252 0.2502
vt 0.1873 0.2502
vt 0.1873 0.4373
vt 0.1252 0.4373
vt 0.3127 0.2502
vt 0.4373 0.2502
vt 0.4373 0.4373
vt 0.3127 0.4373
vt 0.7971 0.2502
vt 0.8435 0.2502
vt 0.8435 0.4373
vt 0.7971 0.4373
vt 0.7810 0.4377
vt 0.7346 0.4377
vt 0.7346 0.4998
vt 0.7810 0.4998
vn 0.0000 -1.0000 -0.0000
vn 0.0000 -0.0000 1.0000
vn -1.0000 -0.0000 0.0000
vn 0.0000 1.0000 0.0000
vn 0.0000 0.0000 -1.0000
vn 1.0000 0.0000 0.0000
vn 0.0000 -0.2588 -0.9659
vn 0.0000 -0.9659 0.2588
vn 0.0000 0.2588 0.9659
vn 0.0000 0.9659 -0.2588
usemtl m_0
s 1
f 49/145/11 50/146/11 51/147/11 52/148/11
f 53/149/12 54/150/12 55/151/12 56/152/12
f 50/153/13 57/154/13 58/155/13 51/156/13
f 59/157/14 60/158/14 61/159/14 62/160/14
f 57/161/14 63/162/14 64/163/14 58/164/14
f 65/165/13 53/166/13 56/167/13 66/168/13
f 67/169/15 68/170/15 69/171/15 70/172/15
f 52/173/15 51/174/15 58/175/15 64/176/15
f 54/177/16 71/178/16 72/179/16 55/180/16
f 71/181/15 65/182/15 66/183/15 72/184/15
f 70/185/14 69/186/14 73/187/14 74/188/14
f 60/189/12 59/190/12 75/191/12 76/192/12
f 77/193/17 78/194/17 79/195/17 80/196/17
f 81/197/11 82/198/11 68/199/11 67/200/11
f 63/201/12 57/202/12 50/203/12 49/204/12
f 83/205/18 84/206/18 78/207/18 77/208/18
f 84/209/19 83/210/19 85/211/19 86/212/19
f 87/213/16 88/214/16 89/215/16 90/216/16
f 78/217/13 84/218/13 86/219/13 79/220/13
f 83/221/16 77/222/16 80/223/16 85/224/16
f 89/225/20 91/226/20 92/227/20 90/228/20
f 81/229/16 67/230/16 70/231/16 74/232/16
f 60/233/16 76/234/16 93/235/16 61/236/16
f 80/237/20 79/238/20 86/239/20 85/240/20
f 68/241/13 82/242/13 73/243/13 69/244/13
f 54/245/11 53/246/11 65/247/11 71/248/11
f 93/249/15 94/250/15 62/251/15 61/252/15
f 76/253/11 75/254/11 94/255/11 93/256/11
f 72/257/14 66/258/14 56/259/14 55/260/14
f 75/261/13 59/262/13 62/263/13 94/264/13
f 95/265/19 87/266/19 90/267/19 92/268/19
f 96/269/13 95/270/13 92/271/13 91/272/13
f 63/273/16 49/274/16 52/275/16 64/276/16
f 82/277/12 81/278/12 74/279/12 73/280/12
f 88/281/17 96/282/17 91/283/17 89/284/17
f 87/285/18 95/286/18 96/287/18 88/288/18
