# Blender v2.78 (sub 0) OBJ File: 'rocklighthibeam.blend'
# www.blender.org
mtllib rocklighthibeam.mtl
o &RunningLight_fefefe_fffff_100
v 0.141900 0.141900 0.031313
v 0.141900 -0.141900 0.031312
v -0.141900 0.141900 0.031313
v -0.141900 -0.141900 0.031312
vt 0.9688 0.0000
vt 1.0000 0.0000
vt 1.0000 0.0312
vt 0.9688 0.0312
vn 0.0000 -0.0000 1.0000
usemtl m_0
s 1
f 4/1/1 2/2/1 1/3/1 3/4/1
o cube
v 0.125000 0.093750 0.015625
v 0.125000 -0.093750 0.015625
v 0.125000 0.093750 0.000000
v 0.125000 -0.093750 -0.000000
v -0.125000 0.093750 0.000000
v -0.125000 -0.093750 -0.000000
v -0.125000 0.093750 0.015625
v -0.125000 -0.093750 0.015625
vt 0.1562 0.6875
vt 0.1875 0.6875
vt 0.1875 0.8125
vt 0.1562 0.8125
vt 0.1562 0.6875
vt 0.3438 0.6875
vt 0.3438 0.8125
vt 0.1562 0.8125
vt 0.3438 0.6875
vt 0.3438 0.8125
vt 0.1562 0.7812
vt 0.3438 0.7812
vt 0.3125 0.6875
vt 0.3125 0.8125
vt 0.3438 0.7188
vt 0.1562 0.7188
vn -1.0000 -0.0000 0.0000
vn 0.0000 -0.0000 1.0000
vn 0.0000 0.0000 -1.0000
vn 0.0000 1.0000 0.0000
vn 1.0000 -0.0000 0.0000
vn 0.0000 -1.0000 0.0000
usemtl m_0
s 1
f 10/5/2 12/6/2 11/7/2 9/8/2
f 12/9/3 6/10/3 5/11/3 11/12/3
f 8/13/4 10/5/4 9/8/4 7/14/4
f 11/15/5 5/16/5 7/14/5 9/8/5
f 6/17/6 8/13/6 7/14/6 5/18/6
f 10/5/7 8/13/7 6/19/7 12/20/7
o glass
v -0.093750 0.078125 0.031250
v -0.093750 -0.078125 0.031250
v -0.093750 0.078125 0.015625
v -0.093750 -0.078125 0.015625
v -0.109375 0.078125 0.015625
v -0.109375 -0.078125 0.015625
v -0.109375 0.078125 0.031250
v -0.109375 -0.078125 0.031250
v 0.109375 0.078125 0.031250
v 0.109375 -0.078125 0.031250
v 0.109375 0.078125 0.015625
v 0.109375 -0.078125 0.015625
v 0.093750 0.078125 0.015625
v 0.093750 -0.078125 0.015625
v 0.093750 0.078125 0.031250
v 0.093750 -0.078125 0.031250
v 0.093750 0.078125 0.031250
v 0.093750 0.062500 0.031250
v 0.093750 0.078125 0.015625
v 0.093750 0.062500 0.015625
v -0.093750 0.078125 0.015625
v -0.093750 0.062500 0.015625
v -0.093750 0.078125 0.031250
v -0.093750 0.062500 0.031250
v 0.093750 -0.062500 0.031250
v 0.093750 -0.078125 0.031250
v 0.093750 -0.062500 0.015625
v 0.093750 -0.078125 0.015625
v -0.093750 -0.062500 0.015625
v -0.093750 -0.078125 0.015625
v -0.093750 -0.062500 0.031250
v -0.093750 -0.078125 0.031250
v 0.093750 0.062500 0.031250
v 0.093750 -0.062500 0.031250
v 0.093750 0.062500 0.023438
v 0.093750 -0.062500 0.023437
v -0.093750 0.062500 0.023438
v -0.093750 -0.062500 0.023437
v -0.093750 0.062500 0.031250
v -0.093750 -0.062500 0.031250
vt 0.0000 0.0625
vt 0.0312 0.0625
vt 0.0312 0.0938
vt 0.0000 0.0938
vt 0.0000 0.0625
vt 0.0312 0.0625
vt 0.0312 0.3750
vt 0.0000 0.3750
vt 0.0312 0.4688
vt 0.3438 0.4688
vt 0.3438 0.5000
vt 0.0312 0.5000
vt 0.9688 0.0000
vt 1.0000 0.0000
vt 1.0000 0.0312
vt 0.9688 0.0312
vt 0.9688 0.0000
vt 1.0000 0.0000
vt 1.0000 0.0312
vt 0.9688 0.0312
vt 0.0312 0.4688
vt 0.3438 0.4688
vt 0.3438 0.5000
vt 0.0312 0.5000
vt 0.4688 0.0625
vt 0.5000 0.0625
vt 0.5000 0.3750
vt 0.4688 0.3750
vt 0.0312 0.4688
vt 0.0625 0.4688
vt 0.0625 0.5000
vt 0.0312 0.5000
vt 0.9688 0.0000
vt 1.0000 0.0000
vt 0.9688 0.0312
vt 0.0312 0.0625
vt 0.4062 0.0625
vt 0.4062 0.3125
vt 0.0312 0.3125
vt 0.4688 0.0625
vt 0.5000 0.0625
vt 0.5000 0.3750
vt 0.4688 0.3750
vt 0.4688 0.3438
vt 0.5000 0.3438
vt 0.4688 0.3750
vt 0.4688 0.0625
vt 0.5000 0.0938
vt 0.4688 0.0938
vt 0.9688 0.0000
vt 1.0000 0.0312
vt 0.9688 0.0312
vt 0.3125 0.4688
vt 0.3438 0.4688
vt 0.3125 0.5000
vt 0.9688 0.0000
vt 1.0000 0.0000
vt 1.0000 0.0312
vt 0.9688 0.0312
vt 0.0312 0.4688
vt 0.0625 0.4688
vt 0.0625 0.5000
vt 0.0000 0.3438
vt 0.0312 0.3438
vt 0.0312 0.3750
vt 0.0000 0.3750
vt 0.0312 0.4688
vt 0.3438 0.4688
vt 0.3438 0.5000
vt 0.0312 0.5000
vt 0.0312 0.0625
vt 0.0312 0.3750
vt 0.9688 0.0000
vt 1.0000 0.0000
vt 1.0000 0.0312
vt 0.9688 0.0312
vt 0.9688 0.0000
vt 1.0000 0.0000
vt 1.0000 0.0312
vt 0.9688 0.0312
vt 0.0000 0.0625
vt 0.0312 0.0625
vt 0.0312 0.3750
vt 0.0000 0.3750
vt 0.4688 0.0625
vt 0.5000 0.0625
vt 0.5000 0.3750
vt 0.4688 0.3750
vt 0.3125 0.4688
vt 0.3438 0.4688
vt 0.3438 0.5000
vt 0.3125 0.5000
vt 0.0312 0.4688
vt 0.3438 0.4688
vt 0.3438 0.5000
vt 0.0312 0.5000
vt 0.3438 0.5000
vt 0.0312 0.5000
vt 0.9688 0.0000
vt 1.0000 0.0000
vt 1.0000 0.0312
vt 0.9688 0.0312
vt 1.0000 0.0000
vt 1.0000 0.0312
vt 0.0312 0.4688
vt 0.3438 0.4688
vt 0.3438 0.5000
vt 0.0312 0.5000
vn 0.0000 -1.0000 0.0000
vn 0.0000 -0.0000 1.0000
vn 0.0000 1.0000 0.0000
vn 0.0000 0.0000 -1.0000
vn -1.0000 0.0000 0.0000
vn 1.0000 0.0000 0.0000
usemtl m_0
s 1
f 18/21/8 16/22/8 14/23/8 20/24/8
f 20/25/9 14/26/9 13/27/9 19/28/9
f 44/29/9 38/30/9 37/31/9 43/32/9
f 34/33/8 32/34/8 30/35/8 36/36/8
f 51/37/10 45/38/10 47/39/10 49/40/10
f 35/41/10 29/42/10 31/43/10 33/44/10
f 24/45/11 26/46/11 25/47/11 23/48/11
f 42/49/12 44/50/12 43/51/12 41/52/12
f 46/53/13 48/54/13 47/39/13 45/55/13
f 52/56/9 46/57/9 45/58/9 51/59/9
f 22/60/13 24/61/13 23/62/13 21/63/13
f 27/64/10 21/65/10 23/62/10 25/66/10
f 26/67/8 24/61/8 22/68/8 28/69/8
f 50/70/8 48/54/8 46/71/8 52/72/8
f 30/73/13 32/74/13 31/43/13 29/75/13
f 26/76/12 28/77/12 27/78/12 25/79/12
f 34/80/12 36/81/12 35/82/12 33/44/12
f 19/83/10 13/84/10 15/85/10 17/86/10
f 32/87/11 34/88/11 33/89/11 31/90/11
f 18/21/12 20/91/12 19/92/12 17/86/12
f 14/93/13 16/94/13 15/95/13 13/96/13
f 48/97/11 50/98/11 49/99/11 47/100/11
f 16/101/11 18/102/11 17/103/11 15/104/11
f 28/105/9 22/106/9 21/107/9 27/108/9
f 38/109/13 40/110/13 39/111/13 37/112/13
f 36/113/9 30/114/9 29/115/9 35/116/9
f 42/49/8 40/110/8 38/117/8 44/118/8
f 43/119/10 37/120/10 39/121/10 41/122/10
f 50/70/12 52/123/12 51/124/12 49/40/12
f 40/125/11 42/126/11 41/127/11 39/128/11
o &RunningLight_ffffff_fffff_000
v 0.107422 0.076172 0.029297
v 0.107422 -0.076172 0.029297
v 0.107422 0.076172 0.015625
v 0.107422 -0.076172 0.015625
v -0.107422 0.076172 0.015625
v -0.107422 -0.076172 0.015625
v -0.107422 0.076172 0.029297
v -0.107422 -0.076172 0.029297
vt 0.5000 0.6562
vt 0.5312 0.6562
vt 0.5312 0.9062
vt 0.5000 0.9062
vt 0.5000 0.6562
vt 0.8750 0.6562
vt 0.8750 0.9062
vt 0.5000 0.9062
vt 0.5000 0.6562
vt 0.8750 0.6562
vt 0.8750 0.9062
vt 0.5000 0.9062
vt 0.5000 0.8750
vt 0.8750 0.8750
vt 0.8750 0.9062
vt 0.8438 0.6562
vt 0.8750 0.6562
vt 0.8438 0.9062
vt 0.8750 0.6875
vt 0.5000 0.6875
vn -1.0000 0.0000 0.0000
vn 0.0000 -0.0000 1.0000
vn 0.0000 0.0000 -1.0000
vn 0.0000 1.0000 0.0000
vn 1.0000 0.0000 0.0000
vn 0.0000 -1.0000 0.0000
usemtl m_0
s 1
f 58/129/14 60/130/14 59/131/14 57/132/14
f 60/133/15 54/134/15 53/135/15 59/136/15
f 56/137/16 58/138/16 57/139/16 55/140/16
f 59/141/17 53/142/17 55/143/17 57/132/17
f 54/144/18 56/145/18 55/143/18 53/146/18
f 58/129/19 56/145/19 54/147/19 60/148/19
o &HeadLight_ffffff_fffff_000
v 1.440536 1.444793 -0.042434
v 1.452941 -1.428547 0.312796
v -1.452941 1.444793 0.058609
v -1.440536 -1.428547 0.413838
v 1.452941 1.444409 0.053197
v 1.440536 -1.428930 0.408426
v -1.440536 1.444409 -0.047846
v -1.452941 -1.428930 0.307383
v 1.447621 1.449354 0.047418
v 1.447621 -1.434640 0.302369
v -1.447621 1.449354 0.047418
v -1.447621 -1.434640 0.302369
v 1.447621 1.443643 -0.008242
v 1.447621 -1.429696 0.347204
v -1.447621 1.443643 -0.008242
v -1.447621 -1.429696 0.347204
v 1.447621 1.436566 -0.058273
v 1.447621 -1.422618 0.397235
v -1.447621 1.436566 -0.058273
v -1.447621 -1.422618 0.397235
v 1.382513 1.355081 -0.055957
v 1.394418 -1.402523 0.284964
v -1.394418 1.355081 0.041016
v -1.382513 -1.402523 0.381937
v 1.394418 1.354713 0.035822
v 1.382513 -1.402891 0.376743
v -1.382513 1.354713 -0.061151
v -1.394418 -1.402891 0.279770
v 1.389312 1.359459 0.030275
v 1.389312 -1.408371 0.274957
v -1.389312 1.359459 0.030275
v -1.389312 -1.408371 0.274957
v 1.389312 1.353978 -0.023142
v 1.389312 -1.403626 0.317986
v -1.389312 1.353978 -0.023142
v -1.389312 -1.403626 0.317986
v 1.389312 1.347185 -0.071158
v 1.389312 -1.396834 0.366002
v -1.389312 1.347185 -0.071158
v -1.389312 -1.396834 0.366002
vt 0.9688 0.0000
vt 1.0000 0.0000
vt 1.0000 0.0312
vt 0.9688 0.0312
vt 0.9688 0.0000
vt 1.0000 0.0000
vt 1.0000 0.0312
vt 0.9688 0.0312
vt 0.9688 0.0000
vt 1.0000 0.0000
vt 1.0000 0.0312
vt 0.9688 0.0312
vt 0.9688 0.0000
vt 1.0000 0.0000
vt 1.0000 0.0312
vt 0.9688 0.0312
vt 0.9688 0.0000
vt 1.0000 0.0000
vt 1.0000 0.0312
vt 0.9688 0.0312
vt 0.9688 0.0000
vt 1.0000 0.0000
vt 1.0000 0.0312
vt 0.9688 0.0312
vt 0.9688 0.0000
vt 1.0000 0.0000
vt 1.0000 0.0312
vt 0.9688 0.0312
vt 0.9688 0.0000
vt 1.0000 0.0000
vt 1.0000 0.0312
vt 0.9688 0.0312
vt 0.9688 0.0000
vt 1.0000 0.0000
vt 1.0000 0.0312
vt 0.9688 0.0312
vt 0.9688 0.0000
vt 1.0000 0.0000
vt 1.0000 0.0312
vt 0.9688 0.0312
vn 0.0346 0.1228 0.9918
vn -0.0346 0.1228 0.9918
vn 0.0000 0.0881 0.9961
vn 0.0000 0.1228 0.9924
vn 0.0000 0.1573 0.9875
usemtl m_0
s 1
f 64/149/20 62/150/20 61/151/20 63/152/20
f 68/153/21 66/154/21 65/155/21 67/156/21
f 72/157/22 70/158/22 69/159/22 71/160/22
f 76/161/23 74/162/23 73/163/23 75/164/23
f 80/165/24 78/166/24 77/167/24 79/168/24
f 84/169/20 82/170/20 81/171/20 83/172/20
f 88/173/21 86/174/21 85/175/21 87/176/21
f 92/177/22 90/178/22 89/179/22 91/180/22
f 96/181/23 94/182/23 93/183/23 95/184/23
f 100/185/24 98/186/24 97/187/24 99/188/24
o &RunningLight_ffffff_fffff_100
v 0.330000 0.330000 0.031313
v 0.330000 -0.330000 0.031312
v -0.330000 0.330000 0.031313
v -0.330000 -0.330000 0.031312
v 0.297000 0.297000 0.031313
v 0.297000 -0.297000 0.031312
v -0.297000 0.297000 0.031313
v -0.297000 -0.297000 0.031312
vt 0.9688 0.0000
vt 1.0000 0.0000
vt 1.0000 0.0312
vt 0.9688 0.0312
vt 0.9688 0.0000
vt 0.9688 0.0312
vt 1.0000 0.0312
vt 1.0000 0.0000
vn 0.0000 -0.0000 1.0000
vn 0.0000 0.0000 -1.0000
usemtl m_0
s 1
f 104/189/25 102/190/25 101/191/25 103/192/25
f 108/193/26 107/194/26 105/195/26 106/196/26
