# Blender v2.78 (sub 0) OBJ File: ''
# www.blender.org
mtllib bstickerpos.mtl
o cube.001
v -0.165811 -0.082336 -0.000063
v -0.165811 -0.082336 0.000103
v -0.165811 0.083475 0.000104
v -0.165811 0.083475 -0.000063
v 0.165811 -0.082336 0.000103
v 0.165811 0.083475 0.000104
v 0.165811 -0.082336 -0.000063
v 0.165811 0.083475 -0.000063
v -0.240000 0.059431 -0.000020
v -0.240000 0.059431 -0.000020
v 0.240000 0.059431 -0.000020
v 0.240000 0.059431 -0.000020
v 0.240000 -0.060569 -0.000020
v 0.240000 -0.060569 -0.000020
v -0.240000 -0.060569 -0.000020
v -0.240000 -0.060569 -0.000020
vt 2.0000 1.0000
vt 2.0000 1.0000
vt 2.0000 5.0000
vt 2.0000 5.0000
vt 2.0000 1.0000
vt 2.0000 1.0000
vt 2.0000 5.0000
vt 2.0000 5.0000
vt 2.0000 0.0000
vt 2.0000 0.0000
vt 3.0000 1.0000
vt 3.0000 1.0000
vt 3.0000 0.0000
vt 3.0000 0.0000
vt 1.0000 1.0000
vt 1.0000 0.0000
vt 0.0000 0.5000
vt 0.0000 0.5000
vt 0.0000 1.0000
vt 0.0000 1.0000
vt 1.0000 0.0000
vt 0.0000 0.0000
vt 0.0000 0.5000
vt 1.0000 0.5000
vt 0.0000 0.0000
vt 1.0000 0.0000
vt 1.0000 0.5000
vt 0.0000 0.5000
vt 1.0000 1.0000
vt 0.0000 1.0000
vt 0.0000 1.0000
vt 1.0000 1.0000
vt 0.0000 0.5000
vt 0.0000 0.5000
vt 1.0000 1.0000
vt 0.0000 1.0000
vt 0.0000 1.0000
vt 1.0000 1.0000
vn 0.0000 0.0000 1.0000
vn 0.0000 0.0000 -1.0000
vn -1.0000 0.0000 0.0000
vn 0.0000 1.0000 0.0000
vn 1.0000 0.0000 0.0000
vn 0.0000 -1.0000 0.0000
usemtl ModelMaterial
s 1
f 9/1/1 10/2/1 11/3/1 12/4/1
f 13/5/1 14/6/1 15/7/1 16/8/1
f 10/2/1 9/1/1 16/9/1 15/10/1
f 12/11/1 11/12/1 14/13/1 13/14/1
f 11/12/1 10/2/1 15/10/1 14/13/1
f 9/1/2 12/15/2 13/16/2 16/9/2
usemtl 0
f 1/17/3 2/18/3 3/19/3 4/20/3
f 2/21/1 5/22/1 6/23/1 3/24/1
f 7/25/2 1/26/2 4/27/2 8/28/2
f 3/29/4 6/30/4 8/31/4 4/32/4
f 5/33/5 7/34/5 8/31/5 6/30/5
f 1/35/6 7/36/6 5/37/6 2/38/6
