# Blender v2.78 (sub 0) OBJ File: ''
# www.blender.org
mtllib v0.mtl
o cube
v 0.000271 0.215119 0.327271
v 0.000271 0.016419 0.327271
v 0.000271 0.215119 0.000000
v 0.000271 0.016419 0.000000
v -0.141449 0.215119 0.000000
v -0.141449 0.016419 0.000000
v -0.141449 0.215119 0.327271
v -0.141449 0.016419 0.327271
v 0.141449 0.215119 0.327271
v 0.141449 0.016419 0.327271
v 0.141449 0.215119 0.000000
v 0.141449 0.016419 0.000000
v -0.000271 0.215119 0.000000
v -0.000271 0.016419 0.000000
v -0.000271 0.215119 0.327271
v -0.000271 0.016419 0.327271
v 0.210388 0.151947 0.327271
v 0.210388 0.023376 0.327271
v 0.210388 0.151947 0.000000
v 0.210388 0.023376 0.000000
v -0.210388 0.151947 0.000000
v -0.210388 0.023376 0.000000
v -0.210388 0.151947 0.327271
v -0.210388 0.023376 0.327271
v -0.141449 0.215119 0.327271
v -0.078277 0.146179 0.327271
v -0.141449 0.215119 0.000000
v -0.078277 0.146179 0.000000
v -0.210388 0.151947 0.000000
v -0.147217 0.083007 0.000000
v -0.210388 0.151947 0.327271
v -0.147217 0.083007 0.327271
v 0.210388 0.151947 0.327271
v 0.147217 0.083007 0.327271
v 0.210388 0.151947 0.000000
v 0.147217 0.083007 0.000000
v 0.141449 0.215119 0.000000
v 0.078277 0.146179 0.000000
v 0.141449 0.215119 0.327271
v 0.078277 0.146179 0.327271
v -0.111210 0.122555 0.327271
v 0.021027 -0.009683 0.327271
v -0.111210 0.122555 0.000000
v 0.021027 -0.009683 -0.000000
v -0.210388 0.023376 0.000000
v -0.078151 -0.108861 -0.000000
v -0.210388 0.023376 0.327271
v -0.078151 -0.108861 0.327271
v 0.210388 0.023376 0.327271
v 0.078151 -0.108861 0.327271
v 0.210388 0.023376 0.000000
v 0.078151 -0.108861 -0.000000
v 0.111210 0.122555 0.000000
v -0.021027 -0.009683 -0.000000
v 0.111210 0.122555 0.327271
v -0.021027 -0.009683 0.327271
v 0.078151 0.113216 0.327271
v 0.078151 -0.108861 0.327271
v 0.078151 0.113216 0.000000
v 0.078151 -0.108861 -0.000000
v -0.003667 0.113216 0.000000
v -0.003667 -0.108861 -0.000000
v -0.003667 0.113216 0.327271
v -0.003667 -0.108861 0.327271
v 0.003667 0.113216 0.327271
v 0.003667 -0.108861 0.327271
v 0.003667 0.113216 0.000000
v 0.003667 -0.108861 -0.000000
v -0.078151 0.113216 0.000000
v -0.078151 -0.108861 -0.000000
v -0.078151 0.113216 0.327271
v -0.078151 -0.108861 0.327271
vt 0.0625 0.9375
vt 0.1250 0.9375
vt 0.1250 1.0000
vt 0.0625 1.0000
vt 0.0625 0.9375
vt 0.1250 0.9375
vt 0.1250 1.0000
vt 0.0625 1.0000
vt 0.0625 0.9375
vt 0.1250 0.9375
vt 0.1250 1.0000
vt 0.0625 1.0000
vt 0.0625 0.9375
vt 0.1250 0.9375
vt 0.1250 1.0000
vt 0.0625 1.0000
vt 0.1250 0.9375
vt 0.0625 0.9375
vt 0.0625 1.0000
vt 0.1250 1.0000
vt 0.0625 0.9375
vt 0.1250 0.9375
vt 0.1250 1.0000
vt 0.0625 1.0000
vt 0.0625 0.9375
vt 0.1250 0.9375
vt 0.1250 1.0000
vt 0.0625 1.0000
vt 0.1250 0.9375
vt 0.0625 0.9375
vt 0.0625 1.0000
vt 0.1250 1.0000
vt 0.0625 0.9375
vt 0.1250 0.9375
vt 0.1250 1.0000
vt 0.0625 1.0000
vt 0.1250 0.9375
vt 0.0625 0.9375
vt 0.0625 1.0000
vt 0.1250 1.0000
vt 0.1250 0.9375
vt 0.0625 0.9375
vt 0.0625 1.0000
vt 0.1250 1.0000
vt 0.1250 0.9375
vt 0.0625 0.9375
vt 0.0625 1.0000
vt 0.1250 1.0000
vt 0.1250 0.9375
vt 0.0625 1.0000
vt 0.1250 1.0000
vt 0.0625 0.9375
vt 0.1250 0.9375
vt 0.1250 1.0000
vt 0.0625 1.0000
vt 0.0625 0.9375
vt 0.1250 0.9375
vt 0.1250 1.0000
vt 0.0625 1.0000
vt 0.0625 0.9375
vt 0.1250 0.9375
vt 0.1250 1.0000
vt 0.0625 1.0000
vt 0.0625 0.9375
vt 0.1250 0.9375
vt 0.1250 1.0000
vt 0.0625 1.0000
vt 0.0625 0.9375
vt 0.1250 0.9375
vt 0.0625 1.0000
vt 0.0625 0.9375
vt 0.0625 1.0000
vt 0.1250 1.0000
vt 0.1250 0.9375
vt 0.0625 1.0000
vt 0.1250 1.0000
vt 0.0625 0.9375
vt 0.1250 0.9375
vt 0.1250 1.0000
vt 0.0625 0.9375
vt 0.1250 0.9375
vt 0.1250 1.0000
vt 0.0625 1.0000
vt 0.0625 0.9375
vt 0.1250 1.0000
vt 0.0625 1.0000
vt 0.1250 0.9375
vt 0.0625 0.9375
vt 0.0625 1.0000
vt 0.1250 1.0000
vt 0.1250 0.9375
vt 0.1250 1.0000
vt 0.0625 1.0000
vt 0.0625 0.9375
vt 0.0625 1.0000
vt 0.1250 0.9375
vt 0.1250 1.0000
vt 0.0625 1.0000
vt 0.0625 0.9375
vt 0.1250 1.0000
vt 0.0625 1.0000
vt 0.0625 0.9375
vt 0.1250 0.9375
vt 0.0625 1.0000
vt 0.0625 0.9375
vt 0.1250 0.9375
vt 0.1250 1.0000
vt 0.0625 1.0000
vt 0.0625 0.9375
vt 0.1250 0.9375
vt 0.0625 0.9375
vt 0.0625 1.0000
vt 0.1250 1.0000
vt 0.1250 0.9375
vt 0.1250 1.0000
vt 0.0625 0.9375
vt 0.1250 0.9375
vt 0.1250 1.0000
vt 0.0625 1.0000
vt 0.1250 0.9375
vt 0.0625 0.9375
vt 0.0625 0.9375
vt 0.1250 0.9375
vt 0.1250 1.0000
vt 0.0625 1.0000
vt 0.1250 1.0000
vt 0.1250 0.9375
vt 0.0625 0.9375
vt 0.0625 0.9375
vt 0.1250 0.9375
vt 0.1250 1.0000
vt 0.0625 1.0000
vt 0.0625 0.9375
vt 0.1250 0.9375
vt 0.0625 1.0000
vt 0.1250 0.9375
vt 0.1250 1.0000
vt 0.0625 0.9375
vt 0.1250 0.9375
vt 0.1250 1.0000
vt 0.0625 1.0000
vt 0.0625 0.9375
vt 0.1250 1.0000
vt 0.0625 1.0000
vt 0.1250 0.9375
vt 0.0625 0.9375
vt 0.0625 1.0000
vt 0.1250 1.0000
vt 0.1250 0.9375
vt 0.0625 0.9375
vt 0.0625 1.0000
vt 0.1250 1.0000
vt 0.1250 0.9375
vt 0.1250 1.0000
vt 0.1250 0.9375
vt 0.0625 0.9375
vt 0.0625 1.0000
vt 0.1250 1.0000
vt 0.1250 0.9375
vt 0.0625 0.9375
vt 0.0625 1.0000
vt 0.1250 1.0000
vt 0.0625 0.9375
vt 0.1250 0.9375
vt 0.1250 1.0000
vt 0.0625 1.0000
vt 0.1250 0.9375
vt 0.0625 0.9375
vt 0.0625 0.9375
vt 0.1250 0.9375
vt 0.1250 1.0000
vt 0.0625 1.0000
vt 0.1250 1.0000
vt 0.0625 1.0000
vt 0.0625 0.9375
vt 0.1250 0.9375
vt 0.1250 1.0000
vt 0.0625 1.0000
vt 0.0625 0.9375
vt 0.0625 1.0000
vn 0.0000 0.0000 1.0000
vn -0.0000 0.0000 -1.0000
vn 1.0000 0.0000 0.0000
vn 0.7373 -0.6756 -0.0000
vn 0.7071 -0.7071 -0.0000
vn -0.6756 -0.7373 -0.0000
vn -1.0000 0.0000 0.0000
vn 0.7071 0.7071 0.0000
vn 0.6756 -0.7373 -0.0000
vn 0.0000 1.0000 0.0000
vn -0.7071 -0.7071 -0.0000
vn 0.0000 -1.0000 -0.0000
vn -0.7373 -0.6756 -0.0000
vn -0.7373 0.6756 0.0000
vn -0.6756 0.7373 0.0000
vn -0.7071 0.7071 0.0000
vn 0.6756 0.7373 0.0000
vn 0.7373 0.6756 0.0000
usemtl m_0
s 1
f 56/1/1 50/2/1 49/3/1 55/4/1
f 52/5/2 54/6/2 53/7/2 51/8/2
f 24/9/1 18/10/1 17/11/1 23/12/1
f 18/13/3 20/14/3 19/15/3 17/16/3
f 34/17/4 36/18/4 35/19/4 33/20/4
f 20/21/2 22/22/2 21/23/2 19/24/2
f 64/25/1 58/26/1 57/27/1 63/28/1
f 46/29/5 44/30/5 42/31/5 48/32/5
f 8/33/1 2/34/1 1/35/1 7/36/1
f 48/37/1 42/38/1 41/39/1 47/40/1
f 10/41/3 12/42/3 11/43/3 9/44/3
f 44/45/2 46/46/2 45/47/2 43/48/2
f 38/49/6 36/18/6 34/50/6 40/51/6
f 62/52/7 64/53/7 63/54/7 61/55/7
f 55/56/8 49/57/8 51/58/8 53/59/8
f 6/60/7 8/61/7 7/62/7 5/63/7
f 30/64/9 28/65/9 26/66/9 32/67/9
f 23/68/10 17/69/10 19/15/10 21/70/10
f 46/29/11 48/71/11 47/72/11 45/73/11
f 42/74/8 44/30/8 43/75/8 41/76/8
f 63/77/10 57/78/10 59/79/10 61/55/10
f 54/80/11 52/81/11 50/82/11 56/83/11
f 22/84/12 20/14/12 18/85/12 24/86/12
f 14/87/7 16/88/7 15/89/7 13/90/7
f 6/60/12 4/91/12 2/92/12 8/93/12
f 50/94/5 52/81/5 51/58/5 49/95/5
f 30/64/13 32/96/13 31/97/13 29/98/13
f 2/99/3 4/91/3 3/100/3 1/101/3
f 58/102/3 60/103/3 59/79/3 57/104/3
f 32/105/1 26/106/1 25/107/1 31/108/1
f 7/109/10 1/110/10 3/100/10 5/63/10
f 38/49/14 40/111/14 39/112/14 37/113/14
f 22/84/7 24/114/7 23/115/7 21/70/7
f 66/116/3 68/117/3 67/118/3 65/119/3
f 15/120/10 9/121/10 11/43/10 13/90/10
f 31/122/15 25/123/15 27/124/15 29/98/15
f 14/87/12 12/42/12 10/125/12 16/126/12
f 47/127/16 41/128/16 43/75/16 45/73/16
f 4/129/2 6/130/2 5/131/2 3/132/2
f 71/133/10 65/134/10 67/118/10 69/135/10
f 54/80/16 56/136/16 55/137/16 53/59/16
f 28/138/2 30/139/2 29/140/2 27/141/2
f 70/142/12 68/117/12 66/143/12 72/144/12
f 36/145/2 38/146/2 37/147/2 35/148/2
f 12/149/2 14/150/2 13/151/2 11/152/2
f 70/142/7 72/153/7 71/154/7 69/135/7
f 40/155/1 34/156/1 33/157/1 39/158/1
f 16/159/1 10/160/1 9/161/1 15/162/1
f 68/163/2 70/164/2 69/165/2 67/166/2
f 39/167/17 33/168/17 35/19/17 37/113/17
f 72/169/1 66/170/1 65/171/1 71/172/1
f 62/52/12 60/103/12 58/173/12 64/174/12
f 60/175/2 62/176/2 61/177/2 59/178/2
f 26/179/18 28/65/18 27/124/18 25/180/18
