# Blender v2.78 (sub 0) OBJ File: ''
# www.blender.org
mtllib v2insolvoauto.mtl
o cube
v 0.248726 0.309539 0.408622
v 0.248726 0.078579 0.408622
v 0.248726 0.309539 0.000000
v 0.248726 0.078579 0.000000
v -0.248726 0.309539 0.000000
v -0.248726 0.078579 0.000000
v -0.248726 0.309539 0.408622
v -0.248726 0.078579 0.408622
v 0.248726 0.078579 0.408622
v 0.047725 -0.122423 0.408622
v 0.248726 0.078579 0.000000
v 0.047725 -0.122423 -0.000000
v 0.097975 0.229330 0.000000
v -0.103026 0.028328 -0.000000
v 0.097975 0.229330 0.408622
v -0.103026 0.028328 0.408622
v -0.097975 0.229330 0.408622
v 0.103026 0.028328 0.408622
v -0.097975 0.229330 0.000000
v 0.103026 0.028328 -0.000000
v -0.248726 0.078579 0.000000
v -0.047725 -0.122423 -0.000000
v -0.248726 0.078579 0.408622
v -0.047725 -0.122423 0.408622
v 0.023340 0.215135 0.408622
v 0.023340 -0.122423 0.408622
v 0.023340 0.215135 0.000000
v 0.023340 -0.122423 -0.000000
v -0.047725 0.215135 0.000000
v -0.047725 -0.122423 -0.000000
v -0.047725 0.215135 0.408622
v -0.047725 -0.122423 0.408622
v 0.047725 0.215135 0.408622
v 0.047725 -0.122423 0.408622
v 0.047725 0.215135 0.000000
v 0.047725 -0.122423 -0.000000
v -0.005573 0.215135 0.000000
v -0.005573 -0.122423 -0.000000
v -0.005573 0.215135 0.408622
v -0.005573 -0.122423 0.408622
v 0.000000 0.380604 0.408622
v 0.000000 0.309539 0.408622
v 0.000000 0.380604 0.000000
v 0.000000 0.309539 0.000000
v -0.177662 0.380604 0.000000
v -0.177662 0.309539 0.000000
v -0.177662 0.380604 0.408622
v -0.177662 0.309539 0.408622
v -0.177662 0.380604 0.408622
v -0.127411 0.330353 0.408622
v -0.177662 0.380604 0.000000
v -0.127411 0.330353 0.000000
v -0.227912 0.330353 0.000000
v -0.177662 0.280103 0.000000
v -0.227912 0.330353 0.408622
v -0.177662 0.280103 0.408622
v -0.198476 0.359789 0.408622
v -0.148226 0.309539 0.408622
v -0.198476 0.359789 0.000000
v -0.148226 0.309539 0.000000
v -0.248726 0.309539 0.000000
v -0.198476 0.259289 0.000000
v -0.248726 0.309539 0.408622
v -0.198476 0.259289 0.408622
v 0.227912 0.330353 0.408622
v 0.177662 0.280103 0.408622
v 0.227912 0.330353 0.000000
v 0.177662 0.280103 0.000000
v 0.177662 0.380604 0.000000
v 0.127411 0.330353 0.000000
v 0.177662 0.380604 0.408622
v 0.127411 0.330353 0.408622
v 0.248726 0.309539 0.408622
v 0.198476 0.259289 0.408622
v 0.248726 0.309539 0.000000
v 0.198476 0.259289 0.000000
v 0.198476 0.359789 0.000000
v 0.148226 0.309539 0.000000
v 0.198476 0.359789 0.408622
v 0.148226 0.309539 0.408622
v 0.177662 0.380604 0.408622
v 0.177662 0.309539 0.408622
v 0.177662 0.380604 0.000000
v 0.177662 0.309539 0.000000
v 0.000000 0.380604 0.000000
v 0.000000 0.309539 0.000000
v 0.000000 0.380604 0.408622
v 0.000000 0.309539 0.408622
v -0.091627 0.485286 0.408622
v -0.043545 0.332791 0.408622
v -0.091627 0.485286 0.000000
v -0.043545 0.332791 0.000000
v -0.294954 0.421177 0.000000
v -0.246872 0.268682 0.000000
v -0.294954 0.421177 0.408622
v -0.246872 0.268682 0.408622
v -0.135283 0.564663 0.195428
v -0.108571 0.479944 0.195428
v -0.135283 0.564663 0.017766
v -0.108571 0.479944 0.017766
v -0.304722 0.511239 0.017766
v -0.278010 0.426520 0.017766
v -0.304722 0.511239 0.195428
v -0.278010 0.426520 0.195428
v -0.135283 0.564663 0.390856
v -0.108571 0.479944 0.390856
v -0.135283 0.564663 0.213194
v -0.108571 0.479944 0.213194
v -0.304722 0.511239 0.213194
v -0.278010 0.426520 0.213194
v -0.304722 0.511239 0.390856
v -0.278010 0.426520 0.390856
vt 0.0625 1.0000
vt 0.0625 0.9375
vt 0.1250 1.0000
vt 0.1250 0.9375
vt 0.0625 1.0000
vt 0.0625 0.9375
vt 0.1250 1.0000
vt 0.1250 0.9375
vt 0.0625 0.9375
vt 0.1250 0.9375
vt 0.0625 1.0000
vt 0.1250 1.0000
vt 0.0625 1.0000
vt 0.0625 0.9375
vt 0.1250 1.0000
vt 0.1250 0.9375
vt 0.0625 1.0000
vt 0.0625 0.9375
vt 0.1250 1.0000
vt 0.1250 0.9375
vt 0.0625 1.0000
vt 0.0625 0.9375
vt 0.1250 1.0000
vt 0.1250 0.9375
vt 0.0625 1.0000
vt 0.0625 0.9375
vt 0.1250 1.0000
vt 0.1250 0.9375
vt 0.0625 0.9375
vt 0.1250 0.9375
vt 0.0625 1.0000
vt 0.1250 1.0000
vt 0.0625 1.0000
vt 0.0625 0.9375
vt 0.1250 1.0000
vt 0.1250 0.9375
vt 0.0625 1.0000
vt 0.0625 0.9375
vt 0.1250 1.0000
vt 0.1250 0.9375
vt 0.1250 1.0000
vt 0.1250 0.9375
vt 0.0625 1.0000
vt 0.0625 0.9375
vt 0.1250 1.0000
vt 0.1250 0.9375
vt 0.0625 1.0000
vt 0.0625 0.9375
vt 0.1250 0.9375
vt 0.0625 0.9375
vt 0.1250 1.0000
vt 0.0625 1.0000
vt 0.1250 1.0000
vt 0.1250 0.9375
vt 0.0625 1.0000
vt 0.0625 0.9375
vt 0.1250 1.0000
vt 0.1250 0.9375
vt 0.0625 1.0000
vt 0.0625 0.9375
vt 0.0625 1.0000
vt 0.0625 0.9375
vt 0.1250 1.0000
vt 0.1250 0.9375
vt 0.0625 1.0000
vt 0.0625 0.9375
vt 0.1250 1.0000
vt 0.1250 0.9375
vt 0.0625 0.9375
vt 0.1250 0.9375
vt 0.0625 1.0000
vt 0.1250 1.0000
vt 0.0625 1.0000
vt 0.0625 0.9375
vt 0.1250 1.0000
vt 0.1250 0.9375
vt 0.0625 1.0000
vt 0.0625 0.9375
vt 0.1250 1.0000
vt 0.1250 0.9375
vt 0.0625 1.0000
vt 0.0625 0.9375
vt 0.1250 1.0000
vt 0.1250 0.9375
vt 0.0625 1.0000
vt 0.0625 0.9375
vt 0.1250 1.0000
vt 0.1250 0.9375
vt 0.0625 0.9375
vt 0.1250 0.9375
vt 0.0625 1.0000
vt 0.1250 1.0000
vt 0.0625 1.0000
vt 0.0625 0.9375
vt 0.1250 1.0000
vt 0.1250 0.9375
vt 0.0625 1.0000
vt 0.0625 0.9375
vt 0.1250 1.0000
vt 0.1250 0.9375
vt 0.0625 1.0000
vt 0.0625 0.9375
vt 0.1250 1.0000
vt 0.1250 0.9375
vt 0.0625 1.0000
vt 0.0625 0.9375
vt 0.1250 1.0000
vt 0.1250 0.9375
vt 0.0625 0.9375
vt 0.1250 0.9375
vt 0.0625 1.0000
vt 0.1250 1.0000
vt 0.0625 1.0000
vt 0.0625 0.9375
vt 0.1250 1.0000
vt 0.1250 0.9375
vt 0.0625 1.0000
vt 0.0625 0.9375
vt 0.1250 1.0000
vt 0.1250 0.9375
vt 0.0625 1.0000
vt 0.0625 0.9375
vt 0.1250 1.0000
vt 0.1250 0.9375
vt 0.0625 1.0000
vt 0.0625 0.9375
vt 0.1250 1.0000
vt 0.1250 0.9375
vt 0.0625 0.9375
vt 0.1250 0.9375
vt 0.0625 1.0000
vt 0.1250 1.0000
vt 0.0625 1.0000
vt 0.0625 0.9375
vt 0.1250 1.0000
vt 0.1250 0.9375
vt 0.0625 1.0000
vt 0.0625 0.9375
vt 0.1250 1.0000
vt 0.1250 0.9375
vt 0.0625 1.0000
vt 0.0625 0.9375
vt 0.1250 1.0000
vt 0.1250 0.9375
vt 0.0625 1.0000
vt 0.0625 0.9375
vt 0.1250 1.0000
vt 0.1250 0.9375
vt 0.0625 0.9375
vt 0.1250 0.9375
vt 0.0625 1.0000
vt 0.1250 1.0000
vt 0.0625 1.0000
vt 0.0625 0.9375
vt 0.1250 1.0000
vt 0.1250 0.9375
vt 0.0625 1.0000
vt 0.0625 0.9375
vt 0.1250 1.0000
vt 0.1250 0.9375
vt 0.1250 1.0000
vt 0.1250 0.9375
vt 0.0625 1.0000
vt 0.0625 0.9375
vt 0.1250 1.0000
vt 0.1250 0.9375
vt 0.0625 1.0000
vt 0.0625 0.9375
vt 0.1250 0.9375
vt 0.0625 0.9375
vt 0.1250 1.0000
vt 0.0625 1.0000
vt 0.1250 1.0000
vt 0.1250 0.9375
vt 0.0625 1.0000
vt 0.0625 0.9375
vt 0.1250 1.0000
vt 0.1250 0.9375
vt 0.0625 1.0000
vt 0.0625 0.9375
vt 0.1250 1.0000
vt 0.1250 0.9375
vt 0.0625 1.0000
vt 0.0625 0.9375
vt 0.1250 1.0000
vt 0.1250 0.9375
vt 0.0625 1.0000
vt 0.0625 0.9375
vt 0.1250 0.9375
vt 0.0625 0.9375
vt 0.1250 1.0000
vt 0.0625 1.0000
vt 0.1250 1.0000
vt 0.1250 0.9375
vt 0.0625 1.0000
vt 0.0625 0.9375
vt 0.1250 1.0000
vt 0.1250 0.9375
vt 0.0625 1.0000
vt 0.0625 0.9375
vt 0.1250 1.0000
vt 0.1250 0.9375
vt 0.0625 1.0000
vt 0.0625 0.9375
vt 0.1250 1.0000
vt 0.1250 0.9375
vt 0.0625 1.0000
vt 0.0625 0.9375
vt 0.1250 0.9375
vt 0.0625 0.9375
vt 0.1250 1.0000
vt 0.0625 1.0000
vt 0.1250 1.0000
vt 0.1250 0.9375
vt 0.0625 1.0000
vt 0.0625 0.9375
vt 0.1250 1.0000
vt 0.1250 0.9375
vt 0.0625 1.0000
vt 0.0625 0.9375
vt 0.0625 1.0000
vt 0.0625 0.9375
vt 0.1250 1.0000
vt 0.1250 0.9375
vt 0.0625 1.0000
vt 0.0625 0.9375
vt 0.1250 1.0000
vt 0.1250 0.9375
vt 0.0625 0.9375
vt 0.1250 0.9375
vt 0.0625 1.0000
vt 0.1250 1.0000
vt 0.0625 1.0000
vt 0.0625 0.9375
vt 0.1250 1.0000
vt 0.1250 0.9375
vt 0.0625 1.0000
vt 0.0625 0.9375
vt 0.1250 1.0000
vt 0.1250 0.9375
vt 0.0000 1.0000
vt 0.0000 0.9375
vt 0.0625 1.0000
vt 0.0625 0.9375
vt 0.0000 1.0000
vt 0.0000 0.9375
vt 0.0625 1.0000
vt 0.0625 0.9375
vt 0.6875 1.0000
vt 0.6875 0.6875
vt 1.0000 1.0000
vt 1.0000 0.6875
vt 0.0000 1.0000
vt 0.0625 1.0000
vt 0.0000 1.0000
vt 0.0000 0.9375
vt 0.0625 1.0000
vt 0.0625 0.9375
vt 0.0000 1.0000
vt 0.0000 0.9375
vt 0.0625 1.0000
vt 0.0625 0.9375
vt 0.0000 1.0000
vt 0.0000 0.9375
vt 0.0625 1.0000
vt 0.0625 0.9375
vt 0.0000 1.0000
vt 0.0000 0.9375
vt 0.0625 1.0000
vt 0.0625 0.9375
vt 0.6875 1.0000
vt 0.6875 0.6875
vt 1.0000 1.0000
vt 1.0000 0.6875
vt 0.0000 1.0000
vt 0.0625 1.0000
vt 0.0000 1.0000
vt 0.0000 0.9375
vt 0.0625 1.0000
vt 0.0625 0.9375
vt 0.0000 1.0000
vt 0.0000 0.9375
vt 0.0625 1.0000
vt 0.0625 0.9375
vn 1.0000 0.0000 0.0000
vn -1.0000 0.0000 0.0000
vn 0.0000 1.0000 0.0000
vn 0.0000 -1.0000 -0.0000
vn 0.0000 0.0000 1.0000
vn 0.0000 0.0000 -1.0000
vn 0.7071 -0.7071 -0.0000
vn -0.7071 0.7071 0.0000
vn 0.7071 0.7071 0.0000
vn -0.7071 -0.7071 -0.0000
vn 0.9537 0.3007 0.0000
vn -0.9537 -0.3007 -0.0000
vn -0.3007 0.9537 0.0000
vn 0.3007 -0.9537 0.0000
usemtl m_0
s 1
f 1/1/1 2/2/1 3/3/1
f 2/2/1 4/4/1 3/3/1
f 5/5/2 6/6/2 7/7/2
f 6/6/2 8/8/2 7/7/2
f 5/5/3 7/9/3 3/3/3
f 7/9/3 1/10/3 3/3/3
f 8/11/4 6/6/4 2/12/4
f 6/6/4 4/4/4 2/12/4
f 7/13/5 8/14/5 1/15/5
f 8/14/5 2/16/5 1/15/5
f 3/17/6 4/18/6 5/19/6
f 4/18/6 6/20/6 5/19/6
f 9/21/7 10/22/7 11/23/7
f 10/22/7 12/24/7 11/23/7
f 13/25/8 14/26/8 15/27/8
f 14/26/8 16/28/8 15/27/8
f 13/25/9 15/29/9 11/23/9
f 15/29/9 9/30/9 11/23/9
f 16/31/10 14/26/10 10/32/10
f 14/26/10 12/24/10 10/32/10
f 15/33/5 16/34/5 9/35/5
f 16/34/5 10/36/5 9/35/5
f 11/37/6 12/38/6 13/39/6
f 12/38/6 14/40/6 13/39/6
f 17/41/9 18/42/9 19/43/9
f 18/42/9 20/44/9 19/43/9
f 21/45/10 22/46/10 23/47/10
f 22/46/10 24/48/10 23/47/10
f 21/45/8 23/49/8 19/43/8
f 23/49/8 17/50/8 19/43/8
f 24/51/7 22/46/7 18/52/7
f 22/46/7 20/44/7 18/52/7
f 23/53/5 24/54/5 17/55/5
f 24/54/5 18/56/5 17/55/5
f 19/57/6 20/58/6 21/59/6
f 20/58/6 22/60/6 21/59/6
f 25/61/1 26/62/1 27/63/1
f 26/62/1 28/64/1 27/63/1
f 29/65/2 30/66/2 31/67/2
f 30/66/2 32/68/2 31/67/2
f 29/65/3 31/69/3 27/63/3
f 31/69/3 25/70/3 27/63/3
f 32/71/4 30/66/4 26/72/4
f 30/66/4 28/64/4 26/72/4
f 31/73/5 32/74/5 25/75/5
f 32/74/5 26/76/5 25/75/5
f 27/77/6 28/78/6 29/79/6
f 28/78/6 30/80/6 29/79/6
f 33/81/1 34/82/1 35/83/1
f 34/82/1 36/84/1 35/83/1
f 37/85/2 38/86/2 39/87/2
f 38/86/2 40/88/2 39/87/2
f 37/85/3 39/89/3 35/83/3
f 39/89/3 33/90/3 35/83/3
f 40/91/4 38/86/4 34/92/4
f 38/86/4 36/84/4 34/92/4
f 39/93/5 40/94/5 33/95/5
f 40/94/5 34/96/5 33/95/5
f 35/97/6 36/98/6 37/99/6
f 36/98/6 38/100/6 37/99/6
f 41/101/1 42/102/1 43/103/1
f 42/102/1 44/104/1 43/103/1
f 45/105/2 46/106/2 47/107/2
f 46/106/2 48/108/2 47/107/2
f 45/105/3 47/109/3 43/103/3
f 47/109/3 41/110/3 43/103/3
f 48/111/4 46/106/4 42/112/4
f 46/106/4 44/104/4 42/112/4
f 47/113/5 48/114/5 41/115/5
f 48/114/5 42/116/5 41/115/5
f 43/117/6 44/118/6 45/119/6
f 44/118/6 46/120/6 45/119/6
f 49/121/9 50/122/9 51/123/9
f 50/122/9 52/124/9 51/123/9
f 53/125/10 54/126/10 55/127/10
f 54/126/10 56/128/10 55/127/10
f 53/125/8 55/129/8 51/123/8
f 55/129/8 49/130/8 51/123/8
f 56/131/7 54/126/7 50/132/7
f 54/126/7 52/124/7 50/132/7
f 55/133/5 56/134/5 49/135/5
f 56/134/5 50/136/5 49/135/5
f 51/137/6 52/138/6 53/139/6
f 52/138/6 54/140/6 53/139/6
f 57/141/9 58/142/9 59/143/9
f 58/142/9 60/144/9 59/143/9
f 61/145/10 62/146/10 63/147/10
f 62/146/10 64/148/10 63/147/10
f 61/145/8 63/149/8 59/143/8
f 63/149/8 57/150/8 59/143/8
f 64/151/7 62/146/7 58/152/7
f 62/146/7 60/144/7 58/152/7
f 63/153/5 64/154/5 57/155/5
f 64/154/5 58/156/5 57/155/5
f 59/157/6 60/158/6 61/159/6
f 60/158/6 62/160/6 61/159/6
f 65/161/7 66/162/7 67/163/7
f 66/162/7 68/164/7 67/163/7
f 69/165/8 70/166/8 71/167/8
f 70/166/8 72/168/8 71/167/8
f 69/165/9 71/169/9 67/163/9
f 71/169/9 65/170/9 67/163/9
f 72/171/10 70/166/10 66/172/10
f 70/166/10 68/164/10 66/172/10
f 71/173/5 72/174/5 65/175/5
f 72/174/5 66/176/5 65/175/5
f 67/177/6 68/178/6 69/179/6
f 68/178/6 70/180/6 69/179/6
f 73/181/7 74/182/7 75/183/7
f 74/182/7 76/184/7 75/183/7
f 77/185/8 78/186/8 79/187/8
f 78/186/8 80/188/8 79/187/8
f 77/185/9 79/189/9 75/183/9
f 79/189/9 73/190/9 75/183/9
f 80/191/10 78/186/10 74/192/10
f 78/186/10 76/184/10 74/192/10
f 79/193/5 80/194/5 73/195/5
f 80/194/5 74/196/5 73/195/5
f 75/197/6 76/198/6 77/199/6
f 76/198/6 78/200/6 77/199/6
f 81/201/1 82/202/1 83/203/1
f 82/202/1 84/204/1 83/203/1
f 85/205/2 86/206/2 87/207/2
f 86/206/2 88/208/2 87/207/2
f 85/205/3 87/209/3 83/203/3
f 87/209/3 81/210/3 83/203/3
f 88/211/4 86/206/4 82/212/4
f 86/206/4 84/204/4 82/212/4
f 87/213/5 88/214/5 81/215/5
f 88/214/5 82/216/5 81/215/5
f 83/217/6 84/218/6 85/219/6
f 84/218/6 86/220/6 85/219/6
f 89/221/11 90/222/11 91/223/11
f 90/222/11 92/224/11 91/223/11
f 93/225/12 94/226/12 95/227/12
f 94/226/12 96/228/12 95/227/12
f 93/225/13 95/229/13 91/223/13
f 95/229/13 89/230/13 91/223/13
f 96/231/14 94/226/14 90/232/14
f 94/226/14 92/224/14 90/232/14
f 95/233/5 96/234/5 89/235/5
f 96/234/5 90/236/5 89/235/5
f 91/237/6 92/238/6 93/239/6
f 92/238/6 94/240/6 93/239/6
f 97/241/11 98/242/11 99/243/11
f 98/242/11 100/244/11 99/243/11
f 101/245/12 102/246/12 103/247/12
f 102/246/12 104/248/12 103/247/12
f 101/249/13 103/250/13 99/251/13
f 103/250/13 97/252/13 99/251/13
f 104/253/14 102/246/14 98/254/14
f 102/246/14 100/244/14 98/254/14
f 103/255/5 104/256/5 97/257/5
f 104/256/5 98/258/5 97/257/5
f 99/259/6 100/260/6 101/261/6
f 100/260/6 102/262/6 101/261/6
f 105/263/11 106/264/11 107/265/11
f 106/264/11 108/266/11 107/265/11
f 109/267/12 110/268/12 111/269/12
f 110/268/12 112/270/12 111/269/12
f 109/271/13 111/272/13 107/273/13
f 111/272/13 105/274/13 107/273/13
f 112/275/14 110/268/14 106/276/14
f 110/268/14 108/266/14 106/276/14
f 111/277/5 112/278/5 105/279/5
f 112/278/5 106/280/5 105/279/5
f 107/281/6 108/282/6 109/283/6
f 108/282/6 110/284/6 109/283/6
