# Blender v2.78 (sub 0) OBJ File: ''
# www.blender.org
mtllib v4torqueline.mtl
o cube
v 0.269381 0.312822 0.865867
v 0.269381 0.062683 0.865867
v 0.269381 0.312822 0.000000
v 0.269381 0.062683 0.000000
v -0.269381 0.312822 0.000000
v -0.269381 0.062683 0.000000
v -0.269381 0.312822 0.865867
v -0.269381 0.062683 0.865867
v 0.269381 0.062683 0.865867
v 0.051688 -0.155010 0.865867
v 0.269381 0.062683 0.000000
v 0.051688 -0.155010 -0.000000
v 0.106111 0.225952 0.000000
v -0.111581 0.008259 -0.000000
v 0.106111 0.225952 0.865867
v -0.111581 0.008259 0.865867
v -0.106111 0.225952 0.865867
v 0.111581 0.008259 0.865867
v -0.106111 0.225952 0.000000
v 0.111581 0.008259 -0.000000
v -0.269381 0.062683 0.000000
v -0.051688 -0.155010 -0.000000
v -0.269381 0.062683 0.865867
v -0.051688 -0.155010 0.865867
v 0.025278 0.210578 0.865867
v 0.025278 -0.155010 0.865867
v 0.025278 0.210578 0.000000
v 0.025278 -0.155010 -0.000000
v -0.051688 0.210578 0.000000
v -0.051688 -0.155010 -0.000000
v -0.051688 0.210578 0.865867
v -0.051688 -0.155010 0.865867
v 0.051688 0.210578 0.865867
v 0.051688 -0.155010 0.865867
v 0.051688 0.210578 0.000000
v 0.051688 -0.155010 -0.000000
v -0.006036 0.210578 0.000000
v -0.006036 -0.155010 -0.000000
v -0.006036 0.210578 0.865867
v -0.006036 -0.155010 0.865867
v 0.000000 0.389788 0.865867
v 0.000000 0.312822 0.865867
v 0.000000 0.389788 0.000000
v 0.000000 0.312822 0.000000
v -0.192415 0.389788 0.000000
v -0.192415 0.312822 0.000000
v -0.192415 0.389788 0.865867
v -0.192415 0.312822 0.865867
v -0.192415 0.389788 0.865867
v -0.137992 0.335365 0.865867
v -0.192415 0.389788 0.000000
v -0.137992 0.335365 0.000000
v -0.246838 0.335365 0.000000
v -0.192415 0.280942 0.000000
v -0.246838 0.335365 0.865867
v -0.192415 0.280942 0.865867
v -0.214958 0.367245 0.865867
v -0.160535 0.312822 0.865867
v -0.214958 0.367245 0.000000
v -0.160535 0.312822 0.000000
v -0.269381 0.312822 0.000000
v -0.214958 0.258399 0.000000
v -0.269381 0.312822 0.865867
v -0.214958 0.258399 0.865867
v 0.246838 0.335365 0.865867
v 0.192415 0.280942 0.865867
v 0.246838 0.335365 0.000000
v 0.192415 0.280942 0.000000
v 0.192415 0.389788 0.000000
v 0.137992 0.335365 0.000000
v 0.192415 0.389788 0.865867
v 0.137992 0.335365 0.865867
v 0.269381 0.312822 0.865867
v 0.214958 0.258399 0.865867
v 0.269381 0.312822 0.000000
v 0.214958 0.258399 0.000000
v 0.214958 0.367245 0.000000
v 0.160535 0.312822 0.000000
v 0.214958 0.367245 0.865867
v 0.160535 0.312822 0.865867
v 0.192415 0.389788 0.865867
v 0.192415 0.312822 0.865867
v 0.192415 0.389788 0.000000
v 0.192415 0.312822 0.000000
v 0.000000 0.389788 0.000000
v 0.000000 0.312822 0.000000
v 0.000000 0.389788 0.865867
v 0.000000 0.312822 0.865867
v 0.115449 0.541572 0.865867
v 0.115449 0.368399 0.865867
v 0.115449 0.541572 0.000000
v 0.115449 0.368399 0.000000
v -0.115449 0.541572 0.000000
v -0.115449 0.368399 0.000000
v -0.115449 0.541572 0.865867
v -0.115449 0.368399 0.865867
v 0.156266 0.500755 0.865867
v 0.115449 0.459938 0.865867
v 0.156266 0.500755 0.000000
v 0.115449 0.459938 0.000000
v 0.115449 0.541572 0.000000
v 0.074632 0.500755 0.000000
v 0.115449 0.541572 0.865867
v 0.074632 0.500755 0.865867
v 0.156266 0.500755 0.865867
v 0.156266 0.366065 0.865867
v 0.156266 0.500755 0.000000
v 0.156266 0.366065 0.000000
v 0.098542 0.500755 0.000000
v 0.098542 0.366065 0.000000
v 0.098542 0.500755 0.865867
v 0.098542 0.366065 0.865867
v -0.098542 0.500755 0.865867
v -0.098542 0.366065 0.865867
v -0.098542 0.500755 0.000000
v -0.098542 0.366065 0.000000
v -0.156266 0.500755 0.000000
v -0.156266 0.366065 0.000000
v -0.156266 0.500755 0.865867
v -0.156266 0.366065 0.865867
v -0.074632 0.500755 0.865867
v -0.115449 0.459938 0.865867
v -0.074632 0.500755 0.000000
v -0.115449 0.459938 0.000000
v -0.115449 0.541572 0.000000
v -0.156266 0.500755 0.000000
v -0.115449 0.541572 0.865867
v -0.156266 0.500755 0.865867
v 0.096207 0.657021 0.211656
v 0.096207 0.541572 0.211656
v 0.096207 0.657021 0.019242
v 0.096207 0.541572 0.019242
v -0.096207 0.657021 0.019242
v -0.096207 0.541572 0.019242
v -0.096207 0.657021 0.211656
v -0.096207 0.541572 0.211656
v 0.096207 0.657021 0.423313
v 0.096207 0.541572 0.423313
v 0.096207 0.657021 0.230898
v 0.096207 0.541572 0.230898
v -0.096207 0.657021 0.230898
v -0.096207 0.541572 0.230898
v -0.096207 0.657021 0.423313
v -0.096207 0.541572 0.423313
v 0.096207 0.657021 0.634969
v 0.096207 0.541572 0.634969
v 0.096207 0.657021 0.442554
v 0.096207 0.541572 0.442554
v -0.096207 0.657021 0.442554
v -0.096207 0.541572 0.442554
v -0.096207 0.657021 0.634969
v -0.096207 0.541572 0.634969
v 0.096207 0.657021 0.846625
v 0.096207 0.541572 0.846625
v 0.096207 0.657021 0.654210
v 0.096207 0.541572 0.654210
v -0.096207 0.657021 0.654210
v -0.096207 0.541572 0.654210
v -0.096207 0.657021 0.846625
v -0.096207 0.541572 0.846625
vt 0.6875 0.6875
vt 1.0000 0.6875
vt 1.0000 1.0000
vt 0.6875 1.0000
vt 0.0000 0.9375
vt 0.0625 0.9375
vt 0.0625 1.0000
vt 0.0000 1.0000
vt 0.0625 0.9375
vt 0.1250 0.9375
vt 0.1250 1.0000
vt 0.0625 1.0000
vt 0.0625 0.9375
vt 0.1250 0.9375
vt 0.1250 1.0000
vt 0.0625 1.0000
vt 0.0000 0.9375
vt 0.0625 0.9375
vt 0.0625 1.0000
vt 0.0000 1.0000
vt 0.0625 0.9375
vt 0.1250 0.9375
vt 0.1250 1.0000
vt 0.0625 1.0000
vt 0.0625 0.9375
vt 0.1250 0.9375
vt 0.1250 1.0000
vt 0.0625 1.0000
vt 0.1250 0.9375
vt 0.0625 0.9375
vt 0.0625 1.0000
vt 0.1250 1.0000
vt 0.0625 0.9375
vt 0.1250 0.9375
vt 0.1250 1.0000
vt 0.0625 1.0000
vt 0.1250 0.9375
vt 0.0625 1.0000
vt 0.1250 1.0000
vt 0.0625 0.9375
vt 0.1250 0.9375
vt 0.1250 1.0000
vt 0.0625 1.0000
vt 0.0625 0.9375
vt 0.1250 1.0000
vt 0.0625 1.0000
vt 0.0625 0.9375
vt 0.1250 0.9375
vt 0.1250 1.0000
vt 0.0625 1.0000
vt 0.1250 0.9375
vt 0.1250 1.0000
vt 0.0625 1.0000
vt 0.0625 0.9375
vt 0.1250 0.9375
vt 0.1250 1.0000
vt 0.0625 1.0000
vt 0.0625 0.9375
vt 0.1250 0.9375
vt 0.0625 1.0000
vt 0.0000 0.9375
vt 0.0625 1.0000
vt 0.0000 1.0000
vt 0.0625 0.9375
vt 0.1250 0.9375
vt 0.1250 1.0000
vt 0.0625 1.0000
vt 0.1250 0.9375
vt 0.0625 0.9375
vt 0.0625 1.0000
vt 0.1250 1.0000
vt 0.0000 0.9375
vt 0.0625 0.9375
vt 0.0625 1.0000
vt 0.0000 1.0000
vt 0.0625 0.9375
vt 0.1250 0.9375
vt 0.1250 1.0000
vt 0.0625 1.0000
vt 0.0625 0.9375
vt 0.1250 0.9375
vt 0.1250 1.0000
vt 0.0625 1.0000
vt 0.0625 0.9375
vt 0.0625 1.0000
vt 0.0000 1.0000
vt 0.1250 0.9375
vt 0.0625 0.9375
vt 0.0625 1.0000
vt 0.1250 1.0000
vt 0.1250 0.9375
vt 0.0625 0.9375
vt 0.0625 1.0000
vt 0.1250 1.0000
vt 0.0625 0.9375
vt 0.1250 0.9375
vt 0.1250 1.0000
vt 0.0625 1.0000
vt 0.1250 0.9375
vt 0.0625 0.9375
vt 0.0625 1.0000
vt 0.1250 1.0000
vt 0.0000 0.9375
vt 0.0625 0.9375
vt 0.0625 1.0000
vt 0.0000 1.0000
vt 0.0625 0.9375
vt 0.1250 0.9375
vt 0.1250 1.0000
vt 0.0625 1.0000
vt 0.0625 0.9375
vt 0.1250 0.9375
vt 0.1250 1.0000
vt 0.0625 1.0000
vt 0.0000 0.9375
vt 0.0625 0.9375
vt 0.0625 1.0000
vt 0.0000 1.0000
vt 0.0625 0.9375
vt 0.1250 0.9375
vt 0.1250 1.0000
vt 0.0625 1.0000
vt 0.0625 0.9375
vt 0.1250 0.9375
vt 0.1250 1.0000
vt 0.0625 1.0000
vt 0.0000 0.9375
vt 0.0625 0.9375
vt 0.0625 1.0000
vt 0.0000 1.0000
vt 0.0625 0.9375
vt 0.1250 0.9375
vt 0.1250 1.0000
vt 0.0625 1.0000
vt 0.1250 0.9375
vt 0.0625 0.9375
vt 0.0625 1.0000
vt 0.1250 1.0000
vt 0.0625 0.9375
vt 0.1250 0.9375
vt 0.1250 1.0000
vt 0.0625 1.0000
vt 0.0625 0.9375
vt 0.1250 0.9375
vt 0.1250 1.0000
vt 0.0625 1.0000
vt 0.0625 0.9375
vt 0.0625 1.0000
vt 0.1250 1.0000
vt 0.1250 0.9375
vt 0.0625 0.9375
vt 0.0625 1.0000
vt 0.1250 1.0000
vt 0.0625 0.9375
vt 0.1250 0.9375
vt 0.1250 1.0000
vt 0.0625 1.0000
vt 0.1250 0.9375
vt 0.0625 0.9375
vt 0.0625 1.0000
vt 0.1250 1.0000
vt 0.0625 0.9375
vt 0.0625 1.0000
vt 0.0625 0.9375
vt 0.1250 0.9375
vt 0.1250 1.0000
vt 0.0625 1.0000
vt 0.1250 0.9375
vt 0.0625 0.9375
vt 0.0625 1.0000
vt 0.1250 1.0000
vt 0.1250 0.9375
vt 0.0625 0.9375
vt 0.0625 1.0000
vt 0.0000 0.9375
vt 0.0625 1.0000
vt 0.0000 1.0000
vt 0.0625 0.9375
vt 0.1250 0.9375
vt 0.1250 1.0000
vt 0.0625 1.0000
vt 0.0625 0.9375
vt 0.1250 0.9375
vt 0.1250 1.0000
vt 0.0625 1.0000
vt 0.0625 0.9375
vt 0.1250 0.9375
vt 0.1250 1.0000
vt 0.1250 0.9375
vt 0.0625 0.9375
vt 0.0625 0.9375
vt 0.1250 0.9375
vt 0.6875 0.6875
vt 1.0000 0.6875
vt 1.0000 1.0000
vt 0.6875 1.0000
vt 0.0625 0.9375
vt 0.1250 0.9375
vt 0.1250 1.0000
vt 0.0625 1.0000
vt 0.0625 0.9375
vt 0.1250 0.9375
vt 0.1250 1.0000
vt 0.0625 1.0000
vt 0.1250 0.9375
vt 0.0625 0.9375
vt 0.1250 1.0000
vt 0.0625 0.9375
vt 0.0625 1.0000
vt 0.0625 0.9375
vt 0.0625 1.0000
vt 0.1250 1.0000
vt 0.0625 0.9375
vt 0.1250 0.9375
vt 0.1250 1.0000
vt 0.0625 1.0000
vt 0.0625 0.9375
vt 0.1250 1.0000
vt 0.0625 1.0000
vt 0.0000 0.9375
vt 0.0625 0.9375
vt 0.0625 1.0000
vt 0.0000 1.0000
vt 0.6875 0.6875
vt 1.0000 0.6875
vt 1.0000 1.0000
vt 0.6875 1.0000
vt 0.0625 0.9375
vt 0.1250 0.9375
vt 0.1250 1.0000
vt 0.0625 1.0000
vt 0.0625 0.9375
vt 0.1250 0.9375
vt 0.0625 1.0000
vt 0.0000 0.9375
vt 0.0625 0.9375
vt 0.0625 1.0000
vt 0.0000 1.0000
vt 0.1250 0.9375
vt 0.1250 1.0000
vt 0.0625 0.9375
vt 0.1250 0.9375
vt 0.1250 1.0000
vt 0.0625 0.9375
vt 0.1250 0.9375
vt 0.1250 1.0000
vt 0.0625 0.9375
vt 0.1250 0.9375
vt 0.1250 1.0000
vt 0.0625 1.0000
vt 0.1250 1.0000
vt 0.0625 1.0000
vt 0.1250 0.9375
vt 0.1250 1.0000
vt 0.0625 1.0000
vt 0.0625 0.9375
vt 0.1250 0.9375
vt 0.1250 1.0000
vt 0.0625 1.0000
vt 0.1250 1.0000
vt 0.0625 1.0000
vt 0.1250 0.9375
vt 0.1250 1.0000
vt 0.0000 0.9375
vt 0.0625 1.0000
vt 0.0000 1.0000
vt 0.0000 0.9375
vt 0.0625 0.9375
vt 0.0625 1.0000
vt 0.0000 1.0000
vt 0.0625 0.9375
vt 0.1250 0.9375
vt 0.1250 1.0000
vt 0.1250 0.9375
vt 0.0625 0.9375
vt 0.0625 1.0000
vt 0.0625 0.9375
vt 0.1250 0.9375
vt 0.1250 1.0000
vt 0.0625 1.0000
vt 0.0625 0.9375
vt 0.1250 0.9375
vt 0.0625 1.0000
vt 0.0625 0.9375
vt 0.1250 0.9375
vt 0.1250 1.0000
vt 0.0625 1.0000
vt 0.0625 0.9375
vt 0.1250 1.0000
vt 0.0625 1.0000
vt 0.0625 0.9375
vt 0.1250 0.9375
vt 0.1250 1.0000
vt 0.0625 1.0000
vt 0.1250 0.9375
vt 0.1250 1.0000
vt 0.0625 0.9375
vt 0.1250 0.9375
vt 0.0625 0.9375
vt 0.1250 1.0000
vt 0.0625 1.0000
vt 0.0625 0.9375
vt 0.1250 0.9375
vt 0.1250 1.0000
vt 0.0625 1.0000
vt 0.0625 0.9375
vt 0.1250 0.9375
vt 0.1250 1.0000
vt 0.1250 0.9375
vt 0.1250 1.0000
vt 0.0625 1.0000
vt 0.0625 0.9375
vt 0.1250 0.9375
vt 0.1250 1.0000
vt 0.0625 1.0000
vt 0.0625 0.9375
vt 0.1250 0.9375
vt 0.0625 1.0000
vt 0.1250 0.9375
vt 0.1250 1.0000
vt 0.0625 1.0000
vt 0.0625 0.9375
vt 0.1250 0.9375
vt 0.0625 1.0000
vt 0.0000 0.9375
vt 0.0625 0.9375
vt 0.0625 1.0000
vt 0.0000 1.0000
vt 0.1250 1.0000
vt 0.0625 1.0000
vt 0.1250 0.9375
vt 0.0625 0.9375
vt 0.0625 1.0000
vt 0.1250 1.0000
vt 0.0625 0.9375
vt 0.0625 1.0000
vt 0.1250 1.0000
vt 0.0625 1.0000
vt 0.6875 0.6875
vt 1.0000 0.6875
vt 1.0000 1.0000
vt 0.6875 1.0000
vt 0.1250 0.9375
vt 0.1250 1.0000
vt 0.0625 0.9375
vt 0.1250 0.9375
vt 0.1250 1.0000
vt 0.0625 1.0000
vt 0.0625 0.9375
vt 0.1250 0.9375
vt 0.1250 1.0000
vt 0.0625 1.0000
vt 0.0625 0.9375
vt 0.0625 1.0000
vt 0.0000 1.0000
vt 0.1250 0.9375
vt 0.0625 0.9375
vt 0.0625 1.0000
vt 0.1250 1.0000
vt 0.0625 0.9375
vt 0.0625 1.0000
vt 0.0000 1.0000
vt 0.0625 0.9375
vt 0.1250 0.9375
vt 0.1250 1.0000
vt 0.0625 1.0000
vt 0.0625 1.0000
vt 0.1250 1.0000
vt 0.0625 0.9375
vt 0.1250 0.9375
vt 0.1250 1.0000
vt 0.0625 1.0000
vt 0.0625 0.9375
vt 0.1250 0.9375
vt 0.1250 1.0000
vt 0.1250 1.0000
vt 0.0625 1.0000
vt 0.1250 0.9375
vt 0.0625 0.9375
vt 0.0625 1.0000
vt 0.1250 1.0000
vt 0.0625 0.9375
vt 0.1250 0.9375
vt 0.0625 1.0000
vt 0.0000 0.9375
vt 0.0625 0.9375
vt 0.0625 1.0000
vt 0.0000 1.0000
vt 0.0625 1.0000
vt 0.0000 1.0000
vt 0.1250 0.9375
vt 0.1250 1.0000
vt 0.0000 0.9375
vt 0.0625 0.9375
vt 0.0625 1.0000
vt 0.0000 1.0000
vt 0.0625 0.9375
vt 0.1250 0.9375
vt 0.0000 0.9375
vt 0.0625 0.9375
vt 0.0625 1.0000
vt 0.0000 1.0000
vt 0.1250 0.9375
vt 0.0625 0.9375
vt 0.0625 1.0000
vt 0.1250 1.0000
vt 0.0625 0.9375
vt 0.0625 1.0000
vn 0.0000 1.0000 0.0000
vn 1.0000 0.0000 0.0000
vn 0.0000 0.0000 1.0000
vn 0.0000 -1.0000 -0.0000
vn 0.0000 0.0000 -1.0000
vn -0.7071 -0.7071 -0.0000
vn 0.7071 0.7071 0.0000
vn 0.7071 -0.7071 -0.0000
vn -1.0000 0.0000 0.0000
vn -0.7071 0.7071 0.0000
usemtl m_0
s 1
f 143/1/1 137/2/1 139/3/1 141/4/1
f 138/5/2 140/6/2 139/7/2 137/8/2
f 34/9/2 36/10/2 35/11/2 33/12/2
f 32/13/3 26/14/3 25/15/3 31/16/3
f 158/17/4 156/18/4 154/19/4 160/20/4
f 30/21/4 28/22/4 26/23/4 32/24/4
f 100/25/5 102/26/5 101/27/5 99/28/5
f 78/29/6 76/30/6 74/31/6 80/32/6
f 127/33/7 121/34/7 123/35/7 125/36/7
f 74/37/8 76/30/8 75/38/8 73/39/8
f 94/40/4 92/41/4 90/42/4 96/43/4
f 90/44/2 92/41/2 91/45/2 89/46/2
f 62/47/8 60/48/8 58/49/8 64/50/8
f 62/47/6 64/51/6 63/52/6 61/53/6
f 124/54/5 126/55/5 125/56/5 123/57/5
f 122/58/8 124/59/8 123/35/8 121/60/8
f 154/61/2 156/18/2 155/62/2 153/63/2
f 54/64/8 52/65/8 50/66/8 56/67/8
f 24/68/3 18/69/3 17/70/3 23/71/3
f 156/72/5 158/73/5 157/74/5 155/75/5
f 64/76/3 58/77/3 57/78/3 63/79/3
f 36/80/5 38/81/5 37/82/5 35/83/5
f 158/17/9 160/84/9 159/85/9 157/86/9
f 72/87/3 66/88/3 65/89/3 71/90/3
f 88/91/3 82/92/3 81/93/3 87/94/3
f 96/95/3 90/96/3 89/97/3 95/98/3
f 84/99/5 86/100/5 85/101/5 83/102/5
f 146/103/2 148/104/2 147/105/2 145/106/2
f 42/107/2 44/108/2 43/109/2 41/110/2
f 52/111/5 54/112/5 53/113/5 51/114/5
f 148/115/5 150/116/5 149/117/5 147/118/5
f 12/119/5 14/120/5 13/121/5 11/122/5
f 38/123/9 40/124/9 39/125/9 37/126/9
f 134/127/4 132/128/4 130/129/4 136/130/4
f 104/131/3 98/132/3 97/133/3 103/134/3
f 70/135/6 68/136/6 66/137/6 72/138/6
f 55/139/10 49/140/10 51/141/10 53/142/10
f 4/143/5 6/144/5 5/145/5 3/146/5
f 78/29/10 80/147/10 79/148/10 77/149/10
f 87/150/1 81/151/1 83/152/1 85/153/1
f 16/154/3 10/155/3 9/156/3 15/157/3
f 22/158/6 24/159/6 23/160/6 21/161/6
f 50/162/7 52/65/7 51/141/7 49/163/7
f 98/164/8 100/165/8 99/166/8 97/167/8
f 71/168/7 65/169/7 67/170/7 69/171/7
f 23/172/10 17/173/10 19/174/10 21/161/10
f 130/175/2 132/128/2 131/176/2 129/177/2
f 128/178/3 122/179/3 121/180/3 127/181/3
f 110/182/9 112/183/9 111/184/9 109/185/9
f 63/186/10 57/187/10 59/188/10 61/53/10
f 79/189/7 73/190/7 75/38/7 77/149/7
f 39/191/1 33/192/1 35/11/1 37/126/1
f 151/193/1 145/194/1 147/195/1 149/196/1
f 40/197/3 34/198/3 33/199/3 39/200/3
f 14/201/10 16/202/10 15/203/10 13/204/10
f 82/205/2 84/206/2 83/152/2 81/207/2
f 58/208/7 60/48/7 59/188/7 57/209/7
f 22/158/8 20/210/8 18/211/8 24/212/8
f 7/213/1 1/214/1 3/215/1 5/216/1
f 26/217/2 28/22/2 27/218/2 25/219/2
f 142/220/9 144/221/9 143/222/9 141/223/9
f 135/224/1 129/225/1 131/226/1 133/227/1
f 44/228/5 46/229/5 45/230/5 43/231/5
f 2/232/2 4/233/2 3/215/2 1/234/2
f 144/235/3 138/236/3 137/237/3 143/238/3
f 66/239/8 68/136/8 67/170/8 65/240/8
f 6/241/9 8/242/9 7/243/9 5/216/9
f 126/244/10 128/245/10 127/246/10 125/36/10
f 8/247/3 2/248/3 1/249/3 7/250/3
f 38/123/4 36/10/4 34/251/4 40/252/4
f 30/21/9 32/253/9 31/254/9 29/255/9
f 114/256/2 116/257/2 115/258/2 113/259/2
f 126/244/6 124/59/6 122/260/6 128/261/6
f 18/262/7 20/210/7 19/174/7 17/263/7
f 150/264/4 148/104/4 146/265/4 152/266/4
f 160/267/3 154/268/3 153/269/3 159/270/3
f 15/271/7 9/272/7 11/273/7 13/204/7
f 86/274/9 88/275/9 87/276/9 85/153/9
f 60/277/5 62/278/5 61/279/5 59/280/5
f 119/281/1 113/282/1 115/258/1 117/283/1
f 112/284/3 106/285/3 105/286/3 111/287/3
f 118/288/4 116/257/4 114/289/4 120/290/4
f 120/291/3 114/292/3 113/293/3 119/294/3
f 54/64/6 56/295/6 55/296/6 53/142/6
f 31/297/1 25/298/1 27/218/1 29/255/1
f 102/299/6 100/165/6 98/300/6 104/301/6
f 108/302/5 110/303/5 109/304/5 107/305/5
f 111/306/1 105/307/1 107/308/1 109/185/1
f 110/182/4 108/309/4 106/310/4 112/311/4
f 116/312/5 118/313/5 117/314/5 115/315/5
f 47/316/1 41/317/1 43/109/1 45/318/1
f 102/299/10 104/319/10 103/320/10 101/321/10
f 10/322/8 12/323/8 11/273/8 9/324/8
f 132/325/5 134/326/5 133/327/5 131/328/5
f 14/201/6 12/323/6 10/329/6 16/330/6
f 20/331/5 22/332/5 21/333/5 19/334/5
f 106/335/2 108/309/2 107/308/2 105/336/2
f 6/241/4 4/233/4 2/337/4 8/338/4
f 159/339/1 153/340/1 155/341/1 157/342/1
f 118/288/9 120/343/9 119/344/9 117/283/9
f 92/345/5 94/346/5 93/347/5 91/348/5
f 28/349/5 30/350/5 29/351/5 27/352/5
f 134/127/9 136/353/9 135/354/9 133/355/9
f 80/356/3 74/357/3 73/358/3 79/359/3
f 150/264/9 152/360/9 151/361/9 149/362/9
f 56/363/3 50/364/3 49/365/3 55/366/3
f 86/274/4 84/206/4 82/367/4 88/368/4
f 48/369/3 42/370/3 41/371/3 47/372/3
f 46/373/9 48/374/9 47/375/9 45/318/9
f 46/373/4 44/108/4 42/376/4 48/377/4
f 76/378/5 78/379/5 77/380/5 75/381/5
f 95/382/1 89/383/1 91/45/1 93/384/1
f 140/385/5 142/386/5 141/387/5 139/388/5
f 142/220/4 140/6/4 138/389/4 144/390/4
f 94/40/9 96/391/9 95/392/9 93/384/9
f 136/393/3 130/394/3 129/395/3 135/396/3
f 103/397/7 97/398/7 99/166/7 101/321/7
f 152/399/3 146/400/3 145/401/3 151/402/3
f 68/403/5 70/404/5 69/405/5 67/406/5
f 70/135/10 72/407/10 71/408/10 69/171/10
