# Blender v2.78 (sub 0) OBJ File: ''
# www.blender.org
mtllib v4turbo.mtl
o turbo
v 0.000000 0.244575 0.749011
v 0.000000 0.122288 0.749011
v 0.000000 0.244575 0.687868
v 0.000000 0.122288 0.687868
v -0.122288 0.244575 0.687868
v -0.122288 0.122288 0.687868
v -0.122288 0.244575 0.749011
v -0.122288 0.122288 0.749011
v -0.068052 0.150521 0.749011
v -0.039819 0.096285 0.749011
v -0.068052 0.150521 0.687868
v -0.039819 0.096285 0.687868
v -0.122288 0.122288 0.687868
v -0.094055 0.068052 0.687868
v -0.122288 0.122288 0.749011
v -0.094055 0.068052 0.749011
v -0.073142 0.125509 0.749011
v -0.015686 0.104596 0.749011
v -0.073142 0.125509 0.687868
v -0.015686 0.104596 0.687868
v -0.094055 0.068052 0.687868
v -0.036598 0.047140 0.687868
v -0.094055 0.068052 0.749011
v -0.036598 0.047140 0.749011
vt 0.0000 0.1875
vt 0.0625 0.1875
vt 0.0625 0.2500
vt 0.0000 0.2500
vt 0.0000 0.1875
vt 0.0625 0.1875
vt 0.0625 0.2500
vt 0.0000 0.2500
vt 0.0000 0.1875
vt 0.0625 0.2500
vt 0.0000 0.2500
vt 0.0000 0.1875
vt 0.0625 0.1875
vt 0.0625 0.2500
vt 0.0000 0.2500
vt 0.0000 0.1875
vt 0.0625 0.1875
vt 0.0625 0.2500
vt 0.0000 0.2500
vt 0.0000 0.1875
vt 0.0625 0.1875
vt 0.0625 0.2500
vt 0.0000 0.2500
vt 0.0000 0.1875
vt 0.0625 0.1875
vt 0.0000 0.2500
vt 0.0000 0.1875
vt 0.0625 0.1875
vt 0.0625 0.2500
vt 0.0000 0.2500
vt 0.1250 0.0625
vt 0.2500 0.0625
vt 0.2500 0.1875
vt 0.1250 0.1875
vt 0.0000 0.1875
vt 0.0625 0.1875
vt 0.0625 0.2500
vt 0.0000 0.2500
vt 0.0000 0.0625
vt 0.1250 0.0625
vt 0.1250 0.1875
vt 0.0000 0.1875
vt 0.0625 0.1875
vt 0.0000 0.1875
vt 0.0625 0.1875
vt 0.0625 0.2500
vt 0.0000 0.2500
vt 0.0000 0.1875
vt 0.0625 0.1875
vt 0.0625 0.2500
vt 0.0000 0.2500
vt 0.0000 0.1875
vt 0.0000 0.2500
vt 0.1250 0.0625
vt 0.2500 0.0625
vt 0.2500 0.1875
vt 0.1250 0.1875
vt 0.0625 0.1875
vt 0.0625 0.2500
vt 0.0625 0.1875
vt 0.0625 0.2500
vn 0.0000 1.0000 0.0000
vn 0.4617 -0.8870 0.0000
vn 0.8870 0.4617 0.0000
vn 0.0000 -1.0000 0.0000
vn 0.0000 0.0000 -1.0000
vn -0.3420 -0.9397 0.0000
vn -0.4617 0.8870 0.0000
vn 0.3420 0.9397 0.0000
vn 0.0000 0.0000 1.0000
vn -0.9397 0.3420 0.0000
vn 1.0000 0.0000 0.0000
vn 0.9397 -0.3420 0.0000
vn -1.0000 0.0000 0.0000
vn -0.8870 -0.4617 0.0000
usemtl m_0
s 1
f 7/1/1 1/2/1 3/3/1 5/4/1
f 14/5/2 12/6/2 10/7/2 16/8/2
f 10/9/3 12/6/3 11/10/3 9/11/3
f 6/12/4 4/13/4 2/14/4 8/15/4
f 12/16/5 14/17/5 13/18/5 11/19/5
f 22/20/6 24/21/6 23/22/6 21/23/6
f 15/24/7 9/25/7 11/10/7 13/26/7
f 18/27/8 20/28/8 19/29/8 17/30/8
f 4/31/5 6/32/5 5/33/5 3/34/5
f 24/35/9 18/36/9 17/37/9 23/38/9
f 8/39/9 2/40/9 1/41/9 7/1/9
f 23/42/10 17/43/10 19/29/10 21/23/10
f 16/44/9 10/45/9 9/46/9 15/47/9
f 20/48/5 22/49/5 21/50/5 19/51/5
f 2/52/11 4/13/11 3/3/11 1/53/11
f 22/54/12 20/55/12 18/56/12 24/57/12
f 6/12/13 8/58/13 7/59/13 5/4/13
f 14/5/14 16/60/14 15/61/14 13/26/14
o cube
v 0.214003 0.229289 0.687868
v 0.214003 0.030572 0.687868
v 0.214003 0.229289 0.000000
v 0.214003 0.030572 0.000000
v -0.214003 0.229289 0.000000
v -0.214003 0.030572 0.000000
v -0.214003 0.229289 0.687868
v -0.214003 0.030572 0.687868
v 0.000000 0.290433 0.687868
v 0.000000 0.229289 0.687868
v 0.000000 0.290433 0.000000
v 0.000000 0.229289 0.000000
v -0.152859 0.290433 0.000000
v -0.152859 0.229289 0.000000
v -0.152859 0.290433 0.687868
v -0.152859 0.229289 0.687868
v 0.152859 0.290433 0.687868
v 0.152859 0.229289 0.687868
v 0.152859 0.290433 0.000000
v 0.152859 0.229289 0.000000
v 0.000000 0.290433 0.000000
v 0.000000 0.229289 0.000000
v 0.000000 0.290433 0.687868
v 0.000000 0.229289 0.687868
v -0.152859 0.290433 0.687868
v -0.109624 0.247198 0.687868
v -0.152859 0.290433 0.000000
v -0.109624 0.247198 0.000000
v -0.196095 0.247198 0.000000
v -0.152859 0.203963 0.000000
v -0.196095 0.247198 0.687868
v -0.152859 0.203963 0.687868
v 0.196095 0.247198 0.687868
v 0.152859 0.203963 0.687868
v 0.196095 0.247198 0.000000
v 0.152859 0.203963 0.000000
v 0.152859 0.290433 0.000000
v 0.109624 0.247198 0.000000
v 0.152859 0.290433 0.687868
v 0.109624 0.247198 0.687868
v -0.170768 0.272524 0.687868
v -0.127533 0.229289 0.687868
v -0.170768 0.272524 0.000000
v -0.127533 0.229289 0.000000
v -0.214003 0.229289 0.000000
v -0.170768 0.186054 0.000000
v -0.214003 0.229289 0.687868
v -0.170768 0.186054 0.687868
v 0.214003 0.229289 0.687868
v 0.170768 0.186054 0.687868
v 0.214003 0.229289 0.000000
v 0.170768 0.186054 0.000000
v 0.170768 0.272524 0.000000
v 0.127533 0.229289 0.000000
v 0.170768 0.272524 0.687868
v 0.127533 0.229289 0.687868
v -0.084298 0.160277 0.687868
v 0.088643 -0.012663 0.687868
v -0.084298 0.160277 0.000000
v 0.088643 -0.012663 -0.000000
v -0.214003 0.030572 0.000000
v -0.041063 -0.142369 -0.000000
v -0.214003 0.030572 0.687868
v -0.041063 -0.142369 0.687868
v 0.214003 0.030572 0.687868
v 0.041063 -0.142369 0.687868
v 0.214003 0.030572 0.000000
v 0.041063 -0.142369 -0.000000
v 0.084298 0.160277 0.000000
v -0.088643 -0.012663 -0.000000
v 0.084298 0.160277 0.687868
v -0.088643 -0.012663 0.687868
v 0.041063 0.148064 0.687868
v 0.041063 -0.142369 0.687868
v 0.041063 0.148064 0.000000
v 0.041063 -0.142369 -0.000000
v -0.004795 0.148064 0.000000
v -0.004795 -0.142369 -0.000000
v -0.004795 0.148064 0.687868
v -0.004795 -0.142369 0.687868
v 0.020081 0.148064 0.687868
v 0.020081 -0.142369 0.687868
v 0.020081 0.148064 0.000000
v 0.020081 -0.142369 -0.000000
v -0.041063 0.148064 0.000000
v -0.041063 -0.142369 -0.000000
v -0.041063 0.148064 0.687868
v -0.041063 -0.142369 0.687868
v 0.102675 0.497902 0.168145
v 0.102675 0.406186 0.168145
v 0.102675 0.497902 0.015286
v 0.102675 0.406186 0.015286
v -0.050185 0.497902 0.015286
v -0.050185 0.406186 0.015286
v -0.050185 0.497902 0.168145
v -0.050185 0.406186 0.168145
v 0.102675 0.497902 0.336291
v 0.102675 0.406186 0.336291
v 0.102675 0.497902 0.183431
v 0.102675 0.406186 0.183431
v -0.050185 0.497902 0.183431
v -0.050185 0.406186 0.183431
v -0.050185 0.497902 0.336291
v -0.050185 0.406186 0.336291
v 0.102675 0.497902 0.504436
v 0.102675 0.406186 0.504436
v 0.102675 0.497902 0.351577
v 0.102675 0.406186 0.351577
v -0.050185 0.497902 0.351577
v -0.050185 0.406186 0.351577
v -0.050185 0.497902 0.504436
v -0.050185 0.406186 0.504436
v 0.102675 0.497902 0.672582
v 0.102675 0.406186 0.672582
v 0.102675 0.497902 0.519722
v 0.102675 0.406186 0.519722
v -0.050185 0.497902 0.519722
v -0.050185 0.406186 0.519722
v -0.050185 0.497902 0.672582
v -0.050185 0.406186 0.672582
v 0.117961 0.413829 0.687868
v 0.117961 0.276256 0.687868
v 0.117961 0.413829 0.000000
v 0.117961 0.276256 0.000000
v -0.065471 0.413829 0.000000
v -0.065471 0.276256 0.000000
v -0.065471 0.413829 0.687868
v -0.065471 0.276256 0.687868
v 0.150387 0.381403 0.687868
v 0.117961 0.348976 0.687868
v 0.150387 0.381403 0.000000
v 0.117961 0.348977 0.000000
v 0.117961 0.413829 0.000000
v 0.085534 0.381403 0.000000
v 0.117961 0.413829 0.687868
v 0.085534 0.381403 0.687868
v -0.033044 0.381403 0.687868
v -0.065471 0.348976 0.687868
v -0.033044 0.381403 0.000000
v -0.065471 0.348977 0.000000
v -0.065471 0.413829 0.000000
v -0.097897 0.381403 0.000000
v -0.065471 0.413829 0.687868
v -0.097897 0.381403 0.687868
v 0.150387 0.381403 0.687868
v 0.150387 0.274401 0.687868
v 0.150387 0.381403 0.000000
v 0.150387 0.274401 0.000000
v 0.104529 0.381403 0.000000
v 0.104529 0.274401 0.000000
v 0.104529 0.381403 0.687868
v 0.104529 0.274401 0.687868
v -0.052039 0.381403 0.687868
v -0.052039 0.274401 0.687868
v -0.052039 0.381403 0.000000
v -0.052039 0.274401 0.000000
v -0.097897 0.381403 0.000000
v -0.097897 0.274401 0.000000
v -0.097897 0.381403 0.687868
v -0.097897 0.274401 0.687868
vt 0.0625 0.9375
vt 0.1250 0.9375
vt 0.1250 1.0000
vt 0.0625 1.0000
vt 0.0625 0.9375
vt 0.1250 0.9375
vt 0.1250 1.0000
vt 0.0625 1.0000
vt 0.0625 0.9375
vt 0.1250 0.9375
vt 0.1250 1.0000
vt 0.0625 1.0000
vt 0.1250 0.9375
vt 0.0625 0.9375
vt 0.0625 1.0000
vt 0.1250 1.0000
vt 0.0000 0.9375
vt 0.0625 0.9375
vt 0.0625 1.0000
vt 0.0000 1.0000
vt 0.1250 0.9375
vt 0.0625 0.9375
vt 0.0625 1.0000
vt 0.1250 1.0000
vt 0.0625 0.9375
vt 0.1250 0.9375
vt 0.1250 1.0000
vt 0.0625 1.0000
vt 0.0625 0.9375
vt 0.1250 0.9375
vt 0.1250 1.0000
vt 0.0625 1.0000
vt 0.0625 0.9375
vt 0.1250 0.9375
vt 0.1250 1.0000
vt 0.0625 1.0000
vt 0.0625 0.9375
vt 0.1250 0.9375
vt 0.1250 1.0000
vt 0.0625 1.0000
vt 0.0625 0.9375
vt 0.1250 0.9375
vt 0.1250 1.0000
vt 0.0625 1.0000
vt 0.0000 0.9375
vt 0.0625 0.9375
vt 0.0625 1.0000
vt 0.0000 1.0000
vt 0.1250 0.9375
vt 0.0625 0.9375
vt 0.0625 1.0000
vt 0.1250 1.0000
vt 0.6875 0.6875
vt 1.0000 0.6875
vt 1.0000 1.0000
vt 0.6875 1.0000
vt 0.0625 0.9375
vt 0.1250 0.9375
vt 0.1250 1.0000
vt 0.0625 1.0000
vt 0.1250 0.9375
vt 0.0625 0.9375
vt 0.0625 1.0000
vt 0.1250 1.0000
vt 0.0625 0.9375
vt 0.1250 0.9375
vt 0.1250 1.0000
vt 0.0625 1.0000
vt 0.0625 0.9375
vt 0.0625 1.0000
vt 0.0000 1.0000
vt 0.0625 0.9375
vt 0.1250 0.9375
vt 0.1250 1.0000
vt 0.0625 1.0000
vt 0.0000 0.9375
vt 0.0625 0.9375
vt 0.0625 1.0000
vt 0.0000 1.0000
vt 0.0000 0.9375
vt 0.0625 0.9375
vt 0.0625 1.0000
vt 0.0000 1.0000
vt 0.0625 0.9375
vt 0.1250 0.9375
vt 0.1250 1.0000
vt 0.0625 1.0000
vt 0.0625 0.9375
vt 0.1250 1.0000
vt 0.0625 1.0000
vt 0.1250 0.9375
vt 0.0625 0.9375
vt 0.0625 1.0000
vt 0.1250 1.0000
vt 0.0000 0.9375
vt 0.0625 0.9375
vt 0.0625 1.0000
vt 0.0000 1.0000
vt 0.0625 0.9375
vt 0.1250 0.9375
vt 0.0625 1.0000
vt 0.0625 0.9375
vt 0.1250 0.9375
vt 0.1250 1.0000
vt 0.0625 1.0000
vt 0.0625 0.9375
vt 0.1250 0.9375
vt 0.1250 1.0000
vt 0.0625 1.0000
vt 0.0625 0.9375
vt 0.1250 0.9375
vt 0.1250 1.0000
vt 0.0625 1.0000
vt 0.1250 0.9375
vt 0.0625 0.9375
vt 0.0625 1.0000
vt 0.1250 1.0000
vt 0.1250 0.9375
vt 0.0625 0.9375
vt 0.1250 1.0000
vt 0.0625 0.9375
vt 0.1250 1.0000
vt 0.0625 1.0000
vt 0.0625 0.9375
vt 0.1250 0.9375
vt 0.1250 1.0000
vt 0.0625 1.0000
vt 0.1250 0.9375
vt 0.0625 0.9375
vt 0.0625 1.0000
vt 0.1250 1.0000
vt 0.0625 0.9375
vt 0.1250 0.9375
vt 0.1250 1.0000
vt 0.0625 1.0000
vt 0.0000 0.9375
vt 0.0625 0.9375
vt 0.0625 1.0000
vt 0.0000 1.0000
vt 0.0625 0.9375
vt 0.1250 0.9375
vt 0.1250 0.9375
vt 0.0625 0.9375
vt 0.0625 1.0000
vt 0.1250 1.0000
vt 0.0625 0.9375
vt 0.1250 0.9375
vt 0.0625 1.0000
vt 0.1250 0.9375
vt 0.0625 0.9375
vt 0.1250 1.0000
vt 0.0625 0.9375
vt 0.1250 0.9375
vt 0.1250 1.0000
vt 0.0625 1.0000
vt 0.1250 0.9375
vt 0.0625 0.9375
vt 0.0625 1.0000
vt 0.1250 1.0000
vt 0.1250 0.9375
vt 0.1250 1.0000
vt 0.0625 0.9375
vt 0.1250 0.9375
vt 0.1250 1.0000
vt 0.0625 1.0000
vt 0.0625 0.9375
vt 0.1250 0.9375
vt 0.1250 1.0000
vt 0.0625 1.0000
vt 0.0625 0.9375
vt 0.1250 1.0000
vt 0.0625 1.0000
vt 0.0000 0.9375
vt 0.0625 0.9375
vt 0.0625 1.0000
vt 0.0000 1.0000
vt 0.0625 0.9375
vt 0.1250 0.9375
vt 0.1250 1.0000
vt 0.0625 1.0000
vt 0.1250 0.9375
vt 0.1250 1.0000
vt 0.0625 1.0000
vt 0.1250 0.9375
vt 0.1250 1.0000
vt 0.0625 1.0000
vt 0.0625 0.9375
vt 0.1250 1.0000
vt 0.0625 1.0000
vt 0.0625 1.0000
vt 0.1250 1.0000
vt 0.0625 0.9375
vt 0.1250 0.9375
vt 0.1250 1.0000
vt 0.0625 1.0000
vt 0.0625 0.9375
vt 0.1250 0.9375
vt 0.1250 1.0000
vt 0.0000 0.9375
vt 0.0625 0.9375
vt 0.0625 1.0000
vt 0.0000 1.0000
vt 0.0625 0.9375
vt 0.1250 0.9375
vt 0.1250 1.0000
vt 0.0625 1.0000
vt 0.0000 0.9375
vt 0.0625 0.9375
vt 0.0625 1.0000
vt 0.0000 1.0000
vt 0.0625 0.9375
vt 0.1250 0.9375
vt 0.0000 0.9375
vt 0.0625 0.9375
vt 0.0625 1.0000
vt 0.0000 1.0000
vt 0.0625 0.9375
vt 0.1250 0.9375
vt 0.1250 1.0000
vt 0.0625 1.0000
vt 0.6875 0.6875
vt 1.0000 0.6875
vt 1.0000 1.0000
vt 0.6875 1.0000
vt 0.0625 0.9375
vt 0.1250 0.9375
vt 0.1250 1.0000
vt 0.0625 1.0000
vt 0.1250 0.9375
vt 0.0625 1.0000
vt 0.1250 1.0000
vt 0.0000 0.9375
vt 0.0625 0.9375
vt 0.0625 1.0000
vt 0.0000 1.0000
vt 0.1250 0.9375
vt 0.1250 1.0000
vt 0.0625 1.0000
vt 0.0625 0.9375
vt 0.1250 0.9375
vt 0.0625 1.0000
vt 0.0625 0.9375
vt 0.1250 0.9375
vt 0.1250 1.0000
vt 0.0625 1.0000
vt 0.0625 0.9375
vt 0.0625 1.0000
vt 0.1250 1.0000
vt 0.0625 0.9375
vt 0.1250 0.9375
vt 0.1250 1.0000
vt 0.0625 1.0000
vt 0.1250 0.9375
vt 0.0625 0.9375
vt 0.0625 1.0000
vt 0.1250 1.0000
vt 0.6875 0.6875
vt 1.0000 0.6875
vt 1.0000 1.0000
vt 0.6875 1.0000
vt 0.0625 0.9375
vt 0.1250 0.9375
vt 0.1250 1.0000
vt 0.0625 1.0000
vt 0.6875 0.6875
vt 1.0000 0.6875
vt 1.0000 1.0000
vt 0.6875 1.0000
vt 0.0000 0.9375
vt 0.0625 0.9375
vt 0.0625 1.0000
vt 0.0000 1.0000
vt 0.0625 0.9375
vt 0.1250 0.9375
vt 0.1250 1.0000
vt 0.0625 1.0000
vt 0.0000 0.9375
vt 0.0625 0.9375
vt 0.0625 1.0000
vt 0.0000 1.0000
vt 0.1250 0.9375
vt 0.0625 1.0000
vt 0.1250 1.0000
vt 0.0625 0.9375
vt 0.1250 0.9375
vt 0.1250 1.0000
vt 0.0625 1.0000
vt 0.0625 0.9375
vt 0.1250 0.9375
vt 0.1250 1.0000
vt 0.0625 1.0000
vt 0.0625 0.9375
vt 0.1250 0.9375
vt 0.1250 1.0000
vt 0.0625 1.0000
vt 0.0000 0.9375
vt 0.0625 1.0000
vt 0.0000 1.0000
vt 0.0625 0.9375
vt 0.0625 1.0000
vt 0.0000 1.0000
vt 0.0625 0.9375
vt 0.1250 0.9375
vt 0.0625 1.0000
vt 0.0625 0.9375
vt 0.1250 0.9375
vt 0.1250 1.0000
vt 0.0625 1.0000
vt 0.1250 0.9375
vt 0.0625 0.9375
vt 0.0625 1.0000
vt 0.1250 1.0000
vt 0.0625 0.9375
vt 0.1250 0.9375
vt 0.1250 1.0000
vt 0.0625 1.0000
vt 0.1250 1.0000
vt 0.0625 1.0000
vt 0.0625 0.9375
vt 0.1250 1.0000
vt 0.0625 1.0000
vt 0.0625 0.9375
vt 0.1250 0.9375
vt 0.1250 1.0000
vt 0.0625 1.0000
vt 0.0000 0.9375
vt 0.0625 1.0000
vt 0.0000 1.0000
vt 0.0000 0.9375
vt 0.0625 0.9375
vt 0.0625 1.0000
vt 0.0000 1.0000
vt 0.0625 1.0000
vt 0.0000 1.0000
vt 0.0625 0.9375
vt 0.1250 0.9375
vt 0.1250 1.0000
vt 0.0625 1.0000
vt 0.1250 0.9375
vt 0.1250 1.0000
vt 0.1250 1.0000
vt 0.0625 1.0000
vt 0.0625 0.9375
vt 0.1250 0.9375
vt 0.1250 1.0000
vt 0.0625 1.0000
vt 0.0625 0.9375
vt 0.1250 0.9375
vt 0.1250 1.0000
vt 0.0625 1.0000
vt 0.1250 1.0000
vt 0.0625 1.0000
vt 0.1250 0.9375
vt 0.1250 1.0000
vt 0.1250 1.0000
vt 0.0625 1.0000
vt 0.0625 0.9375
vt 0.1250 0.9375
vt 0.0625 0.9375
vt 0.0625 1.0000
vt 0.1250 0.9375
vt 0.0625 0.9375
vt 0.0625 0.9375
vt 0.1250 0.9375
vt 0.1250 0.9375
vt 0.0625 1.0000
vt 0.1250 1.0000
vt 0.0625 0.9375
vt 0.1250 0.9375
vt 0.1250 1.0000
vt 0.0625 1.0000
vt 0.1250 0.9375
vt 0.0625 0.9375
vt 0.0625 1.0000
vt 0.1250 1.0000
vt 0.0625 0.9375
vt 0.1250 0.9375
vt 0.0625 0.9375
vt 0.1250 0.9375
vt 0.1250 1.0000
vt 0.0625 1.0000
vt 0.1250 0.9375
vt 0.0625 0.9375
vt 0.0625 1.0000
vt 0.1250 1.0000
vt 0.0625 0.9375
vt 0.1250 0.9375
vt 0.1250 1.0000
vt 0.0625 1.0000
vt 0.0625 0.9375
vt 0.1250 0.9375
vt 0.1250 1.0000
vt 0.0625 1.0000
vt 0.0625 1.0000
vt 0.0000 1.0000
vt 0.0625 0.9375
vt 0.1250 0.9375
vt 0.0625 0.9375
vt 0.1250 0.9375
vt 0.1250 1.0000
vt 0.0625 0.9375
vt 0.0625 1.0000
vt 0.1250 1.0000
vt 0.0625 1.0000
vt 0.1250 0.9375
vt 0.0625 0.9375
vt 0.0625 0.9375
vt 0.0625 1.0000
vn 1.0000 0.0000 0.0000
vn 0.0000 0.0000 1.0000
vn 0.7071 -0.7071 -0.0000
vn 0.0000 0.0000 -1.0000
vn 0.0000 1.0000 0.0000
vn -1.0000 0.0000 0.0000
vn 0.0000 -1.0000 0.0000
vn 0.7071 0.7071 0.0000
vn -0.7071 -0.7071 -0.0000
vn -0.7071 0.7071 0.0000
usemtl m_0
s 1
f 178/62/15 180/63/15 179/64/15 177/65/15
f 72/66/16 66/67/16 65/68/16 71/69/16
f 104/70/16 98/71/16 97/72/16 103/73/16
f 58/74/17 60/75/17 59/76/17 57/77/17
f 128/78/16 122/79/16 121/80/16 127/81/16
f 44/82/18 46/83/18 45/84/18 43/85/18
f 111/86/19 105/87/19 107/88/19 109/89/19
f 182/90/20 184/91/20 183/92/20 181/93/20
f 168/94/16 162/95/16 161/96/16 167/97/16
f 34/98/15 36/99/15 35/100/15 33/101/15
f 112/102/16 106/103/16 105/104/16 111/105/16
f 142/106/21 140/107/21 138/108/21 144/109/21
f 84/110/18 86/111/18 85/112/18 83/113/18
f 119/114/19 113/115/19 115/116/19 117/117/19
f 150/118/21 148/119/21 146/120/21 152/121/21
f 76/122/18 78/123/18 77/124/18 75/125/18
f 40/126/16 34/127/16 33/128/16 39/129/16
f 142/106/20 144/130/20 143/131/20 141/132/20
f 162/133/17 164/134/17 163/135/17 161/136/17
f 114/137/15 116/138/15 115/139/15 113/140/15
f 144/141/16 138/142/16 137/143/16 143/144/16
f 30/145/20 32/146/20 31/147/20 29/148/20
f 146/149/15 148/119/15 147/150/15 145/151/15
f 46/152/21 44/153/21 42/154/21 48/155/21
f 134/156/21 132/157/21 130/158/21 136/159/21
f 167/160/22 161/161/22 163/135/22 165/162/22
f 50/163/22 52/164/22 51/165/22 49/166/22
f 56/167/16 50/168/16 49/169/16 55/170/16
f 54/171/23 56/172/23 55/173/23 53/174/23
f 82/175/22 84/176/22 83/177/22 81/178/22
f 63/179/22 57/180/22 59/76/22 61/181/22
f 166/182/23 164/134/23 162/183/23 168/184/23
f 66/185/22 68/186/22 67/187/22 65/188/22
f 86/189/23 88/190/23 87/191/23 85/192/23
f 170/193/15 172/194/15 171/195/15 169/196/15
f 116/197/18 118/198/18 117/199/18 115/200/18
f 183/201/19 177/202/19 179/64/19 181/93/19
f 79/203/22 73/204/22 75/205/22 77/206/22
f 71/207/24 65/208/24 67/187/24 69/209/24
f 74/210/17 76/211/17 75/205/17 73/212/17
f 28/213/18 30/214/18 29/215/18 27/216/18
f 60/217/18 62/218/18 61/219/18 59/220/18
f 166/182/24 168/221/24 167/222/24 165/162/24
f 158/223/23 156/224/23 154/225/23 160/226/23
f 94/227/24 96/228/24 95/229/24 93/230/24
f 70/231/17 68/186/17 66/232/17 72/233/17
f 118/234/20 120/235/20 119/236/20 117/237/20
f 102/238/20 104/239/20 103/240/20 101/241/20
f 94/227/23 92/242/23 90/243/23 96/244/23
f 158/223/24 160/245/24 159/246/24 157/247/24
f 90/248/17 92/242/17 91/249/17 89/250/17
f 86/189/17 84/176/17 82/251/17 88/252/17
f 164/253/18 166/254/18 165/255/18 163/256/18
f 110/257/20 112/258/20 111/259/20 109/89/20
f 140/260/18 142/261/18 141/262/18 139/263/18
f 174/264/20 176/265/20 175/266/20 173/267/20
f 122/268/15 124/269/15 123/270/15 121/271/15
f 175/272/19 169/273/19 171/195/19 173/267/19
f 126/274/20 128/275/20 127/276/20 125/277/20
f 160/278/16 154/279/16 153/280/16 159/281/16
f 143/282/19 137/283/19 139/284/19 141/285/19
f 32/286/16 26/287/16 25/288/16 31/289/16
f 42/290/15 44/153/15 43/291/15 41/292/15
f 136/293/16 130/294/16 129/295/16 135/296/16
f 30/145/21 28/297/21 26/298/21 32/299/21
f 106/300/15 108/301/15 107/88/15 105/302/15
f 98/303/15 100/304/15 99/305/15 97/306/15
f 46/152/20 48/307/20 47/308/20 45/309/20
f 108/310/18 110/311/18 109/312/18 107/313/18
f 80/314/16 74/315/16 73/316/16 79/317/16
f 135/318/19 129/319/19 131/320/19 133/321/19
f 172/322/18 174/323/18 173/324/18 171/325/18
f 127/326/19 121/327/19 123/328/19 125/329/19
f 132/330/18 134/331/18 133/332/18 131/333/18
f 184/334/16 178/335/16 177/336/16 183/337/16
f 124/338/18 126/339/18 125/340/18 123/341/18
f 62/342/23 60/75/23 58/343/23 64/344/23
f 38/345/20 40/346/20 39/347/20 37/348/20
f 100/349/18 102/350/18 101/351/18 99/352/18
f 148/353/18 150/354/18 149/355/18 147/356/18
f 130/357/15 132/157/15 131/358/15 129/359/15
f 134/156/20 136/360/20 135/361/20 133/362/20
f 151/363/19 145/364/19 147/150/19 149/365/19
f 96/366/16 90/367/16 89/368/16 95/369/16
f 88/370/16 82/371/16 81/372/16 87/373/16
f 68/374/18 70/375/18 69/376/18 67/377/18
f 54/171/17 52/164/17 50/378/17 56/379/17
f 26/380/15 28/297/15 27/381/15 25/382/15
f 152/383/16 146/384/16 145/385/16 151/386/16
f 138/387/15 140/107/15 139/388/15 137/389/15
f 120/390/16 114/391/16 113/392/16 119/393/16
f 126/274/21 124/269/21 122/394/21 128/395/21
f 36/396/18 38/397/18 37/398/18 35/399/18
f 150/118/20 152/400/20 151/401/20 149/365/20
f 102/238/21 100/304/21 98/402/21 104/403/21
f 180/404/18 182/405/18 181/406/18 179/407/18
f 156/408/18 158/409/18 157/410/18 155/411/18
f 182/90/21 180/63/21 178/412/21 184/413/21
f 70/231/23 72/414/23 71/415/23 69/209/23
f 110/257/21 108/301/21 106/416/21 112/417/21
f 95/418/22 89/419/22 91/249/22 93/230/22
f 62/342/24 64/420/24 63/421/24 61/181/24
f 87/422/24 81/423/24 83/177/24 85/192/24
f 55/424/24 49/425/24 51/165/24 53/174/24
f 78/426/23 76/211/23 74/427/23 80/428/23
f 176/429/16 170/430/16 169/431/16 175/432/16
f 64/433/16 58/434/16 57/435/16 63/436/16
f 39/437/19 33/438/19 35/100/19 37/348/19
f 52/439/18 54/440/18 53/441/18 51/442/18
f 48/443/16 42/444/16 41/445/16 47/446/16
f 92/447/18 94/448/18 93/449/18 91/450/18
f 103/451/19 97/452/19 99/305/19 101/241/19
f 38/345/21 36/99/21 34/453/21 40/454/21
f 118/234/21 116/138/21 114/455/21 120/456/21
f 31/457/19 25/458/19 27/381/19 29/148/19
f 159/459/22 153/460/22 155/461/22 157/247/22
f 154/462/17 156/224/17 155/461/17 153/463/17
f 174/264/21 172/194/21 170/464/21 176/465/21
f 47/466/19 41/467/19 43/291/19 45/309/19
f 78/426/24 80/468/24 79/469/24 77/206/24
