# Blender v2.78 (sub 0) OBJ File: ''
# www.blender.org
mtllib v6insolvoauto.mtl
o cube
v -0.321500 0.149116 0.000409
v -0.136493 0.266979 0.000409
v -0.136493 0.266979 0.621932
v -0.321500 0.149116 0.621932
v -0.394479 0.297694 0.018689
v -0.240307 0.395912 0.018689
v -0.240307 0.395912 0.201490
v -0.394479 0.297694 0.201490
v -0.394479 0.297694 0.219770
v -0.394479 0.297694 0.402571
v -0.443589 0.374780 0.402571
v -0.443589 0.374780 0.219770
v -0.122226 -0.156007 0.000409
v -0.122226 -0.156007 0.621932
v -0.329041 0.050809 0.621932
v -0.329041 0.050809 0.000409
v 0.240307 0.395912 0.420851
v 0.394479 0.297694 0.420851
v 0.394479 0.297694 0.603652
v 0.240307 0.395912 0.603652
v -0.240307 0.395912 0.219770
v -0.240307 0.395912 0.402571
v 0.136493 0.266979 0.000409
v 0.321500 0.149116 0.000409
v 0.321500 0.149116 0.621932
v 0.136493 0.266979 0.621932
v 0.394479 0.297694 0.201490
v 0.394479 0.297694 0.018689
v 0.443589 0.374780 0.018689
v 0.443589 0.374780 0.201490
v 0.394479 0.297694 0.402571
v 0.394479 0.297694 0.219770
v 0.443589 0.374780 0.219770
v 0.443589 0.374780 0.402571
v 0.224890 0.405734 0.000409
v 0.409897 0.287872 0.000409
v -0.173930 0.205920 0.621932
v -0.173930 0.205920 0.000409
v -0.005735 -0.156007 0.621932
v 0.122226 -0.156007 0.621932
v 0.122226 0.191315 0.621932
v -0.005735 0.191315 0.621932
v -0.443589 0.374780 0.018689
v -0.289416 0.472999 0.018689
v -0.240307 0.395912 0.420851
v -0.394479 0.297694 0.420851
v -0.443589 0.374780 0.420851
v -0.289416 0.472999 0.420851
v 0.289416 0.472999 0.420851
v 0.443589 0.374780 0.420851
v 0.032886 -0.000895 0.000409
v -0.122226 -0.156007 0.000409
v -0.122226 -0.156007 0.621932
v -0.122226 0.191315 0.621932
v -0.122226 0.191315 0.000409
v 0.122226 -0.156007 0.000409
v -0.005735 -0.156007 0.000409
v -0.005735 0.191315 0.000409
v 0.122226 0.191315 0.000409
v 0.122226 -0.156007 0.621932
v 0.122226 -0.156007 0.000409
v 0.329041 0.050809 0.000409
v 0.329041 0.050809 0.621932
v -0.409897 0.287872 0.000409
v -0.224890 0.405734 0.000409
v 0.240307 0.395912 0.219770
v 0.289416 0.472999 0.219770
v -0.032886 -0.000895 0.000409
v -0.032886 -0.000895 0.621932
v -0.289416 0.472999 0.219770
v -0.289416 0.472999 0.402571
v 0.173930 0.205920 0.621932
v 0.173930 0.205920 0.000409
v 0.005735 0.191315 0.621932
v 0.005735 0.191315 0.000409
v 0.409897 0.287872 0.621932
v 0.224890 0.405734 0.621932
v -0.289416 0.472999 0.201490
v -0.443589 0.374780 0.201490
v -0.329041 0.050809 0.000409
v 0.329041 0.050809 0.000409
v 0.329041 0.050809 0.621932
v -0.329041 0.050809 0.621932
v 0.005735 -0.156007 0.621932
v 0.032886 -0.000895 0.621932
v -0.224890 0.405734 0.621932
v -0.409897 0.287872 0.621932
v -0.394479 0.297694 0.603652
v -0.240307 0.395912 0.603652
v -0.289416 0.472999 0.603652
v -0.443589 0.374780 0.603652
v 0.240307 0.395912 0.201490
v 0.289416 0.472999 0.201490
v 0.240307 0.395912 0.402571
v 0.289416 0.472999 0.402571
v -0.329041 0.289544 0.000409
v 0.329041 0.289544 0.000409
v 0.005735 -0.156007 0.000409
v 0.443589 0.374780 0.603652
v 0.289416 0.472999 0.603652
v 0.240307 0.395912 0.018689
v -0.329041 0.289544 0.621932
v 0.329041 0.289544 0.621932
v 0.289416 0.472999 0.018689
vt 0.1250 0.9375
vt 0.0625 0.9375
vt 0.0625 1.0000
vt 0.1250 1.0000
vt 0.0625 0.9375
vt 0.0000 0.9375
vt 0.0000 1.0000
vt 0.0625 1.0000
vt 0.0625 0.9375
vt 0.0000 0.9375
vt 0.0000 1.0000
vt 0.0625 1.0000
vt 0.1250 0.9375
vt 0.0625 0.9375
vt 0.0625 1.0000
vt 0.1250 1.0000
vt 0.0000 0.9375
vt 0.0625 0.9375
vt 0.0625 1.0000
vt 0.0000 1.0000
vt 0.0000 0.9375
vt 0.0000 1.0000
vt 0.0625 1.0000
vt 0.0625 0.9375
vt 0.1250 0.9375
vt 0.1250 1.0000
vt 0.0625 1.0000
vt 0.0000 0.9375
vt 0.0625 0.9375
vt 0.0625 1.0000
vt 0.0000 1.0000
vt 0.0000 0.9375
vt 0.0625 0.9375
vt 0.0625 1.0000
vt 0.0000 1.0000
vt 0.0625 0.9375
vt 0.1250 0.9375
vt 0.1250 1.0000
vt 0.0625 1.0000
vt 0.1250 0.9375
vt 0.0625 0.9375
vt 0.0625 1.0000
vt 0.0625 0.9375
vt 0.1250 0.9375
vt 0.1250 1.0000
vt 0.0625 1.0000
vt 0.0625 0.9375
vt 0.0000 0.9375
vt 0.0000 1.0000
vt 0.0625 1.0000
vt 0.0625 0.9375
vt 0.0000 0.9375
vt 0.0000 1.0000
vt 0.0625 1.0000
vt 0.0000 0.9375
vt 0.0625 0.9375
vt 0.0625 1.0000
vt 0.0000 1.0000
vt 0.1250 0.9375
vt 0.0625 0.9375
vt 0.0625 1.0000
vt 0.1250 1.0000
vt 0.0625 0.9375
vt 0.1250 0.9375
vt 0.1250 1.0000
vt 0.0625 1.0000
vt 0.0625 0.9375
vt 0.1250 0.9375
vt 0.1250 1.0000
vt 0.0625 1.0000
vt 0.0625 0.9375
vt 0.1250 0.9375
vt 0.1250 1.0000
vt 0.0625 1.0000
vt 0.1250 0.9375
vt 0.0625 0.9375
vt 0.0625 1.0000
vt 0.1250 1.0000
vt 0.0000 0.9375
vt 0.0625 0.9375
vt 0.0625 1.0000
vt 0.0000 1.0000
vt 0.0625 0.9375
vt 0.1250 1.0000
vt 0.0625 1.0000
vt 0.0625 0.9375
vt 0.0000 1.0000
vt 0.0625 1.0000
vt 0.0625 0.9375
vt 0.1250 0.9375
vt 0.0625 1.0000
vt 0.0625 0.9375
vt 0.1250 0.9375
vt 0.1250 1.0000
vt 0.0625 0.9375
vt 0.1250 0.9375
vt 0.1250 1.0000
vt 0.0625 1.0000
vt 0.0625 0.9375
vt 0.0000 0.9375
vt 0.0000 1.0000
vt 0.0625 1.0000
vt 0.0625 0.9375
vt 0.1250 0.9375
vt 0.1250 1.0000
vt 0.0625 1.0000
vt 1.0000 0.6875
vt 0.6875 0.6875
vt 0.6875 1.0000
vt 1.0000 1.0000
vt 0.0625 0.9375
vt 0.1250 0.9375
vt 0.1250 1.0000
vt 0.0625 1.0000
vt 0.0625 0.9375
vt 0.1250 0.9375
vt 0.1250 1.0000
vt 0.0625 1.0000
vt 1.0000 0.6875
vt 0.6875 0.6875
vt 0.6875 1.0000
vt 1.0000 1.0000
vt 0.0625 0.9375
vt 0.1250 0.9375
vt 0.1250 1.0000
vt 0.0625 1.0000
vt 0.1250 0.9375
vt 0.0625 0.9375
vt 0.0625 1.0000
vt 0.1250 1.0000
vt 0.0625 0.9375
vt 0.0000 1.0000
vt 0.0625 1.0000
vt 0.1250 0.9375
vt 0.0625 0.9375
vt 0.1250 1.0000
vt 0.1250 0.9375
vt 0.0625 0.9375
vt 0.0625 1.0000
vt 0.1250 1.0000
vt 0.0625 0.9375
vt 0.0000 0.9375
vt 0.0000 1.0000
vt 0.0625 1.0000
vt 0.0000 0.9375
vt 0.0625 0.9375
vt 0.0625 1.0000
vt 0.0000 1.0000
vt 0.0625 0.9375
vt 0.1250 0.9375
vt 0.1250 1.0000
vt 0.0625 1.0000
vt 0.0000 0.9375
vt 0.0625 0.9375
vt 0.0625 1.0000
vt 0.0000 1.0000
vt 0.0625 0.9375
vt 0.0000 0.9375
vt 0.0000 1.0000
vt 0.0625 1.0000
vt 0.0000 0.9375
vt 0.0625 1.0000
vt 0.0000 1.0000
vt 0.0625 0.9375
vt 0.1250 0.9375
vt 0.1250 1.0000
vt 0.0625 1.0000
vt 0.0000 0.9375
vt 0.0000 1.0000
vt 0.0625 1.0000
vt 0.1250 0.9375
vt 0.1250 1.0000
vt 0.0625 1.0000
vt 0.0625 0.9375
vt 0.0625 1.0000
vt 0.0000 1.0000
vt 0.0000 0.9375
vt 0.0625 0.9375
vt 0.0625 1.0000
vt 0.0000 1.0000
vt 0.1250 0.9375
vt 0.0625 0.9375
vt 0.0625 1.0000
vt 0.1250 1.0000
vt 0.6875 0.6875
vt 1.0000 0.6875
vt 1.0000 1.0000
vt 0.6875 1.0000
vt 0.0000 0.9375
vt 0.0625 1.0000
vt 0.0000 1.0000
vt 0.1250 0.9375
vt 0.1250 1.0000
vt 0.0625 1.0000
vt 0.0625 0.9375
vt 0.1250 0.9375
vt 0.1250 1.0000
vt 0.0625 1.0000
vt 0.1250 1.0000
vt 0.0625 1.0000
vt 0.1250 0.9375
vt 0.1250 1.0000
vt 0.0625 1.0000
vt 0.0625 1.0000
vt 0.1250 1.0000
vt 0.0000 0.9375
vt 0.0625 1.0000
vt 0.0000 1.0000
vt 0.6875 0.6875
vt 1.0000 0.6875
vt 1.0000 1.0000
vt 0.6875 1.0000
vt 0.0625 0.9375
vt 0.1250 0.9375
vt 0.1250 1.0000
vt 0.0625 0.9375
vt 0.0000 0.9375
vt 0.0000 1.0000
vt 0.0625 1.0000
vt 0.1250 0.9375
vt 0.1250 1.0000
vt 0.0625 0.9375
vt 0.1250 0.9375
vt 0.0625 0.9375
vt 0.0000 1.0000
vt 0.0625 1.0000
vt 0.0000 0.9375
vt 0.0625 0.9375
vt 0.0625 1.0000
vt 0.0000 1.0000
vt 0.0625 0.9375
vt 0.0625 1.0000
vt 0.0000 1.0000
vt 0.1250 0.9375
vt 0.1250 1.0000
vt 0.0625 0.9375
vt 0.0000 0.9375
vt 0.0000 1.0000
vt 0.0625 1.0000
vt 0.0625 0.9375
vt 0.1250 0.9375
vt 0.1250 1.0000
vt 0.0625 1.0000
vt 0.0625 0.9375
vt 0.1250 1.0000
vt 0.0625 1.0000
vt 0.0625 0.9375
vt 0.0625 1.0000
vt 0.0625 0.9375
vt 0.0625 1.0000
vt 0.0000 0.9375
vt 0.0000 1.0000
vt 0.0625 1.0000
vt 1.0000 0.6875
vt 0.6875 0.6875
vt 0.6875 1.0000
vt 1.0000 1.0000
vt 0.0625 0.9375
vt 0.0625 1.0000
vt 0.0000 1.0000
vt 0.0625 0.9375
vt 0.1250 0.9375
vt 0.0625 0.9375
vt 0.1250 0.9375
vt 0.1250 1.0000
vt 0.0625 1.0000
vt 0.6875 0.6875
vt 1.0000 0.6875
vt 1.0000 1.0000
vt 0.6875 1.0000
vt 0.0625 0.9375
vt 0.0625 1.0000
vn 0.5373 -0.8434 -0.0000
vn -0.8434 -0.5373 -0.0000
vn -0.7071 -0.7071 -0.0000
vn -0.5373 -0.8434 0.0000
vn 0.8434 -0.5373 0.0000
vn -0.0000 0.0000 -1.0000
vn -0.7071 0.7071 0.0000
vn 0.0000 0.0000 1.0000
vn -1.0000 0.0000 0.0000
vn 0.7071 -0.7071 -0.0000
vn 0.8434 0.5373 0.0000
vn 0.7071 0.7071 0.0000
vn 0.0000 1.0000 0.0000
vn 0.0000 -1.0000 -0.0000
vn -0.5373 0.8434 0.0000
vn 1.0000 0.0000 0.0000
vn -0.8434 0.5373 0.0000
vn 0.5373 0.8434 0.0000
usemtl m_0
s 1
f 1/1/1 2/2/1 3/3/1 4/4/1
f 5/5/1 6/6/1 7/7/1 8/8/1
f 9/9/2 10/10/2 11/11/2 12/12/2
f 13/13/3 14/14/3 15/15/3 16/16/3
f 17/17/4 18/18/4 19/19/4 20/20/4
f 9/9/1 21/21/1 22/22/1 10/23/1
f 23/24/4 24/25/4 25/26/4 26/27/4
f 27/28/5 28/29/5 29/30/5 30/31/5
f 31/32/5 32/33/5 33/34/5 34/35/5
f 24/36/6 23/37/6 35/38/6 36/39/6
f 15/40/7 37/41/7 38/42/7 16/16/7
f 39/43/8 40/44/8 41/45/8 42/46/8
f 6/47/6 5/48/6 43/49/6 44/50/6
f 45/51/6 46/52/6 47/53/6 48/54/6
f 18/55/6 17/56/6 49/57/6 50/58/6
f 51/59/6 13/60/6 16/61/6 38/62/6
f 52/63/9 53/64/9 54/65/9 55/66/9
f 56/67/6 57/68/6 58/69/6 59/70/6
f 60/71/10 61/72/10 62/73/10 63/74/10
f 2/75/6 1/76/6 64/77/6 65/78/6
f 32/79/6 66/80/6 67/81/6 33/82/6
f 68/83/3 61/72/3 60/84/3 69/85/3
f 22/86/11 21/21/11 70/87/11 71/88/11
f 72/89/12 63/90/12 62/73/12 73/91/12
f 54/92/13 74/93/13 75/94/13 55/66/13
f 26/95/8 25/96/8 76/97/8 77/98/8
f 8/99/8 7/100/8 78/101/8 79/102/8
f 80/103/14 81/104/14 82/105/14 83/106/14
f 79/107/15 78/108/15 44/109/15 43/110/15
f 69/111/8 60/112/8 63/113/8 72/114/8
f 40/115/16 56/116/16 59/117/16 41/118/16
f 11/119/15 71/120/15 70/121/15 12/122/15
f 53/123/8 84/124/8 74/125/8 54/126/8
f 14/127/8 85/128/8 37/129/8 15/130/8
f 7/131/11 6/6/11 44/132/11 78/133/11
f 85/134/12 51/135/12 38/42/12 37/136/12
f 4/137/8 3/138/8 86/139/8 87/140/8
f 88/141/8 89/142/8 90/143/8 91/144/8
f 92/145/8 27/146/8 30/147/8 93/148/8
f 57/149/9 39/150/9 42/151/9 58/152/9
f 94/153/8 31/154/8 34/155/8 95/156/8
f 10/157/8 22/158/8 71/159/8 11/160/8
f 66/161/4 32/33/4 31/162/4 94/163/4
f 81/164/6 80/165/6 96/166/6 97/167/6
f 5/5/2 8/168/2 79/169/2 43/170/2
f 52/63/14 98/171/14 84/172/14 53/173/14
f 66/161/17 94/174/17 95/175/17 67/176/17
f 20/177/8 19/178/8 99/179/8 100/180/8
f 87/181/15 86/182/15 65/183/15 64/184/15
f 95/185/18 34/186/18 33/187/18 67/188/18
f 101/189/4 28/29/4 27/190/4 92/191/4
f 80/103/9 83/192/9 102/193/9 96/194/9
f 98/195/6 52/196/6 55/197/6 75/198/6
f 57/149/14 56/116/14 40/199/14 39/200/14
f 23/24/17 26/201/17 77/202/17 35/203/17
f 13/13/10 51/135/10 85/204/10 14/205/10
f 19/206/5 18/18/5 50/207/5 99/208/5
f 100/209/18 99/210/18 50/211/18 49/212/18
f 102/213/13 103/214/13 97/215/13 96/194/13
f 46/216/1 45/217/1 89/218/1 88/219/1
f 68/83/7 69/220/7 72/221/7 73/91/7
f 42/222/13 41/223/13 59/117/13 58/152/13
f 89/224/11 45/217/11 48/225/11 90/226/11
f 28/227/6 101/228/6 104/229/6 29/230/6
f 17/17/17 20/231/17 100/232/17 49/233/17
f 3/234/11 2/2/11 65/183/11 86/235/11
f 21/236/6 9/237/6 12/238/6 70/239/6
f 83/240/8 82/241/8 103/242/8 102/243/8
f 25/244/5 24/25/5 36/245/5 76/246/5
f 84/247/16 98/171/16 75/94/16 74/248/16
f 82/249/16 81/104/16 97/215/16 103/250/16
f 46/216/2 88/251/2 91/252/2 47/253/2
f 91/254/15 90/255/15 48/256/15 47/257/15
f 101/189/17 92/258/17 93/259/17 104/260/17
f 77/261/18 76/262/18 36/245/18 35/203/18
f 61/263/6 68/264/6 73/265/6 62/266/6
f 93/267/18 30/268/18 29/269/18 104/270/18
f 1/1/2 4/271/2 87/272/2 64/184/2
