# Blender v2.78 (sub 0) OBJ File: ''
# www.blender.org
mtllib v6insolvoboxerauto.mtl
o cube
v 0.304864 -0.000000 0.546875
v 0.164239 -0.000000 0.546875
v 0.304864 -0.000000 -0.000000
v 0.164239 -0.000000 -0.000000
v 0.304864 0.187500 0.000000
v 0.164239 0.187500 0.000000
v 0.304864 0.187500 0.546875
v 0.164239 0.187500 0.546875
v -0.304864 0.187500 0.546875
v -0.164239 0.187500 0.546875
v -0.304864 0.187500 0.000000
v -0.164239 0.187500 0.000000
v -0.304864 -0.000000 -0.000000
v -0.164239 -0.000000 -0.000000
v -0.304864 -0.000000 0.546875
v -0.164239 -0.000000 0.546875
v 0.265625 0.078125 0.546875
v 0.265625 0.031250 0.546875
v 0.265625 0.078125 0.000000
v 0.265625 0.031250 0.000000
v -0.265625 0.078125 0.000000
v -0.265625 0.031250 0.000000
v -0.265625 0.078125 0.546875
v -0.265625 0.031250 0.546875
v -0.133042 0.163832 0.546875
v 0.043734 -0.012944 0.546875
v -0.133042 0.163833 0.000000
v 0.043734 -0.012944 -0.000000
v -0.265625 0.031250 0.000000
v -0.088848 -0.145527 -0.000000
v -0.265625 0.031250 0.546875
v -0.088848 -0.145527 0.546875
v 0.012484 0.137944 0.546875
v -0.164292 -0.038833 0.546875
v 0.012484 0.137944 0.000000
v -0.164292 -0.038833 -0.000000
v -0.120098 0.270527 0.000000
v -0.296875 0.093750 0.000000
v -0.120098 0.270527 0.546875
v -0.296875 0.093750 0.546875
v 0.265625 0.031250 0.546875
v 0.088848 -0.145527 0.546875
v 0.265625 0.031250 0.000000
v 0.088848 -0.145527 -0.000000
v 0.133042 0.163833 0.000000
v -0.043734 -0.012944 -0.000000
v 0.133042 0.163832 0.546875
v -0.043734 -0.012944 0.546875
v 0.120098 0.270527 0.546875
v 0.296875 0.093750 0.546875
v 0.120098 0.270527 0.000000
v 0.296875 0.093750 0.000000
v -0.012484 0.137944 0.000000
v 0.164292 -0.038833 -0.000000
v -0.012484 0.137944 0.546875
v 0.164292 -0.038833 0.546875
v 0.088848 0.151348 0.546875
v 0.088848 -0.145527 0.546875
v 0.088848 0.151348 0.000000
v 0.088848 -0.145527 -0.000000
v -0.012714 0.151348 0.000000
v -0.012714 -0.145527 -0.000000
v -0.012714 0.151348 0.546875
v -0.012714 -0.145527 0.546875
v 0.120098 0.270527 0.546875
v 0.120098 -0.026348 0.546875
v 0.120098 0.270527 0.000000
v 0.120098 -0.026348 -0.000000
v -0.012714 0.270527 0.000000
v -0.012714 -0.026348 -0.000000
v -0.012714 0.270527 0.546875
v -0.012714 -0.026348 0.546875
v 0.012714 0.151348 0.546875
v 0.012714 -0.145527 0.546875
v 0.012714 0.151348 0.000000
v 0.012714 -0.145527 -0.000000
v -0.088848 0.151348 0.000000
v -0.088848 -0.145527 -0.000000
v -0.088848 0.151348 0.546875
v -0.088848 -0.145527 0.546875
v 0.012714 0.270527 0.546875
v 0.012714 -0.026348 0.546875
v 0.012714 0.270527 0.000000
v 0.012714 -0.026348 -0.000000
v -0.120098 0.270527 0.000000
v -0.120098 -0.026348 -0.000000
v -0.120098 0.270527 0.546875
v -0.120098 -0.026348 0.546875
v 0.382989 0.015625 0.179688
v 0.304864 0.015625 0.179688
v 0.382989 0.015625 0.023438
v 0.304864 0.015625 0.023438
v 0.382989 0.171875 0.023438
v 0.304864 0.171875 0.023438
v 0.382989 0.171875 0.179688
v 0.304864 0.171875 0.179688
v 0.382989 0.015625 0.351562
v 0.304864 0.015625 0.351562
v 0.382989 0.015625 0.195312
v 0.304864 0.015625 0.195312
v 0.382989 0.171875 0.195313
v 0.304864 0.171875 0.195313
v 0.382989 0.171875 0.351562
v 0.304864 0.171875 0.351562
v 0.382989 0.015625 0.523438
v 0.304864 0.015625 0.523438
v 0.382989 0.015625 0.367188
v 0.304864 0.015625 0.367188
v 0.382989 0.171875 0.367188
v 0.304864 0.171875 0.367188
v 0.382989 0.171875 0.523438
v 0.304864 0.171875 0.523438
v -0.382989 0.171875 0.351562
v -0.304864 0.171875 0.351562
v -0.382989 0.171875 0.195313
v -0.304864 0.171875 0.195313
v -0.382989 0.015625 0.195312
v -0.304864 0.015625 0.195312
v -0.382989 0.015625 0.351562
v -0.304864 0.015625 0.351562
v -0.382989 0.171875 0.179688
v -0.304864 0.171875 0.179688
v -0.382989 0.171875 0.023438
v -0.304864 0.171875 0.023438
v -0.382989 0.015625 0.023438
v -0.304864 0.015625 0.023438
v -0.382989 0.015625 0.179688
v -0.304864 0.015625 0.179688
v -0.382989 0.171875 0.523438
v -0.304864 0.171875 0.523438
v -0.382989 0.171875 0.367188
v -0.304864 0.171875 0.367188
v -0.382989 0.015625 0.367188
v -0.304864 0.015625 0.367188
v -0.382989 0.015625 0.523438
v -0.304864 0.015625 0.523438
vt 0.0625 0.9375
vt 0.0000 0.9375
vt 0.0000 1.0000
vt 0.0625 1.0000
vt 0.1250 0.9375
vt 0.0625 0.9375
vt 0.0625 1.0000
vt 0.1250 1.0000
vt 0.1250 0.9375
vt 0.0625 0.9375
vt 0.0625 1.0000
vt 0.1250 1.0000
vt 0.0000 0.9375
vt 0.0625 0.9375
vt 0.0625 1.0000
vt 0.0000 1.0000
vt 0.0625 0.9375
vt 0.0000 0.9375
vt 0.0000 1.0000
vt 0.0625 1.0000
vt 0.1250 0.9375
vt 0.0625 0.9375
vt 0.0625 1.0000
vt 0.1250 1.0000
vt 0.0625 0.9375
vt 0.1250 0.9375
vt 0.1250 1.0000
vt 0.0625 1.0000
vt 0.6875 0.6875
vt 1.0000 0.6875
vt 1.0000 1.0000
vt 0.6875 1.0000
vt 0.0625 1.0000
vt 0.1250 1.0000
vt 0.1250 0.9375
vt 0.0625 0.9375
vt 0.0000 0.9375
vt 0.0000 1.0000
vt 0.0625 1.0000
vt 0.0625 0.9375
vt 0.1250 0.9375
vt 0.1250 1.0000
vt 0.0625 1.0000
vt 0.6875 0.6875
vt 1.0000 0.6875
vt 1.0000 1.0000
vt 0.6875 1.0000
vt 0.0625 0.9375
vt 0.1250 0.9375
vt 0.1250 1.0000
vt 0.0625 1.0000
vt 0.0625 0.9375
vt 0.1250 0.9375
vt 0.1250 1.0000
vt 0.0625 1.0000
vt 0.0625 1.0000
vt 0.1250 1.0000
vt 0.1250 0.9375
vt 0.0625 0.9375
vt 0.0625 1.0000
vt 0.1250 1.0000
vt 0.1250 0.9375
vt 0.0625 0.9375
vt 0.0625 0.9375
vt 0.1250 0.9375
vt 0.1250 1.0000
vt 0.0625 1.0000
vt 0.0000 0.9375
vt 0.0625 0.9375
vt 0.0625 1.0000
vt 0.0000 1.0000
vt 0.0625 0.9375
vt 0.0000 0.9375
vt 0.0000 1.0000
vt 0.0625 1.0000
vt 0.0625 0.9375
vt 0.1250 0.9375
vt 0.1250 1.0000
vt 0.0625 1.0000
vt 0.0625 1.0000
vt 0.1250 1.0000
vt 0.1250 0.9375
vt 0.0625 0.9375
vt 0.1250 1.0000
vt 0.1250 0.9375
vt 0.0625 0.9375
vt 0.0625 0.9375
vt 0.1250 0.9375
vt 0.1250 1.0000
vt 0.0625 1.0000
vt 0.0625 1.0000
vt 0.1250 1.0000
vt 0.1250 0.9375
vt 0.0625 0.9375
vt 0.0625 1.0000
vt 0.1250 0.9375
vt 0.0625 0.9375
vt 0.0625 0.9375
vt 0.1250 0.9375
vt 0.1250 1.0000
vt 0.0625 1.0000
vt 0.0625 0.9375
vt 0.0625 1.0000
vt 0.0625 0.9375
vt 0.0000 0.9375
vt 0.0000 1.0000
vt 0.0625 1.0000
vt 0.1250 1.0000
vt 0.0625 1.0000
vt 0.0625 0.9375
vt 0.1250 0.9375
vt 0.0625 1.0000
vt 0.1250 1.0000
vt 0.0625 0.9375
vt 0.0000 0.9375
vt 0.0000 1.0000
vt 0.0625 1.0000
vt 0.1250 1.0000
vt 0.0625 1.0000
vt 0.0625 0.9375
vt 0.1250 0.9375
vt 0.1250 1.0000
vt 0.0625 0.9375
vt 0.1250 0.9375
vt 0.0625 0.9375
vt 0.0000 1.0000
vt 0.0625 1.0000
vt 0.0625 0.9375
vt 0.0000 0.9375
vt 0.0000 1.0000
vt 0.0625 1.0000
vt 1.0000 0.6875
vt 0.6875 0.6875
vt 0.6875 1.0000
vt 1.0000 1.0000
vt 0.1250 0.9375
vt 0.0625 0.9375
vt 0.0625 1.0000
vt 0.1250 1.0000
vt 0.0625 0.9375
vt 0.0625 1.0000
vt 0.1250 1.0000
vt 0.1250 0.9375
vt 0.0625 0.9375
vt 0.0625 1.0000
vt 1.0000 0.6875
vt 0.6875 0.6875
vt 0.6875 1.0000
vt 1.0000 1.0000
vt 0.0625 0.9375
vt 0.1250 0.9375
vt 0.1250 1.0000
vt 0.0625 1.0000
vt 0.1250 1.0000
vt 0.1250 0.9375
vt 0.0625 0.9375
vt 0.0625 0.9375
vt 0.1250 0.9375
vt 0.0625 0.9375
vt 0.0625 1.0000
vt 0.0000 1.0000
vt 0.0625 0.9375
vt 0.1250 0.9375
vt 0.1250 1.0000
vt 0.0625 1.0000
vt 0.1250 1.0000
vt 0.0625 1.0000
vt 0.1250 0.9375
vt 0.1250 1.0000
vt 0.0625 1.0000
vt 0.0000 0.9375
vt 0.0625 0.9375
vt 0.0625 1.0000
vt 0.0000 1.0000
vt 0.0000 0.9375
vt 0.0625 0.9375
vt 0.0625 1.0000
vt 0.0000 1.0000
vt 0.0625 0.9375
vt 0.1250 0.9375
vt 0.1250 1.0000
vt 0.0000 0.9375
vt 0.0625 0.9375
vt 0.0625 1.0000
vt 0.0000 1.0000
vt 0.0625 0.9375
vt 0.0000 0.9375
vt 0.0000 1.0000
vt 0.0625 1.0000
vt 0.1250 0.9375
vt 0.1250 1.0000
vt 0.0625 1.0000
vt 0.1250 0.9375
vt 0.0625 0.9375
vt 0.0625 0.9375
vt 0.1250 1.0000
vt 0.0625 1.0000
vt 0.0625 1.0000
vt 0.1250 1.0000
vt 0.0625 0.9375
vt 0.0625 0.9375
vt 0.0000 0.9375
vt 0.0000 1.0000
vt 0.0625 1.0000
vt 0.0625 0.9375
vt 0.1250 0.9375
vt 0.1250 1.0000
vt 0.0625 1.0000
vt 0.0000 1.0000
vt 0.0625 1.0000
vt 0.0625 0.9375
vt 0.1250 0.9375
vt 0.0625 1.0000
vt 0.0000 0.9375
vt 0.0625 1.0000
vt 0.0000 1.0000
vt 0.0625 0.9375
vt 0.1250 1.0000
vt 0.0625 1.0000
vt 0.0625 0.9375
vt 0.1250 0.9375
vt 0.1250 1.0000
vt 0.0625 1.0000
vt 0.1250 0.9375
vt 0.0625 0.9375
vt 0.0625 1.0000
vt 0.1250 1.0000
vt 0.0625 0.9375
vt 0.1250 0.9375
vt 0.0625 1.0000
vt 0.1250 1.0000
vt 0.0625 1.0000
vt 0.0625 1.0000
vt 0.1250 1.0000
vt 0.1250 0.9375
vt 0.0625 0.9375
vt 0.0625 0.9375
vt 0.0625 1.0000
vt 0.0000 1.0000
vt 0.1250 1.0000
vt 0.0625 1.0000
vt 0.0625 0.9375
vt 0.1250 0.9375
vt 0.0625 1.0000
vt 0.1250 1.0000
vt 0.1250 0.9375
vt 0.0625 0.9375
vt 1.0000 0.6875
vt 0.6875 0.6875
vt 0.6875 1.0000
vt 1.0000 1.0000
vt 0.0625 0.9375
vt 0.0000 0.9375
vt 0.0000 1.0000
vt 0.0625 1.0000
vt 0.0000 0.9375
vt 0.0625 0.9375
vt 0.0625 1.0000
vt 0.0000 1.0000
vt 0.0000 0.9375
vt 0.0625 0.9375
vt 0.0625 1.0000
vt 0.0000 1.0000
vt 0.0625 0.9375
vt 0.1250 0.9375
vt 0.1250 1.0000
vt 0.0625 1.0000
vt 0.0625 0.9375
vt 0.1250 0.9375
vt 0.1250 1.0000
vt 0.0625 1.0000
vt 0.0625 0.9375
vt 0.1250 0.9375
vt 0.1250 1.0000
vt 0.0625 1.0000
vt 0.0000 0.9375
vt 0.0625 0.9375
vt 0.0625 1.0000
vt 0.0000 1.0000
vt 0.0000 0.9375
vt 0.0625 0.9375
vt 0.0625 1.0000
vt 0.0000 1.0000
vt 0.0625 1.0000
vt 0.1250 1.0000
vt 0.1250 0.9375
vt 0.0625 1.0000
vt 0.0625 0.9375
vt 0.1250 0.9375
vt 0.0625 0.9375
vt 0.0625 1.0000
vt 0.1250 1.0000
vt 0.0625 0.9375
vt 0.0000 0.9375
vt 0.0000 1.0000
vt 0.0625 1.0000
vt 0.0625 0.9375
vt 0.1250 0.9375
vt 0.1250 1.0000
vt 0.0625 1.0000
vt 0.0625 0.9375
vt 0.1250 0.9375
vt 0.0625 0.9375
vt 0.0000 0.9375
vt 0.0000 1.0000
vt 0.0625 1.0000
vt 0.0000 1.0000
vt 0.0625 1.0000
vt 0.1250 1.0000
vt 0.0625 1.0000
vt 0.1250 0.9375
vt 0.0625 0.9375
vt 0.0625 1.0000
vt 0.1250 1.0000
vt 0.0000 0.9375
vt 0.0625 1.0000
vt 0.0000 1.0000
vt 0.1250 1.0000
vt 0.1250 0.9375
vt 0.1250 0.9375
vt 0.0625 0.9375
vt 0.0625 1.0000
vt 0.0625 1.0000
vt 0.1250 1.0000
vt 0.1250 0.9375
vt 0.0625 0.9375
vt 0.1250 0.9375
vt 0.1250 1.0000
vt 0.0625 1.0000
vt 0.0625 0.9375
vt 0.1250 0.9375
vt 0.1250 1.0000
vt 0.0000 0.9375
vt 0.0625 1.0000
vt 0.0000 1.0000
vt 0.0625 0.9375
vt 0.1250 0.9375
vt 0.1250 1.0000
vt 0.0625 1.0000
vt 0.0625 0.9375
vt 0.0625 1.0000
vt 0.0000 1.0000
vt 0.0625 1.0000
vt 0.1250 1.0000
vt 0.1250 0.9375
vt 0.0625 0.9375
vt 0.6875 0.6875
vt 1.0000 0.6875
vt 1.0000 1.0000
vt 0.6875 1.0000
vt 0.1250 0.9375
vt 0.1250 1.0000
vn 0.0000 0.0000 -1.0000
vn 0.0000 0.0000 1.0000
vn 0.0000 1.0000 0.0000
vn 0.0000 -1.0000 -0.0000
vn 1.0000 0.0000 0.0000
vn -1.0000 0.0000 0.0000
vn 0.7071 0.7071 0.0000
vn -0.7071 -0.7071 -0.0000
vn 0.7071 -0.7071 -0.0000
vn -0.7071 0.7071 0.0000
usemtl m_0
s 1
f 116/1/1 118/2/1 117/3/1 115/4/1
f 16/5/2 10/6/2 9/7/2 15/8/2
f 12/9/1 14/10/1 13/11/1 11/12/1
f 110/13/3 112/14/3 111/15/3 109/16/3
f 126/17/4 128/18/4 127/19/4 125/20/4
f 14/21/5 12/22/5 10/23/5 16/24/5
f 20/25/1 22/26/1 21/27/1 19/28/1
f 95/29/5 89/30/5 91/31/5 93/32/5
f 56/33/2 50/34/2 49/35/2 55/36/2
f 126/17/5 124/37/5 122/38/5 128/39/5
f 2/40/4 4/41/4 3/42/4 1/43/4
f 103/44/5 97/45/5 99/46/5 101/47/5
f 62/48/6 64/49/6 63/50/6 61/51/6
f 58/52/5 60/53/5 59/54/5 57/55/5
f 84/56/1 86/57/1 85/58/1 83/59/1
f 70/60/6 72/61/6 71/62/6 69/63/6
f 4/64/1 6/65/1 5/66/1 3/67/1
f 112/68/2 106/69/2 105/70/2 111/71/2
f 118/72/4 120/73/4 119/74/4 117/75/4
f 47/76/7 41/77/7 43/78/7 45/79/7
f 54/80/8 56/81/8 55/82/8 53/83/8
f 54/80/9 52/84/9 50/85/9 56/86/9
f 78/87/6 80/88/6 79/89/6 77/90/6
f 86/91/4 84/92/4 82/93/4 88/94/4
f 50/95/7 52/84/7 51/96/7 49/97/7
f 46/98/8 44/99/8 42/100/8 48/101/8
f 42/102/9 44/99/9 43/78/9 41/103/9
f 128/104/2 122/105/2 121/106/2 127/107/2
f 40/108/2 34/109/2 33/110/2 39/111/2
f 55/112/10 49/113/10 51/96/10 53/83/10
f 114/114/3 116/115/3 115/116/3 113/117/3
f 34/118/9 36/119/9 35/120/9 33/121/9
f 38/122/8 36/119/8 34/123/8 40/124/8
f 122/125/3 124/37/3 123/126/3 121/127/3
f 130/128/3 132/129/3 131/130/3 129/131/3
f 127/132/6 121/133/6 123/134/6 125/135/6
f 30/136/8 32/137/8 31/138/8 29/139/8
f 30/136/9 28/140/9 26/141/9 32/142/9
f 31/143/10 25/144/10 27/145/10 29/139/10
f 119/146/6 113/147/6 115/148/6 117/149/6
f 24/150/2 18/151/2 17/152/2 23/153/2
f 70/60/4 68/154/4 66/155/4 72/156/4
f 63/157/3 57/158/3 59/54/3 61/51/3
f 110/13/6 108/159/6 106/160/6 112/161/6
f 22/162/4 20/163/4 18/164/4 24/165/4
f 62/48/4 60/53/4 58/166/4 64/167/4
f 22/162/6 24/168/6 23/169/6 21/170/6
f 104/171/2 98/172/2 97/173/2 103/174/2
f 98/175/4 100/176/4 99/177/4 97/178/4
f 79/179/3 73/180/3 75/181/3 77/90/3
f 90/182/4 92/183/4 91/184/4 89/185/4
f 120/186/2 114/187/2 113/188/2 119/189/2
f 26/190/7 28/140/7 27/145/7 25/191/7
f 82/192/5 84/92/5 83/193/5 81/194/5
f 18/195/5 20/163/5 19/196/5 17/197/5
f 87/198/3 81/199/3 83/193/3 85/200/3
f 134/201/4 136/202/4 135/203/4 133/204/4
f 76/205/1 78/206/1 77/207/1 75/208/1
f 118/72/5 116/115/5 114/209/5 120/210/5
f 7/211/5 1/212/5 3/42/5 5/213/5
f 102/214/6 100/176/6 98/215/6 104/216/6
f 6/217/6 4/41/6 2/218/6 8/219/6
f 60/220/1 62/221/1 61/222/1 59/223/1
f 28/224/1 30/225/1 29/226/1 27/227/1
f 74/228/5 76/229/5 75/181/5 73/230/5
f 78/87/4 76/229/4 74/231/4 80/232/4
f 68/233/1 70/234/1 69/235/1 67/236/1
f 102/214/3 104/237/3 103/238/3 101/239/3
f 36/240/1 38/241/1 37/242/1 35/243/1
f 88/244/2 82/245/2 81/246/2 87/247/2
f 135/248/6 129/249/6 131/250/6 133/251/6
f 136/252/2 130/253/2 129/254/2 135/255/2
f 96/256/2 90/257/2 89/258/2 95/259/2
f 100/260/1 102/261/1 101/262/1 99/263/1
f 48/264/2 42/265/2 41/266/2 47/267/2
f 80/268/2 74/269/2 73/270/2 79/271/2
f 44/272/1 46/273/1 45/274/1 43/275/1
f 108/276/1 110/277/1 109/278/1 107/279/1
f 92/280/1 94/281/1 93/282/1 91/283/1
f 71/284/3 65/285/3 67/286/3 69/63/3
f 38/122/10 40/287/10 39/288/10 37/289/10
f 14/21/4 16/290/4 15/291/4 13/292/4
f 124/293/1 126/294/1 125/295/1 123/296/1
f 64/297/2 58/298/2 57/299/2 63/300/2
f 23/301/3 17/302/3 19/196/3 21/170/3
f 132/303/1 134/304/1 133/305/1 131/306/1
f 134/201/5 132/129/5 130/307/5 136/308/5
f 39/309/7 33/310/7 35/120/7 37/289/7
f 32/311/2 26/312/2 25/313/2 31/314/2
f 94/315/6 92/183/6 90/316/6 96/317/6
f 86/91/6 88/318/6 87/319/6 85/200/6
f 15/320/6 9/321/6 11/322/6 13/292/6
f 72/323/2 66/324/2 65/325/2 71/326/2
f 10/327/3 12/22/3 11/322/3 9/328/3
f 66/329/5 68/154/5 67/286/5 65/330/5
f 46/98/10 48/331/10 47/332/10 45/79/10
f 106/333/4 108/159/4 107/334/4 105/335/4
f 8/336/2 2/337/2 1/338/2 7/339/2
f 94/315/3 96/340/3 95/341/3 93/342/3
f 52/343/1 54/344/1 53/345/1 51/346/1
f 111/347/5 105/348/5 107/349/5 109/350/5
f 6/217/3 8/351/3 7/352/3 5/213/3
