# Blender v2.78 (sub 0) OBJ File: ''
# www.blender.org
mtllib v6turbo.mtl
o cube
v -0.224890 0.478697 0.621932
v -0.136493 0.339942 0.621932
v -0.224890 0.478697 0.000409
v -0.136493 0.339942 0.000409
v -0.409897 0.360835 0.000409
v -0.321500 0.222079 0.000409
v -0.409897 0.360835 0.621932
v -0.321500 0.222079 0.621932
v 0.409897 0.360835 0.621932
v 0.321500 0.222079 0.621932
v 0.409897 0.360835 0.000409
v 0.321500 0.222079 0.000409
v 0.224890 0.478697 0.000409
v 0.136493 0.339942 0.000409
v 0.224890 0.478697 0.621932
v 0.136493 0.339942 0.621932
v 0.329041 0.361570 0.621932
v 0.329041 0.050809 0.621932
v 0.329041 0.361570 0.000409
v 0.329041 0.050809 0.000409
v -0.329041 0.361570 0.000409
v -0.329041 0.050809 0.000409
v -0.329041 0.361570 0.621932
v -0.329041 0.050809 0.621932
v -0.173930 0.205920 0.621932
v 0.032886 -0.000895 0.621932
v -0.173930 0.205920 0.000409
v 0.032886 -0.000895 0.000409
v -0.329041 0.050809 0.000409
v -0.122226 -0.156007 0.000409
v -0.329041 0.050809 0.621932
v -0.122226 -0.156007 0.621932
v 0.329041 0.050809 0.621932
v 0.122226 -0.156007 0.621932
v 0.329041 0.050809 0.000409
v 0.122226 -0.156007 0.000409
v 0.173930 0.205920 0.000409
v -0.032886 -0.000895 0.000409
v 0.173930 0.205920 0.621932
v -0.032886 -0.000895 0.621932
v 0.122226 0.191315 0.621932
v 0.122226 -0.156007 0.621932
v 0.122226 0.191315 0.000409
v 0.122226 -0.156007 0.000409
v -0.005735 0.191315 0.000409
v -0.005735 -0.156007 0.000409
v -0.005735 0.191315 0.621932
v -0.005735 -0.156007 0.621932
v 0.005735 0.191315 0.621932
v 0.005735 -0.156007 0.621932
v 0.005735 0.191315 0.000409
v 0.005735 -0.156007 0.000409
v -0.122226 0.191315 0.000409
v -0.122226 -0.156007 0.000409
v -0.122226 0.191315 0.621932
v -0.122226 -0.156007 0.621932
v -0.289416 0.545962 0.603652
v -0.240307 0.468875 0.603652
v -0.289416 0.545962 0.420851
v -0.240307 0.468875 0.420851
v -0.443589 0.447743 0.420851
v -0.394479 0.370657 0.420851
v -0.443589 0.447743 0.603652
v -0.394479 0.370657 0.603652
v -0.289416 0.545962 0.402571
v -0.240307 0.468875 0.402571
v -0.289416 0.545962 0.219770
v -0.240307 0.468875 0.219770
v -0.443589 0.447743 0.219770
v -0.394479 0.370657 0.219770
v -0.443589 0.447743 0.402571
v -0.394479 0.370657 0.402571
v -0.289416 0.545962 0.201490
v -0.240307 0.468875 0.201490
v -0.289416 0.545962 0.018689
v -0.240307 0.468875 0.018689
v -0.443589 0.447743 0.018689
v -0.394479 0.370657 0.018689
v -0.443589 0.447743 0.201490
v -0.394479 0.370657 0.201490
v 0.443589 0.447743 0.201490
v 0.394479 0.370657 0.201490
v 0.443589 0.447743 0.018689
v 0.394479 0.370657 0.018689
v 0.289416 0.545962 0.018689
v 0.240307 0.468875 0.018689
v 0.289416 0.545962 0.201490
v 0.240307 0.468875 0.201490
v 0.443589 0.447743 0.402571
v 0.394479 0.370657 0.402571
v 0.443589 0.447743 0.219770
v 0.394479 0.370657 0.219770
v 0.289416 0.545962 0.219770
v 0.240307 0.468875 0.219770
v 0.289416 0.545962 0.402571
v 0.240307 0.468875 0.402571
v 0.443589 0.447743 0.603652
v 0.394479 0.370657 0.603652
v 0.443589 0.447743 0.420851
v 0.394479 0.370657 0.420851
v 0.289416 0.545962 0.420851
v 0.240307 0.468875 0.420851
v 0.289416 0.545962 0.603652
v 0.240307 0.468875 0.603652
vt 0.1250 0.9375
vt 0.0625 0.9375
vt 0.0625 1.0000
vt 0.1250 1.0000
vt 0.0625 0.9375
vt 0.0000 0.9375
vt 0.0000 1.0000
vt 0.0625 1.0000
vt 0.0625 0.9375
vt 0.0000 0.9375
vt 0.0000 1.0000
vt 0.0625 1.0000
vt 0.1250 0.9375
vt 0.0625 0.9375
vt 0.0625 1.0000
vt 0.1250 1.0000
vt 0.0000 0.9375
vt 0.0625 0.9375
vt 0.0625 1.0000
vt 0.0000 1.0000
vt 0.0000 0.9375
vt 0.0000 1.0000
vt 0.0625 1.0000
vt 0.0625 0.9375
vt 0.1250 0.9375
vt 0.1250 1.0000
vt 0.0625 1.0000
vt 0.0000 0.9375
vt 0.0625 0.9375
vt 0.0625 1.0000
vt 0.0000 1.0000
vt 0.0000 0.9375
vt 0.0625 0.9375
vt 0.0625 1.0000
vt 0.0000 1.0000
vt 0.0625 0.9375
vt 0.1250 0.9375
vt 0.1250 1.0000
vt 0.0625 1.0000
vt 0.1250 0.9375
vt 0.0625 0.9375
vt 0.0625 1.0000
vt 0.0625 0.9375
vt 0.1250 0.9375
vt 0.1250 1.0000
vt 0.0625 1.0000
vt 0.0625 0.9375
vt 0.0000 0.9375
vt 0.0000 1.0000
vt 0.0625 1.0000
vt 0.0625 0.9375
vt 0.0000 0.9375
vt 0.0000 1.0000
vt 0.0625 1.0000
vt 0.0000 0.9375
vt 0.0625 0.9375
vt 0.0625 1.0000
vt 0.0000 1.0000
vt 0.1250 0.9375
vt 0.0625 0.9375
vt 0.0625 1.0000
vt 0.1250 1.0000
vt 0.0625 0.9375
vt 0.1250 0.9375
vt 0.1250 1.0000
vt 0.0625 1.0000
vt 0.0625 0.9375
vt 0.1250 0.9375
vt 0.1250 1.0000
vt 0.0625 1.0000
vt 0.0625 0.9375
vt 0.1250 0.9375
vt 0.1250 1.0000
vt 0.0625 1.0000
vt 0.1250 0.9375
vt 0.0625 0.9375
vt 0.0625 1.0000
vt 0.1250 1.0000
vt 0.0000 0.9375
vt 0.0625 0.9375
vt 0.0625 1.0000
vt 0.0000 1.0000
vt 0.0625 0.9375
vt 0.1250 1.0000
vt 0.0625 1.0000
vt 0.0625 0.9375
vt 0.0000 1.0000
vt 0.0625 1.0000
vt 0.0625 0.9375
vt 0.1250 0.9375
vt 0.0625 1.0000
vt 0.0625 0.9375
vt 0.1250 0.9375
vt 0.1250 1.0000
vt 0.0625 0.9375
vt 0.1250 0.9375
vt 0.1250 1.0000
vt 0.0625 1.0000
vt 0.0625 0.9375
vt 0.0000 0.9375
vt 0.0000 1.0000
vt 0.0625 1.0000
vt 0.0625 0.9375
vt 0.1250 0.9375
vt 0.1250 1.0000
vt 0.0625 1.0000
vt 1.0000 0.6875
vt 0.6875 0.6875
vt 0.6875 1.0000
vt 1.0000 1.0000
vt 0.0625 0.9375
vt 0.1250 0.9375
vt 0.1250 1.0000
vt 0.0625 1.0000
vt 0.0625 0.9375
vt 0.1250 0.9375
vt 0.1250 1.0000
vt 0.0625 1.0000
vt 1.0000 0.6875
vt 0.6875 0.6875
vt 0.6875 1.0000
vt 1.0000 1.0000
vt 0.0625 0.9375
vt 0.1250 0.9375
vt 0.1250 1.0000
vt 0.0625 1.0000
vt 0.1250 0.9375
vt 0.0625 0.9375
vt 0.0625 1.0000
vt 0.1250 1.0000
vt 0.0625 0.9375
vt 0.0000 1.0000
vt 0.0625 1.0000
vt 0.1250 0.9375
vt 0.0625 0.9375
vt 0.1250 1.0000
vt 0.1250 0.9375
vt 0.0625 0.9375
vt 0.0625 1.0000
vt 0.1250 1.0000
vt 0.0625 0.9375
vt 0.0000 0.9375
vt 0.0000 1.0000
vt 0.0625 1.0000
vt 0.0000 0.9375
vt 0.0625 0.9375
vt 0.0625 1.0000
vt 0.0000 1.0000
vt 0.0625 0.9375
vt 0.1250 0.9375
vt 0.1250 1.0000
vt 0.0625 1.0000
vt 0.0000 0.9375
vt 0.0625 0.9375
vt 0.0625 1.0000
vt 0.0000 1.0000
vt 0.0625 0.9375
vt 0.0000 0.9375
vt 0.0000 1.0000
vt 0.0625 1.0000
vt 0.0000 0.9375
vt 0.0625 1.0000
vt 0.0000 1.0000
vt 0.0625 0.9375
vt 0.1250 0.9375
vt 0.1250 1.0000
vt 0.0625 1.0000
vt 0.0000 0.9375
vt 0.0000 1.0000
vt 0.0625 1.0000
vt 0.1250 0.9375
vt 0.1250 1.0000
vt 0.0625 1.0000
vt 0.0625 0.9375
vt 0.0625 1.0000
vt 0.0000 1.0000
vt 0.0000 0.9375
vt 0.0625 0.9375
vt 0.0625 1.0000
vt 0.0000 1.0000
vt 0.1250 0.9375
vt 0.0625 0.9375
vt 0.0625 1.0000
vt 0.1250 1.0000
vt 0.6875 0.6875
vt 1.0000 0.6875
vt 1.0000 1.0000
vt 0.6875 1.0000
vt 0.0000 0.9375
vt 0.0625 1.0000
vt 0.0000 1.0000
vt 0.1250 0.9375
vt 0.1250 1.0000
vt 0.0625 1.0000
vt 0.0625 0.9375
vt 0.1250 0.9375
vt 0.1250 1.0000
vt 0.0625 1.0000
vt 0.1250 1.0000
vt 0.0625 1.0000
vt 0.1250 0.9375
vt 0.1250 1.0000
vt 0.0625 1.0000
vt 0.0625 1.0000
vt 0.1250 1.0000
vt 0.0000 0.9375
vt 0.0625 1.0000
vt 0.0000 1.0000
vt 0.6875 0.6875
vt 1.0000 0.6875
vt 1.0000 1.0000
vt 0.6875 1.0000
vt 0.0625 0.9375
vt 0.1250 0.9375
vt 0.1250 1.0000
vt 0.0625 0.9375
vt 0.0000 0.9375
vt 0.0000 1.0000
vt 0.0625 1.0000
vt 0.1250 0.9375
vt 0.1250 1.0000
vt 0.0625 0.9375
vt 0.1250 0.9375
vt 0.0625 0.9375
vt 0.0000 1.0000
vt 0.0625 1.0000
vt 0.0000 0.9375
vt 0.0625 0.9375
vt 0.0625 1.0000
vt 0.0000 1.0000
vt 0.0625 0.9375
vt 0.0625 1.0000
vt 0.0000 1.0000
vt 0.1250 0.9375
vt 0.1250 1.0000
vt 0.0625 0.9375
vt 0.0000 0.9375
vt 0.0000 1.0000
vt 0.0625 1.0000
vt 0.0625 0.9375
vt 0.1250 0.9375
vt 0.1250 1.0000
vt 0.0625 1.0000
vt 0.0625 0.9375
vt 0.1250 1.0000
vt 0.0625 1.0000
vt 0.0625 0.9375
vt 0.0625 1.0000
vt 0.0625 0.9375
vt 0.0625 1.0000
vt 0.0000 0.9375
vt 0.0000 1.0000
vt 0.0625 1.0000
vt 1.0000 0.6875
vt 0.6875 0.6875
vt 0.6875 1.0000
vt 1.0000 1.0000
vt 0.0625 0.9375
vt 0.0625 1.0000
vt 0.0000 1.0000
vt 0.0625 0.9375
vt 0.1250 0.9375
vt 0.0625 0.9375
vt 0.1250 0.9375
vt 0.1250 1.0000
vt 0.0625 1.0000
vt 0.6875 0.6875
vt 1.0000 0.6875
vt 1.0000 1.0000
vt 0.6875 1.0000
vt 0.0625 0.9375
vt 0.0625 1.0000
vn 0.5373 -0.8434 -0.0000
vn -0.8434 -0.5373 -0.0000
vn -0.7071 -0.7071 -0.0000
vn -0.5373 -0.8434 0.0000
vn 0.8434 -0.5373 0.0000
vn 0.0000 0.0000 -1.0000
vn -0.7071 0.7071 0.0000
vn 0.0000 0.0000 1.0000
vn -1.0000 0.0000 0.0000
vn 0.7071 -0.7071 -0.0000
vn 0.8434 0.5373 0.0000
vn 0.7071 0.7071 0.0000
vn 0.0000 1.0000 0.0000
vn 0.0000 -1.0000 -0.0000
vn -0.5373 0.8434 0.0000
vn 1.0000 0.0000 0.0000
vn -0.8434 0.5373 0.0000
vn 0.5373 0.8434 0.0000
usemtl m_0
s 1
f 6/1/1 4/2/1 2/3/1 8/4/1
f 78/5/1 76/6/1 74/7/1 80/8/1
f 70/9/2 72/10/2 71/11/2 69/12/2
f 30/13/3 32/14/3 31/15/3 29/16/3
f 102/17/4 100/18/4 98/19/4 104/20/4
f 70/9/1 68/21/1 66/22/1 72/23/1
f 14/24/4 12/25/4 10/26/4 16/27/4
f 82/28/5 84/29/5 83/30/5 81/31/5
f 90/32/5 92/33/5 91/34/5 89/35/5
f 12/36/6 14/37/6 13/38/6 11/39/6
f 31/40/7 25/41/7 27/42/7 29/16/7
f 48/43/8 42/44/8 41/45/8 47/46/8
f 76/47/6 78/48/6 77/49/6 75/50/6
f 60/51/6 62/52/6 61/53/6 59/54/6
f 100/55/6 102/56/6 101/57/6 99/58/6
f 28/59/6 30/60/6 29/61/6 27/62/6
f 54/63/9 56/64/9 55/65/9 53/66/9
f 44/67/6 46/68/6 45/69/6 43/70/6
f 34/71/10 36/72/10 35/73/10 33/74/10
f 4/75/6 6/76/6 5/77/6 3/78/6
f 92/79/6 94/80/6 93/81/6 91/82/6
f 38/83/3 36/72/3 34/84/3 40/85/3
f 66/86/11 68/21/11 67/87/11 65/88/11
f 39/89/12 33/90/12 35/73/12 37/91/12
f 55/92/13 49/93/13 51/94/13 53/66/13
f 16/95/8 10/96/8 9/97/8 15/98/8
f 80/99/8 74/100/8 73/101/8 79/102/8
f 22/103/14 20/104/14 18/105/14 24/106/14
f 79/107/15 73/108/15 75/109/15 77/110/15
f 40/111/8 34/112/8 33/113/8 39/114/8
f 42/115/16 44/116/16 43/117/16 41/118/16
f 71/119/15 65/120/15 67/121/15 69/122/15
f 56/123/8 50/124/8 49/125/8 55/126/8
f 32/127/8 26/128/8 25/129/8 31/130/8
f 74/131/11 76/6/11 75/132/11 73/133/11
f 26/134/12 28/135/12 27/42/12 25/136/12
f 8/137/8 2/138/8 1/139/8 7/140/8
f 64/141/8 58/142/8 57/143/8 63/144/8
f 88/145/8 82/146/8 81/147/8 87/148/8
f 46/149/9 48/150/9 47/151/9 45/152/9
f 96/153/8 90/154/8 89/155/8 95/156/8
f 72/157/8 66/158/8 65/159/8 71/160/8
f 94/161/4 92/33/4 90/162/4 96/163/4
f 20/164/6 22/165/6 21/166/6 19/167/6
f 78/5/2 80/168/2 79/169/2 77/170/2
f 54/63/14 52/171/14 50/172/14 56/173/14
f 94/161/17 96/174/17 95/175/17 93/176/17
f 104/177/8 98/178/8 97/179/8 103/180/8
f 7/181/15 1/182/15 3/183/15 5/184/15
f 95/185/18 89/186/18 91/187/18 93/188/18
f 86/189/4 84/29/4 82/190/4 88/191/4
f 22/103/9 24/192/9 23/193/9 21/194/9
f 52/195/6 54/196/6 53/197/6 51/198/6
f 46/149/14 44/116/14 42/199/14 48/200/14
f 14/24/17 16/201/17 15/202/17 13/203/17
f 30/13/10 28/135/10 26/204/10 32/205/10
f 98/206/5 100/18/5 99/207/5 97/208/5
f 103/209/18 97/210/18 99/211/18 101/212/18
f 23/213/13 17/214/13 19/215/13 21/194/13
f 62/216/1 60/217/1 58/218/1 64/219/1
f 38/83/7 40/220/7 39/221/7 37/91/7
f 47/222/13 41/223/13 43/117/13 45/152/13
f 58/224/11 60/217/11 59/225/11 57/226/11
f 84/227/6 86/228/6 85/229/6 83/230/6
f 102/17/17 104/231/17 103/232/17 101/233/17
f 2/234/11 4/2/11 3/183/11 1/235/11
f 68/236/6 70/237/6 69/238/6 67/239/6
f 24/240/8 18/241/8 17/242/8 23/243/8
f 10/244/5 12/25/5 11/245/5 9/246/5
f 50/247/16 52/171/16 51/94/16 49/248/16
f 18/249/16 20/104/16 19/215/16 17/250/16
f 62/216/2 64/251/2 63/252/2 61/253/2
f 63/254/15 57/255/15 59/256/15 61/257/15
f 86/189/17 88/258/17 87/259/17 85/260/17
f 15/261/18 9/262/18 11/245/18 13/203/18
f 36/263/6 38/264/6 37/265/6 35/266/6
f 87/267/18 81/268/18 83/269/18 85/270/18
f 6/1/2 8/271/2 7/272/2 5/184/2
o turbo
v -0.146241 0.306730 0.695052
v -0.146241 0.160489 0.695052
v -0.146241 0.306730 0.621932
v -0.146241 0.160489 0.621932
v -0.292481 0.306730 0.621932
v -0.292481 0.160489 0.621932
v -0.292481 0.306730 0.695052
v -0.292481 0.160489 0.695052
v -0.227623 0.194252 0.695052
v -0.193860 0.129394 0.695052
v -0.227623 0.194252 0.621932
v -0.193860 0.129394 0.621932
v -0.292481 0.160489 0.621932
v -0.258718 0.095631 0.621932
v -0.292481 0.160489 0.695052
v -0.258718 0.095631 0.695052
v -0.233709 0.164341 0.695052
v -0.164999 0.139333 0.695052
v -0.233709 0.164341 0.621932
v -0.164999 0.139333 0.621932
v -0.258718 0.095631 0.621932
v -0.190007 0.070622 0.621932
v -0.258718 0.095631 0.695052
v -0.190007 0.070622 0.695052
vt 0.0000 0.1875
vt 0.0625 0.1875
vt 0.0625 0.2500
vt 0.0000 0.2500
vt 0.1250 0.0625
vt 0.2500 0.0625
vt 0.2500 0.1875
vt 0.1250 0.1875
vt 0.0000 0.1875
vt 0.0625 0.1875
vt 0.0625 0.2500
vt 0.0000 0.2500
vt 0.0000 0.0625
vt 0.1250 0.0625
vt 0.1250 0.1875
vt 0.0000 0.1875
vt 0.0625 0.1875
vt 0.0625 0.2500
vt 0.0000 0.2500
vt 0.0000 0.1875
vt 0.0625 0.1875
vt 0.0625 0.2500
vt 0.0000 0.2500
vt 0.0000 0.1875
vt 0.0625 0.1875
vt 0.0625 0.2500
vt 0.0000 0.2500
vt 0.0000 0.1875
vt 0.0625 0.1875
vt 0.0625 0.2500
vt 0.0000 0.2500
vt 0.0000 0.1875
vt 0.0625 0.1875
vt 0.0625 0.2500
vt 0.0000 0.2500
vt 0.0625 0.1875
vt 0.0625 0.2500
vt 0.0000 0.1875
vt 0.0625 0.1875
vt 0.0625 0.2500
vt 0.0000 0.2500
vt 0.0000 0.1875
vt 0.0000 0.2500
vt 0.0000 0.1875
vt 0.0000 0.2500
vt 0.1250 0.0625
vt 0.2500 0.0625
vt 0.2500 0.1875
vt 0.1250 0.1875
vt 0.0625 0.1875
vt 0.0625 0.2500
vt 0.0000 0.1875
vt 0.0625 0.1875
vt 0.0625 0.2500
vt 0.0000 0.2500
vt 0.0000 0.1875
vt 0.0625 0.1875
vt 0.0625 0.2500
vt 0.0000 0.1875
vt 0.0625 0.1875
vt 0.0000 0.2500
vn 0.0000 1.0000 0.0000
vn 0.0000 0.0000 -1.0000
vn 0.0000 0.0000 1.0000
vn 0.0000 -1.0000 0.0000
vn -0.4617 0.8870 0.0000
vn 0.4617 -0.8870 0.0000
vn -0.8870 -0.4617 0.0000
vn -0.3420 -0.9397 0.0000
vn 1.0000 0.0000 0.0000
vn 0.8870 0.4617 0.0000
vn 0.9397 -0.3420 -0.0000
vn -1.0000 0.0000 0.0000
vn -0.9397 0.3420 0.0000
vn 0.3420 0.9397 0.0000
usemtl m_0
s 1
f 111/273/19 105/274/19 107/275/19 109/276/19
f 108/277/20 110/278/20 109/279/20 107/280/20
f 128/281/21 122/282/21 121/283/21 127/284/21
f 112/285/21 106/286/21 105/287/21 111/273/21
f 116/288/20 118/289/20 117/290/20 115/291/20
f 110/292/22 108/293/22 106/294/22 112/295/22
f 119/296/23 113/297/23 115/298/23 117/299/23
f 124/300/20 126/301/20 125/302/20 123/303/20
f 118/304/24 116/305/24 114/306/24 120/307/24
f 118/304/25 120/308/25 119/309/25 117/299/25
f 126/310/26 128/311/26 127/312/26 125/313/26
f 106/314/27 108/293/27 107/275/27 105/315/27
f 114/316/28 116/305/28 115/298/28 113/317/28
f 126/318/29 124/319/29 122/320/29 128/321/29
f 110/292/30 112/322/30 111/323/30 109/276/30
f 120/324/21 114/325/21 113/326/21 119/327/21
f 127/328/31 121/329/31 123/330/31 125/313/31
f 122/331/32 124/332/32 123/330/32 121/333/32
