# Blender v2.78 (sub 0) OBJ File: ''
# www.blender.org
mtllib v6ubermanual.mtl
o cube
v 0.385792 0.452593 0.728718
v 0.385792 0.088234 0.728718
v 0.385792 0.452593 0.000000
v 0.385792 0.088234 0.000000
v -0.385792 0.452593 0.000000
v -0.385792 0.088234 0.000000
v -0.385792 0.452593 0.728718
v -0.385792 0.088234 0.728718
v 0.480592 0.451731 0.728718
v 0.376950 0.289044 0.728718
v 0.480592 0.451731 0.000000
v 0.376950 0.289044 0.000000
v 0.263677 0.589922 0.000000
v 0.160034 0.427235 0.000000
v 0.263677 0.589922 0.728718
v 0.160034 0.427235 0.728718
v -0.263677 0.589922 0.728718
v -0.160034 0.427235 0.728718
v -0.263677 0.589922 0.000000
v -0.160034 0.427235 0.000000
v -0.480592 0.451731 0.000000
v -0.376950 0.289044 0.000000
v -0.480592 0.451731 0.728718
v -0.376950 0.289044 0.728718
v 0.385792 0.088234 0.728718
v 0.143306 -0.154251 0.728718
v 0.385792 0.088234 0.000000
v 0.143306 -0.154251 -0.000000
v 0.203928 0.270098 0.000000
v -0.038558 0.027613 -0.000000
v 0.203928 0.270098 0.728718
v -0.038558 0.027613 0.728718
v -0.203928 0.270098 0.728718
v 0.038558 0.027613 0.728718
v -0.203928 0.270098 0.000000
v 0.038558 0.027613 -0.000000
v -0.385792 0.088234 0.000000
v -0.143306 -0.154251 -0.000000
v -0.385792 0.088234 0.728718
v -0.143306 -0.154251 0.728718
v 0.143306 0.252974 0.728718
v 0.143306 -0.154251 0.728718
v 0.143306 0.252974 0.000000
v 0.143306 -0.154251 -0.000000
v -0.006724 0.252974 0.000000
v -0.006724 -0.154251 -0.000000
v -0.006724 0.252974 0.728718
v -0.006724 -0.154251 0.728718
v 0.006724 0.252974 0.728718
v 0.006724 -0.154251 0.728718
v 0.006724 0.252974 0.000000
v 0.006724 -0.154251 -0.000000
v -0.143306 0.252974 0.000000
v -0.143306 -0.154251 -0.000000
v -0.143306 0.252974 0.728718
v -0.143306 -0.154251 0.728718
v 0.520095 0.553628 0.707285
v 0.462516 0.463247 0.707285
v 0.520095 0.553628 0.492956
v 0.462516 0.463247 0.492956
v 0.339332 0.668787 0.492956
v 0.281753 0.578406 0.492956
v 0.339332 0.668787 0.707285
v 0.281753 0.578406 0.707285
v 0.520095 0.553628 0.235762
v 0.462516 0.463247 0.235762
v 0.520095 0.553628 0.021433
v 0.462516 0.463247 0.021433
v 0.339332 0.668787 0.021433
v 0.281753 0.578406 0.021433
v 0.339332 0.668787 0.235762
v 0.281753 0.578406 0.235762
v 0.520095 0.553628 0.471523
v 0.462516 0.463247 0.471523
v 0.520095 0.553628 0.257194
v 0.462516 0.463247 0.257194
v 0.339332 0.668787 0.257194
v 0.281753 0.578406 0.257194
v 0.339332 0.668787 0.471523
v 0.281753 0.578406 0.471523
v -0.339332 0.668787 0.707285
v -0.281753 0.578406 0.707285
v -0.339332 0.668787 0.492956
v -0.281753 0.578406 0.492956
v -0.520095 0.553628 0.492956
v -0.462516 0.463247 0.492956
v -0.520095 0.553628 0.707285
v -0.462516 0.463247 0.707285
v -0.339332 0.668787 0.471523
v -0.281753 0.578406 0.471523
v -0.339332 0.668787 0.257194
v -0.281753 0.578406 0.257194
v -0.520095 0.553628 0.257194
v -0.462516 0.463247 0.257194
v -0.520095 0.553628 0.471523
v -0.462516 0.463247 0.471523
v -0.339332 0.668787 0.235762
v -0.281753 0.578406 0.235762
v -0.339332 0.668787 0.021433
v -0.281753 0.578406 0.021433
v -0.520095 0.553628 0.021433
v -0.462516 0.463247 0.021433
v -0.520095 0.553628 0.235762
v -0.462516 0.463247 0.235762
vt 1.0000 0.6875
vt 0.6875 0.6875
vt 0.6875 1.0000
vt 1.0000 1.0000
vt 1.0000 0.6875
vt 0.6875 0.6875
vt 0.6875 1.0000
vt 1.0000 1.0000
vt 0.1250 0.9375
vt 0.0625 0.9375
vt 0.0625 1.0000
vt 0.1250 1.0000
vt 0.0625 0.9375
vt 0.0000 0.9375
vt 0.0000 1.0000
vt 0.0625 1.0000
vt 0.0625 0.9375
vt 0.1250 0.9375
vt 0.1250 1.0000
vt 0.0625 1.0000
vt 0.0625 0.9375
vt 0.1250 0.9375
vt 0.1250 1.0000
vt 0.0625 1.0000
vt 0.0625 0.9375
vt 0.0000 0.9375
vt 0.0000 1.0000
vt 0.0625 1.0000
vt 0.1250 0.9375
vt 0.0625 0.9375
vt 0.0625 1.0000
vt 0.1250 1.0000
vt 0.0000 0.9375
vt 0.0625 0.9375
vt 0.0625 1.0000
vt 0.0000 1.0000
vt 0.0625 0.9375
vt 0.0000 0.9375
vt 0.0000 1.0000
vt 0.0625 1.0000
vt 0.0625 0.9375
vt 0.1250 0.9375
vt 0.1250 1.0000
vt 0.0625 1.0000
vt 0.0625 0.9375
vt 0.0000 0.9375
vt 0.0000 1.0000
vt 0.0625 1.0000
vt 0.0000 0.9375
vt 0.0625 1.0000
vt 0.0000 1.0000
vt 0.1250 0.9375
vt 0.0625 0.9375
vt 0.0625 1.0000
vt 0.1250 1.0000
vt 0.0000 1.0000
vt 0.0625 1.0000
vt 0.0625 0.9375
vt 0.1250 0.9375
vt 0.0625 1.0000
vt 0.0000 0.9375
vt 0.0625 0.9375
vt 0.0625 1.0000
vt 0.0000 1.0000
vt 0.0625 0.9375
vt 0.0625 1.0000
vt 0.1250 1.0000
vt 0.0000 0.9375
vt 0.0625 0.9375
vt 0.0625 1.0000
vt 0.0000 1.0000
vt 0.0625 0.9375
vt 0.1250 0.9375
vt 0.1250 1.0000
vt 0.0625 1.0000
vt 0.0625 0.9375
vt 0.1250 0.9375
vt 0.1250 1.0000
vt 0.0625 1.0000
vt 0.0625 0.9375
vt 0.1250 0.9375
vt 0.1250 1.0000
vt 0.0625 1.0000
vt 0.0000 0.9375
vt 0.0625 0.9375
vt 0.0625 1.0000
vt 0.0000 1.0000
vt 0.0625 0.9375
vt 0.1250 0.9375
vt 0.1250 1.0000
vt 0.0625 1.0000
vt 0.1250 0.9375
vt 0.0625 0.9375
vt 0.0625 1.0000
vt 0.1250 0.9375
vt 0.0625 0.9375
vt 0.0625 1.0000
vt 0.1250 1.0000
vt 0.0625 0.9375
vt 0.1250 0.9375
vt 0.0625 1.0000
vt 0.1250 0.9375
vt 0.1250 1.0000
vt 0.0625 0.9375
vt 0.1250 0.9375
vt 0.1250 1.0000
vt 0.0625 1.0000
vt 0.0000 0.9375
vt 0.0625 0.9375
vt 0.0625 1.0000
vt 0.0000 1.0000
vt 0.0000 0.9375
vt 0.0625 0.9375
vt 0.0625 1.0000
vt 0.0000 1.0000
vt 0.0625 0.9375
vt 0.1250 0.9375
vt 0.1250 1.0000
vt 0.0625 1.0000
vt 0.1250 0.9375
vt 0.0625 0.9375
vt 0.0625 1.0000
vt 0.1250 1.0000
vt 1.0000 0.6875
vt 0.6875 0.6875
vt 0.6875 1.0000
vt 1.0000 1.0000
vt 0.0625 0.9375
vt 0.1250 1.0000
vt 0.0625 1.0000
vt 0.0625 0.9375
vt 0.0000 0.9375
vt 0.0000 1.0000
vt 0.0625 1.0000
vt 0.0625 0.9375
vt 0.1250 1.0000
vt 0.0625 1.0000
vt 0.0625 0.9375
vt 0.1250 0.9375
vt 0.1250 1.0000
vt 0.0625 1.0000
vt 0.6875 0.6875
vt 1.0000 0.6875
vt 1.0000 1.0000
vt 0.6875 1.0000
vt 0.1250 0.9375
vt 0.1250 1.0000
vt 0.0000 0.9375
vt 0.0625 0.9375
vt 0.0625 1.0000
vt 0.0000 1.0000
vt 0.1250 0.9375
vt 0.0625 0.9375
vt 0.0625 1.0000
vt 0.1250 0.9375
vt 0.0625 0.9375
vt 0.0625 1.0000
vt 0.1250 1.0000
vt 0.0625 0.9375
vt 0.1250 0.9375
vt 0.1250 1.0000
vt 0.0625 1.0000
vt 0.0000 0.9375
vt 0.0000 1.0000
vt 0.0625 1.0000
vt 0.6875 0.6875
vt 1.0000 0.6875
vt 1.0000 1.0000
vt 0.6875 1.0000
vt 0.0625 0.9375
vt 0.0000 0.9375
vt 0.0000 1.0000
vt 0.0625 1.0000
vt 0.0625 0.9375
vt 0.1250 0.9375
vt 0.1250 1.0000
vt 0.0625 1.0000
vt 0.0625 0.9375
vt 0.1250 0.9375
vt 0.1250 1.0000
vt 0.0625 0.9375
vt 0.0000 0.9375
vt 0.0000 1.0000
vt 0.0625 1.0000
vt 0.0000 0.9375
vt 0.0625 1.0000
vt 0.0000 1.0000
vt 0.0625 0.9375
vt 0.0000 0.9375
vt 0.0000 1.0000
vt 0.0625 1.0000
vt 0.0625 0.9375
vt 0.0625 1.0000
vt 0.0000 1.0000
vt 0.0000 0.9375
vt 0.0625 0.9375
vt 0.0625 1.0000
vt 0.0000 1.0000
vt 0.0625 0.9375
vt 0.1250 0.9375
vt 0.1250 1.0000
vt 0.0625 1.0000
vt 0.0625 0.9375
vt 0.1250 0.9375
vt 0.1250 1.0000
vt 0.0625 0.9375
vt 0.0625 1.0000
vt 0.1250 1.0000
vt 0.0625 0.9375
vt 0.0625 1.0000
vt 0.0000 1.0000
vt 0.0625 0.9375
vt 0.1250 0.9375
vt 0.0625 1.0000
vt 0.0625 0.9375
vt 0.0000 0.9375
vt 0.0000 1.0000
vt 0.0625 1.0000
vt 0.0625 0.9375
vt 0.1250 0.9375
vt 0.0625 1.0000
vt 0.0625 0.9375
vt 0.1250 0.9375
vt 0.1250 1.0000
vt 0.0625 1.0000
vt 0.0000 0.9375
vt 0.0000 1.0000
vt 0.0625 1.0000
vt 0.0000 0.9375
vt 0.0625 0.9375
vt 0.0625 1.0000
vt 0.0000 1.0000
vt 0.1250 1.0000
vt 0.0625 1.0000
vt 0.1250 0.9375
vt 0.1250 1.0000
vt 0.0625 1.0000
vt 0.1250 0.9375
vt 0.1250 1.0000
vt 0.0625 0.9375
vt 0.0000 0.9375
vt 0.0000 1.0000
vt 0.0625 1.0000
vt 0.0625 0.9375
vt 0.0000 1.0000
vt 0.0625 1.0000
vt 0.0625 0.9375
vt 0.1250 0.9375
vt 0.1250 1.0000
vt 0.0625 1.0000
vt 0.0625 0.9375
vt 0.0000 1.0000
vt 0.0625 1.0000
vt 0.0625 0.9375
vt 0.1250 0.9375
vt 0.1250 1.0000
vt 0.6875 0.6875
vt 1.0000 0.6875
vt 1.0000 1.0000
vt 0.6875 1.0000
vt 0.1250 1.0000
vt 0.0625 1.0000
vt 0.0625 0.9375
vt 0.1250 0.9375
vt 0.1250 1.0000
vt 0.0625 1.0000
vt 0.0000 0.9375
vt 0.0625 0.9375
vt 0.0625 1.0000
vt 0.0000 1.0000
vt 0.0625 1.0000
vt 0.0000 1.0000
vn -0.5373 0.8434 0.0000
vn 0.7071 -0.7071 -0.0000
vn 0.8434 0.5373 0.0000
vn 0.0000 0.0000 -1.0000
vn -0.8434 -0.5373 -0.0000
vn -0.5373 -0.8434 0.0000
vn 0.8434 -0.5373 0.0000
vn 0.5373 -0.8434 0.0000
vn 0.7071 0.7071 0.0000
vn -0.7071 -0.7071 -0.0000
vn 0.0000 0.0000 1.0000
vn 0.0000 1.0000 0.0000
vn 0.0000 -1.0000 -0.0000
vn -0.7071 0.7071 0.0000
vn 1.0000 0.0000 0.0000
vn 0.5373 0.8434 0.0000
vn -0.8434 0.5373 0.0000
vn -1.0000 0.0000 0.0000
usemtl m_0
s 1
f 87/1/1 81/2/1 83/3/1 85/4/1
f 95/5/1 89/6/1 91/7/1 93/8/1
f 38/9/2 36/10/2 34/11/2 40/12/2
f 90/13/3 92/14/3 91/15/3 89/16/3
f 52/17/4 54/18/4 53/19/4 51/20/4
f 12/21/4 14/22/4 13/23/4 11/24/4
f 94/25/5 96/26/5 95/27/5 93/28/5
f 23/29/1 17/30/1 19/31/1 21/32/1
f 70/33/6 68/34/6 66/35/6 72/36/6
f 86/37/5 88/38/5 87/39/5 85/40/5
f 26/41/2 28/42/2 27/43/2 25/44/2
f 102/45/5 104/46/5 103/47/5 101/48/5
f 66/49/7 68/34/7 67/50/7 65/51/7
f 20/52/4 22/53/4 21/54/4 19/55/4
f 94/25/8 92/14/8 90/56/8 96/57/8
f 31/58/9 25/59/9 27/43/9 29/60/9
f 74/61/7 76/62/7 75/63/7 73/64/7
f 38/9/10 40/65/10 39/66/10 37/67/10
f 64/68/11 58/69/11 57/70/11 63/71/11
f 16/72/11 10/73/11 9/74/11 15/75/11
f 32/76/11 26/77/11 25/78/11 31/79/11
f 55/80/12 49/81/12 51/82/12 53/83/12
f 72/84/11 66/85/11 65/86/11 71/87/11
f 46/88/13 44/89/13 42/90/13 48/91/13
f 39/92/14 33/93/14 35/94/14 37/67/14
f 24/95/11 18/96/11 17/97/11 23/98/11
f 50/99/15 52/100/15 51/82/15 49/101/15
f 34/102/9 36/10/9 35/94/9 33/103/9
f 44/104/4 46/105/4 45/106/4 43/107/4
f 60/108/4 62/109/4 61/110/4 59/111/4
f 68/112/4 70/113/4 69/114/4 67/115/4
f 8/116/11 2/117/11 1/118/11 7/119/11
f 36/120/4 38/121/4 37/122/4 35/123/4
f 103/124/1 97/125/1 99/126/1 101/127/1
f 42/128/15 44/89/15 43/129/15 41/130/15
f 88/131/11 82/132/11 81/133/11 87/134/11
f 30/135/10 28/42/10 26/136/10 32/137/10
f 7/138/12 1/139/12 3/140/12 5/141/12
f 79/142/16 73/143/16 75/144/16 77/145/16
f 30/135/14 32/146/14 31/147/14 29/60/14
f 62/148/17 64/149/17 63/150/17 61/151/17
f 22/152/5 24/153/5 23/154/5 21/32/5
f 40/155/11 34/156/11 33/157/11 39/158/11
f 4/159/4 6/160/4 5/161/4 3/162/4
f 86/37/8 84/163/8 82/164/8 88/165/8
f 71/166/16 65/167/16 67/168/16 69/169/16
f 100/170/4 102/171/4 101/172/4 99/173/4
f 10/174/7 12/175/7 11/176/7 9/177/7
f 6/178/18 8/179/18 7/180/18 5/141/18
f 96/181/11 90/182/11 89/183/11 95/184/11
f 78/185/6 76/62/6 74/186/6 80/187/6
f 84/188/4 86/189/4 85/190/4 83/191/4
f 78/185/17 80/192/17 79/193/17 77/194/17
f 58/195/7 60/196/7 59/197/7 57/198/7
f 56/199/11 50/200/11 49/201/11 55/202/11
f 54/203/18 56/204/18 55/205/18 53/83/18
f 22/152/8 20/206/8 18/207/8 24/208/8
f 70/33/17 72/209/17 71/210/17 69/211/17
f 2/212/15 4/213/15 3/140/15 1/214/15
f 104/215/11 98/216/11 97/217/11 103/218/11
f 15/219/16 9/220/16 11/176/16 13/221/16
f 48/222/11 42/223/11 41/224/11 47/225/11
f 102/45/8 100/226/8 98/227/8 104/228/8
f 76/229/4 78/230/4 77/231/4 75/232/4
f 6/178/13 4/213/13 2/233/13 8/234/13
f 46/88/18 48/235/18 47/236/18 45/237/18
f 18/238/3 20/206/3 19/31/3 17/239/3
f 92/240/4 94/241/4 93/242/4 91/243/4
f 98/244/3 100/226/3 99/245/3 97/246/3
f 47/247/12 41/248/12 43/129/12 45/237/12
f 54/203/13 52/100/13 50/249/13 56/250/13
f 82/251/3 84/163/3 83/252/3 81/253/3
f 14/254/17 16/255/17 15/256/17 13/221/17
f 63/257/16 57/258/16 59/259/16 61/260/16
f 14/254/6 12/175/6 10/261/6 16/262/6
f 28/263/4 30/264/4 29/265/4 27/266/4
f 80/267/11 74/268/11 73/269/11 79/270/11
f 62/148/6 60/196/6 58/271/6 64/272/6
