# Blender v2.78 (sub 0) OBJ File: ''
# www.blender.org
mtllib v8uberturbo.mtl
o cube
v 0.172359 -0.155747 1.185937
v 0.172359 -0.155746 0.000153
v 0.172359 0.334034 0.000154
v 0.172359 0.334034 1.185937
v 0.556280 0.586935 0.322377
v 0.338872 0.725440 0.322377
v 0.408124 0.834144 0.322377
v 0.625532 0.695638 0.322377
v -0.464002 0.135897 0.000153
v -0.464002 0.135897 1.185937
v -0.464002 0.574121 1.185937
v -0.464002 0.574122 0.000154
v 0.338872 0.725440 0.889491
v 0.556280 0.586935 0.889491
v 0.556280 0.586935 1.147269
v 0.338872 0.725440 1.147269
v -0.338872 0.725440 1.147269
v -0.338872 0.725440 0.889491
v -0.408124 0.834144 0.889491
v -0.408124 0.834144 1.147269
v 0.408124 0.834144 1.147269
v 0.625532 0.695638 1.147269
v 0.625532 0.695638 0.889491
v 0.408124 0.834144 0.889491
v 0.408124 0.834144 0.296598
v 0.625532 0.695638 0.296598
v 0.625532 0.695638 0.038820
v 0.408124 0.834144 0.038820
v -0.625532 0.695638 1.147269
v -0.625532 0.695638 0.889491
v -0.556280 0.586935 0.605934
v -0.338872 0.725440 0.605934
v -0.338872 0.725440 0.863712
v -0.556280 0.586935 0.863712
v 0.245270 0.354629 1.185937
v 0.464002 0.135897 1.185937
v 0.464002 0.135897 0.000153
v 0.245270 0.354629 0.000154
v -0.192477 0.543621 0.000154
v -0.453367 0.377417 0.000154
v -0.578021 0.573085 0.000154
v -0.317131 0.739290 0.000154
v 0.556280 0.586935 0.580155
v 0.625532 0.695638 0.580155
v -0.556280 0.586935 1.147269
v -0.408124 0.834144 0.605934
v -0.408124 0.834144 0.863712
v 0.338872 0.725440 0.580155
v -0.625532 0.695638 0.605934
v -0.625532 0.695638 0.863712
v 0.408124 0.834144 0.580155
v -0.556280 0.586935 0.038820
v -0.338872 0.725440 0.038820
v -0.338872 0.725440 0.296598
v -0.556280 0.586935 0.296598
v -0.625532 0.695638 0.038820
v -0.408124 0.834144 0.038820
v -0.008087 -0.155746 0.000153
v -0.008087 -0.155747 1.185937
v -0.008087 0.334034 1.185937
v -0.008087 0.334034 0.000154
v -0.625532 0.695638 0.580155
v -0.408124 0.834144 0.580155
v -0.408124 0.834144 0.322377
v -0.625532 0.695638 0.322377
v 0.338872 0.725440 0.605934
v 0.338872 0.725440 0.863712
v 0.408124 0.834144 0.863712
v 0.408124 0.834144 0.605934
v -0.172359 -0.155746 0.000153
v -0.172359 -0.155747 1.185937
v -0.464002 0.135897 1.185937
v -0.464002 0.135897 0.000153
v -0.625532 0.695638 0.296598
v -0.408124 0.834144 0.296598
v 0.625532 0.695638 0.863712
v 0.625532 0.695638 0.605934
v -0.556280 0.586935 0.322377
v -0.556280 0.586935 0.580155
v 0.338872 0.725440 0.296598
v 0.556280 0.586935 0.296598
v 0.192477 0.543621 0.000154
v 0.453367 0.377417 0.000154
v 0.453367 0.377417 1.185937
v 0.192477 0.543621 1.185937
v 0.464002 0.135897 0.000153
v 0.464002 0.574122 0.000154
v -0.172359 0.334034 1.185937
v 0.008087 0.334034 1.185937
v 0.008087 0.334034 0.000154
v -0.172359 0.334034 0.000154
v 0.464002 0.135897 1.185937
v 0.008087 -0.155747 1.185937
v 0.008087 -0.155746 0.000153
v 0.578021 0.573085 0.000154
v 0.578021 0.573085 1.185937
v 0.046374 0.062987 1.185937
v 0.046374 0.062987 0.000153
v -0.245270 0.354629 0.000154
v -0.245270 0.354629 1.185937
v 0.317131 0.739290 1.185937
v 0.317131 0.739290 0.000154
v 0.556280 0.586935 0.605934
v -0.172359 -0.155746 0.000153
v -0.172359 -0.155747 1.185937
v 0.338872 0.725440 0.038820
v 0.556280 0.586935 0.038820
v -0.556280 0.586935 0.889491
v -0.338872 0.725440 0.580155
v -0.338872 0.725440 0.322377
v 0.464002 0.574121 1.185937
v -0.046374 0.062987 0.000153
v -0.046374 0.062987 1.185937
v -0.453367 0.377417 1.185937
v -0.192477 0.543621 1.185937
v -0.317131 0.739290 1.185937
v -0.578021 0.573085 1.185937
v 0.172359 -0.155747 1.185937
v 0.556280 0.586935 0.863712
v 0.172359 -0.155746 0.000153
vt 0.0625 0.9375
vt 0.1250 0.9375
vt 0.1250 1.0000
vt 0.0625 1.0000
vt 0.0000 0.9375
vt 0.0625 0.9375
vt 0.0625 1.0000
vt 0.0000 1.0000
vt 0.0625 0.9375
vt 0.1250 0.9375
vt 0.1250 1.0000
vt 0.0625 1.0000
vt 0.0000 0.9375
vt 0.0625 0.9375
vt 0.0625 1.0000
vt 0.0000 1.0000
vt 0.0625 0.9375
vt 0.0000 0.9375
vt 0.0000 1.0000
vt 0.0625 1.0000
vt 0.6875 0.6875
vt 1.0000 0.6875
vt 1.0000 1.0000
vt 0.6875 1.0000
vt 0.0000 0.9375
vt 0.0625 0.9375
vt 0.0625 1.0000
vt 0.0000 1.0000
vt 0.6875 0.6875
vt 1.0000 0.6875
vt 1.0000 1.0000
vt 0.6875 1.0000
vt 1.0000 0.6875
vt 0.6875 0.6875
vt 0.6875 1.0000
vt 1.0000 1.0000
vt 0.0625 0.9375
vt 0.0000 0.9375
vt 0.0000 1.0000
vt 0.0625 1.0000
vt 0.0625 0.9375
vt 0.1250 0.9375
vt 0.1250 1.0000
vt 0.0625 1.0000
vt 0.1250 0.9375
vt 0.0625 0.9375
vt 0.0625 1.0000
vt 0.1250 1.0000
vt 0.0000 0.9375
vt 0.0625 0.9375
vt 0.0625 1.0000
vt 0.0000 1.0000
vt 0.0625 0.9375
vt 0.0000 0.9375
vt 0.0000 1.0000
vt 0.0625 1.0000
vt 0.0625 0.9375
vt 0.0000 1.0000
vt 0.0625 1.0000
vt 0.0000 0.9375
vt 0.0625 1.0000
vt 0.0000 1.0000
vt 0.0625 0.9375
vt 0.0000 0.9375
vt 0.0000 1.0000
vt 0.0625 1.0000
vt 0.0625 0.9375
vt 0.0625 1.0000
vt 0.0000 1.0000
vt 0.0000 0.9375
vt 0.0625 1.0000
vt 0.0000 1.0000
vt 1.0000 0.6875
vt 0.6875 0.6875
vt 0.6875 1.0000
vt 1.0000 1.0000
vt 0.6875 0.6875
vt 1.0000 0.6875
vt 1.0000 1.0000
vt 0.6875 1.0000
vt 0.0625 0.9375
vt 0.0000 0.9375
vt 0.0000 1.0000
vt 0.0625 1.0000
vt 0.0625 0.9375
vt 0.0000 0.9375
vt 0.0000 1.0000
vt 0.0625 1.0000
vt 0.0625 0.9375
vt 0.0625 1.0000
vt 0.0000 1.0000
vt 0.0625 0.9375
vt 0.1250 0.9375
vt 0.1250 1.0000
vt 0.0625 1.0000
vt 1.0000 0.6875
vt 0.6875 0.6875
vt 0.6875 1.0000
vt 1.0000 1.0000
vt 0.0000 0.9375
vt 0.0625 0.9375
vt 0.0625 1.0000
vt 0.0000 1.0000
vt 0.1250 0.9375
vt 0.0625 0.9375
vt 0.0625 1.0000
vt 0.1250 1.0000
vt 1.0000 0.6875
vt 0.6875 0.6875
vt 0.6875 1.0000
vt 1.0000 1.0000
vt 0.0625 0.9375
vt 0.0000 1.0000
vt 0.0625 1.0000
vt 0.6875 0.6875
vt 1.0000 0.6875
vt 1.0000 1.0000
vt 0.6875 1.0000
vt 0.0625 0.9375
vt 0.0000 0.9375
vt 0.0000 1.0000
vt 0.0625 1.0000
vt 0.0000 0.9375
vt 0.0625 0.9375
vt 0.0625 1.0000
vt 0.0000 1.0000
vt 0.0625 0.9375
vt 0.1250 0.9375
vt 0.1250 1.0000
vt 0.0625 1.0000
vt 0.0625 0.9375
vt 0.1250 0.9375
vt 0.1250 1.0000
vt 0.0625 1.0000
vt 0.0625 0.9375
vt 0.1250 0.9375
vt 0.1250 1.0000
vt 0.0625 1.0000
vt 0.1250 0.9375
vt 0.1250 1.0000
vt 0.0625 1.0000
vt 0.0625 0.9375
vt 0.1250 0.9375
vt 0.0625 1.0000
vt 0.0625 0.9375
vt 0.1250 1.0000
vt 0.0625 1.0000
vt 0.1250 0.9375
vt 0.0625 0.9375
vt 0.0625 1.0000
vt 0.1250 1.0000
vt 0.1250 1.0000
vt 0.0625 1.0000
vt 0.1250 0.9375
vt 0.1250 1.0000
vt 0.0625 1.0000
vt 0.0000 0.9375
vt 0.0625 0.9375
vt 0.0625 1.0000
vt 0.0000 1.0000
vt 0.0625 0.9375
vt 0.1250 0.9375
vt 0.1250 1.0000
vt 0.0625 1.0000
vt 0.1250 1.0000
vt 0.0000 0.9375
vt 0.0625 0.9375
vt 0.0625 1.0000
vt 0.0000 1.0000
vt 0.1250 0.9375
vt 0.0625 0.9375
vt 0.0625 1.0000
vt 0.1250 1.0000
vt 0.0625 0.9375
vt 0.0000 0.9375
vt 0.0000 1.0000
vt 0.0625 1.0000
vt 0.1250 0.9375
vt 0.0625 0.9375
vt 0.0625 1.0000
vt 0.1250 1.0000
vt 0.0625 0.9375
vt 0.0625 1.0000
vt 0.0000 1.0000
vt 0.0625 0.9375
vt 0.0000 1.0000
vt 0.0625 1.0000
vt 0.0625 0.9375
vt 0.0000 0.9375
vt 0.0000 1.0000
vt 0.0625 1.0000
vt 0.0625 0.9375
vt 0.0000 0.9375
vt 0.0000 1.0000
vt 0.0625 1.0000
vt 0.0625 0.9375
vt 0.0000 0.9375
vt 0.0000 1.0000
vt 0.0625 1.0000
vt 0.0625 0.9375
vt 0.1250 1.0000
vt 0.0625 1.0000
vt 0.0625 0.9375
vt 0.1250 0.9375
vt 0.0625 0.9375
vt 0.1250 0.9375
vt 0.1250 1.0000
vt 0.1250 0.9375
vt 0.0625 0.9375
vt 0.1250 0.9375
vt 0.0625 0.9375
vt 0.0625 1.0000
vt 0.1250 1.0000
vt 0.0625 0.9375
vt 0.0000 0.9375
vt 0.0000 1.0000
vt 0.0625 1.0000
vt 0.0625 0.9375
vt 0.1250 0.9375
vt 0.1250 1.0000
vt 0.0625 1.0000
vt 0.0625 0.9375
vt 0.1250 0.9375
vt 0.1250 1.0000
vt 0.0625 1.0000
vt 0.0000 0.9375
vt 0.0625 0.9375
vt 0.0625 1.0000
vt 0.0000 1.0000
vt 0.0625 0.9375
vt 0.0000 0.9375
vt 0.0000 1.0000
vt 0.0625 1.0000
vt 0.1250 0.9375
vt 0.1250 1.0000
vt 0.0625 1.0000
vt 0.0625 0.9375
vt 0.0625 1.0000
vt 0.0000 1.0000
vt 0.0625 0.9375
vt 0.0625 1.0000
vt 0.0000 0.9375
vt 0.0000 1.0000
vt 0.0625 1.0000
vt 0.1250 0.9375
vt 0.0625 0.9375
vt 0.0625 1.0000
vt 0.1250 1.0000
vt 0.0625 0.9375
vt 0.1250 0.9375
vt 0.1250 1.0000
vt 0.0625 1.0000
vt 0.0625 0.9375
vt 0.1250 0.9375
vt 0.1250 1.0000
vt 0.0625 1.0000
vt 0.0000 0.9375
vt 0.0000 1.0000
vt 0.0625 1.0000
vt 0.0000 0.9375
vt 0.0000 1.0000
vt 0.0625 1.0000
vt 0.0625 0.9375
vt 0.1250 0.9375
vt 0.1250 1.0000
vt 0.0625 1.0000
vt 0.0625 0.9375
vt 0.1250 0.9375
vt 0.1250 1.0000
vt 0.0625 1.0000
vt 0.1250 1.0000
vt 0.0625 1.0000
vt 0.0625 0.9375
vt 0.1250 0.9375
vt 0.0000 0.9375
vt 0.0625 1.0000
vt 0.0000 1.0000
vt 0.0000 0.9375
vt 0.0625 1.0000
vt 0.0000 1.0000
vt 0.0000 0.9375
vt 0.0625 0.9375
vt 0.0625 1.0000
vt 0.0000 1.0000
vt 0.0000 0.9375
vt 0.0625 0.9375
vt 0.0625 1.0000
vt 0.0000 1.0000
vt 0.0000 0.9375
vt 0.0625 0.9375
vt 0.0625 1.0000
vt 0.0000 1.0000
vt 0.1250 0.9375
vt 0.0625 0.9375
vt 0.0625 1.0000
vt 0.1250 1.0000
vt 0.0625 1.0000
vt 0.1250 1.0000
vt 0.0625 0.9375
vt 0.1250 0.9375
vt 0.0625 0.9375
vt 0.1250 0.9375
vt 0.1250 1.0000
vt 0.0625 1.0000
vt 0.0625 0.9375
vt 0.1250 0.9375
vt 0.1250 1.0000
vt 0.0625 1.0000
vt 0.0625 0.9375
vt 0.1250 0.9375
vt 0.1250 1.0000
vt 0.0625 1.0000
vt 0.1250 0.9375
vt 0.0625 0.9375
vt 0.0000 1.0000
vt 0.0625 1.0000
vn 1.0000 0.0000 0.0000
vn -0.0000 0.0000 -1.0000
vn -1.0000 0.0000 0.0000
vn -0.5373 -0.8434 0.0000
vn 0.8434 0.5373 0.0000
vn 0.5373 0.8434 0.0000
vn -0.5373 0.8434 0.0000
vn 0.5373 -0.8434 0.0000
vn 0.7071 0.7071 0.0000
vn 0.8434 -0.5373 0.0000
vn 0.0000 0.0000 1.0000
vn -0.8434 0.5373 0.0000
vn -0.7071 -0.7071 -0.0000
vn -0.8434 -0.5373 0.0000
vn 0.0000 1.0000 0.0000
vn 0.0000 -1.0000 -0.0000
vn 0.7071 -0.7071 -0.0000
vn -0.7071 0.7071 0.0000
usemtl m_0
s 1
f 1/1/1 2/2/1 3/3/1 4/4/1
f 5/5/2 6/6/2 7/7/2 8/8/2
f 9/9/3 10/10/3 11/11/3 12/12/3
f 13/13/4 14/14/4 15/15/4 16/16/4
f 17/17/5 18/18/5 19/19/5 20/20/5
f 21/21/6 22/22/6 23/23/6 24/24/6
f 14/25/2 13/26/2 24/27/2 23/28/2
f 25/29/6 26/30/6 27/31/6 28/32/6
f 29/33/7 20/34/7 19/35/7 30/36/7
f 31/37/8 32/38/8 33/39/8 34/40/8
f 35/41/9 36/42/9 37/43/9 38/44/9
f 39/45/2 40/46/2 41/47/2 42/48/2
f 43/49/10 5/50/10 8/51/10 44/52/10
f 45/53/11 17/54/11 20/55/11 29/56/11
f 33/57/5 32/38/5 46/58/5 47/59/5
f 6/60/4 5/50/4 43/61/4 48/62/4
f 32/63/2 31/64/2 49/65/2 46/66/2
f 13/13/12 16/67/12 21/68/12 24/69/12
f 15/70/10 14/14/10 23/71/10 22/72/10
f 50/73/7 47/74/7 46/75/7 49/76/7
f 51/77/6 44/78/6 8/79/6 7/80/6
f 52/81/8 53/82/8 54/83/8 55/84/8
f 53/85/2 52/86/2 56/87/2 57/88/2
f 6/60/12 48/89/12 51/90/12 7/91/12
f 58/92/3 59/93/3 60/94/3 61/95/3
f 62/96/7 63/97/7 64/98/7 65/99/7
f 66/100/12 67/101/12 68/102/12 69/103/12
f 70/104/13 71/105/13 72/106/13 73/107/13
f 74/108/7 75/109/7 57/110/7 56/111/7
f 54/112/5 53/82/5 57/113/5 75/114/5
f 68/115/6 76/116/6 77/117/6 69/118/6
f 78/119/14 79/120/14 62/121/14 65/122/14
f 80/123/11 81/124/11 26/125/11 25/126/11
f 82/127/4 83/128/4 84/129/4 85/130/4
f 86/131/2 9/132/2 12/133/2 87/134/2
f 88/135/15 89/136/15 90/137/15 91/138/15
f 9/9/16 86/139/16 92/140/16 10/141/16
f 93/142/1 94/143/1 90/137/1 89/144/1
f 84/145/10 83/128/10 95/146/10 96/147/10
f 97/148/9 98/149/9 99/150/9 100/151/9
f 58/92/16 2/2/16 1/152/16 59/153/16
f 82/127/12 85/154/12 101/155/12 102/156/12
f 103/157/2 66/158/2 69/159/2 77/160/2
f 104/161/3 105/162/3 88/163/3 91/138/3
f 70/104/17 98/149/17 97/164/17 71/165/17
f 106/166/4 107/167/4 81/168/4 80/169/4
f 71/170/11 97/171/11 100/172/11 72/173/11
f 55/174/11 54/175/11 75/176/11 74/177/11
f 98/178/2 70/179/2 73/180/2 99/181/2
f 106/166/12 80/182/12 25/183/12 28/184/12
f 108/185/8 18/18/8 17/186/8 45/187/8
f 109/188/5 110/189/5 64/190/5 63/191/5
f 34/192/11 33/193/11 47/194/11 50/195/11
f 79/196/11 109/197/11 63/198/11 62/199/11
f 92/200/1 86/139/1 87/201/1 111/202/1
f 101/203/6 96/204/6 95/146/6 102/156/6
f 112/205/18 113/206/18 35/207/18 38/44/18
f 72/208/18 100/209/18 99/150/18 73/107/18
f 114/210/11 115/211/11 116/212/11 117/213/11
f 18/214/2 108/215/2 30/216/2 19/217/2
f 113/218/11 118/219/11 36/220/11 35/221/11
f 2/222/2 58/223/2 61/224/2 3/225/2
f 67/226/11 119/227/11 76/228/11 68/229/11
f 110/230/2 78/231/2 65/232/2 64/233/2
f 112/205/13 120/234/13 118/235/13 113/236/13
f 66/100/4 103/237/4 119/238/4 67/239/4
f 118/240/17 120/234/17 37/43/17 36/241/17
f 31/37/14 34/242/14 50/243/14 49/244/14
f 40/245/14 114/246/14 117/247/14 41/248/14
f 120/249/2 112/250/2 38/251/2 37/252/2
f 85/253/11 84/254/11 96/255/11 101/256/11
f 108/185/14 45/257/14 29/258/14 30/259/14
f 52/81/14 55/260/14 74/261/14 56/262/14
f 10/263/11 92/264/11 111/265/11 11/266/11
f 105/267/11 93/268/11 89/269/11 88/270/11
f 104/161/16 94/143/16 93/271/16 105/272/16
f 60/273/15 4/274/15 3/3/15 61/95/15
f 119/275/10 103/237/10 77/276/10 76/277/10
f 81/278/10 107/167/10 27/279/10 26/280/10
f 48/281/11 43/282/11 44/283/11 51/284/11
f 107/285/2 106/286/2 28/287/2 27/288/2
f 16/289/11 15/290/11 22/291/11 21/292/11
f 115/293/5 39/294/5 42/295/5 116/296/5
f 40/245/8 39/294/8 115/297/8 114/298/8
f 11/299/15 111/300/15 87/201/15 12/12/15
f 83/301/2 82/302/2 102/303/2 95/304/2
f 94/305/2 104/306/2 91/307/2 90/308/2
f 59/309/11 1/310/11 4/311/11 60/312/11
f 117/313/7 116/314/7 42/295/7 41/248/7
f 78/119/8 110/189/8 109/315/8 79/316/8
o turbo
v -0.267941 0.163837 1.185937
v -0.267941 0.163837 1.289048
v -0.364835 0.199103 1.289048
v -0.364835 0.199103 1.185937
v -0.412446 0.290565 1.289048
v -0.206223 0.290565 1.289048
v -0.206223 0.496788 1.289048
v -0.412446 0.496788 1.289048
v -0.412446 0.290565 1.185937
v -0.206223 0.290565 1.185937
v -0.364835 0.199103 1.289048
v -0.273373 0.246715 1.289048
v -0.320985 0.338176 1.289048
v -0.412446 0.290565 1.289048
v -0.273373 0.246715 1.185937
v -0.364835 0.199103 1.185937
v -0.412446 0.290565 1.185937
v -0.320985 0.338176 1.185937
v -0.206223 0.496788 1.185937
v -0.412446 0.496788 1.185937
v -0.232676 0.260731 1.185937
v -0.232676 0.260731 1.289048
v -0.329568 0.295996 1.185937
v -0.329568 0.295996 1.289048
vt 0.0000 0.1875
vt 0.0625 0.1875
vt 0.0625 0.2500
vt 0.0000 0.2500
vt 0.0000 0.0625
vt 0.1250 0.0625
vt 0.1250 0.1875
vt 0.0000 0.1875
vt 0.0000 0.1875
vt 0.0625 0.1875
vt 0.0625 0.2500
vt 0.0000 0.2500
vt 0.0000 0.1875
vt 0.0625 0.1875
vt 0.0625 0.2500
vt 0.0000 0.2500
vt 0.0000 0.1875
vt 0.0625 0.1875
vt 0.0625 0.2500
vt 0.0000 0.2500
vt 0.0625 0.1875
vt 0.0625 0.2500
vt 0.0000 0.2500
vt 0.0000 0.1875
vt 0.0625 0.1875
vt 0.0625 0.2500
vt 0.0000 0.2500
vt 0.1250 0.0625
vt 0.2500 0.0625
vt 0.2500 0.1875
vt 0.1250 0.1875
vt 0.0000 0.1875
vt 0.0625 0.2500
vt 0.0000 0.2500
vt 0.0625 0.1875
vt 0.0625 0.2500
vt 0.0000 0.2500
vt 0.0000 0.1875
vt 0.0000 0.2500
vt 0.1250 0.0625
vt 0.2500 0.0625
vt 0.2500 0.1875
vt 0.1250 0.1875
vt 0.0000 0.1875
vt 0.0625 0.1875
vt 0.0000 0.1875
vt 0.0625 0.1875
vt 0.0625 0.2500
vt 0.0000 0.2500
vt 0.0000 0.1875
vt 0.0625 0.1875
vt 0.0625 0.2500
vt 0.0625 0.1875
vt 0.0625 0.2500
vt 0.0000 0.1875
vt 0.0625 0.1875
vt 0.0625 0.2500
vt 0.0000 0.2500
vt 0.0000 0.1875
vt 0.0625 0.1875
vt 0.0000 0.2500
vn -0.3420 -0.9397 0.0000
vn 0.0000 0.0000 1.0000
vn 0.0000 -1.0000 0.0000
vn -0.0000 0.0000 -1.0000
vn 0.0000 1.0000 0.0000
vn 0.4617 -0.8870 0.0000
vn 0.9397 -0.3420 0.0000
vn 0.8870 0.4617 0.0000
vn -0.8870 -0.4617 0.0000
vn 1.0000 0.0000 0.0000
vn -0.4617 0.8870 0.0000
vn -0.9397 0.3420 0.0000
vn -1.0000 0.0000 0.0000
vn 0.3420 0.9397 0.0000
usemtl m_0
s 1
f 121/317/19 122/318/19 123/319/19 124/320/19
f 125/321/20 126/322/20 127/323/20 128/324/20
f 129/325/21 130/326/21 126/327/21 125/328/21
f 131/329/20 132/330/20 133/331/20 134/332/20
f 135/333/22 136/334/22 137/335/22 138/336/22
f 128/324/23 127/337/23 139/338/23 140/339/23
f 136/340/24 135/341/24 132/342/24 131/343/24
f 121/344/25 141/345/25 142/346/25 122/347/25
f 132/348/26 135/341/26 138/349/26 133/350/26
f 136/340/27 131/351/27 134/352/27 137/353/27
f 126/354/28 130/326/28 139/338/28 127/355/28
f 130/356/22 129/357/22 140/358/22 139/359/22
f 134/360/29 133/361/29 138/349/29 137/353/29
f 141/362/22 121/363/22 124/364/22 143/365/22
f 123/366/30 144/367/30 143/368/30 124/320/30
f 129/325/31 125/369/31 128/370/31 140/339/31
f 122/371/20 142/372/20 144/373/20 123/374/20
f 142/375/32 141/376/32 143/368/32 144/377/32
