# Blender v2.78 (sub 0) OBJ File: ''
# www.blender.org
mtllib v91torquelinelight.mtl
o cube
v 0.518059 0.535146 0.288081
v 0.315589 0.664134 0.288081
v 0.380082 0.765369 0.288081
v 0.582552 0.636381 0.288081
v 0.380082 0.765369 1.056295
v 0.582552 0.636380 1.056295
v 0.582552 0.636380 0.816228
v 0.380082 0.765369 0.816228
v -0.518059 0.535146 1.056295
v -0.315589 0.664134 1.056295
v -0.380082 0.765369 1.056295
v -0.582552 0.636380 1.056295
v -0.380082 0.765369 0.816228
v -0.582552 0.636380 0.816228
v -0.007531 -0.156507 -0.000000
v 0.160516 -0.156507 -0.000000
v 0.160516 -0.156507 1.344376
v -0.007531 -0.156507 1.344376
v -0.315589 0.664134 0.816228
v -0.160516 -0.156507 -0.000000
v 0.007531 -0.156507 -0.000000
v 0.007531 -0.156507 1.344376
v -0.160516 -0.156507 1.344376
v -0.179253 0.494808 1.344376
v -0.179253 0.494808 0.000000
v -0.295341 0.677032 0.000000
v -0.295341 0.677032 1.344376
v -0.043188 0.047197 1.344376
v 0.160516 -0.156507 1.344376
v 0.432121 0.115097 1.344376
v 0.228416 0.318802 1.344376
v -0.582552 0.636380 0.792221
v -0.380082 0.765369 0.792221
v -0.380082 0.765369 0.552155
v -0.582552 0.636380 0.552155
v -0.422217 0.340023 0.000000
v -0.538306 0.522246 0.000000
v -0.422217 0.340023 1.344376
v -0.538306 0.522246 1.344376
v -0.518059 0.535146 0.816228
v 0.315589 0.664134 1.056295
v 0.518059 0.535146 1.056295
v -0.007531 0.299621 0.000000
v 0.160516 0.299621 0.000000
v 0.380082 0.765369 0.264074
v 0.582552 0.636381 0.264074
v 0.582552 0.636381 0.024007
v 0.380082 0.765369 0.024007
v -0.518059 0.535146 0.288081
v -0.518059 0.535146 0.528147
v -0.582552 0.636380 0.528147
v -0.582552 0.636381 0.288081
v 0.518059 0.535146 0.528147
v 0.315589 0.664134 0.528147
v 0.315589 0.664134 0.024007
v 0.315589 0.664134 0.264074
v -0.432121 0.115097 1.344376
v -0.228416 0.318802 1.344376
v -0.228416 0.318802 0.000000
v -0.432121 0.115098 0.000000
v 0.380082 0.765369 0.792221
v 0.582552 0.636380 0.792221
v 0.582552 0.636380 0.552155
v 0.380082 0.765369 0.552155
v -0.315589 0.664134 0.024007
v -0.518059 0.535146 0.024007
v -0.582552 0.636381 0.024007
v -0.380082 0.765369 0.024007
v 0.582552 0.636380 0.528147
v 0.380082 0.765369 0.528148
v -0.315589 0.664134 0.264074
v -0.380082 0.765369 0.264074
v 0.518059 0.535146 0.024007
v 0.518059 0.535146 0.264074
v 0.422217 0.340023 0.000000
v 0.179253 0.494808 0.000000
v 0.295341 0.677032 0.000000
v 0.538306 0.522246 0.000000
v -0.518059 0.535146 0.264074
v -0.582552 0.636381 0.264074
v 0.380082 0.765369 1.320370
v 0.582552 0.636380 1.320370
v 0.582552 0.636380 1.080302
v 0.380082 0.765369 1.080302
v -0.007531 0.299621 1.344376
v 0.160516 0.299621 1.344376
v -0.518059 0.535146 1.320370
v -0.315589 0.664134 1.320370
v -0.380082 0.765369 1.320370
v -0.582552 0.636380 1.320370
v -0.315589 0.664134 1.080302
v -0.380082 0.765369 1.080302
v -0.582552 0.636380 1.080302
v -0.432121 0.523212 1.344376
v 0.432121 0.523212 1.344376
v 0.432121 0.523212 0.000000
v -0.432121 0.523212 0.000000
v -0.315589 0.664134 0.552155
v -0.518059 0.535146 0.552155
v 0.518059 0.535146 0.552155
v 0.315589 0.664134 0.552155
v 0.007531 0.299621 0.000000
v 0.007531 0.299621 1.344376
v 0.043188 0.047197 1.344376
v 0.043188 0.047197 -0.000000
v -0.315589 0.664134 0.528147
v -0.380082 0.765369 0.528148
v 0.315589 0.664134 0.816228
v 0.422217 0.340023 1.344376
v 0.538306 0.522246 1.344376
v 0.432121 0.115098 0.000000
v -0.432121 0.115098 0.000000
v 0.160516 -0.156507 -0.000000
v 0.432121 0.115098 0.000000
v -0.160516 0.299621 1.344376
v -0.160516 -0.156507 1.344376
v -0.432121 0.115097 1.344376
v -0.315589 0.664134 0.288081
v 0.518059 0.535146 1.080302
v 0.315589 0.664134 1.080302
v -0.043188 0.047197 -0.000000
v 0.315589 0.664134 1.320370
v 0.518059 0.535146 1.320370
v -0.518059 0.535146 1.080302
v 0.518059 0.535146 0.816228
v 0.315589 0.664134 0.792221
v -0.160516 -0.156507 -0.000000
v 0.228416 0.318802 0.000000
v 0.432121 0.115097 1.344376
v 0.179253 0.494808 1.344376
v 0.518059 0.535146 0.792221
v -0.380082 0.765369 0.288081
v -0.315589 0.664134 0.792221
v -0.160516 0.299621 0.000000
v 0.295341 0.677032 1.344376
v -0.518059 0.535146 0.792221
vt 0.0000 0.9375
vt 0.0625 0.9375
vt 0.0625 1.0000
vt 0.0000 1.0000
vt 0.6875 0.6875
vt 1.0000 0.6875
vt 1.0000 1.0000
vt 0.6875 1.0000
vt 0.0625 0.9375
vt 0.0000 0.9375
vt 0.0000 1.0000
vt 0.0625 1.0000
vt 1.0000 0.6875
vt 0.6875 0.6875
vt 0.6875 1.0000
vt 1.0000 1.0000
vt 0.0625 0.9375
vt 0.1250 0.9375
vt 0.1250 1.0000
vt 0.0625 1.0000
vt 0.0625 0.9375
vt 0.0000 0.9375
vt 0.0000 1.0000
vt 0.0625 1.0000
vt 0.0625 0.9375
vt 0.1250 0.9375
vt 0.1250 1.0000
vt 0.0625 1.0000
vt 0.1250 0.9375
vt 0.0625 0.9375
vt 0.0625 1.0000
vt 0.1250 1.0000
vt 0.0625 0.9375
vt 0.1250 0.9375
vt 0.1250 1.0000
vt 0.0625 1.0000
vt 1.0000 0.6875
vt 0.6875 0.6875
vt 0.6875 1.0000
vt 1.0000 1.0000
vt 0.1250 0.9375
vt 0.0625 0.9375
vt 0.0625 1.0000
vt 0.1250 1.0000
vt 0.1250 0.9375
vt 0.0625 0.9375
vt 0.0625 1.0000
vt 0.1250 1.0000
vt 0.0625 0.9375
vt 0.0000 1.0000
vt 0.0625 1.0000
vt 0.0000 0.9375
vt 0.0625 0.9375
vt 0.0625 1.0000
vt 0.0000 1.0000
vt 0.0625 0.9375
vt 0.1250 0.9375
vt 0.1250 1.0000
vt 0.0625 1.0000
vt 0.6875 0.6875
vt 1.0000 0.6875
vt 1.0000 1.0000
vt 0.6875 1.0000
vt 0.0625 0.9375
vt 0.0000 0.9375
vt 0.0000 1.0000
vt 0.0625 1.0000
vt 0.0000 0.9375
vt 0.0000 1.0000
vt 0.0625 1.0000
vt 0.0000 0.9375
vt 0.0625 0.9375
vt 0.0625 1.0000
vt 0.0000 1.0000
vt 0.0000 0.9375
vt 0.0625 0.9375
vt 0.0625 1.0000
vt 0.0000 1.0000
vt 0.1250 0.9375
vt 0.0625 0.9375
vt 0.0625 1.0000
vt 0.1250 1.0000
vt 0.6875 0.6875
vt 1.0000 0.6875
vt 1.0000 1.0000
vt 0.6875 1.0000
vt 0.0625 0.9375
vt 0.0000 0.9375
vt 0.0000 1.0000
vt 0.0625 1.0000
vt 0.0000 0.9375
vt 0.0625 0.9375
vt 0.0625 1.0000
vt 0.0000 1.0000
vt 0.0625 0.9375
vt 0.0000 0.9375
vt 0.0000 1.0000
vt 0.0625 1.0000
vt 0.0625 0.9375
vt 0.0625 1.0000
vt 0.0000 1.0000
vt 0.0625 0.9375
vt 0.1250 0.9375
vt 0.1250 1.0000
vt 0.0625 1.0000
vt 0.0625 0.9375
vt 0.0000 0.9375
vt 0.0000 1.0000
vt 0.0625 1.0000
vt 0.6875 0.6875
vt 1.0000 0.6875
vt 1.0000 1.0000
vt 0.6875 1.0000
vt 0.1250 0.9375
vt 0.0625 1.0000
vt 0.1250 1.0000
vt 0.0625 0.9375
vt 0.1250 0.9375
vt 0.1250 1.0000
vt 0.0625 1.0000
vt 0.0625 0.9375
vt 0.0000 0.9375
vt 0.0000 1.0000
vt 0.0625 1.0000
vt 0.0625 0.9375
vt 0.0000 0.9375
vt 0.0000 1.0000
vt 0.0625 1.0000
vt 1.0000 0.6875
vt 0.6875 0.6875
vt 0.6875 1.0000
vt 1.0000 1.0000
vt 0.0625 0.9375
vt 0.0000 0.9375
vt 0.0000 1.0000
vt 0.0625 1.0000
vt 0.0625 0.9375
vt 0.1250 0.9375
vt 0.1250 1.0000
vt 0.0625 1.0000
vt 0.0625 0.9375
vt 0.0000 0.9375
vt 0.0000 1.0000
vt 0.0625 1.0000
vt 0.0000 0.9375
vt 0.0625 0.9375
vt 0.0625 1.0000
vt 0.0000 1.0000
vt 0.0625 0.9375
vt 0.1250 1.0000
vt 0.0625 1.0000
vt 0.1250 0.9375
vt 0.0625 0.9375
vt 0.1250 1.0000
vt 0.0625 0.9375
vt 0.0000 0.9375
vt 0.0000 1.0000
vt 0.0625 1.0000
vt 0.0000 0.9375
vt 0.0625 0.9375
vt 0.0625 1.0000
vt 0.0000 1.0000
vt 0.0625 0.9375
vt 0.0000 0.9375
vt 0.0000 1.0000
vt 0.0625 1.0000
vt 0.0625 0.9375
vt 0.1250 0.9375
vt 0.1250 1.0000
vt 0.0625 1.0000
vt 0.0625 0.9375
vt 0.1250 0.9375
vt 0.1250 1.0000
vt 0.0625 1.0000
vt 0.0625 0.9375
vt 0.1250 0.9375
vt 0.1250 1.0000
vt 0.0625 1.0000
vt 0.0625 0.9375
vt 0.1250 0.9375
vt 0.1250 1.0000
vt 0.0625 1.0000
vt 0.1250 0.9375
vt 0.0625 0.9375
vt 0.0625 1.0000
vt 0.1250 1.0000
vt 0.0000 0.9375
vt 0.0625 1.0000
vt 0.0000 1.0000
vt 0.0625 0.9375
vt 0.0625 1.0000
vt 0.1250 1.0000
vt 0.0625 0.9375
vt 0.1250 0.9375
vt 0.1250 1.0000
vt 0.0000 0.9375
vt 0.0000 1.0000
vt 0.0625 1.0000
vt 0.0000 0.9375
vt 0.0625 0.9375
vt 0.0625 1.0000
vt 0.0000 1.0000
vt 0.0625 0.9375
vt 0.1250 1.0000
vt 0.0625 1.0000
vt 0.0000 0.9375
vt 0.0625 1.0000
vt 0.0000 1.0000
vt 0.0000 0.9375
vt 0.0625 0.9375
vt 0.0625 1.0000
vt 0.0000 1.0000
vt 0.0000 0.9375
vt 0.0625 0.9375
vt 0.0625 1.0000
vt 0.0000 1.0000
vt 0.0625 0.9375
vt 0.0000 0.9375
vt 0.0000 1.0000
vt 0.0625 1.0000
vt 0.0000 0.9375
vt 0.0625 0.9375
vt 0.0625 1.0000
vt 0.0000 1.0000
vt 0.0000 0.9375
vt 0.0625 0.9375
vt 0.0625 1.0000
vt 0.0000 1.0000
vt 0.0000 0.9375
vt 0.0625 0.9375
vt 0.0625 1.0000
vt 0.0000 1.0000
vt 0.1250 0.9375
vt 0.0625 1.0000
vt 0.1250 1.0000
vt 0.0625 0.9375
vt 0.0625 1.0000
vt 0.0625 0.9375
vt 0.0000 1.0000
vt 0.0625 1.0000
vt 0.0625 0.9375
vt 0.1250 0.9375
vt 0.1250 1.0000
vt 0.0625 1.0000
vt 0.0625 0.9375
vt 0.1250 0.9375
vt 0.1250 1.0000
vt 0.0625 1.0000
vt 0.1250 0.9375
vt 0.0625 0.9375
vt 0.0000 0.9375
vt 0.0625 0.9375
vt 0.0625 1.0000
vt 0.0000 1.0000
vt 0.0625 0.9375
vt 0.1250 1.0000
vt 0.0625 1.0000
vt 0.0000 1.0000
vt 0.0625 1.0000
vt 0.0000 0.9375
vt 0.0625 0.9375
vt 0.0625 1.0000
vt 0.0000 1.0000
vt 0.0000 0.9375
vt 0.0625 0.9375
vt 0.0625 1.0000
vt 0.0000 1.0000
vt 0.0625 0.9375
vt 0.0000 1.0000
vt 0.0625 1.0000
vt 0.0000 0.9375
vt 0.0625 0.9375
vt 0.0625 1.0000
vt 0.0000 1.0000
vt 1.0000 0.6875
vt 0.6875 0.6875
vt 0.6875 1.0000
vt 1.0000 1.0000
vt 0.0625 1.0000
vt 0.0000 1.0000
vt 0.1250 0.9375
vt 0.0625 0.9375
vt 0.0625 1.0000
vt 0.1250 1.0000
vt 0.0625 0.9375
vt 0.0000 0.9375
vt 0.0000 1.0000
vt 0.0625 1.0000
vt 0.0625 0.9375
vt 0.0625 1.0000
vt 0.0000 1.0000
vt 0.1250 0.9375
vt 0.1250 1.0000
vt 0.0625 1.0000
vt 0.0625 1.0000
vt 0.0000 1.0000
vt 0.6875 0.6875
vt 1.0000 0.6875
vt 1.0000 1.0000
vt 0.6875 1.0000
vt 0.0625 0.9375
vt 0.1250 0.9375
vt 0.1250 1.0000
vt 0.0625 1.0000
vt 0.0625 0.9375
vt 0.1250 0.9375
vt 0.0625 1.0000
vt 0.0000 0.9375
vt 0.0000 1.0000
vt 0.0625 1.0000
vt 0.0625 0.9375
vt 0.1250 0.9375
vt 0.0625 1.0000
vt 0.0625 0.9375
vt 0.0625 1.0000
vt 0.1250 0.9375
vt 0.1250 1.0000
vt 0.1250 0.9375
vt 0.1250 1.0000
vt 0.0625 1.0000
vt 0.0625 0.9375
vt 0.0000 0.9375
vt 0.0000 1.0000
vt 0.0625 1.0000
vt 0.0625 0.9375
vt 0.1250 0.9375
vt 0.1250 1.0000
vt 0.0625 1.0000
vt 0.0625 0.9375
vt 0.1250 0.9375
vt 0.1250 1.0000
vt 0.0625 1.0000
vt 0.0625 0.9375
vt 0.0000 1.0000
vt 0.0625 1.0000
vt 0.0625 0.9375
vt 0.0000 0.9375
vt 0.0000 1.0000
vt 0.0625 1.0000
vt 0.0625 0.9375
vt 0.0625 1.0000
vt 0.0000 0.9375
vt 0.0000 1.0000
vt 0.0625 1.0000
vt 0.0625 0.9375
vt 0.1250 0.9375
vt 0.0000 0.9375
vt 0.0625 0.9375
vt 0.0625 1.0000
vt 0.0000 1.0000
vt 0.0625 1.0000
vt 0.0000 1.0000
vt 0.1250 0.9375
vt 0.1250 1.0000
vt 1.0000 0.6875
vt 0.6875 0.6875
vt 0.6875 1.0000
vt 1.0000 1.0000
vt 0.1250 0.9375
vt 0.1250 1.0000
vn 0.0000 0.0000 -1.0000
vn 0.5373 0.8434 0.0000
vn 0.0000 0.0000 1.0000
vn -0.5373 0.8434 0.0000
vn 0.0000 -1.0000 -0.0000
vn 0.8434 0.5373 0.0000
vn 0.5373 -0.8434 0.0000
vn -0.8434 -0.5373 -0.0000
vn -0.5373 -0.8434 0.0000
vn -0.8434 0.5373 0.0000
vn -0.7071 0.7071 0.0000
vn 0.0000 1.0000 0.0000
vn 1.0000 0.0000 0.0000
vn 0.7071 0.7071 0.0000
vn 0.8434 -0.5373 -0.0000
vn 0.7071 -0.7071 -0.0000
vn -1.0000 0.0000 0.0000
vn -0.7071 -0.7071 -0.0000
usemtl m_0
s 1
f 1/1/1 2/2/1 3/3/1 4/4/1
f 5/5/2 6/6/2 7/7/2 8/8/2
f 9/9/3 10/10/3 11/11/3 12/12/3
f 12/13/4 11/14/4 13/15/4 14/16/4
f 15/17/5 16/18/5 17/19/5 18/20/5
f 10/21/6 19/22/6 13/23/6 11/24/6
f 20/25/5 21/26/5 22/27/5 23/28/5
f 24/29/6 25/30/6 26/31/6 27/32/6
f 28/33/3 29/34/3 30/35/3 31/36/3
f 32/37/4 33/38/4 34/39/4 35/40/4
f 25/41/1 36/42/1 37/43/1 26/44/1
f 38/45/3 24/46/3 27/47/3 39/48/3
f 40/49/7 19/22/7 10/50/7 9/51/7
f 41/52/3 42/53/3 6/54/3 5/55/3
f 16/56/1 15/57/1 43/58/1 44/59/1
f 45/60/2 46/61/2 47/62/2 48/63/2
f 49/64/8 50/65/8 51/66/8 52/67/8
f 40/49/8 9/68/8 12/69/8 14/70/8
f 2/71/9 1/72/9 53/73/9 54/74/9
f 55/75/10 56/76/10 45/77/10 48/78/10
f 57/79/11 58/80/11 59/81/11 60/82/11
f 61/83/2 62/84/2 63/85/2 64/86/2
f 65/87/1 66/88/1 67/89/1 68/90/1
f 54/91/3 53/92/3 69/93/3 70/94/3
f 71/95/6 65/96/6 68/97/6 72/98/6
f 55/75/9 73/99/9 74/100/9 56/101/9
f 75/102/1 76/103/1 77/104/1 78/105/1
f 79/106/3 71/107/3 72/108/3 80/109/3
f 81/110/2 82/111/2 83/112/2 84/113/2
f 36/114/7 25/30/7 24/115/7 38/116/7
f 85/117/12 86/118/12 44/119/12 43/120/12
f 87/121/3 88/122/3 89/123/3 90/124/3
f 88/125/6 91/126/6 92/127/6 89/128/6
f 90/129/4 89/130/4 92/131/4 93/132/4
f 19/133/1 40/134/1 14/135/1 13/136/1
f 94/137/12 95/138/12 96/139/12 97/140/12
f 98/141/1 99/142/1 35/143/1 34/144/1
f 100/145/1 101/146/1 64/147/1 63/148/1
f 22/149/13 21/26/13 102/150/13 103/151/13
f 104/152/14 105/153/14 59/81/14 58/154/14
f 50/155/3 106/156/3 107/157/3 51/158/3
f 108/159/10 41/160/10 5/161/10 8/162/10
f 66/163/8 79/164/8 80/165/8 67/166/8
f 109/167/15 75/168/15 78/169/15 110/170/15
f 111/171/1 112/172/1 97/173/1 96/174/1
f 29/175/16 113/176/16 114/177/16 30/178/16
f 23/179/3 22/180/3 103/181/3 115/182/3
f 116/183/3 104/184/3 58/185/3 57/186/3
f 53/187/15 1/72/15 4/188/15 69/189/15
f 36/114/8 38/190/8 39/191/8 37/192/8
f 112/193/17 117/194/17 94/195/17 97/140/17
f 49/64/7 118/196/7 106/197/7 50/198/7
f 119/199/1 120/200/1 84/201/1 83/202/1
f 121/203/18 113/176/18 29/204/18 28/205/18
f 74/206/15 73/99/15 47/207/15 46/208/15
f 122/209/3 123/210/3 82/211/3 81/212/3
f 56/213/3 74/214/3 46/215/3 45/216/3
f 91/217/1 124/218/1 93/219/1 92/220/1
f 125/221/1 108/222/1 8/223/1 7/224/1
f 101/225/10 126/226/10 61/227/10 64/228/10
f 123/229/15 119/230/15 83/231/15 82/232/15
f 127/233/16 105/153/16 104/234/16 116/235/16
f 17/236/13 16/18/13 44/119/13 86/237/13
f 124/238/7 91/126/7 88/239/7 87/240/7
f 113/241/1 121/242/1 128/243/1 114/244/1
f 117/245/3 129/246/3 95/247/3 94/248/3
f 39/249/4 27/250/4 26/31/4 37/192/4
f 42/251/15 125/252/15 7/253/15 6/254/15
f 76/255/9 75/168/9 109/256/9 130/257/9
f 66/163/7 65/96/7 71/258/7 79/259/7
f 126/260/3 131/261/3 62/262/3 61/263/3
f 120/264/10 122/265/10 81/266/10 84/267/10
f 106/268/6 118/196/6 132/269/6 107/270/6
f 131/271/15 100/272/15 63/273/15 62/274/15
f 51/275/4 107/276/4 132/277/4 52/278/4
f 120/264/9 119/230/9 123/279/9 122/280/9
f 105/281/1 127/282/1 60/283/1 59/284/1
f 133/285/6 98/286/6 34/287/6 33/288/6
f 2/71/10 54/289/10 70/290/10 3/291/10
f 112/193/5 111/292/5 129/293/5 117/294/5
f 108/159/9 125/252/9 42/295/9 41/296/9
f 70/297/2 69/298/2 4/299/2 3/300/2
f 18/301/3 17/302/3 86/303/3 85/304/3
f 115/305/12 103/306/12 102/150/12 134/307/12
f 124/238/8 87/308/8 90/309/8 93/310/8
f 135/311/2 110/312/2 78/169/2 77/313/2
f 127/233/18 116/314/18 57/315/18 60/82/18
f 20/25/17 23/316/17 115/317/17 134/307/17
f 121/203/11 28/318/11 31/319/11 128/320/11
f 118/321/1 49/322/1 52/323/1 132/324/1
f 130/325/3 109/326/3 110/327/3 135/328/3
f 21/329/1 20/330/1 134/331/1 102/332/1
f 99/333/7 98/286/7 133/334/7 136/335/7
f 136/336/3 133/337/3 33/338/3 32/339/3
f 129/340/13 111/292/13 96/139/13 95/341/13
f 99/333/8 136/342/8 32/343/8 35/344/8
f 31/345/14 30/346/14 114/177/14 128/320/14
f 73/347/1 55/348/1 48/349/1 47/350/1
f 101/225/9 100/272/9 131/351/9 126/352/9
f 15/17/17 18/353/17 85/354/17 43/120/17
f 80/355/4 72/356/4 68/357/4 67/358/4
f 76/255/10 130/359/10 135/360/10 77/313/10
