# Blender v2.78 (sub 0) OBJ File: ''
# www.blender.org
mtllib v91torquelinelightturbo.mtl
o turbo
v -0.249532 0.141118 1.344376
v -0.249532 0.141118 1.440403
v -0.339768 0.173962 1.440403
v -0.339768 0.173962 1.344376
v -0.384108 0.259139 1.440403
v -0.192054 0.259139 1.440403
v -0.192054 0.451192 1.440403
v -0.384108 0.451192 1.440403
v -0.384108 0.259139 1.344376
v -0.192054 0.259139 1.344376
v -0.339768 0.173962 1.440403
v -0.254591 0.218302 1.440403
v -0.298931 0.303479 1.440403
v -0.384108 0.259139 1.440403
v -0.254591 0.218302 1.344376
v -0.339768 0.173962 1.344376
v -0.384108 0.259139 1.344376
v -0.298931 0.303479 1.344376
v -0.192054 0.451192 1.344376
v -0.384108 0.451192 1.344376
v -0.216688 0.231354 1.344376
v -0.216688 0.231354 1.440403
v -0.306923 0.264197 1.344376
v -0.306923 0.264197 1.440403
vt 0.0000 0.1875
vt 0.0625 0.1875
vt 0.0625 0.2500
vt 0.0000 0.2500
vt 0.0000 0.0625
vt 0.1250 0.0625
vt 0.1250 0.1875
vt 0.0000 0.1875
vt 0.0000 0.1875
vt 0.0625 0.1875
vt 0.0625 0.2500
vt 0.0000 0.2500
vt 0.0000 0.1875
vt 0.0625 0.1875
vt 0.0625 0.2500
vt 0.0000 0.2500
vt 0.0000 0.1875
vt 0.0625 0.1875
vt 0.0625 0.2500
vt 0.0000 0.2500
vt 0.0625 0.1875
vt 0.0625 0.2500
vt 0.0000 0.2500
vt 0.0000 0.1875
vt 0.0625 0.1875
vt 0.0625 0.2500
vt 0.0000 0.2500
vt 0.1250 0.0625
vt 0.2500 0.0625
vt 0.2500 0.1875
vt 0.1250 0.1875
vt 0.0000 0.1875
vt 0.0625 0.2500
vt 0.0000 0.2500
vt 0.0625 0.1875
vt 0.0625 0.2500
vt 0.0000 0.2500
vt 0.0000 0.1875
vt 0.0000 0.2500
vt 0.1250 0.0625
vt 0.2500 0.0625
vt 0.2500 0.1875
vt 0.1250 0.1875
vt 0.0000 0.1875
vt 0.0625 0.1875
vt 0.0000 0.1875
vt 0.0625 0.1875
vt 0.0625 0.2500
vt 0.0000 0.2500
vt 0.0000 0.1875
vt 0.0625 0.1875
vt 0.0625 0.2500
vt 0.0625 0.1875
vt 0.0625 0.2500
vt 0.0000 0.1875
vt 0.0625 0.1875
vt 0.0625 0.2500
vt 0.0000 0.2500
vt 0.0000 0.1875
vt 0.0625 0.1875
vt 0.0000 0.2500
vn -0.3420 -0.9397 0.0000
vn 0.0000 0.0000 1.0000
vn 0.0000 -1.0000 0.0000
vn 0.0000 0.0000 -1.0000
vn 0.0000 1.0000 0.0000
vn 0.4617 -0.8870 0.0000
vn 0.9397 -0.3420 0.0000
vn 0.8870 0.4617 0.0000
vn -0.8870 -0.4617 0.0000
vn 1.0000 0.0000 0.0000
vn -0.4617 0.8870 0.0000
vn -0.9397 0.3420 0.0000
vn -1.0000 0.0000 0.0000
vn 0.3420 0.9397 0.0000
usemtl m_0
s 1
f 1/1/1 2/2/1 3/3/1 4/4/1
f 5/5/2 6/6/2 7/7/2 8/8/2
f 9/9/3 10/10/3 6/11/3 5/12/3
f 11/13/2 12/14/2 13/15/2 14/16/2
f 15/17/4 16/18/4 17/19/4 18/20/4
f 8/8/5 7/21/5 19/22/5 20/23/5
f 16/24/6 15/25/6 12/26/6 11/27/6
f 1/28/7 21/29/7 22/30/7 2/31/7
f 12/32/8 15/25/8 18/33/8 13/34/8
f 16/24/9 11/35/9 14/36/9 17/37/9
f 6/38/10 10/10/10 19/22/10 7/39/10
f 10/40/4 9/41/4 20/42/4 19/43/4
f 14/44/11 13/45/11 18/33/11 17/37/11
f 21/46/4 1/47/4 4/48/4 23/49/4
f 3/50/12 24/51/12 23/52/12 4/4/12
f 9/9/13 5/53/13 8/54/13 20/23/13
f 2/55/2 22/56/2 24/57/2 3/58/2
f 22/59/14 21/60/14 23/52/14 24/61/14
o cube
v 0.518059 0.535146 0.288081
v 0.315589 0.664134 0.288081
v 0.380082 0.765369 0.288081
v 0.582552 0.636381 0.288081
v 0.380082 0.765369 1.056295
v 0.582552 0.636380 1.056295
v 0.582552 0.636380 0.816228
v 0.380082 0.765369 0.816228
v -0.518059 0.535146 1.056295
v -0.315589 0.664134 1.056295
v -0.380082 0.765369 1.056295
v -0.582552 0.636380 1.056295
v -0.380082 0.765369 0.816228
v -0.582552 0.636380 0.816228
v -0.007531 -0.156507 -0.000000
v 0.160516 -0.156507 -0.000000
v 0.160516 -0.156507 1.344376
v -0.007531 -0.156507 1.344376
v -0.315589 0.664134 0.816228
v -0.160516 -0.156507 -0.000000
v 0.007531 -0.156507 -0.000000
v 0.007531 -0.156507 1.344376
v -0.160516 -0.156507 1.344376
v -0.179253 0.494808 1.344376
v -0.179253 0.494808 0.000000
v -0.295341 0.677032 0.000000
v -0.295341 0.677032 1.344376
v -0.043188 0.047197 1.344376
v 0.160516 -0.156507 1.344376
v 0.432121 0.115097 1.344376
v 0.228416 0.318802 1.344376
v -0.582552 0.636380 0.792221
v -0.380082 0.765369 0.792221
v -0.380082 0.765369 0.552155
v -0.582552 0.636380 0.552155
v -0.422217 0.340023 0.000000
v -0.538306 0.522246 0.000000
v -0.422217 0.340023 1.344376
v -0.538306 0.522246 1.344376
v -0.518059 0.535146 0.816228
v 0.315589 0.664134 1.056295
v 0.518059 0.535146 1.056295
v -0.007531 0.299621 0.000000
v 0.160516 0.299621 0.000000
v 0.380082 0.765369 0.264074
v 0.582552 0.636381 0.264074
v 0.582552 0.636381 0.024007
v 0.380082 0.765369 0.024007
v -0.518059 0.535146 0.288081
v -0.518059 0.535146 0.528147
v -0.582552 0.636380 0.528147
v -0.582552 0.636381 0.288081
v 0.518059 0.535146 0.528147
v 0.315589 0.664134 0.528147
v 0.315589 0.664134 0.024007
v 0.315589 0.664134 0.264074
v -0.432121 0.115097 1.344376
v -0.228416 0.318802 1.344376
v -0.228416 0.318802 0.000000
v -0.432121 0.115098 0.000000
v 0.380082 0.765369 0.792221
v 0.582552 0.636380 0.792221
v 0.582552 0.636380 0.552155
v 0.380082 0.765369 0.552155
v -0.315589 0.664134 0.024007
v -0.518059 0.535146 0.024007
v -0.582552 0.636381 0.024007
v -0.380082 0.765369 0.024007
v 0.582552 0.636380 0.528147
v 0.380082 0.765369 0.528148
v -0.315589 0.664134 0.264074
v -0.380082 0.765369 0.264074
v 0.518059 0.535146 0.024007
v 0.518059 0.535146 0.264074
v 0.422217 0.340023 0.000000
v 0.179253 0.494808 0.000000
v 0.295341 0.677032 0.000000
v 0.538306 0.522246 0.000000
v -0.518059 0.535146 0.264074
v -0.582552 0.636381 0.264074
v 0.380082 0.765369 1.320370
v 0.582552 0.636380 1.320370
v 0.582552 0.636380 1.080302
v 0.380082 0.765369 1.080302
v -0.007531 0.299621 1.344376
v 0.160516 0.299621 1.344376
v -0.518059 0.535146 1.320370
v -0.315589 0.664134 1.320370
v -0.380082 0.765369 1.320370
v -0.582552 0.636380 1.320370
v -0.315589 0.664134 1.080302
v -0.380082 0.765369 1.080302
v -0.582552 0.636380 1.080302
v -0.432121 0.523212 1.344376
v 0.432121 0.523212 1.344376
v 0.432121 0.523212 0.000000
v -0.432121 0.523212 0.000000
v -0.315589 0.664134 0.552155
v -0.518059 0.535146 0.552155
v 0.518059 0.535146 0.552155
v 0.315589 0.664134 0.552155
v 0.007531 0.299621 0.000000
v 0.007531 0.299621 1.344376
v 0.043188 0.047197 1.344376
v 0.043188 0.047197 -0.000000
v -0.315589 0.664134 0.528147
v -0.380082 0.765369 0.528148
v 0.315589 0.664134 0.816228
v 0.422217 0.340023 1.344376
v 0.538306 0.522246 1.344376
v 0.432121 0.115098 0.000000
v -0.432121 0.115098 0.000000
v 0.160516 -0.156507 -0.000000
v 0.432121 0.115098 0.000000
v -0.160516 0.299621 1.344376
v -0.160516 -0.156507 1.344376
v -0.432121 0.115097 1.344376
v -0.315589 0.664134 0.288081
v 0.518059 0.535146 1.080302
v 0.315589 0.664134 1.080302
v -0.043188 0.047197 -0.000000
v 0.315589 0.664134 1.320370
v 0.518059 0.535146 1.320370
v -0.518059 0.535146 1.080302
v 0.518059 0.535146 0.816228
v 0.315589 0.664134 0.792221
v -0.160516 -0.156507 -0.000000
v 0.228416 0.318802 0.000000
v 0.432121 0.115097 1.344376
v 0.179253 0.494808 1.344376
v 0.518059 0.535146 0.792221
v -0.380082 0.765369 0.288081
v -0.315589 0.664134 0.792221
v -0.160516 0.299621 0.000000
v 0.295341 0.677032 1.344376
v -0.518059 0.535146 0.792221
vt 0.0000 0.9375
vt 0.0625 0.9375
vt 0.0625 1.0000
vt 0.0000 1.0000
vt 0.6875 0.6875
vt 1.0000 0.6875
vt 1.0000 1.0000
vt 0.6875 1.0000
vt 0.0625 0.9375
vt 0.0000 0.9375
vt 0.0000 1.0000
vt 0.0625 1.0000
vt 1.0000 0.6875
vt 0.6875 0.6875
vt 0.6875 1.0000
vt 1.0000 1.0000
vt 0.0625 0.9375
vt 0.1250 0.9375
vt 0.1250 1.0000
vt 0.0625 1.0000
vt 0.0625 0.9375
vt 0.0000 0.9375
vt 0.0000 1.0000
vt 0.0625 1.0000
vt 0.0625 0.9375
vt 0.1250 0.9375
vt 0.1250 1.0000
vt 0.0625 1.0000
vt 0.1250 0.9375
vt 0.0625 0.9375
vt 0.0625 1.0000
vt 0.1250 1.0000
vt 0.0625 0.9375
vt 0.1250 0.9375
vt 0.1250 1.0000
vt 0.0625 1.0000
vt 1.0000 0.6875
vt 0.6875 0.6875
vt 0.6875 1.0000
vt 1.0000 1.0000
vt 0.1250 0.9375
vt 0.0625 0.9375
vt 0.0625 1.0000
vt 0.1250 1.0000
vt 0.1250 0.9375
vt 0.0625 0.9375
vt 0.0625 1.0000
vt 0.1250 1.0000
vt 0.0625 0.9375
vt 0.0000 1.0000
vt 0.0625 1.0000
vt 0.0000 0.9375
vt 0.0625 0.9375
vt 0.0625 1.0000
vt 0.0000 1.0000
vt 0.0625 0.9375
vt 0.1250 0.9375
vt 0.1250 1.0000
vt 0.0625 1.0000
vt 0.6875 0.6875
vt 1.0000 0.6875
vt 1.0000 1.0000
vt 0.6875 1.0000
vt 0.0625 0.9375
vt 0.0000 0.9375
vt 0.0000 1.0000
vt 0.0625 1.0000
vt 0.0000 0.9375
vt 0.0000 1.0000
vt 0.0625 1.0000
vt 0.0000 0.9375
vt 0.0625 0.9375
vt 0.0625 1.0000
vt 0.0000 1.0000
vt 0.0000 0.9375
vt 0.0625 0.9375
vt 0.0625 1.0000
vt 0.0000 1.0000
vt 0.1250 0.9375
vt 0.0625 0.9375
vt 0.0625 1.0000
vt 0.1250 1.0000
vt 0.6875 0.6875
vt 1.0000 0.6875
vt 1.0000 1.0000
vt 0.6875 1.0000
vt 0.0625 0.9375
vt 0.0000 0.9375
vt 0.0000 1.0000
vt 0.0625 1.0000
vt 0.0000 0.9375
vt 0.0625 0.9375
vt 0.0625 1.0000
vt 0.0000 1.0000
vt 0.0625 0.9375
vt 0.0000 0.9375
vt 0.0000 1.0000
vt 0.0625 1.0000
vt 0.0625 0.9375
vt 0.0625 1.0000
vt 0.0000 1.0000
vt 0.0625 0.9375
vt 0.1250 0.9375
vt 0.1250 1.0000
vt 0.0625 1.0000
vt 0.0625 0.9375
vt 0.0000 0.9375
vt 0.0000 1.0000
vt 0.0625 1.0000
vt 0.6875 0.6875
vt 1.0000 0.6875
vt 1.0000 1.0000
vt 0.6875 1.0000
vt 0.1250 0.9375
vt 0.0625 1.0000
vt 0.1250 1.0000
vt 0.0625 0.9375
vt 0.1250 0.9375
vt 0.1250 1.0000
vt 0.0625 1.0000
vt 0.0625 0.9375
vt 0.0000 0.9375
vt 0.0000 1.0000
vt 0.0625 1.0000
vt 0.0625 0.9375
vt 0.0000 0.9375
vt 0.0000 1.0000
vt 0.0625 1.0000
vt 1.0000 0.6875
vt 0.6875 0.6875
vt 0.6875 1.0000
vt 1.0000 1.0000
vt 0.0625 0.9375
vt 0.0000 0.9375
vt 0.0000 1.0000
vt 0.0625 1.0000
vt 0.0625 0.9375
vt 0.1250 0.9375
vt 0.1250 1.0000
vt 0.0625 1.0000
vt 0.0625 0.9375
vt 0.0000 0.9375
vt 0.0000 1.0000
vt 0.0625 1.0000
vt 0.0000 0.9375
vt 0.0625 0.9375
vt 0.0625 1.0000
vt 0.0000 1.0000
vt 0.0625 0.9375
vt 0.1250 1.0000
vt 0.0625 1.0000
vt 0.1250 0.9375
vt 0.0625 0.9375
vt 0.1250 1.0000
vt 0.0625 0.9375
vt 0.0000 0.9375
vt 0.0000 1.0000
vt 0.0625 1.0000
vt 0.0000 0.9375
vt 0.0625 0.9375
vt 0.0625 1.0000
vt 0.0000 1.0000
vt 0.0625 0.9375
vt 0.0000 0.9375
vt 0.0000 1.0000
vt 0.0625 1.0000
vt 0.0625 0.9375
vt 0.1250 0.9375
vt 0.1250 1.0000
vt 0.0625 1.0000
vt 0.0625 0.9375
vt 0.1250 0.9375
vt 0.1250 1.0000
vt 0.0625 1.0000
vt 0.0625 0.9375
vt 0.1250 0.9375
vt 0.1250 1.0000
vt 0.0625 1.0000
vt 0.0625 0.9375
vt 0.1250 0.9375
vt 0.1250 1.0000
vt 0.0625 1.0000
vt 0.1250 0.9375
vt 0.0625 0.9375
vt 0.0625 1.0000
vt 0.1250 1.0000
vt 0.0000 0.9375
vt 0.0625 1.0000
vt 0.0000 1.0000
vt 0.0625 0.9375
vt 0.0625 1.0000
vt 0.1250 1.0000
vt 0.0625 0.9375
vt 0.1250 0.9375
vt 0.1250 1.0000
vt 0.0000 0.9375
vt 0.0000 1.0000
vt 0.0625 1.0000
vt 0.0000 0.9375
vt 0.0625 0.9375
vt 0.0625 1.0000
vt 0.0000 1.0000
vt 0.0625 0.9375
vt 0.1250 1.0000
vt 0.0625 1.0000
vt 0.0000 0.9375
vt 0.0625 1.0000
vt 0.0000 1.0000
vt 0.0000 0.9375
vt 0.0625 0.9375
vt 0.0625 1.0000
vt 0.0000 1.0000
vt 0.0000 0.9375
vt 0.0625 0.9375
vt 0.0625 1.0000
vt 0.0000 1.0000
vt 0.0625 0.9375
vt 0.0000 0.9375
vt 0.0000 1.0000
vt 0.0625 1.0000
vt 0.0000 0.9375
vt 0.0625 0.9375
vt 0.0625 1.0000
vt 0.0000 1.0000
vt 0.0000 0.9375
vt 0.0625 0.9375
vt 0.0625 1.0000
vt 0.0000 1.0000
vt 0.0000 0.9375
vt 0.0625 0.9375
vt 0.0625 1.0000
vt 0.0000 1.0000
vt 0.1250 0.9375
vt 0.0625 1.0000
vt 0.1250 1.0000
vt 0.0625 0.9375
vt 0.0625 1.0000
vt 0.0625 0.9375
vt 0.0000 1.0000
vt 0.0625 1.0000
vt 0.0625 0.9375
vt 0.1250 0.9375
vt 0.1250 1.0000
vt 0.0625 1.0000
vt 0.0625 0.9375
vt 0.1250 0.9375
vt 0.1250 1.0000
vt 0.0625 1.0000
vt 0.1250 0.9375
vt 0.0625 0.9375
vt 0.0000 0.9375
vt 0.0625 0.9375
vt 0.0625 1.0000
vt 0.0000 1.0000
vt 0.0625 0.9375
vt 0.1250 1.0000
vt 0.0625 1.0000
vt 0.0000 1.0000
vt 0.0625 1.0000
vt 0.0000 0.9375
vt 0.0625 0.9375
vt 0.0625 1.0000
vt 0.0000 1.0000
vt 0.0000 0.9375
vt 0.0625 0.9375
vt 0.0625 1.0000
vt 0.0000 1.0000
vt 0.0625 0.9375
vt 0.0000 1.0000
vt 0.0625 1.0000
vt 0.0000 0.9375
vt 0.0625 0.9375
vt 0.0625 1.0000
vt 0.0000 1.0000
vt 1.0000 0.6875
vt 0.6875 0.6875
vt 0.6875 1.0000
vt 1.0000 1.0000
vt 0.0625 1.0000
vt 0.0000 1.0000
vt 0.1250 0.9375
vt 0.0625 0.9375
vt 0.0625 1.0000
vt 0.1250 1.0000
vt 0.0625 0.9375
vt 0.0000 0.9375
vt 0.0000 1.0000
vt 0.0625 1.0000
vt 0.0625 0.9375
vt 0.0625 1.0000
vt 0.0000 1.0000
vt 0.1250 0.9375
vt 0.1250 1.0000
vt 0.0625 1.0000
vt 0.0625 1.0000
vt 0.0000 1.0000
vt 0.6875 0.6875
vt 1.0000 0.6875
vt 1.0000 1.0000
vt 0.6875 1.0000
vt 0.0625 0.9375
vt 0.1250 0.9375
vt 0.1250 1.0000
vt 0.0625 1.0000
vt 0.0625 0.9375
vt 0.1250 0.9375
vt 0.0625 1.0000
vt 0.0000 0.9375
vt 0.0000 1.0000
vt 0.0625 1.0000
vt 0.0625 0.9375
vt 0.1250 0.9375
vt 0.0625 1.0000
vt 0.0625 0.9375
vt 0.0625 1.0000
vt 0.1250 0.9375
vt 0.1250 1.0000
vt 0.1250 0.9375
vt 0.1250 1.0000
vt 0.0625 1.0000
vt 0.0625 0.9375
vt 0.0000 0.9375
vt 0.0000 1.0000
vt 0.0625 1.0000
vt 0.0625 0.9375
vt 0.1250 0.9375
vt 0.1250 1.0000
vt 0.0625 1.0000
vt 0.0625 0.9375
vt 0.1250 0.9375
vt 0.1250 1.0000
vt 0.0625 1.0000
vt 0.0625 0.9375
vt 0.0000 1.0000
vt 0.0625 1.0000
vt 0.0625 0.9375
vt 0.0000 0.9375
vt 0.0000 1.0000
vt 0.0625 1.0000
vt 0.0625 0.9375
vt 0.0625 1.0000
vt 0.0000 0.9375
vt 0.0000 1.0000
vt 0.0625 1.0000
vt 0.0625 0.9375
vt 0.1250 0.9375
vt 0.0000 0.9375
vt 0.0625 0.9375
vt 0.0625 1.0000
vt 0.0000 1.0000
vt 0.0625 1.0000
vt 0.0000 1.0000
vt 0.1250 0.9375
vt 0.1250 1.0000
vt 1.0000 0.6875
vt 0.6875 0.6875
vt 0.6875 1.0000
vt 1.0000 1.0000
vt 0.1250 0.9375
vt 0.1250 1.0000
vn 0.0000 0.0000 -1.0000
vn 0.5373 0.8434 0.0000
vn 0.0000 0.0000 1.0000
vn -0.5373 0.8434 0.0000
vn 0.0000 -1.0000 -0.0000
vn 0.8434 0.5373 0.0000
vn 0.5373 -0.8434 0.0000
vn -0.8434 -0.5373 -0.0000
vn -0.5373 -0.8434 0.0000
vn -0.8434 0.5373 0.0000
vn -0.7071 0.7071 0.0000
vn 0.0000 1.0000 0.0000
vn 1.0000 0.0000 0.0000
vn 0.7071 0.7071 0.0000
vn 0.8434 -0.5373 -0.0000
vn 0.7071 -0.7071 -0.0000
vn -1.0000 0.0000 0.0000
vn -0.7071 -0.7071 -0.0000
usemtl m_0
s 1
f 25/62/15 26/63/15 27/64/15 28/65/15
f 29/66/16 30/67/16 31/68/16 32/69/16
f 33/70/17 34/71/17 35/72/17 36/73/17
f 36/74/18 35/75/18 37/76/18 38/77/18
f 39/78/19 40/79/19 41/80/19 42/81/19
f 34/82/20 43/83/20 37/84/20 35/85/20
f 44/86/19 45/87/19 46/88/19 47/89/19
f 48/90/20 49/91/20 50/92/20 51/93/20
f 52/94/17 53/95/17 54/96/17 55/97/17
f 56/98/18 57/99/18 58/100/18 59/101/18
f 49/102/15 60/103/15 61/104/15 50/105/15
f 62/106/17 48/107/17 51/108/17 63/109/17
f 64/110/21 43/83/21 34/111/21 33/112/21
f 65/113/17 66/114/17 30/115/17 29/116/17
f 40/117/15 39/118/15 67/119/15 68/120/15
f 69/121/16 70/122/16 71/123/16 72/124/16
f 73/125/22 74/126/22 75/127/22 76/128/22
f 64/110/22 33/129/22 36/130/22 38/131/22
f 26/132/23 25/133/23 77/134/23 78/135/23
f 79/136/24 80/137/24 69/138/24 72/139/24
f 81/140/25 82/141/25 83/142/25 84/143/25
f 85/144/16 86/145/16 87/146/16 88/147/16
f 89/148/15 90/149/15 91/150/15 92/151/15
f 78/152/17 77/153/17 93/154/17 94/155/17
f 95/156/20 89/157/20 92/158/20 96/159/20
f 79/136/23 97/160/23 98/161/23 80/162/23
f 99/163/15 100/164/15 101/165/15 102/166/15
f 103/167/17 95/168/17 96/169/17 104/170/17
f 105/171/16 106/172/16 107/173/16 108/174/16
f 60/175/21 49/91/21 48/176/21 62/177/21
f 109/178/26 110/179/26 68/180/26 67/181/26
f 111/182/17 112/183/17 113/184/17 114/185/17
f 112/186/20 115/187/20 116/188/20 113/189/20
f 114/190/18 113/191/18 116/192/18 117/193/18
f 43/194/15 64/195/15 38/196/15 37/197/15
f 118/198/26 119/199/26 120/200/26 121/201/26
f 122/202/15 123/203/15 59/204/15 58/205/15
f 124/206/15 125/207/15 88/208/15 87/209/15
f 46/210/27 45/87/27 126/211/27 127/212/27
f 128/213/28 129/214/28 83/142/28 82/215/28
f 74/216/17 130/217/17 131/218/17 75/219/17
f 132/220/24 65/221/24 29/222/24 32/223/24
f 90/224/22 103/225/22 104/226/22 91/227/22
f 133/228/29 99/229/29 102/230/29 134/231/29
f 135/232/15 136/233/15 121/234/15 120/235/15
f 53/236/30 137/237/30 138/238/30 54/239/30
f 47/240/17 46/241/17 127/242/17 139/243/17
f 140/244/17 128/245/17 82/246/17 81/247/17
f 77/248/29 25/133/29 28/249/29 93/250/29
f 60/175/22 62/251/22 63/252/22 61/253/22
f 136/254/31 141/255/31 118/256/31 121/201/31
f 73/125/21 142/257/21 130/258/21 74/259/21
f 143/260/15 144/261/15 108/262/15 107/263/15
f 145/264/32 137/237/32 53/265/32 52/266/32
f 98/267/29 97/160/29 71/268/29 70/269/29
f 146/270/17 147/271/17 106/272/17 105/273/17
f 80/274/17 98/275/17 70/276/17 69/277/17
f 115/278/15 148/279/15 117/280/15 116/281/15
f 149/282/15 132/283/15 32/284/15 31/285/15
f 125/286/24 150/287/24 85/288/24 88/289/24
f 147/290/29 143/291/29 107/292/29 106/293/29
f 151/294/30 129/214/30 128/295/30 140/296/30
f 41/297/27 40/79/27 68/180/27 110/298/27
f 148/299/21 115/187/21 112/300/21 111/301/21
f 137/302/15 145/303/15 152/304/15 138/305/15
f 141/306/17 153/307/17 119/308/17 118/309/17
f 63/310/18 51/311/18 50/92/18 61/253/18
f 66/312/29 149/313/29 31/314/29 30/315/29
f 100/316/23 99/229/23 133/317/23 154/318/23
f 90/224/21 89/157/21 95/319/21 103/320/21
f 150/321/17 155/322/17 86/323/17 85/324/17
f 144/325/24 146/326/24 105/327/24 108/328/24
f 130/329/20 142/257/20 156/330/20 131/331/20
f 155/332/29 124/333/29 87/334/29 86/335/29
f 75/336/18 131/337/18 156/338/18 76/339/18
f 144/325/23 143/291/23 147/340/23 146/341/23
f 129/342/15 151/343/15 84/344/15 83/345/15
f 157/346/20 122/347/20 58/348/20 57/349/20
f 26/132/24 78/350/24 94/351/24 27/352/24
f 136/254/19 135/353/19 153/354/19 141/355/19
f 132/220/23 149/313/23 66/356/23 65/357/23
f 94/358/16 93/359/16 28/360/16 27/361/16
f 42/362/17 41/363/17 110/364/17 109/365/17
f 139/366/26 127/367/26 126/211/26 158/368/26
f 148/299/22 111/369/22 114/370/22 117/371/22
f 159/372/16 134/373/16 102/230/16 101/374/16
f 151/294/32 140/375/32 81/376/32 84/143/32
f 44/86/31 47/377/31 139/378/31 158/368/31
f 145/264/25 52/379/25 55/380/25 152/381/25
f 142/382/15 73/383/15 76/384/15 156/385/15
f 154/386/17 133/387/17 134/388/17 159/389/17
f 45/390/15 44/391/15 158/392/15 126/393/15
f 123/394/21 122/347/21 157/395/21 160/396/21
f 160/397/17 157/398/17 57/399/17 56/400/17
f 153/401/27 135/353/27 120/200/27 119/402/27
f 123/394/22 160/403/22 56/404/22 59/405/22
f 55/406/28 54/407/28 138/238/28 152/381/28
f 97/408/15 79/409/15 72/410/15 71/411/15
f 125/286/23 124/333/23 155/412/23 150/413/23
f 39/78/31 42/414/31 109/415/31 67/181/31
f 104/416/18 96/417/18 92/418/18 91/419/18
f 100/316/24 154/420/24 159/421/24 101/374/24
