# Blender v2.78 (sub 0) OBJ File: ''
# www.blender.org
mtllib v96performanteturbo.mtl
o turbo
v -0.177109 0.052547 1.516485
v -0.177109 0.052547 1.584641
v -0.241156 0.075858 1.584641
v -0.241156 0.075858 1.516485
v -0.272626 0.136313 1.584641
v -0.136313 0.136313 1.584641
v -0.136313 0.272626 1.584641
v -0.272626 0.272626 1.584641
v -0.272626 0.136313 1.516485
v -0.136313 0.136313 1.516485
v -0.241156 0.075858 1.584641
v -0.180700 0.107329 1.584641
v -0.212171 0.167784 1.584641
v -0.272626 0.136313 1.584641
v -0.180700 0.107329 1.516485
v -0.241156 0.075858 1.516485
v -0.272626 0.136313 1.516485
v -0.212171 0.167784 1.516485
v -0.136313 0.272626 1.516485
v -0.272626 0.272626 1.516485
v -0.153798 0.116592 1.516485
v -0.153798 0.116592 1.584641
v -0.217844 0.139904 1.516485
v -0.217844 0.139904 1.584641
vt 0.0000 0.1875
vt 0.0625 0.1875
vt 0.0625 0.2500
vt 0.0000 0.2500
vt 0.0000 0.0625
vt 0.1250 0.0625
vt 0.1250 0.1875
vt 0.0000 0.1875
vt 0.0000 0.1875
vt 0.0625 0.1875
vt 0.0625 0.2500
vt 0.0000 0.2500
vt 0.0000 0.1875
vt 0.0625 0.1875
vt 0.0625 0.2500
vt 0.0000 0.2500
vt 0.0000 0.1875
vt 0.0625 0.1875
vt 0.0625 0.2500
vt 0.0000 0.2500
vt 0.0625 0.1875
vt 0.0625 0.2500
vt 0.0000 0.2500
vt 0.0000 0.1875
vt 0.0625 0.1875
vt 0.0625 0.2500
vt 0.0000 0.2500
vt 0.1250 0.0625
vt 0.2500 0.0625
vt 0.2500 0.1875
vt 0.1250 0.1875
vt 0.0000 0.1875
vt 0.0625 0.2500
vt 0.0000 0.2500
vt 0.0625 0.1875
vt 0.0625 0.2500
vt 0.0000 0.2500
vt 0.0000 0.1875
vt 0.0000 0.2500
vt 0.1250 0.0625
vt 0.2500 0.0625
vt 0.2500 0.1875
vt 0.1250 0.1875
vt 0.0000 0.1875
vt 0.0625 0.1875
vt 0.0000 0.1875
vt 0.0625 0.1875
vt 0.0625 0.2500
vt 0.0000 0.2500
vt 0.0000 0.1875
vt 0.0625 0.1875
vt 0.0625 0.2500
vt 0.0625 0.1875
vt 0.0625 0.2500
vt 0.0000 0.1875
vt 0.0625 0.1875
vt 0.0625 0.2500
vt 0.0000 0.2500
vt 0.0000 0.1875
vt 0.0625 0.1875
vt 0.0000 0.2500
vn -0.3420 -0.9397 0.0000
vn 0.0000 0.0000 1.0000
vn 0.0000 -1.0000 -0.0000
vn -0.0000 0.0000 -1.0000
vn 0.0000 1.0000 0.0000
vn 0.4617 -0.8870 0.0000
vn 0.9397 -0.3420 0.0000
vn 0.8870 0.4617 0.0000
vn -0.8870 -0.4617 0.0000
vn 1.0000 0.0000 0.0000
vn -0.4617 0.8870 0.0000
vn -0.9397 0.3420 0.0000
vn -1.0000 0.0000 0.0000
vn 0.3420 0.9397 0.0000
usemtl m_0
s 1
f 1/1/1 2/2/1 3/3/1 4/4/1
f 5/5/2 6/6/2 7/7/2 8/8/2
f 9/9/3 10/10/3 6/11/3 5/12/3
f 11/13/2 12/14/2 13/15/2 14/16/2
f 15/17/4 16/18/4 17/19/4 18/20/4
f 8/8/5 7/21/5 19/22/5 20/23/5
f 16/24/6 15/25/6 12/26/6 11/27/6
f 1/28/7 21/29/7 22/30/7 2/31/7
f 12/32/8 15/25/8 18/33/8 13/34/8
f 16/24/9 11/35/9 14/36/9 17/37/9
f 6/38/10 10/10/10 19/22/10 7/39/10
f 10/40/4 9/41/4 20/42/4 19/43/4
f 14/44/11 13/45/11 18/33/11 17/37/11
f 21/46/4 1/47/4 4/48/4 23/49/4
f 3/50/12 24/51/12 23/52/12 4/4/12
f 9/9/13 5/53/13 8/54/13 20/23/13
f 2/55/2 22/56/2 24/57/2 3/58/2
f 22/59/14 21/60/14 23/52/14 24/61/14
o cube
v -0.306705 0.034078 0.000000
v 0.306705 0.034078 0.000000
v 0.306705 0.034078 1.516485
v -0.306705 0.034078 1.516485
v -0.223994 0.423765 1.141623
v -0.367701 0.332214 1.141623
v -0.413476 0.404067 1.141623
v -0.269769 0.495618 1.141623
v -0.367701 0.332214 1.124584
v -0.223994 0.423765 1.124584
v -0.269769 0.495618 1.124584
v -0.413476 0.404067 1.124584
v 0.030653 -0.014116 1.516485
v 0.030653 -0.014116 -0.000000
v -0.162122 0.178661 0.000000
v -0.162122 0.178660 1.516485
v -0.367701 0.332214 0.187431
v -0.223994 0.423765 0.187431
v -0.269769 0.495619 0.187431
v -0.413476 0.404067 0.187431
v 0.223994 0.423765 0.749723
v 0.367701 0.332214 0.749723
v 0.413476 0.404067 0.749723
v 0.269769 0.495619 0.749723
v 0.367701 0.332214 0.766762
v 0.223994 0.423765 0.766762
v 0.269769 0.495619 0.766762
v 0.413476 0.404067 0.766762
v -0.413476 0.404067 0.937153
v -0.269769 0.495619 0.937153
v -0.269769 0.495619 0.766762
v -0.413476 0.404067 0.766762
v -0.223994 0.423765 0.391901
v -0.367701 0.332214 0.391901
v -0.413476 0.404067 0.391901
v -0.269769 0.495619 0.391901
v 0.223994 0.423765 0.391901
v 0.367701 0.332214 0.391901
v 0.367701 0.332214 0.562292
v 0.223994 0.423765 0.562292
v 0.367701 0.332214 0.374861
v 0.367701 0.332214 0.204470
v 0.413476 0.404067 0.204470
v 0.413476 0.404067 0.374861
v -0.113928 -0.158698 -0.000000
v -0.113928 -0.158698 1.516485
v -0.306705 0.034078 1.516485
v -0.306705 0.034078 0.000000
v -0.413476 0.404067 0.749723
v -0.269769 0.495619 0.749723
v -0.269769 0.495619 0.579331
v -0.413476 0.404067 0.579331
v -0.223994 0.423765 1.329054
v -0.367701 0.332214 1.329054
v -0.413476 0.404067 1.329054
v -0.269769 0.495618 1.329054
v 0.223994 0.423765 1.499446
v 0.367701 0.332214 1.499446
v 0.413476 0.404067 1.499446
v 0.269769 0.495618 1.499446
v -0.367701 0.332214 0.954193
v -0.223994 0.423765 0.954193
v 0.113928 -0.158698 1.516485
v 0.113928 -0.158698 -0.000000
v 0.306705 0.034078 0.000000
v 0.306705 0.034078 1.516485
v -0.367701 0.332214 1.312015
v -0.413476 0.404067 1.312015
v 0.162122 0.178660 1.516485
v 0.162122 0.178661 0.000000
v 0.413476 0.404067 1.329054
v 0.269769 0.495618 1.329054
v 0.299675 0.193722 0.000000
v 0.127227 0.303584 0.000000
v 0.209624 0.432920 0.000000
v 0.382072 0.323058 0.000000
v -0.367701 0.332214 0.374861
v -0.223994 0.423765 0.374861
v -0.269769 0.495619 0.374861
v -0.413476 0.404067 0.374861
v -0.223994 0.423765 0.204470
v -0.269769 0.495619 0.204470
v -0.382072 0.323058 1.516485
v -0.209624 0.432920 1.516485
v -0.209624 0.432920 0.000000
v -0.382072 0.323058 0.000000
v -0.127227 0.303584 0.000000
v -0.299675 0.193722 0.000000
v -0.299675 0.193722 1.516485
v -0.127227 0.303584 1.516485
v 0.367701 0.332214 0.954193
v 0.223994 0.423765 0.954193
v 0.269769 0.495619 0.954193
v 0.413476 0.404067 0.954193
v 0.223994 0.423765 0.204470
v 0.269769 0.495619 0.204470
v -0.367701 0.332214 0.937153
v -0.223994 0.423765 0.937153
v -0.005346 -0.158698 -0.000000
v -0.005346 -0.158698 1.516485
v -0.005346 0.165046 1.516485
v -0.005346 0.165046 0.000000
v 0.367701 0.332214 0.187431
v 0.367701 0.332214 0.017039
v 0.413476 0.404067 0.017039
v 0.413476 0.404067 0.187431
v -0.367701 0.332214 0.204470
v -0.413476 0.404067 0.204470
v -0.413476 0.404067 0.562292
v -0.269769 0.495619 0.562292
v 0.269769 0.495619 0.187431
v 0.269769 0.495619 0.017039
v -0.223994 0.423765 0.579331
v -0.367701 0.332214 0.579331
v 0.367701 0.332214 0.579331
v 0.413476 0.404067 0.579331
v -0.367701 0.332214 0.766762
v -0.367701 0.332214 0.562292
v -0.223994 0.423765 0.562292
v 0.367701 0.332214 1.329054
v 0.223994 0.423765 1.329054
v 0.005346 -0.158698 1.516485
v 0.005346 -0.158698 -0.000000
v 0.005346 0.165046 0.000000
v 0.005346 0.165046 1.516485
v -0.223994 0.423765 0.017039
v -0.367701 0.332214 0.017039
v -0.413476 0.404067 0.017039
v -0.269769 0.495619 0.017039
v -0.113928 0.165046 1.516485
v -0.113928 0.165046 0.000000
v 0.223994 0.423765 0.579331
v -0.367701 0.332214 0.749723
v -0.223994 0.423765 0.749723
v -0.306705 0.323744 1.516485
v -0.306705 0.323744 0.000000
v 0.113928 -0.158698 1.516485
v 0.113928 -0.158698 -0.000000
v 0.113928 0.165046 0.000000
v 0.113928 0.165046 1.516485
v 0.299675 0.193722 1.516485
v 0.382072 0.323058 1.516485
v 0.269769 0.495619 0.562292
v 0.413476 0.404067 0.562292
v 0.413476 0.404067 0.391901
v 0.269769 0.495619 0.391901
v 0.223994 0.423765 0.017039
v 0.223994 0.423765 0.187431
v 0.306705 0.323744 1.516485
v 0.367701 0.332214 1.124584
v 0.413476 0.404067 1.124584
v 0.223994 0.423765 1.124584
v 0.269769 0.495619 0.374861
v 0.367701 0.332214 1.141623
v 0.223994 0.423765 1.141623
v 0.269769 0.495618 1.141623
v 0.413476 0.404067 1.141623
v -0.223994 0.423765 1.312015
v 0.223994 0.423765 1.312015
v 0.367701 0.332214 1.312015
v 0.413476 0.404067 1.312015
v 0.269769 0.495618 1.312015
v -0.030653 -0.014116 1.516485
v 0.223994 0.423765 0.374861
v 0.269769 0.495619 0.579331
v -0.223994 0.423765 1.499446
v -0.367701 0.332214 1.499446
v 0.209624 0.432920 1.516485
v -0.269769 0.495618 1.312015
v 0.127227 0.303584 1.516485
v -0.030653 -0.014116 -0.000000
v -0.269769 0.495618 1.499446
v -0.413476 0.404067 1.499446
v -0.223994 0.423765 0.766762
v 0.223994 0.423765 0.937153
v 0.269769 0.495619 0.937153
v -0.413476 0.404067 0.954193
v -0.269769 0.495619 0.954193
v 0.269769 0.495618 1.124584
v -0.113928 -0.158698 -0.000000
v -0.113928 -0.158698 1.516485
v 0.413476 0.404067 0.937153
v 0.306705 0.323744 0.000000
v 0.367701 0.332214 0.937153
vt 0.0625 0.9375
vt 0.1250 0.9375
vt 0.1250 1.0000
vt 0.0625 1.0000
vt 0.0625 0.9375
vt 0.0000 0.9375
vt 0.0000 1.0000
vt 0.0625 1.0000
vt 0.0625 0.9375
vt 0.0000 0.9375
vt 0.0000 1.0000
vt 0.0625 1.0000
vt 0.1250 0.9375
vt 0.0625 0.9375
vt 0.0625 1.0000
vt 0.1250 1.0000
vt 0.0625 0.9375
vt 0.0000 0.9375
vt 0.0000 1.0000
vt 0.0625 1.0000
vt 0.0000 0.9375
vt 0.0625 0.9375
vt 0.0625 1.0000
vt 0.0000 1.0000
vt 0.0000 0.9375
vt 0.0625 0.9375
vt 0.0625 1.0000
vt 0.0000 1.0000
vt 1.0000 0.6875
vt 0.6875 0.6875
vt 0.6875 1.0000
vt 1.0000 1.0000
vt 0.0625 0.9375
vt 0.0000 0.9375
vt 0.0000 1.0000
vt 0.0625 1.0000
vt 0.0000 0.9375
vt 0.0625 0.9375
vt 0.0625 1.0000
vt 0.0000 1.0000
vt 0.0000 0.9375
vt 0.0625 0.9375
vt 0.0625 1.0000
vt 0.0000 1.0000
vt 0.1250 0.9375
vt 0.0625 0.9375
vt 0.0625 1.0000
vt 0.1250 1.0000
vt 1.0000 0.6875
vt 0.6875 0.6875
vt 0.6875 1.0000
vt 1.0000 1.0000
vt 0.0625 0.9375
vt 0.0000 0.9375
vt 0.0000 1.0000
vt 0.0625 1.0000
vt 0.0000 0.9375
vt 0.0625 0.9375
vt 0.0625 1.0000
vt 0.0000 1.0000
vt 0.0625 0.9375
vt 0.0000 0.9375
vt 0.0000 1.0000
vt 0.0625 1.0000
vt 0.0625 0.9375
vt 0.1250 0.9375
vt 0.1250 1.0000
vt 0.0625 1.0000
vt 0.0625 0.9375
vt 0.0000 0.9375
vt 0.0000 1.0000
vt 0.0625 1.0000
vt 0.0625 0.9375
vt 0.1250 0.9375
vt 0.0625 1.0000
vt 0.6875 0.6875
vt 1.0000 0.6875
vt 1.0000 1.0000
vt 0.6875 1.0000
vt 0.0625 0.9375
vt 0.1250 0.9375
vt 0.1250 1.0000
vt 0.0625 1.0000
vt 0.0625 1.0000
vt 0.1250 1.0000
vt 0.0625 0.9375
vt 0.0000 0.9375
vt 0.0000 1.0000
vt 0.0625 1.0000
vt 0.0625 0.9375
vt 0.0000 0.9375
vt 0.0000 1.0000
vt 0.0625 1.0000
vt 0.1250 0.9375
vt 0.0625 0.9375
vt 0.0625 1.0000
vt 0.1250 1.0000
vt 0.1250 0.9375
vt 0.0625 0.9375
vt 0.0625 1.0000
vt 0.1250 1.0000
vt 0.1250 0.9375
vt 0.0625 0.9375
vt 0.0625 1.0000
vt 0.1250 1.0000
vt 0.0000 0.9375
vt 0.0625 0.9375
vt 0.0625 1.0000
vt 0.0000 1.0000
vt 0.0000 0.9375
vt 0.0625 0.9375
vt 0.0625 1.0000
vt 0.0000 1.0000
vt 0.0625 0.9375
vt 0.0000 0.9375
vt 0.0000 1.0000
vt 0.0625 1.0000
vt 0.0625 0.9375
vt 0.1250 0.9375
vt 0.1250 1.0000
vt 0.0625 1.0000
vt 0.0000 0.9375
vt 0.0625 0.9375
vt 0.0625 1.0000
vt 0.0000 1.0000
vt 0.0625 0.9375
vt 0.0000 0.9375
vt 0.0000 1.0000
vt 0.0625 1.0000
vt 1.0000 0.6875
vt 0.6875 0.6875
vt 0.6875 1.0000
vt 1.0000 1.0000
vt 0.6875 0.6875
vt 1.0000 0.6875
vt 1.0000 1.0000
vt 0.6875 1.0000
vt 0.0625 0.9375
vt 0.0000 0.9375
vt 0.0000 1.0000
vt 0.0625 1.0000
vt 0.0000 0.9375
vt 0.0625 0.9375
vt 0.0625 1.0000
vt 0.0000 1.0000
vt 0.0625 0.9375
vt 0.0000 0.9375
vt 0.0000 1.0000
vt 0.0625 1.0000
vt 0.0625 0.9375
vt 0.0000 0.9375
vt 0.0000 1.0000
vt 0.0625 1.0000
vt 0.0000 0.9375
vt 0.0625 0.9375
vt 0.0625 1.0000
vt 0.0000 1.0000
vt 0.1250 0.9375
vt 0.0625 0.9375
vt 0.0625 1.0000
vt 0.1250 1.0000
vt 0.0000 0.9375
vt 0.0625 0.9375
vt 0.0625 1.0000
vt 0.0000 1.0000
vt 0.0625 0.9375
vt 0.1250 0.9375
vt 0.1250 1.0000
vt 0.0625 1.0000
vt 0.0625 0.9375
vt 0.0000 0.9375
vt 0.0000 1.0000
vt 0.0625 1.0000
vt 0.0625 0.9375
vt 0.1250 0.9375
vt 0.0625 1.0000
vt 0.0000 0.9375
vt 0.0625 1.0000
vt 0.0000 1.0000
vt 0.0625 0.9375
vt 0.0000 0.9375
vt 0.0000 1.0000
vt 0.0625 1.0000
vt 0.1250 0.9375
vt 0.1250 1.0000
vt 0.0625 1.0000
vt 0.0625 0.9375
vt 0.1250 0.9375
vt 0.1250 1.0000
vt 0.0625 1.0000
vt 0.0625 0.9375
vt 0.1250 0.9375
vt 0.1250 1.0000
vt 0.0625 1.0000
vt 0.6875 0.6875
vt 1.0000 0.6875
vt 1.0000 1.0000
vt 0.6875 1.0000
vt 0.0625 0.9375
vt 0.0000 0.9375
vt 0.0000 1.0000
vt 0.0625 1.0000
vt 0.0000 0.9375
vt 0.0625 0.9375
vt 0.0625 1.0000
vt 0.0000 1.0000
vt 0.0625 0.9375
vt 0.1250 0.9375
vt 0.1250 1.0000
vt 0.0625 1.0000
vt 0.0000 0.9375
vt 0.0625 0.9375
vt 0.0625 1.0000
vt 0.0000 1.0000
vt 0.0625 0.9375
vt 0.0000 1.0000
vt 0.0625 1.0000
vt 0.1250 0.9375
vt 0.0625 0.9375
vt 0.0000 0.9375
vt 0.0625 1.0000
vt 0.0000 1.0000
vt 0.6875 0.6875
vt 1.0000 0.6875
vt 1.0000 1.0000
vt 0.6875 1.0000
vt 0.0000 0.9375
vt 0.0625 0.9375
vt 0.0625 1.0000
vt 0.0000 1.0000
vt 0.0000 0.9375
vt 0.0000 1.0000
vt 0.0625 1.0000
vt 0.0625 0.9375
vt 0.0000 0.9375
vt 0.0000 1.0000
vt 0.0625 1.0000
vt 0.0000 0.9375
vt 0.0625 0.9375
vt 0.0625 1.0000
vt 0.0000 1.0000
vt 0.0000 0.9375
vt 0.0000 1.0000
vt 0.0625 1.0000
vt 0.0000 0.9375
vt 0.0625 0.9375
vt 0.0625 1.0000
vt 0.0000 1.0000
vt 0.0625 0.9375
vt 0.1250 0.9375
vt 0.1250 1.0000
vt 0.0625 1.0000
vt 0.0000 0.9375
vt 0.0625 0.9375
vt 0.0625 1.0000
vt 0.0000 1.0000
vt 0.0625 0.9375
vt 0.0000 0.9375
vt 0.0000 1.0000
vt 0.0625 1.0000
vt 0.0000 0.9375
vt 0.0625 0.9375
vt 0.0625 1.0000
vt 0.0000 1.0000
vt 0.0625 0.9375
vt 0.0000 0.9375
vt 0.0000 1.0000
vt 0.0625 1.0000
vt 0.0625 0.9375
vt 0.1250 0.9375
vt 0.1250 1.0000
vt 0.0625 1.0000
vt 0.0625 0.9375
vt 0.1250 0.9375
vt 0.0625 1.0000
vt 1.0000 0.6875
vt 0.6875 0.6875
vt 0.6875 1.0000
vt 1.0000 1.0000
vt 0.0625 0.9375
vt 0.1250 0.9375
vt 0.1250 1.0000
vt 0.0625 1.0000
vt 0.0625 0.9375
vt 0.1250 1.0000
vt 0.0625 1.0000
vt 0.0625 0.9375
vt 0.0625 1.0000
vt 0.0000 1.0000
vt 0.0625 0.9375
vt 0.0000 0.9375
vt 0.0000 1.0000
vt 0.0625 1.0000
vt 0.0625 0.9375
vt 0.0000 0.9375
vt 0.0000 1.0000
vt 0.0625 1.0000
vt 0.1250 1.0000
vt 0.0625 1.0000
vt 0.0000 0.9375
vt 0.0000 1.0000
vt 0.0625 1.0000
vt 0.0625 0.9375
vt 0.0000 0.9375
vt 0.0000 1.0000
vt 0.0625 1.0000
vt 0.0000 0.9375
vt 0.0000 1.0000
vt 0.0625 1.0000
vt 0.0000 0.9375
vt 0.0625 0.9375
vt 0.0625 1.0000
vt 0.0000 1.0000
vt 0.0625 0.9375
vt 0.0000 0.9375
vt 0.0000 1.0000
vt 0.0625 1.0000
vt 0.0625 0.9375
vt 0.0625 1.0000
vt 0.0000 1.0000
vt 0.0000 0.9375
vt 0.0625 1.0000
vt 0.0000 1.0000
vt 0.6875 0.6875
vt 1.0000 0.6875
vt 1.0000 1.0000
vt 0.6875 1.0000
vt 0.0625 0.9375
vt 0.1250 0.9375
vt 0.1250 1.0000
vt 0.0625 1.0000
vt 0.0625 0.9375
vt 0.0625 1.0000
vt 0.0000 1.0000
vt 0.0625 0.9375
vt 0.1250 1.0000
vt 0.0625 1.0000
vt 0.6875 0.6875
vt 1.0000 0.6875
vt 1.0000 1.0000
vt 0.6875 1.0000
vt 0.0000 0.9375
vt 0.0625 1.0000
vt 0.0000 1.0000
vt 0.0000 0.9375
vt 0.0625 0.9375
vt 0.0625 1.0000
vt 0.0000 1.0000
vt 0.0000 1.0000
vt 0.0625 1.0000
vt 0.0625 0.9375
vt 0.0000 1.0000
vt 0.0625 1.0000
vt 1.0000 0.6875
vt 0.6875 0.6875
vt 0.6875 1.0000
vt 1.0000 1.0000
vt 0.0625 0.9375
vt 0.0000 1.0000
vt 0.0625 1.0000
vt 0.1250 0.9375
vt 0.0625 0.9375
vt 0.0625 1.0000
vt 0.1250 1.0000
vt 0.1250 0.9375
vt 0.0625 0.9375
vt 0.0625 1.0000
vt 0.1250 1.0000
vt 0.1250 0.9375
vt 0.1250 1.0000
vt 0.0000 0.9375
vt 0.0625 0.9375
vt 0.0625 1.0000
vt 0.0000 1.0000
vt 0.0625 0.9375
vt 0.1250 0.9375
vt 0.1250 1.0000
vt 0.0625 1.0000
vt 0.0000 0.9375
vt 0.0000 1.0000
vt 0.0625 1.0000
vt 0.0625 0.9375
vt 0.1250 1.0000
vt 0.0625 1.0000
vt 0.0625 1.0000
vt 0.0000 1.0000
vt 0.0000 0.9375
vt 0.0625 0.9375
vt 0.0625 1.0000
vt 0.0000 1.0000
vt 0.0625 0.9375
vt 0.1250 0.9375
vt 0.1250 1.0000
vt 0.0625 1.0000
vt 0.1250 0.9375
vt 0.1250 1.0000
vt 0.0625 0.9375
vt 0.1250 0.9375
vt 0.0000 0.9375
vt 0.0625 0.9375
vt 0.0625 1.0000
vt 0.0000 1.0000
vt 0.0625 0.9375
vt 0.0000 1.0000
vt 0.0625 1.0000
vt 0.0625 0.9375
vt 0.0000 0.9375
vt 0.0000 1.0000
vt 0.0625 1.0000
vt 0.0625 0.9375
vt 0.0625 1.0000
vt 0.6875 0.6875
vt 1.0000 0.6875
vt 1.0000 1.0000
vt 0.6875 1.0000
vt 0.0000 0.9375
vt 0.0625 0.9375
vt 0.0625 1.0000
vt 0.0000 1.0000
vt 1.0000 0.6875
vt 0.6875 0.6875
vt 0.6875 1.0000
vt 1.0000 1.0000
vt 0.0625 0.9375
vt 0.1250 1.0000
vt 0.0625 1.0000
vt 0.0000 0.9375
vt 0.0625 0.9375
vt 0.0625 1.0000
vt 0.0000 1.0000
vt 0.1250 0.9375
vt 0.1250 1.0000
vt 0.0000 0.9375
vt 0.0625 0.9375
vt 0.0625 1.0000
vt 0.0000 1.0000
vt 0.0625 0.9375
vt 0.0000 0.9375
vt 0.0000 1.0000
vt 0.0625 1.0000
vt 0.1250 0.9375
vt 0.1250 1.0000
vt 0.0000 1.0000
vt 0.0625 1.0000
vt 0.0625 0.9375
vt 0.0000 1.0000
vt 0.0625 1.0000
vt 0.0625 0.9375
vt 0.1250 0.9375
vt 0.1250 1.0000
vt 0.0625 1.0000
vt 0.0000 0.9375
vt 0.0625 0.9375
vt 0.0625 1.0000
vt 0.0000 1.0000
vt 1.0000 0.6875
vt 0.6875 0.6875
vt 0.6875 1.0000
vt 1.0000 1.0000
vt 0.6875 0.6875
vt 1.0000 0.6875
vt 1.0000 1.0000
vt 0.6875 1.0000
vt 0.0625 1.0000
vt 0.0000 1.0000
vt 0.0625 0.9375
vt 0.1250 0.9375
vt 0.1250 1.0000
vt 0.0625 1.0000
vt 0.0625 0.9375
vt 0.0000 1.0000
vt 0.0625 1.0000
vt 0.0000 0.9375
vt 0.0000 1.0000
vt 0.0625 1.0000
vt 0.0625 0.9375
vt 0.1250 0.9375
vt 1.0000 0.6875
vt 0.6875 0.6875
vt 0.6875 1.0000
vt 1.0000 1.0000
vt 0.0625 1.0000
vt 0.0000 1.0000
vt 0.0625 0.9375
vt 0.0625 1.0000
vt 0.0000 1.0000
vt 0.0000 0.9375
vt 0.0625 0.9375
vt 0.0625 1.0000
vt 0.0000 1.0000
vt 0.0625 1.0000
vt 0.0000 1.0000
vn 0.0000 -1.0000 -0.0000
vn -0.0000 0.0000 -1.0000
vn 0.0000 0.0000 1.0000
vn 0.7071 0.7071 0.0000
vn -0.5373 0.8434 0.0000
vn -0.5373 -0.8434 0.0000
vn 0.8434 -0.5373 0.0000
vn -0.7071 -0.7071 -0.0000
vn 0.5373 -0.8434 -0.0000
vn 0.7071 -0.7071 -0.0000
vn -0.8434 -0.5373 0.0000
vn 0.5373 0.8434 0.0000
vn 0.8434 0.5373 0.0000
vn -1.0000 0.0000 0.0000
vn -0.8434 0.5373 0.0000
vn 1.0000 0.0000 0.0000
vn 0.0000 1.0000 0.0000
vn -0.7071 0.7071 0.0000
usemtl m_0
s 1
f 25/62/15 26/63/15 27/64/15 28/65/15
f 29/66/16 30/67/16 31/68/16 32/69/16
f 33/70/17 34/71/17 35/72/17 36/73/17
f 37/74/18 38/75/18 39/76/18 40/77/18
f 41/78/17 42/79/17 43/80/17 44/81/17
f 45/82/17 46/83/17 47/84/17 48/85/17
f 49/86/16 50/87/16 51/88/16 52/89/16
f 53/90/19 54/91/19 55/92/19 56/93/19
f 57/94/16 58/95/16 59/96/16 60/97/16
f 61/98/20 62/99/20 63/100/20 64/101/20
f 65/102/21 66/103/21 67/104/21 68/105/21
f 69/106/22 70/107/22 71/108/22 72/109/22
f 73/110/19 74/111/19 75/112/19 76/113/19
f 77/114/16 78/115/16 79/116/16 80/117/16
f 81/118/17 82/119/17 83/120/17 84/121/17
f 85/122/23 86/123/23 34/124/23 33/125/23
f 87/126/24 88/127/24 89/128/24 90/129/24
f 30/130/25 91/131/25 92/132/25 31/133/25
f 93/134/18 90/135/18 89/128/18 94/136/18
f 84/137/26 83/138/26 95/139/26 96/140/26
f 97/141/16 98/142/16 99/143/16 100/144/16
f 69/106/24 38/75/24 37/145/24 70/146/24
f 101/147/17 102/148/17 103/149/17 104/150/17
f 102/151/27 105/152/27 106/153/27 103/154/27
f 107/155/19 108/156/19 109/157/19 110/158/19
f 111/159/16 112/160/16 110/161/16 109/162/16
f 113/163/17 114/164/17 108/165/17 107/166/17
f 115/167/16 116/168/16 117/169/16 118/170/16
f 66/171/16 119/172/16 120/173/16 67/174/16
f 121/175/17 122/176/17 54/177/17 53/178/17
f 123/179/28 124/180/28 125/181/28 126/182/28
f 127/183/21 128/184/21 129/185/21 130/186/21
f 105/187/16 131/188/16 132/189/16 106/190/16
f 133/191/19 134/192/19 60/193/19 59/194/19
f 135/195/26 130/196/26 129/197/26 136/198/26
f 137/199/16 138/200/16 76/201/16 75/202/16
f 46/203/21 139/204/21 140/205/21 47/206/21
f 141/207/25 121/208/25 53/209/25 56/210/25
f 142/211/17 143/212/17 134/213/17 133/214/17
f 144/215/16 145/216/16 96/217/16 95/218/16
f 70/219/17 37/220/17 40/221/17 71/222/17
f 145/223/29 81/224/29 84/225/29 96/226/29
f 146/227/30 147/228/30 148/229/30 149/230/30
f 150/231/16 151/232/16 152/233/16 153/234/16
f 154/235/31 149/236/31 148/229/31 155/237/31
f 156/238/20 139/204/20 46/239/20 45/240/20
f 157/241/17 158/242/17 74/243/17 73/244/17
f 25/62/28 28/245/28 159/246/28 160/247/28
f 161/248/30 162/249/30 163/250/30 164/251/30
f 165/252/21 97/253/21 100/254/21 166/255/21
f 167/256/26 168/257/26 169/258/26 170/259/26
f 151/260/23 150/261/23 42/262/23 41/263/23
f 171/264/29 172/265/29 135/266/29 136/267/29
f 28/268/17 27/269/17 173/270/17 159/271/17
f 174/272/21 115/273/21 118/274/21 175/275/21
f 42/276/27 150/261/27 153/277/27 43/278/27
f 71/279/32 40/280/32 39/76/32 72/109/32
f 116/281/20 115/273/20 174/282/20 176/283/20
f 177/284/26 68/285/26 67/286/26 120/287/26
f 64/288/17 63/289/17 168/290/17 167/291/17
f 151/260/25 41/292/25 44/293/25 152/294/25
f 158/295/27 137/296/27 75/297/27 74/298/27
f 178/299/16 179/300/16 180/301/16 181/302/16
f 30/130/23 29/303/23 182/304/23 91/305/23
f 183/306/17 184/307/17 185/308/17 186/309/17
f 187/310/17 87/311/17 90/312/17 93/313/17
f 119/314/29 188/315/29 177/316/29 120/317/29
f 138/318/25 157/319/25 73/320/25 76/321/25
f 139/322/16 156/323/16 189/324/16 140/325/16
f 78/326/23 77/327/23 190/328/23 191/329/23
f 124/330/17 161/331/17 164/332/17 125/333/17
f 192/334/26 166/335/26 100/254/26 99/336/26
f 92/337/19 193/338/19 32/339/19 31/340/19
f 194/341/17 165/342/17 166/343/17 192/344/17
f 195/345/22 88/127/22 87/346/22 187/347/22
f 145/223/20 144/348/20 82/349/20 81/350/20
f 191/351/17 190/352/17 196/353/17 197/354/17
f 143/355/27 57/356/27 60/357/27 134/358/27
f 123/179/15 162/249/15 161/359/15 124/360/15
f 78/326/25 191/361/25 197/362/25 79/363/25
f 198/364/16 141/365/16 56/366/16 55/367/16
f 141/207/23 198/368/23 122/369/23 121/370/23
f 50/371/29 199/372/29 200/373/29 51/374/29
f 86/375/16 85/376/16 201/377/16 202/378/16
f 156/238/29 45/379/29 48/380/29 189/381/29
f 82/382/21 144/348/21 95/383/21 83/384/21
f 203/385/26 175/386/26 118/387/26 117/388/26
f 147/389/16 204/390/16 155/391/16 148/392/16
f 116/281/29 176/393/29 203/394/29 117/395/29
f 204/396/15 147/228/15 146/397/15 205/398/15
f 200/399/26 206/400/26 52/401/26 51/402/26
f 63/403/21 62/99/21 169/404/21 168/405/21
f 62/406/16 61/407/16 170/408/16 169/409/16
f 138/318/23 137/296/23 158/410/23 157/411/23
f 190/412/27 77/327/27 80/413/27 196/414/27
f 36/415/19 35/416/19 202/417/19 201/418/19
f 122/419/27 198/368/27 55/420/27 54/421/27
f 38/422/16 69/423/16 72/424/16 39/425/16
f 112/426/23 111/427/23 114/428/23 113/429/23
f 114/430/27 111/427/27 109/157/27 108/431/27
f 128/432/16 171/433/16 136/434/16 129/435/16
f 162/436/16 123/437/16 126/438/16 163/439/16
f 85/122/25 33/440/25 36/441/25 201/442/25
f 27/443/30 26/63/30 207/444/30 173/445/30
f 171/264/20 128/184/20 127/446/20 172/447/20
f 176/448/17 174/449/17 175/450/17 203/451/17
f 205/452/17 146/453/17 149/454/17 154/455/17
f 204/396/28 205/456/28 154/457/28 155/237/28
f 159/458/31 173/459/31 207/444/31 160/247/31
f 199/460/17 208/461/17 206/462/17 200/463/17
f 131/464/23 105/152/23 102/465/23 101/466/23
f 91/467/17 182/468/17 193/469/17 92/470/17
f 112/426/25 113/471/25 107/472/25 110/158/25
f 48/473/26 47/474/26 140/475/26 189/476/26
f 208/477/21 49/478/21 52/479/21 206/480/21
f 44/481/19 43/482/19 153/483/19 152/484/19
f 98/485/20 97/253/20 165/486/20 194/487/20
f 188/488/17 65/489/17 68/490/17 177/491/17
f 195/345/32 187/492/32 93/493/32 94/136/32
f 172/494/17 127/495/17 130/496/17 135/497/17
f 58/498/25 142/499/25 133/500/25 59/501/25
f 98/485/29 194/502/29 192/503/29 99/336/29
f 58/498/23 57/356/23 143/504/23 142/505/23
f 34/506/27 86/123/27 202/507/27 35/508/27
f 26/509/16 25/510/16 160/511/16 207/512/16
f 184/513/21 178/514/21 181/515/21 185/516/21
f 104/517/19 103/518/19 106/519/19 132/520/19
f 186/521/26 185/522/26 181/523/26 180/524/26
f 119/314/20 66/103/20 65/525/20 188/526/20
f 88/527/16 195/528/16 94/529/16 89/530/16
f 182/531/27 29/303/27 32/532/27 193/533/27
f 131/464/25 101/534/25 104/535/25 132/536/25
f 125/537/31 164/538/31 163/250/31 126/182/31
f 197/539/19 196/540/19 80/541/19 79/542/19
f 50/371/20 49/478/20 208/543/20 199/544/20
f 61/98/29 64/545/29 167/546/29 170/547/29
f 179/548/29 183/549/29 186/550/29 180/551/29
f 179/548/20 178/514/20 184/552/20 183/553/20
