# Blender v2.79 (sub 0) OBJ File: ''
# www.blender.org
mtllib bankerlamp.mtl
o cube
v -0.234375 0.625000 0.031250
v -0.234375 0.625000 -0.015625
v -0.234375 0.578125 -0.015625
v -0.234375 0.578125 0.031250
v 0.234375 0.578125 -0.015625
v 0.234375 0.625000 -0.015625
v 0.234375 0.625000 0.031250
v 0.234375 0.578125 0.031250
v 0.148437 0.593750 -0.070313
v -0.148438 0.593750 -0.070312
v -0.148438 0.593750 -0.023438
v 0.148438 0.593750 -0.023438
v -0.148438 0.546875 -0.023438
v -0.148438 0.546875 -0.070312
v 0.148437 0.546875 -0.070313
v 0.148438 0.546875 -0.023438
v -0.191406 0.609375 -0.054687
v -0.191406 0.609375 -0.007812
v -0.191406 0.562500 -0.054687
v -0.191406 0.562500 -0.007812
v 0.191406 0.609375 -0.054688
v 0.191406 0.562500 -0.054688
v 0.191406 0.609375 -0.007813
v 0.191406 0.562500 -0.007813
v -0.216506 -0.000000 -0.125000
v -0.000000 -0.000000 -0.250000
v 0.000000 0.000000 0.000000
v -0.185256 0.062500 -0.093750
v -0.000000 0.062500 -0.218750
v -0.000000 0.062500 -0.000000
v -0.216506 0.000000 0.125000
v -0.185256 0.062500 0.093750
v 0.000000 0.000000 0.250000
v 0.000000 0.062500 0.218750
v 0.216506 0.000000 0.125000
v 0.185256 0.062500 0.093750
v 0.216506 -0.000000 -0.125000
v 0.185256 0.062500 -0.093750
v -0.023438 0.359375 -0.054688
v -0.023438 0.359375 -0.101563
v -0.023438 0.250000 -0.039063
v -0.023437 0.250000 0.007812
v 0.023437 0.250000 -0.039063
v 0.023437 0.359375 -0.101563
v 0.023437 0.359375 -0.054688
v 0.023438 0.250000 0.007812
v 0.023437 0.546875 -0.070313
v -0.023438 0.546875 -0.070313
v -0.023438 0.546875 -0.023438
v 0.023437 0.546875 -0.023438
v -0.023438 0.484375 -0.101563
v 0.023437 0.484375 -0.101563
v -0.023438 0.484375 -0.054688
v 0.023437 0.484375 -0.054688
v -0.046875 0.062500 0.046875
v -0.031250 0.156250 0.031250
v -0.031250 0.156250 -0.031250
v -0.046875 0.062500 -0.046875
v 0.046875 0.062500 -0.046875
v 0.031250 0.156250 -0.031250
v 0.031250 0.156250 0.031250
v 0.046875 0.062500 0.046875
v 0.031250 0.250000 -0.046875
v -0.031250 0.250000 -0.046875
v -0.031250 0.250000 0.015625
v 0.031250 0.250000 0.015625
v 0.281250 0.578125 0.031250
v 0.281250 0.625000 0.031250
v 0.281250 0.625000 0.093750
v 0.281250 0.578125 0.093750
v 0.234375 0.625000 0.140625
v 0.234375 0.625000 -0.015625
v 0.234375 0.578125 -0.015625
v 0.234375 0.578125 0.140625
v -0.281250 0.625000 0.093750
v -0.281250 0.625000 0.031250
v -0.281250 0.578125 0.031250
v -0.281250 0.578125 0.093750
v -0.234375 0.578125 -0.015625
v -0.234375 0.625000 -0.015625
v -0.234375 0.625000 0.140625
v -0.234375 0.578125 0.140625
v -0.234375 0.625000 0.140625
v -0.234375 0.625000 0.093750
v -0.234375 0.578125 0.093750
v -0.234375 0.578125 0.140625
v -0.179687 0.578125 0.093750
v -0.171875 0.625000 0.093750
v -0.171875 0.625000 0.140625
v -0.179687 0.578125 0.140625
v 0.125000 0.625000 0.140625
v 0.125000 0.625000 0.093750
v 0.125000 0.578125 0.093750
v 0.125000 0.578125 0.140625
v 0.234375 0.578125 0.093750
v 0.234375 0.625000 0.093750
v 0.234375 0.625000 0.140625
v 0.234375 0.578125 0.140625
v 0.093750 0.625000 0.140625
v 0.093750 0.625000 0.093750
v 0.093750 0.578125 0.093750
v 0.093750 0.578125 0.140625
v 0.125000 0.570312 0.085937
v 0.125000 0.632812 0.085937
v 0.125000 0.632812 0.148437
v 0.125000 0.570312 0.148437
vt 0.046875 0.937500
vt 0.000000 0.937500
vt 0.000000 0.890625
vt 0.046875 0.890625
vt 0.109375 0.890625
vt 0.109375 0.937500
vt 0.062500 0.937500
vt 0.062500 0.890625
vt 0.000000 0.953125
vt 0.296875 0.953125
vt 0.296875 1.000000
vt 0.000000 1.000000
vt 0.296875 0.890625
vt 0.296875 0.937500
vt 0.000000 0.937500
vt 0.000000 0.890625
vt 0.296875 0.953125
vt 0.296875 1.000000
vt 0.000000 1.000000
vt 0.000000 0.953125
vt 0.296875 1.000000
vt 0.000000 1.000000
vt 0.000000 0.953125
vt 0.296875 0.953125
vt 0.062500 0.954275
vt 0.046875 1.000000
vt 0.000000 1.000000
vt 0.015625 0.954275
vt 0.000000 0.937500
vt 0.045719 0.953125
vt 0.045719 1.000000
vt 0.000000 0.984375
vt 0.109375 0.829275
vt 0.125000 0.875000
vt 0.078125 0.875000
vt 0.062500 0.829275
vt 0.108219 0.984375
vt 0.062500 1.000000
vt 0.062500 0.953125
vt 0.108219 0.937500
vt 0.108219 0.984375
vt 0.062500 1.000000
vt 0.062500 0.953125
vt 0.108219 0.937500
vt 0.109375 0.954275
vt 0.125000 1.000000
vt 0.078125 1.000000
vt 0.062500 0.954275
vt 0.000000 0.937500
vt 0.045719 0.953125
vt 0.045719 1.000000
vt 0.000000 0.984375
vt 0.062500 0.829275
vt 0.046875 0.875000
vt 0.000000 0.875000
vt 0.015625 0.829275
vt 0.039062 0.937500
vt 0.000000 0.891781
vt 0.046875 0.891781
vt 0.085938 0.937500
vt 0.058069 0.937500
vt 0.000000 0.921875
vt 0.058069 0.890625
vt 0.000000 0.875000
vt 0.039062 0.829281
vt 0.085938 0.829281
vt 0.046875 0.875000
vt 0.062500 0.890625
vt 0.120575 0.875000
vt 0.120575 0.921875
vt 0.062500 0.937500
vt 0.062500 0.937500
vt 0.101562 0.891781
vt 0.148438 0.891781
vt 0.109375 0.937500
vt 0.058075 0.937500
vt 0.000000 0.921875
vt 0.000000 0.875000
vt 0.058075 0.890625
vt 0.101562 0.875000
vt 0.062500 0.829281
vt 0.109375 0.829281
vt 0.148438 0.875000
vt 0.000000 0.890625
vt 0.058069 0.875000
vt 0.058069 0.921875
vt 0.000000 0.937500
vt 0.216506 0.875000
vt 0.000000 1.000000
vt 0.000000 0.750000
vt 0.000000 0.924312
vt 0.250000 0.924312
vt 0.238562 1.000000
vt 0.015625 0.991188
vt 0.000000 0.781250
vt 0.185256 0.906250
vt 0.000000 1.000000
vt 0.216506 0.750000
vt 0.216506 1.000000
vt 0.000000 0.875000
vt 0.000000 0.930125
vt 0.250000 0.930125
vt 0.218750 1.000000
vt 0.031250 1.000000
vt 0.185256 0.750000
vt 0.185256 0.937500
vt 0.000000 0.843750
vt 0.000000 0.750000
vt 0.216506 0.875000
vt 0.000000 1.000000
vt 0.000000 0.925681
vt 0.250000 0.925681
vt 0.234375 0.993788
vt 0.011437 1.000000
vt 0.185256 0.812500
vt 0.000000 0.937500
vt 0.000000 0.718750
vt 0.000000 0.875000
vt 0.216506 0.750000
vt 0.216506 1.000000
vt 0.000000 0.924312
vt 0.250000 0.924312
vt 0.238562 1.000000
vt 0.015625 0.991188
vt 0.247756 0.937500
vt 0.062500 0.812500
vt 0.247756 0.718750
vt 0.000000 1.000000
vt 0.000000 0.750000
vt 0.216506 0.875000
vt 0.000000 0.930125
vt 0.250000 0.930125
vt 0.218750 1.000000
vt 0.031250 1.000000
vt 0.062500 0.937500
vt 0.062500 0.750000
vt 0.247756 0.843750
vt 0.216506 1.000000
vt 0.000000 0.875000
vt 0.216506 0.750000
vt 0.000000 0.925681
vt 0.250000 0.925681
vt 0.234375 0.993788
vt 0.011437 1.000000
vt 0.062500 0.906250
vt 0.247756 0.781250
vt 0.247756 1.000000
vt 0.046875 1.000000
vt 0.000000 1.000000
vt 0.062500 0.890625
vt 0.109375 0.890625
vt 0.046875 0.890625
vt 0.109375 1.000000
vt 0.062500 1.000000
vt 0.000000 0.890625
vt 0.062500 0.953125
vt 0.109375 0.953125
vt 0.109375 1.000000
vt 0.062500 1.000000
vt 0.109375 0.937500
vt 0.062500 0.937500
vt 0.062500 0.890625
vt 0.109375 0.874025
vt 0.109375 1.000000
vt 0.062500 1.000000
vt 0.062500 0.874025
vt 0.109375 1.000000
vt 0.062500 1.000000
vt 0.062500 0.874025
vt 0.109375 0.874025
vt 0.046875 1.000000
vt 0.000000 1.000000
vt 0.000000 0.875000
vt 0.046875 0.875000
vt 0.109375 1.000000
vt 0.062500 1.000000
vt 0.062500 0.875000
vt 0.109375 0.875000
vt 0.046875 1.000000
vt 0.000000 1.000000
vt 0.000000 0.875000
vt 0.046875 0.875000
vt 0.046875 1.000000
vt 0.000000 1.000000
vt 0.000000 0.875000
vt 0.046875 0.875000
vt 0.046875 0.937500
vt 0.000000 0.937500
vt 0.000000 0.867625
vt 0.046875 0.867625
vt 0.078125 0.875000
vt 0.031250 0.875000
vt 0.000000 0.812500
vt 0.046875 0.812500
vt 0.046875 0.937500
vt 0.000000 0.937500
vt 0.000000 0.867625
vt 0.046875 0.867625
vt 0.046875 0.875000
vt 0.000000 0.875000
vt 0.031250 0.812500
vt 0.078125 0.812500
vt 0.156250 0.904956
vt 0.140625 1.000000
vt 0.078125 1.000000
vt 0.062500 0.904956
vt 0.156250 0.904956
vt 0.140625 1.000000
vt 0.078125 1.000000
vt 0.062500 0.904956
vt 0.062500 0.875000
vt 0.125000 0.875000
vt 0.125000 0.937500
vt 0.062500 0.937500
vt 0.156250 0.843750
vt 0.156250 0.937500
vt 0.062500 0.937500
vt 0.062500 0.843750
vt 0.156250 0.904956
vt 0.140625 1.000000
vt 0.078125 1.000000
vt 0.062500 0.904956
vt 0.156250 0.904956
vt 0.140625 1.000000
vt 0.078125 1.000000
vt 0.062500 0.904956
vt 0.062500 1.000000
vt 0.062500 0.906250
vt 0.125000 0.906250
vt 0.125000 1.000000
vt 0.062500 1.000000
vt 0.062500 0.906250
vt 0.125000 0.906250
vt 0.125000 1.000000
vt 0.062500 1.000000
vt 0.062500 0.906250
vt 0.125000 0.906250
vt 0.125000 1.000000
vt 0.062500 1.000000
vt 0.062500 0.906250
vt 0.125000 0.906250
vt 0.125000 1.000000
vt 0.062500 0.890625
vt 0.062500 0.937500
vt 0.000000 0.937500
vt 0.000000 0.890625
vt 0.156250 0.937500
vt 0.000000 0.937500
vt 0.000000 0.890625
vt 0.156250 0.890625
vt 0.062500 0.953125
vt 0.062500 0.890625
vt 0.109375 0.843750
vt 0.109375 1.000000
vt 0.109375 1.000000
vt 0.062500 0.953125
vt 0.062500 0.890625
vt 0.109375 0.843750
vt 0.128794 0.937500
vt 0.128794 0.890625
vt 0.066294 0.890625
vt 0.066294 0.937500
vt 0.000000 0.937500
vt 0.000000 0.890625
vt 0.062500 0.937500
vt 0.000000 0.937500
vt 0.000000 0.890625
vt 0.062500 0.890625
vt 0.156250 0.890625
vt 0.156250 0.937500
vt 0.000000 0.937500
vt 0.000000 0.890625
vt 0.000000 0.843750
vt 0.046875 0.890625
vt 0.046875 0.953125
vt 0.000000 1.000000
vt 0.046875 0.890625
vt 0.046875 0.953125
vt 0.000000 1.000000
vt 0.000000 0.843750
vt 0.066294 0.890625
vt 0.066294 0.937500
vt 0.000000 0.937500
vt 0.000000 0.890625
vt 0.128794 0.937500
vt 0.128794 0.890625
vt 0.046875 0.937500
vt 0.000000 0.937500
vt 0.000000 0.890625
vt 0.046875 0.890625
vt 0.109375 0.952481
vt 0.109375 1.000000
vt 0.062500 1.000000
vt 0.062500 0.952481
vt 0.000000 0.890625
vt 0.062500 0.890625
vt 0.062500 0.937500
vt 0.000000 0.937500
vt 0.054688 0.953125
vt 0.054688 1.000000
vt 0.000000 1.000000
vt 0.000000 0.953125
vt 0.062500 0.890625
vt 0.062500 0.937500
vt 0.000000 0.937500
vt 0.007812 0.890625
vt 0.125000 0.937500
vt 0.062500 0.890625
vt 0.117188 0.890625
vt 0.046875 0.937500
vt 0.000000 0.937500
vt 0.000000 0.890625
vt 0.046875 0.890625
vt 0.109375 0.890625
vt 0.109375 0.937500
vt 0.062500 0.937500
vt 0.062500 0.890625
vt 0.000000 0.890625
vt 0.109375 0.890625
vt 0.109375 0.937500
vt 0.000000 0.937500
vt 0.109375 0.953125
vt 0.109375 1.000000
vt 0.000000 1.000000
vt 0.000000 0.953125
vt 0.109375 0.890625
vt 0.109375 0.937500
vt 0.000000 0.937500
vt 0.000000 0.890625
vt 0.109375 0.937500
vt 0.000000 0.937500
vt 0.000000 0.890625
vt 0.109375 0.890625
vt 0.062500 0.437500
vt 0.000000 0.437500
vt 0.000000 0.375000
vt 0.062500 0.375000
vt 0.062500 0.375000
vt 0.062500 0.437500
vt 0.000000 0.437500
vt 0.000000 0.375000
vt 0.000000 0.375000
vt 0.062500 0.375000
vt 0.062500 0.437500
vt 0.000000 0.437500
vt 0.062500 0.375000
vt 0.062500 0.437500
vt 0.000000 0.437500
vt 0.000000 0.375000
vt 0.062500 0.437500
vt 0.000000 0.437500
vt 0.000000 0.375000
vt 0.062500 0.375000
vn -1.0000 -0.0000 0.0000
vn 1.0000 -0.0000 0.0000
vn 0.0000 1.0000 0.0000
vn 0.0000 -1.0000 0.0000
vn -0.0000 0.0000 -1.0000
vn 0.0000 0.0000 1.0000
vn 0.3417 0.9398 0.0000
vn -0.3417 0.0000 -0.9398
vn -0.3417 -0.9398 0.0000
vn 0.3417 0.0000 0.9398
vn 0.3417 0.0000 -0.9398
vn -0.3417 0.9398 0.0000
vn -0.3417 0.0000 0.9398
vn 0.3417 -0.9398 0.0000
vn -0.6727 -0.0000 0.7399
vn 0.6727 0.0000 -0.7399
vn -0.6727 0.0000 -0.7399
vn 0.6727 0.0000 0.7399
vn -0.4129 0.5640 -0.7151
vn -0.8944 0.4472 0.0000
vn -0.4588 0.3974 0.7947
vn -0.4588 0.3973 0.7947
vn 0.4129 0.5640 0.7151
vn 0.8944 0.4472 -0.0000
vn 0.4588 0.3974 -0.7947
vn 0.4588 0.3973 -0.7947
vn 0.0000 -0.4961 -0.8682
vn 0.0000 0.4961 0.8682
vn -0.0000 0.4472 -0.8944
vn 0.0000 -0.4472 0.8944
vn -0.9864 0.1644 0.0000
vn 0.9864 0.1644 -0.0000
vn -0.0000 0.1644 -0.9864
vn 0.0000 0.1644 0.9864
vn -0.0000 -0.1644 -0.9864
vn 0.7071 -0.0000 -0.7071
vn 0.7071 0.0000 0.7071
vn -0.7071 -0.0000 -0.7071
vn -0.7071 0.0000 0.7071
vn 0.9864 -0.1644 0.0000
vn -0.2425 0.9701 -0.0000
vn -0.2425 -0.9701 -0.0000
vn -0.2425 -0.0000 -0.9701
vn -0.2425 0.0000 0.9701
usemtl m_0
s 1
f 1/1/1 2/2/1 3/3/1 4/4/1
f 5/5/2 6/6/2 7/7/2 8/8/2
f 9/9/3 10/10/3 11/11/3 12/12/3
f 13/13/4 14/14/4 15/15/4 16/16/4
f 14/17/5 10/18/5 9/19/5 15/20/5
f 12/21/6 11/22/6 13/23/6 16/24/6
f 10/25/7 17/26/7 18/27/7 11/28/7
f 14/29/8 19/30/8 17/31/8 10/32/8
f 13/33/9 20/34/9 19/35/9 14/36/9
f 11/37/10 18/38/10 20/39/10 13/40/10
f 9/41/11 21/42/11 22/43/11 15/44/11
f 12/45/12 23/46/12 21/47/12 9/48/12
f 16/49/13 24/50/13 23/51/13 12/52/13
f 15/53/14 22/54/14 24/55/14 16/56/14
f 6/57/12 21/58/12 23/59/12 7/60/12
f 7/61/15 23/62/15 24/55/15 8/63/15
f 8/64/14 24/65/14 22/66/14 5/67/14
f 5/68/16 22/69/16 21/70/16 6/71/16
f 1/72/7 18/73/7 17/74/7 2/75/7
f 2/76/17 17/77/17 19/78/17 3/79/17
f 3/80/9 19/81/9 20/82/9 4/83/9
f 4/84/18 20/85/18 18/86/18 1/87/18
f 25/88/4 26/89/4 27/90/4
f 26/91/19 25/92/19 28/93/19 29/94/19
f 29/95/3 28/96/3 30/97/3
f 31/98/4 25/99/4 27/100/4
f 25/101/20 31/102/20 32/103/20 28/104/20
f 28/105/3 32/106/3 30/107/3
f 33/108/4 31/109/4 27/110/4
f 31/111/21 33/112/22 34/113/21 32/114/21
f 32/115/3 34/116/3 30/117/3
f 35/118/4 33/119/4 27/120/4
f 33/121/23 35/122/23 36/123/23 34/124/23
f 34/125/3 36/126/3 30/127/3
f 37/128/4 35/129/4 27/130/4
f 35/131/24 37/132/24 38/133/24 36/134/24
f 36/135/3 38/136/3 30/137/3
f 26/138/4 37/139/4 27/140/4
f 37/141/25 26/142/26 29/143/25 38/144/25
f 38/145/3 29/146/3 30/147/3
f 39/148/1 40/149/1 41/150/1 42/151/1
f 43/152/2 44/153/2 45/154/2 46/155/2
f 47/156/3 48/157/3 49/158/3 50/159/3
f 42/151/4 41/160/4 43/161/4 46/162/4
f 41/163/27 40/164/27 44/165/27 43/166/27
f 45/167/28 39/168/28 42/169/28 46/170/28
f 51/171/5 52/172/5 44/173/5 40/174/5
f 53/175/1 51/176/1 40/177/1 39/178/1
f 54/179/6 53/180/6 39/181/6 45/182/6
f 52/183/2 54/184/2 45/185/2 44/186/2
f 48/187/29 47/188/29 52/189/29 51/190/29
f 49/191/1 48/192/1 51/193/1 53/194/1
f 50/195/30 49/196/30 53/197/30 54/198/30
f 47/199/2 50/200/2 54/201/2 52/202/2
f 55/203/31 56/204/31 57/205/31 58/206/31
f 59/207/32 60/208/32 61/209/32 62/210/32
f 63/211/3 64/212/3 65/213/3 66/214/3
f 55/215/4 58/216/4 59/217/4 62/218/4
f 58/219/33 57/220/33 60/221/33 59/222/33
f 62/223/34 61/224/34 56/225/34 55/226/34
f 65/227/34 56/228/34 61/229/34 66/230/34
f 66/231/2 61/232/2 60/233/2 63/234/2
f 63/235/35 60/236/35 57/237/35 64/238/35
f 64/239/1 57/240/1 56/241/1 65/242/1
f 67/243/2 68/244/2 69/245/2 70/246/2
f 71/247/1 72/248/1 73/249/1 74/250/1
f 69/251/3 68/252/3 72/253/3 71/254/3
f 73/255/4 67/256/4 70/257/4 74/258/4
f 72/259/36 68/244/36 67/243/36 73/260/36
f 70/261/37 69/262/37 71/263/37 74/264/37
f 75/265/1 76/266/1 77/267/1 78/268/1
f 79/269/2 80/270/2 81/271/2 82/272/2
f 80/273/3 76/274/3 75/275/3 81/276/3
f 78/277/4 77/278/4 79/279/4 82/280/4
f 77/281/38 76/282/38 80/283/38 79/284/38
f 81/285/39 75/265/39 78/268/39 82/286/39
f 83/287/1 84/288/1 85/289/1 86/290/1
f 87/291/40 88/292/40 89/293/40 90/294/40
f 88/295/3 84/296/3 83/297/3 89/298/3
f 86/299/4 85/300/4 87/301/4 90/302/4
f 85/303/5 84/304/5 88/305/5 87/306/5
f 89/307/6 83/297/6 86/308/6 90/309/6
f 91/310/1 92/311/1 93/312/1 94/313/1
f 95/314/2 96/315/2 97/316/2 98/317/2
f 96/318/3 92/319/3 91/320/3 97/321/3
f 94/322/4 93/323/4 95/324/4 98/325/4
f 93/326/5 92/327/5 96/328/5 95/329/5
f 97/330/6 91/331/6 94/332/6 98/333/6
f 99/334/1 100/335/1 101/336/1 102/337/1
f 103/338/2 104/339/2 105/340/2 106/341/2
f 104/342/41 100/343/41 99/334/41 105/340/41
f 102/337/42 101/344/42 103/345/42 106/341/42
f 101/346/43 100/347/43 104/348/43 103/349/43
f 105/350/44 99/351/44 102/352/44 106/353/44
o shade
v -0.179687 0.668621 0.166901
v -0.179687 0.659088 0.057942
v 0.179688 0.659088 0.057942
v 0.179688 0.668621 0.166901
v -0.218750 0.555284 0.216028
v -0.210937 0.616865 0.202798
v -0.210938 0.601885 0.031577
v -0.218750 0.538942 0.029241
v 0.218750 0.538942 0.029241
v 0.210938 0.601885 0.031577
v 0.210938 0.616865 0.202798
v 0.218750 0.555284 0.216028
v 0.187500 0.666190 0.049478
v -0.187500 0.666190 0.049478
v -0.187500 0.677084 0.174002
v 0.187500 0.677084 0.174002
v -0.203125 0.561705 0.199782
v -0.203125 0.548087 0.044126
v 0.203125 0.561705 0.199781
v 0.203125 0.548087 0.044126
v -0.198768 0.603009 0.044419
v -0.198768 0.615741 0.189956
v 0.198768 0.603009 0.044419
v 0.198768 0.615741 0.189956
vt 0.859375 0.890625
vt 0.859375 1.000000
vt 0.500000 1.000000
vt 0.500000 0.890625
vt 0.687500 0.874512
vt 0.679688 0.937500
vt 0.507812 0.937500
vt 0.500000 0.874512
vt 0.687500 0.874512
vt 0.679688 0.937500
vt 0.507812 0.937500
vt 0.500000 0.874512
vt 0.518555 0.812500
vt 0.920898 0.812500
vt 0.920898 1.000000
vt 0.518555 1.000000
vt 0.937500 0.874512
vt 0.929688 0.937500
vt 0.507812 0.937500
vt 0.500000 0.874512
vt 0.937500 0.874519
vt 0.929688 0.937500
vt 0.507812 0.937500
vt 0.500000 0.874519
vt 0.515625 0.875000
vt 0.500000 0.857531
vt 0.687500 0.857531
vt 0.671875 0.875000
vt 0.687500 0.857531
vt 0.671875 0.875000
vt 0.515625 0.875000
vt 0.500000 0.857531
vt 1.000000 0.982531
vt 0.984375 1.000000
vt 0.578125 1.000000
vt 0.562500 0.982531
vt 0.515625 1.000000
vt 0.500000 0.982531
vt 0.937500 0.982531
vt 0.921875 1.000000
vt 0.656250 0.945144
vt 0.651175 1.000000
vt 0.505081 1.000000
vt 0.500000 0.945144
vt 0.906250 0.882581
vt 0.901894 0.937500
vt 0.504356 0.937500
vt 0.500000 0.882581
vt 0.656250 0.945144
vt 0.651169 1.000000
vt 0.505075 1.000000
vt 0.500000 0.945144
vt 0.906250 0.945075
vt 0.901894 1.000000
vt 0.504356 1.000000
vt 0.500000 0.945075
vt 0.531250 1.000000
vt 0.906250 1.000000
vt 0.523438 1.000000
vt 0.500000 0.937500
vt 0.671875 0.937500
vt 0.648438 1.000000
vt 0.523438 1.000000
vt 0.500000 0.937500
vt 0.921875 0.937500
vt 0.898438 1.000000
vt 0.523438 1.000000
vt 0.500000 0.937500
vt 0.671875 0.937500
vt 0.648438 1.000000
vt 0.519081 0.937500
vt 0.500000 0.879812
vt 0.897538 0.879812
vt 0.878456 0.937500
vt 0.518363 0.937500
vt 0.500000 0.879581
vt 0.646100 0.879581
vt 0.627738 0.937500
vt 0.519081 0.937500
vt 0.500000 0.879812
vt 0.897538 0.879812
vt 0.878456 0.937500
vt 0.518356 0.937500
vt 0.500000 0.879581
vt 0.646094 0.879581
vt 0.627731 0.937500
vn 0.0000 -0.9962 0.0872
vn -0.9923 0.1236 -0.0108
vn 0.9923 0.1236 -0.0108
vn -0.0000 0.9962 -0.0872
vn -0.0000 0.0371 -0.9993
vn 0.0000 0.2100 0.9777
vn 0.4472 -0.8910 0.0780
vn -0.4472 -0.8910 0.0780
vn -0.0000 -0.9300 -0.3676
vn 0.0000 -0.8520 0.5235
vn 0.9968 -0.0791 0.0069
vn 0.0000 -0.0053 1.0000
vn -0.9968 -0.0791 0.0069
vn -0.0000 -0.1789 -0.9839
vn 0.0000 0.4314 0.9022
vn 0.9363 0.3498 -0.0306
vn -0.0000 0.2682 -0.9634
vn -0.9363 0.3498 -0.0306
vn 0.0000 -0.2344 0.9721
vn -0.9442 -0.3282 0.0287
vn -0.0000 -0.3997 -0.9167
vn 0.9442 -0.3282 0.0287
usemtl m_0
s 1
f 107/354/45 108/355/45 109/356/45 110/357/45
f 111/358/46 112/359/46 113/360/46 114/361/46
f 115/362/47 116/363/47 117/364/47 118/365/47
f 119/366/48 120/367/48 121/368/48 122/369/48
f 114/370/49 113/371/49 116/372/49 115/373/49
f 118/374/50 117/375/50 112/376/50 111/377/50
f 123/378/51 111/379/51 114/380/51 124/381/51
f 118/382/52 125/383/52 126/384/52 115/385/52
f 111/386/53 123/387/53 125/388/53 118/389/53
f 124/390/54 114/391/54 115/392/54 126/393/54
f 124/394/55 127/395/55 128/396/55 123/397/55
f 126/398/56 129/399/56 127/400/56 124/401/56
f 125/402/57 130/403/57 129/404/57 126/405/57
f 123/406/58 128/407/58 130/408/58 125/409/58
f 121/410/59 112/376/59 117/375/59 122/411/59
f 122/412/60 117/413/60 116/414/60 119/415/60
f 119/416/61 116/417/61 113/418/61 120/419/61
f 120/420/62 113/421/62 112/422/62 121/423/62
f 108/424/63 127/425/63 129/426/63 109/427/63
f 109/428/64 129/429/64 130/430/64 110/431/64
f 110/432/65 130/433/65 128/434/65 107/435/65
f 107/436/66 128/437/66 127/438/66 108/439/66
o bulb
v -0.015625 0.625000 0.140625
v -0.015625 0.625000 0.093750
v -0.015625 0.578125 0.093750
v -0.015625 0.578125 0.140625
v 0.093750 0.578125 0.093750
v 0.093750 0.625000 0.093750
v 0.093750 0.625000 0.140625
v 0.093750 0.578125 0.140625
v 0.046875 0.640625 0.078125
v 0.046875 0.640625 0.156250
v 0.046875 0.562500 0.156250
v 0.046875 0.562500 0.078125
v 0.015625 0.640625 0.078125
v 0.015625 0.640625 0.156250
v 0.015625 0.562500 0.078125
v 0.015625 0.562500 0.156250
vt 0.859375 0.187500
vt 0.812500 0.187500
vt 0.812500 0.140625
vt 0.859375 0.140625
vt 0.921875 0.140625
vt 0.921875 0.187500
vt 0.875000 0.187500
vt 0.875000 0.140625
vt 0.937500 0.200587
vt 0.953125 0.250000
vt 0.875000 0.250000
vt 0.890625 0.200587
vt 0.875000 0.138094
vt 0.953125 0.138094
vt 0.937500 0.187500
vt 0.890625 0.187500
vt 0.861906 0.171875
vt 0.861906 0.250000
vt 0.812500 0.234375
vt 0.812500 0.187500
vt 0.861912 0.234375
vt 0.812500 0.250000
vt 0.812500 0.171875
vt 0.861912 0.187500
vt 0.843750 0.109375
vt 0.843750 0.187500
vt 0.812500 0.187500
vt 0.812500 0.109375
vt 0.843750 0.171875
vt 0.843750 0.250000
vt 0.812500 0.250000
vt 0.812500 0.171875
vt 0.843750 0.171875
vt 0.843750 0.250000
vt 0.812500 0.250000
vt 0.812500 0.250000
vt 0.812500 0.171875
vt 0.843750 0.171875
vt 0.843750 0.250000
vt 0.828125 0.152562
vt 0.875000 0.152562
vt 0.890625 0.187500
vt 0.812500 0.187500
vt 0.847438 0.187500
vt 0.847438 0.234375
vt 0.812500 0.250000
vt 0.812500 0.171875
vt 0.875000 0.250000
vt 0.828125 0.250000
vt 0.812500 0.215062
vt 0.890625 0.215062
vt 0.875000 0.234375
vt 0.875000 0.187500
vt 0.909944 0.171875
vt 0.909944 0.250000
vn -1.0000 0.0000 0.0000
vn 1.0000 0.0000 -0.0000
vn 0.3162 0.9487 0.0000
vn 0.3162 -0.9487 -0.0000
vn 0.3162 -0.0000 -0.9487
vn 0.3162 0.0000 0.9487
vn 0.0000 1.0000 0.0000
vn 0.0000 -0.0000 -1.0000
vn 0.0000 -1.0000 -0.0000
vn 0.0000 0.0000 1.0000
vn -0.4472 0.8944 -0.0000
vn -0.4472 0.0000 -0.8944
vn -0.4472 -0.8944 0.0000
vn -0.4472 0.0000 0.8944
usemtl m_0
s 1
f 131/440/67 132/441/67 133/442/67 134/443/67
f 135/444/68 136/445/68 137/446/68 138/447/68
f 136/448/69 139/449/69 140/450/69 137/451/69
f 141/452/70 142/453/70 135/454/70 138/455/70
f 142/456/71 139/457/71 136/458/71 135/459/71
f 137/460/72 140/461/72 141/462/72 138/463/72
f 143/464/73 144/465/73 140/466/73 139/467/73
f 145/468/74 143/469/74 139/470/74 142/471/74
f 146/472/75 145/473/75 142/474/75 141/462/75
f 144/475/76 146/476/76 141/477/76 140/478/76
f 132/479/77 131/480/77 144/481/77 143/482/77
f 133/483/78 132/484/78 143/485/78 145/486/78
f 134/487/79 133/488/79 145/489/79 146/490/79
f 131/491/80 134/492/80 146/493/80 144/494/80
o pullchain
v 0.139677 0.601562 0.117187
v 0.156250 0.601562 0.100615
v 0.156250 0.351562 0.100615
v 0.139677 0.351562 0.117187
v 0.172823 0.351562 0.117187
v 0.172823 0.601562 0.117187
v 0.156250 0.601562 0.133760
v 0.156250 0.351562 0.133760
vt 0.234375 0.468750
vt 0.210938 0.468750
vt 0.210938 0.218750
vt 0.234375 0.218750
vt 0.234375 0.218750
vt 0.234375 0.468750
vt 0.210938 0.468750
vt 0.210938 0.218750
vt 0.210938 0.382812
vt 0.234375 0.382812
vt 0.234375 0.406250
vt 0.210938 0.406250
vt 0.234375 0.382812
vt 0.234375 0.406250
vt 0.210938 0.406250
vt 0.210938 0.382812
vt 0.234375 0.218750
vt 0.234375 0.468750
vt 0.210938 0.468750
vt 0.210938 0.218750
vt 0.234375 0.468750
vt 0.210938 0.468750
vt 0.210938 0.218750
vt 0.234375 0.218750
vn -0.7071 -0.0000 -0.7071
vn 0.7071 0.0000 0.7071
vn 0.0000 1.0000 0.0000
vn 0.0000 -1.0000 0.0000
vn 0.7071 -0.0000 -0.7071
vn -0.7071 0.0000 0.7071
usemtl m_0
s 1
f 147/495/81 148/496/81 149/497/81 150/498/81
f 151/499/82 152/500/82 153/501/82 154/502/82
f 152/503/83 148/504/83 147/505/83 153/506/83
f 150/507/84 149/508/84 151/509/84 154/510/84
f 149/511/85 148/512/85 152/513/85 151/514/85
f 153/515/86 147/516/86 150/517/86 154/518/86
