# Blender v2.79 (sub 0) OBJ File: ''
# www.blender.org
mtllib chargeralt.mtl
o screen
v 0.125000 1.062500 0.250000
v 0.125000 1.062500 0.281250
v 0.125000 0.875000 0.281250
v 0.125000 0.875000 0.250000
v -0.375000 0.875000 0.281250
v -0.375000 1.062500 0.281250
v -0.375000 1.062500 0.250000
v -0.375000 0.875000 0.250000
vt 0.750000 0.312500
vt 0.750000 0.500000
vt 0.375000 0.500000
vt 0.375000 0.312500
vt 0.750000 0.312500
vt 0.750000 0.500000
vt 0.375000 0.500000
vt 0.375000 0.312500
vt 0.750000 0.312500
vt 0.375000 0.500000
vt 0.375000 0.312500
vt 0.750000 0.312500
vt 0.750000 0.500000
vt 0.375000 0.500000
vt 0.750000 0.312500
vt 0.375000 0.500000
vt 0.375000 0.312500
vt 0.750000 0.312500
vt 0.750000 0.500000
vt 0.375000 0.500000
vn 1.0000 0.0000 0.0000
vn -1.0000 0.0000 0.0000
vn 0.0000 1.0000 0.0000
vn 0.0000 -1.0000 0.0000
vn 0.0000 -0.0000 1.0000
vn 0.0000 0.0000 -1.0000
usemtl m_0
s 1
f 1/1/1 2/2/1 3/3/1 4/4/1
f 5/5/2 6/6/2 7/7/2 8/8/2
f 6/9/3 2/2/3 1/10/3 7/11/3
f 4/12/4 3/13/4 5/14/4 8/8/4
f 3/15/5 2/2/5 6/16/5 5/17/5
f 7/18/6 1/19/6 4/20/6 8/8/6
o frame
v -0.312500 0.062500 0.187500
v -0.312500 0.687500 0.187500
v -0.312500 0.687500 -0.187500
v -0.312500 0.062500 -0.187500
v -0.125000 0.062500 0.250000
v -0.125000 0.687500 0.250000
v -0.125000 0.687500 -0.250000
v -0.125000 0.062500 -0.250000
v 0.312500 0.687500 -0.187500
v 0.312500 0.687500 0.187500
v 0.312500 0.062500 0.187500
v 0.312500 0.062500 -0.187500
v 0.125000 0.687500 0.250000
v 0.125000 0.062500 0.250000
v 0.125000 0.062500 -0.250000
v 0.125000 0.687500 -0.250000
v 0.125000 0.062500 0.250000
v 0.125000 0.687500 0.250000
v -0.125000 0.687500 0.250000
v -0.125000 0.062500 0.250000
v -0.125000 0.687500 -0.250000
v 0.125000 0.687500 -0.250000
v 0.125000 0.062500 -0.250000
v -0.125000 0.062500 -0.250000
v -0.314453 0.359375 0.007813
v -0.314453 0.390625 0.007813
v -0.314453 0.390625 -0.023437
v -0.314453 0.359375 -0.023437
v -0.314453 0.359375 0.148438
v -0.314453 0.390625 0.148438
v -0.314453 0.390625 0.054688
v -0.314453 0.359375 0.054688
v -0.314453 0.359375 -0.070312
v -0.314453 0.390625 -0.070312
v -0.314453 0.390625 -0.132812
v -0.314453 0.359375 -0.132812
v -0.314453 0.453125 -0.070312
v -0.314453 0.484375 -0.070312
v -0.314453 0.484375 -0.132812
v -0.314453 0.453125 -0.132812
v -0.314453 0.390625 -0.085937
v -0.314453 0.453125 -0.085937
v -0.314453 0.453125 -0.117187
v -0.314453 0.390625 -0.117187
v -0.314453 0.390625 0.085938
v -0.314453 0.484375 0.085938
v -0.314453 0.484375 0.054688
v -0.314453 0.390625 0.054688
v -0.314453 0.390625 -0.023437
v -0.314453 0.484375 -0.023437
v -0.314453 0.484375 -0.054687
v -0.314453 0.390625 -0.054687
v -0.314453 0.390625 0.039063
v -0.314453 0.484375 0.039063
v -0.314453 0.484375 0.007813
v -0.314453 0.390625 0.007813
v 0.314453 0.453125 0.070313
v 0.314453 0.484375 0.070313
v 0.314453 0.484375 0.132813
v 0.314453 0.453125 0.132813
v 0.314453 0.390625 0.085938
v 0.314453 0.453125 0.085938
v 0.314453 0.453125 0.117188
v 0.314453 0.390625 0.117188
v 0.314453 0.359375 0.070313
v 0.314453 0.390625 0.070313
v 0.314453 0.390625 0.132813
v 0.314453 0.359375 0.132813
v 0.314453 0.390625 0.023438
v 0.314453 0.484375 0.023438
v 0.314453 0.484375 0.054688
v 0.314453 0.390625 0.054688
v 0.314453 0.359375 -0.007812
v 0.314453 0.390625 -0.007812
v 0.314453 0.390625 0.023438
v 0.314453 0.359375 0.023438
v 0.314453 0.390625 -0.039062
v 0.314453 0.484375 -0.039062
v 0.314453 0.484375 -0.007812
v 0.314453 0.390625 -0.007812
v 0.314453 0.390625 -0.085937
v 0.314453 0.484375 -0.085937
v 0.314453 0.484375 -0.054687
v 0.314453 0.390625 -0.054687
v 0.314453 0.359375 -0.148437
v 0.314453 0.390625 -0.148437
v 0.314453 0.390625 -0.054687
v 0.314453 0.359375 -0.054687
vt 0.906250 0.500000
vt 0.906250 0.750000
vt 0.750000 0.750000
vt 0.750000 0.500000
vt 0.750000 0.500000
vt 0.750000 0.750000
vt 0.656250 0.750000
vt 0.656250 0.500000
vt 1.000000 0.750000
vt 0.906250 0.750000
vt 0.906250 0.500000
vt 1.000000 0.500000
vt 0.500000 0.750000
vt 0.656250 0.750000
vt 0.656250 0.500000
vt 0.500000 0.500000
vt 0.750000 0.750000
vt 0.843750 0.750000
vt 0.843750 0.500000
vt 0.750000 0.500000
vt 0.656250 0.500000
vt 0.656250 0.750000
vt 0.750000 0.750000
vt 0.750000 0.500000
vt 0.593750 0.500000
vt 0.593750 0.750000
vt 0.500000 0.750000
vt 0.500000 0.500000
vt 0.687500 0.750000
vt 0.593750 0.750000
vt 0.593750 0.500000
vt 0.687500 0.500000
vt 0.531250 0.562500
vt 0.531250 0.593750
vt 0.500000 0.593750
vt 0.500000 0.562500
vt 0.531250 0.562500
vt 0.531250 0.593750
vt 0.500000 0.593750
vt 0.500000 0.562500
vt 0.531250 0.562500
vt 0.531250 0.593750
vt 0.500000 0.593750
vt 0.500000 0.562500
vt 0.531250 0.562500
vt 0.531250 0.593750
vt 0.500000 0.593750
vt 0.500000 0.562500
vt 0.531250 0.562500
vt 0.531250 0.593750
vt 0.500000 0.593750
vt 0.500000 0.562500
vt 0.531250 0.562500
vt 0.531250 0.593750
vt 0.500000 0.593750
vt 0.500000 0.562500
vt 0.531250 0.562500
vt 0.531250 0.593750
vt 0.500000 0.593750
vt 0.500000 0.562500
vt 0.531250 0.562500
vt 0.531250 0.593750
vt 0.500000 0.593750
vt 0.500000 0.562500
vt 0.531250 0.562500
vt 0.531250 0.593750
vt 0.500000 0.593750
vt 0.500000 0.562500
vt 0.531250 0.562500
vt 0.531250 0.593750
vt 0.500000 0.593750
vt 0.500000 0.562500
vt 0.531250 0.562500
vt 0.531250 0.593750
vt 0.500000 0.593750
vt 0.500000 0.562500
vt 0.531250 0.562500
vt 0.531250 0.593750
vt 0.500000 0.593750
vt 0.500000 0.562500
vt 0.531250 0.562500
vt 0.531250 0.593750
vt 0.500000 0.593750
vt 0.500000 0.562500
vt 0.531250 0.562500
vt 0.531250 0.593750
vt 0.500000 0.593750
vt 0.500000 0.562500
vt 0.531250 0.562500
vt 0.531250 0.593750
vt 0.500000 0.593750
vt 0.500000 0.562500
vt 0.531250 0.562500
vt 0.531250 0.593750
vt 0.500000 0.593750
vt 0.500000 0.562500
vn -1.0000 -0.0000 0.0000
vn -0.3162 -0.0000 0.9487
vn -0.3162 0.0000 -0.9487
vn 1.0000 0.0000 0.0000
vn 0.3162 -0.0000 0.9487
vn 0.3162 0.0000 -0.9487
vn 0.0000 -0.0000 1.0000
vn 0.0000 0.0000 -1.0000
usemtl m_0
s 1
f 9/21/7 10/22/7 11/23/7 12/24/7
f 13/25/8 14/26/8 10/27/8 9/28/8
f 11/29/9 15/30/9 16/31/9 12/32/9
f 17/33/10 18/34/10 19/35/10 20/36/10
f 18/37/11 21/38/11 22/39/11 19/40/11
f 23/41/12 24/42/12 17/43/12 20/44/12
f 25/45/13 26/46/13 27/47/13 28/48/13
f 29/49/14 30/50/14 31/51/14 32/52/14
f 33/53/7 34/54/7 35/55/7 36/56/7
f 37/57/7 38/58/7 39/59/7 40/60/7
f 41/61/7 42/62/7 43/63/7 44/64/7
f 45/65/7 46/66/7 47/67/7 48/68/7
f 49/69/7 50/70/7 51/71/7 52/72/7
f 53/73/7 54/74/7 55/75/7 56/76/7
f 57/77/7 58/78/7 59/79/7 60/80/7
f 61/81/7 62/82/7 63/83/7 64/84/7
f 65/85/10 66/86/10 67/87/10 68/88/10
f 69/89/10 70/90/10 71/91/10 72/92/10
f 73/93/10 74/94/10 75/95/10 76/96/10
f 77/97/10 78/98/10 79/99/10 80/100/10
f 81/101/10 82/102/10 83/103/10 84/104/10
f 85/105/10 86/106/10 87/107/10 88/108/10
f 89/109/10 90/110/10 91/111/10 92/112/10
f 93/113/10 94/114/10 95/115/10 96/116/10
o charger
v 0.328125 1.046875 0.390625
v 0.328125 0.968750 0.421875
v 0.328125 0.968750 0.320313
v 0.328125 1.046875 0.312500
v 0.234375 1.046875 0.312500
v 0.234375 0.968750 0.320313
v 0.234375 0.968750 0.421875
v 0.234375 1.046875 0.390625
v 0.328125 0.890625 0.312500
v 0.328125 0.890625 0.390625
v 0.234375 0.890625 0.390625
v 0.234375 0.890625 0.312500
v 0.312500 0.890625 0.320313
v 0.312500 0.890625 0.382813
v 0.312500 0.765625 0.375000
v 0.312500 0.765625 0.312500
v 0.250000 0.765625 0.375000
v 0.250000 0.890625 0.382813
v 0.250000 0.890625 0.320313
v 0.250000 0.765625 0.312500
v 0.312500 0.765625 0.312500
v 0.312500 0.765625 0.375000
v 0.250000 0.515625 0.312500
v 0.250000 0.515625 0.250000
v 0.187500 0.515625 0.312500
v 0.250000 0.765625 0.375000
v 0.250000 0.765625 0.312500
v 0.187500 0.515625 0.250000
v 0.265625 0.515625 0.203125
v 0.265625 0.515625 0.328125
v 0.265625 0.453125 0.296875
v 0.265625 0.453125 0.203125
v 0.171875 0.453125 0.296875
v 0.171875 0.515625 0.328125
v 0.171875 0.515625 0.203125
v 0.171875 0.453125 0.203125
v 0.304688 0.937500 0.296875
v 0.312500 0.945312 0.320313
v 0.312500 0.914062 0.320313
v 0.304688 0.921875 0.296875
v 0.250000 0.914062 0.320313
v 0.250000 0.945312 0.320313
v 0.257812 0.937500 0.296875
v 0.257812 0.921875 0.296875
v 0.304688 1.015625 0.296875
v 0.312500 1.023438 0.320313
v 0.312500 0.992188 0.320313
v 0.304688 1.000000 0.296875
v 0.250000 0.992188 0.320313
v 0.250000 1.023438 0.320313
v 0.257812 1.015625 0.296875
v 0.257812 1.000000 0.296875
v 0.304688 0.976562 0.304688
v 0.312500 0.984375 0.320313
v 0.312500 0.953125 0.320313
v 0.304688 0.960938 0.304688
v 0.250000 0.953125 0.320313
v 0.250000 0.984375 0.320313
v 0.257812 0.976562 0.304688
v 0.257812 0.960938 0.304688
vt 0.687500 0.859375
vt 0.664062 0.796875
vt 0.750000 0.796875
vt 0.750000 0.859375
vt 0.593750 0.890625
vt 0.593750 0.953125
vt 0.507812 0.953125
vt 0.531250 0.890625
vt 0.656250 0.921875
vt 0.656250 0.984375
vt 0.593750 0.984375
vt 0.593750 0.921875
vt 0.656250 0.921875
vt 0.656250 0.984375
vt 0.593750 0.984375
vt 0.593750 0.921875
vt 0.593750 0.859375
vt 0.593750 0.953125
vt 0.500000 0.953125
vt 0.500000 0.859375
vt 0.687500 0.828125
vt 0.687500 0.921875
vt 0.593750 0.921875
vt 0.593750 0.828125
vt 0.625000 0.890625
vt 0.648438 0.953125
vt 0.562500 0.953125
vt 0.562500 0.890625
vt 0.625000 0.765625
vt 0.625000 0.859375
vt 0.531250 0.859375
vt 0.531250 0.765625
vt 0.750000 0.890625
vt 0.750000 0.953125
vt 0.664062 0.953125
vt 0.687500 0.890625
vt 0.718750 0.765625
vt 0.718750 0.859375
vt 0.625000 0.859375
vt 0.625000 0.765625
vt 0.343750 0.437500
vt 0.312500 0.437500
vt 0.312500 0.375000
vt 0.343750 0.375000
vt 0.343750 0.375000
vt 0.343750 0.437500
vt 0.312500 0.437500
vt 0.312500 0.375000
vt 0.343750 0.375000
vt 0.343750 0.437500
vt 0.312500 0.437500
vt 0.312500 0.375000
vt 0.343750 0.437500
vt 0.312500 0.437500
vt 0.312500 0.375000
vt 0.343750 0.375000
vt 0.312500 0.375000
vt 0.281250 0.375000
vt 0.281250 0.250000
vt 0.312500 0.250000
vt 0.312500 0.250000
vt 0.312500 0.375000
vt 0.281250 0.375000
vt 0.281250 0.250000
vt 0.312500 0.250000
vt 0.312500 0.375000
vt 0.281250 0.375000
vt 0.281250 0.250000
vt 0.312500 0.375000
vt 0.281250 0.375000
vt 0.281250 0.250000
vt 0.312500 0.250000
vt 0.031250 0.406250
vt 0.062500 0.406250
vt 0.062500 0.437500
vt 0.031250 0.437500
vt 0.031250 0.406250
vt 0.062500 0.406250
vt 0.062500 0.437500
vt 0.031250 0.437500
vt 0.031250 0.406250
vt 0.062500 0.437500
vt 0.031250 0.437500
vt 0.031250 0.406250
vt 0.062500 0.406250
vt 0.062500 0.437500
vt 0.031250 0.406250
vt 0.062500 0.437500
vt 0.031250 0.437500
vt 0.031250 0.406250
vt 0.062500 0.406250
vt 0.062500 0.437500
vt 0.500000 0.250000
vt 0.468750 0.250000
vt 0.468750 0.218750
vt 0.500000 0.218750
vt 0.500000 0.250000
vt 0.468750 0.250000
vt 0.468750 0.218750
vt 0.500000 0.218750
vt 0.500000 0.250000
vt 0.468750 0.218750
vt 0.500000 0.218750
vt 0.500000 0.250000
vt 0.468750 0.250000
vt 0.468750 0.218750
vt 0.500000 0.250000
vt 0.468750 0.218750
vt 0.500000 0.218750
vt 0.500000 0.250000
vt 0.468750 0.250000
vt 0.468750 0.218750
vt 0.500000 0.250000
vt 0.468750 0.250000
vt 0.468750 0.218750
vt 0.500000 0.218750
vt 0.500000 0.250000
vt 0.468750 0.250000
vt 0.468750 0.218750
vt 0.500000 0.218750
vt 0.500000 0.250000
vt 0.468750 0.218750
vt 0.500000 0.218750
vt 0.500000 0.250000
vt 0.468750 0.250000
vt 0.468750 0.218750
vt 0.500000 0.250000
vt 0.468750 0.218750
vt 0.500000 0.218750
vt 0.500000 0.250000
vt 0.468750 0.250000
vt 0.468750 0.218750
vt 0.500000 0.250000
vt 0.468750 0.250000
vt 0.468750 0.218750
vt 0.500000 0.218750
vt 0.500000 0.250000
vt 0.468750 0.250000
vt 0.468750 0.218750
vt 0.500000 0.218750
vt 0.500000 0.250000
vt 0.468750 0.218750
vt 0.500000 0.218750
vt 0.500000 0.250000
vt 0.468750 0.250000
vt 0.468750 0.218750
vt 0.500000 0.250000
vt 0.468750 0.218750
vt 0.500000 0.218750
vt 0.500000 0.250000
vt 0.468750 0.250000
vt 0.468750 0.218750
vn 1.0000 -0.0000 0.0000
vn -1.0000 0.0000 0.0000
vn 0.0000 1.0000 0.0000
vn 0.0000 -1.0000 0.0000
vn 0.0000 0.3714 0.9285
vn 0.0000 -0.0995 -0.9950
vn 0.0000 0.0995 -0.9950
vn 0.0000 -0.3714 0.9285
vn 0.0000 -0.0624 0.9981
vn 0.0000 0.0624 -0.9981
vn 0.9701 -0.2425 0.0000
vn -0.9701 0.2425 0.0000
vn 0.0000 -0.2425 0.9701
vn 0.0000 0.2425 -0.9701
vn 0.0000 -0.4472 0.8944
vn 0.0000 0.0000 -1.0000
vn 0.9487 0.0000 -0.3162
vn -0.9487 0.0000 -0.3162
vn 0.0000 0.9487 -0.3162
vn 0.0000 -0.9487 -0.3162
vn 0.0000 0.0000 1.0000
vn 0.8944 0.0000 -0.4472
vn -0.8944 0.0000 -0.4472
vn 0.0000 0.8944 -0.4472
vn 0.0000 -0.8944 -0.4472
usemtl m_0
s 1
f 97/117/15 98/118/15 99/119/15 100/120/15
f 101/121/16 102/122/16 103/123/16 104/124/16
f 104/125/17 97/126/17 100/127/17 101/128/17
f 105/129/18 106/130/18 107/131/18 108/132/18
f 104/133/19 103/134/19 98/135/19 97/136/19
f 100/137/20 99/138/20 102/139/20 101/140/20
f 107/141/16 103/142/16 102/143/16 108/144/16
f 108/145/21 102/146/21 99/147/21 105/148/21
f 105/149/15 99/150/15 98/151/15 106/152/15
f 106/153/22 98/154/22 103/155/22 107/156/22
f 109/157/15 110/158/15 111/159/15 112/160/15
f 113/161/16 114/162/16 115/163/16 116/164/16
f 111/165/23 110/166/23 114/167/23 113/168/23
f 115/169/24 109/170/24 112/171/24 116/172/24
f 117/173/25 118/174/25 119/175/25 120/176/25
f 121/177/26 122/178/26 123/179/26 124/180/26
f 119/181/27 118/182/27 122/183/27 121/184/27
f 123/185/28 117/186/28 120/187/28 124/188/28
f 125/189/15 126/190/15 127/191/15 128/192/15
f 129/193/16 130/194/16 131/195/16 132/196/16
f 130/197/17 126/190/17 125/198/17 131/199/17
f 128/200/18 127/201/18 129/202/18 132/196/18
f 127/203/29 126/190/29 130/204/29 129/205/29
f 131/206/30 125/207/30 128/208/30 132/196/30
f 133/209/31 134/210/31 135/211/31 136/212/31
f 137/213/32 138/214/32 139/215/32 140/216/32
f 138/217/33 134/210/33 133/218/33 139/219/33
f 136/220/34 135/221/34 137/222/34 140/216/34
f 135/223/35 134/210/35 138/224/35 137/225/35
f 139/226/30 133/227/30 136/228/30 140/216/30
f 141/229/31 142/230/31 143/231/31 144/232/31
f 145/233/32 146/234/32 147/235/32 148/236/32
f 146/237/33 142/230/33 141/238/33 147/239/33
f 144/240/34 143/241/34 145/242/34 148/236/34
f 143/243/35 142/230/35 146/244/35 145/245/35
f 147/246/30 141/247/30 144/248/30 148/236/30
f 149/249/36 150/250/36 151/251/36 152/252/36
f 153/253/37 154/254/37 155/255/37 156/256/37
f 154/257/38 150/250/38 149/258/38 155/259/38
f 152/260/39 151/261/39 153/262/39 156/256/39
f 151/263/35 150/250/35 154/264/35 153/265/35
f 155/266/30 149/267/30 152/268/30 156/256/30
o glass_translucent
v 0.171875 0.406250 -0.281250
v 0.171875 0.406250 -0.234375
v 0.171875 0.062500 -0.234375
v 0.171875 0.062500 -0.281250
v -0.171875 0.062500 -0.234375
v -0.171875 0.406250 -0.234375
v -0.171875 0.406250 -0.281250
v -0.171875 0.062500 -0.281250
v 0.171875 0.750000 -0.281250
v 0.171875 0.750000 -0.234375
v 0.171875 0.406250 -0.234375
v 0.171875 0.406250 -0.281250
v -0.171875 0.406250 -0.234375
v -0.171875 0.750000 -0.234375
v -0.171875 0.750000 -0.281250
v -0.171875 0.406250 -0.281250
vt 0.781250 0.250000
vt 0.750000 0.250000
vt 0.750000 0.000000
vt 0.781250 0.000000
vt 1.000000 0.000000
vt 1.000000 0.250000
vt 0.968750 0.250000
vt 0.968750 0.000000
vt 1.000000 0.250000
vt 0.750000 0.250000
vt 0.750000 0.000000
vt 1.000000 0.000000
vt 1.000000 0.000000
vt 0.968750 0.000000
vt 0.968750 0.250000
vt 1.000000 0.250000
vt 0.781250 0.250000
vt 0.781250 0.000000
vt 0.750000 0.000000
vt 0.750000 0.250000
vn 1.0000 0.0000 0.0000
vn -1.0000 0.0000 0.0000
vn 0.0000 0.0000 -1.0000
usemtl m_0
s 1
f 157/269/40 158/270/40 159/271/40 160/272/40
f 161/273/41 162/274/41 163/275/41 164/276/41
f 163/277/42 157/278/42 160/279/42 164/280/42
f 165/281/40 166/282/40 167/283/40 168/284/40
f 169/285/41 170/286/41 171/287/41 172/288/41
f 171/287/42 165/281/42 168/284/42 172/288/42
o base
v 0.500000 0.062500 -0.500000
v 0.500000 0.062500 0.500000
v 0.500000 -0.000000 0.500000
v 0.500000 0.000000 -0.500000
v -0.500000 -0.000000 0.500000
v -0.500000 0.062500 0.500000
v -0.500000 0.062500 -0.500000
v -0.500000 0.000000 -0.500000
vt 0.500000 1.000000
vt 0.500000 0.500000
vt 0.468750 0.500000
vt 0.468750 1.000000
vt 0.031250 0.500000
vt 0.000000 0.500000
vt 0.000000 1.000000
vt 0.031250 1.000000
vt 0.500000 1.000000
vt 0.500000 0.500000
vt 0.000000 0.500000
vt 0.000000 1.000000
vt 0.500000 0.531250
vt 0.000000 0.531250
vt 0.500000 0.968750
vt 0.000000 0.968750
vn 1.0000 0.0000 0.0000
vn -1.0000 0.0000 0.0000
vn 0.0000 1.0000 0.0000
vn 0.0000 -1.0000 -0.0000
vn 0.0000 0.0000 1.0000
vn 0.0000 0.0000 -1.0000
usemtl m_0
s 1
f 173/289/43 174/290/43 175/291/43 176/292/43
f 177/293/44 178/294/44 179/295/44 180/296/44
f 178/294/45 174/290/45 173/289/45 179/295/45
f 176/297/46 175/298/46 177/299/46 180/300/46
f 175/298/47 174/301/47 178/302/47 177/299/47
f 179/295/48 173/289/48 176/303/48 180/304/48
o case
v 0.375000 1.250000 -0.250000
v 0.375000 1.250000 0.250000
v 0.437500 1.125000 0.312500
v 0.437500 1.125000 -0.312500
v -0.437500 1.125000 0.312500
v -0.375000 1.250000 0.250000
v -0.375000 1.250000 -0.250000
v -0.437500 1.125000 -0.312500
v 0.437500 0.812500 0.312500
v 0.375000 0.687500 0.250000
v 0.375000 0.687500 -0.250000
v 0.437500 0.812500 -0.312500
v -0.375000 0.687500 -0.250000
v -0.375000 0.687500 0.250000
v -0.437500 0.812500 0.312500
v -0.437500 0.812500 -0.312500
v 0.375000 1.093750 0.312500
v 0.343750 1.062500 0.343750
v 0.343750 0.875000 0.343750
v 0.375000 0.843750 0.312500
v 0.218750 0.875000 0.343750
v 0.218750 1.062500 0.343750
v 0.187500 1.093750 0.312500
v 0.187500 0.843750 0.312500
vt 0.218750 0.156250
vt 0.031250 0.156250
vt 0.000000 0.062500
vt 0.250000 0.062500
vt 0.500000 0.062500
vt 0.468750 0.156250
vt 0.281250 0.156250
vt 0.250000 0.062500
vt 0.062500 0.000000
vt 0.437500 0.000000
vt 0.437500 0.250000
vt 0.062500 0.250000
vt 0.375000 0.062500
vt 0.343750 0.156250
vt 0.031250 0.156250
vt 0.000000 0.062500
vt 0.468750 0.156250
vt 0.156250 0.156250
vt 0.125000 0.062500
vt 0.500000 0.062500
vt 0.000000 0.062500
vt 0.031250 0.156250
vt 0.218750 0.156250
vt 0.250000 0.062500
vt 0.281250 0.156250
vt 0.468750 0.156250
vt 0.500000 0.062500
vt 0.250000 0.062500
vt 0.437500 0.250000
vt 0.437500 0.000000
vt 0.062500 0.000000
vt 0.062500 0.250000
vt 0.031250 0.156250
vt 0.343750 0.156250
vt 0.375000 0.062500
vt 0.000000 0.062500
vt 0.125000 0.062500
vt 0.156250 0.156250
vt 0.468750 0.156250
vt 0.500000 0.062500
vt 0.093750 0.500000
vt 0.062500 0.484375
vt 0.062500 0.390625
vt 0.093750 0.375000
vt 0.031250 0.390625
vt 0.031250 0.484375
vt 0.000000 0.500000
vt 0.000000 0.375000
vt 0.000000 0.468750
vt 0.093750 0.468750
vt 0.093750 0.406250
vt 0.000000 0.406250
vt 0.093750 0.390625
vt 0.093750 0.484375
vt 0.000000 0.484375
vt 0.000000 0.390625
vn 0.8944 0.4472 0.0000
vn -0.8944 0.4472 0.0000
vn 0.0000 1.0000 0.0000
vn 0.0000 0.4472 0.8944
vn 0.0000 0.4472 -0.8944
vn 0.8944 -0.4472 0.0000
vn -0.8944 -0.4472 0.0000
vn 0.0000 -1.0000 0.0000
vn 0.0000 -0.4472 0.8944
vn 0.0000 -0.4472 -0.8944
vn 0.7071 -0.0000 0.7071
vn -0.7071 -0.0000 0.7071
vn 0.0000 0.7071 0.7071
vn 0.0000 -0.7071 0.7071
vn 0.0000 -0.0000 1.0000
usemtl m_0
s 1
f 181/305/49 182/306/49 183/307/49 184/308/49
f 185/309/50 186/310/50 187/311/50 188/312/50
f 186/313/51 182/314/51 181/315/51 187/316/51
f 183/317/52 182/318/52 186/319/52 185/320/52
f 187/321/53 181/322/53 184/323/53 188/324/53
f 189/325/54 190/326/54 191/327/54 192/328/54
f 193/329/55 194/330/55 195/331/55 196/332/55
f 191/333/56 190/334/56 194/335/56 193/336/56
f 194/337/57 190/338/57 189/339/57 195/340/57
f 192/341/58 191/342/58 193/343/58 196/344/58
f 197/345/59 198/346/59 199/347/59 200/348/59
f 201/349/60 202/350/60 203/351/60 204/352/60
f 202/353/61 198/354/61 197/345/61 203/351/61
f 200/348/62 199/355/62 201/356/62 204/352/62
f 199/357/63 198/358/63 202/359/63 201/360/63
o redstone
v 0.156250 0.406250 -0.265625
v 0.156250 0.406250 -0.250000
v 0.156250 0.062500 -0.250000
v 0.156250 0.062500 -0.265625
v -0.156250 0.062500 -0.250000
v -0.156250 0.406250 -0.250000
v -0.156250 0.406250 -0.265625
v -0.156250 0.062500 -0.265625
v 0.156250 0.750000 -0.265625
v 0.156250 0.750000 -0.250000
v 0.156250 0.406250 -0.250000
v 0.156250 0.406250 -0.265625
v -0.156250 0.406250 -0.250000
v -0.156250 0.750000 -0.250000
v -0.156250 0.750000 -0.265625
v -0.156250 0.406250 -0.265625
vt 0.781250 0.500000
vt 0.750000 0.500000
vt 0.750000 0.250000
vt 0.781250 0.250000
vt 1.000000 0.250000
vt 1.000000 0.500000
vt 0.968750 0.500000
vt 0.968750 0.250000
vt 1.000000 0.500000
vt 0.750000 0.500000
vt 0.750000 0.250000
vt 1.000000 0.250000
vt 0.750000 0.250000
vt 0.781250 0.250000
vt 0.781250 0.500000
vt 0.750000 0.500000
vt 0.968750 0.500000
vt 0.968750 0.250000
vt 1.000000 0.250000
vt 1.000000 0.500000
vt 0.750000 0.250000
vt 1.000000 0.250000
vt 1.000000 0.500000
vt 0.750000 0.500000
vn 1.0000 0.0000 0.0000
vn -1.0000 0.0000 0.0000
vn 0.0000 0.0000 -1.0000
usemtl m_0
s 1
f 205/361/64 206/362/64 207/363/64 208/364/64
f 209/365/65 210/366/65 211/367/65 212/368/65
f 211/369/66 205/370/66 208/371/66 212/372/66
f 213/373/64 214/374/64 215/375/64 216/376/64
f 217/377/65 218/378/65 219/379/65 220/380/65
f 219/381/66 213/382/66 216/383/66 220/384/66
o cube
v 0.437500 1.125000 -0.312500
v 0.437500 1.125000 0.312500
v 0.437500 0.812500 0.312500
v 0.437500 0.812500 -0.312500
v 0.125000 0.812500 0.312500
v 0.125000 1.125000 0.312500
v 0.125000 1.125000 -0.312500
v 0.125000 0.812500 -0.312500
v -0.375000 1.125000 -0.312500
v -0.375000 1.125000 0.312500
v -0.375000 0.812500 0.312500
v -0.375000 0.812500 -0.312500
v -0.437500 0.812500 0.312500
v -0.437500 1.125000 0.312500
v -0.437500 1.125000 -0.312500
v -0.437500 0.812500 -0.312500
v -0.375000 1.125000 -0.312500
v 0.125000 1.125000 -0.312500
v 0.125000 0.812500 -0.312500
v -0.375000 0.812500 -0.312500
v 0.125000 1.062500 0.250000
v 0.125000 1.062500 0.312500
v -0.375000 1.062500 0.312500
v -0.375000 1.062500 0.250000
v 0.125000 1.125000 0.312500
v -0.375000 1.125000 0.312500
v -0.375000 0.875000 0.312500
v 0.125000 0.875000 0.312500
v 0.125000 0.875000 0.250000
v -0.375000 0.875000 0.250000
v -0.375000 0.812500 0.312500
v 0.125000 0.812500 0.312500
vt 0.437500 0.218750
vt 0.062500 0.218750
vt 0.062500 0.031250
vt 0.437500 0.031250
vt 0.437500 0.031250
vt 0.437500 0.218750
vt 0.062500 0.218750
vt 0.062500 0.031250
vt 0.250000 0.031250
vt 0.250000 0.218750
vt 0.062500 0.218750
vt 0.062500 0.031250
vt 0.437500 0.218750
vt 0.250000 0.218750
vt 0.250000 0.031250
vt 0.437500 0.031250
vt 0.375000 0.218750
vt 0.000000 0.218750
vt 0.000000 0.031250
vt 0.375000 0.031250
vt 0.375000 0.031250
vt 0.375000 0.218750
vt 0.000000 0.218750
vt 0.000000 0.031250
vt 0.031250 0.031250
vt 0.031250 0.218750
vt 0.000000 0.218750
vt 0.000000 0.031250
vt 0.375000 0.218750
vt 0.343750 0.218750
vt 0.343750 0.031250
vt 0.375000 0.031250
vt 0.406250 0.218750
vt 0.093750 0.218750
vt 0.093750 0.031250
vt 0.406250 0.031250
vt 0.375000 0.156250
vt 0.375000 0.187500
vt 0.125000 0.187500
vt 0.125000 0.156250
vt 0.375000 0.218750
vt 0.125000 0.218750
vt 0.125000 0.187500
vt 0.375000 0.187500
vt 0.375000 0.156250
vt 0.125000 0.156250
vt 0.125000 0.218750
vt 0.375000 0.218750
vn 1.0000 0.0000 0.0000
vn -1.0000 0.0000 0.0000
vn 0.0000 -0.0000 1.0000
vn 0.0000 0.0000 -1.0000
vn 0.0000 -1.0000 0.0000
vn 0.0000 1.0000 0.0000
usemtl m_0
s 1
f 221/385/67 222/386/67 223/387/67 224/388/67
f 225/389/68 226/390/68 227/391/68 228/392/68
f 223/393/69 222/394/69 226/395/69 225/396/69
f 227/397/70 221/398/70 224/399/70 228/400/70
f 229/401/67 230/402/67 231/403/67 232/404/67
f 233/405/68 234/406/68 235/407/68 236/408/68
f 231/409/69 230/410/69 234/411/69 233/412/69
f 235/413/70 229/414/70 232/415/70 236/416/70
f 237/417/70 238/418/70 239/419/70 240/420/70
f 241/421/71 242/422/71 243/423/71 244/424/71
f 242/422/69 245/425/69 246/426/69 243/423/69
f 247/427/72 248/428/72 249/429/72 250/430/72
f 251/431/69 252/432/69 248/428/69 247/427/69
