# Made in Blockbench 4.2.5
mtllib robotarm.mtl

o Right Arm
v 0.3951372507104245 1.0547118733938987e-15 -0.07329597614888722
v 0.30963221487900716 8.326672684688674e-16 -0.3082191313453644
v -0.30963221487900683 -8.881784197001252e-16 0.18321913134536422
v -0.39513725071042394 -1.1102230246251565e-15 -0.05170402385111289
v 0.3096322148790065 0.2500000000000008 -0.3082191313453644
v 0.3951372507104238 0.250000000000001 -0.07329597614888722
v -0.3951372507104246 0.24999999999999886 -0.05170402385111289
v -0.3096322148790075 0.24999999999999908 0.18321913134536422
vt 0.6875 0.6875
vt 0.75 0.6875
vt 0.75 0.5
vt 0.6875 0.5
vt 0.625 0.6875
vt 0.6875 0.6875
vt 0.6875 0.5
vt 0.625 0.5
vt 0.8125 0.6875
vt 0.875 0.6875
vt 0.875 0.5
vt 0.8125 0.5
vt 0.75 0.6875
vt 0.8125 0.6875
vt 0.8125 0.5
vt 0.75 0.5
vt 0.75 0.6875
vt 0.6875 0.6875
vt 0.6875 0.75
vt 0.75 0.75
vt 0.8125 0.75
vt 0.75 0.75
vt 0.75 0.6875
vt 0.8125 0.6875
vn -0.34202014332566866 -8.9713317583104e-16 -0.9396926207859084
vn 2.6748132949879765e-15 -1 -1.16983289254751e-16
vn 0.34202014332566866 8.9713317583104e-16 0.9396926207859084
vn -2.6748132949879765e-15 1 1.16983289254751e-16
vn 0.9396926207859084 2.627156891067467e-15 -0.3420201433256686
vn -0.9396926207859084 -2.627156891067467e-15 0.3420201433256686
usemtl m_0
f 4/4/1 7/3/1 5/2/1 2/1/1
f 3/8/2 4/7/2 2/6/2 1/5/2
f 8/12/3 3/11/3 1/10/3 6/9/3
f 7/16/4 8/15/4 6/14/4 5/13/4
f 6/20/5 1/19/5 2/18/5 5/17/5
f 7/24/6 4/23/6 3/22/6 8/21/6
o Right Arm Layer
v 0.41516401264966785 -0.01562499999999889 -0.06395734368857087
v 0.31897084733932335 -0.015624999999999112 -0.3282458932846076
v -0.318970847339323 -0.015625000000000888 0.20324589328460757
v -0.4151640126496673 -0.01562500000000111 -0.06104265631142919
v 0.3189708473393227 0.2656250000000008 -0.3282458932846076
v 0.4151640126496672 0.265625000000001 -0.06395734368857087
v -0.41516401264966807 0.26562499999999883 -0.06104265631142913
v -0.3189708473393238 0.26562499999999906 0.20324589328460763
vt 0.6875 0.4375
vt 0.75 0.4375
vt 0.75 0.25
vt 0.6875 0.25
vt 0.625 0.4375
vt 0.6875 0.4375
vt 0.6875 0.25
vt 0.625 0.25
vt 0.8125 0.4375
vt 0.875 0.4375
vt 0.875 0.25
vt 0.8125 0.25
vt 0.75 0.4375
vt 0.8125 0.4375
vt 0.8125 0.25
vt 0.75 0.25
vt 0.75 0.4375
vt 0.6875 0.4375
vt 0.6875 0.5
vt 0.75 0.5
vt 0.8125 0.5
vt 0.75 0.5
vt 0.75 0.4375
vt 0.8125 0.4375
vn -0.34202014332566866 -8.9713317583104e-16 -0.9396926207859084
vn 2.6748132949879765e-15 -1 -1.16983289254751e-16
vn 0.34202014332566866 8.9713317583104e-16 0.9396926207859084
vn -2.6748132949879765e-15 1 1.16983289254751e-16
vn 0.9396926207859084 2.627156891067467e-15 -0.3420201433256686
vn -0.9396926207859084 -2.627156891067467e-15 0.3420201433256686
usemtl m_0
f 12/28/7 15/27/7 13/26/7 10/25/7
f 11/32/8 12/31/8 10/30/8 9/29/8
f 16/36/9 11/35/9 9/34/9 14/33/9
f 15/40/10 16/39/10 14/38/10 13/37/10
f 14/44/11 9/43/11 10/42/11 13/41/11
f 15/48/12 12/47/12 11/46/12 16/45/12