# Blender v2.79 (sub 0) OBJ File: ''
# www.blender.org
mtllib ttcapsule.mtl
o cylinder
v 0.250000 -0.000000 0.433013
v 0.000000 -0.000000 0.500000
v 0.000000 0.000000 0.000000
v 0.000000 1.875000 0.500000
v 0.250000 1.875000 0.433013
v 0.000000 1.875000 0.000000
v 0.433013 -0.000000 0.250000
v 0.433013 1.875000 0.250000
v 0.500000 0.000000 0.000000
v 0.500000 1.875000 0.000000
v 0.433013 0.000000 -0.250000
v 0.433013 1.875000 -0.250000
v 0.250000 0.000000 -0.433013
v 0.250000 1.875000 -0.433013
v 0.000000 0.000000 -0.500000
v 0.000000 1.875000 -0.500000
v -0.250000 0.000000 -0.433013
v -0.250000 1.875000 -0.433013
v -0.433013 0.000000 -0.250000
v -0.433013 1.875000 -0.250000
v -0.500000 0.000000 0.000000
v -0.500000 1.875000 0.000000
v -0.433013 -0.000000 0.250000
v -0.433013 1.875000 0.250000
v -0.250000 -0.000000 0.433013
v -0.250000 1.875000 0.433013
v 0.250000 0.062500 0.433013
v 0.000000 0.062500 0.500000
v 0.000000 1.562500 0.500000
v 0.250000 1.562500 0.433013
v 0.344624 0.062500 0.338388
v 0.344624 1.562500 0.338388
v -0.250000 0.062500 0.433013
v -0.344624 0.062500 0.338388
v -0.344624 1.562500 0.338388
v -0.250000 1.562500 0.433013
v 0.250000 0.062500 0.370513
v 0.000000 0.062500 0.437500
v 0.000000 1.562500 0.437500
v 0.250000 1.562500 0.370513
v 0.344624 0.062500 0.275888
v 0.344624 1.562500 0.275888
v -0.250000 0.062500 0.370513
v -0.344624 0.062500 0.275888
v -0.344624 1.562500 0.275888
v -0.250000 1.562500 0.370513
vt 0.937500 0.733253
vt 0.875000 0.750000
vt 0.875000 0.625000
vt 0.875000 0.750000
vt 0.937500 0.766747
vt 0.875000 0.875000
vt 0.983187 0.687434
vt 0.937434 0.733187
vt 0.874934 0.624934
vt 0.983187 0.812500
vt 0.937434 0.766747
vt 0.874934 0.875000
vt 1.000000 0.625000
vt 0.983253 0.687500
vt 0.125000 0.062500
vt 0.187500 0.062500
vt 0.187500 0.531250
vt 0.125000 0.531250
vt 0.983253 0.812500
vt 1.000000 0.875000
vt 0.983253 0.562500
vt 0.000000 0.062500
vt 0.062500 0.062500
vt 0.062500 0.531250
vt 0.000000 0.531250
vt 0.983253 0.937500
vt 0.983187 0.562500
vt 0.937434 0.516747
vt 0.874934 0.625000
vt 0.125000 0.062500
vt 0.125000 0.531250
vt 0.983187 0.937434
vt 0.937434 0.983187
vt 0.874934 0.874934
vt 0.875000 0.500000
vt 0.937500 0.516747
vt 0.000000 0.531250
vt 0.062500 0.531250
vt 0.062500 1.000000
vt 0.000000 1.000000
vt 0.937500 0.983253
vt 0.875000 1.000000
vt 0.812500 0.516747
vt 0.125000 0.531250
vt 0.125000 1.000000
vt 0.812500 0.983253
vt 0.766747 0.562500
vt 0.187500 0.531250
vt 0.187500 1.000000
vt 0.766747 0.937434
vt 0.812500 0.983187
vt 0.875000 0.874934
vt 0.750000 0.625000
vt 0.250000 0.531250
vt 0.250000 1.000000
vt 0.766747 0.937500
vt 0.750000 0.875000
vt 0.766747 0.687500
vt 0.312500 0.531250
vt 0.312500 1.000000
vt 0.766747 0.812500
vt 0.766747 0.687434
vt 0.812500 0.733187
vt 0.875000 0.624934
vt 0.812500 0.766747
vt 0.812500 0.733253
vt 0.312500 0.062500
vt 0.375000 0.062500
vt 0.375000 0.078125
vt 0.312500 0.078125
vt 0.312500 0.453125
vt 0.375000 0.453125
vt 0.375000 0.531250
vt 0.312500 0.531250
vt 0.218750 0.078125
vt 0.187500 0.078125
vt 0.187500 0.062500
vt 0.250000 0.062500
vt 0.218750 0.453125
vt 0.250000 0.531250
vt 0.187500 0.453125
vt 0.187500 0.531250
vt 0.375000 0.546875
vt 0.343750 0.546875
vt 0.375000 0.531250
vt 0.343750 0.921875
vt 0.375000 0.921875
vt 0.375000 1.000000
vt 0.250000 0.062500
vt 0.312500 0.062500
vt 0.312500 0.078125
vt 0.250000 0.078125
vt 0.250000 0.453125
vt 0.250000 0.531250
vt 0.375000 0.078125
vt 0.312500 0.062500
vt 0.312500 0.062500
vt 0.375000 0.078125
vt 0.312500 0.453125
vt 0.375000 0.468750
vt 0.375000 0.468750
vt 0.218750 0.078125
vt 0.187500 0.078125
vt 0.187500 0.062500
vt 0.218750 0.062500
vt 0.234375 0.453125
vt 0.234375 0.078125
vt 0.218750 0.468750
vt 0.187500 0.468750
vt 0.187500 0.453125
vt 0.218750 0.453125
vt 0.375000 0.546875
vt 0.343750 0.546875
vt 0.343750 0.531250
vt 0.375000 0.531250
vt 0.375000 0.937500
vt 0.343750 0.937500
vt 0.343750 0.921875
vt 0.375000 0.921875
vt 0.343750 0.921875
vt 0.328125 0.921875
vt 0.328125 0.546875
vt 0.250000 0.078125
vt 0.250000 0.078125
vt 0.250000 0.468750
vt 0.250000 0.468750
vn -0.0000 -1.0000 -0.0000
vn 0.0000 1.0000 0.0000
vn 0.9659 -0.0000 0.2588
vn 0.9659 0.0000 -0.2588
vn 0.7071 0.0000 -0.7071
vn 0.2588 0.0000 -0.9659
vn -0.2588 0.0000 -0.9659
vn -0.7071 0.0000 -0.7071
vn -0.9659 0.0000 -0.2588
vn -0.9659 -0.0000 0.2588
vn 0.2588 0.0000 0.9659
vn 0.7071 0.0000 0.7071
vn -0.7071 0.0000 0.7071
vn -0.2588 0.0000 0.9659
vn -1.0000 -0.0000 0.0000
vn 1.0000 -0.0000 0.0000
usemtl m_1
s 1
f 1/1/1 2/2/1 3/3/1
f 4/4/2 5/5/2 6/6/2
f 7/7/1 1/8/1 3/9/1
f 5/10/2 8/11/2 6/12/2
f 9/13/1 7/14/1 3/3/1
f 7/15/3 9/16/3 10/17/3 8/18/3
f 8/19/2 10/20/2 6/6/2
f 11/21/1 9/13/1 3/3/1
f 9/22/4 11/23/4 12/24/4 10/25/4
f 10/20/2 12/26/2 6/6/2
f 13/27/1 11/28/1 3/29/1
f 11/23/5 13/30/5 14/31/5 12/24/5
f 12/32/2 14/33/2 6/34/2
f 15/35/1 13/36/1 3/3/1
f 13/37/6 15/38/6 16/39/6 14/40/6
f 14/41/2 16/42/2 6/6/2
f 17/43/1 15/35/1 3/3/1
f 15/38/7 17/44/7 18/45/7 16/39/7
f 16/42/2 18/46/2 6/6/2
f 19/47/1 17/43/1 3/3/1
f 17/44/8 19/48/8 20/49/8 18/45/8
f 18/50/2 20/51/2 6/52/2
f 21/53/1 19/47/1 3/3/1
f 19/48/9 21/54/9 22/55/9 20/49/9
f 20/56/2 22/57/2 6/6/2
f 23/58/1 21/53/1 3/3/1
f 21/54/10 23/59/10 24/60/10 22/55/10
f 22/57/2 24/61/2 6/6/2
f 25/62/1 23/63/1 3/64/1
f 24/61/2 26/65/2 6/6/2
f 2/2/1 25/66/1 3/3/1
f 26/65/2 4/4/2 6/6/2
f 27/67/11 28/68/11 2/69/11 1/70/11
f 29/71/11 30/72/11 5/73/11 4/74/11
f 31/75/12 27/76/12 1/77/12 7/78/12
f 32/79/12 31/75/12 7/78/12 8/80/12
f 30/81/12 32/79/12 8/80/12 5/82/12
f 33/83/13 34/84/13 23/59/13 25/85/13
f 35/86/13 36/87/13 26/88/13 24/60/13
f 34/84/13 35/86/13 24/60/13 23/59/13
f 28/89/14 33/90/14 25/91/14 2/92/14
f 36/93/14 29/71/14 4/74/14 26/94/14
f 37/95/2 38/96/2 28/97/2 27/98/2
f 39/99/1 40/100/1 30/101/1 29/71/1
f 41/102/2 37/103/2 27/104/2 31/105/2
f 42/106/15 41/107/15 31/75/15 32/79/15
f 40/108/1 42/109/1 32/110/1 30/111/1
f 43/112/2 44/113/2 34/114/2 33/115/2
f 45/116/1 46/117/1 36/118/1 35/119/1
f 44/113/16 45/120/16 35/121/16 34/122/16
f 38/96/2 43/123/2 33/124/2 28/97/2
f 46/125/1 39/99/1 29/71/1 36/126/1
o doorright
v 0.000000 0.062500 0.468750
v 0.250000 0.062500 0.401763
v 0.250000 1.562500 0.401763
v 0.000000 1.562500 0.468750
v 0.344624 0.062500 0.307138
v 0.344624 1.562500 0.307138
v 0.000000 0.062500 0.437500
v 0.250000 0.062500 0.370513
v 0.250000 1.562500 0.370513
v 0.000000 1.562500 0.437500
v 0.344624 0.062500 0.275888
v 0.344624 1.562500 0.275888
vt 0.906250 0.125000
vt 0.968750 0.125000
vt 0.968750 0.500000
vt 0.906250 0.500000
vt 1.000000 0.125000
vt 1.000000 0.500000
vt 0.906250 0.125000
vt 0.906250 0.500000
vt 0.968750 0.500000
vt 0.968750 0.125000
vt 1.000000 0.500000
vt 1.000000 0.125000
vt 0.984375 0.125000
vt 0.984375 0.500000
vt 0.906250 0.500000
vt 0.921875 0.500000
vt 0.921875 0.125000
vt 0.906250 0.125000
vn -0.6088 -0.0000 0.7934
vn 0.2588 -0.0000 0.9659
vn 0.7071 -0.0000 0.7071
vn -0.2588 0.0000 -0.9659
vn -0.7071 0.0000 -0.7071
vn 0.3827 0.0000 -0.9239
vn 1.0000 0.0000 0.0000
vn -1.0000 0.0000 0.0000
usemtl m_1
s 1
f 47/127/17 48/128/18 49/129/18 50/130/17
f 48/128/19 51/131/19 52/132/19 49/129/19
f 53/133/20 56/134/20 55/135/20 54/136/20
f 54/136/21 55/135/21 58/137/22 57/138/22
f 51/139/23 57/138/22 58/137/22 52/140/23
f 53/141/24 47/142/17 50/143/17 56/144/24
o doorleft
v -0.344624 0.062500 0.307138
v -0.250000 0.062500 0.401763
v -0.250000 1.562500 0.401763
v -0.344624 1.562500 0.307138
v 0.000000 0.062500 0.468750
v 0.000000 1.562500 0.468750
v -0.344624 0.062500 0.275888
v -0.250000 0.062500 0.370513
v -0.250000 1.562500 0.370513
v -0.344624 1.562500 0.275888
v 0.000000 0.062500 0.437500
v 0.000000 1.562500 0.437500
vt 0.812500 0.125000
vt 0.843750 0.125000
vt 0.843750 0.500000
vt 0.812500 0.500000
vt 0.906250 0.125000
vt 0.906250 0.500000
vt 0.812500 0.125000
vt 0.812500 0.500000
vt 0.843750 0.500000
vt 0.843750 0.125000
vt 0.906250 0.500000
vt 0.906250 0.125000
vt 0.828125 0.125000
vt 0.828125 0.500000
vt 0.890625 0.125000
vt 0.890625 0.500000
vn -0.9239 -0.0000 0.3827
vn -0.7071 -0.0000 0.7071
vn -0.2588 -0.0000 0.9659
vn 0.7071 0.0000 -0.7071
vn 0.2588 0.0000 -0.9659
vn 0.7934 0.0000 -0.6088
vn -1.0000 0.0000 0.0000
vn 1.0000 0.0000 0.0000
usemtl m_1
s 1
f 59/145/25 60/146/26 61/147/26 62/148/25
f 60/146/27 63/149/27 64/150/27 61/147/27
f 65/151/28 68/152/28 67/153/28 66/154/28
f 66/154/29 67/153/29 70/155/30 69/156/30
f 65/151/31 59/157/25 62/158/25 68/152/31
f 63/159/32 69/156/30 70/155/30 64/160/32
o interior
v 0.000000 0.062500 0.187500
v 0.250000 0.062500 0.245513
v 0.250000 1.562500 0.245513
v 0.000000 1.562500 0.187500
v 0.344624 0.062500 0.275888
v 0.344624 1.562500 0.275888
v -0.344624 0.062500 0.275888
v -0.250000 0.062500 0.245513
v -0.250000 1.562500 0.245513
v -0.344624 1.562500 0.275888
v 0.000000 0.062500 0.437500
v 0.250000 0.062500 0.370513
v 0.000000 0.062500 0.156250
v 0.344624 0.062500 0.275888
v -0.344624 0.062500 0.275888
v -0.250000 0.062500 0.370513
v 0.250000 1.562500 0.370513
v 0.000000 1.562500 0.437500
v 0.000000 1.562500 0.156250
v 0.344624 1.562500 0.275888
v -0.250000 1.562500 0.370513
v -0.344624 1.562500 0.275888
vt 0.562500 0.281250
vt 0.687500 0.281250
vt 0.687500 1.000000
vt 0.562500 1.000000
vt 0.750000 0.281250
vt 0.750000 1.000000
vt 0.375000 0.281250
vt 0.437500 0.281250
vt 0.437500 1.000000
vt 0.375000 1.000000
vt 0.562500 0.328125
vt 0.750000 0.281250
vt 0.562500 0.281250
vt 0.750000 0.328125
vt 0.750000 0.281250
vt 0.562500 0.328125
vt 0.375000 0.281250
vt 0.375000 0.328125
vt 0.750000 1.000000
vt 0.562500 0.953125
vt 0.562500 1.000000
vt 0.750000 1.000000
vt 0.750000 0.953125
vt 0.562500 0.953125
vt 0.375000 0.953125
vt 0.375000 1.000000
vn -0.2260 -0.0000 0.9741
vn -0.3056 -0.0000 0.9521
vn 0.3056 -0.0000 0.9521
vn 0.2260 -0.0000 0.9741
vn 0.0000 1.0000 0.0000
vn 0.0000 -1.0000 0.0000
usemtl m_1
s 1
f 71/161/33 72/162/33 73/163/33 74/164/33
f 72/162/34 75/165/34 76/166/34 73/163/34
f 77/167/35 78/168/35 79/169/35 80/170/35
f 78/168/36 71/161/36 74/164/36 79/169/36
f 81/171/37 82/172/37 83/173/37
f 82/174/37 84/175/37 83/176/37
f 85/177/37 86/178/37 83/173/37
f 86/178/37 81/171/37 83/173/37
f 87/179/38 88/180/38 89/181/38
f 90/182/38 87/183/38 89/184/38
f 91/185/38 92/186/38 89/181/38
f 88/180/38 91/185/38 89/181/38
