# Made in Blockbench 4.6.1
mtllib hitch.mtl

o position_me_using_the_flat_plane
v -0.0546875 0.0625 -0.0546875
v -0.0546875 0.0625 0.0546875
v -0.046875 0.0546875 -0.046875
v -0.046875 0.0546875 0.046875
v 0.0546875 0.0625 -0.0546875
v 0.0546875 0.0625 0.0546875
v 0.046875 0.0546875 -0.046875
v 0.046875 0.0546875 0.046875
v -0.03125 0.05859375 -0.03125
v 0.03125 0.05859375 -0.03125
v -0.03125 0.05859375 0.03125
v 0.03125 0.05859375 0.03125
v -0.0546875 0.09375 -0.0546875
v -0.0546875 0.09375 0.0546875
v 0.0546875 0.09375 -0.0546875
v 0.0546875 0.09375 0.0546875
vt 0.5 0.5
vt 0.5 0.75
vt 0.375 0.75
vt 0.375 0.5
vt 0.5 0.875
vt 0.5 1
vt 0.25 1
vt 0.25 0.875
vt 0.25 0.75
vt 0.25 1
vt 0 1
vt 0 0.75
vt 0.625 0.125
vt 0.625 0.375
vt 0.375 0.375
vt 0.375 0.125
vt 0.5 0.75
vt 0.5 0.875
vt 0.25 0.875
vt 0.25 0.75
vt 0.375 0.5
vt 0.375 0.75
vt 0.25 0.75
vt 0.25 0.5
vt 0.1875 0.6875
vt 0.1875 0.5625
vt 0.25 0.5
vt 0.25 0.75
vt 0.0625 0.5625
vt 0.0625 0.6875
vt 0 0.75
vt 0 0.5
vt 0.1875 0.5625
vt 0.1875 0.6875
vt 0.125 0.75
vt 0.125 0.5
vt 0.0625 0.5625
vt 0.0625 0.6875
vt 0.125 0.75
vt 0.125 0.5
vt 0.234375 0.9375
vt 0.125 0.9375
vt 0.125 0.875
vt 0.234375 0.875
vt 0.171875 1
vt 0.0625 1
vt 0.0625 0.9375
vt 0.171875 0.9375
vt 0.109375 0.9375
vt 0 0.9375
vt 0 0.875
vt 0.109375 0.875
vt 0.171875 0.875
vt 0.0625 0.875
vt 0.0625 0.8125
vt 0.171875 0.8125
vn -0.7071067811865476 -0.7071067811865476 0
vn 0.7071067811865476 -0.7071067811865476 0
vn 0 1 0
vn 0 -1 0
vn 0 -0.7071067811865476 -0.7071067811865476
vn 0 -0.7071067811865476 0.7071067811865476
vn 0.24253562503633297 -0.9701425001453319 0
vn 0 -0.9701425001453319 0.24253562503633297
vn -0.24253562503633297 -0.9701425001453319 0
vn 0 -0.9701425001453319 -0.24253562503633297
vn 0 0 -1
vn -1 0 0
vn 0 0 1
vn 1 0 0
usemtl m_7dae2e97-8efe-62ed-d490-12ef4b1ebf17
f 2/1/1 1/2/1 3/3/1 4/4/1
f 7/5/2 5/6/2 6/7/2 8/8/2
f 15/9/3 13/10/3 14/11/3 16/12/3
f 11/13/4 9/14/4 10/15/4 12/16/4
f 3/17/5 1/18/5 5/19/5 7/20/5
f 6/21/6 2/22/6 4/23/6 8/24/6
f 9/25/7 11/26/7 4/27/7 3/28/7
f 10/29/8 9/30/8 3/31/8 7/32/8
f 12/33/9 10/34/9 7/35/9 8/36/9
f 11/37/10 12/38/10 8/39/10 4/40/10
f 13/41/11 15/42/11 5/43/11 1/44/11
f 14/45/12 13/46/12 1/47/12 2/48/12
f 16/49/13 14/50/13 2/51/13 6/52/13
f 15/53/14 16/54/14 6/55/14 5/56/14
o position_me_using_the_flat_plane
v 0.1875 0.0625 0.2421875
v 0.1875 0.0625 -0.2421875
v 0.1875 0.0625 0.2421875
v 0.1875 0.0625 -0.2421875
v -0.1875 0.0625 0.2421875
v -0.1875 0.0625 -0.2421875
v -0.1875 0.0625 0.2421875
v -0.1875 0.0625 -0.2421875
vt 0 0
vt 0 0
vt 0 1
vt 0 1
vt 0 0
vt 0 1
vt 0 0
vt 0 1
vt 0 0
vt 1 0
vt 1 1
vt 0 1
vt 1 0
vt 1 1
vt 0 1
vt 0 0
vt 1 1
vt 0 1
vt 1 1
vt 0 1
vt 1 1
vt 1 1
vt 0 1
vt 0 1
vn 0 0 0
vn 0 0 0
vn 0 1 0
vn 0 -1 0
vn 0 0 0
vn 0 0 0
usemtl none
f 17/57/15 19/58/15 18/59/15 20/60/15
f 21/61/16 22/62/16 23/63/16 24/64/16
f 21/65/17 17/66/17 18/67/17 22/68/17
f 20/69/18 19/70/18 23/71/18 24/72/18
f 17/73/19 21/74/19 19/75/19 23/76/19
f 18/77/20 20/78/20 22/79/20 24/80/20