# Blender v2.78 (sub 0) OBJ File: ''
# www.blender.org
mtllib gunmount.mtl
o Cylinder
v -0.935041 0.266790 0.213628
v -0.944703 0.266790 0.157447
v -0.944703 0.209784 0.157447
v -0.935041 0.209784 0.213628
v -0.888523 0.266790 0.147785
v -0.888523 0.209784 0.147785
v -0.878861 0.266790 0.203966
v -0.878861 0.209784 0.203966
v 0.947170 0.266790 0.151013
v 0.935153 0.266790 0.206737
v 0.935153 0.209784 0.206737
v 0.947170 0.209784 0.151013
v 0.879429 0.266790 0.194720
v 0.879429 0.209784 0.194720
v 0.891446 0.266790 0.138996
v 0.891446 0.209784 0.138996
v 0.817148 0.266790 0.502202
v 0.784708 0.266790 0.549077
v 0.784708 0.209784 0.549077
v 0.817148 0.209784 0.502202
v 0.737833 0.266790 0.516637
v 0.737833 0.209784 0.516637
v 0.770273 0.266790 0.469762
v 0.770273 0.209784 0.469762
v 0.573032 0.266790 0.769137
v 0.525538 0.266790 0.800664
v 0.525538 0.209784 0.800664
v 0.573032 0.209784 0.769137
v 0.494012 0.266790 0.753170
v 0.494012 0.209784 0.753170
v 0.541505 0.266790 0.721643
v 0.541505 0.209784 0.721643
v 0.234829 0.266790 0.929943
v 0.178883 0.266790 0.940879
v 0.178883 0.209784 0.940879
v 0.234829 0.209784 0.929943
v 0.167946 0.266790 0.884933
v 0.167946 0.209784 0.884933
v 0.223893 0.266790 0.873996
v 0.223893 0.209784 0.873996
v -0.148030 0.266790 0.947642
v -0.203792 0.266790 0.935800
v -0.203792 0.209784 0.935800
v -0.148030 0.209784 0.947642
v -0.191950 0.266790 0.880039
v -0.191950 0.209784 0.880039
v -0.136189 0.266790 0.891880
v -0.136189 0.209784 0.891880
v -0.499627 0.266790 0.818726
v -0.546604 0.266790 0.786434
v -0.546604 0.209784 0.786434
v -0.499627 0.209784 0.818726
v -0.514312 0.266790 0.739457
v -0.514312 0.209784 0.739457
v -0.467335 0.266790 0.771749
v -0.467335 0.209784 0.771749
v -0.778870 0.266790 0.559733
v -0.809576 0.266790 0.511705
v -0.809576 0.209784 0.511705
v -0.778870 0.209784 0.559733
v -0.761547 0.266790 0.480999
v -0.761547 0.209784 0.480999
v -0.730841 0.266790 0.529027
v -0.730841 0.209784 0.529027
v -0.946148 0.266790 -0.157296
v -0.933762 0.266790 -0.212939
v -0.933762 0.209784 -0.212939
v -0.946148 0.209784 -0.157296
v -0.878119 0.266790 -0.200552
v -0.878119 0.209784 -0.200552
v -0.890505 0.266790 -0.144909
v -0.890505 0.209784 -0.144909
v -0.820602 0.266790 -0.496538
v -0.788488 0.266790 -0.543637
v -0.788488 0.209784 -0.543637
v -0.820602 0.209784 -0.496538
v -0.741390 0.266790 -0.511522
v -0.741390 0.209784 -0.511522
v -0.773504 0.266790 -0.464424
v -0.773504 0.209784 -0.464424
v -0.567915 0.266790 -0.772923
v -0.520213 0.266790 -0.804134
v -0.520213 0.209784 -0.804134
v -0.567915 0.209784 -0.772923
v -0.489003 0.266790 -0.756432
v -0.489003 0.209784 -0.756432
v -0.536705 0.266790 -0.725221
v -0.536705 0.209784 -0.725221
v -0.219941 0.266790 -0.933576
v -0.163828 0.266790 -0.943617
v -0.163828 0.209784 -0.943617
v -0.219941 0.209784 -0.933576
v -0.153786 0.266790 -0.887503
v -0.153786 0.209784 -0.887503
v -0.209900 0.266790 -0.877462
v -0.209900 0.209784 -0.877462
v 0.154316 0.266790 -0.946638
v 0.209998 0.266790 -0.934426
v 0.209998 0.209784 -0.934426
v 0.154316 0.209784 -0.946638
v 0.197786 0.266790 -0.878745
v 0.197786 0.209784 -0.878745
v 0.142104 0.266790 -0.890956
v 0.142104 0.209784 -0.890956
v 0.510564 0.266790 -0.811949
v 0.557103 0.266790 -0.779030
v 0.557103 0.209784 -0.779030
v 0.510564 0.209784 -0.811949
v 0.524184 0.266790 -0.732490
v 0.524184 0.209784 -0.732490
v 0.477645 0.266790 -0.765409
v 0.477645 0.209784 -0.765409
v 0.785635 0.266790 -0.550195
v 0.815753 0.266790 -0.501796
v 0.815753 0.209784 -0.501796
v 0.785635 0.209784 -0.550195
v 0.767353 0.266790 -0.471678
v 0.767353 0.209784 -0.471678
v 0.737235 0.266790 -0.520077
v 0.737235 0.209784 -0.520077
v 0.933768 0.266790 -0.219121
v 0.943760 0.266790 -0.162999
v 0.943760 0.209784 -0.162999
v 0.933768 0.209784 -0.219121
v 0.887637 0.266790 -0.153007
v 0.887637 0.209784 -0.153007
v 0.877645 0.266790 -0.209129
v 0.877645 0.209784 -0.209129
v 0.000000 0.146675 -1.124329
v 0.000000 0.201119 -0.947684
v 0.362663 0.201119 -0.875545
v 0.430262 0.146675 -1.038745
v 0.670113 0.201119 -0.670114
v 0.795021 0.146675 -0.795021
v 0.875545 0.201119 -0.362663
v 1.038745 0.146675 -0.430262
v 0.947683 0.201119 0.000000
v 1.124329 0.146675 0.000000
v 0.875545 0.201119 0.362663
v 1.038745 0.146675 0.430262
v 0.670113 0.201119 0.670113
v 0.795021 0.146675 0.795021
v 0.362663 0.201119 0.875545
v 0.430262 0.146675 1.038744
v 0.000000 0.201119 0.947683
v 0.000000 0.146675 1.124329
v -0.362663 0.201119 0.875545
v -0.430262 0.146675 1.038745
v -0.670113 0.201119 0.670113
v -0.795021 0.146675 0.795021
v -0.875545 0.201119 0.362663
v -1.038745 0.146675 0.430262
v -0.947684 0.201119 0.000000
v -1.124329 0.146675 0.000000
v -0.875545 0.201119 -0.362663
v -1.038745 0.146675 -0.430262
v -0.670113 0.201119 -0.670114
v -0.795021 0.146675 -0.795021
v 0.947683 0.299437 0.000000
v 0.875545 0.299437 0.362663
v -0.362662 0.201119 -0.875546
v -0.430262 0.146675 -1.038745
v -0.430262 -0.006949 -1.038745
v 0.000000 -0.006949 -1.124329
v -0.795021 -0.006949 -0.795021
v -1.038745 -0.006949 -0.430262
v -1.124329 -0.006949 -0.000000
v -1.038745 -0.006949 0.430262
v -0.795021 -0.006949 0.795021
v -0.430262 -0.006949 1.038745
v 0.000000 -0.006949 1.124329
v 0.430262 -0.006949 1.038744
v 0.795021 -0.006949 0.795021
v 1.038745 -0.006949 0.430262
v 1.124329 -0.006949 -0.000000
v 1.038745 -0.006949 -0.430262
v 0.795021 -0.006949 -0.795021
v 0.430262 -0.006949 -1.038745
v -0.586590 0.299437 -0.586591
v -0.766417 0.299437 -0.317461
v -0.766417 0.299437 -0.317461
v -0.586590 0.299437 -0.586591
v -0.362663 0.299437 0.875545
v -0.670113 0.299437 0.670113
v -0.670113 0.299437 -0.670114
v -0.362662 0.299437 -0.875546
v 0.670113 0.299437 -0.670114
v 0.875545 0.299437 -0.362663
v 0.362663 0.299437 0.875545
v 0.000000 0.299437 0.947683
v 0.000000 0.299437 -0.947684
v 0.362663 0.299437 -0.875545
v -0.947684 0.299437 0.000000
v -0.875545 0.299437 -0.362663
v 0.670113 0.299437 0.670113
v -0.875545 0.299437 0.362663
v 0.000000 0.299437 -0.829564
v 0.317460 0.299437 -0.766418
v 0.586590 0.299437 -0.586591
v 0.766417 0.299437 -0.317461
v 0.829564 0.299437 0.000000
v 0.766417 0.299437 0.317460
v 0.586590 0.299437 0.586590
v 0.317460 0.299437 0.766417
v 0.000000 0.299437 0.829564
v -0.317460 0.299437 0.766417
v -0.586590 0.299437 0.586590
v -0.766417 0.299437 0.317460
v -0.829564 0.299437 0.000000
v -0.317460 0.299437 -0.766418
v 0.829564 0.299437 0.000000
v 0.766417 0.299437 -0.317461
v 0.766417 0.200552 -0.317461
v 0.829564 0.200552 0.000000
v 0.586590 0.299437 0.586590
v 0.317460 0.299437 0.766417
v -0.317460 0.299437 -0.766418
v 0.000000 0.299437 0.829564
v 0.000000 0.299437 -0.829564
v 0.317460 0.299437 -0.766418
v -0.317460 0.299437 0.766417
v 0.586590 0.299437 -0.586591
v -0.586590 0.299437 0.586590
v -0.766417 0.299437 0.317460
v -0.829564 0.299437 0.000000
v 0.766417 0.299437 0.317460
v -0.766417 0.200552 0.317460
v -0.829564 0.200552 0.000000
v 0.766417 0.200552 0.317460
v -0.766417 0.200552 -0.317461
v 0.586590 0.200552 0.586590
v -0.586590 0.200552 -0.586591
v 0.317460 0.200552 0.766417
v -0.317460 0.200552 -0.766418
v 0.000000 0.200552 0.829564
v 0.000000 0.200552 -0.829564
v 0.317460 0.200552 -0.766418
v -0.317460 0.200552 0.766417
v 0.586590 0.200552 -0.586591
v -0.586590 0.200552 0.586590
vt 0.0982 0.8293
vt 0.0982 0.8293
vt 0.0982 0.8293
vt 0.0982 0.8293
vt 0.0982 0.8293
vt 0.0982 0.8293
vt 0.0982 0.8293
vt 0.0982 0.8293
vt 0.0982 0.8293
vt 0.0982 0.8293
vt 0.0982 0.8293
vt 0.0982 0.8293
vt 0.0982 0.8293
vt 0.0982 0.8293
vt 0.0982 0.8293
vt 0.0982 0.8293
vt 0.0982 0.8293
vt 0.0982 0.8293
vt 0.0982 0.8293
vt 0.0982 0.8293
vt 0.0982 0.8293
vt 0.0982 0.8293
vt 0.0982 0.8293
vt 0.0982 0.8293
vt 0.0982 0.8293
vt 0.0982 0.8293
vt 0.0982 0.8293
vt 0.0982 0.8293
vt 0.0982 0.8293
vt 0.0982 0.8293
vt 0.0982 0.8293
vt 0.0982 0.8293
vt 0.0982 0.8293
vt 0.0982 0.8293
vt 0.0982 0.8293
vt 0.0982 0.8293
vt 0.0982 0.8293
vt 0.0982 0.8293
vt 0.0982 0.8293
vt 0.0982 0.8293
vt 0.0982 0.8293
vt 0.0982 0.8293
vt 0.0982 0.8293
vt 0.0982 0.8293
vt 0.0982 0.8293
vt 0.0982 0.8293
vt 0.0982 0.8293
vt 0.0982 0.8293
vt 0.0982 0.8293
vt 0.0982 0.8293
vt 0.0982 0.8293
vt 0.0982 0.8293
vt 0.0982 0.8293
vt 0.0982 0.8293
vt 0.0982 0.8293
vt 0.0982 0.8293
vt 0.0982 0.8293
vt 0.0982 0.8293
vt 0.0982 0.8293
vt 0.0982 0.8293
vt 0.0982 0.8293
vt 0.0982 0.8293
vt 0.0982 0.8293
vt 0.0982 0.8293
vt 0.0982 0.8293
vt 0.0982 0.8293
vt 0.0982 0.8293
vt 0.0982 0.8293
vt 0.0982 0.8293
vt 0.0982 0.8293
vt 0.0982 0.8293
vt 0.0982 0.8293
vt 0.0982 0.8293
vt 0.0982 0.8293
vt 0.0982 0.8293
vt 0.0982 0.8293
vt 0.0982 0.8293
vt 0.0982 0.8293
vt 0.0982 0.8293
vt 0.0982 0.8293
vt 0.0982 0.8293
vt 0.0982 0.8293
vt 0.0982 0.8293
vt 0.0982 0.8293
vt 0.0982 0.8293
vt 0.0982 0.8293
vt 0.0982 0.8293
vt 0.0982 0.8293
vt 0.0982 0.8293
vt 0.0982 0.8293
vt 0.0982 0.8293
vt 0.0982 0.8293
vt 0.0982 0.8293
vt 0.0982 0.8293
vt 0.0982 0.8293
vt 0.0982 0.8293
vt 0.0982 0.8293
vt 0.0982 0.8293
vt 0.0982 0.8293
vt 0.0982 0.8293
vt 0.0982 0.8293
vt 0.0982 0.8293
vt 0.0982 0.8293
vt 0.0982 0.8293
vt 0.0982 0.8293
vt 0.0982 0.8293
vt 0.0982 0.8293
vt 0.0982 0.8293
vt 0.0982 0.8293
vt 0.0982 0.8293
vt 0.0982 0.8293
vt 0.0982 0.8293
vt 0.0982 0.8293
vt 0.0982 0.8293
vt 0.0982 0.8293
vt 0.0982 0.8293
vt 0.0982 0.8293
vt 0.0982 0.8293
vt 0.0982 0.8293
vt 0.0982 0.8293
vt 0.0982 0.8293
vt 0.0982 0.8293
vt 0.0982 0.8293
vt 0.0982 0.8293
vt 0.0982 0.8293
vt 0.0982 0.8293
vt 0.0982 0.8293
vt 0.0982 0.8293
vt 0.0695 0.9700
vt 0.0695 0.9658
vt 0.0782 0.9641
vt 0.0798 0.9680
vt 0.0856 0.9591
vt 0.0886 0.9621
vt 0.0905 0.9518
vt 0.0944 0.9534
vt 0.0922 0.9431
vt 0.0964 0.9431
vt 0.0905 0.9344
vt 0.0944 0.9328
vt 0.0856 0.9271
vt 0.0886 0.9241
vt 0.0782 0.9221
vt 0.0798 0.9182
vt 0.0695 0.9204
vt 0.0695 0.9162
vt 0.0608 0.9221
vt 0.0592 0.9182
vt 0.0535 0.9271
vt 0.0505 0.9241
vt 0.0486 0.9344
vt 0.0446 0.9328
vt 0.0468 0.9431
vt 0.0426 0.9431
vt 0.0486 0.9518
vt 0.0446 0.9534
vt 0.0535 0.9591
vt 0.0505 0.9621
vt 0.0608 0.9444
vt 0.0695 0.9444
vt 0.0695 0.9468
vt 0.0608 0.9468
vt 0.0608 0.9641
vt 0.0592 0.9680
vt 0.0592 0.9394
vt 0.0592 0.9431
vt 0.0695 0.9431
vt 0.0695 0.9394
vt 0.0505 0.9394
vt 0.0505 0.9431
vt 0.0798 0.9394
vt 0.0798 0.9431
vt 0.0886 0.9431
vt 0.0886 0.9394
vt 0.0695 0.9394
vt 0.0695 0.9431
vt 0.0592 0.9394
vt 0.0592 0.9431
vt 0.0505 0.9394
vt 0.0505 0.9431
vt 0.0592 0.9394
vt 0.0592 0.9431
vt 0.0695 0.9394
vt 0.0695 0.9431
vt 0.0798 0.9394
vt 0.0798 0.9431
vt 0.0886 0.9394
vt 0.0886 0.9431
vt 0.0592 0.9394
vt 0.0592 0.9431
vt 0.0505 0.9431
vt 0.0505 0.9394
vt 0.0695 0.9394
vt 0.0695 0.9431
vt 0.0798 0.9394
vt 0.0798 0.9431
vt 0.0886 0.9394
vt 0.0886 0.9431
vt 0.0798 0.9394
vt 0.0798 0.9431
vt 0.0555 0.9571
vt 0.0512 0.9507
vt 0.0512 0.9507
vt 0.0555 0.9571
vt 0.0535 0.9444
vt 0.0608 0.9444
vt 0.0608 0.9468
vt 0.0535 0.9468
vt 0.0608 0.9444
vt 0.0535 0.9444
vt 0.0535 0.9468
vt 0.0608 0.9468
vt 0.0782 0.9444
vt 0.0856 0.9444
vt 0.0856 0.9468
vt 0.0782 0.9468
vt 0.0695 0.9444
vt 0.0782 0.9444
vt 0.0782 0.9468
vt 0.0695 0.9468
vt 0.0782 0.9444
vt 0.0695 0.9444
vt 0.0695 0.9468
vt 0.0782 0.9468
vt 0.0782 0.9444
vt 0.0695 0.9444
vt 0.0695 0.9468
vt 0.0782 0.9468
vt 0.0535 0.9444
vt 0.0535 0.9468
vt 0.0608 0.9444
vt 0.0608 0.9468
vt 0.0856 0.9444
vt 0.0856 0.9468
vt 0.0856 0.9444
vt 0.0856 0.9468
vt 0.0695 0.9630
vt 0.0771 0.9615
vt 0.0782 0.9641
vt 0.0695 0.9658
vt 0.0836 0.9571
vt 0.0856 0.9591
vt 0.0879 0.9507
vt 0.0905 0.9518
vt 0.0894 0.9431
vt 0.0922 0.9431
vt 0.0879 0.9355
vt 0.0905 0.9344
vt 0.0836 0.9291
vt 0.0856 0.9271
vt 0.0771 0.9247
vt 0.0782 0.9221
vt 0.0695 0.9232
vt 0.0695 0.9204
vt 0.0619 0.9247
vt 0.0608 0.9221
vt 0.0555 0.9291
vt 0.0535 0.9271
vt 0.0512 0.9355
vt 0.0486 0.9344
vt 0.0497 0.9431
vt 0.0468 0.9431
vt 0.0486 0.9518
vt 0.0535 0.9591
vt 0.0619 0.9615
vt 0.0608 0.9641
vt 0.0695 0.9468
vt 0.0771 0.9468
vt 0.0771 0.9444
vt 0.0695 0.9444
vt 0.0836 0.9291
vt 0.0771 0.9247
vt 0.0619 0.9615
vt 0.0695 0.9232
vt 0.0695 0.9630
vt 0.0771 0.9615
vt 0.0619 0.9247
vt 0.0836 0.9571
vt 0.0555 0.9291
vt 0.0879 0.9507
vt 0.0512 0.9355
vt 0.0894 0.9431
vt 0.0497 0.9431
vt 0.0879 0.9355
vt 0.0695 0.9468
vt 0.0619 0.9468
vt 0.0619 0.9444
vt 0.0695 0.9444
vt 0.0619 0.9468
vt 0.0619 0.9444
vt 0.0771 0.9468
vt 0.0771 0.9444
vt 0.0555 0.9468
vt 0.0555 0.9444
vt 0.0836 0.9468
vt 0.0836 0.9444
vt 0.0771 0.9468
vt 0.0836 0.9468
vt 0.0836 0.9444
vt 0.0771 0.9444
vt 0.0619 0.9468
vt 0.0555 0.9468
vt 0.0555 0.9444
vt 0.0619 0.9444
vt 0.0695 0.9468
vt 0.0695 0.9444
vt 0.0771 0.9468
vt 0.0695 0.9468
vt 0.0695 0.9444
vt 0.0771 0.9444
vt 0.0619 0.9468
vt 0.0619 0.9444
vt 0.0836 0.9468
vt 0.0836 0.9444
vt 0.0555 0.9468
vt 0.0555 0.9444
vt 0.0592 0.9680
vt 0.0695 0.9700
vt 0.0798 0.9680
vt 0.0886 0.9621
vt 0.0944 0.9534
vt 0.0964 0.9431
vt 0.0944 0.9328
vt 0.0886 0.9241
vt 0.0798 0.9182
vt 0.0695 0.9162
vt 0.0446 0.9328
vt 0.0592 0.9182
vt 0.0505 0.9241
vt 0.0426 0.9431
vt 0.0446 0.9534
vt 0.0505 0.9621
vt 0.0555 0.9291
vt 0.0836 0.9291
vt 0.0836 0.9571
vt 0.0497 0.9431
vt 0.0771 0.9615
vt 0.0555 0.9571
vt 0.0695 0.9630
vt 0.0619 0.9615
vt 0.0512 0.9507
vt 0.0512 0.9355
vt 0.0619 0.9247
vt 0.0695 0.9232
vt 0.0771 0.9247
vt 0.0879 0.9355
vt 0.0894 0.9431
vt 0.0879 0.9507
vn -0.9855 0.0000 0.1695
vn -0.1695 0.0000 -0.9855
vn 0.9855 0.0000 -0.1695
vn 0.1695 0.0000 0.9855
vn 0.0000 1.0000 0.0000
vn -0.0000 -1.0000 -0.0000
vn 0.9775 0.0000 0.2108
vn -0.2108 0.0000 0.9775
vn -0.9775 0.0000 -0.2108
vn 0.2108 0.0000 -0.9775
vn 0.8223 0.0000 0.5691
vn -0.5691 0.0000 0.8223
vn -0.8223 0.0000 -0.5691
vn 0.5691 0.0000 -0.8223
vn 0.5531 0.0000 0.8331
vn -0.8332 0.0000 0.5530
vn -0.5531 0.0000 -0.8331
vn 0.8331 0.0000 -0.5531
vn 0.1918 0.0000 0.9814
vn -0.9814 0.0000 0.1919
vn -0.1919 0.0000 -0.9814
vn 0.9814 0.0000 -0.1918
vn -0.2077 0.0000 0.9782
vn -0.9782 0.0000 -0.2077
vn 0.2077 0.0000 -0.9782
vn 0.9782 0.0000 0.2077
vn -0.5665 0.0000 0.8241
vn -0.8241 0.0000 -0.5665
vn 0.5665 0.0000 -0.8241
vn 0.8241 0.0000 0.5665
vn -0.8425 0.0000 0.5387
vn -0.5386 0.0000 -0.8425
vn 0.8425 0.0000 -0.5387
vn 0.5386 0.0000 0.8425
vn -0.9761 0.0000 -0.2173
vn 0.2173 0.0000 -0.9761
vn 0.9761 0.0000 0.2173
vn -0.2173 0.0000 0.9761
vn -0.8262 0.0000 -0.5633
vn 0.5634 0.0000 -0.8262
vn 0.8262 0.0000 0.5634
vn -0.5634 0.0000 0.8262
vn -0.5475 0.0000 -0.8368
vn 0.8368 0.0000 -0.5475
vn 0.5475 0.0000 0.8368
vn -0.8368 0.0000 0.5475
vn -0.1761 0.0000 -0.9844
vn 0.9844 0.0000 -0.1762
vn 0.1761 0.0000 0.9844
vn -0.9844 0.0000 0.1761
vn 0.2142 0.0000 -0.9768
vn 0.9768 0.0000 0.2142
vn -0.2142 0.0000 0.9768
vn -0.9768 0.0000 -0.2142
vn 0.5775 0.0000 -0.8164
vn 0.8164 0.0000 0.5775
vn -0.5775 0.0000 0.8164
vn -0.8164 0.0000 -0.5775
vn 0.8490 0.0000 -0.5283
vn 0.5283 0.0000 0.8490
vn -0.8490 0.0000 0.5283
vn -0.5283 0.0000 -0.8490
vn 0.9845 0.0000 -0.1753
vn 0.1753 0.0000 0.9845
vn -0.9845 0.0000 0.1753
vn -0.1753 0.0000 -0.9845
vn 0.0585 0.9540 -0.2940
vn 0.1666 0.9540 -0.2493
vn 0.2493 0.9540 -0.1666
vn 0.2940 0.9540 -0.0585
vn 0.2940 0.9540 0.0585
vn 0.2493 0.9540 0.1666
vn 0.1666 0.9540 0.2493
vn 0.0585 0.9540 0.2940
vn -0.0585 0.9540 0.2940
vn -0.1666 0.9540 0.2493
vn -0.2493 0.9540 0.1666
vn -0.2940 0.9540 0.0585
vn -0.2940 0.9540 -0.0585
vn -0.2493 0.9540 -0.1666
vn 0.9808 0.0000 0.1951
vn -0.1666 0.9540 -0.2493
vn -0.0585 0.9540 -0.2940
vn -0.1951 0.0000 -0.9808
vn -0.5556 0.0000 -0.8315
vn -0.8315 0.0000 -0.5556
vn -0.9808 0.0000 -0.1951
vn -0.9808 -0.0000 0.1951
vn -0.8315 0.0000 0.5556
vn -0.5556 0.0000 0.8315
vn -0.1951 0.0000 0.9808
vn 0.1951 0.0000 0.9808
vn 0.5556 0.0000 0.8315
vn 0.8315 0.0000 0.5556
vn 0.9808 0.0000 -0.1951
vn 0.8315 0.0000 -0.5556
vn 0.5556 0.0000 -0.8315
vn 0.1951 0.0000 -0.9808
vn 0.0000 0.0000 1.0000
usemtl Material.001
s 1
f 1/1/1 2/2/1 3/3/1 4/4/1
f 2/2/2 5/5/2 6/6/2 3/3/2
f 5/5/3 7/7/3 8/8/3 6/6/3
f 7/7/4 1/1/4 4/4/4 8/8/4
f 2/2/5 1/1/5 7/7/5 5/5/5
f 6/6/6 8/8/6 4/4/6 3/3/6
f 9/9/7 10/10/7 11/11/7 12/12/7
f 10/10/8 13/13/8 14/14/8 11/11/8
f 13/13/9 15/15/9 16/16/9 14/14/9
f 15/15/10 9/9/10 12/12/10 16/16/10
f 10/10/5 9/9/5 15/15/5 13/13/5
f 14/14/6 16/16/6 12/12/6 11/11/6
f 17/17/11 18/18/11 19/19/11 20/20/11
f 18/18/12 21/21/12 22/22/12 19/19/12
f 21/21/13 23/23/13 24/24/13 22/22/13
f 23/23/14 17/17/14 20/20/14 24/24/14
f 18/18/5 17/17/5 23/23/5 21/21/5
f 22/22/6 24/24/6 20/20/6 19/19/6
f 25/25/15 26/26/15 27/27/15 28/28/15
f 26/26/16 29/29/16 30/30/16 27/27/16
f 29/29/17 31/31/17 32/32/17 30/30/17
f 31/31/18 25/25/18 28/28/18 32/32/18
f 26/26/5 25/25/5 31/31/5 29/29/5
f 30/30/6 32/32/6 28/28/6 27/27/6
f 33/33/19 34/34/19 35/35/19 36/36/19
f 34/34/20 37/37/20 38/38/20 35/35/20
f 37/37/21 39/39/21 40/40/21 38/38/21
f 39/39/22 33/33/22 36/36/22 40/40/22
f 34/34/5 33/33/5 39/39/5 37/37/5
f 38/38/6 40/40/6 36/36/6 35/35/6
f 41/41/23 42/42/23 43/43/23 44/44/23
f 42/42/24 45/45/24 46/46/24 43/43/24
f 45/45/25 47/47/25 48/48/25 46/46/25
f 47/47/26 41/41/26 44/44/26 48/48/26
f 42/42/5 41/41/5 47/47/5 45/45/5
f 46/46/6 48/48/6 44/44/6 43/43/6
f 49/49/27 50/50/27 51/51/27 52/52/27
f 50/50/28 53/53/28 54/54/28 51/51/28
f 53/53/29 55/55/29 56/56/29 54/54/29
f 55/55/30 49/49/30 52/52/30 56/56/30
f 50/50/5 49/49/5 55/55/5 53/53/5
f 54/54/6 56/56/6 52/52/6 51/51/6
f 57/57/31 58/58/31 59/59/31 60/60/31
f 58/58/32 61/61/32 62/62/32 59/59/32
f 61/61/33 63/63/33 64/64/33 62/62/33
f 63/63/34 57/57/34 60/60/34 64/64/34
f 58/58/5 57/57/5 63/63/5 61/61/5
f 62/62/6 64/64/6 60/60/6 59/59/6
f 65/65/35 66/66/35 67/67/35 68/68/35
f 66/66/36 69/69/36 70/70/36 67/67/36
f 69/69/37 71/71/37 72/72/37 70/70/37
f 71/71/38 65/65/38 68/68/38 72/72/38
f 66/66/5 65/65/5 71/71/5 69/69/5
f 70/70/6 72/72/6 68/68/6 67/67/6
f 73/73/39 74/74/39 75/75/39 76/76/39
f 74/74/40 77/77/40 78/78/40 75/75/40
f 77/77/41 79/79/41 80/80/41 78/78/41
f 79/79/42 73/73/42 76/76/42 80/80/42
f 74/74/5 73/73/5 79/79/5 77/77/5
f 78/78/6 80/80/6 76/76/6 75/75/6
f 81/81/43 82/82/43 83/83/43 84/84/43
f 82/82/44 85/85/44 86/86/44 83/83/44
f 85/85/45 87/87/45 88/88/45 86/86/45
f 87/87/46 81/81/46 84/84/46 88/88/46
f 82/82/5 81/81/5 87/87/5 85/85/5
f 86/86/6 88/88/6 84/84/6 83/83/6
f 89/89/47 90/90/47 91/91/47 92/92/47
f 90/90/48 93/93/48 94/94/48 91/91/48
f 93/93/49 95/95/49 96/96/49 94/94/49
f 95/95/50 89/89/50 92/92/50 96/96/50
f 90/90/5 89/89/5 95/95/5 93/93/5
f 94/94/6 96/96/6 92/92/6 91/91/6
f 97/97/51 98/98/51 99/99/51 100/100/51
f 98/98/52 101/101/52 102/102/52 99/99/52
f 101/101/53 103/103/53 104/104/53 102/102/53
f 103/103/54 97/97/54 100/100/54 104/104/54
f 98/98/5 97/97/5 103/103/5 101/101/5
f 102/102/6 104/104/6 100/100/6 99/99/6
f 105/105/55 106/106/55 107/107/55 108/108/55
f 106/106/56 109/109/56 110/110/56 107/107/56
f 109/109/57 111/111/57 112/112/57 110/110/57
f 111/111/58 105/105/58 108/108/58 112/112/58
f 106/106/5 105/105/5 111/111/5 109/109/5
f 110/110/6 112/112/6 108/108/6 107/107/6
f 113/113/59 114/114/59 115/115/59 116/116/59
f 114/114/60 117/117/60 118/118/60 115/115/60
f 117/117/61 119/119/61 120/120/61 118/118/61
f 119/119/62 113/113/62 116/116/62 120/120/62
f 114/114/5 113/113/5 119/119/5 117/117/5
f 118/118/6 120/120/6 116/116/6 115/115/6
f 121/121/63 122/122/63 123/123/63 124/124/63
f 122/122/64 125/125/64 126/126/64 123/123/64
f 125/125/65 127/127/65 128/128/65 126/126/65
f 127/127/66 121/121/66 124/124/66 128/128/66
f 122/122/5 121/121/5 127/127/5 125/125/5
f 126/126/6 128/128/6 124/124/6 123/123/6
f 129/129/67 130/130/67 131/131/67 132/132/67
f 132/132/68 131/131/68 133/133/68 134/134/68
f 134/134/69 133/133/69 135/135/69 136/136/69
f 136/136/70 135/135/70 137/137/70 138/138/70
f 138/138/71 137/137/71 139/139/71 140/140/71
f 140/140/72 139/139/72 141/141/72 142/142/72
f 142/142/73 141/141/73 143/143/73 144/144/73
f 144/144/74 143/143/74 145/145/74 146/146/74
f 146/146/75 145/145/75 147/147/75 148/148/75
f 148/148/76 147/147/76 149/149/76 150/150/76
f 150/150/77 149/149/77 151/151/77 152/152/77
f 152/152/78 151/151/78 153/153/78 154/154/78
f 154/154/79 153/153/79 155/155/79 156/156/79
f 156/156/80 155/155/80 157/157/80 158/158/80
f 139/159/81 137/160/81 159/161/81 160/162/81
f 158/158/82 157/157/82 161/163/82 162/164/82
f 162/164/83 161/163/83 130/130/83 129/129/83
f 163/165/84 162/166/84 129/167/84 164/168/84
f 165/169/85 158/170/85 162/166/85 163/165/85
f 166/171/86 156/172/86 158/173/86 165/174/86
f 167/175/87 154/176/87 156/172/87 166/171/87
f 168/177/88 152/178/88 154/176/88 167/175/88
f 169/179/89 150/180/89 152/178/89 168/177/89
f 170/181/90 148/182/90 150/180/90 169/179/90
f 171/183/91 146/184/91 148/182/91 170/181/91
f 172/185/92 144/186/92 146/184/92 171/183/92
f 173/187/93 142/188/93 144/186/93 172/185/93
f 174/189/94 140/190/94 142/191/94 173/192/94
f 175/193/81 138/194/81 140/190/81 174/189/81
f 176/195/95 136/196/95 138/194/95 175/193/95
f 177/197/96 134/198/96 136/196/96 176/195/96
f 178/199/97 132/200/97 134/198/97 177/197/97
f 164/168/98 129/167/98 132/200/98 178/199/98
f 179/201/99 180/202/99 181/203/99 182/204/99
f 149/205/90 147/206/90 183/207/90 184/208/90
f 161/209/85 157/210/85 185/211/85 186/212/85
f 135/213/96 133/214/96 187/215/96 188/216/96
f 145/217/92 143/218/92 189/219/92 190/220/92
f 131/221/98 130/222/98 191/223/98 192/224/98
f 155/225/87 153/226/87 193/227/87 194/228/87
f 141/229/94 139/159/94 160/162/94 195/230/94
f 151/231/89 149/205/89 184/208/89 196/232/89
f 130/222/84 161/209/84 186/212/84 191/223/84
f 137/160/95 135/213/95 188/216/95 159/161/95
f 147/206/91 145/217/91 190/220/91 183/207/91
f 157/233/86 155/225/86 194/228/86 185/234/86
f 133/214/97 131/221/97 192/224/97 187/215/97
f 143/218/93 141/235/93 195/236/93 189/219/93
f 153/226/88 151/231/88 196/232/88 193/227/88
f 197/237/5 198/238/5 192/239/5 191/240/5
f 198/238/5 199/241/5 187/242/5 192/239/5
f 199/241/5 200/243/5 188/244/5 187/242/5
f 200/243/5 201/245/5 159/246/5 188/244/5
f 201/245/5 202/247/5 160/248/5 159/246/5
f 202/247/5 203/249/5 195/250/5 160/248/5
f 203/249/5 204/251/5 189/252/5 195/250/5
f 204/251/5 205/253/5 190/254/5 189/252/5
f 205/253/5 206/255/5 183/256/5 190/254/5
f 206/255/5 207/257/5 184/258/5 183/256/5
f 207/257/5 208/259/5 196/260/5 184/258/5
f 208/259/5 209/261/5 193/262/5 196/260/5
f 209/261/5 180/202/5 194/263/5 193/262/5
f 180/202/5 179/201/5 185/264/5 194/263/5
f 179/201/5 210/265/5 186/266/5 185/264/5
f 210/265/5 197/237/5 191/240/5 186/266/5
f 211/267/88 212/268/88 213/269/88 214/270/88
f 204/251/99 203/249/99 215/271/99 216/272/99
f 210/265/99 179/201/99 182/204/99 217/273/99
f 205/253/99 204/251/99 216/272/99 218/274/99
f 198/238/99 197/237/99 219/275/99 220/276/99
f 197/237/99 210/265/99 217/273/99 219/275/99
f 206/255/99 205/253/99 218/274/99 221/277/99
f 199/241/99 198/238/99 220/276/99 222/278/99
f 207/257/99 206/255/99 221/277/99 223/279/99
f 200/243/99 199/241/99 222/278/99 212/280/99
f 208/259/99 207/257/99 223/279/99 224/281/99
f 201/245/99 200/243/99 212/280/99 211/282/99
f 209/261/99 208/259/99 224/281/99 225/283/99
f 202/247/99 201/245/99 211/282/99 226/284/99
f 180/202/99 209/261/99 225/283/99 181/203/99
f 203/249/99 202/247/99 226/284/99 215/271/99
f 225/285/95 224/286/95 227/287/95 228/288/95
f 226/289/87 211/267/87 214/270/87 229/290/87
f 181/291/81 225/285/81 228/288/81 230/292/81
f 215/293/86 226/289/86 229/290/86 231/294/86
f 182/295/94 181/291/94 230/292/94 232/296/94
f 216/297/85 215/298/85 231/299/85 233/300/85
f 217/301/93 182/302/93 232/303/93 234/304/93
f 218/305/84 216/297/84 233/300/84 235/306/84
f 220/307/91 219/308/91 236/309/91 237/310/91
f 219/308/92 217/301/92 234/304/92 236/309/92
f 221/311/98 218/305/98 235/306/98 238/312/98
f 222/313/90 220/307/90 237/310/90 239/314/90
f 223/315/97 221/311/97 238/312/97 240/316/97
f 212/268/89 222/313/89 239/314/89 213/269/89
f 224/286/96 223/315/96 240/316/96 227/287/96
f 163/317/6 164/318/6 178/319/6
f 178/319/6 177/320/6 176/321/6
f 176/321/6 175/322/6 174/323/6
f 174/323/6 173/324/6 176/321/6
f 173/324/6 172/325/6 176/321/6
f 172/325/6 171/326/6 168/327/6
f 171/326/6 170/328/6 168/327/6
f 170/328/6 169/329/6 168/327/6
f 168/327/6 167/330/6 163/317/6
f 167/330/6 166/331/6 163/317/6
f 166/331/6 165/332/6 163/317/6
f 163/317/6 178/319/6 176/321/6
f 240/333/5 231/334/5 239/335/5 228/336/5
f 239/335/5 237/337/5 232/338/5
f 237/337/5 236/339/5 232/338/5
f 236/339/5 234/340/5 232/338/5
f 232/338/5 230/341/5 228/336/5
f 228/336/5 227/342/5 240/333/5
f 240/333/5 238/343/5 235/344/5
f 235/344/5 233/345/5 231/334/5
f 231/334/5 229/346/5 214/347/5
f 214/347/5 213/348/5 239/335/5
f 232/338/5 228/336/5 239/335/5
f 240/333/5 235/344/5 231/334/5
f 231/334/5 214/347/5 239/335/5
f 172/325/6 168/327/6 163/317/6 176/321/6
