# Blender v2.78 (sub 0) OBJ File: ''
# www.blender.org
mtllib plastic.mtl
o kimkardashian
v 0.000000 0.189703 0.289947
v 0.144974 0.189703 0.251102
v 0.000000 0.234375 0.000000
v 0.000000 0.117187 0.502203
v 0.251102 0.117187 0.434921
v 0.000000 -0.000000 0.625000
v 0.312500 -0.000000 0.541266
v 0.000000 -0.019531 0.541266
v 0.270633 -0.019531 0.468750
v 0.000000 -0.033453 0.312500
v 0.156250 -0.033453 0.270633
v 0.000000 -0.039062 -0.000000
v 0.251102 0.189703 0.144974
v 0.434921 0.117187 0.251102
v 0.541266 -0.000000 0.312500
v 0.468750 -0.019531 0.270633
v 0.270633 -0.033453 0.156250
v 0.289947 0.189703 0.000000
v 0.502203 0.117188 0.000000
v 0.625000 0.000000 0.000000
v 0.541266 -0.019531 -0.000000
v 0.312500 -0.033453 -0.000000
v 0.251102 0.189703 -0.144974
v 0.434921 0.117188 -0.251102
v 0.541266 0.000000 -0.312500
v 0.468750 -0.019531 -0.270633
v 0.270633 -0.033453 -0.156250
v 0.144974 0.189703 -0.251102
v 0.251102 0.117188 -0.434921
v 0.312500 0.000000 -0.541266
v 0.270633 -0.019531 -0.468750
v 0.156250 -0.033453 -0.270633
v 0.000000 0.189703 -0.289947
v 0.000000 0.117188 -0.502203
v 0.000000 0.000000 -0.625000
v 0.000000 -0.019531 -0.541266
v 0.000000 -0.033453 -0.312500
v -0.144974 0.189703 -0.251102
v -0.251102 0.117188 -0.434921
v -0.312500 0.000000 -0.541266
v -0.270633 -0.019531 -0.468750
v -0.156250 -0.033453 -0.270633
v -0.251102 0.189703 -0.144974
v -0.434921 0.117188 -0.251102
v -0.541266 0.000000 -0.312500
v -0.468750 -0.019531 -0.270633
v -0.270633 -0.033453 -0.156250
v -0.289947 0.189703 0.000000
v -0.502203 0.117188 0.000000
v -0.625000 0.000000 -0.000000
v -0.541266 -0.019531 -0.000000
v -0.312500 -0.033453 -0.000000
v -0.251102 0.189703 0.144974
v -0.434921 0.117187 0.251102
v -0.541266 -0.000000 0.312500
v -0.468750 -0.019531 0.270633
v -0.270633 -0.033453 0.156250
v -0.144974 0.189703 0.251102
v -0.251102 0.117187 0.434921
v -0.312500 -0.000000 0.541266
v -0.270633 -0.019531 0.468750
v -0.156250 -0.033453 0.270633
vt 0.0000 0.5000
vt 0.0000 1.0000
vt 0.5000 1.0000
vt 0.5000 0.5000
vt 0.5000 1.0000
vt 1.0000 1.0000
vt 1.0000 0.5000
vt 0.0000 0.5000
vt 0.0000 1.0000
vt 0.5000 1.0000
vt 0.5000 0.5000
vt 0.0000 0.0000
vt 0.0000 0.5000
vt 0.5000 0.5000
vt 0.5000 0.0000
vt 0.5000 0.0000
vt 0.5000 0.5000
vt 1.0000 0.5000
vt 1.0000 0.0000
vt 0.0000 0.0000
vt 0.0000 0.5000
vt 0.5000 0.5000
vt 0.5000 0.5000
vt 0.5000 1.0000
vt 1.0000 1.0000
vt 0.0000 0.5000
vt 0.0000 1.0000
vt 0.5000 1.0000
vt 0.5000 0.5000
vt 1.0000 1.0000
vt 1.0000 0.5000
vt 1.0000 0.5000
vt 1.0000 0.0000
vt 0.0000 0.0000
vt 0.0000 0.5000
vt 0.5000 0.5000
vt 0.5000 0.0000
vt 0.5000 0.0000
vt 0.5000 0.5000
vt 1.0000 0.5000
vt 0.0000 0.5000
vt 0.0000 1.0000
vt 1.0000 1.0000
vt 1.0000 0.5000
vt 0.0000 0.5000
vt 0.0000 1.0000
vt 0.5000 1.0000
vt 0.5000 0.5000
vt 0.0000 0.0000
vt 0.0000 0.5000
vt 0.5000 0.5000
vt 0.5000 0.0000
vt 1.0000 0.5000
vt 1.0000 0.0000
vt 0.0000 0.0000
vt 0.0000 0.5000
vt 0.5000 0.5000
vt 0.5000 1.0000
vt 0.0000 0.5000
vt 0.0000 1.0000
vt 0.5000 1.0000
vt 0.5000 0.5000
vt 1.0000 1.0000
vt 1.0000 0.5000
vt 1.0000 0.5000
vt 1.0000 0.0000
vt 0.0000 0.0000
vt 0.0000 0.5000
vt 0.5000 0.5000
vt 0.5000 0.0000
vt 0.5000 0.0000
vt 0.5000 0.5000
vt 0.0000 0.5000
vt 0.0000 1.0000
vt 1.0000 1.0000
vt 1.0000 0.5000
vt 0.0000 0.5000
vt 0.0000 1.0000
vt 0.5000 1.0000
vt 0.5000 0.5000
vt 0.0000 0.0000
vt 0.0000 0.5000
vt 0.5000 0.5000
vt 0.5000 0.0000
vt 1.0000 0.5000
vt 1.0000 0.0000
vt 0.0000 0.0000
vt 0.0000 0.5000
vt 0.5000 0.5000
vt 0.5000 1.0000
vt 0.0000 0.5000
vt 0.0000 1.0000
vt 0.5000 1.0000
vt 0.5000 0.5000
vt 1.0000 1.0000
vt 1.0000 0.5000
vt 1.0000 0.5000
vt 1.0000 0.0000
vt 0.0000 0.0000
vt 0.0000 0.5000
vt 0.5000 0.5000
vt 0.5000 0.0000
vt 0.5000 0.0000
vt 0.5000 0.5000
vt 0.0000 0.5000
vt 0.0000 1.0000
vt 1.0000 1.0000
vt 1.0000 0.5000
vt 0.0000 0.5000
vt 0.0000 1.0000
vt 0.5000 1.0000
vt 0.5000 0.5000
vt 0.0000 0.0000
vt 0.0000 0.5000
vt 0.5000 0.5000
vt 0.5000 0.0000
vt 1.0000 0.5000
vt 1.0000 0.0000
vt 0.0000 0.0000
vt 0.0000 0.5000
vt 0.5000 0.5000
vt 0.5000 1.0000
vt 0.0000 0.5000
vt 0.0000 1.0000
vt 0.5000 1.0000
vt 0.5000 0.5000
vt 1.0000 1.0000
vt 1.0000 0.5000
vt 1.0000 0.5000
vt 1.0000 0.0000
vt 0.0000 0.0000
vt 0.0000 0.5000
vt 0.5000 0.5000
vt 0.5000 0.0000
vt 0.5000 0.0000
vt 0.5000 0.5000
vt 0.0000 0.5000
vt 0.0000 1.0000
vt 1.0000 1.0000
vt 1.0000 0.5000
vt 0.0000 0.5000
vt 0.0000 1.0000
vt 0.5000 1.0000
vt 0.5000 0.5000
vt 0.0000 0.0000
vt 0.0000 0.5000
vt 0.5000 0.5000
vt 0.5000 0.0000
vt 1.0000 0.5000
vt 1.0000 0.0000
vt 0.0000 0.0000
vt 0.0000 0.5000
vt 0.5000 0.5000
vt 0.5000 1.0000
vt 0.0000 0.5000
vt 0.0000 1.0000
vt 0.5000 1.0000
vt 0.5000 0.5000
vt 1.0000 1.0000
vt 1.0000 0.5000
vt 1.0000 0.5000
vt 1.0000 0.0000
vt 0.0000 0.0000
vt 0.0000 0.5000
vt 0.5000 0.5000
vt 0.5000 0.0000
vt 0.5000 0.0000
vt 0.5000 0.5000
vt 0.0000 0.5000
vt 0.0000 1.0000
vt 1.0000 1.0000
vt 1.0000 0.5000
vt 0.0000 0.5000
vt 0.0000 1.0000
vt 0.5000 1.0000
vt 0.5000 0.5000
vt 0.0000 0.0000
vt 0.0000 0.5000
vt 0.5000 0.5000
vt 0.5000 0.0000
vt 1.0000 0.5000
vt 1.0000 0.0000
vt 0.0000 0.0000
vt 0.0000 0.5000
vt 0.5000 0.5000
vt 0.5000 1.0000
vt 0.0000 0.5000
vt 0.0000 1.0000
vt 1.0000 1.0000
vt 1.0000 0.5000
vt 1.0000 0.5000
vt 1.0000 0.0000
vt 0.0000 0.0000
vt 0.0000 0.5000
vt 0.5000 0.0000
vt 0.5000 0.5000
vn 0.0408 0.9875 0.1521
vn 0.0863 0.9428 0.3221
vn 0.1819 0.7114 0.6789
vn 0.0608 -0.9721 0.2267
vn 0.0163 -0.9980 0.0607
vn 0.0048 -0.9998 0.0179
vn 0.0000 -0.9998 0.0179
vn 0.1114 0.9875 0.1114
vn 0.2358 0.9428 0.2358
vn 0.4970 0.7114 0.4970
vn 0.1660 -0.9721 0.1660
vn 0.0445 -0.9980 0.0445
vn 0.0155 -0.9998 0.0090
vn 0.0131 -0.9998 0.0131
vn 0.1521 0.9875 0.0408
vn 0.3221 0.9428 0.0863
vn 0.6789 0.7114 0.1819
vn 0.2267 -0.9721 0.0608
vn 0.0607 -0.9980 0.0163
vn 0.0179 -0.9998 0.0048
vn 0.1521 0.9875 -0.0408
vn 0.3221 0.9428 -0.0863
vn 0.6789 0.7114 -0.1819
vn 0.2267 -0.9721 -0.0608
vn 0.0607 -0.9980 -0.0163
vn 0.0155 -0.9998 -0.0090
vn 0.0179 -0.9998 -0.0048
vn 0.1114 0.9875 -0.1114
vn 0.2358 0.9428 -0.2358
vn 0.4970 0.7114 -0.4970
vn 0.1660 -0.9721 -0.1660
vn 0.0445 -0.9980 -0.0445
vn 0.0131 -0.9998 -0.0131
vn 0.0408 0.9875 -0.1521
vn 0.0863 0.9428 -0.3221
vn 0.1819 0.7114 -0.6789
vn 0.0608 -0.9721 -0.2267
vn 0.0163 -0.9980 -0.0607
vn 0.0000 -0.9998 -0.0179
vn 0.0048 -0.9998 -0.0179
vn -0.0408 0.9875 -0.1521
vn -0.0863 0.9428 -0.3221
vn -0.1819 0.7114 -0.6789
vn -0.0608 -0.9721 -0.2267
vn -0.0163 -0.9980 -0.0607
vn -0.0048 -0.9998 -0.0179
vn -0.1114 0.9875 -0.1114
vn -0.2358 0.9428 -0.2358
vn -0.4970 0.7114 -0.4970
vn -0.1660 -0.9721 -0.1660
vn -0.0445 -0.9980 -0.0445
vn -0.0155 -0.9998 -0.0090
vn -0.0131 -0.9998 -0.0131
vn -0.1521 0.9875 -0.0408
vn -0.3221 0.9428 -0.0863
vn -0.6789 0.7114 -0.1819
vn -0.2267 -0.9721 -0.0608
vn -0.0607 -0.9980 -0.0163
vn -0.0179 -0.9998 -0.0048
vn -0.1521 0.9875 0.0408
vn -0.3221 0.9428 0.0863
vn -0.6789 0.7114 0.1819
vn -0.2267 -0.9721 0.0608
vn -0.0607 -0.9980 0.0163
vn -0.0155 -0.9998 0.0090
vn -0.0179 -0.9998 0.0048
vn -0.1114 0.9875 0.1114
vn -0.2358 0.9428 0.2358
vn -0.4970 0.7114 0.4970
vn -0.1660 -0.9721 0.1660
vn -0.0445 -0.9980 0.0445
vn -0.0131 -0.9998 0.0131
vn -0.0408 0.9875 0.1521
vn -0.0863 0.9428 0.3221
vn -0.1819 0.7114 0.6789
vn -0.0608 -0.9721 0.2267
vn -0.0163 -0.9980 0.0607
vn -0.0048 -0.9998 0.0179
usemtl m_0
s 1
f 1/1/1 2/2/1 3/3/1
f 1/4/2 4/5/2 5/6/2 2/7/2
f 4/8/3 6/9/3 7/10/3 5/11/3
f 6/12/4 8/13/4 9/14/4 7/15/4
f 8/16/5 10/17/5 11/18/5 9/19/5
f 11/20/6 10/21/7 12/22/7
f 2/23/8 13/24/8 3/25/8
f 2/26/9 5/27/9 14/28/9 13/29/9
f 5/11/10 7/10/10 15/30/10 14/31/10
f 7/15/11 9/14/11 16/32/11 15/33/11
f 9/34/12 11/35/12 17/36/12 16/37/12
f 17/38/13 11/39/14 12/40/13
f 13/41/15 18/42/15 3/3/15
f 13/29/16 14/28/16 19/43/16 18/44/16
f 14/45/17 15/46/17 20/47/17 19/48/17
f 15/49/18 16/50/18 21/51/18 20/52/18
f 16/37/19 17/36/19 22/53/19 21/54/19
f 22/55/20 17/56/13 12/22/13
f 18/57/21 23/58/21 3/25/21
f 18/59/22 19/60/22 24/61/22 23/62/22
f 19/48/23 20/47/23 25/63/23 24/64/23
f 20/52/24 21/51/24 26/65/24 25/66/24
f 21/67/25 22/68/25 27/69/25 26/70/25
f 27/71/26 22/72/27 12/40/26
f 23/73/28 28/74/28 3/3/28
f 23/62/29 24/61/29 29/75/29 28/76/29
f 24/77/30 25/78/30 30/79/30 29/80/30
f 25/81/31 26/82/31 31/83/31 30/84/31
f 26/70/32 27/69/32 32/85/32 31/86/32
f 32/87/33 27/88/26 12/22/26
f 28/89/34 33/90/34 3/25/34
f 28/91/35 29/92/35 34/93/35 33/94/35
f 29/80/36 30/79/36 35/95/36 34/96/36
f 30/84/37 31/83/37 36/97/37 35/98/37
f 31/99/38 32/100/38 37/101/38 36/102/38
f 37/103/39 32/104/40 12/40/39
f 33/105/41 38/106/41 3/3/41
f 33/94/42 34/93/42 39/107/42 38/108/42
f 34/109/43 35/110/43 40/111/43 39/112/43
f 35/113/44 36/114/44 41/115/44 40/116/44
f 36/102/45 37/101/45 42/117/45 41/118/45
f 42/119/46 37/120/39 12/22/39
f 38/121/47 43/122/47 3/25/47
f 38/123/48 39/124/48 44/125/48 43/126/48
f 39/112/49 40/111/49 45/127/49 44/128/49
f 40/116/50 41/115/50 46/129/50 45/130/50
f 41/131/51 42/132/51 47/133/51 46/134/51
f 47/135/52 42/136/53 12/40/52
f 43/137/54 48/138/54 3/3/54
f 43/126/55 44/125/55 49/139/55 48/140/55
f 44/141/56 45/142/56 50/143/56 49/144/56
f 45/145/57 46/146/57 51/147/57 50/148/57
f 46/134/58 47/133/58 52/149/58 51/150/58
f 52/151/59 47/152/52 12/22/52
f 48/153/60 53/154/60 3/25/60
f 48/155/61 49/156/61 54/157/61 53/158/61
f 49/144/62 50/143/62 55/159/62 54/160/62
f 50/148/63 51/147/63 56/161/63 55/162/63
f 51/163/64 52/164/64 57/165/64 56/166/64
f 57/167/65 52/168/66 12/40/65
f 53/169/67 58/170/67 3/3/67
f 53/158/68 54/157/68 59/171/68 58/172/68
f 54/173/69 55/174/69 60/175/69 59/176/69
f 55/177/70 56/178/70 61/179/70 60/180/70
f 56/166/71 57/165/71 62/181/71 61/182/71
f 62/183/72 57/184/65 12/22/65
f 58/185/73 1/186/73 3/25/73
f 58/187/74 59/188/74 4/5/74 1/4/74
f 59/176/75 60/175/75 6/189/75 4/190/75
f 60/180/76 61/179/76 8/191/76 6/192/76
f 61/193/77 62/194/77 10/17/77 8/16/77
f 10/195/7 62/196/78 12/40/7
