# Blender v2.78 (sub 0) OBJ File: 'rocklighttri.blend'
# www.blender.org
mtllib rocklighttri.mtl
o &RunningLight_faebc3_fffff_000
v 0.013672 -0.111328 0.029297
v 0.013672 -0.263672 0.029297
v 0.013672 -0.111328 0.015625
v 0.013672 -0.263672 0.015625
v -0.138672 -0.111328 0.015625
v -0.138672 -0.263672 0.015625
v -0.138672 -0.111328 0.029297
v -0.138672 -0.263672 0.029297
vt 0.5000 0.6562
vt 0.5312 0.6562
vt 0.5312 0.9062
vt 0.5000 0.9062
vt 0.5000 0.6562
vt 0.7500 0.6562
vt 0.7500 0.9062
vt 0.5000 0.9062
vt 0.5000 0.6562
vt 0.8750 0.6562
vt 0.8750 0.9062
vt 0.5000 0.9062
vt 0.5000 0.8750
vt 0.7500 0.8750
vt 0.7500 0.9062
vt 0.7188 0.6562
vt 0.7500 0.6562
vt 0.7188 0.9062
vt 0.7500 0.6875
vt 0.5000 0.6875
vn -1.0000 0.0000 0.0000
vn 0.0000 -0.0000 1.0000
vn 0.0000 0.0000 -1.0000
vn 0.0000 1.0000 0.0000
vn 1.0000 0.0000 0.0000
vn 0.0000 -1.0000 0.0000
usemtl m_0
s 1
f 6/1/1 8/2/1 7/3/1 5/4/1
f 8/5/2 2/6/2 1/7/2 7/8/2
f 4/9/3 6/10/3 5/11/3 3/12/3
f 7/13/4 1/14/4 3/15/4 5/4/4
f 2/16/5 4/17/5 3/15/5 1/18/5
f 6/1/6 4/17/6 2/19/6 8/20/6
o glass
v 0.031250 0.125000 0.031250
v 0.031250 -0.031250 0.031250
v 0.031250 0.125000 0.015625
v 0.031250 -0.031250 0.015625
v 0.015625 0.125000 0.015625
v 0.015625 -0.031250 0.015625
v 0.015625 0.125000 0.031250
v 0.015625 -0.031250 0.031250
v 0.234375 0.125000 0.031250
v 0.234375 -0.031250 0.031250
v 0.234375 0.125000 0.015625
v 0.234375 -0.031250 0.015625
v 0.218750 0.125000 0.015625
v 0.218750 -0.031250 0.015625
v 0.218750 0.125000 0.031250
v 0.218750 -0.031250 0.031250
v 0.218750 0.125000 0.031250
v 0.218750 0.109375 0.031250
v 0.218750 0.125000 0.015625
v 0.218750 0.109375 0.015625
v 0.031250 0.125000 0.015625
v 0.031250 0.109375 0.015625
v 0.031250 0.125000 0.031250
v 0.031250 0.109375 0.031250
v 0.218750 -0.015625 0.031250
v 0.218750 -0.031250 0.031250
v 0.218750 -0.015625 0.015625
v 0.218750 -0.031250 0.015625
v 0.031250 -0.015625 0.015625
v 0.031250 -0.031250 0.015625
v 0.031250 -0.015625 0.031250
v 0.031250 -0.031250 0.031250
v 0.218750 0.109375 0.031250
v 0.218750 -0.015625 0.031250
v 0.218750 0.109375 0.023438
v 0.218750 -0.015625 0.023437
v 0.031250 0.109375 0.023438
v 0.031250 -0.015625 0.023437
v 0.031250 0.109375 0.031250
v 0.031250 -0.015625 0.031250
v -0.218750 0.125000 0.031250
v -0.218750 -0.031250 0.031250
v -0.218750 0.125000 0.015625
v -0.218750 -0.031250 0.015625
v -0.234375 0.125000 0.015625
v -0.234375 -0.031250 0.015625
v -0.234375 0.125000 0.031250
v -0.234375 -0.031250 0.031250
v -0.015625 0.125000 0.031250
v -0.015625 -0.031250 0.031250
v -0.015625 0.125000 0.015625
v -0.015625 -0.031250 0.015625
v -0.031250 0.125000 0.015625
v -0.031250 -0.031250 0.015625
v -0.031250 0.125000 0.031250
v -0.031250 -0.031250 0.031250
v -0.031250 0.125000 0.031250
v -0.031250 0.109375 0.031250
v -0.031250 0.125000 0.015625
v -0.031250 0.109375 0.015625
v -0.218750 0.125000 0.015625
v -0.218750 0.109375 0.015625
v -0.218750 0.125000 0.031250
v -0.218750 0.109375 0.031250
v -0.031250 -0.015625 0.031250
v -0.031250 -0.031250 0.031250
v -0.031250 -0.015625 0.015625
v -0.031250 -0.031250 0.015625
v -0.218750 -0.015625 0.015625
v -0.218750 -0.031250 0.015625
v -0.218750 -0.015625 0.031250
v -0.218750 -0.031250 0.031250
v -0.031250 0.109375 0.031250
v -0.031250 -0.015625 0.031250
v -0.031250 0.109375 0.023438
v -0.031250 -0.015625 0.023437
v -0.218750 0.109375 0.023438
v -0.218750 -0.015625 0.023437
v -0.218750 0.109375 0.031250
v -0.218750 -0.015625 0.031250
v -0.125000 -0.109375 0.031250
v -0.125000 -0.265625 0.031250
v -0.125000 -0.109375 0.015625
v -0.125000 -0.265625 0.015625
v -0.140625 -0.109375 0.015625
v -0.140625 -0.265625 0.015625
v -0.140625 -0.109375 0.031250
v -0.140625 -0.265625 0.031250
v 0.000000 -0.109375 0.031250
v 0.000000 -0.125000 0.031250
v 0.000000 -0.109375 0.015625
v 0.000000 -0.125000 0.015625
v -0.125000 -0.109375 0.015625
v -0.125000 -0.125000 0.015625
v -0.125000 -0.109375 0.031250
v -0.125000 -0.125000 0.031250
v 0.000000 -0.125000 0.031250
v 0.000000 -0.250000 0.031250
v 0.000000 -0.125000 0.023437
v 0.000000 -0.250000 0.023437
v -0.125000 -0.125000 0.023437
v -0.125000 -0.250000 0.023437
v -0.125000 -0.125000 0.031250
v -0.125000 -0.250000 0.031250
v 0.000000 -0.250000 0.031250
v 0.000000 -0.265625 0.031250
v 0.000000 -0.250000 0.015625
v 0.000000 -0.265625 0.015625
v -0.125000 -0.250000 0.015625
v -0.125000 -0.265625 0.015625
v -0.125000 -0.250000 0.031250
v -0.125000 -0.265625 0.031250
v 0.015625 -0.109375 0.031250
v 0.015625 -0.265625 0.031250
v 0.015625 -0.109375 0.015625
v 0.015625 -0.265625 0.015625
v 0.000000 -0.109375 0.015625
v 0.000000 -0.265625 0.015625
v 0.000000 -0.109375 0.031250
v 0.000000 -0.265625 0.031250
vt 0.0312 0.4688
vt 0.2500 0.4688
vt 0.2500 0.5000
vt 0.0312 0.5000
vt 0.9688 0.0000
vt 1.0000 0.0000
vt 1.0000 0.0312
vt 0.9688 0.0312
vt 0.0000 0.0625
vt 0.0312 0.0625
vt 0.0312 0.3750
vt 0.0000 0.3750
vt 0.0000 0.0625
vt 0.0312 0.0625
vt 0.0312 0.3750
vt 0.0000 0.3750
vt 0.0000 0.3438
vt 0.0312 0.3438
vt 0.0312 0.3750
vt 0.4688 0.0625
vt 0.5000 0.0625
vt 0.5000 0.3750
vt 0.4688 0.3750
vt 0.9688 0.0000
vt 1.0000 0.0000
vt 1.0000 0.0312
vt 0.9688 0.0312
vt 0.4688 0.0625
vt 0.5000 0.0625
vt 0.5000 0.3750
vt 0.4688 0.3750
vt 0.0000 0.0625
vt 0.0312 0.0625
vt 0.0312 0.3750
vt 0.0000 0.3750
vt 0.0312 0.4688
vt 0.3438 0.4688
vt 0.3438 0.5000
vt 0.0312 0.5000
vt 0.0312 0.4688
vt 0.3438 0.4688
vt 0.3438 0.5000
vt 0.0312 0.5000
vt 0.0312 0.4688
vt 0.3438 0.4688
vt 0.3438 0.5000
vt 0.0312 0.5000
vt 0.2188 0.4688
vt 0.2500 0.4688
vt 0.2500 0.5000
vt 0.2188 0.5000
vt 0.9688 0.0000
vt 1.0000 0.0312
vt 0.9688 0.0312
vt 0.9688 0.0000
vt 1.0000 0.0000
vt 1.0000 0.0312
vt 0.9688 0.0312
vt 0.0312 0.4688
vt 0.0625 0.4688
vt 0.0625 0.5000
vt 0.0312 0.5000
vt 0.4688 0.0625
vt 0.5000 0.0625
vt 0.5000 0.3750
vt 0.4688 0.3750
vt 0.0312 0.4688
vt 0.3438 0.4688
vt 0.3438 0.5000
vt 0.0312 0.5000
vt 0.4688 0.3438
vt 0.5000 0.3438
vt 0.5000 0.3750
vt 0.4688 0.3750
vt 0.0312 0.0625
vt 0.0312 0.0938
vt 0.0000 0.0938
vt 0.0312 0.4688
vt 0.2500 0.4688
vt 0.2500 0.5000
vt 0.0312 0.5000
vt 0.9688 0.0000
vt 1.0000 0.0000
vt 1.0000 0.0312
vt 0.9688 0.0312
vt 0.9688 0.0000
vt 1.0000 0.0312
vt 0.9688 0.0312
vt 0.4688 0.3438
vt 0.5000 0.3438
vt 0.5000 0.3750
vt 0.4688 0.3750
vt 0.3125 0.4688
vt 0.3438 0.4688
vt 0.3438 0.5000
vt 0.3125 0.5000
vt 0.0312 0.4688
vt 0.3438 0.4688
vt 0.3438 0.5000
vt 0.0312 0.5000
vt 0.9688 0.0000
vt 1.0000 0.0000
vt 1.0000 0.0312
vt 0.9688 0.0312
vt 0.0312 0.4688
vt 0.2500 0.4688
vt 0.2500 0.5000
vt 0.0312 0.5000
vt 0.4688 0.0625
vt 0.5000 0.0625
vt 0.5000 0.3750
vt 0.4688 0.3750
vt 0.0312 0.4688
vt 0.3438 0.4688
vt 0.3438 0.5000
vt 0.0312 0.5000
vt 1.0000 0.0000
vt 1.0000 0.0312
vt 0.9688 0.0312
vt 0.9688 0.0000
vt 1.0000 0.0000
vt 1.0000 0.0312
vt 0.9688 0.0312
vt 0.0312 0.0625
vt 0.0312 0.0938
vt 0.0000 0.0938
vt 0.0000 0.0625
vt 0.0312 0.0625
vt 0.0312 0.3750
vt 0.0000 0.3750
vt 0.3125 0.4688
vt 0.3438 0.4688
vt 0.3125 0.5000
vt 0.4688 0.0625
vt 0.5000 0.0625
vt 0.5000 0.0938
vt 0.4688 0.0938
vt 0.9688 0.0000
vt 1.0000 0.0000
vt 1.0000 0.0312
vt 0.9688 0.0312
vt 0.9688 0.0000
vt 1.0000 0.0000
vt 1.0000 0.0312
vt 0.9688 0.0312
vt 0.0312 0.4688
vt 0.3438 0.4688
vt 0.3438 0.5000
vt 0.0312 0.5000
vt 0.4688 0.0625
vt 0.4688 0.3750
vt 0.0312 0.4688
vt 0.3438 0.4688
vt 0.3438 0.5000
vt 0.0312 0.5000
vt 0.0312 0.4688
vt 0.2500 0.4688
vt 0.2500 0.5000
vt 0.0312 0.0625
vt 0.4062 0.0625
vt 0.4062 0.3125
vt 0.0312 0.3125
vt 0.9688 0.0000
vt 1.0000 0.0000
vt 1.0000 0.0312
vt 0.9688 0.0312
vt 0.9688 0.0000
vt 1.0000 0.0000
vt 1.0000 0.0312
vt 0.9688 0.0312
vt 0.2500 0.4688
vt 0.2500 0.5000
vt 0.0312 0.5000
vt 0.9688 0.0000
vt 1.0000 0.0000
vt 1.0000 0.0312
vt 0.9688 0.0312
vt 0.0000 0.3438
vt 0.0312 0.3438
vt 0.0312 0.3750
vt 0.0000 0.3750
vt 0.9688 0.0000
vt 1.0000 0.0000
vt 0.9688 0.0312
vt 0.9688 0.0000
vt 1.0000 0.0312
vt 0.9688 0.0312
vt 0.0312 0.4688
vt 0.3438 0.4688
vt 0.3438 0.5000
vt 0.0312 0.5000
vt 0.0312 0.4688
vt 0.3438 0.4688
vt 0.3438 0.5000
vt 0.0312 0.5000
vt 1.0000 0.0000
vt 1.0000 0.0312
vt 0.0312 0.0625
vt 0.4062 0.0625
vt 0.4062 0.3125
vt 0.0312 0.3125
vt 0.0625 0.0625
vt 0.3125 0.0625
vt 0.3125 0.3125
vt 0.0625 0.3125
vt 0.0312 0.4688
vt 0.3438 0.4688
vt 0.0312 0.5000
vt 0.4688 0.0625
vt 0.5000 0.0625
vt 0.5000 0.3750
vt 0.4688 0.3750
vt 0.0312 0.4688
vt 0.3438 0.4688
vt 0.3438 0.5000
vt 0.0312 0.5000
vt 0.9688 0.0000
vt 1.0000 0.0000
vt 1.0000 0.0312
vt 0.9688 0.0312
vt 0.4688 0.0625
vt 0.5000 0.0625
vt 0.5000 0.3750
vt 0.4688 0.3750
vt 0.3438 0.4688
vt 0.3438 0.5000
vt 0.0312 0.5000
vt 0.0000 0.3438
vt 0.0312 0.3438
vt 0.0312 0.3750
vt 0.9688 0.0000
vt 1.0000 0.0000
vt 1.0000 0.0312
vt 0.9688 0.0312
vt 0.4688 0.0625
vt 0.5000 0.0938
vt 0.4688 0.0938
vt 0.0312 0.4688
vt 0.0625 0.4688
vt 0.0625 0.5000
vt 0.0312 0.5000
vt 0.0312 0.4688
vt 0.3438 0.4688
vt 0.3438 0.5000
vt 0.0312 0.5000
vt 0.0312 0.4688
vt 0.0625 0.4688
vt 0.0625 0.5000
vt 0.2500 0.4688
vt 0.2500 0.5000
vt 0.0000 0.0625
vt 0.0312 0.0625
vt 0.0312 0.3750
vt 0.0000 0.3750
vt 0.9688 0.0000
vt 1.0000 0.0000
vt 0.9688 0.0312
vt 0.0312 0.4688
vt 0.3438 0.4688
vt 0.3438 0.5000
vt 0.0312 0.5000
vt 0.0312 0.4688
vt 0.0625 0.4688
vt 0.0625 0.5000
vt 0.3125 0.4688
vt 0.3438 0.4688
vt 0.3125 0.5000
vt 0.2188 0.4688
vt 0.2188 0.5000
vt 0.9688 0.0000
vt 1.0000 0.0000
vt 0.3125 0.4688
vt 0.3438 0.5000
vt 0.3125 0.5000
vt 0.0000 0.0625
vt 0.0312 0.0625
vt 0.0312 0.3750
vt 0.0000 0.3750
vt 0.3125 0.4688
vt 0.3438 0.5000
vt 0.3125 0.5000
vt 0.0000 0.0625
vt 0.0312 0.0625
vt 0.0312 0.3750
vt 0.0000 0.3750
vt 0.0625 0.4688
vt 0.0625 0.5000
vt 0.0312 0.5000
vt 0.0000 0.0625
vt 0.0312 0.0625
vt 0.0312 0.3750
vt 0.4688 0.0625
vt 0.5000 0.0625
vt 0.5000 0.3750
vt 0.4688 0.3750
vt 0.9688 0.0000
vt 1.0000 0.0000
vt 1.0000 0.0312
vt 0.9688 0.0312
vt 0.4688 0.3438
vt 0.5000 0.3438
vt 0.4688 0.3750
vt 0.9688 0.0000
vt 1.0000 0.0000
vt 1.0000 0.0312
vt 0.9688 0.0312
vt 0.0312 0.4688
vt 0.2500 0.4688
vt 0.2500 0.5000
vt 0.0312 0.5000
vt 0.0000 0.0625
vt 0.0312 0.0625
vt 0.0312 0.3750
vt 0.0000 0.3750
vt 0.4688 0.0625
vt 0.5000 0.0625
vt 0.4688 0.3750
vt 0.9688 0.0000
vt 1.0000 0.0000
vt 1.0000 0.0312
vt 0.9688 0.0312
vt 1.0000 0.0000
vt 1.0000 0.0312
vn 0.0000 0.0000 1.0000
vn 1.0000 0.0000 0.0000
vn -1.0000 0.0000 0.0000
vn 0.0000 1.0000 0.0000
vn 0.0000 0.0000 -1.0000
vn 0.0000 -1.0000 0.0000
usemtl m_0.001
s 1
f 120/21/7 114/22/7 113/23/7 119/24/7
f 42/25/8 44/26/8 43/27/8 41/28/8
f 56/29/7 50/30/7 49/31/7 55/32/7
f 54/33/9 56/34/9 55/35/9 53/36/9
f 55/37/10 49/38/10 51/39/10 53/36/10
f 60/40/11 62/41/11 61/42/11 59/43/11
f 110/44/12 108/45/12 106/46/12 112/47/12
f 18/48/8 20/49/8 19/50/8 17/51/8
f 14/52/9 16/53/9 15/54/9 13/55/9
f 76/56/11 78/57/11 77/58/11 75/59/11
f 40/60/7 34/61/7 33/62/7 39/63/7
f 31/64/10 25/65/10 27/66/10 29/67/10
f 126/68/12 124/69/12 122/70/12 128/71/12
f 46/72/12 44/26/12 42/73/12 48/74/12
f 39/75/10 33/76/10 35/77/10 37/78/10
f 78/79/9 80/80/9 79/81/9 77/82/9
f 20/83/11 22/84/11 21/85/11 19/86/11
f 119/87/10 113/88/10 115/89/10 117/90/10
f 127/91/10 121/92/10 123/93/10 125/94/10
f 54/33/12 52/95/12 50/96/12 56/97/12
f 118/98/12 116/99/12 114/100/12 120/101/12
f 22/102/9 24/103/9 23/104/9 21/105/9
f 106/106/8 108/45/8 107/107/8 105/108/8
f 63/109/10 57/110/10 59/111/10 61/112/10
f 66/113/8 68/114/8 67/115/8 65/116/8
f 32/117/7 26/118/7 25/119/7 31/120/7
f 62/121/9 64/122/9 63/123/9 61/124/9
f 102/125/9 104/126/9 103/127/9 101/128/9
f 64/129/7 58/130/7 57/131/7 63/132/7
f 116/133/11 118/134/11 117/135/11 115/136/11
f 46/72/9 48/137/9 47/138/9 45/139/9
f 70/140/12 68/141/12 66/142/12 72/143/12
f 14/52/12 12/144/12 10/145/12 16/146/12
f 12/147/11 14/148/11 13/149/11 11/150/11
f 26/151/8 28/152/8 27/66/8 25/153/8
f 62/154/12 60/155/12 58/156/12 64/157/12
f 87/158/10 81/159/10 83/160/10 85/161/10
f 10/162/8 12/163/8 11/164/8 9/165/8
f 72/166/7 66/167/7 65/168/7 71/169/7
f 58/170/8 60/155/8 59/111/8 57/171/8
f 38/172/12 36/173/12 34/174/12 40/175/12
f 103/176/10 97/177/10 99/178/10 101/128/10
f 48/179/7 42/180/7 41/181/7 47/182/7
f 30/183/12 28/184/12 26/185/12 32/186/12
f 84/187/11 86/188/11 85/189/11 83/190/11
f 102/125/12 100/191/12 98/192/12 104/193/12
f 50/194/8 52/195/8 51/196/8 49/197/8
f 95/198/10 89/199/10 91/200/10 93/201/10
f 82/202/8 84/203/8 83/160/8 81/204/8
f 86/205/12 84/203/12 82/206/12 88/207/12
f 80/208/7 74/209/7 73/210/7 79/211/7
f 36/212/11 38/213/11 37/214/11 35/215/11
f 86/205/9 88/216/9 87/217/9 85/161/9
f 88/218/7 82/219/7 81/220/7 87/221/7
f 112/222/7 106/223/7 105/224/7 111/225/7
f 71/226/10 65/227/10 67/115/10 69/228/10
f 128/229/7 122/230/7 121/231/7 127/232/7
f 28/233/11 30/234/11 29/235/11 27/236/11
f 126/237/9 128/238/9 127/239/9 125/240/9
f 24/241/7 18/242/7 17/243/7 23/244/7
f 78/79/12 76/245/12 74/246/12 80/247/12
f 15/248/10 9/249/10 11/250/10 13/55/10
f 90/251/8 92/252/8 91/253/8 89/254/8
f 22/255/12 20/49/12 18/256/12 24/257/12
f 94/258/12 92/259/12 90/260/12 96/261/12
f 100/262/11 102/263/11 101/264/11 99/265/11
f 30/266/9 32/267/9 31/268/9 29/67/9
f 118/98/9 120/269/9 119/270/9 117/90/9
f 96/271/7 90/272/7 89/273/7 95/274/7
f 111/275/10 105/276/10 107/107/10 109/277/10
f 68/278/11 70/279/11 69/280/11 67/281/11
f 70/282/9 72/283/9 71/284/9 69/228/9
f 114/285/8 116/286/8 115/89/8 113/287/8
f 98/288/8 100/191/8 99/178/8 97/289/8
f 47/290/10 41/291/10 43/27/10 45/139/10
f 34/292/8 36/173/8 35/293/8 33/294/8
f 92/295/11 94/296/11 93/297/11 91/298/11
f 74/299/8 76/245/8 75/300/8 73/301/8
f 52/302/11 54/303/11 53/304/11 51/305/11
f 38/172/9 40/306/9 39/307/9 37/308/9
f 94/309/9 96/310/9 95/311/9 93/201/9
f 124/312/11 126/313/11 125/314/11 123/315/11
f 79/316/10 73/317/10 75/318/10 77/319/10
f 23/320/10 17/321/10 19/50/10 21/322/10
f 44/323/11 46/324/11 45/325/11 43/326/11
f 104/327/7 98/328/7 97/329/7 103/330/7
f 16/331/7 10/332/7 9/333/7 15/334/7
f 122/335/8 124/336/8 123/93/8 121/337/8
f 108/338/11 110/339/11 109/340/11 107/341/11
f 110/44/9 112/342/9 111/343/9 109/277/9
o &RunningLight_faebc6_fffff_000
v 0.023438 -0.101562 0.031312
v 0.023438 -0.273438 0.031312
v -0.148438 -0.101562 0.031312
v -0.148438 -0.273438 0.031312
vt 0.9688 0.0000
vt 1.0000 0.0000
vt 1.0000 0.0312
vt 0.9688 0.0312
vn 0.0000 -0.0000 1.0000
usemtl m_0.001
s 1
f 132/344/13 130/345/13 129/346/13 131/347/13
o &RunningLight_faebc5_fffff_000
v 0.232422 0.123047 0.029297
v 0.232422 -0.029297 0.029297
v 0.232422 0.123047 0.015625
v 0.232422 -0.029297 0.015625
v 0.017578 0.123047 0.015625
v 0.017578 -0.029297 0.015625
v 0.017578 0.123047 0.029297
v 0.017578 -0.029297 0.029297
vt 0.5000 0.6562
vt 0.5312 0.6562
vt 0.5312 0.9062
vt 0.5000 0.9062
vt 0.5000 0.6562
vt 0.8750 0.6562
vt 0.8750 0.9062
vt 0.5000 0.9062
vt 0.5000 0.6562
vt 0.8750 0.6562
vt 0.8750 0.9062
vt 0.5000 0.9062
vt 0.5000 0.8750
vt 0.8750 0.8750
vt 0.8750 0.9062
vt 0.8438 0.6562
vt 0.8750 0.6562
vt 0.8438 0.9062
vt 0.8750 0.6875
vt 0.5000 0.6875
vn -1.0000 0.0000 0.0000
vn 0.0000 -0.0000 1.0000
vn 0.0000 0.0000 -1.0000
vn 0.0000 1.0000 0.0000
vn 1.0000 0.0000 0.0000
vn 0.0000 -1.0000 0.0000
usemtl m_0
s 1
f 138/348/14 140/349/14 139/350/14 137/351/14
f 140/352/15 134/353/15 133/354/15 139/355/15
f 136/356/16 138/357/16 137/358/16 135/359/16
f 139/360/17 133/361/17 135/362/17 137/351/17
f 134/363/18 136/364/18 135/362/18 133/365/18
f 138/348/19 136/364/19 134/366/19 140/367/19
o &RunningLight_faebc2_fffff_100
v 0.032500 0.204375 0.031313
v 0.032500 -0.110625 0.031312
v -0.282500 0.204375 0.031313
v -0.282500 -0.110625 0.031312
vt 0.9688 0.0000
vt 1.0000 0.0000
vt 1.0000 0.0312
vt 0.9688 0.0312
vn 0.0000 -0.0000 1.0000
usemtl m_0
s 1
f 144/368/20 142/369/20 141/370/20 143/371/20
o foglightbulb
v 0.013604 -0.110771 0.029150
v 0.013604 -0.262354 0.029150
v 0.013604 -0.110771 0.015547
v 0.013604 -0.262354 0.015547
v -0.137979 -0.110771 0.015547
v -0.137979 -0.262354 0.015547
v -0.137979 -0.110771 0.029150
v -0.137979 -0.262354 0.029150
vt 0.5000 0.6562
vt 0.5312 0.6562
vt 0.5312 0.9062
vt 0.5000 0.9062
vt 0.5000 0.6562
vt 0.7500 0.6562
vt 0.7500 0.9062
vt 0.5000 0.9062
vt 0.5000 0.6562
vt 0.8750 0.6562
vt 0.8750 0.9062
vt 0.5000 0.9062
vt 0.5000 0.8750
vt 0.7500 0.8750
vt 0.7500 0.9062
vt 0.7188 0.6562
vt 0.7500 0.6562
vt 0.7188 0.9062
vt 0.7500 0.6875
vt 0.5000 0.6875
vn -1.0000 0.0000 0.0000
vn 0.0000 -0.0000 1.0000
vn 0.0000 0.0000 -1.0000
vn 0.0000 1.0000 0.0000
vn 1.0000 0.0000 0.0000
vn 0.0000 -1.0000 0.0000
usemtl m_0
s 1
f 150/372/21 152/373/21 151/374/21 149/375/21
f 152/376/22 146/377/22 145/378/22 151/379/22
f 148/380/23 150/381/23 149/382/23 147/383/23
f 151/384/24 145/385/24 147/386/24 149/375/24
f 146/387/25 148/388/25 147/386/25 145/389/25
f 150/372/26 148/388/26 146/390/26 152/391/26
o &RunningLight_faebc4_fffff_000
v -0.017578 0.123047 0.029297
v -0.017578 -0.029297 0.029297
v -0.017578 0.123047 0.015625
v -0.017578 -0.029297 0.015625
v -0.232422 0.123047 0.015625
v -0.232422 -0.029297 0.015625
v -0.232422 0.123047 0.029297
v -0.232422 -0.029297 0.029297
vt 0.5000 0.6562
vt 0.5312 0.6562
vt 0.5312 0.9062
vt 0.5000 0.9062
vt 0.5000 0.6562
vt 0.8750 0.6562
vt 0.8750 0.9062
vt 0.5000 0.9062
vt 0.5000 0.6562
vt 0.8750 0.6562
vt 0.8750 0.9062
vt 0.5000 0.9062
vt 0.5000 0.8750
vt 0.8750 0.8750
vt 0.8750 0.9062
vt 0.8438 0.6562
vt 0.8750 0.6562
vt 0.8438 0.9062
vt 0.8750 0.6875
vt 0.5000 0.6875
vn -1.0000 0.0000 0.0000
vn 0.0000 -0.0000 1.0000
vn 0.0000 0.0000 -1.0000
vn 0.0000 1.0000 0.0000
vn 1.0000 0.0000 0.0000
vn 0.0000 -1.0000 0.0000
usemtl m_0
s 1
f 158/392/27 160/393/27 159/394/27 157/395/27
f 160/396/28 154/397/28 153/398/28 159/399/28
f 156/400/29 158/401/29 157/402/29 155/403/29
f 159/404/30 153/405/30 155/406/30 157/395/30
f 154/407/31 156/408/31 155/406/31 153/409/31
f 158/392/32 156/408/32 154/410/32 160/411/32
o &RunningLight_faebc3_fffff_100
v 0.237500 0.159375 0.031313
v 0.237500 -0.065625 0.031312
v 0.012500 0.159375 0.031313
v 0.012500 -0.065625 0.031312
vt 0.9688 0.0000
vt 1.0000 0.0000
vt 1.0000 0.0312
vt 0.9688 0.0312
vn 0.0000 -0.0000 1.0000
usemtl m_0
s 1
f 164/412/33 162/413/33 161/414/33 163/415/33
o cube
v 0.250000 0.140625 0.015625
v 0.250000 -0.046875 0.015625
v 0.250000 0.140625 0.000000
v 0.250000 -0.046875 -0.000000
v 0.000000 0.140625 0.000000
v 0.000000 -0.046875 -0.000000
v 0.000000 0.140625 0.015625
v 0.000000 -0.046875 0.015625
v 0.000000 0.140625 0.015625
v 0.000000 -0.046875 0.015625
v 0.000000 0.140625 0.000000
v 0.000000 -0.046875 -0.000000
v -0.250000 0.140625 0.000000
v -0.250000 -0.046875 -0.000000
v -0.250000 0.140625 0.015625
v -0.250000 -0.046875 0.015625
v 0.031250 -0.093750 0.015625
v 0.031250 -0.281250 0.015625
v 0.031250 -0.093750 -0.000000
v 0.031250 -0.281250 -0.000000
v -0.156250 -0.093750 -0.000000
v -0.156250 -0.281250 -0.000000
v -0.156250 -0.093750 0.015625
v -0.156250 -0.281250 0.015625
vt 0.1562 0.6875
vt 0.3438 0.6875
vt 0.3438 0.8125
vt 0.1562 0.8125
vt 0.3125 0.6875
vt 0.3438 0.6875
vt 0.3438 0.8125
vt 0.3125 0.8125
vt 0.1562 0.7812
vt 0.3438 0.7812
vt 0.1562 0.8125
vt 0.3125 0.6875
vt 0.3438 0.6875
vt 0.3438 0.8125
vt 0.3125 0.8125
vt 0.1562 0.6875
vt 0.1875 0.6875
vt 0.1875 0.8125
vt 0.1562 0.8125
vt 0.1562 0.6875
vt 0.1875 0.6875
vt 0.1875 0.8125
vt 0.1562 0.8125
vt 0.1562 0.6875
vt 0.1875 0.6875
vt 0.1875 0.8125
vt 0.3125 0.6875
vt 0.3125 0.7188
vt 0.1562 0.7188
vt 0.1562 0.6875
vt 0.3438 0.6875
vt 0.3438 0.8125
vt 0.1562 0.8125
vt 0.3438 0.7188
vt 0.1562 0.7188
vt 0.1562 0.7812
vt 0.3125 0.7812
vt 0.3125 0.8125
vt 0.3438 0.7188
vt 0.1562 0.7188
vt 0.1562 0.6875
vt 0.3125 0.6875
vt 0.3125 0.8125
vt 0.1562 0.8125
vt 0.1562 0.7812
vt 0.3438 0.7812
vt 0.1562 0.6875
vt 0.3125 0.6875
vt 0.3125 0.8125
vt 0.1562 0.8125
vt 0.2812 0.6875
vt 0.2812 0.8125
vn 0.0000 -0.0000 1.0000
vn 1.0000 0.0000 0.0000
vn 0.0000 1.0000 0.0000
vn -1.0000 0.0000 0.0000
vn 0.0000 -1.0000 0.0000
vn 0.0000 0.0000 -1.0000
usemtl m_0
s 1
f 172/416/34 166/417/34 165/418/34 171/419/34
f 174/420/35 176/421/35 175/422/35 173/423/35
f 179/424/36 173/425/36 175/422/36 177/426/36
f 166/427/35 168/428/35 167/429/35 165/430/35
f 170/431/37 172/432/37 171/433/37 169/434/37
f 186/435/37 188/436/37 187/437/37 185/438/37
f 178/439/37 180/440/37 179/441/37 177/426/37
f 186/435/38 184/442/38 182/443/38 188/444/38
f 176/421/39 178/439/39 177/426/39 175/422/39
f 180/445/34 174/446/34 173/447/34 179/448/34
f 170/431/38 168/428/38 166/449/38 172/450/38
f 187/451/36 181/452/36 183/453/36 185/438/36
f 178/439/38 176/421/38 174/454/38 180/455/38
f 188/456/34 182/457/34 181/458/34 187/459/34
f 171/460/36 165/461/36 167/429/36 169/434/36
f 184/462/39 186/463/39 185/464/39 183/465/39
f 168/428/39 170/431/39 169/434/39 167/429/39
f 182/466/35 184/442/35 183/453/35 181/467/35
o &HeadLight_faebc2_fffff_000
v 0.130938 0.302813 0.164125
v 0.130938 -0.209063 0.164125
v -0.380938 0.302813 0.164125
v -0.380938 -0.209063 0.164125
vt 0.9688 0.0000
vt 1.0000 0.0000
vt 1.0000 0.0312
vt 0.9688 0.0312
vn 0.0000 -0.0000 1.0000
usemtl m_0
s 1
f 192/468/40 190/469/40 189/470/40 191/471/40
o &HeadLight_faebc3_fffff_000
v 0.217813 0.139687 0.164125
v 0.217813 -0.045938 0.164125
v 0.032187 0.139687 0.164125
v 0.032187 -0.045938 0.164125
vt 0.9688 0.0000
vt 1.0000 0.0000
vt 1.0000 0.0312
vt 0.9688 0.0312
vn 0.0000 0.0000 1.0000
usemtl m_0
s 1
f 196/472/41 194/473/41 193/474/41 195/475/41
