# Blender v2.78 (sub 0) OBJ File: ''
# www.blender.org
mtllib v1prop.mtl
o cube
v 0.023438 0.023438 0.015625
v 0.023438 -0.023438 0.015625
v 0.023438 0.023438 -0.046875
v 0.023438 -0.023437 -0.046875
v -0.023438 0.023438 -0.046875
v -0.023438 -0.023437 -0.046875
v -0.023438 0.023438 0.015625
v -0.023438 -0.023438 0.015625
v 0.086501 -0.057130 -0.005500
v 0.057153 -0.086478 0.005621
v 0.086490 -0.057141 -0.005561
v 0.057141 -0.086490 0.005561
v 0.020198 0.009150 -0.005561
v -0.009150 -0.020198 0.005561
v 0.020210 0.009161 -0.005500
v -0.009138 -0.020187 0.005621
v 0.101562 0.020768 -0.005500
v 0.101562 -0.020736 0.005621
v 0.101562 0.020752 -0.005561
v 0.101562 -0.020752 0.005561
v 0.007812 0.020752 -0.005561
v 0.007812 -0.020752 0.005561
v 0.007812 0.020768 -0.005500
v 0.007812 -0.020736 0.005621
v 0.020768 -0.101562 -0.005500
v -0.020736 -0.101562 0.005621
v 0.020752 -0.101562 -0.005561
v -0.020752 -0.101562 0.005561
v 0.020752 -0.007812 -0.005561
v -0.020752 -0.007812 0.005561
v 0.020768 -0.007812 -0.005500
v -0.020736 -0.007812 0.005621
v -0.057130 -0.086501 -0.005500
v -0.086478 -0.057153 0.005621
v -0.057141 -0.086490 -0.005561
v -0.086490 -0.057141 0.005561
v 0.009150 -0.020198 -0.005561
v -0.020198 0.009150 0.005561
v 0.009161 -0.020210 -0.005500
v -0.020187 0.009138 0.005621
v -0.101562 -0.020768 -0.005500
v -0.101562 0.020736 0.005621
v -0.101562 -0.020752 -0.005561
v -0.101562 0.020752 0.005561
v -0.007812 -0.020752 -0.005561
v -0.007812 0.020752 0.005561
v -0.007812 -0.020768 -0.005500
v -0.007812 0.020736 0.005621
v 0.057130 0.086501 -0.005500
v 0.086478 0.057153 0.005621
v 0.057141 0.086490 -0.005561
v 0.086490 0.057141 0.005561
v -0.009150 0.020198 -0.005561
v 0.020198 -0.009150 0.005561
v -0.009161 0.020210 -0.005500
v 0.020187 -0.009138 0.005621
v -0.020768 0.101562 -0.005500
v 0.020736 0.101562 0.005621
v -0.020752 0.101562 -0.005561
v 0.020752 0.101562 0.005561
v -0.020752 0.007812 -0.005561
v 0.020752 0.007812 0.005561
v -0.020768 0.007812 -0.005500
v 0.020736 0.007812 0.005621
v -0.086501 0.057130 -0.005500
v -0.057153 0.086478 0.005621
v -0.086490 0.057141 -0.005561
v -0.057141 0.086490 0.005561
v -0.020198 -0.009150 -0.005561
v 0.009150 0.020198 0.005561
v -0.020210 -0.009161 -0.005500
v 0.009138 0.020187 0.005621
vt 0.0000 0.0000
vt 0.0625 0.0000
vt 0.0625 0.0625
vt 0.0000 0.0625
vt 0.0000 0.0000
vt 0.0625 0.0000
vt 0.0625 0.0625
vt 0.0000 0.0625
vt 0.0625 0.0000
vt 0.1250 0.0000
vt 0.1250 0.0625
vt 0.0625 0.0625
vt 0.0625 0.0000
vt 0.1250 0.0000
vt 0.1250 0.0625
vt 0.0625 0.0625
vt 0.0000 0.0000
vt 0.0625 0.0000
vt 0.0625 0.0625
vt 0.0000 0.0625
vt 0.0000 0.0000
vt 0.0625 0.0000
vt 0.0625 0.0625
vt 0.0000 0.0625
vt 0.0625 0.0000
vt 0.0625 0.0625
vt 0.0000 0.0625
vt 0.0000 0.0000
vt 0.0625 0.0000
vt 0.0625 0.0625
vt 0.0000 0.0625
vt 0.0000 0.0000
vt 0.0625 0.0000
vt 0.0625 0.0625
vt 0.0000 0.0625
vt 0.0000 0.0000
vt 0.0625 0.0000
vt 0.0625 0.0625
vt 0.0000 0.0625
vt 0.0000 0.0000
vt 0.0625 0.0000
vt 0.0625 0.0625
vt 0.0000 0.0625
vt 0.0000 0.0000
vt 0.0625 0.0000
vt 0.0625 0.0625
vt 0.0000 0.0625
vt 0.0000 0.9375
vt 0.0625 0.9375
vt 0.0625 1.0000
vt 0.0000 1.0000
vt 0.0000 0.0000
vt 0.0625 0.0000
vt 0.0625 0.0625
vt 0.0000 0.0625
vt 0.0625 0.0000
vt 0.1250 0.0000
vt 0.1250 0.0625
vt 0.0625 0.0625
vt 0.0000 0.0000
vt 0.0625 0.0000
vt 0.0625 0.0625
vt 0.0000 0.0625
vt 0.0625 0.0000
vt 0.0625 0.0625
vt 0.0000 0.0000
vt 0.0625 0.0000
vt 0.0625 0.0625
vt 0.0000 0.0625
vt 0.0000 0.0000
vt 0.0625 0.0000
vt 0.0625 0.0625
vt 0.0000 0.0625
vt 0.0000 0.0000
vt 0.0625 0.0000
vt 0.0625 0.0625
vt 0.0000 0.0625
vt 0.0000 0.0000
vt 0.0625 0.0000
vt 0.0625 0.0625
vt 0.0625 0.0000
vt 0.0625 0.0625
vt 0.0000 0.0625
vt 0.0000 0.0000
vt 0.0625 0.0000
vt 0.0625 0.0625
vt 0.0000 0.0625
vt 0.0000 0.0000
vt 0.0625 0.0000
vt 0.0625 0.0625
vt 0.0000 0.9375
vt 0.0625 0.9375
vt 0.0625 1.0000
vt 0.0000 1.0000
vt 0.0625 0.0000
vt 0.0625 0.0625
vt 0.0000 0.9375
vt 0.0625 0.9375
vt 0.0625 1.0000
vt 0.0000 1.0000
vt 0.0000 0.0000
vt 0.0625 0.0000
vt 0.0625 0.0625
vt 0.0000 0.0000
vt 0.0625 0.0000
vt 0.0625 0.0625
vt 0.0000 0.0625
vt 0.0625 0.0000
vt 0.0625 0.0625
vt 0.0000 0.0625
vt 0.0000 0.9375
vt 0.0625 0.9375
vt 0.0625 1.0000
vt 0.0000 1.0000
vt 0.0000 0.0000
vt 0.0625 0.0000
vt 0.0625 0.0625
vt 0.0000 0.0625
vt 0.0000 0.0000
vt 0.0625 0.0000
vt 0.0625 0.0625
vt 0.0000 0.0625
vt 0.0000 0.0000
vt 0.0625 0.0000
vt 0.0625 0.0625
vt 0.0000 0.0000
vt 0.0625 0.0000
vt 0.0625 0.0625
vt 0.0000 0.0625
vt 0.0000 0.0000
vt 0.0625 0.0000
vt 0.0625 0.0625
vt 0.0000 0.0000
vt 0.0625 0.0000
vt 0.0625 0.0625
vt 0.0000 0.0625
vt 0.0000 0.0000
vt 0.0625 0.0000
vt 0.0625 0.0625
vt 0.0625 0.0000
vt 0.1250 0.0000
vt 0.1250 0.0625
vt 0.0625 0.0625
vt 0.1250 0.0000
vt 0.1250 0.0625
vt 0.0625 0.0000
vt 0.0625 0.0625
vt 0.0000 0.0625
vt 0.0000 0.0000
vt 0.0625 0.0000
vt 0.0625 0.0625
vt 0.0000 0.0625
vt 0.0000 0.0000
vt 0.0625 0.0000
vt 0.0625 0.0625
vt 0.0000 0.0625
vt 0.0625 0.0000
vt 0.0625 0.0625
vt 0.0000 0.0625
vt 0.0000 0.0000
vt 0.0625 0.0000
vt 0.0625 0.0625
vt 0.0000 0.0625
vt 0.0000 0.0000
vt 0.0625 0.0000
vt 0.0625 0.0625
vt 0.0000 0.0625
vt 0.0000 0.0000
vt 0.0625 0.0000
vt 0.0625 0.0625
vt 0.0000 0.0625
vt 0.0000 0.9375
vt 0.0625 0.9375
vt 0.0625 1.0000
vt 0.0000 1.0000
vt 0.0000 0.9375
vt 0.0625 0.9375
vt 0.0625 1.0000
vt 0.0000 1.0000
vt 0.0625 0.0000
vt 0.0625 0.0625
vt 0.0000 0.0625
vt 0.0625 0.0000
vt 0.0625 0.0625
vt 0.0000 0.9375
vt 0.0625 0.9375
vt 0.0625 1.0000
vt 0.0000 1.0000
vt 0.0000 0.9375
vt 0.0625 0.9375
vt 0.0625 1.0000
vt 0.0000 1.0000
vt 0.0000 0.0000
vt 0.0625 0.0000
vt 0.0625 0.0625
vt 0.0000 0.0625
vn 0.0000 -0.9659 -0.2588
vn 0.6830 -0.6830 0.2588
vn 0.0000 0.0000 -1.0000
vn 0.0000 -0.0000 1.0000
vn -0.7071 0.7071 -0.0000
vn 0.1830 -0.1830 0.9659
vn -0.6830 -0.6830 0.2588
vn 0.0000 0.9659 0.2588
vn -0.6830 -0.6830 -0.2588
vn 0.1830 0.1830 0.9659
vn -0.6830 0.6830 -0.2588
vn -0.9659 -0.0000 0.2588
vn -1.0000 0.0000 0.0000
vn -0.2588 -0.0000 0.9659
vn 0.0000 1.0000 0.0000
vn -0.0000 -1.0000 0.0000
vn -0.7071 -0.7071 -0.0000
vn 0.2588 0.0000 -0.9659
vn 0.7071 0.7071 -0.0000
vn 0.0000 0.9659 -0.2588
vn 0.0000 0.2588 0.9659
vn 0.6830 -0.6830 -0.2588
vn 0.7071 -0.7071 0.0000
vn 1.0000 0.0000 0.0000
vn 0.6830 0.6830 -0.2588
vn -0.1830 -0.1830 0.9659
vn 0.9659 -0.0000 0.2588
vn -0.1830 0.1830 0.9659
vn 0.2588 -0.0000 0.9659
vn 0.0000 -0.2588 -0.9659
vn -0.9659 0.0000 -0.2588
vn 0.0000 -0.2588 0.9659
vn 0.9659 0.0000 -0.2588
vn 0.0000 -0.9659 0.2588
vn -0.1830 0.1830 -0.9659
vn -0.1830 -0.1830 -0.9659
vn -0.6830 0.6830 0.2588
vn 0.1830 0.1830 -0.9659
vn 0.1830 -0.1830 -0.9659
vn -0.2588 0.0000 -0.9659
vn 0.0000 -1.0000 -0.0001
vn 0.0000 -1.0000 0.0002
vn 0.0000 -1.0000 0.0004
vn 0.6830 0.6830 0.2588
vn 0.0000 1.0000 -0.0001
vn -0.0000 1.0000 0.0002
vn -0.0000 1.0000 0.0004
vn 0.0000 0.2588 -0.9659
usemtl m_0
s 1
f 47/1/1 41/2/1 43/3/1 45/4/1
f 54/5/2 52/6/2 50/7/2 56/8/2
f 4/9/3 6/10/3 5/11/3 3/12/3
f 8/13/4 2/14/4 1/15/4 7/16/4
f 14/17/5 16/18/5 15/19/5 13/20/5
f 40/21/6 34/22/6 33/23/6 39/24/6
f 14/17/7 12/25/7 10/26/7 16/27/7
f 46/28/8 44/29/8 42/30/8 48/31/8
f 71/32/9 65/33/9 67/34/9 69/35/9
f 16/36/10 10/37/10 9/38/10 15/39/10
f 55/40/11 49/41/11 51/42/11 53/43/11
f 30/44/12 28/45/12 26/46/12 32/47/12
f 42/48/13 44/49/13 43/50/13 41/51/13
f 64/52/14 58/53/14 57/54/14 63/55/14
f 7/56/15 1/57/15 3/58/15 5/59/15
f 62/60/16 64/61/16 63/62/16 61/63/16
f 54/5/17 56/64/17 55/65/17 53/43/17
f 60/66/18 62/67/18 61/68/18 59/69/18
f 22/70/13 24/71/13 23/72/13 21/73/13
f 38/74/19 40/75/19 39/76/19 37/77/19
f 23/78/20 17/79/20 19/80/20 21/73/20
f 30/44/15 32/81/15 31/82/15 29/83/15
f 24/84/21 18/85/21 17/86/21 23/87/21
f 39/88/22 33/89/22 35/90/22 37/77/22
f 10/91/23 12/92/23 11/93/23 9/94/23
f 46/28/24 48/95/24 47/96/24 45/4/24
f 66/97/5 68/98/5 67/99/5 65/100/5
f 15/101/25 9/102/25 11/103/25 13/20/25
f 72/104/26 66/105/26 65/106/26 71/107/26
f 62/60/27 60/108/27 58/109/27 64/110/27
f 18/111/24 20/112/24 19/113/24 17/114/24
f 56/115/28 50/116/28 49/117/28 55/118/28
f 32/119/29 26/120/29 25/121/29 31/122/29
f 70/123/23 72/124/23 71/125/23 69/35/23
f 20/126/30 22/127/30 21/128/30 19/129/30
f 63/130/31 57/131/31 59/132/31 61/63/31
f 48/133/32 42/134/32 41/135/32 47/136/32
f 31/137/33 25/138/33 27/139/33 29/83/33
f 6/140/16 4/141/16 2/142/16 8/143/16
f 6/140/13 8/144/13 7/145/13 5/59/13
f 22/70/34 20/146/34 18/147/34 24/148/34
f 36/149/35 38/150/35 37/151/35 35/152/35
f 12/153/36 14/154/36 13/155/36 11/156/36
f 38/74/37 36/157/37 34/158/37 40/159/37
f 68/160/38 70/161/38 69/162/38 67/163/38
f 52/164/39 54/165/39 53/166/39 51/167/39
f 28/168/40 30/169/40 29/170/40 27/171/40
f 34/172/17 36/173/17 35/174/17 33/175/17
f 26/176/41 28/177/41 27/178/42 25/179/43
f 70/123/44 68/180/44 66/181/44 72/182/44
f 2/183/24 4/141/24 3/58/24 1/184/24
f 50/185/19 52/186/19 51/187/19 49/188/19
f 58/189/45 60/190/45 59/191/46 57/192/47
f 44/193/48 46/194/48 45/195/48 43/196/48
