# Blender v2.78 (sub 0) OBJ File: 'f1dragster.blend'
# www.blender.org
mtllib f1frontwong.mtl
o wingfront
v 0.937500 0.088652 -0.161251
v 0.937500 -0.075411 -0.161251
v 0.937500 0.088652 0.026249
v 0.937500 -0.075411 0.026249
v 0.953125 0.088652 0.026249
v 0.953125 -0.075411 0.026249
v 0.953125 0.088652 -0.161251
v 0.953125 -0.075411 -0.161251
v -0.953125 0.088652 -0.161251
v -0.953125 -0.075411 -0.161251
v -0.953125 0.088652 0.026249
v -0.953125 -0.075411 0.026249
v -0.937500 0.088652 0.026249
v -0.937500 -0.075411 0.026249
v -0.937500 0.088652 -0.161251
v -0.937500 -0.075411 -0.161251
v -0.953125 0.088652 -0.208126
v -0.953125 -0.075411 -0.208126
v -0.953125 0.088652 -0.161251
v -0.953125 -0.075411 -0.161251
v 0.953125 0.088652 -0.161251
v 0.953125 -0.075411 -0.161251
v 0.953125 0.088652 -0.208126
v 0.953125 -0.075411 -0.208126
v 0.937500 0.088652 0.026249
v 0.937500 0.004751 0.007648
v 0.937500 0.031160 0.285578
v 0.937500 -0.052740 0.266977
v 0.953125 0.031160 0.285578
v 0.953125 -0.052740 0.266977
v 0.953125 0.088652 0.026249
v 0.953125 0.004751 0.007648
v -0.953125 0.088652 0.026249
v -0.953125 0.004751 0.007648
v -0.953125 0.031160 0.285578
v -0.953125 -0.052740 0.266977
v -0.937500 0.031160 0.285578
v -0.937500 -0.052740 0.266977
v -0.937500 0.088652 0.026249
v -0.937500 0.004751 0.007648
v 0.937500 0.002417 0.019440
v 0.937500 -0.075411 0.026249
v 0.937500 0.024206 0.268488
v 0.937500 -0.053622 0.275298
v 0.953125 0.024206 0.268488
v 0.953125 -0.053622 0.275298
v 0.953125 0.002417 0.019440
v 0.953125 -0.075411 0.026249
v -0.953125 0.002417 0.019440
v -0.953125 -0.075411 0.026249
v -0.953125 0.024206 0.268488
v -0.953125 -0.053622 0.275298
v -0.937500 0.024206 0.268488
v -0.937500 -0.053622 0.275298
v -0.937500 0.002417 0.019440
v -0.937500 -0.075411 0.026249
v -0.937500 0.074695 -0.097826
v -0.937500 0.013145 -0.108679
v -0.937500 0.009577 0.271477
v -0.937500 -0.051973 0.260624
v 0.937500 0.009577 0.271477
v 0.937500 -0.051973 0.260624
v 0.937500 0.074695 -0.097826
v 0.937500 0.013145 -0.108679
v -0.937500 0.074695 -0.161251
v -0.937500 -0.003430 -0.161251
v -0.937500 0.074695 -0.114376
v -0.937500 -0.003430 -0.114376
v 0.937500 0.074695 -0.114376
v 0.937500 -0.003430 -0.114376
v 0.937500 0.074695 -0.161251
v 0.937500 -0.003430 -0.161251
v -0.937500 0.074695 -0.129076
v -0.937500 -0.003430 -0.129076
v -0.937500 0.074695 -0.097826
v -0.937500 -0.003430 -0.097826
v 0.937500 0.074695 -0.097826
v 0.937500 -0.003430 -0.097826
v 0.937500 0.074695 -0.129076
v 0.937500 -0.003430 -0.129076
v -0.937500 -0.005890 -0.116745
v -0.937500 -0.068331 -0.114019
v -0.937500 0.010467 0.257898
v -0.937500 -0.051973 0.260624
v 0.937500 0.010467 0.257898
v 0.937500 -0.051973 0.260624
v 0.937500 -0.005890 -0.116745
v 0.937500 -0.068331 -0.114019
v -0.937500 0.026152 -0.161251
v -0.937500 -0.075411 -0.161251
v -0.937500 0.026152 -0.114376
v -0.937500 -0.075411 -0.114376
v 0.937500 0.026152 -0.114376
v 0.937500 -0.075411 -0.114376
v 0.937500 0.026152 -0.161251
v 0.937500 -0.075411 -0.161251
v -0.937500 0.010527 -0.114376
v -0.937500 -0.051973 -0.114376
v -0.937500 0.010527 0.260624
v -0.937500 -0.051973 0.260624
v 0.937500 0.010527 0.260624
v 0.937500 -0.051973 0.260624
v 0.937500 0.010527 -0.114376
v 0.937500 -0.051973 -0.114376
v -0.937500 0.026152 -0.129076
v -0.937500 -0.051973 -0.129076
v -0.937500 0.026152 -0.082201
v -0.937500 -0.051973 -0.082201
v 0.937500 0.026152 -0.082201
v 0.937500 -0.051973 -0.082201
v 0.937500 0.026152 -0.129076
v 0.937500 -0.051973 -0.129076
vt 0.0098 0.0059
vt 0.0098 0.0020
vt 0.0137 0.0059
vt 0.0137 0.0020
vt 0.0098 0.0059
vt 0.0098 0.0020
vt 0.0137 0.0059
vt 0.0137 0.0020
vt 0.0098 0.0020
vt 0.0137 0.0020
vt 0.0098 0.0059
vt 0.0137 0.0059
vt 0.0098 0.0059
vt 0.0098 0.0020
vt 0.0137 0.0059
vt 0.0137 0.0020
vt 0.0098 0.0059
vt 0.0098 0.0020
vt 0.0137 0.0059
vt 0.0137 0.0020
vt 0.0098 0.0059
vt 0.0098 0.0020
vt 0.0137 0.0059
vt 0.0137 0.0020
vt 0.0098 0.0059
vt 0.0098 0.0020
vt 0.0137 0.0059
vt 0.0137 0.0020
vt 0.0098 0.0020
vt 0.0137 0.0020
vt 0.0098 0.0059
vt 0.0137 0.0059
vt 0.0098 0.0059
vt 0.0098 0.0020
vt 0.0137 0.0059
vt 0.0137 0.0020
vt 0.0098 0.0059
vt 0.0098 0.0020
vt 0.0137 0.0059
vt 0.0137 0.0020
vt 0.0098 0.0059
vt 0.0098 0.0020
vt 0.0137 0.0059
vt 0.0137 0.0020
vt 0.0098 0.0059
vt 0.0098 0.0020
vt 0.0137 0.0059
vt 0.0137 0.0020
vt 0.0098 0.0020
vt 0.0137 0.0020
vt 0.0098 0.0059
vt 0.0137 0.0059
vt 0.0098 0.0059
vt 0.0098 0.0020
vt 0.0137 0.0059
vt 0.0137 0.0020
vt 0.0098 0.0059
vt 0.0098 0.0020
vt 0.0137 0.0059
vt 0.0137 0.0020
vt 0.0098 0.0059
vt 0.0098 0.0020
vt 0.0137 0.0059
vt 0.0137 0.0020
vt 0.0098 0.0059
vt 0.0098 0.0020
vt 0.0137 0.0059
vt 0.0137 0.0020
vt 0.0098 0.0020
vt 0.0137 0.0020
vt 0.0098 0.0059
vt 0.0137 0.0059
vt 0.0098 0.0059
vt 0.0098 0.0020
vt 0.0137 0.0059
vt 0.0137 0.0020
vt 0.0098 0.0059
vt 0.0098 0.0020
vt 0.0137 0.0059
vt 0.0137 0.0020
vt 0.0098 0.0059
vt 0.0098 0.0020
vt 0.0137 0.0059
vt 0.0137 0.0020
vt 0.0098 0.0059
vt 0.0098 0.0020
vt 0.0137 0.0059
vt 0.0137 0.0020
vt 0.0098 0.0020
vt 0.0137 0.0020
vt 0.0098 0.0059
vt 0.0137 0.0059
vt 0.0098 0.0059
vt 0.0098 0.0020
vt 0.0137 0.0059
vt 0.0137 0.0020
vt 0.0098 0.0059
vt 0.0098 0.0020
vt 0.0137 0.0059
vt 0.0137 0.0020
vt 0.0098 0.0059
vt 0.0098 0.0020
vt 0.0137 0.0059
vt 0.0137 0.0020
vt 0.0098 0.0059
vt 0.0098 0.0020
vt 0.0137 0.0059
vt 0.0137 0.0020
vt 0.0098 0.0020
vt 0.0137 0.0020
vt 0.0098 0.0059
vt 0.0137 0.0059
vt 0.0098 0.0059
vt 0.0098 0.0020
vt 0.0137 0.0059
vt 0.0137 0.0020
vt 0.0098 0.0059
vt 0.0098 0.0020
vt 0.0137 0.0059
vt 0.0137 0.0020
vt 0.0098 0.0059
vt 0.0098 0.0020
vt 0.0137 0.0059
vt 0.0137 0.0020
vt 0.0098 0.0059
vt 0.0098 0.0020
vt 0.0137 0.0059
vt 0.0137 0.0020
vt 0.0098 0.0020
vt 0.0137 0.0020
vt 0.0098 0.0059
vt 0.0137 0.0059
vt 0.0098 0.0059
vt 0.0098 0.0020
vt 0.0137 0.0059
vt 0.0137 0.0020
vt 0.0098 0.0059
vt 0.0098 0.0020
vt 0.0137 0.0059
vt 0.0137 0.0020
vt 0.0020 0.0059
vt 0.0020 0.0020
vt 0.0059 0.0059
vt 0.0059 0.0020
vt 0.0020 0.0059
vt 0.0020 0.0020
vt 0.0059 0.0059
vt 0.0059 0.0020
vt 0.0020 0.0020
vt 0.0059 0.0020
vt 0.0020 0.0059
vt 0.0059 0.0059
vt 0.0020 0.0059
vt 0.0020 0.0020
vt 0.0059 0.0059
vt 0.0059 0.0020
vt 0.0020 0.0059
vt 0.0020 0.0020
vt 0.0059 0.0059
vt 0.0059 0.0020
vt 0.0020 0.0059
vt 0.0020 0.0020
vt 0.0059 0.0059
vt 0.0059 0.0020
vt 0.0020 0.0059
vt 0.0020 0.0020
vt 0.0059 0.0059
vt 0.0059 0.0020
vt 0.0020 0.0020
vt 0.0059 0.0020
vt 0.0020 0.0059
vt 0.0059 0.0059
vt 0.0020 0.0059
vt 0.0020 0.0020
vt 0.0059 0.0059
vt 0.0059 0.0020
vt 0.0020 0.0059
vt 0.0020 0.0020
vt 0.0059 0.0059
vt 0.0059 0.0020
vt 0.0020 0.0059
vt 0.0020 0.0020
vt 0.0059 0.0059
vt 0.0059 0.0020
vt 0.0020 0.0059
vt 0.0020 0.0020
vt 0.0059 0.0059
vt 0.0059 0.0020
vt 0.0020 0.0020
vt 0.0059 0.0020
vt 0.0020 0.0059
vt 0.0059 0.0059
vt 0.0020 0.0059
vt 0.0020 0.0020
vt 0.0059 0.0059
vt 0.0059 0.0020
vt 0.0020 0.0059
vt 0.0020 0.0020
vt 0.0059 0.0059
vt 0.0059 0.0020
vt 0.0020 0.0059
vt 0.0020 0.0020
vt 0.0059 0.0059
vt 0.0059 0.0020
vt 0.0020 0.0059
vt 0.0020 0.0020
vt 0.0059 0.0059
vt 0.0059 0.0020
vt 0.0020 0.0020
vt 0.0059 0.0020
vt 0.0020 0.0059
vt 0.0059 0.0059
vt 0.0020 0.0059
vt 0.0020 0.0020
vt 0.0059 0.0059
vt 0.0059 0.0020
vt 0.0020 0.0059
vt 0.0020 0.0020
vt 0.0059 0.0059
vt 0.0059 0.0020
vt 0.0020 0.0059
vt 0.0020 0.0020
vt 0.0059 0.0059
vt 0.0059 0.0020
vt 0.0020 0.0059
vt 0.0020 0.0020
vt 0.0059 0.0059
vt 0.0059 0.0020
vt 0.0020 0.0020
vt 0.0059 0.0020
vt 0.0020 0.0059
vt 0.0059 0.0059
vt 0.0020 0.0059
vt 0.0020 0.0020
vt 0.0059 0.0059
vt 0.0059 0.0020
vt 0.0020 0.0059
vt 0.0020 0.0020
vt 0.0059 0.0059
vt 0.0059 0.0020
vt 0.0020 0.0059
vt 0.0020 0.0020
vt 0.0059 0.0059
vt 0.0059 0.0020
vt 0.0020 0.0059
vt 0.0020 0.0020
vt 0.0059 0.0059
vt 0.0059 0.0020
vt 0.0020 0.0020
vt 0.0059 0.0020
vt 0.0020 0.0059
vt 0.0059 0.0059
vt 0.0020 0.0059
vt 0.0020 0.0020
vt 0.0059 0.0059
vt 0.0059 0.0020
vt 0.0020 0.0059
vt 0.0020 0.0020
vt 0.0059 0.0059
vt 0.0059 0.0020
vt 0.0020 0.0059
vt 0.0020 0.0020
vt 0.0059 0.0059
vt 0.0059 0.0020
vt 0.0020 0.0059
vt 0.0020 0.0020
vt 0.0059 0.0059
vt 0.0059 0.0020
vt 0.0020 0.0020
vt 0.0059 0.0020
vt 0.0020 0.0059
vt 0.0059 0.0059
vt 0.0020 0.0059
vt 0.0020 0.0020
vt 0.0059 0.0059
vt 0.0059 0.0020
vt 0.0020 0.0059
vt 0.0020 0.0020
vt 0.0059 0.0059
vt 0.0059 0.0020
vn -1.0000 0.0000 0.0000
vn 1.0000 0.0000 0.0000
vn 0.0000 1.0000 0.0000
vn 0.0000 -1.0000 -0.0000
vn 0.0000 0.0000 -1.0000
vn 0.0000 -0.0000 1.0000
vn 0.0000 0.9763 0.2164
vn 0.0000 -0.9763 -0.2164
vn 0.0000 0.2164 -0.9763
vn 0.0000 -0.2164 0.9763
vn 0.0000 0.9962 -0.0872
vn 0.0000 -0.9962 0.0872
vn 0.0000 -0.0872 -0.9962
vn 0.0000 0.0872 0.9962
vn 0.0000 0.9848 0.1736
vn 0.0000 -0.9848 -0.1736
vn 0.0000 0.1736 -0.9848
vn 0.0000 -0.1736 0.9848
vn 0.0000 0.9990 -0.0436
vn 0.0000 -0.9990 0.0436
vn 0.0000 -0.0436 -0.9990
vn 0.0000 0.0436 0.9990
usemtl m_0
s 1
f 1/1/1 2/2/1 3/3/1
f 2/2/1 4/4/1 3/3/1
f 5/5/2 6/6/2 7/7/2
f 6/6/2 8/8/2 7/7/2
f 5/5/3 7/9/3 3/3/3
f 7/9/3 1/10/3 3/3/3
f 8/11/4 6/6/4 2/12/4
f 6/6/4 4/4/4 2/12/4
f 7/13/5 8/14/5 1/15/5
f 8/14/5 2/16/5 1/15/5
f 3/17/6 4/18/6 5/19/6
f 4/18/6 6/20/6 5/19/6
f 9/21/1 10/22/1 11/23/1
f 10/22/1 12/24/1 11/23/1
f 13/25/2 14/26/2 15/27/2
f 14/26/2 16/28/2 15/27/2
f 13/25/3 15/29/3 11/23/3
f 15/29/3 9/30/3 11/23/3
f 16/31/4 14/26/4 10/32/4
f 14/26/4 12/24/4 10/32/4
f 15/33/5 16/34/5 9/35/5
f 16/34/5 10/36/5 9/35/5
f 11/37/6 12/38/6 13/39/6
f 12/38/6 14/40/6 13/39/6
f 17/41/1 18/42/1 19/43/1
f 18/42/1 20/44/1 19/43/1
f 21/45/2 22/46/2 23/47/2
f 22/46/2 24/48/2 23/47/2
f 21/45/3 23/49/3 19/43/3
f 23/49/3 17/50/3 19/43/3
f 24/51/4 22/46/4 18/52/4
f 22/46/4 20/44/4 18/52/4
f 23/53/5 24/54/5 17/55/5
f 24/54/5 18/56/5 17/55/5
f 19/57/6 20/58/6 21/59/6
f 20/58/6 22/60/6 21/59/6
f 25/61/1 26/62/1 27/63/1
f 26/62/1 28/64/1 27/63/1
f 29/65/2 30/66/2 31/67/2
f 30/66/2 32/68/2 31/67/2
f 29/65/7 31/69/7 27/63/7
f 31/69/7 25/70/7 27/63/7
f 32/71/8 30/66/8 26/72/8
f 30/66/8 28/64/8 26/72/8
f 31/73/9 32/74/9 25/75/9
f 32/74/9 26/76/9 25/75/9
f 27/77/10 28/78/10 29/79/10
f 28/78/10 30/80/10 29/79/10
f 33/81/1 34/82/1 35/83/1
f 34/82/1 36/84/1 35/83/1
f 37/85/2 38/86/2 39/87/2
f 38/86/2 40/88/2 39/87/2
f 37/85/7 39/89/7 35/83/7
f 39/89/7 33/90/7 35/83/7
f 40/91/8 38/86/8 34/92/8
f 38/86/8 36/84/8 34/92/8
f 39/93/9 40/94/9 33/95/9
f 40/94/9 34/96/9 33/95/9
f 35/97/10 36/98/10 37/99/10
f 36/98/10 38/100/10 37/99/10
f 41/101/1 42/102/1 43/103/1
f 42/102/1 44/104/1 43/103/1
f 45/105/2 46/106/2 47/107/2
f 46/106/2 48/108/2 47/107/2
f 45/105/11 47/109/11 43/103/11
f 47/109/11 41/110/11 43/103/11
f 48/111/12 46/106/12 42/112/12
f 46/106/12 44/104/12 42/112/12
f 47/113/13 48/114/13 41/115/13
f 48/114/13 42/116/13 41/115/13
f 43/117/14 44/118/14 45/119/14
f 44/118/14 46/120/14 45/119/14
f 49/121/1 50/122/1 51/123/1
f 50/122/1 52/124/1 51/123/1
f 53/125/2 54/126/2 55/127/2
f 54/126/2 56/128/2 55/127/2
f 53/125/11 55/129/11 51/123/11
f 55/129/11 49/130/11 51/123/11
f 56/131/12 54/126/12 50/132/12
f 54/126/12 52/124/12 50/132/12
f 55/133/13 56/134/13 49/135/13
f 56/134/13 50/136/13 49/135/13
f 51/137/14 52/138/14 53/139/14
f 52/138/14 54/140/14 53/139/14
f 57/141/1 58/142/1 59/143/1
f 58/142/1 60/144/1 59/143/1
f 61/145/2 62/146/2 63/147/2
f 62/146/2 64/148/2 63/147/2
f 61/145/15 63/149/15 59/143/15
f 63/149/15 57/150/15 59/143/15
f 64/151/16 62/146/16 58/152/16
f 62/146/16 60/144/16 58/152/16
f 63/153/17 64/154/17 57/155/17
f 64/154/17 58/156/17 57/155/17
f 59/157/18 60/158/18 61/159/18
f 60/158/18 62/160/18 61/159/18
f 65/161/1 66/162/1 67/163/1
f 66/162/1 68/164/1 67/163/1
f 69/165/2 70/166/2 71/167/2
f 70/166/2 72/168/2 71/167/2
f 69/165/3 71/169/3 67/163/3
f 71/169/3 65/170/3 67/163/3
f 72/171/4 70/166/4 66/172/4
f 70/166/4 68/164/4 66/172/4
f 71/173/5 72/174/5 65/175/5
f 72/174/5 66/176/5 65/175/5
f 67/177/6 68/178/6 69/179/6
f 68/178/6 70/180/6 69/179/6
f 73/181/1 74/182/1 75/183/1
f 74/182/1 76/184/1 75/183/1
f 77/185/2 78/186/2 79/187/2
f 78/186/2 80/188/2 79/187/2
f 77/185/3 79/189/3 75/183/3
f 79/189/3 73/190/3 75/183/3
f 80/191/4 78/186/4 74/192/4
f 78/186/4 76/184/4 74/192/4
f 79/193/5 80/194/5 73/195/5
f 80/194/5 74/196/5 73/195/5
f 75/197/6 76/198/6 77/199/6
f 76/198/6 78/200/6 77/199/6
f 81/201/1 82/202/1 83/203/1
f 82/202/1 84/204/1 83/203/1
f 85/205/2 86/206/2 87/207/2
f 86/206/2 88/208/2 87/207/2
f 85/205/19 87/209/19 83/203/19
f 87/209/19 81/210/19 83/203/19
f 88/211/20 86/206/20 82/212/20
f 86/206/20 84/204/20 82/212/20
f 87/213/21 88/214/21 81/215/21
f 88/214/21 82/216/21 81/215/21
f 83/217/22 84/218/22 85/219/22
f 84/218/22 86/220/22 85/219/22
f 89/221/1 90/222/1 91/223/1
f 90/222/1 92/224/1 91/223/1
f 93/225/2 94/226/2 95/227/2
f 94/226/2 96/228/2 95/227/2
f 93/225/3 95/229/3 91/223/3
f 95/229/3 89/230/3 91/223/3
f 96/231/4 94/226/4 90/232/4
f 94/226/4 92/224/4 90/232/4
f 95/233/5 96/234/5 89/235/5
f 96/234/5 90/236/5 89/235/5
f 91/237/6 92/238/6 93/239/6
f 92/238/6 94/240/6 93/239/6
f 97/241/1 98/242/1 99/243/1
f 98/242/1 100/244/1 99/243/1
f 101/245/2 102/246/2 103/247/2
f 102/246/2 104/248/2 103/247/2
f 101/245/3 103/249/3 99/243/3
f 103/249/3 97/250/3 99/243/3
f 104/251/4 102/246/4 98/252/4
f 102/246/4 100/244/4 98/252/4
f 103/253/5 104/254/5 97/255/5
f 104/254/5 98/256/5 97/255/5
f 99/257/6 100/258/6 101/259/6
f 100/258/6 102/260/6 101/259/6
f 105/261/1 106/262/1 107/263/1
f 106/262/1 108/264/1 107/263/1
f 109/265/2 110/266/2 111/267/2
f 110/266/2 112/268/2 111/267/2
f 109/265/3 111/269/3 107/263/3
f 111/269/3 105/270/3 107/263/3
f 112/271/4 110/266/4 106/272/4
f 110/266/4 108/264/4 106/272/4
f 111/273/5 112/274/5 105/275/5
f 112/274/5 106/276/5 105/275/5
f 107/277/6 108/278/6 109/279/6
f 108/278/6 110/280/6 109/279/6
