# Blender v2.78 (sub 0) OBJ File: ''
# www.blender.org
mtllib untitled.mtl
o cube
v 0.127547 0.064649 0.000095
v 0.127547 -0.062898 0.000095
v 0.127547 0.064649 -0.000033
v 0.127547 -0.062898 -0.000033
v -0.127547 0.064649 -0.000033
v -0.127547 -0.062898 -0.000033
v -0.127547 0.064649 0.000095
v -0.127547 -0.062898 0.000095
vt 0.0000 1.0000
vt 0.0000 0.5000
vt 0.0000 1.0000
vt 0.0000 0.5000
vt 0.0000 1.0000
vt 0.0000 0.5000
vt 0.0000 1.0000
vt 0.0000 0.5000
vt 1.0000 1.0000
vt 1.0000 1.0000
vt 1.0000 1.0000
vt 1.0000 1.0000
vt 0.0000 1.0000
vt 0.0000 1.0000
vt 1.0000 0.5000
vt 1.0000 0.0000
vt 0.0000 0.5000
vt 0.0000 0.0000
vt 0.0000 0.5000
vt 0.0000 0.0000
vt 1.0000 0.5000
vt 1.0000 0.0000
vn 1.0000 0.0000 0.0000
vn -1.0000 0.0000 0.0000
vn 0.0000 1.0000 0.0000
vn 0.0000 -1.0000 0.0000
vn 0.0000 -0.0000 1.0000
vn 0.0000 0.0000 -1.0000
usemtl 0
s 1
f 1/1/1 2/2/1 3/3/1
f 2/2/1 4/4/1 3/3/1
f 5/5/2 6/6/2 7/7/2
f 6/6/2 8/8/2 7/7/2
f 5/9/3 7/10/3 3/3/3
f 7/10/3 1/1/3 3/3/3
f 8/11/4 6/12/4 2/13/4
f 6/12/4 4/14/4 2/13/4
f 7/15/5 8/16/5 1/17/5
f 8/16/5 2/18/5 1/17/5
f 3/19/6 4/20/6 5/21/6
f 4/20/6 6/22/6 5/21/6
