# Blender v2.78 (sub 0) OBJ File: ''
# www.blender.org
mtllib rainbowroad.mtl
o cube
v 0.000000 -0.000000 0.999998
v 11.000000 -0.000000 1.000000
v 11.000000 0.062500 1.000000
v 0.000000 0.062500 0.999998
v 0.000000 0.000000 -0.000002
v 0.000000 0.062500 -0.000002
v 11.000000 0.000000 0.000000
v 11.000000 0.062500 0.000000
vt 1.0000 0.8750
vt 0.0000 0.8750
vt 0.0000 1.0000
vt 1.0000 1.0000
vt 0.9688 0.8750
vt 0.9688 1.0000
vt 0.0000 0.8750
vt 1.0000 0.8750
vt 1.0000 1.0000
vt 0.0000 1.0000
vt 0.0312 0.8750
vt 0.0312 1.0000
vt 0.0000 0.8750
vt 1.0000 0.8750
vt 1.0000 1.0000
vt 0.0000 1.0000
vn -0.0000 0.0000 1.0000
vn -1.0000 0.0000 0.0000
vn 0.0000 0.0000 -1.0000
vn 1.0000 0.0000 0.0000
vn -0.0000 1.0000 0.0000
vn -0.0000 -1.0000 -0.0000
usemtl m_0
s 1
f 1/1/1 2/2/1 3/3/1 4/4/1
f 5/5/2 1/1/2 4/4/2 6/6/2
f 7/7/3 5/8/3 6/9/3 8/10/3
f 2/2/4 7/11/4 8/12/4 3/3/4
f 8/13/5 6/14/5 4/4/5 3/3/5
f 2/2/6 1/1/6 5/15/6 7/16/6
