# Blender v2.78 (sub 0) OBJ File: ''
# www.blender.org
mtllib axle.mtl
o cube
v 0.196674 0.020317 0.088564
v 0.141113 -0.181105 0.056259
v 0.174214 0.056264 -0.096940
v 0.118653 -0.145159 -0.129245
v -0.149730 0.136827 -0.042108
v -0.205290 -0.064596 -0.074413
v -0.127270 0.100880 0.143396
v -0.182831 -0.100543 0.111091
v 0.197660 -0.042373 0.186499
v 0.173307 -0.110695 0.143010
v 0.196674 0.020317 0.088564
v 0.172321 -0.048005 0.045075
v -0.127270 0.100880 0.143396
v -0.151623 0.032558 0.099907
v -0.126284 0.038190 0.241331
v -0.150636 -0.030132 0.197842
v 0.182200 -0.078456 0.148180
v 0.165487 -0.159006 0.167793
v 0.157825 -0.100555 0.036647
v 0.141113 -0.181105 0.056259
v -0.166118 -0.019993 0.091478
v -0.182831 -0.100543 0.111091
v -0.141744 0.002107 0.203012
v -0.158456 -0.078443 0.222625
v 0.199287 -0.041935 0.195466
v 0.165950 -0.162788 0.176084
v 0.185561 -0.019967 0.082103
v 0.152225 -0.140821 0.062720
v -0.138382 0.060596 0.136935
v -0.171719 -0.060258 0.117552
v -0.124657 0.038628 0.250298
v -0.157993 -0.082226 0.230916
v -0.012090 -0.006064 0.335358
v -0.045426 -0.126918 0.315975
v 0.082049 -0.011586 0.207874
v 0.048712 -0.132439 0.188491
v -0.030518 0.033107 0.122815
v -0.063855 -0.087747 0.103432
v -0.124657 0.038628 0.250298
v -0.157993 -0.082226 0.230916
v 0.199287 -0.041935 0.195466
v 0.165950 -0.162788 0.176084
v 0.078679 0.005950 0.104331
v 0.045343 -0.114904 0.084949
v -0.009184 0.011103 0.223316
v -0.042520 -0.109750 0.203934
v 0.111424 -0.036782 0.314451
v 0.078087 -0.157635 0.295069
v 0.058773 -0.023688 0.323363
v 0.025436 -0.144541 0.303980
v 0.040056 0.006268 0.168776
v 0.006720 -0.114586 0.149394
v -0.030806 0.023891 0.180771
v -0.064143 -0.096962 0.161388
v -0.012090 -0.006064 0.335358
v -0.045426 -0.126918 0.315975
v 0.111424 -0.036782 0.314451
v 0.078087 -0.157635 0.295069
v 0.092708 -0.006826 0.159865
v 0.059371 -0.127680 0.140482
v 0.021845 0.010797 0.171859
v -0.011492 -0.110056 0.152476
v 0.040561 -0.019158 0.326446
v 0.007225 -0.140012 0.307063
v 0.174214 0.056264 -0.096940
v 0.157501 -0.024286 -0.077328
v 0.156487 0.040192 -0.178056
v 0.139775 -0.040358 -0.158443
v -0.167457 0.120755 -0.123224
v -0.184169 0.040205 -0.103611
v -0.149730 0.136827 -0.042108
v -0.166442 0.056277 -0.022496
v 0.166469 0.024215 -0.095610
v 0.141467 -0.066425 -0.110147
v 0.156487 0.040192 -0.178056
v 0.131485 -0.050449 -0.192593
v -0.167457 0.120755 -0.123224
v -0.192459 0.030114 -0.137761
v -0.157475 0.104778 -0.040778
v -0.182477 0.014138 -0.055315
v 0.152920 -0.024902 -0.103487
v 0.127918 -0.115542 -0.118024
v 0.142938 -0.008926 -0.185933
v 0.117936 -0.099566 -0.200470
v -0.181005 0.071637 -0.131101
v -0.206007 -0.019003 -0.145639
v -0.171023 0.055661 -0.048655
v -0.196025 -0.034980 -0.063192
v 0.143006 -0.076837 -0.085756
v 0.118653 -0.145159 -0.129245
v 0.142289 -0.031244 -0.156981
v 0.117936 -0.099566 -0.200470
v -0.181655 0.049319 -0.102149
v -0.206007 -0.019003 -0.145639
v -0.180938 0.003726 -0.030924
v -0.205290 -0.064596 -0.074413
v 0.410486 -0.080561 -0.065310
v 0.388261 -0.161130 -0.078231
v 0.400504 -0.064585 -0.147756
v 0.378279 -0.145154 -0.160678
v -0.409355 0.136822 -0.010676
v -0.431580 0.056253 -0.023598
v -0.399373 0.120846 0.071770
v -0.421598 0.040277 0.058849
vt 0.0625 0.6875
vt 0.3125 0.6875
vt 0.3125 0.9375
vt 0.0625 0.9375
vt 0.0625 0.6875
vt 0.3125 0.6875
vt 0.3125 0.9375
vt 0.0625 0.9375
vt 0.0625 0.6875
vt 0.3125 0.6875
vt 0.3125 0.9375
vt 0.0625 0.9375
vt 0.0625 0.6875
vt 0.3125 0.6875
vt 0.3125 0.9375
vt 0.0625 0.9375
vt 0.0625 0.6875
vt 0.3125 0.6875
vt 0.3125 0.9375
vt 0.0625 0.9375
vt 0.0625 0.6875
vt 0.3125 0.6875
vt 0.3125 0.9375
vt 0.0625 0.9375
vt 0.0625 0.6875
vt 0.3125 0.6875
vt 0.3125 0.9375
vt 0.0625 0.9375
vt 0.0625 0.6875
vt 0.3125 0.6875
vt 0.3125 0.9375
vt 0.0625 0.9375
vt 0.0625 0.6875
vt 0.3125 0.6875
vt 0.3125 0.9375
vt 0.0625 0.9375
vt 0.0625 0.6875
vt 0.3125 0.6875
vt 0.3125 0.9375
vt 0.0625 0.9375
vt 0.0625 0.6875
vt 0.3125 0.6875
vt 0.3125 0.9375
vt 0.0625 0.9375
vt 0.0625 0.6875
vt 0.3125 0.6875
vt 0.3125 0.9375
vt 0.0625 0.9375
vt 0.0625 0.6875
vt 0.3125 0.6875
vt 0.3125 0.9375
vt 0.0625 0.9375
vt 0.0625 0.6875
vt 0.3125 0.6875
vt 0.3125 0.9375
vt 0.0625 0.9375
vt 0.0625 0.6875
vt 0.3125 0.6875
vt 0.3125 0.9375
vt 0.0625 0.9375
vt 0.0625 0.6875
vt 0.3125 0.6875
vt 0.3125 0.9375
vt 0.0625 0.9375
vt 0.0625 0.6875
vt 0.3125 0.6875
vt 0.3125 0.9375
vt 0.0625 0.9375
vt 0.0625 0.6875
vt 0.3125 0.6875
vt 0.3125 0.9375
vt 0.0625 0.9375
vt 0.0625 0.6875
vt 0.3125 0.6875
vt 0.3125 0.9375
vt 0.0625 0.9375
vt 0.0625 0.6875
vt 0.3125 0.6875
vt 0.3125 0.9375
vt 0.0625 0.9375
vt 0.5000 0.0000
vt 1.0000 0.0000
vt 1.0000 0.5000
vt 0.5000 0.5000
vt 0.0625 0.6875
vt 0.3125 0.6875
vt 0.3125 0.9375
vt 0.0625 0.9375
vt 0.0625 0.6875
vt 0.3125 0.6875
vt 0.3125 0.9375
vt 0.0625 0.9375
vt 0.0625 0.6875
vt 0.3125 0.6875
vt 0.3125 0.9375
vt 0.0625 0.9375
vt 0.0625 0.6875
vt 0.3125 0.6875
vt 0.3125 0.9375
vt 0.0625 0.9375
vt 0.0625 0.6875
vt 0.3125 0.9375
vt 0.0625 0.9375
vt 0.0625 0.6875
vt 0.3125 0.6875
vt 0.3125 0.9375
vt 0.0625 0.9375
vt 0.0625 0.6875
vt 0.3125 0.6875
vt 0.3125 0.9375
vt 0.0625 0.9375
vt 0.0625 0.6875
vt 0.3125 0.6875
vt 0.3125 0.9375
vt 0.0625 0.9375
vt 0.0625 0.6875
vt 0.3125 0.6875
vt 0.3125 0.9375
vt 0.0625 0.9375
vt 0.0625 0.6875
vt 0.3125 0.6875
vt 0.3125 0.9375
vt 0.0625 0.9375
vt 0.3125 0.9375
vt 0.0625 0.9375
vt 0.0625 0.6875
vt 0.3125 0.6875
vt 0.0625 0.9375
vt 0.0625 0.6875
vt 0.3125 0.6875
vt 0.3125 0.9375
vt 0.0625 0.9375
vt 0.0625 0.6875
vt 0.3125 0.6875
vt 0.0625 0.6875
vt 0.3125 0.6875
vt 0.3125 0.9375
vt 0.0625 0.9375
vt 0.3125 0.6875
vt 0.3125 0.9375
vt 0.0625 0.9375
vt 0.0625 0.6875
vt 0.3125 0.6875
vt 0.3125 0.9375
vt 0.0625 0.6875
vt 0.3125 0.6875
vt 0.0625 0.9375
vt 0.0625 0.6875
vt 0.3125 0.6875
vt 0.3125 0.9375
vt 0.0625 0.9375
vt 0.0625 0.6875
vt 0.3125 0.6875
vt 0.3125 0.9375
vt 0.0625 0.9375
vt 0.3125 0.6875
vt 0.3125 0.9375
vt 0.0625 0.9375
vt 0.3125 0.6875
vt 0.3125 0.9375
vt 0.0625 0.9375
vt 0.0625 0.6875
vt 0.3125 0.6875
vt 0.3125 0.9375
vt 0.0625 0.9375
vt 0.0625 0.6875
vt 0.3125 0.6875
vt 0.3125 0.9375
vt 0.0625 0.9375
vt 0.0625 0.6875
vt 0.3125 0.6875
vt 0.3125 0.9375
vt 0.0625 0.9375
vt 0.0625 0.6875
vt 0.3125 0.6875
vt 0.3125 0.9375
vt 0.0625 0.9375
vt 0.0625 0.6875
vt 0.3125 0.6875
vt 0.3125 0.9375
vt 0.0625 0.9375
vt 0.3125 0.6875
vt 0.3125 0.9375
vt 0.0625 0.6875
vt 0.3125 0.6875
vt 0.3125 0.9375
vt 0.3125 0.9375
vt 0.0625 0.9375
vt 0.0625 0.6875
vt 0.3125 0.6875
vt 0.3125 0.9375
vt 0.0625 0.9375
vt 0.0625 0.6875
vt 0.3125 0.6875
vt 0.3125 0.9375
vt 0.3125 0.6875
vt 0.3125 0.9375
vt 0.0625 0.6875
vt 0.3125 0.6875
vt 0.3125 0.9375
vt 0.0625 0.9375
vt 0.0625 0.6875
vt 0.0625 0.9375
vt 0.0625 0.6875
vt 0.0625 0.9375
vt 0.0625 0.6875
vt 0.0625 0.9375
vt 0.0625 0.6875
vt 0.3125 0.9375
vt 0.0625 0.9375
vt 0.0625 0.6875
vt 0.3125 0.6875
vt 0.0625 0.6875
vt 0.3125 0.6875
vt 0.3125 0.9375
vt 0.0625 0.9375
vt 0.0625 0.6875
vt 0.3125 0.9375
vt 0.0625 0.9375
vt 0.0625 0.6875
vt 0.0625 0.9375
vt 0.3125 0.6875
vt 0.3125 0.9375
vt 0.0625 0.9375
vt 1.0000 0.0000
vt 0.5000 0.0000
vt 0.5000 0.5000
vt 1.0000 0.5000
vt 0.3125 0.9375
vt 0.0625 0.9375
vt 0.0625 0.6875
vt 0.3125 0.6875
vt 0.3125 0.9375
vt 0.0625 0.9375
vt 0.0625 0.6875
vt 0.3125 0.6875
vt 0.0625 0.6875
vt 0.3125 0.6875
vt 0.0625 0.6875
vt 0.3125 0.6875
vt 0.3125 0.9375
vt 0.0625 0.9375
vt 0.3125 0.9375
vt 0.0625 0.9375
vt 0.3125 0.6875
vt 0.3125 0.9375
vt 0.0625 0.6875
vt 0.3125 0.6875
vt 0.0625 0.9375
vt 0.0625 0.6875
vt 0.3125 0.6875
vt 0.3125 0.9375
vt 0.0625 0.6875
vt 0.3125 0.6875
vt 0.3125 0.9375
vt 0.0625 0.9375
vt 0.0625 0.6875
vt 0.3125 0.6875
vt 0.0625 0.6875
vt 0.3125 0.6875
vt 0.3125 0.9375
vt 0.0625 0.9375
vt 0.3125 0.9375
vt 0.0625 0.9375
vn -0.1180 0.1889 -0.9749
vn 0.9576 -0.2382 -0.1621
vn 0.0085 -0.5391 0.8422
vn -0.0085 0.5391 -0.8422
vn -0.2628 -0.9527 -0.1528
vn 0.2628 0.9527 0.1528
vn -0.2096 -0.1900 -0.9591
vn 0.2096 0.1900 0.9591
vn -0.1976 -0.9525 0.2319
vn 0.5937 -0.0348 -0.8040
vn -0.9576 0.2382 0.1621
vn 0.1180 -0.1889 0.9749
vn 0.7606 -0.3020 0.5747
vn -0.7606 0.3020 -0.5747
vn -0.2880 -0.8079 -0.5142
vn -0.5937 0.0348 0.8040
vn 0.2880 0.8079 0.5142
vn 0.1976 0.9525 -0.2319
usemtl m_0
s 1
f 52/1/1 54/2/1 53/3/1 51/4/1
f 66/5/2 68/6/2 67/7/2 65/8/2
f 96/9/3 90/10/3 89/11/3 95/12/3
f 58/13/2 60/14/2 59/15/2 57/16/2
f 4/17/1 6/18/1 5/19/1 3/20/1
f 92/21/4 94/22/4 93/23/4 91/24/4
f 30/25/5 28/26/5 26/27/5 32/28/5
f 103/29/6 97/30/6 99/31/6 101/32/6
f 16/33/3 10/34/3 9/35/3 15/36/3
f 20/37/7 22/38/7 21/39/7 19/40/7
f 24/41/8 18/42/8 17/43/8 23/44/8
f 76/45/1 78/46/1 77/47/1 75/48/1
f 90/49/2 92/50/2 91/51/2 89/52/2
f 100/53/1 102/54/1 101/55/1 99/56/1
f 22/57/9 20/58/9 18/59/9 24/60/9
f 68/61/7 70/62/7 69/63/7 67/64/7
f 102/65/5 100/66/5 98/67/5 104/68/5
f 36/69/10 38/70/10 37/71/10 35/72/10
f 79/73/6 73/74/6 75/75/6 77/76/6
f 94/77/11 96/78/11 95/79/11 93/80/11
f 102/81/11 104/82/11 103/83/11 101/84/11
f 56/85/12 50/86/12 49/87/12 55/88/12
f 48/89/13 42/90/13 41/91/13 47/92/13
f 6/93/11 8/94/11 7/95/11 5/96/11
f 38/97/14 40/98/14 39/99/14 37/100/14
f 62/101/5 60/14/5 58/102/5 64/103/5
f 14/104/15 12/105/15 10/106/15 16/107/15
f 47/108/6 41/109/6 43/110/6 45/111/6
f 2/112/2 4/113/2 3/114/2 1/115/2
f 28/116/1 30/117/1 29/118/1 27/119/1
f 34/120/13 36/121/13 35/122/13 33/123/13
f 38/97/5 36/121/5 34/124/5 40/125/5
f 42/126/10 44/127/10 43/110/10 41/128/10
f 86/129/11 88/130/11 87/131/11 85/132/11
f 7/133/6 1/134/6 3/114/6 5/96/6
f 80/135/12 74/136/12 73/137/12 79/138/12
f 30/25/11 32/139/11 31/140/11 29/141/11
f 31/142/6 25/143/6 27/144/6 29/141/6
f 63/145/6 57/146/6 59/15/6 61/147/6
f 32/148/12 26/149/12 25/150/12 31/151/12
f 78/152/5 76/153/5 74/154/5 80/155/5
f 14/104/11 16/156/11 15/157/11 13/158/11
f 86/129/5 84/159/5 82/160/5 88/161/5
f 55/162/6 49/163/6 51/164/6 53/165/6
f 54/166/5 52/167/5 50/168/5 56/169/5
f 44/170/14 46/171/14 45/172/14 43/173/14
f 104/174/12 98/175/12 97/176/12 103/177/12
f 40/178/16 34/179/16 33/180/16 39/181/16
f 54/166/11 56/182/11 55/183/11 53/165/11
f 46/184/16 48/185/16 47/186/16 45/111/16
f 94/77/15 92/50/15 90/187/15 96/188/15
f 84/189/1 86/190/1 85/191/1 83/192/1
f 15/193/17 9/194/17 11/195/17 13/158/17
f 78/152/11 80/196/11 79/197/11 77/76/11
f 72/198/8 66/199/8 65/200/8 71/201/8
f 50/202/2 52/167/2 51/164/2 49/203/2
f 10/204/2 12/105/2 11/195/2 9/205/2
f 74/206/2 76/153/2 75/75/2 73/207/2
f 18/208/2 20/58/2 19/209/2 17/210/2
f 39/211/6 33/212/6 35/122/6 37/100/6
f 64/213/12 58/214/12 57/215/12 63/216/12
f 82/217/2 84/159/2 83/218/2 81/219/2
f 26/220/2 28/26/2 27/144/2 25/221/2
f 22/57/11 24/222/11 23/223/11 21/224/11
f 98/225/2 100/226/2 99/227/2 97/228/2
f 46/184/5 44/127/5 42/229/5 48/230/5
f 60/231/1 62/232/1 61/233/1 59/234/1
f 23/235/18 17/236/18 19/209/18 21/224/18
f 95/237/17 89/238/17 91/51/17 93/80/17
f 8/239/12 2/240/12 1/241/12 7/242/12
f 6/93/5 4/113/5 2/243/5 8/244/5
f 62/101/11 64/245/11 63/246/11 61/147/11
f 71/247/18 65/248/18 67/7/18 69/249/18
f 70/250/11 72/251/11 71/252/11 69/249/11
f 88/253/12 82/254/12 81/255/12 87/256/12
f 87/257/6 81/258/6 83/218/6 85/132/6
f 12/259/4 14/260/4 13/261/4 11/262/4
f 70/250/9 68/6/9 66/263/9 72/264/9
