# Blender v2.79 (sub 0) OBJ File: ''
# www.blender.org
mtllib battery.mtl
o cube
v -0.250000 -0.125000 0.125000
v 0.250000 -0.125000 0.125000
v 0.250000 0.125000 0.125000
v -0.250000 0.125000 0.125000
v -0.250000 -0.125000 -0.125000
v -0.250000 0.125000 -0.125000
v 0.250000 -0.125000 -0.125000
v 0.250000 0.125000 -0.125000
v -0.218750 0.109375 0.093750
v -0.156250 0.109375 0.093750
v -0.156250 0.171875 0.093750
v -0.218750 0.171875 0.093750
v -0.218750 0.109375 0.031250
v -0.218750 0.171875 0.031250
v -0.156250 0.109375 0.031250
v -0.156250 0.171875 0.031250
v 0.156250 0.109375 0.093750
v 0.218750 0.109375 0.093750
v 0.218750 0.171875 0.093750
v 0.156250 0.171875 0.093750
v 0.156250 0.109375 0.031250
v 0.156250 0.171875 0.031250
v 0.218750 0.109375 0.031250
v 0.218750 0.171875 0.031250
vt 0.000000 0.750000
vt 0.500000 0.750000
vt 0.500000 1.000000
vt 0.000000 1.000000
vt 0.500000 0.500000
vt 0.750000 0.500000
vt 0.750000 0.750000
vt 0.500000 0.750000
vt 0.000000 0.500000
vt 0.000000 0.750000
vt 0.500000 0.250000
vt 0.750000 0.250000
vt 0.750000 0.500000
vt 0.500000 0.500000
vt 0.000000 0.250000
vt 0.500000 0.250000
vt 0.500000 0.500000
vt 0.000000 0.500000
vt 1.000000 0.750000
vt 1.000000 1.000000
vt 0.500000 1.000000
vt 0.812500 0.687500
vt 0.875000 0.687500
vt 0.875000 0.750000
vt 0.812500 0.750000
vt 0.750000 0.687500
vt 0.750000 0.750000
vt 0.875000 0.687500
vt 0.937500 0.687500
vt 0.937500 0.750000
vt 0.875000 0.750000
vt 0.937500 0.687500
vt 1.000000 0.687500
vt 1.000000 0.750000
vt 0.937500 0.750000
vt 0.812500 0.625000
vt 0.875000 0.625000
vt 0.875000 0.687500
vt 0.812500 0.687500
vt 0.750000 0.625000
vt 0.812500 0.625000
vt 0.812500 0.687500
vt 0.750000 0.687500
vt 0.812500 0.562500
vt 0.875000 0.562500
vt 0.875000 0.625000
vt 0.812500 0.625000
vt 0.750000 0.562500
vt 0.750000 0.625000
vt 0.875000 0.562500
vt 0.937500 0.562500
vt 0.937500 0.625000
vt 0.875000 0.625000
vt 0.937500 0.562500
vt 1.000000 0.562500
vt 1.000000 0.625000
vt 0.937500 0.625000
vt 0.812500 0.500000
vt 0.875000 0.500000
vt 0.875000 0.562500
vt 0.812500 0.562500
vt 0.750000 0.500000
vt 0.812500 0.500000
vt 0.812500 0.562500
vt 0.750000 0.562500
vn 0.0000 0.0000 1.0000
vn -1.0000 0.0000 0.0000
vn -0.0000 -0.0000 -1.0000
vn 1.0000 0.0000 -0.0000
vn -0.0000 1.0000 -0.0000
vn 0.0000 -1.0000 0.0000
usemtl m_96d5333d-0880-5509-6426-1af2365a9aff
s 1
f 1/1/1 2/2/1 3/3/1 4/4/1
f 5/5/2 1/6/2 4/7/2 6/8/2
f 7/9/3 5/5/3 6/8/3 8/10/3
f 2/11/4 7/12/4 8/13/4 3/14/4
f 8/15/5 6/16/5 4/17/5 3/18/5
f 2/2/6 1/19/6 5/20/6 7/21/6
f 9/22/1 10/23/1 11/24/1 12/25/1
f 13/26/2 9/22/2 12/25/2 14/27/2
f 15/28/3 13/29/3 14/30/3 16/31/3
f 10/32/4 15/33/4 16/34/4 11/35/4
f 16/36/5 14/37/5 12/38/5 11/39/5
f 10/40/6 9/41/6 13/42/6 15/43/6
f 17/44/1 18/45/1 19/46/1 20/47/1
f 21/48/2 17/44/2 20/47/2 22/49/2
f 23/50/3 21/51/3 22/52/3 24/53/3
f 18/54/4 23/55/4 24/56/4 19/57/4
f 24/58/5 22/59/5 20/60/5 19/61/5
f 18/62/6 17/63/6 21/64/6 23/65/6
