# Blender v2.79 (sub 0) OBJ File: ''
# www.blender.org
mtllib bed_chest.mtl
o chest
v 1.000000 0.031250 -0.500000
v 1.000000 0.031250 0.000000
v 1.000000 -0.343750 0.000000
v 1.000000 -0.343750 -0.500000
v -1.000000 -0.343750 0.000000
v -1.000000 0.031250 0.000000
v -1.000000 0.031250 -0.500000
v -1.000000 -0.343750 -0.500000
v 0.093750 0.053347 0.000000
v 0.093750 0.031250 0.022097
v 0.093750 0.009153 0.000000
v 0.093750 0.031250 -0.022097
v -0.093750 0.009153 0.000000
v -0.093750 0.031250 0.022097
v -0.093750 0.053347 0.000000
v -0.093750 0.031250 -0.022097
v 0.843750 0.053347 0.000000
v 0.843750 0.031250 0.022097
v 0.843750 0.009153 0.000000
v 0.843750 0.031250 -0.022097
v 0.656250 0.009153 0.000000
v 0.656250 0.031250 0.022097
v 0.656250 0.053347 0.000000
v 0.656250 0.031250 -0.022097
v -0.656250 0.053347 0.000000
v -0.656250 0.031250 0.022097
v -0.656250 0.009153 0.000000
v -0.656250 0.031250 -0.022097
v -0.843750 0.009153 0.000000
v -0.843750 0.031250 0.022097
v -0.843750 0.053347 0.000000
v -0.843750 0.031250 -0.022097
v 0.812500 0.031250 -0.531250
v 0.812500 0.030273 -0.468750
v 0.812500 -0.093750 -0.468750
v 0.812500 -0.093750 -0.531250
v 0.687500 -0.093750 -0.468750
v 0.687500 0.030273 -0.468750
v 0.687500 0.031250 -0.531250
v 0.687500 -0.093750 -0.531250
v -0.687500 0.031250 -0.531250
v -0.687500 0.030273 -0.468750
v -0.687500 -0.093750 -0.468750
v -0.687500 -0.093750 -0.531250
v -0.812500 -0.093750 -0.468750
v -0.812500 0.030273 -0.468750
v -0.812500 0.031250 -0.531250
v -0.812500 -0.093750 -0.531250
vt 0.125000 0.500000
vt 0.000000 0.500000
vt 0.000000 0.406250
vt 0.125000 0.406250
vt 0.265625 0.406250
vt 0.265625 0.500000
vt 0.140625 0.500000
vt 0.140625 0.406250
vt 0.000000 0.875000
vt 0.500000 0.875000
vt 0.500000 1.000000
vt 0.000000 1.000000
vt 0.500000 0.734375
vt 0.500000 0.859375
vt 0.000000 0.859375
vt 0.000000 0.734375
vt 0.500000 0.515625
vt 0.500000 0.609375
vt 0.000000 0.609375
vt 0.000000 0.515625
vt 0.500000 0.718750
vt 0.000000 0.718750
vt 0.000000 0.625000
vt 0.500000 0.625000
vt 0.875000 0.578125
vt 0.859375 0.578125
vt 0.859375 0.562500
vt 0.875000 0.562500
vt 0.875000 0.531250
vt 0.875000 0.546875
vt 0.859375 0.546875
vt 0.859375 0.531250
vt 0.734375 0.562500
vt 0.781250 0.562500
vt 0.781250 0.578125
vt 0.734375 0.578125
vt 0.781250 0.531250
vt 0.781250 0.546875
vt 0.734375 0.546875
vt 0.734375 0.531250
vt 0.843750 0.531250
vt 0.843750 0.546875
vt 0.796875 0.546875
vt 0.796875 0.531250
vt 0.843750 0.578125
vt 0.796875 0.578125
vt 0.796875 0.562500
vt 0.843750 0.562500
vt 0.875000 0.515625
vt 0.859375 0.515625
vt 0.859375 0.500000
vt 0.875000 0.500000
vt 0.875000 0.468750
vt 0.875000 0.484375
vt 0.859375 0.484375
vt 0.859375 0.468750
vt 0.734375 0.500000
vt 0.781250 0.500000
vt 0.781250 0.515625
vt 0.734375 0.515625
vt 0.781250 0.468750
vt 0.781250 0.484375
vt 0.734375 0.484375
vt 0.734375 0.468750
vt 0.843750 0.468750
vt 0.843750 0.484375
vt 0.796875 0.484375
vt 0.796875 0.468750
vt 0.843750 0.515625
vt 0.796875 0.515625
vt 0.796875 0.500000
vt 0.843750 0.500000
vt 0.875000 0.453125
vt 0.859375 0.453125
vt 0.859375 0.437500
vt 0.875000 0.437500
vt 0.875000 0.406250
vt 0.875000 0.421875
vt 0.859375 0.421875
vt 0.859375 0.406250
vt 0.734375 0.437500
vt 0.781250 0.437500
vt 0.781250 0.453125
vt 0.734375 0.453125
vt 0.781250 0.406250
vt 0.781250 0.421875
vt 0.734375 0.421875
vt 0.734375 0.406250
vt 0.843750 0.406250
vt 0.843750 0.421875
vt 0.796875 0.421875
vt 0.796875 0.406250
vt 0.843750 0.453125
vt 0.796875 0.453125
vt 0.796875 0.437500
vt 0.843750 0.437500
vt 1.000000 0.531250
vt 0.984375 0.531250
vt 0.984375 0.500000
vt 1.000000 0.500000
vt 1.000000 0.546875
vt 1.000000 0.578125
vt 0.984375 0.578125
vt 0.984375 0.546875
vt 0.937500 0.515625
vt 0.968750 0.515625
vt 0.968750 0.531250
vt 0.937500 0.531250
vt 0.921875 0.515625
vt 0.921875 0.531250
vt 0.890625 0.531250
vt 0.890625 0.515625
vt 0.921875 0.546875
vt 0.921875 0.578125
vt 0.890625 0.578125
vt 0.890625 0.546875
vt 0.968750 0.578125
vt 0.937500 0.578125
vt 0.937500 0.546875
vt 0.968750 0.546875
vt 1.000000 0.375000
vt 0.984375 0.375000
vt 0.984375 0.343750
vt 1.000000 0.343750
vt 1.000000 0.390625
vt 1.000000 0.421875
vt 0.984375 0.421875
vt 0.984375 0.390625
vt 0.937500 0.359375
vt 0.968750 0.359375
vt 0.968750 0.375000
vt 0.937500 0.375000
vt 0.921875 0.359375
vt 0.921875 0.375000
vt 0.890625 0.375000
vt 0.890625 0.359375
vt 0.921875 0.390625
vt 0.921875 0.421875
vt 0.890625 0.421875
vt 0.890625 0.390625
vt 0.968750 0.421875
vt 0.937500 0.421875
vt 0.937500 0.390625
vt 0.968750 0.390625
vn 1.0000 0.0000 0.0000
vn -1.0000 0.0000 0.0000
vn 0.0000 1.0000 0.0000
vn 0.0000 -1.0000 -0.0000
vn 0.0000 0.0000 1.0000
vn 0.0000 0.0000 -1.0000
vn 0.0000 0.7071 0.7071
vn 0.0000 -0.7071 -0.7071
vn 0.0000 -0.7071 0.7071
vn 0.0000 0.7071 -0.7071
vn 0.0000 0.9999 0.0156
usemtl m_3c1ebf9d-c152-f99f-a739-f882999e49f3
s 1
f 1/1/1 2/2/1 3/3/1 4/4/1
f 5/5/2 6/6/2 7/7/2 8/8/2
f 6/9/3 2/10/3 1/11/3 7/12/3
f 4/13/4 3/14/4 5/15/4 8/16/4
f 3/17/5 2/18/5 6/19/5 5/20/5
f 7/21/6 1/22/6 4/23/6 8/24/6
f 9/25/1 10/26/1 11/27/1 12/28/1
f 13/29/2 14/30/2 15/31/2 16/32/2
f 14/33/7 10/34/7 9/35/7 15/36/7
f 12/37/8 11/38/8 13/39/8 16/40/8
f 11/41/9 10/42/9 14/43/9 13/44/9
f 15/45/10 9/46/10 12/47/10 16/48/10
f 17/49/1 18/50/1 19/51/1 20/52/1
f 21/53/2 22/54/2 23/55/2 24/56/2
f 22/57/7 18/58/7 17/59/7 23/60/7
f 20/61/8 19/62/8 21/63/8 24/64/8
f 19/65/9 18/66/9 22/67/9 21/68/9
f 23/69/10 17/70/10 20/71/10 24/72/10
f 25/73/1 26/74/1 27/75/1 28/76/1
f 29/77/2 30/78/2 31/79/2 32/80/2
f 30/81/7 26/82/7 25/83/7 31/84/7
f 28/85/8 27/86/8 29/87/8 32/88/8
f 27/89/9 26/90/9 30/91/9 29/92/9
f 31/93/10 25/94/10 28/95/10 32/96/10
f 33/97/1 34/98/1 35/99/1 36/100/1
f 37/101/2 38/102/2 39/103/2 40/104/2
f 38/105/11 34/106/11 33/107/11 39/108/11
f 36/109/4 35/110/4 37/111/4 40/112/4
f 35/113/5 34/114/5 38/115/5 37/116/5
f 39/117/6 33/118/6 36/119/6 40/120/6
f 41/121/1 42/122/1 43/123/1 44/124/1
f 45/125/2 46/126/2 47/127/2 48/128/2
f 46/129/11 42/130/11 41/131/11 47/132/11
f 44/133/4 43/134/4 45/135/4 48/136/4
f 43/137/5 42/138/5 46/139/5 45/140/5
f 47/141/6 41/142/6 44/143/6 48/144/6
o lid
v 1.015625 0.156250 -0.515625
v 1.015625 0.156250 0.015625
v 1.015625 0.031250 0.015625
v 1.015625 0.031250 -0.515625
v -1.015625 0.031250 0.015625
v -1.015625 0.156250 0.015625
v -1.015625 0.156250 -0.515625
v -1.015625 0.031250 -0.515625
v 0.812500 0.093750 -0.546875
v 0.812500 0.093750 -0.484375
v 0.812500 0.032227 -0.484375
v 0.812500 0.031250 -0.546875
v 0.687500 0.032227 -0.484375
v 0.687500 0.093750 -0.484375
v 0.687500 0.093750 -0.546875
v 0.687500 0.031250 -0.546875
v -0.687500 0.093750 -0.546875
v -0.687500 0.093750 -0.484375
v -0.687500 0.032227 -0.484375
v -0.687500 0.031250 -0.546875
v -0.812500 0.032227 -0.484375
v -0.812500 0.093750 -0.484375
v -0.812500 0.093750 -0.546875
v -0.812500 0.031250 -0.546875
vt 0.625000 0.625000
vt 0.500000 0.625000
vt 0.500000 0.593750
vt 0.625000 0.593750
vt 0.765625 0.593750
vt 0.765625 0.625000
vt 0.640625 0.625000
vt 0.640625 0.593750
vt 0.500000 0.875000
vt 1.000000 0.875000
vt 1.000000 1.000000
vt 0.500000 1.000000
vt 1.000000 0.734375
vt 1.000000 0.859375
vt 0.500000 0.859375
vt 0.500000 0.734375
vt 1.000000 0.687500
vt 1.000000 0.718750
vt 0.500000 0.718750
vt 0.500000 0.687500
vt 1.000000 0.671875
vt 0.500000 0.671875
vt 0.500000 0.640625
vt 1.000000 0.640625
vt 1.000000 0.484375
vt 0.984375 0.484375
vt 0.984375 0.468750
vt 1.000000 0.468750
vt 1.000000 0.437500
vt 1.000000 0.453125
vt 0.984375 0.453125
vt 0.984375 0.437500
vt 0.890625 0.484375
vt 0.921875 0.484375
vt 0.921875 0.500000
vt 0.890625 0.500000
vt 0.968750 0.453125
vt 0.968750 0.468750
vt 0.937500 0.468750
vt 0.937500 0.453125
vt 0.921875 0.453125
vt 0.921875 0.468750
vt 0.890625 0.468750
vt 0.890625 0.453125
vt 0.968750 0.500000
vt 0.937500 0.500000
vt 0.937500 0.484375
vt 0.968750 0.484375
vt 1.000000 0.328125
vt 0.984375 0.328125
vt 0.984375 0.312500
vt 1.000000 0.312500
vt 1.000000 0.281250
vt 1.000000 0.296875
vt 0.984375 0.296875
vt 0.984375 0.281250
vt 0.890625 0.328125
vt 0.921875 0.328125
vt 0.921875 0.343750
vt 0.890625 0.343750
vt 0.968750 0.296875
vt 0.968750 0.312500
vt 0.937500 0.312500
vt 0.937500 0.296875
vt 0.921875 0.296875
vt 0.921875 0.312500
vt 0.890625 0.312500
vt 0.890625 0.296875
vt 0.968750 0.343750
vt 0.937500 0.343750
vt 0.937500 0.328125
vt 0.968750 0.328125
vn 1.0000 0.0000 0.0000
vn -1.0000 0.0000 0.0000
vn 0.0000 1.0000 0.0000
vn 0.0000 -1.0000 0.0000
vn 0.0000 0.0000 1.0000
vn 0.0000 0.0000 -1.0000
vn 0.0000 -0.9999 0.0156
usemtl m_3c1ebf9d-c152-f99f-a739-f882999e49f3
s 1
f 49/145/12 50/146/12 51/147/12 52/148/12
f 53/149/13 54/150/13 55/151/13 56/152/13
f 54/153/14 50/154/14 49/155/14 55/156/14
f 52/157/15 51/158/15 53/159/15 56/160/15
f 51/161/16 50/162/16 54/163/16 53/164/16
f 55/165/17 49/166/17 52/167/17 56/168/17
f 57/169/12 58/170/12 59/171/12 60/172/12
f 61/173/13 62/174/13 63/175/13 64/176/13
f 62/177/14 58/178/14 57/179/14 63/180/14
f 60/181/18 59/182/18 61/183/18 64/184/18
f 59/185/16 58/186/16 62/187/16 61/188/16
f 63/189/17 57/190/17 60/191/17 64/192/17
f 65/193/12 66/194/12 67/195/12 68/196/12
f 69/197/13 70/198/13 71/199/13 72/200/13
f 70/201/14 66/202/14 65/203/14 71/204/14
f 68/205/18 67/206/18 69/207/18 72/208/18
f 67/209/16 66/210/16 70/211/16 69/212/16
f 71/213/17 65/214/17 68/215/17 72/216/17
