# Blender v2.79 (sub 0) OBJ File: ''
# www.blender.org
mtllib benchgun.mtl
o cube
v -0.500000 0.750000 0.500000
v -0.500000 0.750000 -0.500000
v -0.500000 0.000000 -0.500000
v -0.500000 -0.000000 0.500000
v 0.500000 0.000000 -0.500000
v 0.500000 0.750000 -0.500000
v 0.500000 0.750000 0.500000
v 0.500000 -0.000000 0.500000
v 0.357894 0.875000 -0.354176
v 0.415612 0.875000 -0.243300
v 0.415612 0.750000 -0.243300
v 0.357894 0.750000 -0.354176
v 0.304736 0.750000 -0.185581
v 0.304736 0.875000 -0.185581
v 0.247017 0.875000 -0.296457
v 0.247017 0.750000 -0.296457
v -0.257650 0.812500 -0.033858
v -0.343155 0.812500 -0.268781
v -0.343155 0.750000 -0.268781
v -0.257650 0.750000 -0.033858
v -0.284424 0.750000 -0.290157
v -0.284424 0.812500 -0.290157
v -0.198919 0.812500 -0.055234
v -0.198919 0.750000 -0.055234
v -0.233559 0.781250 -0.227068
v -0.226795 0.781250 -0.257577
v -0.226795 0.750000 -0.257577
v -0.233559 0.750000 -0.227068
v -0.165777 0.750000 -0.244049
v -0.165777 0.781250 -0.244049
v -0.172540 0.781250 -0.213540
v -0.172540 0.750000 -0.213540
v -0.152788 0.781250 -0.109744
v -0.173900 0.781250 -0.132784
v -0.173900 0.750000 -0.132784
v -0.152788 0.750000 -0.109744
v -0.127820 0.750000 -0.175008
v -0.127820 0.781250 -0.175008
v -0.106708 0.781250 -0.151968
v -0.106708 0.750000 -0.151968
v 0.071984 0.773438 -0.311603
v 0.180237 0.773438 -0.249103
v 0.180237 0.742188 -0.249103
v 0.071984 0.742188 -0.311603
v 0.117737 0.742188 -0.140850
v 0.117737 0.773438 -0.140850
v 0.009484 0.773438 -0.203350
v 0.009484 0.742188 -0.203350
v 0.171875 0.781250 0.203125
v 0.171875 0.781250 0.250000
v 0.187500 0.750000 0.250000
v 0.187500 0.750000 0.187500
v 0.062500 0.750000 0.187500
v 0.062500 0.750000 0.250000
v 0.078125 0.781250 0.250000
v 0.078125 0.781250 0.203125
v 0.093750 1.078125 0.187500
v 0.093750 1.062500 0.250000
v 0.156250 1.062500 0.250000
v 0.156250 1.078125 0.187500
v 0.187500 0.750000 0.312500
v 0.171875 0.781250 0.296875
v 0.078125 0.781250 0.296875
v 0.062500 0.750000 0.312500
v 0.171875 0.812500 0.296875
v 0.078125 0.812500 0.296875
v 0.171875 0.812500 0.203125
v 0.171875 0.812500 0.250000
v 0.078125 0.812500 0.203125
v 0.078125 0.812500 0.250000
v 0.156250 0.843750 0.281250
v 0.093750 0.843750 0.281250
v 0.156250 0.843750 0.218750
v 0.156250 0.843750 0.250000
v 0.093750 0.843750 0.218750
v 0.093750 0.843750 0.250000
v 0.156250 1.031250 0.281250
v 0.093750 1.031250 0.281250
v 0.156250 1.031250 0.218750
v 0.156250 1.031250 0.250000
v 0.093750 1.031250 0.218750
v 0.093750 1.031250 0.250000
v 0.156250 1.078125 0.312500
v 0.093750 1.078125 0.312500
vt 0.500000 0.500000
vt 1.000000 0.500000
vt 1.000000 0.125000
vt 0.500000 0.125000
vt 0.500000 0.125000
vt 0.500000 0.500000
vt 1.000000 0.500000
vt 1.000000 0.125000
vt 0.000000 0.500000
vt 0.500000 0.500000
vt 0.500000 1.000000
vt 0.000000 1.000000
vt 1.000000 0.500000
vt 1.000000 1.000000
vt 0.500000 1.000000
vt 0.500000 0.500000
vt 0.500000 0.500000
vt 0.000000 0.500000
vt 0.000000 0.125000
vt 0.500000 0.125000
vt 0.718750 0.093750
vt 0.656250 0.093750
vt 0.656250 0.031250
vt 0.718750 0.031250
vt 0.718750 0.031250
vt 0.718750 0.093750
vt 0.656250 0.093750
vt 0.656250 0.031250
vt 0.656250 0.031250
vt 0.718750 0.031250
vt 0.718750 0.093750
vt 0.656250 0.093750
vt 0.718750 0.031250
vt 0.718750 0.093750
vt 0.656250 0.093750
vt 0.656250 0.031250
vt 0.718750 0.093750
vt 0.656250 0.093750
vt 0.656250 0.031250
vt 0.718750 0.031250
vt 0.968750 0.093750
vt 0.906250 0.093750
vt 0.906250 0.031250
vt 0.968750 0.031250
vt 0.968750 0.031250
vt 0.968750 0.093750
vt 0.906250 0.093750
vt 0.906250 0.031250
vt 0.906250 0.031250
vt 0.968750 0.031250
vt 0.968750 0.093750
vt 0.906250 0.093750
vt 0.968750 0.031250
vt 0.968750 0.093750
vt 0.906250 0.093750
vt 0.906250 0.031250
vt 0.968750 0.093750
vt 0.906250 0.093750
vt 0.906250 0.031250
vt 0.968750 0.031250
vt 0.593750 0.093750
vt 0.531250 0.093750
vt 0.531250 0.031250
vt 0.593750 0.031250
vt 0.593750 0.031250
vt 0.593750 0.093750
vt 0.531250 0.093750
vt 0.531250 0.031250
vt 0.531250 0.031250
vt 0.593750 0.031250
vt 0.593750 0.093750
vt 0.531250 0.093750
vt 0.593750 0.031250
vt 0.593750 0.093750
vt 0.531250 0.093750
vt 0.531250 0.031250
vt 0.593750 0.093750
vt 0.531250 0.093750
vt 0.531250 0.031250
vt 0.593750 0.031250
vt 0.593750 0.093750
vt 0.531250 0.093750
vt 0.531250 0.031250
vt 0.593750 0.031250
vt 0.593750 0.031250
vt 0.593750 0.093750
vt 0.531250 0.093750
vt 0.531250 0.031250
vt 0.531250 0.031250
vt 0.593750 0.031250
vt 0.593750 0.093750
vt 0.531250 0.093750
vt 0.593750 0.031250
vt 0.593750 0.093750
vt 0.531250 0.093750
vt 0.531250 0.031250
vt 0.593750 0.093750
vt 0.531250 0.093750
vt 0.531250 0.031250
vt 0.593750 0.031250
vt 0.843750 0.093750
vt 0.781250 0.093750
vt 0.781250 0.031250
vt 0.843750 0.031250
vt 0.843750 0.031250
vt 0.843750 0.093750
vt 0.781250 0.093750
vt 0.781250 0.031250
vt 0.781250 0.031250
vt 0.843750 0.031250
vt 0.843750 0.093750
vt 0.781250 0.093750
vt 0.843750 0.031250
vt 0.843750 0.093750
vt 0.781250 0.093750
vt 0.781250 0.031250
vt 0.843750 0.093750
vt 0.781250 0.093750
vt 0.781250 0.031250
vt 0.843750 0.031250
vt 0.468750 0.093750
vt 0.437500 0.093750
vt 0.437500 0.031250
vt 0.468750 0.031250
vt 0.406250 0.031250
vt 0.437500 0.031250
vt 0.437500 0.093750
vt 0.406250 0.093750
vt 0.406250 0.093750
vt 0.406250 0.062500
vt 0.468750 0.062500
vt 0.468750 0.093750
vt 0.468750 0.062500
vt 0.406250 0.062500
vt 0.468750 0.031250
vt 0.468750 0.093750
vt 0.406250 0.093750
vt 0.406250 0.031250
vt 0.468750 0.093750
vt 0.406250 0.093750
vt 0.406250 0.031250
vt 0.468750 0.031250
vt 0.468750 0.093750
vt 0.406250 0.093750
vt 0.406250 0.031250
vt 0.468750 0.031250
vt 0.468750 0.093750
vt 0.437500 0.093750
vt 0.437500 0.031250
vt 0.468750 0.031250
vt 0.468750 0.093750
vt 0.406250 0.093750
vt 0.406250 0.031250
vt 0.468750 0.031250
vt 0.406250 0.031250
vt 0.437500 0.031250
vt 0.437500 0.093750
vt 0.406250 0.093750
vt 0.468750 0.093750
vt 0.406250 0.093750
vt 0.406250 0.031250
vt 0.468750 0.031250
vt 0.468750 0.093750
vt 0.437500 0.093750
vt 0.437500 0.031250
vt 0.468750 0.031250
vt 0.468750 0.093750
vt 0.406250 0.093750
vt 0.406250 0.031250
vt 0.468750 0.031250
vt 0.406250 0.031250
vt 0.437500 0.031250
vt 0.437500 0.093750
vt 0.406250 0.093750
vt 0.468750 0.093750
vt 0.406250 0.093750
vt 0.406250 0.031250
vt 0.468750 0.031250
vt 0.468750 0.093750
vt 0.437500 0.093750
vt 0.437500 0.031250
vt 0.468750 0.031250
vt 0.468750 0.093750
vt 0.406250 0.093750
vt 0.406250 0.031250
vt 0.468750 0.031250
vt 0.406250 0.031250
vt 0.437500 0.031250
vt 0.437500 0.093750
vt 0.406250 0.093750
vt 0.468750 0.093750
vt 0.406250 0.093750
vt 0.406250 0.031250
vt 0.468750 0.031250
vt 0.437500 0.093750
vt 0.437500 0.031250
vt 0.468750 0.031250
vt 0.468750 0.093750
vt 0.406250 0.093750
vt 0.406250 0.031250
vt 0.468750 0.031250
vt 0.406250 0.031250
vt 0.437500 0.031250
vt 0.437500 0.093750
vt 0.468750 0.031250
vt 0.406250 0.031250
vt 0.468750 0.093750
vt 0.468750 0.031250
vt 0.468750 0.093750
vt 0.468750 0.031250
vt 0.468750 0.093750
vt 0.468750 0.031250
vt 0.468750 0.093750
vt 0.468750 0.031250
vt 0.468750 0.093750
vt 0.468750 0.031250
vt 0.406250 0.093750
vt 0.468750 0.093750
vt 0.406250 0.031250
vt 0.406250 0.093750
vt 0.406250 0.031250
vt 0.406250 0.093750
vt 0.406250 0.031250
vt 0.406250 0.093750
vt 0.406250 0.031250
vt 0.406250 0.093750
vt 0.406250 0.031250
vt 0.406250 0.093750
vn -1.0000 0.0000 0.0000
vn 1.0000 0.0000 0.0000
vn 0.0000 1.0000 0.0000
vn 0.0000 -1.0000 -0.0000
vn 0.0000 0.0000 -1.0000
vn 0.0000 -0.0000 1.0000
vn 0.8870 0.0000 -0.4617
vn -0.8870 0.0000 0.4618
vn 0.4618 0.0000 0.8870
vn -0.4617 0.0000 -0.8870
vn -0.9397 0.0000 0.3420
vn 0.9397 -0.0000 -0.3420
vn -0.3420 0.0000 -0.9397
vn 0.3420 0.0000 0.9397
vn -0.9763 0.0000 -0.2164
vn 0.9763 0.0000 0.2164
vn 0.2164 0.0000 -0.9763
vn -0.2164 0.0000 0.9763
vn -0.7373 0.0000 0.6756
vn 0.7373 0.0000 -0.6756
vn -0.6756 0.0000 -0.7373
vn 0.6756 0.0000 0.7373
vn 0.5000 0.0000 -0.8660
vn -0.5000 0.0000 0.8660
vn 0.8660 0.0000 0.5000
vn -0.8660 0.0000 -0.5000
vn 0.8944 0.4472 0.0000
vn -0.8944 0.4472 0.0000
vn 0.0000 0.9701 0.2425
vn 0.0000 0.4472 0.8944
vn 0.0000 0.4472 -0.8944
vn 0.0000 -0.5547 0.8321
vn 0.0000 -0.5547 -0.8321
vn 0.0000 0.9701 -0.2425
usemtl m_0
s 1
f 1/1/1 2/2/1 3/3/1 4/4/1
f 5/5/2 6/6/2 7/7/2 8/8/2
f 6/9/3 2/10/3 1/11/3 7/12/3
f 4/13/4 3/14/4 5/15/4 8/16/4
f 3/3/5 2/2/5 6/6/5 5/5/5
f 7/17/6 1/18/6 4/19/6 8/20/6
f 9/21/7 10/22/7 11/23/7 12/24/7
f 13/25/8 14/26/8 15/27/8 16/28/8
f 14/29/3 10/30/3 9/21/3 15/27/3
f 12/24/4 11/31/4 13/32/4 16/28/4
f 11/33/9 10/34/9 14/35/9 13/36/9
f 15/37/10 9/38/10 12/39/10 16/40/10
f 17/41/11 18/42/11 19/43/11 20/44/11
f 21/45/12 22/46/12 23/47/12 24/48/12
f 22/49/3 18/50/3 17/41/3 23/47/3
f 20/44/4 19/51/4 21/52/4 24/48/4
f 19/53/13 18/54/13 22/55/13 21/56/13
f 23/57/14 17/58/14 20/59/14 24/60/14
f 25/61/15 26/62/15 27/63/15 28/64/15
f 29/65/16 30/66/16 31/67/16 32/68/16
f 30/69/3 26/70/3 25/61/3 31/67/3
f 28/64/4 27/71/4 29/72/4 32/68/4
f 27/73/17 26/74/17 30/75/17 29/76/17
f 31/77/18 25/78/18 28/79/18 32/80/18
f 33/81/19 34/82/19 35/83/19 36/84/19
f 37/85/20 38/86/20 39/87/20 40/88/20
f 38/89/3 34/90/3 33/81/3 39/87/3
f 36/84/4 35/91/4 37/92/4 40/88/4
f 35/93/21 34/94/21 38/95/21 37/96/21
f 39/97/22 33/98/22 36/99/22 40/100/22
f 41/101/23 42/102/23 43/103/23 44/104/23
f 45/105/24 46/106/24 47/107/24 48/108/24
f 46/109/3 42/110/3 41/101/3 47/107/3
f 44/104/4 43/111/4 45/112/4 48/108/4
f 43/113/25 42/114/25 46/115/25 45/116/25
f 47/117/26 41/118/26 44/119/26 48/120/26
f 49/121/27 50/122/27 51/123/27 52/124/27
f 53/125/28 54/126/28 55/127/28 56/128/28
f 57/129/29 58/130/29 59/131/29 60/132/29
f 52/124/4 51/133/4 54/134/4 53/125/4
f 61/135/30 62/136/30 63/137/30 64/138/30
f 56/139/31 49/140/31 52/141/31 53/142/31
f 65/143/6 66/144/6 63/145/6 62/146/6
f 67/147/2 68/148/2 50/149/2 49/150/2
f 69/151/5 67/152/5 49/153/5 56/154/5
f 56/155/1 55/156/1 70/157/1 69/158/1
f 71/159/30 72/160/30 66/161/30 65/162/30
f 73/163/27 74/164/27 68/165/27 67/166/27
f 75/167/31 73/168/31 67/169/31 69/170/31
f 69/171/28 70/172/28 76/173/28 75/174/28
f 77/175/6 78/176/6 72/177/6 71/178/6
f 79/179/2 80/180/2 74/181/2 73/182/2
f 81/183/5 79/184/5 73/185/5 75/186/5
f 75/187/1 76/188/1 82/189/1 81/190/1
f 83/191/32 84/192/32 78/193/32 77/194/32
f 60/132/2 59/195/2 80/196/2 79/197/2
f 57/198/33 60/199/33 79/200/33 81/201/33
f 81/202/1 82/203/1 58/204/1 57/129/1
f 83/205/34 59/131/34 58/130/34 84/206/34
f 84/207/1 58/204/1 82/203/1 78/208/1
f 78/209/1 82/189/1 76/188/1 72/210/1
f 72/211/28 76/173/28 70/172/28 66/212/28
f 66/213/1 70/157/1 55/156/1 63/214/1
f 63/215/28 55/127/28 54/126/28 64/216/28
f 64/217/4 54/134/4 51/133/4 61/218/4
f 61/219/27 51/123/27 50/122/27 62/220/27
f 62/221/2 50/149/2 68/148/2 65/222/2
f 65/223/27 68/165/27 74/164/27 71/224/27
f 71/225/2 74/181/2 80/180/2 77/226/2
f 77/227/2 80/196/2 59/195/2 83/228/2
