# Blender v2.79 (sub 0) OBJ File: ''
# www.blender.org
mtllib benchcraftingengines.mtl
o glass_translucent
v -2.499023 1.000000 0.499023
v -2.499023 1.000000 -0.499023
v -2.499023 0.000000 -0.499023
v -2.499023 -0.000000 0.499023
v -0.500977 0.000000 -0.499023
v -0.500977 1.000000 -0.499023
v -0.500977 1.000000 0.499023
v -0.500977 -0.000000 0.499023
v -2.499023 0.000000 -0.499023
v -2.499023 1.000000 -0.499023
v -2.499023 1.000000 0.499023
v -2.499023 -0.000000 0.499023
v -0.500977 1.000000 0.499023
v -0.500977 1.000000 -0.499023
v -0.500977 0.000000 -0.499023
v -0.500977 -0.000000 0.499023
vt 0.500000 0.500000
vt 0.250000 0.500000
vt 0.250000 0.250000
vt 0.500000 0.250000
vt 0.500000 0.250000
vt 0.500000 0.500000
vt 0.250000 0.500000
vt 0.250000 0.250000
vt 1.000000 0.750000
vt 1.000000 1.000000
vt 0.500000 1.000000
vt 0.500000 0.750000
vt 1.000000 0.750000
vt 0.500000 0.750000
vt 0.500000 0.500000
vt 1.000000 0.500000
vt 0.250000 0.250000
vt 0.250000 0.500000
vt 0.500000 0.500000
vt 0.500000 0.250000
vt 0.250000 0.500000
vt 0.500000 0.500000
vt 0.500000 0.250000
vt 0.250000 0.250000
vt 0.500000 1.000000
vt 1.000000 1.000000
vt 1.000000 0.750000
vt 0.500000 0.750000
vt 0.500000 0.500000
vt 0.500000 0.750000
vt 1.000000 0.750000
vt 1.000000 0.500000
vn -1.0000 0.0000 0.0000
vn 1.0000 0.0000 0.0000
vn 0.0000 0.0000 -1.0000
vn 0.0000 -0.0000 1.0000
usemtl m_39ff1396-9f13-9497-5f17-9872529a9d6f
s 1
f 1/1/1 2/2/1 3/3/1 4/4/1
f 5/5/2 6/6/2 7/7/2 8/8/2
f 3/9/3 2/10/3 6/11/3 5/12/3
f 7/13/4 1/14/4 4/15/4 8/16/4
f 9/17/2 10/18/2 11/19/2 12/20/2
f 13/21/1 14/22/1 15/23/1 16/24/1
f 14/25/4 10/26/4 9/27/4 15/28/4
f 12/29/3 11/30/3 13/31/3 16/32/3
o bench
v -1.500000 1.500000 0.500000
v -1.500000 1.500000 -0.500000
v -1.500000 1.000000 -0.500000
v -1.500000 1.000000 0.500000
v -0.500000 1.000000 -0.500000
v -0.500000 1.500000 -0.500000
v -0.500000 1.500000 0.500000
v -0.500000 1.000000 0.500000
v -2.500000 1.500000 0.500000
v -2.500000 1.500000 -0.500000
v -2.500000 1.000000 -0.500000
v -2.500000 1.000000 0.500000
v -1.500000 1.000000 -0.500000
v -1.500000 1.500000 -0.500000
v -1.500000 1.500000 0.500000
v -1.500000 1.000000 0.500000
v -2.500000 -0.000000 0.500000
v -2.500000 0.000000 -0.500000
v -2.500000 -1.000000 -0.500000
v -2.500000 -1.000000 0.500000
v -1.500000 -1.000000 -0.500000
v -1.500000 0.000000 -0.500000
v -1.500000 -0.000000 0.500000
v -1.500000 -1.000000 0.500000
v -1.500000 -0.000000 0.500000
v -1.500000 0.000000 -0.500000
v -1.500000 -1.000000 -0.500000
v -1.500000 -1.000000 0.500000
v -0.500000 -1.000000 -0.500000
v -0.500000 0.000000 -0.500000
v -0.500000 -0.000000 0.500000
v -0.500000 -1.000000 0.500000
v -0.963388 0.625000 -0.275888
v -0.963388 1.000000 -0.275888
v -0.786612 1.000000 -0.099112
v -0.786612 0.625000 -0.099112
v -0.786612 1.000000 -0.099112
v -0.963388 1.000000 -0.275888
v -0.963388 0.625000 -0.275888
v -0.786612 0.625000 -0.099112
v -0.963388 0.625000 -0.099112
v -0.963388 1.000000 -0.099112
v -0.786612 1.000000 -0.275888
v -0.786612 0.625000 -0.275888
v -0.786612 1.000000 -0.275888
v -0.963388 1.000000 -0.099112
v -0.963388 0.625000 -0.099112
v -0.786612 0.625000 -0.275888
v -1.781250 0.625000 -0.031250
v -1.781250 1.000000 -0.031250
v -1.156250 1.000000 -0.031250
v -1.156250 0.625000 -0.031250
v -1.156250 1.000000 -0.031250
v -1.781250 1.000000 -0.031250
v -1.781250 0.625000 -0.031250
v -1.156250 0.625000 -0.031250
v -2.140625 0.531250 -0.125000
v -2.140625 1.000000 -0.125000
v -1.984375 1.000000 -0.125000
v -1.984375 0.531250 -0.125000
v -1.984375 1.000000 -0.125000
v -2.140625 1.000000 -0.125000
v -2.140625 0.531250 -0.125000
v -1.984375 0.531250 -0.125000
v -1.963388 0.625000 0.161612
v -1.963388 1.000000 0.161612
v -1.786612 1.000000 0.338388
v -1.786612 0.625000 0.338388
v -1.786612 1.000000 0.338388
v -1.963388 1.000000 0.161612
v -1.963388 0.625000 0.161612
v -1.786612 0.625000 0.338388
v -1.963388 0.625000 0.338388
v -1.963388 1.000000 0.338388
v -1.786612 1.000000 0.161612
v -1.786612 0.625000 0.161612
v -1.786612 1.000000 0.161612
v -1.963388 1.000000 0.338388
v -1.963388 0.625000 0.338388
v -1.786612 0.625000 0.161612
vt 1.000000 0.125000
vt 0.750000 0.125000
vt 0.750000 0.000000
vt 1.000000 0.000000
vt 1.000000 0.000000
vt 1.000000 0.125000
vt 0.750000 0.125000
vt 0.750000 0.000000
vt 0.750000 0.000000
vt 1.000000 0.000000
vt 1.000000 0.250000
vt 0.750000 0.250000
vt 1.000000 0.250000
vt 0.750000 0.250000
vt 1.000000 0.000000
vt 1.000000 0.125000
vt 0.750000 0.125000
vt 0.750000 0.000000
vt 1.000000 0.125000
vt 0.750000 0.125000
vt 0.750000 0.000000
vt 1.000000 0.000000
vt 1.000000 0.125000
vt 0.750000 0.125000
vt 0.750000 0.000000
vt 1.000000 0.000000
vt 1.000000 0.000000
vt 1.000000 0.125000
vt 0.750000 0.125000
vt 0.750000 0.000000
vt 0.750000 0.000000
vt 1.000000 0.000000
vt 1.000000 0.250000
vt 0.750000 0.250000
vt 1.000000 0.250000
vt 0.750000 0.250000
vt 1.000000 0.000000
vt 1.000000 0.125000
vt 0.750000 0.125000
vt 0.750000 0.000000
vt 1.000000 0.125000
vt 0.750000 0.125000
vt 0.750000 0.000000
vt 1.000000 0.000000
vt 0.250000 0.750000
vt 0.000000 0.750000
vt 0.000000 0.500000
vt 0.250000 0.500000
vt 0.250000 0.500000
vt 0.250000 0.750000
vt 0.000000 0.750000
vt 0.000000 0.500000
vt 0.250000 0.000000
vt 0.000000 0.000000
vt 0.000000 0.250000
vt 0.250000 0.250000
vt 0.250000 0.250000
vt 0.250000 0.500000
vt 0.000000 0.500000
vt 0.000000 0.250000
vt 0.250000 0.750000
vt 0.000000 0.750000
vt 0.250000 0.750000
vt 0.000000 0.750000
vt 0.000000 0.500000
vt 0.250000 0.500000
vt 0.250000 0.750000
vt 0.000000 0.750000
vt 0.000000 0.500000
vt 0.250000 0.500000
vt 0.250000 0.500000
vt 0.250000 0.750000
vt 0.000000 0.750000
vt 0.000000 0.500000
vt 0.500000 0.000000
vt 0.250000 0.000000
vt 0.250000 0.250000
vt 0.500000 0.250000
vt 0.250000 0.250000
vt 0.250000 0.500000
vt 0.000000 0.500000
vt 0.000000 0.250000
vt 0.250000 0.750000
vt 0.000000 0.750000
vt 0.250000 0.750000
vt 0.000000 0.750000
vt 0.000000 0.500000
vt 0.250000 0.500000
vt 0.875000 0.390625
vt 0.875000 0.500000
vt 0.953125 0.500000
vt 0.953125 0.390625
vt 0.953125 0.500000
vt 0.875000 0.500000
vt 0.875000 0.390625
vt 0.953125 0.390625
vt 0.875000 0.390625
vt 0.875000 0.500000
vt 0.953125 0.500000
vt 0.953125 0.390625
vt 0.953125 0.500000
vt 0.875000 0.500000
vt 0.875000 0.390625
vt 0.953125 0.390625
vt 0.671875 0.375000
vt 0.671875 0.500000
vt 0.875000 0.500000
vt 0.875000 0.375000
vt 0.875000 0.500000
vt 0.671875 0.500000
vt 0.671875 0.375000
vt 0.875000 0.375000
vt 0.656250 0.265625
vt 0.656250 0.500000
vt 0.578125 0.500000
vt 0.578125 0.265625
vt 0.578125 0.500000
vt 0.656250 0.500000
vt 0.656250 0.265625
vt 0.578125 0.265625
vt 0.500000 0.390625
vt 0.500000 0.500000
vt 0.578125 0.500000
vt 0.578125 0.390625
vt 0.578125 0.500000
vt 0.500000 0.500000
vt 0.500000 0.390625
vt 0.578125 0.390625
vt 0.500000 0.390625
vt 0.500000 0.500000
vt 0.578125 0.500000
vt 0.578125 0.390625
vt 0.578125 0.500000
vt 0.500000 0.500000
vt 0.500000 0.390625
vt 0.578125 0.390625
vn -1.0000 0.0000 0.0000
vn 1.0000 0.0000 0.0000
vn 0.0000 1.0000 0.0000
vn 0.0000 -1.0000 0.0000
vn 0.0000 0.0000 -1.0000
vn 0.0000 0.0000 1.0000
vn 0.7071 -0.0000 -0.7071
vn -0.7071 0.0000 0.7071
vn -0.7071 0.0000 -0.7071
vn 0.7071 -0.0000 0.7071
usemtl m_39ff1396-9f13-9497-5f17-9872529a9d6f
s 1
f 17/33/5 18/34/5 19/35/5 20/36/5
f 21/37/6 22/38/6 23/39/6 24/40/6
f 22/41/7 18/42/7 17/43/7 23/44/7
f 20/36/8 19/45/8 21/46/8 24/40/8
f 19/47/9 18/48/9 22/49/9 21/50/9
f 23/51/10 17/52/10 20/53/10 24/54/10
f 25/55/5 26/56/5 27/57/5 28/58/5
f 29/59/6 30/60/6 31/61/6 32/62/6
f 30/63/7 26/64/7 25/65/7 31/66/7
f 28/58/8 27/67/8 29/68/8 32/62/8
f 27/69/9 26/70/9 30/71/9 29/72/9
f 31/73/10 25/74/10 28/75/10 32/76/10
f 33/77/5 34/78/5 35/79/5 36/80/5
f 37/81/6 38/82/6 39/83/6 40/84/6
f 38/85/7 34/86/7 33/87/7 39/88/7
f 36/89/8 35/90/8 37/91/8 40/92/8
f 35/90/9 34/93/9 38/94/9 37/91/9
f 39/95/10 33/96/10 36/97/10 40/98/10
f 41/99/5 42/100/5 43/101/5 44/102/5
f 45/103/6 46/104/6 47/105/6 48/106/6
f 46/107/7 42/108/7 41/109/7 47/110/7
f 44/111/8 43/112/8 45/113/8 48/114/8
f 43/112/9 42/115/9 46/116/9 45/113/9
f 47/117/10 41/118/10 44/119/10 48/120/10
f 49/121/11 50/122/11 51/123/11 52/124/11
f 53/125/12 54/126/12 55/127/12 56/128/12
f 57/129/13 58/130/13 59/131/13 60/132/13
f 61/133/14 62/134/14 63/135/14 64/136/14
f 65/137/9 66/138/9 67/139/9 68/140/9
f 69/141/10 70/142/10 71/143/10 72/144/10
f 73/145/9 74/146/9 75/147/9 76/148/9
f 77/149/10 78/150/10 79/151/10 80/152/10
f 81/153/11 82/154/11 83/155/11 84/156/11
f 85/157/12 86/158/12 87/159/12 88/160/12
f 89/161/13 90/162/13 91/163/13 92/164/13
f 93/165/14 94/166/14 95/167/14 96/168/14
o cube
v -0.500000 -0.000000 0.500000
v -0.500000 1.000000 -0.500000
v -0.500000 -1.000000 -0.500000
v -0.500000 -1.000000 0.500000
v 0.500000 -1.000000 -0.500000
v 0.500000 1.000000 -0.500000
v 0.500000 -0.000000 0.500000
v 0.500000 -1.000000 0.500000
v -0.437500 -0.062500 0.531250
v -0.437500 -0.062500 0.468750
v -0.437500 -0.562500 0.468750
v -0.437500 -0.562500 0.531250
v 0.437500 -0.562500 0.468750
v 0.437500 -0.062500 0.468750
v 0.437500 -0.062500 0.531250
v 0.437500 -0.562500 0.531250
vt 0.250000 0.750000
vt 0.000000 1.000000
vt 0.000000 0.500000
vt 0.250000 0.500000
vt 0.000000 0.500000
vt 0.000000 1.000000
vt 0.250000 0.750000
vt 0.250000 0.500000
vt 0.500000 1.000000
vt 0.250000 1.000000
vt 0.250000 0.656250
vt 0.500000 0.656250
vt 0.750000 0.000000
vt 0.750000 0.250000
vt 0.500000 0.250000
vt 0.500000 0.000000
vt 0.250000 0.500000
vt 0.000000 0.750000
vt 0.000000 0.500000
vt 0.265625 0.640625
vt 0.250000 0.640625
vt 0.250000 0.515625
vt 0.265625 0.515625
vt 0.500000 0.515625
vt 0.500000 0.640625
vt 0.484375 0.640625
vt 0.484375 0.515625
vt 0.265625 0.640625
vt 0.484375 0.640625
vt 0.484375 0.656250
vt 0.265625 0.656250
vt 0.484375 0.500000
vt 0.484375 0.515625
vt 0.265625 0.515625
vt 0.265625 0.500000
vn -1.0000 -0.0000 0.0000
vn 1.0000 -0.0000 0.0000
vn 0.0000 0.7071 0.7071
vn 0.0000 -1.0000 0.0000
vn 0.0000 0.0000 -1.0000
vn 0.0000 -0.0000 1.0000
vn 0.0000 1.0000 0.0000
usemtl m_39ff1396-9f13-9497-5f17-9872529a9d6f
s 1
f 97/169/15 98/170/15 99/171/15 100/172/15
f 101/173/16 102/174/16 103/175/16 104/176/16
f 102/177/17 98/178/17 97/179/17 103/180/17
f 100/181/18 99/182/18 101/183/18 104/184/18
f 99/185/19 98/178/19 102/174/19 101/173/19
f 103/175/20 97/186/20 100/187/20 104/176/20
f 105/188/15 106/189/15 107/190/15 108/191/15
f 109/192/16 110/193/16 111/194/16 112/195/16
f 110/196/21 106/197/21 105/198/21 111/199/21
f 108/200/18 107/201/18 109/202/18 112/203/18
f 111/194/20 105/188/20 108/191/20 112/195/20
o bench_extension
v -3.500000 -0.000000 0.500000
v -3.500000 0.000000 -0.500000
v -3.500000 -1.000000 -0.500000
v -3.500000 -1.000000 0.500000
v -2.500000 -1.000000 -0.500000
v -2.500000 1.000000 -0.500000
v -2.500000 -0.000000 0.500000
v -2.500000 -1.000000 0.500000
vt 0.250000 0.750000
vt 0.000000 0.750000
vt 0.000000 0.500000
vt 0.250000 0.500000
vt 0.250000 0.500000
vt 0.250000 1.000000
vt 0.000000 0.750000
vt 0.000000 0.500000
vt 0.000000 1.000000
vt 0.000000 0.646447
vt 0.250000 0.646447
vt 0.250000 0.823223
vt 0.250000 0.250000
vt 0.250000 0.500000
vt 0.000000 0.500000
vt 0.000000 0.250000
vt 0.250000 0.750000
vt 0.250000 0.750000
vt 0.000000 0.750000
vt 0.000000 0.500000
vt 0.250000 0.500000
vn -1.0000 -0.0000 0.0000
vn 1.0000 0.0000 0.0000
vn -0.7071 0.7071 0.0000
vn 0.0000 -1.0000 0.0000
vn 0.0000 0.0000 -1.0000
vn 0.0000 -0.0000 1.0000
usemtl m_39ff1396-9f13-9497-5f17-9872529a9d6f
s 1
f 113/204/22 114/205/22 115/206/22 116/207/22
f 117/208/23 118/209/23 119/210/23 120/211/23
f 118/212/24 114/213/24 113/214/24 119/215/24
f 116/216/25 115/217/25 117/218/25 120/219/25
f 115/217/26 114/220/26 118/212/26 117/218/26
f 119/221/27 113/222/27 116/223/27 120/224/27
