# Blender v2.79 (sub 0) OBJ File: ''
# www.blender.org
mtllib bodypanel.mtl
o cuboid
v 0.489961 -0.000000 0.202949
v 0.346455 0.000000 -0.143506
v 0.346455 0.062500 -0.143506
v 0.489961 0.062500 0.202949
v -0.202949 0.062500 0.489961
v -0.346455 0.062500 0.143506
v -0.346455 -0.000000 0.143506
v -0.202949 -0.000000 0.489961
v 0.000000 0.062500 0.000000
v 0.143506 0.062500 0.346455
v 0.143506 -0.000000 0.346455
v 0.000000 0.000000 0.000000
v 0.202949 0.000000 -0.489961
v -0.143506 0.000000 -0.346455
v -0.143506 0.062500 -0.346455
v 0.202949 0.062500 -0.489961
v -0.489961 0.062500 -0.202949
v -0.489961 0.000000 -0.202949
v 0.447276 0.062500 0.284946
v 0.366111 0.062500 -0.081165
v 0.366111 0.125000 -0.081165
v 0.447276 0.125000 0.284946
v -0.284946 0.125000 0.447276
v -0.366111 0.125000 0.081165
v -0.366111 0.062500 0.081165
v -0.284946 0.062500 0.447276
v 0.000000 0.125000 0.000000
v 0.081165 0.125000 0.366111
v 0.081165 0.062500 0.366111
v 0.000000 0.062500 0.000000
v 0.284946 0.062500 -0.447276
v -0.081165 0.062500 -0.366111
v -0.081165 0.125000 -0.366111
v 0.284946 0.125000 -0.447276
v -0.447276 0.125000 -0.284946
v -0.447276 0.062500 -0.284946
v 0.062500 0.187500 -0.062500
v 0.062500 0.187500 0.312500
v 0.062500 0.125000 0.312500
v 0.062500 0.125000 -0.062500
v -0.312500 0.125000 0.312500
v -0.312500 0.187500 0.312500
v -0.312500 0.187500 -0.062500
v -0.312500 0.125000 -0.062500
v 0.079765 0.185239 -0.423055
v 0.344930 0.185239 -0.157890
v 0.335365 0.124221 -0.148325
v 0.070200 0.124221 -0.413490
v 0.076485 0.205386 0.110555
v 0.086050 0.266404 0.100990
v -0.179115 0.266404 -0.164175
v -0.188680 0.205386 -0.154610
vt 0.437500 0.062500
vt 0.437500 0.437500
vt 0.375000 0.437500
vt 0.375000 0.062500
vt 0.062500 0.437500
vt 0.062500 0.062500
vt 0.125000 0.062500
vt 0.125000 0.437500
vt 0.937500 0.062500
vt 0.937500 0.437500
vt 0.562500 0.437500
vt 0.562500 0.062500
vt 0.062500 0.437500
vt 0.062500 0.062500
vt 0.437500 0.062500
vt 0.437500 0.437500
vt 0.437500 0.125000
vt 0.062500 0.125000
vt 0.062500 0.062500
vt 0.062500 0.375000
vt 0.437500 0.375000
vt 0.437500 0.437500
vt 0.062500 0.437500
vt 0.437500 0.437500
vt 0.062500 0.437500
vt 0.062500 0.375000
vt 0.437500 0.375000
vt 0.062500 0.437500
vt 0.062500 0.062500
vt 0.437500 0.062500
vt 0.437500 0.437500
vt 0.062500 0.062500
vt 0.437500 0.062500
vt 0.437500 0.125000
vt 0.062500 0.125000
vt 0.937500 0.062500
vt 0.937500 0.437500
vt 0.562500 0.437500
vt 0.562500 0.062500
vt 0.375000 0.437500
vt 0.375000 0.062500
vt 0.437500 0.437500
vt 0.437500 0.062500
vt 0.062500 0.437500
vt 0.062500 0.062500
vt 0.437500 0.062500
vt 0.437500 0.437500
vt 0.062500 0.437500
vt 0.062500 0.062500
vt 0.125000 0.062500
vt 0.125000 0.437500
vt 0.062500 0.437500
vt 0.062500 0.062500
vt 0.562500 0.437500
vt 0.562500 0.062500
vt 0.937500 0.062500
vt 0.937500 0.437500
vt 0.562500 0.437500
vt 0.562500 0.062500
vt 0.937500 0.062500
vt 0.937500 0.437500
vt 0.437500 0.562500
vt 0.437500 0.937500
vt 0.375000 0.937500
vt 0.375000 0.562500
vt 0.062500 0.562500
vt 0.062500 0.937500
vt 0.125000 0.937500
vt 0.125000 0.562500
vt 0.937500 0.562500
vt 0.937500 0.937500
vt 0.562500 0.937500
vt 0.562500 0.562500
vt 0.062500 0.937500
vt 0.062500 0.562500
vt 0.437500 0.562500
vt 0.437500 0.937500
vt 0.437500 0.625000
vt 0.062500 0.625000
vt 0.062500 0.562500
vt 0.062500 0.875000
vt 0.437500 0.875000
vt 0.437500 0.937500
vt 0.062500 0.937500
vt 0.937500 0.562500
vt 0.937500 0.937500
vt 0.562500 0.937500
vt 0.562500 0.562500
vt 0.437500 0.937500
vt 0.062500 0.937500
vt 0.062500 0.875000
vt 0.437500 0.875000
vt 0.062500 0.937500
vt 0.062500 0.562500
vt 0.437500 0.562500
vt 0.437500 0.937500
vt 0.062500 0.562500
vt 0.437500 0.562500
vt 0.437500 0.625000
vt 0.062500 0.625000
vt 0.375000 0.937500
vt 0.375000 0.562500
vt 0.437500 0.937500
vt 0.437500 0.562500
vt 0.062500 0.937500
vt 0.062500 0.562500
vt 0.437500 0.562500
vt 0.437500 0.937500
vt 0.062500 0.937500
vt 0.062500 0.562500
vt 0.125000 0.937500
vt 0.125000 0.562500
vt 0.062500 0.562500
vt 0.062500 0.937500
vt 0.562500 0.937500
vt 0.562500 0.562500
vt 0.937500 0.562500
vt 0.937500 0.937500
vt 0.562500 0.937500
vt 0.562500 0.562500
vt 0.937500 0.562500
vt 0.937500 0.937500
vt 0.375000 0.937500
vt 0.375000 0.562500
vt 0.437500 0.562500
vt 0.437500 0.937500
vt 0.125000 0.562500
vt 0.062500 0.562500
vt 0.062500 0.937500
vt 0.125000 0.937500
vt 0.562500 0.562500
vt 0.937500 0.562500
vt 0.937500 0.937500
vt 0.562500 0.937500
vt 0.437500 0.562500
vt 0.437500 0.937500
vt 0.062500 0.937500
vt 0.062500 0.562500
vt 0.437500 0.625000
vt 0.062500 0.625000
vt 0.062500 0.562500
vt 0.437500 0.937500
vt 0.062500 0.937500
vt 0.062500 0.875000
vt 0.437500 0.875000
vt 0.375000 0.437500
vt 0.375000 0.062500
vt 0.437500 0.062500
vt 0.437500 0.437500
vt 0.125000 0.062500
vt 0.062500 0.062500
vt 0.062500 0.437500
vt 0.125000 0.437500
vt 0.562500 0.062500
vt 0.937500 0.062500
vt 0.937500 0.437500
vt 0.562500 0.437500
vt 0.437500 0.062500
vt 0.437500 0.437500
vt 0.062500 0.437500
vt 0.062500 0.062500
vt 0.437500 0.125000
vt 0.062500 0.125000
vt 0.062500 0.062500
vt 0.437500 0.437500
vt 0.062500 0.437500
vt 0.062500 0.375000
vt 0.437500 0.375000
vn 0.9239 0.0000 -0.3827
vn -0.9239 0.0000 0.3827
vn -0.0000 1.0000 0.0000
vn 0.0000 -1.0000 -0.0000
vn 0.3827 0.0000 0.9239
vn -0.3827 0.0000 -0.9239
vn 0.9763 0.0000 -0.2164
vn -0.9763 0.0000 0.2164
vn 0.2164 0.0000 0.9763
vn -0.2164 0.0000 -0.9763
vn 1.0000 0.0000 0.0000
vn -1.0000 -0.0000 0.0000
vn 0.0000 0.0000 1.0000
vn 0.0000 0.0000 -1.0000
vn 0.6903 -0.2164 -0.6903
vn -0.6903 0.2164 0.6903
vn 0.1530 0.9763 -0.1530
vn -0.1530 -0.9763 0.1530
vn 0.7071 -0.0000 0.7071
vn -0.7071 -0.0000 -0.7071
usemtl m_51016e12-291a-7cdc-48b3-dadf4ef199f6
s 1
f 1/1/1 2/2/1 3/3/1 4/4/1
f 5/5/2 6/6/2 7/7/2 8/8/2
f 4/9/3 3/10/3 9/11/3 10/12/3
f 11/13/4 12/14/4 2/15/4 1/16/4
f 4/17/5 10/18/5 11/19/5 1/1/5
f 13/20/6 14/21/6 15/22/6 16/23/6
f 17/24/6 15/25/6 14/26/6 18/27/6
f 8/28/4 7/29/4 12/30/4 11/31/4
f 8/32/5 11/33/5 10/34/5 5/35/5
f 10/36/3 9/37/3 6/38/3 5/39/3
f 16/40/1 3/41/1 2/15/1 13/42/1
f 13/43/4 2/2/4 12/44/4 14/45/4
f 14/46/4 12/47/4 7/48/4 18/49/4
f 18/50/2 7/51/2 6/52/2 17/53/2
f 17/54/3 6/55/3 9/56/3 15/57/3
f 15/58/3 9/59/3 3/60/3 16/61/3
f 19/62/7 20/63/7 21/64/7 22/65/7
f 23/66/8 24/67/8 25/68/8 26/69/8
f 22/70/3 21/71/3 27/72/3 28/73/3
f 29/74/4 30/75/4 20/76/4 19/77/4
f 22/78/9 28/79/9 29/80/9 19/62/9
f 31/81/10 32/82/10 33/83/10 34/84/10
f 28/85/3 27/86/3 24/87/3 23/88/3
f 35/89/10 33/90/10 32/91/10 36/92/10
f 26/93/4 25/94/4 30/95/4 29/96/4
f 26/97/9 29/98/9 28/99/9 23/100/9
f 34/101/7 21/102/7 20/76/7 31/103/7
f 31/104/4 20/63/4 30/105/4 32/106/4
f 32/107/4 30/108/4 25/109/4 36/110/4
f 36/111/8 25/112/8 24/113/8 35/114/8
f 35/115/3 24/116/3 27/117/3 33/118/3
f 33/119/3 27/120/3 21/121/3 34/122/3
f 37/123/11 38/124/11 39/125/11 40/126/11
f 41/127/12 42/128/12 43/129/12 44/130/12
f 42/131/3 38/132/3 37/133/3 43/134/3
f 40/135/4 39/136/4 41/137/4 44/138/4
f 39/125/13 38/139/13 42/140/13 41/141/13
f 43/142/14 37/143/14 40/144/14 44/145/14
f 45/146/15 46/147/15 47/148/15 48/149/15
f 49/150/16 50/151/16 51/152/16 52/153/16
f 50/154/17 46/155/17 45/156/17 51/157/17
f 48/158/18 47/159/18 49/160/18 52/161/18
f 47/148/19 46/162/19 50/163/19 49/164/19
f 51/165/20 45/166/20 48/167/20 52/168/20
