# Blender v2.79 (sub 0) OBJ File: ''
# www.blender.org
mtllib bodyrollcompactfront.mtl
o down_on
v 0.125977 0.046875 0.109375
v 0.125977 0.046875 0.203125
v 0.125977 -0.046875 0.203125
v 0.125977 -0.046875 0.109375
vt 0.437500 0.187500
vt 0.250000 0.187500
vt 0.250000 0.000000
vt 0.437500 0.000000
vn 1.0000 0.0000 0.0000
usemtl m_fb07c727-8485-b814-adb5-68da3777d93d
s 1
f 1/1/1 2/2/1 3/3/1 4/4/1
o up_on
v 0.125977 0.046875 -0.203125
v 0.125977 0.046875 -0.109375
v 0.125977 -0.046875 -0.109375
v 0.125977 -0.046875 -0.203125
vt 0.187500 0.187500
vt 0.000000 0.187500
vt 0.000000 0.000000
vt 0.187500 0.000000
vn 1.0000 0.0000 0.0000
usemtl m_fb07c727-8485-b814-adb5-68da3777d93d
s 1
f 5/5/2 6/6/2 7/7/2 8/8/2
o cube.001
v 0.109375 0.062500 -0.218750
v 0.109375 0.062500 0.218750
v 0.109375 -0.062500 0.218750
v 0.109375 -0.062500 -0.218750
v -0.015625 -0.125000 0.187500
v -0.015625 0.125000 0.187500
v -0.015625 0.125000 -0.187500
v -0.015625 -0.125000 -0.187500
v 0.125000 0.046875 -0.203125
v 0.125000 0.046875 -0.109375
v 0.125000 -0.046875 -0.109375
v 0.125000 -0.046875 -0.203125
v 0.109375 -0.046875 -0.109375
v 0.109375 0.046875 -0.109375
v 0.109375 0.046875 -0.203125
v 0.109375 -0.046875 -0.203125
v 0.125000 0.046875 0.109375
v 0.125000 0.046875 0.203125
v 0.125000 -0.046875 0.203125
v 0.125000 -0.046875 0.109375
v 0.109375 -0.046875 0.203125
v 0.109375 0.046875 0.203125
v 0.109375 0.046875 0.109375
v 0.109375 -0.046875 0.109375
v 0.125000 0.046875 -0.093750
v 0.125000 0.046875 0.093750
v 0.125000 -0.046875 0.093750
v 0.125000 -0.046875 -0.093750
v 0.109375 -0.046875 0.093750
v 0.109375 0.046875 0.093750
v 0.109375 0.046875 -0.093750
v 0.109375 -0.046875 -0.093750
vt 0.437500 0.937500
vt 0.000000 0.937500
vt 0.000000 0.812500
vt 0.437500 0.812500
vt 0.375000 0.812500
vt 0.375000 0.937500
vt 0.000000 0.937500
vt 0.000000 0.812500
vt 0.125000 0.593750
vt 0.187500 0.562500
vt 0.187500 1.000000
vt 0.125000 0.968750
vt 0.187500 0.562500
vt 0.187500 1.000000
vt 0.125000 0.968750
vt 0.125000 0.593750
vt 0.194881 0.812500
vt 0.194881 0.937500
vt 0.125000 0.937500
vt 0.125000 0.812500
vt 0.194881 0.937500
vt 0.125000 0.937500
vt 0.125000 0.812500
vt 0.194881 0.812500
vt 0.656250 0.875000
vt 0.562500 0.875000
vt 0.562500 0.781250
vt 0.656250 0.781250
vt 0.718750 0.781250
vt 0.718750 0.875000
vt 0.625000 0.875000
vt 0.625000 0.781250
vt 0.562500 0.781250
vt 0.578125 0.781250
vt 0.578125 0.875000
vt 0.562500 0.875000
vt 0.578125 0.843750
vt 0.578125 0.937500
vt 0.562500 0.937500
vt 0.562500 0.843750
vt 0.578125 0.781250
vt 0.578125 0.875000
vt 0.562500 0.875000
vt 0.562500 0.781250
vt 0.640625 0.875000
vt 0.625000 0.875000
vt 0.625000 0.781250
vt 0.640625 0.781250
vt 0.656250 0.625000
vt 0.562500 0.625000
vt 0.562500 0.531250
vt 0.656250 0.531250
vt 0.718750 0.531250
vt 0.718750 0.625000
vt 0.625000 0.625000
vt 0.625000 0.531250
vt 0.562500 0.531250
vt 0.578125 0.531250
vt 0.578125 0.625000
vt 0.562500 0.625000
vt 0.578125 0.593750
vt 0.578125 0.687500
vt 0.562500 0.687500
vt 0.562500 0.593750
vt 0.578125 0.531250
vt 0.578125 0.625000
vt 0.562500 0.625000
vt 0.562500 0.531250
vt 0.640625 0.625000
vt 0.625000 0.625000
vt 0.625000 0.531250
vt 0.640625 0.531250
vt 0.750000 0.125000
vt 0.562500 0.125000
vt 0.562500 0.031250
vt 0.750000 0.031250
vt 0.812500 0.031250
vt 0.812500 0.125000
vt 0.625000 0.125000
vt 0.625000 0.031250
vt 0.562500 0.062500
vt 0.578125 0.062500
vt 0.578125 0.250000
vt 0.562500 0.250000
vt 0.578125 0.125000
vt 0.578125 0.312500
vt 0.562500 0.312500
vt 0.562500 0.125000
vt 0.578125 0.031250
vt 0.578125 0.125000
vt 0.562500 0.125000
vt 0.562500 0.031250
vt 0.640625 0.125000
vt 0.625000 0.125000
vt 0.625000 0.031250
vt 0.640625 0.031250
vn 1.0000 0.0000 0.0000
vn -1.0000 0.0000 0.0000
vn 0.4472 0.8944 0.0000
vn 0.4472 -0.8944 -0.0000
vn -0.2425 0.0000 0.9701
vn -0.2425 0.0000 -0.9701
vn 0.0000 1.0000 0.0000
vn 0.0000 -1.0000 -0.0000
vn 0.0000 0.0000 1.0000
vn 0.0000 0.0000 -1.0000
usemtl m_fb07c727-8485-b814-adb5-68da3777d93d
s 1
f 9/9/3 10/10/3 11/11/3 12/12/3
f 13/13/4 14/14/4 15/15/4 16/16/4
f 14/17/5 10/18/5 9/19/5 15/20/5
f 12/21/6 11/22/6 13/23/6 16/24/6
f 11/25/7 10/26/7 14/27/7 13/28/7
f 15/29/8 9/30/8 12/31/8 16/32/8
f 17/33/3 18/34/3 19/35/3 20/36/3
f 21/37/4 22/38/4 23/39/4 24/40/4
f 22/41/9 18/42/9 17/43/9 23/44/9
f 20/45/10 19/46/10 21/47/10 24/48/10
f 19/49/11 18/50/11 22/51/11 21/52/11
f 23/53/12 17/54/12 20/55/12 24/56/12
f 25/57/3 26/58/3 27/59/3 28/60/3
f 29/61/4 30/62/4 31/63/4 32/64/4
f 30/65/9 26/66/9 25/67/9 31/68/9
f 28/69/10 27/70/10 29/71/10 32/72/10
f 27/73/11 26/74/11 30/75/11 29/76/11
f 31/77/12 25/78/12 28/79/12 32/80/12
f 33/81/3 34/82/3 35/83/3 36/84/3
f 37/85/4 38/86/4 39/87/4 40/88/4
f 38/89/9 34/90/9 33/91/9 39/92/9
f 36/93/10 35/94/10 37/95/10 40/96/10
f 35/97/11 34/98/11 38/99/11 37/100/11
f 39/101/12 33/102/12 36/103/12 40/104/12
o down_off
v 0.125977 0.046875 0.109375
v 0.125977 0.046875 0.203125
v 0.125977 -0.046875 0.203125
v 0.125977 -0.046875 0.109375
vt 0.437500 0.437500
vt 0.250000 0.437500
vt 0.250000 0.250000
vt 0.437500 0.250000
vn 1.0000 0.0000 0.0000
usemtl m_fb07c727-8485-b814-adb5-68da3777d93d
s 1
f 41/105/13 42/106/13 43/107/13 44/108/13
o up_off
v 0.125977 0.046875 -0.203125
v 0.125977 0.046875 -0.109375
v 0.125977 -0.046875 -0.109375
v 0.125977 -0.046875 -0.203125
vt 0.187500 0.437500
vt 0.000000 0.437500
vt 0.000000 0.250000
vt 0.187500 0.250000
vn 1.0000 0.0000 0.0000
usemtl m_fb07c727-8485-b814-adb5-68da3777d93d
s 1
f 45/109/14 46/110/14 47/111/14 48/112/14
o mount
v -0.014648 0.048828 -0.029297
v -0.014648 0.048828 0.029297
v -0.014648 -0.048828 0.029297
v -0.014648 -0.048828 -0.029297
v -0.053711 -0.048828 0.029297
v -0.053711 0.048828 0.029297
v -0.053711 0.048828 -0.029297
v -0.053711 -0.048828 -0.029297
vt 0.312500 0.250000
vt 0.000000 0.250000
vt 0.000000 0.000000
vt 0.312500 0.000000
vt 0.812500 0.000000
vt 0.812500 0.250000
vt 0.500000 0.250000
vt 0.500000 0.000000
vt 0.312500 0.062500
vt 0.312500 0.187500
vt 0.000000 0.187500
vt 0.000000 0.062500
vt 0.500000 0.062500
vt 0.812500 0.062500
vt 0.812500 0.187500
vt 0.500000 0.187500
vt 0.500000 0.937500
vt 0.437500 0.937500
vt 0.437500 0.875000
vt 0.500000 0.875000
vt 0.500000 0.937500
vt 0.437500 0.937500
vt 0.437500 0.875000
vt 0.500000 0.875000
vn 1.0000 0.0000 0.0000
vn -1.0000 0.0000 0.0000
vn 0.0000 1.0000 0.0000
vn 0.0000 -1.0000 0.0000
vn 0.0000 -0.0000 1.0000
vn 0.0000 0.0000 -1.0000
usemtl m_0
s 1
f 49/113/15 50/114/15 51/115/15 52/116/15
f 53/117/16 54/118/16 55/119/16 56/120/16
f 54/121/17 50/122/17 49/123/17 55/124/17
f 52/125/18 51/126/18 53/127/18 56/128/18
f 51/129/19 50/130/19 54/131/19 53/132/19
f 55/133/20 49/134/20 52/135/20 56/136/20
o cube
v -0.014648 0.087891 -0.058594
v -0.014648 0.087891 0.058594
v -0.014648 0.048828 0.058594
v -0.014648 0.048828 -0.058594
v -0.053711 0.048828 0.058594
v -0.053711 0.087891 0.058594
v -0.053711 0.087891 -0.058594
v -0.053711 0.048828 -0.058594
vt 0.125000 0.937500
vt 0.062500 0.937500
vt 0.062500 0.875000
vt 0.125000 0.875000
vt 0.125000 0.937500
vt 0.062500 0.937500
vt 0.062500 0.875000
vt 0.125000 0.875000
vt 0.125000 0.937500
vt 0.062500 0.875000
vt 0.125000 0.875000
vt 0.125000 0.937500
vt 0.062500 0.937500
vt 0.062500 0.875000
vt 0.125000 0.937500
vt 0.062500 0.875000
vt 0.125000 0.875000
vt 0.125000 0.937500
vt 0.062500 0.937500
vt 0.062500 0.875000
vn 1.0000 0.0000 0.0000
vn -1.0000 0.0000 0.0000
vn 0.0000 1.0000 0.0000
vn 0.0000 -1.0000 -0.0000
vn 0.0000 0.0000 1.0000
vn 0.0000 0.0000 -1.0000
usemtl m_0
s 1
f 57/137/21 58/138/21 59/139/21 60/140/21
f 61/141/22 62/142/22 63/143/22 64/144/22
f 62/145/23 58/138/23 57/146/23 63/147/23
f 60/148/24 59/149/24 61/150/24 64/144/24
f 59/151/25 58/138/25 62/152/25 61/153/25
f 63/154/26 57/155/26 60/156/26 64/144/26
o piston
v -0.024414 0.083008 -0.019531
v -0.024414 0.083008 0.019531
v -0.024414 -0.043945 0.019531
v -0.024414 -0.043945 -0.019531
v -0.043945 -0.043945 0.019531
v -0.043945 0.083008 0.019531
v -0.043945 0.083008 -0.019531
v -0.043945 -0.043945 -0.019531
vt 0.312500 0.937500
vt 0.250000 0.937500
vt 0.250000 0.875000
vt 0.312500 0.875000
vt 0.312500 0.937500
vt 0.250000 0.937500
vt 0.250000 0.875000
vt 0.312500 0.875000
vt 0.312500 0.937500
vt 0.250000 0.875000
vt 0.312500 0.875000
vt 0.312500 0.937500
vt 0.250000 0.937500
vt 0.250000 0.875000
vt 0.312500 0.937500
vt 0.250000 0.875000
vt 0.312500 0.875000
vt 0.312500 0.937500
vt 0.250000 0.937500
vt 0.250000 0.875000
vn 1.0000 0.0000 0.0000
vn -1.0000 -0.0000 0.0000
vn 0.0000 1.0000 0.0000
vn 0.0000 -1.0000 0.0000
vn 0.0000 -0.0000 1.0000
vn 0.0000 0.0000 -1.0000
usemtl none
s 1
f 65/157/27 66/158/27 67/159/27 68/160/27
f 69/161/28 70/162/28 71/163/28 72/164/28
f 70/165/29 66/158/29 65/166/29 71/167/29
f 68/168/30 67/169/30 69/170/30 72/164/30
f 67/171/31 66/158/31 70/172/31 69/173/31
f 71/174/32 65/175/32 68/176/32 72/164/32
o axle
v 0.004883 0.019531 -0.019531
v 0.004883 0.019531 0.019531
v 0.004883 -0.019531 0.019531
v 0.004883 -0.019531 -0.019531
v -0.034180 -0.019531 0.019531
v -0.034180 0.019531 0.019531
v -0.034180 0.019531 -0.019531
v -0.034180 -0.019531 -0.019531
vt 0.312500 0.937500
vt 0.250000 0.937500
vt 0.250000 0.875000
vt 0.312500 0.875000
vt 0.312500 0.937500
vt 0.250000 0.937500
vt 0.250000 0.875000
vt 0.312500 0.875000
vt 0.312500 0.937500
vt 0.250000 0.875000
vt 0.312500 0.875000
vt 0.312500 0.937500
vt 0.250000 0.937500
vt 0.250000 0.875000
vt 0.312500 0.937500
vt 0.250000 0.875000
vt 0.312500 0.875000
vt 0.312500 0.937500
vt 0.250000 0.937500
vt 0.250000 0.875000
vn 1.0000 0.0000 0.0000
vn -1.0000 0.0000 0.0000
vn 0.0000 1.0000 0.0000
vn 0.0000 -1.0000 0.0000
vn 0.0000 0.0000 1.0000
vn 0.0000 0.0000 -1.0000
usemtl m_0
s 1
f 73/177/33 74/178/33 75/179/33 76/180/33
f 77/181/34 78/182/34 79/183/34 80/184/34
f 78/185/35 74/178/35 73/186/35 79/187/35
f 76/188/36 75/189/36 77/190/36 80/184/36
f 75/191/37 74/178/37 78/192/37 77/193/37
f 79/194/38 73/195/38 76/196/38 80/184/38
