# Blender v2.79 (sub 0) OBJ File: ''
# www.blender.org
mtllib boombox.mtl
o cube
v 0.375000 0.125000 -0.031250
v 0.375000 0.312500 -0.031250
v 0.375000 0.312500 0.156250
v 0.375000 0.125000 0.156250
v -0.375000 0.125000 0.156250
v -0.375000 0.312500 0.156250
v -0.375000 0.312500 -0.031250
v -0.375000 0.125000 -0.031250
v -0.375000 0.375000 0.156250
v -0.125000 0.375000 0.156250
v -0.125000 0.375000 -0.031250
v -0.375000 0.375000 -0.031250
v -0.375000 0.000000 -0.031250
v -0.125000 0.000000 -0.031250
v -0.125000 -0.000000 0.156250
v -0.375000 -0.000000 0.156250
v -0.125000 0.125000 0.156250
v -0.125000 0.312500 0.156250
v -0.125000 0.312500 -0.031250
v -0.125000 0.125000 -0.031250
v 0.125000 0.125000 0.125000
v 0.125000 0.312500 0.125000
v -0.125000 0.312500 0.125000
v -0.125000 0.125000 0.125000
v 0.125000 0.000000 -0.031250
v 0.125000 -0.000000 0.156250
v 0.125000 0.312500 -0.031250
v 0.125000 0.125000 -0.031250
v 0.125000 0.375000 0.156250
v 0.125000 0.375000 -0.031250
v 0.125000 0.312500 0.156250
v 0.125000 0.125000 0.156250
v 0.375000 -0.000000 0.156250
v 0.375000 0.000000 -0.031250
v 0.375000 0.375000 -0.031250
v 0.375000 0.375000 0.156250
v 0.125000 0.406250 0.125000
v 0.125000 0.406250 0.062500
v 0.109375 0.453125 0.062500
v 0.109375 0.437500 0.125000
v -0.109375 0.437500 0.125000
v -0.109375 0.453125 0.062500
v -0.125000 0.406250 0.062500
v -0.125000 0.406250 0.125000
v 0.062500 0.453125 0.125000
v 0.062500 0.468750 0.062500
v -0.062500 0.468750 0.062500
v -0.062500 0.453125 0.125000
v -0.062500 0.406250 0.125000
v -0.062500 0.406250 0.062500
v 0.062500 0.406250 0.062500
v 0.062500 0.406250 0.125000
v -0.062500 0.453125 0.000000
v 0.062500 0.453125 0.000000
v 0.062500 0.406250 0.000000
v -0.062500 0.406250 0.000000
v 0.062500 0.375000 0.125000
v 0.062500 0.375000 0.062500
v 0.125000 0.375000 0.062500
v 0.125000 0.375000 0.125000
v 0.109375 0.437500 0.000000
v 0.125000 0.406250 0.000000
v -0.125000 0.406250 0.000000
v -0.109375 0.437500 0.000000
v -0.125000 0.375000 0.125000
v -0.125000 0.375000 0.062500
v -0.062500 0.375000 0.062500
v -0.062500 0.375000 0.125000
v -0.062500 0.375000 0.000000
v -0.125000 0.375000 0.000000
v 0.125000 0.375000 0.000000
v 0.062500 0.375000 0.000000
vt 0.937500 0.375000
vt 0.937500 0.562500
vt 0.750000 0.562500
vt 0.750000 0.375000
vt 0.937500 0.750000
vt 0.937500 0.937500
vt 0.750000 0.937500
vt 0.750000 0.750000
vt 0.000000 0.000000
vt 0.250000 0.000000
vt 0.250000 0.187500
vt 0.000000 0.187500
vt 0.000000 0.000000
vt 0.250000 0.000000
vt 0.250000 0.187500
vt 0.000000 0.187500
vt 0.250000 0.375000
vt 0.250000 0.562500
vt 0.000000 0.562500
vt 0.000000 0.375000
vt 0.500000 0.937500
vt 0.500000 0.750000
vt 0.500000 0.375000
vt 0.500000 0.562500
vt 0.250000 0.562500
vt 0.250000 0.375000
vt 0.500000 0.000000
vt 0.500000 0.187500
vt 0.250000 0.937500
vt 0.250000 0.750000
vt 0.500000 0.000000
vt 0.500000 0.187500
vt 0.500000 0.562500
vt 0.500000 0.375000
vt 0.750000 0.187500
vt 0.750000 0.000000
vt 0.000000 0.937500
vt 0.000000 0.750000
vt 0.750000 0.187500
vt 0.750000 0.000000
vt 0.500000 0.250000
vt 0.250000 0.250000
vt 0.000000 0.250000
vt 0.937500 0.625000
vt 0.750000 0.625000
vt 0.500000 0.625000
vt 0.250000 0.625000
vt 0.000000 0.625000
vt 0.937500 0.250000
vt 0.750000 0.250000
vt 0.250000 0.625000
vt 0.500000 0.625000
vt 0.750000 0.625000
vt 0.937500 0.625000
vt 0.000000 1.000000
vt 0.250000 1.000000
vt 0.500000 1.000000
vt 0.750000 1.000000
vt 0.937500 1.000000
vt 0.000000 0.625000
vt 0.437500 0.562500
vt 0.437500 0.375000
vt 0.250000 0.375000
vt 0.500000 0.375000
vt 0.500000 0.437500
vt 0.250000 0.437500
vt 0.312500 0.375000
vt 0.312500 0.562500
vt 0.250000 0.312500
vt 0.500000 0.312500
vt 0.875000 0.000000
vt 0.937500 0.000000
vt 0.937500 0.125000
vt 0.875000 0.125000
vt 1.000000 0.125000
vt 0.937500 0.125000
vt 0.937500 0.000000
vt 1.000000 0.000000
vt 1.000000 0.000000
vt 1.000000 0.062500
vt 0.875000 0.062500
vt 0.875000 0.000000
vt 0.875000 0.125000
vt 0.875000 0.062500
vt 1.000000 0.062500
vt 1.000000 0.125000
vt 1.000000 0.000000
vt 1.000000 0.125000
vt 0.875000 0.125000
vt 0.875000 0.000000
vt 1.000000 0.125000
vt 0.875000 0.125000
vt 0.875000 0.000000
vt 1.000000 0.000000
vt 0.937500 0.000000
vt 0.937500 0.062500
vt 0.875000 0.062500
vt 0.875000 0.000000
vt 0.937500 0.000000
vt 0.937500 0.062500
vt 0.875000 0.062500
vt 0.875000 0.000000
vt 0.875000 0.125000
vt 0.875000 0.062500
vt 0.937500 0.062500
vt 0.937500 0.125000
vt 0.937500 0.062500
vt 0.937500 0.000000
vt 1.000000 0.000000
vt 1.000000 0.062500
vt 0.937500 0.062500
vt 0.937500 0.000000
vt 1.000000 0.000000
vt 1.000000 0.062500
vt 0.937500 0.000000
vt 0.937500 0.062500
vt 0.875000 0.062500
vt 0.875000 0.000000
vt 0.937500 0.000000
vt 0.937500 0.062500
vt 0.875000 0.062500
vt 0.875000 0.000000
vt 0.875000 0.125000
vt 0.875000 0.062500
vt 0.937500 0.062500
vt 0.937500 0.125000
vt 1.000000 0.062500
vt 0.937500 0.062500
vt 0.937500 0.000000
vt 1.000000 0.000000
vt 0.875000 0.000000
vt 0.937500 0.000000
vt 0.937500 0.062500
vt 0.875000 0.062500
vt 0.875000 0.000000
vt 0.937500 0.000000
vt 0.937500 0.062500
vt 0.875000 0.062500
vt 0.875000 0.062500
vt 0.937500 0.062500
vt 0.937500 0.125000
vt 0.875000 0.125000
vt 0.875000 0.000000
vt 0.937500 0.000000
vt 0.937500 0.062500
vt 0.875000 0.062500
vt 0.875000 0.062500
vt 0.937500 0.062500
vt 0.937500 0.125000
vt 0.875000 0.125000
vt 1.000000 0.062500
vt 0.937500 0.062500
vt 0.937500 0.000000
vt 1.000000 0.000000
vt 0.875000 0.000000
vt 0.937500 0.000000
vt 0.937500 0.062500
vt 0.875000 0.062500
vt 0.875000 0.125000
vt 0.937500 0.125000
vt 0.875000 0.125000
vt 1.000000 0.125000
vt 0.937500 0.125000
vt 1.000000 0.125000
vt 1.000000 0.000000
vt 1.000000 0.062500
vt 1.000000 0.000000
vt 0.937500 0.000000
vt 0.875000 0.000000
vt 0.875000 0.062500
vt 1.000000 0.062500
vt 1.000000 0.000000
vt 0.937500 0.000000
vt 0.875000 0.000000
vt 0.875000 0.062500
vt 0.875000 0.000000
vn 1.0000 0.0000 0.0000
vn -1.0000 0.0000 0.0000
vn 0.0000 1.0000 0.0000
vn 0.0000 -1.0000 -0.0000
vn 0.0000 -0.0000 1.0000
vn 0.0000 0.0000 -1.0000
vn 0.9487 0.3162 0.0000
vn -0.9457 0.3152 0.0788
vn -0.9457 0.3153 0.0788
vn 0.0000 0.9701 0.2425
vn 0.3077 0.9231 0.2308
vn -0.3077 0.9231 0.2308
vn -0.3077 0.9231 -0.2308
vn 0.0000 0.9701 -0.2425
vn 0.3077 0.9231 -0.2308
vn 0.9457 0.3152 -0.0788
vn 0.9457 0.3153 -0.0788
vn -0.9487 0.3162 -0.0000
usemtl m_6732d60e-6df2-e942-81f5-35dc7a3c1411
s 1
f 1/1/1 2/2/1 3/3/1 4/4/1
f 5/5/2 6/6/2 7/7/2 8/8/2
f 9/9/3 10/10/3 11/11/3 12/12/3
f 13/13/4 14/14/4 15/15/4 16/16/4
f 17/17/5 18/18/5 6/19/5 5/20/5
f 8/8/6 7/7/6 19/21/6 20/22/6
f 21/23/5 22/24/5 23/25/5 24/26/5
f 14/14/4 25/27/4 26/28/4 15/15/4
f 20/22/6 19/21/6 27/29/6 28/30/6
f 10/10/3 29/31/3 30/32/3 11/11/3
f 4/4/5 3/3/5 31/33/5 32/34/5
f 33/35/4 26/28/4 25/27/4 34/36/4
f 28/30/6 27/29/6 2/37/6 1/38/6
f 35/39/3 30/32/3 29/31/3 36/40/3
f 26/41/5 32/34/5 17/17/5 15/42/5
f 15/42/5 17/17/5 5/20/5 16/43/5
f 16/44/2 5/5/2 8/8/2 13/45/2
f 13/45/6 8/8/6 20/22/6 14/46/6
f 14/46/6 20/22/6 28/30/6 25/47/6
f 25/47/6 28/30/6 1/38/6 34/48/6
f 34/49/1 1/1/1 4/4/1 33/50/1
f 33/50/5 4/4/5 32/34/5 26/41/5
f 10/51/5 18/18/5 31/33/5 29/52/5
f 29/52/5 31/33/5 3/3/5 36/53/5
f 36/53/1 3/3/1 2/2/1 35/54/1
f 35/55/6 2/37/6 27/29/6 30/56/6
f 30/56/6 27/29/6 19/21/6 11/57/6
f 11/57/6 19/21/6 7/7/6 12/58/6
f 12/58/2 7/7/2 6/6/2 9/59/2
f 9/60/5 6/19/5 18/18/5 10/51/5
f 22/61/2 21/62/2 32/34/2 31/33/2
f 23/63/4 22/64/4 31/65/4 18/66/4
f 24/67/1 23/68/1 18/18/1 17/17/1
f 21/23/3 24/26/3 17/69/3 32/70/3
f 37/71/7 38/72/7 39/73/7 40/74/7
f 41/75/8 42/76/8 43/77/8 44/78/9
f 45/79/10 46/80/10 47/81/10 48/82/10
f 49/83/4 50/84/4 51/85/4 52/86/4
f 52/87/5 45/88/5 48/89/5 49/90/5
f 53/91/6 54/92/6 55/93/6 56/94/6
f 40/95/11 39/96/11 46/97/11 45/98/11
f 37/99/5 40/100/5 45/101/5 52/102/5
f 57/103/4 58/104/4 59/105/4 60/106/4
f 61/107/6 62/108/6 55/109/6 54/110/6
f 41/111/5 44/112/5 49/113/5 48/114/5
f 48/115/12 47/116/12 42/117/12 41/118/12
f 63/119/6 64/120/6 53/121/6 56/122/6
f 65/123/4 66/124/4 67/125/4 68/126/4
f 44/127/2 43/128/2 66/129/2 65/130/2
f 69/131/6 70/132/6 63/133/6 56/134/6
f 68/135/1 67/136/1 50/137/1 49/138/1
f 65/139/5 68/140/5 49/141/5 44/142/5
f 60/143/1 59/144/1 38/145/1 37/146/1
f 57/147/5 60/148/5 37/149/5 52/150/5
f 52/151/2 51/152/2 58/153/2 57/154/2
f 71/155/6 72/156/6 55/157/6 62/158/6
f 64/159/13 42/117/13 47/116/13 53/160/13
f 53/161/14 47/81/14 46/80/14 54/162/14
f 54/92/15 46/97/15 39/96/15 61/163/15
f 61/164/16 39/73/16 38/72/16 62/165/17
f 62/166/1 38/145/1 59/144/1 71/167/1
f 71/168/4 59/105/4 58/104/4 72/169/4
f 72/169/2 58/153/2 51/152/2 55/170/2
f 55/109/4 51/85/4 50/84/4 56/122/4
f 56/171/1 50/137/1 67/136/1 69/172/1
f 69/173/4 67/125/4 66/124/4 70/174/4
f 70/174/2 66/129/2 43/128/2 63/175/2
f 63/176/18 43/77/18 42/76/18 64/159/18
o lid
v -0.125000 0.312500 0.156250
v -0.125000 0.218750 0.156250
v 0.125000 0.218750 0.156250
v 0.125000 0.312500 0.156250
v 0.125000 0.218750 0.125000
v 0.125000 0.312500 0.125000
v -0.125000 0.312500 0.125000
v -0.125000 0.218750 0.125000
v 0.125000 0.125000 0.156250
v -0.125000 0.125000 0.156250
v -0.125000 0.125000 0.125000
v 0.125000 0.125000 0.125000
vt 0.250000 0.687500
vt 0.250000 0.781250
vt 0.500000 0.781250
vt 0.500000 0.687500
vt 0.437500 0.687500
vt 0.437500 0.781250
vt 0.500000 0.781250
vt 0.500000 0.687500
vt 0.250000 0.906250
vt 0.500000 0.906250
vt 0.500000 0.843750
vt 0.250000 0.843750
vt 0.250000 0.687500
vt 0.250000 0.781250
vt 0.312500 0.781250
vt 0.312500 0.687500
vt 0.500000 0.843750
vt 0.250000 0.843750
vt 0.250000 0.906250
vt 0.500000 0.906250
vt 0.250000 0.687500
vt 0.250000 0.781250
vt 0.500000 0.781250
vt 0.500000 0.687500
vt 0.500000 0.937500
vt 0.500000 0.843750
vt 0.250000 0.843750
vt 0.250000 0.937500
vt 0.312500 0.937500
vt 0.312500 0.843750
vt 0.250000 0.843750
vt 0.250000 0.937500
vt 0.500000 0.937500
vt 0.500000 0.843750
vt 0.250000 0.843750
vt 0.250000 0.937500
vt 0.500000 0.937500
vt 0.500000 0.843750
vt 0.437500 0.843750
vt 0.437500 0.937500
vn 0.0000 0.0000 1.0000
vn 1.0000 0.0000 0.0000
vn 0.0000 1.0000 0.0000
vn -1.0000 0.0000 0.0000
vn 0.0000 -1.0000 0.0000
vn 0.0000 0.0000 -1.0000
usemtl m_6732d60e-6df2-e942-81f5-35dc7a3c1411
s 1
f 73/177/19 74/178/19 75/179/19 76/180/19
f 76/181/20 75/182/20 77/183/20 78/184/20
f 73/185/21 76/186/21 78/187/21 79/188/21
f 79/189/22 80/190/22 74/191/22 73/192/22
f 81/193/23 82/194/23 83/195/23 84/196/23
f 78/197/24 77/198/24 80/199/24 79/200/24
f 81/201/19 75/202/19 74/203/19 82/204/19
f 82/205/22 74/206/22 80/207/22 83/208/22
f 83/209/24 80/210/24 77/211/24 84/212/24
f 84/213/20 77/214/20 75/215/20 81/216/20
