# Blender v2.79 (sub 0) OBJ File: ''
# www.blender.org
mtllib bow.mtl
o cube
v 0.546875 -0.000000 0.546875
v 0.546875 0.000000 0.000000
v 0.328125 0.218750 0.000000
v 0.328125 0.218750 0.328125
v -0.328125 0.218750 0.328125
v -0.328125 0.218750 0.000000
v -0.546875 0.000000 0.000000
v -0.546875 -0.000000 0.546875
v 0.000000 0.218750 0.328125
v 0.000000 0.218750 0.000000
v 0.000000 0.000000 0.000000
v 0.000000 -0.000000 0.546875
v -0.328125 0.218750 -0.328125
v 0.000000 0.218750 -0.328125
v 0.000000 0.000000 -0.546875
v -0.546875 0.000000 -0.546875
v 0.328125 0.218750 -0.328125
v 0.546875 0.000000 -0.546875
v 1.082757 -0.000000 1.082757
v 1.082757 1.531250 1.082757
v -1.082757 1.531250 -1.082757
v -1.082757 0.000000 -1.082757
v -1.082757 1.531250 -1.082757
v 1.082757 1.531250 1.082757
v 1.082757 -0.000000 1.082757
v -1.082757 0.000000 -1.082757
v 1.082757 0.000000 -1.082757
v 1.082757 1.531250 -1.082757
v -1.082757 1.531250 1.082757
v -1.082757 -0.000000 1.082757
v -1.082757 1.531250 1.082757
v 1.082757 1.531250 -1.082757
v 1.082757 0.000000 -1.082757
v -1.082757 -0.000000 1.082757
v 1.750000 -0.027344 0.164063
v 1.750000 -0.027344 0.710938
v 1.750000 -0.136719 0.710938
v 1.750000 -0.136719 0.164063
v -1.750000 -0.136719 0.710938
v -1.750000 -0.027344 0.710938
v -1.750000 -0.027344 0.164063
v -1.750000 -0.136719 0.164063
v -0.601563 0.109375 0.382813
v 0.000000 0.109375 0.273438
v 0.000000 0.109375 -0.273438
v -0.601563 0.109375 -0.164063
v -0.601563 0.000000 -0.164063
v 0.000000 0.000000 -0.273438
v 0.000000 -0.000000 0.273438
v -0.601563 -0.000000 0.382813
v 1.203125 0.136719 0.492188
v 1.203125 0.136719 -0.054687
v 0.601563 0.109375 -0.164063
v 0.601563 0.109375 0.382813
v 1.203125 0.027344 0.492188
v 0.601563 -0.000000 0.382813
v 1.203125 0.027344 -0.054688
v 0.601563 0.000000 -0.164063
v -1.203125 0.136719 0.492188
v -1.203125 0.027344 0.492188
v -1.203125 0.136719 -0.054687
v -1.203125 0.027344 -0.054688
vt 0.187500 0.135725
vt 0.500000 0.135725
vt 0.500000 0.312500
vt 0.312500 0.312500
vt 0.687500 0.375000
vt 0.500000 0.375000
vt 0.500000 0.198225
vt 0.812500 0.198225
vt 0.625000 0.000000
vt 0.812500 0.000000
vt 0.812500 0.187500
vt 0.625000 0.187500
vt 0.500000 0.000000
vt 0.812500 0.000000
vt 0.812500 0.312500
vt 0.500000 0.312500
vt 0.187500 0.135725
vt 0.500000 0.135725
vt 0.500000 0.312500
vt 0.312500 0.312500
vt 0.687500 0.250000
vt 0.500000 0.250000
vt 0.500000 0.073225
vt 0.812500 0.073225
vt 0.000000 0.000000
vt 0.312500 0.000000
vt 0.312500 0.312500
vt 0.000000 0.312500
vt 0.187500 0.198225
vt 0.312500 0.375000
vt 0.812500 0.375000
vt 0.625000 0.375000
vt 0.687500 0.312500
vt 0.812500 0.135725
vt 0.500000 0.500000
vt 0.187500 0.500000
vt 0.187500 0.187500
vt 0.500000 0.187500
vt 0.187500 0.073225
vt 0.312500 0.250000
vt 1.000000 0.375000
vt 1.000000 0.187500
vt 1.000000 0.000000
vt 0.687500 0.312500
vt 0.812500 0.135725
vt 1.000000 0.500000
vt 0.687500 0.500000
vt 0.687500 0.187500
vt 1.000000 0.187500
vt 1.000000 0.500000
vt 1.000000 1.000000
vt 0.000000 1.000000
vt 0.000000 0.500000
vt 1.000000 1.000000
vt 0.000000 1.000000
vt 0.000000 0.500000
vt 1.000000 0.500000
vt 1.000000 0.500000
vt 1.000000 1.000000
vt 0.000000 1.000000
vt 0.000000 0.500000
vt 1.000000 1.000000
vt 0.000000 1.000000
vt 0.000000 0.500000
vt 1.000000 0.500000
vt 0.781250 0.263763
vt 0.468750 0.263763
vt 0.468750 0.201263
vt 0.781250 0.201263
vt 0.593750 0.201263
vt 0.593750 0.263763
vt 0.281250 0.263763
vt 0.281250 0.201263
vt 0.343750 0.013763
vt 0.687500 0.076262
vt 0.687500 0.388763
vt 0.343750 0.326263
vt 0.281250 0.076262
vt 0.625000 0.013763
vt 0.625000 0.326263
vt 0.281250 0.388763
vt 0.218750 0.138763
vt 0.568138 0.138763
vt 0.568138 0.201263
vt 0.218750 0.201263
vt 0.818138 0.201263
vt 0.468750 0.201263
vt 0.468750 0.138763
vt 0.818138 0.138763
vt 0.468750 0.451263
vt 0.156250 0.451263
vt 0.093750 0.107156
vt 0.406250 0.107156
vt 0.505638 0.263763
vt 0.505638 0.326263
vt 0.156250 0.310638
vt 0.156250 0.248138
vt 0.906250 0.451263
vt 0.593750 0.451263
vt 0.656250 0.107156
vt 0.968750 0.107156
vt 0.468750 0.326263
vt 0.468750 0.263763
vt 0.818131 0.248138
vt 0.818131 0.310638
vt 0.468750 0.326263
vt 0.468750 0.263763
vt 0.818138 0.248138
vt 0.818138 0.310638
vt 0.906250 0.451263
vt 0.593750 0.451263
vt 0.656250 0.107156
vt 0.968750 0.107156
vt 0.505631 0.263763
vt 0.505631 0.326263
vt 0.156250 0.310638
vt 0.156250 0.248138
vt 0.968750 0.388763
vt 0.656250 0.388763
vt 0.593750 0.044656
vt 0.906250 0.044656
vt 0.531250 0.000000
vt 0.843750 0.000000
vt 0.968750 0.326263
vt 0.656250 0.326263
vt 0.430325 0.170013
vt 0.430325 0.232513
vt 0.093750 0.326263
vt 0.093750 0.263763
vt 0.218750 0.000006
vt 0.531250 0.000006
vt 0.406250 0.326263
vt 0.093750 0.326263
vt 0.406250 0.232513
vt 0.406250 0.170013
vt 0.742825 0.263763
vt 0.742825 0.326263
vt 0.343750 0.232513
vt 0.343750 0.170013
vt 0.680325 0.263763
vt 0.680325 0.326263
vt 0.218750 0.000000
vt 0.531250 0.000000
vt 0.406250 0.326263
vt 0.093750 0.326263
vt 0.555325 0.170013
vt 0.555325 0.232513
vt 0.218750 0.326263
vt 0.218750 0.263763
vt 0.031250 0.125006
vt 0.343750 0.125006
vt 0.468750 0.451263
vt 0.156250 0.451263
vt 0.750000 0.388763
vt 0.406250 0.326263
vt 0.406250 0.013763
vt 0.750000 0.076262
vt 0.218750 0.138763
vt 0.568138 0.138763
vt 0.568138 0.201263
vt 0.218750 0.201263
vt 0.812500 0.326263
vt 0.468750 0.388763
vt 0.468750 0.076262
vt 0.812500 0.013763
vt 0.755638 0.201263
vt 0.406250 0.201263
vt 0.406250 0.138763
vt 0.755638 0.138763
vn 0.7071 0.7071 0.0000
vn -0.7071 0.7071 0.0000
vn 0.0000 1.0000 0.0000
vn 0.0000 -1.0000 -0.0000
vn 0.0000 0.7071 0.7071
vn 0.0000 0.7071 -0.7071
vn -0.7071 -0.0000 0.7071
vn 0.7071 0.0000 -0.7071
vn 0.7071 -0.0000 0.7071
vn -0.7071 0.0000 -0.7071
vn 1.0000 0.0000 0.0000
vn -1.0000 0.0000 0.0000
vn 0.1789 0.0000 0.9839
vn -0.1789 0.0000 -0.9839
vn -0.0454 0.9990 0.0000
vn -0.1789 0.0000 0.9839
vn 0.0454 -0.9990 -0.0000
vn 0.1789 0.0000 -0.9839
vn 0.0454 0.9990 0.0000
vn -0.0454 -0.9990 -0.0000
vn 0.2873 0.9578 0.0000
vn -0.3714 0.0000 0.9285
vn -0.2873 -0.9578 -0.0000
vn 0.3714 -0.0000 -0.9285
vn 0.3714 0.0000 0.9285
vn -0.2873 0.9578 0.0000
vn -0.3714 -0.0000 -0.9285
vn 0.2873 -0.9578 -0.0000
usemtl m_0
s 1
f 1/1/1 2/2/1 3/3/1 4/4/1
f 5/5/2 6/6/2 7/7/2 8/8/2
f 5/9/3 9/10/3 10/11/3 6/12/3
f 7/13/4 11/14/4 12/15/4 8/16/4
f 8/17/5 12/18/5 9/19/5 5/20/5
f 13/21/6 14/22/6 15/23/6 16/24/6
f 16/25/4 15/26/4 11/27/4 7/28/4
f 16/29/2 7/7/2 6/6/2 13/30/2
f 6/12/3 10/11/3 14/31/3 13/32/3
f 17/33/1 3/3/1 2/2/1 18/34/1
f 2/35/4 11/36/4 15/37/4 18/38/4
f 18/39/6 15/23/6 14/22/6 17/40/6
f 17/41/3 14/31/3 10/11/3 3/42/3
f 3/42/3 10/11/3 9/10/3 4/43/3
f 4/44/5 9/19/5 12/18/5 1/45/5
f 1/46/4 12/47/4 11/48/4 2/49/4
f 19/50/7 20/51/7 21/52/7 22/53/7
f 23/54/8 24/55/8 25/56/8 26/57/8
f 27/58/9 28/59/9 29/60/9 30/61/9
f 31/62/10 32/63/10 33/64/10 34/65/10
f 35/66/11 36/67/11 37/68/11 38/69/11
f 39/70/12 40/71/12 41/72/12 42/73/12
f 43/74/3 44/75/3 45/76/3 46/77/3
f 47/78/4 48/79/4 49/80/4 50/81/4
f 50/82/13 49/83/13 44/84/13 43/85/13
f 46/86/14 45/87/14 48/88/14 47/89/14
f 51/90/15 52/91/15 53/92/15 54/93/15
f 55/94/16 51/95/16 54/96/16 56/97/16
f 57/98/17 55/99/17 56/100/17 58/101/17
f 52/102/18 57/103/18 58/104/18 53/105/18
f 59/106/13 60/107/13 50/108/13 43/109/13
f 61/110/19 59/111/19 43/112/19 46/113/19
f 62/114/14 61/115/14 46/116/14 47/117/14
f 60/118/20 62/119/20 47/120/20 50/121/20
f 36/122/21 35/123/21 52/124/21 51/125/21
f 37/126/22 36/127/22 51/128/22 55/129/22
f 38/130/23 37/131/23 55/132/23 57/133/23
f 35/134/24 38/135/24 57/136/24 52/137/24
f 40/138/25 39/139/25 60/140/25 59/141/25
f 41/142/26 40/143/26 59/144/26 61/145/26
f 42/146/27 41/147/27 61/148/27 62/149/27
f 39/150/28 42/151/28 62/152/28 60/153/28
f 56/154/4 49/155/4 48/156/4 58/157/4
f 58/158/18 48/159/18 45/160/18 53/161/18
f 53/162/3 45/163/3 44/164/3 54/165/3
f 54/166/16 44/167/16 49/168/16 56/169/16
