# Blender v2.79 (sub 0) OBJ File: ''
# www.blender.org
mtllib briefcase.mtl
o lid
v -0.375000 0.000000 0.078125
v 0.375000 0.000000 0.078125
v 0.375000 0.500000 0.078125
v -0.375000 0.500000 0.078125
v -0.375000 0.000000 0.015625
v -0.375000 0.500000 0.015625
v 0.375000 0.000000 0.015625
v 0.375000 0.500000 0.015625
v -0.298154 0.103777 0.078906
v 0.049745 0.247881 0.078906
v 0.013270 0.335938 0.078906
v -0.334628 0.191834 0.078906
v -0.298154 0.103777 0.077344
v -0.334628 0.191834 0.077344
v 0.049745 0.247881 0.077344
v 0.013270 0.335938 0.077344
vt 0.000000 0.750000
vt 0.375000 0.750000
vt 0.375000 1.000000
vt 0.000000 1.000000
vt 0.812500 0.437500
vt 0.843750 0.437500
vt 0.843750 0.687500
vt 0.812500 0.687500
vt 0.000000 0.468750
vt 0.375000 0.468750
vt 0.375000 0.718750
vt 0.000000 0.718750
vt 0.875000 0.437500
vt 0.906250 0.437500
vt 0.906250 0.687500
vt 0.875000 0.687500
vt 0.562500 0.343750
vt 0.187500 0.343750
vt 0.187500 0.312500
vt 0.562500 0.312500
vt 0.562500 0.250000
vt 0.187500 0.250000
vt 0.187500 0.281250
vt 0.562500 0.281250
vt 0.218750 0.031250
vt 0.968750 0.031250
vt 0.968750 0.218750
vt 0.218750 0.218750
vt 0.218750 0.031250
vt 0.968750 0.031250
vt 0.968750 0.218750
vt 0.218750 0.218750
vt 0.218750 0.031250
vt 0.968750 0.031250
vt 0.968750 0.218750
vt 0.218750 0.218750
vt 0.218750 0.031250
vt 0.968750 0.031250
vt 0.968750 0.218750
vt 0.218750 0.218750
vt 0.218750 0.031250
vt 0.968750 0.031250
vt 0.968750 0.218750
vt 0.218750 0.218750
vn 0.0000 0.0000 1.0000
vn -1.0000 0.0000 0.0000
vn -0.0000 -0.0000 -1.0000
vn 1.0000 -0.0000 0.0000
vn 0.0000 1.0000 0.0000
vn 0.0000 -1.0000 0.0000
vn -0.9239 -0.3827 0.0000
vn 0.9239 0.3827 0.0000
vn -0.3827 0.9239 0.0000
vn 0.3827 -0.9239 0.0000
usemtl m_fecef12d-f457-3d63-6552-b7fbed0328f4
s 1
f 1/1/1 2/2/1 3/3/1 4/4/1
f 5/5/2 1/6/2 4/7/2 6/8/2
f 7/9/3 5/10/3 6/11/3 8/12/3
f 2/13/4 7/14/4 8/15/4 3/16/4
f 8/17/5 6/18/5 4/19/5 3/20/5
f 2/21/6 1/22/6 5/23/6 7/24/6
f 9/25/1 10/26/1 11/27/1 12/28/1
f 13/29/7 9/30/7 12/31/7 14/32/7
f 15/33/3 13/34/3 14/35/3 16/36/3
f 10/37/8 15/38/8 16/39/8 11/40/8
f 16/41/9 14/42/9 12/31/9 11/40/9
f 10/37/10 9/30/10 13/43/10 15/44/10
o cube
v -0.375000 0.000000 0.015625
v 0.375000 0.000000 0.015625
v 0.375000 0.500000 0.015625
v -0.375000 0.500000 0.015625
v -0.375000 -0.000000 -0.109375
v -0.375000 0.500000 -0.109375
v 0.375000 -0.000000 -0.109375
v 0.375000 0.500000 -0.109375
v -0.125000 0.500000 0.015625
v 0.125000 0.500000 0.015625
v 0.125000 0.625000 0.015625
v -0.125000 0.625000 0.015625
v -0.125000 0.500000 -0.046875
v -0.125000 0.625000 -0.046875
v 0.125000 0.500000 -0.046875
v 0.125000 0.625000 -0.046875
vt 0.406250 0.750000
vt 0.781250 0.750000
vt 0.781250 1.000000
vt 0.406250 1.000000
vt 0.000000 0.093750
vt 0.062500 0.093750
vt 0.062500 0.343750
vt 0.000000 0.343750
vt 0.406250 0.468750
vt 0.781250 0.468750
vt 0.781250 0.718750
vt 0.406250 0.718750
vt 0.093750 0.093750
vt 0.156250 0.093750
vt 0.156250 0.343750
vt 0.093750 0.343750
vt 0.375000 0.437500
vt 0.000000 0.437500
vt 0.000000 0.375000
vt 0.375000 0.375000
vt 0.781250 0.375000
vt 0.406250 0.375000
vt 0.406250 0.437500
vt 0.781250 0.437500
vt 0.812500 0.906250
vt 0.937500 0.906250
vt 0.937500 0.968750
vt 0.812500 0.968750
vt 0.875000 0.718750
vt 0.906250 0.718750
vt 0.906250 0.781250
vt 0.875000 0.781250
vt 0.812500 0.812500
vt 0.937500 0.812500
vt 0.937500 0.875000
vt 0.812500 0.875000
vt 0.812500 0.718750
vt 0.843750 0.718750
vt 0.843750 0.781250
vt 0.812500 0.781250
vt 0.937500 0.781250
vt 0.937500 0.656250
vt 0.968750 0.656250
vt 0.968750 0.781250
vt 0.968750 0.625000
vt 0.968750 0.500000
vt 0.937500 0.500000
vt 0.937500 0.625000
vn 0.0000 0.0000 1.0000
vn -1.0000 0.0000 0.0000
vn -0.0000 -0.0000 -1.0000
vn 1.0000 0.0000 -0.0000
vn 0.0000 1.0000 0.0000
vn 0.0000 -1.0000 0.0000
usemtl m_fecef12d-f457-3d63-6552-b7fbed0328f4
s 1
f 17/45/11 18/46/11 19/47/11 20/48/11
f 21/49/12 17/50/12 20/51/12 22/52/12
f 23/53/13 21/54/13 22/55/13 24/56/13
f 18/57/14 23/58/14 24/59/14 19/60/14
f 24/61/15 22/62/15 20/63/15 19/64/15
f 18/65/16 17/66/16 21/67/16 23/68/16
f 25/69/11 26/70/11 27/71/11 28/72/11
f 29/73/12 25/74/12 28/75/12 30/76/12
f 31/77/13 29/78/13 30/79/13 32/80/13
f 26/81/14 31/82/14 32/83/14 27/84/14
f 32/85/15 30/86/15 28/87/15 27/88/15
f 26/89/16 25/90/16 29/91/16 31/92/16
