# Blender v2.79 (sub 0) OBJ File: ''
# www.blender.org
mtllib caine_hood_cut.mtl
o $Hood_Cut
v 0.343750 0.181641 -1.250000
v 0.343750 0.181638 -0.750000
v 0.562500 0.156248 -0.750000
v 0.562500 0.156250 -1.250000
v 0.562500 0.093750 -1.250000
v 0.562500 0.093748 -0.750000
v 0.343750 0.119138 -0.750000
v 0.343750 0.119141 -1.250000
v -0.250000 0.090818 -0.296875
v -0.250000 0.031248 0.000000
v 0.250000 0.031248 0.000000
v 0.250000 0.090818 -0.296875
v 0.250000 0.028318 -0.296875
v 0.250000 -0.031252 0.000000
v -0.250000 -0.031252 0.000000
v -0.250000 0.028318 -0.296875
v 0.343750 0.181638 -0.750000
v 0.343750 0.021482 0.000000
v 0.562500 -0.000002 0.000000
v 0.562500 0.156248 -0.750000
v 0.562500 0.093748 -0.750000
v 0.562500 -0.062502 0.000000
v 0.343750 -0.041018 0.000000
v 0.343750 0.119138 -0.750000
v -0.562500 0.156250 -1.250000
v -0.562500 0.156248 -0.750000
v -0.343750 0.181638 -0.750000
v -0.343750 0.181641 -1.250000
v -0.343750 0.119141 -1.250000
v -0.343750 0.119138 -0.750000
v -0.562500 0.093748 -0.750000
v -0.562500 0.093750 -1.250000
v -0.562500 0.156248 -0.750000
v -0.562500 -0.000002 0.000000
v -0.343750 0.021482 0.000000
v -0.343750 0.181638 -0.750000
v -0.343750 0.119138 -0.750000
v -0.343750 -0.041018 0.000000
v -0.562500 -0.062502 0.000000
v -0.562500 0.093748 -0.750000
v 0.250000 0.090818 -0.296875
v 0.250000 0.031248 0.000000
v 0.343750 0.021482 0.000000
v 0.343750 0.084959 -0.296875
v 0.343750 0.022459 -0.296875
v 0.343750 -0.041018 0.000000
v 0.250000 -0.031252 0.000000
v 0.250000 0.028318 -0.296875
v -0.343750 0.084959 -0.296875
v -0.343750 0.021482 0.000000
v -0.250000 0.031248 0.000000
v -0.250000 0.090818 -0.296875
v -0.250000 0.028318 -0.296875
v -0.250000 -0.031252 0.000000
v -0.343750 -0.041018 0.000000
v -0.343750 0.022459 -0.296875
vt 0.152344 0.897461
vt 0.167969 0.897461
vt 0.167969 0.904297
vt 0.152344 0.904297
vt 0.167969 0.894531
vt 0.183594 0.894531
vt 0.183594 0.904297
vt 0.167969 0.904297
vt 0.167969 0.894531
vt 0.152344 0.894531
vt 0.152344 0.892578
vt 0.167969 0.892578
vt 0.193359 0.894531
vt 0.177734 0.894531
vt 0.177734 0.892578
vt 0.193359 0.892578
vt 0.142578 0.894531
vt 0.142578 0.892578
vt 0.197297 0.888703
vt 0.220672 0.888703
vt 0.220672 0.904266
vt 0.197297 0.904266
vt 0.220703 0.888672
vt 0.244141 0.888672
vt 0.244141 0.904297
vt 0.220703 0.904297
vt 0.197266 0.886719
vt 0.220703 0.886719
vt 0.259766 0.888672
vt 0.236328 0.888672
vt 0.236328 0.886719
vt 0.259766 0.886719
vt 0.181641 0.888672
vt 0.181641 0.886719
vt 0.820343 0.897491
vt 0.843719 0.897491
vt 0.843719 0.904266
vt 0.820343 0.904266
vt 0.843750 0.894531
vt 0.867188 0.894531
vt 0.867188 0.904297
vt 0.843750 0.904297
vt 0.843750 0.894531
vt 0.820312 0.894531
vt 0.820312 0.892578
vt 0.843750 0.892578
vt 0.876953 0.894531
vt 0.853516 0.894531
vt 0.853516 0.892578
vt 0.876953 0.892578
vt 0.810547 0.894531
vt 0.810547 0.892578
vt 0.261719 0.878906
vt 0.277344 0.878906
vt 0.277344 0.888672
vt 0.261719 0.888672
vt 0.277344 0.878906
vt 0.292969 0.878906
vt 0.292969 0.888672
vt 0.277344 0.888672
vt 0.261719 0.876953
vt 0.277344 0.876953
vt 0.302734 0.878906
vt 0.287109 0.878906
vt 0.287109 0.876953
vt 0.302734 0.876953
vt 0.251953 0.878906
vt 0.251953 0.876953
vt 0.709015 0.878937
vt 0.732391 0.878937
vt 0.732391 0.888641
vt 0.709015 0.888641
vt 0.732422 0.878906
vt 0.755859 0.878906
vt 0.755859 0.888672
vt 0.732422 0.888672
vt 0.708984 0.876953
vt 0.732422 0.876953
vt 0.765625 0.878906
vt 0.742188 0.878906
vt 0.742188 0.876953
vt 0.765625 0.876953
vt 0.699219 0.878906
vt 0.699219 0.876953
vt 0.820343 0.894562
vt 0.843719 0.894562
vt 0.843719 0.897431
vt 0.820343 0.897431
vt 0.843750 0.894531
vt 0.867188 0.894531
vt 0.867188 0.904297
vt 0.843750 0.904297
vt 0.843750 0.894531
vt 0.820312 0.894531
vt 0.820312 0.892578
vt 0.843750 0.892578
vt 0.876953 0.894531
vt 0.853516 0.894531
vt 0.853516 0.892578
vt 0.876953 0.892578
vt 0.810547 0.894531
vt 0.810547 0.892578
vt 0.709045 0.878967
vt 0.732360 0.878967
vt 0.732360 0.888611
vt 0.709045 0.888611
vt 0.732422 0.878906
vt 0.755859 0.878906
vt 0.755859 0.888672
vt 0.732422 0.888672
vt 0.732422 0.878906
vt 0.708984 0.878906
vt 0.708984 0.876953
vt 0.732422 0.876953
vt 0.765625 0.878906
vt 0.742188 0.878906
vt 0.742188 0.876953
vt 0.765625 0.876953
vt 0.699219 0.878906
vt 0.699219 0.876953
vn 0.1153 0.9933 0.0000
vn -0.1153 -0.9933 -0.0000
vn -1.0000 0.0000 0.0000
vn 1.0000 0.0000 0.0000
vn 0.0000 0.0000 1.0000
vn 0.0000 0.0000 -1.0000
vn 0.0000 0.9805 0.1967
vn 0.0000 -0.9805 -0.1967
vn 0.0956 0.9735 0.2079
vn -0.0957 -0.9745 -0.2030
vn -0.1153 0.9933 0.0000
vn 0.1153 -0.9933 -0.0000
vn -0.0957 0.9745 0.2030
vn 0.0956 -0.9735 -0.2079
vn 0.1016 0.9754 0.1957
vn -0.1013 -0.9729 -0.2080
vn -0.1013 0.9729 0.2080
vn 0.1016 -0.9754 -0.1957
usemtl m_4b5b351d-6699-a9a1-3a9c-29dde5c70bd7
s 1
f 1/1/1 2/2/1 3/3/1 4/4/1
f 5/5/2 6/6/2 7/7/2 8/8/2
f 2/9/3 1/10/3 8/11/3 7/12/3
f 4/13/4 3/14/4 6/15/4 5/16/4
f 3/14/5 2/9/5 7/12/5 6/15/5
f 1/10/6 4/17/6 5/18/6 8/11/6
f 9/19/7 10/20/7 11/21/7 12/22/7
f 13/23/8 14/24/8 15/25/8 16/26/8
f 10/20/3 9/19/3 16/27/3 15/28/3
f 12/29/4 11/30/4 14/31/4 13/32/4
f 11/30/5 10/20/5 15/28/5 14/31/5
f 9/19/6 12/33/6 13/34/6 16/27/6
f 17/35/9 18/36/9 19/37/9 20/38/9
f 21/39/10 22/40/10 23/41/10 24/42/10
f 18/43/3 17/44/3 24/45/3 23/46/3
f 20/47/4 19/48/4 22/49/4 21/50/4
f 19/48/5 18/43/5 23/46/5 22/49/5
f 17/44/6 20/51/6 21/52/6 24/45/6
f 25/53/11 26/54/11 27/55/11 28/56/11
f 29/57/12 30/58/12 31/59/12 32/60/12
f 26/54/3 25/53/3 32/61/3 31/62/3
f 28/63/4 27/64/4 30/65/4 29/66/4
f 27/64/5 26/54/5 31/62/5 30/65/5
f 25/53/6 28/67/6 29/68/6 32/61/6
f 33/69/13 34/70/13 35/71/13 36/72/13
f 37/73/14 38/74/14 39/75/14 40/76/14
f 34/70/3 33/69/3 40/77/3 39/78/3
f 36/79/4 35/80/4 38/81/4 37/82/4
f 35/80/5 34/70/5 39/78/5 38/81/5
f 33/69/6 36/83/6 37/84/6 40/77/6
f 41/85/15 42/86/15 43/87/15 44/88/15
f 45/89/16 46/90/16 47/91/16 48/92/16
f 42/93/3 41/94/3 48/95/3 47/96/3
f 44/97/4 43/98/4 46/99/4 45/100/4
f 43/98/5 42/93/5 47/96/5 46/99/5
f 41/94/6 44/101/6 45/102/6 48/95/6
f 49/103/17 50/104/17 51/105/17 52/106/17
f 53/107/18 54/108/18 55/109/18 56/110/18
f 50/111/3 49/112/3 56/113/3 55/114/3
f 52/115/4 51/116/4 54/117/4 53/118/4
f 51/116/5 50/111/5 55/114/5 54/117/5
f 49/112/6 52/119/6 53/120/6 56/113/6
