# Blender v2.79 (sub 0) OBJ File: ''
# www.blender.org
mtllib caine_hood_scoop.mtl
o $Hood_Scoop
v 0.187500 0.031248 -0.210938
v 0.187500 0.031248 0.000000
v 0.250000 0.031248 0.000000
v 0.250000 0.078123 -0.226562
v 0.250000 0.031248 -0.226562
v 0.250000 -0.031252 -0.000000
v 0.187500 -0.031252 -0.000000
v 0.187500 -0.000002 -0.210938
v -0.250000 0.187498 -0.750000
v -0.250000 0.093748 -0.117188
v 0.250000 0.093748 -0.117188
v 0.250000 0.187498 -0.750000
v 0.250000 0.124998 -0.750000
v 0.250000 0.078123 -0.226562
v -0.250000 0.078123 -0.226562
v -0.250000 0.124998 -0.750000
v 0.250000 0.187498 -0.750000
v 0.250000 0.093748 -0.117188
v 0.562500 0.046873 -0.226562
v 0.562500 0.156248 -0.750000
v 0.562500 0.093748 -0.750000
v 0.562500 -0.015627 -0.226562
v 0.250000 0.078123 -0.226562
v 0.250000 0.124998 -0.750000
v -0.562500 0.156248 -0.750000
v -0.562500 0.046873 -0.226562
v -0.250000 0.093748 -0.117188
v -0.250000 0.187498 -0.750000
v -0.250000 0.124998 -0.750000
v -0.250000 0.078123 -0.226562
v -0.562500 -0.015627 -0.226562
v -0.562500 0.093748 -0.750000
v -0.250000 0.187500 -1.250000
v -0.250000 0.187498 -0.750000
v 0.250000 0.187498 -0.750000
v 0.250000 0.187500 -1.250000
v 0.250000 0.125000 -1.250000
v 0.250000 0.124998 -0.750000
v -0.250000 0.124998 -0.750000
v -0.250000 0.125000 -1.250000
v 0.250000 0.187500 -1.250000
v 0.250000 0.187498 -0.750000
v 0.562500 0.156248 -0.750000
v 0.562500 0.156250 -1.250000
v 0.562500 0.093750 -1.250000
v 0.562500 0.093748 -0.750000
v 0.250000 0.124998 -0.750000
v 0.250000 0.125000 -1.250000
v 0.250000 0.078123 -0.226562
v 0.250000 0.031248 0.000000
v 0.562500 0.046873 -0.226562
v 0.562500 -0.015627 -0.226562
v 0.562500 -0.062502 -0.000000
v 0.250000 -0.031252 -0.000000
v 0.250000 0.031248 -0.226562
v -0.562500 0.156250 -1.250000
v -0.562500 0.156248 -0.750000
v -0.250000 0.187498 -0.750000
v -0.250000 0.187500 -1.250000
v -0.250000 0.125000 -1.250000
v -0.250000 0.124998 -0.750000
v -0.562500 0.093748 -0.750000
v -0.562500 0.093750 -1.250000
v -0.562500 0.046873 -0.226562
v -0.562500 -0.000002 -0.000000
v -0.250000 0.031248 0.000000
v -0.250000 0.078123 -0.226562
v -0.250000 0.031248 -0.226562
v -0.250000 -0.031252 -0.000000
v -0.562500 -0.062502 -0.000000
v -0.562500 -0.015627 -0.226562
v -0.187500 0.031248 -0.210938
v -0.187500 0.031248 0.000000
v 0.187500 0.031248 0.000000
v 0.187500 0.031248 -0.210938
v 0.187500 -0.000002 -0.210938
v 0.187500 -0.031252 -0.000000
v -0.187500 -0.031252 -0.000000
v -0.187500 -0.000002 -0.210938
v -0.250000 0.078123 -0.226562
v -0.250000 0.031248 0.000000
v -0.187500 0.031248 0.000000
v -0.187500 0.031248 -0.210938
v -0.187500 -0.000002 -0.210938
v -0.187500 -0.031252 -0.000000
v -0.250000 -0.031252 -0.000000
v -0.250000 0.031248 -0.226562
v 0.250000 0.093748 -0.117188
v 0.250000 -0.000002 -0.113281
v 0.562500 -0.000002 -0.000000
v -0.250000 0.093748 -0.117188
v -0.562500 -0.000002 -0.000000
v -0.250000 -0.000002 -0.113281
vt 0.218750 0.888672
vt 0.220703 0.888672
vt 0.220703 0.904297
vt 0.218750 0.904297
vt 0.242187 0.888672
vt 0.244141 0.888672
vt 0.244141 0.904297
vt 0.242187 0.904297
vt 0.218750 0.886719
vt 0.220703 0.886719
vt 0.259766 0.888672
vt 0.257812 0.888672
vt 0.257812 0.886719
vt 0.259766 0.886719
vt 0.244141 0.888672
vt 0.242187 0.888672
vt 0.242187 0.886719
vt 0.244141 0.886719
vt 0.205078 0.888672
vt 0.203125 0.888672
vt 0.203125 0.886719
vt 0.205078 0.886719
vt 0.197266 0.888672
vt 0.220703 0.888672
vt 0.220703 0.904297
vt 0.197266 0.904297
vt 0.220703 0.888672
vt 0.244141 0.888672
vt 0.244141 0.904297
vt 0.220703 0.904297
vt 0.197266 0.886719
vt 0.220703 0.886719
vt 0.259766 0.888672
vt 0.236328 0.888672
vt 0.236328 0.886719
vt 0.259766 0.886719
vt 0.220703 0.890625
vt 0.205078 0.890625
vt 0.205078 0.888672
vt 0.220703 0.888672
vt 0.181641 0.888672
vt 0.181641 0.886719
vt 0.820312 0.894531
vt 0.843750 0.894531
vt 0.843750 0.904297
vt 0.820312 0.904297
vt 0.843750 0.894531
vt 0.867188 0.894531
vt 0.867188 0.904297
vt 0.843750 0.904297
vt 0.820312 0.892578
vt 0.843750 0.892578
vt 0.876953 0.894531
vt 0.853516 0.894531
vt 0.853516 0.892578
vt 0.876953 0.892578
vt 0.839844 0.904297
vt 0.841797 0.894531
vt 0.839844 0.894531
vt 0.841797 0.904297
vt 0.810547 0.894531
vt 0.810547 0.892578
vt 0.708984 0.878906
vt 0.732422 0.878906
vt 0.732422 0.888672
vt 0.708984 0.888672
vt 0.732422 0.878906
vt 0.755859 0.878906
vt 0.755859 0.888672
vt 0.732422 0.888672
vt 0.708984 0.876953
vt 0.732422 0.876953
vt 0.765625 0.878906
vt 0.742188 0.878906
vt 0.742188 0.876953
vt 0.765625 0.876953
vt 0.710938 0.888672
vt 0.712891 0.878906
vt 0.710938 0.878906
vt 0.712891 0.888672
vt 0.699219 0.878906
vt 0.699219 0.876953
vt 0.095703 0.888672
vt 0.111328 0.888672
vt 0.111328 0.904297
vt 0.095703 0.904297
vt 0.111328 0.888672
vt 0.126953 0.888672
vt 0.126953 0.904297
vt 0.111328 0.904297
vt 0.095703 0.886719
vt 0.111328 0.886719
vt 0.142578 0.888672
vt 0.126953 0.888672
vt 0.126953 0.886719
vt 0.142578 0.886719
vt 0.080078 0.888672
vt 0.080078 0.886719
vt 0.152344 0.894531
vt 0.167969 0.894531
vt 0.167969 0.904297
vt 0.152344 0.904297
vt 0.167969 0.894531
vt 0.183594 0.894531
vt 0.183594 0.904297
vt 0.167969 0.904297
vt 0.152344 0.892578
vt 0.167969 0.892578
vt 0.193359 0.894531
vt 0.177734 0.894531
vt 0.177734 0.892578
vt 0.193359 0.892578
vt 0.142578 0.894531
vt 0.142578 0.892578
vt 0.832031 0.896484
vt 0.820312 0.894531
vt 0.820312 0.892578
vt 0.832031 0.892578
vt 0.832031 0.894531
vt 0.843750 0.894531
vt 0.843750 0.904297
vt 0.820312 0.904297
vt 0.853516 0.894531
vt 0.843750 0.892578
vt 0.853516 0.892578
vt 0.810547 0.894531
vt 0.810547 0.892578
vt 0.261719 0.878906
vt 0.277344 0.878906
vt 0.277344 0.888672
vt 0.261719 0.888672
vt 0.277344 0.878906
vt 0.292969 0.878906
vt 0.292969 0.888672
vt 0.277344 0.888672
vt 0.261719 0.876953
vt 0.277344 0.876953
vt 0.302734 0.878906
vt 0.287109 0.878906
vt 0.287109 0.876953
vt 0.302734 0.876953
vt 0.251953 0.878906
vt 0.251953 0.876953
vt 0.732422 0.878906
vt 0.732422 0.878906
vt 0.732422 0.888672
vt 0.720703 0.888672
vt 0.708984 0.878906
vt 0.732422 0.878906
vt 0.744141 0.878906
vt 0.755859 0.878906
vt 0.755859 0.888672
vt 0.732422 0.888672
vt 0.720703 0.880859
vt 0.708985 0.878906
vt 0.708985 0.876953
vt 0.720703 0.876953
vt 0.742188 0.878906
vt 0.732422 0.876953
vt 0.742188 0.876953
vt 0.699219 0.878906
vt 0.699219 0.876953
vt 0.708984 0.876953
vt 0.199219 0.888672
vt 0.218750 0.888672
vt 0.218750 0.904297
vt 0.199219 0.904297
vt 0.222656 0.888672
vt 0.242188 0.888672
vt 0.242188 0.904297
vt 0.222656 0.904297
vt 0.199219 0.886719
vt 0.218750 0.886719
vt 0.257813 0.888672
vt 0.238281 0.888672
vt 0.238281 0.886719
vt 0.257813 0.886719
vt 0.236328 0.888672
vt 0.220703 0.888672
vt 0.220703 0.886719
vt 0.236328 0.886719
vt 0.197266 0.888672
vt 0.181641 0.888672
vt 0.181641 0.886719
vt 0.197266 0.886719
vt 0.197266 0.888672
vt 0.199219 0.888672
vt 0.199219 0.904297
vt 0.197266 0.904297
vt 0.220703 0.888672
vt 0.222657 0.888672
vt 0.222657 0.904297
vt 0.220703 0.904297
vt 0.197266 0.886719
vt 0.199219 0.886719
vt 0.238282 0.888672
vt 0.236328 0.888672
vt 0.236328 0.886719
vt 0.238282 0.886719
vt 0.222656 0.888672
vt 0.220703 0.888672
vt 0.220703 0.886719
vt 0.222656 0.886719
vt 0.183594 0.888672
vt 0.181641 0.888672
vt 0.181641 0.886719
vt 0.183594 0.886719
vt 0.876953 0.894531
vt 0.876953 0.892578
vt 0.843750 0.894531
vt 0.867188 0.894531
vt 0.867188 0.904297
vt 0.855469 0.904297
vt 0.843750 0.904297
vt 0.732422 0.878906
vt 0.732422 0.876953
vt 0.708984 0.888672
vt 0.720703 0.878906
vn -0.1180 0.9900 0.0778
vn -0.1068 0.9937 0.0334
vn -0.1276 0.9909 0.0436
vn -0.1040 0.9931 0.0540
vn 0.2431 -0.9504 -0.1941
vn 0.2497 -0.9488 -0.1932
vn 0.2431 -0.9501 -0.1956
vn 0.2486 -0.9497 -0.1904
vn -1.0000 -0.0000 0.0000
vn 1.0000 0.0000 0.0000
vn 0.0000 -0.0000 1.0000
vn -0.2425 0.0000 -0.9701
vn 0.0000 0.9892 0.1465
vn 0.0000 -0.9960 -0.0892
vn 0.0000 -0.9899 0.1414
vn 0.0000 0.0000 -1.0000
vn 0.1958 0.9701 0.1437
vn -0.2682 -0.9447 -0.1884
vn -0.2814 -0.9485 -0.1454
vn -0.2736 -0.9452 -0.1781
vn -0.2677 -0.9450 -0.1880
vn 0.0245 0.9947 -0.1000
vn 0.1476 0.9890 -0.0003
vn 0.1242 0.9915 -0.0378
vn 0.0557 0.9793 0.1945
vn -0.2134 0.9563 0.1998
vn 0.3326 -0.9400 -0.0764
vn 0.3140 -0.9484 -0.0430
vn 0.2959 -0.9549 -0.0235
vn 0.3338 -0.9396 -0.0760
vn 0.3123 -0.7789 -0.5438
vn 0.4377 -0.7333 -0.5202
vn 0.3178 -0.8113 -0.4908
vn 0.3118 -0.7666 -0.5613
vn 0.0000 1.0000 0.0000
vn 0.0000 -1.0000 -0.0000
vn 0.0995 0.9950 0.0000
vn -0.0995 -0.9950 -0.0000
vn 0.1273 0.8875 0.4430
vn 0.1167 0.8925 0.4357
vn 0.0742 0.9005 0.4284
vn 0.2197 0.9638 0.1511
vn 0.2437 0.9563 0.1615
vn 0.2335 0.9596 0.1572
vn -0.0995 0.9950 0.0000
vn 0.0995 -0.9950 -0.0000
vn -0.0790 0.8930 0.4430
vn -0.0417 0.8589 0.5105
vn -0.1142 0.8578 0.5011
vn -0.0482 0.8695 0.4916
vn -0.2409 0.9424 0.2323
vn -0.1689 0.9624 0.2126
vn -0.2158 0.9457 0.2432
vn 0.1480 -0.9691 -0.1974
vn 0.1398 -0.9714 -0.1917
vn 0.1506 -0.9692 -0.1948
vn 0.1486 -0.9689 -0.1979
vn 0.1504 -0.9693 -0.1947
vn 0.0000 -0.9892 -0.1465
vn 0.1128 0.9770 0.1811
vn 0.1292 0.9780 0.1640
vn 0.1065 0.9802 0.1671
vn 0.1331 0.9735 0.1862
vn -0.2506 -0.9453 -0.2087
vn -0.2431 -0.9465 -0.2121
vn -0.2499 -0.9445 -0.2134
vn -0.2440 -0.9467 -0.2102
vn 0.2425 0.0000 -0.9701
vn 0.0579 0.9844 -0.1661
vn 0.1411 0.9776 -0.1560
vn 0.1258 0.9758 -0.1789
vn -0.1500 -0.9510 -0.2704
vn -0.1468 -0.9521 -0.2682
vn -0.1494 -0.9510 -0.2707
vn -0.1403 -0.9511 -0.2752
vn -0.1477 -0.9521 -0.2677
vn -0.0793 0.9919 -0.0988
vn -0.1354 0.9844 -0.1121
vn -0.1279 0.9865 -0.1020
usemtl m_4b5b351d-6699-a9a1-3a9c-29dde5c70bd7
s off
f 1/1/1 2/2/2 3/3/3 4/4/4
f 5/5/5 6/6/6 7/7/7 8/8/8
f 2/2/9 1/1/9 8/9/9 7/10/9
f 4/11/10 3/12/10 6/13/10 5/14/10
f 3/15/11 2/16/11 7/17/11 6/18/11
f 1/19/12 4/20/12 5/21/12 8/22/12
f 9/23/13 10/24/13 11/25/13 12/26/13
f 13/27/14 14/28/14 15/29/14 16/30/14
f 10/24/9 9/23/9 16/31/9 15/32/9
f 12/33/10 11/34/10 14/35/10 13/36/10
f 11/37/15 10/38/15 15/39/15 14/40/15
f 9/23/16 12/41/16 13/42/16 16/31/16
f 17/43/17 18/44/17 19/45/17 20/46/17
f 21/47/18 22/48/19 23/49/20 24/50/21
f 18/44/9 17/43/9 24/51/9 23/52/9
f 20/53/10 19/54/10 22/55/10 21/56/10
f 19/57/22 23/58/23 18/59/24 22/60/25
f 17/43/16 20/61/16 21/62/16 24/51/16
f 25/63/26 26/64/26 27/65/26 28/66/26
f 29/67/27 30/68/28 31/69/29 32/70/30
f 26/64/9 25/63/9 32/71/9 31/72/9
f 28/73/10 27/74/10 30/75/10 29/76/10
f 27/77/31 31/78/32 26/79/33 30/80/34
f 25/63/16 28/81/16 29/82/16 32/71/16
f 33/83/35 34/84/35 35/85/35 36/86/35
f 37/87/36 38/88/36 39/89/36 40/90/36
f 34/84/9 33/83/9 40/91/9 39/92/9
f 36/93/10 35/94/10 38/95/10 37/96/10
f 35/94/11 34/84/11 39/92/11 38/95/11
f 33/83/16 36/97/16 37/98/16 40/91/16
f 41/99/37 42/100/37 43/101/37 44/102/37
f 45/103/38 46/104/38 47/105/38 48/106/38
f 42/100/9 41/99/9 48/107/9 47/108/9
f 44/109/10 43/110/10 46/111/10 45/112/10
f 43/110/11 42/100/11 47/108/11 46/111/11
f 41/99/16 44/113/16 45/114/16 48/107/16
f 88/115/9 49/116/9 55/117/9 89/118/9
f 88/119/39 50/120/40 90/121/41
f 88/119/42 90/121/43 51/122/44
f 90/123/11 50/120/11 54/124/11 53/125/11
f 49/116/16 51/126/16 52/127/16 55/117/16
f 56/128/45 57/129/45 58/130/45 59/131/45
f 60/132/46 61/133/46 62/134/46 63/135/46
f 57/129/9 56/128/9 63/136/9 62/137/9
f 59/138/10 58/139/10 61/140/10 60/141/10
f 58/139/11 57/129/11 62/137/11 61/140/11
f 56/128/16 59/142/16 60/143/16 63/136/16
f 92/144/47 65/145/48 66/146/49 91/147/50
f 64/148/51 92/144/52 91/147/53
f 68/149/54 93/150/55 69/151/56 70/152/57 71/153/58
f 91/154/10 66/155/10 69/156/10 93/157/10
f 66/158/11 65/145/11 70/159/11 69/160/11
f 64/148/16 67/161/16 68/162/16 71/163/16
f 72/164/35 73/165/35 74/166/35 75/167/35
f 76/168/59 77/169/59 78/170/59 79/171/59
f 73/165/9 72/164/9 79/172/9 78/173/9
f 75/174/10 74/175/10 77/176/10 76/177/10
f 74/178/11 73/179/11 78/180/11 77/181/11
f 72/182/16 75/183/16 76/184/16 79/185/16
f 80/186/60 81/187/61 82/188/62 83/189/63
f 84/190/64 85/191/65 86/192/66 87/193/67
f 81/187/9 80/186/9 87/194/9 86/195/9
f 83/196/10 82/197/10 85/198/10 84/199/10
f 82/200/11 81/201/11 86/202/11 85/203/11
f 80/204/68 83/205/68 84/206/68 87/207/68
f 51/208/10 90/123/10 53/125/10 52/209/10
f 50/120/9 88/115/9 89/118/9 54/124/9
f 88/119/69 51/122/70 49/116/71
f 52/210/72 53/211/73 54/212/74 89/213/75 55/214/76
f 67/215/10 91/154/10 93/157/10 68/216/10
f 64/148/77 91/147/78 67/217/79
f 65/145/9 92/218/9 64/148/9 71/163/9 70/159/9
