# Blender v2.79 (sub 0) OBJ File: ''
# www.blender.org
mtllib camarogrillestylo.mtl
o headlight_right
v -0.546875 0.031250 0.203125
v -0.609375 0.093750 0.203125
v -0.671875 0.093750 0.203125
v -0.734375 0.031250 0.203125
v -0.546875 -0.031250 0.203125
v -0.546875 0.031250 0.203125
v -0.734375 0.031250 0.203125
v -0.734375 -0.031250 0.203125
v -0.609375 -0.093750 0.203125
v -0.546875 -0.031250 0.203125
v -0.734375 -0.031250 0.203125
v -0.671875 -0.093750 0.203125
vt 0.109375 0.703125
vt 0.078125 0.734375
vt 0.046875 0.734375
vt 0.015625 0.703125
vt 0.218750 0.703125
vt 0.218750 0.734375
vt 0.125000 0.734375
vt 0.125000 0.703125
vt 0.296875 0.703125
vt 0.328125 0.734375
vt 0.234375 0.734375
vt 0.265625 0.703125
vn 0.0000 0.0000 1.0000
usemtl m_d067cb82-3015-fc1b-8765-7d246bf9da23
s 1
f 1/1/1 2/2/1 3/3/1 4/4/1
f 5/5/1 6/6/1 7/7/1 8/8/1
f 9/9/1 10/10/1 11/11/1 12/12/1
o headlight_right_cracked
v -0.609375 -0.093750 0.203125
v -0.546875 -0.031250 0.203125
v -0.734375 -0.031250 0.203125
v -0.671875 -0.093750 0.203125
v -0.546875 -0.031250 0.203125
v -0.546875 0.031250 0.203125
v -0.734375 0.031250 0.203125
v -0.734375 -0.031250 0.203125
v -0.546875 0.031250 0.203125
v -0.609375 0.093750 0.203125
v -0.671875 0.093750 0.203125
v -0.734375 0.031250 0.203125
vt 0.296875 0.562500
vt 0.328125 0.593750
vt 0.234375 0.593750
vt 0.265625 0.562500
vt 0.218750 0.562500
vt 0.218750 0.593750
vt 0.125000 0.593750
vt 0.125000 0.562500
vt 0.109375 0.562500
vt 0.078125 0.593750
vt 0.046875 0.593750
vt 0.015625 0.562500
vn 0.0000 0.0000 1.0000
usemtl m_d067cb82-3015-fc1b-8765-7d246bf9da23
s 1
f 13/13/2 14/14/2 15/15/2 16/16/2
f 17/17/2 18/18/2 19/19/2 20/20/2
f 21/21/2 22/22/2 23/23/2 24/24/2
o headlight_left_cracked
v 0.671875 -0.093750 0.203125
v 0.734375 -0.031250 0.203125
v 0.546875 -0.031250 0.203125
v 0.609375 -0.093750 0.203125
v 0.734375 0.031250 0.203125
v 0.671875 0.093750 0.203125
v 0.609375 0.093750 0.203125
v 0.546875 0.031250 0.203125
v 0.734375 -0.031250 0.203125
v 0.734375 0.031250 0.203125
v 0.546875 0.031250 0.203125
v 0.546875 -0.031250 0.203125
vt 0.625000 0.562500
vt 0.656250 0.593750
vt 0.562500 0.593750
vt 0.593750 0.562500
vt 0.437500 0.562500
vt 0.406250 0.593750
vt 0.375000 0.593750
vt 0.343750 0.562500
vt 0.546875 0.562500
vt 0.546875 0.593750
vt 0.453125 0.593750
vt 0.453125 0.562500
vn 0.0000 0.0000 1.0000
usemtl m_d067cb82-3015-fc1b-8765-7d246bf9da23
s 1
f 25/25/3 26/26/3 27/27/3 28/28/3
f 29/29/3 30/30/3 31/31/3 32/32/3
f 33/33/3 34/34/3 35/35/3 36/36/3
o headlight_left
v 0.734375 0.031250 0.203125
v 0.671875 0.093750 0.203125
v 0.609375 0.093750 0.203125
v 0.546875 0.031250 0.203125
v 0.734375 -0.031250 0.203125
v 0.734375 0.031250 0.203125
v 0.546875 0.031250 0.203125
v 0.546875 -0.031250 0.203125
v 0.671875 -0.093750 0.203125
v 0.734375 -0.031250 0.203125
v 0.546875 -0.031250 0.203125
v 0.609375 -0.093750 0.203125
vt 0.437500 0.703125
vt 0.406250 0.734375
vt 0.375000 0.734375
vt 0.343750 0.703125
vt 0.546875 0.703125
vt 0.546875 0.734375
vt 0.453125 0.734375
vt 0.453125 0.703125
vt 0.625000 0.703125
vt 0.656250 0.734375
vt 0.562500 0.734375
vt 0.593750 0.703125
vn 0.0000 0.0000 1.0000
usemtl m_d067cb82-3015-fc1b-8765-7d246bf9da23
s 1
f 37/37/4 38/38/4 39/39/4 40/40/4
f 41/41/4 42/42/4 43/43/4 44/44/4
f 45/45/4 46/46/4 47/47/4 48/48/4
o turnsignal_left
v 0.796875 0.093750 0.156250
v 0.765625 0.093750 0.187500
v 0.765625 -0.062500 0.187500
v 0.796875 -0.062500 0.156250
v 0.671875 -0.093750 0.187500
v 0.671875 0.093750 0.187500
v 0.671875 0.093750 0.156250
v 0.671875 -0.093750 0.156250
v -0.765625 -0.062500 0.187500
v -0.765625 0.093750 0.187500
v -0.796875 0.093750 0.156250
v -0.796875 -0.062500 0.156250
v -0.671875 0.093750 0.156250
v -0.671875 0.093750 0.187500
v -0.671875 -0.093750 0.187500
v -0.671875 -0.093750 0.156250
vt 0.078125 0.484375
vt 0.062500 0.484375
vt 0.062500 0.437500
vt 0.078125 0.437500
vt 0.062500 0.437500
vt 0.062500 0.484375
vt 0.046875 0.484375
vt 0.046875 0.437500
vt 0.046875 0.406250
vt 0.078125 0.406250
vt 0.078125 0.421875
vt 0.046875 0.421875
vt 0.078125 0.390625
vt 0.078125 0.406250
vt 0.046875 0.406250
vt 0.046875 0.390625
vt 0.046875 0.437500
vt 0.046875 0.484375
vt 0.015625 0.484375
vt 0.015625 0.437500
vt 0.046875 0.437500
vt 0.015625 0.437500
vt 0.015625 0.390625
vt 0.062500 0.437500
vt 0.062500 0.484375
vt 0.078125 0.484375
vt 0.078125 0.437500
vt 0.046875 0.484375
vt 0.062500 0.484375
vt 0.062500 0.437500
vt 0.046875 0.437500
vt 0.078125 0.421875
vt 0.078125 0.406250
vt 0.046875 0.406250
vt 0.046875 0.421875
vt 0.046875 0.406250
vt 0.078125 0.406250
vt 0.078125 0.390625
vt 0.046875 0.390625
vt 0.015625 0.484375
vt 0.046875 0.484375
vt 0.046875 0.437500
vt 0.015625 0.437500
vt 0.015625 0.390625
vt 0.015625 0.437500
vt 0.046875 0.437500
vn 0.7071 0.0000 0.7071
vn -1.0000 0.0000 0.0000
vn 0.0000 1.0000 0.0000
vn 0.3015 -0.9045 0.3015
vn 0.0000 0.0000 1.0000
vn 0.0000 0.0000 -1.0000
vn -0.7071 0.0000 0.7071
vn 1.0000 0.0000 0.0000
vn -0.3015 -0.9045 0.3015
usemtl m_d067cb82-3015-fc1b-8765-7d246bf9da23
s 1
f 49/49/5 50/50/5 51/51/5 52/52/5
f 53/53/6 54/54/6 55/55/6 56/56/6
f 54/57/7 50/58/7 49/59/7 55/60/7
f 52/61/8 51/62/8 53/63/8 56/64/8
f 51/65/9 50/66/9 54/67/9 53/68/9
f 55/69/10 49/70/10 52/71/10 56/64/10
f 57/72/11 58/73/11 59/74/11 60/75/11
f 61/76/12 62/77/12 63/78/12 64/79/12
f 59/80/7 58/81/7 62/82/7 61/83/7
f 63/84/13 57/85/13 60/86/13 64/87/13
f 62/88/9 58/89/9 57/90/9 63/91/9
f 60/92/10 59/93/10 61/94/10 64/87/10
o cuboid
v 0.000000 0.125000 0.062500
v 0.000000 0.125000 0.218750
v 0.000000 -0.125000 0.218750
v 0.000000 -0.125000 0.062500
v -0.828125 -0.125000 0.156250
v -0.828125 0.125000 0.156250
v -0.828125 0.125000 0.062500
v -0.828125 -0.125000 0.062500
v -0.187500 -0.054688 0.210938
v 0.000000 -0.054688 0.218750
v 0.000000 0.054687 0.218750
v -0.187500 0.054687 0.210938
v 0.187500 0.054687 0.210938
v 0.187500 -0.054688 0.210938
v 0.828125 0.125000 0.062500
v 0.828125 0.125000 0.156250
v 0.828125 -0.125000 0.156250
v 0.828125 -0.125000 0.062500
v 0.000000 -0.125000 0.218750
v 0.000000 0.125000 0.218750
v 0.000000 0.125000 0.062500
v 0.000000 -0.125000 0.062500
v -0.609375 0.093750 0.140625
v -0.609375 0.093750 0.203125
v -0.546875 0.031250 0.203125
v -0.546875 0.031250 0.140625
v -0.734375 0.031250 0.203125
v -0.671875 0.093750 0.203125
v -0.671875 0.093750 0.140625
v -0.734375 0.031250 0.140625
v -0.546875 0.031250 0.140625
v -0.546875 0.031250 0.203125
v -0.546875 -0.031250 0.203125
v -0.546875 -0.031250 0.140625
v -0.734375 -0.031250 0.203125
v -0.734375 0.031250 0.203125
v -0.734375 0.031250 0.140625
v -0.734375 -0.031250 0.140625
v -0.546875 -0.031250 0.140625
v -0.546875 -0.031250 0.203125
v -0.609375 -0.093750 0.203125
v -0.609375 -0.093750 0.140625
v -0.671875 -0.093750 0.203125
v -0.734375 -0.031250 0.203125
v -0.734375 -0.031250 0.140625
v -0.671875 -0.093750 0.140625
v 0.734375 -0.031250 0.140625
v 0.734375 -0.031250 0.203125
v 0.671875 -0.093750 0.203125
v 0.671875 -0.093750 0.140625
v 0.609375 -0.093750 0.203125
v 0.546875 -0.031250 0.203125
v 0.546875 -0.031250 0.140625
v 0.609375 -0.093750 0.140625
v 0.734375 0.031250 0.140625
v 0.734375 0.031250 0.203125
v 0.734375 -0.031250 0.203125
v 0.734375 -0.031250 0.140625
v 0.546875 -0.031250 0.203125
v 0.546875 0.031250 0.203125
v 0.546875 0.031250 0.140625
v 0.546875 -0.031250 0.140625
v 0.671875 0.093750 0.140625
v 0.671875 0.093750 0.203125
v 0.734375 0.031250 0.203125
v 0.734375 0.031250 0.140625
v 0.546875 0.031250 0.203125
v 0.609375 0.093750 0.203125
v 0.609375 0.093750 0.140625
v 0.546875 0.031250 0.140625
vt 0.921875 1.000000
vt 0.859375 1.000000
vt 0.859375 0.875000
vt 0.921875 0.875000
vt 0.796875 0.875000
vt 0.796875 1.000000
vt 0.765625 1.000000
vt 0.765625 0.875000
vt 0.000000 0.828125
vt 0.375000 0.828125
vt 0.375000 0.859375
vt 0.000000 0.859375
vt 0.375000 0.781250
vt 0.375000 0.812500
vt 0.000000 0.812500
vt 0.000000 0.781250
vt 0.375000 0.875000
vt 0.375000 1.000000
vt 0.000000 1.000000
vt 0.000000 0.875000
vt 0.000000 1.000000
vt 0.375000 1.000000
vt 0.375000 0.875000
vt 0.000000 0.875000
vt 0.500000 0.000000
vt 0.750000 0.000000
vt 0.750000 0.156250
vt 0.500000 0.156250
vt 1.000000 0.156250
vt 1.000000 0.000000
vt 1.000000 1.000000
vt 0.937500 1.000000
vt 0.937500 0.875000
vt 1.000000 0.875000
vt 0.843750 0.875000
vt 0.843750 1.000000
vt 0.812500 1.000000
vt 0.812500 0.875000
vt 0.375000 0.828125
vt 0.750000 0.828125
vt 0.750000 0.859375
vt 0.375000 0.859375
vt 0.750000 0.781250
vt 0.750000 0.812500
vt 0.375000 0.812500
vt 0.375000 0.781250
vt 0.750000 0.875000
vt 0.750000 1.000000
vt 0.375000 1.000000
vt 0.375000 0.875000
vt 0.375000 1.000000
vt 0.750000 1.000000
vt 0.750000 0.875000
vt 0.375000 0.875000
vt 0.109375 0.671875
vt 0.078125 0.671875
vt 0.078125 0.640625
vt 0.109375 0.640625
vt 0.046875 0.640625
vt 0.046875 0.671875
vt 0.015625 0.671875
vt 0.015625 0.640625
vt 0.046875 0.640625
vt 0.078125 0.640625
vt 0.078125 0.671875
vt 0.046875 0.671875
vt 0.109375 0.671875
vt 0.109375 0.703125
vt 0.015625 0.703125
vt 0.015625 0.671875
vt 0.078125 0.765625
vt 0.046875 0.765625
vt 0.015625 0.734375
vt 0.109375 0.734375
vt 0.156250 0.671875
vt 0.125000 0.671875
vt 0.125000 0.640625
vt 0.156250 0.640625
vt 0.218750 0.640625
vt 0.218750 0.671875
vt 0.187500 0.671875
vt 0.187500 0.640625
vt 0.125000 0.671875
vt 0.218750 0.671875
vt 0.218750 0.703125
vt 0.125000 0.703125
vt 0.218750 0.640625
vt 0.218750 0.671875
vt 0.125000 0.671875
vt 0.125000 0.640625
vt 0.218750 0.765625
vt 0.125000 0.765625
vt 0.125000 0.734375
vt 0.218750 0.734375
vt 0.328125 0.671875
vt 0.296875 0.671875
vt 0.296875 0.640625
vt 0.328125 0.640625
vt 0.265625 0.640625
vt 0.265625 0.671875
vt 0.234375 0.671875
vt 0.234375 0.640625
vt 0.234375 0.671875
vt 0.328125 0.671875
vt 0.328125 0.703125
vt 0.234375 0.703125
vt 0.296875 0.640625
vt 0.296875 0.671875
vt 0.265625 0.671875
vt 0.265625 0.640625
vt 0.328125 0.765625
vt 0.234375 0.765625
vt 0.265625 0.734375
vt 0.296875 0.734375
vt 0.656250 0.671875
vt 0.625000 0.671875
vt 0.625000 0.640625
vt 0.656250 0.640625
vt 0.593750 0.640625
vt 0.593750 0.671875
vt 0.562500 0.671875
vt 0.562500 0.640625
vt 0.562500 0.671875
vt 0.656250 0.671875
vt 0.656250 0.703125
vt 0.562500 0.703125
vt 0.625000 0.640625
vt 0.625000 0.671875
vt 0.593750 0.671875
vt 0.593750 0.640625
vt 0.656250 0.765625
vt 0.562500 0.765625
vt 0.593750 0.734375
vt 0.625000 0.734375
vt 0.484375 0.671875
vt 0.453125 0.671875
vt 0.453125 0.640625
vt 0.484375 0.640625
vt 0.546875 0.640625
vt 0.546875 0.671875
vt 0.515625 0.671875
vt 0.515625 0.640625
vt 0.453125 0.671875
vt 0.546875 0.671875
vt 0.546875 0.703125
vt 0.453125 0.703125
vt 0.546875 0.640625
vt 0.546875 0.671875
vt 0.453125 0.671875
vt 0.453125 0.640625
vt 0.546875 0.765625
vt 0.453125 0.765625
vt 0.453125 0.734375
vt 0.546875 0.734375
vt 0.437500 0.671875
vt 0.406250 0.671875
vt 0.406250 0.640625
vt 0.437500 0.640625
vt 0.375000 0.640625
vt 0.375000 0.671875
vt 0.343750 0.671875
vt 0.343750 0.640625
vt 0.375000 0.640625
vt 0.406250 0.640625
vt 0.406250 0.671875
vt 0.375000 0.671875
vt 0.437500 0.671875
vt 0.437500 0.703125
vt 0.343750 0.703125
vt 0.343750 0.671875
vt 0.406250 0.765625
vt 0.375000 0.765625
vt 0.343750 0.734375
vt 0.437500 0.734375
vn 1.0000 0.0000 0.0000
vn -1.0000 -0.0000 0.0000
vn -0.0000 1.0000 0.0000
vn -0.0000 -1.0000 0.0000
vn -0.0753 0.0000 0.9972
vn 0.0000 0.0000 -1.0000
vn -0.0416 0.0000 0.9991
vn 0.0416 0.0000 0.9991
vn 0.0753 0.0000 0.9972
vn 0.7071 0.7071 0.0000
vn -0.7071 0.7071 0.0000
vn 0.7071 -0.7071 0.0000
vn -0.7071 -0.7071 0.0000
usemtl m_d067cb82-3015-fc1b-8765-7d246bf9da23
s 1
f 65/95/14 66/96/14 67/97/14 68/98/14
f 69/99/15 70/100/15 71/101/15 72/102/15
f 70/103/16 66/104/16 65/105/16 71/106/16
f 68/107/17 67/108/17 69/109/17 72/110/17
f 67/111/18 66/112/18 70/113/18 69/114/18
f 71/115/19 65/116/19 68/117/19 72/118/19
f 73/119/20 74/120/20 75/121/20 76/122/20
f 77/123/21 75/121/21 74/120/21 78/124/21
f 79/125/14 80/126/14 81/127/14 82/128/14
f 83/129/15 84/130/15 85/131/15 86/132/15
f 84/133/16 80/134/16 79/135/16 85/136/16
f 82/137/17 81/138/17 83/139/17 86/140/17
f 81/141/22 80/142/22 84/143/22 83/144/22
f 85/145/19 79/146/19 82/147/19 86/148/19
f 87/149/23 88/150/23 89/151/23 90/152/23
f 91/153/24 92/154/24 93/155/24 94/156/24
f 92/157/16 88/158/16 87/159/16 93/160/16
f 90/161/17 89/162/17 91/163/17 94/164/17
f 93/165/19 87/166/19 90/167/19 94/168/19
f 95/169/14 96/170/14 97/171/14 98/172/14
f 99/173/15 100/174/15 101/175/15 102/176/15
f 100/177/16 96/178/16 95/179/16 101/180/16
f 98/181/17 97/182/17 99/183/17 102/184/17
f 101/185/19 95/186/19 98/187/19 102/188/19
f 103/189/25 104/190/25 105/191/25 106/192/25
f 107/193/26 108/194/26 109/195/26 110/196/26
f 108/197/16 104/198/16 103/199/16 109/200/16
f 106/201/17 105/202/17 107/203/17 110/204/17
f 109/205/19 103/206/19 106/207/19 110/208/19
f 111/209/25 112/210/25 113/211/25 114/212/25
f 115/213/26 116/214/26 117/215/26 118/216/26
f 116/217/16 112/218/16 111/219/16 117/220/16
f 114/221/17 113/222/17 115/223/17 118/224/17
f 117/225/19 111/226/19 114/227/19 118/228/19
f 119/229/14 120/230/14 121/231/14 122/232/14
f 123/233/15 124/234/15 125/235/15 126/236/15
f 124/237/16 120/238/16 119/239/16 125/240/16
f 122/241/17 121/242/17 123/243/17 126/244/17
f 125/245/19 119/246/19 122/247/19 126/248/19
f 127/249/23 128/250/23 129/251/23 130/252/23
f 131/253/24 132/254/24 133/255/24 134/256/24
f 132/257/16 128/258/16 127/259/16 133/260/16
f 130/261/17 129/262/17 131/263/17 134/264/17
f 133/265/19 127/266/19 130/267/19 134/268/19
