# Made in Blockbench 4.6.1
mtllib catears.mtl

o leftear
v 0.09709757929667848 0.19744318181818177 0.0315233730706599
v 0.07580898059231923 0.18394886363636354 -0.08921026972650982
v 0.2362716138214623 0 0.02223904424173024
v 0.18701953680418623 0 -0.18509873368546295
v -0.1144822113895381 0.2109375 0.06883059874128947
v -0.13577081009389733 0.19744318181818177 -0.051903044055880254
v -0.19458177812137872 0 0.09821012197101225
v -0.20904383397262175 0 -0.14577369229085338
v 0.07571335336516234 0.1202781593406592 0.05054979753579293
v 0.07377963794882128 0.16620879120879128 0.020379146793023523
v 0.18286014185049176 0 0.031046695490692635
v 0.18726261749324505 0 -0.030752813634401105
v -0.07778469144123039 0.13495879120879128 0.07761564432115683
v -0.08957064200881226 0.18088942307692307 0.04918220845583553
v -0.14137901790241172 0 0.08821880755737174
v -0.1666526687455172 0 0.03165200021465199
v 0.06360908423900119 0.16619318181818177 0.02156225748193573
v -0.08642022188395238 0.1796875 0.04801647204838215
v 0.20278311876378502 0 0.012277928653006066
v -0.166519788615793 0 0.07739599527810494
vt 0.2041194331440514 0.9503261957775244
vt 0.09122877717413876 1
vt 0 0.7761365239293458
vt 0.2041194331440514 0.7149734949452151
vt 0.24242584612751028 0.7724651199472375
vt 0.24242584612751022 1
vt 0.11916759147663387 0.9955851895799797
vt 0 0.7988749981829131
vt 0.21611038672645755 0.9375
vt 0.000844139426602164 0.9375
vt 0 0.8141656330885793
vt 0.21526624729985538 0.8141656330885793
vt 0.42500000000000004 0.7872625
vt 0.4375 1
vt 0 1
vt 0.02812500000000001 0.7572125000000001
vt 0 1
vt 0.125 1
vt 0.125 0.875
vt 0 0.875
vt 0.35272137106565066 1
vt 0.13745850006181848 1
vt 0 0.8089290055990181
vt 0.396094696158062 0.7742446324901875
vt 0.10743213545619978 0.3125
vt 0.0625 0.2808066289920792
vt 0.0625 0.1185463372826625
vt 0.11110059305435321 0.10821547052860181
vt 0.10523774584174783 0.09070014669785276
vt 0.2127199868331756 0.19471398338808898
vt 0.21271998683317556 0.25
vt 0.0625 0.12518240383001655
vt 0.0625 0.23905656402279596
vt 0.0625 0.08250110447550807
vt 0.11747777219340738 0.08348808723234913
vt 0.11669783816849005 0.25
vt 0 1
vt 0.125 1
vt 0.125 0.875
vt 0 0.875
vt 0.32924375 0.052537500000000015
vt 0.22033749999999996 0.17281875000000002
vt 0.06446874999999999 0.1875
vt 0 0.052537500000000015
vt 0 1
vt 0.125 1
vt 0.125 0.875
vt 0 0.875
vt 0 0.97000625
vt 0.13075 0.79685625
vt 0.16569375 0.79685625
vt 0.034937499999999996 1
vt 0 0.9531827534949726
vt 0.10553758100194809 0.8424899834157134
vt 0.15212627007384344 0.8477066023458499
vt 2.7755575615628914e-17 1
vt 0.023105101692706076 0.83182054473262
vt 0.21312395869284656 0.8906227379712456
vt 0.2131239586928466 0.9375
vt 0 0.8578617339063542
vt 0 1
vt 0.125 1
vt 0.125 0.875
vt 0 0.875
vn 0.7956138350594483 0.5704080648869242 -0.20404231172467974
vn -0.9221946459003018 0.36711922201770564 0.12157512861573165
vn 0.04240285762981394 0.9920650654645192 -0.11835921404649892
vn 0 -1 0
vn 0.18129497472473677 0.09715042511606121 0.9786183766102728
vn -0.13539211351328018 0.39239288081261225 -0.9097784360414277
vn 0.6206186781487906 0.4485800854845074 0.6431239097091324
vn -0.5637707837120767 0.32530111208984713 0.7591717130569207
vn 0.195890516133388 0.5441321945567206 0.8158106768950024
vn 0 -1 0
vn 0.17313891086728295 -0.005462181334401356 0.9848822681512555
vn -0.15349714436145345 0.19331344244010715 -0.9690554884240813
vn -0.2736530814528229 -0.2805589778300309 0.9200003537881618
vn 0.1213057927929361 -0.41710663128822234 0.9007257977710356
vn 0.5229481042913927 -0.09461204410786772 0.8470973033411034
vn 0 1 0
usemtl m_0b6edeff-ddcb-73b0-3767-caf19a0c66ae
f 2/1/1 1/2/1 3/3/1 4/4/1
f 7/5/2 5/6/2 6/7/2 8/8/2
f 5/9/3 1/10/3 2/11/3 6/12/3
f 4/13/4 3/14/4 7/15/4 8/16/4
f 19/17/5 17/18/5 18/19/5 20/20/5
f 6/21/6 2/22/6 4/23/6 8/24/6
f 10/25/7 9/26/7 11/27/7 12/28/7
f 15/29/8 13/30/8 14/31/8 16/32/8
f 13/33/9 9/34/9 10/35/9 14/36/9
f 12/37/10 11/38/10 15/39/10 16/40/10
f 11/41/11 9/42/11 13/43/11 15/44/11
f 14/45/12 10/46/12 12/47/12 16/48/12
f 17/49/13 19/50/13 3/51/13 1/52/13
f 18/53/14 17/54/14 1/55/14 5/56/14
f 20/57/15 18/58/15 5/59/15 7/60/15
f 19/61/16 20/62/16 7/63/16 3/64/16
o rightear
v -0.09709757929667848 0.19744318181818177 0.0315233730706599
v -0.07580898059231923 0.18394886363636354 -0.08921026972650982
v -0.2362716138214623 0 0.02223904424173024
v -0.18701953680418623 0 -0.18509873368546295
v 0.1144822113895381 0.2109375 0.06883059874128947
v 0.13577081009389733 0.19744318181818177 -0.051903044055880254
v 0.19458177812137872 0 0.09821012197101225
v 0.20904383397262175 0 -0.14577369229085338
v -0.07571335336516234 0.1202781593406592 0.05054979753579293
v -0.07377963794882128 0.16620879120879128 0.020379146793023523
v -0.18286014185049176 0 0.031046695490692635
v -0.18726261749324505 0 -0.030752813634401105
v 0.07778469144123039 0.13495879120879128 0.07761564432115683
v 0.08957064200881226 0.18088942307692307 0.04918220845583553
v 0.14137901790241172 0 0.08821880755737174
v 0.1666526687455172 0 0.03165200021465199
v -0.06360908423900119 0.16619318181818177 0.02156225748193573
v 0.08642022188395238 0.1796875 0.04801647204838215
v -0.20278311876378502 0 0.012277928653006066
v 0.166519788615793 0 0.07739599527810494
vt 0 0.7761365239293458
vt 0.09122877717413876 1
vt 0.2041194331440514 0.9503261957775244
vt 0.2041194331440514 0.7149734949452151
vt 0.11916759147663387 0.9955851895799797
vt 0.24242584612751022 1
vt 0.24242584612751028 0.7724651199472375
vt 0 0.7988749981829131
vt 0 0.8141656330885793
vt 0.000844139426602164 0.9375
vt 0.21611038672645755 0.9375
vt 0.21526624729985538 0.8141656330885793
vt 0 1
vt 0.4375 1
vt 0.42500000000000004 0.7872625
vt 0.02812500000000001 0.7572125000000001
vt 0.125 0.875
vt 0.125 1
vt 0 1
vt 0 0.875
vt 0 0.8089290055990181
vt 0.13745850006181848 1
vt 0.35272137106565066 1
vt 0.396094696158062 0.7742446324901875
vt 0.0625 0.1185463372826625
vt 0.0625 0.2808066289920792
vt 0.10743213545619978 0.3125
vt 0.11110059305435321 0.10821547052860181
vt 0.21271998683317556 0.25
vt 0.2127199868331756 0.19471398338808898
vt 0.10523774584174783 0.09070014669785276
vt 0.0625 0.12518240383001655
vt 0.11747777219340738 0.08348808723234913
vt 0.0625 0.08250110447550807
vt 0.0625 0.23905656402279596
vt 0.11669783816849005 0.25
vt 0.125 0.875
vt 0.125 1
vt 0 1
vt 0 0.875
vt 0.06446874999999999 0.1875
vt 0.22033749999999996 0.17281875000000002
vt 0.32924375 0.052537500000000015
vt 0 0.052537500000000015
vt 0.125 0.875
vt 0.125 1
vt 0 1
vt 0 0.875
vt 0.16569375 0.79685625
vt 0.13075 0.79685625
vt 0 0.97000625
vt 0.034937499999999996 1
vt 0.15212627007384344 0.8477066023458499
vt 0.10553758100194809 0.8424899834157134
vt 0 0.9531827534949726
vt 2.7755575615628914e-17 1
vt 0.2131239586928466 0.9375
vt 0.21312395869284656 0.8906227379712456
vt 0.023105101692706076 0.83182054473262
vt 0 0.8578617339063542
vt 0.125 0.875
vt 0.125 1
vt 0 1
vt 0 0.875
vn -0.7956138350594485 0.5704080648869243 -0.20404231172467968
vn 0.9221946459003018 0.3671192220177056 0.1215751286157316
vn -0.04240285762981394 0.9920650654645192 -0.11835921404649893
vn 0 -1 0
vn -0.18129497472473677 0.0971504251160612 0.9786183766102728
vn 0.13539211351328026 0.39239288081261214 -0.9097784360414278
vn -0.6206186781487906 0.4485800854845075 0.6431239097091322
vn 0.5637707837120769 0.32530111208984713 0.7591717130569207
vn -0.19589051613338804 0.5441321945567206 0.8158106768950025
vn 0 -1 0
vn -0.17313891086728295 -0.005462181334401359 0.9848822681512555
vn 0.15349714436145342 0.19331344244010723 -0.9690554884240813
vn 0.27365308145282286 -0.2805589778300309 0.9200003537881618
vn -0.1213057927929361 -0.41710663128822234 0.9007257977710356
vn -0.5229481042913927 -0.09461204410786772 0.8470973033411034
vn 0 1 0
usemtl m_0b6edeff-ddcb-73b0-3767-caf19a0c66ae
f 23/65/17 21/66/17 22/67/17 24/68/17
f 26/69/18 25/70/18 27/71/18 28/72/18
f 22/73/19 21/74/19 25/75/19 26/76/19
f 27/77/20 23/78/20 24/79/20 28/80/20
f 38/81/21 37/82/21 39/83/21 40/84/21
f 24/85/22 22/86/22 26/87/22 28/88/22
f 31/89/23 29/90/23 30/91/23 32/92/23
f 34/93/24 33/94/24 35/95/24 36/96/24
f 30/97/25 29/98/25 33/99/25 34/100/25
f 35/101/26 31/102/26 32/103/26 36/104/26
f 33/105/27 29/106/27 31/107/27 35/108/27
f 32/109/28 30/110/28 34/111/28 36/112/28
f 23/113/29 39/114/29 37/115/29 21/116/29
f 21/117/30 37/118/30 38/119/30 25/120/30
f 25/121/31 38/122/31 40/123/31 27/124/31
f 27/125/32 40/126/32 39/127/32 23/128/32