# Blender v2.79 (sub 0) OBJ File: ''
# www.blender.org
mtllib coronet_hood.mtl
o $Hood
v -0.750000 0.062498 0.750000
v -0.750000 -0.000002 1.500000
v 0.750000 -0.000002 1.500000
v 0.750000 0.062498 0.750000
v 0.750000 -0.000002 0.750000
v 0.750000 -0.062502 1.500000
v -0.750000 -0.062502 1.500000
v -0.750000 -0.000002 0.750000
v 0.750000 0.062498 0.750000
v 0.687500 0.093748 0.750000
v 0.593750 0.062498 1.500000
v 0.656250 -0.000002 1.500000
v 0.625000 -0.062502 1.500000
v 0.562500 -0.000002 1.500000
v 0.687500 0.031248 0.750000
v 0.750000 -0.000002 0.750000
v -0.656250 -0.000002 1.500000
v -0.750000 0.062498 0.750000
v -0.750000 -0.000002 0.750000
v -0.625000 -0.062502 1.500000
v 0.687500 0.093748 0.000000
v 0.000000 0.093748 0.000000
v 0.000000 0.093748 0.750000
v 0.687500 0.093748 0.750000
v 0.687500 0.031248 0.750000
v 0.000000 0.031248 0.750000
v 0.000000 0.031248 0.000000
v 0.687500 0.031248 0.000000
v -0.750000 0.062498 0.750000
v -0.750000 0.062498 0.000000
v -0.750000 -0.000002 0.000000
v -0.750000 -0.000002 0.750000
v 0.750000 0.062498 0.000000
v 0.750000 0.062498 0.750000
v 0.750000 -0.000002 0.750000
v 0.750000 -0.000002 0.000000
v -0.609375 0.080889 1.167076
v 0.000000 0.089678 1.167076
v 0.000000 0.092590 0.960258
v -0.609375 0.088681 0.960258
v -0.593750 0.062498 1.500000
v 0.000000 0.078123 1.500000
v 0.000000 0.093748 0.750000
v -0.687500 0.093748 0.750000
v 0.000000 0.031248 0.750000
v -0.687500 0.031248 0.750000
v 0.000000 -0.000002 1.500000
v -0.562500 -0.000002 1.500000
v -0.687500 0.093748 0.750000
v -0.687500 0.093748 0.000000
v -0.687500 0.031248 0.000000
v -0.687500 0.031248 0.750000
v 0.609375 0.088684 0.960258
v 0.609375 0.080889 1.167076
vt 0.439453 0.685547
vt 0.439453 0.683594
vt 0.462891 0.683594
vt 0.462891 0.685547
vt 0.486328 0.638672
vt 0.486328 0.640625
vt 0.462891 0.640625
vt 0.462891 0.638672
vt 0.462891 0.638672
vt 0.439453 0.638672
vt 0.439453 0.636719
vt 0.462891 0.636719
vt 0.533203 0.638672
vt 0.509766 0.638672
vt 0.509766 0.636719
vt 0.533203 0.636719
vt 0.507813 0.638672
vt 0.507813 0.636719
vt 0.392578 0.636719
vt 0.394531 0.636719
vt 0.394531 0.638672
vt 0.392578 0.638672
vt 0.189453 0.621094
vt 0.189453 0.599609
vt 0.212891 0.599609
vt 0.212891 0.621094
vt 0.236328 0.578125
vt 0.236328 0.599609
vt 0.212891 0.599609
vt 0.212891 0.578125
vt 0.212891 0.576172
vt 0.189453 0.576172
vt 0.189453 0.574219
vt 0.212891 0.574219
vt 0.283203 0.576172
vt 0.259766 0.576172
vt 0.259766 0.574219
vt 0.283203 0.574219
vt 0.257813 0.576172
vt 0.236328 0.576172
vt 0.236328 0.574219
vt 0.257813 0.574219
vt 0.191406 0.576172
vt 0.212891 0.576172
vt 0.212891 0.578125
vt 0.191406 0.578125
vt 0.445312 0.029297
vt 0.472656 0.029297
vt 0.472656 0.039062
vt 0.445312 0.039062
vt 0.462891 0.640625
vt 0.462891 0.662109
vt 0.439453 0.662109
vt 0.439453 0.640625
vt 0.437500 0.638672
vt 0.416016 0.638672
vt 0.416016 0.636719
vt 0.437500 0.636719
vt 0.462891 0.683594
vt 0.462891 0.662109
vt 0.486328 0.662109
vt 0.486328 0.683594
vt 0.464844 0.636719
vt 0.486329 0.636719
vt 0.486329 0.638672
vt 0.464844 0.638672
vt 0.462891 0.685547
vt 0.486328 0.685547
vt 0.212891 0.578125
vt 0.189453 0.578125
vt 0.212891 0.578125
vt 0.210937 0.578125
vt 0.210937 0.576172
vt 0.212891 0.576172
vt 0.212891 0.623047
vt 0.212891 0.621094
vt 0.236328 0.621094
vt 0.236328 0.623047
vt 0.214844 0.574219
vt 0.214844 0.576172
vt 0.189453 0.623047
vt 0.212891 0.623047
vt 0.236328 0.576172
vt 0.212891 0.576172
vt 0.189453 0.576172
vt 0.189453 0.578125
vt 0.189453 0.578125
vt 0.189453 0.576172
vt 0.500000 0.039062
vt 0.500000 0.029297
vt 0.439453 0.638672
vt 0.462891 0.638672
vt 0.462891 0.685547
vt 0.439453 0.685547
vt 0.462891 0.638672
vt 0.486328 0.638672
vt 0.486328 0.685547
vt 0.462891 0.685547
vt 0.439453 0.636719
vt 0.462891 0.636719
vt 0.533203 0.638672
vt 0.509766 0.638672
vt 0.509766 0.636719
vt 0.533203 0.636719
vt 0.392578 0.638672
vt 0.392578 0.636719
vn 0.4453 0.8906 0.0928
vn -0.6995 -0.6996 -0.1457
vn -0.6996 -0.6996 -0.1457
vn -0.9923 0.0000 0.1240
vn 0.8919 -0.4460 0.0743
vn 0.8920 -0.4460 0.0743
vn 0.0000 0.0000 1.0000
vn 0.0000 0.0000 -1.0000
vn 0.0000 1.0000 0.0000
vn 0.0000 -1.0000 -0.0000
vn -1.0000 0.0000 0.0000
vn 1.0000 0.0000 0.0000
vn -0.0144 0.9998 0.0141
vn -0.0263 0.9994 0.0208
vn 0.0000 -0.9991 -0.0416
vn -0.7022 0.7022 0.1170
vn -0.7023 0.7022 0.1170
vn -0.7022 0.7023 0.1170
vn 0.4444 -0.8889 -0.1111
vn 0.4445 -0.8889 -0.1111
vn -0.4472 0.8944 0.0000
vn 0.4472 -0.8944 -0.0000
vn 0.4472 0.8944 0.0000
vn -0.4472 -0.8944 -0.0000
vn 0.0000 0.9998 0.0208
vn 0.0064 0.9999 0.0141
vn 0.0000 0.9965 0.0830
vn 0.0000 -0.9965 -0.0830
usemtl m_758df199-284c-6f62-334b-794aceb92395
s 1
f 9/1/1 10/2/1 11/3/1 12/4/1
f 13/5/2 14/6/3 15/7/3 16/8/3
f 17/9/4 18/10/4 19/11/4 20/12/4
f 9/13/5 12/14/6 13/15/6 16/16/6
f 12/14/7 11/17/7 14/18/7 13/15/7
f 16/19/8 15/20/8 10/21/8 9/22/8
f 21/23/9 22/24/9 23/25/9 24/26/9
f 25/27/10 26/28/10 27/29/10 28/30/10
f 29/31/11 30/32/11 31/33/11 32/34/11
f 33/35/12 34/36/12 35/37/12 36/38/12
f 24/39/7 23/40/7 26/41/7 25/42/7
f 28/43/8 27/44/8 22/45/8 21/46/8
f 37/47/13 38/48/13 39/49/13 40/50/13
f 41/51/14 42/52/14 43/53/14 44/54/14
f 44/55/8 43/56/8 45/57/8 46/58/8
f 46/59/15 45/60/15 47/61/15 48/62/15
f 48/63/7 47/64/7 42/65/7 41/66/7
f 17/9/16 41/51/17 44/54/17 18/10/18
f 18/10/8 44/55/8 46/58/8 19/11/8
f 19/67/19 46/59/20 48/62/19 20/68/19
f 20/12/7 48/63/7 41/66/7 17/9/7
f 29/31/21 49/69/21 50/70/21 30/32/21
f 30/71/8 50/72/8 51/73/8 31/74/8
f 31/75/22 51/76/22 52/77/22 32/78/22
f 32/34/7 52/79/7 49/80/7 29/31/7
f 33/81/23 21/23/23 24/26/23 34/82/23
f 34/36/7 24/39/7 25/42/7 35/37/7
f 35/83/24 25/27/24 28/30/24 36/84/24
f 36/85/8 28/43/8 21/46/8 33/86/8
f 10/2/25 43/53/25 42/52/25 11/3/25
f 11/17/7 42/65/7 47/64/7 14/18/7
f 14/6/15 47/61/15 45/60/15 15/7/15
f 15/20/8 45/57/8 43/56/8 10/21/8
f 49/69/9 23/25/9 22/24/9 50/70/9
f 50/72/8 22/87/8 27/88/8 51/73/8
f 51/76/10 27/29/10 26/28/10 52/77/10
f 52/79/7 26/41/7 23/40/7 49/80/7
f 53/89/26 39/49/26 38/48/26 54/90/26
usemtl m_88ababb4-4424-963d-86ea-e23bfeff6c73
f 1/91/27 2/92/27 3/93/27 4/94/27
f 5/95/28 6/96/28 7/97/28 8/98/28
f 2/92/11 1/91/11 8/99/11 7/100/11
f 4/101/12 3/102/12 6/103/12 5/104/12
f 3/102/7 2/92/7 7/100/7 6/103/7
f 1/91/8 4/105/8 5/106/8 8/99/8
