# Blender v2.79 (sub 0) OBJ File: ''
# www.blender.org
mtllib csmiatamemewing.mtl
o cube
v -0.437500 0.250000 -0.093750
v -0.437500 0.250000 0.031250
v -0.468750 -0.000000 0.125000
v -0.468750 0.000000 0.000000
v -0.500000 -0.000000 0.125000
v -0.468750 0.250000 0.031250
v -0.468750 0.250000 -0.093750
v -0.500000 0.000000 0.000000
v 0.000000 0.312500 -0.218750
v 0.000000 0.281250 -0.093750
v 0.000000 0.250000 -0.093750
v 0.000000 0.281250 -0.218750
v -0.906250 0.281250 0.031250
v -0.906250 0.312500 0.031250
v -0.906250 0.343750 -0.093750
v -0.906250 0.312500 -0.093750
v -0.468750 0.281250 -0.093750
v -0.468750 0.312500 -0.218750
v -0.468750 0.250000 -0.093750
v -0.468750 0.281250 -0.218750
v 0.000000 0.250000 0.093750
v 0.000000 0.281250 0.093750
v -0.458868 0.281250 0.092146
v -0.458868 0.250000 0.092146
v -0.833868 0.281250 0.154646
v -0.833868 0.250000 0.154646
v -0.843750 0.312500 -0.093750
v -0.843750 0.281250 0.031250
v -0.843750 0.281250 -0.093750
v -0.843750 0.250000 0.031250
v -0.906250 0.312500 0.156250
v -0.906250 0.281250 0.156250
v 0.468750 -0.000000 0.125000
v 0.437500 0.250000 0.031250
v 0.437500 0.250000 -0.093750
v 0.468750 0.000000 0.000000
v 0.468750 0.250000 -0.093750
v 0.468750 0.250000 0.031250
v 0.500000 -0.000000 0.125000
v 0.500000 0.000000 0.000000
v 0.000000 0.250000 -0.093750
v 0.000000 0.281250 -0.093750
v 0.000000 0.312500 -0.218750
v 0.000000 0.281250 -0.218750
v 0.906250 0.343750 -0.093750
v 0.906250 0.312500 0.031250
v 0.906250 0.281250 0.031250
v 0.906250 0.312500 -0.093750
v 0.468750 0.281250 -0.093750
v 0.468750 0.312500 -0.218750
v 0.468750 0.250000 -0.093750
v 0.468750 0.281250 -0.218750
v 0.458868 0.281250 0.092146
v 0.000000 0.281250 0.093750
v 0.000000 0.250000 0.093750
v 0.458868 0.250000 0.092146
v 0.833868 0.250000 0.154646
v 0.833868 0.281250 0.154646
v 0.843750 0.281250 0.031250
v 0.843750 0.312500 -0.093750
v 0.843750 0.281250 -0.093750
v 0.843750 0.250000 0.031250
v 0.906250 0.281250 0.156250
v 0.906250 0.312500 0.156250
v -0.093750 0.250000 -0.031250
v -0.093750 0.250000 0.031250
v -0.062500 -0.000000 0.125000
v -0.062500 -0.000000 0.062500
v -0.093750 -0.000000 0.125000
v -0.125000 0.250000 0.031250
v -0.125000 0.250000 -0.031250
v -0.093750 -0.000000 0.062500
v 0.062500 -0.000000 0.125000
v 0.093750 0.250000 0.031250
v 0.093750 0.250000 -0.031250
v 0.062500 -0.000000 0.062500
v 0.125000 0.250000 -0.031250
v 0.125000 0.250000 0.031250
v 0.093750 -0.000000 0.125000
v 0.093750 -0.000000 0.062500
vt 0.171875 1.000000
vt 0.109375 1.000000
vt 0.062500 0.875000
vt 0.125000 0.875000
vt 0.171875 0.875000
vt 0.125000 1.000000
vt 0.062500 1.000000
vt 0.109375 0.875000
vt 0.250000 0.937500
vt 0.265625 0.937500
vt 0.265625 1.000000
vt 0.250000 1.000000
vt 0.234375 0.937500
vt 0.234375 1.000000
vt 0.218750 1.000000
vt 0.218750 0.937500
vt 0.046875 0.866500
vt 0.046875 1.000000
vt 0.031250 1.000000
vt 0.031250 0.866500
vt 0.015625 1.000000
vt 0.000000 1.000000
vt 0.000000 0.866500
vt 0.015625 0.866500
vt 0.062500 1.000000
vt 0.000000 0.984375
vt 0.000000 0.968750
vt 0.062500 0.984375
vt 0.375000 0.968750
vt 0.375000 0.984375
vt 0.312500 1.000000
vt 0.312500 0.984375
vt 0.218750 0.623075
vt 0.453125 0.623075
vt 0.453125 0.687500
vt 0.218750 0.687500
vt 0.421875 0.656250
vt 0.421875 0.591828
vt 0.656250 0.591828
vt 0.656250 0.656250
vt 0.452091 0.609375
vt 0.452091 0.625000
vt 0.222656 0.625000
vt 0.222656 0.609375
vt 0.656250 0.593750
vt 0.421875 0.593750
vt 0.421875 0.578125
vt 0.656250 0.578125
vt 0.000000 0.750000
vt 0.000000 0.734375
vt 0.190084 0.734375
vt 0.190084 0.750000
vt 0.113513 0.718750
vt 0.093750 0.657434
vt 0.291391 0.657434
vt 0.311156 0.718750
vt 0.197644 0.984375
vt 0.197644 1.000000
vt 0.000000 1.000000
vt 0.000000 0.984375
vt 0.279906 0.751184
vt 0.260144 0.812500
vt 0.062500 0.812500
vt 0.082266 0.751184
vt 0.312500 0.687500
vt 0.312500 0.671875
vt 0.348700 0.640625
vt 0.348700 0.656250
vt 0.250966 0.937500
vt 0.187500 0.926450
vt 0.187500 0.882255
vt 0.250970 0.893307
vt 0.031250 0.984375
vt 0.031250 1.000000
vt 0.000000 0.968750
vt 0.000000 0.953125
vt 0.043540 0.623079
vt 0.043540 0.687500
vt 0.000002 0.679923
vt 0.000000 0.615499
vt 0.156250 0.703125
vt 0.156250 0.718750
vt 0.093750 0.718750
vt 0.093750 0.703125
vt 0.061697 0.952184
vt 0.062500 1.000000
vt 0.000000 1.000000
vt 0.000000 0.955922
vt 0.110320 0.968750
vt 0.062500 0.968134
vt 0.066002 0.906336
vt 0.110076 0.906336
vt 0.312500 0.687500
vt 0.312500 0.671875
vt 0.406250 0.671875
vt 0.406250 0.687500
vt 0.223691 0.688303
vt 0.453125 0.687500
vt 0.453125 0.781250
vt 0.218750 0.781250
vt 0.453452 0.750000
vt 0.224016 0.750000
vt 0.218750 0.657071
vt 0.453124 0.656251
vt 0.374295 0.779354
vt 0.390478 0.968750
vt 0.328584 0.968750
vt 0.281250 0.776859
vt 0.032909 0.791919
vt 0.221803 0.813172
vt 0.221803 0.906250
vt 0.031250 0.853791
vt 0.062500 0.875000
vt 0.109375 1.000000
vt 0.171875 1.000000
vt 0.125000 0.875000
vt 0.062500 1.000000
vt 0.125000 1.000000
vt 0.171875 0.875000
vt 0.109375 0.875000
vt 0.265625 1.000000
vt 0.265625 0.937500
vt 0.250000 0.937500
vt 0.250000 1.000000
vt 0.218750 1.000000
vt 0.234375 1.000000
vt 0.234375 0.937500
vt 0.218750 0.937500
vt 0.031250 1.000000
vt 0.046875 1.000000
vt 0.046875 0.866500
vt 0.031250 0.866500
vt 0.000000 0.866500
vt 0.000000 1.000000
vt 0.015625 1.000000
vt 0.015625 0.866500
vt 0.000000 0.968750
vt 0.000000 0.984375
vt 0.062500 1.000000
vt 0.062500 0.984375
vt 0.312500 1.000000
vt 0.375000 0.984375
vt 0.375000 0.968750
vt 0.312500 0.984375
vt 0.453125 0.687500
vt 0.453125 0.623075
vt 0.218750 0.623075
vt 0.218750 0.687500
vt 0.656250 0.591828
vt 0.421875 0.591828
vt 0.421875 0.656250
vt 0.656250 0.656250
vt 0.222656 0.625000
vt 0.452091 0.625000
vt 0.452091 0.609375
vt 0.222656 0.609375
vt 0.421875 0.578125
vt 0.421875 0.593750
vt 0.656250 0.593750
vt 0.656250 0.578125
vt 0.190084 0.734375
vt 0.000000 0.734375
vt 0.000000 0.750000
vt 0.190084 0.750000
vt 0.291391 0.657434
vt 0.093750 0.657434
vt 0.113513 0.718750
vt 0.311156 0.718750
vt 0.000000 1.000000
vt 0.197644 1.000000
vt 0.197644 0.984375
vt 0.000000 0.984375
vt 0.062500 0.812500
vt 0.260144 0.812500
vt 0.279906 0.751184
vt 0.082266 0.751184
vt 0.348700 0.640625
vt 0.312500 0.671875
vt 0.312500 0.687500
vt 0.348700 0.656250
vt 0.187500 0.882255
vt 0.187500 0.926450
vt 0.250966 0.937500
vt 0.250970 0.893307
vt 0.000000 0.968750
vt 0.031250 1.000000
vt 0.031250 0.984375
vt 0.000000 0.953125
vt 0.000002 0.679923
vt 0.043540 0.687500
vt 0.043540 0.623079
vt 0.000000 0.615499
vt 0.093750 0.718750
vt 0.156250 0.718750
vt 0.156250 0.703125
vt 0.093750 0.703125
vt 0.000000 1.000000
vt 0.062500 1.000000
vt 0.061697 0.952184
vt 0.000000 0.955922
vt 0.066002 0.906336
vt 0.062500 0.968134
vt 0.110320 0.968750
vt 0.110076 0.906336
vt 0.406250 0.671875
vt 0.312500 0.671875
vt 0.312500 0.687500
vt 0.406250 0.687500
vt 0.453125 0.781250
vt 0.453125 0.687500
vt 0.223691 0.688303
vt 0.218750 0.781250
vt 0.218750 0.657071
vt 0.224016 0.750000
vt 0.453452 0.750000
vt 0.453124 0.656251
vt 0.328584 0.968750
vt 0.390478 0.968750
vt 0.374295 0.779354
vt 0.281250 0.776859
vt 0.221803 0.906250
vt 0.221803 0.813172
vt 0.032909 0.791919
vt 0.031250 0.853791
vt 0.484375 0.937500
vt 0.421875 0.937500
vt 0.375000 0.812500
vt 0.437500 0.812500
vt 0.484375 0.812500
vt 0.437500 0.937500
vt 0.375000 0.937500
vt 0.421875 0.812500
vt 0.437500 0.843750
vt 0.453125 0.843750
vt 0.453125 0.906250
vt 0.437500 0.906250
vt 0.421875 0.843750
vt 0.421875 0.906250
vt 0.406250 0.906250
vt 0.406250 0.843750
vt 0.453125 0.804000
vt 0.453125 0.937500
vt 0.437500 0.804000
vt 0.421875 0.937500
vt 0.406250 0.937500
vt 0.406250 0.804000
vt 0.421875 0.804000
vt 0.375000 0.812500
vt 0.421875 0.937500
vt 0.484375 0.937500
vt 0.437500 0.812500
vt 0.375000 0.937500
vt 0.437500 0.937500
vt 0.484375 0.812500
vt 0.421875 0.812500
vt 0.453125 0.906250
vt 0.453125 0.843750
vt 0.437500 0.843750
vt 0.437500 0.906250
vt 0.406250 0.906250
vt 0.421875 0.906250
vt 0.421875 0.843750
vt 0.406250 0.843750
vt 0.453125 0.937500
vt 0.453125 0.804000
vt 0.437500 0.804000
vt 0.406250 0.804000
vt 0.406250 0.937500
vt 0.421875 0.937500
vt 0.421875 0.804000
vn 0.9923 -0.1240 0.0000
vn -0.9923 0.1240 0.0000
vn 0.0000 1.0000 0.0000
vn 0.0000 -1.0000 -0.0000
vn 0.0000 0.3511 0.9363
vn 0.0000 -0.3511 -0.9363
vn 1.0000 0.0000 0.0000
vn -1.0000 -0.0000 0.0000
vn 0.0000 0.9701 0.2425
vn 0.0000 -0.9701 -0.2425
vn -0.0035 -0.0000 1.0000
vn 0.0000 0.0000 -1.0000
vn 0.1644 -0.0000 0.9864
vn 0.0806 0.9670 0.2417
vn -0.3162 0.0000 -0.9487
vn -0.0806 -0.9670 -0.2417
vn 0.0221 0.0000 0.9998
vn 0.4364 0.8729 0.2182
vn -0.4364 -0.8729 -0.2182
vn -0.3964 -0.9181 -0.0000
vn 0.3956 0.9179 -0.0317
vn -0.9923 -0.1240 0.0000
vn 0.9923 0.1240 0.0000
vn 0.0035 -0.0000 1.0000
vn -0.1644 0.0000 0.9864
vn -0.0806 0.9670 0.2417
vn 0.3162 0.0000 -0.9487
vn 0.0806 -0.9670 -0.2417
vn -0.0221 0.0000 0.9998
vn -0.4364 0.8729 0.2182
vn 0.4364 -0.8729 -0.2182
vn 0.3964 -0.9181 -0.0000
vn -0.3956 0.9179 -0.0317
usemtl m_eca0118a-ad5c-47ac-9909-8868618752d7
s 1
f 1/1/1 2/2/1 3/3/1 4/4/1
f 5/5/2 6/6/2 7/7/2 8/8/2
f 6/9/3 2/10/3 1/11/3 7/12/3
f 4/13/4 3/14/4 5/15/4 8/16/4
f 3/17/5 2/18/5 6/19/5 5/20/5
f 7/21/6 1/22/6 4/23/6 8/24/6
f 9/25/7 10/26/7 11/27/7 12/28/7
f 13/29/8 14/30/8 15/31/8 16/32/8
f 17/33/9 10/34/9 9/35/9 18/36/9
f 12/37/10 11/38/10 19/39/10 20/40/10
f 21/41/11 22/42/11 23/43/11 24/44/11
f 18/45/12 9/46/12 12/47/12 20/48/12
f 25/49/13 26/50/13 24/51/13 23/52/13
f 27/53/14 28/54/14 17/55/14 18/56/14
f 29/57/15 27/58/15 18/59/15 20/60/15
f 30/61/16 29/62/16 20/63/16 19/64/16
f 31/65/17 32/66/17 26/67/17 25/68/17
f 15/69/18 14/70/18 28/71/18 27/72/18
f 16/73/12 15/74/12 27/75/12 29/76/12
f 13/77/19 16/78/19 29/79/19 30/80/19
f 32/81/8 31/82/8 14/83/8 13/84/8
f 26/85/20 32/86/20 13/87/20 30/88/20
f 31/89/21 25/90/21 28/91/21 14/92/21
f 22/93/7 21/94/7 11/95/7 10/96/7
f 23/97/3 22/98/3 10/99/3 17/100/3
f 21/101/4 24/102/4 19/103/4 11/104/4
f 24/105/4 26/106/4 30/107/4 19/108/4
f 25/109/3 23/110/3 17/111/3 28/112/3
f 33/113/22 34/114/22 35/115/22 36/116/22
f 37/117/23 38/118/23 39/119/23 40/120/23
f 35/121/3 34/122/3 38/123/3 37/124/3
f 39/125/4 33/126/4 36/127/4 40/128/4
f 38/129/5 34/130/5 33/131/5 39/132/5
f 36/133/6 35/134/6 37/135/6 40/136/6
f 41/137/8 42/138/8 43/139/8 44/140/8
f 45/141/7 46/142/7 47/143/7 48/144/7
f 43/145/9 42/146/9 49/147/9 50/148/9
f 51/149/10 41/150/10 44/151/10 52/152/10
f 53/153/24 54/154/24 55/155/24 56/156/24
f 44/157/12 43/158/12 50/159/12 52/160/12
f 56/161/25 57/162/25 58/163/25 53/164/25
f 49/165/26 59/166/26 60/167/26 50/168/26
f 50/169/27 60/170/27 61/171/27 52/172/27
f 52/173/28 61/174/28 62/175/28 51/176/28
f 57/177/29 63/178/29 64/179/29 58/180/29
f 59/181/30 46/182/30 45/183/30 60/184/30
f 60/185/12 45/186/12 48/187/12 61/188/12
f 61/189/31 48/190/31 47/191/31 62/192/31
f 46/193/7 64/194/7 63/195/7 47/196/7
f 47/197/32 63/198/32 57/199/32 62/200/32
f 59/201/33 58/202/33 64/203/33 46/204/33
f 41/205/8 55/206/8 54/207/8 42/208/8
f 42/209/3 54/210/3 53/211/3 49/212/3
f 51/213/4 56/214/4 55/215/4 41/216/4
f 62/217/4 57/218/4 56/219/4 51/220/4
f 49/221/3 53/222/3 58/223/3 59/224/3
f 65/225/23 66/226/23 67/227/23 68/228/23
f 69/229/22 70/230/22 71/231/22 72/232/22
f 70/233/3 66/234/3 65/235/3 71/236/3
f 68/237/4 67/238/4 69/239/4 72/240/4
f 67/241/5 66/242/5 70/230/5 69/243/5
f 71/244/6 65/245/6 68/246/6 72/247/6
f 73/248/2 74/249/2 75/250/2 76/251/2
f 77/252/1 78/253/1 79/254/1 80/255/1
f 75/256/3 74/257/3 78/258/3 77/259/3
f 79/260/4 73/261/4 76/262/4 80/263/4
f 78/253/5 74/264/5 73/265/5 79/266/5
f 76/267/6 75/268/6 77/269/6 80/270/6
