# Blender v2.79 (sub 0) OBJ File: ''
# www.blender.org
mtllib drill.mtl
o cylinder
v 1.098076 0.401924 0.437500
v 0.401924 -0.000000 0.437500
v 0.000000 1.500000 0.437500
v 0.640544 0.859455 2.437500
v 0.234456 0.625000 2.437500
v 0.000000 1.500000 2.437500
v 1.500000 1.098076 0.437500
v 0.875000 1.265544 2.437500
v 1.500000 1.901924 0.437500
v 0.875000 1.734455 2.437500
v 1.098076 2.598076 0.437500
v 0.640544 2.140544 2.437500
v 0.401924 3.000000 0.437500
v 0.234456 2.375000 2.437500
v -0.401924 3.000000 0.437500
v -0.234456 2.375000 2.437500
v -1.098076 2.598076 0.437500
v -0.640544 2.140544 2.437500
v -1.500000 1.901924 0.437500
v -0.875000 1.734455 2.437500
v -1.500000 1.098076 0.437500
v -0.875000 1.265544 2.437500
v -1.098076 0.401924 0.437500
v -0.640544 0.859455 2.437500
v -0.401924 -0.000000 0.437500
v -0.234456 0.625000 2.437500
v 0.640544 0.859455 2.437500
v 0.234456 0.625000 2.437500
v 0.000000 1.500000 2.437500
v 0.366025 1.133974 3.187500
v 0.133975 1.000000 3.187500
v 0.000000 1.500000 3.687500
v 0.875000 1.265544 2.437500
v 0.500000 1.366025 3.187500
v 0.875000 1.734455 2.437500
v 0.500000 1.633974 3.187500
v 0.640544 2.140544 2.437500
v 0.366025 1.866025 3.187500
v 0.234456 2.375000 2.437500
v 0.133975 2.000000 3.187500
v -0.234456 2.375000 2.437500
v -0.133975 2.000000 3.187500
v -0.640544 2.140544 2.437500
v -0.366025 1.866025 3.187500
v -0.875000 1.734455 2.437500
v -0.500000 1.633974 3.187500
v -0.875000 1.265544 2.437500
v -0.500000 1.366025 3.187500
v -0.640544 0.859455 2.437500
v -0.366025 1.133974 3.187500
v -0.234456 0.625000 2.437500
v -0.133975 1.000000 3.187500
vt 0.357692 0.974880
vt 0.314183 1.000000
vt 0.289062 0.906250
vt 0.298558 0.671505
vt 0.348376 0.678007
vt 0.323396 0.804688
vt 0.290184 0.800352
vt 0.469872 0.875000
vt 0.498878 0.891747
vt 0.453125 0.937500
vt 0.382812 0.931370
vt 0.354749 0.717070
vt 0.404567 0.710567
vt 0.412941 0.839415
vt 0.379729 0.843750
vt 0.515625 0.920753
vt 0.382812 0.881130
vt 0.454808 0.710567
vt 0.446434 0.839415
vt 0.515625 0.954247
vt 0.357692 0.837620
vt 0.504626 0.717070
vt 0.479646 0.843750
vt 0.498878 0.983253
vt 0.314183 0.812500
vt 0.292249 0.537382
vt 0.342067 0.530880
vt 0.350441 0.659727
vt 0.317229 0.664062
vt 0.469872 1.000000
vt 0.263942 0.812500
vt 0.392308 0.530880
vt 0.383934 0.659727
vt 0.436378 1.000000
vt 0.220433 0.837620
vt 0.442126 0.537382
vt 0.417146 0.664062
vt 0.407372 0.983253
vt 0.195312 0.881130
vt 0.003187 0.482695
vt 0.053005 0.476192
vt 0.061378 0.605040
vt 0.028166 0.609375
vt 0.390625 0.954247
vt 0.195312 0.931370
vt 0.103245 0.476192
vt 0.094872 0.605040
vt 0.390625 0.920753
vt 0.220433 0.974880
vt 0.153063 0.482695
vt 0.128084 0.609375
vt 0.407372 0.891747
vt 0.263942 1.000000
vt 0.198499 0.678007
vt 0.248317 0.671505
vt 0.256691 0.800352
vt 0.223479 0.804688
vt 0.436378 0.875000
vt 0.264503 0.592628
vt 0.235497 0.609375
vt 0.218750 0.546875
vt 0.497216 0.456242
vt 0.529761 0.464156
vt 0.505115 0.530076
vt 0.488842 0.526119
vt 0.504428 0.532245
vt 0.480469 0.570312
vt 0.281250 0.563622
vt 0.259301 0.417281
vt 0.291847 0.409367
vt 0.300220 0.479244
vt 0.283948 0.483201
vt 0.284634 0.485370
vt 0.308594 0.523438
vt 0.281250 0.530128
vt 0.325341 0.409367
vt 0.316967 0.479244
vt 0.264503 0.501122
vt 0.357886 0.417281
vt 0.333240 0.483201
vt 0.332553 0.485370
vt 0.235497 0.484375
vt 0.446801 0.596968
vt 0.479347 0.589055
vt 0.487720 0.658931
vt 0.471448 0.662888
vt 0.472134 0.665057
vt 0.496094 0.703125
vt 0.202003 0.484375
vt 0.512841 0.589055
vt 0.504467 0.658931
vt 0.172997 0.501122
vt 0.545386 0.596968
vt 0.520740 0.662888
vt 0.520053 0.665057
vt 0.156250 0.530128
vt 0.501489 0.839156
vt 0.534034 0.831242
vt 0.542408 0.901119
vt 0.526135 0.905076
vt 0.526822 0.907245
vt 0.550781 0.945312
vt 0.156250 0.563622
vt 0.567528 0.831242
vt 0.559155 0.901119
vt 0.172997 0.592628
vt 0.600074 0.839156
vt 0.575427 0.905076
vt 0.574741 0.907245
vt 0.202003 0.609375
vt 0.431176 0.464156
vt 0.463722 0.456242
vt 0.472095 0.526119
vt 0.455823 0.530076
vt 0.456509 0.532245
vn 0.0000 0.0000 -1.0000
vn 0.4772 -0.8266 0.2983
vn 0.0000 0.0000 1.0000
vn 0.8266 -0.4772 0.2983
vn 0.9545 0.0000 0.2983
vn 0.8266 0.4772 0.2983
vn 0.4772 0.8266 0.2983
vn 0.0000 0.9545 0.2983
vn -0.4772 0.8266 0.2983
vn -0.8266 0.4772 0.2983
vn -0.9545 0.0000 0.2983
vn -0.8266 -0.4772 0.2983
vn -0.4772 -0.8266 0.2983
vn 0.0000 -0.9545 0.2983
vn 0.4472 -0.7746 0.4472
vn 0.3536 -0.6124 0.7071
vn 0.7746 -0.4472 0.4472
vn 0.6124 -0.3536 0.7071
vn 0.8944 0.0000 0.4472
vn 0.7071 0.0000 0.7071
vn 0.7746 0.4472 0.4472
vn 0.6124 0.3536 0.7071
vn 0.4472 0.7746 0.4472
vn 0.3536 0.6124 0.7071
vn 0.0000 0.8944 0.4472
vn 0.0000 0.7071 0.7071
vn -0.4472 0.7746 0.4472
vn -0.3536 0.6124 0.7071
vn -0.7746 0.4472 0.4472
vn -0.6124 0.3536 0.7071
vn -0.8944 0.0000 0.4472
vn -0.7071 0.0000 0.7071
vn -0.7746 -0.4472 0.4472
vn -0.6124 -0.3536 0.7071
vn -0.4472 -0.7746 0.4472
vn -0.3536 -0.6124 0.7071
vn 0.0000 -0.8944 0.4472
vn 0.0000 -0.7071 0.7071
usemtl m_d9060ec6-3e96-ec5d-a582-0ed3961bd1ee
s 1
f 1/1/1 2/2/1 3/3/1
f 2/4/2 1/5/2 4/6/2 5/7/2
f 5/8/3 4/9/3 6/10/3
f 7/11/1 1/1/1 3/3/1
f 1/12/4 7/13/4 8/14/4 4/15/4
f 4/9/3 8/16/3 6/10/3
f 9/17/1 7/11/1 3/3/1
f 7/13/5 9/18/5 10/19/5 8/14/5
f 8/16/3 10/20/3 6/10/3
f 11/21/1 9/17/1 3/3/1
f 9/18/6 11/22/6 12/23/6 10/19/6
f 10/20/3 12/24/3 6/10/3
f 13/25/1 11/21/1 3/3/1
f 11/26/7 13/27/7 14/28/7 12/29/7
f 12/24/3 14/30/3 6/10/3
f 15/31/1 13/25/1 3/3/1
f 13/27/8 15/32/8 16/33/8 14/28/8
f 14/30/3 16/34/3 6/10/3
f 17/35/1 15/31/1 3/3/1
f 15/32/9 17/36/9 18/37/9 16/33/9
f 16/34/3 18/38/3 6/10/3
f 19/39/1 17/35/1 3/3/1
f 17/40/10 19/41/10 20/42/10 18/43/10
f 18/38/3 20/44/3 6/10/3
f 21/45/1 19/39/1 3/3/1
f 19/41/11 21/46/11 22/47/11 20/42/11
f 20/44/3 22/48/3 6/10/3
f 23/49/1 21/45/1 3/3/1
f 21/46/12 23/50/12 24/51/12 22/47/12
f 22/48/3 24/52/3 6/10/3
f 25/53/1 23/49/1 3/3/1
f 23/54/13 25/55/13 26/56/13 24/57/13
f 24/52/3 26/58/3 6/10/3
f 2/2/1 25/53/1 3/3/1
f 25/55/14 2/4/14 5/7/14 26/56/14
f 26/58/3 5/8/3 6/10/3
f 27/59/1 28/60/1 29/61/1
f 28/62/15 27/63/15 30/64/15 31/65/15
f 31/65/16 30/66/16 32/67/16
f 33/68/1 27/59/1 29/61/1
f 27/69/17 33/70/17 34/71/17 30/72/17
f 30/73/18 34/71/18 32/74/18
f 35/75/1 33/68/1 29/61/1
f 33/70/19 35/76/19 36/77/19 34/71/19
f 34/71/20 36/77/20 32/74/20
f 37/78/1 35/75/1 29/61/1
f 35/76/21 37/79/21 38/80/21 36/77/21
f 36/77/22 38/81/22 32/74/22
f 39/82/1 37/78/1 29/61/1
f 37/83/23 39/84/23 40/85/23 38/86/23
f 38/87/24 40/85/24 32/88/24
f 41/89/1 39/82/1 29/61/1
f 39/84/25 41/90/25 42/91/25 40/85/25
f 40/85/26 42/91/26 32/88/26
f 43/92/1 41/89/1 29/61/1
f 41/90/27 43/93/27 44/94/27 42/91/27
f 42/91/28 44/95/28 32/88/28
f 45/96/1 43/92/1 29/61/1
f 43/97/29 45/98/29 46/99/29 44/100/29
f 44/101/30 46/99/30 32/102/30
f 47/103/1 45/96/1 29/61/1
f 45/98/31 47/104/31 48/105/31 46/99/31
f 46/99/32 48/105/32 32/102/32
f 49/106/1 47/103/1 29/61/1
f 47/104/33 49/107/33 50/108/33 48/105/33
f 48/105/34 50/109/34 32/102/34
f 51/110/1 49/106/1 29/61/1
f 49/111/35 51/112/35 52/113/35 50/114/35
f 50/115/36 52/113/36 32/67/36
f 28/60/1 51/110/1 29/61/1
f 51/112/37 28/62/37 31/65/37 52/113/37
f 52/113/38 31/65/38 32/67/38
o cuboid
v 1.500000 3.000000 0.000000
v 1.500000 3.000000 0.187500
v 1.500000 -0.000000 0.187500
v 1.500000 0.000000 0.000000
v -1.500000 -0.000000 0.187500
v -1.500000 3.000000 0.187500
v -1.500000 3.000000 0.000000
v -1.500000 0.000000 0.000000
v 0.125000 1.750000 0.187500
v 0.125000 1.750000 0.437500
v 0.125000 1.500000 0.437500
v 0.125000 1.500000 0.187500
v -0.125000 1.500000 0.437500
v -0.125000 1.750000 0.437500
v -0.125000 1.750000 0.187500
v -0.125000 1.500000 0.187500
vt 0.242188 0.476562
vt 0.226562 0.476562
vt 0.226562 0.289062
vt 0.242188 0.289062
vt 0.015625 0.281250
vt 0.015625 0.468750
vt 0.000000 0.468750
vt 0.000000 0.281250
vt 0.500000 0.804688
vt 0.687500 0.804688
vt 0.687500 0.820312
vt 0.500000 0.820312
vt 0.687500 0.562500
vt 0.687500 0.578125
vt 0.500000 0.578125
vt 0.500000 0.562500
vt 0.187500 0.812500
vt 0.187500 1.000000
vt 0.000000 1.000000
vt 0.000000 0.812500
vt 0.187500 0.804688
vt 0.000000 0.804688
vt 0.000000 0.617188
vt 0.187500 0.617188
vt 0.226562 0.664062
vt 0.195312 0.664062
vt 0.195312 0.632812
vt 0.226562 0.632812
vt 0.265625 0.625000
vt 0.265625 0.656250
vt 0.234375 0.656250
vt 0.234375 0.625000
vt 0.359375 0.671875
vt 0.390625 0.671875
vt 0.390625 0.703125
vt 0.359375 0.703125
vt 0.460938 0.664062
vt 0.460938 0.695312
vt 0.429688 0.695312
vt 0.429688 0.664062
vt 0.539062 0.765625
vt 0.539062 0.796875
vt 0.507812 0.796875
vt 0.507812 0.765625
vt 0.546875 0.757812
vt 0.515625 0.757812
vt 0.515625 0.726562
vt 0.546875 0.726562
vn 1.0000 0.0000 0.0000
vn -1.0000 0.0000 0.0000
vn 0.0000 1.0000 0.0000
vn 0.0000 -1.0000 -0.0000
vn 0.0000 -0.0000 1.0000
vn 0.0000 0.0000 -1.0000
usemtl m_d9060ec6-3e96-ec5d-a582-0ed3961bd1ee
s 1
f 53/116/39 54/117/39 55/118/39 56/119/39
f 57/120/40 58/121/40 59/122/40 60/123/40
f 58/124/41 54/125/41 53/126/41 59/127/41
f 56/128/42 55/129/42 57/130/42 60/131/42
f 55/132/43 54/133/43 58/134/43 57/135/43
f 59/136/44 53/137/44 56/138/44 60/139/44
f 61/140/39 62/141/39 63/142/39 64/143/39
f 65/144/40 66/145/40 67/146/40 68/147/40
f 66/148/41 62/149/41 61/150/41 67/151/41
f 64/152/42 63/153/42 65/154/42 68/155/42
f 63/156/43 62/157/43 66/158/43 65/159/43
f 67/160/44 61/161/44 64/162/44 68/163/44
