# Blender v2.79 (sub 0) OBJ File: ''
# www.blender.org
mtllib ekgmonitor.mtl
o cube
v 0.062500 0.437500 -0.187500
v 0.062500 0.437500 0.187500
v 0.062500 -0.000000 0.187500
v 0.062500 0.000000 -0.187500
v -0.437500 -0.000000 0.187500
v -0.437500 0.437500 0.187500
v -0.437500 0.437500 -0.187500
v -0.437500 0.000000 -0.187500
v 0.000000 0.062500 0.125000
v 0.000000 0.375000 0.125000
v -0.375000 0.375000 0.125000
v -0.375000 0.062500 0.125000
v 0.031250 0.406250 0.203125
v 0.031250 0.031250 0.203125
v -0.406250 0.406250 0.203125
v -0.406250 0.031250 0.203125
v 0.000000 0.062500 0.187500
v 0.000000 0.375000 0.187500
v -0.375000 0.375000 0.187500
v -0.375000 0.062500 0.187500
v 0.437500 0.437500 -0.187500
v 0.437500 0.437500 0.187500
v 0.437500 -0.000000 0.187500
v 0.437500 0.000000 -0.187500
v 0.062500 -0.000000 0.187500
v 0.062500 0.437500 0.187500
v 0.062500 0.437500 -0.187500
v 0.062500 0.000000 -0.187500
v 0.375000 0.000000 -0.250000
v 0.375000 0.187500 -0.250000
v 0.437500 0.229167 -0.187500
v 0.437500 0.000000 -0.187500
v -0.437500 0.000000 -0.187500
v -0.437500 0.229167 -0.187500
v -0.375000 0.187500 -0.250000
v -0.375000 0.000000 -0.250000
v -0.437500 0.437500 -0.187500
v 0.437500 0.437500 -0.187500
v 0.375000 0.375000 -0.250000
v -0.375000 0.375000 -0.250000
v 0.406250 0.218750 0.187500
v 0.406250 0.218750 0.218750
v 0.406250 0.093750 0.218750
v 0.406250 0.093750 0.187500
v 0.281250 0.093750 0.218750
v 0.281250 0.218750 0.218750
v 0.281250 0.218750 0.187500
v 0.281250 0.093750 0.187500
v 0.343750 0.062500 0.187500
v 0.343750 0.062500 0.250000
v 0.343750 -0.000000 0.250000
v 0.343750 -0.000000 0.187500
v 0.156250 -0.000000 0.250000
v 0.156250 0.062500 0.250000
v 0.156250 0.062500 0.187500
v 0.156250 -0.000000 0.187500
v 0.218750 0.218750 0.187500
v 0.218750 0.218750 0.218750
v 0.218750 0.093750 0.218750
v 0.218750 0.093750 0.187500
v 0.093750 0.093750 0.218750
v 0.093750 0.218750 0.218750
v 0.093750 0.218750 0.187500
v 0.093750 0.093750 0.187500
v 0.406250 0.406250 0.187500
v 0.406250 0.406250 0.218750
v 0.406250 0.281250 0.218750
v 0.406250 0.281250 0.187500
v 0.281250 0.281250 0.218750
v 0.281250 0.406250 0.218750
v 0.281250 0.406250 0.187500
v 0.281250 0.281250 0.187500
v 0.218750 0.406250 0.187500
v 0.218750 0.406250 0.218750
v 0.218750 0.281250 0.218750
v 0.218750 0.281250 0.187500
v 0.093750 0.281250 0.218750
v 0.093750 0.406250 0.218750
v 0.093750 0.406250 0.187500
v 0.093750 0.281250 0.187500
vt 0.093750 0.148438
vt 0.000000 0.148438
vt 0.000000 0.039062
vt 0.093750 0.039062
vt 0.093750 0.000000
vt 0.093750 0.109375
vt 0.000000 0.109375
vt 0.000000 0.000000
vt 0.000000 0.031250
vt 0.125000 0.031250
vt 0.125000 0.125000
vt 0.000000 0.125000
vt 0.125000 0.031250
vt 0.125000 0.125000
vt 0.000000 0.125000
vt 0.000000 0.031250
vt 0.093750 0.000000
vt 0.093750 0.078125
vt 0.000000 0.078125
vt 0.000000 0.000000
vt 0.125000 0.093750
vt 0.000000 0.093750
vt 0.000000 0.000000
vt 0.125000 0.000000
vt 0.093750 0.226562
vt 0.085938 0.218750
vt 0.085938 0.125000
vt 0.093750 0.117188
vt 0.000000 0.140625
vt 0.007812 0.132813
vt 0.117188 0.132813
vt 0.125000 0.140625
vt 0.015625 0.117188
vt 0.023437 0.125000
vt 0.023437 0.218750
vt 0.015625 0.226562
vt 0.125000 0.093750
vt 0.117188 0.101562
vt 0.007812 0.101562
vt 0.000000 0.093750
vt 0.078125 0.210938
vt 0.078125 0.132812
vt 0.093750 0.132812
vt 0.093750 0.210938
vt 0.007812 0.125000
vt 0.117188 0.125000
vt 0.117188 0.140625
vt 0.007812 0.140625
vt 0.031250 0.132812
vt 0.031250 0.210938
vt 0.015625 0.210938
vt 0.015625 0.132812
vt 0.117188 0.109375
vt 0.007812 0.109375
vt 0.007812 0.093750
vt 0.117188 0.093750
vt 0.109375 0.125000
vt 0.015625 0.125000
vt 0.031250 0.210938
vt 0.031250 0.132812
vt 0.015625 0.109375
vt 0.109375 0.109375
vt 0.078125 0.132812
vt 0.078125 0.210938
vt 0.187500 0.203125
vt 0.093750 0.203125
vt 0.093750 0.093750
vt 0.187500 0.093750
vt 0.187500 0.093750
vt 0.187500 0.203125
vt 0.093750 0.203125
vt 0.093750 0.093750
vt 0.000000 0.109375
vt 0.093750 0.109375
vt 0.093750 0.203125
vt 0.000000 0.203125
vt 0.093750 0.109375
vt 0.093750 0.203125
vt 0.000000 0.203125
vt 0.000000 0.109375
vt 0.187500 0.093750
vt 0.187500 0.203125
vt 0.093750 0.203125
vt 0.093750 0.093750
vt 0.187500 0.203125
vt 0.093750 0.093750
vt 0.187500 0.093750
vt 0.015625 0.000000
vt 0.015625 0.062500
vt 0.000000 0.072917
vt 0.000000 0.000000
vt 0.015625 0.000000
vt 0.015625 0.072917
vt 0.000000 0.062500
vt 0.000000 0.000000
vt 0.218750 0.109375
vt 0.000000 0.109375
vt 0.015625 0.093750
vt 0.203125 0.093750
vt 0.203125 0.093750
vt 0.218750 0.109375
vt 0.000000 0.109375
vt 0.015625 0.093750
vt 0.218750 0.000000
vt 0.218750 0.072917
vt 0.000000 0.072917
vt 0.000000 0.000000
vt 0.687500 0.117188
vt 0.687500 0.164062
vt 0.500000 0.164062
vt 0.500000 0.117188
vt 0.000000 0.109375
vt 0.000000 0.062500
vt 0.218750 0.062500
vt 0.218750 0.109375
vt 0.000000 0.093750
vt 0.015625 0.109375
vt 0.000000 0.109375
vt 0.218750 0.109375
vt 0.281250 0.031250
vt 0.250000 0.031250
vt 0.250000 0.000000
vt 0.281250 0.000000
vt 0.281250 0.000000
vt 0.281250 0.031250
vt 0.250000 0.031250
vt 0.250000 0.000000
vt 0.250000 0.000000
vt 0.281250 0.000000
vt 0.281250 0.031250
vt 0.250000 0.031250
vt 0.281250 0.000000
vt 0.281250 0.031250
vt 0.250000 0.031250
vt 0.250000 0.000000
vt 0.281250 0.031250
vt 0.250000 0.031250
vt 0.250000 0.000000
vt 0.281250 0.000000
vt 0.265625 0.015625
vt 0.250000 0.015625
vt 0.250000 0.000000
vt 0.265625 0.000000
vt 0.265625 0.000000
vt 0.265625 0.015625
vt 0.250000 0.015625
vt 0.250000 0.000000
vt 0.265625 0.000000
vt 0.312500 0.000000
vt 0.312500 0.015625
vt 0.265625 0.015625
vt 0.312500 0.000000
vt 0.312500 0.015625
vt 0.265625 0.015625
vt 0.265625 0.000000
vt 0.312500 0.000000
vt 0.312500 0.015625
vt 0.312500 0.015625
vt 0.312500 0.000000
vt 0.281250 0.031250
vt 0.250000 0.031250
vt 0.250000 0.000000
vt 0.281250 0.000000
vt 0.281250 0.000000
vt 0.281250 0.031250
vt 0.250000 0.031250
vt 0.250000 0.000000
vt 0.250000 0.000000
vt 0.281250 0.000000
vt 0.281250 0.031250
vt 0.250000 0.031250
vt 0.281250 0.000000
vt 0.281250 0.031250
vt 0.250000 0.031250
vt 0.250000 0.000000
vt 0.281250 0.031250
vt 0.250000 0.031250
vt 0.250000 0.000000
vt 0.281250 0.000000
vt 0.281250 0.031250
vt 0.250000 0.031250
vt 0.250000 0.000000
vt 0.281250 0.000000
vt 0.281250 0.000000
vt 0.281250 0.031250
vt 0.250000 0.031250
vt 0.250000 0.000000
vt 0.250000 0.000000
vt 0.281250 0.000000
vt 0.281250 0.031250
vt 0.250000 0.031250
vt 0.281250 0.000000
vt 0.281250 0.031250
vt 0.250000 0.031250
vt 0.250000 0.000000
vt 0.281250 0.031250
vt 0.250000 0.031250
vt 0.250000 0.000000
vt 0.281250 0.000000
vt 0.281250 0.031250
vt 0.250000 0.031250
vt 0.250000 0.000000
vt 0.281250 0.000000
vt 0.281250 0.000000
vt 0.281250 0.031250
vt 0.250000 0.031250
vt 0.250000 0.000000
vt 0.250000 0.000000
vt 0.281250 0.000000
vt 0.281250 0.031250
vt 0.250000 0.031250
vt 0.281250 0.000000
vt 0.281250 0.031250
vt 0.250000 0.031250
vt 0.250000 0.000000
vt 0.281250 0.031250
vt 0.250000 0.031250
vt 0.250000 0.000000
vt 0.281250 0.000000
vn 1.0000 0.0000 0.0000
vn -1.0000 -0.0000 0.0000
vn 0.0000 1.0000 0.0000
vn 0.0000 -1.0000 -0.0000
vn 0.0000 -0.0000 1.0000
vn 0.0000 0.0000 -1.0000
vn 0.4472 -0.0000 0.8944
vn 0.0000 0.4472 0.8944
vn -0.4472 -0.0000 0.8944
vn 0.0000 -0.4472 0.8944
vn 0.7071 0.0000 -0.7071
vn -0.7071 0.0000 -0.7071
vn 0.0000 0.7071 -0.7071
usemtl m_5bfdd6ab-2a8d-8b32-748c-e436c94d50ad
s 1
f 1/1/1 2/2/1 3/3/1 4/4/1
f 5/5/2 6/6/2 7/7/2 8/8/2
f 6/9/3 2/10/3 1/11/3 7/12/3
f 4/13/4 3/14/4 5/15/4 8/16/4
f 9/17/5 10/18/5 11/19/5 12/20/5
f 7/21/6 1/22/6 4/23/6 8/24/6
f 2/25/7 13/26/7 14/27/7 3/28/7
f 6/29/8 15/30/8 13/31/8 2/32/8
f 5/33/9 16/34/9 15/35/9 6/36/9
f 3/37/10 14/38/10 16/39/10 5/40/10
f 10/41/2 9/42/2 17/43/2 18/44/2
f 11/45/4 10/46/4 18/47/4 19/48/4
f 12/49/1 11/50/1 19/51/1 20/52/1
f 9/53/3 12/54/3 20/55/3 17/56/3
f 18/57/10 13/31/10 15/30/10 19/58/10
f 19/59/7 15/35/7 16/34/7 20/60/7
f 20/61/8 16/39/8 14/38/8 17/62/8
f 17/63/9 14/27/9 13/26/9 18/64/9
f 21/65/1 22/66/1 23/67/1 24/68/1
f 25/69/2 26/70/2 27/71/2 28/72/2
f 26/73/3 22/74/3 21/75/3 27/76/3
f 24/77/4 23/78/4 25/79/4 28/80/4
f 23/81/5 22/82/5 26/83/5 25/84/5
f 27/85/6 21/75/6 24/86/6 28/87/6
f 29/88/11 30/89/11 31/90/11 32/91/11
f 33/92/12 34/93/12 35/94/12 36/95/12
f 37/96/13 38/97/13 39/98/13 40/99/13
f 29/100/4 32/101/4 33/102/4 36/103/4
f 32/104/5 31/105/5 34/106/5 33/107/5
f 36/108/6 35/109/6 30/110/6 29/111/6
f 39/112/6 30/113/6 35/114/6 40/115/6
f 40/116/12 35/94/12 34/93/12 37/117/12
f 37/118/5 34/106/5 31/105/5 38/119/5
f 38/97/11 31/90/11 30/89/11 39/98/11
f 41/120/1 42/121/1 43/122/1 44/123/1
f 45/124/2 46/125/2 47/126/2 48/127/2
f 46/128/3 42/129/3 41/120/3 47/126/3
f 44/123/4 43/130/4 45/131/4 48/127/4
f 43/132/5 42/133/5 46/134/5 45/135/5
f 47/136/6 41/137/6 44/138/6 48/139/6
f 49/140/1 50/141/1 51/142/1 52/143/1
f 53/144/2 54/145/2 55/146/2 56/147/2
f 54/148/3 50/149/3 49/150/3 55/151/3
f 52/152/4 51/153/4 53/154/4 56/155/4
f 51/156/5 50/157/5 54/145/5 53/144/5
f 55/158/6 49/140/6 52/143/6 56/159/6
f 57/160/1 58/161/1 59/162/1 60/163/1
f 61/164/2 62/165/2 63/166/2 64/167/2
f 62/168/3 58/169/3 57/160/3 63/166/3
f 60/163/4 59/170/4 61/171/4 64/167/4
f 59/172/5 58/173/5 62/174/5 61/175/5
f 63/176/6 57/177/6 60/178/6 64/179/6
f 65/180/1 66/181/1 67/182/1 68/183/1
f 69/184/2 70/185/2 71/186/2 72/187/2
f 70/188/3 66/189/3 65/180/3 71/186/3
f 68/183/4 67/190/4 69/191/4 72/187/4
f 67/192/5 66/193/5 70/194/5 69/195/5
f 71/196/6 65/197/6 68/198/6 72/199/6
f 73/200/1 74/201/1 75/202/1 76/203/1
f 77/204/2 78/205/2 79/206/2 80/207/2
f 78/208/3 74/209/3 73/200/3 79/206/3
f 76/203/4 75/210/4 77/211/4 80/207/4
f 75/212/5 74/213/5 78/214/5 77/215/5
f 79/216/6 73/217/6 76/218/6 80/219/6
o scanlines_translucent
v 0.000000 0.375000 0.148438
v 0.000000 0.375000 0.164063
v 0.000000 0.062500 0.164062
v 0.000000 0.062500 0.148438
v -0.375000 0.062500 0.164062
v -0.375000 0.375000 0.164063
v -0.375000 0.375000 0.148438
v -0.375000 0.062500 0.148438
vt 1.000000 0.250000
vt 1.000000 0.625000
vt 0.500000 0.625000
vt 0.500000 0.250000
vt 1.000000 0.250000
vt 1.000000 0.625000
vt 0.500000 0.625000
vt 0.500000 0.250000
vt 1.000000 0.250000
vt 0.500000 0.625000
vt 0.500000 0.250000
vt 1.000000 0.250000
vt 1.000000 0.625000
vt 0.500000 0.625000
vt 1.000000 0.242188
vt 1.000000 0.617188
vt 0.500000 0.617188
vt 0.500000 0.242188
vt 1.000000 0.250000
vt 1.000000 0.625000
vt 0.500000 0.625000
vn 1.0000 0.0000 0.0000
vn -1.0000 0.0000 0.0000
vn 0.0000 1.0000 0.0000
vn 0.0000 -1.0000 0.0000
vn 0.0000 -0.0000 1.0000
vn 0.0000 0.0000 -1.0000
usemtl m_5bfdd6ab-2a8d-8b32-748c-e436c94d50ad
s 1
f 81/220/14 82/221/14 83/222/14 84/223/14
f 85/224/15 86/225/15 87/226/15 88/227/15
f 86/228/16 82/221/16 81/229/16 87/230/16
f 84/231/17 83/232/17 85/233/17 88/227/17
f 83/234/18 82/235/18 86/236/18 85/237/18
f 87/238/19 81/239/19 84/240/19 88/227/19
o glass_translucent
v 0.000000 0.375000 0.140625
v 0.000000 0.375000 0.171875
v 0.000000 0.062500 0.171875
v 0.000000 0.062500 0.140625
v -0.375000 0.062500 0.171875
v -0.375000 0.375000 0.171875
v -0.375000 0.375000 0.140625
v -0.375000 0.062500 0.140625
vt 0.734375 0.007812
vt 0.734375 0.015625
vt 0.742188 0.015625
vt 0.742188 0.007812
vt 0.734375 0.007812
vt 0.734375 0.015625
vt 0.742188 0.015625
vt 0.742188 0.007812
vt 0.734375 0.007812
vt 0.742188 0.015625
vt 0.742188 0.007812
vt 0.734375 0.007812
vt 0.734375 0.015625
vt 0.742188 0.015625
vt 0.968750 0.078125
vt 0.968750 0.234375
vt 0.781250 0.234375
vt 0.781250 0.078125
vt 0.734375 0.007812
vt 0.734375 0.015625
vt 0.742188 0.015625
vn 1.0000 0.0000 0.0000
vn -1.0000 0.0000 0.0000
vn 0.0000 1.0000 0.0000
vn 0.0000 -1.0000 0.0000
vn 0.0000 -0.0000 1.0000
vn 0.0000 0.0000 -1.0000
usemtl m_5bfdd6ab-2a8d-8b32-748c-e436c94d50ad
s 1
f 89/241/20 90/242/20 91/243/20 92/244/20
f 93/245/21 94/246/21 95/247/21 96/248/21
f 94/249/22 90/242/22 89/250/22 95/251/22
f 92/252/23 91/253/23 93/254/23 96/248/23
f 91/255/24 90/256/24 94/257/24 93/258/24
f 95/259/25 89/260/25 92/261/25 96/248/25
o screen
v 0.000000 0.375000 0.031250
v 0.000000 0.375000 0.156250
v 0.000000 0.062500 0.156250
v 0.000000 0.062500 0.031250
v -0.375000 0.062500 0.156250
v -0.375000 0.375000 0.156250
v -0.375000 0.375000 0.031250
v -0.375000 0.062500 0.031250
vt 0.500000 1.000000
vt 0.000000 1.000000
vt 0.000000 0.625000
vt 0.500000 0.625000
vt 0.500000 0.625000
vt 0.500000 1.000000
vt 0.000000 1.000000
vt 0.000000 0.625000
vt 0.000000 0.625000
vt 0.500000 0.625000
vt 0.500000 1.000000
vt 0.000000 1.000000
vt 0.500000 0.625000
vt 0.500000 1.000000
vt 0.000000 1.000000
vt 0.000000 0.625000
vt 0.500000 1.000000
vt 0.000000 1.000000
vt 0.000000 0.625000
vt 0.500000 0.625000
vn 1.0000 0.0000 0.0000
vn -1.0000 0.0000 0.0000
vn 0.0000 1.0000 0.0000
vn 0.0000 -1.0000 -0.0000
vn 0.0000 -0.0000 1.0000
vn 0.0000 0.0000 -1.0000
usemtl m_5bfdd6ab-2a8d-8b32-748c-e436c94d50ad
s 1
f 97/262/26 98/263/26 99/264/26 100/265/26
f 101/266/27 102/267/27 103/268/27 104/269/27
f 102/270/28 98/271/28 97/262/28 103/268/28
f 100/265/29 99/272/29 101/273/29 104/269/29
f 99/274/30 98/275/30 102/276/30 101/277/30
f 103/278/31 97/279/31 100/280/31 104/281/31
o icon_heart
v -0.296875 0.296875 0.157227
v -0.296875 0.359375 0.157227
v -0.359375 0.359375 0.157227
v -0.359375 0.296875 0.157227
vt 0.078125 0.546875
vt 0.078125 0.617188
vt 0.007812 0.617188
vt 0.007812 0.546875
vn 0.0000 0.0000 1.0000
usemtl m_5bfdd6ab-2a8d-8b32-748c-e436c94d50ad
s 1
f 105/282/32 106/283/32 107/284/32 108/285/32
o icon_engine
v -0.257812 0.296875 0.157227
v -0.257812 0.359375 0.157227
v -0.359375 0.359375 0.157227
v -0.359375 0.296875 0.157227
vt 0.210938 0.546875
vt 0.210938 0.617188
vt 0.093750 0.617188
vt 0.093750 0.546875
vn 0.0000 0.0000 1.0000
usemtl m_5bfdd6ab-2a8d-8b32-748c-e436c94d50ad
s 1
f 109/286/33 110/287/33 111/288/33 112/289/33
o attachment
v 0.156250 0.001953 0.406250
v 0.343750 0.001953 0.406250
v 0.343750 0.001953 0.218750
v 0.156250 0.001953 0.218750
v 0.343750 -0.000000 0.218750
v 0.343750 -0.000000 0.406250
v 0.156250 -0.000000 0.406250
v 0.156250 -0.000000 0.218750
vt 0.429688 0.312500
vt 0.484375 0.312500
vt 0.484375 0.250000
vt 0.429688 0.250000
vt 0.484375 0.312500
vt 0.484375 0.250000
vt 0.429688 0.250000
vt 0.429688 0.312500
vn 0.0000 1.0000 0.0000
vn 0.0000 -1.0000 -0.0000
usemtl m_5bfdd6ab-2a8d-8b32-748c-e436c94d50ad
s 1
f 113/290/34 114/291/34 115/292/34 116/293/34
f 117/294/35 118/295/35 119/296/35 120/297/35
o screenoff
v 0.000000 0.375000 0.031250
v 0.000000 0.375000 0.156250
v 0.000000 0.062500 0.156250
v 0.000000 0.062500 0.031250
v -0.375000 0.062500 0.156250
v -0.375000 0.375000 0.156250
v -0.375000 0.375000 0.031250
v -0.375000 0.062500 0.031250
vt 0.250000 0.250000
vt 0.250000 0.500000
vt 0.000000 0.500000
vt 0.000000 0.250000
vt 0.250000 0.250000
vt 0.250000 0.500000
vt 0.000000 0.500000
vt 0.000000 0.250000
vt 0.250000 0.250000
vt 0.000000 0.500000
vt 0.000000 0.250000
vt 0.250000 0.250000
vt 0.250000 0.500000
vt 0.000000 0.500000
vt 0.250000 0.250000
vt 0.000000 0.500000
vt 0.000000 0.250000
vt 0.250000 0.250000
vt 0.250000 0.500000
vt 0.000000 0.500000
vn 1.0000 0.0000 0.0000
vn -1.0000 0.0000 0.0000
vn 0.0000 1.0000 0.0000
vn 0.0000 -1.0000 -0.0000
vn 0.0000 -0.0000 1.0000
vn 0.0000 0.0000 -1.0000
usemtl m_5bfdd6ab-2a8d-8b32-748c-e436c94d50ad
s 1
f 121/298/36 122/299/36 123/300/36 124/301/36
f 125/302/37 126/303/37 127/304/37 128/305/37
f 126/306/38 122/299/38 121/307/38 127/308/38
f 124/309/39 123/310/39 125/311/39 128/305/39
f 123/312/40 122/299/40 126/313/40 125/314/40
f 127/315/41 121/316/41 124/317/41 128/305/41
