# Blender v2.79 (sub 0) OBJ File: ''
# www.blender.org
mtllib engineblock.mtl
o cuboid
v 0.218750 0.156250 0.062500
v 0.218750 0.156250 0.250000
v 0.218750 -0.031250 0.250000
v 0.218750 -0.031250 0.062500
v -0.218750 -0.031250 0.250000
v -0.218750 0.156250 0.250000
v -0.218750 0.156250 0.062500
v -0.218750 -0.031250 0.062500
v 0.218750 -0.031250 0.062500
v 0.218750 -0.031250 0.250000
v 0.156250 -0.093750 0.250000
v 0.156250 -0.093750 0.062500
v -0.156250 -0.093750 0.250000
v -0.218750 -0.031250 0.250000
v -0.218750 -0.031250 0.062500
v -0.156250 -0.093750 0.062500
v 0.156250 0.218750 0.062500
v 0.156250 0.218750 0.250000
v 0.218750 0.156250 0.250000
v 0.218750 0.156250 0.062500
v -0.218750 0.156250 0.250000
v -0.156250 0.218750 0.250000
v -0.156250 0.218750 0.062500
v -0.218750 0.156250 0.062500
v 0.218750 -0.031250 -0.000000
v 0.218750 -0.031250 0.062500
v 0.156250 -0.093750 0.062500
v 0.156250 -0.093750 -0.000000
v -0.156250 -0.093750 0.062500
v -0.218750 -0.031250 0.062500
v -0.218750 -0.031250 -0.000000
v -0.156250 -0.093750 -0.000000
v 0.218750 0.156250 0.000000
v 0.218750 0.156250 0.062500
v 0.218750 -0.031250 0.062500
v 0.218750 -0.031250 -0.000000
v -0.218750 -0.031250 0.062500
v -0.218750 0.156250 0.062500
v -0.218750 0.156250 0.000000
v -0.218750 -0.031250 -0.000000
v 0.156250 0.218750 0.000000
v 0.156250 0.218750 0.062500
v 0.218750 0.156250 0.062500
v 0.218750 0.156250 0.000000
v -0.218750 0.156250 0.062500
v -0.156250 0.218750 0.062500
v -0.156250 0.218750 0.000000
v -0.218750 0.156250 0.000000
vt 0.046875 0.562500
vt 0.000000 0.562500
vt 0.000000 0.515625
vt 0.046875 0.515625
vt 0.109375 0.515625
vt 0.109375 0.562500
vt 0.062500 0.562500
vt 0.062500 0.515625
vt 0.000000 0.953125
vt 0.109375 0.953125
vt 0.109375 1.000000
vt 0.000000 1.000000
vt 0.109375 0.890625
vt 0.109375 0.937500
vt 0.000000 0.937500
vt 0.000000 0.890625
vt 0.109375 0.828125
vt 0.109375 0.875000
vt 0.000000 0.875000
vt 0.000000 0.828125
vt 0.234375 1.000000
vt 0.125000 1.000000
vt 0.125000 0.953125
vt 0.234375 0.953125
vt 0.609375 0.562500
vt 0.562500 0.562500
vt 0.562500 0.546875
vt 0.609375 0.546875
vt 0.515625 0.421875
vt 0.515625 0.437500
vt 0.468750 0.437500
vt 0.468750 0.421875
vt 0.125000 0.890625
vt 0.234375 0.890625
vt 0.234375 0.937500
vt 0.125000 0.937500
vt 0.453125 0.828125
vt 0.453125 0.875000
vt 0.375000 0.875000
vt 0.375000 0.828125
vt 0.562500 0.859375
vt 0.578125 0.875000
vt 0.468750 0.875000
vt 0.484375 0.859375
vt 0.578125 0.843750
vt 0.468750 0.843750
vt 0.484375 0.828125
vt 0.562500 0.828125
vt 0.578125 0.437500
vt 0.531250 0.437500
vt 0.531250 0.421875
vt 0.578125 0.421875
vt 0.046875 0.390625
vt 0.046875 0.406250
vt 0.000000 0.406250
vt 0.000000 0.390625
vt 0.375000 0.765625
vt 0.453125 0.765625
vt 0.453125 0.812500
vt 0.375000 0.812500
vt 0.234375 0.828125
vt 0.234375 0.875000
vt 0.125000 0.875000
vt 0.125000 0.828125
vt 0.578125 0.796875
vt 0.562500 0.812500
vt 0.484375 0.812500
vt 0.468750 0.796875
vt 0.562500 0.781250
vt 0.484375 0.781250
vt 0.468750 0.765625
vt 0.578125 0.765625
vt 0.390625 0.562500
vt 0.375000 0.562500
vt 0.375000 0.546875
vt 0.390625 0.546875
vt 0.359375 0.390625
vt 0.359375 0.406250
vt 0.343750 0.406250
vt 0.343750 0.390625
vt 0.468750 0.734375
vt 0.578125 0.734375
vt 0.578125 0.750000
vt 0.468750 0.750000
vt 0.640625 0.609375
vt 0.640625 0.625000
vt 0.562500 0.625000
vt 0.562500 0.609375
vt 0.562500 0.703125
vt 0.578125 0.718750
vt 0.468750 0.718750
vt 0.484375 0.703125
vt 0.578125 0.687500
vt 0.468750 0.687500
vt 0.484375 0.671875
vt 0.562500 0.671875
vt 0.078125 0.406250
vt 0.062500 0.406250
vt 0.062500 0.359375
vt 0.078125 0.359375
vt 0.109375 0.359375
vt 0.109375 0.406250
vt 0.093750 0.406250
vt 0.093750 0.359375
vt 0.468750 0.640625
vt 0.578125 0.640625
vt 0.578125 0.656250
vt 0.468750 0.656250
vt 0.484375 0.515625
vt 0.484375 0.531250
vt 0.375000 0.531250
vt 0.375000 0.515625
vt 0.109375 0.765625
vt 0.109375 0.812500
vt 0.000000 0.812500
vt 0.000000 0.765625
vt 0.234375 0.812500
vt 0.125000 0.812500
vt 0.125000 0.765625
vt 0.234375 0.765625
vt 0.609375 0.656250
vt 0.593750 0.656250
vt 0.593750 0.640625
vt 0.609375 0.640625
vt 0.390625 0.390625
vt 0.390625 0.406250
vt 0.375000 0.406250
vt 0.375000 0.390625
vt 0.562500 0.578125
vt 0.640625 0.578125
vt 0.640625 0.593750
vt 0.562500 0.593750
vt 0.109375 0.484375
vt 0.109375 0.500000
vt 0.000000 0.500000
vt 0.000000 0.484375
vt 0.609375 0.984375
vt 0.593750 1.000000
vt 0.515625 1.000000
vt 0.500000 0.984375
vt 0.593750 0.968750
vt 0.515625 0.968750
vt 0.500000 0.953125
vt 0.609375 0.953125
vn 1.0000 0.0000 0.0000
vn -1.0000 -0.0000 0.0000
vn 0.0000 1.0000 0.0000
vn 0.0000 -1.0000 -0.0000
vn 0.0000 0.0000 1.0000
vn 0.0000 0.0000 -1.0000
vn 0.7071 -0.7071 -0.0000
vn -0.7071 -0.7071 -0.0000
vn 0.7071 0.7071 0.0000
vn -0.7071 0.7071 0.0000
usemtl m_ed7f541b-0eb6-1531-5e4d-e302e7e271c8
s 1
f 1/1/1 2/2/1 3/3/1 4/4/1
f 5/5/2 6/6/2 7/7/2 8/8/2
f 6/9/3 2/10/3 1/11/3 7/12/3
f 4/13/4 3/14/4 5/15/4 8/16/4
f 3/17/5 2/18/5 6/19/5 5/20/5
f 7/21/6 1/22/6 4/23/6 8/24/6
f 9/25/7 10/26/7 11/27/7 12/28/7
f 13/29/8 14/30/8 15/31/8 16/32/8
f 14/33/3 10/34/3 9/35/3 15/36/3
f 12/37/4 11/38/4 13/39/4 16/40/4
f 11/41/5 10/42/5 14/43/5 13/44/5
f 15/45/6 9/46/6 12/47/6 16/48/6
f 17/49/9 18/50/9 19/51/9 20/52/9
f 21/53/10 22/54/10 23/55/10 24/56/10
f 22/57/3 18/58/3 17/59/3 23/60/3
f 20/61/4 19/62/4 21/63/4 24/64/4
f 19/65/5 18/66/5 22/67/5 21/68/5
f 23/69/6 17/70/6 20/71/6 24/72/6
f 25/73/7 26/74/7 27/75/7 28/76/7
f 29/77/8 30/78/8 31/79/8 32/80/8
f 30/81/3 26/82/3 25/83/3 31/84/3
f 28/85/4 27/86/4 29/87/4 32/88/4
f 27/89/5 26/90/5 30/91/5 29/92/5
f 31/93/6 25/94/6 28/95/6 32/96/6
f 33/97/1 34/98/1 35/99/1 36/100/1
f 37/101/2 38/102/2 39/103/2 40/104/2
f 38/105/3 34/106/3 33/107/3 39/108/3
f 36/109/4 35/110/4 37/111/4 40/112/4
f 35/113/5 34/114/5 38/115/5 37/116/5
f 39/117/6 33/118/6 36/119/6 40/120/6
f 41/121/9 42/122/9 43/123/9 44/124/9
f 45/125/10 46/126/10 47/127/10 48/128/10
f 46/129/3 42/130/3 41/131/3 47/132/3
f 44/133/4 43/134/4 45/135/4 48/136/4
f 43/137/5 42/138/5 46/139/5 45/140/5
f 47/141/6 41/142/6 44/143/6 48/144/6
o block_element1
v 0.218750 0.156250 0.250000
v 0.218750 0.156250 0.437500
v 0.218750 -0.031250 0.437500
v 0.218750 -0.031250 0.250000
v -0.218750 -0.031250 0.437500
v -0.218750 0.156250 0.437500
v -0.218750 0.156250 0.250000
v -0.218750 -0.031250 0.250000
v 0.156250 0.218750 0.250000
v 0.156250 0.218750 0.437500
v 0.218750 0.156250 0.437500
v 0.218750 0.156250 0.250000
v -0.218750 0.156250 0.437500
v -0.156250 0.218750 0.437500
v -0.156250 0.218750 0.250000
v -0.218750 0.156250 0.250000
v 0.218750 -0.031250 0.250000
v 0.218750 -0.031250 0.437500
v 0.156250 -0.093750 0.437500
v 0.156250 -0.093750 0.250000
v -0.156250 -0.093750 0.437500
v -0.218750 -0.031250 0.437500
v -0.218750 -0.031250 0.250000
v -0.156250 -0.093750 0.250000
vt 0.171875 0.562500
vt 0.125000 0.562500
vt 0.125000 0.515625
vt 0.171875 0.515625
vt 0.234375 0.515625
vt 0.234375 0.562500
vt 0.187500 0.562500
vt 0.187500 0.515625
vt 0.000000 0.703125
vt 0.109375 0.703125
vt 0.109375 0.750000
vt 0.000000 0.750000
vt 0.359375 0.953125
vt 0.359375 1.000000
vt 0.250000 1.000000
vt 0.250000 0.953125
vt 0.359375 0.890625
vt 0.359375 0.937500
vt 0.250000 0.937500
vt 0.250000 0.890625
vt 0.234375 0.750000
vt 0.125000 0.750000
vt 0.125000 0.703125
vt 0.234375 0.703125
vt 0.171875 0.406250
vt 0.125000 0.406250
vt 0.125000 0.390625
vt 0.171875 0.390625
vt 0.640625 0.859375
vt 0.640625 0.875000
vt 0.593750 0.875000
vt 0.593750 0.859375
vt 0.234375 0.578125
vt 0.312500 0.578125
vt 0.312500 0.625000
vt 0.234375 0.625000
vt 0.359375 0.828125
vt 0.359375 0.875000
vt 0.250000 0.875000
vt 0.250000 0.828125
vt 0.609375 0.921875
vt 0.593750 0.937500
vt 0.515625 0.937500
vt 0.500000 0.921875
vt 0.593750 0.906250
vt 0.515625 0.906250
vt 0.500000 0.890625
vt 0.609375 0.890625
vt 0.640625 0.843750
vt 0.593750 0.843750
vt 0.593750 0.828125
vt 0.640625 0.828125
vt 0.234375 0.390625
vt 0.234375 0.406250
vt 0.187500 0.406250
vt 0.187500 0.390625
vt 0.250000 0.765625
vt 0.359375 0.765625
vt 0.359375 0.812500
vt 0.250000 0.812500
vt 0.453125 0.703125
vt 0.453125 0.750000
vt 0.375000 0.750000
vt 0.375000 0.703125
vt 0.218750 0.484375
vt 0.234375 0.500000
vt 0.125000 0.500000
vt 0.140625 0.484375
vt 0.359375 0.500000
vt 0.250000 0.500000
vt 0.265625 0.484375
vt 0.343750 0.484375
vn 1.0000 0.0000 0.0000
vn -1.0000 0.0000 0.0000
vn 0.0000 1.0000 0.0000
vn 0.0000 -1.0000 -0.0000
vn 0.0000 0.0000 1.0000
vn 0.0000 0.0000 -1.0000
vn 0.7071 0.7071 0.0000
vn -0.7071 0.7071 0.0000
vn 0.7071 -0.7071 -0.0000
vn -0.7071 -0.7071 -0.0000
usemtl m_ed7f541b-0eb6-1531-5e4d-e302e7e271c8
s 1
f 49/145/11 50/146/11 51/147/11 52/148/11
f 53/149/12 54/150/12 55/151/12 56/152/12
f 54/153/13 50/154/13 49/155/13 55/156/13
f 52/157/14 51/158/14 53/159/14 56/160/14
f 51/161/15 50/162/15 54/163/15 53/164/15
f 55/165/16 49/166/16 52/167/16 56/168/16
f 57/169/17 58/170/17 59/171/17 60/172/17
f 61/173/18 62/174/18 63/175/18 64/176/18
f 62/177/13 58/178/13 57/179/13 63/180/13
f 60/181/14 59/182/14 61/183/14 64/184/14
f 59/185/15 58/186/15 62/187/15 61/188/15
f 63/189/16 57/190/16 60/191/16 64/192/16
f 65/193/19 66/194/19 67/195/19 68/196/19
f 69/197/20 70/198/20 71/199/20 72/200/20
f 70/201/13 66/202/13 65/203/13 71/204/13
f 68/205/14 67/206/14 69/207/14 72/208/14
f 67/209/15 66/210/15 70/211/15 69/212/15
f 71/213/16 65/214/16 68/215/16 72/216/16
o block_front
v 0.218750 -0.031250 0.437500
v 0.218750 -0.031250 0.625000
v 0.156250 -0.093750 0.625000
v 0.156250 -0.093750 0.437500
v -0.156250 -0.093750 0.625000
v -0.218750 -0.031250 0.625000
v -0.218750 -0.031250 0.437500
v -0.156250 -0.093750 0.437500
v 0.156250 0.218750 0.437500
v 0.156250 0.218750 0.625000
v 0.218750 0.156250 0.625000
v 0.218750 0.156250 0.437500
v -0.218750 0.156250 0.625000
v -0.156250 0.218750 0.625000
v -0.156250 0.218750 0.437500
v -0.218750 0.156250 0.437500
v 0.218750 0.156250 0.437500
v 0.218750 0.156250 0.625000
v 0.218750 -0.031250 0.625000
v 0.218750 -0.031250 0.437500
v -0.218750 -0.031250 0.625000
v -0.218750 0.156250 0.625000
v -0.218750 0.156250 0.437500
v -0.218750 -0.031250 0.437500
v 0.218750 -0.031250 0.625000
v 0.187500 -0.031250 0.687500
v 0.125000 -0.078125 0.671875
v 0.156250 -0.093750 0.625000
v -0.125000 -0.078125 0.671875
v -0.187500 -0.031250 0.687500
v -0.218750 -0.031250 0.625000
v -0.156250 -0.093750 0.625000
v 0.156250 0.218750 0.625000
v 0.125000 0.203125 0.671875
v 0.187500 0.156250 0.687500
v 0.218750 0.156250 0.625000
v -0.187500 0.156250 0.687500
v -0.125000 0.203125 0.671875
v -0.156250 0.218750 0.625000
v -0.218750 0.156250 0.625000
v 0.218750 0.156250 0.625000
v 0.187500 0.156250 0.687500
v 0.187500 -0.031250 0.687500
v 0.218750 -0.031250 0.625000
v -0.187500 -0.031250 0.687500
v -0.187500 0.156250 0.687500
v -0.218750 0.156250 0.625000
v -0.218750 -0.031250 0.625000
vt 0.640625 0.812500
vt 0.593750 0.812500
vt 0.593750 0.796875
vt 0.640625 0.796875
vt 0.640625 0.765625
vt 0.640625 0.781250
vt 0.593750 0.781250
vt 0.593750 0.765625
vt 0.250000 0.703125
vt 0.359375 0.703125
vt 0.359375 0.750000
vt 0.250000 0.750000
vt 0.453125 0.640625
vt 0.453125 0.687500
vt 0.375000 0.687500
vt 0.375000 0.640625
vt 0.468750 0.484375
vt 0.484375 0.500000
vt 0.375000 0.500000
vt 0.390625 0.484375
vt 0.609375 0.531250
vt 0.500000 0.531250
vt 0.515625 0.515625
vt 0.593750 0.515625
vt 0.296875 0.406250
vt 0.250000 0.406250
vt 0.250000 0.390625
vt 0.296875 0.390625
vt 0.640625 0.734375
vt 0.640625 0.750000
vt 0.593750 0.750000
vt 0.593750 0.734375
vt 0.328125 0.578125
vt 0.406250 0.578125
vt 0.406250 0.625000
vt 0.328125 0.625000
vt 0.109375 0.640625
vt 0.109375 0.687500
vt 0.000000 0.687500
vt 0.000000 0.640625
vt 0.609375 0.484375
vt 0.593750 0.500000
vt 0.515625 0.500000
vt 0.500000 0.484375
vt 0.093750 0.468750
vt 0.015625 0.468750
vt 0.000000 0.453125
vt 0.109375 0.453125
vt 0.296875 0.562500
vt 0.250000 0.562500
vt 0.250000 0.515625
vt 0.296875 0.515625
vt 0.359375 0.515625
vt 0.359375 0.562500
vt 0.312500 0.562500
vt 0.312500 0.515625
vt 0.125000 0.640625
vt 0.234375 0.640625
vt 0.234375 0.687500
vt 0.125000 0.687500
vt 0.359375 0.640625
vt 0.359375 0.687500
vt 0.250000 0.687500
vt 0.250000 0.640625
vt 0.109375 0.578125
vt 0.109375 0.625000
vt 0.000000 0.625000
vt 0.000000 0.578125
vt 0.484375 1.000000
vt 0.375000 1.000000
vt 0.375000 0.953125
vt 0.484375 0.953125
vt 0.543987 0.600221
vt 0.533685 0.614331
vt 0.515788 0.605589
vt 0.523275 0.593750
vt 0.452962 0.606103
vt 0.435065 0.614845
vt 0.424763 0.600735
vt 0.445475 0.594264
vt 0.132812 0.453125
vt 0.226562 0.453125
vt 0.234375 0.468750
vt 0.125000 0.468750
vt 0.515462 0.606103
vt 0.445150 0.593750
vt 0.328125 0.421875
vt 0.343750 0.437500
vt 0.250000 0.437500
vt 0.265625 0.421875
vt 0.359375 0.468750
vt 0.250000 0.468750
vt 0.265625 0.453125
vt 0.343750 0.453125
vt 0.523437 0.578124
vt 0.515625 0.565772
vt 0.533482 0.556948
vt 0.543527 0.570359
vt 0.435268 0.556948
vt 0.453125 0.565772
vt 0.445313 0.578124
vt 0.425223 0.570359
vt 0.484375 0.453125
vt 0.476562 0.468750
vt 0.382812 0.468750
vt 0.375000 0.453125
vt 0.453125 0.421875
vt 0.437500 0.437500
vt 0.375000 0.437500
vt 0.359375 0.421875
vt 0.593750 0.468750
vt 0.515625 0.468750
vt 0.500000 0.453125
vt 0.609375 0.453125
vt 0.609375 0.718750
vt 0.593750 0.718750
vt 0.593750 0.671875
vt 0.609375 0.671875
vt 0.328125 0.359375
vt 0.328125 0.406250
vt 0.312500 0.406250
vt 0.312500 0.359375
vt 0.007812 0.421875
vt 0.101562 0.421875
vt 0.109375 0.437500
vt 0.000000 0.437500
vt 0.234375 0.421875
vt 0.226562 0.437500
vt 0.132812 0.437500
vt 0.125000 0.421875
vt 0.218750 0.578125
vt 0.218750 0.625000
vt 0.125000 0.625000
vt 0.125000 0.578125
vt 0.484375 0.937500
vt 0.375000 0.937500
vt 0.375000 0.890625
vt 0.484375 0.890625
vn 0.7071 -0.7071 -0.0000
vn -0.7071 -0.7071 -0.0000
vn 0.0000 1.0000 0.0000
vn 0.0000 -1.0000 -0.0000
vn 0.0000 0.0000 1.0000
vn 0.0000 0.0000 -1.0000
vn 0.7071 0.7071 0.0000
vn -0.7071 0.7071 0.0000
vn 1.0000 0.0000 0.0000
vn -1.0000 0.0000 0.0000
vn 0.5345 -0.8018 0.2672
vn 0.5345 -0.8018 0.2673
vn -0.5345 -0.8018 0.2673
vn -0.5345 -0.8018 0.2672
vn 0.0000 -0.9487 0.3162
vn 0.0000 -0.3162 0.9487
vn 0.4216 0.7379 0.5270
vn 0.4217 0.7379 0.5270
vn 0.4216 0.7379 0.5271
vn -0.4216 0.7379 0.5271
vn -0.4217 0.7379 0.5270
vn -0.4216 0.7379 0.5270
vn 0.0000 0.9487 0.3162
vn 0.0000 0.3162 0.9487
vn 0.8944 0.0000 0.4472
vn -0.8944 0.0000 0.4472
usemtl m_ed7f541b-0eb6-1531-5e4d-e302e7e271c8
s 1
f 73/217/21 74/218/21 75/219/21 76/220/21
f 77/221/22 78/222/22 79/223/22 80/224/22
f 78/225/23 74/226/23 73/227/23 79/228/23
f 76/229/24 75/230/24 77/231/24 80/232/24
f 75/233/25 74/234/25 78/235/25 77/236/25
f 79/237/26 73/238/26 76/239/26 80/240/26
f 81/241/27 82/242/27 83/243/27 84/244/27
f 85/245/28 86/246/28 87/247/28 88/248/28
f 86/249/23 82/250/23 81/251/23 87/252/23
f 84/253/24 83/254/24 85/255/24 88/256/24
f 83/257/25 82/258/25 86/259/25 85/260/25
f 87/261/26 81/262/26 84/263/26 88/264/26
f 89/265/29 90/266/29 91/267/29 92/268/29
f 93/269/30 94/270/30 95/271/30 96/272/30
f 94/273/23 90/274/23 89/275/23 95/276/23
f 92/277/24 91/278/24 93/279/24 96/280/24
f 91/281/25 90/282/25 94/283/25 93/284/25
f 95/285/26 89/286/26 92/287/26 96/288/26
f 97/289/31 98/290/32 99/291/32 100/292/31
f 101/293/33 102/294/33 103/295/34 104/296/34
f 102/297/23 98/298/23 97/299/23 103/300/23
f 100/292/35 99/301/35 101/293/35 104/302/35
f 99/303/36 98/304/36 102/305/36 101/306/36
f 103/307/26 97/308/26 100/309/26 104/310/26
f 105/311/37 106/312/38 107/313/39 108/314/37
f 109/315/40 110/316/41 111/317/42 112/318/42
f 110/316/43 106/312/43 105/311/43 111/317/43
f 108/319/24 107/320/24 109/321/24 112/322/24
f 107/323/44 106/324/44 110/325/44 109/326/44
f 111/327/26 105/328/26 108/329/26 112/330/26
f 113/331/45 114/332/45 115/333/45 116/334/45
f 117/335/46 118/336/46 119/337/46 120/338/46
f 118/339/23 114/340/23 113/341/23 119/342/23
f 116/343/24 115/344/24 117/345/24 120/346/24
f 115/347/25 114/348/25 118/349/25 117/350/25
f 119/351/26 113/352/26 116/353/26 120/354/26
