# Blender v2.79 (sub 0) OBJ File: ''
# www.blender.org
mtllib faceplate.mtl
o cube
v 0.375000 0.187500 0.000000
v 0.375000 0.187500 0.031250
v 0.375000 -0.187500 0.031250
v 0.375000 -0.187500 -0.000000
v -0.375000 0.187500 0.031250
v -0.375000 0.187500 0.000000
v -0.375000 -0.187500 0.031250
v -0.375000 -0.187500 -0.000000
vt 0.515625 0.250000
vt 0.500000 0.250000
vt 0.500000 0.000000
vt 0.515625 0.000000
vt 0.500000 0.234375
vt 1.000000 0.234375
vt 1.000000 0.250000
vt 0.500000 0.250000
vt 1.000000 0.000000
vt 1.000000 0.015625
vt 0.500000 0.015625
vt 0.500000 0.000000
vt 1.000000 0.000000
vt 1.000000 0.250000
vt 0.500000 0.250000
vt 0.500000 0.000000
vt 1.000000 0.250000
vt 0.500000 0.250000
vt 0.500000 0.000000
vt 1.000000 0.000000
vt 1.000000 0.000000
vt 1.000000 0.250000
vt 0.984375 0.250000
vt 0.984375 0.000000
vn 1.0000 -0.0000 0.0000
vn 0.0000 1.0000 0.0000
vn 0.0000 -1.0000 0.0000
vn 0.0000 -0.0000 1.0000
vn 0.0000 0.0000 -1.0000
vn -1.0000 -0.0000 0.0000
usemtl m_235b7587-5951-80d0-73b1-f651a37711d2
s 1
f 1/1/1 2/2/1 3/3/1 4/4/1
f 5/5/2 2/6/2 1/7/2 6/8/2
f 4/9/3 3/10/3 7/11/3 8/12/3
f 3/13/4 2/14/4 5/15/4 7/16/4
f 6/17/5 1/18/5 4/19/5 8/20/5
f 7/21/6 5/22/6 6/23/6 8/24/6
o face6_translucent
v 0.312500 -0.156250 0.033203
v 0.312500 0.156250 0.033203
v -0.312500 0.156250 0.033203
v -0.312500 -0.156250 0.033203
vt 1.000000 0.500000
vt 1.000000 0.750000
vt 0.500000 0.750000
vt 0.500000 0.500000
vn 0.0000 -0.0000 1.0000
usemtl m_235b7587-5951-80d0-73b1-f651a37711d2
s 1
f 9/25/7 10/26/7 11/27/7 12/28/7
o face5_translucent
v 0.312500 -0.156250 0.033203
v 0.312500 0.156250 0.033203
v -0.312500 0.156250 0.033203
v -0.312500 -0.156250 0.033203
vt 1.000000 0.750000
vt 1.000000 1.000000
vt 0.500000 1.000000
vt 0.500000 0.750000
vn 0.0000 -0.0000 1.0000
usemtl m_235b7587-5951-80d0-73b1-f651a37711d2
s 1
f 13/29/8 14/30/8 15/31/8 16/32/8
o face1_translucent
v 0.312500 -0.156250 0.033203
v 0.312500 0.156250 0.033203
v -0.312500 0.156250 0.033203
v -0.312500 -0.156250 0.033203
vt 0.500000 0.750000
vt 0.500000 1.000000
vt 0.000000 1.000000
vt 0.000000 0.750000
vn 0.0000 -0.0000 1.0000
usemtl m_235b7587-5951-80d0-73b1-f651a37711d2
s 1
f 17/33/9 18/34/9 19/35/9 20/36/9
o face3_translucent
v 0.312500 -0.156250 0.033203
v 0.312500 0.156250 0.033203
v -0.312500 0.156250 0.033203
v -0.312500 -0.156250 0.033203
vt 0.500000 0.250000
vt 0.500000 0.500000
vt 0.000000 0.500000
vt 0.000000 0.250000
vn 0.0000 -0.0000 1.0000
usemtl m_235b7587-5951-80d0-73b1-f651a37711d2
s 1
f 21/37/10 22/38/10 23/39/10 24/40/10
o face7_translucent
v 0.312500 -0.156250 0.033203
v 0.312500 0.156250 0.033203
v -0.312500 0.156250 0.033203
v -0.312500 -0.156250 0.033203
vt 1.000000 0.250000
vt 1.000000 0.500000
vt 0.500000 0.500000
vt 0.500000 0.250000
vn 0.0000 -0.0000 1.0000
usemtl m_235b7587-5951-80d0-73b1-f651a37711d2
s 1
f 25/41/11 26/42/11 27/43/11 28/44/11
o face4_translucent
v 0.312500 -0.156250 0.033203
v 0.312500 0.156250 0.033203
v -0.312500 0.156250 0.033203
v -0.312500 -0.156250 0.033203
vt 0.500000 0.000000
vt 0.500000 0.250000
vt 0.000000 0.250000
vt 0.000000 0.000000
vn 0.0000 -0.0000 1.0000
usemtl m_235b7587-5951-80d0-73b1-f651a37711d2
s 1
f 29/45/12 30/46/12 31/47/12 32/48/12
o face2_translucent
v 0.312500 -0.156250 0.033203
v 0.312500 0.156250 0.033203
v -0.312500 0.156250 0.033203
v -0.312500 -0.156250 0.033203
vt 0.500000 0.500000
vt 0.500000 0.750000
vt 0.000000 0.750000
vt 0.000000 0.500000
vn 0.0000 -0.0000 1.0000
usemtl m_235b7587-5951-80d0-73b1-f651a37711d2
s 1
f 33/49/13 34/50/13 35/51/13 36/52/13
