# Blender v2.79 (sub 0) OBJ File: ''
# www.blender.org
mtllib fan_old.mtl
o blades_motionblur_translucent
v 0.000000 0.187500 0.023438
v 0.000000 -0.000000 0.023438
v 0.187500 -0.000000 0.023438
v 0.187500 0.187500 0.023438
v 0.187500 0.187500 0.007813
v 0.187500 -0.000000 0.007812
v 0.000000 -0.000000 0.007812
v 0.000000 0.187500 0.007813
v -0.187500 -0.000000 0.007812
v -0.187500 0.187500 0.007813
v -0.187500 0.187500 0.023438
v -0.187500 -0.000000 0.023438
v 0.000000 -0.187500 0.007812
v 0.187500 -0.187500 0.007812
v 0.187500 -0.187500 0.023437
v 0.000000 -0.187500 0.023437
v -0.187500 -0.187500 0.023437
v -0.187500 -0.187500 0.007812
vt 0.625000 0.000000
vt 1.000000 0.000000
vt 1.000000 0.375000
vt 0.625000 0.375000
vt 0.625000 0.375000
vt 0.625000 0.000000
vt 1.000000 0.000000
vt 1.000000 0.375000
vt 0.625000 0.000000
vt 1.000000 0.375000
vt 0.625000 0.375000
vt 0.625000 0.375000
vt 0.625000 0.000000
vt 1.000000 0.375000
vt 0.625000 0.000000
vt 1.000000 0.375000
vt 0.625000 0.375000
vt 0.625000 0.375000
vt 0.625000 0.000000
vt 1.000000 0.375000
vt 0.625000 0.000000
vt 1.000000 0.375000
vt 0.625000 0.375000
vt 0.625000 0.375000
vt 0.625000 0.000000
vt 1.000000 0.375000
vn 0.0000 -0.0000 1.0000
vn 0.0000 0.0000 -1.0000
usemtl m_bb57817b-b8b1-25ef-0382-6bae490fc363
s 1
f 1/1/1 2/2/1 3/3/1 4/4/1
f 5/5/2 6/6/2 7/7/2 8/8/2
f 8/9/2 7/7/2 9/10/2 10/11/2
f 11/12/1 12/13/1 2/2/1 1/14/1
f 13/15/2 7/7/2 6/16/2 14/17/2
f 15/18/1 3/19/1 2/2/1 16/20/1
f 16/21/1 2/2/1 12/22/1 17/23/1
f 18/24/2 9/25/2 7/7/2 13/26/2
o blades
v -0.039062 0.171875 0.007813
v -0.039062 0.093750 0.007813
v 0.000000 0.093750 0.015625
v 0.000000 0.187500 0.015625
v 0.039062 -0.000000 0.023438
v 0.039062 0.093750 0.023438
v 0.000000 -0.000000 0.015625
v -0.039062 -0.000000 0.007812
v 0.039062 0.179688 0.023438
v -0.168379 0.052108 0.007813
v -0.100721 0.013046 0.007813
v -0.081190 0.046875 0.015625
v -0.162380 0.093750 0.015625
v 0.019531 0.033829 0.023438
v -0.061659 0.080704 0.023438
v 0.000000 -0.000000 0.015625
v -0.019531 -0.033829 0.007812
v -0.136083 0.123673 0.023438
v 0.039062 -0.171875 0.007812
v 0.039062 -0.093750 0.007812
v 0.000000 -0.093750 0.015625
v 0.000000 -0.187500 0.015625
v -0.039062 -0.000000 0.023438
v -0.039062 -0.093750 0.023437
v 0.000000 -0.000000 0.015625
v 0.039062 -0.000000 0.007812
v -0.039062 -0.179688 0.023437
v -0.129317 -0.119767 0.007812
v -0.061659 -0.080704 0.007812
v -0.081190 -0.046875 0.015625
v -0.162380 -0.093750 0.015625
v -0.019531 0.033829 0.023438
v -0.100721 -0.013046 0.023438
v 0.000000 -0.000000 0.015625
v 0.019531 -0.033829 0.007812
v -0.175145 -0.056015 0.023437
v 0.129317 0.119767 0.007813
v 0.061659 0.080704 0.007813
v 0.081190 0.046875 0.015625
v 0.162380 0.093750 0.015625
v 0.019531 -0.033829 0.023437
v 0.100721 0.013046 0.023438
v 0.000000 -0.000000 0.015625
v -0.019531 0.033829 0.007813
v 0.175145 0.056015 0.023438
v 0.168379 -0.052108 0.007812
v 0.100721 -0.013046 0.007812
v 0.081190 -0.046875 0.015625
v 0.162380 -0.093750 0.015625
v -0.019531 -0.033829 0.023437
v 0.061659 -0.080704 0.023437
v 0.000000 -0.000000 0.015625
v 0.019531 0.033829 0.007813
v 0.136083 -0.123673 0.023437
v -0.162380 0.093750 0.015625
v -0.081190 0.046875 0.015625
v -0.100721 0.013046 0.007813
v -0.168379 0.052108 0.007813
v 0.000000 -0.000000 0.015625
v -0.061659 0.080704 0.023438
v 0.019531 0.033829 0.023438
v -0.019531 -0.033829 0.007812
v -0.136083 0.123673 0.023438
v -0.162380 -0.093750 0.015625
v -0.081190 -0.046875 0.015625
v -0.061659 -0.080704 0.007812
v -0.129317 -0.119767 0.007812
v 0.000000 -0.000000 0.015625
v -0.100721 -0.013046 0.023438
v -0.019531 0.033829 0.023438
v 0.019531 -0.033829 0.007812
v -0.175145 -0.056015 0.023437
v 0.000000 -0.187500 0.015625
v 0.000000 -0.093750 0.015625
v 0.039062 -0.093750 0.007812
v 0.039062 -0.171875 0.007812
v 0.000000 -0.000000 0.015625
v -0.039062 -0.093750 0.023437
v -0.039062 -0.000000 0.023438
v 0.039062 -0.000000 0.007812
v -0.039062 -0.179688 0.023437
v 0.000000 0.187500 0.015625
v 0.000000 0.093750 0.015625
v -0.039062 0.093750 0.007813
v -0.039062 0.171875 0.007813
v 0.000000 -0.000000 0.015625
v 0.039062 0.093750 0.023438
v 0.039062 -0.000000 0.023438
v -0.039062 -0.000000 0.007812
v 0.039062 0.179688 0.023438
v 0.162380 0.093750 0.015625
v 0.081190 0.046875 0.015625
v 0.061659 0.080704 0.007813
v 0.129317 0.119767 0.007813
v 0.000000 -0.000000 0.015625
v 0.100721 0.013046 0.023438
v 0.019531 -0.033829 0.023437
v -0.019531 0.033829 0.007813
v 0.175145 0.056015 0.023438
v 0.162380 -0.093750 0.015625
v 0.081190 -0.046875 0.015625
v 0.100721 -0.013046 0.007812
v 0.168379 -0.052108 0.007812
v 0.000000 -0.000000 0.015625
v 0.061659 -0.080704 0.023437
v -0.019531 -0.033829 0.023437
v 0.019531 0.033829 0.007813
v 0.136083 -0.123673 0.023437
vt 0.000000 0.984375
vt 0.000000 0.875000
vt 0.039831 0.875000
vt 0.039831 1.000000
vt 0.187500 0.625000
vt 0.187500 0.750000
vt 0.125000 0.750000
vt 0.125000 0.625000
vt 0.039831 0.750000
vt 0.000000 0.750000
vt 0.312500 1.000000
vt 0.312500 0.875000
vt 0.375000 0.875000
vt 0.375000 0.992188
vt 0.062500 0.984375
vt 0.062500 0.875000
vt 0.102331 0.875000
vt 0.102331 1.000000
vt 0.312500 0.500000
vt 0.312500 0.625000
vt 0.250000 0.625000
vt 0.250000 0.500000
vt 0.102331 0.750000
vt 0.062500 0.750000
vt 0.062500 0.562500
vt 0.062500 0.437500
vt 0.125000 0.437500
vt 0.125000 0.554688
vt 0.125000 0.984375
vt 0.125000 0.875000
vt 0.164831 0.875000
vt 0.164831 1.000000
vt 0.500000 0.562500
vt 0.500000 0.687500
vt 0.437500 0.687500
vt 0.437500 0.562500
vt 0.164831 0.750000
vt 0.125000 0.750000
vt 0.500000 1.000000
vt 0.500000 0.875000
vt 0.562500 0.875000
vt 0.562500 0.992188
vt 0.187500 0.984375
vt 0.187500 0.875000
vt 0.227331 0.875000
vt 0.227331 1.000000
vt 0.312500 0.375000
vt 0.312500 0.500000
vt 0.250000 0.500000
vt 0.250000 0.375000
vt 0.227331 0.750000
vt 0.187500 0.750000
vt 0.375000 0.500000
vt 0.375000 0.375000
vt 0.437500 0.375000
vt 0.437500 0.492188
vt 0.000000 0.734375
vt 0.000000 0.625000
vt 0.039831 0.625000
vt 0.039831 0.750000
vt 0.625000 0.875000
vt 0.625000 1.000000
vt 0.562500 1.000000
vt 0.562500 0.875000
vt 0.039831 0.500000
vt 0.000000 0.500000
vt 0.562500 0.875000
vt 0.562500 0.750000
vt 0.625000 0.750000
vt 0.625000 0.867188
vt 0.250000 0.984375
vt 0.250000 0.875000
vt 0.289831 0.875000
vt 0.289831 1.000000
vt 0.500000 0.312500
vt 0.500000 0.437500
vt 0.437500 0.437500
vt 0.437500 0.312500
vt 0.289831 0.750000
vt 0.250000 0.750000
vt 0.625000 1.000000
vt 0.625000 0.875000
vt 0.687500 0.875000
vt 0.687500 0.992188
vt 0.187500 0.625000
vt 0.187500 0.500000
vt 0.250000 0.500000
vt 0.250000 0.609375
vt 0.375000 0.500000
vt 0.375000 0.625000
vt 0.312500 0.625000
vt 0.312500 0.500000
vt 0.437500 0.500000
vt 0.437500 0.625000
vt 0.125000 0.554688
vt 0.125000 0.437500
vt 0.187500 0.437500
vt 0.187500 0.562500
vt 0.187500 0.500000
vt 0.187500 0.375000
vt 0.250000 0.375000
vt 0.250000 0.484375
vt 0.562500 0.625000
vt 0.562500 0.750000
vt 0.500000 0.750000
vt 0.500000 0.625000
vt 0.375000 0.375000
vt 0.375000 0.500000
vt 0.312500 0.500000
vt 0.312500 0.375000
vt 0.500000 0.617188
vt 0.500000 0.500000
vt 0.562500 0.500000
vt 0.562500 0.625000
vt 0.437500 0.812500
vt 0.437500 0.687500
vt 0.500000 0.687500
vt 0.500000 0.796875
vt 0.500000 0.437500
vt 0.500000 0.562500
vt 0.437500 0.562500
vt 0.437500 0.437500
vt 0.062500 0.375000
vt 0.062500 0.500000
vt 0.000000 0.500000
vt 0.000000 0.375000
vt 0.500000 0.867188
vt 0.500000 0.750000
vt 0.562500 0.750000
vt 0.562500 0.875000
vt 0.062500 0.750000
vt 0.062500 0.625000
vt 0.125000 0.625000
vt 0.125000 0.734375
vt 0.250000 0.625000
vt 0.250000 0.750000
vt 0.187500 0.750000
vt 0.187500 0.625000
vt 0.312500 0.625000
vt 0.312500 0.750000
vt 0.312500 0.867188
vt 0.312500 0.750000
vt 0.375000 0.750000
vt 0.375000 0.875000
vt 0.500000 0.500000
vt 0.500000 0.375000
vt 0.562500 0.375000
vt 0.562500 0.484375
vt 0.125000 0.312500
vt 0.125000 0.437500
vt 0.062500 0.437500
vt 0.062500 0.312500
vt 0.187500 0.312500
vt 0.187500 0.437500
vt 0.562500 0.742188
vt 0.562500 0.625000
vt 0.625000 0.625000
vt 0.625000 0.750000
vt 0.562500 0.625000
vt 0.562500 0.500000
vt 0.625000 0.500000
vt 0.625000 0.609375
vt 0.625000 0.375000
vt 0.625000 0.500000
vt 0.562500 0.500000
vt 0.562500 0.375000
vt 0.062500 0.250000
vt 0.062500 0.375000
vt 0.000000 0.375000
vt 0.000000 0.250000
vt 0.625000 0.867188
vt 0.625000 0.750000
vt 0.687500 0.750000
vt 0.687500 0.875000
vn -0.1961 -0.0000 0.9806
vn -0.0981 -0.1698 0.9806
vn 0.1961 -0.0000 0.9806
vn 0.0981 -0.1698 0.9806
vn -0.0981 0.1698 0.9806
vn 0.0981 0.1698 0.9806
vn 0.0981 0.1698 -0.9806
vn -0.0981 0.1698 -0.9806
vn -0.1961 0.0000 -0.9806
vn 0.1961 0.0000 -0.9806
vn 0.0981 -0.1698 -0.9806
vn -0.0981 -0.1698 -0.9806
usemtl m_bb57817b-b8b1-25ef-0382-6bae490fc363
s 1
f 19/27/3 20/28/3 21/29/3 22/30/3
f 23/31/3 24/32/3 21/33/3 25/34/3
f 25/35/3 21/29/3 20/28/3 26/36/3
f 22/37/3 21/38/3 24/39/3 27/40/3
f 28/41/4 29/42/4 30/43/4 31/44/4
f 32/45/4 33/46/4 30/47/4 34/48/4
f 34/49/4 30/43/4 29/42/4 35/50/4
f 31/51/4 30/52/4 33/53/4 36/54/4
f 37/55/5 38/56/5 39/57/5 40/58/5
f 41/59/5 42/60/5 39/61/5 43/62/5
f 43/63/5 39/57/5 38/56/5 44/64/5
f 40/65/5 39/66/5 42/67/5 45/68/5
f 46/69/6 47/70/6 48/71/6 49/72/6
f 50/73/6 51/74/6 48/75/6 52/76/6
f 52/77/6 48/71/6 47/70/6 53/78/6
f 49/79/6 48/80/6 51/81/6 54/82/6
f 55/83/7 56/84/7 57/85/7 58/86/7
f 59/87/7 60/88/7 57/89/7 61/90/7
f 61/91/7 57/85/7 56/84/7 62/92/7
f 58/93/7 57/94/7 60/95/7 63/96/7
f 64/97/8 65/98/8 66/99/8 67/100/8
f 68/101/8 69/102/8 66/103/8 70/104/8
f 70/105/8 66/99/8 65/98/8 71/106/8
f 67/107/8 66/108/8 69/109/8 72/110/8
f 73/111/9 74/112/9 75/113/9 76/114/9
f 77/115/9 74/116/9 78/117/9 79/118/9
f 80/119/9 75/120/9 74/116/9 77/115/9
f 81/121/9 78/122/9 74/123/9 73/124/9
f 82/125/10 83/126/10 84/127/10 85/128/10
f 86/129/10 83/130/10 87/131/10 88/132/10
f 89/133/10 84/134/10 83/135/10 86/136/10
f 90/137/10 87/138/10 83/139/10 82/140/10
f 91/141/11 92/142/11 93/143/11 94/144/11
f 95/145/11 92/146/11 96/147/11 97/148/11
f 98/149/11 93/150/11 92/151/11 95/152/11
f 99/153/11 96/154/11 92/155/11 91/156/11
f 100/157/12 101/158/12 102/159/12 103/160/12
f 104/161/12 101/162/12 105/163/12 106/164/12
f 107/165/12 102/166/12 101/162/12 104/161/12
f 108/167/12 105/168/12 101/169/12 100/170/12
f 109/171/13 110/172/13 111/173/13 112/174/13
f 113/175/13 110/176/13 114/177/13 115/178/13
f 116/179/13 111/180/13 110/176/13 113/175/13
f 117/181/13 114/182/13 110/183/13 109/184/13
f 118/185/14 119/186/14 120/187/14 121/188/14
f 122/189/14 119/190/14 123/191/14 124/192/14
f 125/193/14 120/194/14 119/195/14 122/196/14
f 126/197/14 123/198/14 119/199/14 118/200/14
o cuboid
v 0.046875 -0.023438 -0.000000
v 0.046875 -0.023438 0.031250
v 0.023438 -0.046875 0.031250
v 0.023438 -0.046875 -0.000000
v -0.023438 -0.046875 0.031250
v -0.046875 -0.023438 0.031250
v -0.046875 -0.023438 -0.000000
v -0.023438 -0.046875 -0.000000
v 0.046875 0.023438 0.000000
v 0.046875 0.023437 0.031250
v 0.046875 -0.023438 0.031250
v 0.046875 -0.023438 -0.000000
v -0.046875 -0.023438 0.031250
v -0.046875 0.023437 0.031250
v -0.046875 0.023438 0.000000
v -0.046875 -0.023438 -0.000000
v 0.023438 0.046875 0.000000
v 0.023438 0.046875 0.031250
v 0.046875 0.023437 0.031250
v 0.046875 0.023438 0.000000
v -0.046875 0.023437 0.031250
v -0.023438 0.046875 0.031250
v -0.023438 0.046875 0.000000
v -0.046875 0.023438 0.000000
vt 0.687500 0.625000
vt 0.625000 0.625000
vt 0.625000 0.562500
vt 0.687500 0.562500
vt 0.687500 0.500000
vt 0.687500 0.562500
vt 0.625000 0.562500
vt 0.625000 0.500000
vt 0.312500 0.687500
vt 0.437500 0.687500
vt 0.437500 0.750000
vt 0.312500 0.750000
vt 0.437500 0.750000
vt 0.437500 0.812500
vt 0.375000 0.812500
vt 0.375000 0.750000
vt 0.273438 0.312500
vt 0.296875 0.375000
vt 0.203125 0.375000
vt 0.226562 0.312500
vt 0.734375 0.750000
vt 0.640625 0.750000
vt 0.664062 0.687500
vt 0.710938 0.687500
vt 0.125000 0.187500
vt 0.062500 0.187500
vt 0.062500 0.125000
vt 0.125000 0.125000
vt 0.187500 0.125000
vt 0.187500 0.187500
vt 0.125000 0.187500
vt 0.125000 0.125000
vt 0.312500 0.625000
vt 0.437500 0.625000
vt 0.437500 0.687500
vt 0.312500 0.687500
vt 0.500000 0.937500
vt 0.500000 1.000000
vt 0.375000 1.000000
vt 0.375000 0.937500
vt 0.187500 0.562500
vt 0.187500 0.625000
vt 0.062500 0.625000
vt 0.062500 0.562500
vt 0.500000 0.937500
vt 0.375000 0.937500
vt 0.375000 0.875000
vt 0.500000 0.875000
vt 0.062500 0.187500
vt 0.000000 0.187500
vt 0.000000 0.125000
vt 0.062500 0.125000
vt 0.125000 0.000000
vt 0.125000 0.062500
vt 0.062500 0.062500
vt 0.062500 0.000000
vt 0.000000 0.000000
vt 0.062500 0.000000
vt 0.062500 0.062500
vt 0.000000 0.062500
vt 0.125000 0.062500
vt 0.125000 0.125000
vt 0.000000 0.125000
vt 0.000000 0.062500
vt 0.234375 0.000000
vt 0.210938 0.062500
vt 0.164062 0.062500
vt 0.140625 0.000000
vt 0.210938 0.125000
vt 0.164062 0.125000
vt 0.140625 0.062500
vt 0.234375 0.062500
vn 0.7071 -0.7071 0.0000
vn -0.7071 -0.7071 0.0000
vn 0.0000 1.0000 0.0000
vn 0.0000 -1.0000 0.0000
vn 0.0000 0.0000 1.0000
vn 0.0000 0.0000 -1.0000
vn 1.0000 0.0000 0.0000
vn -1.0000 0.0000 0.0000
vn 0.7071 0.7071 0.0000
vn -0.7071 0.7071 0.0000
usemtl m_bb57817b-b8b1-25ef-0382-6bae490fc363
s 1
f 127/201/15 128/202/15 129/203/15 130/204/15
f 131/205/16 132/206/16 133/207/16 134/208/16
f 132/209/17 128/210/17 127/211/17 133/212/17
f 130/213/18 129/214/18 131/215/18 134/216/18
f 129/217/19 128/218/19 132/219/19 131/220/19
f 133/221/20 127/222/20 130/223/20 134/224/20
f 135/225/21 136/226/21 137/227/21 138/228/21
f 139/229/22 140/230/22 141/231/22 142/232/22
f 140/233/17 136/234/17 135/235/17 141/236/17
f 138/237/18 137/238/18 139/239/18 142/240/18
f 137/241/19 136/242/19 140/243/19 139/244/19
f 141/245/20 135/246/20 138/247/20 142/248/20
f 143/249/23 144/250/23 145/251/23 146/252/23
f 147/253/24 148/254/24 149/255/24 150/256/24
f 148/257/17 144/258/17 143/259/17 149/260/17
f 146/261/18 145/262/18 147/263/18 150/264/18
f 145/265/19 144/266/19 148/267/19 147/268/19
f 149/269/20 143/270/20 146/271/20 150/272/20
