# Made in Blockbench 4.6.1
mtllib fisheyelens.mtl

o cube
v 0.09375 0.09375 0.125
v 0.03125 0.03125 0
v 0.09375 -0.09375 0.125
v 0.03125 -0.03125 0
v -0.09375 0.09375 0.125
v -0.03125 0.03125 0
v -0.09375 -0.09375 0.125
v -0.03125 -0.03125 0
v -0.03125 0.03125 0.0625
v -0.03125 -0.03125 0.0625
v 0.03125 -0.03125 0.0625
v 0.03125 0.03125 0.0625
v -0.0625 0.0625 0.09375
v -0.0625 -0.0625 0.09375
v 0.0625 -0.0625 0.09375
v 0.0625 0.0625 0.09375
vt 0.125 0.9375
vt 0.0625 0.9375
vt 0.0625 0.875
vt 0.125 0.875
vt 0 0.875
vt 0.0625 0.875
vt 0.0625 0.9375
vt 0 0.9375
vt 0.0625 1
vt 0.0625 0.9375
vt 0.125 0.9375
vt 0.125 1
vt 0.125 0.875
vt 0.125 0.9375
vt 0.0625 0.9375
vt 0.0625 0.875
vt 0.1875 0.3125
vt 0.1875 0.5
vt 0 0.5
vt 0 0.3125
vt 0.625 0.4375
vt 0.5625 0.4375
vt 0.5625 0.375
vt 0.625 0.375
vt 0.625 0.75
vt 0.66919375 0.71875
vt 0.66919375 0.84375
vt 0.625 0.8125
vt 0.625 0.875
vt 0.59375 0.83080625
vt 0.71875 0.83080625
vt 0.6875 0.875
vt 0.6508875000000001 0.8125
vt 0.60669375 0.84375
vt 0.60669375 0.71875
vt 0.6508875000000001 0.75
vt 0.6875 0.7241124999999999
vt 0.71875 0.76830625
vt 0.59375 0.76830625
vt 0.625 0.7241124999999999
vt 0.1508875 1
vt 0.10669375 0.96875
vt 0.10669375 0.84375
vt 0.1508875 0.8125
vt 0.1875 0.9116124999999999
vt 0.15625 0.95580625
vt 0.03125 0.95580625
vt 0 0.9116124999999999
vt 0 0.8125
vt 0.04419375 0.84375
vt 0.04419375 0.96875
vt 0 1
vt 0 0.9375
vt 0.03125 0.89330625
vt 0.15625 0.89330625
vt 0.1875 0.9375
vn 1 0 0
vn -1 0 0
vn 0 1 0
vn 0 -1 0
vn 0 0 1
vn 0 0 -1
vn -0.7071067811865476 0 -0.7071067811865476
vn 0 -0.7071067811865476 -0.7071067811865476
vn 0.7071067811865476 0 -0.7071067811865476
vn 0 0.7071067811865476 -0.7071067811865476
vn -0.7071067811865476 0 -0.7071067811865476
vn 0 -0.7071067811865476 -0.7071067811865476
vn 0.7071067811865476 0 -0.7071067811865476
vn 0 0.7071067811865476 -0.7071067811865476
usemtl m_b042193d-be26-a6e1-45fc-93085cb97df2
f 2/1/1 12/2/1 11/3/1 4/4/1
f 8/5/2 10/6/2 9/7/2 6/8/2
f 6/9/3 9/10/3 12/11/3 2/12/3
f 4/13/4 11/14/4 10/15/4 8/16/4
f 3/17/5 1/18/5 5/19/5 7/20/5
f 6/21/6 2/22/6 4/23/6 8/24/6
f 10/25/7 14/26/7 13/27/7 9/28/7
f 11/29/8 15/30/8 14/31/8 10/32/8
f 12/33/9 16/34/9 15/35/9 11/36/9
f 9/37/10 13/38/10 16/39/10 12/40/10
f 5/41/11 13/42/11 14/43/11 7/44/11
f 7/45/12 14/46/12 15/47/12 3/48/12
f 3/49/13 15/50/13 16/51/13 1/52/13
f 1/53/14 16/54/14 13/55/14 5/56/14