# Blender v2.79 (sub 0) OBJ File: ''
# www.blender.org
mtllib flintlock.mtl
o flashpan
v -0.031250 0.140625 0.156250
v -0.031250 0.171875 0.156250
v -0.062500 0.171875 0.156250
v -0.062500 0.140625 0.156250
v -0.062500 0.171875 0.156250
v -0.031250 0.171875 0.156250
v -0.031250 0.140625 0.156250
v -0.062500 0.140625 0.156250
v -0.031250 0.148438 0.156250
v -0.031250 0.148437 0.179688
v -0.031250 0.132812 0.179688
v -0.031250 0.132812 0.156250
v -0.039062 0.132812 0.179688
v -0.039062 0.148437 0.179688
v -0.039062 0.148438 0.156250
v -0.039062 0.132812 0.156250
vt 0.500000 0.593750
vt 0.500000 0.625000
vt 0.468750 0.625000
vt 0.468750 0.593750
vt 0.531250 1.000000
vt 0.500000 1.000000
vt 0.500000 0.968750
vt 0.531250 0.968750
vt 0.593750 0.812500
vt 0.562500 0.812500
vt 0.562500 0.781250
vt 0.593750 0.781250
vt 0.406250 0.406250
vt 0.406250 0.437500
vt 0.375000 0.437500
vt 0.375000 0.406250
vt 0.437500 0.406250
vt 0.468750 0.406250
vt 0.468750 0.437500
vt 0.437500 0.437500
vt 0.593750 0.531250
vt 0.593750 0.562500
vt 0.562500 0.562500
vt 0.562500 0.531250
vt 0.531250 0.406250
vt 0.531250 0.437500
vt 0.500000 0.437500
vt 0.500000 0.406250
vt 0.593750 0.500000
vt 0.562500 0.500000
vt 0.562500 0.468750
vt 0.593750 0.468750
vn 0.0000 -0.0000 1.0000
vn 0.0000 0.0000 -1.0000
vn 1.0000 0.0000 0.0000
vn -1.0000 0.0000 0.0000
vn 0.0000 1.0000 0.0000
vn 0.0000 -1.0000 -0.0000
usemtl m_41f7595f-8b63-2fb3-a31d-2d80cd8018a2
s 1
f 1/1/1 2/2/1 3/3/1 4/4/1
f 5/5/2 6/6/2 7/7/2 8/8/2
f 9/9/3 10/10/3 11/11/3 12/12/3
f 13/13/4 14/14/4 15/15/4 16/16/4
f 14/17/5 10/18/5 9/19/5 15/20/5
f 12/21/6 11/22/6 13/23/6 16/24/6
f 11/25/1 10/26/1 14/27/1 13/28/1
f 15/29/2 9/30/2 12/31/2 16/32/2
o ram_rod
v 0.007812 0.109375 0.140625
v 0.007812 0.109375 0.453125
v 0.007812 0.093750 0.453125
v 0.007812 0.093750 0.140625
v -0.007812 0.093750 0.453125
v -0.007812 0.109375 0.453125
v -0.007812 0.109375 0.140625
v -0.007812 0.093750 0.140625
vt 0.156250 1.000000
vt 0.000000 1.000000
vt 0.000000 0.984375
vt 0.156250 0.984375
vt 0.156250 0.921875
vt 0.156250 0.937500
vt 0.000000 0.937500
vt 0.000000 0.921875
vt 0.000000 0.718750
vt 0.015625 0.718750
vt 0.015625 0.875000
vt 0.000000 0.875000
vt 0.078125 0.718750
vt 0.078125 0.875000
vt 0.062500 0.875000
vt 0.062500 0.718750
vt 0.273438 0.382812
vt 0.273438 0.398438
vt 0.257812 0.398438
vt 0.257812 0.382812
vt 0.617188 0.742188
vt 0.601562 0.742188
vt 0.601562 0.726562
vt 0.617188 0.726562
vn 1.0000 0.0000 0.0000
vn -1.0000 0.0000 0.0000
vn 0.0000 1.0000 0.0000
vn 0.0000 -1.0000 -0.0000
vn 0.0000 0.0000 1.0000
vn 0.0000 0.0000 -1.0000
usemtl m_41f7595f-8b63-2fb3-a31d-2d80cd8018a2
s 1
f 17/33/7 18/34/7 19/35/7 20/36/7
f 21/37/8 22/38/8 23/39/8 24/40/8
f 22/41/9 18/42/9 17/43/9 23/44/9
f 20/45/10 19/46/10 21/47/10 24/48/10
f 19/49/11 18/50/11 22/51/11 21/52/11
f 23/53/12 17/54/12 20/55/12 24/56/12
o trigger
v 0.007812 0.093750 0.085938
v 0.007812 0.093750 0.101563
v 0.007812 0.062500 0.109375
v 0.007812 0.062500 0.093750
v -0.007812 0.062500 0.109375
v -0.007812 0.093750 0.101563
v -0.007812 0.093750 0.085938
v -0.007812 0.062500 0.093750
vt 0.645719 0.531250
vt 0.643824 0.562500
vt 0.627718 0.562500
vt 0.629613 0.531250
vt 0.468750 0.356999
vt 0.468750 0.373105
vt 0.437500 0.375000
vt 0.437500 0.358894
vt 0.562500 0.406250
vt 0.593750 0.406250
vt 0.593750 0.437500
vt 0.562500 0.437500
vt 0.031250 0.375000
vt 0.031250 0.406250
vt 0.000000 0.406250
vt 0.000000 0.375000
vt 0.093750 0.375000
vt 0.093750 0.406250
vt 0.062500 0.406250
vt 0.062500 0.375000
vt 0.625000 0.937500
vt 0.593750 0.937500
vt 0.593750 0.906250
vt 0.625000 0.906250
vn 1.0000 0.0000 0.0000
vn -1.0000 0.0000 0.0000
vn 0.0000 1.0000 0.0000
vn 0.0000 -1.0000 0.0000
vn 0.0000 0.2425 0.9701
vn 0.0000 -0.2425 -0.9701
usemtl m_41f7595f-8b63-2fb3-a31d-2d80cd8018a2
s 1
f 25/57/13 26/58/13 27/59/13 28/60/13
f 29/61/14 30/62/14 31/63/14 32/64/14
f 30/65/15 26/66/15 25/67/15 31/68/15
f 28/69/16 27/70/16 29/71/16 32/72/16
f 27/73/17 26/74/17 30/75/17 29/76/17
f 31/77/18 25/78/18 28/79/18 32/80/18
o hammer
v -0.039062 0.109375 0.101563
v -0.039062 0.140625 0.101563
v -0.039062 0.140625 0.132812
v -0.039062 0.109375 0.132812
v -0.054688 0.156250 0.121094
v -0.039062 0.140625 0.101563
v -0.039062 0.140625 0.132812
v -0.054688 0.156250 0.144531
v -0.054688 0.156250 0.144531
v -0.054688 0.156250 0.121094
v -0.039062 0.109375 0.132812
v -0.039062 0.109375 0.101563
v -0.046875 0.171875 0.121094
v -0.046875 0.171875 0.144531
v -0.046875 0.156250 0.144531
v -0.046875 0.156250 0.121094
v -0.062500 0.156250 0.144531
v -0.062500 0.171875 0.144531
v -0.062500 0.171875 0.121094
v -0.062500 0.156250 0.121094
v -0.031250 0.132812 0.109375
v -0.031250 0.132812 0.125000
v -0.031250 0.117187 0.125000
v -0.031250 0.117187 0.109375
v -0.046875 0.117187 0.125000
v -0.046875 0.132812 0.125000
v -0.046875 0.132812 0.109375
v -0.046875 0.117187 0.109375
vt 0.156250 0.468750
vt 0.156250 0.500000
vt 0.125000 0.500000
vt 0.125000 0.468750
vt 0.635742 0.812500
vt 0.625977 0.781250
vt 0.641602 0.781250
vt 0.647461 0.812500
vt 0.375977 0.375000
vt 0.381836 0.343750
vt 0.397461 0.343750
vt 0.387695 0.375000
vt 0.531250 0.843750
vt 0.531250 0.875000
vt 0.500000 0.875000
vt 0.500000 0.843750
vt 0.218750 0.500000
vt 0.187500 0.500000
vt 0.187500 0.468750
vt 0.218750 0.468750
vt 0.531250 0.781250
vt 0.531250 0.812500
vt 0.500000 0.812500
vt 0.500000 0.781250
vt 0.375000 0.468750
vt 0.406250 0.468750
vt 0.406250 0.500000
vt 0.375000 0.500000
vt 0.468750 0.468750
vt 0.468750 0.500000
vt 0.437500 0.500000
vt 0.437500 0.468750
vt 0.531250 0.531250
vt 0.531250 0.562500
vt 0.500000 0.562500
vt 0.500000 0.531250
vt 0.531250 0.500000
vt 0.500000 0.500000
vt 0.500000 0.468750
vt 0.531250 0.468750
vt 0.031250 0.468750
vt 0.000000 0.468750
vt 0.000000 0.437500
vt 0.031250 0.437500
vt 0.093750 0.437500
vt 0.093750 0.468750
vt 0.062500 0.468750
vt 0.062500 0.437500
vt 0.531250 0.906250
vt 0.562500 0.906250
vt 0.562500 0.937500
vt 0.531250 0.937500
vt 0.281250 0.437500
vt 0.281250 0.468750
vt 0.250000 0.468750
vt 0.250000 0.437500
vt 0.562500 0.718750
vt 0.562500 0.750000
vt 0.531250 0.750000
vt 0.531250 0.718750
vt 0.343750 0.468750
vt 0.312500 0.468750
vt 0.312500 0.437500
vt 0.343750 0.437500
vn 1.0000 0.0000 0.0000
vn -0.7071 -0.7071 0.0000
vn 0.7071 0.7071 0.0000
vn -1.0000 0.0000 0.0000
vn 0.0000 1.0000 0.0000
vn 0.0000 -1.0000 0.0000
vn 0.0000 -0.0000 1.0000
vn 0.0000 0.0000 -1.0000
usemtl m_41f7595f-8b63-2fb3-a31d-2d80cd8018a2
s 1
f 33/81/19 34/82/19 35/83/19 36/84/19
f 37/85/20 38/86/20 39/87/20 40/88/20
f 41/89/21 35/90/21 34/91/21 42/92/21
f 43/93/22 39/94/22 38/95/22 44/96/22
f 45/97/19 46/98/19 47/99/19 48/100/19
f 49/101/22 50/102/22 51/103/22 52/104/22
f 50/105/23 46/106/23 45/107/23 51/108/23
f 48/109/24 47/110/24 49/111/24 52/112/24
f 47/113/25 46/114/25 50/115/25 49/116/25
f 51/117/26 45/118/26 48/119/26 52/120/26
f 53/121/19 54/122/19 55/123/19 56/124/19
f 57/125/22 58/126/22 59/127/22 60/128/22
f 58/129/23 54/130/23 53/131/23 59/132/23
f 56/133/24 55/134/24 57/135/24 60/136/24
f 55/137/25 54/138/25 58/139/25 57/140/25
f 59/141/26 53/142/26 56/143/26 60/144/26
o cuboid
v 0.031250 0.046875 0.046875
v 0.031250 0.023437 0.039062
v 0.031250 0.023437 0.007812
v 0.031250 0.046875 0.015625
v -0.031250 0.046875 0.015625
v -0.031250 0.023437 0.007812
v -0.031250 0.023437 0.039062
v -0.031250 0.046875 0.046875
v -0.023438 -0.000000 0.031250
v -0.023438 -0.015625 -0.000000
v 0.023438 -0.015625 -0.000000
v 0.023438 -0.000000 0.031250
v 0.031250 0.046875 -0.015625
v 0.031250 0.023437 -0.023438
v -0.031250 0.023437 -0.023438
v -0.031250 0.046875 -0.015625
v 0.023438 0.000000 -0.031250
v -0.023438 0.000000 -0.031250
v 0.031250 0.156250 0.078125
v 0.031250 0.156250 0.203125
v 0.031250 0.085937 0.203125
v 0.031250 0.093750 0.015625
v -0.031250 0.085937 0.203125
v -0.031250 0.156250 0.203125
v -0.031250 0.156250 0.078125
v -0.031250 0.093750 0.015625
v 0.031250 0.093750 0.015625
v 0.031250 0.093750 0.078125
v 0.031250 0.046875 0.046875
v 0.031250 0.046875 -0.015625
v -0.031250 0.046875 0.046875
v -0.031250 0.093750 0.078125
v -0.031250 0.093750 0.015625
v -0.031250 0.046875 -0.015625
v 0.031250 0.125000 0.203125
v 0.031250 0.109375 0.328125
v 0.015625 0.085937 0.296875
v 0.015625 0.085937 0.203125
v -0.015625 0.085937 0.296875
v -0.031250 0.109375 0.328125
v -0.031250 0.125000 0.203125
v -0.015625 0.085937 0.203125
v 0.023438 0.156250 0.203125
v 0.023438 0.156250 0.453125
v 0.023438 0.109375 0.453125
v 0.023438 0.109375 0.203125
v -0.023438 0.109375 0.453125
v -0.023438 0.156250 0.453125
v -0.023438 0.156250 0.203125
v -0.023438 0.109375 0.203125
v -0.015625 0.054687 0.140625
v -0.015625 0.072266 0.148438
v 0.015625 0.072266 0.148438
v 0.015625 0.054687 0.140625
v -0.015625 0.054687 0.140625
v -0.015625 0.054687 0.093750
v 0.015625 0.054687 0.093750
v 0.015625 0.054687 0.140625
v -0.015625 0.088867 0.140625
v -0.015625 0.072266 0.148438
v 0.015625 0.072266 0.148438
v 0.015625 0.088867 0.140625
v 0.015625 0.088867 0.140625
v -0.015625 0.088867 0.140625
v -0.015625 0.058594 0.054688
v -0.015625 0.054687 0.093750
v 0.015625 0.054687 0.093750
v 0.015625 0.058594 0.054688
v 0.015625 0.058594 0.054688
v -0.015625 0.058594 0.054688
v -0.031250 0.140625 0.148438
v -0.031250 0.140625 0.171875
v -0.031250 0.125000 0.171875
v -0.031250 0.125000 0.148438
v -0.062500 0.125000 0.171875
v -0.062500 0.140625 0.171875
v -0.062500 0.140625 0.148438
v -0.062500 0.125000 0.148438
v 0.007812 0.171875 0.414062
v 0.007812 0.171875 0.429688
v 0.007812 0.156250 0.445312
v 0.007812 0.156250 0.414062
v -0.007812 0.156250 0.445312
v -0.007812 0.171875 0.429688
v -0.007812 0.171875 0.414062
v -0.007812 0.156250 0.414062
vt 0.375000 0.718750
vt 0.378906 0.707031
vt 0.394531 0.707031
vt 0.390625 0.718750
vt 0.335938 0.625000
vt 0.332031 0.613281
vt 0.347656 0.613281
vt 0.351562 0.625000
vt 0.437500 0.906250
vt 0.437500 0.921875
vt 0.406250 0.921875
vt 0.406250 0.906250
vt 0.250000 0.593750
vt 0.250000 0.562500
vt 0.281250 0.562500
vt 0.281250 0.593750
vt 0.625000 0.868456
vt 0.625000 0.856103
vt 0.656250 0.856103
vt 0.656250 0.868456
vt 0.187500 0.375000
vt 0.187500 0.362647
vt 0.218750 0.362647
vt 0.218750 0.375000
vt 0.406250 0.625000
vt 0.406250 0.593750
vt 0.437500 0.593750
vt 0.437500 0.625000
vt 0.320312 0.625000
vt 0.316406 0.613281
vt 0.406250 0.937500
vt 0.437500 0.937500
vt 0.410156 0.707031
vt 0.406250 0.718750
vt 0.398438 0.687113
vt 0.382812 0.694772
vt 0.652344 0.843750
vt 0.628906 0.843750
vt 0.343750 0.600928
vt 0.328125 0.593516
vt 0.328125 0.593363
vt 0.312500 0.601022
vt 0.214844 0.350294
vt 0.191406 0.350294
vt 0.414062 0.694678
vt 0.398438 0.687266
vt 0.312500 0.812500
vt 0.250000 0.812500
vt 0.250000 0.777344
vt 0.343750 0.781250
vt 0.375000 0.902344
vt 0.375000 0.937500
vt 0.312500 0.937500
vt 0.281250 0.906250
vt 0.312500 0.656250
vt 0.343750 0.656250
vt 0.343750 0.718750
vt 0.312500 0.718750
vt 0.250000 0.718750
vt 0.250000 0.625000
vt 0.281250 0.625000
vt 0.281250 0.718750
vt 0.468750 0.968750
vt 0.468750 1.000000
vt 0.437500 1.000000
vt 0.437500 0.968750
vt 0.156250 0.562500
vt 0.125000 0.562500
vt 0.125000 0.531250
vt 0.156250 0.531250
vt 0.218750 0.937500
vt 0.187500 0.937500
vt 0.203125 0.906250
vt 0.234375 0.906250
vt 0.375000 0.968750
vt 0.390625 1.000000
vt 0.359375 1.000000
vt 0.343750 0.968750
vt 0.437500 0.843750
vt 0.468750 0.843750
vt 0.468750 0.875000
vt 0.437500 0.875000
vt 0.218750 0.531250
vt 0.218750 0.562500
vt 0.187500 0.562500
vt 0.187500 0.531250
vt 0.468750 0.781250
vt 0.468750 0.812500
vt 0.437500 0.812500
vt 0.437500 0.781250
vt 0.406250 0.562500
vt 0.375000 0.562500
vt 0.375000 0.531250
vt 0.406250 0.531250
vt 0.062500 0.679688
vt 0.000000 0.672645
vt 0.015627 0.656250
vt 0.062320 0.656250
vt 0.375000 0.797013
vt 0.390353 0.781250
vt 0.398438 0.843750
vt 0.375446 0.843750
vt 0.187500 0.593750
vt 0.218750 0.593750
vt 0.218750 0.656250
vt 0.187500 0.656250
vt 0.156250 0.609375
vt 0.156250 0.656250
vt 0.125000 0.656250
vt 0.125000 0.609375
vt 0.023438 0.500000
vt 0.031250 0.531250
vt 0.000000 0.531250
vt 0.007812 0.500000
vt 0.468750 0.562500
vt 0.437500 0.562500
vt 0.445312 0.531250
vt 0.460938 0.531250
vt 0.250000 0.875000
vt 0.125000 0.875000
vt 0.125000 0.843750
vt 0.250000 0.843750
vt 0.312500 0.968750
vt 0.312500 1.000000
vt 0.187500 1.000000
vt 0.187500 0.968750
vt 0.125000 0.687500
vt 0.156250 0.687500
vt 0.156250 0.812500
vt 0.125000 0.812500
vt 0.218750 0.687500
vt 0.218750 0.812500
vt 0.187500 0.812500
vt 0.187500 0.687500
vt 0.093750 0.500000
vt 0.093750 0.531250
vt 0.062500 0.531250
vt 0.062500 0.500000
vt 0.500000 0.937500
vt 0.468750 0.937500
vt 0.468750 0.906250
vt 0.500000 0.906250
vt 0.281250 0.500000
vt 0.281250 0.531250
vt 0.250000 0.531250
vt 0.250000 0.500000
vt 0.062500 0.625000
vt 0.062500 0.593750
vt 0.093750 0.593750
vt 0.093750 0.625000
vt 0.468750 0.750000
vt 0.468750 0.718750
vt 0.500000 0.718750
vt 0.500000 0.750000
vt 0.312500 0.531250
vt 0.312500 0.500000
vt 0.343750 0.500000
vt 0.343750 0.531250
vt 0.500000 0.656250
vt 0.500000 0.687500
vt 0.468750 0.687500
vt 0.468750 0.656250
vt 0.000000 0.625000
vt 0.000000 0.593750
vt 0.031250 0.593750
vt 0.031250 0.625000
vt 0.031250 0.562500
vt 0.000000 0.562500
vt 0.093750 0.562500
vt 0.062500 0.562500
vt 0.562500 0.687500
vt 0.531250 0.687500
vt 0.531250 0.656250
vt 0.562500 0.656250
vt 0.562500 0.593750
vt 0.562500 0.625000
vt 0.531250 0.625000
vt 0.531250 0.593750
vt 0.562500 0.968750
vt 0.593750 0.968750
vt 0.593750 1.000000
vt 0.562500 1.000000
vt 0.156250 0.406250
vt 0.156250 0.437500
vt 0.125000 0.437500
vt 0.125000 0.406250
vt 0.593750 0.843750
vt 0.593750 0.875000
vt 0.562500 0.875000
vt 0.562500 0.843750
vt 0.218750 0.437500
vt 0.187500 0.437500
vt 0.187500 0.406250
vt 0.218750 0.406250
vt 0.343750 0.406250
vt 0.320312 0.406250
vt 0.312500 0.375000
vt 0.343750 0.375000
vt 0.515625 0.343750
vt 0.507812 0.375000
vt 0.500000 0.375000
vt 0.500000 0.343750
vt 0.593750 0.656250
vt 0.625000 0.656250
vt 0.625000 0.687500
vt 0.593750 0.687500
vt 0.625000 0.593750
vt 0.625000 0.625000
vt 0.593750 0.625000
vt 0.593750 0.593750
vt 0.156250 0.343750
vt 0.156250 0.375000
vt 0.125000 0.375000
vt 0.125000 0.343750
vt 0.656250 1.000000
vt 0.625000 1.000000
vt 0.625000 0.968750
vt 0.656250 0.968750
vn 1.0000 0.0000 0.0000
vn -1.0000 0.0000 0.0000
vn 0.0000 1.0000 0.0000
vn 0.0000 -0.8944 0.4472
vn 0.0000 -0.3162 0.9487
vn 0.0000 0.3162 -0.9487
vn 0.0000 -0.8944 -0.4472
vn 0.9806 -0.1961 -0.0000
vn -0.9487 -0.3162 0.0000
vn -0.9806 -0.1961 0.0000
vn 0.9487 -0.3162 -0.0000
vn 0.9487 -0.3163 0.0000
vn 0.0000 -0.9991 -0.0416
vn 0.0000 0.0000 1.0000
vn 0.0000 0.7071 -0.7071
vn 0.0000 -1.0000 -0.0000
vn 0.0000 -0.5547 0.8321
vn 0.0000 0.5547 -0.8321
vn 0.8666 -0.4952 -0.0619
vn -0.8666 -0.4952 -0.0619
vn 0.0000 0.9923 0.1240
vn 0.0000 -0.8000 0.6000
vn 0.0000 0.0000 -1.0000
vn 0.0000 0.4061 -0.9138
vn 0.0000 0.4258 0.9048
vn 0.0000 -0.4258 -0.9048
vn 0.0000 -0.4061 0.9138
vn 0.0000 0.9950 0.0995
vn 0.0000 -0.9950 -0.0995
vn 0.0000 0.7071 0.7071
usemtl m_41f7595f-8b63-2fb3-a31d-2d80cd8018a2
s 1
f 61/145/27 62/146/27 63/147/27 64/148/27
f 65/149/28 66/150/28 67/151/28 68/152/28
f 61/153/29 64/154/29 65/155/29 68/156/29
f 69/157/30 70/158/30 71/159/30 72/160/30
f 68/161/31 67/162/31 62/163/31 61/164/31
f 73/165/32 74/166/32 75/167/32 76/168/32
f 77/169/33 71/170/33 70/171/33 78/172/33
f 76/173/28 75/174/28 66/150/28 65/149/28
f 76/175/29 65/155/29 64/154/29 73/176/29
f 64/148/27 63/147/27 74/177/27 73/178/27
f 71/179/34 63/147/34 62/146/34 72/180/34
f 72/181/31 62/163/31 67/162/31 69/182/31
f 69/183/35 67/151/35 66/150/35 70/184/35
f 70/185/36 66/150/36 75/174/36 78/186/36
f 78/187/32 75/167/32 74/166/32 77/188/32
f 77/189/37 74/177/37 63/147/37 71/190/38
f 79/191/27 80/192/27 81/193/27 82/194/27
f 83/195/28 84/196/28 85/197/28 86/198/28
f 84/199/29 80/200/29 79/201/29 85/202/29
f 82/203/39 81/204/39 83/205/39 86/206/39
f 81/207/40 80/208/40 84/209/40 83/210/40
f 85/211/41 79/212/41 82/213/41 86/214/41
f 87/215/27 88/216/27 89/217/27 90/218/27
f 91/219/28 92/220/28 93/221/28 94/222/28
f 92/223/29 88/224/29 87/225/29 93/226/29
f 90/227/42 89/228/42 91/229/42 94/230/42
f 89/231/43 88/232/43 92/233/43 91/234/43
f 93/235/44 87/236/44 90/237/44 94/238/44
f 95/239/45 96/240/45 97/241/45 98/242/45
f 99/243/46 100/244/46 101/245/46 102/246/46
f 100/247/47 96/248/47 95/249/47 101/250/47
f 98/251/42 97/252/42 99/253/42 102/254/42
f 97/255/48 96/256/48 100/257/48 99/258/48
f 101/259/49 95/260/49 98/261/49 102/262/49
f 103/263/27 104/264/27 105/265/27 106/266/27
f 107/267/28 108/268/28 109/269/28 110/270/28
f 108/271/29 104/272/29 103/273/29 109/274/29
f 106/275/42 105/276/42 107/277/42 110/278/42
f 105/279/40 104/280/40 108/281/40 107/282/40
f 109/283/49 103/284/49 106/285/49 110/286/49
f 111/287/50 112/288/50 113/289/50 114/290/50
f 115/291/42 116/292/42 117/293/42 118/294/42
f 119/295/51 120/296/51 121/297/51 122/298/51
f 123/299/52 113/300/52 112/301/52 124/302/52
f 118/303/53 121/304/53 120/305/53 115/306/53
f 125/307/54 126/308/54 127/309/54 128/310/54
f 114/311/29 127/309/29 126/308/29 111/312/29
f 129/313/55 117/293/55 116/292/55 130/314/55
f 131/315/27 132/316/27 133/317/27 134/318/27
f 135/319/28 136/320/28 137/321/28 138/322/28
f 136/323/29 132/324/29 131/325/29 137/326/29
f 134/327/42 133/328/42 135/329/42 138/330/42
f 133/331/40 132/332/40 136/333/40 135/334/40
f 137/335/49 131/336/49 134/337/49 138/338/49
f 139/339/27 140/340/27 141/341/27 142/342/27
f 143/343/28 144/344/28 145/345/28 146/346/28
f 144/347/29 140/348/29 139/349/29 145/350/29
f 142/351/42 141/352/42 143/353/42 146/354/42
f 141/355/56 140/356/56 144/357/56 143/358/56
f 145/359/49 139/360/49 142/361/49 146/362/49
