# Blender v2.79 (sub 0) OBJ File: ''
# www.blender.org
mtllib fluff.mtl
o fluff
v 1.062500 0.062500 -1.062500
v 1.062500 0.062500 -0.500000
v 0.937500 -0.062500 -0.531250
v 0.937500 -0.062500 -0.937500
v -0.937500 -0.062500 -0.937500
v -0.937500 -0.062500 -0.531250
v -1.062500 0.062500 -0.500000
v -1.062500 0.062500 -1.062500
v -0.531250 0.062500 -1.062500
v -0.531250 0.062500 -0.500000
v 0.000000 0.062500 -0.500000
v 0.000000 0.062500 -1.062500
v 0.000000 -0.062500 -0.875000
v 0.000000 -0.125000 -0.531250
v -0.500000 -0.125000 -0.531250
v -0.500000 -0.062500 -0.937500
v -0.500000 -0.062500 -0.125000
v 0.000000 -0.062500 -0.156250
v 0.000000 0.062500 0.062500
v -0.531250 0.062500 0.062500
v 0.500000 -0.125000 -0.531250
v 0.500000 -0.062500 -0.937500
v 0.531250 0.062500 -1.062500
v 0.531250 0.062500 -0.500000
v 1.062500 0.062500 0.062500
v 0.531250 0.062500 0.062500
v 0.500000 -0.062500 -0.125000
v 0.937500 -0.062500 -0.125000
v -0.937500 -0.062500 -0.125000
v -1.062500 0.062500 0.062500
vt 0.500000 0.812500
vt 0.250000 0.812500
vt 0.250000 0.750000
vt 0.500000 0.750000
vt 0.000000 0.687500
vt 0.250000 0.687500
vt 0.250000 0.750000
vt 0.000000 0.750000
vt 0.250000 0.500000
vt 0.250000 0.250000
vt 0.500000 0.250000
vt 0.500000 0.500000
vt 0.500000 0.000000
vt 0.500000 0.250000
vt 0.250000 0.250000
vt 0.250000 0.000000
vt 0.250000 0.875000
vt 0.500000 0.875000
vt 0.500000 1.000000
vt 0.250000 1.000000
vt 0.750000 0.875000
vt 0.500000 0.875000
vt 0.500000 0.812500
vt 0.750000 0.812500
vt 1.000000 0.000000
vt 1.000000 0.250000
vt 0.750000 0.250000
vt 0.750000 0.000000
vt 0.000000 0.812500
vt 0.250000 0.812500
vt 0.250000 0.875000
vt 0.000000 0.875000
vt 0.750000 0.500000
vt 0.750000 0.250000
vt 1.000000 0.250000
vt 1.000000 0.500000
vt 1.000000 1.000000
vt 0.750000 1.000000
vt 0.750000 0.875000
vt 1.000000 0.875000
vt 0.000000 0.250000
vt 0.000000 0.000000
vt 0.000000 0.875000
vt 0.000000 1.000000
vt 0.000000 0.500000
vt 0.000000 0.250000
vt 1.000000 0.875000
vt 1.000000 0.812500
vt 0.750000 0.500000
vt 1.000000 0.500000
vt 0.000000 0.750000
vt 0.000000 0.812500
vt 1.000000 0.000000
vt 0.750000 0.000000
vt 0.500000 0.000000
vt 0.250000 0.000000
vt 0.000000 0.000000
vt 0.500000 0.750000
vt 0.500000 0.687500
vt 0.000000 0.500000
vt 0.250000 0.500000
vt 0.500000 0.500000
vn 0.7071 -0.7071 -0.0000
vn -0.7071 -0.7071 -0.0000
vn 0.0000 1.0000 0.0000
vn 0.0000 -0.9839 -0.1789
vn 0.0310 -0.8678 0.4959
vn -0.0000 -0.8321 -0.5547
vn 0.0000 -0.8320 -0.5547
vn 0.1414 -0.9899 -0.0000
vn 0.1414 -0.9900 0.0000
vn 0.0000 -0.7071 -0.7071
vn 0.0000 -0.8321 0.5547
vn -0.1398 -0.9787 -0.1506
vn -0.0000 -0.9884 -0.1521
vn -0.0692 -0.8301 -0.5534
vn 0.0000 -0.8682 0.4961
vn 0.0000 -0.8683 0.4961
vn -0.0000 -0.8682 0.4962
vn 0.1398 -0.9787 0.1506
vn -0.1414 -0.9899 0.0000
vn -0.1414 -0.9900 -0.0000
vn -0.0000 -0.9884 0.1520
vn -0.0000 -0.9864 0.1641
vn 0.0000 -0.9864 0.1642
vn 0.0000 -0.9864 0.1644
usemtl m_569450a1-0084-cd64-c677-10271c232f57
s 1
f 1/1/1 2/2/1 3/3/1 4/4/1
f 5/5/2 6/6/2 7/7/2 8/8/2
f 9/9/3 10/10/3 11/11/3 12/12/3
f 13/13/4 14/14/4 15/15/4 16/16/4
f 17/17/5 18/18/5 19/19/5 20/20/5
f 9/21/6 12/22/7 13/23/7 16/24/6
f 4/25/8 3/26/8 21/27/9 22/28/8
f 4/29/10 22/30/10 23/31/10 1/32/10
f 23/33/3 24/34/3 2/35/3 1/36/3
f 25/37/11 26/38/11 27/39/11 28/40/11
f 16/16/12 15/15/12 6/41/12 5/42/12
f 29/43/11 17/17/11 20/20/11 30/44/11
f 8/45/3 7/46/3 10/10/3 9/9/3
f 8/47/10 9/21/10 16/24/10 5/48/10
f 22/28/13 21/27/13 14/14/13 13/13/13
f 22/30/14 13/23/14 12/22/14 23/31/14
f 12/12/3 11/11/3 24/34/3 23/33/3
f 26/38/15 19/19/16 18/18/15 27/39/17
f 27/49/18 21/27/18 3/26/18 28/50/18
f 28/51/1 3/3/1 2/2/1 25/52/1
f 25/53/3 2/35/3 24/34/3 26/54/3
f 26/54/3 24/34/3 11/11/3 19/55/3
f 19/55/3 11/11/3 10/10/3 20/56/3
f 20/56/3 10/10/3 7/46/3 30/57/3
f 30/58/2 7/7/2 6/6/2 29/59/2
f 29/60/19 6/41/19 15/15/20 17/61/19
f 17/61/21 15/15/21 14/14/22 18/62/23
f 18/62/23 14/14/22 21/27/24 27/49/24
