# Blender v2.79 (sub 0) OBJ File: ''
# www.blender.org
mtllib fmgta.mtl
o eyelid_lower_right
v -0.866670 -0.882641 2.854127
v -0.866670 -0.890453 2.861939
v -0.687088 -0.879265 2.962160
v -0.679276 -0.871452 2.954348
v -0.991564 -0.893829 2.753907
v -0.991564 -0.901641 2.761719
v -0.709934 -0.990580 2.917364
v -0.842672 -0.989548 2.840345
v -0.941402 -0.994179 2.777809
v -1.010456 -0.994625 2.732683
v -0.687439 -0.967307 2.936540
vt 0.098633 0.900391
vt 0.098633 0.896484
vt 0.102539 0.896484
vt 0.102539 0.900391
vt 0.098633 0.900391
vt 0.098633 0.896484
vt 0.102539 0.896484
vt 0.102539 0.900391
vt 0.098633 0.900391
vt 0.098633 0.896484
vt 0.102539 0.900391
vt 0.098633 0.900391
vt 0.102539 0.896484
vt 0.102539 0.900391
vt 0.098633 0.900391
vt 0.102539 0.896484
vt 0.098633 0.900391
vt 0.102539 0.896484
vt 0.098633 0.896484
vt 0.102539 0.896484
vt 0.102539 0.900391
vn -0.4017 0.6475 0.6476
vn -0.4017 0.6476 0.6475
vn -0.4017 0.6475 0.6475
vn -0.5335 0.5981 0.5981
vn -0.4602 -0.2486 0.8523
vn -0.4602 -0.2485 0.8523
vn -0.5793 -0.3050 0.7559
vn -0.9769 0.1512 0.1512
vn -0.5403 -0.1489 0.8282
vn -0.5836 -0.1000 0.8059
vn -0.5835 -0.1000 0.8059
vn -0.5836 -0.1001 0.8059
usemtl m_e9598301-16e8-6514-97ed-7cc20136c18a
s 1
f 1/1/1 2/2/2 3/3/1 4/4/3
f 5/5/4 6/6/4 2/7/4 1/8/4
f 7/9/5 3/10/6 2/7/5 8/11/5
f 8/12/7 2/2/7 6/13/7 9/14/7
f 10/15/8 6/6/8 5/16/8
f 9/17/9 6/6/9 10/18/9
f 7/9/10 11/19/11 4/20/12 3/21/10
o eyelid_lower_left
v 0.679276 -0.879265 2.962160
v 0.858858 -0.890453 2.861939
v 0.858858 -0.882641 2.854127
v 0.671463 -0.871452 2.954348
v 0.983751 -0.901641 2.761719
v 0.983751 -0.893829 2.753907
v 0.702121 -0.990580 2.917364
v 0.834859 -0.989548 2.840345
v 0.933590 -0.994179 2.777809
v 1.002643 -0.994625 2.732683
v 0.679627 -0.967307 2.934587
vt 0.102539 0.896484
vt 0.098633 0.896484
vt 0.098633 0.900391
vt 0.102539 0.900391
vt 0.102539 0.896484
vt 0.098633 0.896484
vt 0.098633 0.900391
vt 0.102539 0.900391
vt 0.098633 0.896484
vt 0.098633 0.900391
vt 0.102539 0.900391
vt 0.102539 0.896484
vt 0.098633 0.900391
vt 0.102539 0.900391
vt 0.098633 0.900391
vt 0.102539 0.896484
vt 0.098633 0.900391
vt 0.102539 0.896484
vt 0.102539 0.896484
vt 0.098633 0.896484
vt 0.102539 0.900391
vn 0.4017 0.6475 0.6476
vn 0.4017 0.6476 0.6475
vn 0.4017 0.6475 0.6475
vn 0.5335 0.5981 0.5981
vn 0.4602 -0.2486 0.8523
vn 0.4602 -0.2485 0.8523
vn 0.5793 -0.3050 0.7559
vn 0.9769 0.1512 0.1512
vn 0.5403 -0.1489 0.8282
vn 0.5136 -0.1310 0.8479
vn 0.5136 -0.1311 0.8479
vn 0.5137 -0.1311 0.8479
usemtl m_e9598301-16e8-6514-97ed-7cc20136c18a
s 1
f 12/22/13 13/23/14 14/24/13 15/25/15
f 13/26/16 16/27/16 17/28/16 14/29/16
f 13/26/17 12/30/18 18/31/17 19/32/17
f 16/33/19 13/23/19 19/34/19 20/35/19
f 16/27/20 21/36/20 17/37/20
f 16/27/21 20/38/21 21/39/21
f 15/40/22 22/41/23 18/31/22 12/42/24
o cuboid
v 0.625000 -1.182875 2.903000
v 0.625000 -1.182875 2.965500
v 0.625000 -1.323500 2.965500
v 0.625000 -1.323500 2.903000
v -0.625000 -1.323500 2.965500
v -0.625000 -1.182875 2.965500
v -0.625000 -1.182875 2.903000
v -0.625000 -1.323500 2.903000
vt 0.114258 0.937500
vt 0.098633 0.937500
vt 0.098633 0.953125
vt 0.114258 0.953125
vt 0.114258 0.937500
vt 0.098633 0.937500
vt 0.098633 0.953125
vt 0.114258 0.953125
vt 0.114258 0.937500
vt 0.098633 0.953125
vt 0.114258 0.953125
vt 0.114258 0.937500
vt 0.098633 0.937500
vt 0.098633 0.953125
vt 0.114258 0.937500
vt 0.098633 0.953125
vt 0.114258 0.953125
vt 0.114258 0.937500
vt 0.098633 0.937500
vt 0.098633 0.953125
vn 1.0000 0.0000 0.0000
vn -1.0000 0.0000 0.0000
vn 0.0000 1.0000 0.0000
vn 0.0000 -1.0000 -0.0000
vn 0.0000 0.0000 1.0000
vn 0.0000 0.0000 -1.0000
usemtl m_e9598301-16e8-6514-97ed-7cc20136c18a
s 1
f 23/43/25 24/44/25 25/45/25 26/46/25
f 27/47/26 28/48/26 29/49/26 30/50/26
f 28/51/27 24/44/27 23/52/27 29/53/27
f 26/54/28 25/55/28 27/56/28 30/50/28
f 25/57/29 24/44/29 28/58/29 27/59/29
f 29/60/30 23/61/30 26/62/30 30/50/30
o eyelid_upper_left
v 0.983751 -0.886016 2.761719
v 0.858858 -0.874828 2.861939
v 0.858858 -0.882641 2.854127
v 0.983751 -0.893829 2.753907
v 0.679276 -0.863640 2.962160
v 0.671463 -0.871452 2.954348
v 0.923788 -0.793035 2.795065
v 0.663301 -0.775597 2.972155
v 0.964859 -0.846389 2.775130
vt 0.102539 0.896484
vt 0.098633 0.896484
vt 0.098633 0.900391
vt 0.102539 0.900391
vt 0.102539 0.896484
vt 0.098633 0.896484
vt 0.098633 0.900391
vt 0.102539 0.900391
vt 0.102539 0.896484
vt 0.098633 0.900391
vt 0.102539 0.900391
vt 0.098633 0.896484
vt 0.098633 0.900391
vt 0.102539 0.900391
vt 0.102539 0.896484
vt 0.098633 0.900391
vt 0.098633 0.896484
vt 0.098633 0.900391
vt 0.102539 0.896484
vn 0.4501 -0.6314 0.6314
vn 0.2543 -0.7991 0.5448
vn 0.4796 0.2950 0.8264
vn 0.6274 0.0359 0.7779
vn 0.7004 0.5047 -0.5047
vn 0.7003 0.5047 -0.5047
vn -0.5886 -0.1958 0.7844
usemtl m_e9598301-16e8-6514-97ed-7cc20136c18a
s 1
f 31/63/31 32/64/31 33/65/31 34/66/31
f 32/67/32 35/68/32 36/69/32 33/70/32
f 35/71/33 32/64/33 37/72/33 38/73/33
f 32/67/34 31/74/34 39/75/34 37/76/34
f 39/77/35 31/74/35 34/78/36 37/76/35
f 36/79/37 35/80/37 38/81/37
o eyelid_upper_right
v -0.866670 -0.882641 2.854127
v -0.866670 -0.874828 2.861939
v -0.991564 -0.886016 2.761719
v -0.991564 -0.893829 2.753907
v -0.679276 -0.871452 2.954348
v -0.687088 -0.863640 2.962160
v -0.931601 -0.793035 2.795065
v -0.671113 -0.775597 2.972155
v -0.972672 -0.846389 2.775130
vt 0.098633 0.900391
vt 0.098633 0.896484
vt 0.102539 0.896484
vt 0.102539 0.900391
vt 0.098633 0.900391
vt 0.098633 0.896484
vt 0.102539 0.896484
vt 0.102539 0.900391
vt 0.098633 0.900391
vt 0.102539 0.896484
vt 0.102539 0.900391
vt 0.098633 0.900391
vt 0.098633 0.896484
vt 0.102539 0.900391
vt 0.098633 0.900391
vt 0.102539 0.896484
vt 0.098633 0.900391
vt 0.098633 0.896484
vt 0.102539 0.896484
vn -0.4501 -0.6314 0.6314
vn -0.2543 -0.7991 0.5448
vn -0.4796 0.2950 0.8264
vn -0.6274 0.0359 0.7779
vn -0.7004 0.5047 -0.5047
vn 0.5885 -0.1958 0.7844
usemtl m_e9598301-16e8-6514-97ed-7cc20136c18a
s 1
f 40/82/38 41/83/38 42/84/38 43/85/38
f 44/86/39 45/87/39 41/88/39 40/89/39
f 46/90/40 41/83/40 45/91/40 47/92/40
f 48/93/41 42/94/41 41/88/41 46/95/41
f 43/96/42 42/94/42 48/97/42 46/95/42
f 45/98/43 44/99/43 47/100/43
