# Blender v2.79 (sub 0) OBJ File: ''
# www.blender.org
mtllib gearbox.mtl
o cuboid
v 0.093750 0.000000 -0.250000
v 0.156250 -0.062500 -0.000000
v 0.093750 -0.125000 -0.000000
v 0.031250 -0.062500 -0.250000
v -0.093750 -0.125000 -0.000000
v -0.156250 -0.062500 -0.000000
v -0.093750 0.000000 -0.250000
v -0.031250 -0.062500 -0.250000
v 0.093750 0.062500 -0.250000
v 0.156250 0.062500 0.000000
v 0.156250 -0.062500 -0.000000
v 0.093750 0.000000 -0.250000
v -0.156250 -0.062500 -0.000000
v -0.156250 0.062500 0.000000
v -0.093750 0.062500 -0.250000
v -0.093750 0.000000 -0.250000
v 0.031250 0.125000 -0.250000
v 0.093750 0.125000 0.000000
v 0.156250 0.062500 0.000000
v 0.093750 0.062500 -0.250000
v -0.156250 0.062500 0.000000
v -0.093750 0.125000 0.000000
v -0.031250 0.125000 -0.250000
v -0.093750 0.062500 -0.250000
vt 0.937500 0.687500
vt 0.687500 0.687500
vt 0.687500 0.625000
vt 0.937500 0.625000
vt 0.375000 0.062500
vt 0.437500 0.062500
vt 0.437500 0.312500
vt 0.375000 0.312500
vt 0.121478 0.998646
vt 0.000000 0.762944
vt 0.187500 0.718750
vt 0.187500 0.983915
vt 0.250000 0.375000
vt 0.312500 0.437500
vt 0.000000 0.437500
vt 0.062500 0.375000
vt 0.687500 0.312500
vt 0.500000 0.312500
vt 0.562500 0.250000
vt 0.625000 0.250000
vt 0.625000 0.625000
vt 0.375000 0.625000
vt 0.375000 0.500000
vt 0.625000 0.562500
vt 0.750000 0.875000
vt 0.750000 1.000000
vt 0.500000 1.000000
vt 0.500000 0.937500
vt 0.937500 0.437500
vt 0.750000 0.437500
vt 0.750000 0.375000
vt 0.937500 0.375000
vt 0.312500 0.500000
vt 0.312500 0.625000
vt 0.000000 0.625000
vt 0.000000 0.500000
vt 0.647850 0.437500
vt 0.390156 0.437500
vt 0.375000 0.375000
vt 0.632694 0.375000
vt 0.281250 0.250000
vt 0.266094 0.312500
vt 0.008400 0.312500
vt 0.023556 0.250000
vt 0.250000 0.772623
vt 0.437500 0.727147
vt 0.437500 0.984842
vt 0.371268 1.000000
vt 0.812500 0.750000
vt 0.750000 0.812500
vt 0.562500 0.812500
vt 0.500000 0.750000
vt 0.812500 0.562500
vt 0.750000 0.562500
vt 0.687500 0.500000
vt 0.875000 0.500000
vn 0.6667 -0.6667 -0.3333
vn -0.6667 -0.6667 -0.3333
vn 0.0000 -0.9701 -0.2425
vn 0.0000 -0.0000 1.0000
vn 0.0000 0.0000 -1.0000
vn 0.9701 0.0000 -0.2425
vn -0.9701 0.0000 -0.2425
vn 0.6963 0.6963 -0.1741
vn -0.6963 0.6963 -0.1741
vn 0.0000 1.0000 0.0000
usemtl m_769d087b-0e02-83a3-bdca-d726fe174219
s 1
f 1/1/1 2/2/1 3/3/1 4/4/1
f 5/5/2 6/6/2 7/7/2 8/8/2
f 4/9/3 3/10/3 5/11/3 8/12/3
f 3/13/4 2/14/4 6/15/4 5/16/4
f 7/17/5 1/18/5 4/19/5 8/20/5
f 9/21/6 10/22/6 11/23/6 12/24/6
f 13/25/7 14/26/7 15/27/7 16/28/7
f 15/29/5 9/30/5 12/31/5 16/32/5
f 11/33/4 10/34/4 14/35/4 13/36/4
f 17/37/8 18/38/8 19/39/8 20/40/8
f 21/41/9 22/42/9 23/43/9 24/44/9
f 22/45/10 18/46/10 17/47/10 23/48/10
f 19/49/4 18/50/4 22/51/4 21/52/4
f 23/53/5 17/54/5 20/55/5 24/56/5
