# Blender v2.79 (sub 0) OBJ File: ''
# www.blender.org
mtllib hitchconnector.mtl
o connector
v 0.046875 0.054688 -0.046875
v 0.046875 0.054687 0.046875
v 0.046875 0.046875 0.046875
v 0.046875 0.046875 -0.046875
v -0.046875 0.046875 0.046875
v -0.046875 0.054687 0.046875
v -0.046875 0.054688 -0.046875
v -0.046875 0.046875 -0.046875
v 0.031250 0.039062 -0.031250
v 0.031250 0.039062 0.031250
v -0.031250 0.039062 0.031250
v -0.031250 0.039062 -0.031250
v 0.039062 0.031250 0.039062
v 0.039062 0.031250 -0.039062
v -0.039062 0.031250 0.039062
v -0.039062 0.031250 -0.039062
vt 0.093750 0.875000
vt 0.000000 0.875000
vt 0.000000 0.867188
vt 0.093750 0.867188
vt 0.093750 0.867188
vt 0.093750 0.875000
vt 0.000000 0.875000
vt 0.000000 0.867188
vt 0.000000 0.781250
vt 0.093750 0.781250
vt 0.937500 0.562500
vt 0.937500 0.750000
vt 0.750000 0.750000
vt 0.750000 0.562500
vt 0.093750 0.867188
vt 0.093750 0.875000
vt 0.000000 0.875000
vt 0.000000 0.867188
vt 0.093750 0.875000
vt 0.000000 0.875000
vt 0.000000 0.867188
vt 0.093750 0.867188
vt 0.070312 0.920031
vt 0.148438 0.920031
vt 0.156250 0.937500
vt 0.062500 0.937500
vt 0.007812 0.982531
vt 0.085938 0.982531
vt 0.093750 1.000000
vt 0.000000 1.000000
vt 0.007812 0.920031
vt 0.085938 0.920031
vt 0.093750 0.937500
vt 0.000000 0.937500
vt 0.007812 0.920031
vt 0.085938 0.920031
vt 0.093750 0.937500
vt 0.000000 0.937500
vt 0.070312 0.875000
vt 0.007812 0.875000
vt 0.000000 0.863950
vt 0.078125 0.863950
vt 0.070312 0.875000
vt 0.007812 0.875000
vt 0.000000 0.863950
vt 0.078125 0.863950
vt 0.070312 0.875000
vt 0.007812 0.875000
vt 0.000000 0.863950
vt 0.078125 0.863950
vt 0.070312 0.875000
vt 0.007812 0.875000
vt 0.000000 0.863950
vt 0.078125 0.863950
vn 1.0000 0.0000 0.0000
vn -1.0000 0.0000 0.0000
vn 0.0000 1.0000 0.0000
vn 0.0000 -1.0000 0.0000
vn 0.0000 0.0000 1.0000
vn 0.0000 0.0000 -1.0000
vn 0.8944 -0.4472 -0.0000
vn 0.0000 -0.4472 0.8944
vn -0.8944 -0.4472 -0.0000
vn 0.0000 -0.4472 -0.8944
vn -0.7071 -0.7071 0.0000
vn 0.0000 -0.7071 -0.7071
vn 0.7071 -0.7071 0.0000
vn 0.0000 -0.7071 0.7071
usemtl m_7dae2e97-8efe-62ed-d490-12ef4b1ebf17
s 1
f 1/1/1 2/2/1 3/3/1 4/4/1
f 5/5/2 6/6/2 7/7/2 8/8/2
f 6/9/3 2/10/3 1/1/3 7/7/3
f 9/11/4 10/12/4 11/13/4 12/14/4
f 3/15/5 2/16/5 6/17/5 5/18/5
f 7/19/6 1/20/6 4/21/6 8/22/6
f 13/23/7 14/24/7 4/25/7 3/26/7
f 15/27/8 13/28/8 3/29/8 5/30/8
f 16/31/9 15/32/9 5/33/9 8/34/9
f 14/35/10 16/36/10 8/37/10 4/38/10
f 10/39/11 9/40/11 14/41/11 13/42/11
f 11/43/12 10/44/12 13/45/12 15/46/12
f 12/47/13 11/48/13 15/49/13 16/50/13
f 9/51/14 12/52/14 16/53/14 14/54/14
o chain
v 0.050111 0.015625 0.000000
v 0.039062 0.015625 0.011049
v 0.039062 -0.015625 0.011049
v 0.050111 -0.015625 -0.000000
v 0.028014 -0.015625 -0.000000
v 0.028014 0.015625 0.000000
v 0.039062 0.015625 -0.011049
v 0.039062 -0.015625 -0.011049
v 0.046875 0.039062 -0.007812
v 0.046875 0.039062 0.007813
v 0.046875 0.007812 0.007812
v 0.046875 0.007812 -0.007812
v 0.031250 0.007812 0.007812
v 0.031250 0.039062 0.007813
v 0.031250 0.039062 -0.007812
v 0.031250 0.007812 -0.007812
v 0.050111 -0.031250 -0.000000
v 0.039062 -0.031250 0.011049
v 0.039062 -0.062500 0.011049
v 0.050111 -0.062500 -0.000000
v 0.028014 -0.062500 -0.000000
v 0.028014 -0.031250 -0.000000
v 0.039062 -0.031250 -0.011049
v 0.039062 -0.062500 -0.011049
v 0.046875 -0.007812 -0.007812
v 0.046875 -0.007812 0.007812
v 0.046875 -0.039062 0.007812
v 0.046875 -0.039062 -0.007813
v 0.031250 -0.039062 0.007812
v 0.031250 -0.007812 0.007812
v 0.031250 -0.007812 -0.007812
v 0.031250 -0.039062 -0.007813
vt 0.562500 1.000000
vt 0.500000 1.000000
vt 0.500000 0.875000
vt 0.562500 0.875000
vt 0.562500 0.875000
vt 0.562500 1.000000
vt 0.500000 1.000000
vt 0.500000 0.875000
vt 0.500000 0.937500
vt 0.562500 0.937500
vt 0.562500 0.937500
vt 0.500000 0.937500
vt 0.562500 0.875000
vt 0.562500 1.000000
vt 0.500000 1.000000
vt 0.500000 0.875000
vt 0.562500 1.000000
vt 0.500000 1.000000
vt 0.500000 0.875000
vt 0.562500 0.875000
vt 0.562500 1.000000
vt 0.500000 1.000000
vt 0.500000 0.875000
vt 0.562500 0.875000
vt 0.562500 0.875000
vt 0.562500 1.000000
vt 0.500000 1.000000
vt 0.500000 0.875000
vt 0.500000 0.937500
vt 0.562500 0.937500
vt 0.562500 0.937500
vt 0.500000 0.937500
vt 0.562500 0.875000
vt 0.562500 1.000000
vt 0.500000 1.000000
vt 0.500000 0.875000
vt 0.562500 1.000000
vt 0.500000 1.000000
vt 0.500000 0.875000
vt 0.562500 0.875000
vt 0.562500 1.000000
vt 0.500000 1.000000
vt 0.500000 0.875000
vt 0.562500 0.875000
vt 0.562500 0.875000
vt 0.562500 1.000000
vt 0.500000 1.000000
vt 0.500000 0.875000
vt 0.500000 0.937500
vt 0.562500 0.937500
vt 0.562500 0.937500
vt 0.500000 0.937500
vt 0.562500 0.875000
vt 0.562500 1.000000
vt 0.500000 1.000000
vt 0.500000 0.875000
vt 0.562500 1.000000
vt 0.500000 1.000000
vt 0.500000 0.875000
vt 0.562500 0.875000
vt 0.562500 1.000000
vt 0.500000 1.000000
vt 0.500000 0.875000
vt 0.562500 0.875000
vt 0.562500 0.875000
vt 0.562500 1.000000
vt 0.500000 1.000000
vt 0.500000 0.875000
vt 0.500000 0.937500
vt 0.562500 0.937500
vt 0.562500 0.937500
vt 0.500000 0.937500
vt 0.562500 0.875000
vt 0.562500 1.000000
vt 0.500000 1.000000
vt 0.500000 0.875000
vt 0.562500 1.000000
vt 0.500000 1.000000
vt 0.500000 0.875000
vt 0.562500 0.875000
vn 0.7071 0.0000 0.7071
vn -0.7071 0.0000 -0.7071
vn 0.0000 1.0000 0.0000
vn 0.0000 -1.0000 0.0000
vn -0.7071 -0.0000 0.7071
vn 0.7071 0.0000 -0.7071
vn 1.0000 0.0000 0.0000
vn -1.0000 -0.0000 0.0000
vn 0.0000 -0.0000 1.0000
vn 0.0000 0.0000 -1.0000
usemtl m_7dae2e97-8efe-62ed-d490-12ef4b1ebf17
s 1
f 17/55/15 18/56/15 19/57/15 20/58/15
f 21/59/16 22/60/16 23/61/16 24/62/16
f 22/63/17 18/64/17 17/55/17 23/61/17
f 20/58/18 19/65/18 21/66/18 24/62/18
f 19/67/19 18/68/19 22/69/19 21/70/19
f 23/71/20 17/72/20 20/73/20 24/74/20
f 25/75/21 26/76/21 27/77/21 28/78/21
f 29/79/22 30/80/22 31/81/22 32/82/22
f 30/83/17 26/84/17 25/75/17 31/81/17
f 28/78/18 27/85/18 29/86/18 32/82/18
f 27/87/23 26/88/23 30/89/23 29/90/23
f 31/91/24 25/92/24 28/93/24 32/94/24
f 33/95/15 34/96/15 35/97/15 36/98/15
f 37/99/16 38/100/16 39/101/16 40/102/16
f 38/103/17 34/104/17 33/95/17 39/101/17
f 36/98/18 35/105/18 37/106/18 40/102/18
f 35/107/19 34/108/19 38/109/19 37/110/19
f 39/111/20 33/112/20 36/113/20 40/114/20
f 41/115/21 42/116/21 43/117/21 44/118/21
f 45/119/22 46/120/22 47/121/22 48/122/22
f 46/123/17 42/124/17 41/115/17 47/121/17
f 44/118/18 43/125/18 45/126/18 48/122/18
f 43/127/23 42/128/23 46/129/23 45/130/23
f 47/131/24 41/132/24 44/133/24 48/134/24
o #connector_alt
v 0.005469 0.071875 0.005469
v 0.005469 0.071875 0.021094
v 0.005469 0.068750 0.021094
v 0.005469 0.068750 0.005469
v -0.005469 0.068750 0.021094
v -0.005469 0.071875 0.021094
v -0.005469 0.071875 0.005469
v -0.005469 0.068750 0.005469
v -0.000195 0.068750 0.007031
v -0.000195 0.068750 0.019531
v -0.000781 0.067969 0.019531
v -0.000781 0.067969 0.006250
v -0.004688 0.067969 0.019531
v -0.005469 0.068750 0.019531
v -0.005469 0.068750 0.007031
v -0.004688 0.067969 0.006250
v 0.005469 0.068750 0.019531
v 0.005469 0.068750 0.021094
v 0.004688 0.067969 0.020313
v 0.004688 0.067969 0.019531
v -0.004688 0.067969 0.020313
v -0.005469 0.068750 0.021094
v -0.005469 0.068750 0.019531
v -0.004688 0.067969 0.019531
v 0.000781 0.067969 0.019531
v 0.000195 0.068750 0.019531
v 0.000195 0.068750 0.007031
v 0.000781 0.067969 0.006250
v 0.005469 0.068750 0.007031
v 0.005469 0.068750 0.019531
v 0.004688 0.067969 0.019531
v 0.004688 0.067969 0.006250
v 0.004688 0.067969 0.004688
v 0.005469 0.068750 0.005469
v 0.005469 0.068750 0.007031
v 0.004688 0.067969 0.006250
v -0.005469 0.068750 0.007031
v -0.005469 0.068750 0.005469
v -0.004688 0.067969 0.004688
v -0.004688 0.067969 0.006250
vt 0.437500 1.000000
vt 0.250000 1.000000
vt 0.250000 0.937500
vt 0.437500 0.937500
vt 0.437500 0.875000
vt 0.437500 0.937500
vt 0.250000 0.937500
vt 0.250000 0.875000
vt 0.000000 0.750000
vt 0.125000 0.750000
vt 0.125000 0.937500
vt 0.000000 0.937500
vt 0.625000 0.812500
vt 0.625000 1.000000
vt 0.500000 1.000000
vt 0.500000 0.812500
vt 0.125000 0.937500
vt 0.125000 1.000000
vt 0.000000 1.000000
vt 0.000000 0.937500
vt 0.250000 1.000000
vt 0.125000 1.000000
vt 0.125000 0.937500
vt 0.250000 0.937500
vt 0.250000 0.375000
vt 0.250000 0.187500
vt 0.312500 0.187500
vt 0.312500 0.375000
vt 0.000000 0.750000
vt 0.062500 0.750000
vt 0.062500 0.937500
vt 0.000000 0.937500
vt 0.000000 0.750000
vt 0.062500 0.750000
vt 0.062500 0.937500
vt 0.000000 0.937500
vt 0.062500 0.937500
vt 0.062500 0.750000
vt 0.000000 0.750000
vt 0.062500 0.812500
vt 0.000000 0.812500
vt 0.000000 0.875000
vt 0.062500 0.875000
vt 0.125000 1.000000
vt 0.062500 1.000000
vt 0.093750 0.937500
vt 0.125000 0.937500
vt 0.031250 0.937500
vt 0.062500 1.000000
vt 0.000000 1.000000
vt 0.000000 0.937500
vt 0.000000 0.937500
vt 0.125000 0.937500
vt 0.125000 1.000000
vt 0.000000 1.000000
vt 0.116071 0.937500
vt 0.125000 1.000000
vt 0.000000 1.000000
vt 0.008929 0.937500
vt 0.437500 0.437500
vt 0.312500 0.437500
vt 0.321429 0.375000
vt 0.428571 0.375000
vt 0.375000 0.187500
vt 0.312500 0.187500
vt 0.312500 0.375000
vt 0.375000 0.375000
vt 0.125000 0.937500
vt 0.125000 0.750000
vt 0.062500 0.750000
vt 0.062500 0.937500
vt 0.125000 0.937500
vt 0.125000 0.750000
vt 0.062500 0.750000
vt 0.062500 0.937500
vt 0.125000 0.750000
vt 0.125000 0.937500
vt 0.125000 0.812500
vt 0.062500 0.750000
vt 0.062500 0.812500
vt 0.125000 0.875000
vt 0.062500 0.875000
vt 0.093750 0.750000
vt 0.062500 0.812500
vt 0.125000 0.812500
vt 0.125000 0.750000
vt 0.000000 0.812500
vt 0.062500 0.812500
vt 0.031250 0.750000
vt 0.000000 0.750000
vt 0.125000 0.750000
vt 0.000000 0.750000
vt 0.000000 0.812500
vt 0.125000 0.812500
vt 0.000000 0.812500
vt 0.125000 0.812500
vt 0.116071 0.750000
vt 0.008929 0.750000
vt 0.321429 0.187500
vt 0.312500 0.250000
vt 0.437500 0.250000
vt 0.428571 0.187500
vn 1.0000 0.0000 0.0000
vn -1.0000 0.0000 0.0000
vn 0.0000 1.0000 0.0000
vn 0.0000 -1.0000 0.0000
vn 0.0000 0.0000 1.0000
vn 0.0000 0.0000 -1.0000
vn 0.8000 -0.6000 0.0000
vn -0.7071 -0.7071 0.0000
vn 0.0000 0.7071 -0.7071
vn 0.7071 -0.7071 0.0000
vn 0.0000 -0.7071 0.7071
vn -0.8000 -0.6000 0.0000
usemtl m_7dae2e97-8efe-62ed-d490-12ef4b1ebf17
s 1
f 49/135/25 50/136/25 51/137/25 52/138/25
f 53/139/26 54/140/26 55/141/26 56/142/26
f 54/143/27 50/144/27 49/145/27 55/146/27
f 52/147/28 51/148/28 53/149/28 56/150/28
f 51/151/29 50/152/29 54/153/29 53/154/29
f 55/155/30 49/156/30 52/157/30 56/158/30
f 57/159/31 58/160/31 59/161/31 60/162/31
f 61/163/32 62/164/32 63/165/32 64/166/32
f 62/167/27 58/168/27 57/169/27 63/170/27
f 60/171/28 59/172/28 61/163/28 64/166/28
f 59/173/29 58/168/29 62/174/29 61/175/29
f 63/176/33 57/177/33 60/171/33 64/166/33
f 65/178/34 66/179/34 67/180/34 68/181/34
f 69/182/32 70/183/32 71/184/32 72/185/32
f 70/186/27 66/187/27 65/178/27 71/184/27
f 68/181/28 67/188/28 69/189/28 72/185/28
f 67/190/35 66/191/35 70/192/35 69/193/35
f 71/194/30 65/195/30 68/196/30 72/197/30
f 73/198/36 74/199/36 75/200/36 76/201/36
f 77/202/34 78/203/34 79/204/34 80/205/34
f 75/206/27 74/207/27 78/208/27 77/209/27
f 79/204/28 73/210/28 76/211/28 80/205/28
f 78/212/29 74/207/29 73/213/29 79/214/29
f 76/211/33 75/215/33 77/216/33 80/205/33
f 81/217/34 82/218/34 83/219/34 84/220/34
f 85/221/32 86/222/32 87/223/32 88/224/32
f 83/219/27 82/225/27 86/226/27 85/221/27
f 87/227/28 81/228/28 84/220/28 88/224/28
f 86/229/33 82/230/33 81/231/33 87/232/33
f 84/233/35 83/234/35 85/235/35 88/236/35
o #mount_alt
v -0.054688 0.062500 0.054688
v -0.054688 0.062500 -0.054687
v -0.046875 0.054688 -0.046875
v -0.046875 0.054687 0.046875
v 0.046875 0.054688 -0.046875
v 0.054688 0.062500 -0.054687
v 0.054688 0.062500 0.054688
v 0.046875 0.054687 0.046875
v 0.054688 0.093750 -0.054687
v -0.054688 0.093750 -0.054687
v -0.054688 0.093750 0.054688
v 0.054688 0.093750 0.054688
v -0.015625 0.058594 0.015625
v -0.015625 0.058594 -0.015625
v 0.015625 0.058594 -0.015625
v 0.015625 0.058594 0.015625
vt 0.375000 0.750000
vt 0.375000 0.875000
vt 0.312500 0.875000
vt 0.312500 0.750000
vt 0.500000 0.812500
vt 0.500000 0.875000
vt 0.375000 0.875000
vt 0.375000 0.812500
vt 0.125000 0.750000
vt 0.125000 0.875000
vt 0.000000 0.875000
vt 0.000000 0.750000
vt 0.375000 0.125000
vt 0.375000 0.250000
vt 0.250000 0.250000
vt 0.250000 0.125000
vt 0.500000 0.750000
vt 0.500000 0.812500
vt 0.375000 0.812500
vt 0.375000 0.750000
vt 0.312500 0.750000
vt 0.312500 0.875000
vt 0.250000 0.875000
vt 0.250000 0.750000
vt 0.437500 0.968750
vt 0.437500 0.906250
vt 0.500000 0.875000
vt 0.500000 1.000000
vt 0.312500 0.906250
vt 0.312500 0.968750
vt 0.250000 1.000000
vt 0.250000 0.875000
vt 0.437500 0.906250
vt 0.437500 0.968750
vt 0.375000 1.000000
vt 0.375000 0.875000
vt 0.312500 0.906250
vt 0.312500 0.968750
vt 0.375000 1.000000
vt 0.375000 0.875000
vt 0.250000 0.937500
vt 0.125000 0.937500
vt 0.125000 0.875000
vt 0.250000 0.875000
vt 0.250000 1.000000
vt 0.125000 1.000000
vt 0.125000 0.937500
vt 0.250000 0.937500
vt 0.125000 1.000000
vt 0.000000 1.000000
vt 0.000000 0.937500
vt 0.125000 0.937500
vt 0.000000 0.937500
vt 0.000000 0.875000
vn -0.7071 -0.7071 -0.0000
vn 0.7071 -0.7071 -0.0000
vn 0.0000 1.0000 0.0000
vn 0.0000 -1.0000 0.0000
vn 0.0000 -0.7071 -0.7071
vn 0.0000 -0.7071 0.7071
vn 0.1240 -0.9923 0.0000
vn 0.0000 -0.9923 0.1240
vn -0.1240 -0.9923 0.0000
vn 0.0000 -0.9923 -0.1240
vn 0.0000 0.0000 -1.0000
vn -1.0000 0.0000 0.0000
vn 0.0000 0.0000 1.0000
vn 1.0000 0.0000 0.0000
usemtl m_7dae2e97-8efe-62ed-d490-12ef4b1ebf17
s 1
f 89/237/37 90/238/37 91/239/37 92/240/37
f 93/241/38 94/242/38 95/243/38 96/244/38
f 97/245/39 98/246/39 99/247/39 100/248/39
f 101/249/40 102/250/40 103/251/40 104/252/40
f 91/253/41 90/254/41 94/255/41 93/256/41
f 95/257/42 89/258/42 92/259/42 96/260/42
f 102/261/43 101/262/43 92/263/43 91/264/43
f 103/265/44 102/266/44 91/267/44 93/268/44
f 104/269/45 103/270/45 93/271/45 96/272/45
f 101/273/46 104/274/46 96/275/46 92/276/46
f 98/277/47 97/278/47 94/279/47 90/280/47
f 99/281/48 98/282/48 90/283/48 89/284/48
f 100/285/49 99/286/49 89/287/49 95/288/49
f 97/278/50 100/289/50 95/290/50 94/279/50
o mount
v -0.054688 0.062500 0.054688
v -0.054688 0.062500 -0.054687
v -0.046875 0.054688 -0.046875
v -0.046875 0.054687 0.046875
v 0.046875 0.054688 -0.046875
v 0.054688 0.062500 -0.054687
v 0.054688 0.062500 0.054688
v 0.046875 0.054687 0.046875
v 0.054688 0.093750 -0.054687
v -0.054688 0.093750 -0.054687
v -0.054688 0.093750 0.054688
v 0.054688 0.093750 0.054688
v -0.031250 0.058594 0.031250
v -0.031250 0.058594 -0.031250
v 0.031250 0.058594 -0.031250
v 0.031250 0.058594 0.031250
vt 0.375000 0.750000
vt 0.375000 0.875000
vt 0.312500 0.875000
vt 0.312500 0.750000
vt 0.500000 0.750000
vt 0.500000 0.812500
vt 0.375000 0.812500
vt 0.375000 0.750000
vt 0.125000 0.750000
vt 0.125000 0.875000
vt 0.000000 0.875000
vt 0.000000 0.750000
vt 0.375000 0.125000
vt 0.375000 0.250000
vt 0.250000 0.250000
vt 0.250000 0.125000
vt 0.500000 0.812500
vt 0.500000 0.875000
vt 0.375000 0.875000
vt 0.375000 0.812500
vt 0.312500 0.750000
vt 0.312500 0.875000
vt 0.250000 0.875000
vt 0.250000 0.750000
vt 0.437500 0.968750
vt 0.437500 0.906250
vt 0.500000 0.875000
vt 0.500000 1.000000
vt 0.312500 0.906250
vt 0.312500 0.968750
vt 0.250000 1.000000
vt 0.250000 0.875000
vt 0.437500 0.906250
vt 0.437500 0.968750
vt 0.375000 1.000000
vt 0.375000 0.875000
vt 0.312500 0.906250
vt 0.312500 0.968750
vt 0.375000 1.000000
vt 0.375000 0.875000
vt 0.250000 1.000000
vt 0.125000 1.000000
vt 0.125000 0.937500
vt 0.250000 0.937500
vt 0.125000 1.000000
vt 0.000000 1.000000
vt 0.000000 0.937500
vt 0.125000 0.937500
vt 0.125000 0.937500
vt 0.000000 0.937500
vt 0.000000 0.875000
vt 0.125000 0.875000
vt 0.250000 0.937500
vt 0.250000 0.875000
vn -0.7071 -0.7071 -0.0000
vn 0.7071 -0.7071 -0.0000
vn 0.0000 1.0000 0.0000
vn 0.0000 -1.0000 0.0000
vn 0.0000 -0.7071 -0.7071
vn 0.0000 -0.7071 0.7071
vn 0.2425 -0.9701 0.0000
vn 0.0000 -0.9701 0.2425
vn -0.2425 -0.9701 0.0000
vn 0.0000 -0.9701 -0.2425
vn 0.0000 0.0000 -1.0000
vn -1.0000 0.0000 0.0000
vn 0.0000 0.0000 1.0000
vn 1.0000 0.0000 0.0000
usemtl m_7dae2e97-8efe-62ed-d490-12ef4b1ebf17
s 1
f 105/291/51 106/292/51 107/293/51 108/294/51
f 109/295/52 110/296/52 111/297/52 112/298/52
f 113/299/53 114/300/53 115/301/53 116/302/53
f 117/303/54 118/304/54 119/305/54 120/306/54
f 107/307/55 106/308/55 110/309/55 109/310/55
f 111/311/56 105/312/56 108/313/56 112/314/56
f 118/315/57 117/316/57 108/317/57 107/318/57
f 119/319/58 118/320/58 107/321/58 109/322/58
f 120/323/59 119/324/59 109/325/59 112/326/59
f 117/327/60 120/328/60 112/329/60 108/330/60
f 114/331/61 113/332/61 110/333/61 106/334/61
f 115/335/62 114/336/62 106/337/62 105/338/62
f 116/339/63 115/340/63 105/341/63 111/342/63
f 113/343/64 116/339/64 111/342/64 110/344/64
o bolt
v 0.000000 0.068359 0.062500
v 0.009625 0.074219 0.062500
v 0.000000 0.078125 0.062500
v 0.009625 0.082031 0.062500
v 0.000000 0.087891 0.062500
v -0.009625 0.082031 0.062500
v -0.009625 0.074219 0.062500
v 0.009625 0.074219 0.031250
v 0.000000 0.068359 0.031250
v 0.000000 0.078125 0.031250
v 0.009625 0.082031 0.031250
v 0.000000 0.087891 0.031250
v -0.009625 0.082031 0.031250
v -0.009625 0.074219 0.031250
v 0.000000 0.060547 0.070312
v 0.015345 0.070312 0.070312
v 0.000000 0.078125 0.070312
v 0.015345 0.070312 0.062500
v 0.000000 0.060547 0.062500
v 0.000000 0.078125 0.062500
v 0.015345 0.085938 0.070313
v 0.015345 0.085938 0.062500
v 0.000000 0.095703 0.070313
v 0.000000 0.095703 0.062500
v -0.015345 0.085938 0.070313
v -0.015345 0.085938 0.062500
v -0.015345 0.070312 0.070312
v -0.015345 0.070312 0.062500
vt 0.812500 0.562500
vt 0.812500 0.625000
vt 0.750000 0.625000
vt 0.812500 0.562500
vt 0.812500 0.625000
vt 0.812500 0.562500
vt 0.812500 0.625000
vt 0.812500 0.562500
vt 0.812500 0.625000
vt 0.812500 0.562500
vt 0.812500 0.625000
vt 0.812500 0.562500
vt 0.812500 0.625000
vt 0.812500 0.562500
vt 0.812500 0.625000
vt 0.750000 0.625000
vt 0.812500 0.562500
vt 0.812500 0.625000
vt 0.812500 0.562500
vt 0.812500 0.625000
vt 0.812500 0.562500
vt 0.812500 0.625000
vt 0.812500 0.562500
vt 0.812500 0.625000
vt 0.812500 0.562500
vt 0.812500 0.625000
vt 0.750000 0.625000
vt 0.750000 0.562500
vt 0.750000 0.625000
vt 0.750000 0.562500
vt 0.750000 0.625000
vt 0.750000 0.562500
vt 0.750000 0.625000
vt 0.750000 0.562500
vt 0.750000 0.625000
vt 0.750000 0.562500
vt 0.750000 0.562500
vt 0.812500 0.562500
vt 0.812500 0.625000
vt 0.750000 0.625000
vt 0.812500 0.562500
vt 0.750000 0.625000
vt 0.750000 0.562500
vt 0.812500 0.625000
vt 0.750000 0.625000
vt 0.812500 0.562500
vt 0.812500 0.625000
vt 0.812500 0.562500
vt 0.750000 0.625000
vt 0.750000 0.562500
vt 0.812500 0.625000
vt 0.812500 0.562500
vt 0.812500 0.625000
vt 0.812500 0.562500
vt 0.750000 0.625000
vt 0.750000 0.562500
vt 0.812500 0.625000
vt 0.812500 0.562500
vt 0.812500 0.625000
vt 0.812500 0.562500
vt 0.750000 0.625000
vt 0.750000 0.562500
vt 0.812500 0.625000
vt 0.812500 0.562500
vt 0.812500 0.625000
vt 0.812500 0.562500
vt 0.750000 0.625000
vt 0.750000 0.562500
vt 0.812500 0.625000
vt 0.812500 0.562500
vt 0.812500 0.625000
vt 0.812500 0.562500
vt 0.750000 0.625000
vt 0.750000 0.562500
vt 0.812500 0.625000
vn 0.0000 0.0000 1.0000
vn 0.0000 0.0000 -1.0000
vn 1.0000 0.0000 0.0000
vn 0.5200 0.8542 0.0000
vn -0.5200 0.8542 0.0000
vn -1.0000 0.0000 0.0000
vn -0.5200 -0.8542 0.0000
vn 0.5200 -0.8542 0.0000
vn 0.5369 -0.8436 0.0000
vn 0.5369 0.8436 0.0000
vn -0.5369 0.8436 0.0000
vn -0.5369 -0.8436 0.0000
usemtl m_7dae2e97-8efe-62ed-d490-12ef4b1ebf17
s 1
f 121/345/65 122/346/65 123/347/65
f 122/348/65 124/349/65 123/347/65
f 124/350/65 125/351/65 123/347/65
f 125/352/65 126/353/65 123/347/65
f 126/354/65 127/355/65 123/347/65
f 127/356/65 121/357/65 123/347/65
f 128/358/66 129/359/66 130/360/66
f 131/361/66 128/362/66 130/360/66
f 132/363/66 131/364/66 130/360/66
f 133/365/66 132/366/66 130/360/66
f 134/367/66 133/368/66 130/360/66
f 129/369/66 134/370/66 130/360/66
f 124/350/67 122/346/67 128/371/67 131/372/67
f 131/361/68 132/366/68 125/373/68 124/374/68
f 126/354/69 125/351/69 132/375/69 133/376/69
f 133/365/70 134/370/70 127/377/70 126/378/70
f 121/345/71 127/355/71 134/379/71 129/380/71
f 121/345/72 129/359/72 128/371/72 122/381/72
f 135/382/65 136/383/65 137/384/65
f 138/385/73 136/383/73 135/386/73 139/387/73
f 138/385/66 139/388/66 140/389/66
f 136/390/65 141/391/65 137/384/65
f 142/392/67 141/391/67 136/393/67 138/394/67
f 142/392/66 138/395/66 140/389/66
f 141/396/65 143/397/65 137/384/65
f 144/398/74 143/397/74 141/399/74 142/400/74
f 144/398/66 142/401/66 140/389/66
f 143/402/65 145/403/65 137/384/65
f 146/404/75 145/403/75 143/405/75 144/406/75
f 146/404/66 144/407/66 140/389/66
f 145/408/65 147/409/65 137/384/65
f 148/410/70 147/409/70 145/411/70 146/412/70
f 148/410/66 146/413/66 140/389/66
f 147/414/65 135/415/65 137/384/65
f 139/416/76 135/415/76 147/417/76 148/418/76
f 139/416/66 148/419/66 140/389/66
