# Blender v2.79 (sub 0) OBJ File: ''
# www.blender.org
mtllib hitchnb.mtl
o mount
v -0.062500 0.062500 0.062500
v -0.062500 0.062500 -0.062500
v -0.062500 0.000000 -0.062500
v -0.062500 -0.000000 0.062500
v 0.062500 0.000000 -0.062500
v 0.062500 0.062500 -0.062500
v 0.062500 0.062500 0.062500
v 0.062500 -0.000000 0.062500
v -0.031250 0.007812 0.031250
v -0.031250 0.007813 -0.031250
v 0.031250 0.007813 -0.031250
v 0.031250 0.007812 0.031250
vt 0.500000 0.500000
vt 0.500000 0.750000
vt 0.375000 0.750000
vt 0.375000 0.500000
vt 0.500000 0.875000
vt 0.500000 1.000000
vt 0.250000 1.000000
vt 0.250000 0.875000
vt 0.250000 0.750000
vt 0.250000 1.000000
vt 0.000000 1.000000
vt 0.000000 0.750000
vt 0.625000 0.125000
vt 0.625000 0.375000
vt 0.375000 0.375000
vt 0.375000 0.125000
vt 0.500000 0.750000
vt 0.500000 0.875000
vt 0.250000 0.875000
vt 0.250000 0.750000
vt 0.375000 0.500000
vt 0.375000 0.750000
vt 0.250000 0.750000
vt 0.250000 0.500000
vt 0.187500 0.687500
vt 0.187500 0.562500
vt 0.250000 0.500000
vt 0.250000 0.750000
vt 0.062500 0.562500
vt 0.062500 0.687500
vt 0.000000 0.750000
vt 0.000000 0.500000
vt 0.187500 0.562500
vt 0.187500 0.687500
vt 0.125000 0.750000
vt 0.125000 0.500000
vt 0.062500 0.562500
vt 0.062500 0.687500
vt 0.125000 0.750000
vt 0.125000 0.500000
vn -1.0000 0.0000 0.0000
vn 1.0000 0.0000 0.0000
vn 0.0000 1.0000 0.0000
vn 0.0000 -1.0000 -0.0000
vn 0.0000 0.0000 -1.0000
vn 0.0000 0.0000 1.0000
vn 0.2425 -0.9701 -0.0000
vn 0.0000 -0.9701 0.2425
vn -0.2425 -0.9701 -0.0000
vn 0.0000 -0.9701 -0.2425
usemtl m_7dae2e97-8efe-62ed-d490-12ef4b1ebf17
s 1
f 1/1/1 2/2/1 3/3/1 4/4/1
f 5/5/2 6/6/2 7/7/2 8/8/2
f 6/9/3 2/10/3 1/11/3 7/12/3
f 9/13/4 10/14/4 11/15/4 12/16/4
f 3/17/5 2/18/5 6/19/5 5/20/5
f 7/21/6 1/22/6 4/23/6 8/24/6
f 10/25/7 9/26/7 4/27/7 3/28/7
f 11/29/8 10/30/8 3/31/8 5/32/8
f 12/33/9 11/34/9 5/35/9 8/36/9
f 9/37/10 12/38/10 8/39/10 4/40/10
