# Blender v2.79 (sub 0) OBJ File: ''
# www.blender.org
mtllib hitchconnector.mtl
o mount
v -0.054688 0.062500 0.054688
v -0.054688 0.062500 -0.054687
v -0.046875 0.054688 -0.046875
v -0.046875 0.054687 0.046875
v 0.046875 0.054688 -0.046875
v 0.054688 0.062500 -0.054687
v 0.054688 0.062500 0.054688
v 0.046875 0.054687 0.046875
v 0.054688 0.093750 -0.054687
v -0.054688 0.093750 -0.054687
v -0.054688 0.093750 0.054688
v 0.054688 0.093750 0.054688
v -0.031250 0.058594 0.031250
v -0.031250 0.058594 -0.031250
v 0.031250 0.058594 -0.031250
v 0.031250 0.058594 0.031250
vt 0.500000 0.500000
vt 0.500000 0.750000
vt 0.375000 0.750000
vt 0.375000 0.500000
vt 0.500000 0.875000
vt 0.500000 1.000000
vt 0.250000 1.000000
vt 0.250000 0.875000
vt 0.250000 0.750000
vt 0.250000 1.000000
vt 0.000000 1.000000
vt 0.000000 0.750000
vt 0.625000 0.125000
vt 0.625000 0.375000
vt 0.375000 0.375000
vt 0.375000 0.125000
vt 0.500000 0.750000
vt 0.500000 0.875000
vt 0.250000 0.875000
vt 0.250000 0.750000
vt 0.375000 0.500000
vt 0.375000 0.750000
vt 0.250000 0.750000
vt 0.250000 0.500000
vt 0.187500 0.687500
vt 0.187500 0.562500
vt 0.250000 0.500000
vt 0.250000 0.750000
vt 0.062500 0.562500
vt 0.062500 0.687500
vt 0.000000 0.750000
vt 0.000000 0.500000
vt 0.187500 0.562500
vt 0.187500 0.687500
vt 0.125000 0.750000
vt 0.125000 0.500000
vt 0.062500 0.562500
vt 0.062500 0.687500
vt 0.125000 0.750000
vt 0.125000 0.500000
vt 0.234375 0.937500
vt 0.125000 0.937500
vt 0.125000 0.875000
vt 0.234375 0.875000
vt 0.171875 1.000000
vt 0.062500 1.000000
vt 0.062500 0.937500
vt 0.171875 0.937500
vt 0.109375 0.937500
vt 0.000000 0.937500
vt 0.000000 0.875000
vt 0.109375 0.875000
vt 0.171875 0.875000
vt 0.062500 0.875000
vt 0.062500 0.812500
vt 0.171875 0.812500
vn -0.7071 -0.7071 -0.0000
vn 0.7071 -0.7071 -0.0000
vn 0.0000 1.0000 0.0000
vn 0.0000 -1.0000 0.0000
vn 0.0000 -0.7071 -0.7071
vn 0.0000 -0.7071 0.7071
vn 0.2425 -0.9701 0.0000
vn 0.0000 -0.9701 0.2425
vn -0.2425 -0.9701 0.0000
vn 0.0000 -0.9701 -0.2425
vn 0.0000 0.0000 -1.0000
vn -1.0000 0.0000 0.0000
vn 0.0000 0.0000 1.0000
vn 1.0000 0.0000 0.0000
usemtl m_7dae2e97-8efe-62ed-d490-12ef4b1ebf17
s 1
f 1/1/1 2/2/1 3/3/1 4/4/1
f 5/5/2 6/6/2 7/7/2 8/8/2
f 9/9/3 10/10/3 11/11/3 12/12/3
f 13/13/4 14/14/4 15/15/4 16/16/4
f 3/17/5 2/18/5 6/19/5 5/20/5
f 7/21/6 1/22/6 4/23/6 8/24/6
f 14/25/7 13/26/7 4/27/7 3/28/7
f 15/29/8 14/30/8 3/31/8 5/32/8
f 16/33/9 15/34/9 5/35/9 8/36/9
f 13/37/10 16/38/10 8/39/10 4/40/10
f 10/41/11 9/42/11 6/43/11 2/44/11
f 11/45/12 10/46/12 2/47/12 1/48/12
f 12/49/13 11/50/13 1/51/13 7/52/13
f 9/53/14 12/54/14 7/55/14 6/56/14
o connector
v 0.046875 0.054688 -0.046875
v 0.046875 0.054687 0.046875
v 0.046875 0.046875 0.046875
v 0.046875 0.046875 -0.046875
v -0.046875 0.046875 0.046875
v -0.046875 0.054687 0.046875
v -0.046875 0.054688 -0.046875
v -0.046875 0.046875 -0.046875
v 0.031250 0.039062 -0.031250
v 0.031250 0.039062 0.031250
v -0.031250 0.039062 0.031250
v -0.031250 0.039062 -0.031250
v 0.039062 0.031250 0.039062
v 0.039062 0.031250 -0.039062
v -0.039062 0.031250 0.039062
v -0.039062 0.031250 -0.039062
vt 0.093750 0.875000
vt 0.000000 0.875000
vt 0.000000 0.867188
vt 0.093750 0.867188
vt 0.093750 0.867188
vt 0.093750 0.875000
vt 0.000000 0.875000
vt 0.000000 0.867188
vt 0.000000 0.781250
vt 0.093750 0.781250
vt 0.875000 0.687500
vt 0.875000 0.875000
vt 0.687500 0.875000
vt 0.687500 0.687500
vt 0.093750 0.867188
vt 0.093750 0.875000
vt 0.000000 0.875000
vt 0.000000 0.867188
vt 0.093750 0.875000
vt 0.000000 0.875000
vt 0.000000 0.867188
vt 0.093750 0.867188
vt 0.070312 0.920031
vt 0.148438 0.920031
vt 0.156250 0.937500
vt 0.062500 0.937500
vt 0.007812 0.982531
vt 0.085938 0.982531
vt 0.093750 1.000000
vt 0.000000 1.000000
vt 0.007812 0.920031
vt 0.085938 0.920031
vt 0.093750 0.937500
vt 0.000000 0.937500
vt 0.007812 0.920031
vt 0.085938 0.920031
vt 0.093750 0.937500
vt 0.000000 0.937500
vt 0.070312 0.875000
vt 0.007812 0.875000
vt 0.000000 0.863950
vt 0.078125 0.863950
vt 0.070312 0.875000
vt 0.007812 0.875000
vt 0.000000 0.863950
vt 0.078125 0.863950
vt 0.070312 0.875000
vt 0.007812 0.875000
vt 0.000000 0.863950
vt 0.078125 0.863950
vt 0.070312 0.875000
vt 0.007812 0.875000
vt 0.000000 0.863950
vt 0.078125 0.863950
vn 1.0000 0.0000 0.0000
vn -1.0000 0.0000 0.0000
vn 0.0000 1.0000 0.0000
vn 0.0000 -1.0000 0.0000
vn 0.0000 0.0000 1.0000
vn 0.0000 0.0000 -1.0000
vn 0.8944 -0.4472 -0.0000
vn 0.0000 -0.4472 0.8944
vn -0.8944 -0.4472 -0.0000
vn 0.0000 -0.4472 -0.8944
vn -0.7071 -0.7071 0.0000
vn 0.0000 -0.7071 -0.7071
vn 0.7071 -0.7071 0.0000
vn 0.0000 -0.7071 0.7071
usemtl m_7dae2e97-8efe-62ed-d490-12ef4b1ebf17
s 1
f 17/57/15 18/58/15 19/59/15 20/60/15
f 21/61/16 22/62/16 23/63/16 24/64/16
f 22/65/17 18/66/17 17/57/17 23/63/17
f 25/67/18 26/68/18 27/69/18 28/70/18
f 19/71/19 18/72/19 22/73/19 21/74/19
f 23/75/20 17/76/20 20/77/20 24/78/20
f 29/79/21 30/80/21 20/81/21 19/82/21
f 31/83/22 29/84/22 19/85/22 21/86/22
f 32/87/23 31/88/23 21/89/23 24/90/23
f 30/91/24 32/92/24 24/93/24 20/94/24
f 26/95/25 25/96/25 30/97/25 29/98/25
f 27/99/26 26/100/26 29/101/26 31/102/26
f 28/103/27 27/104/27 31/105/27 32/106/27
f 25/107/28 28/108/28 32/109/28 30/110/28
o bolt
v 0.050111 0.015625 0.000000
v 0.039062 0.015625 0.011049
v 0.039062 -0.015625 0.011049
v 0.050111 -0.015625 -0.000000
v 0.028014 -0.015625 -0.000000
v 0.028014 0.015625 0.000000
v 0.039062 0.015625 -0.011049
v 0.039062 -0.015625 -0.011049
v 0.046875 0.039062 -0.007812
v 0.046875 0.039062 0.007813
v 0.046875 0.007812 0.007812
v 0.046875 0.007812 -0.007812
v 0.031250 0.007812 0.007812
v 0.031250 0.039062 0.007813
v 0.031250 0.039062 -0.007812
v 0.031250 0.007812 -0.007812
v 0.050111 -0.031250 -0.000000
v 0.039062 -0.031250 0.011049
v 0.039062 -0.062500 0.011049
v 0.050111 -0.062500 -0.000000
v 0.028014 -0.062500 -0.000000
v 0.028014 -0.031250 -0.000000
v 0.039062 -0.031250 -0.011049
v 0.039062 -0.062500 -0.011049
v 0.046875 -0.007812 -0.007812
v 0.046875 -0.007812 0.007812
v 0.046875 -0.039062 0.007812
v 0.046875 -0.039062 -0.007813
v 0.031250 -0.039062 0.007812
v 0.031250 -0.007812 0.007812
v 0.031250 -0.007812 -0.007812
v 0.031250 -0.039062 -0.007813
vt 0.562500 1.000000
vt 0.500000 1.000000
vt 0.500000 0.875000
vt 0.562500 0.875000
vt 0.562500 0.875000
vt 0.562500 1.000000
vt 0.500000 1.000000
vt 0.500000 0.875000
vt 0.500000 0.937500
vt 0.562500 0.937500
vt 0.562500 0.937500
vt 0.500000 0.937500
vt 0.562500 0.875000
vt 0.562500 1.000000
vt 0.500000 1.000000
vt 0.500000 0.875000
vt 0.562500 1.000000
vt 0.500000 1.000000
vt 0.500000 0.875000
vt 0.562500 0.875000
vt 0.562500 1.000000
vt 0.500000 1.000000
vt 0.500000 0.875000
vt 0.562500 0.875000
vt 0.562500 0.875000
vt 0.562500 1.000000
vt 0.500000 1.000000
vt 0.500000 0.875000
vt 0.500000 0.937500
vt 0.562500 0.937500
vt 0.562500 0.937500
vt 0.500000 0.937500
vt 0.562500 0.875000
vt 0.562500 1.000000
vt 0.500000 1.000000
vt 0.500000 0.875000
vt 0.562500 1.000000
vt 0.500000 1.000000
vt 0.500000 0.875000
vt 0.562500 0.875000
vt 0.562500 1.000000
vt 0.500000 1.000000
vt 0.500000 0.875000
vt 0.562500 0.875000
vt 0.562500 0.875000
vt 0.562500 1.000000
vt 0.500000 1.000000
vt 0.500000 0.875000
vt 0.500000 0.937500
vt 0.562500 0.937500
vt 0.562500 0.937500
vt 0.500000 0.937500
vt 0.562500 0.875000
vt 0.562500 1.000000
vt 0.500000 1.000000
vt 0.500000 0.875000
vt 0.562500 1.000000
vt 0.500000 1.000000
vt 0.500000 0.875000
vt 0.562500 0.875000
vt 0.562500 1.000000
vt 0.500000 1.000000
vt 0.500000 0.875000
vt 0.562500 0.875000
vt 0.562500 0.875000
vt 0.562500 1.000000
vt 0.500000 1.000000
vt 0.500000 0.875000
vt 0.500000 0.937500
vt 0.562500 0.937500
vt 0.562500 0.937500
vt 0.500000 0.937500
vt 0.562500 0.875000
vt 0.562500 1.000000
vt 0.500000 1.000000
vt 0.500000 0.875000
vt 0.562500 1.000000
vt 0.500000 1.000000
vt 0.500000 0.875000
vt 0.562500 0.875000
vn 0.7071 0.0000 0.7071
vn -0.7071 0.0000 -0.7071
vn 0.0000 1.0000 0.0000
vn 0.0000 -1.0000 0.0000
vn -0.7071 -0.0000 0.7071
vn 0.7071 0.0000 -0.7071
vn 1.0000 0.0000 0.0000
vn -1.0000 -0.0000 0.0000
vn 0.0000 -0.0000 1.0000
vn 0.0000 0.0000 -1.0000
usemtl m_7dae2e97-8efe-62ed-d490-12ef4b1ebf17
s 1
f 33/111/29 34/112/29 35/113/29 36/114/29
f 37/115/30 38/116/30 39/117/30 40/118/30
f 38/119/31 34/120/31 33/111/31 39/117/31
f 36/114/32 35/121/32 37/122/32 40/118/32
f 35/123/33 34/124/33 38/125/33 37/126/33
f 39/127/34 33/128/34 36/129/34 40/130/34
f 41/131/35 42/132/35 43/133/35 44/134/35
f 45/135/36 46/136/36 47/137/36 48/138/36
f 46/139/31 42/140/31 41/131/31 47/137/31
f 44/134/32 43/141/32 45/142/32 48/138/32
f 43/143/37 42/144/37 46/145/37 45/146/37
f 47/147/38 41/148/38 44/149/38 48/150/38
f 49/151/29 50/152/29 51/153/29 52/154/29
f 53/155/30 54/156/30 55/157/30 56/158/30
f 54/159/31 50/160/31 49/151/31 55/157/31
f 52/154/32 51/161/32 53/162/32 56/158/32
f 51/163/33 50/164/33 54/165/33 53/166/33
f 55/167/34 49/168/34 52/169/34 56/170/34
f 57/171/35 58/172/35 59/173/35 60/174/35
f 61/175/36 62/176/36 63/177/36 64/178/36
f 62/179/31 58/180/31 57/171/31 63/177/31
f 60/174/32 59/181/32 61/182/32 64/178/32
f 59/183/37 58/184/37 62/185/37 61/186/37
f 63/187/38 57/188/38 60/189/38 64/190/38
o #connector_alt
v 0.054688 0.062500 0.039063
v 0.054688 0.062500 0.210938
v 0.046875 0.054687 0.203125
v 0.046875 0.054687 0.046875
v -0.046875 0.054687 0.203125
v -0.054688 0.062500 0.210938
v -0.054688 0.062500 0.039063
v -0.046875 0.054687 0.046875
v -0.054681 0.093750 0.210938
v 0.000000 0.093750 0.210938
v 0.000000 0.093750 0.039063
v -0.054681 0.093750 0.039063
v -0.007812 0.058594 0.062500
v 0.000000 0.058594 0.062500
v 0.000000 0.058594 0.187500
v -0.007812 0.058594 0.187500
v 0.000000 0.054687 0.203125
v 0.000000 0.062500 0.210938
v 0.000000 0.062500 0.039063
v 0.000000 0.054687 0.046875
v 0.015625 0.054687 0.195312
v 0.015625 0.054687 0.054688
v -0.015625 0.054687 0.195312
v 0.000000 0.054687 0.195312
v -0.015625 0.054687 0.054688
v 0.000000 0.054687 0.054688
v 0.007812 0.058594 0.187500
v 0.007812 0.058594 0.062500
v 0.054681 0.093750 0.039063
v 0.054681 0.093750 0.210938
vt 0.218750 1.000000
vt 0.000000 1.000000
vt 0.000000 0.992188
vt 0.218750 0.992188
vt 0.218750 0.992188
vt 0.218750 1.000000
vt 0.000000 1.000000
vt 0.000000 0.992188
vt 0.062500 0.781250
vt 0.109375 0.781250
vt 0.109375 1.000000
vt 0.062500 1.000000
vt 1.000000 0.187500
vt 1.000000 0.312500
vt 0.500000 0.312500
vt 0.500000 0.187500
vt 0.062500 0.992188
vt 0.109375 0.992188
vt 0.109375 1.000000
vt 0.062500 1.000000
vt 0.156250 1.000000
vt 0.109375 1.000000
vt 0.109375 0.992188
vt 0.156250 0.992188
vt 0.062500 0.929688
vt 0.062500 0.726562
vt 0.085938 0.718750
vt 0.085938 0.937500
vt 0.085938 0.929688
vt 0.109375 0.929688
vt 0.109375 0.937500
vt 0.062500 0.937500
vt 0.148438 0.726562
vt 0.148438 0.929688
vt 0.125000 0.937500
vt 0.125000 0.718750
vt 0.062500 0.929688
vt 0.109375 0.929688
vt 0.109375 0.937500
vt 0.085938 0.937500
vt 1.000000 0.125000
vt 0.500000 0.125000
vt 0.500000 0.000000
vt 1.000000 0.000000
vt 0.679688 0.250000
vt 0.523438 0.250000
vt 0.523438 0.187500
vt 0.710938 0.187500
vt 1.000000 0.250000
vt 0.500000 0.250000
vt 0.500000 0.125000
vt 1.000000 0.125000
vt 0.500000 0.125000
vt 0.687500 0.125000
vt 0.687500 0.187500
vt 0.531250 0.187500
vt 0.500000 0.187500
vt 1.000000 0.187500
vt 0.679688 0.187500
vt 0.523438 0.187500
vt 0.523438 0.125000
vt 0.710938 0.125000
vt 0.132812 0.937500
vt 0.156250 0.929688
vt 0.062500 0.992188
vt 0.062500 1.000000
vt 0.156250 1.000000
vt 0.156250 0.781250
vt 0.156250 1.000000
vt 0.156250 0.992188
vt 0.156250 0.937500
vt 0.132812 0.929688
vt 0.500000 0.187500
vt 0.687500 0.187500
vt 0.687500 0.250000
vt 0.531250 0.250000
vt 0.179688 1.000000
vt 0.125000 1.000000
vt 0.125000 0.937500
vt 0.179688 0.937500
vt 0.117188 0.937500
vt 0.062500 0.937500
vt 0.062500 0.875000
vt 0.117188 0.875000
vt 0.203125 1.000000
vt 0.000000 1.000000
vt 0.000000 0.937500
vt 0.203125 0.937500
vt 0.117188 0.937500
vt 0.062500 0.937500
vt 0.062500 0.875000
vt 0.117188 0.875000
vt 0.054688 1.000000
vt 0.000000 1.000000
vt 0.000000 0.937500
vt 0.054688 0.937500
vt 0.203125 1.000000
vt 0.000000 1.000000
vt 0.000000 0.937500
vt 0.203125 0.937500
vn 0.7071 -0.7071 -0.0000
vn -0.7071 -0.7071 -0.0000
vn 0.0000 1.0000 0.0000
vn 0.0000 -1.0000 -0.0000
vn 0.0000 -0.7071 0.7071
vn 0.0000 -0.7071 -0.7071
vn -0.4472 -0.8944 -0.0000
vn 0.0000 -0.8944 -0.4472
vn 0.4472 -0.8944 -0.0000
vn 0.0000 -0.8944 0.4472
vn 0.0000 0.0000 -1.0000
vn 0.0000 0.0000 1.0000
vn 1.0000 0.0002 0.0000
vn -1.0000 0.0002 0.0000
usemtl m_7dae2e97-8efe-62ed-d490-12ef4b1ebf17
s 1
f 65/191/39 66/192/39 67/193/39 68/194/39
f 69/195/40 70/196/40 71/197/40 72/198/40
f 73/199/41 74/200/41 75/201/41 76/202/41
f 77/203/42 78/204/42 79/205/42 80/206/42
f 69/207/43 81/208/43 82/209/43 70/210/43
f 71/211/44 83/212/44 84/213/44 72/214/44
f 85/215/42 86/216/42 68/217/42 67/218/42
f 87/219/42 88/220/42 81/221/42 69/222/42
f 89/223/42 87/224/42 69/225/42 72/226/42
f 72/227/42 84/228/42 90/229/42 89/230/42
f 91/231/45 92/232/45 86/233/45 85/234/45
f 80/235/46 79/236/46 88/237/46 87/238/46
f 77/239/47 80/240/47 87/241/47 89/242/47
f 89/243/48 90/244/48 78/245/48 77/246/48
f 91/247/42 79/205/42 78/204/42 92/248/42
f 92/249/48 78/250/48 90/251/48 86/252/48
f 86/253/42 90/229/42 84/228/42 68/254/42
f 68/255/44 84/213/44 83/212/44 65/256/44
f 93/257/41 75/201/41 74/200/41 94/258/41
f 66/259/43 82/209/43 81/208/43 67/260/43
f 67/261/42 81/221/42 88/220/42 85/262/42
f 85/263/46 88/264/46 79/265/46 91/266/46
f 75/267/49 93/268/49 65/269/49 83/270/49
f 94/271/50 74/272/50 82/273/50 66/274/50
f 93/275/51 94/276/51 66/277/51 65/278/51
f 74/279/50 73/280/50 70/281/50 82/282/50
f 76/283/49 75/284/49 83/285/49 71/286/49
f 73/287/52 76/288/52 71/289/52 70/290/52
o #boltalt
v 0.007812 0.061965 0.179366
v 0.007812 0.056962 0.193801
v 0.007812 0.049745 0.190812
v 0.007812 0.055724 0.176376
v -0.007812 0.049745 0.190812
v -0.007812 0.056962 0.193801
v -0.007812 0.061965 0.179366
v -0.007812 0.055724 0.176376
vt 1.000000 0.187500
vt 0.937500 0.187500
vt 0.937500 0.125000
vt 1.000000 0.125000
vt 0.937500 0.000000
vt 0.937500 0.062500
vt 0.875000 0.062500
vt 0.875000 0.000000
vt 1.000000 0.062500
vt 1.000000 0.125000
vt 0.937500 0.125000
vt 1.000000 0.000000
vt 1.000000 0.062500
vt 0.937500 0.062500
vt 0.937500 0.000000
vt 1.000000 0.000000
vt 1.000000 0.062500
vt 0.937500 0.062500
vt 0.937500 0.000000
vt 1.000000 0.000000
vn 1.0000 0.0000 0.0000
vn -1.0000 0.0000 0.0000
vn 0.0000 0.9449 0.3275
vn 0.0000 -0.9239 -0.3827
vn 0.0000 -0.3827 0.9239
vn 0.0000 0.4320 -0.9019
usemtl m_7dae2e97-8efe-62ed-d490-12ef4b1ebf17
s 1
f 95/291/53 96/292/53 97/293/53 98/294/53
f 99/295/54 100/296/54 101/297/54 102/298/54
f 100/296/55 96/299/55 95/300/55 101/301/55
f 98/302/56 97/303/56 99/304/56 102/305/56
f 97/306/57 96/299/57 100/296/57 99/295/57
f 101/307/58 95/308/58 98/309/58 102/310/58
