# Blender v2.79 (sub 0) OBJ File: ''
# www.blender.org
mtllib hitchnb.mtl
o mount
v -0.054688 0.062500 0.054688
v -0.054688 0.062500 -0.054687
v -0.046875 0.054688 -0.046875
v -0.046875 0.054687 0.046875
v 0.046875 0.054688 -0.046875
v 0.054688 0.062500 -0.054687
v 0.054688 0.062500 0.054688
v 0.046875 0.054687 0.046875
v 0.054688 0.093750 -0.054687
v -0.054688 0.093750 -0.054687
v -0.054688 0.093750 0.054688
v 0.054688 0.093750 0.054688
v -0.031250 0.058594 0.031250
v -0.031250 0.058594 -0.031250
v 0.031250 0.058594 -0.031250
v 0.031250 0.058594 0.031250
vt 0.500000 0.500000
vt 0.500000 0.750000
vt 0.375000 0.750000
vt 0.375000 0.500000
vt 0.500000 0.875000
vt 0.500000 1.000000
vt 0.250000 1.000000
vt 0.250000 0.875000
vt 0.250000 0.750000
vt 0.250000 1.000000
vt 0.000000 1.000000
vt 0.000000 0.750000
vt 0.625000 0.125000
vt 0.625000 0.375000
vt 0.375000 0.375000
vt 0.375000 0.125000
vt 0.500000 0.750000
vt 0.500000 0.875000
vt 0.250000 0.875000
vt 0.250000 0.750000
vt 0.375000 0.500000
vt 0.375000 0.750000
vt 0.250000 0.750000
vt 0.250000 0.500000
vt 0.187500 0.687500
vt 0.187500 0.562500
vt 0.250000 0.500000
vt 0.250000 0.750000
vt 0.062500 0.562500
vt 0.062500 0.687500
vt 0.000000 0.750000
vt 0.000000 0.500000
vt 0.187500 0.562500
vt 0.187500 0.687500
vt 0.125000 0.750000
vt 0.125000 0.500000
vt 0.062500 0.562500
vt 0.062500 0.687500
vt 0.125000 0.750000
vt 0.125000 0.500000
vt 0.234375 0.937500
vt 0.125000 0.937500
vt 0.125000 0.875000
vt 0.234375 0.875000
vt 0.171875 1.000000
vt 0.062500 1.000000
vt 0.062500 0.937500
vt 0.171875 0.937500
vt 0.109375 0.937500
vt 0.000000 0.937500
vt 0.000000 0.875000
vt 0.109375 0.875000
vt 0.171875 0.875000
vt 0.062500 0.875000
vt 0.062500 0.812500
vt 0.171875 0.812500
vn -0.7071 -0.7071 -0.0000
vn 0.7071 -0.7071 -0.0000
vn 0.0000 1.0000 0.0000
vn 0.0000 -1.0000 0.0000
vn 0.0000 -0.7071 -0.7071
vn 0.0000 -0.7071 0.7071
vn 0.2426 -0.9701 -0.0000
vn 0.0000 -0.9701 0.2425
vn -0.2426 -0.9701 -0.0000
vn 0.0000 -0.9701 -0.2426
vn 0.0000 0.0000 -1.0000
vn -1.0000 0.0000 0.0000
vn 0.0000 0.0000 1.0000
vn 1.0000 0.0000 0.0000
usemtl m_7dae2e97-8efe-62ed-d490-12ef4b1ebf17
s 1
f 1/1/1 2/2/1 3/3/1 4/4/1
f 5/5/2 6/6/2 7/7/2 8/8/2
f 9/9/3 10/10/3 11/11/3 12/12/3
f 13/13/4 14/14/4 15/15/4 16/16/4
f 3/17/5 2/18/5 6/19/5 5/20/5
f 7/21/6 1/22/6 4/23/6 8/24/6
f 14/25/7 13/26/7 4/27/7 3/28/7
f 15/29/8 14/30/8 3/31/8 5/32/8
f 16/33/9 15/34/9 5/35/9 8/36/9
f 13/37/10 16/38/10 8/39/10 4/40/10
f 10/41/11 9/42/11 6/43/11 2/44/11
f 11/45/12 10/46/12 2/47/12 1/48/12
f 12/49/13 11/50/13 1/51/13 7/52/13
f 9/53/14 12/54/14 7/55/14 6/56/14
