# Blender v2.79 (sub 0) OBJ File: ''
# www.blender.org
mtllib hitchnb.mtl
o #mount_alt
v -0.054688 0.062500 0.054688
v -0.054688 0.062500 -0.054687
v -0.046875 0.054688 -0.046875
v -0.046875 0.054687 0.046875
v 0.046875 0.054688 -0.046875
v 0.054688 0.062500 -0.054687
v 0.054688 0.062500 0.054688
v 0.046875 0.054687 0.046875
v 0.054688 0.093750 -0.054687
v -0.054688 0.093750 -0.054687
v -0.054688 0.093750 0.054688
v 0.054688 0.093750 0.054688
v -0.015625 0.058594 0.015625
v -0.015625 0.058594 -0.015625
v 0.015625 0.058594 -0.015625
v 0.015625 0.058594 0.015625
vt 0.375000 0.750000
vt 0.375000 0.875000
vt 0.312500 0.875000
vt 0.312500 0.750000
vt 0.500000 0.812500
vt 0.500000 0.875000
vt 0.375000 0.875000
vt 0.375000 0.812500
vt 0.125000 0.750000
vt 0.125000 0.875000
vt 0.000000 0.875000
vt 0.000000 0.750000
vt 0.375000 0.125000
vt 0.375000 0.250000
vt 0.250000 0.250000
vt 0.250000 0.125000
vt 0.500000 0.750000
vt 0.500000 0.812500
vt 0.375000 0.812500
vt 0.375000 0.750000
vt 0.312500 0.750000
vt 0.312500 0.875000
vt 0.250000 0.875000
vt 0.250000 0.750000
vt 0.437500 0.968750
vt 0.437500 0.906250
vt 0.500000 0.875000
vt 0.500000 1.000000
vt 0.312500 0.906250
vt 0.312500 0.968750
vt 0.250000 1.000000
vt 0.250000 0.875000
vt 0.437500 0.906250
vt 0.437500 0.968750
vt 0.375000 1.000000
vt 0.375000 0.875000
vt 0.312500 0.906250
vt 0.312500 0.968750
vt 0.375000 1.000000
vt 0.375000 0.875000
vt 0.250000 0.937500
vt 0.125000 0.937500
vt 0.125000 0.875000
vt 0.250000 0.875000
vt 0.250000 1.000000
vt 0.125000 1.000000
vt 0.125000 0.937500
vt 0.250000 0.937500
vt 0.125000 1.000000
vt 0.000000 1.000000
vt 0.000000 0.937500
vt 0.125000 0.937500
vt 0.000000 0.937500
vt 0.000000 0.875000
vn -0.7071 -0.7071 -0.0000
vn 0.7071 -0.7071 -0.0000
vn 0.0000 1.0000 0.0000
vn 0.0000 -1.0000 0.0000
vn 0.0000 -0.7071 -0.7071
vn 0.0000 -0.7071 0.7071
vn 0.1240 -0.9923 0.0000
vn 0.0000 -0.9923 0.1240
vn -0.1240 -0.9923 0.0000
vn 0.0000 -0.9923 -0.1240
vn 0.0000 0.0000 -1.0000
vn -1.0000 0.0000 0.0000
vn 0.0000 0.0000 1.0000
vn 1.0000 0.0000 0.0000
usemtl m_7dae2e97-8efe-62ed-d490-12ef4b1ebf17
s 1
f 1/1/1 2/2/1 3/3/1 4/4/1
f 5/5/2 6/6/2 7/7/2 8/8/2
f 9/9/3 10/10/3 11/11/3 12/12/3
f 13/13/4 14/14/4 15/15/4 16/16/4
f 3/17/5 2/18/5 6/19/5 5/20/5
f 7/21/6 1/22/6 4/23/6 8/24/6
f 14/25/7 13/26/7 4/27/7 3/28/7
f 15/29/8 14/30/8 3/31/8 5/32/8
f 16/33/9 15/34/9 5/35/9 8/36/9
f 13/37/10 16/38/10 8/39/10 4/40/10
f 10/41/11 9/42/11 6/43/11 2/44/11
f 11/45/12 10/46/12 2/47/12 1/48/12
f 12/49/13 11/50/13 1/51/13 7/52/13
f 9/42/14 12/53/14 7/54/14 6/43/14
o mount
v -0.054688 0.062500 0.054688
v -0.054688 0.062500 -0.054687
v -0.046875 0.054688 -0.046875
v -0.046875 0.054687 0.046875
v 0.046875 0.054688 -0.046875
v 0.054688 0.062500 -0.054687
v 0.054688 0.062500 0.054688
v 0.046875 0.054687 0.046875
v 0.054688 0.093750 -0.054687
v -0.054688 0.093750 -0.054687
v -0.054688 0.093750 0.054688
v 0.054688 0.093750 0.054688
v -0.031250 0.058594 0.031250
v -0.031250 0.058594 -0.031250
v 0.031250 0.058594 -0.031250
v 0.031250 0.058594 0.031250
vt 0.375000 0.750000
vt 0.375000 0.875000
vt 0.312500 0.875000
vt 0.312500 0.750000
vt 0.500000 0.750000
vt 0.500000 0.812500
vt 0.375000 0.812500
vt 0.375000 0.750000
vt 0.125000 0.750000
vt 0.125000 0.875000
vt 0.000000 0.875000
vt 0.000000 0.750000
vt 0.375000 0.125000
vt 0.375000 0.250000
vt 0.250000 0.250000
vt 0.250000 0.125000
vt 0.500000 0.812500
vt 0.500000 0.875000
vt 0.375000 0.875000
vt 0.375000 0.812500
vt 0.312500 0.750000
vt 0.312500 0.875000
vt 0.250000 0.875000
vt 0.250000 0.750000
vt 0.437500 0.968750
vt 0.437500 0.906250
vt 0.500000 0.875000
vt 0.500000 1.000000
vt 0.312500 0.906250
vt 0.312500 0.968750
vt 0.250000 1.000000
vt 0.250000 0.875000
vt 0.437500 0.906250
vt 0.437500 0.968750
vt 0.375000 1.000000
vt 0.375000 0.875000
vt 0.312500 0.906250
vt 0.312500 0.968750
vt 0.375000 1.000000
vt 0.375000 0.875000
vt 0.250000 1.000000
vt 0.125000 1.000000
vt 0.125000 0.937500
vt 0.250000 0.937500
vt 0.125000 1.000000
vt 0.000000 1.000000
vt 0.000000 0.937500
vt 0.125000 0.937500
vt 0.125000 0.937500
vt 0.000000 0.937500
vt 0.000000 0.875000
vt 0.125000 0.875000
vt 0.250000 0.937500
vt 0.250000 0.875000
vn -0.7071 -0.7071 -0.0000
vn 0.7071 -0.7071 -0.0000
vn 0.0000 1.0000 0.0000
vn 0.0000 -1.0000 0.0000
vn 0.0000 -0.7071 -0.7071
vn 0.0000 -0.7071 0.7071
vn 0.2425 -0.9701 0.0000
vn 0.0000 -0.9701 0.2425
vn -0.2425 -0.9701 0.0000
vn 0.0000 -0.9701 -0.2425
vn 0.0000 0.0000 -1.0000
vn -1.0000 0.0000 0.0000
vn 0.0000 0.0000 1.0000
vn 1.0000 0.0000 0.0000
usemtl m_7dae2e97-8efe-62ed-d490-12ef4b1ebf17
s 1
f 17/55/15 18/56/15 19/57/15 20/58/15
f 21/59/16 22/60/16 23/61/16 24/62/16
f 25/63/17 26/64/17 27/65/17 28/66/17
f 29/67/18 30/68/18 31/69/18 32/70/18
f 19/71/19 18/72/19 22/73/19 21/74/19
f 23/75/20 17/76/20 20/77/20 24/78/20
f 30/79/21 29/80/21 20/81/21 19/82/21
f 31/83/22 30/84/22 19/85/22 21/86/22
f 32/87/23 31/88/23 21/89/23 24/90/23
f 29/91/24 32/92/24 24/93/24 20/94/24
f 26/95/25 25/96/25 22/97/25 18/98/25
f 27/99/26 26/100/26 18/101/26 17/102/26
f 28/103/27 27/104/27 17/105/27 23/106/27
f 25/107/28 28/103/28 23/106/28 22/108/28
