# Blender v2.79 (sub 0) OBJ File: ''
# www.blender.org
mtllib hitchconnector.mtl
o bolt
v 0.013532 0.023437 0.085938
v 0.000000 0.031250 0.085938
v 0.000000 0.015625 0.085938
v 0.013532 0.007812 0.085938
v 0.000000 -0.000000 0.085938
v -0.013532 0.007812 0.085938
v -0.013532 0.023437 0.085938
v 0.000000 0.031250 0.054688
v 0.013532 0.023437 0.054688
v 0.000000 0.015625 0.054688
v 0.013532 0.007812 0.054688
v 0.000000 -0.000000 0.054688
v -0.013532 0.007812 0.054688
v -0.013532 0.023437 0.054688
v 0.019251 0.027344 0.101562
v 0.000000 0.039062 0.101562
v 0.000000 0.015625 0.101562
v 0.019251 0.027344 0.085938
v 0.000000 0.039062 0.085938
v 0.000000 0.015625 0.085938
v 0.019251 0.003906 0.101562
v 0.019251 0.003906 0.085938
v 0.000000 -0.007813 0.101562
v 0.000000 -0.007813 0.085938
v -0.019251 0.003906 0.101562
v -0.019251 0.003906 0.085938
v -0.019251 0.027344 0.101562
v -0.019251 0.027344 0.085938
vt 0.812500 0.210938
vt 0.798969 0.203125
vt 0.798969 0.218750
vt 0.812500 0.210938
vt 0.812500 0.195312
vt 0.798969 0.203125
vt 0.798969 0.203125
vt 0.812500 0.195312
vt 0.798969 0.187500
vt 0.785297 0.195312
vt 0.798828 0.203125
vt 0.798828 0.187500
vt 0.785297 0.195312
vt 0.785297 0.210938
vt 0.798828 0.203125
vt 0.798828 0.203125
vt 0.785297 0.210938
vt 0.798828 0.218750
vt 0.798969 0.234375
vt 0.812500 0.242188
vt 0.798969 0.250000
vt 0.812500 0.226562
vt 0.812500 0.242188
vt 0.798969 0.234375
vt 0.812500 0.226562
vt 0.798969 0.234375
vt 0.798969 0.218750
vt 0.798828 0.234375
vt 0.785297 0.226562
vt 0.798828 0.218750
vt 0.785297 0.242188
vt 0.785297 0.226562
vt 0.798828 0.234375
vt 0.785297 0.242188
vt 0.798828 0.234375
vt 0.798828 0.250000
vt 0.812500 0.250000
vt 0.812500 0.000000
vt 0.875000 0.000000
vt 0.875000 0.250000
vt 0.812500 0.250000
vt 0.812500 0.000000
vt 0.875000 0.000000
vt 0.875000 0.250000
vt 0.812500 0.250000
vt 0.812500 0.000000
vt 0.875000 0.000000
vt 0.875000 0.250000
vt 0.812500 0.250000
vt 0.812500 0.000000
vt 0.875000 0.000000
vt 0.875000 0.250000
vt 0.812500 0.250000
vt 0.812500 0.000000
vt 0.875000 0.000000
vt 0.875000 0.250000
vt 0.812500 0.000000
vt 0.875000 0.250000
vt 1.000000 0.140625
vt 0.972938 0.156250
vt 0.972938 0.125000
vt 0.937500 0.000000
vt 1.000000 0.000000
vt 1.000000 0.125000
vt 0.937500 0.125000
vt 0.972938 0.218750
vt 1.000000 0.234375
vt 0.972938 0.250000
vt 1.000000 0.140625
vt 1.000000 0.171875
vt 0.972938 0.156250
vt 0.937500 0.000000
vt 1.000000 0.000000
vt 1.000000 0.125000
vt 0.937500 0.125000
vt 1.000000 0.203125
vt 1.000000 0.234375
vt 0.972938 0.218750
vt 0.972938 0.156250
vt 1.000000 0.171875
vt 0.972938 0.187500
vt 0.937500 0.000000
vt 1.000000 0.000000
vt 1.000000 0.125000
vt 0.937500 0.125000
vt 1.000000 0.203125
vt 0.972938 0.218750
vt 0.972938 0.187500
vt 0.945594 0.171875
vt 0.972656 0.156250
vt 0.972656 0.187500
vt 0.937500 0.000000
vt 1.000000 0.000000
vt 1.000000 0.125000
vt 0.937500 0.125000
vt 0.972375 0.218750
vt 0.945312 0.203125
vt 0.972375 0.187500
vt 0.945594 0.171875
vt 0.945594 0.140625
vt 0.972656 0.156250
vt 0.937500 0.000000
vt 1.000000 0.000000
vt 1.000000 0.125000
vt 0.937500 0.125000
vt 0.945312 0.234375
vt 0.945312 0.203125
vt 0.972375 0.218750
vt 0.972656 0.156250
vt 0.945594 0.140625
vt 0.972656 0.125000
vt 0.937500 0.000000
vt 1.000000 0.000000
vt 1.000000 0.125000
vt 0.937500 0.125000
vt 0.945312 0.234375
vt 0.972375 0.218750
vt 0.972375 0.250000
vn 0.0000 0.0000 1.0000
vn 0.0000 0.0000 -1.0000
vn 1.0000 0.0000 0.0000
vn 0.5000 -0.8660 -0.0000
vn -0.5000 -0.8660 -0.0000
vn -1.0000 0.0000 0.0000
vn -0.5000 0.8660 0.0000
vn 0.5000 0.8660 0.0000
vn 0.5200 0.8542 0.0000
vn 0.5200 -0.8542 -0.0000
vn -0.5200 -0.8542 -0.0000
vn -0.5200 0.8542 0.0000
usemtl m_7dae2e97-8efe-62ed-d490-12ef4b1ebf17
s 1
f 1/1/1 2/2/1 3/3/1
f 4/4/1 1/5/1 3/6/1
f 5/7/1 4/8/1 3/9/1
f 6/10/1 5/11/1 3/12/1
f 7/13/1 6/14/1 3/15/1
f 2/16/1 7/17/1 3/18/1
f 8/19/2 9/20/2 10/21/2
f 9/22/2 11/23/2 10/24/2
f 11/25/2 12/26/2 10/27/2
f 12/28/2 13/29/2 10/30/2
f 13/31/2 14/32/2 10/33/2
f 14/34/2 8/35/2 10/36/2
f 9/37/3 1/38/3 4/39/3 11/40/3
f 5/41/4 12/42/4 11/43/4 4/44/4
f 12/45/5 5/46/5 6/47/5 13/48/5
f 7/49/6 14/50/6 13/51/6 6/52/6
f 14/53/7 7/54/7 2/55/7 8/56/7
f 9/37/8 8/57/8 2/55/8 1/58/8
f 15/59/1 16/60/1 17/61/1
f 16/62/9 15/63/9 18/64/9 19/65/9
f 19/66/2 18/67/2 20/68/2
f 21/69/1 15/70/1 17/71/1
f 15/72/3 21/73/3 22/74/3 18/75/3
f 18/76/2 22/77/2 20/78/2
f 23/79/1 21/80/1 17/81/1
f 21/82/10 23/83/10 24/84/10 22/85/10
f 22/86/2 24/87/2 20/88/2
f 25/89/1 23/90/1 17/91/1
f 23/92/11 25/93/11 26/94/11 24/95/11
f 24/96/2 26/97/2 20/98/2
f 27/99/1 25/100/1 17/101/1
f 25/102/6 27/103/6 28/104/6 26/105/6
f 26/106/2 28/107/2 20/108/2
f 16/109/1 27/110/1 17/111/1
f 27/112/12 16/113/12 19/114/12 28/115/12
f 28/116/2 19/117/2 20/118/2
o #connector_alt
v 0.062500 0.001953 0.187500
v 0.062500 0.000977 0.125000
v 0.062500 0.063477 0.125000
v 0.062500 0.064453 0.187500
v -0.062500 0.064453 0.187500
v -0.062500 0.063477 0.125000
v -0.062500 0.000977 0.125000
v -0.062500 0.001953 0.187500
v 0.000000 0.063477 0.125000
v 0.000000 0.064453 0.187500
v 0.062500 0.066406 0.312500
v 0.000000 0.066406 0.312500
v 0.000000 0.003906 0.312500
v 0.062500 0.003906 0.312500
v 0.062500 -0.000000 0.062500
v 0.000000 -0.000000 0.062500
v 0.000000 0.062500 0.062500
v 0.062500 0.062500 0.062500
v 0.031250 0.009766 0.187500
v 0.031250 0.008789 0.140625
v 0.000000 0.010742 0.281250
v 0.031250 0.010742 0.281250
v -0.031250 0.008789 0.140625
v -0.031250 0.009766 0.187500
v 0.031250 0.007812 0.093750
v 0.000000 0.007812 0.093750
v -0.062500 0.002930 0.250000
v -0.062500 0.065430 0.250000
v -0.031250 0.010742 0.234375
v 0.062500 0.002930 0.250000
v 0.031250 0.010742 0.234375
v 0.062500 0.065430 0.250000
v 0.000000 0.065430 0.250000
v -0.031250 0.010742 0.281250
v -0.062500 0.003906 0.312500
v -0.062500 0.066406 0.312500
v -0.062500 0.062500 0.062500
v -0.062500 -0.000000 0.062500
v -0.031250 0.007812 0.093750
v 0.000000 0.015625 0.187500
v 0.000000 0.015625 0.140625
v 0.031250 0.012695 0.140625
v 0.031250 0.013672 0.187500
v 0.031250 0.014648 0.234375
v 0.000000 0.015625 0.234375
v -0.031250 0.014648 0.234375
v -0.031250 0.013672 0.187500
v -0.031250 0.012695 0.140625
v 0.031250 0.011719 0.093750
v 0.000000 0.015625 0.093750
v 0.000000 0.015625 0.281250
v 0.031250 0.014648 0.281250
v -0.031250 0.014648 0.281250
v -0.031250 0.011719 0.093750
vt 0.437500 1.000000
vt 0.312500 1.000000
vt 0.312500 0.875000
vt 0.437500 0.875000
vt 0.250000 0.875000
vt 0.125000 0.875000
vt 0.125000 0.750000
vt 0.250000 0.750000
vt 0.187500 0.750000
vt 0.312500 0.750000
vt 0.312500 0.875000
vt 0.187500 0.875000
vt 0.375000 0.750000
vt 0.500000 0.750000
vt 0.500000 0.875000
vt 0.375000 0.875000
vt 0.375000 0.875000
vt 0.500000 0.875000
vt 0.500000 1.000000
vt 0.375000 1.000000
vt 0.437500 0.750000
vt 0.406250 0.750000
vt 0.390625 0.717794
vt 0.437500 0.717794
vt 0.281250 0.717788
vt 0.343750 0.717788
vt 0.343750 0.750000
vt 0.312500 0.750000
vt 0.343750 0.717794
vt 0.390625 0.717794
vt 0.375000 0.750000
vt 0.343750 0.750000
vt 0.312500 0.718750
vt 0.281250 0.718750
vt 0.281250 0.686538
vt 0.343750 0.686538
vt 0.437500 0.875000
vt 0.312500 0.875000
vt 0.312500 0.750000
vt 0.437500 0.750000
vt 0.437500 0.718750
vt 0.406250 0.718750
vt 0.390625 0.686544
vt 0.437500 0.686544
vt 0.343750 0.686544
vt 0.390625 0.686544
vt 0.375000 0.718750
vt 0.343750 0.718750
vt 0.250000 1.000000
vt 0.125000 1.000000
vt 0.125000 0.875000
vt 0.250000 0.875000
vt 0.250000 0.875000
vt 0.125000 0.875000
vt 0.125000 0.750000
vt 0.250000 0.750000
vt 0.312500 0.750000
vt 0.281250 0.750000
vt 0.281250 0.717788
vt 0.343750 0.717788
vt 0.375000 0.875000
vt 0.500000 1.000000
vt 0.375000 1.000000
vt 0.000000 0.875000
vt 0.125000 0.875000
vt 0.125000 1.000000
vt 0.000000 1.000000
vt 0.437500 1.000000
vt 0.312500 1.000000
vt 0.312500 0.875000
vt 0.437500 0.875000
vt 0.375000 0.750000
vt 0.500000 0.750000
vt 0.375000 0.875000
vt 0.281250 0.686538
vt 0.343750 0.686538
vt 0.343750 0.718750
vt 0.312500 0.718750
vt 0.750000 0.312500
vt 0.562500 0.312500
vt 0.562500 0.187500
vt 0.750000 0.187500
vt 0.500000 0.187500
vt 0.687500 0.187500
vt 0.687500 0.312500
vt 0.500000 0.312500
vt 0.812500 0.312500
vt 0.625000 0.312500
vt 0.625000 0.187500
vt 0.812500 0.187500
vt 0.750000 0.187500
vt 0.937500 0.187500
vt 0.937500 0.312500
vt 0.000000 0.687500
vt 0.031250 0.687500
vt 0.031250 0.750000
vt 0.000000 0.750000
vt 0.062500 0.687500
vt 0.093750 0.687500
vt 0.093750 0.750000
vt 0.062500 0.750000
vt 0.250000 0.687500
vt 0.281250 0.687500
vt 0.281250 0.750000
vt 0.250000 0.750000
vt 0.250000 0.750000
vt 0.218750 0.750000
vt 0.218750 0.687500
vt 0.250000 0.687500
vt 0.125000 0.687500
vt 0.156250 0.687500
vt 0.156250 0.750000
vt 0.125000 0.750000
vt 0.125000 0.687500
vt 0.156250 0.687500
vt 0.156250 0.750000
vt 0.125000 0.750000
vt 0.125000 0.687500
vt 0.156250 0.687500
vt 0.156250 0.750000
vt 0.125000 0.750000
vt 0.062500 0.750000
vt 0.031250 0.750000
vt 0.031250 0.687500
vt 0.062500 0.687500
vt 0.000000 0.875000
vt 0.000000 1.000000
vt 0.000000 0.750000
vt 0.000000 0.875000
vt 0.250000 1.000000
vt 0.250000 0.875000
vt 0.187500 0.750000
vt 0.187500 0.875000
vt 0.343750 0.686544
vt 0.375000 0.718750
vt 0.187500 0.750000
vt 0.187500 0.687500
vt 0.500000 0.187500
vt 0.687500 0.187500
vt 0.500000 0.312500
vt 0.812500 0.312500
vt 0.625000 0.187500
vt 0.812500 0.187500
vt 0.187500 0.687500
vt 0.187500 0.750000
vt 0.406250 0.718750
vt 0.437500 0.686544
vt 0.187500 0.875000
vt 0.187500 1.000000
vt 0.343750 0.717794
vt 0.375000 0.750000
vt 0.125000 0.750000
vt 0.125000 0.687500
vt 0.812500 0.187500
vt 1.000000 0.187500
vt 1.000000 0.312500
vt 0.812500 0.312500
vt 0.937500 0.312500
vt 0.750000 0.312500
vt 0.750000 0.187500
vt 0.937500 0.187500
vt 0.000000 0.687500
vt 0.000000 0.750000
vt 0.406250 0.750000
vt 0.437500 0.717794
vt 0.000000 0.750000
vt 0.000000 0.875000
vt 0.187500 0.875000
vt 0.187500 1.000000
vt 0.437500 0.875000
vt 0.437500 0.750000
vn 1.0000 0.0000 0.0000
vn -1.0000 0.0000 0.0000
vn 0.0000 0.9999 -0.0156
vn 0.0000 0.0000 1.0000
vn 0.0000 0.0000 -1.0000
vn -0.2329 -0.9723 0.0203
vn -0.2325 -0.9724 0.0182
vn -0.2359 -0.9716 0.0183
vn 0.0000 -0.9769 -0.2137
vn 0.2353 -0.9718 0.0152
vn 0.2359 -0.9716 0.0183
vn 0.2325 -0.9724 0.0182
vn 0.2354 -0.9718 0.0152
vn 0.0000 -0.9701 0.2425
vn 0.2520 -0.9675 0.0202
vn 0.2512 -0.9678 0.0178
vn 0.2510 -0.9678 0.0178
vn -0.2496 -0.9682 0.0151
vn -0.0933 -0.9956 0.0000
vn -0.0934 -0.9956 -0.0000
vn -0.0312 -0.9993 0.0208
vn 0.0313 -0.9995 0.0000
vn 0.0312 -0.9995 0.0000
vn 0.0933 -0.9954 0.0207
vn 0.2496 -0.9682 0.0151
vn -0.0312 -0.9995 -0.0000
vn -0.2425 -0.9701 -0.0000
vn -0.2353 -0.9718 0.0152
vn -0.2354 -0.9718 0.0152
vn -0.0933 -0.9954 0.0207
vn 0.0934 -0.9956 0.0000
vn 0.0933 -0.9956 0.0000
vn 0.2329 -0.9723 0.0203
vn 0.2329 -0.9723 0.0202
usemtl m_7dae2e97-8efe-62ed-d490-12ef4b1ebf17
s 1
f 29/119/13 30/120/13 31/121/13 32/122/13
f 33/123/14 34/124/14 35/125/14 36/126/14
f 32/127/15 31/128/15 37/129/15 38/130/15
f 39/131/16 40/132/16 41/133/16 42/134/16
f 43/135/17 44/136/17 45/137/17 46/138/17
f 47/139/18 48/140/19 30/141/20 29/142/18
f 42/143/21 41/144/21 49/145/21 50/146/21
f 36/147/22 35/148/23 51/149/24 52/150/25
f 53/151/26 54/152/26 44/153/26 43/154/26
f 36/155/14 55/156/14 56/157/14 33/158/14
f 52/159/27 57/160/28 55/161/29 36/162/27
f 29/163/30 58/164/30 59/165/30 47/166/30
f 32/167/13 60/168/13 58/169/13 29/170/13
f 38/171/15 61/172/15 60/173/15 32/174/15
f 62/175/21 49/176/21 41/177/21 63/178/21
f 63/179/16 41/133/16 40/180/16 64/181/16
f 33/182/15 56/183/15 61/184/15 38/185/15
f 38/186/15 37/187/15 34/188/15 33/189/15
f 65/190/17 45/191/17 44/136/17 66/192/17
f 66/193/26 44/194/26 54/195/26 67/196/26
f 68/197/31 69/198/31 70/199/31 71/200/32
f 71/201/33 72/202/33 73/203/33 68/204/33
f 68/205/34 73/206/35 74/207/35 75/208/35
f 75/209/36 76/210/36 69/211/36 68/197/36
f 77/212/16 78/213/16 54/214/16 53/215/16
f 71/216/14 70/217/14 48/218/14 47/219/14
f 79/220/17 80/221/17 50/222/17 49/223/17
f 47/224/14 59/225/14 72/226/14 71/227/14
f 81/228/17 79/229/17 49/230/17 62/231/17
f 75/232/13 74/233/13 57/234/13 52/235/13
f 78/236/16 82/237/16 67/238/16 54/239/16
f 52/240/13 51/241/13 76/242/13 75/243/13
f 42/244/13 58/169/13 60/168/13 39/245/13
f 39/246/15 60/173/15 61/172/15 40/247/15
f 40/248/15 61/184/15 56/183/15 64/249/15
f 64/250/14 56/157/14 55/156/14 63/251/14
f 63/252/37 55/161/29 57/160/28 62/253/37
f 62/254/13 57/234/13 74/233/13 81/255/13
f 81/256/35 74/257/35 73/203/35 79/258/35
f 79/259/38 73/206/38 72/260/38 80/261/38
f 80/262/14 72/226/14 59/225/14 50/263/14
f 50/264/39 59/165/39 58/164/39 42/265/39
f 46/266/13 31/121/13 30/120/13 43/267/13
f 43/268/40 30/141/20 48/140/19 53/269/41
f 53/270/14 48/218/14 70/217/14 77/271/14
f 77/272/42 70/273/42 69/274/42 78/275/42
f 78/276/43 69/277/44 76/278/43 82/279/44
f 82/280/13 76/242/13 51/241/13 67/281/13
f 67/282/45 51/149/24 35/148/23 66/283/46
f 66/284/14 35/125/14 34/124/14 65/285/14
f 65/286/15 34/188/15 37/187/15 45/287/15
f 45/288/15 37/129/15 31/128/15 46/289/15
o #boltalt
v 0.019531 0.054687 0.273438
v 0.019531 0.054687 0.335938
v 0.019531 0.015625 0.335938
v 0.019531 0.015625 0.273438
v -0.019531 0.015625 0.335938
v -0.019531 0.054687 0.335938
v -0.019531 0.054687 0.273438
v -0.019531 0.015625 0.273438
vt 1.000000 0.187500
vt 0.937500 0.187500
vt 0.937500 0.125000
vt 1.000000 0.125000
vt 0.937500 0.000000
vt 0.937500 0.062500
vt 0.875000 0.062500
vt 0.875000 0.000000
vt 1.000000 0.062500
vt 1.000000 0.125000
vt 0.937500 0.125000
vt 1.000000 0.000000
vt 1.000000 0.062500
vt 0.937500 0.062500
vt 0.937500 0.000000
vt 1.000000 0.000000
vt 1.000000 0.062500
vt 0.937500 0.062500
vt 0.937500 0.000000
vt 1.000000 0.000000
vn 1.0000 0.0000 0.0000
vn -1.0000 0.0000 0.0000
vn 0.0000 1.0000 0.0000
vn 0.0000 -1.0000 -0.0000
vn 0.0000 0.0000 1.0000
vn 0.0000 0.0000 -1.0000
usemtl m_7dae2e97-8efe-62ed-d490-12ef4b1ebf17
s 1
f 83/290/47 84/291/47 85/292/47 86/293/47
f 87/294/48 88/295/48 89/296/48 90/297/48
f 88/295/49 84/298/49 83/299/49 89/300/49
f 86/301/50 85/302/50 87/303/50 90/304/50
f 85/305/51 84/298/51 88/295/51 87/294/51
f 89/306/52 83/307/52 86/308/52 90/309/52
o connector
v -0.070312 0.046875 0.078125
v -0.070312 0.046875 0.000000
v -0.070312 -0.015625 -0.000000
v -0.070312 -0.015625 0.078125
v 0.070312 -0.015625 0.078125
v 0.070312 -0.015625 -0.000000
v 0.070312 0.046875 0.000000
v 0.070312 0.046875 0.078125
v 0.000000 0.046875 0.078125
v 0.000000 0.046875 0.000000
v -0.070312 0.046875 -0.078125
v 0.000000 0.046875 -0.078125
v 0.000000 -0.015625 -0.078125
v -0.070312 -0.015625 -0.078125
v 0.000000 -0.015625 0.078125
v -0.031250 -0.007812 -0.000000
v -0.031250 -0.007813 0.046875
v 0.000000 -0.007812 -0.046875
v -0.031250 -0.007812 -0.046875
v 0.031250 -0.007813 0.046875
v 0.031250 -0.007812 -0.000000
v 0.000000 -0.007813 0.046875
v 0.070312 0.046875 -0.078125
v 0.070312 -0.015625 -0.078125
v 0.031250 -0.007812 -0.046875
v -0.031250 -0.003906 -0.000000
v 0.000000 0.000000 0.000000
v 0.000000 -0.000000 0.062500
v -0.031250 -0.003906 0.062500
v -0.031250 -0.003906 -0.062500
v 0.000000 0.000000 -0.062500
v 0.031250 -0.003906 -0.000000
v 0.031250 -0.003906 -0.062500
v 0.031250 -0.003906 0.062500
vt 0.328125 1.000000
vt 0.250000 1.000000
vt 0.250000 0.937500
vt 0.328125 0.937500
vt 0.062500 0.812500
vt 0.140625 0.812500
vt 0.140625 0.875000
vt 0.062500 0.875000
vt 0.250000 0.796875
vt 0.312500 0.796875
vt 0.312500 0.875000
vt 0.250000 0.875000
vt 0.500000 0.875000
vt 0.437500 0.875000
vt 0.437500 0.812500
vt 0.500000 0.812500
vt 0.437500 0.937500
vt 0.500000 0.937500
vt 0.500000 1.000000
vt 0.437500 1.000000
vt 0.312500 0.780294
vt 0.390625 0.780294
vt 0.390625 0.812500
vt 0.343750 0.812500
vt 0.312500 0.780288
vt 0.375000 0.780288
vt 0.375000 0.812500
vt 0.343750 0.812500
vt 0.421875 0.812500
vt 0.375000 0.812500
vt 0.375000 0.780294
vt 0.453125 0.780294
vt 0.343750 0.750000
vt 0.312500 0.750000
vt 0.312500 0.717788
vt 0.375000 0.717788
vt 0.265625 0.875000
vt 0.187500 0.875000
vt 0.187500 0.812500
vt 0.265625 0.812500
vt 0.375000 0.780294
vt 0.453125 0.780294
vt 0.453125 0.812500
vt 0.406250 0.812500
vt 0.359375 0.812500
vt 0.312500 0.812500
vt 0.312500 0.780294
vt 0.390625 0.780294
vt 0.125000 0.937500
vt 0.203125 0.937500
vt 0.203125 1.000000
vt 0.125000 1.000000
vt 0.062500 0.796875
vt 0.125000 0.796875
vt 0.125000 0.875000
vt 0.062500 0.875000
vt 0.343750 0.812500
vt 0.312500 0.812500
vt 0.312500 0.780288
vt 0.437500 0.937500
vt 0.500000 0.937500
vt 0.500000 1.000000
vt 0.437500 1.000000
vt 0.125000 1.000000
vt 0.062500 1.000000
vt 0.062500 0.921875
vt 0.125000 0.921875
vt 0.312500 1.000000
vt 0.250000 1.000000
vt 0.250000 0.921875
vt 0.312500 0.921875
vt 0.500000 0.875000
vt 0.437500 0.875000
vt 0.437500 0.812500
vt 0.500000 0.812500
vt 0.312500 0.717788
vt 0.375000 0.717788
vt 0.375000 0.750000
vt 0.343750 0.750000
vt 0.750000 0.187500
vt 0.750000 0.312500
vt 0.500000 0.312500
vt 0.500000 0.187500
vt 1.000000 0.187500
vt 1.000000 0.312500
vt 1.000000 0.187500
vt 1.000000 0.312500
vt 0.750000 0.312500
vt 0.750000 0.187500
vt 0.750000 0.187500
vt 0.750000 0.312500
vt 0.500000 0.312500
vt 0.500000 0.187500
vt 0.078222 0.781054
vt 0.079969 0.812500
vt 0.062504 0.812500
vt 0.062500 0.781448
vt 0.062500 0.750000
vt 0.000000 0.750000
vt 0.015625 0.746094
vt 0.062500 0.746094
vt 0.343982 0.750000
vt 0.312500 0.749058
vt 0.312500 0.732951
vt 0.343526 0.732947
vt 0.250000 0.750000
vt 0.187500 0.750000
vt 0.187500 0.746094
vt 0.234375 0.746094
vt 0.078227 0.781058
vt 0.079973 0.812500
vt 0.062500 0.812500
vt 0.062506 0.781442
vt 0.187500 0.750000
vt 0.125000 0.750000
vt 0.140625 0.746094
vt 0.187500 0.746094
vt 0.156479 0.812500
vt 0.125000 0.811549
vt 0.125000 0.795442
vt 0.156023 0.795447
vt 0.125000 0.750000
vt 0.062500 0.750000
vt 0.062500 0.746094
vt 0.109375 0.746094
vn -1.0000 0.0000 0.0000
vn 1.0000 0.0000 0.0000
vn 0.0000 1.0000 0.0000
vn 0.0000 0.0000 -1.0000
vn 0.0000 0.0000 1.0000
vn 0.1961 -0.9806 -0.0000
vn 0.0000 -0.9701 0.2425
vn -0.1961 -0.9806 -0.0000
vn 0.0000 -0.9701 -0.2425
vn 0.1240 -0.9923 -0.0000
vn -0.1240 -0.9923 -0.0000
vn -0.1111 0.8889 -0.4444
vn -0.1111 0.8889 -0.4445
vn -0.1204 0.9631 0.2408
vn 0.1111 0.8889 0.4444
vn 0.1111 0.8889 0.4445
vn 0.1204 0.9631 -0.2408
usemtl m_7dae2e97-8efe-62ed-d490-12ef4b1ebf17
s 1
f 91/310/53 92/311/53 93/312/53 94/313/53
f 95/314/54 96/315/54 97/316/54 98/317/54
f 91/318/55 99/319/55 100/320/55 92/321/55
f 101/322/56 102/323/56 103/324/56 104/325/56
f 94/326/57 105/327/57 99/328/57 91/329/57
f 94/330/58 93/331/58 106/332/58 107/333/58
f 104/334/59 103/335/59 108/336/59 109/337/59
f 110/338/60 111/339/60 96/340/60 95/341/60
f 107/342/61 112/343/61 105/344/61 94/345/61
f 113/346/54 97/347/54 96/348/54 114/349/54
f 114/350/60 96/351/60 111/352/60 115/353/60
f 109/354/58 106/355/58 93/356/58 104/357/58
f 104/358/53 93/359/53 92/360/53 101/361/53
f 92/362/55 100/363/55 102/364/55 101/365/55
f 115/366/59 108/367/59 103/368/59 114/350/59
f 114/369/56 103/370/56 102/371/56 113/372/56
f 113/373/55 102/374/55 100/375/55 97/376/55
f 97/377/55 100/378/55 99/379/55 98/380/55
f 98/381/57 99/382/57 105/383/57 95/384/57
f 95/385/61 105/386/61 112/387/61 110/388/61
f 116/389/62 117/390/62 118/391/62 119/392/62
f 120/393/62 121/394/62 117/390/62 116/389/62
f 122/395/63 117/396/63 121/397/63 123/398/63
f 124/399/63 118/400/63 117/401/63 122/402/63
f 119/403/64 118/404/65 112/405/65 107/406/64
f 116/407/54 119/408/54 107/409/54 106/410/54
f 121/411/66 120/412/66 109/413/66 108/414/66
f 120/415/54 116/416/54 106/417/54 109/418/54
f 123/419/67 121/420/68 108/421/68 115/422/67
f 122/423/53 123/424/53 115/425/53 111/426/53
f 118/427/69 124/428/69 110/429/69 112/430/69
f 124/431/53 122/432/53 111/433/53 110/434/53
o mount
v -0.062500 0.062500 0.062500
v -0.062500 0.062500 -0.062500
v -0.062500 0.000000 -0.062500
v -0.062500 -0.000000 0.062500
v 0.062500 0.000000 -0.062500
v 0.062500 0.062500 -0.062500
v 0.062500 0.062500 0.062500
v 0.062500 -0.000000 0.062500
v -0.031250 0.007812 0.031250
v -0.031250 0.007813 -0.031250
v 0.031250 0.007813 -0.031250
v 0.031250 0.007812 0.031250
vt 0.500000 0.500000
vt 0.500000 0.750000
vt 0.375000 0.750000
vt 0.375000 0.500000
vt 0.500000 0.875000
vt 0.500000 1.000000
vt 0.250000 1.000000
vt 0.250000 0.875000
vt 0.250000 0.750000
vt 0.250000 1.000000
vt 0.000000 1.000000
vt 0.000000 0.750000
vt 0.625000 0.125000
vt 0.625000 0.375000
vt 0.375000 0.375000
vt 0.375000 0.125000
vt 0.500000 0.750000
vt 0.500000 0.875000
vt 0.250000 0.875000
vt 0.250000 0.750000
vt 0.375000 0.500000
vt 0.375000 0.750000
vt 0.250000 0.750000
vt 0.250000 0.500000
vt 0.187500 0.687500
vt 0.187500 0.562500
vt 0.250000 0.500000
vt 0.250000 0.750000
vt 0.062500 0.562500
vt 0.062500 0.687500
vt 0.000000 0.750000
vt 0.000000 0.500000
vt 0.187500 0.562500
vt 0.187500 0.687500
vt 0.125000 0.750000
vt 0.125000 0.500000
vt 0.062500 0.562500
vt 0.062500 0.687500
vt 0.125000 0.750000
vt 0.125000 0.500000
vn -1.0000 0.0000 0.0000
vn 1.0000 0.0000 0.0000
vn 0.0000 1.0000 0.0000
vn 0.0000 -1.0000 -0.0000
vn 0.0000 0.0000 -1.0000
vn 0.0000 0.0000 1.0000
vn 0.2425 -0.9701 -0.0000
vn 0.0000 -0.9701 0.2425
vn -0.2425 -0.9701 -0.0000
vn 0.0000 -0.9701 -0.2425
usemtl m_7dae2e97-8efe-62ed-d490-12ef4b1ebf17
s 1
f 125/435/70 126/436/70 127/437/70 128/438/70
f 129/439/71 130/440/71 131/441/71 132/442/71
f 130/443/72 126/444/72 125/445/72 131/446/72
f 133/447/73 134/448/73 135/449/73 136/450/73
f 127/451/74 126/452/74 130/453/74 129/454/74
f 131/455/75 125/456/75 128/457/75 132/458/75
f 134/459/76 133/460/76 128/461/76 127/462/76
f 135/463/77 134/464/77 127/465/77 129/466/77
f 136/467/78 135/468/78 129/469/78 132/470/78
f 133/471/79 136/472/79 132/473/79 128/474/79
