# Blender v2.79 (sub 0) OBJ File: ''
# www.blender.org
mtllib intake_fi_diesel.mtl
o cuboid
v 0.046875 0.031250 -0.046875
v 0.046875 0.031250 0.046875
v 0.062500 -0.000000 0.062500
v 0.062500 0.000000 -0.062500
v -0.062500 -0.000000 0.062500
v -0.046875 0.031250 0.046875
v -0.046875 0.031250 -0.046875
v -0.062500 0.000000 -0.062500
v 0.093750 0.109375 -0.093750
v 0.093750 0.109375 0.093750
v 0.156250 0.015625 0.093750
v 0.156250 0.015625 -0.093750
v -0.156250 0.015625 0.093750
v -0.156250 0.109375 0.093750
v -0.156250 0.109375 -0.093750
v -0.156250 0.015625 -0.093750
v 0.187500 0.203125 0.156250
v 0.218750 0.203125 0.281250
v 0.218750 0.015625 0.281250
v 0.187500 0.015625 0.156250
v -0.218750 0.015625 0.281250
v -0.218750 0.203125 0.281250
v -0.187500 0.203125 0.156250
v -0.187500 0.015625 0.156250
v 0.031250 0.171875 0.062500
v 0.062500 0.171875 0.156250
v 0.062500 0.109375 0.156250
v 0.031250 0.109375 0.062500
v -0.062500 0.109375 0.156250
v -0.062500 0.171875 0.156250
v -0.093750 0.171875 0.062500
v -0.093750 0.109375 0.062500
v 0.062500 0.093750 -0.125000
v 0.062500 0.093750 -0.062500
v 0.062500 0.031250 -0.062500
v 0.062500 0.031250 -0.125000
v -0.125000 0.031250 -0.062500
v -0.125000 0.093750 -0.062500
v -0.125000 0.093750 -0.125000
v -0.125000 0.031250 -0.125000
v 0.078125 0.093750 0.062500
v 0.078125 0.093750 0.125000
v 0.078125 0.031250 0.125000
v 0.078125 0.031250 0.062500
v -0.109375 0.031250 0.125000
v -0.109375 0.093750 0.125000
v -0.109375 0.093750 0.062500
v -0.109375 0.031250 0.062500
v 0.031250 0.171875 0.031250
v 0.031250 0.171875 0.062500
v 0.031250 0.109375 0.062500
v 0.031250 0.109375 -0.031250
v -0.093750 0.109375 0.062500
v -0.093750 0.171875 0.062500
v -0.093750 0.171875 0.031250
v -0.093750 0.109375 -0.031250
vt 0.398438 0.343750
vt 0.351562 0.343750
vt 0.343750 0.312500
vt 0.406250 0.312500
vt 0.500000 0.312500
vt 0.492188 0.343750
vt 0.445312 0.343750
vt 0.437500 0.312500
vt 0.312500 0.375000
vt 0.375000 0.375000
vt 0.375000 0.437500
vt 0.312500 0.437500
vt 0.656250 0.625000
vt 0.656250 0.687500
vt 0.593750 0.687500
vt 0.593750 0.625000
vt 0.187500 0.593750
vt 0.179688 0.625000
vt 0.132812 0.625000
vt 0.125000 0.593750
vt 0.304688 0.343750
vt 0.257812 0.343750
vt 0.250000 0.312500
vt 0.312500 0.312500
vt 0.562500 0.687500
vt 0.468750 0.687500
vt 0.468750 0.625000
vt 0.562500 0.625000
vt 0.562500 0.718750
vt 0.562500 0.781250
vt 0.468750 0.781250
vt 0.468750 0.718750
vt 0.250000 0.468750
vt 0.375000 0.468750
vt 0.375000 0.562500
vt 0.250000 0.562500
vt 0.406250 0.781250
vt 0.406250 0.875000
vt 0.250000 0.875000
vt 0.250000 0.781250
vt 0.562500 0.500000
vt 0.531250 0.562500
vt 0.406250 0.562500
vt 0.406250 0.500000
vt 0.625000 1.000000
vt 0.500000 1.000000
vt 0.468750 0.937500
vt 0.625000 0.937500
vt 0.062500 0.468750
vt 0.000000 0.468750
vt 0.000000 0.375000
vt 0.062500 0.375000
vt 0.156250 0.375000
vt 0.156250 0.468750
vt 0.093750 0.468750
vt 0.093750 0.375000
vt 0.218750 0.687500
vt 0.437500 0.687500
vt 0.421875 0.750000
vt 0.234375 0.750000
vt 0.421875 0.593750
vt 0.437500 0.656250
vt 0.218750 0.656250
vt 0.234375 0.593750
vt 0.218750 0.906250
vt 0.218750 1.000000
vt 0.000000 1.000000
vt 0.000000 0.906250
vt 0.187500 0.750000
vt 0.000000 0.750000
vt 0.000000 0.656250
vt 0.187500 0.656250
vt 0.750000 0.625000
vt 0.687500 0.625000
vt 0.687500 0.593750
vt 0.750000 0.593750
vt 0.750000 0.531250
vt 0.750000 0.562500
vt 0.687500 0.562500
vt 0.687500 0.531250
vt 0.218750 0.375000
vt 0.281250 0.375000
vt 0.250000 0.437500
vt 0.187500 0.437500
vt 0.656250 0.718750
vt 0.687500 0.781250
vt 0.625000 0.781250
vt 0.593750 0.718750
vt 0.750000 0.843750
vt 0.750000 0.875000
vt 0.687500 0.875000
vt 0.687500 0.843750
vt 0.750000 0.687500
vt 0.687500 0.687500
vt 0.687500 0.656250
vt 0.750000 0.656250
vt 0.750000 0.812500
vt 0.718750 0.812500
vt 0.718750 0.781250
vt 0.750000 0.781250
vt 0.750000 0.718750
vt 0.750000 0.750000
vt 0.718750 0.750000
vt 0.718750 0.718750
vt 0.000000 0.593750
vt 0.093750 0.593750
vt 0.093750 0.625000
vt 0.000000 0.625000
vt 0.687500 0.468750
vt 0.687500 0.500000
vt 0.593750 0.500000
vt 0.593750 0.468750
vt 0.687500 0.406250
vt 0.687500 0.437500
vt 0.593750 0.437500
vt 0.593750 0.406250
vt 0.687500 0.375000
vt 0.593750 0.375000
vt 0.593750 0.343750
vt 0.687500 0.343750
vt 0.312500 0.281250
vt 0.281250 0.281250
vt 0.281250 0.250000
vt 0.312500 0.250000
vt 0.375000 0.250000
vt 0.375000 0.281250
vt 0.343750 0.281250
vt 0.343750 0.250000
vt 0.000000 0.312500
vt 0.093750 0.312500
vt 0.093750 0.343750
vt 0.000000 0.343750
vt 0.750000 0.968750
vt 0.750000 1.000000
vt 0.656250 1.000000
vt 0.656250 0.968750
vt 0.750000 0.906250
vt 0.750000 0.937500
vt 0.656250 0.937500
vt 0.656250 0.906250
vt 0.218750 0.343750
vt 0.125000 0.343750
vt 0.125000 0.312500
vt 0.218750 0.312500
vt 0.210938 0.281250
vt 0.195312 0.281250
vt 0.195312 0.250000
vt 0.242188 0.250000
vt 0.593750 0.281250
vt 0.593750 0.312500
vt 0.562500 0.312500
vt 0.531250 0.281250
vt 0.625000 0.281250
vt 0.687500 0.281250
vt 0.687500 0.312500
vt 0.625000 0.312500
vt 0.656250 0.531250
vt 0.656250 0.593750
vt 0.593750 0.593750
vt 0.593750 0.531250
vt 0.062500 0.250000
vt 0.062500 0.281250
vt 0.000000 0.281250
vt 0.000000 0.250000
vt 0.156250 0.281250
vt 0.093750 0.281250
vt 0.093750 0.250000
vt 0.156250 0.250000
vn 0.8944 0.4472 0.0000
vn -0.8944 0.4472 0.0000
vn 0.0000 1.0000 0.0000
vn 0.0000 -1.0000 -0.0000
vn 0.0000 0.4472 0.8944
vn 0.0000 0.4472 -0.8944
vn 0.8321 0.5547 0.0000
vn -1.0000 0.0000 0.0000
vn 0.0000 -0.0000 1.0000
vn 0.0000 0.0000 -1.0000
vn 0.9701 0.0000 -0.2425
vn -0.9701 0.0000 -0.2425
vn 0.9487 0.0000 -0.3162
vn -0.9487 0.0000 0.3162
vn 1.0000 0.0000 0.0000
vn 0.0000 0.7071 -0.7071
usemtl m_303dfaa4-2a31-d1e6-395d-4d4d11980565
s 1
f 1/1/1 2/2/1 3/3/1 4/4/1
f 5/5/2 6/6/2 7/7/2 8/8/2
f 6/9/3 2/10/3 1/11/3 7/12/3
f 4/13/4 3/14/4 5/15/4 8/16/4
f 3/17/5 2/18/5 6/19/5 5/20/5
f 7/21/6 1/22/6 4/23/6 8/24/6
f 9/25/7 10/26/7 11/27/7 12/28/7
f 13/29/8 14/30/8 15/31/8 16/32/8
f 14/33/3 10/34/3 9/35/3 15/36/3
f 12/37/4 11/38/4 13/39/4 16/40/4
f 11/41/9 10/42/9 14/43/9 13/44/9
f 15/45/10 9/46/10 12/47/10 16/48/10
f 17/49/11 18/50/11 19/51/11 20/52/11
f 21/53/12 22/54/12 23/55/12 24/56/12
f 22/57/3 18/58/3 17/59/3 23/60/3
f 20/61/4 19/62/4 21/63/4 24/64/4
f 19/65/9 18/66/9 22/67/9 21/68/9
f 23/69/10 17/70/10 20/71/10 24/72/10
f 25/73/13 26/74/13 27/75/13 28/76/13
f 29/77/14 30/78/14 31/79/14 32/80/14
f 30/81/3 26/82/3 25/83/3 31/84/3
f 28/85/4 27/86/4 29/87/4 32/88/4
f 27/89/9 26/90/9 30/91/9 29/92/9
f 31/93/10 25/94/10 28/95/10 32/96/10
f 33/97/15 34/98/15 35/99/15 36/100/15
f 37/101/8 38/102/8 39/103/8 40/104/8
f 38/105/3 34/106/3 33/107/3 39/108/3
f 36/109/4 35/110/4 37/111/4 40/112/4
f 35/113/9 34/114/9 38/115/9 37/116/9
f 39/117/10 33/118/10 36/119/10 40/120/10
f 41/121/15 42/122/15 43/123/15 44/124/15
f 45/125/8 46/126/8 47/127/8 48/128/8
f 46/129/3 42/130/3 41/131/3 47/132/3
f 44/133/4 43/134/4 45/135/4 48/136/4
f 43/137/9 42/138/9 46/139/9 45/140/9
f 47/141/10 41/142/10 44/143/10 48/144/10
f 49/145/15 50/146/15 51/147/15 52/148/15
f 53/149/8 54/150/8 55/151/8 56/152/8
f 54/153/3 50/154/3 49/155/3 55/156/3
f 52/157/4 51/158/4 53/159/4 56/160/4
f 51/161/9 50/162/9 54/163/9 53/164/9
f 55/165/16 49/166/16 52/167/16 56/168/16
o filter_cover
v 0.218750 0.203125 0.281250
v 0.187500 0.203125 0.375000
v 0.187500 0.015625 0.375000
v 0.218750 0.015625 0.281250
v -0.187500 0.015625 0.375000
v -0.187500 0.203125 0.375000
v -0.218750 0.203125 0.281250
v -0.218750 0.015625 0.281250
vt 0.468750 0.468750
vt 0.406250 0.468750
vt 0.406250 0.375000
vt 0.468750 0.375000
vt 0.562500 0.375000
vt 0.562500 0.468750
vt 0.500000 0.468750
vt 0.500000 0.375000
vt 0.015625 0.500000
vt 0.203125 0.500000
vt 0.218750 0.562500
vt 0.000000 0.562500
vt 0.656250 0.812500
vt 0.640625 0.875000
vt 0.453125 0.875000
vt 0.437500 0.812500
vt 0.437500 0.906250
vt 0.437500 1.000000
vt 0.250000 1.000000
vt 0.250000 0.906250
vt 0.218750 0.875000
vt 0.000000 0.875000
vt 0.000000 0.781250
vt 0.218750 0.781250
vn 0.9487 0.0000 0.3162
vn -0.9487 0.0000 0.3162
vn 0.0000 1.0000 0.0000
vn 0.0000 -1.0000 -0.0000
vn 0.0000 0.0000 1.0000
vn 0.0000 0.0000 -1.0000
usemtl m_303dfaa4-2a31-d1e6-395d-4d4d11980565
s 1
f 57/169/17 58/170/17 59/171/17 60/172/17
f 61/173/18 62/174/18 63/175/18 64/176/18
f 62/177/19 58/178/19 57/179/19 63/180/19
f 60/181/20 59/182/20 61/183/20 64/184/20
f 59/185/21 58/186/21 62/187/21 61/188/21
f 63/189/22 57/190/22 60/191/22 64/192/22
o filter
v 0.203125 0.187500 0.265625
v 0.203125 0.187500 0.296875
v 0.203125 0.031250 0.296875
v 0.203125 0.031250 0.265625
v -0.203125 0.031250 0.296875
v -0.203125 0.187500 0.296875
v -0.203125 0.187500 0.265625
v -0.203125 0.031250 0.265625
vt 0.531250 0.218750
vt 0.500000 0.218750
vt 0.500000 0.125000
vt 0.531250 0.125000
vt 0.593750 0.125000
vt 0.593750 0.218750
vt 0.562500 0.218750
vt 0.562500 0.125000
vt 0.000000 0.062500
vt 0.218750 0.062500
vt 0.218750 0.093750
vt 0.000000 0.093750
vt 0.468750 0.062500
vt 0.468750 0.093750
vt 0.250000 0.093750
vt 0.250000 0.062500
vt 0.218750 0.125000
vt 0.218750 0.218750
vt 0.000000 0.218750
vt 0.000000 0.125000
vt 0.468750 0.218750
vt 0.250000 0.218750
vt 0.250000 0.125000
vt 0.468750 0.125000
vn 1.0000 0.0000 0.0000
vn -1.0000 0.0000 0.0000
vn 0.0000 1.0000 0.0000
vn 0.0000 -1.0000 -0.0000
vn 0.0000 0.0000 1.0000
vn 0.0000 0.0000 -1.0000
usemtl m_303dfaa4-2a31-d1e6-395d-4d4d11980565
s 1
f 65/193/23 66/194/23 67/195/23 68/196/23
f 69/197/24 70/198/24 71/199/24 72/200/24
f 70/201/25 66/202/25 65/203/25 71/204/25
f 68/205/26 67/206/26 69/207/26 72/208/26
f 67/209/27 66/210/27 70/211/27 69/212/27
f 71/213/28 65/214/28 68/215/28 72/216/28
