# Blender v2.79 (sub 0) OBJ File: ''
# www.blender.org
mtllib intake_fi_modern.mtl
o filter_cover
v 0.218750 0.140625 0.000000
v 0.218750 0.140625 0.250000
v 0.218750 0.015625 0.250000
v 0.218750 0.015625 0.000000
v 0.156250 0.015625 0.312500
v 0.156250 0.140625 0.312500
v 0.156250 0.140625 -0.062500
v 0.156250 0.015625 -0.062500
vt 0.468750 0.906250
vt 0.343750 0.906250
vt 0.343750 0.843750
vt 0.468750 0.843750
vt 0.312500 0.843750
vt 0.312500 0.906250
vt 0.125000 0.906250
vt 0.125000 0.843750
vt 0.187500 0.343750
vt 0.218750 0.375000
vt 0.218750 0.500000
vt 0.187500 0.531250
vt 0.500000 0.656250
vt 0.500000 0.781250
vt 0.468750 0.812500
vt 0.468750 0.625000
vt 0.656250 0.406250
vt 0.656250 0.468750
vt 0.625000 0.468750
vt 0.625000 0.406250
vt 0.656250 0.375000
vt 0.625000 0.375000
vt 0.625000 0.312500
vt 0.656250 0.312500
vn 1.0000 0.0000 0.0000
vn -1.0000 0.0000 0.0000
vn 0.0000 1.0000 0.0000
vn 0.0000 -1.0000 -0.0000
vn 0.7071 0.0000 0.7071
vn 0.7071 0.0000 -0.7071
usemtl m_b6ad936c-df17-0fe4-7a3f-b828c488d29c
s 1
f 1/1/1 2/2/1 3/3/1 4/4/1
f 5/5/2 6/6/2 7/7/2 8/8/2
f 6/9/3 2/10/3 1/11/3 7/12/3
f 4/13/4 3/14/4 5/15/4 8/16/4
f 3/17/5 2/18/5 6/19/5 5/20/5
f 7/21/6 1/22/6 4/23/6 8/24/6
o filter
v 0.171875 0.125000 -0.046875
v 0.171875 0.125000 0.296875
v 0.171875 0.031250 0.296875
v 0.171875 0.031250 -0.046875
v 0.140625 0.031250 0.296875
v 0.140625 0.125000 0.296875
v 0.140625 0.125000 -0.046875
v 0.140625 0.031250 -0.046875
vt 0.187500 0.812500
vt 0.000000 0.812500
vt 0.000000 0.750000
vt 0.187500 0.750000
vt 0.406250 0.750000
vt 0.406250 0.812500
vt 0.218750 0.812500
vt 0.218750 0.750000
vt 0.468750 0.406250
vt 0.500000 0.406250
vt 0.500000 0.593750
vt 0.468750 0.593750
vt 0.031250 0.312500
vt 0.031250 0.500000
vt 0.000000 0.500000
vt 0.000000 0.312500
vt 0.156250 0.250000
vt 0.156250 0.312500
vt 0.125000 0.312500
vt 0.125000 0.250000
vt 0.218750 0.312500
vt 0.187500 0.312500
vt 0.187500 0.250000
vt 0.218750 0.250000
vn 1.0000 0.0000 0.0000
vn -1.0000 0.0000 0.0000
vn 0.0000 1.0000 0.0000
vn 0.0000 -1.0000 -0.0000
vn 0.0000 0.0000 1.0000
vn 0.0000 0.0000 -1.0000
usemtl m_b6ad936c-df17-0fe4-7a3f-b828c488d29c
s 1
f 9/25/7 10/26/7 11/27/7 12/28/7
f 13/29/8 14/30/8 15/31/8 16/32/8
f 14/33/9 10/34/9 9/35/9 15/36/9
f 12/37/10 11/38/10 13/39/10 16/40/10
f 11/41/11 10/42/11 14/43/11 13/44/11
f 15/45/12 9/46/12 12/47/12 16/48/12
o cuboid
v 0.046875 0.031250 -0.046875
v 0.046875 0.031250 0.046875
v 0.062500 -0.000000 0.062500
v 0.062500 0.000000 -0.062500
v -0.062500 -0.000000 0.062500
v -0.046875 0.031250 0.046875
v -0.046875 0.031250 -0.046875
v -0.062500 0.000000 -0.062500
v 0.062500 0.109375 -0.062500
v 0.062500 0.109375 0.125000
v 0.062500 0.015625 0.187500
v 0.062500 0.015625 -0.062500
v -0.125000 0.015625 0.187500
v -0.125000 0.109375 0.125000
v -0.125000 0.109375 -0.062500
v -0.125000 0.015625 -0.062500
v 0.156250 0.140625 -0.062500
v 0.156250 0.140625 0.312500
v 0.156250 0.015625 0.312500
v 0.156250 0.015625 -0.062500
v 0.093750 0.015625 0.250000
v 0.093750 0.140625 0.250000
v 0.093750 0.140625 0.000000
v 0.093750 0.015625 0.000000
v 0.125000 0.109375 0.242188
v 0.156250 0.109375 0.304688
v 0.156250 0.046875 0.304688
v 0.125000 0.046875 0.242188
v 0.062500 0.046875 0.304688
v 0.062500 0.109375 0.304688
v 0.062500 0.109375 0.242188
v 0.062500 0.046875 0.242188
v 0.031250 0.093750 -0.093750
v 0.031250 0.093750 -0.031250
v 0.031250 0.031250 -0.031250
v 0.031250 0.031250 -0.093750
v -0.093750 0.031250 -0.031250
v -0.093750 0.093750 -0.031250
v -0.093750 0.093750 -0.093750
v -0.093750 0.031250 -0.093750
v 0.062500 0.109375 0.242188
v 0.062500 0.109375 0.304688
v 0.062500 0.046875 0.304688
v 0.062500 0.046875 0.242188
v -0.125000 0.031250 0.304688
v -0.125000 0.093750 0.304688
v -0.125000 0.093750 0.242188
v -0.125000 0.031250 0.242188
v 0.046875 0.117187 0.234375
v 0.046875 0.117187 0.312500
v 0.046875 0.039062 0.312500
v 0.046875 0.039062 0.234375
v -0.015625 0.031250 0.312500
v -0.015625 0.109375 0.312500
v -0.015625 0.109375 0.234375
v -0.015625 0.031250 0.234375
v -0.125000 0.109375 -0.062500
v -0.125000 0.109375 0.187500
v -0.125000 0.015625 0.187500
v -0.125000 0.015625 -0.062500
v -0.187500 0.015625 0.187500
v -0.187500 0.109375 0.187500
v -0.187500 0.109375 0.000000
v -0.187500 0.015625 0.000000
v -0.125000 0.093750 0.187500
v -0.125000 0.093750 0.304688
v -0.125000 0.031250 0.304688
v -0.125000 0.031250 0.187500
v -0.187500 0.031250 0.250000
v -0.187500 0.093750 0.250000
v -0.187500 0.093750 0.187500
v -0.187500 0.031250 0.187500
v -0.093750 0.039333 0.172281
v 0.031250 0.039333 0.172281
v 0.031250 0.086208 0.141031
v -0.093750 0.086208 0.141031
vt 0.648438 0.937500
vt 0.601562 0.937500
vt 0.593750 0.906250
vt 0.656250 0.906250
vt 0.656250 0.843750
vt 0.648438 0.875000
vt 0.601562 0.875000
vt 0.593750 0.843750
vt 0.500000 0.937500
vt 0.562500 0.937500
vt 0.562500 1.000000
vt 0.500000 1.000000
vt 0.562500 0.843750
vt 0.562500 0.906250
vt 0.500000 0.906250
vt 0.500000 0.843750
vt 0.593750 0.406250
vt 0.585938 0.437500
vt 0.539062 0.437500
vt 0.531250 0.406250
vt 0.648438 1.000000
vt 0.601562 1.000000
vt 0.593750 0.968750
vt 0.656250 0.968750
vt 0.250000 0.718750
vt 0.156250 0.718750
vt 0.125000 0.656250
vt 0.250000 0.656250
vt 0.406250 0.656250
vt 0.375000 0.718750
vt 0.281250 0.718750
vt 0.281250 0.656250
vt 0.000000 0.625000
vt 0.093750 0.625000
vt 0.093750 0.718750
vt 0.000000 0.718750
vt 0.093750 0.875000
vt 0.093750 1.000000
vt 0.000000 1.000000
vt 0.000000 0.875000
vt 0.093750 0.531250
vt 0.093750 0.593750
vt 0.000000 0.593750
vt 0.000000 0.531250
vt 0.375000 0.625000
vt 0.281250 0.625000
vt 0.281250 0.562500
vt 0.375000 0.562500
vt 0.312500 1.000000
vt 0.125000 1.000000
vt 0.125000 0.937500
vt 0.312500 0.937500
vt 0.468750 0.937500
vt 0.468750 1.000000
vt 0.343750 1.000000
vt 0.343750 0.937500
vt 0.406250 0.468750
vt 0.437500 0.437500
vt 0.437500 0.625000
vt 0.406250 0.593750
vt 0.156250 0.343750
vt 0.156250 0.531250
vt 0.125000 0.500000
vt 0.125000 0.375000
vt 0.625000 0.750000
vt 0.625000 0.812500
vt 0.593750 0.812500
vt 0.593750 0.750000
vt 0.406250 0.406250
vt 0.375000 0.406250
vt 0.375000 0.343750
vt 0.406250 0.343750
vt 0.718750 0.500000
vt 0.687500 0.500000
vt 0.687500 0.468750
vt 0.718750 0.468750
vt 0.718750 0.531250
vt 0.718750 0.562500
vt 0.687500 0.562500
vt 0.687500 0.531250
vt 0.695312 0.687500
vt 0.742188 0.687500
vt 0.726562 0.718750
vt 0.695312 0.718750
vt 0.351562 0.281250
vt 0.367188 0.312500
vt 0.320312 0.312500
vt 0.320312 0.281250
vt 0.656250 0.687500
vt 0.656250 0.718750
vt 0.593750 0.718750
vt 0.593750 0.687500
vt 0.500000 0.312500
vt 0.468750 0.312500
vt 0.468750 0.281250
vt 0.500000 0.281250
vt 0.562500 0.312500
vt 0.531250 0.312500
vt 0.531250 0.281250
vt 0.562500 0.281250
vt 0.718750 0.406250
vt 0.718750 0.437500
vt 0.687500 0.437500
vt 0.687500 0.406250
vt 0.593750 0.562500
vt 0.656250 0.562500
vt 0.656250 0.593750
vt 0.593750 0.593750
vt 0.656250 0.500000
vt 0.656250 0.531250
vt 0.593750 0.531250
vt 0.593750 0.500000
vt 0.500000 0.343750
vt 0.500000 0.375000
vt 0.437500 0.375000
vt 0.437500 0.343750
vt 0.593750 0.375000
vt 0.531250 0.375000
vt 0.531250 0.343750
vt 0.593750 0.343750
vt 0.718750 0.375000
vt 0.687500 0.375000
vt 0.687500 0.343750
vt 0.718750 0.343750
vt 0.718750 0.281250
vt 0.718750 0.312500
vt 0.687500 0.312500
vt 0.687500 0.281250
vt 0.281250 0.343750
vt 0.281250 0.437500
vt 0.250000 0.437500
vt 0.250000 0.343750
vt 0.343750 0.437500
vt 0.312500 0.437500
vt 0.312500 0.343750
vt 0.343750 0.343750
vt 0.639490 0.625000
vt 0.642085 0.656250
vt 0.548010 0.656250
vt 0.545415 0.625000
vt 0.562500 0.499675
vt 0.562500 0.593750
vt 0.531250 0.591155
vt 0.531250 0.497080
vt 0.031250 0.281250
vt 0.000000 0.281250
vt 0.000000 0.250000
vt 0.031250 0.250000
vt 0.750000 0.812500
vt 0.750000 0.843750
vt 0.718750 0.843750
vt 0.718750 0.812500
vt 0.750000 0.750000
vt 0.750000 0.781250
vt 0.718750 0.781250
vt 0.718750 0.750000
vt 0.625000 0.281250
vt 0.593750 0.281250
vt 0.593750 0.250000
vt 0.625000 0.250000
vt 0.718750 0.609375
vt 0.718750 0.648438
vt 0.687500 0.644531
vt 0.687500 0.605469
vt 0.437500 0.300781
vt 0.406250 0.304688
vt 0.406250 0.265625
vt 0.437500 0.261719
vt 0.250000 0.625000
vt 0.125000 0.625000
vt 0.125000 0.562500
vt 0.250000 0.562500
vt 0.343750 0.468750
vt 0.343750 0.531250
vt 0.250000 0.531250
vt 0.250000 0.468750
vt 0.062500 0.375000
vt 0.093750 0.375000
vt 0.093750 0.500000
vt 0.062500 0.468750
vt 0.562500 0.687500
vt 0.562500 0.812500
vt 0.531250 0.812500
vt 0.531250 0.718750
vt 0.093750 0.281250
vt 0.093750 0.343750
vt 0.062500 0.343750
vt 0.062500 0.281250
vt 0.687500 0.812500
vt 0.656250 0.812500
vt 0.656250 0.750000
vt 0.687500 0.750000
vt 0.750000 1.000000
vt 0.687500 1.000000
vt 0.687500 0.968750
vt 0.750000 0.968750
vt 0.093750 0.218750
vt 0.093750 0.250000
vt 0.062500 0.250000
vt 0.062500 0.218750
vt 0.250000 0.281250
vt 0.281250 0.253906
vt 0.281250 0.312500
vt 0.250000 0.312500
vt 0.718750 0.875000
vt 0.718750 0.937500
vt 0.687500 0.910156
vt 0.687500 0.875000
vt 0.343750 0.218750
vt 0.343750 0.250000
vt 0.312500 0.250000
vt 0.312500 0.218750
vt 0.781250 0.937500
vt 0.750000 0.937500
vt 0.750000 0.906250
vt 0.781250 0.906250
vt 0.531250 0.000000
vt 1.000000 0.000000
vt 1.000000 0.218750
vt 0.531250 0.218750
vn 0.8944 0.4472 0.0000
vn -0.8944 0.4472 0.0000
vn 0.0000 1.0000 0.0000
vn 0.0000 -1.0000 -0.0000
vn 0.0000 0.4472 0.8944
vn 0.0000 0.4472 -0.8944
vn 1.0000 0.0000 0.0000
vn -1.0000 -0.0000 0.0000
vn 0.0000 0.5547 0.8321
vn 0.0000 0.0000 -1.0000
vn -0.7071 0.0000 0.7071
vn -0.7071 0.0000 -0.7071
vn 0.8944 0.0000 -0.4472
vn 0.0000 0.0000 1.0000
vn -0.0830 0.9965 0.0000
vn 0.0830 -0.9965 -0.0000
vn -0.1240 0.9923 0.0000
vn 0.1240 -0.9923 -0.0000
vn -0.6585 0.0000 0.7526
usemtl m_b6ad936c-df17-0fe4-7a3f-b828c488d29c
s 1
f 17/49/13 18/50/13 19/51/13 20/52/13
f 21/53/14 22/54/14 23/55/14 24/56/14
f 22/57/15 18/58/15 17/59/15 23/60/15
f 20/61/16 19/62/16 21/63/16 24/64/16
f 19/65/17 18/66/17 22/67/17 21/68/17
f 23/69/18 17/70/18 20/71/18 24/72/18
f 25/73/19 26/74/19 27/75/19 28/76/19
f 29/77/20 30/78/20 31/79/20 32/80/20
f 30/81/15 26/82/15 25/83/15 31/84/15
f 28/85/16 27/86/16 29/87/16 32/88/16
f 27/89/21 26/90/21 30/91/21 29/92/21
f 31/93/22 25/94/22 28/95/22 32/96/22
f 33/97/19 34/98/19 35/99/19 36/100/19
f 37/101/20 38/102/20 39/103/20 40/104/20
f 38/105/15 34/106/15 33/107/15 39/108/15
f 36/109/16 35/110/16 37/111/16 40/112/16
f 35/113/23 34/114/23 38/115/23 37/116/23
f 39/117/24 33/118/24 36/119/24 40/120/24
f 41/121/25 42/122/25 43/123/25 44/124/25
f 45/125/20 46/126/20 47/127/20 48/128/20
f 46/129/15 42/130/15 41/131/15 47/132/15
f 44/133/16 43/134/16 45/135/16 48/136/16
f 43/137/26 42/138/26 46/139/26 45/140/26
f 47/141/22 41/142/22 44/143/22 48/144/22
f 49/145/19 50/146/19 51/147/19 52/148/19
f 53/149/20 54/150/20 55/151/20 56/152/20
f 54/153/15 50/154/15 49/155/15 55/156/15
f 52/157/16 51/158/16 53/159/16 56/160/16
f 51/161/26 50/162/26 54/163/26 53/164/26
f 55/165/22 49/166/22 52/167/22 56/168/22
f 57/169/19 58/170/19 59/171/19 60/172/19
f 61/173/20 62/174/20 63/175/20 64/176/20
f 62/177/27 58/178/27 57/179/27 63/180/27
f 60/181/28 59/182/28 61/183/28 64/184/28
f 59/185/26 58/186/26 62/187/26 61/188/26
f 63/189/22 57/190/22 60/191/22 64/192/22
f 65/193/19 66/194/19 67/195/19 68/196/19
f 69/197/20 70/198/20 71/199/20 72/200/20
f 70/201/29 66/202/29 65/203/29 71/204/29
f 68/205/30 67/206/30 69/207/30 72/208/30
f 67/209/26 66/210/26 70/211/26 69/212/26
f 71/213/22 65/214/22 68/215/22 72/216/22
f 73/217/19 74/218/19 75/219/19 76/220/19
f 77/221/20 78/222/20 79/223/20 80/224/20
f 78/225/15 74/226/15 73/227/15 79/228/15
f 76/229/16 75/230/16 77/231/16 80/232/16
f 75/233/26 74/234/26 78/235/26 77/236/26
f 79/237/24 73/238/24 76/239/24 80/240/24
f 81/241/19 82/242/19 83/243/19 84/244/19
f 85/245/20 86/246/20 87/247/20 88/248/20
f 86/249/15 82/250/15 81/251/15 87/252/15
f 84/253/16 83/254/16 85/255/16 88/256/16
f 83/257/31 82/258/31 86/259/31 85/260/31
f 87/261/22 81/262/22 84/263/22 88/264/22
f 89/265/21 90/266/21 91/267/21 92/268/21
