# Blender v2.79 (sub 0) OBJ File: ''
# www.blender.org
mtllib kristiina_bumperfront.mtl
o $Bumper_Front
v 0.000000 0.187478 -0.023438
v 0.000000 0.187478 0.093750
v 0.609375 0.187478 0.023438
v 0.609375 0.187478 -0.093750
v 0.640625 0.156228 -0.101562
v 0.640625 0.156228 0.054688
v 0.000000 0.156228 0.125000
v 0.000000 0.156228 -0.031250
v 0.000000 0.156228 -0.031250
v 0.000000 0.156228 0.125000
v 0.640625 0.156228 0.054688
v 0.640625 0.156228 -0.101562
v 0.640625 0.124978 -0.101562
v 0.640625 0.124978 0.023438
v 0.000000 0.124978 0.093750
v 0.000000 0.124978 -0.031250
v -0.640625 0.156228 0.054688
v 0.000000 0.156228 0.125000
v 0.000000 0.156228 -0.031250
v -0.640625 0.156228 -0.101562
v 0.000000 0.124978 0.093750
v -0.640625 0.124978 0.023438
v -0.640625 0.124978 -0.101562
v 0.000000 0.124978 -0.031250
v -0.562500 -0.031272 -0.312500
v -0.562500 -0.031272 -0.125000
v 0.562500 -0.031272 -0.125000
v 0.562500 -0.031272 -0.312500
v 0.562500 -0.093772 -0.312500
v 0.562500 -0.093772 -0.125000
v -0.562500 -0.093772 -0.125000
v -0.562500 -0.093772 -0.312500
v 0.687500 -0.031272 -0.312500
v 0.687500 -0.031272 -0.125000
v 1.000000 -0.031272 -0.234375
v 1.000000 -0.031272 -0.296875
v 1.000000 -0.093772 -0.296875
v 1.000000 -0.093772 -0.234375
v 0.687500 -0.093772 -0.125000
v 0.687500 -0.093772 -0.312500
v -1.000000 -0.031272 -0.296875
v -1.000000 -0.031272 -0.234375
v -0.687500 -0.031272 -0.125000
v -0.687500 -0.031272 -0.312500
v -0.687500 -0.093772 -0.312500
v -0.687500 -0.093772 -0.125000
v -1.000000 -0.093772 -0.234375
v -1.000000 -0.093772 -0.296875
v 0.546875 0.124978 -0.093750
v 0.546875 0.124978 0.031250
v 1.281250 0.124978 -0.023438
v 1.281250 0.124978 -0.187500
v 1.281250 -0.000022 -0.187500
v 1.281250 -0.000022 0.000000
v 0.546875 -0.000022 0.093750
v 0.546875 -0.000022 -0.093750
v 0.546875 -0.000022 -0.093750
v 0.546875 -0.000022 0.093750
v 1.281250 -0.000022 0.000000
v 1.281250 -0.000022 -0.187500
v 1.281250 -0.062522 -0.187500
v 1.281250 -0.062522 -0.062500
v 0.609375 -0.062522 0.031250
v 0.609375 -0.062522 -0.093750
v 1.281250 0.187478 -0.531250
v 1.281250 0.187478 -0.187500
v 1.375000 0.187478 -0.187500
v 1.375000 0.187478 -0.531250
v 1.406250 -0.000022 -0.500000
v 1.406250 -0.000022 -0.140625
v 1.281250 -0.000022 -0.187500
v 1.281250 -0.000022 -0.500000
v 1.281250 -0.000022 -0.500000
v 1.281250 -0.000022 -0.187500
v 1.406250 -0.000022 -0.140625
v 1.406250 -0.000022 -0.500000
v 1.375000 -0.062522 -0.500000
v 1.375000 -0.062522 -0.187500
v 1.281250 -0.062522 -0.187500
v 1.281250 -0.062522 -0.500000
v 1.281250 -0.000022 -0.187500
v 1.281250 -0.000022 0.000000
v 1.406250 -0.000022 -0.140625
v 1.375000 -0.000022 -0.187500
v 1.375000 -0.062522 -0.187500
v 1.375000 -0.062522 -0.187500
v 1.281250 -0.062522 -0.062500
v 1.281250 -0.062522 -0.187500
v 1.281250 0.187478 -0.187500
v 1.281250 0.187478 -0.031250
v 1.375000 0.187478 -0.156250
v 1.375000 0.187478 -0.187500
v 1.375000 -0.000022 -0.187500
v 1.406250 -0.000022 -0.140625
v 1.281250 -0.000022 0.000000
v 1.281250 -0.000022 -0.187500
v -1.281250 0.124978 -0.023438
v -0.546875 0.124978 0.031250
v -0.546875 0.124978 -0.093750
v -1.281250 0.124978 -0.187500
v -0.546875 -0.000022 0.093750
v -1.281250 -0.000022 0.000000
v -1.281250 -0.000022 -0.187500
v -0.546875 -0.000022 -0.093750
v -1.281250 -0.000022 0.000000
v -0.546875 -0.000022 0.093750
v -0.546875 -0.000022 -0.093750
v -1.281250 -0.000022 -0.187500
v -0.609375 -0.062522 0.031250
v -1.281250 -0.062522 -0.062500
v -1.281250 -0.062522 -0.187500
v -0.609375 -0.062522 -0.093750
v -1.375000 0.187478 -0.187500
v -1.281250 0.187478 -0.187500
v -1.281250 0.187478 -0.531250
v -1.375000 0.187478 -0.531250
v -1.281250 -0.000022 -0.187500
v -1.406250 -0.000022 -0.140625
v -1.406250 -0.000022 -0.500000
v -1.281250 -0.000022 -0.500000
v -1.406250 -0.000022 -0.140625
v -1.281250 -0.000022 -0.187500
v -1.281250 -0.000022 -0.500000
v -1.406250 -0.000022 -0.500000
v -1.281250 -0.062522 -0.187500
v -1.375000 -0.062522 -0.187500
v -1.375000 -0.062522 -0.500000
v -1.281250 -0.062522 -0.500000
v -1.406250 -0.000022 -0.140625
v -1.281250 -0.000022 0.000000
v -1.281250 -0.000022 -0.187500
v -1.375000 -0.000022 -0.187500
v -1.375000 -0.062522 -0.187500
v -1.375000 -0.062522 -0.187500
v -1.281250 -0.062522 -0.062500
v -1.281250 -0.062522 -0.187500
v -1.375000 0.187478 -0.156250
v -1.281250 0.187478 -0.031250
v -1.281250 0.187478 -0.187500
v -1.375000 0.187478 -0.187500
v -1.281250 -0.000022 0.000000
v -1.406250 -0.000022 -0.140625
v -1.375000 -0.000022 -0.187500
v -1.281250 -0.000022 -0.187500
v -0.609375 0.187478 0.023438
v 0.000000 0.187478 0.093750
v 0.000000 0.187478 -0.023438
v -0.609375 0.187478 -0.093750
v 0.000000 0.156228 0.125000
v -0.640625 0.156228 0.054688
v -0.640625 0.156228 -0.101562
v 0.000000 0.156228 -0.031250
vt 0.888672 0.814453
vt 0.890625 0.814453
vt 0.890625 0.841797
vt 0.888672 0.841797
vt 0.890625 0.814453
vt 0.892578 0.814453
vt 0.892578 0.841797
vt 0.890625 0.841797
vt 0.888672 0.810547
vt 0.890625 0.810547
vt 0.919922 0.814453
vt 0.917969 0.814453
vt 0.917969 0.810547
vt 0.919922 0.810547
vt 0.861328 0.814453
vt 0.861328 0.810547
vt 0.888672 0.814453
vt 0.890625 0.814453
vt 0.890625 0.841797
vt 0.888672 0.841797
vt 0.890625 0.814453
vt 0.892578 0.814453
vt 0.892578 0.841797
vt 0.890625 0.841797
vt 0.888672 0.810547
vt 0.890625 0.810547
vt 0.919922 0.814453
vt 0.917969 0.814453
vt 0.917969 0.810547
vt 0.919922 0.810547
vt 0.861328 0.814453
vt 0.861328 0.810547
vt 0.890625 0.841797
vt 0.890625 0.814453
vt 0.888672 0.814453
vt 0.888672 0.841797
vt 0.892578 0.841797
vt 0.892578 0.814453
vt 0.890625 0.814453
vt 0.890625 0.841797
vt 0.888672 0.810547
vt 0.890625 0.810547
vt 0.917969 0.810547
vt 0.917969 0.814453
vt 0.919922 0.814453
vt 0.919922 0.810547
vt 0.861328 0.810547
vt 0.861328 0.814453
vt 0.740234 0.634766
vt 0.746094 0.634766
vt 0.746094 0.669922
vt 0.740234 0.669922
vt 0.746094 0.634766
vt 0.751953 0.634766
vt 0.751953 0.669922
vt 0.746094 0.669922
vt 0.740234 0.632812
vt 0.746094 0.632812
vt 0.787109 0.634766
vt 0.781250 0.634766
vt 0.781250 0.632812
vt 0.787109 0.632812
vt 0.705078 0.634766
vt 0.705078 0.632812
vt 0.740234 0.634766
vt 0.746094 0.634766
vt 0.746094 0.644531
vt 0.740234 0.644531
vt 0.746094 0.634766
vt 0.751953 0.634766
vt 0.751953 0.644531
vt 0.746094 0.644531
vt 0.740234 0.632812
vt 0.746094 0.632812
vt 0.761719 0.634766
vt 0.755859 0.634766
vt 0.755859 0.632812
vt 0.761719 0.632812
vt 0.730469 0.634766
vt 0.730469 0.632812
vt 0.740234 0.634766
vt 0.746094 0.634766
vt 0.746094 0.644531
vt 0.740234 0.644531
vt 0.746094 0.634766
vt 0.751953 0.634766
vt 0.751953 0.644531
vt 0.746094 0.644531
vt 0.740234 0.632812
vt 0.746094 0.632812
vt 0.761719 0.634766
vt 0.755859 0.634766
vt 0.755859 0.632812
vt 0.761719 0.632812
vt 0.730469 0.634766
vt 0.730469 0.632812
vt 0.888672 0.814453
vt 0.890625 0.814453
vt 0.890625 0.841797
vt 0.888672 0.841797
vt 0.890625 0.814453
vt 0.892578 0.814453
vt 0.892578 0.841797
vt 0.890625 0.841797
vt 0.888672 0.810547
vt 0.890625 0.810547
vt 0.919922 0.814453
vt 0.917969 0.814453
vt 0.917969 0.810547
vt 0.919922 0.810547
vt 0.861328 0.814453
vt 0.861328 0.810547
vt 0.419922 0.876953
vt 0.421875 0.876953
vt 0.421875 0.904297
vt 0.419922 0.904297
vt 0.421875 0.876953
vt 0.423828 0.876953
vt 0.423828 0.904297
vt 0.421875 0.904297
vt 0.419922 0.875000
vt 0.421875 0.875000
vt 0.451172 0.876953
vt 0.449219 0.876953
vt 0.449219 0.875000
vt 0.451172 0.875000
vt 0.392578 0.876953
vt 0.392578 0.875000
vt 0.365234 0.900391
vt 0.378906 0.900391
vt 0.378906 0.904297
vt 0.365234 0.904297
vt 0.378906 0.900391
vt 0.392578 0.900391
vt 0.392578 0.904297
vt 0.378906 0.904297
vt 0.365234 0.896484
vt 0.378906 0.896484
vt 0.396484 0.900391
vt 0.382812 0.900391
vt 0.382812 0.896484
vt 0.396484 0.896484
vt 0.361328 0.900391
vt 0.361328 0.896484
vt 0.380859 0.869141
vt 0.394531 0.869141
vt 0.394531 0.873047
vt 0.380859 0.873047
vt 0.394531 0.869141
vt 0.408203 0.869141
vt 0.408203 0.873047
vt 0.394531 0.873047
vt 0.380859 0.867188
vt 0.394531 0.867188
vt 0.412109 0.869141
vt 0.398438 0.869141
vt 0.398438 0.867188
vt 0.412109 0.867188
vt 0.376953 0.869141
vt 0.376953 0.867188
vt 0.410156 0.880859
vt 0.412109 0.880859
vt 0.412109 0.884766
vt 0.410156 0.884766
vt 0.412109 0.880859
vt 0.414062 0.880859
vt 0.414062 0.884766
vt 0.412109 0.884766
vt 0.410156 0.878906
vt 0.412109 0.878906
vt 0.417969 0.880859
vt 0.416016 0.880859
vt 0.416016 0.878906
vt 0.417969 0.878906
vt 0.406250 0.880859
vt 0.406250 0.878906
vt 0.128906 0.878906
vt 0.130859 0.878906
vt 0.130859 0.882812
vt 0.128906 0.882812
vt 0.130859 0.878906
vt 0.132812 0.878906
vt 0.132812 0.882812
vt 0.130859 0.882812
vt 0.128906 0.875000
vt 0.130859 0.875000
vt 0.136719 0.878906
vt 0.134766 0.878906
vt 0.134766 0.875000
vt 0.136719 0.875000
vt 0.125000 0.878906
vt 0.125000 0.875000
vt 0.890625 0.841797
vt 0.890625 0.814453
vt 0.888672 0.814453
vt 0.888672 0.841797
vt 0.892578 0.841797
vt 0.892578 0.814453
vt 0.890625 0.814453
vt 0.890625 0.841797
vt 0.888672 0.810547
vt 0.890625 0.810547
vt 0.917969 0.810547
vt 0.917969 0.814453
vt 0.919922 0.814453
vt 0.919922 0.810547
vt 0.861328 0.810547
vt 0.861328 0.814453
vt 0.421875 0.904297
vt 0.421875 0.876953
vt 0.419922 0.876953
vt 0.419922 0.904297
vt 0.423828 0.904297
vt 0.423828 0.876953
vt 0.421875 0.876953
vt 0.421875 0.904297
vt 0.419922 0.875000
vt 0.421875 0.875000
vt 0.449219 0.875000
vt 0.449219 0.876953
vt 0.451172 0.876953
vt 0.451172 0.875000
vt 0.392578 0.875000
vt 0.392578 0.876953
vt 0.378906 0.904297
vt 0.378906 0.900391
vt 0.365234 0.900391
vt 0.365234 0.904297
vt 0.392578 0.904297
vt 0.392578 0.900391
vt 0.378906 0.900391
vt 0.378906 0.904297
vt 0.365234 0.896484
vt 0.378906 0.896484
vt 0.382812 0.896484
vt 0.382812 0.900391
vt 0.396484 0.900391
vt 0.396484 0.896484
vt 0.361328 0.896484
vt 0.361328 0.900391
vt 0.394531 0.873047
vt 0.394531 0.869141
vt 0.380859 0.869141
vt 0.380859 0.873047
vt 0.408203 0.873047
vt 0.408203 0.869141
vt 0.394531 0.869141
vt 0.394531 0.873047
vt 0.380859 0.867188
vt 0.394531 0.867188
vt 0.398438 0.867188
vt 0.398438 0.869141
vt 0.412109 0.869141
vt 0.412109 0.867188
vt 0.376953 0.867188
vt 0.376953 0.869141
vt 0.412109 0.884766
vt 0.412109 0.880859
vt 0.410156 0.880859
vt 0.410156 0.884766
vt 0.414062 0.880859
vt 0.412109 0.880859
vt 0.414062 0.884766
vt 0.412109 0.884766
vt 0.410156 0.878906
vt 0.412109 0.878906
vt 0.416016 0.880859
vt 0.417969 0.880859
vt 0.416016 0.878906
vt 0.417969 0.878906
vt 0.406250 0.878906
vt 0.406250 0.880859
vt 0.130859 0.882812
vt 0.130859 0.878906
vt 0.128906 0.878906
vt 0.128906 0.882812
vt 0.132812 0.882812
vt 0.132812 0.878906
vt 0.130859 0.878906
vt 0.130859 0.882812
vt 0.128906 0.875000
vt 0.130859 0.875000
vt 0.134766 0.875000
vt 0.134766 0.878906
vt 0.136719 0.878906
vt 0.136719 0.875000
vt 0.125000 0.875000
vt 0.125000 0.878906
vt 0.890625 0.841797
vt 0.890625 0.814453
vt 0.888672 0.814453
vt 0.888672 0.841797
vt 0.892578 0.841797
vt 0.892578 0.814453
vt 0.890625 0.814453
vt 0.890625 0.841797
vt 0.888672 0.810547
vt 0.890625 0.810547
vt 0.917969 0.810547
vt 0.917969 0.814453
vt 0.919922 0.814453
vt 0.919922 0.810547
vt 0.861328 0.810547
vt 0.861328 0.814453
vn 0.0000 1.0000 0.0000
vn 0.0000 -1.0000 0.0000
vn -1.0000 0.0000 0.0000
vn 0.7071 0.7071 0.0000
vn 0.0813 0.7048 0.7048
vn -0.1136 0.1325 -0.9846
vn -0.1136 0.1326 -0.9846
vn 1.0000 0.0000 0.0000
vn 0.0774 -0.7050 0.7050
vn -0.1091 0.0000 -0.9940
vn -0.0774 -0.7050 0.7050
vn 0.1091 0.0000 -0.9940
vn 0.0000 0.0000 1.0000
vn 0.0000 0.0000 -1.0000
vn 0.3304 0.0000 0.9439
vn 0.0499 0.0000 -0.9988
vn -0.3304 0.0000 0.9439
vn -0.0499 0.0000 -0.9988
vn 0.0665 0.4462 0.8924
vn 0.0665 0.4462 0.8925
vn -0.1266 0.0000 -0.9919
vn -0.7071 -0.7071 -0.0000
vn 0.0958 -0.6543 0.7501
vn 0.0958 -0.6544 0.7501
vn -0.1266 0.0000 -0.9920
vn 0.9864 0.1644 0.0000
vn 0.0000 -0.1644 -0.9864
vn 0.8944 -0.4472 -0.0000
vn -0.3511 -0.0000 0.9363
vn 0.0000 -0.4933 -0.0000
vn 0.6675 -0.7423 -0.0582
vn -0.4129 -0.7920 0.4497
vn -0.5773 -0.5774 -0.5774
vn 0.8321 0.0000 -0.5547
vn 0.6225 -0.5534 0.5534
vn 0.7960 0.0995 0.5970
vn -0.0665 0.4462 0.8925
vn -0.0665 0.4462 0.8924
vn 0.1266 0.0000 -0.9919
vn 0.7071 -0.7071 -0.0000
vn -0.0958 -0.6544 0.7501
vn -0.0958 -0.6543 0.7501
vn 0.1266 0.0000 -0.9920
vn -0.9864 0.1644 0.0000
vn -0.8944 -0.4472 -0.0000
vn 0.3511 0.0000 0.9363
vn -0.8321 0.0000 -0.5547
vn -0.6225 -0.5534 0.5534
vn -0.7960 0.0995 0.5970
vn -0.7071 0.7071 0.0000
vn -0.0813 0.7048 0.7048
vn 0.1136 0.1325 -0.9846
vn 0.1136 0.1326 -0.9846
usemtl m_96345023-6d45-738d-b785-a6dfc2a80f57
s 1
f 1/1/1 2/2/1 3/3/1 4/4/1
f 5/5/2 6/6/2 7/7/2 8/8/2
f 2/2/3 1/1/3 8/9/3 7/10/3
f 4/11/4 3/12/4 6/13/4 5/14/4
f 3/12/5 2/2/5 7/10/5 6/13/5
f 1/1/6 4/15/6 5/16/6 8/9/7
f 9/17/1 10/18/1 11/19/1 12/20/1
f 13/21/2 14/22/2 15/23/2 16/24/2
f 10/18/3 9/17/3 16/25/3 15/26/3
f 12/27/8 11/28/8 14/29/8 13/30/8
f 11/28/9 10/18/9 15/26/9 14/29/9
f 9/17/10 12/31/10 13/32/10 16/25/10
f 17/33/1 18/34/1 19/35/1 20/36/1
f 21/37/2 22/38/2 23/39/2 24/40/2
f 24/41/8 19/35/8 18/34/8 21/42/8
f 22/43/3 17/44/3 20/45/3 23/46/3
f 21/42/11 18/34/11 17/44/11 22/43/11
f 23/47/12 20/48/12 19/35/12 24/41/12
f 25/49/1 26/50/1 27/51/1 28/52/1
f 29/53/2 30/54/2 31/55/2 32/56/2
f 26/50/3 25/49/3 32/57/3 31/58/3
f 28/59/8 27/60/8 30/61/8 29/62/8
f 27/60/13 26/50/13 31/58/13 30/61/13
f 25/49/14 28/63/14 29/64/14 32/57/14
f 33/65/1 34/66/1 35/67/1 36/68/1
f 37/69/2 38/70/2 39/71/2 40/72/2
f 34/66/3 33/65/3 40/73/3 39/74/3
f 36/75/8 35/76/8 38/77/8 37/78/8
f 35/76/15 34/66/15 39/74/15 38/77/15
f 33/65/16 36/79/16 37/80/16 40/73/16
f 41/81/1 42/82/1 43/83/1 44/84/1
f 45/85/2 46/86/2 47/87/2 48/88/2
f 42/82/3 41/81/3 48/89/3 47/90/3
f 44/91/8 43/92/8 46/93/8 45/94/8
f 43/92/17 42/82/17 47/90/17 46/93/17
f 41/81/18 44/95/18 45/96/18 48/89/18
f 49/97/1 50/98/1 51/99/1 52/100/1
f 53/101/2 54/102/2 55/103/2 56/104/2
f 50/98/3 49/97/3 56/105/3 55/106/3
f 52/107/8 51/108/8 54/109/8 53/110/8
f 51/108/19 50/98/19 55/106/20 54/109/19
f 49/97/21 52/111/21 53/112/21 56/105/21
f 57/113/1 58/114/1 59/115/1 60/116/1
f 61/117/2 62/118/2 63/119/2 64/120/2
f 58/114/22 57/113/22 64/121/22 63/122/22
f 60/123/8 59/124/8 62/125/8 61/126/8
f 59/124/23 58/114/24 63/122/24 62/125/23
f 57/113/21 60/127/25 61/128/21 64/121/21
f 65/129/1 66/130/1 67/131/1 68/132/1
f 69/133/2 70/134/2 71/135/2 72/136/2
f 66/130/3 65/129/3 72/137/3 71/138/3
f 68/139/26 67/140/26 70/141/26 69/142/26
f 67/140/13 66/130/13 71/138/13 70/141/13
f 65/129/27 68/143/27 69/144/27 72/137/27
f 73/145/1 74/146/1 75/147/1 76/148/1
f 77/149/2 78/150/2 79/151/2 80/152/2
f 74/146/3 73/145/3 80/153/3 79/154/3
f 76/155/28 75/156/28 78/157/28 77/158/28
f 75/156/29 74/146/29 79/154/29 78/157/29
f 73/145/14 76/159/14 77/160/14 80/153/14
f 81/161/1 82/162/1 83/163/1 84/164/1
f 85/165/30 86/166/31 87/167/32 88/168/33
f 82/162/3 81/161/3 88/169/3 87/170/3
f 84/171/34 83/172/34 86/173/34 85/174/34
f 83/172/35 82/162/35 87/170/35 86/173/35
f 81/161/14 84/175/14 85/176/14 88/169/14
f 89/177/1 90/178/1 91/179/1 92/180/1
f 93/181/2 94/182/2 95/183/2 96/184/2
f 90/178/3 89/177/3 96/185/3 95/186/3
f 92/187/26 91/188/26 94/189/26 93/190/26
f 91/188/36 90/178/36 95/186/36 94/189/36
f 89/177/14 92/191/14 93/192/14 96/185/14
f 97/193/1 98/194/1 99/195/1 100/196/1
f 101/197/2 102/198/2 103/199/2 104/200/2
f 104/201/8 99/195/8 98/194/8 101/202/8
f 102/203/3 97/204/3 100/205/3 103/206/3
f 101/202/37 98/194/38 97/204/38 102/203/38
f 103/207/39 100/208/39 99/195/39 104/201/39
f 105/209/1 106/210/1 107/211/1 108/212/1
f 109/213/2 110/214/2 111/215/2 112/216/2
f 112/217/40 107/211/40 106/210/40 109/218/40
f 110/219/3 105/220/3 108/221/3 111/222/3
f 109/218/41 106/210/41 105/220/42 110/219/42
f 111/223/39 108/224/43 107/211/39 112/217/39
f 113/225/1 114/226/1 115/227/1 116/228/1
f 117/229/2 118/230/2 119/231/2 120/232/2
f 120/233/8 115/227/8 114/226/8 117/234/8
f 118/235/44 113/236/44 116/237/44 119/238/44
f 117/234/13 114/226/13 113/236/13 118/235/13
f 119/239/27 116/240/27 115/227/27 120/233/27
f 121/241/1 122/242/1 123/243/1 124/244/1
f 125/245/2 126/246/2 127/247/2 128/248/2
f 128/249/8 123/243/8 122/242/8 125/250/8
f 126/251/45 121/252/45 124/253/45 127/254/45
f 125/250/46 122/242/46 121/252/46 126/251/46
f 127/255/14 124/256/14 123/243/14 128/249/14
f 129/257/1 130/258/1 131/259/1 132/260/1
f 133/261/1 134/262/1 135/263/1 136/264/1
f 136/265/8 131/259/8 130/258/8 135/266/8
f 129/267/47 132/268/47 133/269/47 134/270/47
f 135/266/48 130/258/48 129/267/48 133/269/48
f 134/271/14 132/272/14 131/259/14 136/265/14
f 137/273/1 138/274/1 139/275/1 140/276/1
f 141/277/2 142/278/2 143/279/2 144/280/2
f 144/281/8 139/275/8 138/274/8 141/282/8
f 142/283/44 137/284/44 140/285/44 143/286/44
f 141/282/49 138/274/49 137/284/49 142/283/49
f 143/287/14 140/288/14 139/275/14 144/281/14
f 145/289/1 146/290/1 147/291/1 148/292/1
f 149/293/2 150/294/2 151/295/2 152/296/2
f 152/297/8 147/291/8 146/290/8 149/298/8
f 150/299/50 145/300/50 148/301/50 151/302/50
f 149/298/51 146/290/51 145/300/51 150/299/51
f 151/303/52 148/304/52 147/291/52 152/297/53
