# Blender v2.79 (sub 0) OBJ File: ''
# www.blender.org
mtllib machinegun.mtl
o hudModel
v 0.000977 -0.000977 -0.000977
v -0.000977 -0.000977 -0.000977
v -0.000977 0.000977 -0.000977
v 0.000977 0.000977 -0.000977
v 0.000977 -0.000977 0.000977
v 0.000977 0.000977 0.000977
v -0.000977 -0.000977 0.000977
v -0.000977 0.000977 0.000977
vt 0.937500 0.000000
vt 1.000000 0.000000
vt 1.000000 0.062500
vt 0.937500 0.062500
vt 0.937500 0.000000
vt 1.000000 0.000000
vt 1.000000 0.062500
vt 0.937500 0.062500
vt 0.937500 0.000000
vt 1.000000 0.000000
vt 1.000000 0.062500
vt 0.937500 0.062500
vt 0.937500 0.000000
vt 1.000000 0.000000
vt 1.000000 0.062500
vt 0.937500 0.062500
vt 0.937500 0.000000
vt 1.000000 0.000000
vt 1.000000 0.062500
vt 0.937500 0.062500
vn 0.0000 0.0000 -1.0000
vn 1.0000 0.0000 0.0000
vn 0.0000 -0.0000 1.0000
vn -1.0000 0.0000 0.0000
vn 0.0000 1.0000 0.0000
vn 0.0000 -1.0000 -0.0000
usemtl none
s 1
f 1/1/1 2/2/1 3/3/1 4/4/1
f 5/5/2 1/6/2 4/7/2 6/8/2
f 7/9/3 5/10/3 6/11/3 8/12/3
f 2/13/4 7/14/4 8/15/4 3/16/4
f 8/17/5 6/18/5 4/7/5 3/16/5
f 2/13/6 1/6/6 5/19/6 7/20/6
o hudReloadModel
v 0.000977 -0.000977 -0.000977
v -0.000977 -0.000977 -0.000977
v -0.000977 0.000977 -0.000977
v 0.000977 0.000977 -0.000977
v 0.000977 -0.000977 0.000977
v 0.000977 0.000977 0.000977
v -0.000977 -0.000977 0.000977
v -0.000977 0.000977 0.000977
vt 0.937500 0.000000
vt 1.000000 0.000000
vt 1.000000 0.062500
vt 0.937500 0.062500
vt 0.937500 0.000000
vt 1.000000 0.000000
vt 1.000000 0.062500
vt 0.937500 0.062500
vt 0.937500 0.000000
vt 1.000000 0.000000
vt 1.000000 0.062500
vt 0.937500 0.062500
vt 0.937500 0.000000
vt 1.000000 0.000000
vt 1.000000 0.062500
vt 0.937500 0.062500
vt 0.937500 0.000000
vt 1.000000 0.000000
vt 1.000000 0.062500
vt 0.937500 0.062500
vn 0.0000 0.0000 -1.0000
vn 1.0000 0.0000 0.0000
vn 0.0000 -0.0000 1.0000
vn -1.0000 0.0000 0.0000
vn 0.0000 1.0000 0.0000
vn 0.0000 -1.0000 -0.0000
usemtl none
s 1
f 9/21/7 10/22/7 11/23/7 12/24/7
f 13/25/8 9/26/8 12/27/8 14/28/8
f 15/29/9 13/30/9 14/31/9 16/32/9
f 10/33/10 15/34/10 16/35/10 11/36/10
f 16/37/11 14/38/11 12/27/11 11/36/11
f 10/33/12 9/26/12 13/39/12 15/40/12
o hudAmmoModel
v 0.000977 -0.000977 -0.000977
v -0.000977 -0.000977 -0.000977
v -0.000977 0.000977 -0.000977
v 0.000977 0.000977 -0.000977
v 0.000977 -0.000977 0.000977
v 0.000977 0.000977 0.000977
v -0.000977 -0.000977 0.000977
v -0.000977 0.000977 0.000977
vt 0.937500 0.000000
vt 1.000000 0.000000
vt 1.000000 0.062500
vt 0.937500 0.062500
vt 0.937500 0.000000
vt 1.000000 0.000000
vt 1.000000 0.062500
vt 0.937500 0.062500
vt 0.937500 0.000000
vt 1.000000 0.000000
vt 1.000000 0.062500
vt 0.937500 0.062500
vt 0.937500 0.000000
vt 1.000000 0.000000
vt 1.000000 0.062500
vt 0.937500 0.062500
vt 0.937500 0.000000
vt 1.000000 0.000000
vt 1.000000 0.062500
vt 0.937500 0.062500
vn 0.0000 0.0000 -1.0000
vn 1.0000 0.0000 0.0000
vn 0.0000 -0.0000 1.0000
vn -1.0000 0.0000 0.0000
vn 0.0000 1.0000 0.0000
vn 0.0000 -1.0000 -0.0000
usemtl none
s 1
f 17/41/13 18/42/13 19/43/13 20/44/13
f 21/45/14 17/46/14 20/47/14 22/48/14
f 23/49/15 21/50/15 22/51/15 24/52/15
f 18/53/16 23/54/16 24/55/16 19/56/16
f 24/57/17 22/58/17 20/47/17 19/56/17
f 18/53/18 17/46/18 21/59/18 23/60/18
o barrelModel
v 0.031250 0.031250 0.000000
v 0.031250 0.031250 0.500000
v 0.031250 -0.031250 0.500000
v 0.031250 -0.031250 -0.000000
v -0.031250 -0.031250 0.500000
v -0.031250 0.031250 0.500000
v -0.031250 0.031250 0.000000
v -0.031250 -0.031250 -0.000000
vt 0.781250 0.906250
vt 0.531250 0.906250
vt 0.531250 0.875000
vt 0.781250 0.875000
vt 0.781250 0.875000
vt 0.781250 0.906250
vt 0.531250 0.906250
vt 0.531250 0.875000
vt 0.781250 0.875000
vt 0.781250 0.906250
vt 0.531250 0.906250
vt 0.531250 0.875000
vt 0.781250 0.906250
vt 0.531250 0.906250
vt 0.531250 0.875000
vt 0.781250 0.875000
vt 0.750000 0.250000
vt 0.750000 0.500000
vt 0.500000 0.500000
vt 0.500000 0.250000
vt 0.687500 0.906250
vt 0.656250 0.906250
vt 0.656250 0.875000
vt 0.687500 0.875000
vn 1.0000 0.0000 0.0000
vn -1.0000 -0.0000 0.0000
vn 0.0000 1.0000 0.0000
vn 0.0000 -1.0000 -0.0000
vn 0.0000 0.0000 1.0000
vn 0.0000 0.0000 -1.0000
usemtl m_b1c04f27-99db-c147-56c0-772e7d4b692e
s 1
f 25/61/19 26/62/19 27/63/19 28/64/19
f 29/65/20 30/66/20 31/67/20 32/68/20
f 30/69/21 26/70/21 25/71/21 31/72/21
f 28/73/22 27/74/22 29/75/22 32/76/22
f 27/77/23 26/78/23 30/79/23 29/80/23
f 31/81/24 25/82/24 28/83/24 32/84/24
o grip_handheld
v 0.031250 -0.062500 -0.343750
v 0.031250 -0.062500 -0.281250
v 0.031250 -0.125000 -0.281250
v 0.031250 -0.125000 -0.343750
v -0.031250 -0.125000 -0.281250
v -0.031250 -0.062500 -0.281250
v -0.031250 -0.062500 -0.343750
v -0.031250 -0.125000 -0.343750
v 0.031250 -0.062500 -0.093750
v 0.031250 -0.062500 -0.031250
v 0.031250 -0.187500 -0.031250
v 0.031250 -0.187500 -0.093750
v -0.031250 -0.187500 -0.031250
v -0.031250 -0.062500 -0.031250
v -0.031250 -0.062500 -0.093750
v -0.031250 -0.187500 -0.093750
vt 0.687500 0.906250
vt 0.656250 0.906250
vt 0.656250 0.875000
vt 0.687500 0.875000
vt 0.718750 0.875000
vt 0.718750 0.906250
vt 0.687500 0.906250
vt 0.687500 0.875000
vt 0.687500 0.875000
vt 0.718750 0.875000
vt 0.718750 0.906250
vt 0.718750 0.906250
vt 0.718750 0.937500
vt 0.687500 0.937500
vt 0.687500 0.906250
vt 0.718750 0.875000
vt 0.718750 0.906250
vt 0.687500 0.906250
vt 0.687500 0.875000
vt 0.718750 0.906250
vt 0.718750 0.875000
vt 0.687500 0.906250
vt 0.656250 0.906250
vt 0.656250 0.843750
vt 0.687500 0.843750
vt 0.750000 0.843750
vt 0.750000 0.906250
vt 0.718750 0.906250
vt 0.718750 0.843750
vt 0.718750 0.843750
vt 0.750000 0.843750
vt 0.750000 0.875000
vt 0.718750 0.875000
vt 0.750000 0.906250
vt 0.750000 0.937500
vt 0.718750 0.937500
vt 0.718750 0.906250
vt 0.750000 0.843750
vt 0.750000 0.906250
vt 0.718750 0.906250
vt 0.718750 0.843750
vt 0.750000 0.906250
vt 0.718750 0.906250
vt 0.718750 0.843750
vt 0.750000 0.843750
vn 1.0000 0.0000 0.0000
vn -1.0000 0.0000 0.0000
vn 0.0000 1.0000 0.0000
vn 0.0000 -1.0000 0.0000
vn 0.0000 0.0000 1.0000
vn 0.0000 0.0000 -1.0000
usemtl m_b1c04f27-99db-c147-56c0-772e7d4b692e
s 1
f 33/85/25 34/86/25 35/87/25 36/88/25
f 37/89/26 38/90/26 39/91/26 40/92/26
f 38/93/27 34/94/27 33/95/27 39/91/27
f 36/96/28 35/97/28 37/98/28 40/99/28
f 35/100/29 34/101/29 38/102/29 37/103/29
f 39/104/30 33/85/30 36/88/30 40/105/30
f 41/106/25 42/107/25 43/108/25 44/109/25
f 45/110/26 46/111/26 47/112/26 48/113/26
f 46/114/27 42/115/27 41/116/27 47/117/27
f 44/118/28 43/119/28 45/120/28 48/121/28
f 43/122/29 42/123/29 46/124/29 45/125/29
f 47/126/30 41/127/30 44/128/30 48/129/30
o grip_tripod
v 0.218750 0.031250 -0.531250
v 0.156250 0.031250 -0.468750
v 0.156250 -0.031250 -0.468750
v 0.218750 -0.031250 -0.531250
v -0.156250 -0.031250 -0.468750
v -0.156250 0.031250 -0.468750
v -0.218750 0.031250 -0.531250
v -0.218750 -0.031250 -0.531250
v 0.218750 0.156250 -0.593750
v 0.218750 0.156250 -0.531250
v 0.218750 -0.031250 -0.531250
v 0.218750 -0.031250 -0.593750
v 0.156250 -0.031250 -0.531250
v 0.156250 0.156250 -0.531250
v 0.156250 0.156250 -0.593750
v 0.156250 -0.031250 -0.593750
v -0.156250 0.156250 -0.593750
v -0.156250 0.156250 -0.531250
v -0.156250 -0.031250 -0.531250
v -0.156250 -0.031250 -0.593750
v -0.218750 -0.031250 -0.531250
v -0.218750 0.156250 -0.531250
v -0.218750 0.156250 -0.593750
v -0.218750 -0.031250 -0.593750
vt 0.187500 0.625000
vt 0.187500 0.687500
vt 0.125000 0.687500
vt 0.125000 0.625000
vt 0.187500 0.625000
vt 0.187500 0.687500
vt 0.125000 0.687500
vt 0.125000 0.625000
vt 0.187500 0.625000
vt 0.125000 0.687500
vt 0.125000 0.625000
vt 0.187500 0.625000
vt 0.187500 0.687500
vt 0.125000 0.687500
vt 0.187500 0.625000
vt 0.125000 0.687500
vt 0.125000 0.625000
vt 0.281250 0.656250
vt 0.062500 0.656250
vt 0.062500 0.625000
vt 0.281250 0.625000
vt 0.187500 0.625000
vt 0.187500 0.687500
vt 0.125000 0.687500
vt 0.125000 0.625000
vt 0.187500 0.625000
vt 0.187500 0.687500
vt 0.125000 0.687500
vt 0.125000 0.625000
vt 0.187500 0.625000
vt 0.125000 0.687500
vt 0.125000 0.625000
vt 0.187500 0.625000
vt 0.187500 0.687500
vt 0.125000 0.687500
vt 0.187500 0.625000
vt 0.125000 0.687500
vt 0.125000 0.625000
vt 0.187500 0.687500
vt 0.156250 0.687500
vt 0.156250 0.593750
vt 0.187500 0.593750
vt 0.187500 0.625000
vt 0.187500 0.687500
vt 0.125000 0.687500
vt 0.125000 0.625000
vt 0.187500 0.625000
vt 0.187500 0.687500
vt 0.125000 0.687500
vt 0.125000 0.625000
vt 0.187500 0.625000
vt 0.125000 0.687500
vt 0.125000 0.625000
vt 0.187500 0.625000
vt 0.187500 0.687500
vt 0.125000 0.687500
vt 0.187500 0.625000
vt 0.125000 0.687500
vt 0.125000 0.625000
vt 0.156250 0.687500
vt 0.125000 0.593750
vt 0.156250 0.593750
vn 0.7071 0.0000 0.7071
vn -0.7071 0.0000 0.7071
vn 0.0000 1.0000 -0.0000
vn 0.0000 -1.0000 0.0000
vn 0.0000 0.0000 1.0000
vn 0.0000 0.0000 -1.0000
vn 1.0000 0.0000 0.0000
vn -1.0000 0.0000 0.0000
usemtl m_b1c04f27-99db-c147-56c0-772e7d4b692e
s 1
f 49/130/31 50/131/31 51/132/31 52/133/31
f 53/134/32 54/135/32 55/136/32 56/137/32
f 54/138/33 50/131/33 49/139/33 55/140/33
f 52/141/34 51/142/34 53/143/34 56/137/34
f 51/144/35 50/131/35 54/145/35 53/146/35
f 55/147/36 49/148/36 52/149/36 56/150/36
f 57/151/37 58/152/37 59/153/37 60/154/37
f 61/155/38 62/156/38 63/157/38 64/158/38
f 62/159/33 58/152/33 57/160/33 63/161/33
f 60/162/34 59/163/34 61/164/34 64/158/34
f 59/165/35 58/152/35 62/166/35 61/167/35
f 63/168/36 57/169/36 60/170/36 64/171/36
f 65/172/37 66/173/37 67/174/37 68/175/37
f 69/176/38 70/177/38 71/178/38 72/179/38
f 70/180/33 66/173/33 65/181/33 71/182/33
f 68/183/34 67/184/34 69/185/34 72/179/34
f 67/186/35 66/173/35 70/187/35 69/188/35
f 71/189/36 65/181/36 68/190/36 72/191/36
o slideModel
v 0.125000 0.015625 -0.078125
v 0.125000 0.015625 -0.046875
v 0.125000 -0.015625 -0.046875
v 0.125000 -0.015625 -0.078125
v -0.125000 -0.015625 -0.046875
v -0.125000 0.015625 -0.046875
v -0.125000 0.015625 -0.078125
v -0.125000 -0.015625 -0.078125
vt 0.609375 0.125000
vt 0.593750 0.125000
vt 0.593750 0.109375
vt 0.609375 0.109375
vt 0.640625 0.109375
vt 0.640625 0.125000
vt 0.625000 0.125000
vt 0.625000 0.109375
vt 0.562500 0.109375
vt 0.687500 0.109375
vt 0.687500 0.125000
vt 0.562500 0.125000
vt 0.687500 0.140625
vt 0.687500 0.156250
vt 0.562500 0.156250
vt 0.562500 0.140625
vt 0.687500 0.109375
vt 0.687500 0.125000
vt 0.562500 0.125000
vt 0.562500 0.109375
vt 0.687500 0.125000
vt 0.562500 0.125000
vt 0.562500 0.109375
vt 0.687500 0.109375
vn 1.0000 0.0000 0.0000
vn -1.0000 0.0000 0.0000
vn 0.0000 1.0000 0.0000
vn 0.0000 -1.0000 -0.0000
vn 0.0000 0.0000 1.0000
vn 0.0000 0.0000 -1.0000
usemtl m_b1c04f27-99db-c147-56c0-772e7d4b692e
s 1
f 73/192/39 74/193/39 75/194/39 76/195/39
f 77/196/40 78/197/40 79/198/40 80/199/40
f 78/200/41 74/201/41 73/202/41 79/203/41
f 76/204/42 75/205/42 77/206/42 80/207/42
f 75/208/43 74/209/43 78/210/43 77/211/43
f 79/212/44 73/213/44 76/214/44 80/215/44
o gunModel
v 0.062500 0.062500 -0.500000
v 0.062500 0.062500 -0.312500
v 0.062500 -0.062500 -0.312500
v 0.062500 -0.062500 -0.500000
v -0.062500 -0.062500 -0.312500
v -0.062500 0.062500 -0.312500
v -0.062500 0.062500 -0.500000
v -0.062500 -0.062500 -0.500000
v 0.062500 0.062500 -0.312500
v 0.062500 0.062500 0.125000
v 0.062500 -0.062500 -0.000000
v 0.062500 -0.062500 -0.312500
v -0.062500 -0.062500 -0.000000
v -0.062500 0.062500 0.125000
v -0.062500 0.062500 -0.312500
v -0.062500 -0.062500 -0.312500
v 0.039062 0.039062 0.000000
v 0.039062 0.039062 0.500000
v 0.039062 -0.039063 0.500000
v 0.039062 -0.039062 -0.000000
v -0.039062 -0.039063 0.500000
v -0.039062 0.039062 0.500000
v -0.039062 0.039062 0.000000
v -0.039062 -0.039062 -0.000000
v 0.078125 0.031250 -0.218750
v 0.078125 0.031250 -0.031250
v 0.078125 -0.031250 -0.031250
v 0.078125 -0.031250 -0.218750
v -0.078125 -0.031250 -0.031250
v -0.078125 0.031250 -0.031250
v -0.078125 0.031250 -0.218750
v -0.078125 -0.031250 -0.218750
vt 0.187500 0.937500
vt 0.093750 0.937500
vt 0.093750 0.875000
vt 0.187500 0.875000
vt 0.187500 0.875000
vt 0.187500 0.937500
vt 0.093750 0.937500
vt 0.093750 0.875000
vt 0.093750 0.843750
vt 0.156250 0.843750
vt 0.156250 0.937500
vt 0.156250 0.843750
vt 0.156250 0.937500
vt 0.093750 0.937500
vt 0.093750 0.843750
vt 0.156250 0.937500
vt 0.093750 0.937500
vt 0.093750 0.875000
vt 0.156250 0.875000
vt 0.406250 0.937500
vt 0.187500 0.937500
vt 0.250000 0.875000
vt 0.406250 0.875000
vt 0.375000 0.875000
vt 0.437500 0.937500
vt 0.218750 0.937500
vt 0.218750 0.875000
vt 0.281250 0.781250
vt 0.343750 0.781250
vt 0.343750 1.000000
vt 0.281250 1.000000
vt 0.343750 0.812500
vt 0.343750 0.968750
vt 0.281250 0.968750
vt 0.281250 0.812500
vt 0.343750 0.849113
vt 0.343750 0.937500
vt 0.281250 0.937500
vt 0.281250 0.849113
vt 0.500000 0.593750
vt 1.000000 0.593750
vt 1.000000 0.500000
vt 0.500000 0.500000
vt 1.000000 0.593750
vt 1.000000 0.687500
vt 0.500000 0.687500
vt 0.500000 0.593750
vt 1.000000 0.625000
vt 1.000000 0.718750
vt 0.500000 0.718750
vt 0.500000 0.625000
vt 0.500000 0.687500
vt 1.000000 0.687500
vt 0.875000 0.406250
vt 0.781250 0.406250
vt 0.781250 0.375000
vt 0.875000 0.375000
vt 0.906250 0.406250
vt 0.906250 0.437500
vt 0.812500 0.437500
vt 0.812500 0.406250
vt 0.593750 0.843750
vt 0.671875 0.843750
vt 0.671875 0.937500
vt 0.593750 0.937500
vt 0.671875 0.875000
vt 0.671875 0.968750
vt 0.593750 0.968750
vt 0.593750 0.875000
vt 0.671875 0.875000
vt 0.671875 0.906250
vt 0.593750 0.906250
vt 0.593750 0.875000
vt 0.671875 0.906250
vt 0.593750 0.906250
vt 0.593750 0.875000
vt 0.671875 0.875000
vn 1.0000 0.0000 0.0000
vn -1.0000 0.0000 0.0000
vn 0.0000 1.0000 0.0000
vn 0.0000 -1.0000 -0.0000
vn 0.0000 0.0000 -1.0000
vn 0.0000 -0.7071 0.7071
vn 0.0000 -0.0000 1.0000
usemtl m_b1c04f27-99db-c147-56c0-772e7d4b692e
s 1
f 81/216/45 82/217/45 83/218/45 84/219/45
f 85/220/46 86/221/46 87/222/46 88/223/46
f 86/224/47 82/225/47 81/226/47 87/222/47
f 84/227/48 83/228/48 85/229/48 88/230/48
f 87/231/49 81/232/49 84/233/49 88/234/49
f 89/235/45 90/236/45 91/237/45 92/238/45
f 93/239/46 94/240/46 95/241/46 96/242/46
f 94/243/47 90/244/47 89/245/47 95/246/47
f 92/247/48 91/248/48 93/249/48 96/250/48
f 91/251/50 90/252/50 94/253/50 93/254/50
f 97/255/45 98/256/45 99/257/45 100/258/45
f 101/259/46 102/260/46 103/261/46 104/262/46
f 102/263/47 98/264/47 97/265/47 103/266/47
f 100/267/48 99/268/48 101/259/48 104/262/48
f 105/269/45 106/270/45 107/271/45 108/272/45
f 109/273/46 110/274/46 111/275/46 112/276/46
f 110/277/47 106/278/47 105/279/47 111/280/47
f 108/281/48 107/282/48 109/283/48 112/284/48
f 107/285/51 106/286/51 110/287/51 109/288/51
f 111/289/49 105/290/49 108/291/49 112/292/49
