# Blender v2.79 (sub 0) OBJ File: ''
# www.blender.org
mtllib mmpa.mtl
o sunroof_translucent
v -0.320921 0.003896 0.272486
v -0.312788 0.000257 0.300498
v -0.256084 -0.001506 0.316961
v 0.000000 0.001443 0.316961
v 0.000000 0.009299 0.249155
v -0.320302 0.007165 0.247757
v 0.000000 0.023823 -0.122041
v -0.256084 0.022106 -0.122041
v -0.312788 0.021083 -0.105579
v -0.320301 0.020017 -0.079703
v -0.328166 0.006462 0.247542
v 0.328166 0.006462 0.247542
v 0.329254 0.006513 0.243793
v 0.329254 0.018005 -0.048875
v 0.320301 0.020017 -0.079703
v 0.320302 0.007165 0.247757
v 0.320921 0.003896 0.272486
v 0.312788 0.021083 -0.105579
v 0.256084 0.022106 -0.122041
v 0.256084 -0.001506 0.316961
v 0.312788 0.000257 0.300498
v -0.329254 0.018005 -0.048875
v -0.329254 0.006513 0.243793
v -0.320920 -0.023585 0.272480
v -0.320297 -0.020315 0.247753
v 0.000000 -0.018183 0.249152
v 0.000000 -0.026037 0.316955
v -0.256083 -0.028987 0.316955
v -0.312788 -0.027224 0.300493
v 0.000000 -0.003659 -0.122043
v -0.320299 -0.007465 -0.079705
v -0.312788 -0.006399 -0.105580
v -0.256083 -0.005375 -0.122043
v -0.328157 -0.021019 0.247539
v 0.328157 -0.021019 0.247539
v 0.320297 -0.020315 0.247753
v 0.320299 -0.007465 -0.079705
v 0.329246 -0.009475 -0.048877
v 0.329246 -0.020968 0.243791
v 0.320920 -0.023585 0.272480
v 0.256083 -0.005375 -0.122043
v 0.312788 -0.006399 -0.105580
v 0.312788 -0.027224 0.300493
v 0.256083 -0.028987 0.316955
v -0.329246 -0.020968 0.243791
v -0.329246 -0.009475 -0.048877
vt 0.325172 0.880441
vt 0.325635 0.878847
vt 0.328859 0.877909
vt 0.343422 0.877910
vt 0.343422 0.881767
vt 0.325207 0.881847
vt 0.343422 0.902878
vt 0.328859 0.902878
vt 0.325635 0.901941
vt 0.325207 0.900470
vt 0.324760 0.881859
vt 0.362090 0.881859
vt 0.362152 0.882073
vt 0.362152 0.898717
vt 0.361642 0.900470
vt 0.361642 0.881847
vt 0.361678 0.880441
vt 0.361215 0.901941
vt 0.357990 0.902878
vt 0.357990 0.877909
vt 0.361215 0.878847
vt 0.324698 0.898717
vt 0.324698 0.882073
vt 0.325172 0.880441
vt 0.325207 0.881847
vt 0.343422 0.881767
vt 0.343422 0.877910
vt 0.328859 0.877909
vt 0.325635 0.878847
vt 0.343422 0.902878
vt 0.325207 0.900470
vt 0.325635 0.901941
vt 0.328859 0.902878
vt 0.324760 0.881859
vt 0.362090 0.881859
vt 0.361642 0.881847
vt 0.361642 0.900470
vt 0.362152 0.898717
vt 0.362152 0.882073
vt 0.361678 0.880441
vt 0.357990 0.902878
vt 0.361215 0.901941
vt 0.361215 0.878847
vt 0.357990 0.877909
vt 0.324698 0.882073
vt 0.324698 0.898717
vn -0.0089 0.9922 0.1244
vn 0.0000 0.9992 0.0392
vn -0.0068 0.9992 0.0392
vn -0.0918 0.9875 0.1282
vn 0.0894 0.9952 0.0391
vn 0.0918 0.9875 0.1282
vn 0.0068 0.9992 0.0392
vn 0.0089 0.9922 0.1244
vn -0.0894 0.9952 0.0391
vn 0.0089 -0.9922 -0.1244
vn 0.0000 -0.9992 -0.0392
vn 0.0068 -0.9992 -0.0392
vn 0.0920 -0.9875 -0.1283
vn -0.0895 -0.9952 -0.0391
vn -0.0920 -0.9875 -0.1283
vn -0.0068 -0.9992 -0.0392
vn -0.0089 -0.9922 -0.1244
vn 0.0895 -0.9952 -0.0391
usemtl mat1
s 1
f 1/1/1 2/2/1 3/3/1 4/4/1 5/5/1 6/6/1
f 7/7/2 8/8/3 9/9/3 10/10/3 6/6/3 5/5/2
f 11/11/4 1/1/4 6/6/4
f 12/12/5 13/13/5 14/14/5 15/15/5 16/16/5
f 17/17/6 12/12/6 16/16/6
f 16/16/7 15/15/7 18/18/7 19/19/7 7/7/2 5/5/2
f 5/5/8 4/4/8 20/20/8 21/21/8 17/17/8 16/16/8
f 6/6/9 10/10/9 22/22/9 23/23/9 11/11/9
f 24/24/10 25/25/10 26/26/10 27/27/10 28/28/10 29/29/10
f 30/30/11 26/26/11 25/25/12 31/31/12 32/32/12 33/33/12
f 34/34/13 25/25/13 24/24/13
f 35/35/14 36/36/14 37/37/14 38/38/14 39/39/14
f 40/40/15 36/36/15 35/35/15
f 36/36/16 26/26/11 30/30/11 41/41/16 42/42/16 37/37/16
f 26/26/17 36/36/17 40/40/17 43/43/17 44/44/17 27/27/17
f 25/25/18 34/34/18 45/45/18 46/46/18 31/31/18
o sunroof
v 0.000000 0.023823 -0.122041
v 0.256084 0.022106 -0.122041
v 0.256083 -0.005375 -0.122043
v 0.000000 -0.003659 -0.122043
v 0.312788 0.021083 -0.105579
v 0.320301 0.020017 -0.079703
v 0.320299 -0.007465 -0.079705
v 0.312788 -0.006399 -0.105580
v -0.312788 0.000257 0.300498
v -0.320921 0.003896 0.272486
v -0.320920 -0.023585 0.272480
v -0.312788 -0.027224 0.300493
v -0.328166 0.006462 0.247542
v -0.328157 -0.021019 0.247539
v 0.329254 0.018005 -0.048875
v 0.329254 0.006513 0.243793
v 0.329246 -0.020968 0.243791
v 0.329246 -0.009475 -0.048877
v 0.320921 0.003896 0.272486
v 0.312788 0.000257 0.300498
v 0.312788 -0.027224 0.300493
v 0.320920 -0.023585 0.272480
v -0.329254 0.018005 -0.048875
v -0.320301 0.020017 -0.079703
v -0.320299 -0.007465 -0.079705
v -0.329246 -0.009475 -0.048877
v 0.256084 -0.001506 0.316961
v 0.256083 -0.028987 0.316955
v -0.312788 0.021083 -0.105579
v -0.256084 0.022106 -0.122041
v -0.256083 -0.005375 -0.122043
v -0.312788 -0.006399 -0.105580
v 0.000000 0.001443 0.316961
v 0.000000 -0.026037 0.316955
v -0.256084 -0.001506 0.316961
v -0.256083 -0.028987 0.316955
v -0.329254 0.006513 0.243793
v -0.329246 -0.020968 0.243791
v 0.328166 0.006462 0.247542
v 0.328157 -0.021019 0.247539
v 0.000000 0.023823 -0.121807
v 0.000000 -0.003659 -0.121808
v 0.255827 -0.005375 -0.121808
v 0.255827 0.022106 -0.121807
v 0.312475 0.021083 -0.105361
v 0.312474 -0.006399 -0.105363
v 0.319979 -0.007465 -0.079513
v 0.319980 0.020017 -0.079512
v -0.312475 0.000257 0.300310
v -0.312474 -0.027224 0.300305
v -0.320598 -0.023585 0.272320
v -0.320600 0.003896 0.272325
v -0.327829 -0.021019 0.247403
v -0.327838 0.006462 0.247406
v 0.328925 0.018005 -0.048713
v 0.328916 -0.009475 -0.048715
v 0.328916 -0.020968 0.243659
v 0.328925 0.006513 0.243661
v 0.320600 0.003896 0.272325
v 0.320598 -0.023585 0.272320
v 0.312474 -0.027224 0.300305
v 0.312475 0.000257 0.300310
v -0.328925 0.018005 -0.048713
v -0.328916 -0.009475 -0.048715
v -0.319979 -0.007465 -0.079513
v -0.319980 0.020017 -0.079512
v 0.255827 -0.028987 0.316751
v 0.255827 -0.001506 0.316756
v -0.312475 0.021083 -0.105361
v -0.312474 -0.006399 -0.105363
v -0.255827 -0.005375 -0.121808
v -0.255827 0.022106 -0.121807
v 0.000000 -0.026037 0.316751
v 0.000000 0.001443 0.316756
v -0.255827 -0.001506 0.316756
v -0.255827 -0.028987 0.316751
v -0.328916 -0.020968 0.243659
v -0.328925 0.006513 0.243661
v 0.327829 -0.021019 0.247403
v 0.327838 0.006462 0.247406
vt 0.346108 0.855392
vt 0.360675 0.855392
vt 0.360675 0.855392
vt 0.346108 0.855392
vt 0.363901 0.854456
vt 0.364328 0.852985
vt 0.364328 0.852985
vt 0.363901 0.854456
vt 0.328320 0.831361
vt 0.327858 0.832955
vt 0.327858 0.832955
vt 0.328320 0.831361
vt 0.327446 0.834374
vt 0.327446 0.834374
vt 0.364837 0.851231
vt 0.364837 0.834587
vt 0.364837 0.834587
vt 0.364837 0.851231
vt 0.364363 0.832955
vt 0.363901 0.831361
vt 0.363901 0.831361
vt 0.364363 0.832955
vt 0.327384 0.851231
vt 0.327893 0.852985
vt 0.327893 0.852985
vt 0.327384 0.851231
vt 0.360676 0.830423
vt 0.360676 0.830423
vt 0.328320 0.854456
vt 0.331545 0.855392
vt 0.331545 0.855392
vt 0.328320 0.854456
vt 0.346108 0.830425
vt 0.346108 0.830425
vt 0.331544 0.830423
vt 0.331544 0.830423
vt 0.327384 0.834587
vt 0.327384 0.834587
vt 0.364775 0.834374
vt 0.364775 0.834374
vt 0.346108 0.855392
vt 0.346108 0.855392
vt 0.360675 0.855392
vt 0.360675 0.855392
vt 0.363901 0.854456
vt 0.363901 0.854456
vt 0.364328 0.852985
vt 0.364328 0.852985
vt 0.328320 0.831361
vt 0.328320 0.831361
vt 0.327858 0.832955
vt 0.327858 0.832955
vt 0.327446 0.834374
vt 0.327446 0.834374
vt 0.364837 0.851231
vt 0.364837 0.851231
vt 0.364837 0.834587
vt 0.364837 0.834587
vt 0.364363 0.832955
vt 0.364363 0.832955
vt 0.363901 0.831361
vt 0.363901 0.831361
vt 0.327384 0.851231
vt 0.327384 0.851231
vt 0.327893 0.852985
vt 0.327893 0.852985
vt 0.360676 0.830423
vt 0.360676 0.830423
vt 0.328320 0.854456
vt 0.328320 0.854456
vt 0.331545 0.855392
vt 0.331545 0.855392
vt 0.346108 0.830425
vt 0.346108 0.830425
vt 0.331544 0.830423
vt 0.331544 0.830423
vt 0.327384 0.834587
vt 0.327384 0.834587
vt 0.364775 0.834374
vt 0.364775 0.834374
vn 0.0000 0.0001 -1.0000
vn 0.9603 -0.0000 -0.2788
vn 0.9603 -0.0001 -0.2788
vn -0.9604 -0.0001 0.2788
vn -0.9604 -0.0002 0.2788
vn -0.9603 -0.0003 0.2788
vn 1.0000 -0.0003 -0.0000
vn 0.9604 -0.0002 0.2788
vn 0.9604 -0.0001 0.2788
vn -0.9603 -0.0002 -0.2788
vn -0.9603 -0.0001 -0.2788
vn 0.2788 -0.0002 0.9603
vn -0.2788 0.0001 -0.9603
vn -0.0000 -0.0002 1.0000
vn 0.2788 0.0001 -0.9603
vn 0.9603 -0.0002 -0.2788
vn -0.2788 -0.0002 0.9603
vn -0.9603 -0.0003 0.2789
vn 0.9603 -0.0003 0.2789
vn 0.9603 -0.0003 0.2788
vn -1.0000 -0.0003 -0.0000
vn -0.9603 -0.0000 -0.2788
vn 0.0000 -0.0001 1.0000
vn -0.9603 0.0000 0.2788
vn -0.9603 0.0001 0.2788
vn 0.9604 0.0001 -0.2788
vn 0.9603 0.0002 -0.2788
vn 0.9604 0.0003 -0.2788
vn -1.0000 0.0003 0.0000
vn -0.9603 0.0002 -0.2788
vn -0.9604 0.0001 -0.2788
vn 0.9603 0.0002 0.2788
vn 0.9603 0.0001 0.2788
vn -0.2788 0.0002 -0.9603
vn 0.2788 -0.0001 0.9603
vn 0.0000 0.0002 -1.0000
vn -0.2788 -0.0001 0.9603
vn -0.9603 0.0002 0.2788
vn 0.2788 0.0002 -0.9603
vn -0.9604 0.0003 -0.2788
vn 1.0000 0.0003 0.0000
vn 0.9603 0.0000 0.2788
usemtl mat1
s 1
f 47/47/19 48/48/19 49/49/19 50/50/19
f 51/51/20 52/52/21 53/53/21 54/54/20
f 55/55/22 56/56/23 57/57/23 58/58/22
f 56/56/23 59/59/24 60/60/24 57/57/23
f 61/61/25 62/62/25 63/63/25 64/64/25
f 65/65/26 66/66/27 67/67/27 68/68/26
f 69/69/28 70/70/29 71/71/29 72/72/28
f 66/66/30 73/73/30 74/74/30 67/67/30
f 75/75/31 76/76/31 77/77/31 78/78/31
f 73/73/32 79/79/32 80/80/32 74/74/32
f 76/76/19 47/47/19 50/50/19 77/77/19
f 48/48/33 51/51/33 54/54/33 49/49/33
f 52/52/21 61/61/34 64/64/34 53/53/21
f 81/81/35 55/55/35 58/58/35 82/82/35
f 59/59/24 83/83/36 84/84/36 60/60/24
f 62/62/37 85/85/38 86/86/38 63/63/37
f 83/83/39 69/69/39 72/72/39 84/84/39
f 79/79/32 81/81/32 82/82/32 80/80/32
f 70/70/29 75/75/40 78/78/40 71/71/29
f 85/85/38 65/65/26 68/68/26 86/86/38
f 87/87/41 88/88/41 89/89/41 90/90/41
f 91/91/42 92/92/42 93/93/43 94/94/43
f 95/95/44 96/96/44 97/97/45 98/98/45
f 98/98/45 97/97/45 99/99/46 100/100/46
f 101/101/47 102/102/47 103/103/47 104/104/47
f 105/105/48 106/106/48 107/107/49 108/108/49
f 109/109/50 110/110/50 111/111/51 112/112/51
f 108/108/52 107/107/52 113/113/52 114/114/52
f 115/115/53 116/116/53 117/117/53 118/118/53
f 114/114/54 113/113/54 119/119/54 120/120/54
f 118/118/41 117/117/41 88/88/41 87/87/41
f 90/90/55 89/89/55 92/92/55 91/91/55
f 94/94/43 93/93/43 102/102/56 101/101/56
f 121/121/57 122/122/57 96/96/57 95/95/57
f 100/100/46 99/99/46 123/123/46 124/124/46
f 104/104/58 103/103/58 125/125/58 126/126/58
f 124/124/59 123/123/59 110/110/59 109/109/59
f 120/120/54 119/119/54 122/122/54 121/121/54
f 112/112/51 111/111/51 116/116/60 115/115/60
f 126/126/58 125/125/58 106/106/48 105/105/48
