# Blender v2.79 (sub 0) OBJ File: ''
# www.blender.org
mtllib ocarro_hood.mtl
o $Hood
v -0.750000 0.062484 0.000000
v -0.312500 0.062484 1.625000
v 0.000000 0.062484 1.625000
v 0.000000 0.062484 0.000000
v 0.000000 -0.000016 0.000000
v 0.000000 -0.000016 1.625000
v -0.375000 -0.000016 1.625000
v -0.812500 -0.000016 0.000000
v 0.000000 0.062484 0.000000
v 0.000000 0.062484 1.625000
v 0.312500 0.062484 1.625000
v 0.750000 0.062484 0.000000
v 0.812500 -0.000016 0.000000
v 0.375000 -0.000016 1.625000
v 0.000000 -0.000016 1.625000
v 0.000000 -0.000016 0.000000
v -1.115234 0.062484 0.000000
v -1.001953 -0.000016 1.625000
v -0.375000 -0.000016 1.625000
v -0.750000 0.062484 0.000000
v -0.812500 -0.000016 0.000000
v -0.437500 -0.062516 1.625000
v -0.939453 -0.062516 1.625000
v -1.052734 -0.000016 0.000000
v 0.750000 0.062484 0.000000
v 0.375000 -0.000016 1.625000
v 1.001953 -0.000016 1.625000
v 1.115234 0.062484 0.000000
v 1.052734 -0.000016 0.000000
v 0.937500 -0.062516 1.625000
v 0.437500 -0.062516 1.625000
v 0.812500 -0.000016 0.000000
vt 0.603516 0.740234
vt 0.654297 0.740234
vt 0.654297 0.763672
vt 0.603516 0.763672
vt 0.654297 0.740234
vt 0.705078 0.740234
vt 0.705078 0.763672
vt 0.654297 0.763672
vt 0.603516 0.738281
vt 0.654297 0.738281
vt 0.728516 0.740234
vt 0.677734 0.740234
vt 0.677734 0.738281
vt 0.728516 0.738281
vt 0.580078 0.740234
vt 0.580078 0.738281
vt 0.353516 0.708984
vt 0.404297 0.708984
vt 0.404297 0.732422
vt 0.353516 0.732422
vt 0.404297 0.708984
vt 0.455078 0.708984
vt 0.455078 0.732422
vt 0.404297 0.732422
vt 0.353516 0.707031
vt 0.404297 0.707031
vt 0.478516 0.708984
vt 0.427734 0.708984
vt 0.427734 0.707031
vt 0.478516 0.707031
vt 0.330078 0.708984
vt 0.330078 0.707031
vt 0.658203 0.701172
vt 0.708984 0.701172
vt 0.708984 0.716797
vt 0.658203 0.716797
vt 0.708984 0.701172
vt 0.759766 0.701172
vt 0.759766 0.716797
vt 0.708984 0.716797
vt 0.658203 0.699219
vt 0.708984 0.699219
vt 0.775391 0.701172
vt 0.724609 0.701172
vt 0.724609 0.699219
vt 0.775391 0.699219
vt 0.642578 0.701172
vt 0.642578 0.699219
vt 0.501953 0.669922
vt 0.552734 0.669922
vt 0.552734 0.685547
vt 0.501953 0.685547
vt 0.552734 0.669922
vt 0.603516 0.669922
vt 0.603516 0.685547
vt 0.552734 0.685547
vt 0.501953 0.667969
vt 0.552734 0.667969
vt 0.619141 0.669922
vt 0.568359 0.669922
vt 0.568359 0.667969
vt 0.619141 0.667969
vt 0.486328 0.669922
vt 0.486328 0.667969
vn 0.0000 1.0000 0.0000
vn 0.0000 -1.0000 -0.0000
vn -0.6946 0.6946 0.1870
vn 1.0000 0.0000 0.0000
vn 0.0000 0.0000 1.0000
vn 0.0000 0.0000 -1.0000
vn -1.0000 0.0000 0.0000
vn 0.6946 0.6946 0.1870
vn 0.0000 0.9993 0.0384
vn 0.0000 -0.9993 -0.0384
vn -0.7069 -0.7069 0.0221
vn 0.6946 -0.6946 -0.1870
vn -0.6946 -0.6946 -0.1870
vn 0.6960 -0.7177 0.0209
usemtl m_e1a68180-ca0d-339d-c787-1f84aa5a9e0a
s 1
f 1/1/1 2/2/1 3/3/1 4/4/1
f 5/5/2 6/6/2 7/7/2 8/8/2
f 2/2/3 1/1/3 8/9/3 7/10/3
f 4/11/4 3/12/4 6/13/4 5/14/4
f 3/12/5 2/2/5 7/10/5 6/13/5
f 1/1/6 4/15/6 5/16/6 8/9/6
f 9/17/1 10/18/1 11/19/1 12/20/1
f 13/21/2 14/22/2 15/23/2 16/24/2
f 10/18/7 9/17/7 16/25/7 15/26/7
f 12/27/8 11/28/8 14/29/8 13/30/8
f 11/28/5 10/18/5 15/26/5 14/29/5
f 9/17/6 12/31/6 13/32/6 16/25/6
f 17/33/9 18/34/9 19/35/9 20/36/9
f 21/37/10 22/38/10 23/39/10 24/40/10
f 18/34/11 17/33/11 24/41/11 23/42/11
f 20/43/12 19/44/12 22/45/12 21/46/12
f 19/44/5 18/34/5 23/42/5 22/45/5
f 17/33/6 20/47/6 21/48/6 24/41/6
f 25/49/9 26/50/9 27/51/9 28/52/9
f 29/53/10 30/54/10 31/55/10 32/56/10
f 26/50/13 25/49/13 32/57/13 31/58/13
f 28/59/14 27/60/14 30/61/14 29/62/14
f 27/60/5 26/50/5 31/58/5 30/61/5
f 25/49/6 28/63/6 29/64/6 32/57/6
