# Blender v2.79 (sub 0) OBJ File: ''
# www.blender.org
mtllib ocarro_grille.mtl
o $Grille
v -0.312500 0.312484 -0.187500
v -0.312500 0.312484 -0.039750
v 0.000000 0.312484 0.000000
v 0.000000 0.312484 -0.187500
v 0.000000 0.187484 -0.187500
v 0.000000 0.187484 0.000000
v -0.437500 0.187484 -0.062500
v -0.437500 0.187484 -0.187500
v 0.000000 -0.437516 -0.187500
v 0.000000 -0.437516 0.000000
v 0.437500 -0.437516 -0.062500
v 0.437500 -0.437516 -0.187500
v 0.437500 -0.562516 -0.187500
v 0.437500 -0.562516 -0.062500
v 0.000000 -0.562516 0.000000
v 0.000000 -0.562516 -0.187500
v 0.000000 0.312484 -0.187500
v 0.000000 0.312484 0.000000
v 0.312500 0.312484 -0.039750
v 0.312500 0.312484 -0.187500
v 0.437500 0.187484 -0.187500
v 0.437500 0.187484 -0.062500
v 0.000000 0.187484 0.000000
v 0.000000 0.187484 -0.187500
v -0.437500 -0.437516 -0.187500
v -0.437500 -0.437516 -0.062500
v 0.000000 -0.437516 0.000000
v 0.000000 -0.437516 -0.187500
v 0.000000 -0.562516 -0.187500
v 0.000000 -0.562516 0.000000
v -0.437500 -0.562516 -0.062500
v -0.437500 -0.562516 -0.187500
v -0.437500 0.187484 -0.187500
v -0.437500 0.187484 -0.062500
v -0.312500 0.187484 -0.039750
v -0.312500 0.187484 -0.164750
v -0.312500 -0.437516 -0.164750
v -0.312500 -0.437516 -0.039750
v -0.437500 -0.437516 -0.062500
v -0.437500 -0.437516 -0.187500
v 0.312500 0.187484 -0.164750
v 0.312500 0.187484 -0.039750
v 0.437500 0.187484 -0.062500
v 0.437500 0.187484 -0.187500
v 0.437500 -0.437516 -0.187500
v 0.437500 -0.437516 -0.062500
v 0.312500 -0.437516 -0.039750
v 0.312500 -0.437516 -0.164750
v 0.000000 0.187484 -0.031250
v 0.000000 0.187484 -0.031250
v 0.000000 -0.437516 -0.031250
v 0.000000 -0.437516 -0.031250
v 0.000000 0.187484 -0.031250
v 0.312500 0.187484 -0.051125
v 0.312500 0.187484 -0.051125
v 0.000000 0.187484 -0.031250
v 0.000000 -0.437516 -0.031250
v 0.312500 -0.437516 -0.051125
v 0.312500 -0.437516 -0.051125
v 0.000000 -0.437516 -0.031250
v -0.121875 0.296859 0.000000
v 0.000000 0.296859 0.015625
v 0.000000 0.296859 -0.031250
v -0.121875 0.296859 -0.046875
v -0.121875 0.203109 -0.046875
v 0.000000 0.203109 -0.031250
v 0.000000 0.203109 0.015625
v -0.121875 0.203109 0.000000
v 0.121875 0.296859 -0.046875
v 0.121875 0.296859 0.000000
v 0.121875 0.203109 0.000000
v 0.121875 0.203109 -0.046875
v -0.312500 0.187484 -0.051125
v -0.312500 -0.437516 -0.051125
v -0.312500 -0.437516 -0.051125
v -0.312500 0.187484 -0.051125
vt 0.554688 0.851562
vt 0.560547 0.851562
vt 0.560547 0.873047
vt 0.554688 0.873047
vt 0.560547 0.851562
vt 0.566406 0.851562
vt 0.566406 0.873047
vt 0.560547 0.873047
vt 0.554688 0.847656
vt 0.560547 0.847656
vt 0.587891 0.851562
vt 0.582031 0.851562
vt 0.582031 0.847656
vt 0.587891 0.847656
vt 0.533203 0.851562
vt 0.533203 0.847656
vt 0.898438 0.820312
vt 0.904297 0.820312
vt 0.904297 0.841797
vt 0.898438 0.841797
vt 0.904297 0.820312
vt 0.910156 0.820312
vt 0.910156 0.841797
vt 0.904297 0.841797
vt 0.898438 0.816406
vt 0.904297 0.816406
vt 0.931641 0.820312
vt 0.925781 0.820312
vt 0.925781 0.816406
vt 0.931641 0.816406
vt 0.876953 0.820312
vt 0.876953 0.816406
vt 0.367188 0.804688
vt 0.373047 0.804688
vt 0.373047 0.826172
vt 0.367188 0.826172
vt 0.373047 0.804688
vt 0.378906 0.804688
vt 0.378906 0.826172
vt 0.373047 0.826172
vt 0.367188 0.800781
vt 0.373047 0.800781
vt 0.400391 0.804688
vt 0.394531 0.804688
vt 0.394531 0.800781
vt 0.400391 0.800781
vt 0.345703 0.804688
vt 0.345703 0.800781
vt 0.960938 0.804688
vt 0.966797 0.804688
vt 0.966797 0.826172
vt 0.960938 0.826172
vt 0.966797 0.804688
vt 0.972656 0.804688
vt 0.972656 0.826172
vt 0.966797 0.826172
vt 0.960938 0.800781
vt 0.966797 0.800781
vt 0.994141 0.804688
vt 0.988281 0.804688
vt 0.988281 0.800781
vt 0.994141 0.800781
vt 0.939453 0.804688
vt 0.939453 0.800781
vt 0.599609 0.900391
vt 0.603516 0.900391
vt 0.603516 0.904297
vt 0.599609 0.904297
vt 0.603516 0.900391
vt 0.607422 0.900391
vt 0.607422 0.904297
vt 0.603516 0.904297
vt 0.599609 0.892578
vt 0.603516 0.892578
vt 0.611328 0.900391
vt 0.607422 0.900391
vt 0.607422 0.892578
vt 0.611328 0.892578
vt 0.595703 0.900391
vt 0.595703 0.892578
vt 0.287109 0.884766
vt 0.291016 0.884766
vt 0.291016 0.888672
vt 0.287109 0.888672
vt 0.291016 0.884766
vt 0.294922 0.884766
vt 0.294922 0.888672
vt 0.291016 0.888672
vt 0.287109 0.876953
vt 0.291016 0.876953
vt 0.298828 0.884766
vt 0.294922 0.884766
vt 0.294922 0.876953
vt 0.298828 0.876953
vt 0.283203 0.884766
vt 0.283203 0.876953
vt 0.509766 0.650391
vt 0.509766 0.650391
vt 0.509766 0.632812
vt 0.509766 0.632812
vt 0.818359 0.650391
vt 0.818359 0.667969
vt 0.818359 0.667969
vt 0.818359 0.650391
vt 0.818359 0.685547
vt 0.818359 0.667969
vt 0.818359 0.667969
vt 0.818359 0.685547
vt 0.818359 0.648437
vt 0.818359 0.648437
vt 0.849610 0.633789
vt 0.849610 0.649414
vt 0.847656 0.649414
vt 0.847656 0.633789
vt 0.847656 0.649414
vt 0.847656 0.633789
vt 0.849610 0.633789
vt 0.849610 0.649414
vt 0.123047 0.707031
vt 0.123047 0.719727
vt 0.121094 0.719727
vt 0.121094 0.707031
vt 0.123047 0.732422
vt 0.123047 0.719727
vt 0.125000 0.719727
vt 0.125000 0.732422
vt 0.121094 0.697266
vt 0.123047 0.697266
vt 0.150391 0.707031
vt 0.148438 0.707031
vt 0.148438 0.697266
vt 0.150391 0.697266
vt 0.135743 0.697266
vt 0.135743 0.707031
vt 0.108398 0.707031
vt 0.108398 0.697266
vt 0.478515 0.649414
vt 0.478515 0.633789
vt 0.480469 0.633789
vt 0.480469 0.649414
vt 0.474609 0.650391
vt 0.474609 0.667969
vt 0.474609 0.667969
vt 0.474609 0.650391
vt 0.480469 0.633789
vt 0.480469 0.649414
vt 0.478515 0.649414
vt 0.478515 0.633789
vt 0.474609 0.685547
vt 0.474609 0.667969
vt 0.474609 0.667969
vt 0.474609 0.685547
vt 0.125000 0.707031
vt 0.123047 0.707031
vt 0.095703 0.697266
vt 0.095703 0.707031
vt 0.121094 0.732422
vt 0.123047 0.732422
vn 0.0000 1.0000 0.0000
vn 0.0000 -1.0000 0.0000
vn -0.7071 0.7071 0.0000
vn 1.0000 0.0000 0.0000
vn -0.1260 -0.0543 0.9905
vn 0.0000 0.0000 -1.0000
vn -1.0000 0.0000 0.0000
vn 0.1414 0.0000 0.9899
vn 0.7071 0.7071 0.0000
vn 0.1262 0.0000 0.9920
vn -0.1414 0.0000 0.9899
vn -0.1791 0.0000 0.9838
vn 0.1791 0.0000 -0.9838
vn 0.1791 0.0000 0.9838
vn -0.1791 0.0000 -0.9838
vn 0.0632 -0.0000 0.9980
vn -0.0212 -0.0000 0.9998
vn 0.0212 0.0000 0.9998
vn 0.0000 0.0000 1.0000
vn 0.0000 0.0000 0.9980
vn -0.0632 0.0000 0.9980
vn 0.0000 0.0000 0.9998
vn 0.0635 0.0000 0.9980
vn -0.0635 0.0000 -0.9980
vn -0.1272 0.0000 0.9919
vn 0.1272 0.0000 -0.9919
vn -0.0635 0.0000 0.9980
vn 0.0000 0.0000 0.9995
vn 0.9995 0.0000 0.0318
vn 0.0635 0.0000 -0.9980
vn 0.0000 0.0000 0.0318
vn -0.0317 0.0000 0.9995
vn 0.1272 0.0000 0.9919
vn -0.1272 0.0000 -0.9919
usemtl m_e1a68180-ca0d-339d-c787-1f84aa5a9e0a
s 1
f 1/1/1 2/2/1 3/3/1 4/4/1
f 5/5/2 6/6/2 7/7/2 8/8/2
f 2/2/3 1/1/3 8/9/3 7/10/3
f 4/11/4 3/12/4 6/13/4 5/14/4
f 3/12/5 2/2/5 7/10/5 6/13/5
f 1/1/6 4/15/6 5/16/6 8/9/6
f 9/17/1 10/18/1 11/19/1 12/20/1
f 13/21/2 14/22/2 15/23/2 16/24/2
f 10/18/7 9/17/7 16/25/7 15/26/7
f 12/27/4 11/28/4 14/29/4 13/30/4
f 11/28/8 10/18/8 15/26/8 14/29/8
f 9/17/6 12/31/6 13/32/6 16/25/6
f 17/33/1 18/34/1 19/35/1 20/36/1
f 21/37/2 22/38/2 23/39/2 24/40/2
f 18/34/7 17/33/7 24/41/7 23/42/7
f 20/43/9 19/44/9 22/45/9 21/46/9
f 19/44/10 18/34/10 23/42/10 22/45/10
f 17/33/6 20/47/6 21/48/6 24/41/6
f 25/49/1 26/50/1 27/51/1 28/52/1
f 29/53/2 30/54/2 31/55/2 32/56/2
f 26/50/7 25/49/7 32/57/7 31/58/7
f 28/59/4 27/60/4 30/61/4 29/62/4
f 27/60/11 26/50/11 31/58/11 30/61/11
f 25/49/6 28/63/6 29/64/6 32/57/6
f 33/65/1 34/66/1 35/67/1 36/68/1
f 37/69/2 38/70/2 39/71/2 40/72/2
f 34/66/7 33/65/7 40/73/7 39/74/7
f 36/75/4 35/76/4 38/77/4 37/78/4
f 35/76/12 34/66/12 39/74/12 38/77/12
f 33/65/13 36/79/13 37/80/13 40/73/13
f 41/81/1 42/82/1 43/83/1 44/84/1
f 45/85/2 46/86/2 47/87/2 48/88/2
f 42/82/7 41/81/7 48/89/7 47/90/7
f 44/91/4 43/92/4 46/93/4 45/94/4
f 43/92/14 42/82/14 47/90/14 46/93/14
f 41/81/15 44/95/15 45/96/15 48/89/15
f 49/97/16 50/98/17 51/99/17 52/100/16
f 53/101/18 54/102/19 55/103/19 56/104/20
f 57/105/21 58/106/19 59/107/19 60/108/22
f 53/101/22 56/104/21 57/109/20 60/110/18
f 60/111/23 58/112/23 55/113/23 53/114/23
f 56/115/24 54/116/24 59/117/24 57/118/24
f 61/119/1 62/120/1 63/121/1 64/122/1
f 65/123/2 66/124/2 67/125/2 68/126/2
f 61/119/7 64/122/7 65/127/7 68/128/7
f 69/129/4 70/130/4 71/131/4 72/132/4
f 68/128/25 67/133/25 62/134/25 61/119/25
f 64/122/26 63/135/26 66/136/26 65/127/26
f 50/137/27 73/138/27 74/139/27 51/140/27
f 51/141/17 74/142/28 75/143/29 52/144/16
f 52/145/30 75/146/30 76/147/30 49/148/30
f 49/149/16 76/150/31 73/151/32 50/152/17
f 70/130/33 62/134/33 67/133/33 71/131/33
f 71/153/2 67/125/2 66/124/2 72/154/2
f 72/155/34 66/136/34 63/135/34 69/156/34
f 69/157/1 63/121/1 62/120/1 70/158/1
