# Blender v2.79 (sub 0) OBJ File: ''
# www.blender.org
mtllib oilpump.mtl
o #oil_translucent
v -0.250000 0.000466 0.250000
v 0.250000 0.000466 0.250000
v 0.250000 0.000466 0.250000
v -0.250000 0.000466 0.250000
v -0.250000 0.000466 -0.250000
v -0.250000 0.000466 -0.250000
v 0.250000 0.000466 -0.250000
v 0.250000 0.000466 -0.250000
vt 0.031250 0.031250
vt 0.031250 0.031250
vt 0.031250 0.031250
vt 0.031250 0.031250
vt 0.031250 0.031250
vt 0.031250 0.031250
vt 0.031250 0.031250
vt 0.031250 0.031250
vt 0.468750 0.031250
vt 0.968750 0.031250
vt 0.968750 0.500000
vt 0.468750 0.500000
vt 0.468750 0.031250
vt 0.968750 0.031250
vt 0.968750 0.500000
vt 0.468750 0.500000
vn -0.0000 0.0000 -1.0000
vn 0.0000 0.0000 0.0000
vn 0.0000 0.0000 1.0000
vn 0.0000 1.0000 -0.0000
vn -0.0000 -1.0000 0.0000
usemtl m_8e5cdfdf-33aa-8b7b-7524-5a387bf4b7b0
s 1
f 1/1/1 2/2/1 3/3/1 4/4/1
f 5/5/2 1/1/2 4/4/2 6/6/2
f 7/7/3 5/5/3 6/6/3 8/8/3
f 2/2/2 7/7/2 8/8/2 3/3/2
f 8/9/4 6/10/4 4/11/4 3/12/4
f 2/13/5 1/14/5 5/15/5 7/16/5
o cube
v -0.125000 0.000000 0.125000
v 0.125000 0.000000 0.125000
v 0.125000 0.187500 0.125000
v -0.125000 0.187500 0.125000
v -0.125000 -0.000000 -0.062500
v -0.125000 0.187500 -0.062500
v 0.125000 -0.000000 -0.062500
v 0.125000 0.187500 -0.062500
v -0.062500 0.000000 0.187500
v 0.062500 0.000000 0.187500
v 0.062500 0.187500 0.187500
v -0.062500 0.187500 0.187500
v -0.062500 0.000000 0.125000
v -0.062500 0.187500 0.125000
v 0.062500 0.000000 0.125000
v 0.062500 0.187500 0.125000
v -0.031250 0.046875 -0.062500
v 0.031250 0.046875 -0.062500
v 0.031250 0.109375 -0.062500
v -0.031250 0.109375 -0.062500
v -0.031250 0.046875 -0.125000
v -0.031250 0.109375 -0.125000
v 0.031250 0.046875 -0.125000
v 0.031250 0.109375 -0.125000
v 0.062500 0.093750 -0.062500
v 0.125000 0.093750 -0.062500
v 0.125000 0.156250 -0.062500
v 0.062500 0.156250 -0.062500
v 0.062500 0.093750 -0.125000
v 0.062500 0.156250 -0.125000
v 0.125000 0.093750 -0.125000
v 0.125000 0.156250 -0.125000
v -0.125000 0.015625 -0.062500
v -0.062500 0.015625 -0.062500
v -0.062500 0.078125 -0.062500
v -0.125000 0.078125 -0.062500
v -0.125000 0.015625 -0.125000
v -0.125000 0.078125 -0.125000
v -0.062500 0.015625 -0.125000
v -0.062500 0.078125 -0.125000
v -0.125000 0.109375 -0.062500
v -0.062500 0.109375 -0.062500
v -0.062500 0.171875 -0.062500
v -0.125000 0.171875 -0.062500
v -0.125000 0.109375 -0.125000
v -0.125000 0.171875 -0.125000
v -0.062500 0.109375 -0.125000
v -0.062500 0.171875 -0.125000
vt 0.000000 0.625000
vt 0.250000 0.625000
vt 0.250000 0.812500
vt 0.000000 0.812500
vt 0.000000 0.437500
vt 0.187500 0.437500
vt 0.187500 0.625000
vt 0.000000 0.625000
vt 0.250000 0.625000
vt 0.500000 0.625000
vt 0.500000 0.812500
vt 0.250000 0.812500
vt 0.187500 0.437500
vt 0.375000 0.437500
vt 0.375000 0.625000
vt 0.187500 0.625000
vt 0.000000 0.812500
vt 0.250000 0.812500
vt 0.250000 1.000000
vt 0.000000 1.000000
vt 0.250000 0.812500
vt 0.500000 0.812500
vt 0.500000 1.000000
vt 0.250000 1.000000
vt 0.125000 0.218750
vt 0.250000 0.218750
vt 0.250000 0.406250
vt 0.125000 0.406250
vt 0.000000 0.218750
vt 0.062500 0.218750
vt 0.062500 0.406250
vt 0.000000 0.406250
vt 0.250000 0.218750
vt 0.375000 0.218750
vt 0.375000 0.406250
vt 0.250000 0.406250
vt 0.062500 0.218750
vt 0.125000 0.218750
vt 0.125000 0.406250
vt 0.062500 0.406250
vt 0.000000 0.156250
vt 0.125000 0.156250
vt 0.125000 0.218750
vt 0.000000 0.218750
vt 0.125000 0.156250
vt 0.250000 0.156250
vt 0.250000 0.218750
vt 0.593750 0.843750
vt 0.656250 0.843750
vt 0.656250 0.906250
vt 0.593750 0.906250
vt 0.531250 0.843750
vt 0.531250 0.906250
vt 0.718750 0.843750
vt 0.781250 0.843750
vt 0.781250 0.906250
vt 0.718750 0.906250
vt 0.593750 0.906250
vt 0.656250 0.906250
vt 0.656250 0.968750
vt 0.593750 0.968750
vt 0.656250 0.906250
vt 0.718750 0.906250
vt 0.718750 0.968750
vt 0.656250 0.968750
vt 0.593750 0.843750
vt 0.656250 0.843750
vt 0.656250 0.906250
vt 0.593750 0.906250
vt 0.531250 0.843750
vt 0.531250 0.906250
vt 0.718750 0.843750
vt 0.781250 0.843750
vt 0.781250 0.906250
vt 0.718750 0.906250
vt 0.593750 0.906250
vt 0.656250 0.906250
vt 0.656250 0.968750
vt 0.593750 0.968750
vt 0.656250 0.906250
vt 0.718750 0.906250
vt 0.718750 0.968750
vt 0.656250 0.968750
vt 0.593750 0.843750
vt 0.656250 0.843750
vt 0.656250 0.906250
vt 0.593750 0.906250
vt 0.531250 0.843750
vt 0.531250 0.906250
vt 0.718750 0.843750
vt 0.781250 0.843750
vt 0.781250 0.906250
vt 0.718750 0.906250
vt 0.593750 0.906250
vt 0.656250 0.906250
vt 0.656250 0.968750
vt 0.593750 0.968750
vt 0.656250 0.906250
vt 0.718750 0.906250
vt 0.718750 0.968750
vt 0.656250 0.968750
vt 0.593750 0.843750
vt 0.656250 0.843750
vt 0.656250 0.906250
vt 0.593750 0.906250
vt 0.531250 0.843750
vt 0.531250 0.906250
vt 0.718750 0.843750
vt 0.781250 0.843750
vt 0.781250 0.906250
vt 0.718750 0.906250
vt 0.593750 0.906250
vt 0.656250 0.906250
vt 0.656250 0.968750
vt 0.593750 0.968750
vt 0.656250 0.906250
vt 0.718750 0.906250
vt 0.718750 0.968750
vt 0.656250 0.968750
vn -0.0000 0.0000 1.0000
vn -1.0000 -0.0000 -0.0000
vn 0.0000 -0.0000 -1.0000
vn 1.0000 0.0000 0.0000
vn 0.0000 1.0000 -0.0000
vn -0.0000 -1.0000 0.0000
usemtl m_8e5cdfdf-33aa-8b7b-7524-5a387bf4b7b0
s 1
f 9/17/6 10/18/6 11/19/6 12/20/6
f 13/21/7 9/22/7 12/23/7 14/24/7
f 15/25/8 13/26/8 14/27/8 16/28/8
f 10/29/9 15/30/9 16/31/9 11/32/9
f 16/33/10 14/34/10 12/35/10 11/36/10
f 10/37/11 9/38/11 13/39/11 15/40/11
f 17/41/6 18/42/6 19/43/6 20/44/6
f 21/45/7 17/46/7 20/47/7 22/48/7
f 23/49/8 21/50/8 22/51/8 24/52/8
f 18/53/9 23/54/9 24/55/9 19/56/9
f 24/57/10 22/58/10 20/59/10 19/60/10
f 18/61/11 17/62/11 21/63/11 23/54/11
f 25/64/6 26/65/6 27/66/6 28/67/6
f 29/68/7 25/64/7 28/67/7 30/69/7
f 31/70/8 29/71/8 30/72/8 32/73/8
f 26/65/9 31/70/9 32/73/9 27/66/9
f 32/74/10 30/75/10 28/76/10 27/77/10
f 26/78/11 25/79/11 29/80/11 31/81/11
f 33/82/6 34/83/6 35/84/6 36/85/6
f 37/86/7 33/82/7 36/85/7 38/87/7
f 39/88/8 37/89/8 38/90/8 40/91/8
f 34/83/9 39/88/9 40/91/9 35/84/9
f 40/92/10 38/93/10 36/94/10 35/95/10
f 34/96/11 33/97/11 37/98/11 39/99/11
f 41/100/6 42/101/6 43/102/6 44/103/6
f 45/104/7 41/100/7 44/103/7 46/105/7
f 47/106/8 45/107/8 46/108/8 48/109/8
f 42/101/9 47/106/9 48/109/9 43/102/9
f 48/110/10 46/111/10 44/112/10 43/113/10
f 42/114/11 41/115/11 45/116/11 47/117/11
f 49/118/6 50/119/6 51/120/6 52/121/6
f 53/122/7 49/118/7 52/121/7 54/123/7
f 55/124/8 53/125/8 54/126/8 56/127/8
f 50/119/9 55/124/9 56/127/9 51/120/9
f 56/128/10 54/129/10 52/130/10 51/131/10
f 50/132/11 49/133/11 53/134/11 55/135/11
