# Blender v2.79 (sub 0) OBJ File: ''
# www.blender.org
mtllib oilpump.mtl
o oil
v 0.250000 0.000000 -0.312500
v -0.250000 0.000000 -0.312500
v -0.250000 0.000000 -0.312500
v 0.250000 0.000000 -0.312500
v 0.250000 0.000000 0.187500
v 0.250000 0.000000 0.187500
v -0.250000 0.000000 0.187500
v -0.250000 0.000000 0.187500
vt 0.031250 0.031250
vt 0.031250 0.031250
vt 0.031250 0.031250
vt 0.031250 0.031250
vt 0.031250 0.031250
vt 0.031250 0.031250
vt 0.031250 0.031250
vt 0.031250 0.031250
vt 0.468750 0.031250
vt 0.968750 0.031250
vt 0.968750 0.500000
vt 0.468750 0.500000
vt 0.468750 0.031250
vt 0.968750 0.031250
vt 0.968750 0.500000
vt 0.468750 0.500000
vn 0.0000 -0.0000 -1.0000
vn 0.0000 0.0000 0.0000
vn 0.0000 0.0000 1.0000
vn 0.0000 1.0000 0.0000
vn 0.0000 -1.0000 0.0000
usemtl none
s 1
f 1/1/1 2/2/1 3/3/1 4/4/1
f 5/5/2 1/1/2 4/4/2 6/6/2
f 7/7/3 5/5/3 6/6/3 8/8/3
f 2/2/2 7/7/2 8/8/2 3/3/2
f 8/9/4 6/10/4 4/11/4 3/12/4
f 2/13/5 1/14/5 5/15/5 7/16/5
o tubes
v -0.031250 0.015625 0.000000
v -0.093750 0.015625 0.000000
v -0.093750 0.078125 0.000000
v -0.031250 0.078125 0.000000
v -0.031250 0.015625 0.062500
v -0.031250 0.078125 0.062500
v -0.093750 0.015625 0.062500
v -0.093750 0.078125 0.062500
v -0.023438 0.093750 0.000000
v -0.081180 0.093750 -0.023918
v -0.081180 0.156250 -0.023918
v -0.023438 0.156250 0.000000
v -0.047355 0.093750 0.057742
v -0.047355 0.156250 0.057742
v -0.105098 0.093750 0.033825
v -0.105098 0.156250 0.033825
v 0.093750 0.031250 -0.031250
v 0.031250 0.031250 -0.031250
v 0.031250 0.093750 -0.031250
v 0.093750 0.093750 -0.031250
v 0.093750 0.031250 0.093750
v 0.093750 0.093750 0.093750
v 0.031250 0.031250 0.093750
v 0.031250 0.093750 0.093750
v 0.125000 0.109375 0.000000
v 0.062500 0.109375 0.000000
v 0.062500 0.171875 0.000000
v 0.125000 0.171875 0.000000
v 0.125000 0.109375 0.062500
v 0.125000 0.171875 0.062500
v 0.062500 0.109375 0.062500
v 0.062500 0.171875 0.062500
vt 0.562500 0.750000
vt 0.625000 0.750000
vt 0.625000 0.812500
vt 0.562500 0.812500
vt 0.500000 0.750000
vt 0.500000 0.812500
vt 0.687500 0.750000
vt 0.750000 0.750000
vt 0.750000 0.812500
vt 0.687500 0.812500
vt 0.562500 0.812500
vt 0.625000 0.812500
vt 0.625000 0.875000
vt 0.562500 0.875000
vt 0.625000 0.812500
vt 0.687500 0.812500
vt 0.687500 0.875000
vt 0.625000 0.875000
vt 0.562500 0.875000
vt 0.625000 0.875000
vt 0.625000 0.937500
vt 0.562500 0.937500
vt 0.500000 0.875000
vt 0.500000 0.937500
vt 0.687500 0.875000
vt 0.750000 0.875000
vt 0.750000 0.937500
vt 0.687500 0.937500
vt 0.562500 0.937500
vt 0.625000 0.937500
vt 0.625000 1.000000
vt 0.562500 1.000000
vt 0.625000 0.937500
vt 0.687500 0.937500
vt 0.687500 1.000000
vt 0.625000 1.000000
vt 0.875000 0.687500
vt 0.937500 0.687500
vt 0.937500 0.750000
vt 0.875000 0.750000
vt 0.812500 0.750000
vt 0.812500 0.875000
vt 0.750000 0.875000
vt 0.750000 0.750000
vt 0.812500 0.687500
vt 0.875000 0.687500
vt 0.875000 0.750000
vt 0.812500 0.750000
vt 0.937500 0.750000
vt 0.937500 0.875000
vt 0.875000 0.875000
vt 0.875000 0.750000
vt 0.937500 0.750000
vt 1.000000 0.750000
vt 1.000000 0.875000
vt 0.937500 0.875000
vt 0.812500 0.750000
vt 0.875000 0.750000
vt 0.875000 0.875000
vt 0.812500 0.875000
vt 0.812500 0.875000
vt 0.875000 0.875000
vt 0.875000 0.937500
vt 0.812500 0.937500
vt 0.750000 0.875000
vt 0.750000 0.937500
vt 0.937500 0.875000
vt 1.000000 0.875000
vt 1.000000 0.937500
vt 0.937500 0.937500
vt 0.812500 0.937500
vt 0.875000 0.937500
vt 0.875000 1.000000
vt 0.812500 1.000000
vt 0.875000 0.937500
vt 0.937500 0.937500
vt 0.937500 1.000000
vt 0.875000 1.000000
vn 0.0000 0.0000 -1.0000
vn 1.0000 0.0000 0.0000
vn 0.0000 0.0000 1.0000
vn -1.0000 0.0000 0.0000
vn 0.0000 1.0000 0.0000
vn 0.0000 -1.0000 0.0000
vn 0.3827 0.0000 -0.9239
vn 0.9239 -0.0000 0.3827
vn -0.3827 -0.0000 0.9239
vn -0.9239 0.0000 -0.3827
usemtl m_8e5cdfdf-33aa-8b7b-7524-5a387bf4b7b0
s 1
f 9/17/6 10/18/6 11/19/6 12/20/6
f 13/21/7 9/17/7 12/20/7 14/22/7
f 15/23/8 13/24/8 14/25/8 16/26/8
f 10/18/9 15/23/9 16/26/9 11/19/9
f 16/27/10 14/28/10 12/29/10 11/30/10
f 10/31/11 9/32/11 13/33/11 15/34/11
f 17/35/12 18/36/12 19/37/12 20/38/12
f 21/39/13 17/35/13 20/38/13 22/40/13
f 23/41/14 21/42/14 22/43/14 24/44/14
f 18/36/15 23/41/15 24/44/15 19/37/15
f 24/45/10 22/46/10 20/47/10 19/48/10
f 18/49/11 17/50/11 21/51/11 23/52/11
f 25/53/6 26/54/6 27/55/6 28/56/6
f 29/57/7 25/58/7 28/59/7 30/60/7
f 31/61/8 29/62/8 30/63/8 32/64/8
f 26/65/9 31/66/9 32/67/9 27/68/9
f 32/69/10 30/70/10 28/71/10 27/72/10
f 26/73/11 25/74/11 29/75/11 31/76/11
f 33/77/6 34/78/6 35/79/6 36/80/6
f 37/81/7 33/77/7 36/80/7 38/82/7
f 39/83/8 37/84/8 38/85/8 40/86/8
f 34/78/9 39/83/9 40/86/9 35/79/9
f 40/87/10 38/88/10 36/89/10 35/90/10
f 34/91/11 33/92/11 37/93/11 39/94/11
o cube
v 0.125000 0.000000 -0.187500
v -0.125000 0.000000 -0.187500
v -0.125000 0.187500 -0.187500
v 0.125000 0.187500 -0.187500
v 0.125000 0.000000 -0.062500
v 0.125000 0.187500 -0.062500
v -0.125000 0.000000 -0.062500
v -0.125000 0.187500 -0.062500
v 0.062500 0.000000 -0.250000
v -0.062500 0.000000 -0.250000
v -0.062500 0.187500 -0.250000
v 0.062500 0.187500 -0.250000
v 0.062500 0.000000 -0.187500
v 0.062500 0.187500 -0.187500
v -0.062500 0.000000 -0.187500
v -0.062500 0.187500 -0.187500
v 0.125000 0.000000 -0.062500
v -0.101562 0.000000 -0.062500
v -0.101562 0.187500 -0.062500
v 0.125000 0.187500 -0.062500
v 0.125000 0.000000 0.000000
v 0.125000 0.187500 0.000000
v -0.101562 0.000000 0.000000
v -0.101562 0.187500 0.000000
v -0.093750 0.000000 -0.062500
v -0.125000 0.000000 -0.062500
v -0.125000 0.187500 -0.062500
v -0.093750 0.187500 -0.062500
v -0.093750 0.000000 -0.023437
v -0.093750 0.187500 -0.023437
v -0.125000 0.000000 -0.023437
v -0.125000 0.187500 -0.023437
v -0.102903 0.000063 -0.045446
v -0.124912 0.000063 -0.023437
v -0.124912 0.187437 -0.023437
v -0.102903 0.187437 -0.045446
v -0.079513 0.000063 -0.022056
v -0.079513 0.187437 -0.022056
v -0.101522 0.000063 -0.000048
v -0.101522 0.187437 -0.000048
v 0.124912 0.000063 -0.187500
v 0.062507 0.000063 -0.249905
v 0.062507 0.187437 -0.249905
v 0.124912 0.187437 -0.187500
v 0.080806 0.000063 -0.143394
v 0.080806 0.187437 -0.143394
v 0.018401 0.000063 -0.205799
v 0.018401 0.187437 -0.205799
v -0.062507 0.000063 -0.249905
v -0.124912 0.000063 -0.187500
v -0.124912 0.187437 -0.187500
v -0.062507 0.187437 -0.249905
v -0.018401 0.000063 -0.205799
v -0.018401 0.187437 -0.205799
v -0.080806 0.000063 -0.143394
v -0.080806 0.187437 -0.143394
vt 0.000000 0.437500
vt 0.250000 0.437500
vt 0.250000 0.625000
vt 0.000000 0.625000
vt 0.062500 0.250000
vt 0.187500 0.250000
vt 0.187500 0.437500
vt 0.062500 0.437500
vt 0.000000 0.437500
vt 0.250000 0.437500
vt 0.250000 0.625000
vt 0.000000 0.625000
vt 0.187500 0.250000
vt 0.312500 0.250000
vt 0.312500 0.437500
vt 0.187500 0.437500
vt 0.000000 0.937500
vt 0.250000 0.937500
vt 0.250000 0.812500
vt 0.000000 0.812500
vt 0.500000 0.812500
vt 0.250000 0.812500
vt 0.250000 0.937500
vt 0.500000 0.937500
vt 0.125000 0.062500
vt 0.250000 0.062500
vt 0.250000 0.250000
vt 0.125000 0.250000
vt 0.000000 0.062500
vt 0.062500 0.062500
vt 0.062500 0.250000
vt 0.000000 0.250000
vt 0.062500 0.437500
vt 0.187500 0.437500
vt 0.187500 0.625000
vt 0.062500 0.625000
vt 0.062500 0.062500
vt 0.125000 0.062500
vt 0.125000 0.250000
vt 0.062500 0.250000
vt 0.031250 0.031250
vt 0.093750 0.031250
vt 0.093750 0.062500
vt 0.031250 0.062500
vt 0.156250 0.031250
vt 0.218750 0.031250
vt 0.218750 0.062500
vt 0.156250 0.062500
vt 0.000000 0.437500
vt 0.226562 0.437500
vt 0.226562 0.625000
vt 0.000000 0.625000
vt 0.000000 0.250000
vt 0.062500 0.250000
vt 0.062500 0.437500
vt 0.000000 0.437500
vt 0.023438 0.625000
vt 0.250000 0.625000
vt 0.250000 0.812500
vt 0.023438 0.812500
vt 0.312500 0.250000
vt 0.375000 0.250000
vt 0.375000 0.437500
vt 0.312500 0.437500
vt 0.226562 1.000000
vt 0.000000 1.000000
vt 0.000000 0.937500
vt 0.226562 0.937500
vt 0.273438 0.937500
vt 0.500000 0.937500
vt 0.500000 1.000000
vt 0.273438 1.000000
vt 0.226562 0.437500
vt 0.250000 0.437500
vt 0.250000 0.625000
vt 0.226562 0.625000
vt 0.000000 0.250000
vt 0.039062 0.250000
vt 0.039062 0.437500
vt 0.000000 0.437500
vt 0.000000 0.250000
vt 0.039062 0.250000
vt 0.039062 0.437500
vt 0.000000 0.437500
vt 0.000000 0.250000
vt 0.031250 0.250000
vt 0.031250 0.437500
vt 0.000000 0.437500
vt 0.250000 1.000000
vt 0.226562 1.000000
vt 0.226562 0.968750
vt 0.250000 0.968750
vt 0.500000 0.937500
vt 0.476562 0.937500
vt 0.476562 1.000000
vt 0.500000 1.000000
vt 0.000000 0.625000
vt 0.023438 0.625000
vt 0.023438 0.812500
vt 0.000000 0.812500
vt 0.023438 0.250000
vt 0.062500 0.250000
vt 0.062500 0.437500
vt 0.023438 0.437500
vt 0.000000 0.625000
vt 0.023438 0.625000
vt 0.023438 0.812500
vt 0.000000 0.812500
vt 0.000000 0.625000
vt 0.023438 0.625000
vt 0.023438 0.812500
vt 0.000000 0.812500
vt 0.250000 1.000000
vt 0.226562 1.000000
vt 0.226562 0.968750
vt 0.250000 0.968750
vt 0.500000 0.968750
vt 0.476562 0.968750
vt 0.476562 1.000000
vt 0.500000 1.000000
vt 0.000000 0.062500
vt 0.062500 0.062500
vt 0.062500 0.250000
vt 0.000000 0.250000
vt 0.187500 0.437500
vt 0.250000 0.437500
vt 0.250000 0.625000
vt 0.187500 0.625000
vt 0.156250 0.437500
vt 0.218750 0.437500
vt 0.218750 0.625000
vt 0.156250 0.625000
vt 0.000000 0.062500
vt 0.062500 0.062500
vt 0.062500 0.250000
vt 0.000000 0.250000
vt 0.000000 0.031250
vt 0.031250 0.031250
vt 0.031250 0.062500
vt 0.000000 0.062500
vt 0.125000 0.031250
vt 0.156250 0.031250
vt 0.156250 0.062500
vt 0.125000 0.062500
vt 0.125000 0.062500
vt 0.062500 0.062500
vt 0.062500 0.250000
vt 0.125000 0.250000
vt 0.125000 0.062500
vt 0.062500 0.062500
vt 0.062500 0.250000
vt 0.125000 0.250000
vt 0.093750 0.437500
vt 0.031250 0.437500
vt 0.031250 0.625000
vt 0.093750 0.625000
vt 0.062500 0.437500
vt 0.000000 0.437500
vt 0.000000 0.625000
vt 0.062500 0.625000
vt 0.125000 0.031250
vt 0.093750 0.031250
vt 0.093750 0.062500
vt 0.125000 0.062500
vt 0.250000 0.031250
vt 0.218750 0.031250
vt 0.218750 0.062500
vt 0.250000 0.062500
vn 0.0000 0.0000 -1.0000
vn 1.0000 -0.0000 0.0000
vn 0.0000 -0.0000 1.0000
vn -1.0000 -0.0000 0.0000
vn 0.0000 1.0000 0.0000
vn 0.0000 -1.0000 0.0000
vn -0.7071 0.0000 -0.7071
vn 0.7071 0.0000 -0.7071
vn 0.7071 -0.0000 0.7071
vn -0.7071 0.0000 0.7071
usemtl m_8e5cdfdf-33aa-8b7b-7524-5a387bf4b7b0
s 1
f 41/95/16 42/96/16 43/97/16 44/98/16
f 45/99/17 41/100/17 44/101/17 46/102/17
f 47/103/18 45/104/18 46/105/18 48/106/18
f 42/107/19 47/108/19 48/109/19 43/110/19
f 48/111/20 46/112/20 44/113/20 43/114/20
f 42/115/21 41/116/21 45/117/21 47/118/21
f 49/119/16 50/120/16 51/121/16 52/122/16
f 53/123/17 49/124/17 52/125/17 54/126/17
f 55/127/18 53/128/18 54/129/18 56/130/18
f 50/131/19 55/132/19 56/133/19 51/134/19
f 56/135/20 54/136/20 52/137/20 51/138/20
f 50/139/21 49/140/21 53/141/21 55/142/21
f 57/143/16 58/144/16 59/145/16 60/146/16
f 61/147/17 57/148/17 60/149/17 62/150/17
f 63/151/18 61/152/18 62/153/18 64/154/18
f 58/155/19 63/156/19 64/157/19 59/158/19
f 64/159/20 62/160/20 60/161/20 59/162/20
f 58/163/21 57/164/21 61/165/21 63/166/21
f 65/167/16 66/168/16 67/169/16 68/170/16
f 69/171/17 65/172/17 68/173/17 70/174/17
f 71/175/18 69/176/18 70/177/18 72/178/18
f 66/179/19 71/180/19 72/181/19 67/182/19
f 72/183/20 70/184/20 68/185/20 67/186/20
f 66/187/21 65/188/21 69/189/21 71/190/21
f 73/191/22 74/192/22 75/193/22 76/194/22
f 77/195/23 73/196/23 76/197/23 78/198/23
f 79/199/24 77/200/24 78/201/24 80/202/24
f 74/203/25 79/204/25 80/205/25 75/206/25
f 80/207/20 78/208/20 76/209/20 75/210/20
f 74/211/21 73/212/21 77/213/21 79/214/21
f 81/215/23 82/216/23 83/217/23 84/218/23
f 85/219/24 81/220/24 84/221/24 86/222/24
f 87/223/25 85/224/25 86/225/25 88/226/25
f 82/227/22 87/228/22 88/229/22 83/230/22
f 88/231/20 86/232/20 84/233/20 83/234/20
f 82/235/21 81/236/21 85/237/21 87/238/21
f 89/239/22 90/240/22 91/241/22 92/242/22
f 93/243/23 89/244/23 92/245/23 94/246/23
f 95/247/24 93/248/24 94/249/24 96/250/24
f 90/251/25 95/252/25 96/253/25 91/254/25
f 96/255/20 94/256/20 92/257/20 91/258/20
f 90/259/21 89/260/21 93/261/21 95/262/21
