# Blender v2.78 (sub 0) OBJ File: ''
# www.blender.org
mtllib or_extension_small.mtl
o cube
v 0.349854 -0.272400 0.129256
v 0.349854 -1.454170 0.129256
v 0.608366 -0.272400 0.129256
v 0.608366 -1.454170 0.129256
v 0.608366 -0.272400 -0.129256
v 0.608366 -1.454170 -0.129256
v 0.349854 -0.272400 -0.129256
v 0.349854 -1.454170 -0.129256
v 0.331389 -0.272400 0.147721
v 0.331389 -1.454170 0.147721
v 0.626831 -0.272400 0.147721
v 0.626831 -1.454170 0.147721
v 0.626831 -0.272400 -0.147721
v 0.626831 -1.454170 -0.147721
v 0.331389 -0.272400 -0.147721
v 0.331389 -1.454170 -0.147721
v 0.331389 -0.050819 0.147721
v 0.331389 -0.272400 0.147721
v 0.626831 -0.050819 0.147721
v 0.626831 -0.272400 0.147721
v 0.626831 -0.050819 -0.147721
v 0.626831 -0.272400 -0.147721
v 0.331389 -0.050819 -0.147721
v 0.331389 -0.272400 -0.147721
v 0.209012 -0.050819 0.147721
v 0.417922 -0.259728 0.147721
v 0.417922 0.158091 0.147721
v 0.626831 -0.050819 0.147721
v 0.417922 0.158091 -0.147721
v 0.626831 -0.050819 -0.147721
v 0.209012 -0.050819 -0.147721
v 0.417922 -0.259728 -0.147721
v -0.006777 0.158091 0.147721
v -0.006777 -0.137352 0.147721
v 0.417922 0.158091 0.147721
v 0.417922 -0.137352 0.147721
v 0.417922 0.158091 -0.147721
v 0.417922 -0.137352 -0.147721
v -0.006777 0.158091 -0.147721
v -0.006777 -0.137352 -0.147721
v -0.117568 0.195021 0.184652
v -0.117568 -0.174282 0.184652
v -0.006777 0.195021 0.184652
v -0.006777 -0.174282 0.184652
v -0.006777 0.195021 -0.184652
v -0.006777 -0.174282 -0.184652
v -0.117568 0.195021 -0.184651
v -0.117568 -0.174282 -0.184651
v 0.331389 -1.675752 0.147721
v 0.540298 -1.884661 0.147721
v 0.540298 -1.466843 0.147721
v 0.749207 -1.675752 0.147721
v 0.540298 -1.466843 -0.147721
v 0.749207 -1.675752 -0.147721
v 0.331389 -1.675752 -0.147721
v 0.540298 -1.884661 -0.147721
v 0.331389 -1.454170 0.147721
v 0.331389 -1.675752 0.147721
v 0.626831 -1.454170 0.147721
v 0.626831 -1.675752 0.147721
v 0.626831 -1.454170 -0.147721
v 0.626831 -1.675752 -0.147721
v 0.331389 -1.454170 -0.147721
v 0.331389 -1.675752 -0.147721
v 0.540298 -1.589219 0.147721
v 0.540298 -1.884661 0.147721
v 0.964997 -1.589219 0.147721
v 0.964997 -1.884661 0.147721
v 0.964997 -1.589219 -0.147721
v 0.964997 -1.884661 -0.147721
v 0.540298 -1.589219 -0.147721
v 0.540298 -1.884661 -0.147721
v 0.964997 -1.552289 0.184652
v 0.964997 -1.921592 0.184652
v 1.075788 -1.552289 0.184651
v 1.075788 -1.921592 0.184651
v 1.075788 -1.552289 -0.184652
v 1.075788 -1.921592 -0.184652
v 0.964997 -1.552289 -0.184652
v 0.964997 -1.921592 -0.184652
vt 0.0000 0.9375
vt 0.0625 0.9375
vt 0.0625 1.0000
vt 0.0000 1.0000
vt 0.0000 0.9375
vt 0.0625 0.9375
vt 0.0625 1.0000
vt 0.0000 1.0000
vt 0.0000 0.9375
vt 0.0625 0.9375
vt 0.0625 1.0000
vt 0.0000 1.0000
vt 0.0000 0.9375
vt 0.0625 0.9375
vt 0.0625 1.0000
vt 0.0000 1.0000
vt 0.0000 0.9375
vt 0.0625 0.9375
vt 0.0625 1.0000
vt 0.0000 1.0000
vt 0.0000 0.9375
vt 0.0625 0.9375
vt 0.0625 1.0000
vt 0.0000 1.0000
vt 0.0000 0.9375
vt 0.0625 0.9375
vt 0.0625 1.0000
vt 0.0000 1.0000
vt 0.0000 0.9375
vt 0.0625 0.9375
vt 0.0625 1.0000
vt 0.0000 1.0000
vt 0.0000 0.9375
vt 0.0625 0.9375
vt 0.0625 1.0000
vt 0.0000 1.0000
vt 0.0625 0.9375
vt 0.0625 1.0000
vt 0.0000 1.0000
vt 0.0000 0.9375
vt 0.0625 0.9375
vt 0.0625 1.0000
vt 0.0000 1.0000
vt 0.0000 0.9375
vt 0.0625 0.9375
vt 0.0625 1.0000
vt 0.0000 1.0000
vt 0.0625 1.0000
vt 0.0000 1.0000
vt 0.0000 0.9375
vt 0.0625 0.9375
vt 0.0625 1.0000
vt 0.0000 1.0000
vt 0.0000 0.9375
vt 0.0625 0.9375
vt 0.0625 1.0000
vt 0.0000 1.0000
vt 0.6250 0.0000
vt 0.8125 0.0000
vt 0.8125 1.0000
vt 0.6250 1.0000
vt 0.0000 0.9375
vt 0.0625 0.9375
vt 0.0625 1.0000
vt 0.0000 0.9375
vt 0.0625 0.9375
vt 0.0000 1.0000
vt 0.0625 0.9375
vt 0.0625 1.0000
vt 0.0000 1.0000
vt 0.0000 0.9375
vt 0.0625 0.9375
vt 0.0625 1.0000
vt 0.0000 1.0000
vt 0.0000 0.9375
vt 0.0625 0.9375
vt 0.0625 1.0000
vt 0.6250 0.0000
vt 0.8125 0.0000
vt 0.8125 1.0000
vt 0.6250 1.0000
vt 0.0000 0.9375
vt 0.0625 0.9375
vt 0.0625 1.0000
vt 0.0000 1.0000
vt 0.0625 1.0000
vt 0.0000 1.0000
vt 0.0000 0.9375
vt 0.0625 0.9375
vt 0.0625 1.0000
vt 0.0000 1.0000
vt 0.0000 0.9375
vt 0.0625 0.9375
vt 0.0625 1.0000
vt 0.0000 1.0000
vt 0.0625 0.9375
vt 0.0625 1.0000
vt 0.0000 1.0000
vt 0.0000 0.9375
vt 0.0625 0.9375
vt 0.0625 1.0000
vt 0.0000 0.9375
vt 0.0625 0.9375
vt 0.0625 1.0000
vt 0.0000 1.0000
vt 0.0000 0.9375
vt 0.0625 0.9375
vt 0.0000 1.0000
vt 0.0000 0.9375
vt 0.0625 0.9375
vt 0.0625 1.0000
vt 0.0000 1.0000
vt 0.1250 0.0000
vt 0.3750 0.0000
vt 0.3750 1.0000
vt 0.1250 1.0000
vt 0.0000 0.9375
vt 0.0625 0.9375
vt 0.0625 1.0000
vt 0.0000 1.0000
vt 0.0000 0.9375
vt 0.0625 0.9375
vt 0.0625 1.0000
vt 0.0000 1.0000
vt 0.0000 0.9375
vt 0.0625 1.0000
vt 0.0000 1.0000
vt 0.1250 0.0000
vt 0.3750 0.0000
vt 0.3750 1.0000
vt 0.1250 1.0000
vt 0.0000 0.9375
vt 0.0625 1.0000
vt 0.0000 1.0000
vt 0.0000 0.9375
vt 0.0625 0.9375
vt 0.0625 1.0000
vt 0.0000 1.0000
vt 0.0000 0.9375
vt 0.0625 0.9375
vt 0.0625 1.0000
vt 0.0000 1.0000
vt 0.0000 0.9375
vt 0.0625 0.9375
vt 0.0000 1.0000
vt 0.6250 0.0000
vt 0.8125 0.0000
vt 0.8125 1.0000
vt 0.6250 1.0000
vt 0.0000 0.9375
vt 0.0625 0.9375
vt 0.0625 1.0000
vt 0.0000 1.0000
vt 0.0625 1.0000
vt 0.0000 1.0000
vt 0.0000 0.9375
vt 0.0625 0.9375
vt 0.0625 1.0000
vt 0.0000 1.0000
vt 0.0625 0.9375
vt 0.0625 1.0000
vt 0.0000 0.9375
vt 0.0625 0.9375
vt 0.0625 1.0000
vt 0.0000 1.0000
vt 0.0000 0.9375
vt 0.0625 0.9375
vt 0.0625 1.0000
vt 0.0000 1.0000
vt 0.0000 0.9375
vt 0.0625 1.0000
vt 0.0000 1.0000
vt 0.0000 0.9375
vt 0.0625 0.9375
vt 0.0625 1.0000
vt 0.0000 1.0000
vt 0.0000 0.9375
vt 0.0625 0.9375
vt 0.0625 1.0000
vt 0.0000 1.0000
vt 0.0000 0.9375
vt 0.0625 0.9375
vt 0.0000 0.9375
vt 0.0625 0.9375
vt 0.0625 1.0000
vt 0.0000 1.0000
vt 0.6250 0.0000
vt 0.6250 1.0000
vt 0.0000 0.9375
vt 0.0625 0.9375
vt 0.0625 1.0000
vt 0.0000 1.0000
vt 0.0000 0.9375
vt 0.0625 0.9375
vt 0.0000 0.9375
vt 0.0000 1.0000
vt 0.6250 0.0000
vt 0.6250 1.0000
vt 0.0000 0.9375
vt 0.0625 0.9375
vt 0.6250 0.0000
vt 0.8125 0.0000
vt 0.8125 1.0000
vt 0.6250 1.0000
vn 0.0000 0.0000 -1.0000
vn 0.0000 1.0000 0.0000
vn 0.0000 -1.0000 0.0000
vn 0.0000 0.0000 1.0000
vn 1.0000 0.0000 0.0000
vn -1.0000 -0.0000 0.0000
vn -0.7071 0.7071 0.0000
vn -0.7071 -0.7071 0.0000
vn 0.7071 -0.7071 -0.0000
vn 0.7071 0.7071 -0.0000
usemtl m_0
s 1
f 54/1/1 56/2/1 55/3/1 53/4/1
f 7/5/2 1/6/2 3/7/2 5/8/2
f 78/9/3 76/10/3 74/11/3 80/12/3
f 38/13/1 40/14/1 39/15/1 37/16/1
f 58/17/4 60/18/4 59/19/4 57/20/4
f 68/21/5 70/22/5 69/23/5 67/24/5
f 42/25/4 44/26/4 43/27/4 41/28/4
f 70/29/1 72/30/1 71/31/1 69/32/1
f 6/33/3 4/34/3 2/35/3 8/36/3
f 78/9/1 80/37/1 79/38/1 77/39/1
f 48/40/6 42/41/6 41/42/6 47/43/6
f 62/44/1 64/45/1 63/46/1 61/47/1
f 62/44/3 60/18/3 58/48/3 64/49/3
f 20/50/5 22/51/5 21/52/5 19/53/5
f 22/54/1 24/55/1 23/56/1 21/57/1
f 8/58/6 2/59/6 1/60/6 7/61/6
f 39/62/2 33/63/2 35/64/2 37/16/2
f 47/65/2 41/66/2 43/27/2 45/67/2
f 38/13/3 36/68/3 34/69/3 40/70/3
f 18/71/4 20/72/4 19/73/4 17/74/4
f 55/75/7 49/76/7 51/77/7 53/4/7
f 6/78/1 8/79/1 7/80/1 5/81/1
f 36/82/5 38/83/5 37/84/5 35/85/5
f 22/54/3 20/72/3 18/86/3 24/87/3
f 32/88/8 26/89/8 25/90/8 31/91/8
f 30/92/1 32/93/1 31/94/1 29/95/1
f 30/92/9 28/96/9 26/97/9 32/98/9
f 71/99/2 65/100/2 67/101/2 69/32/2
f 28/102/10 30/103/10 29/104/10 27/105/10
f 66/106/4 68/107/4 67/101/4 65/108/4
f 64/109/6 58/110/6 57/111/6 63/112/6
f 14/113/1 16/114/1 15/115/1 13/116/1
f 14/117/3 12/118/3 10/119/3 16/120/3
f 44/121/5 46/122/5 45/123/5 43/124/5
f 26/125/4 28/96/4 27/126/4 25/127/4
f 10/128/4 12/129/4 11/130/4 9/131/4
f 46/132/3 44/26/3 42/133/3 48/134/3
f 60/135/5 62/136/5 61/137/5 59/138/5
f 56/139/8 50/140/8 49/141/8 55/142/8
f 50/143/4 52/144/4 51/77/4 49/145/4
f 4/146/5 6/147/5 5/148/5 3/149/5
f 80/150/6 74/151/6 73/152/6 79/153/6
f 70/29/3 68/107/3 66/154/3 72/155/3
f 52/156/10 54/157/10 53/158/10 51/159/10
f 46/132/1 48/160/1 47/161/1 45/67/1
f 72/162/6 66/163/6 65/164/6 71/165/6
f 15/166/2 9/167/2 11/168/2 13/169/2
f 74/170/4 76/10/4 75/171/4 73/172/4
f 24/173/6 18/174/6 17/175/6 23/176/6
f 76/177/5 78/178/5 77/179/5 75/180/5
f 31/181/7 25/182/7 27/126/7 29/95/7
f 79/183/2 73/184/2 75/171/2 77/39/2
f 54/1/9 52/144/9 50/185/9 56/186/9
f 16/114/6 10/187/6 9/188/6 15/115/6
f 40/189/6 34/190/6 33/191/6 39/192/6
f 23/193/2 17/194/2 19/73/2 21/57/2
f 34/195/4 36/68/4 35/64/4 33/196/4
f 12/129/5 14/197/5 13/198/5 11/130/5
f 63/199/2 57/200/2 59/19/2 61/47/2
f 2/201/4 4/202/4 3/203/4 1/204/4
o axle
v 1.075788 -1.644614 0.092326
v 1.075788 -1.829266 0.092326
v 1.315835 -1.644614 0.092326
v 1.315835 -1.829266 0.092326
v 1.315835 -1.644614 -0.092326
v 1.315835 -1.829266 -0.092326
v 1.075788 -1.644614 -0.092326
v 1.075788 -1.829266 -0.092326
v 1.241974 -1.626149 0.110791
v 1.241974 -1.847731 0.110791
v 1.297369 -1.626149 0.110791
v 1.297369 -1.847731 0.110791
v 1.297369 -1.626149 -0.110791
v 1.297369 -1.847731 -0.110791
v 1.241974 -1.626149 -0.110791
v 1.241974 -1.847731 -0.110791
vt 0.0625 0.9375
vt 0.1250 0.9375
vt 0.1250 1.0000
vt 0.0625 1.0000
vt 0.0625 0.9375
vt 0.1250 0.9375
vt 0.1250 1.0000
vt 0.0625 1.0000
vt 0.0625 0.9375
vt 0.1250 0.9375
vt 0.1250 1.0000
vt 0.0625 1.0000
vt 0.1250 0.9375
vt 0.1250 1.0000
vt 0.0625 1.0000
vt 0.0625 0.9375
vt 0.1250 0.9375
vt 0.1250 1.0000
vt 0.1250 0.9375
vt 0.1250 1.0000
vt 0.0625 1.0000
vt 0.0625 0.9375
vt 0.1250 0.9375
vt 0.1250 1.0000
vt 0.0625 1.0000
vt 0.0625 0.9375
vt 0.0625 1.0000
vt 0.0625 0.9375
vt 0.1250 1.0000
vt 0.0625 1.0000
vt 0.0625 0.9375
vt 0.1250 0.9375
vt 0.1250 1.0000
vt 0.0625 1.0000
vt 0.0625 0.9375
vt 0.1250 0.9375
vt 0.0625 0.9375
vt 0.1250 0.9375
vt 0.1250 1.0000
vt 0.0625 1.0000
vn 0.0000 1.0000 0.0000
vn 0.0000 -1.0000 0.0000
vn -1.0000 0.0000 0.0000
vn -0.0000 0.0000 -1.0000
vn 1.0000 0.0000 0.0000
vn 0.0000 0.0000 1.0000
usemtl m_0
s 1
f 95/205/11 89/206/11 91/207/11 93/208/11
f 86/209/12 84/210/12 82/211/12 88/212/12
f 88/213/13 82/214/13 81/215/13 87/216/13
f 86/209/14 88/217/14 87/218/14 85/219/14
f 94/220/14 96/221/14 95/222/14 93/208/14
f 94/220/12 92/223/12 90/224/12 96/225/12
f 92/226/15 94/227/15 93/228/15 91/229/15
f 90/230/16 92/223/16 91/207/16 89/231/16
f 82/232/16 84/210/16 83/233/16 81/234/16
f 84/235/15 86/236/15 85/237/15 83/238/15
f 87/239/11 81/240/11 83/233/11 85/219/11
f 96/241/13 90/242/13 89/243/13 95/244/13
