# Blender v2.79 (sub 0) OBJ File: ''
# www.blender.org
mtllib pacifier.mtl
o cube
v 0.031250 -0.031250 -0.000000
v -0.031250 -0.031250 -0.000000
v -0.031250 0.031250 0.000000
v 0.031250 0.031250 0.000000
v 0.031250 -0.031250 0.031250
v 0.031250 0.031250 0.031250
v -0.031250 -0.031250 0.031250
v -0.031250 0.031250 0.031250
v 0.023438 -0.023437 -0.078125
v -0.023438 -0.023437 -0.078125
v -0.023438 0.023438 -0.078125
v 0.023438 0.023438 -0.078125
v 0.023438 -0.023437 -0.031250
v 0.023438 0.023438 -0.031250
v -0.023438 -0.023437 -0.031250
v -0.023438 0.023438 -0.031250
v 0.000000 -0.046875 0.031250
v 0.000000 -0.046875 0.031250
v 0.000000 0.046875 0.031250
v 0.000000 0.046875 0.031250
v 0.000000 -0.046875 0.125000
v 0.000000 0.046875 0.125000
v 0.000000 -0.046875 0.125000
v 0.000000 0.046875 0.125000
v 0.015625 -0.015625 -0.031250
v -0.015625 -0.015625 -0.031250
v -0.015625 0.015625 -0.031250
v 0.015625 0.015625 -0.031250
v 0.015625 -0.015625 -0.000000
v 0.015625 0.015625 0.000000
v -0.015625 -0.015625 -0.000000
v -0.015625 0.015625 0.000000
vt 0.000000 0.875000
vt 0.125000 0.875000
vt 0.125000 1.000000
vt 0.000000 1.000000
vt 0.312500 0.750000
vt 0.312500 0.812500
vt 0.187500 0.812500
vt 0.187500 0.750000
vt 0.187500 0.875000
vt 0.312500 0.875000
vt 0.312500 1.000000
vt 0.187500 1.000000
vt 0.125000 0.750000
vt 0.125000 0.812500
vt 0.000000 0.812500
vt 0.000000 0.750000
vt 0.125000 0.687500
vt 0.000000 0.687500
vt 0.000000 0.625000
vt 0.125000 0.625000
vt 0.312500 0.625000
vt 0.187500 0.625000
vt 0.187500 0.687500
vt 0.312500 0.687500
vt 0.375000 0.937500
vt 0.437500 0.937500
vt 0.437500 1.000000
vt 0.375000 1.000000
vt 0.375000 0.812500
vt 0.437500 0.812500
vt 0.437500 0.875000
vt 0.375000 0.875000
vt 0.500000 0.937500
vt 0.562500 0.937500
vt 0.562500 1.000000
vt 0.500000 1.000000
vt 0.500000 0.812500
vt 0.562500 0.812500
vt 0.562500 0.875000
vt 0.500000 0.875000
vt 0.437500 0.750000
vt 0.375000 0.750000
vt 0.375000 0.687500
vt 0.437500 0.687500
vt 0.562500 0.687500
vt 0.500000 0.687500
vt 0.500000 0.750000
vt 0.562500 0.750000
vt 0.625000 0.875000
vt 0.687500 0.875000
vt 0.687500 0.937500
vt 0.625000 0.937500
vt 0.000000 0.312500
vt 0.250000 0.312500
vt 0.250000 0.562500
vt 0.000000 0.562500
vt 0.625000 0.875000
vt 0.687500 0.875000
vt 0.687500 0.937500
vt 0.625000 0.937500
vt 0.312500 0.312500
vt 0.562500 0.312500
vt 0.562500 0.562500
vt 0.312500 0.562500
vt 0.625000 0.875000
vt 0.687500 0.875000
vt 0.687500 0.937500
vt 0.625000 0.937500
vt 0.625000 0.875000
vt 0.687500 0.875000
vt 0.687500 0.937500
vt 0.625000 0.937500
vt 0.562500 0.687500
vt 0.500000 0.687500
vt 0.500000 0.750000
vt 0.562500 0.750000
vt 0.500000 0.875000
vt 0.500000 0.812500
vt 0.562500 0.812500
vt 0.562500 0.875000
vt 0.375000 0.687500
vt 0.437500 0.687500
vt 0.437500 0.750000
vt 0.375000 0.750000
vt 0.437500 0.812500
vt 0.437500 0.875000
vt 0.375000 0.875000
vt 0.375000 0.812500
vt 0.562500 1.000000
vt 0.500000 1.000000
vt 0.500000 0.937500
vt 0.562500 0.937500
vt 0.375000 0.937500
vt 0.437500 0.937500
vt 0.437500 1.000000
vt 0.375000 1.000000
vn 0.0000 0.0000 -1.0000
vn 1.0000 0.0000 0.0000
vn 0.0000 -0.0000 1.0000
vn -1.0000 0.0000 0.0000
vn 0.0000 1.0000 0.0000
vn 0.0000 -1.0000 0.0000
vn 0.0000 0.0000 0.0000
usemtl m_ce492c13-54ee-564f-d5cb-443a22454caf
s 1
f 1/1/1 2/2/1 3/3/1 4/4/1
f 5/5/2 1/6/2 4/7/2 6/8/2
f 7/9/3 5/10/3 6/11/3 8/12/3
f 2/13/4 7/14/4 8/15/4 3/16/4
f 8/17/5 6/18/5 4/19/5 3/20/5
f 2/21/6 1/22/6 5/23/6 7/24/6
f 9/25/1 10/26/1 11/27/1 12/28/1
f 13/29/2 9/30/2 12/31/2 14/32/2
f 15/33/3 13/34/3 14/35/3 16/36/3
f 10/37/4 15/38/4 16/39/4 11/40/4
f 16/41/5 14/42/5 12/43/5 11/44/5
f 10/45/6 9/46/6 13/47/6 15/48/6
f 17/49/1 18/50/1 19/51/1 20/52/1
f 21/53/2 17/54/2 20/55/2 22/56/2
f 23/57/3 21/58/3 22/59/3 24/60/3
f 18/61/4 23/62/4 24/63/4 19/64/4
f 24/65/7 22/66/7 20/67/7 19/68/7
f 18/69/7 17/70/7 21/71/7 23/72/7
f 25/73/1 26/74/1 27/75/1 28/76/1
f 29/77/2 25/78/2 28/79/2 30/80/2
f 31/81/3 29/82/3 30/83/3 32/84/3
f 26/85/4 31/86/4 32/87/4 27/88/4
f 32/89/5 30/90/5 28/91/5 27/92/5
f 26/93/6 25/94/6 29/95/6 31/96/6
