# Blender v2.79 (sub 0) OBJ File: ''
# www.blender.org
mtllib pedalclutchkitt.mtl
o clutchlight1
v -0.031250 -0.062500 -0.031250
v -0.031250 -0.046875 -0.031250
v -0.031250 -0.046875 -0.023438
v -0.031250 -0.062500 -0.023438
v -0.046875 -0.046875 -0.023438
v -0.046875 -0.046875 -0.031250
v -0.046875 -0.062500 -0.031250
v -0.046875 -0.062500 -0.023438
v 0.046875 -0.062500 -0.031250
v 0.046875 -0.046875 -0.031250
v 0.046875 -0.046875 -0.023438
v 0.046875 -0.062500 -0.023438
v 0.031250 -0.046875 -0.023438
v 0.031250 -0.046875 -0.031250
v 0.031250 -0.062500 -0.031250
v 0.031250 -0.062500 -0.023438
vt 0.562500 0.562500
vt 0.937500 0.562500
vt 0.937500 0.937500
vt 0.562500 0.937500
vt 0.562500 0.562500
vt 0.937500 0.562500
vt 0.937500 0.937500
vt 0.562500 0.937500
vt 0.562500 0.562500
vt 0.937500 0.937500
vt 0.562500 0.937500
vt 0.562500 0.562500
vt 0.937500 0.562500
vt 0.937500 0.937500
vt 0.562500 0.562500
vt 0.937500 0.937500
vt 0.562500 0.937500
vt 0.562500 0.562500
vt 0.937500 0.562500
vt 0.937500 0.937500
vt 0.562500 0.562500
vt 0.937500 0.562500
vt 0.937500 0.937500
vt 0.562500 0.937500
vt 0.562500 0.562500
vt 0.937500 0.562500
vt 0.937500 0.937500
vt 0.562500 0.937500
vt 0.562500 0.562500
vt 0.937500 0.937500
vt 0.562500 0.937500
vt 0.562500 0.562500
vt 0.937500 0.562500
vt 0.937500 0.937500
vt 0.562500 0.562500
vt 0.937500 0.937500
vt 0.562500 0.937500
vt 0.562500 0.562500
vt 0.937500 0.562500
vt 0.937500 0.937500
vn 1.0000 0.0000 0.0000
vn -1.0000 0.0000 0.0000
vn 0.0000 0.0000 -1.0000
vn 0.0000 0.0000 1.0000
vn 0.0000 1.0000 0.0000
vn 0.0000 -1.0000 0.0000
usemtl m_397363ee-d113-b4b2-39c6-e8233505bd12
s 1
f 1/1/1 2/2/1 3/3/1 4/4/1
f 5/5/2 6/6/2 7/7/2 8/8/2
f 6/9/3 2/2/3 1/10/3 7/11/3
f 4/12/4 3/13/4 5/14/4 8/8/4
f 3/15/5 2/2/5 6/16/5 5/17/5
f 7/18/6 1/19/6 4/20/6 8/8/6
f 9/21/1 10/22/1 11/23/1 12/24/1
f 13/25/2 14/26/2 15/27/2 16/28/2
f 14/29/3 10/22/3 9/30/3 15/31/3
f 12/32/4 11/33/4 13/34/4 16/28/4
f 11/35/5 10/22/5 14/36/5 13/37/5
f 15/38/6 9/39/6 12/40/6 16/28/6
o clutch
v 0.046875 -0.062500 -0.023438
v 0.046875 0.062500 -0.023437
v 0.046875 0.062500 0.000000
v 0.046875 -0.062500 -0.000000
v -0.046875 0.062500 0.000000
v -0.046875 0.062500 -0.023437
v -0.046875 -0.062500 -0.023438
v -0.046875 -0.062500 -0.000000
v 0.031250 -0.062500 -0.031250
v 0.031250 0.062500 -0.031250
v 0.031250 0.062500 -0.023437
v 0.031250 -0.062500 -0.023438
v -0.031250 0.062500 -0.023437
v -0.031250 0.062500 -0.031250
v -0.031250 -0.062500 -0.031250
v -0.031250 -0.062500 -0.023438
vt 0.437500 0.562500
vt 0.437500 0.937500
vt 0.062500 0.937500
vt 0.062500 0.562500
vt 0.437500 0.562500
vt 0.437500 0.937500
vt 0.062500 0.937500
vt 0.062500 0.562500
vt 0.437500 0.562500
vt 0.062500 0.937500
vt 0.062500 0.562500
vt 0.437500 0.562500
vt 0.437500 0.937500
vt 0.062500 0.937500
vt 0.437500 0.562500
vt 0.062500 0.937500
vt 0.062500 0.562500
vt 0.437500 0.562500
vt 0.437500 0.937500
vt 0.062500 0.937500
vt 0.437500 0.562500
vt 0.437500 0.937500
vt 0.062500 0.937500
vt 0.062500 0.562500
vt 0.437500 0.562500
vt 0.437500 0.937500
vt 0.062500 0.937500
vt 0.062500 0.562500
vt 0.437500 0.562500
vt 0.062500 0.937500
vt 0.062500 0.562500
vt 0.437500 0.562500
vt 0.437500 0.937500
vt 0.062500 0.937500
vt 0.437500 0.562500
vt 0.062500 0.937500
vt 0.062500 0.562500
vt 0.437500 0.562500
vt 0.437500 0.937500
vt 0.062500 0.937500
vn 1.0000 0.0000 0.0000
vn -1.0000 0.0000 0.0000
vn 0.0000 0.0000 -1.0000
vn 0.0000 -0.0000 1.0000
vn 0.0000 1.0000 0.0000
vn 0.0000 -1.0000 0.0000
usemtl m_397363ee-d113-b4b2-39c6-e8233505bd12
s 1
f 17/41/7 18/42/7 19/43/7 20/44/7
f 21/45/8 22/46/8 23/47/8 24/48/8
f 22/49/9 18/42/9 17/50/9 23/51/9
f 20/52/10 19/53/10 21/54/10 24/48/10
f 19/55/11 18/42/11 22/56/11 21/57/11
f 23/58/12 17/59/12 20/60/12 24/48/12
f 25/61/7 26/62/7 27/63/7 28/64/7
f 29/65/8 30/66/8 31/67/8 32/68/8
f 30/69/9 26/62/9 25/70/9 31/71/9
f 28/72/10 27/73/10 29/74/10 32/68/10
f 27/75/11 26/62/11 30/76/11 29/77/11
f 31/78/12 25/79/12 28/80/12 32/68/12
o clutchlight4
v -0.031250 -0.015625 -0.031250
v -0.031250 0.000000 -0.031250
v -0.031250 0.000000 -0.023438
v -0.031250 -0.015625 -0.023438
v -0.046875 0.000000 -0.023438
v -0.046875 0.000000 -0.031250
v -0.046875 -0.015625 -0.031250
v -0.046875 -0.015625 -0.023438
v 0.046875 -0.015625 -0.031250
v 0.046875 0.000000 -0.031250
v 0.046875 0.000000 -0.023438
v 0.046875 -0.015625 -0.023438
v 0.031250 0.000000 -0.023438
v 0.031250 0.000000 -0.031250
v 0.031250 -0.015625 -0.031250
v 0.031250 -0.015625 -0.023438
vt 0.562500 0.562500
vt 0.937500 0.562500
vt 0.937500 0.937500
vt 0.562500 0.937500
vt 0.562500 0.562500
vt 0.937500 0.562500
vt 0.937500 0.937500
vt 0.562500 0.937500
vt 0.562500 0.562500
vt 0.937500 0.937500
vt 0.562500 0.937500
vt 0.562500 0.562500
vt 0.937500 0.562500
vt 0.937500 0.937500
vt 0.562500 0.562500
vt 0.937500 0.937500
vt 0.562500 0.937500
vt 0.562500 0.562500
vt 0.937500 0.562500
vt 0.937500 0.937500
vt 0.562500 0.562500
vt 0.937500 0.562500
vt 0.937500 0.937500
vt 0.562500 0.937500
vt 0.562500 0.562500
vt 0.937500 0.562500
vt 0.937500 0.937500
vt 0.562500 0.937500
vt 0.562500 0.562500
vt 0.937500 0.937500
vt 0.562500 0.937500
vt 0.562500 0.562500
vt 0.937500 0.562500
vt 0.937500 0.937500
vt 0.562500 0.562500
vt 0.937500 0.937500
vt 0.562500 0.937500
vt 0.562500 0.562500
vt 0.937500 0.562500
vt 0.937500 0.937500
vn 1.0000 0.0000 0.0000
vn -1.0000 0.0000 0.0000
vn 0.0000 0.0000 -1.0000
vn 0.0000 0.0000 1.0000
vn 0.0000 1.0000 0.0000
vn 0.0000 -1.0000 0.0000
usemtl m_397363ee-d113-b4b2-39c6-e8233505bd12
s 1
f 33/81/13 34/82/13 35/83/13 36/84/13
f 37/85/14 38/86/14 39/87/14 40/88/14
f 38/89/15 34/82/15 33/90/15 39/91/15
f 36/92/16 35/93/16 37/94/16 40/88/16
f 35/95/17 34/82/17 38/96/17 37/97/17
f 39/98/18 33/99/18 36/100/18 40/88/18
f 41/101/13 42/102/13 43/103/13 44/104/13
f 45/105/14 46/106/14 47/107/14 48/108/14
f 46/109/15 42/102/15 41/110/15 47/111/15
f 44/112/16 43/113/16 45/114/16 48/108/16
f 43/115/17 42/102/17 46/116/17 45/117/17
f 47/118/18 41/119/18 44/120/18 48/108/18
o clutchlight5
v 0.046875 0.000000 -0.031250
v 0.046875 0.015625 -0.031250
v 0.046875 0.015625 -0.023438
v 0.046875 0.000000 -0.023438
v 0.031250 0.015625 -0.023438
v 0.031250 0.015625 -0.031250
v 0.031250 0.000000 -0.031250
v 0.031250 0.000000 -0.023438
v -0.031250 0.000000 -0.031250
v -0.031250 0.015625 -0.031250
v -0.031250 0.015625 -0.023438
v -0.031250 0.000000 -0.023438
v -0.046875 0.015625 -0.023438
v -0.046875 0.015625 -0.031250
v -0.046875 0.000000 -0.031250
v -0.046875 0.000000 -0.023438
vt 0.562500 0.562500
vt 0.937500 0.562500
vt 0.937500 0.937500
vt 0.562500 0.937500
vt 0.562500 0.562500
vt 0.937500 0.562500
vt 0.937500 0.937500
vt 0.562500 0.937500
vt 0.562500 0.562500
vt 0.937500 0.937500
vt 0.562500 0.937500
vt 0.562500 0.562500
vt 0.937500 0.562500
vt 0.937500 0.937500
vt 0.562500 0.562500
vt 0.937500 0.937500
vt 0.562500 0.937500
vt 0.562500 0.562500
vt 0.937500 0.562500
vt 0.937500 0.937500
vt 0.562500 0.562500
vt 0.937500 0.562500
vt 0.937500 0.937500
vt 0.562500 0.937500
vt 0.562500 0.562500
vt 0.937500 0.562500
vt 0.937500 0.937500
vt 0.562500 0.937500
vt 0.562500 0.562500
vt 0.937500 0.937500
vt 0.562500 0.937500
vt 0.562500 0.562500
vt 0.937500 0.562500
vt 0.937500 0.937500
vt 0.562500 0.562500
vt 0.937500 0.937500
vt 0.562500 0.937500
vt 0.562500 0.562500
vt 0.937500 0.562500
vt 0.937500 0.937500
vn 1.0000 0.0000 0.0000
vn -1.0000 0.0000 0.0000
vn 0.0000 0.0000 -1.0000
vn 0.0000 0.0000 1.0000
vn 0.0000 1.0000 0.0000
vn 0.0000 -1.0000 -0.0000
usemtl m_397363ee-d113-b4b2-39c6-e8233505bd12
s 1
f 49/121/19 50/122/19 51/123/19 52/124/19
f 53/125/20 54/126/20 55/127/20 56/128/20
f 54/129/21 50/122/21 49/130/21 55/131/21
f 52/132/22 51/133/22 53/134/22 56/128/22
f 51/135/23 50/122/23 54/136/23 53/137/23
f 55/138/24 49/139/24 52/140/24 56/128/24
f 57/141/19 58/142/19 59/143/19 60/144/19
f 61/145/20 62/146/20 63/147/20 64/148/20
f 62/149/21 58/142/21 57/150/21 63/151/21
f 60/152/22 59/153/22 61/154/22 64/148/22
f 59/155/23 58/142/23 62/156/23 61/157/23
f 63/158/24 57/159/24 60/160/24 64/148/24
o clutchlight7
v 0.046875 0.031250 -0.031250
v 0.046875 0.046875 -0.031250
v 0.046875 0.046875 -0.023437
v 0.046875 0.031250 -0.023437
v 0.031250 0.046875 -0.023437
v 0.031250 0.046875 -0.031250
v 0.031250 0.031250 -0.031250
v 0.031250 0.031250 -0.023437
v -0.031250 0.031250 -0.031250
v -0.031250 0.046875 -0.031250
v -0.031250 0.046875 -0.023437
v -0.031250 0.031250 -0.023437
v -0.046875 0.046875 -0.023437
v -0.046875 0.046875 -0.031250
v -0.046875 0.031250 -0.031250
v -0.046875 0.031250 -0.023437
vt 0.562500 0.562500
vt 0.937500 0.562500
vt 0.937500 0.937500
vt 0.562500 0.937500
vt 0.562500 0.562500
vt 0.937500 0.562500
vt 0.937500 0.937500
vt 0.562500 0.937500
vt 0.562500 0.562500
vt 0.937500 0.937500
vt 0.562500 0.937500
vt 0.562500 0.562500
vt 0.937500 0.562500
vt 0.937500 0.937500
vt 0.562500 0.562500
vt 0.937500 0.937500
vt 0.562500 0.937500
vt 0.562500 0.562500
vt 0.937500 0.562500
vt 0.937500 0.937500
vt 0.562500 0.562500
vt 0.937500 0.562500
vt 0.937500 0.937500
vt 0.562500 0.937500
vt 0.562500 0.562500
vt 0.937500 0.562500
vt 0.937500 0.937500
vt 0.562500 0.937500
vt 0.562500 0.562500
vt 0.937500 0.937500
vt 0.562500 0.937500
vt 0.562500 0.562500
vt 0.937500 0.562500
vt 0.937500 0.937500
vt 0.562500 0.562500
vt 0.937500 0.937500
vt 0.562500 0.937500
vt 0.562500 0.562500
vt 0.937500 0.562500
vt 0.937500 0.937500
vn 1.0000 0.0000 0.0000
vn -1.0000 0.0000 0.0000
vn 0.0000 0.0000 -1.0000
vn 0.0000 0.0000 1.0000
vn 0.0000 1.0000 0.0000
vn 0.0000 -1.0000 0.0000
usemtl m_397363ee-d113-b4b2-39c6-e8233505bd12
s 1
f 65/161/25 66/162/25 67/163/25 68/164/25
f 69/165/26 70/166/26 71/167/26 72/168/26
f 70/169/27 66/162/27 65/170/27 71/171/27
f 68/172/28 67/173/28 69/174/28 72/168/28
f 67/175/29 66/162/29 70/176/29 69/177/29
f 71/178/30 65/179/30 68/180/30 72/168/30
f 73/181/25 74/182/25 75/183/25 76/184/25
f 77/185/26 78/186/26 79/187/26 80/188/26
f 78/189/27 74/182/27 73/190/27 79/191/27
f 76/192/28 75/193/28 77/194/28 80/188/28
f 75/195/29 74/182/29 78/196/29 77/197/29
f 79/198/30 73/199/30 76/200/30 80/188/30
o clutchlight3
v 0.046875 -0.031250 -0.031250
v 0.046875 -0.015625 -0.031250
v 0.046875 -0.015625 -0.023438
v 0.046875 -0.031250 -0.023438
v 0.031250 -0.015625 -0.023438
v 0.031250 -0.015625 -0.031250
v 0.031250 -0.031250 -0.031250
v 0.031250 -0.031250 -0.023438
v -0.031250 -0.031250 -0.031250
v -0.031250 -0.015625 -0.031250
v -0.031250 -0.015625 -0.023438
v -0.031250 -0.031250 -0.023438
v -0.046875 -0.015625 -0.023438
v -0.046875 -0.015625 -0.031250
v -0.046875 -0.031250 -0.031250
v -0.046875 -0.031250 -0.023438
vt 0.562500 0.562500
vt 0.937500 0.562500
vt 0.937500 0.937500
vt 0.562500 0.937500
vt 0.562500 0.562500
vt 0.937500 0.562500
vt 0.937500 0.937500
vt 0.562500 0.937500
vt 0.562500 0.562500
vt 0.937500 0.937500
vt 0.562500 0.937500
vt 0.562500 0.562500
vt 0.937500 0.562500
vt 0.937500 0.937500
vt 0.562500 0.562500
vt 0.937500 0.937500
vt 0.562500 0.937500
vt 0.562500 0.562500
vt 0.937500 0.562500
vt 0.937500 0.937500
vt 0.562500 0.562500
vt 0.937500 0.562500
vt 0.937500 0.937500
vt 0.562500 0.937500
vt 0.562500 0.562500
vt 0.937500 0.562500
vt 0.937500 0.937500
vt 0.562500 0.937500
vt 0.562500 0.562500
vt 0.937500 0.937500
vt 0.562500 0.937500
vt 0.562500 0.562500
vt 0.937500 0.562500
vt 0.937500 0.937500
vt 0.562500 0.562500
vt 0.937500 0.937500
vt 0.562500 0.937500
vt 0.562500 0.562500
vt 0.937500 0.562500
vt 0.937500 0.937500
vn 1.0000 0.0000 0.0000
vn -1.0000 0.0000 0.0000
vn 0.0000 0.0000 -1.0000
vn 0.0000 -0.0000 1.0000
vn 0.0000 1.0000 0.0000
vn 0.0000 -1.0000 0.0000
usemtl m_397363ee-d113-b4b2-39c6-e8233505bd12
s 1
f 81/201/31 82/202/31 83/203/31 84/204/31
f 85/205/32 86/206/32 87/207/32 88/208/32
f 86/209/33 82/202/33 81/210/33 87/211/33
f 84/212/34 83/213/34 85/214/34 88/208/34
f 83/215/35 82/202/35 86/216/35 85/217/35
f 87/218/36 81/219/36 84/220/36 88/208/36
f 89/221/31 90/222/31 91/223/31 92/224/31
f 93/225/32 94/226/32 95/227/32 96/228/32
f 94/229/33 90/222/33 89/230/33 95/231/33
f 92/232/34 91/233/34 93/234/34 96/228/34
f 91/235/35 90/222/35 94/236/35 93/237/35
f 95/238/36 89/239/36 92/240/36 96/228/36
o clutchlight8
v -0.031250 0.046875 -0.031250
v -0.031250 0.062500 -0.031250
v -0.031250 0.062500 -0.023437
v -0.031250 0.046875 -0.023437
v -0.046875 0.062500 -0.023437
v -0.046875 0.062500 -0.031250
v -0.046875 0.046875 -0.031250
v -0.046875 0.046875 -0.023437
v 0.046875 0.046875 -0.031250
v 0.046875 0.062500 -0.031250
v 0.046875 0.062500 -0.023437
v 0.046875 0.046875 -0.023437
v 0.031250 0.062500 -0.023437
v 0.031250 0.062500 -0.031250
v 0.031250 0.046875 -0.031250
v 0.031250 0.046875 -0.023437
vt 0.562500 0.562500
vt 0.937500 0.562500
vt 0.937500 0.937500
vt 0.562500 0.937500
vt 0.562500 0.562500
vt 0.937500 0.562500
vt 0.937500 0.937500
vt 0.562500 0.937500
vt 0.562500 0.562500
vt 0.937500 0.937500
vt 0.562500 0.937500
vt 0.562500 0.562500
vt 0.937500 0.562500
vt 0.937500 0.937500
vt 0.562500 0.562500
vt 0.937500 0.937500
vt 0.562500 0.937500
vt 0.562500 0.562500
vt 0.937500 0.562500
vt 0.937500 0.937500
vt 0.562500 0.562500
vt 0.937500 0.562500
vt 0.937500 0.937500
vt 0.562500 0.937500
vt 0.562500 0.562500
vt 0.937500 0.562500
vt 0.937500 0.937500
vt 0.562500 0.937500
vt 0.562500 0.562500
vt 0.937500 0.937500
vt 0.562500 0.937500
vt 0.562500 0.562500
vt 0.937500 0.562500
vt 0.937500 0.937500
vt 0.562500 0.562500
vt 0.937500 0.937500
vt 0.562500 0.937500
vt 0.562500 0.562500
vt 0.937500 0.562500
vt 0.937500 0.937500
vn 1.0000 0.0000 0.0000
vn -1.0000 0.0000 0.0000
vn 0.0000 0.0000 -1.0000
vn 0.0000 0.0000 1.0000
vn 0.0000 1.0000 0.0000
vn 0.0000 -1.0000 0.0000
usemtl m_397363ee-d113-b4b2-39c6-e8233505bd12
s 1
f 97/241/37 98/242/37 99/243/37 100/244/37
f 101/245/38 102/246/38 103/247/38 104/248/38
f 102/249/39 98/242/39 97/250/39 103/251/39
f 100/252/40 99/253/40 101/254/40 104/248/40
f 99/255/41 98/242/41 102/256/41 101/257/41
f 103/258/42 97/259/42 100/260/42 104/248/42
f 105/261/37 106/262/37 107/263/37 108/264/37
f 109/265/38 110/266/38 111/267/38 112/268/38
f 110/269/39 106/262/39 105/270/39 111/271/39
f 108/272/40 107/273/40 109/274/40 112/268/40
f 107/275/41 106/262/41 110/276/41 109/277/41
f 111/278/42 105/279/42 108/280/42 112/268/42
o clutchlight6
v -0.031250 0.015625 -0.031250
v -0.031250 0.031250 -0.031250
v -0.031250 0.031250 -0.023437
v -0.031250 0.015625 -0.023438
v -0.046875 0.031250 -0.023437
v -0.046875 0.031250 -0.031250
v -0.046875 0.015625 -0.031250
v -0.046875 0.015625 -0.023438
v 0.046875 0.015625 -0.031250
v 0.046875 0.031250 -0.031250
v 0.046875 0.031250 -0.023437
v 0.046875 0.015625 -0.023438
v 0.031250 0.031250 -0.023437
v 0.031250 0.031250 -0.031250
v 0.031250 0.015625 -0.031250
v 0.031250 0.015625 -0.023438
vt 0.562500 0.562500
vt 0.937500 0.562500
vt 0.937500 0.937500
vt 0.562500 0.937500
vt 0.562500 0.562500
vt 0.937500 0.562500
vt 0.937500 0.937500
vt 0.562500 0.937500
vt 0.562500 0.562500
vt 0.937500 0.937500
vt 0.562500 0.937500
vt 0.562500 0.562500
vt 0.937500 0.562500
vt 0.937500 0.937500
vt 0.562500 0.562500
vt 0.937500 0.937500
vt 0.562500 0.937500
vt 0.562500 0.562500
vt 0.937500 0.562500
vt 0.937500 0.937500
vt 0.562500 0.562500
vt 0.937500 0.562500
vt 0.937500 0.937500
vt 0.562500 0.937500
vt 0.562500 0.562500
vt 0.937500 0.562500
vt 0.937500 0.937500
vt 0.562500 0.937500
vt 0.562500 0.562500
vt 0.937500 0.937500
vt 0.562500 0.937500
vt 0.562500 0.562500
vt 0.937500 0.562500
vt 0.937500 0.937500
vt 0.562500 0.562500
vt 0.937500 0.937500
vt 0.562500 0.937500
vt 0.562500 0.562500
vt 0.937500 0.562500
vt 0.937500 0.937500
vn 1.0000 0.0000 0.0000
vn -1.0000 0.0000 0.0000
vn 0.0000 0.0000 -1.0000
vn 0.0000 -0.0000 1.0000
vn 0.0000 1.0000 0.0000
vn 0.0000 -1.0000 0.0000
usemtl m_397363ee-d113-b4b2-39c6-e8233505bd12
s 1
f 113/281/43 114/282/43 115/283/43 116/284/43
f 117/285/44 118/286/44 119/287/44 120/288/44
f 118/289/45 114/282/45 113/290/45 119/291/45
f 116/292/46 115/293/46 117/294/46 120/288/46
f 115/295/47 114/282/47 118/296/47 117/297/47
f 119/298/48 113/299/48 116/300/48 120/288/48
f 121/301/43 122/302/43 123/303/43 124/304/43
f 125/305/44 126/306/44 127/307/44 128/308/44
f 126/309/45 122/302/45 121/310/45 127/311/45
f 124/312/46 123/313/46 125/314/46 128/308/46
f 123/315/47 122/302/47 126/316/47 125/317/47
f 127/318/48 121/319/48 124/320/48 128/308/48
o clutchlight2
v -0.031250 -0.046875 -0.031250
v -0.031250 -0.031250 -0.031250
v -0.031250 -0.031250 -0.023438
v -0.031250 -0.046875 -0.023438
v -0.046875 -0.031250 -0.023438
v -0.046875 -0.031250 -0.031250
v -0.046875 -0.046875 -0.031250
v -0.046875 -0.046875 -0.023438
v 0.046875 -0.046875 -0.031250
v 0.046875 -0.031250 -0.031250
v 0.046875 -0.031250 -0.023438
v 0.046875 -0.046875 -0.023438
v 0.031250 -0.031250 -0.023438
v 0.031250 -0.031250 -0.031250
v 0.031250 -0.046875 -0.031250
v 0.031250 -0.046875 -0.023438
vt 0.562500 0.562500
vt 0.937500 0.562500
vt 0.937500 0.937500
vt 0.562500 0.937500
vt 0.562500 0.562500
vt 0.937500 0.562500
vt 0.937500 0.937500
vt 0.562500 0.937500
vt 0.562500 0.562500
vt 0.937500 0.937500
vt 0.562500 0.937500
vt 0.562500 0.562500
vt 0.937500 0.562500
vt 0.937500 0.937500
vt 0.562500 0.562500
vt 0.937500 0.937500
vt 0.562500 0.937500
vt 0.562500 0.562500
vt 0.937500 0.562500
vt 0.937500 0.937500
vt 0.562500 0.562500
vt 0.937500 0.562500
vt 0.937500 0.937500
vt 0.562500 0.937500
vt 0.562500 0.562500
vt 0.937500 0.562500
vt 0.937500 0.937500
vt 0.562500 0.937500
vt 0.562500 0.562500
vt 0.937500 0.937500
vt 0.562500 0.937500
vt 0.562500 0.562500
vt 0.937500 0.562500
vt 0.937500 0.937500
vt 0.562500 0.562500
vt 0.937500 0.937500
vt 0.562500 0.937500
vt 0.562500 0.562500
vt 0.937500 0.562500
vt 0.937500 0.937500
vn 1.0000 0.0000 0.0000
vn -1.0000 0.0000 0.0000
vn 0.0000 0.0000 -1.0000
vn 0.0000 0.0000 1.0000
vn 0.0000 1.0000 0.0000
vn 0.0000 -1.0000 0.0000
usemtl m_397363ee-d113-b4b2-39c6-e8233505bd12
s 1
f 129/321/49 130/322/49 131/323/49 132/324/49
f 133/325/50 134/326/50 135/327/50 136/328/50
f 134/329/51 130/322/51 129/330/51 135/331/51
f 132/332/52 131/333/52 133/334/52 136/328/52
f 131/335/53 130/322/53 134/336/53 133/337/53
f 135/338/54 129/339/54 132/340/54 136/328/54
f 137/341/49 138/342/49 139/343/49 140/344/49
f 141/345/50 142/346/50 143/347/50 144/348/50
f 142/349/51 138/342/51 137/350/51 143/351/51
f 140/352/52 139/353/52 141/354/52 144/348/52
f 139/355/53 138/342/53 142/356/53 141/357/53
f 143/358/54 137/359/54 140/360/54 144/348/54
