# Blender v2.79 (sub 0) OBJ File: ''
# www.blender.org
mtllib picketsign.mtl
o cube
v 0.031250 0.000000 -0.031250
v -0.031250 0.000000 -0.031250
v -0.031250 1.500000 -0.031250
v 0.031250 1.500000 -0.031250
v 0.031250 -0.000000 0.031250
v 0.031250 1.500000 0.031250
v -0.031250 -0.000000 0.031250
v -0.031250 1.500000 0.031250
v 0.359375 0.968750 0.015625
v -0.390625 0.968750 0.015625
v -0.390625 1.468750 0.015625
v 0.359375 1.468750 0.015625
v 0.359375 0.968750 0.046875
v 0.359375 1.468750 0.046875
v -0.390625 0.968750 0.046875
v -0.390625 1.468750 0.046875
vt 0.968750 0.000000
vt 1.000000 0.000000
vt 1.000000 1.000000
vt 0.968750 1.000000
vt 0.968750 0.000000
vt 1.000000 0.000000
vt 1.000000 1.000000
vt 0.968750 1.000000
vt 0.968750 0.000000
vt 1.000000 0.000000
vt 1.000000 1.000000
vt 0.968750 1.000000
vt 0.968750 0.000000
vt 1.000000 0.000000
vt 1.000000 1.000000
vt 0.968750 1.000000
vt 0.968750 0.937500
vt 1.000000 0.937500
vt 0.968750 0.937500
vt 1.000000 0.937500
vt 1.000000 1.000000
vt 0.968750 1.000000
vt 0.750000 0.000000
vt 0.937500 0.000000
vt 0.937500 0.250000
vt 0.750000 0.250000
vt 0.750000 0.000000
vt 0.765625 0.000000
vt 0.765625 0.250000
vt 0.750000 0.250000
vt 0.000000 0.000000
vt 0.750000 1.000000
vt 0.000000 1.000000
vt 0.750000 0.000000
vt 0.765625 0.000000
vt 0.765625 0.250000
vt 0.750000 0.250000
vt 0.750000 0.250000
vt 0.937500 0.250000
vt 0.937500 0.281250
vt 0.750000 0.281250
vt 0.750000 0.250000
vt 0.937500 0.250000
vt 0.937500 0.281250
vt 0.750000 0.281250
vn 0.0000 0.0000 -1.0000
vn 1.0000 0.0000 0.0000
vn 0.0000 -0.0000 1.0000
vn -1.0000 0.0000 0.0000
vn 0.0000 1.0000 0.0000
vn 0.0000 -1.0000 -0.0000
usemtl m_a16e3822-6925-4284-8875-7ab0635262d9
s 1
f 1/1/1 2/2/1 3/3/1 4/4/1
f 5/5/2 1/6/2 4/7/2 6/8/2
f 7/9/3 5/10/3 6/11/3 8/12/3
f 2/13/4 7/14/4 8/15/4 3/16/4
f 8/17/5 6/18/5 4/7/5 3/16/5
f 2/19/6 1/20/6 5/21/6 7/22/6
f 9/23/1 10/24/1 11/25/1 12/26/1
f 13/27/2 9/28/2 12/29/2 14/30/2
f 15/31/3 13/27/3 14/32/3 16/33/3
f 10/34/4 15/35/4 16/36/4 11/37/4
f 16/38/5 14/39/5 12/40/5 11/41/5
f 10/42/6 9/43/6 13/44/6 15/45/6
