# Blender v2.79 (sub 0) OBJ File: ''
# www.blender.org
mtllib plate_euro.mtl
o sticker_euro_registration
v -0.015625 0.003906 0.000488
v -0.015625 0.035156 0.000488
v -0.046875 0.035156 0.000488
v -0.046875 0.003906 0.000488
vt 0.328125 0.031250
vt 0.328125 0.218750
vt 0.234375 0.218750
vt 0.234375 0.031250
vn 0.0000 -0.0000 1.0000
usemtl m_7ed49f06-c56a-45c0-2c5c-7486f01b98b2
s 1
f 1/1/1 2/2/1 3/3/1 4/4/1
o sticker_euro_registration_year
v -0.015625 -0.035156 0.000488
v -0.015625 -0.003906 0.000488
v -0.046875 -0.003906 0.000488
v -0.046875 -0.035156 0.000488
vt 0.437500 0.031250
vt 0.437500 0.218750
vt 0.343750 0.218750
vt 0.343750 0.031250
vn 0.0000 -0.0000 1.0000
usemtl m_7ed49f06-c56a-45c0-2c5c-7486f01b98b2
s 1
f 5/5/2 6/6/2 7/7/2 8/8/2
o plate_euro
v 0.312500 0.093750 -0.062500
v 0.312500 0.093750 0.000000
v 0.312500 -0.093750 -0.000000
v 0.312500 -0.093750 -0.062500
v -0.062500 -0.093750 -0.000000
v -0.062500 0.093750 0.000000
v -0.062500 0.093750 -0.062500
v -0.062500 -0.093750 -0.062500
v -0.062500 0.093750 -0.062500
v -0.062500 0.093750 0.000000
v -0.062500 -0.093750 -0.000000
v -0.062500 -0.093750 -0.062500
v -0.312500 -0.093750 -0.000000
v -0.312500 0.093750 0.000000
v -0.312500 0.093750 -0.062500
v -0.312500 -0.093750 -0.062500
vt 0.125000 1.000000
vt 0.109375 1.000000
vt 0.109375 0.906250
vt 0.125000 0.906250
vt 0.125000 0.781250
vt 0.125000 0.875000
vt 0.109375 0.875000
vt 0.109375 0.781250
vt 0.000000 0.843750
vt 0.093750 0.843750
vt 0.093750 0.875000
vt 0.000000 0.875000
vt 0.093750 0.781250
vt 0.093750 0.812500
vt 0.000000 0.812500
vt 0.000000 0.781250
vt 1.000000 0.500000
vt 1.000000 1.000000
vt 0.500000 1.000000
vt 0.500000 0.500000
vt 0.093750 1.000000
vt 0.000000 1.000000
vt 0.000000 0.906250
vt 0.093750 0.906250
vt 0.093750 0.750000
vt 0.078125 0.750000
vt 0.078125 0.656250
vt 0.093750 0.656250
vt 0.093750 0.531250
vt 0.093750 0.625000
vt 0.078125 0.625000
vt 0.078125 0.531250
vt 0.000000 0.593750
vt 0.062500 0.593750
vt 0.062500 0.625000
vt 0.000000 0.625000
vt 0.062500 0.531250
vt 0.062500 0.562500
vt 0.000000 0.562500
vt 0.000000 0.531250
vt 0.500000 0.500000
vt 0.500000 1.000000
vt 0.187500 1.000000
vt 0.187500 0.500000
vt 0.062500 0.750000
vt 0.000000 0.750000
vt 0.000000 0.656250
vt 0.062500 0.656250
vn 1.0000 -0.0000 0.0000
vn -1.0000 -0.0000 0.0000
vn 0.0000 1.0000 0.0000
vn 0.0000 -1.0000 0.0000
vn 0.0000 -0.0000 1.0000
vn 0.0000 0.0000 -1.0000
usemtl m_7ed49f06-c56a-45c0-2c5c-7486f01b98b2
s 1
f 9/9/3 10/10/3 11/11/3 12/12/3
f 13/13/4 14/14/4 15/15/4 16/16/4
f 14/17/5 10/18/5 9/19/5 15/20/5
f 12/21/6 11/22/6 13/23/6 16/24/6
f 11/25/7 10/26/7 14/27/7 13/28/7
f 15/29/8 9/30/8 12/31/8 16/32/8
f 17/33/3 18/34/3 19/35/3 20/36/3
f 21/37/4 22/38/4 23/39/4 24/40/4
f 22/41/5 18/42/5 17/43/5 23/44/5
f 20/45/6 19/46/6 21/47/6 24/48/6
f 19/49/7 18/50/7 22/51/7 21/52/7
f 23/53/8 17/54/8 20/55/8 24/56/8
o text_offset
v -0.003906 0.007812 -0.003906
v 0.003906 0.007812 -0.003906
v 0.003906 0.000000 -0.003906
v -0.003906 0.000000 -0.003906
vt 0.984375 0.062500
vt 0.968750 0.062500
vt 0.968750 0.031250
vt 0.984375 0.031250
vn 0.0000 0.0000 -1.0000
usemtl m_4943235e-be61-929a-37d4-0347f8a91c86
s 1
f 25/57/9 26/58/9 27/59/9 28/60/9
