# Blender v2.79 (sub 0) OBJ File: ''
# www.blender.org
mtllib radardetector.mtl
o knob
v 0.156250 0.031250 0.015625
v 0.156250 0.031250 0.046875
v 0.156250 -0.031250 0.046875
v 0.156250 -0.031250 0.015625
v 0.093750 -0.031250 0.046875
v 0.093750 0.031250 0.046875
v 0.093750 0.031250 0.015625
v 0.093750 -0.031250 0.015625
vt 0.937500 0.937500
vt 0.937500 1.000000
vt 0.875000 1.000000
vt 0.875000 0.937500
vt 0.875000 0.875000
vt 0.875000 0.937500
vt 0.812500 0.937500
vt 0.812500 0.875000
vt 1.000000 0.937500
vt 1.000000 1.000000
vt 0.937500 1.000000
vt 0.937500 0.937500
vt 0.937500 0.875000
vt 0.937500 0.937500
vt 0.875000 0.937500
vt 0.875000 0.875000
vt 0.875000 0.937500
vt 0.875000 1.000000
vt 0.812500 1.000000
vt 0.812500 0.937500
vt 0.531250 0.968750
vt 0.531250 0.875000
vt 0.656250 0.875000
vt 0.656250 0.968750
vn 1.0000 0.0000 0.0000
vn -1.0000 0.0000 0.0000
vn 0.0000 1.0000 0.0000
vn 0.0000 -1.0000 -0.0000
vn 0.0000 -0.0000 1.0000
vn 0.0000 0.0000 -1.0000
usemtl m_0
s 1
f 1/1/1 2/2/1 3/3/1 4/4/1
f 5/5/2 6/6/2 7/7/2 8/8/2
f 6/9/3 2/10/3 1/11/3 7/12/3
f 4/13/4 3/14/4 5/15/4 8/16/4
f 3/17/5 2/18/5 6/19/5 5/20/5
f 7/21/6 1/22/6 4/23/6 8/24/6
o screen
v 0.062500 0.031250 0.015625
v 0.062500 0.031250 0.046875
v 0.062500 -0.031250 0.046875
v 0.062500 -0.031250 0.015625
v -0.156250 -0.031250 0.046875
v -0.156250 0.031250 0.046875
v -0.156250 0.031250 0.015625
v -0.156250 -0.031250 0.015625
vt 0.656250 0.875000
vt 0.625000 0.875000
vt 0.625000 0.812500
vt 0.656250 0.812500
vt 0.625000 0.812500
vt 0.625000 0.875000
vt 0.593750 0.875000
vt 0.593750 0.812500
vt 0.375000 0.843750
vt 0.593750 0.843750
vt 0.593750 0.875000
vt 0.375000 0.875000
vt 0.593750 0.812500
vt 0.593750 0.843750
vt 0.375000 0.843750
vt 0.375000 0.812500
vt 0.781250 0.875000
vt 0.781250 1.000000
vt 0.375000 1.000000
vt 0.375000 0.875000
vt 0.812500 0.875000
vt 0.812500 1.000000
vt 0.375000 1.000000
vt 0.375000 0.875000
vn 1.0000 0.0000 0.0000
vn -1.0000 0.0000 0.0000
vn 0.0000 1.0000 0.0000
vn 0.0000 -1.0000 -0.0000
vn 0.0000 -0.0000 1.0000
vn 0.0000 0.0000 -1.0000
usemtl m_0
s 1
f 9/25/7 10/26/7 11/27/7 12/28/7
f 13/29/8 14/30/8 15/31/8 16/32/8
f 14/33/9 10/34/9 9/35/9 15/36/9
f 12/37/10 11/38/10 13/39/10 16/40/10
f 11/41/11 10/42/11 14/43/11 13/44/11
f 15/45/12 9/46/12 12/47/12 16/48/12
o cube
v 0.187500 0.062500 -0.218750
v 0.187500 0.062500 0.031250
v 0.187500 -0.062500 0.031250
v 0.187500 -0.062500 -0.218750
v -0.187500 -0.062500 0.031250
v -0.187500 0.062500 0.031250
v -0.187500 0.062500 -0.218750
v -0.187500 -0.062500 -0.218750
vt 0.125000 0.812500
vt 0.000000 0.812500
vt 0.000000 0.750000
vt 0.125000 0.750000
vt 0.250000 0.750000
vt 0.250000 0.812500
vt 0.125000 0.812500
vt 0.125000 0.750000
vt 0.187500 0.875000
vt 0.375000 0.875000
vt 0.375000 1.000000
vt 0.187500 1.000000
vt 0.187500 0.875000
vt 0.187500 1.000000
vt 0.000000 1.000000
vt 0.000000 0.875000
vt 0.375000 0.812500
vt 0.187500 0.812500
vt 0.187500 0.875000
vt 0.000000 0.875000
vt 0.000000 0.812500
vt 0.187500 0.812500
vn 1.0000 0.0000 0.0000
vn -1.0000 0.0000 0.0000
vn 0.0000 1.0000 0.0000
vn 0.0000 -1.0000 -0.0000
vn 0.0000 -0.0000 1.0000
vn 0.0000 0.0000 -1.0000
usemtl m_0
s 1
f 17/49/13 18/50/13 19/51/13 20/52/13
f 21/53/14 22/54/14 23/55/14 24/56/14
f 22/57/15 18/58/15 17/59/15 23/60/15
f 20/61/16 19/62/16 21/63/16 24/64/16
f 19/65/17 18/58/17 22/57/17 21/66/17
f 23/67/18 17/68/18 20/69/18 24/70/18
