# Blender v2.79 (sub 0) OBJ File: ''
# www.blender.org
mtllib radiocb.mtl
o thing
v 0.078125 0.046875 -0.015625
v 0.078125 0.046875 0.078125
v 0.171875 0.046875 0.078125
v 0.171875 0.046875 -0.015625
v 0.171875 -0.046875 0.078125
v 0.078125 -0.046875 0.078125
v 0.078125 -0.046875 -0.015625
v 0.171875 -0.046875 -0.015625
v 0.148438 0.023437 0.078125
v 0.101562 0.023437 0.078125
v 0.101562 -0.023438 0.078125
v 0.148438 -0.023438 0.078125
v 0.101562 0.023437 0.085938
v 0.148438 0.023437 0.085938
v 0.101562 -0.023438 0.085938
v 0.148438 -0.023438 0.085938
v 0.156250 -0.046875 0.000000
v 0.156250 -0.046875 0.062500
v 0.156250 -0.078125 0.062500
v 0.156250 -0.078125 0.000000
v 0.093750 -0.078125 0.062500
v 0.093750 -0.046875 0.062500
v 0.093750 -0.046875 0.000000
v 0.093750 -0.078125 0.000000
vt 0.625000 0.812500
vt 0.625000 0.875000
vt 0.562500 0.875000
vt 0.562500 0.812500
vt 0.625000 0.875000
vt 0.625000 0.812500
vt 0.562500 0.812500
vt 0.562500 0.875000
vt 0.562500 0.875000
vt 0.625000 0.812500
vt 0.312500 0.906250
vt 0.312500 0.968750
vt 0.250000 0.968750
vt 0.250000 0.906250
vt 0.531250 0.968750
vt 0.531250 0.875000
vt 0.656250 0.875000
vt 0.656250 0.968750
vt 0.613281 0.859375
vt 0.613281 0.828125
vt 0.625631 0.812500
vt 0.625631 0.875000
vt 0.578125 0.862647
vt 0.609375 0.862647
vt 0.562500 0.875000
vt 0.574850 0.828125
vt 0.574850 0.859375
vt 0.562500 0.812500
vt 0.609375 0.824219
vt 0.578125 0.824219
vt 0.562500 0.811866
vt 0.625000 0.811866
vt 0.187500 0.718750
vt 0.187500 0.695312
vt 0.218750 0.695312
vt 0.218750 0.718750
vt 0.187500 0.687500
vt 0.210938 0.687500
vt 0.210938 0.718750
vt 0.187500 0.718750
vt 0.218750 0.695312
vt 0.218750 0.718750
vt 0.187500 0.695312
vt 0.210938 0.718750
vt 0.187500 0.718750
vt 0.187500 0.687500
vt 0.210938 0.687500
vt 0.625000 0.812500
vt 0.625000 0.875000
vt 0.593750 0.875000
vt 0.593750 0.812500
vt 0.625000 0.812500
vt 0.625000 0.843750
vt 0.562500 0.843750
vt 0.562500 0.812500
vt 0.625000 0.812500
vt 0.562500 0.875000
vt 0.562500 0.812500
vt 0.625000 0.812500
vt 0.625000 0.875000
vt 0.562500 0.875000
vt 0.625000 0.843750
vt 0.562500 0.875000
vt 0.562500 0.843750
vt 0.593750 0.812500
vt 0.593750 0.875000
vt 0.562500 0.875000
vn 0.0000 1.0000 0.0000
vn 0.0000 -1.0000 -0.0000
vn -1.0000 0.0000 0.0000
vn 1.0000 0.0000 0.0000
vn 0.0000 -0.0000 1.0000
vn 0.0000 0.0000 -1.0000
vn 0.0000 0.3162 0.9487
vn -0.3163 -0.0000 0.9487
vn 0.0000 -0.3163 0.9487
vn 0.3163 -0.0000 0.9487
usemtl m_0
s 1
f 1/1/1 2/2/1 3/3/1 4/4/1
f 5/5/2 6/6/2 7/7/2 8/8/2
f 6/6/3 2/2/3 1/9/3 7/7/3
f 4/4/4 3/3/4 5/5/4 8/10/4
f 9/11/5 10/12/5 11/13/5 12/14/5
f 7/15/6 1/16/6 4/17/6 8/18/6
f 13/19/7 14/20/7 3/21/7 2/22/7
f 15/23/8 13/24/8 2/2/8 6/25/8
f 16/26/9 15/27/9 6/25/9 5/28/9
f 14/29/10 16/30/10 5/31/10 3/32/10
f 10/33/2 9/34/2 14/35/2 13/36/2
f 11/37/4 10/38/4 13/39/4 15/40/4
f 12/41/1 11/42/1 15/40/1 16/43/1
f 9/44/3 12/45/3 16/46/3 14/47/3
f 17/48/4 18/49/4 19/50/4 20/51/4
f 21/52/3 22/53/3 23/54/3 24/55/3
f 22/56/1 18/49/1 17/57/1 23/58/1
f 20/59/2 19/60/2 21/61/2 24/55/2
f 19/62/5 18/49/5 22/63/5 21/64/5
f 23/65/6 17/66/6 20/67/6 24/55/6
o knob2alt
v -0.007812 0.007812 0.046875
v -0.007812 0.054687 0.046875
v -0.007812 0.054687 0.015625
v -0.007812 0.007812 0.015625
v 0.039062 0.054687 0.015625
v 0.039062 0.054687 0.046875
v 0.039062 0.007812 0.046875
v 0.039062 0.007812 0.015625
vt 0.875000 1.000000
vt 0.937500 1.000000
vt 0.937500 0.937500
vt 0.875000 0.937500
vt 0.812500 0.937500
vt 0.875000 0.937500
vt 0.875000 0.875000
vt 0.812500 0.875000
vt 0.937500 1.000000
vt 1.000000 1.000000
vt 1.000000 0.937500
vt 0.937500 0.937500
vt 0.875000 0.937500
vt 0.937500 0.937500
vt 0.937500 0.875000
vt 0.875000 0.875000
vt 0.812500 1.000000
vt 0.875000 1.000000
vt 0.875000 0.937500
vt 0.812500 0.937500
vt 0.656250 0.875000
vt 0.531250 0.875000
vt 0.531250 0.968750
vt 0.656250 0.968750
vn -1.0000 0.0000 0.0000
vn 1.0000 0.0000 0.0000
vn 0.0000 1.0000 0.0000
vn 0.0000 -1.0000 -0.0000
vn 0.0000 0.0000 1.0000
vn 0.0000 0.0000 -1.0000
usemtl m_0
s 1
f 25/68/11 26/69/11 27/70/11 28/71/11
f 29/72/12 30/73/12 31/74/12 32/75/12
f 27/76/13 26/77/13 30/78/13 29/79/13
f 31/80/14 25/81/14 28/82/14 32/83/14
f 30/84/15 26/85/15 25/86/15 31/87/15
f 28/88/16 27/89/16 29/90/16 32/91/16
o cube
v 0.187500 0.062500 -0.218750
v 0.187500 0.062500 0.031250
v 0.187500 -0.062500 0.031250
v 0.187500 -0.062500 -0.218750
v -0.187500 -0.062500 0.031250
v -0.187500 0.062500 0.031250
v -0.187500 0.062500 -0.218750
v -0.187500 -0.062500 -0.218750
vt 0.125000 0.812500
vt 0.000000 0.812500
vt 0.000000 0.750000
vt 0.125000 0.750000
vt 0.250000 0.750000
vt 0.250000 0.812500
vt 0.125000 0.812500
vt 0.125000 0.750000
vt 0.187500 0.875000
vt 0.375000 0.875000
vt 0.375000 1.000000
vt 0.187500 1.000000
vt 0.187500 0.875000
vt 0.187500 1.000000
vt 0.000000 1.000000
vt 0.000000 0.875000
vt 0.375000 0.812500
vt 0.187500 0.812500
vt 0.187500 0.875000
vt 0.000000 0.875000
vt 0.000000 0.812500
vt 0.187500 0.812500
vn 1.0000 0.0000 0.0000
vn -1.0000 0.0000 0.0000
vn 0.0000 1.0000 0.0000
vn 0.0000 -1.0000 -0.0000
vn 0.0000 -0.0000 1.0000
vn 0.0000 0.0000 -1.0000
usemtl m_0
s 1
f 33/92/17 34/93/17 35/94/17 36/95/17
f 37/96/18 38/97/18 39/98/18 40/99/18
f 38/100/19 34/101/19 33/102/19 39/103/19
f 36/104/20 35/105/20 37/106/20 40/107/20
f 35/108/21 34/101/21 38/100/21 37/109/21
f 39/110/22 33/111/22 36/112/22 40/113/22
o knob3
v 0.039062 -0.007813 0.015625
v 0.039062 -0.007813 0.046875
v 0.039062 -0.054688 0.046875
v 0.039062 -0.054688 0.015625
v -0.007812 -0.054688 0.046875
v -0.007812 -0.007813 0.046875
v -0.007812 -0.007813 0.015625
v -0.007812 -0.054688 0.015625
vt 0.937500 0.937500
vt 0.937500 1.000000
vt 0.875000 1.000000
vt 0.875000 0.937500
vt 0.875000 0.875000
vt 0.875000 0.937500
vt 0.812500 0.937500
vt 0.812500 0.875000
vt 1.000000 0.937500
vt 1.000000 1.000000
vt 0.937500 1.000000
vt 0.937500 0.937500
vt 0.937500 0.875000
vt 0.937500 0.937500
vt 0.875000 0.937500
vt 0.875000 0.875000
vt 0.875000 0.937500
vt 0.875000 1.000000
vt 0.812500 1.000000
vt 0.812500 0.937500
vt 0.531250 0.968750
vt 0.531250 0.875000
vt 0.656250 0.875000
vt 0.656250 0.968750
vn 1.0000 0.0000 0.0000
vn -1.0000 0.0000 0.0000
vn 0.0000 1.0000 0.0000
vn 0.0000 -1.0000 0.0000
vn 0.0000 -0.0000 1.0000
vn 0.0000 0.0000 -1.0000
usemtl m_0
s 1
f 41/114/23 42/115/23 43/116/23 44/117/23
f 45/118/24 46/119/24 47/120/24 48/121/24
f 46/122/25 42/123/25 41/124/25 47/125/25
f 44/126/26 43/127/26 45/128/26 48/129/26
f 43/130/27 42/131/27 46/132/27 45/133/27
f 47/134/28 41/135/28 44/136/28 48/137/28
o tuner
v -0.015625 0.031250 0.031250
v -0.015625 0.031250 0.039062
v -0.015625 -0.031250 0.039062
v -0.015625 -0.039063 0.031250
v -0.179688 -0.031250 0.039062
v -0.179688 0.031250 0.039062
v -0.179688 0.031250 0.031250
v -0.179688 -0.039063 0.031250
v -0.023082 -0.026042 0.039062
v -0.023082 0.026042 0.039062
v -0.172230 0.026042 0.039062
v -0.172230 -0.026042 0.039062
vt 0.070312 0.687500
vt 0.062500 0.687500
vt 0.062500 0.671875
vt 0.070312 0.671875
vt 0.195312 0.671875
vt 0.195312 0.687500
vt 0.187500 0.687500
vt 0.187500 0.671875
vt 0.062500 0.742188
vt 0.171875 0.742188
vt 0.171875 0.750000
vt 0.062500 0.750000
vt 0.171875 0.742188
vt 0.171875 0.750000
vt 0.062500 0.750000
vt 0.062500 0.742188
vt 0.531250 0.718750
vt 0.531250 0.812500
vt 0.250000 0.812500
vt 0.250000 0.718750
vt 0.171875 0.718750
vt 0.062500 0.718750
vt 0.062500 0.703125
vt 0.171875 0.703125
vt 0.093750 0.652344
vt 0.093750 0.636719
vt 0.097656 0.632812
vt 0.097656 0.656250
vt 0.066406 0.652344
vt 0.175781 0.652344
vt 0.179688 0.656250
vt 0.062500 0.656250
vt 0.097656 0.636719
vt 0.097656 0.652344
vt 0.093750 0.656250
vt 0.093750 0.632812
vt 0.175781 0.656250
vt 0.066406 0.656250
vt 0.062500 0.652344
vt 0.179688 0.652344
vn 1.0000 0.0000 0.0000
vn -1.0000 -0.0000 0.0000
vn 0.0000 1.0000 0.0000
vn 0.0000 -0.7071 0.7072
vn 0.0000 -0.0000 1.0000
vn 0.0000 0.0000 -1.0000
usemtl m_0
s 1
f 49/138/29 50/139/29 51/140/29 52/141/29
f 53/142/30 54/143/30 55/144/30 56/145/30
f 54/146/31 50/147/31 49/148/31 55/149/31
f 52/150/32 51/151/32 53/152/32 56/153/32
f 57/154/33 58/155/33 59/156/33 60/157/33
f 55/158/34 49/159/34 52/160/34 56/161/34
f 58/162/33 57/163/33 51/164/33 50/165/33
f 59/166/33 58/167/33 50/168/33 54/169/33
f 60/170/33 59/171/33 54/172/33 53/173/33
f 57/174/33 60/175/33 53/176/33 51/177/33
