# Blender v2.79 (sub 0) OBJ File: ''
# www.blender.org
mtllib reindeerantler.mtl
o leftear
v 0.218750 0.250000 -0.093750
v 0.218750 0.250000 -0.031250
v 0.031250 -0.000000 0.031250
v 0.031250 0.000000 -0.031250
v -0.031250 -0.000000 0.031250
v 0.156250 0.250000 -0.031250
v 0.156250 0.250000 -0.093750
v -0.031250 0.000000 -0.031250
v 0.156250 0.437500 -0.031250
v 0.156250 0.437500 0.031250
v 0.218750 0.250000 -0.031250
v 0.218750 0.250000 -0.093750
v 0.156250 0.250000 -0.031250
v 0.093750 0.437500 0.031250
v 0.093750 0.437500 -0.031250
v 0.156250 0.250000 -0.093750
v 0.343750 0.500000 -0.093750
v 0.343750 0.500000 -0.031250
v 0.218750 0.250000 -0.031250
v 0.218750 0.250000 -0.093750
v 0.156250 0.250000 -0.031250
v 0.281250 0.500000 -0.031250
v 0.281250 0.500000 -0.093750
v 0.156250 0.250000 -0.093750
v 0.062500 0.250000 -0.093750
v 0.062500 0.250000 -0.031250
v 0.125000 0.125000 0.000000
v 0.125000 0.125000 -0.062500
v 0.062500 0.125000 0.000000
v 0.000000 0.250000 -0.031250
v 0.000000 0.250000 -0.093750
v 0.062500 0.125000 -0.062500
v 0.250000 0.375000 0.031250
v 0.250000 0.375000 0.093750
v 0.218750 0.250000 -0.031250
v 0.218750 0.250000 -0.093750
v 0.156250 0.250000 -0.031250
v 0.187500 0.375000 0.093750
v 0.187500 0.375000 0.031250
v 0.156250 0.250000 -0.093750
vt 0.750000 0.625000
vt 0.625000 0.625000
vt 0.500000 0.000000
vt 0.625000 0.000000
vt 0.750000 0.000000
vt 0.625000 0.625000
vt 0.500000 0.625000
vt 0.625000 0.000000
vt 0.500000 0.375000
vt 0.625000 0.375000
vt 0.625000 0.500000
vt 0.500000 0.500000
vt 0.750000 0.375000
vt 0.750000 0.500000
vt 0.625000 0.500000
vt 0.625000 0.375000
vt 0.625000 0.109613
vt 1.000000 0.625000
vt 0.875000 0.625000
vt 0.500000 0.109613
vt 0.625000 0.625000
vt 0.500000 0.625000
vt 0.875000 0.109613
vt 1.000000 0.109613
vt 0.625000 0.625000
vt 0.500000 0.625000
vt 0.625000 0.229713
vt 0.750000 0.229713
vt 0.625000 0.229725
vt 0.750000 0.625000
vt 0.625000 0.625000
vt 0.500000 0.229725
vt 0.500000 0.375000
vt 0.625000 0.375000
vt 0.625000 0.500000
vt 0.500000 0.500000
vt 0.625000 0.500000
vt 0.625000 0.625000
vt 0.500000 0.625000
vt 0.500000 0.500000
vt 0.750000 0.229713
vt 0.625000 0.625000
vt 0.500000 0.625000
vt 0.750000 0.625000
vt 0.500000 0.229713
vt 0.625000 0.229713
vt 0.625000 0.625000
vt 0.500000 0.625000
vt 0.500000 0.065987
vt 0.625000 0.065987
vt 0.750000 0.065975
vt 0.750000 0.625000
vt 0.625000 0.625000
vt 0.625000 0.065975
vt 0.500000 0.375000
vt 0.625000 0.375000
vt 0.625000 0.500000
vt 0.500000 0.500000
vt 0.625000 0.500000
vt 0.625000 0.625000
vt 0.500000 0.625000
vt 0.500000 0.500000
vt 0.625000 0.125000
vt 0.875000 0.625000
vt 0.500000 0.125000
vt 0.500000 0.625000
vt 0.750000 0.125000
vt 0.875000 0.125000
vt 0.687500 0.625000
vt 0.562500 0.625000
vt 0.500000 0.345488
vt 0.625000 0.345488
vt 0.687500 0.345488
vt 0.625000 0.625000
vt 0.500000 0.625000
vt 0.562500 0.345488
vt 0.500000 0.375000
vt 0.625000 0.375000
vt 0.625000 0.500000
vt 0.500000 0.500000
vt 0.625000 0.500000
vt 0.625000 0.625000
vt 0.500000 0.625000
vt 0.500000 0.500000
vt 0.750000 0.367312
vt 0.625000 0.625000
vt 0.500000 0.625000
vt 0.625000 0.367312
vt 0.750000 0.625000
vt 0.625000 0.625000
vt 0.500000 0.367300
vt 0.625000 0.367300
vt 0.625000 0.625000
vt 0.500000 0.625000
vt 0.750000 0.367300
vt 0.875000 0.367300
vt 0.625000 0.367300
vt 0.875000 0.625000
vt 0.750000 0.625000
vt 0.500000 0.367300
vt 0.500000 0.500000
vt 0.625000 0.500000
vt 0.500000 0.625000
vt 0.625000 0.500000
vt 0.625000 0.625000
vt 0.500000 0.625000
vt 0.500000 0.500000
vt 0.625000 0.271450
vt 0.687500 0.625000
vt 0.562500 0.625000
vt 0.500000 0.271450
vt 0.625000 0.625000
vt 0.500000 0.625000
vt 0.562500 0.271450
vt 0.687500 0.271450
vn 0.8000 -0.6000 0.0000
vn -0.8000 0.6000 0.0000
vn 0.0000 1.0000 0.0000
vn 0.0000 -1.0000 -0.0000
vn 0.0000 0.2425 0.9701
vn 0.0000 -0.2425 -0.9701
vn 0.9487 0.3162 0.0000
vn -0.9487 -0.3162 0.0000
vn 0.0000 -0.3162 0.9487
vn 0.0000 0.3162 -0.9487
vn 0.8944 -0.4472 0.0000
vn -0.8944 0.4472 0.0000
vn 0.0000 -0.0000 1.0000
vn 0.0000 0.0000 -1.0000
vn 0.8944 0.4472 0.0000
vn -0.8944 -0.4472 0.0000
vn 0.9701 -0.2425 0.0000
vn -0.9701 0.2425 0.0000
vn 0.0000 -0.7071 0.7071
vn 0.0000 0.7071 -0.7071
usemtl m_23ca4d8a-9f09-ddb9-a229-c78052d65e65
s 1
f 1/1/1 2/2/1 3/3/1 4/4/1
f 5/5/2 6/6/2 7/7/2 8/8/2
f 6/9/3 2/10/3 1/11/3 7/12/3
f 4/13/4 3/14/4 5/15/4 8/16/4
f 3/17/5 2/18/5 6/19/5 5/20/5
f 7/21/6 1/22/6 4/23/6 8/24/6
f 9/25/7 10/26/7 11/27/7 12/28/7
f 13/29/8 14/30/8 15/31/8 16/32/8
f 14/33/3 10/34/3 9/35/3 15/36/3
f 12/37/4 11/38/4 13/39/4 16/40/4
f 11/41/9 10/42/9 14/43/9 13/29/9
f 15/44/10 9/25/10 12/45/10 16/46/10
f 17/47/11 18/48/11 19/49/11 20/50/11
f 21/51/12 22/52/12 23/53/12 24/54/12
f 22/55/3 18/56/3 17/57/3 23/58/3
f 20/59/4 19/60/4 21/61/4 24/62/4
f 19/63/13 18/64/13 22/52/13 21/65/13
f 23/53/14 17/66/14 20/67/14 24/68/14
f 25/69/15 26/70/15 27/71/15 28/72/15
f 29/73/16 30/74/16 31/75/16 32/76/16
f 30/77/3 26/78/3 25/79/3 31/80/3
f 28/81/4 27/82/4 29/83/4 32/84/4
f 27/85/5 26/86/5 30/87/5 29/88/5
f 31/89/6 25/90/6 28/91/6 32/92/6
f 33/93/17 34/94/17 35/95/17 36/96/17
f 37/97/18 38/98/18 39/99/18 40/100/18
f 38/101/3 34/102/3 33/93/3 39/103/3
f 36/104/4 35/105/4 37/106/4 40/107/4
f 35/108/19 34/109/19 38/110/19 37/111/19
f 39/112/20 33/113/20 36/114/20 40/115/20
o rightear
v -0.218750 0.250000 -0.031250
v -0.156250 0.437500 -0.031250
v -0.156250 0.437500 -0.093750
v -0.218750 0.250000 -0.093750
v -0.093750 0.437500 -0.093750
v -0.093750 0.437500 -0.031250
v -0.156250 0.250000 -0.031250
v -0.156250 0.250000 -0.093750
v -0.218750 0.250000 -0.031250
v -0.343750 0.500000 -0.093750
v -0.343750 0.500000 -0.156250
v -0.218750 0.250000 -0.093750
v -0.281250 0.500000 -0.156250
v -0.281250 0.500000 -0.093750
v -0.156250 0.250000 -0.031250
v -0.156250 0.250000 -0.093750
v -0.125000 0.125000 0.000000
v -0.062500 0.250000 0.031250
v -0.062500 0.250000 -0.031250
v -0.125000 0.125000 -0.062500
v 0.000000 0.250000 -0.031250
v 0.000000 0.250000 0.031250
v -0.062500 0.125000 0.000000
v -0.062500 0.125000 -0.062500
v -0.218750 0.250000 -0.031250
v -0.234375 0.375000 0.140625
v -0.234375 0.375000 0.078125
v -0.218750 0.250000 -0.093750
v -0.171875 0.375000 0.078125
v -0.171875 0.375000 0.140625
v -0.156250 0.250000 -0.031250
v -0.156250 0.250000 -0.093750
v -0.031250 -0.000000 0.031250
v -0.218750 0.250000 -0.031250
v -0.218750 0.250000 -0.093750
v -0.031250 0.000000 -0.031250
v -0.156250 0.250000 -0.093750
v -0.156250 0.250000 -0.031250
v 0.031250 -0.000000 0.031250
v 0.031250 0.000000 -0.031250
vt 0.125000 0.604712
vt 0.250000 1.000000
vt 0.125000 1.000000
vt 0.000000 0.604712
vt 0.125000 1.000000
vt 0.000000 1.000000
vt 0.125000 0.604725
vt 0.250000 0.604725
vt 0.125000 0.875000
vt 0.125000 0.750000
vt 0.250000 0.750000
vt 0.250000 0.875000
vt 0.250000 1.000000
vt 0.125000 1.000000
vt 0.125000 0.875000
vt 0.250000 0.875000
vt 0.250000 1.000000
vt 0.125000 1.000000
vt 0.000000 0.604712
vt 0.250000 0.604712
vt 0.000000 1.000000
vt 0.125000 0.604712
vt 0.250000 0.440987
vt 0.250000 1.000000
vt 0.125000 1.000000
vt 0.125000 0.440987
vt 0.125000 1.000000
vt 0.000000 1.000000
vt 0.000000 0.440975
vt 0.125000 0.440975
vt 0.125000 0.875000
vt 0.125000 0.750000
vt 0.250000 0.750000
vt 0.250000 0.875000
vt 0.250000 1.000000
vt 0.125000 1.000000
vt 0.125000 0.875000
vt 0.250000 0.875000
vt 0.125000 1.000000
vt 0.000000 1.000000
vt 0.250000 0.500000
vt 0.375000 0.500000
vt 0.125000 0.500000
vt 0.375000 1.000000
vt 0.250000 1.000000
vt 0.000000 0.500000
vt 0.187500 0.720487
vt 0.125000 1.000000
vt 0.000000 1.000000
vt 0.062500 0.720487
vt 0.187500 1.000000
vt 0.062500 1.000000
vt 0.000000 0.720487
vt 0.125000 0.720487
vt 0.000000 0.875000
vt 0.000000 0.750000
vt 0.125000 0.750000
vt 0.125000 0.875000
vt 0.125000 1.000000
vt 0.000000 1.000000
vt 0.000000 0.875000
vt 0.125000 0.875000
vt 0.250000 1.000000
vt 0.000000 0.742312
vt 0.125000 0.742312
vt 0.250000 0.742300
vt 0.125000 1.000000
vt 0.000000 1.000000
vt 0.125000 0.742300
vt 0.125000 0.742300
vt 0.375000 1.000000
vt 0.250000 1.000000
vt 0.000000 0.742300
vt 0.125000 1.000000
vt 0.000000 1.000000
vt 0.250000 0.742300
vt 0.375000 0.742300
vt 0.000000 1.000000
vt 0.000000 0.875000
vt 0.125000 0.875000
vt 0.250000 1.000000
vt 0.125000 1.000000
vt 0.125000 0.875000
vt 0.250000 0.875000
vt 0.125000 1.000000
vt 0.000000 1.000000
vt 0.062500 0.646450
vt 0.187500 0.646450
vt 0.125000 0.646450
vt 0.187500 1.000000
vt 0.062500 1.000000
vt 0.000000 0.646450
vt 0.250000 0.375000
vt 0.125000 1.000000
vt 0.000000 1.000000
vt 0.125000 0.375000
vt 0.250000 1.000000
vt 0.125000 1.000000
vt 0.000000 0.375000
vt 0.125000 0.375000
vt 0.125000 0.875000
vt 0.125000 0.750000
vt 0.250000 0.750000
vt 0.250000 0.875000
vt 0.250000 0.875000
vt 0.125000 0.875000
vt 0.125000 0.750000
vt 0.250000 0.750000
vt 0.000000 1.000000
vt 0.375000 0.484612
vt 0.500000 0.484612
vt 0.125000 0.484612
vt 0.500000 1.000000
vt 0.375000 1.000000
vt 0.000000 0.484612
vn -0.9487 0.3162 0.0000
vn 0.9487 -0.3162 0.0000
vn 0.0000 1.0000 0.0000
vn 0.0000 -1.0000 0.0000
vn 0.0000 -0.0000 1.0000
vn 0.0000 0.0000 -1.0000
vn -0.8944 -0.4472 0.0000
vn 0.8944 0.4472 0.0000
vn 0.0000 0.2425 0.9701
vn 0.0000 -0.2425 -0.9701
vn -0.8944 0.4472 0.0000
vn 0.8944 -0.4472 0.0000
vn 0.0000 -0.2425 0.9701
vn 0.0000 0.2425 -0.9701
vn -0.9923 -0.1240 0.0000
vn 0.9923 0.1240 0.0000
vn 0.0000 -0.8087 0.5882
vn 0.0000 0.8087 -0.5882
vn -0.8000 -0.6000 0.0000
vn 0.8000 0.6000 0.0000
usemtl m_23ca4d8a-9f09-ddb9-a229-c78052d65e65
s 1
f 41/116/21 42/117/21 43/118/21 44/119/21
f 45/120/22 46/121/22 47/122/22 48/123/22
f 43/124/23 42/125/23 46/126/23 45/127/23
f 47/128/24 41/129/24 44/130/24 48/131/24
f 46/132/25 42/133/25 41/134/25 47/122/25
f 44/135/26 43/118/26 45/136/26 48/137/26
f 49/138/27 50/139/27 51/140/27 52/141/27
f 53/142/28 54/143/28 55/144/28 56/145/28
f 51/146/23 50/147/23 54/148/23 53/149/23
f 55/150/24 49/151/24 52/152/24 56/153/24
f 54/154/29 50/155/29 49/156/29 55/157/29
f 52/158/30 51/159/30 53/160/30 56/161/30
f 57/162/31 58/163/31 59/164/31 60/165/31
f 61/166/32 62/167/32 63/168/32 64/169/32
f 59/170/23 58/171/23 62/172/23 61/173/23
f 63/174/24 57/175/24 60/176/24 64/177/24
f 62/178/33 58/163/33 57/179/33 63/180/33
f 60/181/34 59/182/34 61/183/34 64/184/34
f 65/185/35 66/186/35 67/187/35 68/188/35
f 69/189/36 70/190/36 71/191/36 72/192/36
f 67/193/23 66/194/23 70/195/23 69/189/23
f 71/196/24 65/197/24 68/198/24 72/199/24
f 70/200/37 66/201/37 65/202/37 71/203/37
f 68/204/38 67/205/38 69/206/38 72/207/38
f 73/208/39 74/209/39 75/210/39 76/211/39
f 77/212/40 78/213/40 79/214/40 80/215/40
f 75/216/23 74/217/23 78/218/23 77/219/23
f 79/220/24 73/221/24 76/222/24 80/223/24
f 78/213/29 74/224/29 73/225/29 79/226/29
f 76/227/30 75/228/30 77/229/30 80/230/30
