# Blender v2.79 (sub 0) OBJ File: ''
# www.blender.org
mtllib rpgsquare.mtl
o rocket4
v 0.011999 -0.187500 0.382812
v 0.070312 -0.156250 0.382812
v 0.070312 -0.218750 0.382812
v 0.070312 -0.218750 0.476562
v 0.011999 -0.250000 0.382812
v 0.070312 -0.281250 0.382812
v 0.128626 -0.250000 0.382812
v 0.128626 -0.187500 0.382812
vt 0.218750 0.437500
vt 0.031250 0.437500
vt 0.031250 0.062500
vt 0.218750 0.437500
vt 0.031250 0.437500
vt 0.031250 0.062500
vt 0.218750 0.437500
vt 0.031250 0.437500
vt 0.218750 0.437500
vt 0.031250 0.437500
vt 0.218750 0.437500
vt 0.031250 0.437500
vt 0.218750 0.437500
vt 0.031250 0.437500
vn 0.0000 0.0000 -1.0000
vn -0.4072 0.7599 0.5066
vn -0.8491 0.0000 0.5282
vn -0.4072 -0.7599 0.5066
vn 0.4072 -0.7599 0.5066
vn 0.8491 0.0000 0.5282
vn 0.4072 0.7599 0.5066
usemtl m_17cbd0ef-c65d-5ac8-6e03-5aebfccc5908
s 1
f 1/1/1 2/2/1 3/3/1
f 2/4/2 1/5/2 4/6/2
f 5/7/1 1/5/1 3/3/1
f 1/1/3 5/8/3 4/6/3
f 6/9/1 5/8/1 3/3/1
f 5/7/4 6/10/4 4/6/4
f 7/11/1 6/10/1 3/3/1
f 6/9/5 7/12/5 4/6/5
f 8/13/1 7/12/1 3/3/1
f 7/11/6 8/14/6 4/6/6
f 2/4/1 8/14/1 3/3/1
f 8/13/7 2/2/7 4/6/7
o rocketlauncher
v -0.070312 -0.015625 -0.375000
v -0.128626 -0.046875 -0.375000
v -0.070312 -0.078125 -0.375000
v -0.128626 -0.046875 -0.382812
v -0.070312 -0.015625 -0.382812
v -0.070312 -0.078125 -0.382812
v -0.128626 -0.109375 -0.375000
v -0.128626 -0.109375 -0.382812
v -0.070312 -0.140625 -0.375000
v -0.070312 -0.140625 -0.382812
v -0.011999 -0.109375 -0.375000
v -0.011999 -0.109375 -0.382812
v -0.011999 -0.046875 -0.375000
v -0.011999 -0.046875 -0.382812
v -0.128626 -0.046875 0.375000
v -0.070312 -0.015625 0.375000
v -0.070312 -0.078125 0.375000
v -0.128626 -0.046875 0.382812
v -0.070312 -0.015625 0.382812
v -0.070312 -0.078125 0.382812
v -0.128626 -0.109375 0.375000
v -0.128626 -0.109375 0.382812
v -0.070312 -0.140625 0.375000
v -0.070312 -0.140625 0.382812
v -0.011999 -0.109375 0.375000
v -0.011999 -0.109375 0.382812
v -0.011999 -0.046875 0.375000
v -0.011999 -0.046875 0.382812
v 0.011999 -0.046875 0.375000
v 0.070312 -0.015625 0.375000
v 0.070312 -0.078125 0.375000
v 0.011999 -0.046875 0.382812
v 0.070312 -0.015625 0.382812
v 0.070312 -0.078125 0.382812
v 0.011999 -0.109375 0.375000
v 0.011999 -0.109375 0.382812
v 0.070312 -0.140625 0.375000
v 0.070312 -0.140625 0.382812
v 0.128626 -0.109375 0.375000
v 0.128626 -0.109375 0.382812
v 0.128626 -0.046875 0.375000
v 0.128626 -0.046875 0.382812
v 0.070312 -0.015625 -0.375000
v 0.011999 -0.046875 -0.375000
v 0.070312 -0.078125 -0.375000
v 0.011999 -0.046875 -0.382812
v 0.070312 -0.015625 -0.382812
v 0.070312 -0.078125 -0.382812
v 0.011999 -0.109375 -0.375000
v 0.011999 -0.109375 -0.382812
v 0.070312 -0.140625 -0.375000
v 0.070312 -0.140625 -0.382812
v 0.128626 -0.109375 -0.375000
v 0.128626 -0.109375 -0.382812
v 0.128626 -0.046875 -0.375000
v 0.128626 -0.046875 -0.382812
v -0.128626 -0.187500 0.375000
v -0.070312 -0.156250 0.375000
v -0.070312 -0.218750 0.375000
v -0.128626 -0.187500 0.382812
v -0.070312 -0.156250 0.382812
v -0.070312 -0.218750 0.382812
v -0.128626 -0.250000 0.375000
v -0.128626 -0.250000 0.382812
v -0.070312 -0.281250 0.375000
v -0.070312 -0.281250 0.382812
v -0.011999 -0.250000 0.375000
v -0.011999 -0.250000 0.382812
v -0.011999 -0.187500 0.375000
v -0.011999 -0.187500 0.382812
v -0.070312 -0.156250 -0.375000
v -0.128626 -0.187500 -0.375000
v -0.070312 -0.218750 -0.375000
v -0.128626 -0.187500 -0.382812
v -0.070312 -0.156250 -0.382812
v -0.070312 -0.218750 -0.382812
v -0.128626 -0.250000 -0.375000
v -0.128626 -0.250000 -0.382812
v -0.070312 -0.281250 -0.375000
v -0.070312 -0.281250 -0.382812
v -0.011999 -0.250000 -0.375000
v -0.011999 -0.250000 -0.382812
v -0.011999 -0.187500 -0.375000
v -0.011999 -0.187500 -0.382812
v 0.011999 -0.187500 0.375000
v 0.070312 -0.156250 0.375000
v 0.070312 -0.218750 0.375000
v 0.011999 -0.187500 0.382812
v 0.070312 -0.156250 0.382812
v 0.070312 -0.218750 0.382812
v 0.011999 -0.250000 0.375000
v 0.011999 -0.250000 0.382812
v 0.070312 -0.281250 0.375000
v 0.070312 -0.281250 0.382812
v 0.128626 -0.250000 0.375000
v 0.128626 -0.250000 0.382812
v 0.128626 -0.187500 0.375000
v 0.128626 -0.187500 0.382812
v 0.070312 -0.156250 -0.375000
v 0.011999 -0.187500 -0.375000
v 0.070312 -0.218750 -0.375000
v 0.011999 -0.187500 -0.382812
v 0.070312 -0.156250 -0.382812
v 0.070312 -0.218750 -0.382812
v 0.011999 -0.250000 -0.375000
v 0.011999 -0.250000 -0.382812
v 0.070312 -0.281250 -0.375000
v 0.070312 -0.281250 -0.382812
v 0.128626 -0.250000 -0.375000
v 0.128626 -0.250000 -0.382812
v 0.128626 -0.187500 -0.375000
v 0.128626 -0.187500 -0.382812
vt 0.281250 0.937500
vt 0.468750 0.937500
vt 0.281250 0.562500
vt 0.281250 0.562500
vt 0.281250 0.937500
vt 0.468750 0.937500
vt 0.468750 0.562500
vt 0.281250 0.437500
vt 0.468750 0.437500
vt 0.281250 0.062500
vt 0.468750 0.937500
vt 0.281250 0.562500
vt 0.281250 0.937500
vt 0.468750 0.562500
vt 0.281250 0.437500
vt 0.468750 0.437500
vt 0.468750 0.937500
vt 0.281250 0.562500
vt 0.281250 0.937500
vt 0.468750 0.562500
vt 0.281250 0.437500
vt 0.468750 0.437500
vt 0.468750 0.937500
vt 0.281250 0.562500
vt 0.281250 0.937500
vt 0.468750 0.562500
vt 0.281250 0.437500
vt 0.468750 0.437500
vt 0.468750 0.937500
vt 0.281250 0.562500
vt 0.281250 0.937500
vt 0.468750 0.562500
vt 0.281250 0.437500
vt 0.468750 0.437500
vt 0.281250 0.562500
vt 0.468750 0.562500
vt 0.281250 0.437500
vt 0.468750 0.437500
vt 0.468750 0.937500
vt 0.281250 0.937500
vt 0.281250 0.562500
vt 0.468750 0.937500
vt 0.281250 0.937500
vt 0.281250 0.562500
vt 0.468750 0.562500
vt 0.468750 0.437500
vt 0.281250 0.437500
vt 0.281250 0.062500
vt 0.468750 0.937500
vt 0.281250 0.937500
vt 0.281250 0.562500
vt 0.468750 0.562500
vt 0.468750 0.437500
vt 0.281250 0.437500
vt 0.468750 0.937500
vt 0.281250 0.937500
vt 0.281250 0.562500
vt 0.468750 0.562500
vt 0.468750 0.437500
vt 0.281250 0.437500
vt 0.468750 0.937500
vt 0.281250 0.937500
vt 0.281250 0.562500
vt 0.468750 0.562500
vt 0.468750 0.437500
vt 0.281250 0.437500
vt 0.468750 0.937500
vt 0.281250 0.937500
vt 0.281250 0.562500
vt 0.468750 0.562500
vt 0.468750 0.437500
vt 0.281250 0.437500
vt 0.281250 0.562500
vt 0.468750 0.562500
vt 0.468750 0.437500
vt 0.281250 0.437500
vt 0.468750 0.937500
vt 0.281250 0.937500
vt 0.281250 0.562500
vt 0.468750 0.937500
vt 0.281250 0.937500
vt 0.281250 0.562500
vt 0.468750 0.562500
vt 0.468750 0.437500
vt 0.281250 0.437500
vt 0.281250 0.062500
vt 0.468750 0.937500
vt 0.281250 0.937500
vt 0.281250 0.562500
vt 0.468750 0.562500
vt 0.468750 0.437500
vt 0.281250 0.437500
vt 0.468750 0.937500
vt 0.281250 0.937500
vt 0.281250 0.562500
vt 0.468750 0.562500
vt 0.468750 0.437500
vt 0.281250 0.437500
vt 0.468750 0.937500
vt 0.281250 0.937500
vt 0.281250 0.562500
vt 0.468750 0.562500
vt 0.468750 0.437500
vt 0.281250 0.437500
vt 0.468750 0.937500
vt 0.281250 0.937500
vt 0.281250 0.562500
vt 0.468750 0.562500
vt 0.468750 0.437500
vt 0.281250 0.437500
vt 0.281250 0.562500
vt 0.468750 0.562500
vt 0.468750 0.437500
vt 0.281250 0.437500
vt 0.281250 0.937500
vt 0.468750 0.937500
vt 0.281250 0.562500
vt 0.281250 0.562500
vt 0.281250 0.937500
vt 0.468750 0.937500
vt 0.468750 0.562500
vt 0.281250 0.437500
vt 0.468750 0.437500
vt 0.281250 0.062500
vt 0.468750 0.937500
vt 0.281250 0.562500
vt 0.281250 0.937500
vt 0.468750 0.562500
vt 0.281250 0.437500
vt 0.468750 0.437500
vt 0.468750 0.937500
vt 0.281250 0.562500
vt 0.281250 0.937500
vt 0.468750 0.562500
vt 0.281250 0.437500
vt 0.468750 0.437500
vt 0.468750 0.937500
vt 0.281250 0.562500
vt 0.281250 0.937500
vt 0.468750 0.562500
vt 0.281250 0.437500
vt 0.468750 0.437500
vt 0.468750 0.937500
vt 0.281250 0.562500
vt 0.281250 0.937500
vt 0.468750 0.562500
vt 0.281250 0.437500
vt 0.468750 0.437500
vt 0.281250 0.562500
vt 0.468750 0.562500
vt 0.281250 0.437500
vt 0.468750 0.437500
vt 0.468750 0.937500
vt 0.281250 0.937500
vt 0.281250 0.562500
vt 0.468750 0.937500
vt 0.281250 0.937500
vt 0.281250 0.562500
vt 0.468750 0.562500
vt 0.468750 0.437500
vt 0.281250 0.437500
vt 0.281250 0.062500
vt 0.468750 0.937500
vt 0.281250 0.937500
vt 0.281250 0.562500
vt 0.468750 0.562500
vt 0.468750 0.437500
vt 0.281250 0.437500
vt 0.468750 0.937500
vt 0.281250 0.937500
vt 0.281250 0.562500
vt 0.468750 0.562500
vt 0.468750 0.437500
vt 0.281250 0.437500
vt 0.468750 0.937500
vt 0.281250 0.937500
vt 0.281250 0.562500
vt 0.468750 0.562500
vt 0.468750 0.437500
vt 0.281250 0.437500
vt 0.468750 0.937500
vt 0.281250 0.937500
vt 0.281250 0.562500
vt 0.468750 0.562500
vt 0.468750 0.437500
vt 0.281250 0.437500
vt 0.281250 0.562500
vt 0.468750 0.562500
vt 0.468750 0.437500
vt 0.281250 0.437500
vt 0.281250 0.937500
vt 0.468750 0.937500
vt 0.281250 0.562500
vt 0.281250 0.562500
vt 0.281250 0.937500
vt 0.468750 0.937500
vt 0.468750 0.562500
vt 0.281250 0.437500
vt 0.468750 0.437500
vt 0.281250 0.062500
vt 0.468750 0.937500
vt 0.281250 0.562500
vt 0.281250 0.937500
vt 0.468750 0.562500
vt 0.281250 0.437500
vt 0.468750 0.437500
vt 0.468750 0.937500
vt 0.281250 0.562500
vt 0.281250 0.937500
vt 0.468750 0.562500
vt 0.281250 0.437500
vt 0.468750 0.437500
vt 0.468750 0.937500
vt 0.281250 0.562500
vt 0.281250 0.937500
vt 0.468750 0.562500
vt 0.281250 0.437500
vt 0.468750 0.437500
vt 0.468750 0.937500
vt 0.281250 0.562500
vt 0.281250 0.937500
vt 0.468750 0.562500
vt 0.281250 0.437500
vt 0.468750 0.437500
vt 0.281250 0.562500
vt 0.468750 0.562500
vt 0.281250 0.437500
vt 0.468750 0.437500
vt 0.468750 0.937500
vt 0.281250 0.937500
vt 0.281250 0.562500
vt 0.468750 0.937500
vt 0.281250 0.937500
vt 0.281250 0.562500
vt 0.468750 0.562500
vt 0.468750 0.437500
vt 0.281250 0.437500
vt 0.281250 0.062500
vt 0.468750 0.937500
vt 0.281250 0.937500
vt 0.281250 0.562500
vt 0.468750 0.562500
vt 0.468750 0.437500
vt 0.281250 0.437500
vt 0.468750 0.937500
vt 0.281250 0.937500
vt 0.281250 0.562500
vt 0.468750 0.562500
vt 0.468750 0.437500
vt 0.281250 0.437500
vt 0.468750 0.937500
vt 0.281250 0.937500
vt 0.281250 0.562500
vt 0.468750 0.562500
vt 0.468750 0.437500
vt 0.281250 0.437500
vt 0.468750 0.937500
vt 0.281250 0.937500
vt 0.281250 0.562500
vt 0.468750 0.562500
vt 0.468750 0.437500
vt 0.281250 0.437500
vt 0.281250 0.562500
vt 0.468750 0.562500
vt 0.468750 0.437500
vt 0.281250 0.437500
vt 0.281250 0.937500
vt 0.468750 0.937500
vt 0.281250 0.562500
vt 0.281250 0.562500
vt 0.281250 0.937500
vt 0.468750 0.937500
vt 0.468750 0.562500
vt 0.281250 0.437500
vt 0.468750 0.437500
vt 0.281250 0.062500
vt 0.468750 0.937500
vt 0.281250 0.562500
vt 0.281250 0.937500
vt 0.468750 0.562500
vt 0.281250 0.437500
vt 0.468750 0.437500
vt 0.468750 0.937500
vt 0.281250 0.562500
vt 0.281250 0.937500
vt 0.468750 0.562500
vt 0.281250 0.437500
vt 0.468750 0.437500
vt 0.468750 0.937500
vt 0.281250 0.562500
vt 0.281250 0.937500
vt 0.468750 0.562500
vt 0.281250 0.437500
vt 0.468750 0.437500
vt 0.468750 0.937500
vt 0.281250 0.562500
vt 0.281250 0.937500
vt 0.468750 0.562500
vt 0.281250 0.437500
vt 0.468750 0.437500
vt 0.281250 0.562500
vt 0.468750 0.562500
vt 0.281250 0.437500
vt 0.468750 0.437500
vn 0.0000 0.0000 1.0000
vn -0.4723 0.8814 0.0000
vn 0.0000 0.0000 -1.0000
vn -1.0000 0.0000 0.0000
vn -0.4723 -0.8814 0.0000
vn 0.4723 -0.8814 0.0000
vn 1.0000 0.0000 0.0000
vn 0.4723 0.8814 0.0000
usemtl m_17cbd0ef-c65d-5ac8-6e03-5aebfccc5908
s 1
f 9/15/8 10/16/8 11/17/8
f 12/18/9 10/19/9 9/20/9 13/21/9
f 12/22/10 13/23/10 14/24/10
f 10/19/8 15/25/8 11/17/8
f 16/26/11 15/27/11 10/16/11 12/28/11
f 16/29/10 12/30/10 14/24/10
f 15/27/8 17/31/8 11/17/8
f 18/32/12 17/33/12 15/25/12 16/34/12
f 18/35/10 16/36/10 14/24/10
f 17/33/8 19/37/8 11/17/8
f 20/38/13 19/39/13 17/31/13 18/40/13
f 20/41/10 18/42/10 14/24/10
f 19/39/8 21/43/8 11/17/8
f 22/44/14 21/45/14 19/37/14 20/46/14
f 22/47/10 20/48/10 14/24/10
f 21/45/8 9/20/8 11/17/8
f 13/49/15 9/15/15 21/43/15 22/50/15
f 13/51/10 22/52/10 14/24/10
f 23/53/10 24/54/10 25/55/10
f 24/56/9 23/57/9 26/58/9 27/59/9
f 27/60/8 26/61/8 28/62/8
f 29/63/10 23/57/10 25/55/10
f 23/53/11 29/64/11 30/65/11 26/66/11
f 26/67/8 30/68/8 28/62/8
f 31/69/10 29/64/10 25/55/10
f 29/63/12 31/70/12 32/71/12 30/72/12
f 30/73/8 32/74/8 28/62/8
f 33/75/10 31/70/10 25/55/10
f 31/69/13 33/76/13 34/77/13 32/78/13
f 32/79/8 34/80/8 28/62/8
f 35/81/10 33/76/10 25/55/10
f 33/75/14 35/82/14 36/83/14 34/84/14
f 34/85/8 36/86/8 28/62/8
f 24/56/10 35/82/10 25/55/10
f 35/81/15 24/54/15 27/87/15 36/88/15
f 36/89/8 27/90/8 28/62/8
f 37/91/10 38/92/10 39/93/10
f 38/94/9 37/95/9 40/96/9 41/97/9
f 41/98/8 40/99/8 42/100/8
f 43/101/10 37/95/10 39/93/10
f 37/91/11 43/102/11 44/103/11 40/104/11
f 40/105/8 44/106/8 42/100/8
f 45/107/10 43/102/10 39/93/10
f 43/101/12 45/108/12 46/109/12 44/110/12
f 44/111/8 46/112/8 42/100/8
f 47/113/10 45/108/10 39/93/10
f 45/107/13 47/114/13 48/115/13 46/116/13
f 46/117/8 48/118/8 42/100/8
f 49/119/10 47/114/10 39/93/10
f 47/113/14 49/120/14 50/121/14 48/122/14
f 48/123/8 50/124/8 42/100/8
f 38/94/10 49/120/10 39/93/10
f 49/119/15 38/92/15 41/125/15 50/126/15
f 50/127/8 41/128/8 42/100/8
f 51/129/8 52/130/8 53/131/8
f 54/132/9 52/133/9 51/134/9 55/135/9
f 54/136/10 55/137/10 56/138/10
f 52/133/8 57/139/8 53/131/8
f 58/140/11 57/141/11 52/130/11 54/142/11
f 58/143/10 54/144/10 56/138/10
f 57/141/8 59/145/8 53/131/8
f 60/146/12 59/147/12 57/139/12 58/148/12
f 60/149/10 58/150/10 56/138/10
f 59/147/8 61/151/8 53/131/8
f 62/152/13 61/153/13 59/145/13 60/154/13
f 62/155/10 60/156/10 56/138/10
f 61/153/8 63/157/8 53/131/8
f 64/158/14 63/159/14 61/151/14 62/160/14
f 64/161/10 62/162/10 56/138/10
f 63/159/8 51/134/8 53/131/8
f 55/163/15 51/129/15 63/157/15 64/164/15
f 55/165/10 64/166/10 56/138/10
f 65/167/10 66/168/10 67/169/10
f 66/170/9 65/171/9 68/172/9 69/173/9
f 69/174/8 68/175/8 70/176/8
f 71/177/10 65/171/10 67/169/10
f 65/167/11 71/178/11 72/179/11 68/180/11
f 68/181/8 72/182/8 70/176/8
f 73/183/10 71/178/10 67/169/10
f 71/177/12 73/184/12 74/185/12 72/186/12
f 72/187/8 74/188/8 70/176/8
f 75/189/10 73/184/10 67/169/10
f 73/183/13 75/190/13 76/191/13 74/192/13
f 74/193/8 76/194/8 70/176/8
f 77/195/10 75/190/10 67/169/10
f 75/189/14 77/196/14 78/197/14 76/198/14
f 76/199/8 78/200/8 70/176/8
f 66/170/10 77/196/10 67/169/10
f 77/195/15 66/168/15 69/201/15 78/202/15
f 78/203/8 69/204/8 70/176/8
f 79/205/8 80/206/8 81/207/8
f 82/208/9 80/209/9 79/210/9 83/211/9
f 82/212/10 83/213/10 84/214/10
f 80/209/8 85/215/8 81/207/8
f 86/216/11 85/217/11 80/206/11 82/218/11
f 86/219/10 82/220/10 84/214/10
f 85/217/8 87/221/8 81/207/8
f 88/222/12 87/223/12 85/215/12 86/224/12
f 88/225/10 86/226/10 84/214/10
f 87/223/8 89/227/8 81/207/8
f 90/228/13 89/229/13 87/221/13 88/230/13
f 90/231/10 88/232/10 84/214/10
f 89/229/8 91/233/8 81/207/8
f 92/234/14 91/235/14 89/227/14 90/236/14
f 92/237/10 90/238/10 84/214/10
f 91/235/8 79/210/8 81/207/8
f 83/239/15 79/205/15 91/233/15 92/240/15
f 83/241/10 92/242/10 84/214/10
f 93/243/10 94/244/10 95/245/10
f 94/246/9 93/247/9 96/248/9 97/249/9
f 97/250/8 96/251/8 98/252/8
f 99/253/10 93/247/10 95/245/10
f 93/243/11 99/254/11 100/255/11 96/256/11
f 96/257/8 100/258/8 98/252/8
f 101/259/10 99/254/10 95/245/10
f 99/253/12 101/260/12 102/261/12 100/262/12
f 100/263/8 102/264/8 98/252/8
f 103/265/10 101/260/10 95/245/10
f 101/259/13 103/266/13 104/267/13 102/268/13
f 102/269/8 104/270/8 98/252/8
f 105/271/10 103/266/10 95/245/10
f 103/265/14 105/272/14 106/273/14 104/274/14
f 104/275/8 106/276/8 98/252/8
f 94/246/10 105/272/10 95/245/10
f 105/271/15 94/244/15 97/277/15 106/278/15
f 106/279/8 97/280/8 98/252/8
f 107/281/8 108/282/8 109/283/8
f 110/284/9 108/285/9 107/286/9 111/287/9
f 110/288/10 111/289/10 112/290/10
f 108/285/8 113/291/8 109/283/8
f 114/292/11 113/293/11 108/282/11 110/294/11
f 114/295/10 110/296/10 112/290/10
f 113/293/8 115/297/8 109/283/8
f 116/298/12 115/299/12 113/291/12 114/300/12
f 116/301/10 114/302/10 112/290/10
f 115/299/8 117/303/8 109/283/8
f 118/304/13 117/305/13 115/297/13 116/306/13
f 118/307/10 116/308/10 112/290/10
f 117/305/8 119/309/8 109/283/8
f 120/310/14 119/311/14 117/303/14 118/312/14
f 120/313/10 118/314/10 112/290/10
f 119/311/8 107/286/8 109/283/8
f 111/315/15 107/281/15 119/309/15 120/316/15
f 111/317/10 120/318/10 112/290/10
o cuboid
v 0.140625 -0.007813 0.375000
v 0.156250 -0.148438 0.375000
v 0.156250 -0.148437 -0.375000
v 0.140625 -0.007812 -0.375000
v -0.140625 -0.007812 -0.375000
v -0.156250 -0.148437 -0.375000
v -0.156250 -0.148438 0.375000
v -0.140625 -0.007813 0.375000
v 0.000000 0.007813 -0.375000
v 0.000000 0.007812 0.375000
v 0.140625 -0.289063 0.375000
v 0.000000 -0.304688 0.375000
v 0.000000 -0.304687 -0.375000
v 0.140625 -0.289062 -0.375000
v 0.000000 -0.148438 0.375000
v 0.000000 -0.148437 -0.375000
v -0.140625 -0.289062 -0.375000
v -0.140625 -0.289063 0.375000
vt 0.546875 1.000000
vt 0.515625 1.000000
vt 0.515625 0.625000
vt 0.546875 0.625000
vt 0.640625 0.593750
vt 0.609375 0.593750
vt 0.609375 0.218750
vt 0.640625 0.218750
vt 0.546875 0.593750
vt 0.515625 0.593750
vt 0.515625 0.218750
vt 0.546875 0.218750
vt 0.593750 1.000000
vt 0.562500 1.000000
vt 0.562500 0.625000
vt 0.593750 0.625000
vt 0.312500 0.875000
vt 0.312500 0.750000
vt 0.375000 0.750000
vt 0.375000 0.875000
vt 0.375000 0.875000
vt 0.375000 0.750000
vt 0.437500 0.750000
vt 0.437500 0.875000
vt 0.609375 0.625000
vt 0.640625 0.625000
vt 0.640625 1.000000
vt 0.609375 1.000000
vt 0.500000 0.750000
vt 0.500000 0.875000
vt 0.656250 0.218750
vt 0.687500 0.218750
vt 0.687500 0.593750
vt 0.656250 0.593750
vt 0.250000 0.875000
vt 0.250000 0.750000
vt 0.562500 0.218750
vt 0.593750 0.218750
vt 0.593750 0.593750
vt 0.562500 0.593750
vt 0.500000 0.625000
vt 0.437500 0.625000
vt 0.375000 0.625000
vt 0.656250 0.625000
vt 0.687500 0.625000
vt 0.687500 1.000000
vt 0.656250 1.000000
vt 0.375000 0.625000
vt 0.312500 0.625000
vt 0.250000 0.625000
vn 0.9939 0.1104 0.0000
vn -0.9939 0.1104 0.0000
vn 0.1104 0.9939 0.0000
vn 0.1104 -0.9939 -0.0000
vn 0.0000 0.0000 1.0000
vn 0.0000 0.0000 -1.0000
vn -0.1104 0.9939 0.0000
vn -0.1104 -0.9939 -0.0000
vn -0.9939 -0.1104 -0.0000
vn 0.9939 -0.1104 -0.0000
usemtl m_17cbd0ef-c65d-5ac8-6e03-5aebfccc5908
s 1
f 121/319/16 122/320/16 123/321/16 124/322/16
f 125/323/17 126/324/17 127/325/17 128/326/17
f 124/327/18 129/328/18 130/329/18 121/330/18
f 131/331/19 132/332/19 133/333/19 134/334/19
f 130/335/20 135/336/20 122/337/20 121/338/20
f 124/339/21 123/340/21 136/341/21 129/342/21
f 128/343/22 130/344/22 129/345/22 125/346/22
f 129/342/21 136/341/21 126/347/21 125/348/21
f 137/349/23 133/350/23 132/351/23 138/352/23
f 128/353/20 127/354/20 135/336/20 130/335/20
f 138/355/24 127/356/24 126/357/24 137/358/24
f 137/359/21 126/347/21 136/341/21 133/360/21
f 133/360/21 136/341/21 123/340/21 134/361/21
f 134/362/25 123/363/25 122/364/25 131/365/25
f 131/366/20 122/337/20 135/336/20 132/367/20
f 132/367/20 135/336/20 127/354/20 138/368/20
o rocket2
v 0.011999 -0.046875 0.382812
v 0.070312 -0.015625 0.382812
v 0.070312 -0.078125 0.382812
v 0.070312 -0.078125 0.476562
v 0.011999 -0.109375 0.382812
v 0.070312 -0.140625 0.382812
v 0.128626 -0.109375 0.382812
v 0.128626 -0.046875 0.382812
vt 0.218750 0.437500
vt 0.031250 0.437500
vt 0.031250 0.062500
vt 0.218750 0.437500
vt 0.031250 0.437500
vt 0.031250 0.062500
vt 0.218750 0.437500
vt 0.031250 0.437500
vt 0.218750 0.437500
vt 0.031250 0.437500
vt 0.218750 0.437500
vt 0.031250 0.437500
vt 0.218750 0.437500
vt 0.031250 0.437500
vn 0.0000 0.0000 -1.0000
vn -0.4072 0.7599 0.5066
vn -0.8491 0.0000 0.5282
vn -0.4072 -0.7599 0.5066
vn 0.4072 -0.7599 0.5066
vn 0.8491 0.0000 0.5282
vn 0.4072 0.7599 0.5066
usemtl m_17cbd0ef-c65d-5ac8-6e03-5aebfccc5908
s 1
f 139/369/26 140/370/26 141/371/26
f 140/372/27 139/373/27 142/374/27
f 143/375/26 139/373/26 141/371/26
f 139/369/28 143/376/28 142/374/28
f 144/377/26 143/376/26 141/371/26
f 143/375/29 144/378/29 142/374/29
f 145/379/26 144/378/26 141/371/26
f 144/377/30 145/380/30 142/374/30
f 146/381/26 145/380/26 141/371/26
f 145/379/31 146/382/31 142/374/31
f 140/372/26 146/382/26 141/371/26
f 146/381/32 140/370/32 142/374/32
o rocket3
v -0.128626 -0.187500 0.382812
v -0.070312 -0.156250 0.382812
v -0.070312 -0.218750 0.382812
v -0.070312 -0.218750 0.476562
v -0.128626 -0.250000 0.382812
v -0.070312 -0.281250 0.382812
v -0.011999 -0.250000 0.382812
v -0.011999 -0.187500 0.382812
vt 0.218750 0.437500
vt 0.031250 0.437500
vt 0.031250 0.062500
vt 0.218750 0.437500
vt 0.031250 0.437500
vt 0.031250 0.062500
vt 0.218750 0.437500
vt 0.031250 0.437500
vt 0.218750 0.437500
vt 0.031250 0.437500
vt 0.218750 0.437500
vt 0.031250 0.437500
vt 0.218750 0.437500
vt 0.031250 0.437500
vn 0.0000 0.0000 -1.0000
vn -0.4072 0.7599 0.5066
vn -0.8491 0.0000 0.5282
vn -0.4072 -0.7599 0.5066
vn 0.4072 -0.7599 0.5066
vn 0.8491 0.0000 0.5282
vn 0.4072 0.7599 0.5066
usemtl m_17cbd0ef-c65d-5ac8-6e03-5aebfccc5908
s 1
f 147/383/33 148/384/33 149/385/33
f 148/386/34 147/387/34 150/388/34
f 151/389/33 147/387/33 149/385/33
f 147/383/35 151/390/35 150/388/35
f 152/391/33 151/390/33 149/385/33
f 151/389/36 152/392/36 150/388/36
f 153/393/33 152/392/33 149/385/33
f 152/391/37 153/394/37 150/388/37
f 154/395/33 153/394/33 149/385/33
f 153/393/38 154/396/38 150/388/38
f 148/386/33 154/396/33 149/385/33
f 154/395/39 148/384/39 150/388/39
o rocket1
v -0.128626 -0.046875 0.382812
v -0.070312 -0.015625 0.382812
v -0.070312 -0.078125 0.382812
v -0.070312 -0.078125 0.476562
v -0.128626 -0.109375 0.382812
v -0.070312 -0.140625 0.382812
v -0.011999 -0.109375 0.382812
v -0.011999 -0.046875 0.382812
vt 0.218750 0.437500
vt 0.031250 0.437500
vt 0.031250 0.062500
vt 0.218750 0.437500
vt 0.031250 0.437500
vt 0.031250 0.062500
vt 0.218750 0.437500
vt 0.031250 0.437500
vt 0.218750 0.437500
vt 0.031250 0.437500
vt 0.218750 0.437500
vt 0.031250 0.437500
vt 0.218750 0.437500
vt 0.031250 0.437500
vn 0.0000 0.0000 -1.0000
vn -0.4072 0.7599 0.5066
vn -0.8491 0.0000 0.5282
vn -0.4072 -0.7599 0.5066
vn 0.4072 -0.7599 0.5066
vn 0.8491 0.0000 0.5282
vn 0.4072 0.7599 0.5066
usemtl m_17cbd0ef-c65d-5ac8-6e03-5aebfccc5908
s 1
f 155/397/40 156/398/40 157/399/40
f 156/400/41 155/401/41 158/402/41
f 159/403/40 155/401/40 157/399/40
f 155/397/42 159/404/42 158/402/42
f 160/405/40 159/404/40 157/399/40
f 159/403/43 160/406/43 158/402/43
f 161/407/40 160/406/40 157/399/40
f 160/405/44 161/408/44 158/402/44
f 162/409/40 161/408/40 157/399/40
f 161/407/45 162/410/45 158/402/45
f 156/400/40 162/410/40 157/399/40
f 162/409/46 156/398/46 158/402/46
