# Blender v2.79 (sub 0) OBJ File: ''
# www.blender.org
mtllib scanner_0custom.mtl
o hudModel
v 0.000977 -0.000977 -0.000977
v -0.000977 -0.000977 -0.000977
v -0.000977 0.000977 -0.000977
v 0.000977 0.000977 -0.000977
v 0.000977 -0.000977 0.000977
v 0.000977 0.000977 0.000977
v -0.000977 -0.000977 0.000977
v -0.000977 0.000977 0.000977
vt 0.937500 0.000000
vt 1.000000 0.000000
vt 1.000000 0.062500
vt 0.937500 0.062500
vt 0.937500 0.000000
vt 1.000000 0.000000
vt 1.000000 0.062500
vt 0.937500 0.062500
vt 0.937500 0.000000
vt 1.000000 0.000000
vt 1.000000 0.062500
vt 0.937500 0.062500
vt 0.937500 0.000000
vt 1.000000 0.000000
vt 1.000000 0.062500
vt 0.937500 0.062500
vt 0.937500 0.000000
vt 1.000000 0.000000
vt 1.000000 0.062500
vt 0.937500 0.062500
vn 0.0000 0.0000 -1.0000
vn 1.0000 0.0000 0.0000
vn 0.0000 -0.0000 1.0000
vn -1.0000 0.0000 0.0000
vn 0.0000 1.0000 0.0000
vn 0.0000 -1.0000 -0.0000
usemtl none
s 1
f 1/1/1 2/2/1 3/3/1 4/4/1
f 5/5/2 1/6/2 4/7/2 6/8/2
f 7/9/3 5/10/3 6/11/3 8/12/3
f 2/13/4 7/14/4 8/15/4 3/16/4
f 8/17/5 6/18/5 4/7/5 3/16/5
f 2/13/6 1/6/6 5/19/6 7/20/6
o scannercustom8
v 0.210938 0.265625 0.281250
v 0.210938 0.296875 0.281250
v 0.210938 0.296875 0.250000
v 0.210938 0.265625 0.250000
v 0.281250 0.296875 0.250000
v 0.281250 0.296875 0.265625
v 0.281250 0.265625 0.265625
v 0.281250 0.265625 0.250000
vt 0.937500 0.062500
vt 0.937500 0.187500
vt 0.812500 0.187500
vt 0.812500 0.062500
vt 0.937500 0.062500
vt 0.937500 0.187500
vt 0.812500 0.187500
vt 0.812500 0.062500
vt 0.937500 0.062500
vt 0.812500 0.187500
vt 0.812500 0.062500
vt 0.937500 0.062500
vt 0.937500 0.187500
vt 0.812500 0.187500
vt 0.937500 0.062500
vt 0.812500 0.187500
vt 0.812500 0.062500
vt 0.937500 0.062500
vt 0.937500 0.187500
vt 0.812500 0.187500
vn -1.0000 0.0000 0.0000
vn 1.0000 0.0000 0.0000
vn 0.0000 1.0000 0.0000
vn 0.0000 -1.0000 0.0000
vn 0.2169 0.0000 0.9762
vn 0.0000 0.0000 -1.0000
usemtl m_f19bfa61-e2f5-33e2-b7b0-4d13ef8e8c63
s 1
f 9/21/7 10/22/7 11/23/7 12/24/7
f 13/25/8 14/26/8 15/27/8 16/28/8
f 11/29/9 10/22/9 14/30/9 13/31/9
f 15/32/10 9/33/10 12/34/10 16/28/10
f 14/35/11 10/22/11 9/36/11 15/37/11
f 12/38/12 11/39/12 13/40/12 16/28/12
o scannercustom6
v 0.070312 0.265625 0.289062
v 0.070312 0.296875 0.289062
v 0.070312 0.296875 0.250000
v 0.070312 0.265625 0.250000
v 0.140625 0.296875 0.250000
v 0.140625 0.296875 0.289062
v 0.140625 0.265625 0.289062
v 0.140625 0.265625 0.250000
vt 0.937500 0.062500
vt 0.937500 0.187500
vt 0.812500 0.187500
vt 0.812500 0.062500
vt 0.937500 0.062500
vt 0.937500 0.187500
vt 0.812500 0.187500
vt 0.812500 0.062500
vt 0.937500 0.062500
vt 0.812500 0.187500
vt 0.812500 0.062500
vt 0.937500 0.062500
vt 0.937500 0.187500
vt 0.812500 0.187500
vt 0.937500 0.062500
vt 0.812500 0.187500
vt 0.812500 0.062500
vt 0.937500 0.062500
vt 0.937500 0.187500
vt 0.812500 0.187500
vn -1.0000 0.0000 0.0000
vn 1.0000 0.0000 0.0000
vn 0.0000 1.0000 0.0000
vn 0.0000 -1.0000 0.0000
vn 0.0000 0.0000 1.0000
vn 0.0000 0.0000 -1.0000
usemtl m_f19bfa61-e2f5-33e2-b7b0-4d13ef8e8c63
s 1
f 17/41/13 18/42/13 19/43/13 20/44/13
f 21/45/14 22/46/14 23/47/14 24/48/14
f 19/49/15 18/42/15 22/50/15 21/51/15
f 23/52/16 17/53/16 20/54/16 24/48/16
f 22/55/17 18/42/17 17/56/17 23/57/17
f 20/58/18 19/59/18 21/60/18 24/48/18
o scannercustom4
v 0.000000 0.296875 0.250000
v 0.000000 0.296875 0.289062
v 0.000000 0.265625 0.289062
v 0.000000 0.265625 0.250000
v -0.070312 0.265625 0.289062
v -0.070312 0.296875 0.289062
v -0.070312 0.296875 0.250000
v -0.070312 0.265625 0.250000
vt 0.937500 0.062500
vt 0.937500 0.187500
vt 0.812500 0.187500
vt 0.812500 0.062500
vt 0.937500 0.062500
vt 0.937500 0.187500
vt 0.812500 0.187500
vt 0.812500 0.062500
vt 0.937500 0.062500
vt 0.812500 0.187500
vt 0.812500 0.062500
vt 0.937500 0.062500
vt 0.937500 0.187500
vt 0.812500 0.187500
vt 0.937500 0.062500
vt 0.812500 0.187500
vt 0.812500 0.062500
vt 0.937500 0.062500
vt 0.937500 0.187500
vt 0.812500 0.187500
vn 1.0000 0.0000 0.0000
vn -1.0000 0.0000 0.0000
vn 0.0000 1.0000 0.0000
vn 0.0000 -1.0000 0.0000
vn 0.0000 0.0000 1.0000
vn 0.0000 0.0000 -1.0000
usemtl m_f19bfa61-e2f5-33e2-b7b0-4d13ef8e8c63
s 1
f 25/61/19 26/62/19 27/63/19 28/64/19
f 29/65/20 30/66/20 31/67/20 32/68/20
f 30/69/21 26/62/21 25/70/21 31/71/21
f 28/72/22 27/73/22 29/74/22 32/68/22
f 27/75/23 26/62/23 30/76/23 29/77/23
f 31/78/24 25/79/24 28/80/24 32/68/24
o scannercustom7
v 0.140625 0.265625 0.289062
v 0.140625 0.296875 0.289062
v 0.140625 0.296875 0.250000
v 0.140625 0.265625 0.250000
v 0.210938 0.296875 0.250000
v 0.210938 0.296875 0.281250
v 0.210938 0.265625 0.281250
v 0.210938 0.265625 0.250000
vt 0.937500 0.062500
vt 0.937500 0.187500
vt 0.812500 0.187500
vt 0.812500 0.062500
vt 0.937500 0.062500
vt 0.937500 0.187500
vt 0.812500 0.187500
vt 0.812500 0.062500
vt 0.937500 0.062500
vt 0.812500 0.187500
vt 0.812500 0.062500
vt 0.937500 0.062500
vt 0.937500 0.187500
vt 0.812500 0.187500
vt 0.937500 0.062500
vt 0.812500 0.187500
vt 0.812500 0.062500
vt 0.937500 0.062500
vt 0.937500 0.187500
vt 0.812500 0.187500
vn -1.0000 0.0000 0.0000
vn 1.0000 0.0000 0.0000
vn 0.0000 1.0000 0.0000
vn 0.0000 -1.0000 0.0000
vn 0.1104 0.0000 0.9939
vn 0.0000 0.0000 -1.0000
usemtl m_f19bfa61-e2f5-33e2-b7b0-4d13ef8e8c63
s 1
f 33/81/25 34/82/25 35/83/25 36/84/25
f 37/85/26 38/86/26 39/87/26 40/88/26
f 35/89/27 34/82/27 38/90/27 37/91/27
f 39/92/28 33/93/28 36/94/28 40/88/28
f 38/95/29 34/82/29 33/96/29 39/97/29
f 36/98/30 35/99/30 37/100/30 40/88/30
o scannercustom5
v 0.000000 0.265625 0.289062
v 0.000000 0.296875 0.289062
v 0.000000 0.296875 0.250000
v 0.000000 0.265625 0.250000
v 0.070312 0.296875 0.250000
v 0.070312 0.296875 0.289062
v 0.070312 0.265625 0.289062
v 0.070312 0.265625 0.250000
vt 0.937500 0.062500
vt 0.937500 0.187500
vt 0.812500 0.187500
vt 0.812500 0.062500
vt 0.937500 0.062500
vt 0.937500 0.187500
vt 0.812500 0.187500
vt 0.812500 0.062500
vt 0.937500 0.062500
vt 0.812500 0.187500
vt 0.812500 0.062500
vt 0.937500 0.062500
vt 0.937500 0.187500
vt 0.812500 0.187500
vt 0.937500 0.062500
vt 0.812500 0.187500
vt 0.812500 0.062500
vt 0.937500 0.062500
vt 0.937500 0.187500
vt 0.812500 0.187500
vn -1.0000 0.0000 0.0000
vn 1.0000 0.0000 0.0000
vn 0.0000 1.0000 0.0000
vn 0.0000 -1.0000 0.0000
vn 0.0000 0.0000 1.0000
vn 0.0000 0.0000 -1.0000
usemtl m_f19bfa61-e2f5-33e2-b7b0-4d13ef8e8c63
s 1
f 41/101/31 42/102/31 43/103/31 44/104/31
f 45/105/32 46/106/32 47/107/32 48/108/32
f 43/109/33 42/102/33 46/110/33 45/111/33
f 47/112/34 41/113/34 44/114/34 48/108/34
f 46/115/35 42/102/35 41/116/35 47/117/35
f 44/118/36 43/119/36 45/120/36 48/108/36
o scannercustom3
v -0.070312 0.296875 0.250000
v -0.070312 0.296875 0.289062
v -0.070312 0.265625 0.289062
v -0.070312 0.265625 0.250000
v -0.140625 0.265625 0.289062
v -0.140625 0.296875 0.289062
v -0.140625 0.296875 0.250000
v -0.140625 0.265625 0.250000
vt 0.937500 0.062500
vt 0.937500 0.187500
vt 0.812500 0.187500
vt 0.812500 0.062500
vt 0.937500 0.062500
vt 0.937500 0.187500
vt 0.812500 0.187500
vt 0.812500 0.062500
vt 0.937500 0.062500
vt 0.812500 0.187500
vt 0.812500 0.062500
vt 0.937500 0.062500
vt 0.937500 0.187500
vt 0.812500 0.187500
vt 0.937500 0.062500
vt 0.812500 0.187500
vt 0.812500 0.062500
vt 0.937500 0.062500
vt 0.937500 0.187500
vt 0.812500 0.187500
vn 1.0000 0.0000 0.0000
vn -1.0000 0.0000 0.0000
vn 0.0000 1.0000 0.0000
vn 0.0000 -1.0000 0.0000
vn 0.0000 0.0000 1.0000
vn 0.0000 0.0000 -1.0000
usemtl m_f19bfa61-e2f5-33e2-b7b0-4d13ef8e8c63
s 1
f 49/121/37 50/122/37 51/123/37 52/124/37
f 53/125/38 54/126/38 55/127/38 56/128/38
f 54/129/39 50/122/39 49/130/39 55/131/39
f 52/132/40 51/133/40 53/134/40 56/128/40
f 51/135/41 50/122/41 54/136/41 53/137/41
f 55/138/42 49/139/42 52/140/42 56/128/42
o cube
v 0.281250 0.312500 0.250000
v 0.281250 0.296875 0.250000
v 0.281250 0.281250 0.187500
v 0.281250 0.312500 0.187500
v -0.281250 0.312500 0.187500
v -0.281250 0.281250 0.187500
v -0.281250 0.296875 0.250000
v -0.281250 0.312500 0.250000
v -0.140625 0.312500 0.250000
v 0.140625 0.312500 0.250000
v 0.140625 0.312500 0.187500
v -0.140625 0.312500 0.187500
v -0.140625 0.250000 0.187500
v 0.140625 0.250000 0.187500
v 0.140625 0.250000 0.250000
v -0.140625 0.250000 0.250000
v -0.140625 0.296875 0.281250
v 0.140625 0.296875 0.281250
v 0.140625 0.312500 0.289062
v -0.140625 0.312500 0.289062
v 0.140625 0.281250 0.187500
v -0.140625 0.281250 0.187500
v 0.140625 0.296875 0.250000
v -0.140625 0.296875 0.250000
v -0.281250 0.250000 0.250000
v -0.281250 0.250000 0.187500
v 0.281250 0.250000 0.187500
v 0.281250 0.250000 0.250000
v -0.281250 0.296875 0.265625
v -0.281250 0.312500 0.265625
v 0.281250 0.312500 0.265625
v 0.281250 0.296875 0.265625
v -0.210938 0.312500 0.281250
v -0.210938 0.296875 0.273438
v -0.210938 0.312500 0.250000
v -0.210938 0.312500 0.187500
v -0.210938 0.281250 0.187500
v -0.210938 0.250000 0.187500
v -0.210938 0.250000 0.250000
v -0.210938 0.296875 0.250000
v 0.210938 0.296875 0.273438
v 0.210938 0.312500 0.281250
v 0.210938 0.296875 0.250000
v 0.210938 0.250000 0.250000
v 0.210938 0.250000 0.187500
v 0.210938 0.281250 0.187500
v 0.210938 0.312500 0.187500
v 0.210938 0.312500 0.250000
v -0.281250 0.312500 0.265625
v -0.281250 0.265625 0.265625
v -0.281250 0.265625 0.187500
v -0.281250 0.312500 0.187500
v -0.296875 0.312500 0.187500
v -0.296875 0.265625 0.187500
v -0.296875 0.265625 0.250000
v -0.296875 0.312500 0.250000
v -0.281250 0.250000 0.187500
v -0.281250 0.250000 0.250000
v -0.296875 0.250000 0.242188
v -0.296875 0.250000 0.187500
v 0.281250 0.265625 0.187500
v 0.281250 0.265625 0.265625
v 0.281250 0.312500 0.265625
v 0.281250 0.312500 0.187500
v 0.296875 0.265625 0.250000
v 0.296875 0.265625 0.187500
v 0.296875 0.312500 0.187500
v 0.296875 0.312500 0.250000
v 0.296875 0.250000 0.242188
v 0.281250 0.250000 0.250000
v 0.281250 0.250000 0.187500
v 0.296875 0.250000 0.187500
vt 0.062500 1.000000
vt 0.062500 0.984375
vt 0.125000 0.968750
vt 0.125000 1.000000
vt 0.062500 1.000000
vt 0.062500 0.968750
vt 0.125000 0.984375
vt 0.125000 1.000000
vt 0.000000 0.875000
vt 0.281250 0.875000
vt 0.281250 0.937500
vt 0.000000 0.937500
vt 0.000000 0.875000
vt 0.281250 0.875000
vt 0.281250 0.937500
vt 0.000000 0.937500
vt 0.000000 0.982531
vt 0.281250 0.982531
vt 0.281250 1.000000
vt 0.000000 1.000000
vt 0.281250 1.000000
vt 0.000000 1.000000
vt 0.000000 0.968750
vt 0.281250 0.968750
vt 0.000000 0.890625
vt 0.281250 0.890625
vt 0.281250 0.937500
vt 0.000000 0.937500
vt 0.125000 0.890625
vt 0.125000 0.937500
vt 0.062500 0.921875
vt 0.062500 0.890625
vt 0.281250 0.937500
vt 0.000000 0.937500
vt 0.000000 0.906250
vt 0.281250 0.906250
vt 0.125000 0.890625
vt 0.125000 0.921875
vt 0.062500 0.937500
vt 0.062500 0.890625
vt 0.015625 0.984375
vt 0.015625 1.000000
vt 0.000000 1.000000
vt 0.000000 0.984375
vt 0.187500 0.968750
vt 0.468750 0.968750
vt 0.468750 1.000000
vt 0.187500 1.000000
vt 0.125000 1.000000
vt 0.125000 0.984375
vt 0.140625 0.984375
vt 0.140625 1.000000
vt 0.187500 0.960938
vt 0.468750 0.960938
vt 0.468750 1.000000
vt 0.187500 1.000000
vt 0.071606 0.937500
vt 0.000862 0.937500
vt 0.000000 0.920050
vt 0.070744 0.920050
vt 0.195312 1.000000
vt 0.125000 1.000000
vt 0.125000 0.968750
vt 0.195312 0.960938
vt 0.070312 0.937500
vt 0.000000 0.937500
vt 0.000000 0.875000
vt 0.070312 0.875000
vt 0.000000 0.968750
vt 0.070312 0.968750
vt 0.070312 1.000000
vt 0.000000 1.000000
vt 0.000000 0.906250
vt 0.070312 0.906250
vt 0.070312 0.937500
vt 0.000000 0.937500
vt 0.070312 0.937500
vt 0.000000 0.937500
vt 0.000000 0.875000
vt 0.070312 0.875000
vt 0.070312 0.937500
vt 0.000000 0.937500
vt 0.000000 0.890625
vt 0.070312 0.890625
vt 0.195312 1.000000
vt 0.125000 0.992188
vt 0.125000 0.968750
vt 0.195312 0.968750
vt 0.000862 0.920050
vt 0.071606 0.920050
vt 0.070744 0.937500
vt 0.000000 0.937500
vt 0.437500 0.968750
vt 0.507812 0.968750
vt 0.507812 0.992188
vt 0.437500 1.000000
vt 0.000000 0.890625
vt 0.070312 0.890625
vt 0.070312 0.937500
vt 0.000000 0.937500
vt 0.000000 0.875000
vt 0.070312 0.875000
vt 0.070312 0.937500
vt 0.000000 0.937500
vt 0.070312 0.937500
vt 0.000000 0.937500
vt 0.000000 0.906250
vt 0.070312 0.906250
vt 0.070312 1.000000
vt 0.000000 1.000000
vt 0.000000 0.968750
vt 0.070312 0.968750
vt 0.000000 0.875000
vt 0.070312 0.875000
vt 0.070312 0.937500
vt 0.000000 0.937500
vt 0.437500 0.960938
vt 0.507812 0.968750
vt 0.507812 1.000000
vt 0.437500 1.000000
vt 0.072025 0.937500
vt 0.000000 0.937500
vt 0.001694 0.920112
vt 0.072025 0.923456
vt 0.570312 0.929688
vt 0.500000 0.937500
vt 0.500000 0.914062
vt 0.570312 0.914062
vt 0.070312 0.937500
vt 0.000000 0.937500
vt 0.000000 0.890625
vt 0.070312 0.890625
vt 0.070312 0.937500
vt 0.000000 0.937500
vt 0.000000 0.875000
vt 0.070312 0.875000
vt 0.000000 0.906250
vt 0.070312 0.906250
vt 0.070312 0.937500
vt 0.000000 0.937500
vt 0.000000 0.968750
vt 0.070312 0.968750
vt 0.070312 1.000000
vt 0.000000 1.000000
vt 0.070312 0.937500
vt 0.000000 0.937500
vt 0.000000 0.875000
vt 0.070312 0.875000
vt 0.570312 1.000000
vt 0.500000 1.000000
vt 0.500000 0.968750
vt 0.570312 0.984375
vt 0.000000 0.982550
vt 0.070750 0.982550
vt 0.071612 1.000000
vt 0.000000 0.996544
vt 0.062500 0.984375
vt 0.132812 0.968750
vt 0.132812 1.000000
vt 0.062500 1.000000
vt 0.000000 0.875000
vt 0.070312 0.875000
vt 0.070312 0.937500
vt 0.000000 0.937500
vt 0.070312 1.000000
vt 0.000000 1.000000
vt 0.000000 0.968750
vt 0.070312 0.968750
vt 0.070312 0.937500
vt 0.000000 0.937500
vt 0.000000 0.906250
vt 0.070312 0.906250
vt 0.000000 0.875000
vt 0.070312 0.875000
vt 0.070312 0.937500
vt 0.000000 0.937500
vt 0.000000 0.890625
vt 0.070312 0.890625
vt 0.070312 0.937500
vt 0.000000 0.937500
vt 0.062500 0.914062
vt 0.132812 0.914062
vt 0.132812 0.937500
vt 0.062500 0.929688
vt 0.125000 1.000000
vt 0.125000 0.968750
vt 0.203125 0.968750
vt 0.203125 1.000000
vt 0.062500 1.000000
vt 0.062500 0.968750
vt 0.140625 0.968750
vt 0.140625 1.000000
vt 0.125000 0.859375
vt 0.140625 0.859375
vt 0.140625 0.937500
vt 0.125000 0.937500
vt 0.140625 0.796875
vt 0.140625 0.875000
vt 0.125000 0.875000
vt 0.125000 0.796875
vt 0.125000 1.000000
vt 0.125000 0.968750
vt 0.140625 0.968750
vt 0.140625 1.000000
vt 0.000000 1.000000
vt 0.000000 0.968750
vt 0.015625 0.968750
vt 0.015625 1.000000
vt 0.140625 0.937500
vt 0.125000 0.937500
vt 0.140625 0.937500
vt 0.062500 0.937500
vt 0.015625 0.937500
vt 0.000000 0.937500
vt 0.203125 0.937500
vt 0.125000 0.937500
vt 0.203125 0.968750
vt 0.125000 0.968750
vt 0.125000 1.000000
vt 0.203125 1.000000
vt 0.140625 0.968750
vt 0.062500 0.968750
vt 0.062500 1.000000
vt 0.140625 1.000000
vt 0.140625 0.937500
vt 0.140625 0.859375
vt 0.125000 0.859375
vt 0.125000 0.937500
vt 0.125000 0.875000
vt 0.140625 0.875000
vt 0.140625 0.796875
vt 0.125000 0.796875
vt 0.140625 0.968750
vt 0.125000 0.968750
vt 0.125000 1.000000
vt 0.140625 1.000000
vt 0.015625 0.968750
vt 0.000000 0.968750
vt 0.000000 1.000000
vt 0.015625 1.000000
vt 0.140625 0.937500
vt 0.125000 0.937500
vt 0.140625 0.937500
vt 0.062500 0.937500
vt 0.015625 0.937500
vt 0.000000 0.937500
vt 0.203125 0.937500
vt 0.125000 0.937500
vn 1.0000 0.0000 0.0000
vn -1.0000 0.0000 0.0000
vn 0.0000 1.0000 0.0000
vn 0.0000 -1.0000 0.0000
vn 0.0000 -0.4472 0.8944
vn 0.0000 0.0000 -1.0000
vn 0.0000 0.0000 1.0000
vn -0.0989 -0.4450 0.8901
vn -0.0989 -0.4450 0.8900
vn 0.0989 -0.4450 0.8901
vn 0.1950 -0.4386 0.8773
vn 0.1949 -0.4386 0.8773
vn -0.7071 0.0000 0.7071
vn -0.5773 -0.5773 0.5774
vn -0.5773 -0.5774 0.5773
vn 0.7071 0.0000 0.7071
vn 0.5773 -0.5773 0.5774
vn 0.5774 -0.5773 0.5773
usemtl m_f19bfa61-e2f5-33e2-b7b0-4d13ef8e8c63
s 1
f 57/141/43 58/142/43 59/143/43 60/144/43
f 61/145/44 62/146/44 63/147/44 64/148/44
f 65/149/45 66/150/45 67/151/45 68/152/45
f 69/153/46 70/154/46 71/155/46 72/156/46
f 73/157/47 74/158/47 75/159/47 76/160/47
f 68/161/48 67/162/48 77/163/48 78/164/48
f 72/165/49 71/166/49 79/167/49 80/168/49
f 81/169/44 63/170/44 62/171/44 82/172/44
f 78/173/48 77/174/48 70/175/48 69/176/48
f 83/177/43 59/178/43 58/179/43 84/180/43
f 85/181/44 86/182/44 64/183/44 63/184/44
f 80/185/46 79/186/46 74/187/46 73/188/46
f 87/189/43 88/190/43 58/191/43 57/192/43
f 76/193/45 75/194/45 66/195/45 65/196/45
f 76/197/50 89/198/51 90/199/51 73/200/50
f 65/201/45 91/202/45 89/203/45 76/204/45
f 68/205/45 92/206/45 91/207/45 65/208/45
f 78/209/48 93/210/48 92/211/48 68/212/48
f 69/213/48 94/214/48 93/215/48 78/216/48
f 72/217/46 95/218/46 94/219/46 69/220/46
f 80/221/49 96/222/49 95/223/49 72/224/49
f 73/225/46 90/226/46 96/227/46 80/228/46
f 74/229/52 97/230/52 98/231/52 75/232/52
f 79/233/46 99/234/46 97/235/46 74/236/46
f 71/237/49 100/238/49 99/239/49 79/240/49
f 70/241/46 101/242/46 100/243/46 71/244/46
f 77/245/48 102/246/48 101/247/48 70/248/48
f 67/249/48 103/250/48 102/251/48 77/252/48
f 66/253/45 104/254/45 103/255/45 67/256/45
f 75/257/45 98/258/45 104/259/45 66/260/45
f 87/261/53 98/262/54 97/263/53 88/264/54
f 88/265/46 97/266/46 99/267/46 58/268/46
f 58/269/49 99/270/49 100/271/49 84/272/49
f 84/273/46 100/274/46 101/275/46 83/276/46
f 83/277/48 101/278/48 102/279/48 59/280/48
f 59/281/48 102/282/48 103/283/48 60/284/48
f 60/285/45 103/286/45 104/287/45 57/288/45
f 57/289/45 104/290/45 98/291/45 87/292/45
f 85/293/51 90/294/51 89/295/51 86/296/51
f 86/297/45 89/298/45 91/299/45 64/300/45
f 64/301/45 91/302/45 92/303/45 61/304/45
f 61/305/48 92/306/48 93/307/48 62/308/48
f 62/309/48 93/310/48 94/311/48 82/312/48
f 82/313/46 94/314/46 95/315/46 81/316/46
f 81/317/49 95/318/49 96/319/49 63/320/49
f 63/321/46 96/322/46 90/323/46 85/324/46
f 105/325/43 106/326/43 107/327/43 108/328/43
f 109/329/44 110/330/44 111/331/44 112/332/44
f 112/333/45 105/334/45 108/335/45 109/336/45
f 113/337/46 114/338/46 115/339/46 116/340/46
f 112/341/55 111/342/55 106/343/55 105/344/55
f 108/345/48 107/346/48 110/347/48 109/348/48
f 114/349/56 106/343/56 111/342/56 115/350/57
f 115/351/44 111/331/44 110/330/44 116/352/44
f 116/353/48 110/347/48 107/346/48 113/354/48
f 113/355/43 107/327/43 106/326/43 114/356/43
f 117/357/44 118/358/44 119/359/44 120/360/44
f 121/361/43 122/362/43 123/363/43 124/364/43
f 120/365/45 119/366/45 124/367/45 123/368/45
f 125/369/46 126/370/46 127/371/46 128/372/46
f 118/373/58 121/374/58 124/375/58 119/376/58
f 122/377/48 117/378/48 120/379/48 123/380/48
f 121/374/59 118/373/59 126/381/59 125/382/60
f 122/362/43 121/361/43 125/383/43 128/384/43
f 117/378/48 122/377/48 128/385/48 127/386/48
f 118/358/44 117/357/44 127/387/44 126/388/44
o scannercustom2
v -0.140625 0.296875 0.250000
v -0.140625 0.296875 0.289062
v -0.140625 0.265625 0.289062
v -0.140625 0.265625 0.250000
v -0.210938 0.265625 0.281250
v -0.210938 0.296875 0.281250
v -0.210938 0.296875 0.250000
v -0.210938 0.265625 0.250000
vt 0.937500 0.062500
vt 0.937500 0.187500
vt 0.812500 0.187500
vt 0.812500 0.062500
vt 0.937500 0.062500
vt 0.937500 0.187500
vt 0.812500 0.187500
vt 0.812500 0.062500
vt 0.937500 0.062500
vt 0.812500 0.187500
vt 0.812500 0.062500
vt 0.937500 0.062500
vt 0.937500 0.187500
vt 0.812500 0.187500
vt 0.937500 0.062500
vt 0.812500 0.187500
vt 0.812500 0.062500
vt 0.937500 0.062500
vt 0.937500 0.187500
vt 0.812500 0.187500
vn 1.0000 0.0000 0.0000
vn -1.0000 0.0000 0.0000
vn 0.0000 1.0000 0.0000
vn 0.0000 -1.0000 0.0000
vn -0.1104 0.0000 0.9939
vn 0.0000 0.0000 -1.0000
usemtl m_f19bfa61-e2f5-33e2-b7b0-4d13ef8e8c63
s 1
f 129/389/61 130/390/61 131/391/61 132/392/61
f 133/393/62 134/394/62 135/395/62 136/396/62
f 134/397/63 130/390/63 129/398/63 135/399/63
f 132/400/64 131/401/64 133/402/64 136/396/64
f 131/403/65 130/390/65 134/404/65 133/405/65
f 135/406/66 129/407/66 132/408/66 136/396/66
o scannercustom1
v -0.210938 0.296875 0.250000
v -0.210938 0.296875 0.281250
v -0.210938 0.265625 0.281250
v -0.210938 0.265625 0.250000
v -0.281250 0.265625 0.265625
v -0.281250 0.296875 0.265625
v -0.281250 0.296875 0.250000
v -0.281250 0.265625 0.250000
vt 0.937500 0.062500
vt 0.937500 0.187500
vt 0.812500 0.187500
vt 0.812500 0.062500
vt 0.937500 0.062500
vt 0.937500 0.187500
vt 0.812500 0.187500
vt 0.812500 0.062500
vt 0.937500 0.062500
vt 0.812500 0.187500
vt 0.812500 0.062500
vt 0.937500 0.062500
vt 0.937500 0.187500
vt 0.812500 0.187500
vt 0.937500 0.062500
vt 0.812500 0.187500
vt 0.812500 0.062500
vt 0.937500 0.062500
vt 0.937500 0.187500
vt 0.812500 0.187500
vn 1.0000 0.0000 0.0000
vn -1.0000 0.0000 0.0000
vn 0.0000 1.0000 0.0000
vn 0.0000 -1.0000 0.0000
vn -0.2169 0.0000 0.9762
vn 0.0000 0.0000 -1.0000
usemtl m_f19bfa61-e2f5-33e2-b7b0-4d13ef8e8c63
s 1
f 137/409/67 138/410/67 139/411/67 140/412/67
f 141/413/68 142/414/68 143/415/68 144/416/68
f 142/417/69 138/410/69 137/418/69 143/419/69
f 140/420/70 139/421/70 141/422/70 144/416/70
f 139/423/71 138/410/71 142/424/71 141/425/71
f 143/426/72 137/427/72 140/428/72 144/416/72
