# Blender v2.79 (sub 0) OBJ File: ''
# www.blender.org
mtllib silencer.mtl
o cube
v 0.031250 0.031250 0.000000
v 0.031250 0.031250 0.250000
v 0.031250 -0.031250 0.250000
v 0.031250 -0.031250 -0.000000
v -0.031250 -0.031250 0.250000
v -0.031250 0.031250 0.250000
v -0.031250 0.031250 0.000000
v -0.031250 -0.031250 -0.000000
v 0.023438 -0.023438 0.242188
v 0.023438 0.023437 0.242188
v -0.023438 0.023437 0.242188
v -0.023438 -0.023438 0.242188
v -0.023125 0.023125 0.007813
v 0.023125 0.023125 0.007813
v 0.023125 -0.023125 0.007812
v -0.023125 -0.023125 0.007812
vt 0.250000 1.000000
vt 0.000000 1.000000
vt 0.000000 0.937500
vt 0.250000 0.937500
vt 0.250000 0.937500
vt 0.250000 1.000000
vt 0.000000 1.000000
vt 0.000000 0.937500
vt 0.062500 0.750000
vt 0.125000 0.750000
vt 0.125000 1.000000
vt 0.062500 1.000000
vt 0.125000 0.750000
vt 0.125000 1.000000
vt 0.062500 1.000000
vt 0.062500 0.750000
vt 0.734375 0.140625
vt 0.734375 0.187500
vt 0.687500 0.187500
vt 0.687500 0.140625
vt 0.733750 0.187500
vt 0.687500 0.187500
vt 0.687500 0.141250
vt 0.733750 0.141250
vt 0.000000 0.992188
vt 0.000000 0.945312
vt 0.011050 0.937500
vt 0.011050 1.000000
vt 0.007812 0.988950
vt 0.054688 0.988950
vt 0.062500 1.000000
vt 0.000000 1.000000
vt 0.073550 0.945312
vt 0.073550 0.992188
vt 0.062500 1.000000
vt 0.062500 0.937500
vt 0.054688 1.000000
vt 0.007812 1.000000
vt 0.000000 0.988950
vt 0.062500 0.988950
vt 0.008125 0.988725
vt 0.054375 0.988725
vt 0.000000 1.000000
vt 0.073769 0.945625
vt 0.073769 0.991875
vt 0.062500 1.000000
vt 0.062500 0.937500
vt 0.054375 1.000000
vt 0.008125 1.000000
vt 0.000000 0.988731
vt 0.062500 0.988731
vt 0.000000 0.991875
vt 0.000000 0.945625
vt 0.011269 0.937500
vt 0.011269 1.000000
vn 1.0000 0.0000 0.0000
vn -1.0000 -0.0000 0.0000
vn 0.0000 1.0000 0.0000
vn 0.0000 -1.0000 -0.0000
vn 0.0000 0.0000 1.0000
vn 0.0000 0.0000 -1.0000
vn -0.7071 0.0000 0.7071
vn 0.0000 -0.7071 0.7071
vn 0.7071 0.0000 0.7071
vn 0.0000 0.7071 0.7071
vn 0.0000 -0.6931 -0.7208
vn -0.6931 0.0000 -0.7208
vn 0.0000 0.6931 -0.7208
vn 0.6931 0.0000 -0.7208
usemtl m_0
s 1
f 1/1/1 2/2/1 3/3/1 4/4/1
f 5/5/2 6/6/2 7/7/2 8/8/2
f 6/9/3 2/10/3 1/11/3 7/12/3
f 4/13/4 3/14/4 5/15/4 8/16/4
f 9/17/5 10/18/5 11/19/5 12/20/5
f 13/21/6 14/22/6 15/23/6 16/24/6
f 10/25/7 9/26/7 3/27/7 2/28/7
f 11/29/8 10/30/8 2/31/8 6/32/8
f 12/33/9 11/34/9 6/35/9 5/36/9
f 9/37/10 12/38/10 5/39/10 3/40/10
f 14/41/11 13/42/11 7/12/11 1/43/11
f 15/44/12 14/45/12 1/46/12 4/47/12
f 16/48/13 15/49/13 4/50/13 8/51/13
f 13/52/14 16/53/14 8/54/14 7/55/14
o hexagon
v 0.020297 0.011719 0.242188
v 0.000000 0.023437 0.242188
v 0.000000 -0.000000 0.242188
v 0.000000 0.031250 0.250000
v 0.027063 0.015625 0.250000
v 0.027063 0.015625 0.000000
v 0.000000 0.031250 0.000000
v 0.000000 0.023438 0.007813
v 0.020297 0.011719 0.007813
v 0.000000 -0.000000 0.007812
v 0.020297 -0.011719 0.242188
v 0.027063 -0.015625 0.250000
v 0.027063 -0.015625 -0.000000
v 0.020297 -0.011719 0.007812
v 0.000000 -0.023438 0.242188
v 0.000000 -0.031250 0.250000
v 0.000000 -0.031250 -0.000000
v 0.000000 -0.023438 0.007812
v -0.020297 -0.011719 0.242188
v -0.027063 -0.015625 0.250000
v -0.027063 -0.015625 -0.000000
v -0.020297 -0.011719 0.007812
v -0.020297 0.011719 0.242188
v -0.027063 0.015625 0.250000
v -0.027063 0.015625 0.000000
v -0.020297 0.011719 0.007813
vt 0.770300 0.238281
vt 0.750000 0.250000
vt 0.750000 0.226562
vt 0.000000 0.750000
vt 0.031250 0.750000
vt 0.031250 1.000000
vt 0.000000 1.000000
vt 0.750000 0.164062
vt 0.770300 0.175781
vt 0.750000 0.187500
vt 0.770300 0.226562
vt 0.770300 0.250000
vt 0.750000 0.238281
vt 0.000000 0.750000
vt 0.031250 0.750000
vt 0.031250 1.000000
vt 0.000000 1.000000
vt 0.770300 0.164062
vt 0.770300 0.187500
vt 0.750000 0.175781
vt 0.750000 0.226562
vt 0.770300 0.238281
vt 0.750000 0.250000
vt 0.000000 0.750000
vt 0.031250 0.750000
vt 0.031250 1.000000
vt 0.000000 1.000000
vt 0.770300 0.175781
vt 0.750000 0.187500
vt 0.750000 0.164062
vt 0.750000 0.238281
vt 0.770300 0.226562
vt 0.770300 0.250000
vt 0.062500 0.750000
vt 0.093750 0.750000
vt 0.093750 1.000000
vt 0.062500 1.000000
vt 0.770300 0.187500
vt 0.750000 0.175781
vt 0.770300 0.164062
vt 0.750000 0.250000
vt 0.750000 0.226562
vt 0.770300 0.238281
vt 0.062500 0.750000
vt 0.093750 0.750000
vt 0.093750 1.000000
vt 0.062500 1.000000
vt 0.750000 0.187500
vt 0.750000 0.164062
vt 0.770300 0.175781
vt 0.770300 0.250000
vt 0.750000 0.238281
vt 0.770300 0.226562
vt 0.062500 0.750000
vt 0.093750 0.750000
vt 0.093750 1.000000
vt 0.062500 1.000000
vt 0.750000 0.175781
vt 0.770300 0.164062
vt 0.770300 0.187500
vt 0.027344 1.000000
vt 0.003906 1.000000
vt 0.000000 0.989663
vt 0.031250 0.989663
vt 0.089844 1.000000
vt 0.066406 1.000000
vt 0.062500 0.989669
vt 0.093750 0.989669
vt 0.027344 1.000000
vt 0.003906 1.000000
vt 0.000000 0.989663
vt 0.031250 0.989663
vt 0.027344 1.000000
vt 0.003906 1.000000
vt 0.000000 0.989663
vt 0.031250 0.989663
vt 0.027344 1.000000
vt 0.003906 1.000000
vt 0.000000 0.989669
vt 0.031250 0.989669
vt 0.027344 1.000000
vt 0.003906 1.000000
vt 0.000000 0.989663
vt 0.031250 0.989663
vt 0.003906 0.927163
vt 0.027344 0.927163
vt 0.031250 0.937500
vt 0.000000 0.937500
vt 0.066406 0.927169
vt 0.089844 0.927169
vt 0.093750 0.937500
vt 0.062500 0.937500
vt 0.003906 0.989663
vt 0.027344 0.989663
vt 0.000000 1.000000
vt 0.003906 0.989663
vt 0.027344 0.989663
vt 0.000000 1.000000
vt 0.003906 0.927169
vt 0.027344 0.927169
vt 0.031250 0.937500
vt 0.000000 0.937500
vt 0.003906 0.927163
vt 0.027344 0.927163
vt 0.031250 0.937500
vt 0.000000 0.937500
vn 0.0000 0.0000 1.0000
vn 0.5000 0.8660 0.0000
vn 0.0000 0.0000 -1.0000
vn 1.0000 -0.0000 0.0000
vn 0.5000 -0.8660 -0.0000
vn -0.5000 -0.8660 -0.0000
vn -1.0000 -0.0000 0.0000
vn -0.5000 0.8660 0.0000
vn -0.3780 -0.6547 0.6547
vn -0.7559 0.0000 0.6547
vn -0.3780 0.6547 0.6547
vn 0.3780 0.6547 0.6547
vn 0.7559 0.0000 0.6547
vn 0.3780 -0.6547 0.6547
vn -0.3780 -0.6547 -0.6547
vn -0.7559 0.0000 -0.6547
vn -0.3780 0.6547 -0.6547
vn 0.3780 0.6547 -0.6547
vn 0.7559 0.0000 -0.6547
vn 0.3780 -0.6547 -0.6547
usemtl m_0
s 1
f 17/56/15 18/57/15 19/58/15
f 20/59/16 21/60/16 22/61/16 23/62/16
f 24/63/17 25/64/17 26/65/17
f 27/66/15 17/67/15 19/68/15
f 21/69/18 28/70/18 29/71/18 22/72/18
f 25/73/17 30/74/17 26/75/17
f 31/76/15 27/77/15 19/78/15
f 28/79/19 32/80/19 33/81/19 29/82/19
f 30/83/17 34/84/17 26/85/17
f 35/86/15 31/87/15 19/88/15
f 32/89/20 36/90/20 37/91/20 33/92/20
f 34/93/17 38/94/17 26/95/17
f 39/96/15 35/97/15 19/98/15
f 36/99/21 40/100/21 41/101/21 37/102/21
f 38/103/17 42/104/17 26/105/17
f 18/106/15 39/107/15 19/108/15
f 40/109/22 20/110/22 23/111/22 41/112/22
f 42/113/17 24/114/17 26/115/17
f 18/116/23 17/117/23 21/118/23 20/119/23
f 17/120/24 27/121/24 28/122/24 21/123/24
f 27/124/25 31/125/25 32/126/25 28/127/25
f 31/128/26 35/129/26 36/130/26 32/131/26
f 35/132/27 39/133/27 40/134/27 36/135/27
f 39/136/28 18/137/28 20/138/28 40/139/28
f 25/140/29 24/141/29 23/142/29 22/143/29
f 30/144/30 25/145/30 22/146/30 29/147/30
f 34/148/31 30/149/31 29/71/31 33/150/31
f 38/151/32 34/152/32 33/81/32 37/153/32
f 42/154/33 38/155/33 37/156/33 41/157/33
f 24/158/34 42/159/34 41/160/34 23/161/34
o cylinder
v 0.011719 -0.020297 0.007812
v 0.000000 -0.023438 0.007812
v 0.000000 -0.000000 0.007812
v 0.000000 -0.031250 -0.000000
v 0.015625 -0.027063 -0.000000
v 0.015625 -0.027063 0.250000
v 0.000000 -0.031250 0.250000
v 0.000000 -0.023438 0.242188
v 0.011719 -0.020297 0.242188
v 0.000000 -0.000000 0.242188
v 0.020297 -0.011719 0.007812
v 0.027063 -0.015625 -0.000000
v 0.027063 -0.015625 0.250000
v 0.020297 -0.011719 0.242188
v 0.023438 -0.000000 0.007812
v 0.031250 -0.000000 -0.000000
v 0.031250 -0.000000 0.250000
v 0.023438 -0.000000 0.242188
v 0.020297 0.011719 0.007813
v 0.027063 0.015625 0.000000
v 0.027063 0.015625 0.250000
v 0.020297 0.011719 0.242188
v 0.011719 0.020297 0.007813
v 0.015625 0.027063 0.000000
v 0.015625 0.027063 0.250000
v 0.011719 0.020297 0.242188
v 0.000000 0.023438 0.007813
v 0.000000 0.031250 0.000000
v 0.000000 0.031250 0.250000
v 0.000000 0.023437 0.242188
v -0.011719 0.020297 0.007813
v -0.015625 0.027063 0.000000
v -0.015625 0.027063 0.250000
v -0.011719 0.020297 0.242188
v -0.020297 0.011719 0.007813
v -0.027063 0.015625 0.000000
v -0.027063 0.015625 0.250000
v -0.020297 0.011719 0.242188
v -0.023438 -0.000000 0.007812
v -0.031250 0.000000 0.000000
v -0.031250 -0.000000 0.250000
v -0.023438 -0.000000 0.242188
v -0.020297 -0.011719 0.007812
v -0.027063 -0.015625 -0.000000
v -0.027063 -0.015625 0.250000
v -0.020297 -0.011719 0.242188
v -0.011719 -0.020297 0.007812
v -0.015625 -0.027063 -0.000000
v -0.015625 -0.027063 0.250000
v -0.011719 -0.020297 0.242188
vt 0.699219 0.434363
vt 0.687500 0.437500
vt 0.687500 0.414062
vt 0.000000 0.750000
vt 0.016175 0.750000
vt 0.016175 1.000000
vt 0.000000 1.000000
vt 0.625000 0.414062
vt 0.636719 0.417200
vt 0.625000 0.437500
vt 0.710940 0.425778
vt 0.707798 0.437500
vt 0.687500 0.425778
vt 0.000000 0.750000
vt 0.016175 0.750000
vt 0.016175 1.000000
vt 0.000000 1.000000
vt 0.625000 0.414060
vt 0.636722 0.417202
vt 0.710938 0.425781
vt 0.707800 0.437500
vt 0.000000 0.750000
vt 0.016175 0.750000
vt 0.016175 1.000000
vt 0.000000 1.000000
vt 0.645300 0.425781
vt 0.648438 0.437500
vt 0.707800 0.425781
vt 0.710938 0.437500
vt 0.687500 0.437500
vt 0.000000 0.750000
vt 0.016175 0.750000
vt 0.016175 1.000000
vt 0.000000 1.000000
vt 0.648438 0.425781
vt 0.645300 0.437500
vt 0.625000 0.425781
vt 0.687500 0.414060
vt 0.699222 0.417202
vt 0.000000 0.750000
vt 0.016175 0.750000
vt 0.016175 1.000000
vt 0.000000 1.000000
vt 0.648440 0.425778
vt 0.645298 0.437500
vt 0.687500 0.414062
vt 0.699219 0.417200
vt 0.000000 0.750000
vt 0.016175 0.750000
vt 0.016175 1.000000
vt 0.000000 1.000000
vt 0.636719 0.434363
vt 0.625000 0.437500
vt 0.625000 0.414062
vt 0.687500 0.417200
vt 0.699219 0.414062
vt 0.699219 0.437500
vt 0.000000 0.750000
vt 0.016175 0.750000
vt 0.016175 1.000000
vt 0.000000 1.000000
vt 0.636719 0.437500
vt 0.625000 0.434363
vt 0.636719 0.414062
vt 0.687500 0.437500
vt 0.690642 0.425778
vt 0.710940 0.437500
vt 0.000000 0.750000
vt 0.016175 0.750000
vt 0.016175 1.000000
vt 0.000000 1.000000
vt 0.636722 0.437500
vt 0.625000 0.434358
vt 0.687500 0.437500
vt 0.690638 0.425781
vt 0.000000 0.750000
vt 0.016175 0.750000
vt 0.016175 1.000000
vt 0.000000 1.000000
vt 0.628138 0.437500
vt 0.625000 0.425781
vt 0.648438 0.425781
vt 0.690638 0.437500
vt 0.687500 0.425781
vt 0.710938 0.425781
vt 0.000000 0.750000
vt 0.016175 0.750000
vt 0.016175 1.000000
vt 0.000000 1.000000
vt 0.625000 0.437500
vt 0.628138 0.425781
vt 0.648438 0.437500
vt 0.699222 0.437500
vt 0.687500 0.434358
vt 0.699222 0.414060
vt 0.000000 0.750000
vt 0.016175 0.750000
vt 0.016175 1.000000
vt 0.000000 1.000000
vt 0.625000 0.437500
vt 0.628142 0.425778
vt 0.699219 0.437500
vt 0.687500 0.434363
vt 0.000000 0.750000
vt 0.016175 0.750000
vt 0.016175 1.000000
vt 0.000000 1.000000
vt 0.625000 0.417200
vt 0.636719 0.414062
vt 0.636719 0.437500
vt 0.002019 0.989137
vt 0.014156 0.989137
vt 0.002019 0.989137
vt 0.014156 0.989137
vt 0.002019 0.989137
vt 0.014156 0.989137
vt 0.002019 0.989137
vt 0.014156 0.989137
vt 0.002019 0.989137
vt 0.014156 0.989137
vt 0.002019 0.989137
vt 0.014156 0.989137
vt 0.002019 0.989137
vt 0.014156 0.989137
vt 0.002019 0.989137
vt 0.014156 0.989137
vt 0.002019 0.989137
vt 0.014156 0.989137
vt 0.002019 0.989137
vt 0.014156 0.989137
vt 0.002019 0.989137
vt 0.014156 0.989137
vt 0.002019 0.989137
vt 0.014156 0.989137
vt 0.014156 1.000000
vt 0.002019 1.000000
vt 0.000000 0.989137
vt 0.016175 0.989137
vt 0.014156 1.000000
vt 0.002019 1.000000
vt 0.000000 0.989137
vt 0.016175 0.989137
vt 0.014156 1.000000
vt 0.002019 1.000000
vt 0.000000 0.989137
vt 0.016175 0.989137
vt 0.014156 1.000000
vt 0.002019 1.000000
vt 0.000000 0.989137
vt 0.016175 0.989137
vt 0.014156 1.000000
vt 0.002019 1.000000
vt 0.000000 0.989137
vt 0.016175 0.989137
vt 0.014156 1.000000
vt 0.002019 1.000000
vt 0.000000 0.989137
vt 0.016175 0.989137
vt 0.014156 1.000000
vt 0.002019 1.000000
vt 0.000000 0.989137
vt 0.016175 0.989137
vt 0.014156 1.000000
vt 0.002019 1.000000
vt 0.000000 0.989137
vt 0.016175 0.989137
vt 0.014156 1.000000
vt 0.002019 1.000000
vt 0.000000 0.989137
vt 0.016175 0.989137
vt 0.014156 1.000000
vt 0.002019 1.000000
vt 0.000000 0.989137
vt 0.016175 0.989137
vt 0.014156 1.000000
vt 0.002019 1.000000
vt 0.000000 0.989137
vt 0.016175 0.989137
vt 0.014156 1.000000
vt 0.002019 1.000000
vt 0.000000 0.989137
vt 0.016175 0.989137
vn 0.0000 0.0000 -1.0000
vn 0.2588 -0.9659 -0.0000
vn 0.0000 0.0000 1.0000
vn 0.7071 -0.7071 -0.0000
vn 0.9659 -0.2588 -0.0000
vn 0.9659 0.2588 0.0000
vn 0.7071 0.7071 0.0000
vn 0.2588 0.9659 0.0000
vn -0.2588 0.9659 0.0000
vn -0.7071 0.7071 0.0000
vn -0.9659 0.2588 0.0000
vn -0.9659 -0.2588 -0.0000
vn -0.7071 -0.7071 -0.0000
vn -0.2588 -0.9659 -0.0000
vn -0.1862 0.6947 0.6947
vn -0.5086 0.5086 0.6947
vn -0.6947 0.1862 0.6947
vn -0.6947 -0.1862 0.6947
vn -0.5086 -0.5086 0.6947
vn -0.1862 -0.6947 0.6947
vn 0.1862 -0.6947 0.6947
vn 0.5086 -0.5086 0.6947
vn 0.6947 -0.1862 0.6947
vn 0.6947 0.1862 0.6947
vn 0.5086 0.5086 0.6947
vn 0.1862 0.6947 0.6947
vn -0.1862 0.6947 -0.6947
vn -0.5086 0.5086 -0.6947
vn -0.6947 0.1862 -0.6947
vn -0.6947 -0.1862 -0.6947
vn -0.5086 -0.5086 -0.6947
vn -0.1862 -0.6947 -0.6947
vn 0.1862 -0.6947 -0.6947
vn 0.5086 -0.5086 -0.6947
vn 0.6947 -0.1862 -0.6947
vn 0.6947 0.1862 -0.6947
vn 0.5086 0.5086 -0.6947
vn 0.1862 0.6947 -0.6947
usemtl m_0
s 1
f 43/162/35 44/163/35 45/164/35
f 46/165/36 47/166/36 48/167/36 49/168/36
f 50/169/37 51/170/37 52/171/37
f 53/172/35 43/173/35 45/174/35
f 47/175/38 54/176/38 55/177/38 48/178/38
f 51/179/37 56/180/37 52/171/37
f 57/181/35 53/182/35 45/174/35
f 54/183/39 58/184/39 59/185/39 55/186/39
f 56/187/37 60/188/37 52/171/37
f 61/189/35 57/190/35 45/191/35
f 58/192/40 62/193/40 63/194/40 59/195/40
f 60/196/37 64/197/37 52/198/37
f 65/199/35 61/200/35 45/191/35
f 62/201/41 66/202/41 67/203/41 63/204/41
f 64/205/37 68/206/37 52/198/37
f 69/207/35 65/208/35 45/191/35
f 66/209/42 70/210/42 71/211/42 67/212/42
f 68/213/37 72/214/37 52/215/37
f 73/216/35 69/217/35 45/218/35
f 70/219/43 74/220/43 75/221/43 71/222/43
f 72/223/37 76/224/37 52/225/37
f 77/226/35 73/227/35 45/228/35
f 74/229/44 78/230/44 79/231/44 75/232/44
f 76/233/37 80/234/37 52/225/37
f 81/235/35 77/236/35 45/228/35
f 78/237/45 82/238/45 83/239/45 79/240/45
f 80/241/37 84/242/37 52/243/37
f 85/244/35 81/245/35 45/246/35
f 82/247/46 86/248/46 87/249/46 83/250/46
f 84/251/37 88/252/37 52/253/37
f 89/254/35 85/255/35 45/256/35
f 86/257/47 90/258/47 91/259/47 87/260/47
f 88/261/37 92/262/37 52/253/37
f 44/263/35 89/264/35 45/256/35
f 90/265/48 46/266/48 49/267/48 91/268/48
f 92/269/37 50/270/37 52/271/37
f 51/272/49 50/273/49 49/267/49 48/178/49
f 56/274/50 51/275/50 48/167/50 55/186/50
f 60/276/51 56/277/51 55/177/51 59/195/51
f 64/278/52 60/279/52 59/185/52 63/204/52
f 68/280/53 64/281/53 63/194/53 67/212/53
f 72/282/54 68/283/54 67/203/54 71/222/54
f 76/284/55 72/285/55 71/211/55 75/232/55
f 80/286/56 76/287/56 75/221/56 79/240/56
f 84/288/57 80/289/57 79/231/57 83/250/57
f 88/290/58 84/291/58 83/239/58 87/260/58
f 92/292/59 88/293/59 87/249/59 91/268/59
f 50/294/60 92/295/60 91/259/60 49/168/60
f 44/296/61 43/297/61 47/298/61 46/299/61
f 43/300/62 53/301/62 54/302/62 47/303/62
f 53/304/63 57/305/63 58/306/63 54/307/63
f 57/308/64 61/309/64 62/310/64 58/311/64
f 61/312/65 65/313/65 66/314/65 62/315/65
f 65/316/66 69/317/66 70/318/66 66/319/66
f 69/320/67 73/321/67 74/322/67 70/323/67
f 73/324/68 77/325/68 78/326/68 74/327/68
f 77/328/69 81/329/69 82/330/69 78/331/69
f 81/332/70 85/333/70 86/334/70 82/335/70
f 85/336/71 89/337/71 90/338/71 86/339/71
f 89/340/72 44/341/72 46/342/72 90/343/72
