# Blender v2.79 (sub 0) OBJ File: ''
# www.blender.org
mtllib siren.mtl
o cuboid
v 0.093750 0.187500 -0.125000
v 0.093750 0.187500 0.062500
v 0.093750 -0.000000 0.062500
v 0.093750 0.000000 -0.125000
v -0.093750 -0.000000 0.062500
v -0.093750 0.187500 0.062500
v -0.093750 0.187500 -0.125000
v -0.093750 0.000000 -0.125000
v 0.109375 0.203125 0.062500
v 0.125000 0.218750 0.125000
v 0.125000 -0.031250 0.125000
v 0.109375 -0.015625 0.062500
v -0.125000 -0.031250 0.125000
v -0.125000 0.218750 0.125000
v -0.109375 0.203125 0.062500
v -0.109375 -0.015625 0.062500
v 0.031250 0.125000 -0.156250
v 0.062500 0.156250 -0.125000
v 0.062500 0.031250 -0.125000
v 0.031250 0.062500 -0.156250
v -0.062500 0.031250 -0.125000
v -0.062500 0.156250 -0.125000
v -0.031250 0.125000 -0.156250
v -0.031250 0.062500 -0.156250
vt 0.187500 0.562500
vt 0.000000 0.562500
vt 0.000000 0.375000
vt 0.187500 0.375000
vt 0.437500 0.375000
vt 0.437500 0.562500
vt 0.250000 0.562500
vt 0.250000 0.375000
vt 0.250000 0.125000
vt 0.437500 0.125000
vt 0.437500 0.312500
vt 0.250000 0.312500
vt 0.687500 0.375000
vt 0.687500 0.562500
vt 0.500000 0.562500
vt 0.500000 0.375000
vt 0.687500 0.125000
vt 0.687500 0.312500
vt 0.500000 0.312500
vt 0.500000 0.125000
vt 0.187500 0.312500
vt 0.000000 0.312500
vt 0.000000 0.125000
vt 0.187500 0.125000
vt 0.687500 1.000000
vt 0.625000 1.000000
vt 0.625000 0.750000
vt 0.687500 0.750000
vt 0.812500 0.750000
vt 0.812500 1.000000
vt 0.750000 1.000000
vt 0.750000 0.750000
vt 0.312500 0.625000
vt 0.562500 0.625000
vt 0.562500 0.687500
vt 0.312500 0.687500
vt 0.250000 0.625000
vt 0.250000 0.687500
vt 0.000000 0.687500
vt 0.000000 0.625000
vt 0.250000 0.750000
vt 0.250000 1.000000
vt 0.000000 1.000000
vt 0.000000 0.750000
vt 0.562500 1.000000
vt 0.312500 1.000000
vt 0.312500 0.750000
vt 0.562500 0.750000
vt 0.937500 1.000000
vt 0.875000 1.000000
vt 0.875000 0.875000
vt 0.937500 0.875000
vt 0.937500 0.687500
vt 0.937500 0.812500
vt 0.875000 0.812500
vt 0.875000 0.687500
vt 0.812500 0.187500
vt 0.937500 0.187500
vt 0.937500 0.250000
vt 0.812500 0.250000
vt 0.937500 0.062500
vt 0.937500 0.125000
vt 0.812500 0.125000
vt 0.812500 0.062500
vt 0.937500 0.312500
vt 0.937500 0.437500
vt 0.812500 0.437500
vt 0.812500 0.312500
vt 0.937500 0.625000
vt 0.812500 0.625000
vt 0.812500 0.500000
vt 0.937500 0.500000
vn 1.0000 0.0000 0.0000
vn -1.0000 -0.0000 0.0000
vn 0.0000 1.0000 0.0000
vn 0.0000 -1.0000 -0.0000
vn 0.0000 -0.0000 1.0000
vn 0.0000 0.0000 -1.0000
vn 0.9701 0.0000 -0.2425
vn -0.9701 0.0000 -0.2425
vn 0.0000 0.9701 -0.2425
vn 0.0000 -0.9701 -0.2425
vn 0.7071 0.0000 -0.7071
vn -0.7071 0.0000 -0.7071
vn 0.0000 0.7071 -0.7071
vn 0.0000 -0.7071 -0.7071
usemtl m_83fa1e50-0d54-1c9b-6f7f-bd98cd57c387
s 1
f 1/1/1 2/2/1 3/3/1 4/4/1
f 5/5/2 6/6/2 7/7/2 8/8/2
f 6/9/3 2/10/3 1/11/3 7/12/3
f 4/13/4 3/14/4 5/15/4 8/16/4
f 3/17/5 2/18/5 6/19/5 5/20/5
f 7/21/6 1/22/6 4/23/6 8/24/6
f 9/25/7 10/26/7 11/27/7 12/28/7
f 13/29/8 14/30/8 15/31/8 16/32/8
f 14/33/9 10/34/9 9/35/9 15/36/9
f 12/37/10 11/38/10 13/39/10 16/40/10
f 11/41/5 10/42/5 14/43/5 13/44/5
f 15/45/6 9/46/6 12/47/6 16/48/6
f 17/49/11 18/50/11 19/51/11 20/52/11
f 21/53/12 22/54/12 23/55/12 24/56/12
f 22/57/13 18/58/13 17/59/13 23/60/13
f 20/61/14 19/62/14 21/63/14 24/64/14
f 19/65/5 18/66/5 22/67/5 21/68/5
f 23/69/6 17/70/6 20/71/6 24/72/6
