# Blender v2.79 (sub 0) OBJ File: ''
# www.blender.org
mtllib skidplate_medium.mtl
o medium
v 0.718750 0.093750 -0.562500
v 0.781250 0.093750 -0.250000
v 0.781250 0.031250 -0.250000
v 0.718750 0.031250 -0.562500
v -0.781250 0.031250 -0.250000
v -0.781250 0.093750 -0.250000
v -0.718750 0.093750 -0.562500
v -0.718750 0.031250 -0.562500
v -0.468750 0.062500 0.000000
v 0.468750 0.062500 0.000000
v 0.468750 0.062500 -0.687500
v -0.468750 0.062500 -0.687500
v 0.468750 0.000000 -0.687500
v 0.468750 0.000000 0.000000
v -0.468750 0.000000 0.000000
v -0.468750 0.000000 -0.687500
v -0.218750 0.000000 -1.000000
v 0.218750 0.000000 -1.000000
v 0.218750 -0.062500 -1.000000
v -0.218750 -0.062500 -1.000000
vt 0.318687 0.937500
vt 0.000000 0.937500
vt 0.000000 0.875000
vt 0.318687 0.875000
vt 0.318687 0.875000
vt 0.318687 0.937500
vt 0.000000 0.937500
vt 0.000000 0.875000
vt 0.000000 0.312500
vt 0.937500 0.312500
vt 0.937500 1.000000
vt 0.000000 1.000000
vt 0.937500 0.312500
vt 0.937500 1.000000
vt 0.000000 1.000000
vt 0.000000 0.312500
vt 0.937500 0.937500
vt 0.937500 1.000000
vt 0.000000 1.000000
vt 0.000000 0.937500
vt 0.437500 1.000000
vt 0.000000 1.000000
vt 0.000000 0.937500
vt 0.437500 0.937500
vt 0.000000 1.000000
vt 0.000000 0.937500
vt 0.400194 0.906250
vt 0.400194 0.968750
vt 0.502550 0.812500
vt 0.183863 0.812500
vt 0.000000 0.455669
vt 0.674150 0.589981
vt 0.279506 0.937500
vt 0.279506 1.000000
vt 0.000000 0.968750
vt 0.000000 0.906250
vt 0.490288 0.750000
vt 0.171600 0.750000
vt 0.000000 0.527162
vt 0.674150 0.393669
vt 0.312500 0.681313
vt 0.750000 0.681313
vt 1.000000 1.000000
vt 0.062500 1.000000
vt 0.400200 0.875000
vt 0.400200 0.937500
vt 0.000000 1.000000
vt 0.000000 0.937500
vt 0.312500 0.681313
vt 0.750000 0.681313
vt 1.000000 1.000000
vt 0.062500 1.000000
vt 0.000000 0.937500
vt 0.000000 0.875000
vt 0.400200 0.937500
vt 0.400200 1.000000
vt 0.125000 0.875481
vt 0.000000 0.623537
vt 0.687500 0.623537
vt 0.437500 0.937500
vt 0.250000 1.000000
vt 0.000000 0.685944
vt 0.687500 0.685944
vt 0.562500 0.937813
vt 0.000000 0.937500
vt 0.000000 0.875000
vt 0.279506 0.843750
vt 0.279506 0.906250
vt 0.400194 0.875000
vt 0.400194 0.937500
vt 0.000000 0.906250
vt 0.000000 0.843750
vn 0.9806 0.0000 -0.1961
vn -0.9806 0.0000 -0.1961
vn 0.0000 1.0000 0.0000
vn 0.0000 -1.0000 -0.0000
vn 0.0000 -0.0000 1.0000
vn 0.0000 0.0000 -1.0000
vn -0.6247 0.0000 0.7809
vn 0.0859 0.9962 0.0172
vn -0.4472 0.0000 -0.8944
vn -0.1375 -0.9901 -0.0275
vn 0.0000 0.9806 -0.1961
vn 0.7809 0.0000 -0.6247
vn 0.0000 -0.9806 0.1961
vn -0.7809 0.0000 -0.6247
vn -0.1240 0.9923 0.0000
vn 0.0995 -0.9950 0.0000
vn 0.4472 0.0000 -0.8944
vn 0.6247 0.0000 0.7809
usemtl m_569450a1-0084-cd64-c677-10271c232f57
s 1
f 1/1/1 2/2/1 3/3/1 4/4/1
f 5/5/2 6/6/2 7/7/2 8/8/2
f 9/9/3 10/10/3 11/11/3 12/12/3
f 13/13/4 14/14/4 15/15/4 16/16/4
f 14/17/5 10/18/5 9/19/5 15/20/5
f 17/21/6 18/22/6 19/23/6 20/24/6
f 6/25/7 5/26/7 15/27/7 9/28/7
f 7/29/8 6/30/8 9/31/8 12/32/8
f 8/33/9 7/34/9 12/35/9 16/36/9
f 5/37/10 8/38/10 16/39/10 15/40/10
f 18/41/11 17/42/11 12/43/11 11/44/11
f 19/45/12 18/46/12 11/47/12 13/48/12
f 20/49/13 19/50/13 13/51/13 16/52/13
f 17/53/14 20/54/14 16/55/14 12/56/14
f 1/57/15 11/58/15 10/59/15 2/60/15
f 3/61/16 14/62/16 13/63/16 4/64/16
f 1/65/17 4/66/17 13/67/17 11/68/17
f 3/69/18 2/70/18 10/71/18 14/72/18
