# Blender v2.79 (sub 0) OBJ File: ''
# www.blender.org
mtllib sleighmotor.mtl
o vtol
v -0.250000 -0.187500 0.125000
v -0.250000 -0.125000 0.062500
v -0.187500 -0.125000 0.062500
v -0.187500 -0.187500 0.125000
v -0.187500 -0.125000 0.312500
v -0.187500 -0.187500 0.319444
v -0.250000 -0.187500 0.319444
v -0.250000 -0.125000 0.312500
v 0.187500 -0.125000 0.062500
v 0.250000 -0.125000 0.062500
v 0.250000 -0.187500 0.125000
v 0.187500 -0.187500 0.125000
v 0.250000 -0.125000 0.312500
v 0.250000 -0.187500 0.319444
v 0.187500 -0.187500 0.319444
v 0.187500 -0.125000 0.312500
v 0.437500 0.125000 0.000000
v 0.250000 -0.000000 0.312500
v 0.250000 -0.125000 0.312500
v 0.437500 -0.125000 -0.000000
v -0.250000 -0.125000 0.312500
v -0.250000 -0.000000 0.312500
v -0.437500 0.125000 0.000000
v -0.437500 -0.125000 -0.000000
vt 0.312500 0.437500
vt 0.312500 0.468750
vt 0.281250 0.468750
vt 0.281250 0.437500
vt 0.968750 0.562500
vt 0.843750 0.562500
vt 0.840278 0.531250
vt 0.937500 0.531250
vt 0.468750 0.031250
vt 0.468750 0.128472
vt 0.437500 0.128472
vt 0.437500 0.031250
vt 0.468750 0.281250
vt 0.565972 0.281250
vt 0.562500 0.312500
vt 0.437500 0.312500
vt 0.750000 1.000000
vt 0.750000 0.875000
vt 0.781250 0.875000
vt 0.781250 1.000000
vt 0.250000 0.468750
vt 0.218750 0.468750
vt 0.218750 0.437500
vt 0.250000 0.437500
vt 0.718750 0.312500
vt 0.593750 0.312500
vt 0.590278 0.281250
vt 0.687500 0.281250
vt 0.437500 0.250000
vt 0.437500 0.152778
vt 0.468750 0.152778
vt 0.468750 0.250000
vt 0.718750 0.531250
vt 0.815972 0.531250
vt 0.812500 0.562500
vt 0.687500 0.562500
vt 0.781250 0.718750
vt 0.781250 0.843750
vt 0.750000 0.843750
vt 0.750000 0.718750
vt 0.656250 0.562500
vt 0.468750 0.500000
vt 0.468750 0.437500
vt 0.656250 0.437500
vt 0.187500 0.343750
vt 0.187500 0.406250
vt 0.000000 0.468750
vt 0.000000 0.343750
vt 0.093750 0.656250
vt 0.343750 0.656250
vt 0.437500 0.812500
vt 0.000000 0.812500
vt 0.437500 0.843750
vt 0.343750 1.000000
vt 0.093750 1.000000
vt 0.000000 0.843750
vt 0.750000 0.343750
vt 0.750000 0.406250
vt 0.500000 0.406250
vt 0.500000 0.343750
vt 0.437500 0.625000
vt 0.000000 0.625000
vt 0.000000 0.500000
vt 0.437500 0.500000
vn 0.0000 -0.7071 -0.7071
vn 1.0000 0.0000 0.0000
vn 0.0000 -1.0000 -0.0000
vn -1.0000 0.0000 0.0000
vn 0.0000 1.0000 0.0000
vn 0.8575 -0.0000 0.5145
vn -0.8575 -0.0000 0.5145
vn 0.0000 0.9285 0.3714
vn 0.0000 0.0000 1.0000
vn 0.0000 0.0000 -1.0000
usemtl m_972179e0-4792-635e-e2fa-b1fb04d73ef3
s 1
f 1/1/1 2/2/1 3/3/1 4/4/1
f 3/5/2 5/6/2 6/7/2 4/8/2
f 4/9/3 6/10/3 7/11/3 1/12/3
f 1/13/4 7/14/4 8/15/4 2/16/4
f 2/17/5 8/18/5 5/19/5 3/20/5
f 9/21/1 10/22/1 11/23/1 12/24/1
f 10/25/2 13/26/2 14/27/2 11/28/2
f 11/29/3 14/30/3 15/31/3 12/32/3
f 12/33/4 15/34/4 16/35/4 9/36/4
f 9/37/5 16/38/5 13/39/5 10/40/5
f 17/41/6 18/42/6 19/43/6 20/44/6
f 21/45/7 22/46/7 23/47/7 24/48/7
f 22/49/8 18/50/8 17/51/8 23/52/8
f 20/53/3 19/54/3 21/55/3 24/56/3
f 19/57/9 18/58/9 22/59/9 21/60/9
f 23/61/10 17/62/10 20/63/10 24/64/10
o cuboid
v -0.250000 -0.125000 0.625000
v -0.250000 -0.125000 0.312500
v -0.250000 -0.187500 0.319444
v -0.250000 -0.187500 0.562500
v -0.187500 -0.187500 0.562500
v -0.187500 -0.187500 0.319444
v -0.187500 -0.125000 0.312500
v -0.187500 -0.125000 0.625000
v 0.250000 -0.187500 0.562500
v 0.250000 -0.187500 0.319444
v 0.250000 -0.125000 0.312500
v 0.250000 -0.125000 0.625000
v 0.187500 -0.125000 0.625000
v 0.187500 -0.125000 0.312500
v 0.187500 -0.187500 0.319444
v 0.187500 -0.187500 0.562500
v 0.250000 -0.000000 0.312500
v 0.250000 -0.062500 0.687500
v 0.250000 -0.125000 0.687500
v 0.250000 -0.125000 0.312500
v -0.250000 -0.125000 0.687500
v -0.250000 -0.062500 0.687500
v -0.250000 -0.000000 0.312500
v -0.250000 -0.125000 0.312500
vt 0.718750 0.312500
vt 0.562500 0.312500
vt 0.565972 0.281250
vt 0.687500 0.281250
vt 0.718750 0.531250
vt 0.840278 0.531250
vt 0.843750 0.562500
vt 0.687500 0.562500
vt 0.781250 0.718750
vt 0.781250 0.875000
vt 0.750000 0.875000
vt 0.750000 0.718750
vt 0.437500 0.250000
vt 0.437500 0.128472
vt 0.468750 0.128472
vt 0.468750 0.250000
vt 0.250000 0.468750
vt 0.218750 0.468750
vt 0.218750 0.437500
vt 0.250000 0.437500
vt 0.468750 0.281250
vt 0.590278 0.281250
vt 0.593750 0.312500
vt 0.437500 0.312500
vt 0.968750 0.562500
vt 0.812500 0.562500
vt 0.815972 0.531250
vt 0.937500 0.531250
vt 0.750000 1.000000
vt 0.750000 0.843750
vt 0.781250 0.843750
vt 0.781250 1.000000
vt 0.468750 0.031250
vt 0.468750 0.152778
vt 0.437500 0.152778
vt 0.437500 0.031250
vt 0.312500 0.437500
vt 0.312500 0.468750
vt 0.281250 0.468750
vt 0.281250 0.437500
vt 0.187500 0.312500
vt 0.000000 0.281250
vt 0.000000 0.250000
vt 0.187500 0.250000
vt 0.406250 0.250000
vt 0.406250 0.281250
vt 0.218750 0.312500
vt 0.218750 0.250000
vt 0.468750 0.593750
vt 0.718750 0.593750
vt 0.718750 0.781250
vt 0.468750 0.781250
vt 0.718750 0.812500
vt 0.718750 1.000000
vt 0.468750 1.000000
vt 0.468750 0.812500
vt 0.937500 0.468750
vt 0.937500 0.500000
vt 0.687500 0.500000
vt 0.687500 0.468750
vt 0.468750 0.406250
vt 0.218750 0.406250
vt 0.218750 0.343750
vt 0.468750 0.343750
vn -1.0000 0.0000 0.0000
vn 1.0000 0.0000 0.0000
vn 0.0000 1.0000 0.0000
vn 0.0000 -1.0000 -0.0000
vn 0.0000 -0.7071 0.7071
vn 0.0000 0.9864 0.1644
vn 0.0000 0.0000 1.0000
vn 0.0000 0.0000 -1.0000
usemtl m_972179e0-4792-635e-e2fa-b1fb04d73ef3
s 1
f 25/65/11 26/66/11 27/67/11 28/68/11
f 29/69/12 30/70/12 31/71/12 32/72/12
f 32/73/13 31/74/13 26/75/13 25/76/13
f 28/77/14 27/78/14 30/79/14 29/80/14
f 32/81/15 25/82/15 28/83/15 29/84/15
f 33/85/12 34/86/12 35/87/12 36/88/12
f 37/89/11 38/90/11 39/91/11 40/92/11
f 36/93/13 35/94/13 38/95/13 37/96/13
f 40/97/14 39/98/14 34/99/14 33/100/14
f 33/101/15 36/102/15 37/103/15 40/104/15
f 41/105/12 42/106/12 43/107/12 44/108/12
f 45/109/11 46/110/11 47/111/11 48/112/11
f 46/113/16 42/114/16 41/115/16 47/116/16
f 44/117/14 43/118/14 45/119/14 48/120/14
f 43/121/17 42/122/17 46/123/17 45/124/17
f 47/125/18 41/126/18 44/127/18 48/128/18
