# Blender v2.79 (sub 0) OBJ File: ''
# www.blender.org
mtllib smellytree.mtl
o cube
v 0.062500 -0.250000 -0.000000
v 0.062500 0.000000 0.000000
v -0.062500 0.000000 0.000000
v -0.062500 -0.250000 -0.000000
v -0.062500 0.000000 0.000000
v 0.062500 0.000000 0.000000
v 0.062500 -0.250000 -0.000000
v -0.062500 -0.250000 -0.000000
vt 0.500000 0.000000
vt 0.500000 1.000000
vt 0.000000 1.000000
vt 0.000000 0.000000
vt 1.000000 1.000000
vt 0.500000 1.000000
vt 0.500000 0.000000
vt 1.000000 0.000000
vn 0.0000 -0.0000 1.0000
vn 0.0000 0.0000 -1.0000
usemtl None
s 1
f 1/1/1 2/2/1 3/3/1 4/4/1
f 5/5/2 6/6/2 7/7/2 8/8/2
