# Blender v2.79 (sub 0) OBJ File: ''
# www.blender.org
mtllib sporttrack_hood_scoop.mtl
o $Hood_Scoop
v -0.146250 -0.026542 1.573313
v -0.146250 -0.004444 1.595410
v 0.146250 -0.004444 1.595410
v 0.146250 -0.026542 1.573313
v 0.146250 -0.106091 1.652862
v 0.146250 -0.083994 1.674959
v -0.146250 -0.083994 1.674959
v -0.146250 -0.106091 1.652862
v 1.062500 0.006869 1.390138
v 0.406250 0.006869 1.390138
v 0.406250 -0.000025 1.562500
v 1.062500 -0.000025 1.562500
v 1.062500 -0.062525 1.562500
v 0.406250 -0.062525 1.562500
v 0.406250 -0.055631 1.390138
v 1.062500 -0.055631 1.390138
v -1.062500 -0.000025 1.562500
v -1.062500 0.006869 1.390138
v -1.062500 -0.055631 1.390138
v -1.062500 -0.062525 1.562500
v -1.062500 -0.062525 1.562500
v -1.062500 -0.000025 1.562500
v 1.062500 -0.000025 1.562500
v 1.062500 -0.062525 1.562500
v 1.062500 -0.125025 1.625000
v 1.062500 -0.125025 1.687500
v -1.062500 -0.125025 1.687500
v -1.062500 -0.125025 1.625000
v 1.062500 0.011878 1.264925
v 0.406250 0.011878 1.264925
v 1.062500 -0.050622 1.264925
v 0.406250 -0.050622 1.264925
v -1.062500 0.011878 1.264925
v -1.062500 -0.050622 1.264925
v 0.343750 -0.055631 1.390138
v 0.343750 0.011878 1.264925
v 0.343750 -0.062525 1.562500
v 0.343750 -0.000025 1.562500
v 0.343750 0.006869 1.390138
v 0.343750 0.074378 1.264925
v -0.406250 0.074378 1.264925
v -0.406250 0.006869 1.390138
v -0.406250 -0.055631 1.390138
v -0.406250 0.011878 1.264925
v -0.406250 -0.062525 1.562500
v -0.406250 -0.000025 1.562500
v -0.468750 0.011878 1.264925
v -0.468750 0.006869 1.390138
v -0.468750 -0.055631 1.390138
v -0.468750 -0.050622 1.264925
v -0.468750 -0.062525 1.562500
v -0.468750 -0.000025 1.562500
v -0.468750 0.052477 0.249956
v -1.062500 0.052477 0.249956
v -1.062500 -0.010023 0.249956
v -0.468750 -0.010023 0.249956
v -0.406250 0.052477 0.312456
v 0.343750 0.052477 0.312456
v 0.406250 -0.010023 0.249956
v 1.062500 -0.010023 0.249956
v 1.062500 0.052477 0.249956
v 0.406250 0.052477 0.249956
v 0.343750 0.114977 0.249956
v -0.406250 0.114977 0.249956
v 1.062500 -0.010023 0.249956
v 0.406250 -0.010023 0.249956
v 0.406250 0.052477 0.249956
v 1.062500 0.052477 0.249956
v 0.343750 0.052477 0.312456
v 0.343750 0.114977 0.249956
v -0.406250 0.052477 0.312456
v -0.406250 0.114977 0.249956
v -0.468750 -0.010023 0.249956
v -0.468750 0.052477 0.249956
v -1.062500 0.052477 0.249956
v -1.062500 -0.010023 0.249956
v 1.062500 -0.000025 0.000000
v 0.406250 -0.000025 0.000000
v 0.406250 0.062475 0.000000
v 1.062500 0.062475 0.000000
v 0.406250 0.052477 0.249956
v 1.062500 0.052477 0.249956
v 1.062500 -0.010023 0.249956
v 0.406250 -0.010023 0.249956
v -1.062500 -0.000025 0.000000
v -1.062500 -0.010023 0.249956
v -1.062500 0.052477 0.249956
v -1.062500 0.062475 0.000000
v 0.343750 0.062475 0.000000
v 0.343750 0.052477 0.249956
v 0.343750 -0.000025 0.000000
v 0.343750 -0.010023 0.249956
v -0.406250 0.062475 0.000000
v -0.406250 0.052477 0.249956
v -0.406250 -0.000025 0.000000
v -0.406250 -0.010023 0.249956
v -0.468750 0.062475 0.000000
v -0.468750 0.052477 0.249956
v -0.468750 -0.000025 0.000000
v -0.468750 -0.010023 0.249956
v 0.406250 0.052477 0.249956
v 0.406250 -0.010023 0.249956
v 1.062500 -0.010023 0.249956
v 1.062500 0.052477 0.249956
v 0.343750 0.052477 0.249956
v 0.343750 -0.010023 0.249956
v -0.406250 0.052477 0.249956
v -0.406250 -0.010023 0.249956
v -0.468750 0.052477 0.249956
v -0.468750 -0.010023 0.249956
v -1.062500 0.052477 0.249956
v -1.062500 -0.010023 0.249956
vt 0.542969 0.957031
vt 0.544922 0.957031
vt 0.544922 0.982422
vt 0.542969 0.982422
vt 0.544922 0.957031
vt 0.546875 0.957031
vt 0.546875 0.982422
vt 0.544922 0.982422
vt 0.542969 0.947266
vt 0.544922 0.947266
vt 0.572266 0.957031
vt 0.570312 0.957031
vt 0.570312 0.947266
vt 0.572266 0.947266
vt 0.517578 0.957031
vt 0.517578 0.947266
vt 0.615708 0.701172
vt 0.615708 0.680664
vt 0.621094 0.680664
vt 0.621094 0.701172
vt 0.669922 0.634766
vt 0.669922 0.655274
vt 0.664536 0.655274
vt 0.664536 0.634766
vt 0.621094 0.634766
vt 0.615708 0.634766
vt 0.615708 0.632812
vt 0.621094 0.632812
vt 0.687500 0.632812
vt 0.692886 0.632812
vt 0.692886 0.634766
vt 0.687500 0.634766
vt 0.666992 0.634766
vt 0.666992 0.632812
vt 0.619141 0.634766
vt 0.621094 0.634766
vt 0.621094 0.701172
vt 0.619141 0.701172
vt 0.621094 0.634766
vt 0.623047 0.634766
vt 0.623047 0.701172
vt 0.621094 0.701172
vt 0.619141 0.628906
vt 0.621094 0.628906
vt 0.689453 0.634766
vt 0.687500 0.634766
vt 0.687500 0.628906
vt 0.689453 0.628906
vt 0.552734 0.634766
vt 0.552734 0.628906
vt 0.611795 0.701172
vt 0.611795 0.680664
vt 0.696799 0.632812
vt 0.696799 0.634766
vt 0.660623 0.655274
vt 0.660623 0.634766
vt 0.611795 0.634766
vt 0.611795 0.632812
vt 0.664536 0.657227
vt 0.660623 0.657227
vt 0.669922 0.657227
vt 0.665039 0.634766
vt 0.665039 0.632812
vt 0.615708 0.678711
vt 0.621094 0.678711
vt 0.611795 0.678711
vt 0.611795 0.655274
vt 0.615708 0.655274
vt 0.664536 0.680664
vt 0.660623 0.680664
vt 0.669922 0.680664
vt 0.641602 0.634766
vt 0.641602 0.632812
vt 0.621094 0.655274
vt 0.611795 0.653321
vt 0.615708 0.653321
vt 0.664536 0.682617
vt 0.660623 0.682617
vt 0.669922 0.682617
vt 0.639649 0.634766
vt 0.639649 0.632812
vt 0.621094 0.653321
vt 0.660623 0.701172
vt 0.664536 0.701172
vt 0.669922 0.701172
vt 0.580077 0.653321
vt 0.580077 0.634766
vt 0.580077 0.632812
vt 0.628905 0.701172
vt 0.628905 0.682617
vt 0.628905 0.680664
vt 0.628905 0.657227
vt 0.628905 0.655274
vt 0.628905 0.634766
vt 0.728517 0.632812
vt 0.728517 0.634766
vt 0.580077 0.701172
vt 0.580077 0.680664
vt 0.580077 0.678711
vt 0.580077 0.655274
vt 0.505859 0.632812
vt 0.526367 0.632812
vt 0.526367 0.634766
vt 0.505859 0.634766
vt 0.528320 0.632812
vt 0.528320 0.634766
vt 0.551758 0.632812
vt 0.551758 0.634766
vt 0.553711 0.632812
vt 0.553711 0.634766
vt 0.572266 0.634766
vt 0.572266 0.632812
vt 0.505859 0.632812
vt 0.526367 0.632812
vt 0.526367 0.634766
vt 0.505859 0.634766
vt 0.572266 0.680664
vt 0.580077 0.680664
vt 0.580077 0.701172
vt 0.572266 0.701172
vt 0.736328 0.634766
vt 0.728517 0.634766
vt 0.728517 0.632812
vt 0.736328 0.632812
vt 0.621094 0.634766
vt 0.628905 0.634766
vt 0.628905 0.655274
vt 0.621094 0.655274
vt 0.572266 0.632812
vt 0.580077 0.632812
vt 0.580077 0.634766
vt 0.572266 0.634766
vt 0.572266 0.678711
vt 0.580077 0.678711
vt 0.528320 0.632812
vt 0.528320 0.634766
vt 0.628905 0.657227
vt 0.621094 0.657227
vt 0.572266 0.655274
vt 0.580077 0.655274
vt 0.551758 0.632812
vt 0.551758 0.634766
vt 0.628905 0.680664
vt 0.621094 0.680664
vt 0.572266 0.653321
vt 0.580077 0.653321
vt 0.553711 0.632812
vt 0.553711 0.634766
vt 0.628905 0.682617
vt 0.621094 0.682617
vt 0.628905 0.701172
vt 0.621094 0.701172
vt 0.526367 0.634766
vt 0.526367 0.632812
vt 0.505859 0.632812
vt 0.505859 0.634766
vt 0.528320 0.634766
vt 0.528320 0.632812
vt 0.551758 0.634766
vt 0.551758 0.632812
vt 0.553711 0.634766
vt 0.553711 0.632812
vt 0.572266 0.634766
vt 0.572266 0.632812
vn 0.0000 0.7071 -0.7071
vn 0.0000 -0.7071 0.7071
vn -1.0000 0.0000 0.0000
vn 1.0000 -0.0000 0.0000
vn 0.0000 0.7071 0.7071
vn 0.0000 -0.7071 -0.7071
vn 0.0000 0.9992 0.0400
vn 0.0000 -0.9992 -0.0400
vn 0.0000 0.0000 1.0000
vn 0.0000 0.0000 -1.0000
vn 0.0000 -1.0000 0.0000
vn 0.0000 -0.8802 -0.4746
vn 0.0000 -0.8803 -0.4745
vn 0.6607 0.6607 0.3562
vn 0.0000 0.8802 0.4746
vn -0.7068 0.7068 0.0283
vn 0.7206 -0.6928 -0.0277
vn 0.0000 -0.9991 -0.0426
vn -0.7214 -0.6919 -0.0295
vn 0.7068 0.7068 0.0283
vn -0.8165 -0.4082 -0.4082
vn -0.8165 -0.4083 -0.4082
vn -0.8165 -0.4083 -0.4083
vn 0.7071 -0.0000 -0.7071
usemtl m_ff1bca06-a73d-d514-bc19-e757e160e295
s 1
f 1/1/1 2/2/1 3/3/1 4/4/1
f 5/5/2 6/6/2 7/7/2 8/8/2
f 2/2/3 1/1/3 8/9/3 7/10/3
f 4/11/4 3/12/4 6/13/4 5/14/4
f 3/12/5 2/2/5 7/10/5 6/13/5
f 1/1/6 4/15/6 5/16/6 8/9/6
f 9/17/7 10/18/7 11/19/7 12/20/7
f 13/21/8 14/22/8 15/23/8 16/24/8
f 17/25/3 18/26/3 19/27/3 20/28/3
f 13/29/4 16/30/4 9/31/4 12/32/4
f 12/32/9 11/33/9 14/34/9 13/29/9
f 21/35/10 22/36/10 23/37/10 24/38/10
f 25/39/11 26/40/11 27/41/11 28/42/11
f 22/36/3 21/35/3 28/43/3 27/44/3
f 24/45/4 23/46/4 26/47/4 25/48/4
f 23/46/5 22/36/5 27/44/5 26/47/5
f 21/35/6 24/49/6 25/50/6 28/43/6
f 29/51/7 30/52/7 10/18/7 9/17/7
f 16/30/4 31/53/4 29/54/4 9/31/4
f 16/24/8 15/23/8 32/55/8 31/56/8
f 18/26/3 33/57/3 34/58/3 19/27/3
f 15/23/12 35/59/13 36/60/12 32/55/12
f 14/22/8 37/61/8 35/59/8 15/23/8
f 11/33/9 38/62/9 37/63/9 14/34/9
f 10/18/7 39/64/7 38/65/7 11/19/7
f 30/52/14 40/66/14 39/64/14 10/18/14
f 40/66/15 41/67/15 42/68/15 39/64/15
f 35/59/13 43/69/12 44/70/12 36/60/12
f 37/61/8 45/71/8 43/69/8 35/59/8
f 38/62/9 46/72/9 45/73/9 37/63/9
f 39/64/7 42/68/7 46/74/7 38/65/7
f 41/67/16 47/75/16 48/76/16 42/68/16
f 43/69/8 49/77/8 50/78/8 44/70/8
f 45/71/8 51/79/8 49/77/8 43/69/8
f 46/72/9 52/80/9 51/81/9 45/73/9
f 42/68/7 48/76/7 52/82/7 46/74/7
f 17/25/7 52/82/7 48/76/7 18/26/7
f 18/26/7 48/76/7 47/75/7 33/57/7
f 34/83/8 50/78/8 49/77/8 19/84/8
f 19/84/8 49/77/8 51/79/8 20/85/8
f 20/28/9 51/81/9 52/80/9 17/25/9
f 47/75/7 53/86/7 54/87/7 33/57/7
f 33/57/3 54/87/3 55/88/3 34/58/3
f 34/83/8 55/89/8 56/90/8 50/78/8
f 50/78/17 56/90/17 57/91/17 44/70/17
f 44/70/18 57/91/18 58/92/18 36/60/18
f 36/60/19 58/92/19 59/93/19 32/55/19
f 32/55/8 59/93/8 60/94/8 31/56/8
f 31/53/4 60/95/4 61/96/4 29/54/4
f 29/51/7 61/97/7 62/98/7 30/52/7
f 30/52/20 62/98/20 63/99/20 40/66/20
f 40/66/7 63/99/7 64/100/7 41/67/7
f 41/67/16 64/100/16 53/86/16 47/75/16
f 65/101/10 66/102/10 67/103/10 68/104/10
f 66/102/21 69/105/22 70/106/23 67/103/23
f 69/105/6 71/107/6 72/108/6 70/106/6
f 71/107/24 73/109/24 74/110/24 72/108/24
f 75/111/10 74/110/10 73/109/10 76/112/10
f 77/113/10 78/114/10 79/115/10 80/116/10
f 79/117/7 81/118/7 82/119/7 80/120/7
f 80/121/4 82/122/4 83/123/4 77/124/4
f 77/125/8 83/126/8 84/127/8 78/128/8
f 85/129/3 86/130/3 87/131/3 88/132/3
f 89/133/7 90/134/7 81/118/7 79/117/7
f 78/114/10 91/135/10 89/136/10 79/115/10
f 78/128/8 84/127/8 92/137/8 91/138/8
f 93/139/7 94/140/7 90/134/7 89/133/7
f 91/135/10 95/141/10 93/142/10 89/136/10
f 91/138/8 92/137/8 96/143/8 95/144/8
f 97/145/7 98/146/7 94/140/7 93/139/7
f 95/141/10 99/147/10 97/148/10 93/142/10
f 95/144/8 96/143/8 100/149/8 99/150/8
f 88/132/7 87/131/7 98/146/7 97/145/7
f 88/132/10 97/148/10 99/147/10 85/129/10
f 99/150/8 100/149/8 86/151/8 85/152/8
f 101/153/9 102/154/9 103/155/9 104/156/9
f 105/157/9 106/158/9 102/154/9 101/153/9
f 107/159/9 108/160/9 106/158/9 105/157/9
f 109/161/9 110/162/9 108/160/9 107/159/9
f 110/162/9 109/161/9 111/163/9 112/164/9
