# Blender v2.79 (sub 0) OBJ File: ''
# www.blender.org
mtllib sporttrack_hood_cut.mtl
o $Hood_Cut
v -0.146250 -0.026530 1.073313
v -0.146250 -0.004433 1.095410
v 0.146250 -0.004433 1.095410
v 0.146250 -0.026530 1.073313
v 0.146250 -0.106080 1.152862
v 0.146250 -0.083983 1.174959
v -0.146250 -0.083983 1.174959
v -0.146250 -0.106080 1.152862
v -1.062500 -0.000000 0.000000
v -1.062500 -0.044969 0.764303
v -1.062500 0.017531 0.764303
v -1.062500 0.062500 0.000000
v 1.062500 0.062500 0.000000
v 1.062500 0.017531 0.764303
v 1.062500 -0.044969 0.764303
v 1.062500 -0.000000 0.000000
v -0.343750 -0.062514 1.062500
v 0.343750 -0.062514 1.062500
v 0.343750 -0.000014 1.062500
v -0.343750 -0.000014 1.062500
v -1.062500 -0.062514 1.062500
v -1.062500 -0.000014 1.062500
v 1.062500 -0.000014 1.062500
v 1.062500 -0.062514 1.062500
v 1.062500 -0.125014 1.125000
v 1.062500 -0.125014 1.187500
v -1.062500 -0.125014 1.187500
v -1.062500 -0.125014 1.125000
v -0.343750 0.017531 0.764303
v -0.343750 0.062500 0.000000
v -0.343750 -0.000000 0.000000
v -0.343750 -0.044969 0.764303
v -1.062500 -0.062514 1.062500
v -1.062500 -0.000014 1.062500
v 0.343750 0.062500 0.000000
v 0.343750 0.017531 0.764303
v 1.062500 -0.000014 1.062500
v 1.062500 -0.062514 1.062500
v 0.343750 -0.044969 0.764303
v 0.343750 -0.000000 0.000000
v -0.343750 0.017531 0.764303
v 0.343750 0.017531 0.764303
v 0.343750 -0.044969 0.764303
v -0.343750 -0.044969 0.764303
v 0.343750 -0.000000 0.000000
v 0.343750 -0.044969 0.764303
v 0.343750 0.017531 0.764303
v 0.343750 0.062500 0.000000
v -0.343750 0.062500 0.000000
v -0.343750 0.017531 0.764303
v -0.343750 -0.044969 0.764303
v -0.343750 -0.000000 0.000000
vt 0.542969 0.957031
vt 0.544922 0.957031
vt 0.544922 0.982422
vt 0.542969 0.982422
vt 0.544922 0.957031
vt 0.546875 0.957031
vt 0.546875 0.982422
vt 0.544922 0.982422
vt 0.542969 0.947266
vt 0.544922 0.947266
vt 0.572266 0.957031
vt 0.570312 0.957031
vt 0.570312 0.947266
vt 0.572266 0.947266
vt 0.517578 0.957031
vt 0.517578 0.947266
vt 0.574219 0.617188
vt 0.598103 0.617188
vt 0.598103 0.619141
vt 0.574219 0.619141
vt 0.707031 0.619141
vt 0.683147 0.619141
vt 0.683147 0.617188
vt 0.707031 0.617188
vt 0.629883 0.617188
vt 0.651367 0.617188
vt 0.651367 0.619141
vt 0.629883 0.619141
vt 0.605469 0.619141
vt 0.607422 0.619141
vt 0.607422 0.685547
vt 0.605469 0.685547
vt 0.607422 0.619141
vt 0.609375 0.619141
vt 0.609375 0.685547
vt 0.607422 0.685547
vt 0.605469 0.613281
vt 0.607422 0.613281
vt 0.675781 0.619141
vt 0.673828 0.619141
vt 0.673828 0.613281
vt 0.675781 0.613281
vt 0.539062 0.619141
vt 0.539062 0.613281
vt 0.598103 0.641602
vt 0.574219 0.641602
vt 0.551758 0.619141
vt 0.551758 0.617188
vt 0.607422 0.663086
vt 0.631306 0.663086
vt 0.631306 0.685547
vt 0.607422 0.685547
vt 0.607422 0.617188
vt 0.607422 0.619141
vt 0.574219 0.663086
vt 0.598103 0.663086
vt 0.598103 0.685547
vt 0.574219 0.685547
vt 0.673828 0.619141
vt 0.673828 0.617188
vt 0.607422 0.619141
vt 0.631306 0.619141
vt 0.631306 0.641602
vt 0.607422 0.641602
vt 0.507812 0.617188
vt 0.530273 0.617188
vt 0.530273 0.619141
vt 0.507812 0.619141
vt 0.607422 0.663086
vt 0.607422 0.641602
vt 0.640625 0.685547
vt 0.640625 0.663086
vt 0.640625 0.641602
vt 0.640625 0.619141
vt 0.607422 0.685547
vt 0.551758 0.619141
vt 0.530273 0.619141
vt 0.530273 0.617188
vt 0.551758 0.617188
vt 0.574219 0.617188
vt 0.598103 0.617188
vt 0.598103 0.619141
vt 0.574219 0.619141
vt 0.707031 0.619141
vt 0.683147 0.619141
vt 0.683147 0.617188
vt 0.707031 0.617188
vn 0.0000 0.7071 -0.7071
vn 0.0000 -0.7071 0.7071
vn -1.0000 0.0000 0.0000
vn 1.0000 0.0000 0.0000
vn 0.0000 0.7071 0.7071
vn 0.0000 -0.7071 -0.7071
vn 0.0000 0.0000 1.0000
vn 0.0000 0.0000 -1.0000
vn 0.0000 -1.0000 0.0000
vn 0.0000 0.9983 0.0587
vn 0.0000 -0.9983 -0.0587
usemtl m_b3cf493b-7d74-1604-9612-a5aff4855e2b
s 1
f 1/1/1 2/2/1 3/3/1 4/4/1
f 5/5/2 6/6/2 7/7/2 8/8/2
f 2/2/3 1/1/3 8/9/3 7/10/3
f 4/11/4 3/12/4 6/13/4 5/14/4
f 3/12/5 2/2/5 7/10/5 6/13/5
f 1/1/6 4/15/6 5/16/6 8/9/6
f 9/17/3 10/18/3 11/19/3 12/20/3
f 13/21/4 14/22/4 15/23/4 16/24/4
f 17/25/7 18/26/7 19/27/7 20/28/7
f 21/29/8 22/30/8 23/31/8 24/32/8
f 25/33/9 26/34/9 27/35/9 28/36/9
f 22/30/3 21/29/3 28/37/3 27/38/3
f 24/39/4 23/40/4 26/41/4 25/42/4
f 23/40/5 22/30/5 27/38/5 26/41/5
f 21/29/6 24/43/6 25/44/6 28/37/6
f 12/20/10 11/19/10 29/45/10 30/46/10
f 12/20/8 30/47/8 31/48/8 9/17/8
f 31/49/11 32/50/11 10/51/11 9/52/11
f 33/53/7 17/25/7 20/28/7 34/54/7
f 35/55/10 36/56/10 14/57/10 13/58/10
f 37/59/7 19/27/7 18/26/7 38/60/7
f 16/61/11 15/62/11 39/63/11 40/64/11
f 16/65/8 40/66/8 35/67/8 13/68/8
f 19/69/10 36/56/10 29/45/10 20/70/10
f 20/70/10 29/45/10 11/19/10 34/54/10
f 34/54/3 11/19/3 10/18/3 33/53/3
f 33/71/11 10/51/11 32/50/11 17/72/11
f 17/72/11 32/50/11 39/63/11 18/73/11
f 18/73/11 39/63/11 15/62/11 38/74/11
f 38/60/4 15/23/4 14/22/4 37/59/4
f 37/75/10 14/57/10 36/56/10 19/69/10
f 41/76/8 42/77/8 43/78/8 44/79/8
f 45/80/3 46/81/3 47/82/3 48/83/3
f 49/84/4 50/85/4 51/86/4 52/87/4
