# Blender v2.79 (sub 0) OBJ File: ''
# www.blender.org
mtllib sporttrack_door_mirrors.mtl
o $DoorFL_Mirror_Standard
v 0.031250 0.140625 -0.187500
v 0.046875 0.125000 -0.125000
v 0.203125 0.125000 -0.125000
v 0.218750 0.140625 -0.187500
v 0.218750 0.015625 -0.187500
v 0.203125 0.031250 -0.125000
v 0.046875 0.031250 -0.125000
v 0.031250 0.015625 -0.187500
v 0.072858 0.113069 -0.125000
v 0.039738 0.060066 -0.062500
v 0.092741 0.026945 -0.062500
v 0.125861 0.079949 -0.125000
v 0.026501 -0.079060 -0.125000
v 0.026501 -0.079060 -0.062500
v -0.026502 -0.045941 -0.062500
v -0.026502 -0.045941 -0.125000
vt 0.130859 0.916016
vt 0.132812 0.916016
vt 0.132812 0.919922
vt 0.130859 0.919922
vt 0.132812 0.916016
vt 0.134766 0.916016
vt 0.134766 0.919922
vt 0.132812 0.919922
vt 0.130859 0.912109
vt 0.132812 0.912109
vt 0.138672 0.916016
vt 0.136719 0.916016
vt 0.136719 0.912109
vt 0.138672 0.912109
vt 0.126953 0.916016
vt 0.126953 0.912109
vt 0.082031 0.902344
vt 0.083984 0.902344
vt 0.083984 0.904297
vt 0.082031 0.904297
vt 0.083984 0.902344
vt 0.085938 0.902344
vt 0.085938 0.904297
vt 0.083984 0.904297
vt 0.082031 0.896484
vt 0.083984 0.896484
vt 0.087891 0.902344
vt 0.085938 0.902344
vt 0.085938 0.896484
vt 0.087891 0.896484
vt 0.080078 0.902344
vt 0.080078 0.896484
vn 0.0000 0.9701 0.2425
vn 0.0000 -0.9701 0.2425
vn -0.9701 0.0000 0.2425
vn 0.9701 0.0000 0.2425
vn 0.0000 0.0000 1.0000
vn 0.0000 0.0000 -1.0000
vn 0.3747 0.5997 0.7071
vn -0.5299 -0.8481 0.0000
vn -0.8480 0.5299 -0.0000
vn 0.8480 -0.5299 -0.0000
usemtl m_5f4ee3e5-16cd-b7dc-6745-3440c3e00367
s 1
f 1/1/1 2/2/1 3/3/1 4/4/1
f 5/5/2 6/6/2 7/7/2 8/8/2
f 2/2/3 1/1/3 8/9/3 7/10/3
f 4/11/4 3/12/4 6/13/4 5/14/4
f 3/12/5 2/2/5 7/10/5 6/13/5
f 1/1/6 4/15/6 5/16/6 8/9/6
f 9/17/7 10/18/7 11/19/7 12/20/7
f 13/21/8 14/22/8 15/23/8 16/24/8
f 10/18/9 9/17/9 16/25/9 15/26/9
f 12/27/10 11/28/10 14/29/10 13/30/10
f 11/28/5 10/18/5 15/26/5 14/29/5
f 9/17/6 12/31/6 13/32/6 16/25/6
o $DoorFR_Mirror_Standard
v -0.203125 0.125000 -0.125000
v -0.046875 0.125000 -0.125000
v -0.031250 0.140625 -0.187500
v -0.218750 0.140625 -0.187500
v -0.046875 0.031250 -0.125000
v -0.203125 0.031250 -0.125000
v -0.218750 0.015625 -0.187500
v -0.031250 0.015625 -0.187500
v -0.092741 0.026945 -0.062500
v -0.039738 0.060066 -0.062500
v -0.072858 0.113069 -0.125000
v -0.125861 0.079949 -0.125000
v 0.026502 -0.045941 -0.062500
v -0.026501 -0.079060 -0.062500
v -0.026501 -0.079060 -0.125000
v 0.026502 -0.045941 -0.125000
vt 0.132812 0.919922
vt 0.132812 0.916016
vt 0.130859 0.916016
vt 0.130859 0.919922
vt 0.134766 0.919922
vt 0.134766 0.916016
vt 0.132812 0.916016
vt 0.132812 0.919922
vt 0.130859 0.912109
vt 0.132812 0.912109
vt 0.136719 0.912109
vt 0.136719 0.916016
vt 0.138672 0.916016
vt 0.138672 0.912109
vt 0.126953 0.912109
vt 0.126953 0.916016
vt 0.083984 0.904297
vt 0.083984 0.902344
vt 0.082031 0.902344
vt 0.082031 0.904297
vt 0.085938 0.904297
vt 0.085938 0.902344
vt 0.083984 0.902344
vt 0.083984 0.904297
vt 0.082031 0.896484
vt 0.083984 0.896484
vt 0.085938 0.896484
vt 0.085938 0.902344
vt 0.087891 0.902344
vt 0.087891 0.896484
vt 0.080078 0.896484
vt 0.080078 0.902344
vn 0.0000 0.9701 0.2425
vn 0.0000 -0.9701 0.2425
vn 0.9701 0.0000 0.2425
vn -0.9701 0.0000 0.2425
vn 0.0000 0.0000 1.0000
vn 0.0000 0.0000 -1.0000
vn -0.3747 0.5997 0.7071
vn 0.5299 -0.8481 0.0000
vn 0.8480 0.5299 -0.0000
vn -0.8480 -0.5299 -0.0000
usemtl m_5f4ee3e5-16cd-b7dc-6745-3440c3e00367
s 1
f 17/33/11 18/34/11 19/35/11 20/36/11
f 21/37/12 22/38/12 23/39/12 24/40/12
f 24/41/13 19/35/13 18/34/13 21/42/13
f 22/43/14 17/44/14 20/45/14 23/46/14
f 21/42/15 18/34/15 17/44/15 22/43/15
f 23/47/16 20/48/16 19/35/16 24/41/16
f 25/49/17 26/50/17 27/51/17 28/52/17
f 29/53/18 30/54/18 31/55/18 32/56/18
f 32/57/19 27/51/19 26/50/19 29/58/19
f 30/59/20 25/60/20 28/61/20 31/62/20
f 29/58/15 26/50/15 25/60/15 30/59/15
f 31/63/16 28/64/16 27/51/16 32/57/16
