# Blender v2.79 (sub 0) OBJ File: ''
# www.blender.org
mtllib sporttrack_hood_scoop.mtl
o $Hood_Scoop
v -0.146250 -0.026530 1.073313
v -0.146250 -0.004433 1.095410
v 0.146250 -0.004433 1.095410
v 0.146250 -0.026530 1.073313
v 0.146250 -0.106080 1.152862
v 0.146250 -0.083983 1.174959
v -0.146250 -0.083983 1.174959
v -0.146250 -0.106080 1.152862
v -0.343750 0.125000 0.000000
v -0.343750 0.080031 0.764303
v 0.343750 0.080031 0.764303
v 0.343750 0.125000 0.000000
v 0.343750 0.062500 0.062500
v 0.343750 0.017531 0.764303
v -0.343750 0.017531 0.764303
v -0.343750 0.062500 0.062500
v -1.062500 -0.000000 0.000000
v -1.062500 -0.044969 0.764303
v -1.062500 0.017531 0.764303
v -1.062500 0.062500 0.000000
v 1.062500 0.062500 0.000000
v 1.062500 0.017531 0.764303
v 1.062500 -0.044969 0.764303
v 1.062500 -0.000000 0.000000
v -0.343750 -0.062514 1.062500
v 0.343750 -0.062514 1.062500
v 0.343750 -0.000014 1.062500
v -0.343750 -0.000014 1.062500
v -1.062500 -0.062514 1.062500
v -1.062500 -0.000014 1.062500
v 1.062500 -0.000014 1.062500
v 1.062500 -0.062514 1.062500
v 1.062500 -0.125014 1.125000
v 1.062500 -0.125014 1.187500
v -1.062500 -0.125014 1.187500
v -1.062500 -0.125014 1.125000
v -0.406250 0.062500 0.000000
v -0.406250 0.017531 0.764303
v -0.406250 -0.000000 0.000000
v -0.406250 -0.044969 0.764303
v -0.406250 -0.000014 1.062500
v -0.406250 -0.062514 1.062500
v 1.062500 -0.000014 1.062500
v 0.406250 -0.000014 1.062500
v 0.406250 -0.062514 1.062500
v 1.062500 -0.062514 1.062500
v 0.406250 -0.044969 0.764303
v 0.406250 -0.000000 0.000000
v 0.406250 0.062500 0.000000
v -0.343750 0.010189 0.889087
v 0.343750 0.010189 0.889087
v -0.406250 0.010189 0.889087
v -1.062500 -0.052311 0.889087
v -1.062500 0.010189 0.889087
v -0.343750 -0.052311 0.889087
v -0.406250 -0.052311 0.889087
v 0.343750 -0.052311 0.889087
v 1.062500 -0.052311 0.889087
v 0.406250 -0.052311 0.889087
v 1.062500 0.010189 0.889087
v 0.406250 0.017531 0.764303
v 0.406250 0.010189 0.889087
v -1.062500 -0.062514 1.062500
v -1.062500 -0.000014 1.062500
vt 0.542969 0.957031
vt 0.544922 0.957031
vt 0.544922 0.982422
vt 0.542969 0.982422
vt 0.544922 0.957031
vt 0.546875 0.957031
vt 0.546875 0.982422
vt 0.544922 0.982422
vt 0.542969 0.947266
vt 0.544922 0.947266
vt 0.572266 0.957031
vt 0.570312 0.957031
vt 0.570312 0.947266
vt 0.572266 0.947266
vt 0.517578 0.957031
vt 0.517578 0.947266
vt 0.574219 0.641602
vt 0.598103 0.641602
vt 0.598103 0.663086
vt 0.574219 0.663086
vt 0.607422 0.641602
vt 0.631306 0.641602
vt 0.631306 0.663086
vt 0.607422 0.663086
vt 0.574219 0.617188
vt 0.598103 0.617188
vt 0.598103 0.619141
vt 0.574219 0.619141
vt 0.707031 0.619141
vt 0.683147 0.619141
vt 0.683147 0.617188
vt 0.707031 0.617188
vt 0.629883 0.617188
vt 0.651367 0.617188
vt 0.651367 0.619141
vt 0.629883 0.619141
vt 0.551758 0.619141
vt 0.530273 0.619141
vt 0.530273 0.617188
vt 0.551758 0.617188
vt 0.605469 0.619141
vt 0.607422 0.619141
vt 0.607422 0.685547
vt 0.605469 0.685547
vt 0.607422 0.619141
vt 0.609375 0.619141
vt 0.609375 0.685547
vt 0.607422 0.685547
vt 0.605469 0.613281
vt 0.607422 0.613281
vt 0.675781 0.619141
vt 0.673828 0.619141
vt 0.673828 0.613281
vt 0.675781 0.613281
vt 0.539062 0.619141
vt 0.539062 0.613281
vt 0.574219 0.639649
vt 0.598103 0.639649
vt 0.553711 0.617188
vt 0.553711 0.619141
vt 0.631306 0.665039
vt 0.607422 0.665039
vt 0.627930 0.619141
vt 0.627930 0.617188
vt 0.673828 0.619141
vt 0.653320 0.619141
vt 0.653320 0.617188
vt 0.673828 0.617188
vt 0.631306 0.619141
vt 0.631306 0.639649
vt 0.607422 0.639649
vt 0.607422 0.619141
vt 0.507812 0.617188
vt 0.528320 0.617188
vt 0.528320 0.619141
vt 0.507812 0.619141
vt 0.602003 0.641602
vt 0.602003 0.663086
vt 0.602003 0.639649
vt 0.602003 0.617188
vt 0.602003 0.619141
vt 0.635206 0.663086
vt 0.635206 0.665039
vt 0.635206 0.641602
vt 0.635206 0.619141
vt 0.635206 0.639649
vt 0.679247 0.619141
vt 0.679247 0.617188
vt 0.598103 0.665039
vt 0.602003 0.665039
vt 0.602003 0.685547
vt 0.598103 0.685547
vt 0.607422 0.685547
vt 0.631306 0.685547
vt 0.635206 0.685547
vt 0.607422 0.617188
vt 0.607422 0.619141
vt 0.574219 0.685547
vt 0.574219 0.665039
vt 0.607422 0.663086
vt 0.607422 0.641602
vt 0.607422 0.639649
vt 0.640625 0.685547
vt 0.640625 0.665039
vt 0.640625 0.663086
vt 0.640625 0.641602
vt 0.640625 0.639649
vt 0.640625 0.619141
vt 0.607422 0.685547
vt 0.607422 0.665039
vn 0.0000 0.7071 -0.7071
vn 0.0000 -0.7071 0.7071
vn -1.0000 0.0000 0.0000
vn 1.0000 0.0000 0.0000
vn 0.0000 0.7071 0.7071
vn 0.0000 -0.7071 -0.7071
vn 0.0000 0.9983 0.0587
vn 0.0000 -0.9980 -0.0639
vn 0.0000 0.0000 1.0000
vn 0.0000 0.0000 -1.0000
vn 0.0000 -1.0000 0.0000
vn -0.7065 0.7065 0.0416
vn 0.7071 -0.0000 -0.7071
vn 0.7065 -0.7065 -0.0416
vn 0.0000 -0.9983 -0.0587
vn 0.0000 0.8726 0.4884
vn 0.0000 -0.8726 -0.4884
vn 0.7065 0.7065 0.0416
vn -0.7264 -0.6861 -0.0404
vn -0.7264 -0.6860 -0.0404
usemtl m_b3cf493b-7d74-1604-9612-a5aff4855e2b
s 1
f 1/1/1 2/2/1 3/3/1 4/4/1
f 5/5/2 6/6/2 7/7/2 8/8/2
f 2/2/3 1/1/3 8/9/3 7/10/3
f 4/11/4 3/12/4 6/13/4 5/14/4
f 3/12/5 2/2/5 7/10/5 6/13/5
f 1/1/6 4/15/6 5/16/6 8/9/6
f 9/17/7 10/18/7 11/19/7 12/20/7
f 13/21/8 14/22/8 15/23/8 16/24/8
f 17/25/3 18/26/3 19/27/3 20/28/3
f 21/29/4 22/30/4 23/31/4 24/32/4
f 25/33/9 26/34/9 27/35/9 28/36/9
f 9/37/6 12/38/6 13/39/6 16/40/6
f 29/41/10 30/42/10 31/43/10 32/44/10
f 33/45/11 34/46/11 35/47/11 36/48/11
f 30/42/3 29/41/3 36/49/3 35/50/3
f 32/51/4 31/52/4 34/53/4 33/54/4
f 31/52/5 30/42/5 35/50/5 34/53/5
f 29/41/6 32/55/6 33/56/6 36/49/6
f 9/17/12 37/57/12 38/58/12 10/18/12
f 16/40/13 39/59/13 37/60/13 9/37/13
f 15/23/14 40/61/14 39/62/14 16/24/14
f 28/36/9 41/63/9 42/64/9 25/33/9
f 43/65/9 44/66/9 45/67/9 46/68/9
f 23/69/15 47/70/15 48/71/15 24/72/15
f 24/73/10 48/74/10 49/75/10 21/76/10
f 10/18/16 50/77/16 51/78/16 11/19/16
f 38/58/7 52/79/7 50/77/7 10/18/7
f 18/26/3 53/80/3 54/81/3 19/27/3
f 15/23/17 55/82/17 56/83/17 40/61/17
f 14/22/17 57/84/17 55/82/17 15/23/17
f 23/69/15 58/85/15 59/86/15 47/70/15
f 22/30/4 60/87/4 58/88/4 23/31/4
f 61/89/7 62/90/7 60/91/7 22/92/7
f 19/27/7 38/58/7 37/57/7 20/28/7
f 20/28/10 37/60/10 39/59/10 17/25/10
f 17/93/15 39/62/15 40/61/15 18/94/15
f 40/61/15 56/83/15 53/95/15 18/94/15
f 63/96/9 42/64/9 41/63/9 64/97/9
f 19/27/7 54/81/7 52/79/7 38/58/7
f 21/98/7 49/99/7 61/89/7 22/92/7
f 11/19/18 61/89/18 49/99/18 12/20/18
f 12/38/10 49/75/10 48/74/10 13/39/10
f 13/21/19 48/71/20 47/70/19 14/22/19
f 47/70/15 59/86/15 57/84/15 14/22/15
f 26/34/9 45/67/9 44/66/9 27/35/9
f 11/19/16 51/78/16 62/90/16 61/89/16
f 27/100/7 51/78/7 50/77/7 28/101/7
f 28/101/7 50/77/7 52/79/7 41/102/7
f 41/102/7 52/79/7 54/81/7 64/97/7
f 64/97/3 54/81/3 53/80/3 63/96/3
f 63/103/15 53/95/15 56/83/15 42/104/15
f 42/104/15 56/83/15 55/82/15 25/105/15
f 25/105/15 55/82/15 57/84/15 26/106/15
f 26/106/15 57/84/15 59/86/15 45/107/15
f 45/107/15 59/86/15 58/85/15 46/108/15
f 46/68/4 58/88/4 60/87/4 43/65/4
f 43/109/7 60/91/7 62/90/7 44/110/7
f 44/110/7 62/90/7 51/78/7 27/100/7
