# Blender v2.79 (sub 0) OBJ File: ''
# www.blender.org
mtllib sporttrack_foglights.mtl
o &Foglight_Right
v -0.546875 -0.062519 -0.015620
v -0.546875 0.062481 -0.015620
v -0.796875 0.062481 -0.015620
v -0.796875 -0.062519 -0.015620
v -0.546875 0.062481 -0.015625
v -0.609375 0.124981 -0.015625
v -0.734375 0.124981 -0.015625
v -0.796875 0.062481 -0.015625
v -0.609375 -0.125019 -0.015625
v -0.546875 -0.062519 -0.015625
v -0.796875 -0.062519 -0.015625
v -0.734375 -0.125019 -0.015625
vt 0.636719 0.986328
vt 0.636719 0.990234
vt 0.644531 0.990234
vt 0.644531 0.986328
vt 0.136719 0.957031
vt 0.136719 0.958984
vt 0.144531 0.958984
vt 0.144531 0.957031
vt 0.339844 0.957031
vt 0.339844 0.958984
vt 0.347656 0.958984
vt 0.347656 0.957031
vn 0.0000 0.0000 1.0000
usemtl m_b3cf493b-7d74-1604-9612-a5aff4855e2b
s 1
f 1/1/1 2/2/1 3/3/1 4/4/1
f 5/5/1 6/6/1 7/7/1 8/8/1
f 9/9/1 10/10/1 11/11/1 12/12/1
o &Foglight_Left
v 0.789062 0.062481 -0.015620
v 0.539062 0.062481 -0.015620
v 0.539062 -0.062519 -0.015620
v 0.789062 -0.062519 -0.015620
v 0.726562 0.124981 -0.015625
v 0.601562 0.124981 -0.015625
v 0.539062 0.062481 -0.015625
v 0.789062 0.062481 -0.015625
v 0.789062 -0.062519 -0.015625
v 0.539062 -0.062519 -0.015625
v 0.601562 -0.125019 -0.015625
v 0.726562 -0.125019 -0.015625
vt 0.644531 0.990234
vt 0.636719 0.990234
vt 0.636719 0.986328
vt 0.644531 0.986328
vt 0.144531 0.958984
vt 0.136719 0.958984
vt 0.136719 0.957031
vt 0.144531 0.957031
vt 0.347656 0.958984
vt 0.339844 0.958984
vt 0.339844 0.957031
vt 0.347656 0.957031
vn 0.0000 0.0000 1.0000
usemtl m_b3cf493b-7d74-1604-9612-a5aff4855e2b
s 1
f 13/13/2 14/14/2 15/15/2 16/16/2
f 17/17/2 18/18/2 19/19/2 20/20/2
f 21/21/2 22/22/2 23/23/2 24/24/2
o $FoglightCase_Left
v 0.539062 0.062481 -0.078125
v 0.539062 0.062481 -0.015625
v 0.789062 0.062481 -0.015625
v 0.789062 0.062481 -0.078125
v 0.789062 -0.062519 -0.078125
v 0.789062 -0.062519 -0.015625
v 0.539062 -0.062519 -0.015625
v 0.539062 -0.062519 -0.078125
v 0.617188 0.023418 -0.140625
v 0.710938 0.023418 -0.140625
v 0.710938 -0.023457 -0.140625
v 0.617188 -0.023457 -0.140625
v 0.601562 0.124981 -0.078125
v 0.601562 0.124981 -0.015625
v 0.726562 0.124981 -0.015625
v 0.726562 0.124981 -0.078125
v 0.789062 0.062481 -0.078125
v 0.789062 0.062481 -0.015625
v 0.539062 0.062481 -0.015625
v 0.539062 0.062481 -0.078125
v 0.640625 0.046856 -0.140625
v 0.687500 0.046856 -0.140625
v 0.710938 0.023418 -0.140625
v 0.617188 0.023418 -0.140625
v 0.539062 -0.062519 -0.078125
v 0.539062 -0.062519 -0.015625
v 0.789062 -0.062519 -0.015625
v 0.789062 -0.062519 -0.078125
v 0.726562 -0.125019 -0.078125
v 0.726562 -0.125019 -0.015625
v 0.601562 -0.125019 -0.015625
v 0.601562 -0.125019 -0.078125
v 0.617188 -0.023457 -0.140625
v 0.710938 -0.023457 -0.140625
v 0.687500 -0.046894 -0.140625
v 0.640625 -0.046894 -0.140625
vt 0.634766 0.990234
vt 0.636719 0.990234
vt 0.636719 0.998047
vt 0.634766 0.998047
vt 0.636719 0.990234
vt 0.638672 0.990234
vt 0.638672 0.998047
vt 0.636719 0.998047
vt 0.634766 0.986328
vt 0.636719 0.986328
vt 0.646484 0.990234
vt 0.644531 0.990234
vt 0.644531 0.986328
vt 0.646484 0.986328
vt 0.634766 0.990234
vt 0.626953 0.990234
vt 0.626953 0.986328
vt 0.634766 0.986328
vt 0.134766 0.958984
vt 0.136719 0.958984
vt 0.136719 0.966797
vt 0.134766 0.966797
vt 0.136719 0.958984
vt 0.138672 0.958984
vt 0.138672 0.966797
vt 0.136719 0.966797
vt 0.134766 0.957031
vt 0.136719 0.957031
vt 0.146484 0.958984
vt 0.144531 0.958984
vt 0.144531 0.957031
vt 0.146484 0.957031
vt 0.134766 0.958984
vt 0.126953 0.958984
vt 0.126953 0.957031
vt 0.134766 0.957031
vt 0.337891 0.958984
vt 0.339844 0.958984
vt 0.339844 0.966797
vt 0.337891 0.966797
vt 0.339844 0.958984
vt 0.341797 0.958984
vt 0.341797 0.966797
vt 0.339844 0.966797
vt 0.337891 0.957031
vt 0.339844 0.957031
vt 0.349609 0.958984
vt 0.347656 0.958984
vt 0.347656 0.957031
vt 0.349609 0.957031
vt 0.337891 0.958984
vt 0.330078 0.958984
vt 0.330078 0.957031
vt 0.337891 0.957031
vt 0.318359 0.998047
vt 0.310547 0.998047
vt 0.310547 0.996094
vt 0.318359 0.996094
vt 0.646484 0.990234
vt 0.644531 0.990234
vt 0.644531 0.986328
vt 0.310547 0.990234
vt 0.318359 0.990234
vt 0.318359 0.992188
vt 0.310547 0.992188
vt 0.636719 0.990234
vt 0.634766 0.990234
vt 0.636719 0.986328
vt 0.169922 0.982422
vt 0.162109 0.982422
vt 0.162109 0.980469
vt 0.169922 0.980469
vt 0.339844 0.958984
vt 0.341797 0.958984
vt 0.341797 0.966797
vt 0.339844 0.966797
vt 0.339844 0.958984
vt 0.341797 0.958984
vt 0.341797 0.966797
vt 0.339844 0.958984
vt 0.341797 0.958984
vt 0.341797 0.966797
vt 0.339844 0.966797
vt 0.134766 0.958984
vt 0.136719 0.958984
vt 0.136719 0.966797
vt 0.134766 0.958984
vt 0.136719 0.958984
vt 0.136719 0.966797
vt 0.134766 0.966797
vt 0.060547 0.976562
vt 0.068359 0.976562
vt 0.068359 0.978516
vt 0.060547 0.978516
vt 0.136719 0.958984
vt 0.134766 0.966797
vn 0.0000 1.0000 0.0000
vn 0.0000 -1.0000 0.0000
vn -1.0000 0.0000 0.0000
vn 1.0000 0.0000 0.0000
vn 0.0000 0.0000 -1.0000
vn -0.7071 0.7071 0.0000
vn 0.7071 0.7071 0.0000
vn -0.7071 -0.7071 0.0000
vn 0.7071 -0.7071 0.0000
vn 0.0000 0.8480 -0.5300
vn 0.6247 0.0000 -0.7809
vn 0.0000 -0.8480 -0.5300
vn -0.6247 0.0000 -0.7809
vn 0.0000 0.8480 0.5300
vn 0.4258 -0.4258 -0.7984
vn 0.0000 -0.6247 -0.7809
vn -0.4258 -0.4258 -0.7984
vn 0.0000 0.6247 -0.7809
vn 0.4258 0.4258 -0.7984
vn 0.0000 -0.8480 0.5300
vn -0.4258 0.4258 -0.7984
usemtl m_b3cf493b-7d74-1604-9612-a5aff4855e2b
s 1
f 25/25/3 26/26/3 27/27/3 28/28/3
f 29/29/4 30/30/4 31/31/4 32/32/4
f 26/26/5 25/25/5 32/33/5 31/34/5
f 28/35/6 27/36/6 30/37/6 29/38/6
f 33/39/7 34/40/7 35/41/7 36/42/7
f 37/43/3 38/44/3 39/45/3 40/46/3
f 41/47/4 42/48/4 43/49/4 44/50/4
f 38/44/8 37/43/8 44/51/8 43/52/8
f 40/53/9 39/54/9 42/55/9 41/56/9
f 45/57/7 46/58/7 47/59/7 48/60/7
f 49/61/3 50/62/3 51/63/3 52/64/3
f 53/65/4 54/66/4 55/67/4 56/68/4
f 50/62/10 49/61/10 56/69/10 55/70/10
f 52/71/11 51/72/11 54/73/11 53/74/11
f 57/75/7 58/76/7 59/77/7 60/78/7
f 34/79/12 33/80/12 25/81/12 28/82/12
f 35/83/13 34/84/13 28/85/13 29/38/13
f 36/86/14 35/87/14 29/88/14 32/89/14
f 33/90/15 36/91/15 32/33/15 25/92/15
f 58/93/16 57/94/16 49/95/16 52/96/16
f 59/97/17 58/98/17 52/99/17 53/100/17
f 60/101/18 59/102/18 53/103/18 56/68/18
f 57/104/19 60/105/19 56/106/19 49/107/19
f 46/108/20 45/109/20 37/110/20 40/46/20
f 47/111/21 46/112/21 40/113/21 41/114/21
f 48/115/22 47/116/22 41/117/22 44/118/22
f 45/57/23 48/119/23 44/50/23 37/120/23
o $FoglightCase_Right
v -0.796875 0.062481 -0.015625
v -0.546875 0.062481 -0.015625
v -0.546875 0.062481 -0.078125
v -0.796875 0.062481 -0.078125
v -0.546875 -0.062519 -0.015625
v -0.796875 -0.062519 -0.015625
v -0.796875 -0.062519 -0.078125
v -0.546875 -0.062519 -0.078125
v -0.718750 -0.023457 -0.140625
v -0.718750 0.023418 -0.140625
v -0.625000 0.023418 -0.140625
v -0.625000 -0.023457 -0.140625
v -0.734375 0.124981 -0.015625
v -0.609375 0.124981 -0.015625
v -0.609375 0.124981 -0.078125
v -0.734375 0.124981 -0.078125
v -0.546875 0.062481 -0.015625
v -0.796875 0.062481 -0.015625
v -0.796875 0.062481 -0.078125
v -0.546875 0.062481 -0.078125
v -0.718750 0.023418 -0.140625
v -0.695312 0.046856 -0.140625
v -0.648438 0.046856 -0.140625
v -0.625000 0.023418 -0.140625
v -0.796875 -0.062519 -0.015625
v -0.546875 -0.062519 -0.015625
v -0.546875 -0.062519 -0.078125
v -0.796875 -0.062519 -0.078125
v -0.609375 -0.125019 -0.015625
v -0.734375 -0.125019 -0.015625
v -0.734375 -0.125019 -0.078125
v -0.609375 -0.125019 -0.078125
v -0.695312 -0.046894 -0.140625
v -0.718750 -0.023457 -0.140625
v -0.625000 -0.023457 -0.140625
v -0.648438 -0.046894 -0.140625
vt 0.636719 0.998047
vt 0.636719 0.990234
vt 0.634766 0.990234
vt 0.634766 0.998047
vt 0.638672 0.998047
vt 0.638672 0.990234
vt 0.636719 0.990234
vt 0.636719 0.998047
vt 0.634766 0.986328
vt 0.636719 0.986328
vt 0.644531 0.986328
vt 0.644531 0.990234
vt 0.646484 0.990234
vt 0.646484 0.986328
vt 0.626953 0.986328
vt 0.626953 0.990234
vt 0.634766 0.990234
vt 0.634766 0.986328
vt 0.136719 0.966797
vt 0.136719 0.958984
vt 0.134766 0.958984
vt 0.134766 0.966797
vt 0.138672 0.966797
vt 0.138672 0.958984
vt 0.136719 0.958984
vt 0.136719 0.966797
vt 0.134766 0.957031
vt 0.136719 0.957031
vt 0.144531 0.957031
vt 0.144531 0.958984
vt 0.146484 0.958984
vt 0.146484 0.957031
vt 0.126953 0.957031
vt 0.126953 0.958984
vt 0.134766 0.958984
vt 0.134766 0.957031
vt 0.339844 0.966797
vt 0.339844 0.958984
vt 0.337891 0.958984
vt 0.337891 0.966797
vt 0.341797 0.966797
vt 0.341797 0.958984
vt 0.339844 0.958984
vt 0.339844 0.966797
vt 0.337891 0.957031
vt 0.339844 0.957031
vt 0.347656 0.957031
vt 0.347656 0.958984
vt 0.349609 0.958984
vt 0.349609 0.957031
vt 0.330078 0.957031
vt 0.330078 0.958984
vt 0.337891 0.958984
vt 0.337891 0.957031
vt 0.341797 0.966797
vt 0.341797 0.958984
vt 0.339844 0.966797
vt 0.171875 0.982422
vt 0.164062 0.982422
vt 0.164062 0.980469
vt 0.171875 0.980469
vt 0.341797 0.966797
vt 0.341797 0.958984
vt 0.339844 0.958984
vt 0.341797 0.966797
vt 0.341797 0.958984
vt 0.339844 0.958984
vt 0.339844 0.966797
vt 0.644531 0.986328
vt 0.644531 0.990234
vt 0.646484 0.990234
vt 0.646484 0.986328
vt 0.320312 0.998047
vt 0.312500 0.998047
vt 0.312500 0.996094
vt 0.320312 0.996094
vt 0.636719 0.990234
vt 0.636719 0.986328
vt 0.312500 0.990234
vt 0.320312 0.990234
vt 0.320312 0.992188
vt 0.312500 0.992188
vt 0.136719 0.966797
vt 0.136719 0.958984
vt 0.134766 0.958984
vt 0.136719 0.966797
vt 0.136719 0.958984
vt 0.134766 0.958984
vt 0.134766 0.966797
vt 0.136719 0.966797
vt 0.136719 0.958984
vt 0.134766 0.966797
vt 0.062500 0.976562
vt 0.070312 0.976562
vt 0.070312 0.978516
vt 0.062500 0.978516
vn 0.0000 1.0000 0.0000
vn 0.0000 -1.0000 0.0000
vn 1.0000 0.0000 0.0000
vn -1.0000 0.0000 0.0000
vn 0.0000 0.0000 -1.0000
vn 0.7071 0.7071 0.0000
vn -0.7071 0.7071 0.0000
vn 0.7071 -0.7071 0.0000
vn -0.7071 -0.7071 0.0000
vn -0.4258 -0.4258 -0.7984
vn 0.0000 0.8480 0.5300
vn 0.4258 -0.4258 -0.7984
vn 0.0000 -0.6247 -0.7809
vn -0.6247 0.0000 -0.7809
vn 0.0000 0.8480 -0.5300
vn 0.6247 0.0000 -0.7809
vn 0.0000 -0.8480 -0.5300
vn -0.4258 0.4258 -0.7984
vn 0.0000 0.6247 -0.7809
vn 0.4258 0.4258 -0.7984
vn 0.0000 -0.8480 0.5300
usemtl m_b3cf493b-7d74-1604-9612-a5aff4855e2b
s 1
f 61/121/24 62/122/24 63/123/24 64/124/24
f 65/125/25 66/126/25 67/127/25 68/128/25
f 68/129/26 63/123/26 62/122/26 65/130/26
f 66/131/27 61/132/27 64/133/27 67/134/27
f 69/135/28 70/136/28 71/137/28 72/138/28
f 73/139/24 74/140/24 75/141/24 76/142/24
f 77/143/25 78/144/25 79/145/25 80/146/25
f 80/147/29 75/141/29 74/140/29 77/148/29
f 78/149/30 73/150/30 76/151/30 79/152/30
f 81/153/28 82/154/28 83/155/28 84/156/28
f 85/157/24 86/158/24 87/159/24 88/160/24
f 89/161/25 90/162/25 91/163/25 92/164/25
f 92/165/31 87/159/31 86/158/31 89/166/31
f 90/167/32 85/168/32 88/169/32 91/170/32
f 93/171/28 94/172/28 95/173/28 96/174/28
f 94/175/33 93/176/33 91/163/33 88/177/33
f 95/178/34 94/179/34 88/180/34 87/181/34
f 96/182/35 95/183/35 87/184/35 92/164/35
f 93/185/36 96/186/36 92/187/36 91/188/36
f 70/189/37 69/190/37 67/191/37 64/192/37
f 71/193/38 70/194/38 64/195/38 63/196/38
f 72/138/39 71/137/39 63/197/39 68/198/39
f 69/199/40 72/200/40 68/201/40 67/202/40
f 82/203/41 81/204/41 79/205/41 76/142/41
f 83/206/42 82/207/42 76/208/42 75/209/42
f 84/210/43 83/211/43 75/141/43 80/212/43
f 81/213/44 84/214/44 80/215/44 79/216/44
