# Blender v2.79 (sub 0) OBJ File: ''
# www.blender.org
mtllib sporttrack_hardtop_backwall.mtl
o $DoorBack_Top
v 1.062500 0.875000 0.000000
v 0.875000 0.875000 0.000000
v 1.062500 0.000000 0.000000
v -0.875000 0.062500 -0.062500
v -0.875000 0.062500 0.000000
v 0.875000 0.062500 0.000000
v 0.875000 0.062500 -0.062500
v 0.875000 0.000000 -0.062500
v 0.875000 0.000000 0.000000
v -0.875000 0.000000 0.000000
v -1.062500 0.875000 -0.062500
v -0.875000 0.875000 0.000000
v -0.875000 0.000000 -0.062500
v -1.062500 0.000000 0.000000
v -1.062500 0.000000 -0.062500
v -0.875000 0.875000 -0.062500
v 0.875000 0.875000 -0.062500
v 0.875000 0.812500 -0.062500
v 0.875000 0.812500 0.000000
v -0.875000 0.812500 0.000000
v -0.875000 0.812500 -0.062500
v 1.250000 0.000000 0.000000
v 1.062500 0.875000 -0.062500
v 1.062500 0.000000 -0.062500
v 1.250000 0.000000 -0.062500
v -1.062500 0.875000 0.000000
v -1.250000 0.000000 -0.062500
v -1.250000 0.000000 0.000000
vt 0.970703 0.476562
vt 0.970703 0.449219
vt 0.976562 0.449219
vt 0.978516 0.476562
vt 0.976562 0.476562
vt 0.978516 0.449219
vt 0.978516 0.476562
vt 0.980469 0.476562
vt 0.980469 0.482422
vt 0.978516 0.482422
vt 0.984375 0.449219
vt 0.064453 0.460938
vt 0.064453 0.433594
vt 0.070312 0.433594
vt 0.080078 0.460938
vt 0.078125 0.460938
vt 0.078125 0.433594
vt 0.080078 0.433594
vt 0.072266 0.460938
vt 0.074219 0.460938
vt 0.074219 0.466797
vt 0.072266 0.466797
vt 0.072266 0.460938
vt 0.072266 0.433594
vt 0.986328 0.476562
vt 0.984375 0.476562
vt 0.986328 0.449219
vt 0.070312 0.460938
vt 0.990234 0.447266
vt 0.992188 0.447266
vt 0.992188 0.451172
vt 0.990234 0.451172
vt 0.992188 0.447266
vt 0.994141 0.447266
vt 0.994141 0.451172
vt 0.992188 0.451172
vt 0.990234 0.419922
vt 0.992188 0.419922
vt 0.996094 0.447266
vt 0.996094 0.419922
vt 0.986328 0.447266
vt 0.986328 0.419922
vt 0.087891 0.412109
vt 0.089844 0.412109
vt 0.089844 0.466797
vt 0.087891 0.466797
vt 0.089844 0.412109
vt 0.091797 0.412109
vt 0.091797 0.466797
vt 0.089844 0.466797
vt 0.087891 0.410156
vt 0.089844 0.410156
vt 0.146484 0.412109
vt 0.144531 0.412109
vt 0.144531 0.410156
vt 0.146484 0.410156
vt 0.033203 0.412109
vt 0.033203 0.410156
vt 0.162109 0.431641
vt 0.164062 0.431641
vt 0.164062 0.435547
vt 0.162109 0.435547
vt 0.164062 0.431641
vt 0.166016 0.431641
vt 0.166016 0.435547
vt 0.164062 0.435547
vt 0.169922 0.431641
vt 0.167969 0.431641
vt 0.167969 0.404297
vt 0.169922 0.404297
vt 0.164062 0.404297
vt 0.158203 0.431641
vt 0.158203 0.404297
vt 0.162109 0.404297
vt 0.537109 0.416016
vt 0.539062 0.416016
vt 0.539062 0.466797
vt 0.537109 0.466797
vt 0.539062 0.416016
vt 0.541016 0.416016
vt 0.541016 0.466797
vt 0.539062 0.466797
vt 0.537109 0.414062
vt 0.539062 0.414062
vt 0.591797 0.416016
vt 0.589844 0.416016
vt 0.589844 0.414062
vt 0.591797 0.414062
vt 0.486328 0.416016
vt 0.486328 0.414062
vn 0.0000 0.0000 -1.0000
vn -0.9778 0.2095 0.0000
vn 0.0000 -1.0000 0.0000
vn 0.0000 -0.0000 1.0000
vn 0.9778 0.2095 0.0000
vn 1.0000 0.0000 0.0000
vn -1.0000 0.0000 0.0000
vn 0.0000 1.0000 0.0000
usemtl m_b3cf493b-7d74-1604-9612-a5aff4855e2b
s off
f 11/1/1 15/2/1 27/3/1
f 26/4/2 11/5/2 27/3/2 28/6/2
f 15/7/3 14/8/3 28/9/3 27/10/3
f 26/4/4 28/6/4 14/11/4
f 23/12/1 25/13/1 24/14/1
f 23/15/5 1/16/5 22/17/5 25/18/5
f 25/19/3 22/20/3 3/21/3 24/22/3
f 1/23/4 3/24/4 22/17/4
s 1
f 11/25/6 26/26/6 14/11/6 15/27/6
f 1/23/7 23/28/7 24/14/7 3/24/7
f 17/29/8 2/30/8 1/31/8 23/32/8
f 24/33/3 3/34/3 9/35/3 8/36/3
f 2/30/7 17/29/7 8/37/7 9/38/7
f 1/39/4 2/30/4 9/38/4 3/40/4
f 17/29/1 23/41/1 24/42/1 8/37/1
f 4/43/8 5/44/8 6/45/8 7/46/8
f 8/47/3 9/48/3 10/49/3 13/50/3
f 5/44/7 4/43/7 13/51/7 10/52/7
f 7/53/6 6/54/6 9/55/6 8/56/6
f 6/54/4 5/44/4 10/52/4 9/55/4
f 4/43/1 7/57/1 8/58/1 13/51/1
f 11/59/8 26/60/8 12/61/8 16/62/8
f 13/63/3 10/64/3 14/65/3 15/66/3
f 16/67/6 12/68/6 10/69/6 13/70/6
f 12/68/4 26/60/4 14/71/4 10/69/4
f 11/59/1 16/72/1 13/73/1 15/74/1
f 16/75/8 12/76/8 2/77/8 17/78/8
f 18/79/3 19/80/3 20/81/3 21/82/3
f 12/76/7 16/75/7 21/83/7 20/84/7
f 17/85/6 2/86/6 19/87/6 18/88/6
f 2/86/4 12/76/4 20/84/4 19/87/4
f 16/75/1 17/89/1 18/90/1 21/83/1
o $DoorBack_Bottom_Alternate
v -1.250000 0.000000 -0.062500
v -1.250000 0.000000 0.000000
v -1.062500 0.000000 0.000000
v -1.062500 0.000000 -0.062500
v -1.062500 -0.187500 0.000000
v -1.062500 -0.187500 0.062500
v -1.250000 -0.187500 0.062500
v -1.250000 -0.187500 0.000000
v -1.250000 -0.187500 0.000000
v -1.250000 -0.187500 0.062500
v -1.062500 -0.187500 0.062500
v -1.062500 -0.187500 0.000000
v -1.062500 -0.562500 0.000000
v -1.062500 -0.593750 0.062500
v -1.250000 -0.593750 0.062500
v -1.250000 -0.562500 0.000000
v 1.062500 0.000000 -0.062500
v 1.062500 0.000000 0.000000
v 1.250000 0.000000 0.000000
v 1.250000 0.000000 -0.062500
v 1.250000 -0.187500 0.000000
v 1.250000 -0.187500 0.062500
v 1.062500 -0.187500 0.062500
v 1.062500 -0.187500 0.000000
v 1.062500 -0.187500 0.000000
v 1.062500 -0.187500 0.062500
v 1.250000 -0.187500 0.062500
v 1.250000 -0.187500 0.000000
v 1.250000 -0.562500 0.000000
v 1.250000 -0.593750 0.062500
v 1.062500 -0.593750 0.062500
v 1.062500 -0.562500 0.000000
v 0.000000 0.000000 -0.062500
v 0.000000 0.000000 0.000000
v 1.062500 0.000000 0.000000
v 1.062500 0.000000 -0.062500
v 1.062500 -0.187500 0.000000
v 1.062500 -0.187500 0.062500
v 0.000000 -0.187500 0.062500
v 0.000000 -0.187500 0.000000
v 0.000000 -0.187500 0.000000
v 0.000000 -0.187500 0.062500
v 1.062500 -0.187500 0.062500
v 1.062500 -0.187500 0.000000
v 1.062500 -0.562500 0.000000
v 1.062500 -0.593750 0.062500
v 0.000000 -0.593750 0.062500
v 0.000000 -0.562500 0.000000
v -1.062500 0.000000 -0.062500
v -1.062500 0.000000 0.000000
v 0.000000 0.000000 0.000000
v 0.000000 0.000000 -0.062500
v 0.000000 -0.187500 0.000000
v 0.000000 -0.187500 0.062500
v -1.062500 -0.187500 0.062500
v -1.062500 -0.187500 0.000000
v -1.062500 -0.187500 0.000000
v -1.062500 -0.187500 0.062500
v 0.000000 -0.187500 0.062500
v 0.000000 -0.187500 0.000000
v 0.000000 -0.562500 0.000000
v 0.000000 -0.593750 0.062500
v -1.062500 -0.593750 0.062500
v -1.062500 -0.562500 0.000000
vt 0.021484 0.453125
vt 0.013672 0.453125
vt 0.013672 0.451172
vt 0.021484 0.451172
vt 0.792969 0.474609
vt 0.794922 0.474609
vt 0.794922 0.482422
vt 0.792969 0.482422
vt 0.792969 0.474609
vt 0.791016 0.474609
vt 0.791016 0.468750
vt 0.792969 0.468750
vt 0.802734 0.474609
vt 0.800781 0.474609
vt 0.800781 0.468750
vt 0.802734 0.468750
vt 0.800782 0.474609
vt 0.792969 0.474609
vt 0.792969 0.468750
vt 0.800782 0.468750
vt 0.009766 0.458984
vt 0.013672 0.458984
vt 0.013672 0.466797
vt 0.009766 0.466797
vt 0.013672 0.458984
vt 0.017578 0.458984
vt 0.017578 0.466797
vt 0.013672 0.466797
vt 0.009766 0.447266
vt 0.013672 0.447266
vt 0.025391 0.458984
vt 0.021484 0.458984
vt 0.021484 0.447266
vt 0.025391 0.447266
vt 0.021485 0.458984
vt 0.013672 0.458984
vt 0.013672 0.447266
vt 0.021485 0.447266
vt 0.302734 0.437500
vt 0.294922 0.437500
vt 0.294922 0.435547
vt 0.302734 0.435547
vt 0.042969 0.458984
vt 0.044922 0.458984
vt 0.044922 0.466797
vt 0.042969 0.466797
vt 0.042969 0.458984
vt 0.041016 0.458984
vt 0.041016 0.453125
vt 0.042969 0.453125
vt 0.052734 0.458984
vt 0.050781 0.458984
vt 0.050781 0.453125
vt 0.052734 0.453125
vt 0.050782 0.458984
vt 0.042969 0.458984
vt 0.042969 0.453125
vt 0.050782 0.453125
vt 0.291016 0.443359
vt 0.294922 0.443359
vt 0.294922 0.451172
vt 0.291016 0.451172
vt 0.294922 0.443359
vt 0.298828 0.443359
vt 0.298828 0.451172
vt 0.294922 0.451172
vt 0.291016 0.431641
vt 0.294922 0.431641
vt 0.306641 0.443359
vt 0.302734 0.443359
vt 0.302734 0.431641
vt 0.306641 0.431641
vt 0.302735 0.443359
vt 0.294922 0.443359
vt 0.294922 0.431641
vt 0.302735 0.431641
vt 0.974609 0.414063
vt 0.943359 0.414063
vt 0.943359 0.412109
vt 0.974609 0.412109
vt 0.644531 0.419922
vt 0.646484 0.419922
vt 0.646484 0.451172
vt 0.644531 0.451172
vt 0.644531 0.419922
vt 0.642578 0.419922
vt 0.642578 0.414062
vt 0.644531 0.414062
vt 0.677734 0.419922
vt 0.675781 0.419922
vt 0.675781 0.414062
vt 0.677734 0.414062
vt 0.675781 0.419922
vt 0.644531 0.419922
vt 0.644531 0.414062
vt 0.675781 0.414062
vt 0.939453 0.419922
vt 0.943359 0.419922
vt 0.943359 0.451172
vt 0.939453 0.451172
vt 0.943359 0.419922
vt 0.947266 0.419922
vt 0.947266 0.451172
vt 0.943359 0.451172
vt 0.939453 0.408203
vt 0.943359 0.408203
vt 0.978516 0.419922
vt 0.974609 0.419922
vt 0.974609 0.408203
vt 0.978516 0.408203
vt 0.974609 0.419922
vt 0.943359 0.419922
vt 0.943359 0.408203
vt 0.974609 0.408203
vt 0.787109 0.398438
vt 0.755859 0.398438
vt 0.755859 0.396484
vt 0.787109 0.396484
vt 0.207031 0.404297
vt 0.208984 0.404297
vt 0.208984 0.435547
vt 0.207031 0.435547
vt 0.207031 0.404297
vt 0.205078 0.404297
vt 0.205078 0.398438
vt 0.207031 0.398438
vt 0.240234 0.404297
vt 0.238281 0.404297
vt 0.238281 0.398438
vt 0.240234 0.398438
vt 0.238281 0.404297
vt 0.207031 0.404297
vt 0.207031 0.398438
vt 0.238281 0.398438
vt 0.751953 0.404297
vt 0.755859 0.404297
vt 0.755859 0.435547
vt 0.751953 0.435547
vt 0.755859 0.404297
vt 0.759766 0.404297
vt 0.759766 0.435547
vt 0.755859 0.435547
vt 0.751953 0.392578
vt 0.755859 0.392578
vt 0.791016 0.404297
vt 0.787109 0.404297
vt 0.787109 0.392578
vt 0.791016 0.392578
vt 0.787109 0.404297
vt 0.755859 0.404297
vt 0.755859 0.392578
vt 0.787109 0.392578
vn 0.0000 1.0000 0.0000
vn 0.0000 -1.0000 0.0000
vn -1.0000 -0.0000 0.0000
vn 1.0000 0.0000 0.0000
vn 0.0000 0.3162 0.9487
vn 0.0000 -0.3162 -0.9487
vn 0.0000 -0.8944 -0.4472
vn 0.0000 -0.0000 1.0000
vn 0.0000 0.0000 -1.0000
usemtl m_b3cf493b-7d74-1604-9612-a5aff4855e2b
s 1
f 29/91/9 30/92/9 31/93/9 32/94/9
f 33/95/10 34/96/10 35/97/10 36/98/10
f 30/99/11 29/100/11 36/101/11 35/102/11
f 32/103/12 31/104/12 34/105/12 33/106/12
f 31/104/13 30/99/13 35/102/13 34/105/13
f 29/107/14 32/108/14 33/109/14 36/110/14
f 37/111/9 38/112/9 39/113/9 40/114/9
f 41/115/15 42/116/15 43/117/15 44/118/15
f 38/112/11 37/111/11 44/119/11 43/120/11
f 40/121/12 39/122/12 42/123/12 41/124/12
f 39/122/16 38/112/16 43/120/16 42/123/16
f 37/125/17 40/126/17 41/127/17 44/128/17
f 45/129/9 46/130/9 47/131/9 48/132/9
f 49/133/10 50/134/10 51/135/10 52/136/10
f 46/137/11 45/138/11 52/139/11 51/140/11
f 48/141/12 47/142/12 50/143/12 49/144/12
f 47/142/13 46/137/13 51/140/13 50/143/13
f 45/145/14 48/146/14 49/147/14 52/148/14
f 53/149/9 54/150/9 55/151/9 56/152/9
f 57/153/15 58/154/15 59/155/15 60/156/15
f 54/150/11 53/149/11 60/157/11 59/158/11
f 56/159/12 55/160/12 58/161/12 57/162/12
f 55/160/16 54/150/16 59/158/16 58/161/16
f 53/163/17 56/164/17 57/165/17 60/166/17
f 61/167/9 62/168/9 63/169/9 64/170/9
f 65/171/10 66/172/10 67/173/10 68/174/10
f 62/175/11 61/176/11 68/177/11 67/178/11
f 64/179/12 63/180/12 66/181/12 65/182/12
f 63/180/13 62/175/13 67/178/13 66/181/13
f 61/183/14 64/184/14 65/185/14 68/186/14
f 69/187/9 70/188/9 71/189/9 72/190/9
f 73/191/15 74/192/15 75/193/15 76/194/15
f 70/188/11 69/187/11 76/195/11 75/196/11
f 72/197/12 71/198/12 74/199/12 73/200/12
f 71/198/16 70/188/16 75/196/16 74/199/16
f 69/201/17 72/202/17 73/203/17 76/204/17
f 77/205/9 78/206/9 79/207/9 80/208/9
f 81/209/10 82/210/10 83/211/10 84/212/10
f 78/213/11 77/214/11 84/215/11 83/216/11
f 80/217/12 79/218/12 82/219/12 81/220/12
f 79/218/13 78/213/13 83/216/13 82/219/13
f 77/221/14 80/222/14 81/223/14 84/224/14
f 85/225/9 86/226/9 87/227/9 88/228/9
f 89/229/15 90/230/15 91/231/15 92/232/15
f 86/226/11 85/225/11 92/233/11 91/234/11
f 88/235/12 87/236/12 90/237/12 89/238/12
f 87/236/16 86/226/16 91/234/16 90/237/16
f 85/239/17 88/240/17 89/241/17 92/242/17
o $GlassFrame
v 0.296875 0.812500 -0.060250
v 0.296875 0.812500 -0.029000
v 0.328125 0.812500 -0.029000
v 0.328125 0.812500 -0.060250
v 0.323688 0.062500 -0.033500
v 0.323688 0.062500 -0.002250
v 0.292438 0.062500 -0.002250
v 0.292438 0.062500 -0.033500
v -0.328125 0.812500 -0.060250
v -0.328125 0.812500 -0.029000
v -0.296875 0.812500 -0.029000
v -0.296875 0.812500 -0.060250
v -0.301312 0.062500 -0.033500
v -0.301312 0.062500 -0.002250
v -0.332562 0.062500 -0.002250
v -0.332562 0.062500 -0.033500
vt 0.535156 0.839844
vt 0.537109 0.839844
vt 0.537109 0.841797
vt 0.535156 0.841797
vt 0.537109 0.839844
vt 0.539062 0.839844
vt 0.539062 0.841797
vt 0.537109 0.841797
vt 0.535156 0.814453
vt 0.537109 0.814453
vt 0.541016 0.839844
vt 0.539062 0.839844
vt 0.539062 0.814453
vt 0.541016 0.814453
vt 0.533203 0.839844
vt 0.533203 0.814453
vt 0.535156 0.839844
vt 0.537109 0.839844
vt 0.537109 0.841797
vt 0.535156 0.841797
vt 0.537109 0.839844
vt 0.539062 0.839844
vt 0.539062 0.841797
vt 0.537109 0.841797
vt 0.535156 0.814453
vt 0.537109 0.814453
vt 0.541016 0.839844
vt 0.539062 0.839844
vt 0.539062 0.814453
vt 0.541016 0.814453
vt 0.533203 0.839844
vt 0.533203 0.814453
vn 0.0000 1.0000 0.0000
vn 0.0000 -1.0000 0.0000
vn -1.0000 0.0059 0.0000
vn 1.0000 -0.0059 0.0000
vn 0.0000 0.0356 0.9994
vn 0.0000 -0.0356 -0.9994
usemtl m_b3cf493b-7d74-1604-9612-a5aff4855e2b
s 1
f 93/243/18 94/244/18 95/245/18 96/246/18
f 97/247/19 98/248/19 99/249/19 100/250/19
f 94/244/20 93/243/20 100/251/20 99/252/20
f 96/253/21 95/254/21 98/255/21 97/256/21
f 95/254/22 94/244/22 99/252/22 98/255/22
f 93/243/23 96/257/23 97/258/23 100/251/23
f 101/259/18 102/260/18 103/261/18 104/262/18
f 105/263/19 106/264/19 107/265/19 108/266/19
f 102/260/20 101/259/20 108/267/20 107/268/20
f 104/269/21 103/270/21 106/271/21 105/272/21
f 103/270/22 102/260/22 107/268/22 106/271/22
f 101/259/23 104/273/23 105/274/23 108/267/23
o $DoorBack_Bottom
v -1.250000 0.000000 -0.062500
v -1.250000 0.000000 0.000000
v -1.062500 0.000000 0.000000
v -1.062500 0.000000 -0.062500
v -1.062500 -0.187500 0.000000
v -1.062500 -0.187500 0.062500
v -1.250000 -0.187500 0.062500
v -1.250000 -0.187500 0.000000
v -1.250000 -0.187500 0.000000
v -1.250000 -0.187500 0.062500
v -1.062500 -0.187500 0.062500
v -1.062500 -0.187500 0.000000
v -1.062500 -0.562500 0.000000
v -1.062500 -0.593750 0.062500
v -1.250000 -0.593750 0.062500
v -1.250000 -0.562500 0.000000
v 1.062500 0.000000 -0.062500
v 1.062500 0.000000 0.000000
v 1.250000 0.000000 0.000000
v 1.250000 0.000000 -0.062500
v 1.250000 -0.187500 0.000000
v 1.250000 -0.187500 0.062500
v 1.062500 -0.187500 0.062500
v 1.062500 -0.187500 0.000000
v 1.062500 -0.187500 0.000000
v 1.062500 -0.187500 0.062500
v 1.250000 -0.187500 0.062500
v 1.250000 -0.187500 0.000000
v 1.250000 -0.562500 0.000000
v 1.250000 -0.593750 0.062500
v 1.062500 -0.593750 0.062500
v 1.062500 -0.562500 0.000000
v 0.000000 0.000000 -0.062500
v 0.000000 0.000000 0.000000
v 1.062500 0.000000 0.000000
v 1.062500 0.000000 -0.062500
v 1.062500 -0.187500 0.000000
v 1.062500 -0.187500 0.062500
v 0.000000 -0.187500 0.062500
v 0.000000 -0.187500 0.000000
v 0.000000 -0.187500 0.000000
v 0.000000 -0.187500 0.062500
v 1.062500 -0.187500 0.062500
v 1.062500 -0.187500 0.000000
v 1.062500 -0.562500 0.000000
v 1.062500 -0.593750 0.062500
v 0.000000 -0.593750 0.062500
v 0.000000 -0.562500 0.000000
v -1.062500 0.000000 -0.062500
v -1.062500 0.000000 0.000000
v 0.000000 0.000000 0.000000
v 0.000000 0.000000 -0.062500
v 0.000000 -0.187500 0.000000
v 0.000000 -0.187500 0.062500
v -1.062500 -0.187500 0.062500
v -1.062500 -0.187500 0.000000
v -1.062500 -0.187500 0.000000
v -1.062500 -0.187500 0.062500
v 0.000000 -0.187500 0.062500
v 0.000000 -0.187500 0.000000
v 0.000000 -0.562500 0.000000
v 0.000000 -0.593750 0.062500
v -1.062500 -0.593750 0.062500
v -1.062500 -0.562500 0.000000
vt 0.021484 0.453125
vt 0.013672 0.453125
vt 0.013672 0.451172
vt 0.021484 0.451172
vt 0.792969 0.474609
vt 0.794922 0.474609
vt 0.794922 0.482422
vt 0.792969 0.482422
vt 0.792969 0.474609
vt 0.791016 0.474609
vt 0.791016 0.468750
vt 0.792969 0.468750
vt 0.802734 0.474609
vt 0.800781 0.474609
vt 0.800781 0.468750
vt 0.802734 0.468750
vt 0.783203 0.474609
vt 0.783203 0.468750
vt 0.009766 0.458984
vt 0.013672 0.458984
vt 0.013672 0.466797
vt 0.009766 0.466797
vt 0.013672 0.458984
vt 0.017578 0.458984
vt 0.017578 0.466797
vt 0.013672 0.466797
vt 0.009766 0.447266
vt 0.013672 0.447266
vt 0.025391 0.458984
vt 0.021484 0.458984
vt 0.021484 0.447266
vt 0.025391 0.447266
vt 0.001953 0.458984
vt 0.001953 0.447266
vt 0.302734 0.437500
vt 0.294922 0.437500
vt 0.294922 0.435547
vt 0.302734 0.435547
vt 0.042969 0.458984
vt 0.044922 0.458984
vt 0.044922 0.466797
vt 0.042969 0.466797
vt 0.042969 0.458984
vt 0.041016 0.458984
vt 0.041016 0.453125
vt 0.042969 0.453125
vt 0.052734 0.458984
vt 0.050781 0.458984
vt 0.050781 0.453125
vt 0.052734 0.453125
vt 0.033203 0.458984
vt 0.033203 0.453125
vt 0.291016 0.443359
vt 0.294922 0.443359
vt 0.294922 0.451172
vt 0.291016 0.451172
vt 0.294922 0.443359
vt 0.298828 0.443359
vt 0.298828 0.451172
vt 0.294922 0.451172
vt 0.291016 0.431641
vt 0.294922 0.431641
vt 0.306641 0.443359
vt 0.302734 0.443359
vt 0.302734 0.431641
vt 0.306641 0.431641
vt 0.283203 0.443359
vt 0.283203 0.431641
vt 0.974609 0.414063
vt 0.943359 0.414063
vt 0.943359 0.412109
vt 0.974609 0.412109
vt 0.644531 0.419922
vt 0.646484 0.419922
vt 0.646484 0.451172
vt 0.644531 0.451172
vt 0.644531 0.419922
vt 0.642578 0.419922
vt 0.642578 0.414062
vt 0.644531 0.414062
vt 0.677734 0.419922
vt 0.675781 0.419922
vt 0.675781 0.414062
vt 0.677734 0.414062
vt 0.611328 0.419922
vt 0.611328 0.414062
vt 0.939453 0.419922
vt 0.943359 0.419922
vt 0.943359 0.451172
vt 0.939453 0.451172
vt 0.943359 0.419922
vt 0.947266 0.419922
vt 0.947266 0.451172
vt 0.943359 0.451172
vt 0.939453 0.408203
vt 0.943359 0.408203
vt 0.978516 0.419922
vt 0.974609 0.419922
vt 0.974609 0.408203
vt 0.978516 0.408203
vt 0.908203 0.419922
vt 0.908203 0.408203
vt 0.787109 0.398438
vt 0.755859 0.398438
vt 0.755859 0.396484
vt 0.787109 0.396484
vt 0.207031 0.404297
vt 0.208984 0.404297
vt 0.208984 0.435547
vt 0.207031 0.435547
vt 0.207031 0.404297
vt 0.205078 0.404297
vt 0.205078 0.398438
vt 0.207031 0.398438
vt 0.240234 0.404297
vt 0.238281 0.404297
vt 0.238281 0.398438
vt 0.240234 0.398438
vt 0.173828 0.404297
vt 0.173828 0.398438
vt 0.751953 0.404297
vt 0.755859 0.404297
vt 0.755859 0.435547
vt 0.751953 0.435547
vt 0.755859 0.404297
vt 0.759766 0.404297
vt 0.759766 0.435547
vt 0.755859 0.435547
vt 0.751953 0.392578
vt 0.755859 0.392578
vt 0.791016 0.404297
vt 0.787109 0.404297
vt 0.787109 0.392578
vt 0.791016 0.392578
vt 0.720703 0.404297
vt 0.720703 0.392578
vn 0.0000 1.0000 0.0000
vn 0.0000 -1.0000 0.0000
vn -1.0000 -0.0000 0.0000
vn 1.0000 0.0000 0.0000
vn 0.0000 0.3162 0.9487
vn 0.0000 -0.3162 -0.9487
vn 0.0000 -0.8944 -0.4472
vn 0.0000 -0.0000 1.0000
vn 0.0000 0.0000 -1.0000
usemtl m_b3cf493b-7d74-1604-9612-a5aff4855e2b
s 1
f 109/275/24 110/276/24 111/277/24 112/278/24
f 113/279/25 114/280/25 115/281/25 116/282/25
f 110/283/26 109/284/26 116/285/26 115/286/26
f 112/287/27 111/288/27 114/289/27 113/290/27
f 111/288/28 110/283/28 115/286/28 114/289/28
f 109/284/29 112/291/29 113/292/29 116/285/29
f 117/293/24 118/294/24 119/295/24 120/296/24
f 121/297/30 122/298/30 123/299/30 124/300/30
f 118/294/26 117/293/26 124/301/26 123/302/26
f 120/303/27 119/304/27 122/305/27 121/306/27
f 119/304/31 118/294/31 123/302/31 122/305/31
f 117/293/32 120/307/32 121/308/32 124/301/32
f 125/309/24 126/310/24 127/311/24 128/312/24
f 129/313/25 130/314/25 131/315/25 132/316/25
f 126/317/26 125/318/26 132/319/26 131/320/26
f 128/321/27 127/322/27 130/323/27 129/324/27
f 127/322/28 126/317/28 131/320/28 130/323/28
f 125/318/29 128/325/29 129/326/29 132/319/29
f 133/327/24 134/328/24 135/329/24 136/330/24
f 137/331/30 138/332/30 139/333/30 140/334/30
f 134/328/26 133/327/26 140/335/26 139/336/26
f 136/337/27 135/338/27 138/339/27 137/340/27
f 135/338/31 134/328/31 139/336/31 138/339/31
f 133/327/32 136/341/32 137/342/32 140/335/32
f 141/343/24 142/344/24 143/345/24 144/346/24
f 145/347/25 146/348/25 147/349/25 148/350/25
f 142/351/26 141/352/26 148/353/26 147/354/26
f 144/355/27 143/356/27 146/357/27 145/358/27
f 143/356/28 142/351/28 147/354/28 146/357/28
f 141/352/29 144/359/29 145/360/29 148/353/29
f 149/361/24 150/362/24 151/363/24 152/364/24
f 153/365/30 154/366/30 155/367/30 156/368/30
f 150/362/26 149/361/26 156/369/26 155/370/26
f 152/371/27 151/372/27 154/373/27 153/374/27
f 151/372/31 150/362/31 155/370/31 154/373/31
f 149/361/32 152/375/32 153/376/32 156/369/32
f 157/377/24 158/378/24 159/379/24 160/380/24
f 161/381/25 162/382/25 163/383/25 164/384/25
f 158/385/26 157/386/26 164/387/26 163/388/26
f 160/389/27 159/390/27 162/391/27 161/392/27
f 159/390/28 158/385/28 163/388/28 162/391/28
f 157/386/29 160/393/29 161/394/29 164/387/29
f 165/395/24 166/396/24 167/397/24 168/398/24
f 169/399/30 170/400/30 171/401/30 172/402/30
f 166/396/26 165/395/26 172/403/26 171/404/26
f 168/405/27 167/406/27 170/407/27 169/408/27
f 167/406/31 166/396/31 171/404/31 170/407/31
f 165/395/32 168/409/32 169/410/32 172/403/32
o $Window_Back_Left
v 0.312500 0.812500 -0.044625
v 0.875000 0.812500 -0.044625
v 0.875000 0.062500 -0.017875
v 0.312500 0.062500 -0.017875
vt 0.064453 0.533203
vt 0.033203 0.533203
vt 0.033203 0.501953
vt 0.064453 0.501953
vn 0.0000 -0.0356 -0.9994
usemtl m_b3cf493b-7d74-1604-9612-a5aff4855e2b
s 1
f 173/411/33 174/412/33 175/413/33 176/414/33
o $Window_Back_Right
v -0.875000 0.812500 -0.044625
v -0.312500 0.812500 -0.044625
v -0.312500 0.062500 -0.017875
v -0.875000 0.062500 -0.017875
vt 0.064453 0.533203
vt 0.033203 0.533203
vt 0.033203 0.501953
vt 0.064453 0.501953
vn 0.0000 -0.0356 -0.9994
usemtl m_b3cf493b-7d74-1604-9612-a5aff4855e2b
s 1
f 177/415/34 178/416/34 179/417/34 180/418/34
o $Window_Back
v -0.875000 0.812500 -0.044625
v 0.875000 0.812500 -0.044625
v 0.875000 0.062500 -0.017875
v -0.875000 0.062500 -0.017875
vt 0.064453 0.533203
vt 0.033203 0.533203
vt 0.033203 0.501953
vt 0.064453 0.501953
vn 0.0000 -0.0356 -0.9994
usemtl m_b3cf493b-7d74-1604-9612-a5aff4855e2b
s 1
f 181/419/35 182/420/35 183/421/35 184/422/35
o $Window_Back_Middle
v -0.312500 0.812500 -0.036812
v 0.312500 0.812500 -0.036812
v 0.312500 0.062500 -0.010062
v -0.312500 0.062500 -0.010062
vt 0.064453 0.533203
vt 0.033203 0.533203
vt 0.033203 0.501953
vt 0.064453 0.501953
vn 0.0000 -0.0356 -0.9994
usemtl m_b3cf493b-7d74-1604-9612-a5aff4855e2b
s 1
f 185/423/36 186/424/36 187/425/36 188/426/36
