# Blender v2.79 (sub 0) OBJ File: ''
# www.blender.org
mtllib sporttrack_bumperfront.mtl
o $Bumper_Front
v -1.125000 0.124981 -0.093750
v -1.125000 0.124981 0.031250
v 1.125000 0.124981 0.031250
v 1.125000 0.124981 -0.093750
v 1.125000 -0.125019 -0.093750
v 1.125000 -0.125019 0.031250
v -1.125000 -0.125019 0.031250
v -1.125000 -0.125019 -0.093750
v -1.406250 0.124981 -0.125000
v -1.343750 0.124981 0.000000
v -1.125000 0.124981 0.031250
v -1.125000 0.124981 -0.093750
v -1.125000 -0.125019 -0.093750
v -1.125000 -0.125019 0.031250
v -1.343750 -0.125019 0.000000
v -1.406250 -0.125019 -0.125000
v 1.125000 0.124981 -0.093750
v 1.125000 0.124981 0.031250
v 1.343750 0.124981 0.000000
v 1.406250 0.124981 -0.125000
v 1.406250 -0.125019 -0.125000
v 1.343750 -0.125019 0.000000
v 1.125000 -0.125019 0.031250
v 1.125000 -0.125019 -0.093750
v -1.125000 -0.000019 -0.078125
v -1.125000 -0.000019 0.046875
v 1.125000 -0.000019 0.046875
v 1.125000 -0.000019 -0.078125
v 1.125000 -0.062519 -0.078125
v 1.125000 -0.062519 0.046875
v -1.125000 -0.062519 0.046875
v -1.125000 -0.062519 -0.078125
v -1.406250 -0.000019 -0.109375
v -1.343750 -0.000019 0.015625
v -1.125000 -0.000019 0.046875
v -1.125000 -0.000019 -0.078125
v -1.125000 -0.062519 -0.078125
v -1.125000 -0.062519 0.046875
v -1.343750 -0.062519 0.015625
v -1.406250 -0.062519 -0.109375
v 1.125000 -0.000019 -0.078125
v 1.125000 -0.000019 0.046875
v 1.343750 -0.000019 0.015625
v 1.406250 -0.000019 -0.109375
v 1.406250 -0.062519 -0.109375
v 1.343750 -0.062519 0.015625
v 1.125000 -0.062519 0.046875
v 1.125000 -0.062519 -0.078125
vt 0.212891 0.880859
vt 0.214844 0.880859
vt 0.214844 0.951172
vt 0.212891 0.951172
vt 0.214844 0.880859
vt 0.216797 0.880859
vt 0.216797 0.951172
vt 0.214844 0.951172
vt 0.212891 0.873047
vt 0.214844 0.873047
vt 0.287109 0.880859
vt 0.285156 0.880859
vt 0.285156 0.873047
vt 0.287109 0.873047
vt 0.142578 0.880859
vt 0.142578 0.873047
vt 0.369141 0.974609
vt 0.371094 0.974609
vt 0.371094 0.982422
vt 0.369141 0.982422
vt 0.371094 0.974609
vt 0.373047 0.974609
vt 0.373047 0.982422
vt 0.371094 0.982422
vt 0.369141 0.966797
vt 0.371094 0.966797
vt 0.380859 0.974609
vt 0.378906 0.974609
vt 0.378906 0.966797
vt 0.380859 0.966797
vt 0.361328 0.974609
vt 0.361328 0.966797
vt 0.462891 0.974609
vt 0.464844 0.974609
vt 0.464844 0.982422
vt 0.462891 0.982422
vt 0.464844 0.974609
vt 0.466797 0.974609
vt 0.466797 0.982422
vt 0.464844 0.982422
vt 0.462891 0.966797
vt 0.464844 0.966797
vt 0.474609 0.974609
vt 0.472656 0.974609
vt 0.472656 0.966797
vt 0.474609 0.966797
vt 0.455078 0.974609
vt 0.455078 0.966797
vt 0.005859 0.996094
vt 0.007812 0.996094
vt 0.007812 0.998047
vt 0.005859 0.998047
vt 0.005859 0.996094
vt 0.007812 0.996094
vt 0.007812 0.998047
vt 0.005859 0.998047
vt 0.005859 0.996094
vt 0.007812 0.996094
vt 0.007812 0.998047
vt 0.005859 0.998047
vt 0.005859 0.996094
vt 0.007812 0.996094
vt 0.007812 0.998047
vt 0.005859 0.998047
vt 0.005859 0.996094
vt 0.005859 0.998047
vt 0.007812 0.996094
vt 0.007812 0.998047
vt 0.005859 0.996094
vt 0.007812 0.996094
vt 0.007812 0.998047
vt 0.005859 0.998047
vt 0.005859 0.996094
vt 0.007812 0.996094
vt 0.007812 0.998047
vt 0.005859 0.998047
vt 0.005859 0.996094
vt 0.007812 0.996094
vt 0.007812 0.998047
vt 0.005859 0.998047
vt 0.005859 0.996094
vt 0.007812 0.996094
vt 0.007812 0.998047
vt 0.005859 0.998047
vt 0.005859 0.996094
vt 0.005859 0.998047
vt 0.007812 0.996094
vt 0.007812 0.998047
vt 0.005859 0.996094
vt 0.007812 0.996094
vt 0.007812 0.998047
vt 0.005859 0.998047
vt 0.005859 0.996094
vt 0.007812 0.996094
vt 0.007812 0.998047
vt 0.005859 0.998047
vt 0.005859 0.996094
vt 0.007812 0.996094
vt 0.007812 0.998047
vt 0.005859 0.998047
vt 0.005859 0.996094
vt 0.007812 0.996094
vt 0.007812 0.998047
vt 0.005859 0.998047
vt 0.005859 0.996094
vt 0.005859 0.998047
vt 0.007812 0.996094
vt 0.007812 0.998047
vn 0.0000 1.0000 0.0000
vn 0.0000 -1.0000 0.0000
vn -1.0000 0.0000 0.0000
vn 1.0000 0.0000 0.0000
vn 0.0000 0.0000 1.0000
vn 0.0000 0.0000 -1.0000
vn -0.8944 0.0000 0.4472
vn -0.1414 0.0000 0.9899
vn 0.1104 0.0000 -0.9939
vn 0.8944 0.0000 0.4472
vn 0.1414 0.0000 0.9899
vn -0.1104 0.0000 -0.9939
usemtl m_5f4ee3e5-16cd-b7dc-6745-3440c3e00367
s 1
f 1/1/1 2/2/1 3/3/1 4/4/1
f 5/5/2 6/6/2 7/7/2 8/8/2
f 2/2/3 1/1/3 8/9/3 7/10/3
f 4/11/4 3/12/4 6/13/4 5/14/4
f 3/12/5 2/2/5 7/10/5 6/13/5
f 1/1/6 4/15/6 5/16/6 8/9/6
f 9/17/1 10/18/1 11/19/1 12/20/1
f 13/21/2 14/22/2 15/23/2 16/24/2
f 10/18/7 9/17/7 16/25/7 15/26/7
f 12/27/4 11/28/4 14/29/4 13/30/4
f 11/28/8 10/18/8 15/26/8 14/29/8
f 9/17/9 12/31/9 13/32/9 16/25/9
f 17/33/1 18/34/1 19/35/1 20/36/1
f 21/37/2 22/38/2 23/39/2 24/40/2
f 18/34/3 17/33/3 24/41/3 23/42/3
f 20/43/10 19/44/10 22/45/10 21/46/10
f 19/44/11 18/34/11 23/42/11 22/45/11
f 17/33/12 20/47/12 21/48/12 24/41/12
f 25/49/1 26/50/1 27/51/1 28/52/1
f 29/53/2 30/54/2 31/55/2 32/56/2
f 26/57/3 25/58/3 32/59/3 31/60/3
f 28/61/4 27/62/4 30/63/4 29/64/4
f 27/65/5 26/50/5 31/55/5 30/66/5
f 25/49/6 28/67/6 29/68/6 32/56/6
f 33/69/1 34/70/1 35/71/1 36/72/1
f 37/73/2 38/74/2 39/75/2 40/76/2
f 34/77/7 33/78/7 40/79/7 39/80/7
f 36/81/4 35/82/4 38/83/4 37/84/4
f 35/85/8 34/70/8 39/75/8 38/86/8
f 33/69/9 36/87/9 37/88/9 40/76/9
f 41/89/1 42/90/1 43/91/1 44/92/1
f 45/93/2 46/94/2 47/95/2 48/96/2
f 42/97/3 41/98/3 48/99/3 47/100/3
f 44/101/10 43/102/10 46/103/10 45/104/10
f 43/105/11 42/90/11 47/95/11 46/106/11
f 41/89/12 44/107/12 45/108/12 48/96/12
