# Blender v2.79 (sub 0) OBJ File: ''
# www.blender.org
mtllib steeringwheel_airbag.mtl
o airbag
v 0.093750 0.250000 -0.343750
v 0.062500 0.062500 -0.156250
v 0.062500 -0.062500 -0.156250
v 0.093750 -0.250000 -0.343750
v -0.062500 -0.062500 -0.156250
v -0.062500 0.062500 -0.156250
v -0.093750 0.250000 -0.343750
v -0.093750 -0.250000 -0.343750
v 0.093750 0.156250 -0.500000
v 0.093750 0.250000 -0.343750
v 0.093750 -0.250000 -0.343750
v 0.093750 -0.156250 -0.500000
v -0.093750 -0.250000 -0.343750
v -0.093750 0.250000 -0.343750
v -0.093750 0.156250 -0.500000
v -0.093750 -0.156250 -0.500000
v 0.218750 0.156250 -0.437500
v 0.281250 0.218750 -0.343750
v 0.281250 -0.218750 -0.343750
v 0.218750 -0.156250 -0.437500
v 0.093750 -0.250000 -0.343750
v 0.093750 0.250000 -0.343750
v 0.093750 0.156250 -0.500000
v 0.093750 -0.156250 -0.500000
v 0.281250 0.218750 -0.343750
v 0.218750 0.062500 -0.218750
v 0.218750 -0.062500 -0.218750
v 0.281250 -0.218750 -0.343750
v 0.062500 -0.062500 -0.156250
v 0.062500 0.062500 -0.156250
v 0.093750 0.250000 -0.343750
v 0.093750 -0.250000 -0.343750
v -0.281250 -0.218750 -0.343750
v -0.281250 0.218750 -0.343750
v -0.218750 0.156250 -0.437500
v -0.218750 -0.156250 -0.437500
v -0.093750 0.156250 -0.500000
v -0.093750 0.250000 -0.343750
v -0.093750 -0.250000 -0.343750
v -0.093750 -0.156250 -0.500000
v -0.218750 -0.062500 -0.218750
v -0.218750 0.062500 -0.218750
v -0.281250 0.218750 -0.343750
v -0.281250 -0.218750 -0.343750
v -0.093750 0.250000 -0.343750
v -0.062500 0.062500 -0.156250
v -0.062500 -0.062500 -0.156250
v -0.093750 -0.250000 -0.343750
vt 0.906250 0.984375
vt 0.875000 0.937500
vt 0.875000 0.906250
vt 0.906250 0.859375
vt 0.984375 0.906250
vt 0.984375 0.937500
vt 0.953125 0.984375
vt 0.953125 0.859375
vt 0.820312 0.928038
vt 0.851562 0.928038
vt 0.859375 0.984375
vt 0.812500 0.984375
vt 0.859375 0.840452
vt 0.851562 0.896788
vt 0.820312 0.896788
vt 0.812500 0.840452
vt 0.796875 0.960938
vt 0.765625 0.984375
vt 0.765625 0.859375
vt 0.796875 0.882812
vt 0.718750 0.859375
vt 0.718750 0.984375
vt 0.687500 0.960938
vt 0.687500 0.882812
vt 0.671875 0.984375
vt 0.625000 0.984375
vt 0.625000 0.937500
vt 0.671875 0.937500
vt 0.625000 0.859375
vt 0.625000 0.812500
vt 0.671875 0.812500
vt 0.671875 0.859375
vt 0.928347 0.796875
vt 0.906250 0.812500
vt 0.906250 0.703125
vt 0.928347 0.718750
vt 0.843750 0.687500
vt 0.843750 0.812500
vt 0.812500 0.789062
vt 0.812500 0.710938
vt 0.985021 0.687500
vt 0.937500 0.687500
vt 0.950343 0.663679
vt 0.981169 0.649552
vt 0.914446 0.659678
vt 0.890625 0.672521
vt 0.890625 0.625000
vt 0.928573 0.628852
vt 0.890625 0.695312
vt 0.890625 0.804688
vt 0.963286 0.796875
vt 0.963286 0.718750
vt 0.703125 0.784505
vt 0.681028 0.745442
vt 0.681028 0.714192
vt 0.703125 0.675130
vt 0.796875 0.718750
vt 0.796875 0.750000
vt 0.765625 0.796875
vt 0.765625 0.671875
vt 0.638956 0.745442
vt 0.701339 0.785462
vt 0.657816 0.796875
vt 0.701339 0.674170
vt 0.638956 0.714192
vt 0.657816 0.662759
vt 0.718750 0.789062
vt 0.718750 0.679688
vt 1.000000 0.500000
vt 1.000000 0.609375
vt 0.977903 0.593750
vt 0.977903 0.515625
vt 0.921875 0.585938
vt 0.890625 0.609375
vt 0.890625 0.484375
vt 0.921875 0.507812
vt 0.982877 0.449697
vt 1.000000 0.436854
vt 1.000000 0.484375
vt 0.968750 0.480523
vt 0.905604 0.437500
vt 0.953125 0.437500
vt 0.940282 0.454623
vt 0.909456 0.468750
vt 0.843750 0.601562
vt 0.843750 0.492188
vt 0.942964 0.593750
vt 0.942964 0.515625
vt 0.665875 0.557942
vt 0.664463 0.589160
vt 0.640625 0.627185
vt 0.645564 0.517922
vt 0.781250 0.625000
vt 0.750000 0.578125
vt 0.750000 0.546875
vt 0.781250 0.500000
vt 0.645564 0.629212
vt 0.665875 0.589192
vt 0.707947 0.589192
vt 0.689087 0.640625
vt 0.707947 0.557942
vt 0.689087 0.506509
vt 0.828125 0.507812
vt 0.828125 0.617188
vn 0.9864 0.0000 0.1644
vn -0.9864 0.0000 0.1644
vn 0.0000 0.7071 0.7071
vn 0.0000 -0.7071 0.7071
vn 0.0000 0.0000 1.0000
vn 0.0000 0.0000 -1.0000
vn 1.0000 0.0000 0.0000
vn -1.0000 0.0000 0.0000
vn 0.0000 0.8575 -0.5145
vn 0.0000 -0.8575 -0.5145
vn 0.8321 0.0000 -0.5547
vn 0.1304 0.7826 -0.6087
vn 0.1304 -0.7826 -0.6087
vn 0.4472 0.0000 -0.8944
vn 0.8944 0.0000 0.4472
vn -0.9864 0.0000 -0.1644
vn 0.3193 0.5108 0.7982
vn 0.3193 0.5109 0.7982
vn 0.3193 -0.5108 0.7982
vn 0.3193 -0.5109 0.7982
vn 0.3714 0.0000 0.9285
vn -0.8321 0.0000 -0.5547
vn -0.1304 0.7826 -0.6087
vn -0.1304 -0.7826 -0.6087
vn -0.4472 0.0000 -0.8944
vn -0.8944 0.0000 0.4472
vn 0.9864 0.0000 -0.1644
vn -0.3193 0.5108 0.7982
vn -0.3193 0.5109 0.7982
vn -0.3193 -0.5108 0.7982
vn -0.3193 -0.5109 0.7982
vn -0.3714 0.0000 0.9285
usemtl m_21adb02c-ffe6-8b65-a1b1-af3c9ee3d829
s 1
f 1/1/1 2/2/1 3/3/1 4/4/1
f 5/5/2 6/6/2 7/7/2 8/8/2
f 6/9/3 2/10/3 1/11/3 7/12/3
f 4/13/4 3/14/4 5/15/4 8/16/4
f 3/14/5 2/10/5 6/9/5 5/15/5
f 7/7/6 1/1/6 4/4/6 8/8/6
f 9/17/7 10/18/7 11/19/7 12/20/7
f 13/21/8 14/22/8 15/23/8 16/24/8
f 14/25/9 10/26/9 9/27/9 15/28/9
f 12/29/10 11/30/10 13/31/10 16/32/10
f 11/19/5 10/18/5 14/22/5 13/21/5
f 15/28/6 9/27/6 12/29/6 16/32/6
f 17/33/11 18/34/11 19/35/11 20/36/11
f 21/37/8 22/38/8 23/39/8 24/40/8
f 22/41/12 18/42/12 17/43/12 23/44/12
f 20/45/13 19/46/13 21/47/13 24/48/13
f 19/49/5 18/50/5 22/38/5 21/37/5
f 23/51/14 17/33/14 20/36/14 24/52/14
f 25/53/15 26/54/15 27/55/15 28/56/15
f 29/57/16 30/58/16 31/59/16 32/60/16
f 30/61/17 26/54/17 25/62/17 31/63/18
f 28/64/19 27/55/19 29/65/19 32/66/20
f 27/55/21 26/54/21 30/61/21 29/65/21
f 31/59/6 25/67/6 28/68/6 32/60/6
f 33/69/22 34/70/22 35/71/22 36/72/22
f 37/73/7 38/74/7 39/75/7 40/76/7
f 35/77/23 34/78/23 38/79/23 37/80/23
f 39/81/24 33/82/24 36/83/24 40/84/24
f 38/74/5 34/85/5 33/86/5 39/75/5
f 36/72/25 35/71/25 37/87/25 40/88/25
f 41/89/26 42/90/26 43/91/26 44/92/26
f 45/93/27 46/94/27 47/95/27 48/96/27
f 43/97/28 42/98/28 46/99/28 45/100/29
f 47/101/30 41/89/30 44/92/30 48/102/31
f 46/99/32 42/98/32 41/89/32 47/101/32
f 44/103/6 43/104/6 45/93/6 48/96/6
o airbag_base
v 0.062500 0.062500 -0.187500
v 0.093750 0.093750 -0.125000
v 0.093750 -0.093750 -0.125000
v 0.062500 -0.062500 -0.187500
v -0.093750 -0.093750 -0.125000
v -0.093750 0.093750 -0.125000
v -0.062500 0.062500 -0.187500
v -0.062500 -0.062500 -0.187500
vt 0.750000 0.476562
vt 0.734375 0.484375
vt 0.734375 0.437500
vt 0.750000 0.445312
vt 0.718750 0.437500
vt 0.718750 0.484375
vt 0.703125 0.476562
vt 0.703125 0.445312
vt 0.812500 0.484375
vt 0.765625 0.484375
vt 0.773438 0.468750
vt 0.804688 0.468750
vt 0.773438 0.453125
vt 0.765625 0.437500
vt 0.812500 0.437500
vt 0.804688 0.453125
vt 0.687500 0.437500
vt 0.687500 0.484375
vt 0.640625 0.484375
vt 0.640625 0.437500
vt 0.859375 0.468750
vt 0.828125 0.468750
vt 0.828125 0.437500
vt 0.859375 0.437500
vn 0.8944 0.0000 -0.4472
vn -0.8944 0.0000 -0.4472
vn 0.0000 0.8944 -0.4472
vn 0.0000 -0.8944 -0.4472
vn 0.0000 -0.0000 1.0000
vn 0.0000 0.0000 -1.0000
usemtl m_21adb02c-ffe6-8b65-a1b1-af3c9ee3d829
s 1
f 49/105/33 50/106/33 51/107/33 52/108/33
f 53/109/34 54/110/34 55/111/34 56/112/34
f 54/113/35 50/114/35 49/115/35 55/116/35
f 52/117/36 51/118/36 53/119/36 56/120/36
f 51/121/37 50/122/37 54/123/37 53/124/37
f 55/125/38 49/126/38 52/127/38 56/128/38
o steeringwheel
v 0.281250 0.156250 -0.132812
v 0.281250 0.156250 -0.070312
v 0.281250 -0.156250 -0.070313
v 0.281250 -0.156250 -0.132812
v 0.218750 -0.218750 -0.070313
v 0.218750 0.218750 -0.070312
v 0.218750 0.218750 -0.132812
v 0.218750 -0.218750 -0.132813
v 0.093750 0.281250 -0.132812
v 0.093750 0.281250 -0.070312
v 0.093750 0.218750 -0.070312
v 0.093750 0.218750 -0.132812
v -0.093750 0.218750 -0.070312
v -0.093750 0.281250 -0.070312
v -0.093750 0.281250 -0.132812
v -0.093750 0.218750 -0.132812
v 0.062500 -0.218750 -0.132813
v 0.062500 -0.218750 -0.070313
v 0.062500 -0.281250 -0.070313
v 0.062500 -0.281250 -0.132813
v -0.062500 -0.281250 -0.070313
v -0.062500 -0.218750 -0.070313
v -0.062500 -0.218750 -0.132813
v -0.062500 -0.281250 -0.132813
v 0.218750 -0.156250 -0.132812
v 0.218750 -0.156250 -0.070313
v 0.218750 -0.218750 -0.070313
v 0.218750 -0.218750 -0.132813
v 0.062500 -0.281250 -0.070313
v 0.062500 -0.218750 -0.070313
v 0.062500 -0.218750 -0.132813
v 0.062500 -0.281250 -0.132813
v 0.218750 0.218750 -0.132812
v 0.218750 0.218750 -0.070312
v 0.218750 0.156250 -0.070312
v 0.218750 0.156250 -0.132812
v 0.093750 0.218750 -0.070312
v 0.093750 0.281250 -0.070312
v 0.093750 0.281250 -0.132812
v 0.093750 0.218750 -0.132812
v -0.218750 0.156250 -0.070312
v -0.218750 0.218750 -0.070312
v -0.218750 0.218750 -0.132812
v -0.218750 0.156250 -0.132812
v -0.093750 0.281250 -0.132812
v -0.093750 0.281250 -0.070312
v -0.093750 0.218750 -0.070312
v -0.093750 0.218750 -0.132812
v -0.218750 -0.218750 -0.070313
v -0.218750 -0.156250 -0.070313
v -0.218750 -0.156250 -0.132812
v -0.218750 -0.218750 -0.132813
v -0.062500 -0.218750 -0.132813
v -0.062500 -0.218750 -0.070313
v -0.062500 -0.281250 -0.070313
v -0.062500 -0.281250 -0.132813
v -0.281250 -0.156250 -0.070313
v -0.281250 0.156250 -0.070312
v -0.281250 0.156250 -0.132812
v -0.281250 -0.156250 -0.132812
v -0.218750 0.218750 -0.132812
v -0.218750 0.218750 -0.070312
v -0.218750 -0.218750 -0.070313
v -0.218750 -0.218750 -0.132813
v 0.031250 -0.062500 -0.046875
v 0.031250 -0.062500 -0.015625
v 0.031250 -0.218750 -0.085938
v 0.031250 -0.218750 -0.117188
v -0.031250 -0.218750 -0.085938
v -0.031250 -0.062500 -0.015625
v -0.031250 -0.062500 -0.046875
v -0.031250 -0.218750 -0.117188
v -0.062500 0.031250 -0.046875
v -0.062500 0.031250 -0.015625
v -0.062500 -0.031250 -0.015625
v -0.062500 -0.031250 -0.046875
v -0.218750 0.031250 -0.085938
v -0.218750 0.093750 -0.085937
v -0.218750 0.093750 -0.117187
v -0.218750 0.031250 -0.117188
v 0.062500 -0.031250 -0.015625
v 0.062500 0.031250 -0.015625
v 0.062500 0.031250 -0.046875
v 0.062500 -0.031250 -0.046875
v 0.218750 0.093750 -0.117187
v 0.218750 0.093750 -0.085937
v 0.218750 0.031250 -0.085938
v 0.218750 0.031250 -0.117188
v 0.125000 0.093750 -0.125000
v 0.125000 0.093750 -0.062500
v 0.125000 -0.031250 -0.062500
v 0.125000 -0.031250 -0.125000
v -0.125000 -0.031250 -0.062500
v -0.125000 0.093750 -0.062500
v -0.125000 0.093750 -0.125000
v -0.125000 -0.031250 -0.125000
v 0.125000 0.093750 -0.062500
v 0.062500 0.062500 0.000000
v 0.062500 -0.031250 -0.000000
v 0.125000 -0.031250 -0.062500
v -0.062500 -0.031250 -0.000000
v -0.062500 0.062500 0.000000
v -0.125000 0.093750 -0.062500
v -0.125000 -0.031250 -0.062500
v 0.125000 -0.031250 -0.062500
v 0.062500 -0.031250 -0.000000
v 0.062500 -0.062500 -0.000000
v 0.062500 -0.093750 -0.062500
v -0.062500 -0.062500 -0.000000
v -0.062500 -0.031250 -0.000000
v -0.125000 -0.031250 -0.062500
v -0.062500 -0.093750 -0.062500
v 0.125000 -0.031250 -0.125000
v 0.125000 -0.031250 -0.062500
v 0.062500 -0.093750 -0.062500
v 0.062500 -0.093750 -0.125000
v -0.062500 -0.093750 -0.062500
v -0.125000 -0.031250 -0.062500
v -0.125000 -0.031250 -0.125000
v -0.062500 -0.093750 -0.125000
vt 0.265625 0.750000
vt 0.250000 0.750000
vt 0.250000 0.671875
vt 0.265625 0.671875
vt 0.171875 0.640625
vt 0.171875 0.750000
vt 0.156250 0.750000
vt 0.156250 0.640625
vt 0.281250 0.750000
vt 0.281250 0.734375
vt 0.296875 0.734375
vt 0.296875 0.750000
vt 0.296875 0.718750
vt 0.281250 0.718750
vt 0.281250 0.703125
vt 0.296875 0.703125
vt 0.203125 0.656250
vt 0.203125 0.734375
vt 0.187500 0.750000
vt 0.187500 0.640625
vt 0.234375 0.750000
vt 0.218750 0.734375
vt 0.218750 0.656250
vt 0.234375 0.640625
vt 0.140625 0.875000
vt 0.125000 0.875000
vt 0.125000 0.859375
vt 0.140625 0.859375
vt 0.140625 0.828125
vt 0.140625 0.843750
vt 0.125000 0.843750
vt 0.125000 0.828125
vt 0.062500 0.828125
vt 0.109375 0.828125
vt 0.109375 0.843750
vt 0.062500 0.843750
vt 0.046875 0.859375
vt 0.046875 0.875000
vt 0.000000 0.875000
vt 0.000000 0.859375
vt 0.109375 0.859375
vt 0.109375 0.875000
vt 0.062500 0.875000
vt 0.062500 0.859375
vt 0.046875 0.843750
vt 0.000000 0.843750
vt 0.000000 0.828125
vt 0.046875 0.828125
vt 0.109375 0.812500
vt 0.093750 0.812500
vt 0.093750 0.796875
vt 0.109375 0.796875
vt 0.109375 0.765625
vt 0.109375 0.781250
vt 0.093750 0.781250
vt 0.093750 0.765625
vt 0.000000 0.796875
vt 0.031250 0.796875
vt 0.031250 0.812500
vt 0.000000 0.812500
vt 0.031250 0.765625
vt 0.031250 0.781250
vt 0.000000 0.781250
vt 0.000000 0.765625
vt 0.078125 0.796875
vt 0.078125 0.812500
vt 0.046875 0.812500
vt 0.046875 0.796875
vt 0.078125 0.781250
vt 0.046875 0.781250
vt 0.046875 0.765625
vt 0.078125 0.765625
vt 0.484375 0.781250
vt 0.468750 0.781250
vt 0.468750 0.765625
vt 0.484375 0.765625
vt 0.484375 0.796875
vt 0.484375 0.812500
vt 0.468750 0.812500
vt 0.468750 0.796875
vt 0.390625 0.765625
vt 0.390625 0.812500
vt 0.375000 0.812500
vt 0.375000 0.765625
vt 0.453125 0.812500
vt 0.437500 0.812500
vt 0.437500 0.765625
vt 0.453125 0.765625
vt 0.346259 0.796875
vt 0.352062 0.812500
vt 0.309991 0.812500
vt 0.304188 0.796875
vt 0.421875 0.771307
vt 0.421875 0.812500
vt 0.406250 0.806818
vt 0.406250 0.765625
vt 0.359375 0.843750
vt 0.343750 0.843750
vt 0.343750 0.828125
vt 0.359375 0.828125
vt 0.390625 0.828125
vt 0.390625 0.843750
vt 0.375000 0.843750
vt 0.375000 0.828125
vt 0.406250 0.875000
vt 0.406250 0.843750
vt 0.421875 0.843750
vt 0.421875 0.875000
vt 0.437500 0.843750
vt 0.453125 0.843750
vt 0.453125 0.875000
vt 0.437500 0.875000
vt 0.312500 0.833074
vt 0.328125 0.840061
vt 0.328125 0.875000
vt 0.312500 0.868012
vt 0.388151 0.875000
vt 0.353212 0.875000
vt 0.346224 0.859375
vt 0.381163 0.859375
vt 0.234375 0.828125
vt 0.234375 0.843750
vt 0.218750 0.843750
vt 0.218750 0.828125
vt 0.203125 0.843750
vt 0.187500 0.843750
vt 0.187500 0.828125
vt 0.203125 0.828125
vt 0.281250 0.843750
vt 0.296875 0.843750
vt 0.296875 0.875000
vt 0.281250 0.875000
vt 0.250000 0.875000
vt 0.250000 0.843750
vt 0.265625 0.843750
vt 0.265625 0.875000
vt 0.231901 0.875000
vt 0.196962 0.875000
vt 0.189974 0.859375
vt 0.224913 0.859375
vt 0.156250 0.833074
vt 0.171875 0.840061
vt 0.171875 0.875000
vt 0.156250 0.868012
vt 0.187500 0.765625
vt 0.187500 0.781250
vt 0.171875 0.781250
vt 0.171875 0.765625
vt 0.140625 0.781250
vt 0.125000 0.781250
vt 0.125000 0.765625
vt 0.140625 0.765625
vt 0.250000 0.812500
vt 0.234375 0.812500
vt 0.234375 0.765625
vt 0.250000 0.765625
vt 0.218750 0.765625
vt 0.218750 0.812500
vt 0.203125 0.812500
vt 0.203125 0.765625
vt 0.281250 0.771307
vt 0.281250 0.812500
vt 0.265625 0.806818
vt 0.265625 0.765625
vt 0.174384 0.796875
vt 0.180187 0.812500
vt 0.138116 0.812500
vt 0.132313 0.796875
vt 0.109375 0.671875
vt 0.109375 0.750000
vt 0.093750 0.750000
vt 0.093750 0.671875
vt 0.015625 0.750000
vt 0.000000 0.750000
vt 0.000000 0.640625
vt 0.015625 0.640625
vt 0.125000 0.734375
vt 0.140625 0.734375
vt 0.140625 0.750000
vt 0.125000 0.750000
vt 0.140625 0.703125
vt 0.140625 0.718750
vt 0.125000 0.718750
vt 0.125000 0.703125
vt 0.046875 0.750000
vt 0.031250 0.734375
vt 0.031250 0.656250
vt 0.046875 0.640625
vt 0.078125 0.656250
vt 0.078125 0.734375
vt 0.062500 0.750000
vt 0.062500 0.640625
vt 0.375000 0.996794
vt 0.359375 1.000000
vt 0.359375 0.957165
vt 0.375000 0.953959
vt 0.300498 0.921875
vt 0.343333 0.921875
vt 0.340127 0.937500
vt 0.297292 0.937500
vt 0.296875 0.890625
vt 0.312500 0.890625
vt 0.312500 0.906250
vt 0.296875 0.906250
vt 0.343750 0.890625
vt 0.343750 0.906250
vt 0.328125 0.906250
vt 0.328125 0.890625
vt 0.312500 0.953125
vt 0.312500 1.000000
vt 0.296875 1.000000
vt 0.296875 0.953125
vt 0.343750 1.000000
vt 0.328125 1.000000
vt 0.328125 0.953125
vt 0.343750 0.953125
vt 0.562500 1.000000
vt 0.546875 1.000000
vt 0.546875 0.984375
vt 0.562500 0.984375
vt 0.562500 0.953125
vt 0.562500 0.968750
vt 0.546875 0.968750
vt 0.546875 0.953125
vt 0.528006 1.000000
vt 0.484465 1.000000
vt 0.487619 0.984375
vt 0.531160 0.984375
vt 0.484375 0.893779
vt 0.500000 0.890625
vt 0.500000 0.934167
vt 0.484375 0.937321
vt 0.515625 0.891155
vt 0.531250 0.893959
vt 0.531250 0.937500
vt 0.515625 0.934696
vt 0.530720 0.968750
vt 0.487179 0.968750
vt 0.484375 0.953125
vt 0.527916 0.953125
vt 0.468750 0.984375
vt 0.468750 1.000000
vt 0.453125 1.000000
vt 0.453125 0.984375
vt 0.468750 0.968750
vt 0.453125 0.968750
vt 0.453125 0.953125
vt 0.468750 0.953125
vt 0.390625 0.956458
vt 0.406250 0.953304
vt 0.406250 0.996846
vt 0.390625 1.000000
vt 0.434256 0.906250
vt 0.390715 0.906250
vt 0.393869 0.890625
vt 0.437410 0.890625
vt 0.437500 0.937500
vt 0.393959 0.937500
vt 0.391155 0.921875
vt 0.434696 0.921875
vt 0.421875 0.953655
vt 0.437500 0.956459
vt 0.437500 1.000000
vt 0.421875 0.997196
vt 0.265625 0.937500
vt 0.250000 0.937500
vt 0.250000 0.906250
vt 0.265625 0.906250
vt 0.234375 0.906250
vt 0.234375 0.937500
vt 0.218750 0.937500
vt 0.218750 0.906250
vt 0.218750 0.984375
vt 0.281250 0.984375
vt 0.281250 1.000000
vt 0.218750 1.000000
vt 0.281250 0.953125
vt 0.281250 0.968750
vt 0.218750 0.968750
vt 0.218750 0.953125
vt 0.203125 0.968750
vt 0.203125 1.000000
vt 0.140625 1.000000
vt 0.140625 0.968750
vt 0.203125 0.937500
vt 0.140625 0.937500
vt 0.140625 0.906250
vt 0.203125 0.906250
vt 0.093750 1.000000
vt 0.078125 0.992188
vt 0.078125 0.968750
vt 0.093750 0.968750
vt 0.125000 0.968750
vt 0.125000 0.992188
vt 0.109375 1.000000
vt 0.109375 0.968750
vt 0.015625 0.921875
vt 0.046875 0.921875
vt 0.062500 0.937500
vt 0.000000 0.937500
vt 0.062500 0.890625
vt 0.046875 0.906250
vt 0.015625 0.906250
vt 0.000000 0.890625
vt 0.109375 0.906250
vt 0.109375 0.937500
vt 0.078125 0.937500
vt 0.078125 0.906250
vt 0.062500 1.000000
vt 0.000000 1.000000
vt 0.000000 0.968750
vt 0.062500 0.968750
vt 0.093750 0.968750
vt 0.078125 0.968750
vt 0.078125 0.960938
vt 0.093750 0.953125
vt 0.125000 0.960938
vt 0.125000 0.968750
vt 0.109375 0.968750
vt 0.109375 0.953125
vt 0.015625 0.921875
vt 0.046875 0.921875
vt 0.062500 0.937500
vt 0.000000 0.937500
vt 0.062500 0.890625
vt 0.046875 0.906250
vt 0.015625 0.906250
vt 0.000000 0.890625
vt 0.109375 0.906250
vt 0.109375 0.937500
vt 0.078125 0.937500
vt 0.078125 0.906250
vt 0.062500 0.968750
vt 0.000000 0.968750
vt 0.000000 0.953125
vt 0.062500 0.953125
vt 0.265625 0.906250
vt 0.250000 0.906250
vt 0.250000 0.890625
vt 0.265625 0.890625
vt 0.234375 0.890625
vt 0.234375 0.906250
vt 0.218750 0.906250
vt 0.218750 0.890625
vt 0.218750 0.984375
vt 0.281250 0.984375
vt 0.281250 1.000000
vt 0.218750 1.000000
vt 0.265625 0.953125
vt 0.265625 0.968750
vt 0.234375 0.968750
vt 0.234375 0.953125
vt 0.187500 0.953125
vt 0.203125 0.968750
vt 0.140625 0.968750
vt 0.156250 0.953125
vt 0.203125 0.906250
vt 0.140625 0.906250
vt 0.156250 0.890625
vt 0.187500 0.890625
vn 1.0000 0.0000 0.0000
vn -1.0000 -0.0000 0.0000
vn 0.7071 0.7071 0.0000
vn 0.7071 -0.7071 0.0000
vn 0.0000 -0.0000 1.0000
vn 0.0000 0.0000 -1.0000
vn 0.0000 1.0000 0.0000
vn 0.0000 -1.0000 0.0000
vn -0.3714 0.9285 0.0000
vn 0.3714 -0.9285 0.0000
vn 0.4472 0.8944 0.0000
vn -0.4472 -0.8944 0.0000
vn -0.4472 0.8944 0.0000
vn 0.4472 -0.8944 0.0000
vn 0.3714 0.9285 0.0000
vn -0.3714 -0.9285 0.0000
vn -0.7071 0.7071 0.0000
vn -0.7071 -0.7071 0.0000
vn 0.0000 -0.4104 0.9119
vn 0.0000 0.4104 -0.9119
vn -0.4104 -0.0000 0.9119
vn 0.4104 0.0000 -0.9119
vn 0.4104 -0.0000 0.9119
vn -0.4104 0.0000 -0.9119
vn 0.7071 0.0000 0.7071
vn -0.7071 0.0000 0.7071
vn 0.0000 0.8944 0.4472
vn 0.0000 -0.8944 0.4472
usemtl m_21adb02c-ffe6-8b65-a1b1-af3c9ee3d829
s 1
f 57/129/39 58/130/39 59/131/39 60/132/39
f 61/133/40 62/134/40 63/135/40 64/136/40
f 62/137/41 58/138/41 57/139/41 63/140/41
f 60/141/42 59/142/42 61/143/42 64/144/42
f 59/145/43 58/146/43 62/147/43 61/148/43
f 63/149/44 57/150/44 60/151/44 64/152/44
f 65/153/39 66/154/39 67/155/39 68/156/39
f 69/157/40 70/158/40 71/159/40 72/160/40
f 70/161/45 66/162/45 65/163/45 71/164/45
f 68/165/46 67/166/46 69/167/46 72/168/46
f 67/169/43 66/170/43 70/171/43 69/172/43
f 71/173/44 65/174/44 68/175/44 72/176/44
f 73/177/39 74/178/39 75/179/39 76/180/39
f 77/181/40 78/182/40 79/183/40 80/184/40
f 78/185/45 74/186/45 73/187/45 79/188/45
f 76/189/46 75/190/46 77/191/46 80/192/46
f 75/193/43 74/194/43 78/195/43 77/196/43
f 79/197/44 73/198/44 76/199/44 80/200/44
f 81/201/39 82/202/39 83/203/39 84/204/39
f 85/205/40 86/206/40 87/207/40 88/208/40
f 86/209/47 82/210/47 81/211/47 87/212/47
f 84/213/48 83/214/48 85/215/48 88/216/48
f 83/217/43 82/218/43 86/219/43 85/220/43
f 87/221/44 81/222/44 84/223/44 88/224/44
f 89/225/39 90/226/39 91/227/39 92/228/39
f 93/229/40 94/230/40 95/231/40 96/232/40
f 94/233/49 90/234/49 89/235/49 95/236/49
f 92/237/50 91/238/50 93/239/50 96/240/50
f 91/241/43 90/242/43 94/243/43 93/244/43
f 95/245/44 89/246/44 92/247/44 96/248/44
f 97/249/40 98/250/40 99/251/40 100/252/40
f 101/253/39 102/254/39 103/255/39 104/256/39
f 99/257/51 98/258/51 102/259/51 101/260/51
f 103/261/52 97/262/52 100/263/52 104/264/52
f 102/265/43 98/266/43 97/267/43 103/268/43
f 100/269/44 99/270/44 101/271/44 104/272/44
f 105/273/40 106/274/40 107/275/40 108/276/40
f 109/277/39 110/278/39 111/279/39 112/280/39
f 107/281/53 106/282/53 110/283/53 109/284/53
f 111/285/54 105/286/54 108/287/54 112/288/54
f 110/289/43 106/290/43 105/291/43 111/292/43
f 108/293/44 107/294/44 109/295/44 112/296/44
f 113/297/40 114/298/40 115/299/40 116/300/40
f 117/301/39 118/302/39 119/303/39 120/304/39
f 115/305/55 114/306/55 118/307/55 117/308/55
f 119/309/56 113/310/56 116/311/56 120/312/56
f 118/313/43 114/314/43 113/315/43 119/316/43
f 116/317/44 115/318/44 117/319/44 120/320/44
f 121/321/39 122/322/39 123/323/39 124/324/39
f 125/325/40 126/326/40 127/327/40 128/328/40
f 126/329/45 122/330/45 121/331/45 127/332/45
f 124/333/46 123/334/46 125/335/46 128/336/46
f 123/337/57 122/338/57 126/339/57 125/340/57
f 127/341/58 121/342/58 124/343/58 128/344/58
f 129/345/39 130/346/39 131/347/39 132/348/39
f 133/349/40 134/350/40 135/351/40 136/352/40
f 134/353/53 130/354/53 129/355/53 135/356/53
f 132/357/54 131/358/54 133/359/54 136/360/54
f 131/361/59 130/362/59 134/363/59 133/364/59
f 135/365/60 129/366/60 132/367/60 136/368/60
f 137/369/40 138/370/40 139/371/40 140/372/40
f 141/373/39 142/374/39 143/375/39 144/376/39
f 139/377/47 138/378/47 142/379/47 141/380/47
f 143/381/48 137/382/48 140/383/48 144/384/48
f 142/385/61 138/386/61 137/387/61 143/388/61
f 140/389/62 139/390/62 141/391/62 144/392/62
f 145/393/39 146/394/39 147/395/39 148/396/39
f 149/397/40 150/398/40 151/399/40 152/400/40
f 150/401/45 146/402/45 145/403/45 151/404/45
f 148/405/46 147/406/46 149/407/46 152/408/46
f 147/409/43 146/410/43 150/411/43 149/412/43
f 151/413/44 145/414/44 148/415/44 152/416/44
f 153/417/63 154/418/63 155/419/63 156/420/63
f 157/421/64 158/422/64 159/423/64 160/424/64
f 158/425/65 154/426/65 153/427/65 159/428/65
f 156/429/46 155/430/46 157/431/46 160/432/46
f 155/433/43 154/434/43 158/435/43 157/436/43
f 159/437/44 153/438/44 156/439/44 160/440/44
f 161/441/63 162/442/63 163/443/63 164/444/63
f 165/445/64 166/446/64 167/447/64 168/448/64
f 166/449/45 162/450/45 161/451/45 167/452/45
f 164/453/66 163/454/66 165/455/66 168/456/66
f 163/457/43 162/458/43 166/459/43 165/460/43
f 167/461/44 161/462/44 164/463/44 168/464/44
f 169/465/42 170/466/42 171/467/42 172/468/42
f 173/469/56 174/470/56 175/471/56 176/472/56
f 174/473/45 170/474/45 169/475/45 175/476/45
f 172/477/46 171/478/46 173/479/46 176/480/46
f 171/481/43 170/482/43 174/483/43 173/484/43
f 175/485/44 169/486/44 172/487/44 176/488/44
