# Blender v2.79 (sub 0) OBJ File: ''
# www.blender.org
mtllib strut.mtl
o cylinder
v -0.000000 0.048529 0.125000
v -0.024264 0.042027 0.125000
v 0.000000 -0.000000 0.093750
v -0.000000 0.048529 -0.125000
v -0.024264 0.042027 -0.125000
v -0.000000 0.000000 -0.093750
v 0.024264 0.042027 0.125000
v 0.024264 0.042027 -0.125000
v 0.042027 0.024264 0.125000
v 0.042027 0.024264 -0.125000
v 0.048529 -0.000000 0.125000
v 0.048529 0.000000 -0.125000
v 0.042027 -0.024264 0.125000
v 0.042027 -0.024264 -0.125000
v 0.024264 -0.042027 0.125000
v 0.024264 -0.042027 -0.125000
v 0.000000 -0.048529 0.125000
v 0.000000 -0.048529 -0.125000
v -0.024264 -0.042027 0.125000
v -0.024264 -0.042027 -0.125000
v -0.042027 -0.024264 0.125000
v -0.042027 -0.024264 -0.125000
v -0.048529 -0.000000 0.125000
v -0.048529 0.000000 -0.125000
v -0.042027 0.024264 0.125000
v -0.042027 0.024264 -0.125000
v -0.000000 0.080881 0.070312
v -0.040440 0.070045 0.070312
v 0.000000 -0.000000 0.070312
v -0.000000 0.080881 -0.070312
v -0.040440 0.070045 -0.070312
v -0.000000 0.000000 -0.070312
v 0.040440 0.070045 0.070312
v 0.040440 0.070045 -0.070312
v 0.070045 0.040440 0.070312
v 0.070045 0.040440 -0.070312
v 0.080881 -0.000000 0.070312
v 0.080881 0.000000 -0.070312
v 0.070045 -0.040440 0.070312
v 0.070045 -0.040440 -0.070312
v 0.040440 -0.070045 0.070312
v 0.040440 -0.070045 -0.070312
v 0.000000 -0.080881 0.070312
v 0.000000 -0.080881 -0.070312
v -0.040440 -0.070045 0.070312
v -0.040440 -0.070045 -0.070312
v -0.070045 -0.040440 0.070312
v -0.070045 -0.040440 -0.070312
v -0.080881 -0.000000 0.070312
v -0.080881 0.000000 -0.070312
v -0.070045 0.040440 0.070312
v -0.070045 0.040440 -0.070312
v 0.045753 0.046875 0.045753
v 0.016747 0.046875 0.062500
v 0.000000 0.046875 0.000000
v 0.045753 0.109375 0.045753
v 0.016747 0.109375 0.062500
v 0.000000 0.109375 0.000000
v 0.062500 0.046875 0.016747
v 0.062500 0.109375 0.016747
v 0.062500 0.046875 -0.016747
v 0.062500 0.109375 -0.016747
v 0.045753 0.046875 -0.045753
v 0.045753 0.109375 -0.045753
v 0.016747 0.046875 -0.062500
v 0.016747 0.109375 -0.062500
v -0.016747 0.046875 -0.062500
v -0.016747 0.109375 -0.062500
v -0.045753 0.046875 -0.045753
v -0.045753 0.109375 -0.045753
v -0.062500 0.046875 -0.016747
v -0.062500 0.109375 -0.016747
v -0.062500 0.046875 0.016747
v -0.062500 0.109375 0.016747
v -0.045753 0.046875 0.045753
v -0.045753 0.109375 0.045753
v -0.016747 0.046875 0.062500
v -0.016747 0.109375 0.062500
v 0.045753 0.421875 0.045753
v 0.016747 0.421875 0.062500
v 0.000000 0.421875 0.000000
v 0.045753 0.453125 0.045753
v 0.016747 0.453125 0.062500
v 0.000000 0.453125 0.000000
v 0.062500 0.421875 0.016747
v 0.062500 0.453125 0.016747
v 0.062500 0.421875 -0.016747
v 0.062500 0.453125 -0.016747
v 0.045753 0.421875 -0.045753
v 0.045753 0.453125 -0.045753
v 0.016747 0.421875 -0.062500
v 0.016747 0.453125 -0.062500
v -0.016747 0.421875 -0.062500
v -0.016747 0.453125 -0.062500
v -0.045753 0.421875 -0.045753
v -0.045753 0.453125 -0.045753
v -0.062500 0.421875 -0.016747
v -0.062500 0.453125 -0.016747
v -0.062500 0.421875 0.016747
v -0.062500 0.453125 0.016747
v -0.045753 0.421875 0.045753
v -0.045753 0.453125 0.045753
v -0.016747 0.421875 0.062500
v -0.016747 0.453125 0.062500
v 0.012560 0.109375 0.046875
v 0.034315 0.109375 0.034315
v 0.034315 0.421875 0.034315
v 0.012560 0.421875 0.046875
v 0.046875 0.109375 0.012560
v 0.046875 0.421875 0.012560
v 0.046875 0.109375 -0.012560
v 0.046875 0.421875 -0.012560
v 0.034315 0.109375 -0.034315
v 0.034315 0.421875 -0.034315
v 0.012560 0.109375 -0.046875
v 0.012560 0.421875 -0.046875
v -0.012560 0.109375 -0.046875
v -0.012560 0.421875 -0.046875
v -0.034315 0.109375 -0.034315
v -0.034315 0.421875 -0.034315
v -0.046875 0.109375 -0.012560
v -0.046875 0.421875 -0.012560
v -0.046875 0.109375 0.012560
v -0.046875 0.421875 0.012560
v -0.034315 0.109375 0.034315
v -0.034315 0.421875 0.034315
v -0.012560 0.109375 0.046875
v -0.012560 0.421875 0.046875
v 0.014653 0.109375 0.054688
v 0.040034 0.109375 0.040034
v 0.040034 0.265625 0.040034
v 0.014653 0.265625 0.054688
v 0.054688 0.109375 0.014653
v 0.054688 0.265625 0.014653
v 0.054688 0.109375 -0.014653
v 0.054688 0.265625 -0.014653
v 0.040034 0.109375 -0.040034
v 0.040034 0.265625 -0.040034
v 0.014653 0.109375 -0.054687
v 0.014653 0.265625 -0.054687
v -0.014653 0.109375 -0.054687
v -0.014653 0.265625 -0.054687
v -0.040034 0.109375 -0.040034
v -0.040034 0.265625 -0.040034
v -0.054688 0.109375 -0.014653
v -0.054688 0.265625 -0.014653
v -0.054688 0.109375 0.014653
v -0.054688 0.265625 0.014653
v -0.040034 0.109375 0.040034
v -0.040034 0.265625 0.040034
v -0.014653 0.109375 0.054688
v -0.014653 0.265625 0.054688
v 0.034315 0.453125 0.034315
v 0.012560 0.453125 0.046875
v -0.000000 0.453125 0.000000
v 0.034315 0.484375 0.034315
v 0.012560 0.484375 0.046875
v -0.000000 0.484375 0.000000
v 0.046875 0.453125 0.012560
v 0.046875 0.484375 0.012560
v 0.046875 0.453125 -0.012560
v 0.046875 0.484375 -0.012560
v 0.034315 0.453125 -0.034315
v 0.034315 0.484375 -0.034315
v 0.012560 0.453125 -0.046875
v 0.012560 0.484375 -0.046875
v -0.012560 0.453125 -0.046875
v -0.012560 0.484375 -0.046875
v -0.034315 0.453125 -0.034315
v -0.034315 0.484375 -0.034315
v -0.046875 0.453125 -0.012560
v -0.046875 0.484375 -0.012560
v -0.046875 0.453125 0.012560
v -0.046875 0.484375 0.012560
v -0.034315 0.453125 0.034315
v -0.034315 0.484375 0.034315
v -0.012560 0.453125 0.046875
v -0.012560 0.484375 0.046875
v 0.054688 0.421875 0.014653
v 0.040034 0.421875 0.040034
v 0.040034 0.265625 0.040034
v 0.054688 0.265625 0.014653
v 0.014653 0.421875 0.054688
v 0.014653 0.265625 0.054688
v -0.014653 0.421875 0.054688
v -0.014653 0.265625 0.054688
v -0.040034 0.421875 0.040034
v -0.040034 0.265625 0.040034
v -0.054688 0.421875 0.014653
v -0.054688 0.265625 0.014653
v -0.054688 0.421875 -0.014653
v -0.054688 0.265625 -0.014653
v -0.040034 0.421875 -0.040034
v -0.040034 0.265625 -0.040034
v -0.014653 0.421875 -0.054687
v -0.014653 0.265625 -0.054687
v 0.014653 0.421875 -0.054687
v 0.014653 0.265625 -0.054687
v 0.040034 0.421875 -0.040034
v 0.040034 0.265625 -0.040034
v 0.054688 0.421875 -0.014653
v 0.054688 0.265625 -0.014653
vt 0.554128 0.741628
vt 0.539622 0.750000
vt 0.531250 0.718750
vt 0.320872 0.875000
vt 0.337616 0.875000
vt 0.337616 1.000000
vt 0.320872 1.000000
vt 0.539622 0.593750
vt 0.554128 0.602122
vt 0.531250 0.625000
vt 0.562500 0.727122
vt 0.099884 0.687500
vt 0.116628 0.687500
vt 0.116628 0.812500
vt 0.099884 0.812500
vt 0.562500 0.616628
vt 0.562500 0.710378
vt 0.133372 0.687500
vt 0.133372 0.812500
vt 0.562500 0.633372
vt 0.554128 0.695872
vt 0.150116 0.687500
vt 0.150116 0.812500
vt 0.554128 0.647878
vt 0.539622 0.687500
vt 0.287384 0.718750
vt 0.304128 0.718750
vt 0.304128 0.843750
vt 0.287384 0.843750
vt 0.539622 0.656250
vt 0.522878 0.687500
vt 0.320872 0.718750
vt 0.320872 0.843750
vt 0.522878 0.656250
vt 0.508372 0.695872
vt 0.337616 0.718750
vt 0.337616 0.843750
vt 0.508372 0.647878
vt 0.500000 0.710378
vt 0.193634 0.687500
vt 0.210378 0.687500
vt 0.210378 0.812500
vt 0.193634 0.812500
vt 0.500000 0.633372
vt 0.500000 0.727122
vt 0.227122 0.687500
vt 0.227122 0.812500
vt 0.500000 0.616628
vt 0.508372 0.741628
vt 0.243866 0.687500
vt 0.243866 0.812500
vt 0.508372 0.602122
vt 0.522878 0.750000
vt 0.287384 0.875000
vt 0.304128 0.875000
vt 0.304128 1.000000
vt 0.287384 1.000000
vt 0.522878 0.593750
vt 0.356722 0.661409
vt 0.338591 0.671875
vt 0.328125 0.632812
vt 0.151091 0.460938
vt 0.172022 0.460938
vt 0.172022 0.531250
vt 0.151091 0.531250
vt 0.151091 0.578125
vt 0.169222 0.588591
vt 0.140625 0.617188
vt 0.367188 0.643278
vt 0.234228 0.492188
vt 0.255159 0.492188
vt 0.255159 0.562500
vt 0.234228 0.562500
vt 0.179688 0.606722
vt 0.367188 0.622347
vt 0.276091 0.492188
vt 0.276091 0.562500
vt 0.179688 0.627653
vt 0.356722 0.604216
vt 0.297022 0.492188
vt 0.297022 0.562500
vt 0.169222 0.645784
vt 0.338591 0.593750
vt 0.515478 0.804688
vt 0.536409 0.804688
vt 0.536409 0.875000
vt 0.515478 0.875000
vt 0.151091 0.656250
vt 0.317659 0.593750
vt 0.557341 0.804688
vt 0.557341 0.875000
vt 0.130159 0.656250
vt 0.299528 0.604216
vt 0.578272 0.804688
vt 0.578272 0.875000
vt 0.112028 0.645784
vt 0.289062 0.622347
vt 0.484228 0.929688
vt 0.505159 0.929688
vt 0.505159 1.000000
vt 0.484228 1.000000
vt 0.101562 0.627653
vt 0.289062 0.643278
vt 0.526091 0.929688
vt 0.526091 1.000000
vt 0.101562 0.606722
vt 0.299528 0.661409
vt 0.547022 0.929688
vt 0.547022 1.000000
vt 0.112028 0.588591
vt 0.317659 0.671875
vt 0.109228 0.460938
vt 0.130159 0.460938
vt 0.130159 0.531250
vt 0.109228 0.531250
vt 0.130159 0.578125
vt 0.554128 0.554128
vt 0.539622 0.562500
vt 0.531250 0.531250
vt 0.633372 0.968750
vt 0.650116 0.968750
vt 0.650116 1.000000
vt 0.633372 1.000000
vt 0.539622 0.406250
vt 0.554128 0.414622
vt 0.531250 0.437500
vt 0.562500 0.539622
vt 0.412384 0.406250
vt 0.429128 0.406250
vt 0.429128 0.437500
vt 0.412384 0.437500
vt 0.562500 0.429128
vt 0.562500 0.522878
vt 0.445872 0.406250
vt 0.445872 0.437500
vt 0.562500 0.445872
vt 0.554128 0.508372
vt 0.462616 0.406250
vt 0.462616 0.437500
vt 0.554128 0.460378
vt 0.539622 0.500000
vt 0.099884 0.375000
vt 0.116628 0.375000
vt 0.116628 0.406250
vt 0.099884 0.406250
vt 0.539622 0.468750
vt 0.522878 0.500000
vt 0.133372 0.375000
vt 0.133372 0.406250
vt 0.522878 0.468750
vt 0.508372 0.508372
vt 0.150116 0.375000
vt 0.150116 0.406250
vt 0.508372 0.460378
vt 0.500000 0.522878
vt 0.599884 0.906250
vt 0.616628 0.906250
vt 0.616628 0.937500
vt 0.599884 0.937500
vt 0.500000 0.445872
vt 0.500000 0.539622
vt 0.633372 0.906250
vt 0.633372 0.937500
vt 0.500000 0.429128
vt 0.508372 0.554128
vt 0.650116 0.906250
vt 0.650116 0.937500
vt 0.508372 0.414622
vt 0.522878 0.562500
vt 0.599884 0.968750
vt 0.616628 0.968750
vt 0.616628 1.000000
vt 0.599884 1.000000
vt 0.522878 0.406250
vt 0.054128 0.429128
vt 0.039622 0.437500
vt 0.031250 0.406250
vt 0.633372 0.656250
vt 0.650116 0.656250
vt 0.650116 0.687500
vt 0.633372 0.687500
vt 0.258372 0.375000
vt 0.272878 0.383372
vt 0.250000 0.406250
vt 0.062500 0.414622
vt 0.599884 0.718750
vt 0.616628 0.718750
vt 0.616628 0.750000
vt 0.599884 0.750000
vt 0.281250 0.397878
vt 0.062500 0.397878
vt 0.633372 0.718750
vt 0.633372 0.750000
vt 0.281250 0.414622
vt 0.054128 0.383372
vt 0.650116 0.718750
vt 0.650116 0.750000
vt 0.272878 0.429128
vt 0.039622 0.375000
vt 0.599884 0.531250
vt 0.616628 0.531250
vt 0.616628 0.562500
vt 0.599884 0.562500
vt 0.258372 0.437500
vt 0.022878 0.375000
vt 0.633372 0.531250
vt 0.633372 0.562500
vt 0.241628 0.437500
vt 0.008372 0.383372
vt 0.650116 0.531250
vt 0.650116 0.562500
vt 0.227122 0.429128
vt 0.000000 0.397878
vt 0.599884 0.593750
vt 0.616628 0.593750
vt 0.616628 0.625000
vt 0.599884 0.625000
vt 0.218750 0.414622
vt 0.000000 0.414622
vt 0.633372 0.593750
vt 0.633372 0.625000
vt 0.218750 0.397878
vt 0.008372 0.429128
vt 0.650116 0.593750
vt 0.650116 0.625000
vt 0.227122 0.383372
vt 0.022878 0.437500
vt 0.599884 0.656250
vt 0.616628 0.656250
vt 0.616628 0.687500
vt 0.599884 0.687500
vt 0.241628 0.375000
vt 0.412531 0.843750
vt 0.425094 0.843750
vt 0.425094 1.000000
vt 0.412531 1.000000
vt 0.418659 0.656250
vt 0.431219 0.656250
vt 0.431219 0.812500
vt 0.418659 0.812500
vt 0.443781 0.656250
vt 0.443781 0.812500
vt 0.456341 0.656250
vt 0.456341 0.812500
vt 0.012406 0.468750
vt 0.024969 0.468750
vt 0.024969 0.625000
vt 0.012406 0.625000
vt 0.037531 0.468750
vt 0.037531 0.625000
vt 0.050094 0.468750
vt 0.050094 0.625000
vt 0.418659 0.468750
vt 0.431219 0.468750
vt 0.431219 0.625000
vt 0.418659 0.625000
vt 0.443781 0.468750
vt 0.443781 0.625000
vt 0.456341 0.468750
vt 0.456341 0.625000
vt 0.387406 0.843750
vt 0.399969 0.843750
vt 0.399969 1.000000
vt 0.387406 1.000000
vt 0.038578 0.656250
vt 0.053234 0.656250
vt 0.053234 0.812500
vt 0.038578 0.812500
vt 0.103016 0.843750
vt 0.117672 0.843750
vt 0.117672 1.000000
vt 0.103016 1.000000
vt 0.132328 0.843750
vt 0.132328 1.000000
vt 0.146984 0.843750
vt 0.146984 1.000000
vt 0.009266 0.843750
vt 0.023922 0.843750
vt 0.023922 1.000000
vt 0.009266 1.000000
vt 0.038578 0.843750
vt 0.038578 1.000000
vt 0.053234 0.843750
vt 0.053234 1.000000
vt 0.196766 0.843750
vt 0.211422 0.843750
vt 0.211422 1.000000
vt 0.196766 1.000000
vt 0.226078 0.843750
vt 0.226078 1.000000
vt 0.240734 0.843750
vt 0.240734 1.000000
vt 0.009266 0.656250
vt 0.023922 0.656250
vt 0.023922 0.812500
vt 0.009266 0.812500
vt 0.360906 0.415594
vt 0.350031 0.421875
vt 0.343750 0.398438
vt 0.662531 0.796875
vt 0.675094 0.796875
vt 0.675094 0.812500
vt 0.662531 0.812500
vt 0.631281 0.471831
vt 0.642654 0.477168
vt 0.625000 0.500000
vt 0.367188 0.404719
vt 0.637406 0.859375
vt 0.649969 0.859375
vt 0.649969 0.875000
vt 0.637406 0.875000
vt 0.650681 0.486831
vt 0.367188 0.392156
vt 0.662531 0.859375
vt 0.662531 0.875000
vt 0.228094 0.628081
vt 0.240656 0.628081
vt 0.234375 0.656250
vt 0.360906 0.381281
vt 0.675094 0.859375
vt 0.675094 0.875000
vt 0.599319 0.424331
vt 0.607346 0.414668
vt 0.625000 0.437500
vt 0.350031 0.375000
vt 0.512406 0.359375
vt 0.524969 0.359375
vt 0.524969 0.375000
vt 0.512406 0.375000
vt 0.618719 0.409331
vt 0.337469 0.375000
vt 0.537531 0.359375
vt 0.537531 0.375000
vt 0.631281 0.409331
vt 0.326594 0.381281
vt 0.550094 0.359375
vt 0.550094 0.375000
vt 0.642654 0.414668
vt 0.320312 0.392156
vt 0.418656 0.359375
vt 0.431219 0.359375
vt 0.431219 0.375000
vt 0.418656 0.375000
vt 0.650681 0.424331
vt 0.320312 0.404719
vt 0.443781 0.359375
vt 0.443781 0.375000
vt 0.353094 0.534331
vt 0.365656 0.534331
vt 0.359375 0.562500
vt 0.326594 0.415594
vt 0.456344 0.359375
vt 0.456344 0.375000
vt 0.599319 0.486831
vt 0.607346 0.477168
vt 0.337469 0.421875
vt 0.637406 0.796875
vt 0.649969 0.796875
vt 0.649969 0.812500
vt 0.637406 0.812500
vt 0.618719 0.471831
vt 0.038578 0.656250
vt 0.053234 0.656250
vt 0.053234 0.812500
vt 0.038578 0.812500
vt 0.103016 0.843750
vt 0.117672 0.843750
vt 0.117672 1.000000
vt 0.103016 1.000000
vt 0.132328 0.843750
vt 0.132328 1.000000
vt 0.146984 0.843750
vt 0.146984 1.000000
vt 0.009266 0.843750
vt 0.023922 0.843750
vt 0.023922 1.000000
vt 0.009266 1.000000
vt 0.038578 0.843750
vt 0.038578 1.000000
vt 0.053234 0.843750
vt 0.053234 1.000000
vt 0.196766 0.843750
vt 0.211422 0.843750
vt 0.211422 1.000000
vt 0.196766 1.000000
vt 0.226078 0.843750
vt 0.226078 1.000000
vt 0.240734 0.843750
vt 0.240734 1.000000
vt 0.009266 0.656250
vt 0.023922 0.656250
vt 0.023922 0.812500
vt 0.009266 0.812500
vn 0.1436 -0.5358 0.8321
vn -0.2588 0.9659 0.0000
vn 0.1436 -0.5358 -0.8321
vn -0.1436 -0.5358 0.8321
vn 0.2588 0.9659 0.0000
vn -0.1436 -0.5358 -0.8321
vn -0.3922 -0.3922 0.8321
vn 0.7071 0.7071 0.0000
vn -0.3922 -0.3922 -0.8321
vn -0.5358 -0.1436 0.8321
vn 0.9659 0.2588 0.0000
vn -0.5358 -0.1436 -0.8321
vn -0.5358 0.1436 0.8321
vn 0.9659 -0.2588 -0.0000
vn -0.5358 0.1436 -0.8321
vn -0.3922 0.3922 0.8321
vn 0.7071 -0.7071 -0.0000
vn -0.3922 0.3922 -0.8321
vn -0.1436 0.5358 0.8321
vn 0.2588 -0.9659 -0.0000
vn -0.1436 0.5358 -0.8321
vn 0.1436 0.5358 0.8321
vn -0.2588 -0.9659 -0.0000
vn 0.1436 0.5358 -0.8321
vn 0.3922 0.3922 0.8321
vn -0.7071 -0.7071 -0.0000
vn 0.3922 0.3922 -0.8321
vn 0.5358 0.1436 0.8321
vn -0.9659 -0.2588 -0.0000
vn 0.5358 0.1436 -0.8321
vn 0.5358 -0.1436 0.8321
vn -0.9659 0.2588 0.0000
vn 0.5358 -0.1436 -0.8321
vn 0.3922 -0.3922 0.8321
vn -0.7071 0.7071 0.0000
vn 0.3922 -0.3922 -0.8321
vn 0.0000 0.0000 1.0000
vn 0.0000 0.0000 -1.0000
vn 0.0000 -1.0000 -0.0000
vn 0.5000 -0.0000 0.8660
vn 0.0000 1.0000 0.0000
vn 0.8660 0.0000 0.5000
vn 1.0000 0.0000 0.0000
vn 0.8660 0.0000 -0.5000
vn 0.5000 0.0000 -0.8660
vn -0.5000 0.0000 -0.8660
vn -0.8660 0.0000 -0.5000
vn -1.0000 0.0000 0.0000
vn -0.8660 0.0000 0.5000
vn -0.5000 -0.0000 0.8660
usemtl m_d1780949-01c2-e7f4-73f9-e3f00d33fde5
s 1
f 1/1/1 2/2/1 3/3/1
f 2/4/2 1/5/2 4/6/2 5/7/2
f 5/8/3 4/9/3 6/10/3
f 7/11/4 1/1/4 3/3/4
f 1/12/5 7/13/5 8/14/5 4/15/5
f 4/9/6 8/16/6 6/10/6
f 9/17/7 7/11/7 3/3/7
f 7/13/8 9/18/8 10/19/8 8/14/8
f 8/16/9 10/20/9 6/10/9
f 11/21/10 9/17/10 3/3/10
f 9/18/11 11/22/11 12/23/11 10/19/11
f 10/20/12 12/24/12 6/10/12
f 13/25/13 11/21/13 3/3/13
f 11/26/14 13/27/14 14/28/14 12/29/14
f 12/24/15 14/30/15 6/10/15
f 15/31/16 13/25/16 3/3/16
f 13/27/17 15/32/17 16/33/17 14/28/17
f 14/30/18 16/34/18 6/10/18
f 17/35/19 15/31/19 3/3/19
f 15/32/20 17/36/20 18/37/20 16/33/20
f 16/34/21 18/38/21 6/10/21
f 19/39/22 17/35/22 3/3/22
f 17/40/23 19/41/23 20/42/23 18/43/23
f 18/38/24 20/44/24 6/10/24
f 21/45/25 19/39/25 3/3/25
f 19/41/26 21/46/26 22/47/26 20/42/26
f 20/44/27 22/48/27 6/10/27
f 23/49/28 21/45/28 3/3/28
f 21/46/29 23/50/29 24/51/29 22/47/29
f 22/48/30 24/52/30 6/10/30
f 25/53/31 23/49/31 3/3/31
f 23/54/32 25/55/32 26/56/32 24/57/32
f 24/52/33 26/58/33 6/10/33
f 2/2/34 25/53/34 3/3/34
f 25/55/35 2/4/35 5/7/35 26/56/35
f 26/58/36 5/8/36 6/10/36
f 27/59/37 28/60/37 29/61/37
f 28/62/2 27/63/2 30/64/2 31/65/2
f 31/66/38 30/67/38 32/68/38
f 33/69/37 27/59/37 29/61/37
f 27/70/5 33/71/5 34/72/5 30/73/5
f 30/67/38 34/74/38 32/68/38
f 35/75/37 33/69/37 29/61/37
f 33/71/8 35/76/8 36/77/8 34/72/8
f 34/74/38 36/78/38 32/68/38
f 37/79/37 35/75/37 29/61/37
f 35/76/11 37/80/11 38/81/11 36/77/11
f 36/78/38 38/82/38 32/68/38
f 39/83/37 37/79/37 29/61/37
f 37/84/14 39/85/14 40/86/14 38/87/14
f 38/82/38 40/88/38 32/68/38
f 41/89/37 39/83/37 29/61/37
f 39/85/17 41/90/17 42/91/17 40/86/17
f 40/88/38 42/92/38 32/68/38
f 43/93/37 41/89/37 29/61/37
f 41/90/20 43/94/20 44/95/20 42/91/20
f 42/92/38 44/96/38 32/68/38
f 45/97/37 43/93/37 29/61/37
f 43/98/23 45/99/23 46/100/23 44/101/23
f 44/96/38 46/102/38 32/68/38
f 47/103/37 45/97/37 29/61/37
f 45/99/26 47/104/26 48/105/26 46/100/26
f 46/102/38 48/106/38 32/68/38
f 49/107/37 47/103/37 29/61/37
f 47/104/29 49/108/29 50/109/29 48/105/29
f 48/106/38 50/110/38 32/68/38
f 51/111/37 49/107/37 29/61/37
f 49/112/32 51/113/32 52/114/32 50/115/32
f 50/110/38 52/116/38 32/68/38
f 28/60/37 51/111/37 29/61/37
f 51/113/35 28/62/35 31/65/35 52/114/35
f 52/116/38 31/66/38 32/68/38
f 53/117/39 54/118/39 55/119/39
f 54/120/40 53/121/40 56/122/40 57/123/40
f 57/124/41 56/125/41 58/126/41
f 59/127/39 53/117/39 55/119/39
f 53/128/42 59/129/42 60/130/42 56/131/42
f 56/125/41 60/132/41 58/126/41
f 61/133/39 59/127/39 55/119/39
f 59/129/43 61/134/43 62/135/43 60/130/43
f 60/132/41 62/136/41 58/126/41
f 63/137/39 61/133/39 55/119/39
f 61/134/44 63/138/44 64/139/44 62/135/44
f 62/136/41 64/140/41 58/126/41
f 65/141/39 63/137/39 55/119/39
f 63/142/45 65/143/45 66/144/45 64/145/45
f 64/140/41 66/146/41 58/126/41
f 67/147/39 65/141/39 55/119/39
f 65/143/38 67/148/38 68/149/38 66/144/38
f 66/146/41 68/150/41 58/126/41
f 69/151/39 67/147/39 55/119/39
f 67/148/46 69/152/46 70/153/46 68/149/46
f 68/150/41 70/154/41 58/126/41
f 71/155/39 69/151/39 55/119/39
f 69/156/47 71/157/47 72/158/47 70/159/47
f 70/154/41 72/160/41 58/126/41
f 73/161/39 71/155/39 55/119/39
f 71/157/48 73/162/48 74/163/48 72/158/48
f 72/160/41 74/164/41 58/126/41
f 75/165/39 73/161/39 55/119/39
f 73/162/49 75/166/49 76/167/49 74/163/49
f 74/164/41 76/168/41 58/126/41
f 77/169/39 75/165/39 55/119/39
f 75/170/50 77/171/50 78/172/50 76/173/50
f 76/168/41 78/174/41 58/126/41
f 54/118/39 77/169/39 55/119/39
f 77/171/37 54/120/37 57/123/37 78/172/37
f 78/174/41 57/124/41 58/126/41
f 79/175/39 80/176/39 81/177/39
f 80/178/40 79/179/40 82/180/40 83/181/40
f 83/182/41 82/183/41 84/184/41
f 85/185/39 79/175/39 81/177/39
f 79/186/42 85/187/42 86/188/42 82/189/42
f 82/183/41 86/190/41 84/184/41
f 87/191/39 85/185/39 81/177/39
f 85/187/43 87/192/43 88/193/43 86/188/43
f 86/190/41 88/194/41 84/184/41
f 89/195/39 87/191/39 81/177/39
f 87/192/44 89/196/44 90/197/44 88/193/44
f 88/194/41 90/198/41 84/184/41
f 91/199/39 89/195/39 81/177/39
f 89/200/45 91/201/45 92/202/45 90/203/45
f 90/198/41 92/204/41 84/184/41
f 93/205/39 91/199/39 81/177/39
f 91/201/38 93/206/38 94/207/38 92/202/38
f 92/204/41 94/208/41 84/184/41
f 95/209/39 93/205/39 81/177/39
f 93/206/46 95/210/46 96/211/46 94/207/46
f 94/208/41 96/212/41 84/184/41
f 97/213/39 95/209/39 81/177/39
f 95/214/47 97/215/47 98/216/47 96/217/47
f 96/212/41 98/218/41 84/184/41
f 99/219/39 97/213/39 81/177/39
f 97/215/48 99/220/48 100/221/48 98/216/48
f 98/218/41 100/222/41 84/184/41
f 101/223/39 99/219/39 81/177/39
f 99/220/49 101/224/49 102/225/49 100/221/49
f 100/222/41 102/226/41 84/184/41
f 103/227/39 101/223/39 81/177/39
f 101/228/50 103/229/50 104/230/50 102/231/50
f 102/226/41 104/232/41 84/184/41
f 80/176/39 103/227/39 81/177/39
f 103/229/37 80/178/37 83/181/37 104/230/37
f 104/232/41 83/182/41 84/184/41
f 105/233/40 106/234/40 107/235/40 108/236/40
f 106/237/42 109/238/42 110/239/42 107/240/42
f 109/238/43 111/241/43 112/242/43 110/239/43
f 111/241/44 113/243/44 114/244/44 112/242/44
f 113/245/45 115/246/45 116/247/45 114/248/45
f 115/246/38 117/249/38 118/250/38 116/247/38
f 117/249/46 119/251/46 120/252/46 118/250/46
f 119/253/47 121/254/47 122/255/47 120/256/47
f 121/254/48 123/257/48 124/258/48 122/255/48
f 123/257/49 125/259/49 126/260/49 124/258/49
f 125/261/50 127/262/50 128/263/50 126/264/50
f 127/262/37 105/233/37 108/236/37 128/263/37
f 129/265/40 130/266/40 131/267/40 132/268/40
f 130/269/42 133/270/42 134/271/42 131/272/42
f 133/270/43 135/273/43 136/274/43 134/271/43
f 135/273/44 137/275/44 138/276/44 136/274/44
f 137/277/45 139/278/45 140/279/45 138/280/45
f 139/278/38 141/281/38 142/282/38 140/279/38
f 141/281/46 143/283/46 144/284/46 142/282/46
f 143/285/47 145/286/47 146/287/47 144/288/47
f 145/286/48 147/289/48 148/290/48 146/287/48
f 147/289/49 149/291/49 150/292/49 148/290/49
f 149/293/50 151/294/50 152/295/50 150/296/50
f 151/294/37 129/265/37 132/268/37 152/295/37
f 153/297/39 154/298/39 155/299/39
f 154/300/40 153/301/40 156/302/40 157/303/40
f 157/304/41 156/305/41 158/306/41
f 159/307/39 153/297/39 155/299/39
f 153/308/42 159/309/42 160/310/42 156/311/42
f 156/305/41 160/312/41 158/306/41
f 161/313/39 159/307/39 155/299/39
f 159/309/43 161/314/43 162/315/43 160/310/43
f 160/316/41 162/317/41 158/318/41
f 163/319/39 161/313/39 155/299/39
f 161/314/44 163/320/44 164/321/44 162/315/44
f 162/322/41 164/323/41 158/324/41
f 165/325/39 163/319/39 155/299/39
f 163/326/45 165/327/45 166/328/45 164/329/45
f 164/323/41 166/330/41 158/324/41
f 167/331/39 165/325/39 155/299/39
f 165/327/38 167/332/38 168/333/38 166/328/38
f 166/330/41 168/334/41 158/324/41
f 169/335/39 167/331/39 155/299/39
f 167/332/46 169/336/46 170/337/46 168/333/46
f 168/334/41 170/338/41 158/324/41
f 171/339/39 169/335/39 155/299/39
f 169/340/47 171/341/47 172/342/47 170/343/47
f 170/338/41 172/344/41 158/324/41
f 173/345/39 171/339/39 155/299/39
f 171/341/48 173/346/48 174/347/48 172/342/48
f 172/348/41 174/349/41 158/350/41
f 175/351/39 173/345/39 155/299/39
f 173/346/49 175/352/49 176/353/49 174/347/49
f 174/354/41 176/355/41 158/306/41
f 177/356/39 175/351/39 155/299/39
f 175/357/50 177/358/50 178/359/50 176/360/50
f 176/355/41 178/361/41 158/306/41
f 154/298/39 177/356/39 155/299/39
f 177/358/37 154/300/37 157/303/37 178/359/37
f 178/361/41 157/304/41 158/306/41
f 179/362/42 180/363/42 181/364/42 182/365/42
f 180/366/40 183/367/40 184/368/40 181/369/40
f 183/367/37 185/370/37 186/371/37 184/368/37
f 185/370/50 187/372/50 188/373/50 186/371/50
f 187/374/49 189/375/49 190/376/49 188/377/49
f 189/375/48 191/378/48 192/379/48 190/376/48
f 191/378/47 193/380/47 194/381/47 192/379/47
f 193/382/46 195/383/46 196/384/46 194/385/46
f 195/383/38 197/386/38 198/387/38 196/384/38
f 197/386/45 199/388/45 200/389/45 198/387/45
f 199/390/44 201/391/44 202/392/44 200/393/44
f 201/391/43 179/362/43 182/365/43 202/392/43
