# Blender v2.79 (sub 0) OBJ File: ''
# www.blender.org
mtllib teeth_fangs_alt.mtl
o toothleft
v -0.023438 -0.039064 0.011719
v -0.023438 -0.039064 -0.011719
v -0.031250 -0.078125 -0.007813
v -0.031250 -0.078125 0.007812
v 0.015625 -0.039064 -0.011719
v 0.015625 -0.039064 0.011719
v 0.000000 -0.078125 0.007812
v 0.000000 -0.078125 -0.007813
v -0.023438 0.000000 -0.015625
v -0.023438 -0.000000 0.015625
v 0.015625 -0.000000 0.015625
v 0.015625 0.000000 -0.015625
vt 0.500014 1.000000
vt 0.500014 0.000000
vt 1.000000 0.000000
vt 1.000000 1.000000
vt 1.000000 0.499986
vt 0.000000 0.499986
vt 0.000000 0.000000
vt 1.000000 0.000000
vt 1.000000 1.000000
vt 0.000000 1.000000
vt 0.000000 0.000000
vt 1.000000 0.000000
vt 1.000000 1.000000
vt 0.000000 1.000000
vt 0.000000 0.000000
vt 1.000000 0.499986
vt 0.000000 0.499986
vt 0.000000 0.000000
vt 1.000000 0.000000
vt 0.500014 1.000000
vt 0.500014 0.000000
vt 1.000000 1.000000
vt 0.000000 1.000000
vt 0.000000 0.000000
vt 1.000000 1.000000
vt 0.000000 1.000000
vt 1.000000 1.000000
vt 0.000000 0.000000
vn -0.9806 0.1961 0.0000
vn 0.9285 -0.3714 0.0000
vn 0.0000 1.0000 0.0000
vn 0.0000 -1.0000 0.0000
vn 0.0000 -0.0995 0.9950
vn 0.0000 -0.0995 -0.9950
vn 1.0000 0.0000 0.0000
vn -1.0000 0.0000 0.0000
usemtl none
s 1
f 1/1/1 2/2/1 3/3/1 4/4/1
f 5/5/2 6/6/2 7/7/2 8/8/2
f 9/9/3 10/10/3 11/11/3 12/12/3
f 7/13/4 4/14/4 3/15/4 8/8/4
f 6/16/5 1/17/5 4/18/5 7/19/5
f 2/20/6 5/21/6 8/8/6 3/22/6
f 5/21/6 2/20/6 9/23/6 12/24/6
f 6/6/7 5/5/7 12/25/7 11/26/7
f 1/17/5 6/16/5 11/27/5 10/10/5
f 2/2/8 1/1/8 10/10/8 9/28/8
o toothright
v 0.031250 -0.078125 -0.007813
v 0.023438 -0.039064 -0.011719
v 0.023438 -0.039064 0.011719
v 0.031250 -0.078125 0.007812
v 0.000000 -0.078125 0.007812
v -0.015625 -0.039064 0.011719
v -0.015625 -0.039064 -0.011719
v 0.000000 -0.078125 -0.007813
v -0.015625 -0.000000 0.015625
v 0.023438 -0.000000 0.015625
v 0.023438 0.000000 -0.015625
v -0.015625 0.000000 -0.015625
vt 1.000000 0.000000
vt 0.500014 0.000000
vt 0.500014 1.000000
vt 1.000000 1.000000
vt 0.000000 0.000000
vt 0.000000 0.499986
vt 1.000000 0.499986
vt 1.000000 0.000000
vt 0.000000 0.000000
vt 0.000000 1.000000
vt 1.000000 1.000000
vt 1.000000 0.000000
vt 0.000000 0.000000
vt 0.000000 1.000000
vt 1.000000 1.000000
vt 0.000000 0.000000
vt 0.000000 0.499986
vt 1.000000 0.499986
vt 1.000000 0.000000
vt 0.500014 0.000000
vt 0.500014 1.000000
vt 1.000000 1.000000
vt 0.000000 1.000000
vt 0.000000 0.000000
vt 1.000000 1.000000
vt 0.000000 1.000000
vt 1.000000 1.000000
vt 0.000000 0.000000
vn 0.9806 0.1961 0.0000
vn -0.9285 -0.3714 0.0000
vn 0.0000 1.0000 0.0000
vn 0.0000 -1.0000 0.0000
vn 0.0000 -0.0995 0.9950
vn 0.0000 -0.0995 -0.9950
vn -1.0000 -0.0000 0.0000
vn 1.0000 0.0000 0.0000
usemtl none
s 1
f 13/29/9 14/30/9 15/31/9 16/32/9
f 17/33/10 18/34/10 19/35/10 20/36/10
f 21/37/11 22/38/11 23/39/11 24/40/11
f 13/41/12 16/42/12 17/43/12 20/36/12
f 16/44/13 15/45/13 18/46/13 17/47/13
f 20/36/14 19/48/14 14/49/14 13/50/14
f 23/51/14 14/49/14 19/48/14 24/52/14
f 24/53/15 19/35/15 18/34/15 21/54/15
f 21/55/13 18/46/13 15/45/13 22/38/13
f 22/38/16 15/31/16 14/30/16 23/56/16
