# Blender v2.79 (sub 0) OBJ File: ''
# www.blender.org
mtllib tongue.mtl
o muscle2
v 0.187500 0.031250 0.187500
v 0.125000 0.015625 0.375000
v 0.125000 -0.015625 0.375000
v 0.187500 -0.031250 0.187500
v -0.125000 -0.015625 0.375000
v -0.125000 0.015625 0.375000
v -0.187500 0.031250 0.187500
v -0.187500 -0.031250 0.187500
v 0.085938 -0.007813 0.390625
v 0.085938 0.007812 0.390625
v -0.085938 0.007812 0.390625
v -0.085938 -0.007813 0.390625
v -0.179688 0.023437 0.171875
v 0.179688 0.023437 0.171875
v 0.179688 -0.023438 0.171875
v -0.179688 -0.023438 0.171875
vt 0.062500 0.625000
vt 0.046875 0.250000
vt 0.015625 0.250000
vt 0.000000 0.625000
vt 0.703125 0.250000
vt 0.734375 0.250000
vt 0.750000 0.625000
vt 0.687500 0.625000
vt 0.125000 0.250000
vt 0.625000 0.250000
vt 0.750000 0.625000
vt 0.000000 0.625000
vt 0.750000 0.625000
vt 0.625000 0.250000
vt 0.125000 0.250000
vt 0.000000 0.625000
vt 0.562500 0.250000
vt 0.562500 0.312500
vt 0.187500 0.312500
vt 0.187500 0.250000
vt 0.750000 0.625000
vt 0.000000 0.625000
vt 0.000000 0.562500
vt 0.750000 0.562500
vt 0.734375 0.625000
vt 0.015625 0.625000
vt 0.000000 0.562500
vt 0.750000 0.562500
vt 0.062500 0.570312
vt 0.062500 0.617188
vt 0.000000 0.625000
vt 0.000000 0.562500
vt 0.015625 0.562500
vt 0.734375 0.562500
vt 0.687500 0.617188
vt 0.687500 0.570312
vt 0.750000 0.562500
vt 0.562500 0.296875
vt 0.562500 0.265625
vt 0.625000 0.312500
vt 0.203125 0.250000
vt 0.546875 0.250000
vt 0.125000 0.312500
vt 0.187500 0.265625
vt 0.187500 0.296875
vt 0.546875 0.312500
vt 0.203125 0.312500
vn 0.9487 0.0000 0.3162
vn -0.9487 0.0000 0.3162
vn 0.0000 0.9965 0.0830
vn 0.0000 -0.9965 0.0830
vn 0.0000 0.0000 1.0000
vn 0.0000 0.0000 -1.0000
vn 0.0000 0.8944 -0.4472
vn 0.8944 0.0000 -0.4472
vn 0.0000 -0.8944 -0.4472
vn -0.8944 0.0000 -0.4472
vn 0.3714 0.0000 0.9285
vn 0.0000 0.8944 0.4472
vn -0.3714 0.0000 0.9285
vn 0.0000 -0.8944 0.4472
usemtl m_a1496496-c765-5ce8-99c1-c9f7d1d5c5bb
s 1
f 1/1/1 2/2/1 3/3/1 4/4/1
f 5/5/2 6/6/2 7/7/2 8/8/2
f 6/9/3 2/10/3 1/11/3 7/12/3
f 4/13/4 3/14/4 5/15/4 8/16/4
f 9/17/5 10/18/5 11/19/5 12/20/5
f 13/21/6 14/22/6 15/23/6 16/24/6
f 14/25/7 13/26/7 7/27/7 1/28/7
f 15/29/8 14/30/8 1/31/8 4/32/8
f 16/33/9 15/34/9 4/13/9 8/16/9
f 13/35/10 16/36/10 8/37/10 7/7/10
f 10/38/11 9/39/11 3/14/11 2/40/11
f 11/41/12 10/42/12 2/40/12 6/43/12
f 12/44/13 11/45/13 6/43/13 5/15/13
f 9/46/14 12/47/14 5/15/14 3/14/14
o muscle1
v 0.187500 0.031250 0.000000
v 0.187500 0.031250 0.187500
v 0.187500 -0.031250 0.187500
v 0.187500 -0.031250 -0.000000
v -0.187500 -0.031250 0.187500
v -0.187500 0.031250 0.187500
v -0.187500 0.031250 0.000000
v -0.187500 -0.031250 -0.000000
v 0.164062 -0.023438 0.203125
v 0.164062 0.023437 0.203125
v -0.164062 0.023437 0.203125
v -0.164062 -0.023438 0.203125
vt 0.062500 1.000000
vt 0.062500 0.625000
vt 0.000000 0.625000
vt 0.000000 1.000000
vt 0.687500 0.625000
vt 0.750000 0.625000
vt 0.750000 1.000000
vt 0.687500 1.000000
vt 0.000000 0.625000
vt 0.750000 0.625000
vt 0.750000 1.000000
vt 0.000000 1.000000
vt 0.750000 1.000000
vt 0.750000 0.625000
vt 0.000000 0.625000
vt 0.000000 1.000000
vt 0.687500 0.625000
vt 0.687500 0.687500
vt 0.062500 0.687500
vt 0.062500 0.625000
vt 0.000000 1.000000
vt 0.000000 0.937500
vt 0.750000 0.937500
vt 0.625000 0.679688
vt 0.625000 0.632812
vt 0.750000 0.687500
vt 0.046875 0.625000
vt 0.703125 0.625000
vt 0.000000 0.687500
vt 0.125000 0.632812
vt 0.125000 0.679688
vt 0.703125 0.687500
vt 0.046875 0.687500
vn 1.0000 0.0000 0.0000
vn -1.0000 -0.0000 0.0000
vn 0.0000 1.0000 0.0000
vn 0.0000 -1.0000 -0.0000
vn 0.0000 0.0000 1.0000
vn 0.0000 0.0000 -1.0000
vn 0.5547 0.0000 0.8321
vn 0.0000 0.8944 0.4472
vn -0.5547 0.0000 0.8321
vn 0.0000 -0.8944 0.4472
usemtl m_a1496496-c765-5ce8-99c1-c9f7d1d5c5bb
s 1
f 17/48/15 18/49/15 19/50/15 20/51/15
f 21/52/16 22/53/16 23/54/16 24/55/16
f 22/56/17 18/57/17 17/58/17 23/59/17
f 20/60/18 19/61/18 21/62/18 24/63/18
f 25/64/19 26/65/19 27/66/19 28/67/19
f 23/54/20 17/68/20 20/69/20 24/70/20
f 26/71/21 25/72/21 19/61/21 18/73/21
f 27/74/22 26/75/22 18/73/22 22/76/22
f 28/77/23 27/78/23 22/76/23 21/62/23
f 25/79/24 28/80/24 21/62/24 19/61/24
o muscle3
v 0.125000 0.015625 0.375000
v 0.062500 0.007812 0.437500
v 0.062500 -0.007813 0.437500
v 0.125000 -0.015625 0.375000
v -0.062500 -0.007813 0.437500
v -0.062500 0.007812 0.437500
v -0.125000 0.015625 0.375000
v -0.125000 -0.015625 0.375000
v -0.117188 0.007812 0.359375
v 0.117188 0.007812 0.359375
v 0.117188 -0.007813 0.359375
v -0.117188 -0.007813 0.359375
vt 0.501908 0.250000
vt 0.500000 0.125000
vt 0.625000 0.125000
vt 0.625000 0.250000
vt 0.250000 0.126908
vt 0.125000 0.125000
vt 0.125000 0.250000
vt 0.250000 0.250000
vt 0.250000 0.125000
vt 0.625000 0.250000
vt 0.500000 0.125000
vt 0.250000 0.125000
vt 0.125000 0.250000
vt 0.500000 0.187500
vt 0.250000 0.187500
vt 0.625000 0.250000
vt 0.125000 0.250000
vt 0.125000 0.187500
vt 0.625000 0.187500
vt 0.609375 0.250000
vt 0.140625 0.250000
vt 0.125000 0.187500
vt 0.625000 0.187500
vt 0.187500 0.226562
vt 0.187500 0.242188
vt 0.125000 0.250000
vt 0.125000 0.218750
vt 0.140625 0.187500
vt 0.609375 0.187500
vt 0.562500 0.242188
vt 0.562500 0.226562
vt 0.625000 0.218750
vt 0.625000 0.250000
vn 0.7071 0.0000 0.7071
vn -0.7071 0.0000 0.7071
vn 0.0000 0.9923 0.1240
vn 0.0000 -0.9923 0.1240
vn 0.0000 0.0000 1.0000
vn 0.0000 0.0000 -1.0000
vn 0.0000 0.8944 -0.4472
vn 0.8944 0.0000 -0.4472
vn 0.0000 -0.8944 -0.4472
vn -0.8944 0.0000 -0.4472
usemtl m_a1496496-c765-5ce8-99c1-c9f7d1d5c5bb
s 1
f 29/81/25 30/82/25 31/83/25 32/84/25
f 33/85/26 34/86/26 35/87/26 36/88/26
f 34/89/27 30/82/27 29/90/27 35/87/27
f 32/84/28 31/91/28 33/92/28 36/93/28
f 31/91/29 30/94/29 34/95/29 33/92/29
f 37/96/30 38/97/30 39/98/30 40/99/30
f 38/100/31 37/101/31 35/102/31 29/103/31
f 39/104/32 38/105/32 29/106/32 32/107/32
f 40/108/33 39/109/33 32/84/33 36/93/33
f 37/110/34 40/111/34 36/112/34 35/113/34
