# Blender v2.78 (sub 0) OBJ File: ''
# www.blender.org
mtllib arcadev6.mtl
o cube
v -0.295136 0.420841 0.825000
v -0.149296 0.275000 0.825000
v -0.295136 0.420841 0.000000
v -0.149296 0.275000 0.000000
v -0.489591 0.226386 0.000000
v -0.343750 0.080546 0.000000
v -0.489591 0.226386 0.825000
v -0.343750 0.080546 0.825000
v 0.489591 0.226386 0.825000
v 0.343750 0.080546 0.825000
v 0.489591 0.226386 0.000000
v 0.343750 0.080546 0.000000
v 0.295136 0.420841 0.000000
v 0.149296 0.275000 0.000000
v 0.295136 0.420841 0.825000
v 0.149296 0.275000 0.825000
v 0.343750 0.275000 0.825000
v 0.343750 -0.137500 0.825000
v 0.343750 0.275000 0.000000
v 0.343750 -0.137500 -0.000000
v -0.343750 0.275000 0.000000
v -0.343750 -0.137500 -0.000000
v -0.343750 0.275000 0.825000
v -0.343750 -0.137500 0.825000
v 0.068750 0.343750 0.240625
v 0.068750 0.275000 0.240625
v 0.068750 0.343750 0.103125
v 0.068750 0.275000 0.103125
v -0.068750 0.343750 0.103125
v -0.068750 0.275000 0.103125
v -0.068750 0.343750 0.240625
v -0.068750 0.275000 0.240625
v 0.103125 0.412500 0.275000
v 0.103125 0.343750 0.275000
v 0.103125 0.412500 0.068750
v 0.103125 0.343750 0.068750
v -0.103125 0.412500 0.068750
v -0.103125 0.343750 0.068750
v -0.103125 0.412500 0.275000
v -0.103125 0.343750 0.275000
v 0.034375 0.429688 0.206250
v 0.034375 0.395313 0.206250
v 0.034375 0.429688 0.137500
v 0.034375 0.395313 0.137500
v -0.034375 0.429688 0.137500
v -0.034375 0.395313 0.137500
v -0.034375 0.429688 0.206250
v -0.034375 0.395313 0.206250
vt 0.0938 0.3438
vt 0.1562 0.3438
vt 0.1562 0.3906
vt 0.0938 0.3906
vt 0.2500 0.3438
vt 0.3125 0.3438
vt 0.3125 0.3906
vt 0.2500 0.3906
vt 0.1562 0.4375
vt 0.2188 0.4375
vt 0.2188 0.6250
vt 0.1562 0.6250
vt 0.2188 0.4375
vt 0.2812 0.4375
vt 0.2812 0.6250
vt 0.2188 0.6250
vt 0.1250 0.0000
vt 0.2500 0.0000
vt 0.2500 0.0625
vt 0.1250 0.0625
vt 0.0938 0.4375
vt 0.0938 0.2500
vt 0.0469 0.2500
vt 0.0469 0.4375
vt 0.2500 0.4375
vt 0.2500 0.2500
vt 0.2031 0.2500
vt 0.2031 0.4375
vt 0.0625 0.4375
vt 0.1250 0.4375
vt 0.1250 0.6250
vt 0.0625 0.6250
vt 0.6875 0.0000
vt 0.8750 0.0000
vt 0.8750 0.0625
vt 0.6875 0.0625
vt 0.1250 0.0625
vt 0.2500 0.0625
vt 0.2500 0.1875
vt 0.1250 0.1875
vt 0.0938 0.3906
vt 0.1562 0.3906
vt 0.1562 0.4375
vt 0.0938 0.4375
vt 0.5000 0.0625
vt 0.6875 0.0625
vt 0.6875 0.1250
vt 0.5000 0.1250
vt 0.3750 0.0000
vt 0.5000 0.0000
vt 0.5000 0.0625
vt 0.3750 0.0625
vt 0.6875 0.0625
vt 0.8750 0.0625
vt 0.8750 0.1250
vt 0.6875 0.1250
vt 0.2500 0.3906
vt 0.3125 0.3906
vt 0.3125 0.4375
vt 0.2500 0.4375
vt 0.0000 0.0000
vt 0.1250 0.0000
vt 0.1250 0.0625
vt 0.0000 0.0625
vt 0.2500 0.0000
vt 0.3750 0.0000
vt 0.3750 0.0625
vt 0.2500 0.0625
vt 0.1250 0.0000
vt 0.1250 0.0625
vt 0.0000 0.0625
vt 0.1250 0.0625
vt 0.1250 0.1875
vt 0.0000 0.1875
vt 0.1875 0.8125
vt 0.3750 0.8125
vt 0.3750 0.9062
vt 0.1875 0.9062
vt 0.1562 0.6250
vt 0.3125 0.6250
vt 0.3125 0.8125
vt 0.1562 0.8125
vt 0.8750 0.0000
vt 1.0000 0.0000
vt 1.0000 0.1250
vt 0.8750 0.1250
vt 0.0000 0.0000
vt 0.1250 0.0000
vt 0.1250 0.0625
vt 0.0000 0.0625
vt 0.1562 0.9062
vt 0.3125 0.9062
vt 0.3125 1.0000
vt 0.1562 1.0000
vt 0.2031 0.4375
vt 0.2031 0.2500
vt 0.1562 0.2500
vt 0.1562 0.4375
vt 0.3750 0.0000
vt 0.5000 0.0000
vt 0.5000 0.0625
vt 0.3750 0.0625
vt 0.0469 0.4375
vt 0.0469 0.2500
vt 0.0000 0.2500
vt 0.0000 0.4375
vt 0.0000 0.8125
vt 0.1875 0.8125
vt 0.1875 0.9062
vt 0.0000 0.9062
vt 0.0000 0.9062
vt 0.1562 0.9062
vt 0.1562 1.0000
vt 0.0000 1.0000
vt 0.8750 0.1250
vt 1.0000 0.1250
vt 1.0000 0.2500
vt 0.8750 0.2500
vt 0.0000 0.6250
vt 0.1562 0.6250
vt 0.1562 0.8125
vt 0.0000 0.8125
vt 0.0000 0.0625
vt 0.1250 0.0625
vt 0.1250 0.1875
vt 0.0000 0.1875
vt 0.5000 0.0000
vt 0.6875 0.0000
vt 0.6875 0.0625
vt 0.5000 0.0625
vt 0.3750 0.0000
vt 0.3750 0.0625
vt 0.1250 0.0625
vt 0.2500 0.0625
vt 0.2500 0.1875
vt 0.1250 0.1875
vt 0.0000 0.4375
vt 0.0625 0.4375
vt 0.0625 0.6250
vt 0.0000 0.6250
vn 0.0000 0.0000 -1.0000
vn 0.7071 0.7071 0.0000
vn -0.7071 -0.7071 -0.0000
vn -1.0000 0.0000 0.0000
vn 0.7071 -0.7071 -0.0000
vn 0.0000 -1.0000 0.0000
vn 0.0000 0.0000 1.0000
vn 1.0000 0.0000 0.0000
vn 0.0000 1.0000 0.0000
vn -0.7071 0.7071 0.0000
usemtl m_0
s 1
f 4/1/1 6/2/1 5/3/1 3/4/1
f 12/5/1 14/6/1 13/7/1 11/8/1
f 15/9/2 9/10/2 11/11/2 13/12/2
f 14/13/3 12/14/3 10/15/3 16/16/3
f 30/17/4 32/18/4 31/19/4 29/20/4
f 6/21/3 8/22/3 7/23/3 5/24/3
f 10/25/5 12/26/5 11/27/5 9/28/5
f 6/29/5 4/30/5 2/31/5 8/32/5
f 36/33/1 38/34/1 37/35/1 35/36/1
f 46/37/6 44/38/6 42/39/6 48/40/6
f 8/41/7 2/42/7 1/43/7 7/44/7
f 38/45/4 40/46/4 39/47/4 37/48/4
f 44/49/1 46/50/1 45/51/1 43/52/1
f 34/53/8 36/54/8 35/55/8 33/56/8
f 16/57/7 10/58/7 9/59/7 15/60/7
f 26/61/8 28/62/8 27/63/8 25/64/8
f 48/65/7 42/66/7 41/67/7 47/68/7
f 46/69/4 48/65/4 47/68/4 45/70/4
f 47/71/9 41/72/9 43/73/9 45/74/9
f 22/75/4 24/76/4 23/77/4 21/78/4
f 22/79/6 20/80/6 18/81/6 24/82/6
f 39/83/9 33/84/9 35/85/9 37/86/9
f 42/87/8 44/88/8 43/89/8 41/90/8
f 20/91/1 22/92/1 21/93/1 19/94/1
f 14/95/10 16/96/10 15/97/10 13/98/10
f 28/99/1 30/100/1 29/101/1 27/102/1
f 2/103/2 4/104/2 3/105/2 1/106/2
f 18/107/8 20/108/8 19/109/8 17/110/8
f 24/111/7 18/112/7 17/113/7 23/114/7
f 38/115/6 36/116/6 34/117/6 40/118/6
f 23/119/9 17/120/9 19/121/9 21/122/9
f 31/123/9 25/124/9 27/125/9 29/126/9
f 40/127/7 34/128/7 33/129/7 39/130/7
f 32/18/7 26/131/7 25/132/7 31/19/7
f 30/133/6 28/134/6 26/135/6 32/136/6
f 7/137/10 1/138/10 3/139/10 5/140/10
