# Blender v2.79 (sub 0) OBJ File: ''
# www.blender.org
mtllib vh_baseballcap.mtl
o cube
v -0.450113 -0.000112 0.450113
v 0.450113 -0.000112 0.450113
v 0.450113 0.225113 0.450113
v -0.450113 0.225113 0.450113
v -0.450113 -0.000113 -0.450113
v -0.450113 0.225112 -0.450113
v 0.450113 -0.000113 -0.450113
v 0.450113 0.225112 -0.450113
v -0.450000 0.000454 0.675000
v 0.450000 0.000454 0.675000
v 0.450000 0.000454 0.675000
v -0.450000 0.000454 0.675000
v -0.450000 0.000454 0.450000
v -0.450000 0.000454 0.450000
v 0.450000 0.000454 0.450000
v 0.450000 0.000454 0.450000
v -0.337500 0.000454 0.787500
v 0.337500 0.000454 0.787500
v 0.337500 0.000454 0.787500
v -0.337500 0.000454 0.787500
v -0.337500 0.000454 0.675000
v -0.337500 0.000454 0.675000
v 0.337500 0.000454 0.675000
v 0.337500 0.000454 0.675000
v -0.098663 0.013838 0.450225
v 0.098663 0.013838 0.450225
v 0.098663 0.211163 0.450225
v -0.098663 0.211163 0.450225
v -0.098663 0.013838 0.393525
v -0.098663 0.211163 0.393525
v 0.098663 0.013838 0.393525
v 0.098663 0.211163 0.393525
vt 0.500000 0.875000
vt 0.000000 0.875000
vt 0.000000 1.000000
vt 0.500000 1.000000
vt 0.375000 0.500000
vt 0.375000 1.000000
vt 0.500000 0.500000
vt 0.000000 0.625000
vt 0.500000 0.625000
vt 0.000000 0.500000
vt 0.125000 1.000000
vt 0.125000 0.500000
vt 0.500000 0.500000
vt 1.000000 0.500000
vt 1.000000 1.000000
vt 0.500000 1.000000
vt 0.000000 0.500000
vt 0.500000 0.500000
vt 0.500000 0.500000
vt 0.000000 0.500000
vt 0.000000 0.500000
vt 0.125000 0.500000
vt 0.125000 0.500000
vt 0.000000 0.500000
vt 0.000000 0.500000
vt 0.500000 0.500000
vt 0.500000 0.500000
vt 0.000000 0.500000
vt 0.000000 0.500000
vt 0.125000 0.500000
vt 0.125000 0.500000
vt 0.000000 0.500000
vt 0.500000 0.500000
vt 0.000000 0.375000
vt 0.500000 0.375000
vt 0.500000 0.375000
vt 0.000000 0.375000
vt 0.500000 0.500000
vt 0.062500 0.375000
vt 0.437500 0.375000
vt 0.437500 0.375000
vt 0.062500 0.375000
vt 0.062500 0.375000
vt 0.125000 0.375000
vt 0.125000 0.375000
vt 0.062500 0.375000
vt 0.062500 0.375000
vt 0.437500 0.375000
vt 0.437500 0.375000
vt 0.062500 0.375000
vt 0.062500 0.375000
vt 0.125000 0.375000
vt 0.125000 0.375000
vt 0.062500 0.375000
vt 0.437500 0.375000
vt 0.062500 0.312500
vt 0.437500 0.312500
vt 0.062500 0.312500
vt 0.437500 0.312500
vt 0.500000 0.000000
vt 1.000000 0.000000
vt 1.000000 0.500000
vt 0.500000 0.500000
vt 0.000000 1.000000
vt 0.000000 1.000000
vt 0.000000 1.000000
vt 0.000000 1.000000
vt 0.000000 1.000000
vt 0.000000 1.000000
vt 0.000000 1.000000
vt 0.000000 1.000000
vn 0.0000 0.0000 1.0000
vn -1.0000 0.0000 0.0000
vn 0.0000 0.0000 -1.0000
vn 1.0000 0.0000 0.0000
vn 0.0000 1.0000 -0.0000
vn 0.0000 -1.0000 0.0000
vn 0.0000 0.0000 0.0000
usemtl m_17bad063-ed3a-ba14-1fb0-e6ff37bcd611
s 1
f 1/1/1 2/2/1 3/3/1 4/4/1
f 5/5/2 1/6/2 4/4/2 6/7/2
f 7/8/3 5/9/3 6/7/3 8/10/3
f 2/11/4 7/12/4 8/10/4 3/3/4
f 8/10/5 6/7/5 4/4/5 3/3/5
f 2/13/6 1/14/6 5/15/6 7/16/6
f 9/17/3 10/18/3 11/19/3 12/20/3
f 13/21/7 9/22/7 12/23/7 14/24/7
f 15/25/1 13/26/1 14/27/1 16/28/1
f 10/29/7 15/30/7 16/31/7 11/32/7
f 16/33/5 14/24/5 12/34/5 11/35/5
f 10/36/6 9/37/6 13/21/6 15/38/6
f 17/39/3 18/40/3 19/41/3 20/42/3
f 21/43/7 17/44/7 20/45/7 22/46/7
f 23/47/1 21/48/1 22/49/1 24/50/1
f 18/51/7 23/52/7 24/53/7 19/54/7
f 24/55/5 22/46/5 20/56/5 19/57/5
f 18/40/6 17/39/6 21/58/6 23/59/6
f 25/60/1 26/61/1 27/62/1 28/63/1
f 29/64/2 25/65/2 28/66/2 30/67/2
f 31/68/3 29/64/3 30/67/3 32/69/3
f 26/70/4 31/68/4 32/69/4 27/71/4
f 32/69/5 30/67/5 28/66/5 27/71/5
f 26/70/6 25/65/6 29/64/6 31/68/6
