# Blender v2.79 (sub 0) OBJ File: ''
# www.blender.org
mtllib vh_burger.mtl
o cube
v 0.337500 0.000001 -0.337500
v -0.337500 0.000001 -0.337500
v -0.337500 0.112501 -0.337500
v 0.337500 0.112501 -0.337500
v 0.337500 0.000001 0.337500
v 0.337500 0.112501 0.337500
v -0.337500 0.000001 0.337500
v -0.337500 0.112501 0.337500
v 0.337500 0.421876 -0.337500
v -0.337500 0.421876 -0.337500
v -0.337500 0.534376 -0.337500
v 0.337500 0.534376 -0.337500
v 0.337500 0.421876 0.337500
v 0.337500 0.534376 0.337500
v -0.337500 0.421876 0.337500
v -0.337500 0.534376 0.337500
v 0.253125 0.534376 -0.253125
v -0.253125 0.534376 -0.253125
v -0.253125 0.646876 -0.253125
v 0.253125 0.646876 -0.253125
v 0.253125 0.534376 0.253125
v 0.253125 0.646876 0.253125
v -0.253125 0.534376 0.253125
v -0.253125 0.646876 0.253125
v 0.182654 0.112501 -0.440965
v -0.440965 0.112501 -0.182654
v -0.440965 0.225001 -0.182654
v 0.182654 0.225001 -0.440965
v 0.440965 0.112501 0.182654
v 0.440965 0.225001 0.182654
v -0.182654 0.112501 0.440965
v -0.182654 0.225001 0.440965
v 0.337500 0.253126 -0.337500
v -0.337500 0.253126 -0.337500
v -0.337500 0.365626 -0.337500
v 0.337500 0.365626 -0.337500
v 0.337500 0.253126 0.337500
v 0.337500 0.365626 0.337500
v -0.337500 0.253126 0.337500
v -0.337500 0.365626 0.337500
v 0.514459 0.225001 -0.213096
v -0.213096 0.225001 -0.514459
v -0.213096 0.253126 -0.514459
v 0.514459 0.253126 -0.213096
v 0.213096 0.225001 0.514459
v 0.213096 0.253126 0.514459
v -0.514459 0.225001 0.213096
v -0.514459 0.253126 0.213096
v 0.556847 0.365626 0.000000
v 0.000000 0.365626 -0.556847
v 0.000000 0.393751 -0.556847
v 0.556847 0.393751 0.000000
v 0.000000 0.365626 0.556847
v 0.000000 0.393751 0.556847
v -0.556847 0.365626 0.000000
v -0.556847 0.393751 0.000000
v 0.393750 0.393751 -0.393750
v -0.393750 0.393751 -0.393750
v -0.393750 0.421876 -0.393750
v 0.393750 0.421876 -0.393750
v 0.393750 0.393751 0.393750
v 0.393750 0.421876 0.393750
v -0.393750 0.393751 0.393750
v -0.393750 0.421876 0.393750
vt 0.000000 0.968750
vt 0.250000 0.968750
vt 0.250000 1.000000
vt 0.000000 1.000000
vt 0.000000 0.937500
vt 0.250000 0.937500
vt 0.250000 0.968750
vt 0.000000 0.968750
vt 0.000000 0.906250
vt 0.250000 0.906250
vt 0.250000 0.937500
vt 0.000000 0.937500
vt 0.000000 0.875000
vt 0.250000 0.875000
vt 0.250000 0.906250
vt 0.000000 0.906250
vt 0.000000 0.750000
vt 0.250000 0.750000
vt 0.250000 1.000000
vt 0.000000 1.000000
vt 0.000000 0.750000
vt 0.250000 0.750000
vt 0.250000 1.000000
vt 0.000000 1.000000
vt 0.000000 0.968750
vt 0.250000 0.968750
vt 0.250000 1.000000
vt 0.000000 1.000000
vt 0.000000 0.937500
vt 0.250000 0.937500
vt 0.250000 0.968750
vt 0.000000 0.968750
vt 0.000000 0.906250
vt 0.250000 0.906250
vt 0.250000 0.937500
vt 0.000000 0.937500
vt 0.000000 0.875000
vt 0.250000 0.875000
vt 0.250000 0.906250
vt 0.000000 0.906250
vt 0.250000 0.750000
vt 0.500000 0.750000
vt 0.500000 1.000000
vt 0.000000 0.750000
vt 0.250000 0.750000
vt 0.250000 1.000000
vt 0.000000 1.000000
vt 0.000000 0.968750
vt 0.250000 0.968750
vt 0.250000 1.000000
vt 0.000000 1.000000
vt 0.000000 0.937500
vt 0.250000 0.937500
vt 0.250000 0.968750
vt 0.000000 0.968750
vt 0.000000 0.906250
vt 0.250000 0.906250
vt 0.250000 0.937500
vt 0.000000 0.937500
vt 0.000000 0.875000
vt 0.250000 0.875000
vt 0.250000 0.906250
vt 0.000000 0.906250
vt 0.250000 0.750000
vt 0.500000 0.750000
vt 0.500000 1.000000
vt 0.000000 0.750000
vt 0.250000 0.750000
vt 0.250000 1.000000
vt 0.000000 1.000000
vt 0.750000 0.875000
vt 1.000000 0.875000
vt 1.000000 0.906250
vt 0.750000 0.906250
vt 0.750000 0.968750
vt 1.000000 0.968750
vt 1.000000 1.000000
vt 0.750000 1.000000
vt 0.750000 0.937500
vt 1.000000 0.937500
vt 1.000000 0.968750
vt 0.750000 0.968750
vt 0.750000 0.906250
vt 1.000000 0.906250
vt 1.000000 0.937500
vt 0.750000 0.937500
vt 1.000000 0.750000
vt 1.000000 1.000000
vt 0.750000 1.000000
vt 0.750000 0.750000
vt 0.750000 1.000000
vt 0.750000 0.750000
vt 1.000000 0.750000
vt 1.000000 1.000000
vt 0.750000 0.875000
vt 1.000000 0.875000
vt 1.000000 0.906250
vt 0.750000 0.906250
vt 0.750000 0.968750
vt 1.000000 0.968750
vt 1.000000 1.000000
vt 0.750000 1.000000
vt 0.750000 0.937500
vt 1.000000 0.937500
vt 1.000000 0.968750
vt 0.750000 0.968750
vt 0.750000 0.906250
vt 1.000000 0.906250
vt 1.000000 0.937500
vt 0.750000 0.937500
vt 1.000000 0.750000
vt 1.000000 1.000000
vt 0.750000 1.000000
vt 0.750000 0.750000
vt 0.750000 1.000000
vt 0.750000 0.750000
vt 1.000000 0.750000
vt 1.000000 1.000000
vt 0.250000 0.593750
vt 0.500000 0.593750
vt 0.500000 0.625000
vt 0.250000 0.625000
vt 0.250000 0.625000
vt 0.500000 0.625000
vt 0.500000 0.656250
vt 0.250000 0.656250
vt 0.250000 0.593750
vt 0.500000 0.593750
vt 0.500000 0.625000
vt 0.250000 0.625000
vt 0.250000 0.625000
vt 0.500000 0.625000
vt 0.500000 0.656250
vt 0.250000 0.656250
vt 0.250000 0.500000
vt 0.500000 0.500000
vt 0.500000 0.750000
vt 0.250000 0.750000
vt 0.250000 0.500000
vt 0.500000 0.500000
vt 0.500000 0.750000
vt 0.250000 0.750000
vt 0.500000 0.843750
vt 0.750000 0.843750
vt 0.750000 0.875000
vt 0.500000 0.875000
vt 0.500000 0.875000
vt 0.750000 0.875000
vt 0.750000 0.906250
vt 0.500000 0.906250
vt 0.500000 0.843750
vt 0.750000 0.843750
vt 0.750000 0.875000
vt 0.500000 0.875000
vt 0.500000 0.875000
vt 0.750000 0.875000
vt 0.750000 0.906250
vt 0.500000 0.906250
vt 0.500000 0.750000
vt 0.750000 0.750000
vt 0.750000 1.000000
vt 0.500000 1.000000
vt 0.500000 0.750000
vt 0.750000 0.750000
vt 0.750000 1.000000
vt 0.500000 1.000000
vt 0.000000 0.718750
vt 0.250000 0.718750
vt 0.250000 0.750000
vt 0.000000 0.750000
vt 0.000000 0.718750
vt 0.250000 0.718750
vt 0.250000 0.750000
vt 0.000000 0.750000
vt 0.000000 0.500000
vt 0.250000 0.500000
vt 0.250000 0.531250
vt 0.000000 0.531250
vt 0.000000 0.500000
vt 0.250000 0.500000
vt 0.250000 0.531250
vt 0.000000 0.531250
vt 0.000000 0.500000
vt 0.250000 0.500000
vt 0.000000 0.750000
vt 0.250000 0.500000
vt 0.250000 0.750000
vt 0.000000 0.750000
vn 0.0000 0.0000 -1.0000
vn 1.0000 0.0000 0.0000
vn 0.0000 0.0000 1.0000
vn -1.0000 0.0000 0.0000
vn 0.0000 1.0000 0.0000
vn 0.0000 -1.0000 -0.0000
vn -0.3827 0.0000 -0.9239
vn 0.9239 0.0000 -0.3827
vn 0.3827 -0.0000 0.9239
vn -0.9239 0.0000 0.3827
vn 0.3827 0.0000 -0.9239
vn 0.9239 0.0000 0.3827
vn -0.3827 0.0000 0.9239
vn -0.9239 0.0000 -0.3827
vn 0.7071 0.0000 -0.7071
vn 0.7071 0.0000 0.7071
vn -0.7071 0.0000 0.7071
vn -0.7071 0.0000 -0.7071
usemtl m_897fd50c-f1c9-3603-5834-4bd34a172c1c
s 1
f 1/1/1 2/2/1 3/3/1 4/4/1
f 5/5/2 1/6/2 4/7/2 6/8/2
f 7/9/3 5/10/3 6/11/3 8/12/3
f 2/13/4 7/14/4 8/15/4 3/16/4
f 8/17/5 6/18/5 4/19/5 3/20/5
f 2/21/6 1/22/6 5/23/6 7/24/6
f 9/25/1 10/26/1 11/27/1 12/28/1
f 13/29/2 9/30/2 12/31/2 14/32/2
f 15/33/3 13/34/3 14/35/3 16/36/3
f 10/37/4 15/38/4 16/39/4 11/40/4
f 16/41/5 14/42/5 12/43/5 11/27/5
f 10/44/6 9/45/6 13/46/6 15/47/6
f 17/48/1 18/49/1 19/50/1 20/51/1
f 21/52/2 17/53/2 20/54/2 22/55/2
f 23/56/3 21/57/3 22/58/3 24/59/3
f 18/60/4 23/61/4 24/62/4 19/63/4
f 24/64/5 22/65/5 20/66/5 19/50/5
f 18/67/6 17/68/6 21/69/6 23/70/6
f 25/71/7 26/72/7 27/73/7 28/74/7
f 29/75/8 25/76/8 28/77/8 30/78/8
f 31/79/9 29/80/9 30/81/9 32/82/9
f 26/83/10 31/84/10 32/85/10 27/86/10
f 32/87/5 30/88/5 28/89/5 27/90/5
f 26/91/6 25/92/6 29/93/6 31/94/6
f 33/95/1 34/96/1 35/97/1 36/98/1
f 37/99/2 33/100/2 36/101/2 38/102/2
f 39/103/3 37/104/3 38/105/3 40/106/3
f 34/107/4 39/108/4 40/109/4 35/110/4
f 40/111/5 38/112/5 36/113/5 35/114/5
f 34/115/6 33/116/6 37/117/6 39/118/6
f 41/119/11 42/120/11 43/121/11 44/122/11
f 45/123/12 41/124/12 44/125/12 46/126/12
f 47/127/13 45/128/13 46/129/13 48/130/13
f 42/131/14 47/132/14 48/133/14 43/134/14
f 48/135/5 46/136/5 44/137/5 43/138/5
f 42/139/6 41/140/6 45/141/6 47/142/6
f 49/143/15 50/144/15 51/145/15 52/146/15
f 53/147/16 49/148/16 52/149/16 54/150/16
f 55/151/17 53/152/17 54/153/17 56/154/17
f 50/155/18 55/156/18 56/157/18 51/158/18
f 56/159/5 54/160/5 52/161/5 51/162/5
f 50/163/6 49/164/6 53/165/6 55/166/6
f 57/167/1 58/168/1 59/169/1 60/170/1
f 61/171/2 57/172/2 60/173/2 62/174/2
f 63/175/3 61/176/3 62/177/3 64/178/3
f 58/179/4 63/180/4 64/181/4 59/182/4
f 64/183/5 62/184/5 60/173/5 59/185/5
f 58/179/6 57/186/6 61/187/6 63/188/6
