# Blender v2.79 (sub 0) OBJ File: ''
# www.blender.org
mtllib vh_bucket.mtl
o cube
v -0.450225 0.000000 0.450225
v 0.450225 0.000000 0.450225
v 0.450225 1.125450 0.450225
v -0.450225 1.125450 0.450225
v -0.450225 -0.000000 -0.450225
v -0.450225 1.125450 -0.450225
v 0.450225 -0.000000 -0.450225
v 0.450225 1.125450 -0.450225
v -0.597881 -0.029099 0.602215
v 0.597881 -0.029099 0.602215
v 0.597881 0.075254 0.645439
v -0.597881 0.075254 0.645439
v -0.597881 0.250911 -0.073788
v -0.597881 0.355263 -0.030564
v 0.597881 0.250911 -0.073788
v 0.597881 0.355263 -0.030564
vt 0.000000 0.375000
vt 0.500000 0.375000
vt 0.500000 1.000000
vt 0.000000 1.000000
vt 0.000000 0.375000
vt 0.500000 0.375000
vt 0.500000 1.000000
vt 0.000000 1.000000
vt 0.000000 0.375000
vt 0.500000 0.375000
vt 0.500000 1.000000
vt 0.000000 1.000000
vt 0.000000 0.375000
vt 0.500000 0.375000
vt 0.500000 1.000000
vt 0.000000 1.000000
vt 0.500000 0.000000
vt 1.000000 0.000000
vt 1.000000 0.500000
vt 0.500000 0.500000
vt 0.500000 0.500000
vt 1.000000 0.500000
vt 1.000000 1.000000
vt 0.500000 1.000000
vt 0.000000 0.250000
vt 0.500000 0.250000
vt 0.500000 0.312500
vt 0.000000 0.312500
vt 0.500000 0.000000
vt 0.500000 0.312500
vt 0.437500 0.312500
vt 0.437500 0.000000
vt 0.000000 0.250000
vt 0.500000 0.250000
vt 0.500000 0.312500
vt 0.000000 0.312500
vt 0.000000 0.312500
vt 0.000000 0.000000
vt 0.062500 0.000000
vt 0.062500 0.312500
vt 0.000000 0.000000
vt 0.500000 0.000000
vt 0.500000 0.312500
vt 0.000000 0.312500
vt 0.500000 0.312500
vt 0.000000 0.312500
vt 0.000000 0.000000
vt 0.500000 0.000000
vn 0.0000 0.0000 1.0000
vn -1.0000 0.0000 0.0000
vn -0.0000 -0.0000 -1.0000
vn 1.0000 0.0000 -0.0000
vn 0.0000 1.0000 0.0000
vn 0.0000 -1.0000 0.0000
vn 0.0000 -0.3827 0.9239
vn -0.0000 0.3827 -0.9239
vn 0.0000 0.9239 0.3827
vn -0.0000 -0.9239 -0.3827
usemtl m_737f67cb-a32e-6ead-3df9-db6889d165e4
s 1
f 1/1/1 2/2/1 3/3/1 4/4/1
f 5/5/2 1/6/2 4/7/2 6/8/2
f 7/9/3 5/10/3 6/11/3 8/12/3
f 2/13/4 7/14/4 8/15/4 3/16/4
f 8/17/5 6/18/5 4/19/5 3/20/5
f 2/21/6 1/22/6 5/23/6 7/24/6
f 9/25/7 10/26/7 11/27/7 12/28/7
f 13/29/2 9/30/2 12/31/2 14/32/2
f 15/33/8 13/34/8 14/35/8 16/36/8
f 10/37/4 15/38/4 16/39/4 11/40/4
f 16/41/9 14/42/9 12/43/9 11/44/9
f 10/45/10 9/46/10 13/47/10 15/48/10
