# Blender v2.79 (sub 0) OBJ File: ''
# www.blender.org
mtllib vh_leaf.mtl
o stem2
v 0.031250 0.187500 -0.031250
v 0.031250 0.187500 0.031250
v 0.031250 0.062500 0.031250
v 0.031250 0.062500 -0.031250
v -0.031250 0.062500 0.031250
v -0.031250 0.187500 0.031250
v -0.031250 0.187500 -0.031250
v -0.031250 0.062500 -0.031250
v -0.023438 0.218750 0.023438
v 0.023438 0.218750 0.023438
v 0.023438 0.218750 -0.023437
v -0.023438 0.218750 -0.023437
v 0.023438 0.046875 -0.023437
v 0.023438 0.046875 0.023438
v -0.023438 0.046875 0.023438
v -0.023438 0.046875 -0.023437
v 0.039062 0.203125 0.039063
v -0.039062 0.203125 0.039063
v 0.039062 0.203125 -0.039062
v -0.039062 0.203125 -0.039062
vt 1.000000 1.000000
vt 0.875000 1.000000
vt 0.875000 0.750000
vt 1.000000 0.750000
vt 1.000000 0.750000
vt 1.000000 1.000000
vt 0.875000 1.000000
vt 0.875000 0.750000
vt 0.875000 0.750000
vt 1.000000 0.750000
vt 1.000000 0.875000
vt 0.875000 0.875000
vt 1.000000 0.750000
vt 1.000000 0.875000
vt 0.875000 0.875000
vt 0.875000 0.750000
vt 1.000000 0.812500
vt 0.875000 0.812500
vt 0.887500 0.750000
vt 0.987500 0.750000
vt 1.000000 0.812500
vt 0.875000 0.812500
vt 0.887500 0.750000
vt 0.987500 0.750000
vt 1.000000 0.812500
vt 0.875000 0.812500
vt 0.887500 0.750000
vt 0.987500 0.750000
vt 1.000000 0.812500
vt 0.875000 0.812500
vt 0.887500 0.750000
vt 0.987500 0.750000
vt 0.890625 0.937500
vt 0.984375 0.937500
vt 1.000000 1.000000
vt 0.875000 1.000000
vt 0.890625 0.937500
vt 0.984375 0.937500
vt 1.000000 1.000000
vt 0.875000 1.000000
vt 0.890625 0.937500
vt 0.984375 0.937500
vt 1.000000 1.000000
vt 0.875000 1.000000
vt 0.890625 0.937500
vt 0.984375 0.937500
vt 1.000000 1.000000
vt 0.875000 1.000000
vt 0.975000 0.875000
vt 0.900000 0.875000
vt 0.975000 0.875000
vt 0.900000 0.875000
vt 0.975000 0.875000
vt 0.900000 0.875000
vt 0.975000 0.875000
vt 0.900000 0.875000
vn 1.0000 0.0000 0.0000
vn -1.0000 -0.0000 0.0000
vn 0.0000 1.0000 0.0000
vn 0.0000 -1.0000 0.0000
vn 0.0000 -0.0000 1.0000
vn 0.0000 0.0000 -1.0000
vn 0.0000 -0.4472 0.8944
vn 0.8944 -0.4472 0.0000
vn 0.0000 -0.4472 -0.8944
vn -0.8944 -0.4472 0.0000
vn 0.0000 0.7071 0.7071
vn 0.7071 0.7071 0.0000
vn 0.0000 0.7071 -0.7071
vn -0.7071 0.7071 0.0000
usemtl m_3febd2ed-a234-6c52-e5e6-16ee2e7bbef5
s 1
f 1/1/1 2/2/1 3/3/1 4/4/1
f 5/5/2 6/6/2 7/7/2 8/8/2
f 9/9/3 10/10/3 11/11/3 12/12/3
f 13/13/4 14/14/4 15/15/4 16/16/4
f 3/3/5 2/2/5 6/6/5 5/5/5
f 7/7/6 1/1/6 4/4/6 8/8/6
f 17/17/7 18/18/7 6/19/7 2/20/7
f 19/21/8 17/22/8 2/23/8 1/24/8
f 20/25/9 19/26/9 1/27/9 7/28/9
f 18/29/10 20/30/10 7/31/10 6/32/10
f 14/33/8 13/34/8 4/35/8 3/36/8
f 15/37/7 14/38/7 3/39/7 5/40/7
f 16/41/10 15/42/10 5/43/10 8/44/10
f 13/45/9 16/46/9 8/47/9 4/48/9
f 10/49/11 9/50/11 18/18/11 17/17/11
f 11/51/12 10/52/12 17/22/12 19/21/12
f 12/53/13 11/54/13 19/26/13 20/25/13
f 9/55/14 12/56/14 20/30/14 18/29/14
o cube
v 0.031250 0.062500 -0.031250
v 0.031250 0.062500 0.031250
v 0.062500 -0.000000 0.062500
v 0.062500 0.000000 -0.062500
v -0.062500 -0.000000 0.062500
v -0.031250 0.062500 0.031250
v -0.031250 0.062500 -0.031250
v -0.062500 0.000000 -0.062500
vt 0.906250 0.937500
vt 0.968750 0.937500
vt 1.000000 0.875000
vt 0.875000 0.875000
vt 0.875000 0.875000
vt 0.906250 0.937500
vt 0.968750 0.937500
vt 1.000000 0.875000
vt 0.875000 0.875000
vt 0.937500 0.875000
vt 0.937500 0.937500
vt 0.875000 0.937500
vt 1.000000 0.875000
vt 1.000000 1.000000
vt 0.875000 1.000000
vt 0.875000 0.875000
vn 0.8944 0.4472 0.0000
vn -0.8944 0.4472 0.0000
vn 0.0000 1.0000 0.0000
vn 0.0000 -1.0000 -0.0000
vn 0.0000 0.4472 0.8944
vn 0.0000 0.4472 -0.8944
usemtl m_3febd2ed-a234-6c52-e5e6-16ee2e7bbef5
s 1
f 21/57/15 22/58/15 23/59/15 24/60/15
f 25/61/16 26/62/16 27/63/16 28/64/16
f 26/65/17 22/66/17 21/67/17 27/68/17
f 24/69/18 23/70/18 25/71/18 28/72/18
f 23/59/19 22/58/19 26/62/19 25/61/19
f 27/63/20 21/57/20 24/60/20 28/64/20
o leaf
v 0.000000 0.203125 0.156250
v 0.270633 0.359375 0.156250
v 0.270633 0.359375 -0.156250
v 0.000000 0.203125 -0.156250
v 0.270633 0.359375 -0.156250
v 0.270633 0.359375 0.156250
v 0.000000 0.203125 0.156250
v 0.000000 0.203125 -0.156250
v -0.270633 0.359375 -0.156250
v -0.270633 0.359375 0.156250
v 0.000000 0.203125 0.156250
v 0.000000 0.203125 -0.156250
v 0.000000 0.203125 0.156250
v -0.270633 0.359375 0.156250
v -0.270633 0.359375 -0.156250
v 0.000000 0.203125 -0.156250
vt 0.875000 0.000000
vt 0.875000 1.000000
vt 0.000000 1.000000
vt 0.000000 0.000000
vt 0.875000 1.000000
vt 0.000000 1.000000
vt 0.000000 0.000000
vt 0.875000 0.000000
vt 0.000000 1.000000
vt 0.875000 1.000000
vt 0.875000 0.000000
vt 0.000000 0.000000
vt 0.000000 0.000000
vt 0.000000 1.000000
vt 0.875000 1.000000
vt 0.875000 0.000000
vn -0.5000 0.8660 0.0000
vn 0.5000 -0.8660 0.0000
vn 0.5000 0.8660 0.0000
vn -0.5000 -0.8660 0.0000
usemtl m_3febd2ed-a234-6c52-e5e6-16ee2e7bbef5
s 1
f 29/73/21 30/74/21 31/75/21 32/76/21
f 33/77/22 34/78/22 35/79/22 36/80/22
f 37/81/23 38/82/23 39/83/23 40/84/23
f 41/85/24 42/86/24 43/87/24 44/88/24
