# Blender v2.79 (sub 0) OBJ File: ''
# www.blender.org
mtllib vh_tophat.mtl
o cube
v 0.562500 0.000000 -0.562500
v -0.562500 0.000000 -0.562500
v -0.562500 0.112500 -0.562500
v 0.562500 0.112500 -0.562500
v 0.562500 -0.000000 0.562500
v 0.562500 0.112500 0.562500
v -0.562500 -0.000000 0.562500
v -0.562500 0.112500 0.562500
v 0.450000 0.112500 -0.450000
v -0.450000 0.112500 -0.450000
v -0.450000 0.787500 -0.450000
v 0.450000 0.787500 -0.450000
v 0.450000 0.112500 0.450000
v 0.450000 0.787500 0.450000
v -0.450000 0.112500 0.450000
v -0.450000 0.787500 0.450000
v 0.451125 0.223875 -0.451125
v -0.451125 0.223875 -0.451125
v -0.451125 0.338625 -0.451125
v 0.451125 0.338625 -0.451125
v 0.451125 0.223875 0.451125
v 0.451125 0.338625 0.451125
v -0.451125 0.223875 0.451125
v -0.451125 0.338625 0.451125
vt 0.000000 0.937500
vt 0.625000 0.937500
vt 0.625000 1.000000
vt 0.000000 1.000000
vt 0.375000 0.750000
vt 1.000000 0.750000
vt 1.000000 0.812500
vt 0.375000 0.812500
vt 0.250000 0.812500
vt 0.875000 0.812500
vt 0.875000 0.875000
vt 0.250000 0.875000
vt 0.125000 0.875000
vt 0.750000 0.875000
vt 0.750000 0.937500
vt 0.125000 0.937500
vt 0.000000 0.125000
vt 0.625000 0.125000
vt 0.625000 0.750000
vt 0.000000 0.750000
vt 0.375000 0.125000
vt 1.000000 0.125000
vt 1.000000 0.750000
vt 0.375000 0.750000
vt 0.000000 0.625000
vt 0.500000 0.625000
vt 0.500000 1.000000
vt 0.000000 1.000000
vt 0.500000 0.125000
vt 1.000000 0.125000
vt 1.000000 0.500000
vt 0.500000 0.500000
vt 0.500000 0.625000
vt 1.000000 0.625000
vt 1.000000 1.000000
vt 0.500000 1.000000
vt 0.000000 0.125000
vt 0.500000 0.125000
vt 0.500000 0.500000
vt 0.000000 0.500000
vt 0.000000 0.500000
vt 0.500000 1.000000
vt 0.000000 1.000000
vt 0.500000 0.500000
vt 1.000000 0.500000
vt 1.000000 1.000000
vt 0.500000 1.000000
vt 0.375000 0.062500
vt 1.000000 0.062500
vt 1.000000 0.125000
vt 0.375000 0.125000
vt 0.000000 0.000000
vt 0.625000 0.000000
vt 0.625000 0.062500
vt 0.000000 0.062500
vt 0.375000 0.000000
vt 1.000000 0.000000
vt 1.000000 0.062500
vt 0.375000 0.062500
vt 0.000000 0.062500
vt 0.625000 0.062500
vt 0.625000 0.125000
vt 0.000000 0.125000
vt 0.000000 0.125000
vt 0.625000 0.125000
vt 0.625000 0.750000
vt 0.000000 0.750000
vt 0.375000 0.125000
vt 1.000000 0.125000
vt 1.000000 0.750000
vt 0.375000 0.750000
vn 0.0000 0.0000 -1.0000
vn 1.0000 0.0000 0.0000
vn 0.0000 0.0000 1.0000
vn -1.0000 0.0000 0.0000
vn 0.0000 1.0000 0.0000
vn 0.0000 -1.0000 -0.0000
usemtl m_269a907f-a440-244f-5c1f-018202883351
s 1
f 1/1/1 2/2/1 3/3/1 4/4/1
f 5/5/2 1/6/2 4/7/2 6/8/2
f 7/9/3 5/10/3 6/11/3 8/12/3
f 2/13/4 7/14/4 8/15/4 3/16/4
f 8/17/5 6/18/5 4/19/5 3/20/5
f 2/21/6 1/22/6 5/23/6 7/24/6
f 9/25/1 10/26/1 11/27/1 12/28/1
f 13/29/2 9/30/2 12/31/2 14/32/2
f 15/33/3 13/34/3 14/35/3 16/36/3
f 10/37/4 15/38/4 16/39/4 11/40/4
f 16/41/5 14/32/5 12/42/5 11/43/5
f 10/44/6 9/45/6 13/46/6 15/47/6
f 17/48/1 18/49/1 19/50/1 20/51/1
f 21/52/2 17/53/2 20/54/2 22/55/2
f 23/56/3 21/57/3 22/58/3 24/59/3
f 18/60/4 23/61/4 24/62/4 19/63/4
f 24/64/5 22/65/5 20/66/5 19/67/5
f 18/68/6 17/69/6 21/70/6 23/71/6
