# Blender v2.79 (sub 0) OBJ File: ''
# www.blender.org
mtllib watergun.mtl
o hudModel
v 0.000977 -0.000977 -0.032227
v -0.000977 -0.000977 -0.032227
v -0.000977 0.000977 -0.032227
v 0.000977 0.000977 -0.032227
v 0.000977 -0.000977 -0.030273
v 0.000977 0.000977 -0.030273
v -0.000977 -0.000977 -0.030273
v -0.000977 0.000977 -0.030273
vt 0.937500 0.000000
vt 1.000000 0.000000
vt 1.000000 0.062500
vt 0.937500 0.062500
vt 0.937500 0.000000
vt 1.000000 0.000000
vt 1.000000 0.062500
vt 0.937500 0.062500
vt 0.937500 0.000000
vt 1.000000 0.000000
vt 1.000000 0.062500
vt 0.937500 0.062500
vt 0.937500 0.000000
vt 1.000000 0.000000
vt 1.000000 0.062500
vt 0.937500 0.062500
vt 0.937500 0.000000
vt 1.000000 0.000000
vt 1.000000 0.062500
vt 0.937500 0.062500
vn 0.0000 0.0000 -1.0000
vn 1.0000 0.0000 0.0000
vn 0.0000 0.0000 1.0000
vn -1.0000 0.0000 0.0000
vn 0.0000 1.0000 0.0000
vn 0.0000 -1.0000 -0.0000
usemtl none
s 1
f 1/1/1 2/2/1 3/3/1 4/4/1
f 5/5/2 1/6/2 4/7/2 6/8/2
f 7/9/3 5/10/3 6/11/3 8/12/3
f 2/13/4 7/14/4 8/15/4 3/16/4
f 8/17/5 6/18/5 4/7/5 3/16/5
f 2/13/6 1/6/6 5/19/6 7/20/6
o hudAmmoModel
v 0.000977 -0.000977 -0.032227
v -0.000977 -0.000977 -0.032227
v -0.000977 0.000977 -0.032227
v 0.000977 0.000977 -0.032227
v 0.000977 -0.000977 -0.030273
v 0.000977 0.000977 -0.030273
v -0.000977 -0.000977 -0.030273
v -0.000977 0.000977 -0.030273
vt 0.937500 0.000000
vt 1.000000 0.000000
vt 1.000000 0.062500
vt 0.937500 0.062500
vt 0.937500 0.000000
vt 1.000000 0.000000
vt 1.000000 0.062500
vt 0.937500 0.062500
vt 0.937500 0.000000
vt 1.000000 0.000000
vt 1.000000 0.062500
vt 0.937500 0.062500
vt 0.937500 0.000000
vt 1.000000 0.000000
vt 1.000000 0.062500
vt 0.937500 0.062500
vt 0.937500 0.000000
vt 1.000000 0.000000
vt 1.000000 0.062500
vt 0.937500 0.062500
vn 0.0000 0.0000 -1.0000
vn 1.0000 0.0000 0.0000
vn 0.0000 0.0000 1.0000
vn -1.0000 0.0000 0.0000
vn 0.0000 1.0000 0.0000
vn 0.0000 -1.0000 -0.0000
usemtl none
s 1
f 9/21/7 10/22/7 11/23/7 12/24/7
f 13/25/8 9/26/8 12/27/8 14/28/8
f 15/29/9 13/30/9 14/31/9 16/32/9
f 10/33/10 15/34/10 16/35/10 11/36/10
f 16/37/11 14/38/11 12/27/11 11/36/11
f 10/33/12 9/26/12 13/39/12 15/40/12
o case
v 0.035156 0.035156 0.125000
v 0.035156 0.035156 0.468750
v 0.035156 -0.035156 0.468750
v 0.035156 -0.035156 0.125000
v -0.035156 -0.035156 0.468750
v -0.035156 0.035156 0.468750
v -0.035156 0.035156 0.125000
v -0.035156 -0.035156 0.125000
vt 0.812500 0.187500
vt 0.500000 0.187500
vt 0.500000 0.125000
vt 0.812500 0.125000
vt 0.812500 0.187500
vt 0.812500 0.250000
vt 0.500000 0.250000
vt 0.500000 0.187500
vt 0.812500 0.187500
vt 0.812500 0.250000
vt 0.500000 0.250000
vt 0.500000 0.187500
vt 0.812500 0.187500
vt 0.500000 0.187500
vt 0.500000 0.125000
vt 0.812500 0.125000
vt 0.531250 0.093750
vt 0.531250 0.125000
vt 0.500000 0.125000
vt 0.500000 0.093750
vt 0.562500 0.125000
vt 0.531250 0.125000
vt 0.531250 0.093750
vt 0.562500 0.093750
vn 1.0000 0.0000 0.0000
vn -1.0000 0.0000 0.0000
vn 0.0000 1.0000 0.0000
vn 0.0000 -1.0000 -0.0000
vn 0.0000 0.0000 1.0000
vn 0.0000 0.0000 -1.0000
usemtl m_505c54b9-9789-4909-094d-542ceb5fcbe5
s 1
f 17/41/13 18/42/13 19/43/13 20/44/13
f 21/45/14 22/46/14 23/47/14 24/48/14
f 22/49/15 18/50/15 17/51/15 23/52/15
f 20/53/16 19/54/16 21/55/16 24/56/16
f 19/57/17 18/58/17 22/59/17 21/60/17
f 23/61/18 17/62/18 20/63/18 24/64/18
o muzzle
v 0.039062 0.039062 0.500000
v 0.023438 0.023437 0.531250
v 0.023438 -0.023438 0.531250
v 0.039062 -0.039063 0.500000
v -0.023438 -0.023438 0.531250
v -0.023438 0.023437 0.531250
v -0.039062 0.039062 0.500000
v -0.039062 -0.039063 0.500000
v 0.007812 -0.007813 0.527344
v 0.007812 0.007812 0.527344
v -0.007812 0.007812 0.527344
v -0.007812 -0.007813 0.527344
vt 0.579969 0.906250
vt 0.562500 0.898438
vt 0.562500 0.875000
vt 0.579969 0.867188
vt 0.579969 0.875000
vt 0.579969 0.898438
vt 0.562500 0.906250
vt 0.562500 0.867188
vt 0.570312 0.857531
vt 0.593750 0.857531
vt 0.601562 0.875000
vt 0.562500 0.875000
vt 0.601562 0.888781
vt 0.593750 0.906250
vt 0.570312 0.906250
vt 0.562500 0.888781
vt 0.937500 0.812500
vt 0.937500 0.937500
vt 0.812500 0.937500
vt 0.812500 0.812500
vt 0.601562 0.906250
vt 0.562500 0.906250
vt 0.562500 0.867188
vt 0.601562 0.867188
vt 0.562500 0.898438
vt 0.562500 0.890625
vt 0.571234 0.882812
vt 0.571234 0.906250
vt 0.570312 0.897516
vt 0.578125 0.897516
vt 0.585938 0.906250
vt 0.562500 0.906250
vt 0.571234 0.890625
vt 0.571234 0.898438
vt 0.562500 0.882812
vt 0.578125 0.906250
vt 0.570312 0.906250
vt 0.562500 0.897516
vt 0.585938 0.897516
vn 0.8944 0.0000 0.4472
vn -0.8944 0.0000 0.4472
vn 0.0000 0.8944 0.4472
vn 0.0000 -0.8944 0.4472
vn 0.0000 0.0000 1.0000
vn 0.0000 0.0000 -1.0000
vn -0.2425 0.0000 0.9701
vn 0.0000 -0.2425 0.9701
vn 0.2425 0.0000 0.9701
vn 0.0000 0.2425 0.9701
usemtl m_505c54b9-9789-4909-094d-542ceb5fcbe5
s 1
f 25/65/19 26/66/19 27/67/19 28/68/19
f 29/69/20 30/70/20 31/71/20 32/72/20
f 30/73/21 26/74/21 25/75/21 31/76/21
f 28/77/22 27/78/22 29/79/22 32/80/22
f 33/81/23 34/82/23 35/83/23 36/84/23
f 31/85/24 25/86/24 28/87/24 32/88/24
f 34/89/25 33/90/25 27/91/25 26/92/25
f 35/93/26 34/94/26 26/95/26 30/96/26
f 36/97/27 35/98/27 30/96/27 29/99/27
f 33/100/28 36/101/28 29/102/28 27/103/28
o cube
v 0.046875 0.015625 0.000000
v 0.046875 0.015625 0.031250
v 0.046875 -0.015625 0.031250
v 0.046875 -0.015625 -0.000000
v -0.046875 -0.015625 0.031250
v -0.046875 0.015625 0.031250
v -0.046875 0.015625 0.000000
v -0.046875 -0.015625 -0.000000
v -0.015625 0.046875 0.000000
v -0.015625 0.046875 0.031250
v 0.015625 0.046875 0.031250
v 0.015625 0.046875 0.000000
v 0.015625 -0.046875 0.031250
v -0.015625 -0.046875 0.031250
v -0.015625 -0.046875 -0.000000
v 0.015625 -0.046875 -0.000000
vt 0.109375 0.312500
vt 0.093750 0.312500
vt 0.093750 0.296875
vt 0.109375 0.296875
vt 0.109375 0.296875
vt 0.109375 0.312500
vt 0.093750 0.312500
vt 0.093750 0.296875
vt 0.125000 0.328125
vt 0.171875 0.328125
vt 0.171875 0.343750
vt 0.125000 0.343750
vt 0.171875 0.328125
vt 0.171875 0.343750
vt 0.125000 0.343750
vt 0.125000 0.328125
vt 0.171875 0.296875
vt 0.171875 0.312500
vt 0.125000 0.312500
vt 0.125000 0.296875
vt 0.171875 0.312500
vt 0.125000 0.312500
vt 0.125000 0.296875
vt 0.171875 0.296875
vt 0.109375 0.312500
vt 0.093750 0.312500
vt 0.093750 0.296875
vt 0.109375 0.296875
vt 0.109375 0.296875
vt 0.109375 0.312500
vt 0.093750 0.312500
vt 0.093750 0.296875
vt 0.125000 0.328125
vt 0.171875 0.328125
vt 0.171875 0.343750
vt 0.125000 0.343750
vt 0.171875 0.328125
vt 0.171875 0.343750
vt 0.125000 0.343750
vt 0.125000 0.328125
vt 0.171875 0.296875
vt 0.171875 0.312500
vt 0.125000 0.312500
vt 0.125000 0.296875
vt 0.171875 0.312500
vt 0.125000 0.312500
vt 0.125000 0.296875
vt 0.171875 0.296875
vn 1.0000 -0.0000 0.0000
vn -1.0000 -0.0000 0.0000
vn 0.0000 1.0000 0.0000
vn 0.0000 -1.0000 -0.0000
vn 0.0000 0.0000 1.0000
vn 0.0000 0.0000 -1.0000
usemtl m_505c54b9-9789-4909-094d-542ceb5fcbe5
s 1
f 37/104/29 38/105/29 39/106/29 40/107/29
f 41/108/30 42/109/30 43/110/30 44/111/30
f 42/112/31 38/113/31 37/114/31 43/115/31
f 40/116/32 39/117/32 41/118/32 44/119/32
f 39/120/33 38/121/33 42/122/33 41/123/33
f 43/124/34 37/125/34 40/126/34 44/127/34
f 45/128/31 46/129/31 47/130/31 48/131/31
f 49/132/32 50/133/32 51/134/32 52/135/32
f 50/136/30 46/137/30 45/138/30 51/139/30
f 48/140/29 47/141/29 49/142/29 52/143/29
f 47/144/33 46/145/33 50/146/33 49/147/33
f 51/148/34 45/149/34 48/150/34 52/151/34
o aim
v -0.046875 0.117187 0.507812
v 0.000000 0.117187 0.507812
v 0.000000 0.164062 0.507812
v -0.046875 0.164062 0.507812
v 0.000000 0.070312 0.507812
v 0.000000 0.117187 0.507812
v 0.046875 0.117187 0.507812
v 0.046875 0.070312 0.507812
v -0.046875 0.070312 0.507812
v -0.046875 0.117187 0.507812
v 0.000000 0.164062 0.507812
v -0.046875 0.164062 0.507812
v 0.046875 0.164062 0.507812
v -0.046875 0.070312 0.507812
v 0.000000 0.070312 0.507812
v 0.046875 0.117187 0.507812
v 0.046875 0.070312 0.507812
v 0.046875 0.164062 0.507812
v -0.023438 0.031250 0.484375
v -0.023438 0.070312 0.507812
v 0.023438 0.070312 0.507812
v 0.023438 0.031250 0.484375
v -0.023438 0.031250 0.484375
v 0.023438 0.031250 0.484375
v 0.023438 0.070312 0.507812
v -0.023438 0.070312 0.507812
vt 1.000000 0.062500
vt 0.812500 0.062500
vt 0.812500 0.250000
vt 1.000000 0.250000
vt 0.812500 0.250000
vt 0.812500 0.062500
vt 1.000000 0.062500
vt 1.000000 0.250000
vt 1.000000 0.250000
vt 1.000000 0.062500
vt 0.812500 0.250000
vt 1.000000 0.250000
vt 1.000000 0.250000
vt 1.000000 0.250000
vt 0.812500 0.250000
vt 1.000000 0.062500
vt 1.000000 0.250000
vt 1.000000 0.250000
vt 0.531250 0.000000
vt 0.531250 0.125000
vt 0.656250 0.125000
vt 0.656250 0.000000
vt 0.656250 0.000000
vt 0.531250 0.000000
vt 0.531250 0.125000
vt 0.656250 0.125000
vn 0.0000 0.0000 1.0000
vn 0.0000 0.0000 -1.0000
vn 0.0000 0.5145 -0.8575
vn 0.0000 -0.5145 0.8575
usemtl m_505c54b9-9789-4909-094d-542ceb5fcbe5
s 1
f 53/152/35 54/153/35 55/154/35 56/155/35
f 57/156/36 58/157/36 59/158/36 60/159/36
f 61/160/36 62/161/36 58/157/36 57/156/36
f 63/162/36 58/157/36 62/161/36 64/163/36
f 65/164/36 59/158/36 58/157/36 63/162/36
f 66/165/35 67/166/35 54/153/35 53/152/35
f 68/167/35 54/153/35 67/166/35 69/168/35
f 70/169/35 55/154/35 54/153/35 68/167/35
f 71/170/37 72/171/37 73/172/37 74/173/37
f 75/174/38 76/175/38 77/176/38 78/177/38
o barrel
v 0.031250 0.031250 0.000000
v 0.031250 0.031250 0.062500
v 0.031250 -0.031250 0.062500
v 0.031250 -0.031250 -0.000000
v -0.031250 -0.031250 0.062500
v -0.031250 0.031250 0.062500
v -0.031250 0.031250 0.000000
v -0.031250 -0.031250 -0.000000
v 0.031250 0.031250 0.062500
v 0.031250 0.031250 0.500000
v 0.031250 -0.031250 0.500000
v 0.031250 -0.031250 0.062500
v -0.031250 -0.031250 0.500000
v -0.031250 0.031250 0.500000
v -0.031250 0.031250 0.062500
v -0.031250 -0.031250 0.062500
vt 0.687500 0.843750
vt 0.656250 0.843750
vt 0.656250 0.812500
vt 0.687500 0.812500
vt 0.687500 0.812500
vt 0.687500 0.843750
vt 0.656250 0.843750
vt 0.656250 0.812500
vt 0.656250 0.812500
vt 0.687500 0.812500
vt 0.687500 0.843750
vt 0.656250 0.843750
vt 0.687500 0.812500
vt 0.687500 0.843750
vt 0.656250 0.843750
vt 0.656250 0.812500
vt 0.687500 0.843750
vt 0.656250 0.843750
vt 0.656250 0.812500
vt 0.687500 0.812500
vt 0.750000 0.687500
vt 0.531250 0.687500
vt 0.531250 0.664062
vt 0.750000 0.664062
vt 0.750000 0.664062
vt 0.750000 0.687500
vt 0.531250 0.687500
vt 0.531250 0.664062
vt 0.562500 0.500000
vt 0.585938 0.500000
vt 0.585938 0.718750
vt 0.562500 0.718750
vt 0.585938 0.500000
vt 0.585938 0.718750
vt 0.562500 0.718750
vt 0.562500 0.500000
vt 0.585938 0.664062
vt 0.585938 0.687500
vt 0.562500 0.687500
vt 0.562500 0.664062
vt 0.585938 0.687500
vt 0.562500 0.687500
vt 0.562500 0.664062
vt 0.585938 0.664062
vn 1.0000 0.0000 0.0000
vn -1.0000 -0.0000 0.0000
vn 0.0000 1.0000 0.0000
vn 0.0000 -1.0000 -0.0000
vn 0.0000 0.0000 1.0000
vn 0.0000 0.0000 -1.0000
usemtl m_505c54b9-9789-4909-094d-542ceb5fcbe5
s 1
f 79/178/39 80/179/39 81/180/39 82/181/39
f 83/182/40 84/183/40 85/184/40 86/185/40
f 84/186/41 80/187/41 79/178/41 85/184/41
f 82/181/42 81/188/42 83/189/42 86/185/42
f 81/190/43 80/191/43 84/192/43 83/193/43
f 85/194/44 79/195/44 82/196/44 86/197/44
f 87/198/39 88/199/39 89/200/39 90/201/39
f 91/202/40 92/203/40 93/204/40 94/205/40
f 92/206/41 88/207/41 87/208/41 93/209/41
f 90/210/42 89/211/42 91/212/42 94/213/42
f 89/214/43 88/215/43 92/216/43 91/217/43
f 93/218/44 87/219/44 90/220/44 94/221/44
o hudReloadModel
v 0.000977 -0.000977 -0.032227
v -0.000977 -0.000977 -0.032227
v -0.000977 0.000977 -0.032227
v 0.000977 0.000977 -0.032227
v 0.000977 -0.000977 -0.030273
v 0.000977 0.000977 -0.030273
v -0.000977 -0.000977 -0.030273
v -0.000977 0.000977 -0.030273
vt 0.937500 0.000000
vt 1.000000 0.000000
vt 1.000000 0.062500
vt 0.937500 0.062500
vt 0.937500 0.000000
vt 1.000000 0.000000
vt 1.000000 0.062500
vt 0.937500 0.062500
vt 0.937500 0.000000
vt 1.000000 0.000000
vt 1.000000 0.062500
vt 0.937500 0.062500
vt 0.937500 0.000000
vt 1.000000 0.000000
vt 1.000000 0.062500
vt 0.937500 0.062500
vt 0.937500 0.000000
vt 1.000000 0.000000
vt 1.000000 0.062500
vt 0.937500 0.062500
vn 0.0000 0.0000 -1.0000
vn 1.0000 0.0000 0.0000
vn 0.0000 0.0000 1.0000
vn -1.0000 0.0000 0.0000
vn 0.0000 1.0000 0.0000
vn 0.0000 -1.0000 -0.0000
usemtl none
s 1
f 95/222/45 96/223/45 97/224/45 98/225/45
f 99/226/46 95/227/46 98/228/46 100/229/46
f 101/230/47 99/231/47 100/232/47 102/233/47
f 96/234/48 101/235/48 102/236/48 97/237/48
f 102/238/49 100/239/49 98/228/49 97/237/49
f 96/234/50 95/227/50 99/240/50 101/241/50
o handheldmount
v 0.046875 0.046875 -0.125000
v 0.046875 0.046875 0.000000
v 0.046875 -0.046875 -0.000000
v 0.046875 -0.046875 -0.125000
v -0.046875 -0.046875 -0.000000
v -0.046875 0.046875 0.000000
v -0.046875 0.046875 -0.125000
v -0.046875 -0.046875 -0.125000
v 0.046875 -0.046875 -0.062500
v 0.046875 -0.046875 -0.000000
v 0.046875 -0.109375 -0.062500
v 0.046875 -0.109375 -0.125000
v -0.046875 -0.109375 -0.062500
v -0.046875 -0.046875 -0.000000
v -0.046875 -0.046875 -0.062500
v -0.046875 -0.109375 -0.125000
v 0.046875 -0.109375 -0.187500
v 0.046875 -0.109375 -0.062500
v 0.046875 -0.140625 -0.062500
v 0.046875 -0.203125 -0.187500
v -0.046875 -0.140625 -0.062500
v -0.046875 -0.109375 -0.062500
v -0.046875 -0.109375 -0.187500
v -0.046875 -0.203125 -0.187500
v 0.023438 -0.046875 -0.187500
v 0.046875 -0.046875 -0.125000
v 0.046875 -0.109375 -0.187500
v 0.023438 -0.109375 -0.250000
v -0.046875 -0.109375 -0.187500
v -0.046875 -0.046875 -0.125000
v -0.023438 -0.046875 -0.187500
v -0.023438 -0.109375 -0.250000
v 0.023438 -0.109375 -0.250000
v 0.046875 -0.109375 -0.187500
v 0.046875 -0.203125 -0.187500
v 0.023438 -0.164062 -0.250000
v -0.046875 -0.203125 -0.187500
v -0.046875 -0.109375 -0.187500
v -0.023438 -0.109375 -0.250000
v -0.023438 -0.164062 -0.250000
v 0.023438 0.000000 -0.187500
v 0.046875 0.046875 -0.125000
v 0.046875 -0.046875 -0.125000
v 0.023438 -0.046875 -0.187500
v -0.046875 -0.046875 -0.125000
v -0.046875 0.046875 -0.125000
v -0.023438 0.000000 -0.187500
v -0.023438 -0.046875 -0.187500
vt 0.687500 0.375000
vt 0.625000 0.375000
vt 0.625000 0.328125
vt 0.687500 0.328125
vt 0.687500 0.328125
vt 0.687500 0.375000
vt 0.625000 0.375000
vt 0.625000 0.328125
vt 0.625000 0.312500
vt 0.671875 0.312500
vt 0.671875 0.375000
vt 0.671875 0.312500
vt 0.671875 0.375000
vt 0.625000 0.375000
vt 0.625000 0.312500
vt 0.671875 0.328125
vt 0.671875 0.375000
vt 0.625000 0.375000
vt 0.625000 0.328125
vt 0.671875 0.375000
vt 0.625000 0.375000
vt 0.625000 0.328125
vt 0.671875 0.328125
vt 0.406250 0.656250
vt 0.375000 0.656250
vt 0.406250 0.625000
vt 0.437500 0.625000
vt 0.406250 0.625000
vt 0.437500 0.656250
vt 0.406250 0.656250
vt 0.375000 0.625000
vt 0.375000 0.593750
vt 0.421875 0.593750
vt 0.421875 0.625000
vt 0.375000 0.625000
vt 0.421875 0.625000
vt 0.421875 0.656250
vt 0.375000 0.656250
vt 0.421875 0.612056
vt 0.421875 0.656250
vt 0.375000 0.656250
vt 0.375000 0.612056
vt 0.421875 0.687500
vt 0.375000 0.687500
vt 0.375000 0.643306
vt 0.421875 0.643306
vt 0.406250 0.656250
vt 0.343750 0.656250
vt 0.343750 0.640625
vt 0.406250 0.609375
vt 0.437500 0.640625
vt 0.437500 0.656250
vt 0.375000 0.656250
vt 0.375000 0.609375
vt 0.375000 0.562500
vt 0.421875 0.562500
vt 0.421875 0.625000
vt 0.375000 0.625000
vt 0.421875 0.617622
vt 0.421875 0.687500
vt 0.375000 0.687500
vt 0.375000 0.617622
vt 0.421875 0.640625
vt 0.421875 0.656250
vt 0.375000 0.656250
vt 0.375000 0.640625
vt 0.421875 0.656250
vt 0.375000 0.656250
vt 0.375000 0.609375
vt 0.421875 0.609375
vt 0.377125 0.656250
vt 0.343750 0.656250
vt 0.373009 0.623131
vt 0.406384 0.623131
vt 0.377125 0.623131
vt 0.406384 0.656250
vt 0.373009 0.656250
vt 0.343750 0.623131
vt 0.375000 0.593750
vt 0.421875 0.593750
vt 0.410156 0.625000
vt 0.386719 0.625000
vt 0.410156 0.625000
vt 0.421875 0.656250
vt 0.375000 0.656250
vt 0.386719 0.625000
vt 0.421875 0.612056
vt 0.421875 0.656250
vt 0.375000 0.656250
vt 0.375000 0.612056
vt 0.398438 0.656250
vt 0.375000 0.656250
vt 0.375000 0.612056
vt 0.398438 0.612056
vt 0.377125 0.656250
vt 0.343750 0.656250
vt 0.343750 0.609375
vt 0.377125 0.628906
vt 0.408375 0.609375
vt 0.408375 0.656250
vt 0.375000 0.656250
vt 0.375000 0.628906
vt 0.375000 0.593750
vt 0.421875 0.593750
vt 0.410156 0.625000
vt 0.386719 0.625000
vt 0.386719 0.625000
vt 0.375000 0.588150
vt 0.421875 0.588150
vt 0.410156 0.625000
vt 0.421875 0.609375
vt 0.421875 0.656250
vt 0.375000 0.656250
vt 0.375000 0.609375
vt 0.398438 0.656250
vt 0.375000 0.656250
vt 0.375000 0.628906
vt 0.398438 0.628906
vt 0.627125 0.351562
vt 0.593750 0.375000
vt 0.593750 0.328125
vt 0.627125 0.328125
vt 0.658375 0.328125
vt 0.658375 0.375000
vt 0.625000 0.351562
vt 0.625000 0.328125
vt 0.671875 0.406250
vt 0.625000 0.406250
vt 0.636719 0.367188
vt 0.660156 0.367188
vt 0.660156 0.375000
vt 0.671875 0.406250
vt 0.625000 0.406250
vt 0.636719 0.375000
vt 0.671875 0.328125
vt 0.671875 0.375000
vt 0.625000 0.375000
vt 0.625000 0.328125
vt 0.648438 0.375000
vt 0.625000 0.375000
vt 0.625000 0.351562
vt 0.648438 0.351562
vn 1.0000 0.0000 0.0000
vn -1.0000 0.0000 0.0000
vn 0.0000 1.0000 0.0000
vn 0.0000 -1.0000 -0.0000
vn 0.0000 -0.0000 1.0000
vn 0.0000 0.0000 -1.0000
vn 0.0000 -0.7071 0.7071
vn 0.0000 0.7071 -0.7071
vn 0.0000 -0.8944 0.4472
vn 0.8835 0.3313 -0.3313
vn -0.8835 0.3313 -0.3313
vn 0.9363 0.0000 -0.3511
vn -0.9363 0.0000 -0.3511
vn 0.0000 -0.8480 -0.5300
vn 0.0000 0.8000 -0.6000
usemtl m_505c54b9-9789-4909-094d-542ceb5fcbe5
s 1
f 103/242/51 104/243/51 105/244/51 106/245/51
f 107/246/52 108/247/52 109/248/52 110/249/52
f 108/250/53 104/251/53 103/252/53 109/248/53
f 106/253/54 105/254/54 107/255/54 110/256/54
f 105/257/55 104/258/55 108/259/55 107/260/55
f 109/261/56 103/262/56 106/263/56 110/264/56
f 111/265/51 112/266/51 113/267/51 114/268/51
f 115/269/52 116/270/52 117/271/52 118/272/52
f 116/273/53 112/274/53 111/275/53 117/276/53
f 114/277/54 113/278/54 115/279/54 118/272/54
f 113/280/57 112/281/57 116/282/57 115/283/57
f 117/284/58 111/285/58 114/286/58 118/287/58
f 119/288/51 120/289/51 121/290/51 122/291/51
f 123/292/52 124/293/52 125/294/52 126/295/52
f 124/296/53 120/297/53 119/298/53 125/299/53
f 122/300/59 121/301/59 123/302/59 126/303/59
f 121/304/55 120/305/55 124/306/55 123/307/55
f 125/308/56 119/309/56 122/310/56 126/311/56
f 127/312/60 128/313/60 129/314/60 130/315/60
f 131/316/61 132/317/61 133/318/61 134/319/61
f 132/320/53 128/321/53 127/322/53 133/323/53
f 130/324/54 129/325/54 131/326/54 134/327/54
f 129/328/57 128/329/57 132/330/57 131/331/57
f 133/332/58 127/333/58 130/334/58 134/335/58
f 135/336/62 136/337/62 137/338/62 138/339/62
f 139/340/63 140/341/63 141/342/63 142/343/63
f 140/344/53 136/345/53 135/346/53 141/347/53
f 138/348/64 137/349/64 139/350/64 142/351/64
f 137/352/55 136/353/55 140/354/55 139/355/55
f 141/356/56 135/357/56 138/358/56 142/359/56
f 143/360/62 144/361/62 145/362/62 146/363/62
f 147/364/63 148/365/63 149/366/63 150/367/63
f 148/368/65 144/369/65 143/370/65 149/371/65
f 146/372/54 145/373/54 147/374/54 150/375/54
f 145/376/55 144/377/55 148/378/55 147/379/55
f 149/380/56 143/381/56 146/382/56 150/383/56
o vehiclemount
v 0.046875 0.046875 -0.062500
v 0.046875 0.046875 0.000000
v 0.046875 -0.140625 -0.000000
v 0.046875 -0.078125 -0.062500
v -0.046875 -0.140625 -0.000000
v -0.046875 0.046875 0.000000
v -0.046875 0.046875 -0.062500
v -0.046875 -0.078125 -0.062500
v 0.031250 -0.062500 -0.054688
v 0.031250 -0.062500 0.046875
v 0.031250 -0.125000 0.015625
v 0.031250 -0.125000 -0.007813
v -0.031250 -0.125000 0.015625
v -0.031250 -0.062500 0.046875
v -0.031250 -0.062500 -0.054688
v -0.031250 -0.125000 -0.007813
vt 0.593750 0.437500
vt 0.562500 0.437500
vt 0.562500 0.343750
vt 0.593750 0.375000
vt 0.593750 0.343750
vt 0.593750 0.437500
vt 0.562500 0.437500
vt 0.562500 0.375000
vt 0.562500 0.375000
vt 0.609375 0.375000
vt 0.609375 0.406250
vt 0.562500 0.406250
vt 0.562500 0.468750
vt 0.562500 0.424556
vt 0.609375 0.424556
vt 0.609375 0.468750
vt 0.609375 0.343750
vt 0.609375 0.437500
vt 0.562500 0.437500
vt 0.562500 0.343750
vt 0.609375 0.437500
vt 0.562500 0.437500
vt 0.562500 0.375000
vt 0.609375 0.375000
vt 0.488281 0.625000
vt 0.437500 0.625000
vt 0.453125 0.593750
vt 0.464844 0.593750
vt 0.472656 0.593750
vt 0.488281 0.625000
vt 0.437500 0.625000
vt 0.460938 0.593750
vt 0.468750 0.574219
vt 0.500000 0.574219
vt 0.500000 0.625000
vt 0.468750 0.625000
vt 0.500000 0.582031
vt 0.500000 0.593750
vt 0.468750 0.593750
vt 0.468750 0.582031
vt 0.500000 0.590062
vt 0.500000 0.625000
vt 0.468750 0.625000
vt 0.468750 0.590062
vt 0.500000 0.625000
vt 0.468750 0.625000
vt 0.468750 0.585938
vt 0.500000 0.585938
vn 1.0000 -0.0000 0.0000
vn -1.0000 -0.0000 0.0000
vn 0.0000 1.0000 0.0000
vn 0.0000 -0.7071 -0.7071
vn 0.0000 -0.0000 1.0000
vn 0.0000 0.0000 -1.0000
vn 0.0000 -1.0000 0.0000
vn 0.0000 -0.4472 0.8944
vn 0.0000 -0.6000 -0.8000
usemtl m_505c54b9-9789-4909-094d-542ceb5fcbe5
s 1
f 151/384/66 152/385/66 153/386/66 154/387/66
f 155/388/67 156/389/67 157/390/67 158/391/67
f 156/392/68 152/393/68 151/394/68 157/395/68
f 154/396/69 153/397/69 155/398/69 158/399/69
f 153/400/70 152/401/70 156/402/70 155/403/70
f 157/404/71 151/405/71 154/406/71 158/407/71
f 159/408/66 160/409/66 161/410/66 162/411/66
f 163/412/67 164/413/67 165/414/67 166/415/67
f 164/416/68 160/417/68 159/418/68 165/419/68
f 162/420/72 161/421/72 163/422/72 166/423/72
f 161/424/73 160/425/73 164/426/73 163/427/73
f 165/428/74 159/429/74 162/430/74 166/431/74
