# Blender v2.79 (sub 0) OBJ File: ''
# www.blender.org
mtllib wiper.mtl
o motor
v -0.007812 -0.000000 0.007812
v -0.015625 0.039062 0.015625
v -0.015625 0.039062 -0.015625
v -0.007812 0.000000 -0.007812
v 0.015625 0.039062 -0.015625
v 0.015625 0.039062 0.015625
v 0.007812 -0.000000 0.007812
v 0.007812 0.000000 -0.007812
v 0.007812 -0.015625 0.007812
v -0.007812 -0.015625 0.007812
v -0.007812 -0.015625 -0.007813
v 0.007812 -0.015625 -0.007813
v -0.015625 -0.000000 0.015625
v -0.015625 0.031250 0.015625
v -0.015625 0.031250 -0.015625
v -0.015625 0.000000 -0.015625
v 0.015625 0.031250 -0.015625
v 0.015625 0.031250 0.015625
v 0.015625 -0.000000 0.015625
v 0.015625 0.000000 -0.015625
vt 0.000000 0.000000
vt 1.000000 0.000000
vt 1.000000 1.000000
vt 0.000000 1.000000
vt 0.000000 0.000000
vt 1.000000 0.000000
vt 1.000000 1.000000
vt 0.000000 1.000000
vt 0.000000 0.000000
vt 1.000000 1.000000
vt 0.000000 1.000000
vt 0.000000 0.000000
vt 1.000000 0.000000
vt 1.000000 1.000000
vt 0.000000 1.000000
vt 0.000000 0.000000
vt 1.000000 1.000000
vt 0.000000 1.000000
vt 0.000000 0.000000
vt 1.000000 0.000000
vt 1.000000 1.000000
vt 0.000000 0.000000
vt 1.000000 0.000000
vt 0.000000 1.000000
vt 0.000000 0.000000
vt 0.000000 0.000000
vt 1.000000 0.000000
vt 1.000000 1.000000
vt 1.000000 0.000000
vt 1.000000 1.000000
vt 0.000000 0.000000
vt 1.000000 0.000000
vt 1.000000 1.000000
vt 0.000000 1.000000
vt 0.000000 0.000000
vt 1.000000 0.000000
vt 1.000000 1.000000
vt 0.000000 1.000000
vt 0.000000 0.000000
vt 1.000000 1.000000
vt 0.000000 1.000000
vt 0.000000 0.000000
vt 1.000000 0.000000
vt 1.000000 1.000000
vt 0.000000 0.000000
vt 1.000000 1.000000
vt 0.000000 1.000000
vt 0.000000 0.000000
vt 1.000000 0.000000
vt 1.000000 1.000000
vn -0.9806 -0.1961 0.0000
vn 0.9806 -0.1961 0.0000
vn 0.0000 1.0000 0.0000
vn 0.0000 -1.0000 0.0000
vn 0.0000 -0.1961 0.9806
vn 0.0000 -0.1961 -0.9806
vn 0.0000 -0.0000 1.0000
vn -1.0000 0.0000 0.0000
vn 0.0000 0.0000 -1.0000
vn 1.0000 -0.0000 0.0000
usemtl m_b5a97920-07c7-4017-102b-0c7a1a715034
s 1
f 1/1/1 2/2/1 3/3/1 4/4/1
f 5/5/2 6/6/2 7/7/2 8/8/2
f 3/9/3 2/2/3 6/10/3 5/11/3
f 9/12/4 10/13/4 11/14/4 12/15/4
f 6/16/5 2/2/5 1/17/5 7/18/5
f 4/19/6 3/20/6 5/21/6 8/8/6
f 10/22/7 9/23/7 7/7/7 1/24/7
f 11/25/8 10/13/8 1/17/8 4/4/8
f 12/26/9 11/27/9 4/28/9 8/8/9
f 9/12/10 12/29/10 8/30/10 7/18/10
f 13/31/8 14/32/8 15/33/8 16/34/8
f 17/35/10 18/36/10 19/37/10 20/38/10
f 15/39/3 14/32/3 18/40/3 17/41/3
f 19/42/4 13/43/4 16/44/4 20/38/4
f 18/45/7 14/32/7 13/46/7 19/47/7
f 16/48/9 15/49/9 17/50/9 20/38/9
o wiper
v -0.531250 -0.000000 0.015625
v -0.531250 0.031250 0.015625
v -0.531250 0.031250 -0.015625
v -0.531250 0.000000 -0.015625
v -0.015625 0.031250 -0.015625
v -0.015625 0.031250 0.015625
v -0.015625 -0.000000 0.015625
v -0.015625 0.000000 -0.015625
vt 0.000000 0.000000
vt 1.000000 0.000000
vt 1.000000 1.000000
vt 0.000000 1.000000
vt 0.000000 0.000000
vt 1.000000 0.000000
vt 1.000000 1.000000
vt 0.000000 1.000000
vt 0.000000 0.000000
vt 1.000000 1.000000
vt 0.000000 1.000000
vt 0.000000 0.000000
vt 1.000000 0.000000
vt 1.000000 1.000000
vt 0.000000 0.000000
vt 1.000000 1.000000
vt 0.000000 1.000000
vt 0.000000 0.000000
vt 1.000000 0.000000
vt 1.000000 1.000000
vn -1.0000 0.0000 0.0000
vn 1.0000 -0.0000 0.0000
vn 0.0000 1.0000 0.0000
vn 0.0000 -1.0000 -0.0000
vn 0.0000 -0.0000 1.0000
vn 0.0000 0.0000 -1.0000
usemtl m_b5a97920-07c7-4017-102b-0c7a1a715034
s 1
f 21/51/11 22/52/11 23/53/11 24/54/11
f 25/55/12 26/56/12 27/57/12 28/58/12
f 23/59/13 22/52/13 26/60/13 25/61/13
f 27/62/14 21/63/14 24/64/14 28/58/14
f 26/65/15 22/52/15 21/66/15 27/67/15
f 24/68/16 23/69/16 25/70/16 28/58/16
