# Blender v2.79 (sub 0) OBJ File: ''
# www.blender.org
mtllib wmg_flat.mtl
o rocket2
v -1.058313 0.031250 0.054688
v -1.000000 0.062500 0.054688
v -1.000000 -0.000000 0.054688
v -1.000000 -0.000000 0.148438
v -1.058313 -0.031250 0.054688
v -1.000000 -0.062500 0.054687
v -0.941687 -0.031250 0.054688
v -0.941687 0.031250 0.054688
vt 0.437500 0.437500
vt 0.062500 0.437500
vt 0.062500 0.062500
vt 0.437500 0.437500
vt 0.062500 0.437500
vt 0.062500 0.062500
vt 0.437500 0.437500
vt 0.062500 0.437500
vt 0.437500 0.437500
vt 0.062500 0.437500
vt 0.437500 0.437500
vt 0.062500 0.437500
vt 0.437500 0.437500
vt 0.062500 0.437500
vn 0.0000 0.0000 -1.0000
vn -0.4072 0.7599 0.5066
vn -0.8491 0.0000 0.5282
vn -0.4072 -0.7599 0.5066
vn 0.4072 -0.7599 0.5066
vn 0.8491 0.0000 0.5282
vn 0.4072 0.7599 0.5066
usemtl m_56af5368-edc3-9a5f-2c96-32c545ddfaa6
s 1
f 1/1/1 2/2/1 3/3/1
f 2/4/2 1/5/2 4/6/2
f 5/7/1 1/5/1 3/3/1
f 1/1/3 5/8/3 4/6/3
f 6/9/1 5/8/1 3/3/1
f 5/7/4 6/10/4 4/6/4
f 7/11/1 6/10/1 3/3/1
f 6/9/5 7/12/5 4/6/5
f 8/13/1 7/12/1 3/3/1
f 7/11/6 8/14/6 4/6/6
f 2/4/1 8/14/1 3/3/1
f 8/13/7 2/2/7 4/6/7
o rocketlauncher
v -1.058313 0.031250 0.046875
v -1.000000 0.062500 0.046875
v -1.000000 -0.000000 0.046875
v -1.058313 0.031250 0.054688
v -1.000000 0.062500 0.054688
v -1.000000 -0.000000 0.054688
v -1.058313 -0.031250 0.046875
v -1.058313 -0.031250 0.054688
v -1.000000 -0.062500 0.046875
v -1.000000 -0.062500 0.054687
v -0.941687 -0.031250 0.046875
v -0.941687 -0.031250 0.054688
v -0.941687 0.031250 0.046875
v -0.941687 0.031250 0.054688
v -1.183313 0.031250 0.046875
v -1.125000 0.062500 0.046875
v -1.125000 -0.000000 0.046875
v -1.183313 0.031250 0.054688
v -1.125000 0.062500 0.054688
v -1.125000 -0.000000 0.054688
v -1.183313 -0.031250 0.046875
v -1.183313 -0.031250 0.054688
v -1.125000 -0.062500 0.046875
v -1.125000 -0.062500 0.054687
v -1.066687 -0.031250 0.046875
v -1.066687 -0.031250 0.054688
v -1.066687 0.031250 0.046875
v -1.066687 0.031250 0.054688
v 1.125000 0.062500 0.046875
v 1.183313 0.031250 0.046875
v 1.125000 -0.000000 0.046875
v 1.183313 0.031250 0.054688
v 1.125000 0.062500 0.054688
v 1.125000 -0.000000 0.054688
v 1.183313 -0.031250 0.046875
v 1.183313 -0.031250 0.054688
v 1.125000 -0.062500 0.046875
v 1.125000 -0.062500 0.054687
v 1.066687 -0.031250 0.046875
v 1.066687 -0.031250 0.054688
v 1.066687 0.031250 0.046875
v 1.066687 0.031250 0.054688
v 1.000000 0.062500 0.046875
v 1.058313 0.031250 0.046875
v 1.000000 -0.000000 0.046875
v 1.058313 0.031250 0.054688
v 1.000000 0.062500 0.054688
v 1.000000 -0.000000 0.054688
v 1.058313 -0.031250 0.046875
v 1.058313 -0.031250 0.054688
v 1.000000 -0.062500 0.046875
v 1.000000 -0.062500 0.054687
v 0.941687 -0.031250 0.046875
v 0.941687 -0.031250 0.054688
v 0.941687 0.031250 0.046875
v 0.941687 0.031250 0.054688
vt 0.937500 0.937500
vt 0.562500 0.937500
vt 0.562500 0.562500
vt 0.937500 0.937500
vt 0.562500 0.937500
vt 0.562500 0.562500
vt 0.937500 0.562500
vt 0.937500 0.437500
vt 0.562500 0.437500
vt 0.562500 0.062500
vt 0.937500 0.937500
vt 0.562500 0.937500
vt 0.562500 0.562500
vt 0.937500 0.562500
vt 0.937500 0.437500
vt 0.562500 0.437500
vt 0.937500 0.937500
vt 0.562500 0.937500
vt 0.562500 0.562500
vt 0.937500 0.562500
vt 0.937500 0.437500
vt 0.562500 0.437500
vt 0.937500 0.937500
vt 0.562500 0.937500
vt 0.562500 0.562500
vt 0.937500 0.562500
vt 0.937500 0.437500
vt 0.562500 0.437500
vt 0.937500 0.937500
vt 0.562500 0.937500
vt 0.562500 0.562500
vt 0.937500 0.562500
vt 0.937500 0.437500
vt 0.562500 0.437500
vt 0.562500 0.562500
vt 0.937500 0.562500
vt 0.937500 0.437500
vt 0.562500 0.437500
vt 0.937500 0.937500
vt 0.562500 0.937500
vt 0.562500 0.562500
vt 0.937500 0.937500
vt 0.562500 0.937500
vt 0.562500 0.562500
vt 0.937500 0.562500
vt 0.937500 0.437500
vt 0.562500 0.437500
vt 0.562500 0.062500
vt 0.937500 0.937500
vt 0.562500 0.937500
vt 0.562500 0.562500
vt 0.937500 0.562500
vt 0.937500 0.437500
vt 0.562500 0.437500
vt 0.937500 0.937500
vt 0.562500 0.937500
vt 0.562500 0.562500
vt 0.937500 0.562500
vt 0.937500 0.437500
vt 0.562500 0.437500
vt 0.937500 0.937500
vt 0.562500 0.937500
vt 0.562500 0.562500
vt 0.937500 0.562500
vt 0.937500 0.437500
vt 0.562500 0.437500
vt 0.937500 0.937500
vt 0.562500 0.937500
vt 0.562500 0.562500
vt 0.937500 0.562500
vt 0.937500 0.437500
vt 0.562500 0.437500
vt 0.562500 0.562500
vt 0.937500 0.562500
vt 0.937500 0.437500
vt 0.562500 0.437500
vt 0.562500 0.937500
vt 0.937500 0.937500
vt 0.562500 0.562500
vt 0.562500 0.562500
vt 0.562500 0.937500
vt 0.937500 0.937500
vt 0.937500 0.562500
vt 0.562500 0.437500
vt 0.937500 0.437500
vt 0.562500 0.062500
vt 0.937500 0.937500
vt 0.562500 0.562500
vt 0.562500 0.937500
vt 0.937500 0.562500
vt 0.562500 0.437500
vt 0.937500 0.437500
vt 0.937500 0.937500
vt 0.562500 0.562500
vt 0.562500 0.937500
vt 0.937500 0.562500
vt 0.562500 0.437500
vt 0.937500 0.437500
vt 0.937500 0.937500
vt 0.562500 0.562500
vt 0.562500 0.937500
vt 0.937500 0.562500
vt 0.562500 0.437500
vt 0.937500 0.437500
vt 0.937500 0.937500
vt 0.562500 0.562500
vt 0.562500 0.937500
vt 0.937500 0.562500
vt 0.562500 0.437500
vt 0.937500 0.437500
vt 0.562500 0.562500
vt 0.937500 0.562500
vt 0.562500 0.437500
vt 0.937500 0.437500
vt 0.562500 0.937500
vt 0.937500 0.937500
vt 0.562500 0.562500
vt 0.562500 0.562500
vt 0.562500 0.937500
vt 0.937500 0.937500
vt 0.937500 0.562500
vt 0.562500 0.437500
vt 0.937500 0.437500
vt 0.562500 0.062500
vt 0.937500 0.937500
vt 0.562500 0.562500
vt 0.562500 0.937500
vt 0.937500 0.562500
vt 0.562500 0.437500
vt 0.937500 0.437500
vt 0.937500 0.937500
vt 0.562500 0.562500
vt 0.562500 0.937500
vt 0.937500 0.562500
vt 0.562500 0.437500
vt 0.937500 0.437500
vt 0.937500 0.937500
vt 0.562500 0.562500
vt 0.562500 0.937500
vt 0.937500 0.562500
vt 0.562500 0.437500
vt 0.937500 0.437500
vt 0.937500 0.937500
vt 0.562500 0.562500
vt 0.562500 0.937500
vt 0.937500 0.562500
vt 0.562500 0.437500
vt 0.937500 0.437500
vt 0.562500 0.562500
vt 0.937500 0.562500
vt 0.562500 0.437500
vt 0.937500 0.437500
vn 0.0000 0.0000 -1.0000
vn -0.4723 0.8814 0.0000
vn -0.0000 -0.0000 1.0000
vn -1.0000 0.0000 0.0000
vn -0.4723 -0.8814 0.0000
vn 0.4723 -0.8814 0.0000
vn 1.0000 0.0000 0.0000
vn 0.4723 0.8814 0.0000
usemtl m_56af5368-edc3-9a5f-2c96-32c545ddfaa6
s 1
f 9/15/8 10/16/8 11/17/8
f 10/18/9 9/19/9 12/20/9 13/21/9
f 13/22/10 12/23/10 14/24/10
f 15/25/8 9/19/8 11/17/8
f 9/15/11 15/26/11 16/27/11 12/28/11
f 12/29/10 16/30/10 14/24/10
f 17/31/8 15/26/8 11/17/8
f 15/25/12 17/32/12 18/33/12 16/34/12
f 16/35/10 18/36/10 14/24/10
f 19/37/8 17/32/8 11/17/8
f 17/31/13 19/38/13 20/39/13 18/40/13
f 18/41/10 20/42/10 14/24/10
f 21/43/8 19/38/8 11/17/8
f 19/37/14 21/44/14 22/45/14 20/46/14
f 20/47/10 22/48/10 14/24/10
f 10/18/8 21/44/8 11/17/8
f 21/43/15 10/16/15 13/49/15 22/50/15
f 22/51/10 13/52/10 14/24/10
f 23/53/8 24/54/8 25/55/8
f 24/56/9 23/57/9 26/58/9 27/59/9
f 27/60/10 26/61/10 28/62/10
f 29/63/8 23/57/8 25/55/8
f 23/53/11 29/64/11 30/65/11 26/66/11
f 26/67/10 30/68/10 28/62/10
f 31/69/8 29/64/8 25/55/8
f 29/63/12 31/70/12 32/71/12 30/72/12
f 30/73/10 32/74/10 28/62/10
f 33/75/8 31/70/8 25/55/8
f 31/69/13 33/76/13 34/77/13 32/78/13
f 32/79/10 34/80/10 28/62/10
f 35/81/8 33/76/8 25/55/8
f 33/75/14 35/82/14 36/83/14 34/84/14
f 34/85/10 36/86/10 28/62/10
f 24/56/8 35/82/8 25/55/8
f 35/81/15 24/54/15 27/87/15 36/88/15
f 36/89/10 27/90/10 28/62/10
f 37/91/8 38/92/8 39/93/8
f 40/94/15 38/95/15 37/96/15 41/97/15
f 40/98/10 41/99/10 42/100/10
f 38/95/8 43/101/8 39/93/8
f 44/102/14 43/103/14 38/92/14 40/104/14
f 44/105/10 40/106/10 42/100/10
f 43/103/8 45/107/8 39/93/8
f 46/108/13 45/109/13 43/101/13 44/110/13
f 46/111/10 44/112/10 42/100/10
f 45/109/8 47/113/8 39/93/8
f 48/114/12 47/115/12 45/107/12 46/116/12
f 48/117/10 46/118/10 42/100/10
f 47/115/8 49/119/8 39/93/8
f 50/120/11 49/121/11 47/113/11 48/122/11
f 50/123/10 48/124/10 42/100/10
f 49/121/8 37/96/8 39/93/8
f 41/125/9 37/91/9 49/119/9 50/126/9
f 41/127/10 50/128/10 42/100/10
f 51/129/8 52/130/8 53/131/8
f 54/132/15 52/133/15 51/134/15 55/135/15
f 54/136/10 55/137/10 56/138/10
f 52/133/8 57/139/8 53/131/8
f 58/140/14 57/141/14 52/130/14 54/142/14
f 58/143/10 54/144/10 56/138/10
f 57/141/8 59/145/8 53/131/8
f 60/146/13 59/147/13 57/139/13 58/148/13
f 60/149/10 58/150/10 56/138/10
f 59/147/8 61/151/8 53/131/8
f 62/152/12 61/153/12 59/145/12 60/154/12
f 62/155/10 60/156/10 56/138/10
f 61/153/8 63/157/8 53/131/8
f 64/158/11 63/159/11 61/151/11 62/160/11
f 64/161/10 62/162/10 56/138/10
f 63/159/8 51/134/8 53/131/8
f 55/163/9 51/129/9 63/157/9 64/164/9
f 55/165/10 64/166/10 56/138/10
o rocket4
v 1.125000 0.062500 0.054688
v 1.183313 0.031250 0.054688
v 1.125000 -0.000000 0.054688
v 1.125000 -0.000000 0.148438
v 1.183313 -0.031250 0.054688
v 1.125000 -0.062500 0.054687
v 1.066687 -0.031250 0.054688
v 1.066687 0.031250 0.054688
vt 0.062500 0.437500
vt 0.437500 0.437500
vt 0.062500 0.062500
vt 0.062500 0.437500
vt 0.437500 0.437500
vt 0.062500 0.062500
vt 0.437500 0.437500
vt 0.062500 0.437500
vt 0.437500 0.437500
vt 0.062500 0.437500
vt 0.437500 0.437500
vt 0.062500 0.437500
vt 0.437500 0.437500
vt 0.062500 0.437500
vn -0.0000 0.0000 -1.0000
vn 0.4072 0.7599 0.5066
vn 0.8491 0.0000 0.5282
vn 0.4072 -0.7599 0.5066
vn -0.4072 -0.7599 0.5066
vn -0.8491 0.0000 0.5282
vn -0.4072 0.7599 0.5066
usemtl m_56af5368-edc3-9a5f-2c96-32c545ddfaa6
s 1
f 65/167/16 66/168/16 67/169/16
f 66/170/17 65/171/17 68/172/17
f 66/170/16 69/173/16 67/169/16
f 69/174/18 66/168/18 68/172/18
f 69/174/16 70/175/16 67/169/16
f 70/176/19 69/173/19 68/172/19
f 70/176/16 71/177/16 67/169/16
f 71/178/20 70/175/20 68/172/20
f 71/178/16 72/179/16 67/169/16
f 72/180/21 71/177/21 68/172/21
f 72/180/16 65/171/16 67/169/16
f 65/167/22 72/179/22 68/172/22
o rocket1
v -1.183313 0.031250 0.054688
v -1.125000 0.062500 0.054688
v -1.125000 -0.000000 0.054688
v -1.125000 -0.000000 0.148438
v -1.183313 -0.031250 0.054688
v -1.125000 -0.062500 0.054687
v -1.066687 -0.031250 0.054688
v -1.066687 0.031250 0.054688
vt 0.437500 0.437500
vt 0.062500 0.437500
vt 0.062500 0.062500
vt 0.437500 0.437500
vt 0.062500 0.437500
vt 0.062500 0.062500
vt 0.437500 0.437500
vt 0.062500 0.437500
vt 0.437500 0.437500
vt 0.062500 0.437500
vt 0.437500 0.437500
vt 0.062500 0.437500
vt 0.437500 0.437500
vt 0.062500 0.437500
vn 0.0000 0.0000 -1.0000
vn -0.4072 0.7599 0.5066
vn -0.8491 0.0000 0.5282
vn -0.4072 -0.7599 0.5066
vn 0.4072 -0.7599 0.5066
vn 0.8491 0.0000 0.5282
vn 0.4072 0.7599 0.5066
usemtl m_56af5368-edc3-9a5f-2c96-32c545ddfaa6
s 1
f 73/181/23 74/182/23 75/183/23
f 74/184/24 73/185/24 76/186/24
f 77/187/23 73/185/23 75/183/23
f 73/181/25 77/188/25 76/186/25
f 78/189/23 77/188/23 75/183/23
f 77/187/26 78/190/26 76/186/26
f 79/191/23 78/190/23 75/183/23
f 78/189/27 79/192/27 76/186/27
f 80/193/23 79/192/23 75/183/23
f 79/191/28 80/194/28 76/186/28
f 74/184/23 80/194/23 75/183/23
f 80/193/29 74/182/29 76/186/29
o rocket3
v 1.000000 0.062500 0.054688
v 1.058313 0.031250 0.054688
v 1.000000 -0.000000 0.054688
v 1.000000 -0.000000 0.148438
v 1.058313 -0.031250 0.054688
v 1.000000 -0.062500 0.054687
v 0.941687 -0.031250 0.054688
v 0.941687 0.031250 0.054688
vt 0.062500 0.437500
vt 0.437500 0.437500
vt 0.062500 0.062500
vt 0.062500 0.437500
vt 0.437500 0.437500
vt 0.062500 0.062500
vt 0.437500 0.437500
vt 0.062500 0.437500
vt 0.437500 0.437500
vt 0.062500 0.437500
vt 0.437500 0.437500
vt 0.062500 0.437500
vt 0.437500 0.437500
vt 0.062500 0.437500
vn -0.0000 0.0000 -1.0000
vn 0.4072 0.7599 0.5066
vn 0.8491 0.0000 0.5282
vn 0.4072 -0.7599 0.5066
vn -0.4072 -0.7599 0.5066
vn -0.8491 0.0000 0.5282
vn -0.4072 0.7599 0.5066
usemtl m_56af5368-edc3-9a5f-2c96-32c545ddfaa6
s 1
f 81/195/30 82/196/30 83/197/30
f 82/198/31 81/199/31 84/200/31
f 82/198/30 85/201/30 83/197/30
f 85/202/32 82/196/32 84/200/32
f 85/202/30 86/203/30 83/197/30
f 86/204/33 85/201/33 84/200/33
f 86/204/30 87/205/30 83/197/30
f 87/206/34 86/203/34 84/200/34
f 87/206/30 88/207/30 83/197/30
f 88/208/35 87/205/35 84/200/35
f 88/208/30 81/199/30 83/197/30
f 81/195/36 88/207/36 84/200/36
o mg
v -0.917688 0.023437 0.046875
v -0.875000 0.046875 0.046875
v -0.875000 -0.000000 0.046875
v -0.917688 0.023437 0.062500
v -0.875000 0.046875 0.062500
v -0.875000 -0.000000 0.054688
v -0.917688 -0.023438 0.046875
v -0.917688 -0.023438 0.062500
v -0.875000 -0.046875 0.046875
v -0.875000 -0.046875 0.062500
v -0.832312 -0.023438 0.046875
v -0.832312 -0.023438 0.062500
v -0.832312 0.023437 0.046875
v -0.832312 0.023437 0.062500
v 0.875000 0.046875 0.046875
v 0.917688 0.023437 0.046875
v 0.875000 -0.000000 0.046875
v 0.917688 0.023437 0.062500
v 0.875000 0.046875 0.062500
v 0.875000 -0.000000 0.054688
v 0.917688 -0.023438 0.046875
v 0.917688 -0.023438 0.062500
v 0.875000 -0.046875 0.046875
v 0.875000 -0.046875 0.062500
v 0.832312 -0.023438 0.046875
v 0.832312 -0.023438 0.062500
v 0.832312 0.023437 0.046875
v 0.832312 0.023437 0.062500
vt 0.937500 0.937500
vt 0.562500 0.937500
vt 0.562500 0.562500
vt 0.937500 0.937500
vt 0.562500 0.937500
vt 0.562500 0.562500
vt 0.937500 0.562500
vt 0.937500 0.437500
vt 0.562500 0.437500
vt 0.562500 0.062500
vt 0.937500 0.937500
vt 0.562500 0.937500
vt 0.562500 0.562500
vt 0.937500 0.562500
vt 0.937500 0.437500
vt 0.562500 0.437500
vt 0.937500 0.937500
vt 0.562500 0.937500
vt 0.562500 0.562500
vt 0.937500 0.562500
vt 0.937500 0.437500
vt 0.562500 0.437500
vt 0.937500 0.937500
vt 0.562500 0.937500
vt 0.562500 0.562500
vt 0.937500 0.562500
vt 0.937500 0.437500
vt 0.562500 0.437500
vt 0.937500 0.937500
vt 0.562500 0.937500
vt 0.562500 0.562500
vt 0.937500 0.562500
vt 0.937500 0.437500
vt 0.562500 0.437500
vt 0.562500 0.562500
vt 0.937500 0.562500
vt 0.937500 0.437500
vt 0.562500 0.437500
vt 0.562500 0.937500
vt 0.937500 0.937500
vt 0.562500 0.562500
vt 0.562500 0.562500
vt 0.562500 0.937500
vt 0.937500 0.937500
vt 0.937500 0.562500
vt 0.562500 0.437500
vt 0.937500 0.437500
vt 0.562500 0.062500
vt 0.937500 0.937500
vt 0.562500 0.562500
vt 0.562500 0.937500
vt 0.937500 0.562500
vt 0.562500 0.437500
vt 0.937500 0.437500
vt 0.937500 0.937500
vt 0.562500 0.562500
vt 0.562500 0.937500
vt 0.937500 0.562500
vt 0.562500 0.437500
vt 0.937500 0.437500
vt 0.937500 0.937500
vt 0.562500 0.562500
vt 0.562500 0.937500
vt 0.937500 0.562500
vt 0.562500 0.437500
vt 0.937500 0.437500
vt 0.937500 0.937500
vt 0.562500 0.562500
vt 0.562500 0.937500
vt 0.937500 0.562500
vt 0.562500 0.437500
vt 0.937500 0.437500
vt 0.562500 0.562500
vt 0.937500 0.562500
vt 0.562500 0.437500
vt 0.937500 0.437500
vn 0.0000 0.0000 -1.0000
vn -0.4813 0.8766 0.0000
vn 0.0899 -0.1637 0.9824
vn -1.0000 0.0000 0.0000
vn 0.1800 0.0000 0.9837
vn -0.4813 -0.8766 0.0000
vn 0.0899 0.1637 0.9824
vn 0.4813 -0.8766 0.0000
vn -0.0899 0.1637 0.9824
vn 1.0000 0.0000 0.0000
vn -0.1800 0.0000 0.9837
vn 0.4813 0.8766 0.0000
vn -0.0899 -0.1637 0.9824
usemtl m_56af5368-edc3-9a5f-2c96-32c545ddfaa6
s 1
f 89/209/37 90/210/37 91/211/37
f 90/212/38 89/213/38 92/214/38 93/215/38
f 93/216/39 92/217/39 94/218/39
f 95/219/37 89/213/37 91/211/37
f 89/209/40 95/220/40 96/221/40 92/222/40
f 92/223/41 96/224/41 94/218/41
f 97/225/37 95/220/37 91/211/37
f 95/219/42 97/226/42 98/227/42 96/228/42
f 96/229/43 98/230/43 94/218/43
f 99/231/37 97/226/37 91/211/37
f 97/225/44 99/232/44 100/233/44 98/234/44
f 98/235/45 100/236/45 94/218/45
f 101/237/37 99/232/37 91/211/37
f 99/231/46 101/238/46 102/239/46 100/240/46
f 100/241/47 102/242/47 94/218/47
f 90/212/37 101/238/37 91/211/37
f 101/237/48 90/210/48 93/243/48 102/244/48
f 102/245/49 93/246/49 94/218/49
f 103/247/37 104/248/37 105/249/37
f 106/250/48 104/251/48 103/252/48 107/253/48
f 106/254/49 107/255/49 108/256/49
f 104/251/37 109/257/37 105/249/37
f 110/258/46 109/259/46 104/248/46 106/260/46
f 110/261/47 106/262/47 108/256/47
f 109/259/37 111/263/37 105/249/37
f 112/264/44 111/265/44 109/257/44 110/266/44
f 112/267/45 110/268/45 108/256/45
f 111/265/37 113/269/37 105/249/37
f 114/270/42 113/271/42 111/263/42 112/272/42
f 114/273/43 112/274/43 108/256/43
f 113/271/37 115/275/37 105/249/37
f 116/276/40 115/277/40 113/269/40 114/278/40
f 116/279/41 114/280/41 108/256/41
f 115/277/37 103/252/37 105/249/37
f 107/281/38 103/247/38 115/275/38 116/282/38
f 107/283/39 116/284/39 108/256/39
o cube
v -0.125000 0.062500 0.031250
v -0.125000 0.062500 -0.031250
v -0.125000 -0.062500 -0.031250
v -0.125000 -0.062500 0.031250
v 0.125000 -0.062500 -0.031250
v 0.125000 0.062500 -0.031250
v 0.125000 0.062500 0.031250
v 0.125000 -0.062500 0.031250
v -0.812500 0.062500 0.046875
v -0.812500 0.062500 -0.015625
v -0.812500 -0.062500 -0.015625
v -0.812500 -0.062500 0.046875
v -0.125000 -0.062500 -0.031250
v -0.125000 0.062500 -0.031250
v -0.125000 0.062500 0.031250
v -0.125000 -0.062500 0.031250
v -1.187500 0.062500 0.046875
v -1.187500 0.062500 -0.078125
v -1.187500 -0.062500 -0.078125
v -1.187500 -0.062500 0.046875
v -0.812500 -0.062500 -0.015625
v -0.812500 0.062500 -0.015625
v -0.812500 0.062500 0.046875
v -0.812500 -0.062500 0.046875
v 0.812500 -0.062500 -0.015625
v 0.812500 0.062500 -0.015625
v 0.812500 0.062500 0.046875
v 0.812500 -0.062500 0.046875
v 0.125000 0.062500 0.031250
v 0.125000 0.062500 -0.031250
v 0.125000 -0.062500 -0.031250
v 0.125000 -0.062500 0.031250
v 1.187500 -0.062500 -0.078125
v 1.187500 0.062500 -0.078125
v 1.187500 0.062500 0.046875
v 1.187500 -0.062500 0.046875
v 0.812500 0.062500 0.046875
v 0.812500 0.062500 -0.015625
v 0.812500 -0.062500 -0.015625
v 0.812500 -0.062500 0.046875
v -0.812500 0.031250 -0.015625
v -1.187500 0.031250 -0.078125
v -1.187500 -0.031250 -0.078125
v -0.812500 -0.031250 -0.015625
v -0.625000 -0.031250 -0.093750
v -0.625000 0.031250 -0.093750
v -0.125000 0.031250 -0.031250
v -0.125000 -0.031250 -0.031250
v 1.187500 -0.031250 -0.078125
v 1.187500 0.031250 -0.078125
v 0.812500 0.031250 -0.015625
v 0.812500 -0.031250 -0.015625
v 0.125000 0.031250 -0.031250
v 0.625000 0.031250 -0.093750
v 0.625000 -0.031250 -0.093750
v 0.125000 -0.031250 -0.031250
vt 0.937500 0.937500
vt 0.562500 0.937500
vt 0.562500 0.562500
vt 0.937500 0.562500
vt 0.937500 0.937500
vt 0.562500 0.937500
vt 0.562500 0.562500
vt 0.937500 0.562500
vt 0.937500 0.937500
vt 0.562500 0.562500
vt 0.937500 0.562500
vt 0.937500 0.937500
vt 0.562500 0.937500
vt 0.562500 0.562500
vt 0.937500 0.937500
vt 0.562500 0.562500
vt 0.937500 0.562500
vt 0.937500 0.937500
vt 0.562500 0.937500
vt 0.562500 0.562500
vt 0.937500 0.937500
vt 0.562500 0.937500
vt 0.562500 0.562500
vt 0.937500 0.562500
vt 0.937500 0.937500
vt 0.562500 0.937500
vt 0.562500 0.562500
vt 0.937500 0.562500
vt 0.937500 0.937500
vt 0.562500 0.562500
vt 0.937500 0.562500
vt 0.937500 0.937500
vt 0.562500 0.937500
vt 0.562500 0.562500
vt 0.937500 0.937500
vt 0.562500 0.562500
vt 0.937500 0.562500
vt 0.937500 0.937500
vt 0.562500 0.937500
vt 0.562500 0.562500
vt 0.937500 0.937500
vt 0.562500 0.937500
vt 0.562500 0.562500
vt 0.937500 0.562500
vt 0.937500 0.937500
vt 0.562500 0.937500
vt 0.562500 0.562500
vt 0.937500 0.562500
vt 0.937500 0.937500
vt 0.562500 0.562500
vt 0.937500 0.562500
vt 0.937500 0.937500
vt 0.562500 0.937500
vt 0.562500 0.562500
vt 0.937500 0.937500
vt 0.562500 0.562500
vt 0.937500 0.562500
vt 0.937500 0.937500
vt 0.562500 0.937500
vt 0.562500 0.562500
vt 0.562500 0.562500
vt 0.562500 0.937500
vt 0.937500 0.937500
vt 0.937500 0.562500
vt 0.562500 0.562500
vt 0.562500 0.937500
vt 0.937500 0.937500
vt 0.937500 0.562500
vt 0.562500 0.562500
vt 0.937500 0.937500
vt 0.937500 0.562500
vt 0.562500 0.562500
vt 0.562500 0.937500
vt 0.937500 0.937500
vt 0.562500 0.562500
vt 0.937500 0.937500
vt 0.937500 0.562500
vt 0.562500 0.562500
vt 0.562500 0.937500
vt 0.937500 0.937500
vt 0.562500 0.562500
vt 0.562500 0.937500
vt 0.937500 0.937500
vt 0.937500 0.562500
vt 0.562500 0.562500
vt 0.562500 0.937500
vt 0.937500 0.937500
vt 0.937500 0.562500
vt 0.562500 0.562500
vt 0.937500 0.937500
vt 0.937500 0.562500
vt 0.562500 0.562500
vt 0.562500 0.937500
vt 0.937500 0.937500
vt 0.562500 0.562500
vt 0.937500 0.937500
vt 0.937500 0.562500
vt 0.562500 0.562500
vt 0.562500 0.937500
vt 0.937500 0.937500
vt 0.937500 0.937500
vt 0.562500 0.937500
vt 0.562500 0.562500
vt 0.937500 0.562500
vt 0.937500 0.937500
vt 0.562500 0.937500
vt 0.562500 0.562500
vt 0.937500 0.562500
vt 0.937500 0.937500
vt 0.562500 0.562500
vt 0.937500 0.562500
vt 0.937500 0.937500
vt 0.562500 0.937500
vt 0.562500 0.562500
vt 0.937500 0.937500
vt 0.562500 0.562500
vt 0.937500 0.562500
vt 0.937500 0.937500
vt 0.562500 0.937500
vt 0.562500 0.562500
vt 0.562500 0.562500
vt 0.562500 0.937500
vt 0.937500 0.937500
vt 0.937500 0.562500
vt 0.562500 0.562500
vt 0.562500 0.937500
vt 0.937500 0.937500
vt 0.937500 0.562500
vt 0.562500 0.562500
vt 0.937500 0.937500
vt 0.937500 0.562500
vt 0.562500 0.562500
vt 0.562500 0.937500
vt 0.937500 0.937500
vt 0.562500 0.562500
vt 0.937500 0.937500
vt 0.937500 0.562500
vt 0.562500 0.562500
vt 0.562500 0.937500
vt 0.937500 0.937500
vn -1.0000 0.0000 0.0000
vn 1.0000 -0.0000 0.0000
vn 0.0000 1.0000 0.0000
vn 0.0000 -1.0000 0.0000
vn 0.0000 0.0000 -1.0000
vn 0.0000 -0.0000 1.0000
vn -0.0227 0.0000 -0.9997
vn 0.0227 -0.0000 0.9997
vn 0.1644 -0.0000 -0.9864
vn 0.0227 0.0000 -0.9997
vn -0.0227 -0.0000 0.9997
vn -0.1644 -0.0000 -0.9864
vn -0.1644 0.0000 0.9864
vn 0.1240 -0.0000 -0.9923
vn -0.0278 0.0000 -0.9996
vn 0.1644 0.0000 0.9864
vn -0.1240 0.0000 -0.9923
vn 0.0278 0.0000 -0.9996
usemtl m_56af5368-edc3-9a5f-2c96-32c545ddfaa6
s 1
f 117/285/50 118/286/50 119/287/50 120/288/50
f 121/289/51 122/290/51 123/291/51 124/292/51
f 122/293/52 118/286/52 117/294/52 123/295/52
f 120/296/53 119/297/53 121/298/53 124/292/53
f 119/299/54 118/286/54 122/300/54 121/301/54
f 123/302/55 117/303/55 120/304/55 124/292/55
f 125/305/50 126/306/50 127/307/50 128/308/50
f 129/309/51 130/310/51 131/311/51 132/312/51
f 130/313/52 126/306/52 125/314/52 131/315/52
f 128/316/53 127/317/53 129/318/53 132/312/53
f 127/319/56 126/306/56 130/320/56 129/321/56
f 131/322/57 125/323/57 128/324/57 132/312/57
f 133/325/50 134/326/50 135/327/50 136/328/50
f 137/329/51 138/330/51 139/331/51 140/332/51
f 138/333/52 134/326/52 133/334/52 139/335/52
f 136/336/53 135/337/53 137/338/53 140/332/53
f 135/339/58 134/326/58 138/340/58 137/341/58
f 139/342/55 133/343/55 136/344/55 140/332/55
f 141/345/51 142/346/51 143/347/51 144/348/51
f 145/349/50 146/350/50 147/351/50 148/352/50
f 143/353/52 142/346/52 146/354/52 145/355/52
f 147/356/53 141/357/53 144/358/53 148/352/53
f 146/359/59 142/346/59 141/360/59 147/361/59
f 144/362/60 143/363/60 145/364/60 148/352/60
f 149/365/51 150/366/51 151/367/51 152/368/51
f 153/369/50 154/370/50 155/371/50 156/372/50
f 151/373/52 150/366/52 154/374/52 153/375/52
f 155/376/53 149/377/53 152/378/53 156/372/53
f 154/379/61 150/366/61 149/380/61 155/381/61
f 152/382/55 151/383/55 153/384/55 156/372/55
f 157/385/62 158/386/62 159/387/62 160/388/62
f 161/389/63 162/390/63 163/391/63 164/392/63
f 162/393/52 158/386/52 157/394/52 163/395/52
f 160/396/53 159/397/53 161/398/53 164/392/53
f 159/399/64 158/386/64 162/400/64 161/401/64
f 163/402/57 157/403/57 160/404/57 164/392/57
f 165/405/65 166/406/65 167/407/65 168/408/65
f 169/409/66 170/410/66 171/411/66 172/412/66
f 167/413/52 166/406/52 170/414/52 169/415/52
f 171/416/53 165/417/53 168/418/53 172/412/53
f 170/419/67 166/406/67 165/420/67 171/421/67
f 168/422/60 167/423/60 169/424/60 172/412/60
