# Blender v2.78 (sub 0) OBJ File: ''
# www.blender.org
mtllib kolibriammo.mtl
o cube
v 0.010864 0.010864 0.016296
v 0.010864 -0.010864 0.016296
v 0.010864 0.010864 -0.016296
v 0.010864 -0.010864 -0.016296
v -0.010864 0.010864 -0.016296
v -0.010864 -0.010864 -0.016296
v -0.010864 0.010864 0.016296
v -0.010864 -0.010864 0.016296
vt 0.0000 1.0000
vt 0.0000 0.0000
vt 0.2500 0.0000
vt 0.2500 1.0000
vt 0.2500 0.0000
vt 0.2500 0.2500
vt 0.0000 0.2500
vt 0.0000 0.0000
vt 0.2500 0.0000
vt 0.2500 0.2500
vt 0.0000 0.2500
vt 0.0000 0.0000
vt 0.2500 0.0000
vt 0.2500 1.0000
vt 0.0000 1.0000
vt 0.2500 1.0000
vt 0.0000 1.0000
vt 0.0000 0.0000
vt 0.2500 1.0000
vt 0.0000 1.0000
vt 0.0000 0.0000
vt 0.2500 0.0000
vn -1.0000 0.0000 0.0000
vn 0.0000 0.0000 1.0000
vn 0.0000 0.0000 -1.0000
vn 0.0000 1.0000 0.0000
vn 1.0000 0.0000 0.0000
vn 0.0000 -1.0000 -0.0000
usemtl m_0
s 1
f 6/1/1 8/2/1 7/3/1 5/4/1
f 8/2/2 2/5/2 1/6/2 7/7/2
f 4/8/3 6/9/3 5/10/3 3/11/3
f 7/12/4 1/13/4 3/14/4 5/15/4
f 2/5/5 4/16/5 3/17/5 1/18/5
f 6/19/6 4/20/6 2/21/6 8/22/6
