# Blender v2.78 (sub 0) OBJ File: ''
# www.blender.org
mtllib pistolammodevnull.mtl
o pew_pew.001
v -0.009180 -0.009180 -0.013770
v -0.009180 -0.009180 0.013770
v -0.009180 0.009180 0.013770
v -0.009180 0.009180 -0.013770
v 0.009180 -0.009180 0.013770
v 0.009180 0.009180 0.013770
v 0.009180 -0.009180 -0.013770
v 0.009180 0.009180 -0.013770
vt 0.0000 1.0000
vt 0.2500 1.0000
vt 0.2500 0.0000
vt 0.0000 0.0000
vt 0.0000 0.2500
vt 0.2500 0.2500
vt 0.2500 0.0000
vt 0.0000 0.0000
vt 0.0000 0.2500
vt 0.2500 0.2500
vt 0.2500 0.0000
vt 0.0000 0.0000
vt 0.0000 1.0000
vt 0.2500 1.0000
vt 0.2500 0.0000
vt 0.0000 0.0000
vt 0.0000 1.0000
vt 0.2500 1.0000
vt 0.2500 1.0000
vt 0.2500 0.0000
vt 0.0000 0.0000
vt 0.0000 1.0000
vn 1.0000 0.0000 0.0000
vn 0.0000 0.0000 -1.0000
vn 0.0000 0.0000 1.0000
vn 0.0000 -1.0000 -0.0000
vn -1.0000 0.0000 0.0000
vn 0.0000 1.0000 0.0000
usemtl m_0.002
s 1
f 1/1/1 4/2/1 3/3/1 2/4/1
f 2/4/2 3/5/2 6/6/2 5/7/2
f 7/8/3 8/9/3 4/10/3 1/11/3
f 3/12/4 4/13/4 8/14/4 6/15/4
f 5/7/5 6/16/5 8/17/5 7/18/5
f 1/19/6 2/20/6 5/21/6 7/22/6
