# Blender v2.79 (sub 0) OBJ File: ''
# www.blender.org
mtllib boot.mtl
o boot
v 0.093750 0.062500 0.187500
v 0.093750 0.062500 0.500000
v 0.093750 -0.062500 0.500000
v 0.093750 -0.062500 0.187500
v 0.031250 -0.062500 0.500000
v 0.031250 0.062500 0.500000
v 0.031250 0.062500 0.187500
v 0.031250 -0.062500 0.187500
v 0.093750 0.062500 0.500000
v 0.031250 0.031250 0.687500
v 0.031250 -0.031250 0.687500
v 0.093750 -0.062500 0.500000
v -0.281250 -0.031250 0.687500
v -0.281250 0.031250 0.687500
v -0.343750 0.062500 0.500000
v -0.343750 -0.062500 0.500000
v -0.281250 0.062500 0.312500
v -0.281250 0.062500 0.500000
v -0.281250 -0.062500 0.500000
v -0.281250 -0.062500 0.312500
v -0.343750 -0.062500 0.500000
v -0.343750 0.062500 0.500000
v -0.343750 0.062500 0.312500
v -0.343750 -0.062500 0.312500
v -0.218750 0.031250 0.250000
v -0.218750 0.062500 0.312500
v -0.218750 -0.062500 0.312500
v -0.218750 -0.031250 0.250000
v -0.343750 -0.062500 0.312500
v -0.343750 0.062500 0.312500
v -0.281250 0.031250 0.250000
v -0.281250 -0.031250 0.250000
v 0.125000 0.088388 0.362056
v 0.125000 -0.044194 0.494638
v 0.125000 -0.088388 0.450444
v 0.125000 0.044194 0.317862
v 0.062500 -0.088388 0.450444
v 0.062500 -0.044194 0.494638
v 0.062500 0.088388 0.362056
v 0.062500 0.044194 0.317862
v 0.062500 -0.218750 0.090609
v 0.062500 -0.090609 0.218750
v 0.062500 0.000000 -0.000000
v 0.125000 -0.187500 0.077665
v 0.125000 -0.077665 0.187500
v 0.125000 0.000000 -0.000000
v 0.062500 -0.218750 -0.090609
v 0.125000 -0.187500 -0.077665
v 0.062500 -0.090609 -0.218750
v 0.125000 -0.077665 -0.187500
v 0.062500 0.090609 -0.218750
v 0.125000 0.077665 -0.187500
v 0.062500 0.218750 -0.090609
v 0.125000 0.187500 -0.077665
v 0.062500 0.218750 0.090609
v 0.125000 0.187500 0.077665
v 0.062500 0.090609 0.218750
v 0.125000 0.077665 0.187500
v 0.000000 -0.141614 0.211940
v 0.000000 -0.049728 0.250000
v 0.031250 0.000000 0.000000
v 0.062500 -0.141614 0.211940
v 0.062500 -0.049728 0.250000
v 0.093750 0.000000 0.000000
v 0.000000 -0.211940 0.141614
v 0.062500 -0.211940 0.141614
v 0.000000 -0.250000 0.049728
v 0.062500 -0.250000 0.049728
v 0.000000 -0.250000 -0.049728
v 0.062500 -0.250000 -0.049728
v 0.000000 -0.211940 -0.141614
v 0.062500 -0.211940 -0.141614
v 0.000000 -0.141614 -0.211940
v 0.062500 -0.141614 -0.211940
v 0.000000 -0.049728 -0.250000
v 0.062500 -0.049728 -0.250000
v -0.000000 0.049728 -0.250000
v 0.062500 0.049728 -0.250000
v -0.000000 0.141614 -0.211940
v 0.062500 0.141614 -0.211940
v -0.000000 0.211940 -0.141614
v 0.062500 0.211940 -0.141614
v -0.000000 0.250000 -0.049728
v 0.062500 0.250000 -0.049728
v -0.000000 0.250000 0.049728
v 0.062500 0.250000 0.049728
v -0.000000 0.211940 0.141614
v 0.062500 0.211940 0.141614
v -0.000000 0.141614 0.211940
v 0.062500 0.141614 0.211940
v -0.000000 0.049728 0.250000
v 0.062500 0.049728 0.250000
vt 0.062500 1.000000
vt 0.000000 1.000000
vt 0.000000 0.937500
vt 0.062500 0.937500
vt 0.062500 0.937500
vt 0.062500 1.000000
vt 0.000000 1.000000
vt 0.000000 0.937500
vt 0.000000 0.937500
vt 0.062500 0.937500
vt 0.062500 1.000000
vt 0.000000 1.000000
vt 0.062500 0.937500
vt 0.062500 1.000000
vt 0.000000 1.000000
vt 0.000000 0.937500
vt 0.062500 1.000000
vt 0.000000 1.000000
vt 0.000000 0.937500
vt 0.062500 0.937500
vt 0.062500 1.000000
vt 0.000000 1.000000
vt 0.000000 0.937500
vt 0.062500 0.937500
vt 0.062500 0.937500
vt 0.062500 1.000000
vt 0.000000 1.000000
vt 0.000000 0.937500
vt 0.000000 0.937500
vt 0.062500 0.937500
vt 0.062500 1.000000
vt 0.000000 1.000000
vt 0.062500 0.937500
vt 0.062500 1.000000
vt 0.000000 1.000000
vt 0.000000 0.937500
vt 0.062500 1.000000
vt 0.000000 1.000000
vt 0.000000 0.937500
vt 0.062500 0.937500
vt 0.062500 1.000000
vt 0.000000 1.000000
vt 0.000000 0.937500
vt 0.062500 0.937500
vt 0.062500 0.937500
vt 0.062500 1.000000
vt 0.000000 1.000000
vt 0.000000 0.937500
vt 0.000000 0.937500
vt 0.062500 0.937500
vt 0.062500 1.000000
vt 0.000000 1.000000
vt 0.062500 0.937500
vt 0.062500 1.000000
vt 0.000000 1.000000
vt 0.000000 0.937500
vt 0.062500 1.000000
vt 0.000000 1.000000
vt 0.000000 0.937500
vt 0.062500 0.937500
vt 0.062500 1.000000
vt 0.000000 1.000000
vt 0.000000 0.937500
vt 0.062500 0.937500
vt 0.062500 0.937500
vt 0.062500 1.000000
vt 0.000000 1.000000
vt 0.000000 0.937500
vt 0.000000 0.937500
vt 0.062500 0.937500
vt 0.062500 1.000000
vt 0.000000 1.000000
vt 0.062500 0.937500
vt 0.062500 1.000000
vt 0.000000 1.000000
vt 0.000000 0.937500
vt 0.062500 1.000000
vt 0.000000 1.000000
vt 0.000000 0.937500
vt 0.062500 0.937500
vt 0.812500 0.812500
vt 0.625000 0.812500
vt 0.625000 0.750000
vt 0.812500 0.750000
vt 0.812500 0.750000
vt 0.812500 0.812500
vt 0.625000 0.812500
vt 0.625000 0.750000
vt 0.687500 0.687500
vt 0.750000 0.687500
vt 0.750000 0.875000
vt 0.687500 0.875000
vt 0.750000 0.687500
vt 0.750000 0.875000
vt 0.687500 0.875000
vt 0.687500 0.687500
vt 0.750000 0.750000
vt 0.750000 0.812500
vt 0.687500 0.812500
vt 0.687500 0.750000
vt 0.750000 0.812500
vt 0.687500 0.812500
vt 0.687500 0.750000
vt 0.750000 0.750000
vt 0.270599 0.808661
vt 0.191346 1.000000
vt 0.000000 0.808661
vt 0.000000 0.875000
vt 0.207113 0.875000
vt 0.207113 1.000000
vt 0.000000 1.000000
vt 0.000000 0.729401
vt 0.191339 0.808654
vt 0.000000 1.000000
vt 0.250000 0.042888
vt 0.250000 0.250000
vt 0.000000 0.146444
vt 0.000000 0.875000
vt 0.207113 0.875000
vt 0.207113 1.000000
vt 0.000000 1.000000
vt 0.437500 0.292888
vt 0.437500 0.500000
vt 0.187500 0.396444
vt 0.062500 0.291901
vt 0.253839 0.371154
vt 0.062500 0.562500
vt 0.187500 0.375000
vt 0.394612 0.375000
vt 0.394612 0.500000
vt 0.187500 0.500000
vt 0.270599 0.121161
vt 0.191346 0.312500
vt 0.000000 0.121161
vt 0.062500 0.687500
vt 0.269612 0.687500
vt 0.166056 0.937500
vt 0.000000 0.250000
vt 0.207113 0.250000
vt 0.207113 0.375000
vt 0.000000 0.375000
vt 0.394612 0.375000
vt 0.187500 0.375000
vt 0.291056 0.125000
vt 0.187500 0.562500
vt 0.266753 0.371161
vt 0.458099 0.562500
vt 0.250000 0.875000
vt 0.457112 0.875000
vt 0.457112 1.000000
vt 0.250000 1.000000
vt 0.191339 0.437500
vt 0.000000 0.358247
vt 0.191339 0.166901
vt 0.125000 0.250000
vt 0.125000 0.042888
vt 0.375000 0.146444
vt 0.000000 0.562500
vt 0.207113 0.562500
vt 0.207113 0.687500
vt 0.000000 0.687500
vt 0.125000 0.437500
vt 0.125000 0.230387
vt 0.375000 0.333944
vt 0.441339 0.500000
vt 0.250000 0.420747
vt 0.441339 0.229401
vt 0.062500 0.437500
vt 0.269612 0.437500
vt 0.269612 0.562500
vt 0.062500 0.562500
vt 0.000000 0.625000
vt 0.079253 0.433661
vt 0.270599 0.625000
vt 0.457112 0.750000
vt 0.250000 0.750000
vt 0.353556 0.500000
vt 0.000000 0.000000
vt 0.207113 0.000000
vt 0.207113 0.125000
vt 0.000000 0.125000
vt 0.250000 0.000000
vt 0.457112 0.000000
vt 0.353556 0.250000
vt 0.254895 0.902452
vt 0.235493 1.000000
vt 0.000000 0.902452
vt 0.000000 0.875000
vt 0.099450 0.875000
vt 0.099450 1.000000
vt 0.000000 1.000000
vt 0.812500 0.062500
vt 0.910047 0.081906
vt 0.812500 0.317397
vt 0.254895 0.902456
vt 0.235493 1.000000
vt 0.000000 0.875000
vt 0.099450 0.875000
vt 0.099450 1.000000
vt 0.000000 1.000000
vt 0.812500 0.062500
vt 0.910044 0.081902
vt 0.254897 0.902453
vt 0.235491 1.000000
vt 0.000000 0.875000
vt 0.099450 0.875000
vt 0.099450 1.000000
vt 0.000000 1.000000
vt 0.812500 0.062500
vt 0.910048 0.081902
vt 0.250000 0.900550
vt 0.250000 1.000000
vt 0.000000 0.950275
vt 0.000000 0.875000
vt 0.099450 0.875000
vt 0.099450 1.000000
vt 0.000000 1.000000
vt 0.812500 0.213050
vt 0.812500 0.312500
vt 0.562500 0.262775
vt 0.000000 0.745105
vt 0.097548 0.764507
vt 0.000000 1.000000
vt 0.000000 0.875000
vt 0.099450 0.875000
vt 0.099450 1.000000
vt 0.000000 1.000000
vt 0.937500 0.339953
vt 0.918094 0.437500
vt 0.682603 0.339953
vt 0.000000 0.745105
vt 0.097544 0.764507
vt 0.000000 0.875000
vt 0.099450 0.875000
vt 0.099450 1.000000
vt 0.000000 1.000000
vt 0.937500 0.339956
vt 0.918097 0.437500
vt 0.000000 0.745103
vt 0.097547 0.764509
vt 0.000000 0.875000
vt 0.099450 0.875000
vt 0.099450 1.000000
vt 0.000000 1.000000
vt 0.937500 0.339952
vt 0.918098 0.437500
vt 0.000000 0.750000
vt 0.099450 0.750000
vt 0.049725 1.000000
vt 0.000000 0.875000
vt 0.099450 0.875000
vt 0.099450 1.000000
vt 0.000000 1.000000
vt 0.786950 0.312500
vt 0.687500 0.312500
vt 0.737225 0.062500
vt 0.000000 1.000000
vt 0.019402 0.902452
vt 0.254895 1.000000
vt 0.000000 0.875000
vt 0.099450 0.875000
vt 0.099450 1.000000
vt 0.000000 1.000000
vt 0.660047 0.317397
vt 0.562500 0.297991
vt 0.660047 0.062500
vt 0.000000 1.000000
vt 0.019403 0.902456
vt 0.000000 0.875000
vt 0.099450 0.875000
vt 0.099450 1.000000
vt 0.000000 1.000000
vt 0.660044 0.317397
vt 0.562500 0.297995
vt 0.000000 1.000000
vt 0.019406 0.902453
vt 0.000000 0.875000
vt 0.099450 0.875000
vt 0.099450 1.000000
vt 0.000000 1.000000
vt 0.660048 0.317397
vt 0.562500 0.297995
vt 0.000000 1.000000
vt 0.000000 0.900550
vt 0.250000 0.950275
vt 0.000000 0.875000
vt 0.099450 0.875000
vt 0.099450 1.000000
vt 0.000000 1.000000
vt 0.562500 0.312500
vt 0.562500 0.213050
vt 0.812500 0.262775
vt 0.097548 1.000000
vt 0.000000 0.980598
vt 0.097548 0.745105
vt 0.000000 0.875000
vt 0.099450 0.875000
vt 0.099450 1.000000
vt 0.000000 1.000000
vt 0.562500 0.437500
vt 0.581906 0.339953
vt 0.817397 0.437500
vt 0.097544 1.000000
vt 0.000000 0.980597
vt 0.000000 0.875000
vt 0.099450 0.875000
vt 0.099450 1.000000
vt 0.000000 1.000000
vt 0.562500 0.437500
vt 0.581903 0.339956
vt 0.097547 1.000000
vt 0.000000 0.980594
vt 0.000000 0.875000
vt 0.099450 0.875000
vt 0.099450 1.000000
vt 0.000000 1.000000
vt 0.562500 0.437500
vt 0.581902 0.339952
vt 0.099450 1.000000
vt 0.000000 1.000000
vt 0.049725 0.750000
vt 0.000000 0.875000
vt 0.099450 0.875000
vt 0.099450 1.000000
vt 0.000000 1.000000
vt 0.687500 0.062500
vt 0.786950 0.062500
vt 0.737225 0.312500
vn 1.0000 0.0000 0.0000
vn -1.0000 0.0000 0.0000
vn 0.0000 1.0000 0.0000
vn 0.0000 -1.0000 -0.0000
vn 0.0000 0.0000 1.0000
vn 0.0000 0.0000 -1.0000
vn 0.9487 0.0000 0.3162
vn -0.9487 0.0000 0.3162
vn 0.0000 0.9864 0.1644
vn 0.0000 -0.9864 0.1644
vn -0.7071 0.0000 -0.7071
vn 0.0000 0.8944 -0.4472
vn 0.0000 -0.8944 -0.4472
vn 0.0000 0.7071 0.7071
vn 0.0000 -0.7071 -0.7071
vn 0.0000 -0.7071 0.7071
vn 0.0000 0.7071 -0.7071
vn 0.4472 -0.6325 0.6325
vn 0.4472 -0.8944 0.0000
vn 0.4472 -0.6325 -0.6325
vn 0.4472 0.0000 -0.8944
vn 0.4472 0.6325 -0.6325
vn 0.4472 0.8944 0.0000
vn 0.4472 0.6325 0.6325
vn 0.4472 0.0000 0.8944
vn -0.9923 0.0475 -0.1146
vn 0.0000 -0.3827 0.9239
vn 0.9923 -0.0475 0.1146
vn -0.9923 0.0877 -0.0877
vn 0.9923 -0.0877 0.0877
vn -0.9923 0.1146 -0.0475
vn 0.0000 -0.9239 0.3827
vn 0.9923 -0.1146 0.0475
vn -0.9923 0.1240 0.0000
vn 0.9923 -0.1240 0.0000
vn -0.9923 0.1146 0.0475
vn 0.0000 -0.9239 -0.3827
vn 0.9923 -0.1146 -0.0475
vn -0.9923 0.0877 0.0877
vn 0.9923 -0.0877 -0.0877
vn -0.9923 0.0475 0.1146
vn 0.0000 -0.3827 -0.9239
vn 0.9923 -0.0475 -0.1146
vn -0.9923 0.0000 0.1240
vn 0.9923 0.0000 -0.1240
vn -0.9923 -0.0475 0.1146
vn 0.0000 0.3827 -0.9239
vn 0.9923 0.0475 -0.1146
vn -0.9923 -0.0877 0.0877
vn 0.9923 0.0877 -0.0877
vn -0.9923 -0.1146 0.0475
vn 0.0000 0.9239 -0.3827
vn 0.9923 0.1146 -0.0475
vn -0.9923 -0.1240 0.0000
vn 0.9923 0.1240 0.0000
vn -0.9923 -0.1146 -0.0475
vn 0.0000 0.9239 0.3827
vn 0.9923 0.1146 0.0475
vn -0.9923 -0.0877 -0.0877
vn 0.9923 0.0877 0.0877
vn -0.9923 -0.0475 -0.1146
vn 0.0000 0.3827 0.9239
vn 0.9923 0.0475 0.1146
vn -0.9923 0.0000 -0.1240
vn 0.9923 0.0000 0.1240
usemtl m_84db8de3-5eee-60af-3bf7-07a2ceced186
s 1
f 1/1/1 2/2/1 3/3/1 4/4/1
f 5/5/2 6/6/2 7/7/2 8/8/2
f 6/9/3 2/10/3 1/1/3 7/7/3
f 4/4/4 3/11/4 5/12/4 8/8/4
f 3/13/5 2/14/5 6/15/5 5/16/5
f 7/17/6 1/18/6 4/19/6 8/20/6
f 9/21/7 10/22/7 11/23/7 12/24/7
f 13/25/8 14/26/8 15/27/8 16/28/8
f 14/29/9 10/30/9 9/21/9 15/27/9
f 12/24/10 11/31/10 13/32/10 16/28/10
f 11/33/5 10/34/5 14/35/5 13/36/5
f 15/37/6 9/38/6 12/39/6 16/40/6
f 17/41/1 18/42/1 19/43/1 20/44/1
f 21/45/2 22/46/2 23/47/2 24/48/2
f 22/49/3 18/50/3 17/41/3 23/47/3
f 20/44/4 19/51/4 21/52/4 24/48/4
f 19/53/5 18/54/5 22/55/5 21/56/5
f 23/57/6 17/58/6 20/59/6 24/60/6
f 25/61/1 26/62/1 27/63/1 28/64/1
f 29/65/11 30/66/11 31/67/11 32/68/11
f 30/69/12 26/70/12 25/61/12 31/67/12
f 28/64/13 27/71/13 29/72/13 32/68/13
f 27/73/5 26/74/5 30/75/5 29/76/5
f 31/77/6 25/78/6 28/79/6 32/80/6
f 33/81/1 34/82/1 35/83/1 36/84/1
f 37/85/2 38/86/2 39/87/2 40/88/2
f 38/89/14 34/90/14 33/91/14 39/92/14
f 36/93/15 35/94/15 37/95/15 40/96/15
f 35/97/16 34/98/16 38/99/16 37/100/16
f 39/101/17 33/102/17 36/103/17 40/104/17
f 41/105/2 42/106/2 43/107/2
f 42/108/18 41/109/18 44/110/18 45/111/18
f 45/112/1 44/113/1 46/114/1
f 47/115/2 41/116/2 43/117/2
f 41/118/19 47/119/19 48/120/19 44/121/19
f 44/122/1 48/123/1 46/124/1
f 49/125/2 47/126/2 43/127/2
f 47/128/20 49/129/20 50/130/20 48/131/20
f 48/132/1 50/133/1 46/134/1
f 51/135/2 49/136/2 43/137/2
f 49/138/21 51/139/21 52/140/21 50/141/21
f 50/142/1 52/143/1 46/144/1
f 53/145/2 51/146/2 43/147/2
f 51/148/22 53/149/22 54/150/22 52/151/22
f 52/152/1 54/153/1 46/154/1
f 55/155/2 53/156/2 43/157/2
f 53/158/23 55/159/23 56/160/23 54/161/23
f 54/162/1 56/163/1 46/164/1
f 57/165/2 55/166/2 43/167/2
f 55/168/24 57/169/24 58/170/24 56/171/24
f 56/172/1 58/173/1 46/174/1
f 42/175/2 57/176/2 43/177/2
f 57/178/25 42/179/25 45/180/25 58/181/25
f 58/182/1 45/183/1 46/184/1
f 59/185/26 60/186/26 61/187/26
f 60/188/27 59/189/27 62/190/27 63/191/27
f 63/192/28 62/193/28 64/194/28
f 65/195/29 59/196/29 61/187/29
f 59/197/16 65/198/16 66/199/16 62/200/16
f 62/201/30 66/202/30 64/194/30
f 67/203/31 65/204/31 61/187/31
f 65/205/32 67/206/32 68/207/32 66/208/32
f 66/209/33 68/210/33 64/194/33
f 69/211/34 67/212/34 61/213/34
f 67/214/4 69/215/4 70/216/4 68/217/4
f 68/218/35 70/219/35 64/220/35
f 71/221/36 69/222/36 61/223/36
f 69/224/37 71/225/37 72/226/37 70/227/37
f 70/228/38 72/229/38 64/230/38
f 73/231/39 71/232/39 61/223/39
f 71/233/15 73/234/15 74/235/15 72/236/15
f 72/237/40 74/238/40 64/230/40
f 75/239/41 73/240/41 61/223/41
f 73/241/42 75/242/42 76/243/42 74/244/42
f 74/245/43 76/246/43 64/230/43
f 77/247/44 75/248/44 61/249/44
f 75/250/6 77/251/6 78/252/6 76/253/6
f 76/254/45 78/255/45 64/256/45
f 79/257/46 77/258/46 61/259/46
f 77/260/47 79/261/47 80/262/47 78/263/47
f 78/264/48 80/265/48 64/266/48
f 81/267/49 79/268/49 61/259/49
f 79/269/17 81/270/17 82/271/17 80/272/17
f 80/273/50 82/274/50 64/266/50
f 83/275/51 81/276/51 61/259/51
f 81/277/52 83/278/52 84/279/52 82/280/52
f 82/281/53 84/282/53 64/266/53
f 85/283/54 83/284/54 61/285/54
f 83/286/3 85/287/3 86/288/3 84/289/3
f 84/290/55 86/291/55 64/292/55
f 87/293/56 85/294/56 61/295/56
f 85/296/57 87/297/57 88/298/57 86/299/57
f 86/300/58 88/301/58 64/302/58
f 89/303/59 87/304/59 61/295/59
f 87/305/14 89/306/14 90/307/14 88/308/14
f 88/309/60 90/310/60 64/302/60
f 91/311/61 89/312/61 61/295/61
f 89/313/62 91/314/62 92/315/62 90/316/62
f 90/317/63 92/318/63 64/302/63
f 60/319/64 91/320/64 61/321/64
f 91/322/5 60/323/5 63/324/5 92/325/5
f 92/326/65 63/327/65 64/328/65
