# Blender v2.79 (sub 0) OBJ File: ''
# www.blender.org
mtllib dashboardchime.mtl
o cuboid
v 0.031250 0.031250 -0.078125
v 0.031250 0.031250 0.046875
v 0.031250 -0.031250 0.046875
v 0.031250 -0.031250 -0.078125
v -0.031250 -0.031250 0.046875
v -0.031250 0.031250 0.046875
v -0.031250 0.031250 -0.078125
v -0.031250 -0.031250 -0.078125
v 0.023438 0.023437 0.031250
v 0.031250 0.031250 0.070312
v 0.031250 -0.031250 0.070312
v 0.023438 -0.023438 0.031250
v -0.031250 -0.031250 0.070312
v -0.031250 0.031250 0.070312
v -0.023438 0.023437 0.031250
v -0.023438 -0.023438 0.031250
vt 0.250000 0.875000
vt 0.000000 0.875000
vt 0.000000 0.750000
vt 0.250000 0.750000
vt 0.250000 0.625000
vt 0.250000 0.750000
vt 0.000000 0.750000
vt 0.000000 0.625000
vt 0.250000 0.875000
vt 0.250000 1.000000
vt 0.000000 1.000000
vt 0.000000 0.875000
vt 0.500000 1.000000
vt 0.250000 1.000000
vt 0.250000 0.875000
vt 0.500000 0.875000
vt 0.375000 0.750000
vt 0.375000 0.875000
vt 0.250000 0.750000
vt 0.375000 0.750000
vt 0.250000 0.750000
vt 0.250000 0.625000
vt 0.375000 0.625000
vt 1.000000 0.875000
vt 0.875000 0.875000
vt 0.875000 0.750000
vt 1.000000 0.750000
vt 0.750000 0.750000
vt 0.750000 0.875000
vt 0.625000 0.875000
vt 0.625000 0.750000
vt 0.625000 0.875000
vt 0.750000 0.875000
vt 0.750000 1.000000
vt 0.625000 1.000000
vt 0.875000 0.875000
vt 0.875000 1.000000
vt 0.750000 1.000000
vt 0.750000 0.875000
vt 0.500000 0.875000
vt 0.500000 0.750000
vn 1.0000 0.0000 0.0000
vn -1.0000 0.0000 0.0000
vn 0.0000 1.0000 0.0000
vn 0.0000 -1.0000 -0.0000
vn 0.0000 0.0000 1.0000
vn 0.0000 0.0000 -1.0000
vn 0.9806 0.0000 -0.1961
vn -0.9806 -0.0000 -0.1961
vn 0.0000 0.9806 -0.1961
vn 0.0000 -0.9806 -0.1961
usemtl m_cd9f109b-e0e7-5004-d281-bd53b41390c2
s 1
f 1/1/1 2/2/1 3/3/1 4/4/1
f 5/5/2 6/6/2 7/7/2 8/8/2
f 6/9/3 2/10/3 1/11/3 7/12/3
f 4/13/4 3/14/4 5/15/4 8/16/4
f 3/17/5 2/18/5 6/9/5 5/19/5
f 7/20/6 1/21/6 4/22/6 8/23/6
f 9/24/7 10/25/7 11/26/7 12/27/7
f 13/28/8 14/29/8 15/30/8 16/31/8
f 14/32/9 10/33/9 9/34/9 15/35/9
f 12/36/10 11/37/10 13/38/10 16/39/10
f 11/26/5 10/25/5 14/29/5 13/28/5
f 15/30/6 9/40/6 12/41/6 16/31/6
