# Blender v2.79 (sub 0) OBJ File: ''
# www.blender.org
mtllib va_earring.mtl
o cube
v 0.156250 -0.187500 -0.015625
v 0.093750 -0.187500 -0.015625
v 0.093750 -0.031250 -0.015625
v 0.156250 -0.031250 -0.015625
v 0.156250 -0.187500 0.015625
v 0.156250 -0.031250 0.015625
v 0.093750 -0.187500 0.015625
v 0.093750 -0.031250 0.015625
v -0.093750 -0.187500 -0.015625
v -0.156250 -0.187500 -0.015625
v -0.156250 -0.031250 -0.015625
v -0.093750 -0.031250 -0.015625
v -0.093750 -0.187500 0.015625
v -0.093750 -0.031250 0.015625
v -0.156250 -0.187500 0.015625
v -0.156250 -0.031250 0.015625
v 0.125000 -0.218750 -0.015625
v -0.125000 -0.218750 -0.015625
v -0.125000 -0.187500 -0.015625
v 0.125000 -0.187500 -0.015625
v 0.125000 -0.218750 0.015625
v 0.125000 -0.187500 0.015625
v -0.125000 -0.218750 0.015625
v -0.125000 -0.187500 0.015625
v 0.093750 -0.250000 -0.015625
v -0.093750 -0.250000 -0.015625
v -0.093750 -0.218750 -0.015625
v 0.093750 -0.218750 -0.015625
v 0.093750 -0.250000 0.015625
v 0.093750 -0.218750 0.015625
v -0.093750 -0.250000 0.015625
v -0.093750 -0.218750 0.015625
v 0.093750 0.000000 -0.015625
v -0.093750 0.000000 -0.015625
v -0.093750 0.031250 -0.015625
v 0.093750 0.031250 -0.015625
v 0.093750 0.000000 0.015625
v 0.093750 0.031250 0.015625
v -0.093750 0.000000 0.015625
v -0.093750 0.031250 0.015625
v 0.125000 -0.031250 -0.015625
v -0.125000 -0.031250 -0.015625
v -0.125000 0.000000 -0.015625
v 0.125000 0.000000 -0.015625
v 0.125000 -0.031250 0.015625
v 0.125000 0.000000 0.015625
v -0.125000 -0.031250 0.015625
v -0.125000 0.000000 0.015625
vt 0.187500 0.375000
vt 0.312500 0.375000
vt 0.312500 0.687500
vt 0.187500 0.687500
vt 0.187500 0.375000
vt 0.250000 0.375000
vt 0.250000 0.687500
vt 0.187500 0.687500
vt 0.312500 0.375000
vt 0.312500 0.687500
vt 0.250000 0.375000
vt 0.250000 0.687500
vt 0.312500 0.625000
vt 0.187500 0.625000
vt 0.187500 0.437500
vt 0.312500 0.437500
vt 0.687500 0.375000
vt 0.812500 0.375000
vt 0.812500 0.687500
vt 0.687500 0.687500
vt 0.687500 0.375000
vt 0.750000 0.375000
vt 0.750000 0.687500
vt 0.687500 0.687500
vt 0.812500 0.375000
vt 0.812500 0.687500
vt 0.750000 0.375000
vt 0.750000 0.687500
vt 0.812500 0.625000
vt 0.687500 0.625000
vt 0.687500 0.437500
vt 0.812500 0.437500
vt 0.750000 0.312500
vt 0.250000 0.312500
vt 0.250000 0.375000
vt 0.750000 0.375000
vt 0.750000 0.312500
vt 0.687500 0.312500
vt 0.687500 0.375000
vt 0.750000 0.375000
vt 0.250000 0.312500
vt 0.250000 0.375000
vt 0.312500 0.312500
vt 0.312500 0.375000
vt 0.250000 0.312500
vt 0.750000 0.312500
vt 0.750000 0.375000
vt 0.250000 0.375000
vt 0.687500 0.250000
vt 0.312500 0.250000
vt 0.312500 0.312500
vt 0.687500 0.312500
vt 0.687500 0.250000
vt 0.625000 0.250000
vt 0.625000 0.312500
vt 0.687500 0.312500
vt 0.312500 0.250000
vt 0.312500 0.312500
vt 0.375000 0.250000
vt 0.375000 0.312500
vt 0.312500 0.250000
vt 0.687500 0.250000
vt 0.687500 0.312500
vt 0.312500 0.312500
vt 0.687500 0.750000
vt 0.312500 0.750000
vt 0.312500 0.812500
vt 0.687500 0.812500
vt 0.687500 0.750000
vt 0.625000 0.750000
vt 0.625000 0.812500
vt 0.687500 0.812500
vt 0.312500 0.750000
vt 0.312500 0.812500
vt 0.375000 0.750000
vt 0.375000 0.812500
vt 0.312500 0.750000
vt 0.687500 0.750000
vt 0.687500 0.812500
vt 0.312500 0.812500
vt 0.750000 0.687500
vt 0.250000 0.687500
vt 0.250000 0.750000
vt 0.750000 0.750000
vt 0.750000 0.687500
vt 0.687500 0.687500
vt 0.687500 0.750000
vt 0.750000 0.750000
vt 0.250000 0.687500
vt 0.250000 0.750000
vt 0.312500 0.687500
vt 0.312500 0.750000
vt 0.250000 0.687500
vt 0.750000 0.687500
vt 0.750000 0.750000
vt 0.250000 0.750000
vn 0.0000 0.0000 -1.0000
vn 1.0000 0.0000 0.0000
vn 0.0000 -0.0000 1.0000
vn -1.0000 0.0000 0.0000
vn 0.0000 1.0000 0.0000
vn 0.0000 -1.0000 0.0000
usemtl m_8adc1cf8-1476-d897-17d3-ff454e1af258
s 1
f 1/1/1 2/2/1 3/3/1 4/4/1
f 5/5/2 1/6/2 4/7/2 6/8/2
f 7/9/3 5/5/3 6/8/3 8/10/3
f 2/11/4 7/9/4 8/10/4 3/12/4
f 8/13/5 6/14/5 4/4/5 3/3/5
f 2/2/6 1/1/6 5/15/6 7/16/6
f 9/17/1 10/18/1 11/19/1 12/20/1
f 13/21/2 9/22/2 12/23/2 14/24/2
f 15/25/3 13/21/3 14/24/3 16/26/3
f 10/27/4 15/25/4 16/26/4 11/28/4
f 16/29/5 14/30/5 12/20/5 11/19/5
f 10/18/6 9/17/6 13/31/6 15/32/6
f 17/33/1 18/34/1 19/35/1 20/36/1
f 21/37/2 17/38/2 20/39/2 22/40/2
f 23/41/3 21/37/3 22/40/3 24/42/3
f 18/43/4 23/41/4 24/42/4 19/44/4
f 24/45/5 22/46/5 20/36/5 19/35/5
f 18/34/6 17/33/6 21/47/6 23/48/6
f 25/49/1 26/50/1 27/51/1 28/52/1
f 29/53/2 25/54/2 28/55/2 30/56/2
f 31/57/3 29/53/3 30/56/3 32/58/3
f 26/59/4 31/57/4 32/58/4 27/60/4
f 32/61/5 30/62/5 28/52/5 27/51/5
f 26/50/6 25/49/6 29/63/6 31/64/6
f 33/65/1 34/66/1 35/67/1 36/68/1
f 37/69/2 33/70/2 36/71/2 38/72/2
f 39/73/3 37/69/3 38/72/3 40/74/3
f 34/75/4 39/73/4 40/74/4 35/76/4
f 40/77/5 38/78/5 36/68/5 35/67/5
f 34/66/6 33/65/6 37/79/6 39/80/6
f 41/81/1 42/82/1 43/83/1 44/84/1
f 45/85/2 41/86/2 44/87/2 46/88/2
f 47/89/3 45/85/3 46/88/3 48/90/3
f 42/91/4 47/89/4 48/90/4 43/92/4
f 48/93/5 46/94/5 44/84/5 43/83/5
f 42/82/6 41/81/6 45/95/6 47/96/6
