# Made in Blockbench 4.6.1
mtllib flowersbunch.mtl

o cube
v 0.14091455822214008 0.6356244960623626 -0.5284407131235506
v 0.14091455822214008 0.6356244960623626 -0.5284407131235506
v -0.017567289930627866 -0.07924092407638027 -0.3661110026699752
v -0.017567289930627866 -0.07924092407638027 -0.3661110026699752
v 0.1760491380833958 0.7941063442151232 0.20378129221639982
v 0.1760491380833958 0.7941063442151232 0.20378129221639982
v 0.017567289930627866 0.07924092407638027 0.3661110026699752
v 0.017567289930627866 0.07924092407638027 0.3661110026699752
v 0.5245928508227422 0.6337005649119516 -0.1623297104535748
v 0.5245928508227422 0.6337005649119516 -0.1623297104535748
v 0.3661110026699743 -0.08116485522679133 5.848408418285321e-16
v 0.3661110026699743 -0.08116485522679133 5.848408418285321e-16
v -0.20762915451720637 0.7960302753655342 -0.16232971045357597
v -0.20762915451720637 0.7960302753655342 -0.16232971045357597
v -0.3661110026699743 0.08116485522679133 -5.848408418285321e-16
v -0.3661110026699743 0.08116485522679133 -5.848408418285321e-16
vt 0.25 0.5
vt 0.25 1
vt 0 1
vt 0 0.5
vt 0.25 1
vt 0 1
vt 0 0.5
vt 0.25 0.5
vt 0.25 0.5
vt 0.25 1
vt 0 1
vt 0 0.5
vt 0.25 1
vt 0 1
vt 0 0.5
vt 0.25 0.5
vn 0.9762960071199318 -0.2164396139381101 1.838806884535416e-15
vn -0.9762960071199318 0.2164396139381101 -1.838806884535416e-15
vn 0.04684610648167462 0.2113091308703474 0.9762960071199339
vn -0.04684610648167462 -0.2113091308703474 -0.9762960071199339
usemtl m_dab88cfd-e4c5-da2e-cf3c-c232db815ae3
f 3/1/1 1/2/1 5/3/1 7/4/1
f 6/5/2 2/6/2 4/7/2 8/8/2
f 11/9/3 9/10/3 13/11/3 15/12/3
f 14/13/4 10/14/4 12/15/4 16/16/4
o cube
v 8.326672684688674e-17 0.75 -0.375
v 8.326672684688674e-17 0.75 -0.375
v 8.326672684688674e-17 4.370971474782829e-20 -0.375
v 8.326672684688674e-17 4.370971474782829e-20 -0.375
v -8.326672684688674e-17 0.75 0.375
v -8.326672684688674e-17 0.75 0.375
v -8.326672684688674e-17 -4.370971474782829e-20 0.375
v -8.326672684688674e-17 -4.370971474782829e-20 0.375
v 0.375 0.75 0
v 0.375 0.75 0
v 0.375 6.777097282521788e-37 0
v 0.375 6.777097282521788e-37 0
v -0.375 0.75 0
v -0.375 0.75 0
v -0.375 -6.777097282521788e-37 0
v -0.375 -6.777097282521788e-37 0
vt 0.25 0
vt 0.25 0.5
vt 0 0.5
vt 0 0
vt 0.25 0.5
vt 0 0.5
vt 0 0
vt 0.25 0
vt 0.25 0
vt 0.25 0.5
vt 0 0.5
vt 0 0
vt 0.25 0.5
vt 0 0.5
vt 0 0
vt 0.25 0
vn 1 -2.588135024684626e-35 2.220446049250313e-16
vn -1 2.588135024684626e-35 -2.220446049250313e-16
vn 0 2.961117289495375e-33 1
vn 0 -1.391484384819778e-32 -1
usemtl m_dab88cfd-e4c5-da2e-cf3c-c232db815ae3
f 19/17/5 17/18/5 21/19/5 23/20/5
f 22/21/6 18/22/6 20/23/6 24/24/6
f 27/25/7 25/26/7 29/27/7 31/28/7
f 30/29/8 26/30/8 28/31/8 32/32/8
o cube
v 0.2565151074942546 0.7905242199167416 -0.11133937916226222
v 0.2565151074942546 0.7905242199167416 -0.11133937916226222
v 8.743006318923108e-16 0.12825755374712614 -0.3523847327947155
v 8.743006318923108e-16 0.12825755374712614 -0.3523847327947155
v 0.2565151074942528 0.5340091124224894 0.5934300864271688
v 0.2565151074942528 0.5340091124224894 0.5934300864271688
v -8.743006318923108e-16 -0.12825755374712614 0.3523847327947155
v -8.743006318923108e-16 -0.12825755374712614 0.3523847327947155
v 0.6088998402889689 0.5417439893533881 0.19717868671726188
v 0.6088998402889689 0.5417439893533881 0.19717868671726188
v 0.35238473279471527 -0.12052267681622736 -0.04386666691519139
v 0.35238473279471527 -0.12052267681622736 -0.04386666691519139
v -0.09586962530046156 0.7827893429858429 0.28491202054764464
v -0.09586962530046156 0.7827893429858429 0.28491202054764464
v -0.35238473279471527 0.12052267681622736 0.04386666691519139
v -0.35238473279471527 0.12052267681622736 0.04386666691519139
vt 0.5 0.5
vt 0.5 1
vt 0.25 1
vt 0.25 0.5
vt 0.5 1
vt 0.25 1
vt 0.25 0.5
vt 0.5 0.5
vt 0.5 0.5
vt 0.5 1
vt 0.25 1
vt 0.25 0.5
vt 0.5 1
vt 0.25 1
vt 0.25 0.5
vt 0.5 0.5
vn 0.9396926207859073 -0.32139380484327296 -0.11697777844051024
vn -0.9396926207859073 0.32139380484327296 0.11697777844051024
vn -2.2060415362186007e-15 -0.34202014332566977 0.939692620785908
vn 2.2060415362186007e-15 0.34202014332566977 -0.939692620785908
usemtl m_dab88cfd-e4c5-da2e-cf3c-c232db815ae3
f 35/33/9 33/34/9 37/35/9 39/36/9
f 38/37/10 34/38/10 36/39/10 40/40/10
f 43/41/11 41/42/11 45/43/11 47/44/11
f 46/45/12 42/46/12 44/47/12 48/48/12
o cube
v 0.5927058867618926 0.5927058655238342 -0.022901719835879297
v 0.5927058867618926 0.5927058655238342 -0.022901719835879297
v 0.1120635998181594 0.11206358152155792 -0.33986541938296194
v 0.1120635998181594 0.11206358152155792 -0.33986541938296194
v 0.36857868712557385 0.36857870248071833 0.6568291189300446
v 0.36857868712557385 0.36857870248071833 0.6568291189300446
v -0.1120635998181594 -0.11206358152155792 0.33986541938296194
v -0.1120635998181594 -0.11206358152155792 0.33986541938296194
v 0.7458073253559832 0.21547723652461576 0.3169637108330694
v 0.7458073253559832 0.21547723652461576 0.3169637108330694
v 0.26516503841224986 -0.2651650474776605 1.1285986736305672e-8
v 0.26516503841224986 -0.2651650474776605 1.1285986736305672e-8
v 0.21547724853148337 0.7458073314799367 0.3169636882610959
v 0.21547724853148337 0.7458073314799367 0.3169636882610959
v -0.26516503841224986 0.2651650474776605 -1.1285986736305672e-8
v -0.26516503841224986 0.2651650474776605 -1.1285986736305672e-8
vt 0.5 0
vt 0.5 0.5
vt 0.25 0.5
vt 0.25 0
vt 0.5 0.5
vt 0.25 0.5
vt 0.25 0
vt 0.5 0
vt 0.5 0
vt 0.5 0.5
vt 0.25 0.5
vt 0.25 0
vt 0.5 0.5
vt 0.25 0.5
vt 0.25 0
vt 0.5 0
vn 0.7071067690993329 -0.7071067932737614 3.009596485914478e-8
vn -0.7071067690993329 0.7071067932737614 -3.009596485914478e-8
vn -0.2988362661817583 -0.29883621739082145 0.9063077850212318
vn 0.2988362661817583 0.29883621739082145 -0.9063077850212318
usemtl m_dab88cfd-e4c5-da2e-cf3c-c232db815ae3
f 51/49/13 49/50/13 53/51/13 55/52/13
f 54/53/14 50/54/14 52/55/14 56/56/14
f 59/57/15 57/58/15 61/59/15 63/60/15
f 62/61/16 58/62/16 60/63/16 64/64/16
o cube
v -0.35424398935338997 0.7596786867172609 -0.02290172383321737
v -0.35424398935338997 0.7596786867172609 -0.02290172383321737
v -0.06697732318377339 0.14363333308480936 -0.3398654201387434
v -0.06697732318377339 0.14363333308480936 -0.3398654201387434
v -0.2202893429858432 0.47241202054764214 0.6568291164442694
v -0.2202893429858432 0.47241202054764214 0.6568291164442694
v 0.06697732318377339 -0.14363333308480936 0.3398654201387434
v 0.06697732318377339 -0.14363333308480936 0.3398654201387434
v 0.05259875396912722 0.7745272017852135 0.31696369630552673
v 0.05259875396912722 0.7745272017852135 0.31696369630552673
v 0.3398654201387438 0.15848184815276206 7.15568622103037e-16
v 0.3398654201387438 0.15848184815276206 7.15568622103037e-16
v -0.6271320863083605 0.4575635054796895 0.3169636963055253
v -0.6271320863083605 0.4575635054796895 0.3169636963055253
v -0.3398654201387438 -0.15848184815276206 -7.15568622103037e-16
v -0.3398654201387438 -0.15848184815276206 -7.15568622103037e-16
vt 0.75 0.5
vt 0.75 1
vt 0.5 1
vt 0.5 0.5
vt 0.75 1
vt 0.5 1
vt 0.5 0.5
vt 0.75 0.5
vt 0.75 0.5
vt 0.75 1
vt 0.5 1
vt 0.5 0.5
vt 0.75 1
vt 0.5 1
vt 0.5 0.5
vt 0.75 0.5
vn 0.9063077870366504 0.42261826174069883 2.1649348980190556e-15
vn -0.9063077870366504 -0.42261826174069883 -2.1649348980190556e-15
vn 0.17860619515672935 -0.38302222155949167 0.9063077870366492
vn -0.17860619515672935 0.38302222155949167 -0.9063077870366492
usemtl m_dab88cfd-e4c5-da2e-cf3c-c232db815ae3
f 67/65/17 65/66/17 69/67/17 71/68/17
f 70/69/18 66/70/18 68/71/18 72/72/18
f 75/73/19 73/74/19 77/75/19 79/76/19
f 78/77/20 74/78/20 76/79/20 80/80/20
o cube
v 0.2651650429449549 0.75 -0.2651650429449557
v 0.2651650429449549 0.75 -0.2651650429449557
v 0.2651650429449549 4.370971474782846e-20 -0.2651650429449557
v 0.2651650429449549 4.370971474782846e-20 -0.2651650429449557
v -0.2651650429449549 0.75 0.2651650429449557
v -0.2651650429449549 0.75 0.2651650429449557
v -0.2651650429449549 -4.370971474782846e-20 0.2651650429449557
v -0.2651650429449549 -4.370971474782846e-20 0.2651650429449557
v 0.26516504294495574 0.75 0.26516504294495485
v 0.26516504294495574 0.75 0.26516504294495485
v 0.26516504294495574 1.647635380330376e-35 0.26516504294495485
v 0.26516504294495574 1.647635380330376e-35 0.26516504294495485
v -0.26516504294495574 0.75 -0.26516504294495485
v -0.26516504294495574 0.75 -0.26516504294495485
v -0.26516504294495574 -1.647635380330376e-35 -0.26516504294495485
v -0.26516504294495574 -1.647635380330376e-35 -0.26516504294495485
vt 0.75 0
vt 0.75 0.5
vt 0.5 0.5
vt 0.5 0
vt 0.75 0.5
vt 0.5 0.5
vt 0.5 0
vt 0.75 0
vt 0.75 0
vt 0.75 0.5
vt 0.5 0.5
vt 0.5 0
vt 0.75 0.5
vt 0.5 0.5
vt 0.5 0
vt 0.75 0
vn 0.7071067811865486 2.407412430484045e-35 0.7071067811865465
vn -0.7071067811865486 -2.407412430484045e-35 -0.7071067811865465
vn -0.7071067811865464 2.527783052008247e-33 0.7071067811865487
vn 0.7071067811865464 -1.348150961071065e-32 -0.7071067811865487
usemtl m_dab88cfd-e4c5-da2e-cf3c-c232db815ae3
f 83/81/21 81/82/21 85/83/21 87/84/21
f 86/85/22 82/86/22 84/87/22 88/88/22
f 91/89/23 89/90/23 93/91/23 95/92/23
f 94/93/24 90/94/24 92/95/24 96/96/24
o cube
v -0.354479165036618 0.4669700445083945 -0.5995068799328078
v -0.354479165036618 0.4669700445083945 -0.5995068799328078
v -0.02752008412501364 -0.15607415277254214 -0.33986542013874455
v -0.02752008412501364 -0.15607415277254214 -0.33986542013874455
v -0.2994389967865908 0.7791183500534787 0.08022396034468132
v -0.2994389967865908 0.7791183500534787 0.08022396034468132
v 0.02752008412501364 0.15607415277254214 0.33986542013874455
v 0.02752008412501364 0.15607415277254214 0.33986542013874455
v 0.009406917402898007 0.7616798380627049 -0.3505429134838509
v 0.009406917402898007 0.7616798380627049 -0.3505429134838509
v 0.3363659983145024 0.13863564078176827 -0.09090145368978768
v 0.3363659983145024 0.13863564078176827 -0.09090145368978768
v -0.6633250792261068 0.48440855649916836 -0.16874000610427556
v -0.6633250792261068 0.48440855649916836 -0.16874000610427556
v -0.3363659983145024 -0.13863564078176827 0.09090145368978768
v -0.3363659983145024 -0.13863564078176827 0.09090145368978768
vt 1 0.5
vt 1 1
vt 0.75 1
vt 0.75 0.5
vt 1 1
vt 0.75 1
vt 0.75 0.5
vt 1 0.5
vt 1 0.5
vt 1 1
vt 0.75 1
vt 0.75 0.5
vt 1 1
vt 0.75 1
vt 0.75 0.5
vt 1 0.5
vn 0.8969759955053399 0.3696950420847155 -0.2424038765061002
vn -0.8969759955053399 -0.3696950420847155 0.2424038765061002
vn 0.07338689100003674 0.41619774072677895 0.9063077870366522
vn -0.07338689100003674 -0.41619774072677895 -0.9063077870366522
usemtl m_dab88cfd-e4c5-da2e-cf3c-c232db815ae3
f 99/97/25 97/98/25 101/99/25 103/100/25
f 102/101/26 98/102/26 100/103/26 104/104/26
f 107/105/27 105/106/27 109/107/27 111/108/27
f 110/109/28 106/110/28 108/111/28 112/112/28
o cube
v 0.2202893501479692 0.4724120172078936 -0.6568291164442652
v 0.2202893501479692 0.4724120172078936 -0.6568291164442652
v -0.06697731602164292 -0.14363333642456277 -0.3398654201387445
v -0.06697731602164292 -0.14363333642456277 -0.3398654201387445
v 0.354243982191255 0.7596786900570192 0.022901723833223697
v 0.354243982191255 0.7596786900570192 0.022901723833223697
v 0.06697731602164292 0.14363333642456277 0.3398654201387445
v 0.06697731602164292 0.14363333642456277 0.3398654201387445
v 0.6271320877197988 0.4575635085065436 -0.3169636891433919
v 0.6271320877197988 0.4575635085065436 -0.3169636891433919
v 0.3398654215501867 -0.15848184512591282 7.162128856127343e-9
v 0.3398654215501867 -0.15848184512591282 7.162128856127343e-9
v -0.05259875538057457 0.7745271987583692 -0.3169637034676497
v -0.05259875538057457 0.7745271987583692 -0.3169637034676497
v -0.3398654215501867 0.15848184512591282 -7.162128856127343e-9
v -0.3398654215501867 0.15848184512591282 -7.162128856127343e-9
vt 1 0
vt 1 0.5
vt 0.75 0.5
vt 0.75 0
vt 1 0.5
vt 0.75 0.5
vt 0.75 0
vt 1 0
vt 1 0
vt 1 0.5
vt 0.75 0.5
vt 0.75 0
vt 1 0.5
vt 0.75 0.5
vt 0.75 0
vt 1 0
vn 0.9063077908004981 -0.4226182536691009 1.909901034546913e-8
vn -0.9063077908004981 0.4226182536691009 -1.909901034546913e-8
vn 0.1786061760577145 0.3830222304655006 0.906307787036652
vn -0.1786061760577145 -0.3830222304655006 -0.906307787036652
usemtl m_dab88cfd-e4c5-da2e-cf3c-c232db815ae3
f 115/113/29 113/114/29 117/115/29 119/116/29
f 118/117/30 114/118/30 116/119/30 120/120/30
f 123/121/31 121/122/31 125/123/31 127/124/31
f 126/125/32 122/126/32 124/127/32 128/128/32