# Blender v2.79 (sub 0) OBJ File: ''
# www.blender.org
mtllib grip.mtl
o cube
v 0.031250 -0.015625 -0.031250
v 0.031250 -0.015625 0.031250
v 0.031250 -0.265625 0.031250
v 0.031250 -0.265625 -0.031250
v -0.031250 -0.265625 0.031250
v -0.031250 -0.015625 0.031250
v -0.031250 -0.015625 -0.031250
v -0.031250 -0.265625 -0.031250
v 0.046875 0.000000 -0.046875
v 0.046875 -0.000000 0.046875
v 0.046875 -0.031250 0.046875
v 0.046875 -0.031250 -0.046875
v -0.046875 -0.031250 0.046875
v -0.046875 -0.000000 0.046875
v -0.046875 0.000000 -0.046875
v -0.046875 -0.031250 -0.046875
vt 0.250000 0.562500
vt 0.250000 0.500000
vt 0.500000 0.500000
vt 0.500000 0.562500
vt 0.500000 0.562500
vt 0.250000 0.562500
vt 0.250000 0.500000
vt 0.500000 0.500000
vt 0.312500 0.500000
vt 0.312500 0.562500
vt 0.437500 0.562500
vt 0.437500 0.500000
vt 0.500000 0.500000
vt 0.500000 0.562500
vt 0.500000 0.562500
vt 0.250000 0.562500
vt 0.250000 0.500000
vt 0.250000 0.562500
vt 0.250000 0.500000
vt 0.500000 0.500000
vt 0.062500 0.937500
vt 0.000000 0.937500
vt 0.000000 0.906250
vt 0.062500 0.906250
vt 0.062500 0.906250
vt 0.062500 0.937500
vt 0.000000 0.937500
vt 0.000000 0.906250
vt 0.000000 0.937500
vt 0.062500 0.937500
vt 0.062500 1.000000
vt 0.000000 1.000000
vt 0.062500 0.937500
vt 0.062500 1.000000
vt 0.000000 1.000000
vt 0.000000 0.937500
vt 0.062500 0.906250
vt 0.000000 0.906250
vt 0.062500 0.937500
vt 0.000000 0.937500
vt 0.000000 0.906250
vt 0.062500 0.906250
vn 1.0000 0.0000 0.0000
vn -1.0000 0.0000 0.0000
vn 0.0000 1.0000 0.0000
vn 0.0000 -1.0000 0.0000
vn 0.0000 -0.0000 1.0000
vn 0.0000 0.0000 -1.0000
usemtl m_0
s 1
f 1/1/1 2/2/1 3/3/1 4/4/1
f 5/5/2 6/6/2 7/7/2 8/8/2
f 6/6/3 2/2/3 1/9/3 7/10/3
f 4/11/4 3/12/4 5/13/4 8/14/4
f 3/15/5 2/16/5 6/17/5 5/13/5
f 7/18/6 1/19/6 4/20/6 8/14/6
f 9/21/1 10/22/1 11/23/1 12/24/1
f 13/25/2 14/26/2 15/27/2 16/28/2
f 14/29/3 10/30/3 9/31/3 15/32/3
f 12/33/4 11/34/4 13/35/4 16/36/4
f 11/37/5 10/30/5 14/29/5 13/38/5
f 15/39/6 9/40/6 12/41/6 16/42/6
