# Blender v2.79 (sub 0) OBJ File: ''
# www.blender.org
mtllib indianajoneswhip.mtl
o cube
v 0.031250 -0.125000 -0.031250
v -0.031250 -0.125000 -0.031250
v -0.031250 0.125000 -0.031250
v 0.031250 0.125000 -0.031250
v 0.031250 -0.125000 0.031250
v 0.031250 0.125000 0.031250
v -0.031250 -0.125000 0.031250
v -0.031250 0.125000 0.031250
v 0.287262 0.125000 0.287262
v -0.022097 0.125000 -0.022097
v -0.022097 0.562500 -0.022097
v 0.287262 0.562500 0.287262
v 0.287262 0.125000 0.287262
v 0.287262 0.562500 0.287262
v -0.022097 0.125000 -0.022097
v -0.022097 0.562500 -0.022097
v 0.022097 -0.250000 -0.022097
v 0.022097 -0.250000 -0.022097
v 0.022097 -0.125000 -0.022097
v 0.022097 -0.125000 -0.022097
v -0.022097 -0.250000 0.022097
v -0.022097 -0.125000 0.022097
v -0.022097 -0.250000 0.022097
v -0.022097 -0.125000 0.022097
v -0.022097 -0.250000 -0.022097
v -0.022097 -0.250000 -0.022097
v -0.022097 -0.125000 -0.022097
v -0.022097 -0.125000 -0.022097
v 0.022097 -0.250000 0.022097
v 0.022097 -0.125000 0.022097
v 0.022097 -0.250000 0.022097
v 0.022097 -0.125000 0.022097
vt 0.437500 0.750000
vt 0.500000 0.750000
vt 0.500000 1.000000
vt 0.437500 1.000000
vt 0.437500 0.500000
vt 0.500000 0.500000
vt 0.500000 0.750000
vt 0.437500 0.750000
vt 0.500000 0.750000
vt 0.562500 0.750000
vt 0.562500 1.000000
vt 0.500000 1.000000
vt 0.500000 0.500000
vt 0.562500 0.500000
vt 0.562500 0.750000
vt 0.500000 0.750000
vt 0.625000 1.000000
vt 0.562500 0.937500
vt 0.625000 0.937500
vt 0.625000 0.875000
vt 0.562500 0.875000
vt 0.562500 0.937500
vt 0.625000 0.937500
vt 0.000000 0.562500
vt 0.437500 0.562500
vt 0.437500 1.000000
vt 0.000000 1.000000
vt 0.000000 0.562500
vt 0.000000 1.000000
vt 0.000000 0.125000
vt 0.437500 0.125000
vt 0.437500 0.562500
vt 0.000000 0.562500
vt 0.000000 0.562500
vt 0.000000 0.562500
vt 0.000000 1.000000
vt 0.000000 1.000000
vt 0.437500 1.000000
vt 0.437500 1.000000
vt 0.000000 1.000000
vt 0.000000 1.000000
vt 0.437500 1.000000
vt 0.000000 0.875000
vt 0.000000 0.875000
vt 0.000000 1.000000
vt 0.000000 1.000000
vt 0.437500 0.375000
vt 0.500000 0.375000
vt 0.500000 0.500000
vt 0.437500 0.500000
vt 0.000000 0.875000
vt 0.000000 0.875000
vt 0.000000 1.000000
vt 0.000000 1.000000
vt 0.500000 0.375000
vt 0.562500 0.375000
vt 0.562500 0.500000
vt 0.500000 0.500000
vt 0.000000 0.937500
vt 0.000000 0.937500
vt 0.000000 0.937500
vt 0.000000 0.937500
vt 0.000000 1.000000
vt 0.000000 1.000000
vt 0.000000 0.875000
vt 0.000000 0.875000
vt 0.000000 1.000000
vt 0.000000 1.000000
vt 0.437500 0.375000
vt 0.500000 0.375000
vt 0.500000 0.500000
vt 0.437500 0.500000
vt 0.000000 0.875000
vt 0.000000 0.875000
vt 0.000000 1.000000
vt 0.000000 1.000000
vt 0.500000 0.375000
vt 0.562500 0.375000
vt 0.562500 0.500000
vt 0.500000 0.500000
vt 0.000000 0.937500
vt 0.000000 0.937500
vt 0.000000 0.937500
vt 0.000000 0.937500
vt 0.000000 1.000000
vt 0.000000 1.000000
vn 0.0000 0.0000 -1.0000
vn 1.0000 0.0000 0.0000
vn 0.0000 -0.0000 1.0000
vn -1.0000 0.0000 0.0000
vn 0.0000 1.0000 0.0000
vn 0.0000 -1.0000 0.0000
vn 0.7071 0.0000 -0.7071
vn 0.0000 0.0000 0.7071
vn 0.7071 0.0000 0.7071
vn -0.7071 -0.0000 0.7071
vn 0.0000 0.0000 -0.7071
vn -0.7071 -0.0000 -0.7071
vn -0.0000 1.0000 -0.0001
vn 0.0000 0.0000 -0.0000
vn 0.0000 0.0000 -0.0001
vn 0.0000 -1.0000 -0.0001
usemtl m_31fc9c7f-4fbe-f03a-c80e-925184444a92
s 1
f 1/1/1 2/2/1 3/3/1 4/4/1
f 5/5/2 1/6/2 4/7/2 6/8/2
f 7/9/3 5/10/3 6/11/3 8/12/3
f 2/13/4 7/14/4 8/15/4 3/16/4
f 8/17/5 6/11/5 4/18/5 3/19/5
f 2/20/6 1/21/6 5/22/6 7/23/6
f 9/24/7 10/25/7 11/26/7 12/27/7
f 13/28/8 9/24/9 12/27/8 14/29/9
f 15/30/10 13/31/10 14/32/10 16/33/10
f 10/34/11 15/35/12 16/36/11 11/37/12
f 16/38/13 14/29/14 12/27/5 11/26/15
f 10/39/16 9/40/14 13/41/6 15/42/15
f 17/43/11 18/44/7 19/45/11 20/46/7
f 21/47/9 17/48/9 20/49/9 22/50/9
f 23/51/8 21/52/10 22/53/8 24/54/10
f 18/55/12 23/56/12 24/57/12 19/58/12
f 24/54/14 22/53/5 20/59/15 19/60/13
f 18/61/15 17/62/16 21/63/14 23/64/6
f 25/65/11 26/66/12 27/67/11 28/68/12
f 29/69/7 25/70/7 28/71/7 30/72/7
f 31/73/8 29/74/9 30/75/8 32/76/9
f 26/77/10 31/78/10 32/79/10 27/80/10
f 32/76/14 30/75/5 28/81/15 27/82/13
f 26/83/15 25/84/16 29/85/14 31/86/6
