# Blender v2.79 (sub 0) OBJ File: ''
# www.blender.org
mtllib jerrycan.mtl
o cube
v -0.125000 -0.000000 0.162500
v 0.125000 -0.000000 0.162500
v 0.125000 0.425000 0.162500
v -0.125000 0.425000 0.162500
v -0.125000 -0.000000 -0.212500
v -0.125000 0.425000 -0.212500
v 0.125000 -0.000000 -0.212500
v 0.125000 0.425000 -0.212500
v -0.126563 0.034375 0.218750
v 0.126562 0.034375 0.218750
v 0.126562 0.384375 0.218750
v -0.126563 0.384375 0.218750
v -0.126563 0.034375 -0.231250
v -0.126563 0.384375 -0.231250
v 0.126562 0.034375 -0.231250
v 0.126562 0.384375 -0.231250
v -0.124800 0.000283 -0.212500
v 0.124800 0.000283 -0.212500
v 0.124800 0.035355 -0.177428
v -0.124800 0.035355 -0.177428
v -0.124800 0.035355 -0.247573
v -0.124800 0.070428 -0.212500
v 0.124800 0.035355 -0.247573
v 0.124800 0.070428 -0.212500
v -0.124800 0.000283 0.197855
v 0.124800 0.000283 0.197855
v 0.124800 0.035355 0.232928
v -0.124800 0.035355 0.232928
v -0.124800 0.035355 0.162783
v -0.124800 0.070428 0.197855
v 0.124800 0.035355 0.162783
v 0.124800 0.070428 0.197855
v -0.125000 -0.000000 0.197855
v 0.125000 -0.000000 0.197855
v 0.125000 0.037500 0.197855
v -0.125000 0.037500 0.197855
v -0.125000 -0.000000 0.160355
v -0.125000 0.037500 0.160355
v 0.125000 -0.000000 0.160355
v 0.125000 0.037500 0.160355
v -0.124900 0.344075 0.197855
v 0.124900 0.344075 0.197855
v 0.124900 0.379289 0.233069
v -0.124900 0.379289 0.233069
v -0.124900 0.414644 0.127286
v -0.124900 0.449858 0.162500
v 0.124900 0.414644 0.127286
v 0.124900 0.449858 0.162500
v -0.087500 0.500000 0.112500
v -0.037500 0.500000 0.112500
v -0.037500 0.550000 0.112500
v -0.087500 0.550000 0.112500
v -0.087500 0.500000 -0.137500
v -0.087500 0.550000 -0.137500
v -0.037500 0.500000 -0.137500
v -0.037500 0.550000 -0.137500
v -0.087500 0.434515 0.160335
v -0.037500 0.434515 0.160335
v -0.037500 0.550000 0.112500
v -0.087500 0.550000 0.112500
v -0.087500 0.415381 0.114141
v -0.087500 0.530866 0.066306
v -0.037500 0.415381 0.114141
v -0.037500 0.530866 0.066306
v 0.037500 0.434515 0.160335
v 0.087500 0.434515 0.160335
v 0.087500 0.550000 0.112500
v 0.037500 0.550000 0.112500
v 0.037500 0.415381 0.114141
v 0.037500 0.530866 0.066306
v 0.087500 0.415381 0.114141
v 0.087500 0.530866 0.066306
v 0.037500 0.500000 0.112500
v 0.087500 0.500000 0.112500
v 0.087500 0.550000 0.112500
v 0.037500 0.550000 0.112500
v 0.037500 0.500000 -0.137500
v 0.037500 0.550000 -0.137500
v 0.087500 0.500000 -0.137500
v 0.087500 0.550000 -0.137500
v -0.125000 0.425000 -0.137500
v 0.125000 0.425000 -0.137500
v 0.125000 0.550000 -0.137500
v -0.125000 0.550000 -0.137500
v -0.125000 0.425000 -0.212500
v -0.125000 0.550000 -0.212500
v 0.125000 0.425000 -0.212500
v 0.125000 0.550000 -0.212500
v -0.124800 0.479572 -0.137500
v 0.124800 0.479572 -0.137500
v 0.124800 0.514645 -0.102428
v -0.124800 0.514645 -0.102428
v -0.124800 0.514645 -0.172572
v -0.124800 0.549717 -0.137500
v 0.124800 0.514645 -0.172573
v 0.124800 0.549717 -0.137500
v -0.124800 0.479572 -0.212500
v 0.124800 0.479572 -0.212500
v 0.124800 0.514645 -0.177428
v -0.124800 0.514645 -0.177428
v -0.124800 0.514645 -0.247573
v -0.124800 0.549717 -0.212500
v 0.124800 0.514645 -0.247573
v 0.124800 0.549717 -0.212500
v -0.124900 0.414745 -0.102245
v 0.124900 0.414745 -0.102245
v 0.124900 0.514545 -0.102245
v -0.124900 0.514545 -0.102245
v -0.124900 0.414745 -0.152045
v -0.124900 0.514545 -0.152045
v 0.124900 0.414745 -0.152045
v 0.124900 0.514545 -0.152045
v -0.124900 0.277245 -0.197955
v 0.124900 0.277245 -0.197955
v 0.124900 0.514545 -0.197955
v -0.124900 0.514545 -0.197955
v -0.124900 0.277245 -0.247755
v -0.124900 0.514545 -0.247755
v 0.124900 0.277245 -0.247755
v 0.124900 0.514545 -0.247755
v -0.124900 0.216889 0.233111
v 0.124900 0.216889 0.233111
v 0.124900 0.379189 0.233111
v -0.124900 0.379189 0.233111
v -0.124900 0.216889 0.158311
v -0.124900 0.379189 0.158311
v 0.124900 0.216889 0.158311
v 0.124900 0.379189 0.158311
v -0.124900 0.035455 0.233110
v 0.124900 0.035455 0.233110
v 0.124900 0.222755 0.233110
v -0.124900 0.222755 0.233110
v -0.124900 0.035455 0.158310
v -0.124900 0.222755 0.158310
v 0.124900 0.035455 0.158310
v 0.124900 0.222755 0.158310
v -0.124900 0.035455 -0.197955
v 0.124900 0.035455 -0.197955
v 0.124900 0.285255 -0.197955
v -0.124900 0.285255 -0.197955
v -0.124900 0.035455 -0.247755
v -0.124900 0.285255 -0.247755
v 0.124900 0.035455 -0.247755
v 0.124900 0.285255 -0.247755
v -0.112500 0.050000 -0.199418
v 0.112500 0.050000 -0.199418
v 0.112500 0.100000 -0.199418
v -0.112500 0.100000 -0.199418
v -0.112500 0.050000 -0.249418
v -0.112500 0.100000 -0.249418
v 0.112500 0.050000 -0.249418
v 0.112500 0.100000 -0.249418
v -0.037500 0.388128 0.224372
v 0.037500 0.388128 0.224372
v 0.037500 0.396967 0.233211
v -0.037500 0.396967 0.233211
v -0.037500 0.441161 0.171339
v -0.037500 0.450000 0.180178
v 0.037500 0.441161 0.171339
v 0.037500 0.450000 0.180178
v -0.012500 0.379289 0.233211
v 0.012500 0.379289 0.233211
v 0.012500 0.383708 0.237630
v -0.012500 0.383708 0.237630
v -0.012500 0.388128 0.224372
v -0.012500 0.392547 0.228791
v 0.012500 0.388128 0.224372
v 0.012500 0.392547 0.228791
v -0.012500 0.364959 0.237630
v 0.012500 0.364959 0.237630
v 0.012500 0.383709 0.237630
v -0.012500 0.383709 0.237630
v -0.012500 0.364959 0.231380
v -0.012500 0.383709 0.231380
v 0.012500 0.364959 0.231380
v 0.012500 0.383709 0.231380
v -0.037500 0.294064 0.246025
v 0.037500 0.294064 0.246025
v 0.037500 0.369064 0.246025
v -0.037500 0.369064 0.246025
v -0.037500 0.294064 0.233525
v -0.037500 0.369064 0.233525
v 0.037500 0.294064 0.233525
v 0.037500 0.369064 0.233525
v -0.025000 0.306564 0.258525
v 0.025000 0.306564 0.258525
v 0.025000 0.356564 0.258525
v -0.025000 0.356564 0.258525
v -0.025000 0.306564 0.246025
v -0.025000 0.356564 0.246025
v 0.025000 0.306564 0.246025
v 0.025000 0.356564 0.246025
v -0.025000 0.405806 0.224372
v 0.025000 0.405806 0.224372
v 0.025000 0.441161 0.259727
v -0.025000 0.441161 0.259727
v -0.025000 0.441161 0.189017
v -0.025000 0.476516 0.224372
v 0.025000 0.441161 0.189017
v 0.025000 0.476516 0.224372
v -0.025000 0.468591 0.335894
v 0.025000 0.468591 0.335894
v 0.025000 0.514785 0.316760
v -0.025000 0.514785 0.316760
v -0.025000 0.430323 0.243506
v -0.025000 0.476517 0.224372
v 0.025000 0.430323 0.243506
v 0.025000 0.476517 0.224372
vt 0.031250 0.031250
vt 0.062500 0.031250
vt 0.062500 0.062500
vt 0.031250 0.062500
vt 0.031250 0.031250
vt 0.062500 0.031250
vt 0.062500 0.062500
vt 0.031250 0.062500
vt 0.031250 0.031250
vt 0.062500 0.031250
vt 0.062500 0.062500
vt 0.031250 0.062500
vt 0.031250 0.031250
vt 0.062500 0.031250
vt 0.062500 0.062500
vt 0.031250 0.062500
vt 0.031250 0.031250
vt 0.062500 0.031250
vt 0.062500 0.062500
vt 0.031250 0.062500
vt 0.125000 0.125000
vt 0.156250 0.125000
vt 0.156250 0.156250
vt 0.125000 0.156250
vt 0.000000 0.250000
vt 1.000000 0.250000
vt 1.000000 1.000000
vt 0.000000 1.000000
vt 0.125000 0.125000
vt 0.156250 0.125000
vt 0.156250 0.156250
vt 0.125000 0.156250
vt 0.000000 0.250000
vt 1.000000 0.250000
vt 1.000000 1.000000
vt 0.000000 1.000000
vt 0.125000 0.125000
vt 0.156250 0.125000
vt 0.156250 0.156250
vt 0.125000 0.156250
vt 0.125000 0.125000
vt 0.156250 0.125000
vt 0.156250 0.156250
vt 0.125000 0.156250
vt 0.031250 0.031250
vt 0.062500 0.031250
vt 0.062500 0.062500
vt 0.031250 0.062500
vt 0.031250 0.031250
vt 0.062500 0.031250
vt 0.062500 0.062500
vt 0.031250 0.062500
vt 0.031250 0.031250
vt 0.062500 0.031250
vt 0.062500 0.062500
vt 0.031250 0.062500
vt 0.031250 0.031250
vt 0.062500 0.031250
vt 0.062500 0.062500
vt 0.031250 0.062500
vt 0.031250 0.031250
vt 0.062500 0.031250
vt 0.062500 0.062500
vt 0.031250 0.062500
vt 0.031250 0.031250
vt 0.062500 0.031250
vt 0.062500 0.062500
vt 0.031250 0.062500
vt 0.031250 0.031250
vt 0.062500 0.031250
vt 0.062500 0.062500
vt 0.031250 0.062500
vt 0.031250 0.031250
vt 0.062500 0.031250
vt 0.062500 0.062500
vt 0.031250 0.062500
vt 0.031250 0.031250
vt 0.062500 0.031250
vt 0.062500 0.062500
vt 0.031250 0.062500
vt 0.031250 0.031250
vt 0.062500 0.031250
vt 0.062500 0.062500
vt 0.031250 0.062500
vt 0.031250 0.031250
vt 0.062500 0.031250
vt 0.062500 0.062500
vt 0.031250 0.062500
vt 0.031250 0.031250
vt 0.062500 0.031250
vt 0.062500 0.062500
vt 0.031250 0.062500
vt 0.031250 0.031250
vt 0.062500 0.031250
vt 0.062500 0.062500
vt 0.031250 0.062500
vt 0.031250 0.031250
vt 0.062500 0.031250
vt 0.062500 0.062500
vt 0.031250 0.062500
vt 0.031250 0.031250
vt 0.062500 0.031250
vt 0.062500 0.062500
vt 0.031250 0.062500
vt 0.031250 0.031250
vt 0.062500 0.031250
vt 0.062500 0.062500
vt 0.031250 0.062500
vt 0.031250 0.031250
vt 0.062500 0.031250
vt 0.062500 0.062500
vt 0.031250 0.062500
vt 0.031250 0.031250
vt 0.062500 0.031250
vt 0.062500 0.062500
vt 0.031250 0.062500
vt 0.031250 0.031250
vt 0.062500 0.031250
vt 0.062500 0.062500
vt 0.031250 0.062500
vt 0.031250 0.031250
vt 0.062500 0.031250
vt 0.062500 0.062500
vt 0.031250 0.062500
vt 0.031250 0.031250
vt 0.062500 0.031250
vt 0.062500 0.062500
vt 0.031250 0.062500
vt 0.031250 0.031250
vt 0.062500 0.031250
vt 0.062500 0.062500
vt 0.031250 0.062500
vt 0.031250 0.031250
vt 0.062500 0.031250
vt 0.062500 0.062500
vt 0.031250 0.062500
vt 0.031250 0.031250
vt 0.062500 0.031250
vt 0.062500 0.062500
vt 0.031250 0.062500
vt 0.031250 0.031250
vt 0.062500 0.031250
vt 0.062500 0.062500
vt 0.031250 0.062500
vt 0.062500 0.062500
vt 0.031250 0.062500
vt 0.031250 0.031250
vt 0.062500 0.031250
vt 0.062500 0.031250
vt 0.031250 0.062500
vt 0.031250 0.031250
vt 0.031250 0.031250
vt 0.062500 0.062500
vt 0.031250 0.062500
vt 0.062500 0.031250
vt 0.062500 0.062500
vt 0.031250 0.031250
vt 0.062500 0.031250
vt 0.062500 0.062500
vt 0.031250 0.062500
vt 0.062500 0.062500
vt 0.031250 0.062500
vt 0.031250 0.031250
vt 0.062500 0.031250
vt 0.062500 0.062500
vt 0.031250 0.062500
vt 0.031250 0.031250
vt 0.062500 0.031250
vt 0.062500 0.031250
vt 0.031250 0.062500
vt 0.031250 0.031250
vt 0.031250 0.031250
vt 0.062500 0.062500
vt 0.031250 0.062500
vt 0.062500 0.031250
vt 0.062500 0.062500
vt 0.031250 0.031250
vt 0.062500 0.031250
vt 0.062500 0.062500
vt 0.031250 0.062500
vt 0.062500 0.062500
vt 0.031250 0.062500
vt 0.031250 0.031250
vt 0.062500 0.031250
vt 0.031250 0.031250
vt 0.062500 0.031250
vt 0.062500 0.062500
vt 0.031250 0.062500
vt 0.031250 0.031250
vt 0.062500 0.031250
vt 0.062500 0.062500
vt 0.031250 0.062500
vt 0.031250 0.031250
vt 0.062500 0.031250
vt 0.062500 0.062500
vt 0.031250 0.062500
vt 0.031250 0.031250
vt 0.062500 0.031250
vt 0.062500 0.062500
vt 0.031250 0.062500
vt 0.031250 0.031250
vt 0.062500 0.031250
vt 0.062500 0.062500
vt 0.031250 0.062500
vt 0.031250 0.031250
vt 0.062500 0.031250
vt 0.062500 0.062500
vt 0.031250 0.062500
vt 0.031250 0.031250
vt 0.062500 0.031250
vt 0.062500 0.062500
vt 0.031250 0.062500
vt 0.031250 0.031250
vt 0.062500 0.031250
vt 0.062500 0.062500
vt 0.031250 0.062500
vt 0.031250 0.031250
vt 0.062500 0.031250
vt 0.062500 0.062500
vt 0.031250 0.062500
vt 0.031250 0.031250
vt 0.062500 0.031250
vt 0.062500 0.062500
vt 0.031250 0.062500
vt 0.031250 0.031250
vt 0.062500 0.031250
vt 0.062500 0.062500
vt 0.031250 0.062500
vt 0.031250 0.031250
vt 0.062500 0.031250
vt 0.062500 0.062500
vt 0.031250 0.062500
vt 0.031250 0.031250
vt 0.062500 0.031250
vt 0.062500 0.062500
vt 0.031250 0.062500
vt 0.031250 0.031250
vt 0.062500 0.031250
vt 0.062500 0.062500
vt 0.031250 0.062500
vt 0.031250 0.031250
vt 0.062500 0.031250
vt 0.062500 0.062500
vt 0.031250 0.062500
vt 0.031250 0.031250
vt 0.062500 0.031250
vt 0.062500 0.062500
vt 0.031250 0.062500
vt 0.031250 0.031250
vt 0.062500 0.031250
vt 0.062500 0.062500
vt 0.031250 0.062500
vt 0.031250 0.031250
vt 0.062500 0.031250
vt 0.062500 0.062500
vt 0.031250 0.062500
vt 0.031250 0.031250
vt 0.062500 0.031250
vt 0.062500 0.062500
vt 0.031250 0.062500
vt 0.031250 0.031250
vt 0.062500 0.031250
vt 0.062500 0.062500
vt 0.031250 0.062500
vt 0.031250 0.031250
vt 0.062500 0.031250
vt 0.062500 0.062500
vt 0.031250 0.062500
vt 0.031250 0.031250
vt 0.062500 0.031250
vt 0.062500 0.062500
vt 0.031250 0.062500
vt 0.031250 0.031250
vt 0.062500 0.031250
vt 0.062500 0.062500
vt 0.031250 0.062500
vt 0.031250 0.031250
vt 0.062500 0.031250
vt 0.062500 0.062500
vt 0.031250 0.062500
vt 0.031250 0.031250
vt 0.062500 0.031250
vt 0.062500 0.062500
vt 0.031250 0.062500
vt 0.031250 0.031250
vt 0.062500 0.031250
vt 0.062500 0.062500
vt 0.031250 0.062500
vt 0.031250 0.031250
vt 0.062500 0.031250
vt 0.062500 0.062500
vt 0.031250 0.062500
vt 0.031250 0.031250
vt 0.062500 0.031250
vt 0.062500 0.062500
vt 0.031250 0.062500
vt 0.031250 0.031250
vt 0.062500 0.031250
vt 0.062500 0.062500
vt 0.031250 0.062500
vt 0.031250 0.031250
vt 0.062500 0.031250
vt 0.062500 0.062500
vt 0.031250 0.062500
vt 0.031250 0.031250
vt 0.062500 0.031250
vt 0.062500 0.062500
vt 0.031250 0.062500
vt 0.031250 0.031250
vt 0.062500 0.031250
vt 0.062500 0.062500
vt 0.031250 0.062500
vt 0.031250 0.031250
vt 0.062500 0.031250
vt 0.062500 0.062500
vt 0.031250 0.062500
vt 0.031250 0.031250
vt 0.062500 0.031250
vt 0.062500 0.062500
vt 0.031250 0.062500
vt 0.031250 0.031250
vt 0.062500 0.031250
vt 0.062500 0.062500
vt 0.031250 0.062500
vt 0.031250 0.031250
vt 0.062500 0.031250
vt 0.062500 0.062500
vt 0.031250 0.062500
vt 0.031250 0.031250
vt 0.062500 0.031250
vt 0.062500 0.062500
vt 0.031250 0.062500
vt 0.031250 0.031250
vt 0.062500 0.031250
vt 0.062500 0.062500
vt 0.031250 0.062500
vt 0.031250 0.031250
vt 0.062500 0.031250
vt 0.062500 0.062500
vt 0.031250 0.062500
vt 0.031250 0.031250
vt 0.062500 0.031250
vt 0.062500 0.062500
vt 0.031250 0.062500
vt 0.031250 0.031250
vt 0.062500 0.031250
vt 0.062500 0.062500
vt 0.031250 0.062500
vt 0.031250 0.031250
vt 0.062500 0.031250
vt 0.062500 0.062500
vt 0.031250 0.062500
vt 0.031250 0.031250
vt 0.062500 0.031250
vt 0.062500 0.062500
vt 0.031250 0.062500
vt 0.031250 0.031250
vt 0.062500 0.031250
vt 0.062500 0.062500
vt 0.031250 0.062500
vt 0.031250 0.031250
vt 0.062500 0.031250
vt 0.062500 0.062500
vt 0.031250 0.062500
vt 0.125000 0.125000
vt 0.156250 0.125000
vt 0.156250 0.156250
vt 0.125000 0.156250
vt 0.125000 0.125000
vt 0.156250 0.125000
vt 0.156250 0.156250
vt 0.125000 0.156250
vt 0.187500 0.031250
vt 0.875000 0.031250
vt 0.875000 0.187500
vt 0.187500 0.187500
vt 0.125000 0.125000
vt 0.156250 0.125000
vt 0.156250 0.156250
vt 0.125000 0.156250
vt 0.125000 0.125000
vt 0.156250 0.125000
vt 0.156250 0.156250
vt 0.125000 0.156250
vt 0.125000 0.031250
vt 0.156250 0.031250
vt 0.156250 0.062500
vt 0.125000 0.062500
vt 0.125000 0.031250
vt 0.156250 0.031250
vt 0.156250 0.062500
vt 0.125000 0.062500
vt 0.125000 0.031250
vt 0.156250 0.031250
vt 0.156250 0.062500
vt 0.125000 0.062500
vt 0.125000 0.031250
vt 0.156250 0.031250
vt 0.156250 0.062500
vt 0.125000 0.062500
vt 0.125000 0.031250
vt 0.156250 0.031250
vt 0.156250 0.062500
vt 0.125000 0.062500
vt 0.125000 0.031250
vt 0.156250 0.031250
vt 0.156250 0.062500
vt 0.125000 0.062500
vt 0.125000 0.031250
vt 0.156250 0.031250
vt 0.156250 0.062500
vt 0.125000 0.062500
vt 0.125000 0.031250
vt 0.156250 0.031250
vt 0.156250 0.062500
vt 0.125000 0.062500
vt 0.125000 0.031250
vt 0.156250 0.031250
vt 0.156250 0.062500
vt 0.125000 0.062500
vt 0.125000 0.031250
vt 0.156250 0.031250
vt 0.156250 0.062500
vt 0.125000 0.062500
vt 0.156250 0.062500
vt 0.125000 0.062500
vt 0.125000 0.031250
vt 0.156250 0.031250
vt 0.156250 0.031250
vt 0.125000 0.062500
vt 0.125000 0.031250
vt 0.125000 0.031250
vt 0.156250 0.062500
vt 0.125000 0.062500
vt 0.156250 0.031250
vt 0.156250 0.062500
vt 0.125000 0.031250
vt 0.156250 0.031250
vt 0.156250 0.062500
vt 0.125000 0.062500
vt 0.156250 0.062500
vt 0.125000 0.062500
vt 0.125000 0.031250
vt 0.156250 0.031250
vt 0.156250 0.062500
vt 0.125000 0.062500
vt 0.125000 0.031250
vt 0.156250 0.031250
vt 0.156250 0.031250
vt 0.125000 0.062500
vt 0.125000 0.031250
vt 0.125000 0.031250
vt 0.156250 0.062500
vt 0.125000 0.062500
vt 0.156250 0.031250
vt 0.156250 0.062500
vt 0.125000 0.031250
vt 0.156250 0.031250
vt 0.156250 0.062500
vt 0.125000 0.062500
vt 0.156250 0.062500
vt 0.125000 0.062500
vt 0.125000 0.031250
vt 0.156250 0.031250
vt 0.156250 0.062500
vt 0.125000 0.062500
vt 0.125000 0.031250
vt 0.156250 0.031250
vt 0.156250 0.031250
vt 0.125000 0.062500
vt 0.125000 0.031250
vt 0.125000 0.031250
vt 0.156250 0.062500
vt 0.125000 0.062500
vt 0.156250 0.031250
vt 0.156250 0.062500
vt 0.125000 0.031250
vt 0.156250 0.031250
vt 0.156250 0.062500
vt 0.125000 0.062500
vt 0.156250 0.062500
vt 0.125000 0.062500
vt 0.125000 0.031250
vt 0.156250 0.031250
vt 0.031250 0.125000
vt 0.062500 0.125000
vt 0.062500 0.156250
vt 0.031250 0.156250
vt 0.031250 0.125000
vt 0.062500 0.125000
vt 0.062500 0.156250
vt 0.031250 0.156250
vt 0.031250 0.125000
vt 0.062500 0.125000
vt 0.062500 0.156250
vt 0.031250 0.156250
vt 0.031250 0.125000
vt 0.062500 0.125000
vt 0.062500 0.156250
vt 0.031250 0.156250
vt 0.031250 0.125000
vt 0.062500 0.125000
vt 0.062500 0.156250
vt 0.031250 0.156250
vt 0.875000 0.000000
vt 1.000000 0.000000
vt 1.000000 0.125000
vt 0.875000 0.125000
vt 0.031250 0.125000
vt 0.062500 0.125000
vt 0.062500 0.156250
vt 0.031250 0.156250
vt 0.031250 0.125000
vt 0.062500 0.125000
vt 0.062500 0.156250
vt 0.031250 0.156250
vt 0.031250 0.125000
vt 0.062500 0.125000
vt 0.062500 0.156250
vt 0.031250 0.156250
vt 0.031250 0.125000
vt 0.062500 0.125000
vt 0.062500 0.156250
vt 0.031250 0.156250
vn 0.0000 0.0000 1.0000
vn -1.0000 0.0000 0.0000
vn -0.0000 -0.0000 -1.0000
vn 1.0000 0.0000 -0.0000
vn -0.0000 1.0000 -0.0000
vn 0.0000 -1.0000 0.0000
vn 0.0000 -0.7071 0.7071
vn -0.0000 0.7071 -0.7071
vn 0.0000 0.7071 0.7071
vn -0.0000 -0.7071 -0.7071
vn 0.0000 0.3827 0.9239
vn -0.0000 -0.3827 -0.9239
vn -0.0000 0.9239 -0.3827
vn 0.0000 -0.9239 0.3827
usemtl m_126cd22a-ab44-e4ec-4889-79c798ea3540
s 1
f 1/1/1 2/2/1 3/3/1 4/4/1
f 5/5/2 1/6/2 4/7/2 6/8/2
f 7/9/3 5/10/3 6/11/3 8/12/3
f 2/13/4 7/14/4 8/15/4 3/16/4
f 8/17/5 6/18/5 4/7/5 3/16/5
f 2/13/6 1/6/6 5/19/6 7/20/6
f 9/21/1 10/22/1 11/23/1 12/24/1
f 13/25/2 9/26/2 12/27/2 14/28/2
f 15/29/3 13/30/3 14/31/3 16/32/3
f 10/33/4 15/34/4 16/35/4 11/36/4
f 16/37/5 14/38/5 12/39/5 11/40/5
f 10/41/6 9/42/6 13/43/6 15/44/6
f 17/45/7 18/46/7 19/47/7 20/48/7
f 21/49/2 17/50/2 20/51/2 22/52/2
f 23/53/8 21/54/8 22/55/8 24/56/8
f 18/57/4 23/58/4 24/59/4 19/60/4
f 24/61/9 22/62/9 20/51/9 19/60/9
f 18/57/10 17/50/10 21/63/10 23/64/10
f 25/65/7 26/66/7 27/67/7 28/68/7
f 29/69/2 25/70/2 28/71/2 30/72/2
f 31/73/8 29/74/8 30/75/8 32/76/8
f 26/77/4 31/78/4 32/79/4 27/80/4
f 32/81/9 30/82/9 28/71/9 27/80/9
f 26/77/10 25/70/10 29/83/10 31/84/10
f 33/85/1 34/86/1 35/87/1 36/88/1
f 37/89/2 33/90/2 36/91/2 38/92/2
f 39/93/3 37/94/3 38/95/3 40/96/3
f 34/97/4 39/98/4 40/99/4 35/100/4
f 40/101/5 38/102/5 36/91/5 35/100/5
f 34/97/6 33/90/6 37/103/6 39/104/6
f 41/105/7 42/106/7 43/107/7 44/108/7
f 45/109/2 41/110/2 44/111/2 46/112/2
f 47/113/8 45/114/8 46/115/8 48/116/8
f 42/117/4 47/118/4 48/119/4 43/120/4
f 48/121/9 46/122/9 44/111/9 43/120/9
f 42/117/10 41/110/10 45/123/10 47/124/10
f 49/125/1 50/126/1 51/127/1 52/128/1
f 53/129/2 49/130/2 52/131/2 54/132/2
f 55/133/3 53/134/3 54/135/3 56/136/3
f 50/137/4 55/138/4 56/139/4 51/140/4
f 56/141/5 54/142/5 52/131/5 51/140/5
f 50/137/6 49/130/6 53/143/6 55/144/6
f 57/145/11 58/146/11 59/147/11 60/148/11
f 61/149/2 57/145/2 60/150/2 62/151/2
f 63/152/12 61/149/12 62/153/12 64/154/12
f 58/146/4 63/152/4 64/155/4 59/156/4
f 64/157/13 62/158/13 60/159/13 59/160/13
f 58/161/14 57/162/14 61/163/14 63/164/14
f 65/165/11 66/166/11 67/167/11 68/168/11
f 69/169/2 65/165/2 68/170/2 70/171/2
f 71/172/12 69/169/12 70/173/12 72/174/12
f 66/166/4 71/172/4 72/175/4 67/176/4
f 72/177/13 70/178/13 68/179/13 67/180/13
f 66/181/14 65/182/14 69/183/14 71/184/14
f 73/185/1 74/186/1 75/187/1 76/188/1
f 77/189/2 73/190/2 76/191/2 78/192/2
f 79/193/3 77/194/3 78/195/3 80/196/3
f 74/197/4 79/198/4 80/199/4 75/200/4
f 80/201/5 78/202/5 76/191/5 75/200/5
f 74/197/6 73/190/6 77/203/6 79/204/6
f 81/205/1 82/206/1 83/207/1 84/208/1
f 85/209/2 81/210/2 84/211/2 86/212/2
f 87/213/3 85/214/3 86/215/3 88/216/3
f 82/217/4 87/218/4 88/219/4 83/220/4
f 88/221/5 86/222/5 84/211/5 83/220/5
f 82/217/6 81/210/6 85/223/6 87/224/6
f 89/225/7 90/226/7 91/227/7 92/228/7
f 93/229/2 89/230/2 92/231/2 94/232/2
f 95/233/8 93/234/8 94/235/8 96/236/8
f 90/237/4 95/238/4 96/239/4 91/240/4
f 96/241/9 94/242/9 92/231/9 91/240/9
f 90/237/10 89/230/10 93/243/10 95/244/10
f 97/245/7 98/246/7 99/247/7 100/248/7
f 101/249/2 97/250/2 100/251/2 102/252/2
f 103/253/8 101/254/8 102/255/8 104/256/8
f 98/257/4 103/258/4 104/259/4 99/260/4
f 104/261/9 102/262/9 100/251/9 99/260/9
f 98/257/10 97/250/10 101/263/10 103/264/10
f 105/265/1 106/266/1 107/267/1 108/268/1
f 109/269/2 105/270/2 108/271/2 110/272/2
f 111/273/3 109/274/3 110/275/3 112/276/3
f 106/277/4 111/278/4 112/279/4 107/280/4
f 112/281/5 110/282/5 108/271/5 107/280/5
f 106/277/6 105/270/6 109/283/6 111/284/6
f 113/285/1 114/286/1 115/287/1 116/288/1
f 117/289/2 113/290/2 116/291/2 118/292/2
f 119/293/3 117/294/3 118/295/3 120/296/3
f 114/297/4 119/298/4 120/299/4 115/300/4
f 120/301/5 118/302/5 116/291/5 115/300/5
f 114/297/6 113/290/6 117/303/6 119/304/6
f 121/305/1 122/306/1 123/307/1 124/308/1
f 125/309/2 121/310/2 124/311/2 126/312/2
f 127/313/3 125/314/3 126/315/3 128/316/3
f 122/317/4 127/318/4 128/319/4 123/320/4
f 128/321/5 126/322/5 124/311/5 123/320/5
f 122/317/6 121/310/6 125/323/6 127/324/6
f 129/325/1 130/326/1 131/327/1 132/328/1
f 133/329/2 129/330/2 132/331/2 134/332/2
f 135/333/3 133/334/3 134/335/3 136/336/3
f 130/337/4 135/338/4 136/339/4 131/340/4
f 136/341/5 134/342/5 132/331/5 131/340/5
f 130/337/6 129/330/6 133/343/6 135/344/6
f 137/345/1 138/346/1 139/347/1 140/348/1
f 141/349/2 137/350/2 140/351/2 142/352/2
f 143/353/3 141/354/3 142/355/3 144/356/3
f 138/357/4 143/358/4 144/359/4 139/360/4
f 144/361/5 142/362/5 140/351/5 139/360/5
f 138/357/6 137/350/6 141/363/6 143/364/6
f 145/365/1 146/366/1 147/367/1 148/368/1
f 149/369/2 145/370/2 148/371/2 150/372/2
f 151/373/3 149/374/3 150/375/3 152/376/3
f 146/377/4 151/378/4 152/379/4 147/380/4
f 152/381/5 150/382/5 148/371/5 147/380/5
f 146/377/6 145/370/6 149/383/6 151/384/6
f 153/385/7 154/386/7 155/387/7 156/388/7
f 157/389/2 153/390/2 156/391/2 158/392/2
f 159/393/8 157/394/8 158/395/8 160/396/8
f 154/397/4 159/398/4 160/399/4 155/400/4
f 160/401/9 158/402/9 156/391/9 155/400/9
f 154/397/10 153/390/10 157/403/10 159/404/10
f 161/405/7 162/406/7 163/407/7 164/408/7
f 165/409/2 161/410/2 164/411/2 166/412/2
f 167/413/8 165/414/8 166/415/8 168/416/8
f 162/417/4 167/418/4 168/419/4 163/420/4
f 168/421/9 166/422/9 164/411/9 163/420/9
f 162/417/10 161/410/10 165/423/10 167/424/10
f 169/425/1 170/426/1 171/427/1 172/428/1
f 173/429/2 169/425/2 172/430/2 174/431/2
f 175/432/3 173/429/3 174/433/3 176/434/3
f 170/426/4 175/432/4 176/435/4 171/436/4
f 176/437/5 174/438/5 172/439/5 171/440/5
f 170/441/6 169/442/6 173/443/6 175/444/6
f 177/445/1 178/446/1 179/447/1 180/448/1
f 181/449/2 177/445/2 180/450/2 182/451/2
f 183/452/3 181/449/3 182/453/3 184/454/3
f 178/446/4 183/452/4 184/455/4 179/456/4
f 184/457/5 182/458/5 180/459/5 179/460/5
f 178/461/6 177/462/6 181/463/6 183/464/6
f 185/465/1 186/466/1 187/467/1 188/468/1
f 189/469/2 185/465/2 188/470/2 190/471/2
f 191/472/3 189/469/3 190/473/3 192/474/3
f 186/466/4 191/472/4 192/475/4 187/476/4
f 192/477/5 190/478/5 188/479/5 187/480/5
f 186/481/6 185/482/6 189/483/6 191/484/6
f 193/485/7 194/486/7 195/487/7 196/488/7
f 197/489/2 193/490/2 196/491/2 198/492/2
f 199/493/8 197/494/8 198/495/8 200/496/8
f 194/497/4 199/498/4 200/499/4 195/500/4
f 200/501/9 198/502/9 196/491/9 195/500/9
f 194/497/10 193/490/10 197/503/10 199/504/10
f 201/505/11 202/506/11 203/507/11 204/508/11
f 205/509/2 201/510/2 204/511/2 206/512/2
f 207/513/12 205/514/12 206/515/12 208/516/12
f 202/517/4 207/518/4 208/519/4 203/520/4
f 208/521/13 206/522/13 204/511/13 203/520/13
f 202/517/14 201/510/14 205/523/14 207/524/14
