# Blender v2.79 (sub 0) OBJ File: ''
# www.blender.org
mtllib levelstats.mtl
o lvl_bar_full_3_translucent
v 0.562500 0.703125 0.001953
v 0.562500 0.796875 0.001953
v -0.328125 0.796875 0.001953
v -0.328125 0.703125 0.001953
vt 0.500000 0.250000
vt 0.500000 0.500000
vt 0.000000 0.500000
vt 0.000000 0.250000
vn 0.0000 -0.0000 1.0000
usemtl m_5e6b694b-ab7b-7a9f-c289-54b08772fe00
s 1
f 1/1/1 2/2/1 3/3/1 4/4/1
o lvl_bar_empty_1_translucent
v 0.562500 0.984375 0.001953
v 0.562500 1.078125 0.001953
v -0.328125 1.078125 0.001953
v -0.328125 0.984375 0.001953
vt 1.000000 0.250000
vt 1.000000 0.500000
vt 0.500000 0.500000
vt 0.500000 0.250000
vn 0.0000 -0.0000 1.0000
usemtl m_5e6b694b-ab7b-7a9f-c289-54b08772fe00
s 1
f 5/5/2 6/6/2 7/7/2 8/8/2
o lvl_bar_empty_2_translucent
v 0.562500 0.843750 0.001953
v 0.562500 0.937500 0.001953
v -0.328125 0.937500 0.001953
v -0.328125 0.843750 0.001953
vt 1.000000 0.250000
vt 1.000000 0.500000
vt 0.500000 0.500000
vt 0.500000 0.250000
vn 0.0000 -0.0000 1.0000
usemtl m_5e6b694b-ab7b-7a9f-c289-54b08772fe00
s 1
f 9/9/3 10/10/3 11/11/3 12/12/3
o lvl_bar_full_2_translucent
v 0.562500 0.843750 0.001953
v 0.562500 0.937500 0.001953
v -0.328125 0.937500 0.001953
v -0.328125 0.843750 0.001953
vt 0.500000 0.250000
vt 0.500000 0.500000
vt 0.000000 0.500000
vt 0.000000 0.250000
vn 0.0000 -0.0000 1.0000
usemtl m_5e6b694b-ab7b-7a9f-c289-54b08772fe00
s 1
f 13/13/4 14/14/4 15/15/4 16/16/4
o cuboid_translucent
v 0.750000 0.000000 0.000000
v 0.750000 1.500000 0.000000
v -0.750000 1.500000 0.000000
v -0.750000 0.000000 0.000000
v -0.750000 1.500000 0.000000
v 0.750000 1.500000 0.000000
v 0.750000 0.000000 0.000000
v -0.750000 0.000000 0.000000
vt 1.000000 0.500000
vt 1.000000 1.000000
vt 0.000000 1.000000
vt 0.000000 0.500000
vt 0.000000 1.000000
vt 1.000000 1.000000
vt 1.000000 0.500000
vt 0.000000 0.500000
vn 0.0000 -0.0000 1.0000
vn 0.0000 0.0000 -1.0000
usemtl m_5e6b694b-ab7b-7a9f-c289-54b08772fe00
s 1
f 17/17/5 18/18/5 19/19/5 20/20/5
f 21/21/6 22/22/6 23/23/6 24/24/6
o lvl_bar_full_1_translucent
v 0.562500 0.984375 0.001953
v 0.562500 1.078125 0.001953
v -0.328125 1.078125 0.001953
v -0.328125 0.984375 0.001953
vt 0.500000 0.250000
vt 0.500000 0.500000
vt 0.000000 0.500000
vt 0.000000 0.250000
vn 0.0000 -0.0000 1.0000
usemtl m_5e6b694b-ab7b-7a9f-c289-54b08772fe00
s 1
f 25/25/7 26/26/7 27/27/7 28/28/7
o lvl_bar_full_4_translucent
v 0.562500 0.562500 0.001953
v 0.562500 0.656250 0.001953
v -0.328125 0.656250 0.001953
v -0.328125 0.562500 0.001953
vt 0.500000 0.250000
vt 0.500000 0.500000
vt 0.000000 0.500000
vt 0.000000 0.250000
vn 0.0000 -0.0000 1.0000
usemtl m_5e6b694b-ab7b-7a9f-c289-54b08772fe00
s 1
f 29/29/8 30/30/8 31/31/8 32/32/8
o lvl_bar_empty_4_translucent
v 0.562500 0.562500 0.001953
v 0.562500 0.656250 0.001953
v -0.328125 0.656250 0.001953
v -0.328125 0.562500 0.001953
vt 1.000000 0.250000
vt 1.000000 0.500000
vt 0.500000 0.500000
vt 0.500000 0.250000
vn 0.0000 -0.0000 1.0000
usemtl m_5e6b694b-ab7b-7a9f-c289-54b08772fe00
s 1
f 33/33/9 34/34/9 35/35/9 36/36/9
o lvl_bar_empty_3_translucent
v 0.562500 0.703125 0.001953
v 0.562500 0.796875 0.001953
v -0.328125 0.796875 0.001953
v -0.328125 0.703125 0.001953
vt 1.000000 0.250000
vt 1.000000 0.500000
vt 0.500000 0.500000
vt 0.500000 0.250000
vn 0.0000 -0.0000 1.0000
usemtl m_5e6b694b-ab7b-7a9f-c289-54b08772fe00
s 1
f 37/37/10 38/38/10 39/39/10 40/40/10
