# Blender v2.79 (sub 0) OBJ File: ''
# www.blender.org
mtllib lighter.mtl
o lid
v -0.062500 0.062500 0.031250
v 0.062500 0.062500 0.031250
v 0.062500 0.125000 0.031250
v -0.062500 0.125000 0.031250
v -0.062500 0.062500 -0.031250
v -0.062500 0.125000 -0.031250
v 0.062500 0.062500 -0.031250
v 0.062500 0.125000 -0.031250
v -0.078125 0.054688 0.007813
v -0.062500 0.054688 0.007813
v -0.062500 0.070312 0.007813
v -0.078125 0.070312 0.007813
v -0.078125 0.054688 -0.007812
v -0.078125 0.070312 -0.007812
v -0.062500 0.054688 -0.007812
v -0.062500 0.070312 -0.007812
vt 0.125000 0.875000
vt 0.250000 0.875000
vt 0.250000 0.937500
vt 0.125000 0.937500
vt 0.125000 0.875000
vt 0.187500 0.875000
vt 0.187500 0.937500
vt 0.125000 0.937500
vt 0.125000 0.875000
vt 0.250000 0.875000
vt 0.250000 0.937500
vt 0.125000 0.937500
vt 0.187500 0.875000
vt 0.250000 0.875000
vt 0.250000 0.937500
vt 0.187500 0.937500
vt 0.125000 0.875000
vt 0.250000 0.875000
vt 0.250000 0.937500
vt 0.125000 0.937500
vt 0.125000 0.875000
vt 0.250000 0.875000
vt 0.250000 0.937500
vt 0.125000 0.937500
vt 0.250000 0.937500
vt 0.281250 0.937500
vt 0.281250 0.968750
vt 0.250000 0.968750
vt 0.250000 0.937500
vt 0.281250 0.937500
vt 0.281250 0.968750
vt 0.250000 0.968750
vt 0.250000 0.937500
vt 0.281250 0.937500
vt 0.281250 0.968750
vt 0.250000 0.968750
vt 0.250000 0.937500
vt 0.281250 0.937500
vt 0.281250 0.968750
vt 0.250000 0.968750
vt 0.250000 0.937500
vt 0.281250 0.937500
vt 0.281250 0.968750
vt 0.250000 0.968750
vn 0.0000 0.0000 1.0000
vn -1.0000 0.0000 0.0000
vn -0.0000 -0.0000 -1.0000
vn 1.0000 0.0000 -0.0000
vn 0.0000 1.0000 0.0000
vn 0.0000 -1.0000 0.0000
usemtl m_c9fc5b43-634d-a0a9-9718-7ff6f66c6fca
s 1
f 1/1/1 2/2/1 3/3/1 4/4/1
f 5/5/2 1/6/2 4/7/2 6/8/2
f 7/9/3 5/10/3 6/11/3 8/12/3
f 2/13/4 7/14/4 8/15/4 3/16/4
f 8/17/5 6/18/5 4/19/5 3/20/5
f 2/21/6 1/22/6 5/23/6 7/24/6
f 9/25/1 10/26/1 11/27/1 12/28/1
f 13/29/2 9/30/2 12/31/2 14/32/2
f 15/33/3 13/34/3 14/35/3 16/36/3
f 10/37/4 15/38/4 16/39/4 11/40/4
f 16/41/5 14/42/5 12/31/5 11/40/5
f 10/37/6 9/30/6 13/43/6 15/44/6
o cube
v -0.062500 -0.062500 0.031250
v 0.062500 -0.062500 0.031250
v 0.062500 0.062500 0.031250
v -0.062500 0.062500 0.031250
v -0.062500 -0.062500 -0.031250
v -0.062500 0.062500 -0.031250
v 0.062500 -0.062500 -0.031250
v 0.062500 0.062500 -0.031250
v -0.078125 0.054688 0.023438
v -0.062500 0.054688 0.023438
v -0.062500 0.070312 0.023438
v -0.078125 0.070312 0.023438
v -0.078125 0.054688 0.007813
v -0.078125 0.070312 0.007813
v -0.062500 0.054688 0.007813
v -0.062500 0.070312 0.007813
v -0.078125 0.054688 -0.007812
v -0.062500 0.054688 -0.007812
v -0.062500 0.070312 -0.007812
v -0.078125 0.070312 -0.007812
v -0.078125 0.054688 -0.023437
v -0.078125 0.070312 -0.023437
v -0.062500 0.054688 -0.023437
v -0.062500 0.070312 -0.023437
v 0.058906 -0.058906 -0.031563
v -0.058906 -0.058906 -0.031562
v -0.058906 0.058906 -0.031562
v 0.058906 0.058906 -0.031563
v -0.031250 0.062500 0.015625
v 0.031250 0.062500 0.015625
v 0.031250 0.093750 0.015625
v -0.031250 0.093750 0.015625
v -0.031250 0.062500 -0.015625
v -0.031250 0.093750 -0.015625
v 0.031250 0.062500 -0.015625
v 0.031250 0.093750 -0.015625
vt 0.000000 0.875000
vt 0.125000 0.875000
vt 0.125000 1.000000
vt 0.000000 1.000000
vt 0.062500 0.875000
vt 0.125000 0.875000
vt 0.125000 1.000000
vt 0.062500 1.000000
vt 0.000000 0.875000
vt 0.125000 0.875000
vt 0.125000 1.000000
vt 0.000000 1.000000
vt 0.000000 0.875000
vt 0.062500 0.875000
vt 0.062500 1.000000
vt 0.000000 1.000000
vt 0.125000 0.937500
vt 0.250000 0.937500
vt 0.250000 1.000000
vt 0.250000 0.875000
vt 0.250000 0.937500
vt 0.125000 0.937500
vt 0.250000 0.906250
vt 0.281250 0.906250
vt 0.281250 0.937500
vt 0.250000 0.937500
vt 0.250000 0.906250
vt 0.281250 0.906250
vt 0.281250 0.937500
vt 0.250000 0.937500
vt 0.250000 0.906250
vt 0.281250 0.906250
vt 0.281250 0.937500
vt 0.250000 0.937500
vt 0.250000 0.906250
vt 0.281250 0.906250
vt 0.281250 0.937500
vt 0.250000 0.937500
vt 0.250000 0.906250
vt 0.281250 0.906250
vt 0.281250 0.937500
vt 0.250000 0.937500
vt 0.250000 0.968750
vt 0.281250 0.968750
vt 0.281250 1.000000
vt 0.250000 1.000000
vt 0.250000 0.968750
vt 0.281250 0.968750
vt 0.281250 1.000000
vt 0.250000 1.000000
vt 0.250000 0.968750
vt 0.281250 0.968750
vt 0.281250 1.000000
vt 0.250000 1.000000
vt 0.250000 0.968750
vt 0.281250 0.968750
vt 0.281250 1.000000
vt 0.250000 1.000000
vt 0.250000 0.968750
vt 0.281250 0.968750
vt 0.281250 1.000000
vt 0.250000 1.000000
vt 0.156250 0.000000
vt 1.000000 0.000000
vt 1.000000 0.843750
vt 0.156250 0.843750
vt 0.281250 0.937500
vt 0.406250 0.937500
vt 0.406250 1.000000
vt 0.281250 1.000000
vt 0.312500 0.937500
vt 0.375000 0.937500
vt 0.375000 1.000000
vt 0.312500 1.000000
vt 0.281250 0.937500
vt 0.406250 0.937500
vt 0.406250 1.000000
vt 0.281250 1.000000
vt 0.312500 0.937500
vt 0.375000 0.937500
vt 0.375000 1.000000
vt 0.312500 1.000000
vt 0.281250 0.937500
vt 0.406250 0.937500
vt 0.406250 1.000000
vt 0.281250 1.000000
vt 0.281250 0.937500
vt 0.406250 0.937500
vt 0.406250 1.000000
vt 0.281250 1.000000
vn 0.0000 0.0000 1.0000
vn -1.0000 0.0000 0.0000
vn -0.0000 -0.0000 -1.0000
vn 1.0000 -0.0000 -0.0000
vn 0.0000 1.0000 0.0000
vn 0.0000 -1.0000 0.0000
usemtl m_c9fc5b43-634d-a0a9-9718-7ff6f66c6fca
s 1
f 17/45/7 18/46/7 19/47/7 20/48/7
f 21/49/8 17/50/8 20/51/8 22/52/8
f 23/53/9 21/54/9 22/55/9 24/56/9
f 18/57/10 23/58/10 24/59/10 19/60/10
f 24/61/11 22/62/11 20/63/11 19/47/11
f 18/46/12 17/64/12 21/65/12 23/66/12
f 25/67/7 26/68/7 27/69/7 28/70/7
f 29/71/8 25/72/8 28/73/8 30/74/8
f 31/75/9 29/76/9 30/77/9 32/78/9
f 26/79/10 31/80/10 32/81/10 27/82/10
f 32/83/11 30/84/11 28/73/11 27/82/11
f 26/79/12 25/72/12 29/85/12 31/86/12
f 33/87/7 34/88/7 35/89/7 36/90/7
f 37/91/8 33/92/8 36/93/8 38/94/8
f 39/95/9 37/96/9 38/97/9 40/98/9
f 34/99/10 39/100/10 40/101/10 35/102/10
f 40/103/11 38/104/11 36/93/11 35/102/11
f 34/99/12 33/92/12 37/105/12 39/106/12
f 41/107/9 42/108/9 43/109/9 44/110/9
f 45/111/7 46/112/7 47/113/7 48/114/7
f 49/115/8 45/116/8 48/117/8 50/118/8
f 51/119/9 49/120/9 50/121/9 52/122/9
f 46/123/10 51/124/10 52/125/10 47/126/10
f 52/127/11 50/128/11 48/129/11 47/130/11
f 46/131/12 45/132/12 49/133/12 51/134/12
