# Blender v2.79 (sub 0) OBJ File: ''
# www.blender.org
mtllib mymovie.mtl
o glow
v -0.061523 0.124023 0.061523
v -0.061523 0.124023 -0.061523
v -0.061523 0.045898 -0.061523
v -0.061523 0.045898 0.061523
v 0.061523 0.045898 -0.061523
v 0.061523 0.124023 -0.061523
v 0.061523 0.124023 0.061523
v 0.061523 0.045898 0.061523
vt 0.250000 1.000000
vt 0.000000 1.000000
vt 0.000000 0.687500
vt 0.250000 0.687500
vt 0.250000 0.687500
vt 0.250000 1.000000
vt 0.000000 1.000000
vt 0.000000 0.687500
vt 0.000000 0.687500
vt 0.250000 0.687500
vt 0.250000 1.000000
vt 0.000000 1.000000
vt 0.250000 0.687500
vt 0.250000 1.000000
vt 0.000000 1.000000
vt 0.000000 0.687500
vt 0.250000 1.000000
vt 0.000000 1.000000
vt 0.000000 0.687500
vt 0.250000 0.687500
vn -1.0000 0.0000 0.0000
vn 1.0000 -0.0000 -0.0000
vn 0.0000 1.0000 0.0000
vn 0.0000 -1.0000 0.0000
vn -0.0000 -0.0000 -1.0000
vn 0.0000 0.0000 1.0000
usemtl m_d3208ce2-af27-11ab-b4e5-18935a448313
s 1
f 1/1/1 2/2/1 3/3/1 4/4/1
f 5/5/2 6/6/2 7/7/2 8/8/2
f 6/9/3 2/10/3 1/1/3 7/7/3
f 4/4/4 3/11/4 5/12/4 8/8/4
f 3/13/5 2/14/5 6/15/5 5/16/5
f 7/17/6 1/18/6 4/19/6 8/20/6
o cube
v -0.062500 0.125000 0.062500
v -0.062500 0.125000 -0.062500
v -0.062500 -0.000000 -0.062500
v -0.062500 0.000000 0.062500
v 0.062500 -0.000000 -0.062500
v 0.062500 0.125000 -0.062500
v 0.062500 0.125000 0.062500
v 0.062500 0.000000 0.062500
v -0.061523 0.045898 0.061523
v -0.061523 0.045898 -0.061523
v -0.061523 0.000977 -0.061523
v -0.061523 0.000977 0.061523
v 0.061523 0.000977 -0.061523
v 0.061523 0.045898 -0.061523
v 0.061523 0.045898 0.061523
v 0.061523 0.000977 0.061523
vt 0.750000 0.500000
vt 0.500000 0.500000
vt 0.500000 0.000000
vt 0.750000 0.000000
vt 0.250000 0.000000
vt 0.250000 0.500000
vt 0.000000 0.500000
vt 0.000000 0.000000
vt 0.500000 1.000000
vt 0.250000 1.000000
vt 0.750000 0.500000
vt 0.750000 1.000000
vt 0.500000 1.000000
vt 0.500000 0.500000
vt 1.000000 0.500000
vt 1.000000 0.000000
vt 0.250000 0.687500
vt 0.000000 0.687500
vt 0.000000 0.500000
vt 0.250000 0.500000
vt 0.250000 0.500000
vt 0.250000 0.687500
vt 0.000000 0.687500
vt 0.000000 0.500000
vt 0.000000 0.500000
vt 0.250000 0.500000
vt 0.250000 0.687500
vt 0.000000 0.687500
vt 0.250000 0.500000
vt 0.250000 0.687500
vt 0.000000 0.687500
vt 0.000000 0.500000
vt 0.250000 0.687500
vt 0.000000 0.687500
vt 0.000000 0.500000
vt 0.250000 0.500000
vn -1.0000 0.0000 0.0000
vn 1.0000 -0.0000 -0.0000
vn 0.0000 1.0000 0.0000
vn 0.0000 -1.0000 0.0000
vn -0.0000 -0.0000 -1.0000
vn 0.0000 0.0000 1.0000
usemtl m_d3208ce2-af27-11ab-b4e5-18935a448313
s 1
f 9/21/7 10/22/7 11/23/7 12/24/7
f 13/25/8 14/26/8 15/27/8 16/28/8
f 14/26/9 10/22/9 9/29/9 15/30/9
f 12/31/10 11/32/10 13/33/10 16/34/10
f 11/23/11 10/22/11 14/26/11 13/25/11
f 15/35/12 9/21/12 12/24/12 16/36/12
f 17/37/7 18/38/7 19/39/7 20/40/7
f 21/41/8 22/42/8 23/43/8 24/44/8
f 22/45/9 18/46/9 17/37/9 23/43/9
f 20/40/10 19/47/10 21/48/10 24/44/10
f 19/49/11 18/50/11 22/51/11 21/52/11
f 23/53/12 17/54/12 20/55/12 24/56/12
