# Blender v2.79 (sub 0) OBJ File: ''
# www.blender.org
mtllib ocarro_bumperfront.mtl
o $Bumper_Front
v -1.312500 0.078109 0.031250
v -1.312500 0.078109 0.187500
v -0.687500 0.078109 0.187500
v -0.687500 0.078109 0.031250
v -0.687500 -0.078141 0.031250
v -0.687500 -0.078141 0.187500
v -1.312500 -0.078141 0.187500
v -1.312500 -0.078141 0.031250
v -1.312500 -0.000016 0.218750
v -1.312500 -0.000016 0.031250
v -0.687500 -0.000016 0.031250
v -0.687500 -0.000016 0.218750
v -0.687500 0.078109 0.031250
v -0.687500 0.078109 0.187500
v -0.375000 0.078109 0.187500
v -0.375000 0.078109 0.031250
v -0.375000 -0.078141 0.031250
v -0.375000 -0.078141 0.187500
v -0.687500 -0.078141 0.187500
v -0.687500 -0.078141 0.031250
v -0.687500 -0.000016 0.218750
v -0.687500 -0.000016 0.031250
v -0.375000 -0.000016 0.031250
v -0.375000 -0.000016 0.218750
v -1.468750 0.078109 -0.218750
v -1.468750 0.078109 0.062500
v -1.312500 0.078109 0.187500
v -1.312500 0.078109 -0.343750
v -1.312500 -0.078141 -0.343750
v -1.312500 -0.078141 0.187500
v -1.468750 -0.078141 0.062500
v -1.468750 -0.078141 -0.218750
v -1.468750 -0.000016 0.093750
v -1.468750 -0.000016 -0.218750
v -1.312500 -0.000016 -0.343750
v -1.312500 -0.000016 0.218750
v -0.375000 0.218734 0.031250
v -0.375000 0.218734 0.125000
v -0.312500 0.218734 0.125000
v -0.312500 0.218734 0.031250
v -0.312500 -0.390641 0.031250
v -0.312500 -0.453141 0.125000
v -0.375000 -0.453141 0.125000
v -0.375000 -0.390641 0.031250
v -0.312500 0.156234 0.218750
v -0.375000 0.156234 0.218750
v -0.375000 -0.390641 0.218750
v -0.312500 -0.390641 0.218750
v 0.312500 0.218734 0.031250
v 0.312500 0.218734 0.125000
v 0.375000 0.218734 0.125000
v 0.375000 0.218734 0.031250
v 0.375000 -0.390641 0.031250
v 0.375000 -0.453141 0.125000
v 0.312500 -0.453141 0.125000
v 0.312500 -0.390641 0.031250
v 0.375000 0.156234 0.218750
v 0.312500 0.156234 0.218750
v 0.312500 -0.390641 0.218750
v 0.375000 -0.390641 0.218750
v 0.687500 0.078109 0.187500
v 1.312500 0.078109 0.187500
v 1.312500 0.078109 0.031250
v 0.687500 0.078109 0.031250
v 1.312500 -0.078141 0.187500
v 0.687500 -0.078141 0.187500
v 0.687500 -0.078141 0.031250
v 1.312500 -0.078141 0.031250
v 1.312500 -0.000016 0.031250
v 1.312500 -0.000016 0.218750
v 0.687500 -0.000016 0.218750
v 0.687500 -0.000016 0.031250
v 0.375000 0.078109 0.187500
v 0.687500 0.078109 0.187500
v 0.687500 0.078109 0.031250
v 0.375000 0.078109 0.031250
v 0.687500 -0.078141 0.187500
v 0.375000 -0.078141 0.187500
v 0.375000 -0.078141 0.031250
v 0.687500 -0.078141 0.031250
v 0.687500 -0.000016 0.031250
v 0.687500 -0.000016 0.218750
v 0.375000 -0.000016 0.218750
v 0.375000 -0.000016 0.031250
v 1.312500 0.078109 0.187500
v 1.468750 0.078109 0.062500
v 1.468750 0.078109 -0.218750
v 1.312500 0.078109 -0.343750
v 1.468750 -0.078141 0.062500
v 1.312500 -0.078141 0.187500
v 1.312500 -0.078141 -0.343750
v 1.468750 -0.078141 -0.218750
v 1.468750 -0.000016 -0.218750
v 1.468750 -0.000016 0.093750
v 1.312500 -0.000016 0.218750
v 1.312500 -0.000016 -0.343750
v -1.312500 -0.187516 0.031250
v -1.312500 -0.187516 0.187500
v -0.687500 -0.187516 0.187500
v -0.687500 -0.187516 0.031250
v -0.687500 -0.343766 0.031250
v -0.687500 -0.343766 0.187500
v -1.312500 -0.343766 0.187500
v -1.312500 -0.343766 0.031250
v -1.312500 -0.265641 0.218750
v -1.312500 -0.265641 0.031250
v -0.687500 -0.265641 0.031250
v -0.687500 -0.265641 0.218750
v -0.687500 -0.187516 0.031250
v -0.687500 -0.187516 0.187500
v 0.000000 -0.187516 0.187500
v 0.000000 -0.187516 0.031250
v 0.000000 -0.343766 0.031250
v 0.000000 -0.343766 0.187500
v -0.687500 -0.343766 0.187500
v -0.687500 -0.343766 0.031250
v -0.687500 -0.265641 0.218750
v -0.687500 -0.265641 0.031250
v 0.000000 -0.265641 0.031250
v 0.000000 -0.265641 0.218750
v -1.468750 -0.187516 -0.218750
v -1.468750 -0.187516 0.062500
v -1.312500 -0.187516 0.187500
v -1.312500 -0.187516 -0.343750
v -1.312500 -0.343766 -0.343750
v -1.312500 -0.343766 0.187500
v -1.468750 -0.343766 0.062500
v -1.468750 -0.343766 -0.218750
v -1.468750 -0.265641 0.093750
v -1.468750 -0.265641 -0.218750
v -1.312500 -0.265641 -0.343750
v -1.312500 -0.265641 0.218750
v 0.687500 -0.187516 0.187500
v 1.312500 -0.187516 0.187500
v 1.312500 -0.187516 0.031250
v 0.687500 -0.187516 0.031250
v 1.312500 -0.343766 0.187500
v 0.687500 -0.343766 0.187500
v 0.687500 -0.343766 0.031250
v 1.312500 -0.343766 0.031250
v 1.312500 -0.265641 0.031250
v 1.312500 -0.265641 0.218750
v 0.687500 -0.265641 0.218750
v 0.687500 -0.265641 0.031250
v 0.000000 -0.187516 0.187500
v 0.687500 -0.187516 0.187500
v 0.687500 -0.187516 0.031250
v 0.000000 -0.187516 0.031250
v 0.687500 -0.343766 0.187500
v 0.000000 -0.343766 0.187500
v 0.000000 -0.343766 0.031250
v 0.687500 -0.343766 0.031250
v 0.687500 -0.265641 0.031250
v 0.687500 -0.265641 0.218750
v 0.000000 -0.265641 0.218750
v 0.000000 -0.265641 0.031250
v 1.312500 -0.187516 0.187500
v 1.468750 -0.187516 0.062500
v 1.468750 -0.187516 -0.218750
v 1.312500 -0.187516 -0.343750
v 1.468750 -0.343766 0.062500
v 1.312500 -0.343766 0.187500
v 1.312500 -0.343766 -0.343750
v 1.468750 -0.343766 -0.218750
v 1.468750 -0.265641 -0.218750
v 1.468750 -0.265641 0.093750
v 1.312500 -0.265641 0.218750
v 1.312500 -0.265641 -0.343750
v 0.375000 -0.070329 0.093750
v 0.812500 -0.070329 0.093750
v 0.812500 -0.070329 0.031250
v 0.375000 -0.070329 0.031250
v 0.812500 -0.195329 0.093750
v 0.375000 -0.195329 0.093750
v 0.375000 -0.195329 0.031250
v 0.812500 -0.195329 0.031250
v 0.812500 -0.132829 0.031250
v 0.812500 -0.132829 0.125000
v 0.375000 -0.132829 0.125000
v 0.375000 -0.132829 0.031250
v -0.812500 -0.070329 0.093750
v -0.375000 -0.070329 0.093750
v -0.375000 -0.070329 0.031250
v -0.812500 -0.070329 0.031250
v -0.375000 -0.195329 0.093750
v -0.812500 -0.195329 0.093750
v -0.812500 -0.195329 0.031250
v -0.375000 -0.195329 0.031250
v -0.375000 -0.132829 0.031250
v -0.375000 -0.132829 0.125000
v -0.812500 -0.132829 0.125000
v -0.812500 -0.132829 0.031250
vt 0.457031 0.964844
vt 0.460938 0.964844
vt 0.460938 0.982422
vt 0.457031 0.982422
vt 0.460938 0.964844
vt 0.464844 0.964844
vt 0.464844 0.982422
vt 0.460938 0.982422
vt 0.460938 0.960938
vt 0.460938 0.962891
vt 0.457031 0.962891
vt 0.457031 0.960938
vt 0.482422 0.960938
vt 0.482422 0.962891
vt 0.478516 0.962891
vt 0.478516 0.960938
vt 0.439453 0.962891
vt 0.439453 0.960938
vt 0.226562 0.914062
vt 0.230469 0.914062
vt 0.230469 0.935547
vt 0.226562 0.935547
vt 0.230469 0.914062
vt 0.234375 0.914062
vt 0.234375 0.935547
vt 0.230469 0.935547
vt 0.230469 0.910156
vt 0.230469 0.912109
vt 0.226562 0.912109
vt 0.226562 0.910156
vt 0.255859 0.910156
vt 0.255859 0.912109
vt 0.251953 0.912109
vt 0.251953 0.910156
vt 0.205078 0.912109
vt 0.205078 0.910156
vt 0.724609 0.947266
vt 0.734375 0.947266
vt 0.734375 0.951172
vt 0.724609 0.951172
vt 0.734375 0.947266
vt 0.744141 0.947266
vt 0.744141 0.951172
vt 0.734375 0.951172
vt 0.734375 0.943359
vt 0.734375 0.945312
vt 0.724609 0.945312
vt 0.724609 0.943359
vt 0.748047 0.943359
vt 0.748047 0.945312
vt 0.738281 0.945312
vt 0.738281 0.943359
vt 0.720703 0.945312
vt 0.720703 0.943359
vt 0.478516 0.964844
vt 0.482422 0.964844
vt 0.439453 0.964844
vt 0.251953 0.914062
vt 0.255859 0.914062
vt 0.205078 0.914062
vt 0.738281 0.947266
vt 0.748047 0.947266
vt 0.720703 0.947266
vt 0.226562 0.914062
vt 0.228516 0.914062
vt 0.228516 0.935547
vt 0.226562 0.935547
vt 0.230469 0.914062
vt 0.232422 0.914062
vt 0.232422 0.935547
vt 0.230469 0.935547
vt 0.226562 0.910156
vt 0.228516 0.910156
vt 0.255859 0.914062
vt 0.253906 0.914062
vt 0.253906 0.910156
vt 0.255859 0.910156
vt 0.251953 0.914062
vt 0.230469 0.914062
vt 0.230469 0.910156
vt 0.251953 0.910156
vt 0.205078 0.914062
vt 0.205078 0.910156
vt 0.289062 0.898438
vt 0.291016 0.898438
vt 0.291016 0.919922
vt 0.289062 0.919922
vt 0.292969 0.898438
vt 0.294922 0.898438
vt 0.294922 0.919922
vt 0.292969 0.919922
vt 0.289062 0.894531
vt 0.291016 0.894531
vt 0.318359 0.898438
vt 0.316406 0.898438
vt 0.316406 0.894531
vt 0.318359 0.894531
vt 0.314453 0.898438
vt 0.292969 0.898438
vt 0.292969 0.894531
vt 0.314453 0.894531
vt 0.267578 0.898438
vt 0.267578 0.894531
vt 0.234375 0.935547
vt 0.234375 0.914062
vt 0.230469 0.935547
vt 0.296875 0.919922
vt 0.296875 0.898438
vt 0.292969 0.919922
vt 0.460938 0.982422
vt 0.460938 0.964844
vt 0.457031 0.964844
vt 0.457031 0.982422
vt 0.464844 0.982422
vt 0.464844 0.964844
vt 0.460938 0.964844
vt 0.460938 0.982422
vt 0.457031 0.962891
vt 0.460938 0.962891
vt 0.460938 0.960938
vt 0.457031 0.960938
vt 0.478516 0.962891
vt 0.482422 0.962891
vt 0.482422 0.960938
vt 0.478516 0.960938
vt 0.439453 0.962891
vt 0.439453 0.960938
vt 0.230469 0.935547
vt 0.230469 0.914062
vt 0.226562 0.914062
vt 0.226562 0.935547
vt 0.234375 0.935547
vt 0.234375 0.914062
vt 0.230469 0.914062
vt 0.230469 0.935547
vt 0.226562 0.912109
vt 0.230469 0.912109
vt 0.230469 0.910156
vt 0.226562 0.910156
vt 0.251953 0.912109
vt 0.255859 0.912109
vt 0.255859 0.910156
vt 0.251953 0.910156
vt 0.205078 0.912109
vt 0.205078 0.910156
vt 0.734375 0.951172
vt 0.734375 0.947266
vt 0.724609 0.947266
vt 0.724609 0.951172
vt 0.744141 0.951172
vt 0.744141 0.947266
vt 0.734375 0.947266
vt 0.734375 0.951172
vt 0.724609 0.945312
vt 0.734375 0.945312
vt 0.734375 0.943359
vt 0.724609 0.943359
vt 0.738281 0.945312
vt 0.748047 0.945312
vt 0.748047 0.943359
vt 0.738281 0.943359
vt 0.720703 0.945312
vt 0.720703 0.943359
vt 0.478516 0.964844
vt 0.482422 0.964844
vt 0.439453 0.964844
vt 0.251953 0.914062
vt 0.255859 0.914062
vt 0.205078 0.914062
vt 0.738281 0.947266
vt 0.748047 0.947266
vt 0.720703 0.947266
vt 0.457031 0.964844
vt 0.460938 0.964844
vt 0.460938 0.982422
vt 0.457031 0.982422
vt 0.460938 0.964844
vt 0.464844 0.964844
vt 0.464844 0.982422
vt 0.460938 0.982422
vt 0.460938 0.960938
vt 0.460938 0.962891
vt 0.457031 0.962891
vt 0.457031 0.960938
vt 0.482422 0.960938
vt 0.482422 0.962891
vt 0.478516 0.962891
vt 0.478516 0.960938
vt 0.439453 0.962891
vt 0.439453 0.960938
vt 0.226562 0.914062
vt 0.230469 0.914062
vt 0.230469 0.935547
vt 0.226562 0.935547
vt 0.230469 0.914062
vt 0.234375 0.914062
vt 0.234375 0.935547
vt 0.230469 0.935547
vt 0.230469 0.910156
vt 0.230469 0.912109
vt 0.226562 0.912109
vt 0.226562 0.910156
vt 0.255859 0.910156
vt 0.255859 0.912109
vt 0.251953 0.912109
vt 0.251953 0.910156
vt 0.205078 0.912109
vt 0.205078 0.910156
vt 0.724609 0.947266
vt 0.734375 0.947266
vt 0.734375 0.951172
vt 0.724609 0.951172
vt 0.734375 0.947266
vt 0.744141 0.947266
vt 0.744141 0.951172
vt 0.734375 0.951172
vt 0.734375 0.943359
vt 0.734375 0.945312
vt 0.724609 0.945312
vt 0.724609 0.943359
vt 0.748047 0.943359
vt 0.748047 0.945312
vt 0.738281 0.945312
vt 0.738281 0.943359
vt 0.720703 0.945312
vt 0.720703 0.943359
vt 0.478516 0.964844
vt 0.482422 0.964844
vt 0.439453 0.964844
vt 0.251953 0.914062
vt 0.255859 0.914062
vt 0.205078 0.914062
vt 0.738281 0.947266
vt 0.748047 0.947266
vt 0.720703 0.947266
vt 0.460938 0.982422
vt 0.460938 0.964844
vt 0.457031 0.964844
vt 0.457031 0.982422
vt 0.464844 0.982422
vt 0.464844 0.964844
vt 0.460938 0.964844
vt 0.460938 0.982422
vt 0.457031 0.962891
vt 0.460938 0.962891
vt 0.460938 0.960938
vt 0.457031 0.960938
vt 0.478516 0.962891
vt 0.482422 0.962891
vt 0.482422 0.960938
vt 0.478516 0.960938
vt 0.439453 0.962891
vt 0.439453 0.960938
vt 0.230469 0.935547
vt 0.230469 0.914062
vt 0.226562 0.914062
vt 0.226562 0.935547
vt 0.234375 0.935547
vt 0.234375 0.914062
vt 0.230469 0.914062
vt 0.230469 0.935547
vt 0.226562 0.912109
vt 0.230469 0.912109
vt 0.230469 0.910156
vt 0.226562 0.910156
vt 0.251953 0.912109
vt 0.255859 0.912109
vt 0.255859 0.910156
vt 0.251953 0.910156
vt 0.205078 0.912109
vt 0.205078 0.910156
vt 0.734375 0.951172
vt 0.734375 0.947266
vt 0.724609 0.947266
vt 0.724609 0.951172
vt 0.744141 0.951172
vt 0.744141 0.947266
vt 0.734375 0.947266
vt 0.734375 0.951172
vt 0.724609 0.945312
vt 0.734375 0.945312
vt 0.734375 0.943359
vt 0.724609 0.943359
vt 0.738281 0.945312
vt 0.748047 0.945312
vt 0.748047 0.943359
vt 0.738281 0.943359
vt 0.720703 0.945312
vt 0.720703 0.943359
vt 0.478516 0.964844
vt 0.482422 0.964844
vt 0.439453 0.964844
vt 0.251953 0.914062
vt 0.255859 0.914062
vt 0.205078 0.914062
vt 0.738281 0.947266
vt 0.748047 0.947266
vt 0.720703 0.947266
vt 0.230469 0.935547
vt 0.230469 0.914062
vt 0.226562 0.914062
vt 0.226562 0.935547
vt 0.234375 0.935547
vt 0.234375 0.914062
vt 0.230469 0.914062
vt 0.230469 0.935547
vt 0.226562 0.912109
vt 0.230469 0.912109
vt 0.230469 0.910156
vt 0.226562 0.910156
vt 0.251953 0.912109
vt 0.255859 0.912109
vt 0.255859 0.910156
vt 0.251953 0.910156
vt 0.205078 0.912109
vt 0.205078 0.910156
vt 0.251953 0.914062
vt 0.255859 0.914062
vt 0.205078 0.914062
vt 0.230469 0.935547
vt 0.230469 0.914062
vt 0.226562 0.914062
vt 0.226562 0.935547
vt 0.234375 0.935547
vt 0.234375 0.914062
vt 0.230469 0.914062
vt 0.230469 0.935547
vt 0.226562 0.912109
vt 0.230469 0.912109
vt 0.230469 0.910156
vt 0.226562 0.910156
vt 0.251953 0.912109
vt 0.255859 0.912109
vt 0.255859 0.910156
vt 0.251953 0.910156
vt 0.205078 0.912109
vt 0.205078 0.910156
vt 0.251953 0.914062
vt 0.255859 0.914062
vt 0.205078 0.914062
vn 0.0000 1.0000 0.0000
vn 0.0000 -1.0000 -0.0000
vn -1.0000 0.0000 0.0000
vn 1.0000 0.0000 0.0000
vn 0.0000 -0.3714 0.9285
vn 0.0000 0.0000 -1.0000
vn -0.5963 -0.2981 0.7454
vn -0.6247 0.0000 -0.7809
vn 0.0000 0.3714 0.9285
vn -0.5963 0.2981 0.7454
vn 0.0000 -0.8321 -0.5547
vn 0.0000 0.0000 1.0000
vn 0.0000 -0.8321 0.5547
vn 0.0000 0.8321 0.5547
vn 0.5963 -0.2981 0.7454
vn 0.6247 0.0000 -0.7809
vn 0.5963 0.2981 0.7454
usemtl m_e1a68180-ca0d-339d-c787-1f84aa5a9e0a
s 1
f 1/1/1 2/2/1 3/3/1 4/4/1
f 5/5/2 6/6/2 7/7/2 8/8/2
f 7/9/3 9/10/3 10/11/3 8/12/3
f 5/13/4 11/14/4 12/15/4 6/16/4
f 6/16/5 12/15/5 9/10/5 7/9/5
f 8/12/6 10/11/6 11/17/6 5/18/6
f 13/19/1 14/20/1 15/21/1 16/22/1
f 17/23/2 18/24/2 19/25/2 20/26/2
f 19/27/3 21/28/3 22/29/3 20/30/3
f 17/31/4 23/32/4 24/33/4 18/34/4
f 18/34/5 24/33/5 21/28/5 19/27/5
f 20/30/6 22/29/6 23/35/6 17/36/6
f 25/37/1 26/38/1 27/39/1 28/40/1
f 29/41/2 30/42/2 31/43/2 32/44/2
f 31/45/3 33/46/3 34/47/3 32/48/3
f 29/49/4 35/50/4 36/51/4 30/52/4
f 30/52/7 36/51/7 33/46/7 31/45/7
f 32/48/8 34/47/8 35/53/8 29/54/8
f 2/2/9 9/10/9 12/15/9 3/55/9
f 3/55/4 12/15/4 11/14/4 4/56/4
f 4/57/6 11/17/6 10/11/6 1/1/6
f 1/1/3 10/11/3 9/10/3 2/2/3
f 14/20/9 21/28/9 24/33/9 15/58/9
f 15/58/4 24/33/4 23/32/4 16/59/4
f 16/60/6 23/35/6 22/29/6 13/19/6
f 13/19/3 22/29/3 21/28/3 14/20/3
f 26/38/10 33/46/10 36/51/10 27/61/10
f 27/61/4 36/51/4 35/50/4 28/62/4
f 28/63/8 35/53/8 34/47/8 25/37/8
f 25/37/3 34/47/3 33/46/3 26/38/3
f 37/64/1 38/65/1 39/66/1 40/67/1
f 41/68/11 42/69/11 43/70/11 44/71/11
f 44/72/3 43/73/3 38/65/3 37/64/3
f 40/74/4 39/75/4 42/76/4 41/77/4
f 45/78/12 46/79/12 47/80/12 48/81/12
f 37/64/6 40/82/6 41/83/6 44/72/6
f 49/84/1 50/85/1 51/86/1 52/87/1
f 53/88/11 54/89/11 55/90/11 56/91/11
f 56/92/3 55/93/3 50/85/3 49/84/3
f 52/94/4 51/95/4 54/96/4 53/97/4
f 57/98/12 58/99/12 59/100/12 60/101/12
f 49/84/6 52/102/6 53/103/6 56/92/6
f 46/79/3 38/65/3 43/73/3 47/80/3
f 47/104/13 43/70/13 42/69/13 48/105/13
f 48/81/4 42/76/4 39/75/4 45/78/4
f 45/106/14 39/66/14 38/65/14 46/79/14
f 58/99/3 50/85/3 55/93/3 59/100/3
f 59/107/13 55/90/13 54/89/13 60/108/13
f 60/101/4 54/96/4 51/95/4 57/98/4
f 57/109/14 51/86/14 50/85/14 58/99/14
f 61/110/1 62/111/1 63/112/1 64/113/1
f 65/114/2 66/115/2 67/116/2 68/117/2
f 69/118/4 70/119/4 65/120/4 68/121/4
f 71/122/3 72/123/3 67/124/3 66/125/3
f 70/119/5 71/122/5 66/125/5 65/120/5
f 72/126/6 69/118/6 68/121/6 67/127/6
f 73/128/1 74/129/1 75/130/1 76/131/1
f 77/132/2 78/133/2 79/134/2 80/135/2
f 81/136/4 82/137/4 77/138/4 80/139/4
f 83/140/3 84/141/3 79/142/3 78/143/3
f 82/137/5 83/140/5 78/143/5 77/138/5
f 84/144/6 81/136/6 80/139/6 79/145/6
f 85/146/1 86/147/1 87/148/1 88/149/1
f 89/150/2 90/151/2 91/152/2 92/153/2
f 93/154/4 94/155/4 89/156/4 92/157/4
f 95/158/3 96/159/3 91/160/3 90/161/3
f 94/155/15 95/158/15 90/161/15 89/156/15
f 96/162/16 93/154/16 92/157/16 91/163/16
f 71/122/9 70/119/9 62/111/9 61/164/9
f 72/123/3 71/122/3 61/164/3 64/165/3
f 69/118/6 72/126/6 64/166/6 63/112/6
f 70/119/4 69/118/4 63/112/4 62/111/4
f 83/140/9 82/137/9 74/129/9 73/167/9
f 84/141/3 83/140/3 73/167/3 76/168/3
f 81/136/6 84/144/6 76/169/6 75/130/6
f 82/137/4 81/136/4 75/130/4 74/129/4
f 95/158/17 94/155/17 86/147/17 85/170/17
f 96/159/3 95/158/3 85/170/3 88/171/3
f 93/154/16 96/162/16 88/172/16 87/148/16
f 94/155/4 93/154/4 87/148/4 86/147/4
f 97/173/1 98/174/1 99/175/1 100/176/1
f 101/177/2 102/178/2 103/179/2 104/180/2
f 103/181/3 105/182/3 106/183/3 104/184/3
f 101/185/4 107/186/4 108/187/4 102/188/4
f 102/188/5 108/187/5 105/182/5 103/181/5
f 104/184/6 106/183/6 107/189/6 101/190/6
f 109/191/1 110/192/1 111/193/1 112/194/1
f 113/195/2 114/196/2 115/197/2 116/198/2
f 115/199/3 117/200/3 118/201/3 116/202/3
f 113/203/4 119/204/4 120/205/4 114/206/4
f 114/206/5 120/205/5 117/200/5 115/199/5
f 116/202/6 118/201/6 119/207/6 113/208/6
f 121/209/1 122/210/1 123/211/1 124/212/1
f 125/213/2 126/214/2 127/215/2 128/216/2
f 127/217/3 129/218/3 130/219/3 128/220/3
f 125/221/4 131/222/4 132/223/4 126/224/4
f 126/224/7 132/223/7 129/218/7 127/217/7
f 128/220/8 130/219/8 131/225/8 125/226/8
f 98/174/9 105/182/9 108/187/9 99/227/9
f 99/227/4 108/187/4 107/186/4 100/228/4
f 100/229/6 107/189/6 106/183/6 97/173/6
f 97/173/3 106/183/3 105/182/3 98/174/3
f 110/192/9 117/200/9 120/205/9 111/230/9
f 111/230/4 120/205/4 119/204/4 112/231/4
f 112/232/6 119/207/6 118/201/6 109/191/6
f 109/191/3 118/201/3 117/200/3 110/192/3
f 122/210/10 129/218/10 132/223/10 123/233/10
f 123/233/4 132/223/4 131/222/4 124/234/4
f 124/235/8 131/225/8 130/219/8 121/209/8
f 121/209/3 130/219/3 129/218/3 122/210/3
f 133/236/1 134/237/1 135/238/1 136/239/1
f 137/240/2 138/241/2 139/242/2 140/243/2
f 141/244/4 142/245/4 137/246/4 140/247/4
f 143/248/3 144/249/3 139/250/3 138/251/3
f 142/245/5 143/248/5 138/251/5 137/246/5
f 144/252/6 141/244/6 140/247/6 139/253/6
f 145/254/1 146/255/1 147/256/1 148/257/1
f 149/258/2 150/259/2 151/260/2 152/261/2
f 153/262/4 154/263/4 149/264/4 152/265/4
f 155/266/3 156/267/3 151/268/3 150/269/3
f 154/263/5 155/266/5 150/269/5 149/264/5
f 156/270/6 153/262/6 152/265/6 151/271/6
f 157/272/1 158/273/1 159/274/1 160/275/1
f 161/276/2 162/277/2 163/278/2 164/279/2
f 165/280/4 166/281/4 161/282/4 164/283/4
f 167/284/3 168/285/3 163/286/3 162/287/3
f 166/281/15 167/284/15 162/287/15 161/282/15
f 168/288/16 165/280/16 164/283/16 163/289/16
f 143/248/9 142/245/9 134/237/9 133/290/9
f 144/249/3 143/248/3 133/290/3 136/291/3
f 141/244/6 144/252/6 136/292/6 135/238/6
f 142/245/4 141/244/4 135/238/4 134/237/4
f 155/266/9 154/263/9 146/255/9 145/293/9
f 156/267/3 155/266/3 145/293/3 148/294/3
f 153/262/6 156/270/6 148/295/6 147/256/6
f 154/263/4 153/262/4 147/256/4 146/255/4
f 167/284/17 166/281/17 158/273/17 157/296/17
f 168/285/3 167/284/3 157/296/3 160/297/3
f 165/280/16 168/288/16 160/298/16 159/274/16
f 166/281/4 165/280/4 159/274/4 158/273/4
f 169/299/1 170/300/1 171/301/1 172/302/1
f 173/303/2 174/304/2 175/305/2 176/306/2
f 177/307/4 178/308/4 173/309/4 176/310/4
f 179/311/3 180/312/3 175/313/3 174/314/3
f 180/315/6 177/307/6 176/310/6 175/316/6
f 180/312/3 179/311/3 169/317/3 172/318/3
f 177/307/6 180/315/6 172/319/6 171/301/6
f 178/308/4 177/307/4 171/301/4 170/300/4
f 181/320/1 182/321/1 183/322/1 184/323/1
f 185/324/2 186/325/2 187/326/2 188/327/2
f 189/328/4 190/329/4 185/330/4 188/331/4
f 191/332/3 192/333/3 187/334/3 186/335/3
f 192/336/6 189/328/6 188/331/6 187/337/6
f 192/333/3 191/332/3 181/338/3 184/339/3
f 189/328/6 192/336/6 184/340/6 183/322/6
f 190/329/4 189/328/4 183/322/4 182/321/4
o &LightTurnRightFront
v -0.812500 -0.132829 0.125000
v -0.812500 -0.195329 0.093750
v -0.375000 -0.195329 0.093750
v -0.375000 -0.132829 0.125000
v -0.812500 -0.070329 0.093750
v -0.375000 -0.070329 0.093750
vt 0.009766 0.947266
vt 0.005859 0.947266
vt 0.005859 0.937500
vt 0.009766 0.937500
vt 0.013672 0.947266
vt 0.013672 0.937500
vn 0.0000 -0.4472 0.8944
vn 0.0000 0.4472 0.8944
usemtl m_e1a68180-ca0d-339d-c787-1f84aa5a9e0a
s 1
f 193/341/18 194/342/18 195/343/18 196/344/18
f 197/345/19 193/341/19 196/344/19 198/346/19
o &LightTurnLeftFront
v 0.375000 -0.070329 0.093750
v 0.375000 -0.132829 0.125000
v 0.812500 -0.132829 0.125000
v 0.812500 -0.070329 0.093750
v 0.375000 -0.195329 0.093750
v 0.812500 -0.195329 0.093750
vt 0.689453 0.884766
vt 0.685547 0.884766
vt 0.685547 0.875000
vt 0.689453 0.875000
vt 0.681641 0.884766
vt 0.681641 0.875000
vn 0.0000 0.4472 0.8944
vn 0.0000 -0.4472 0.8944
usemtl m_e1a68180-ca0d-339d-c787-1f84aa5a9e0a
s 1
f 199/347/20 200/348/20 201/349/20 202/350/20
f 200/348/21 203/351/21 204/352/21 201/349/21
