# Blender v2.78 (sub 0) OBJ File: ''
# www.blender.org
mtllib or_extension.mtl
o axle
v 1.312521 -2.158238 0.110592
v 1.312521 -2.379565 0.110592
v 1.600246 -2.158238 0.110592
v 1.600246 -2.379565 0.110592
v 1.600246 -2.158238 -0.110734
v 1.600246 -2.379565 -0.110734
v 1.312521 -2.158238 -0.110734
v 1.312521 -2.379565 -0.110734
v 1.511715 -2.136106 0.132725
v 1.511715 -2.401698 0.132725
v 1.578113 -2.136106 0.132725
v 1.578113 -2.401698 0.132725
v 1.578113 -2.136106 -0.132867
v 1.578113 -2.401698 -0.132867
v 1.511715 -2.136106 -0.132867
v 1.511715 -2.401698 -0.132867
vt 0.0625 0.9375
vt 0.1250 0.9375
vt 0.1250 1.0000
vt 0.0625 1.0000
vt 0.0625 0.9375
vt 0.1250 0.9375
vt 0.1250 1.0000
vt 0.0625 1.0000
vt 0.0625 0.9375
vt 0.1250 0.9375
vt 0.1250 1.0000
vt 0.0625 1.0000
vt 0.1250 0.9375
vt 0.1250 1.0000
vt 0.0625 1.0000
vt 0.0625 0.9375
vt 0.1250 0.9375
vt 0.1250 1.0000
vt 0.1250 0.9375
vt 0.1250 1.0000
vt 0.0625 1.0000
vt 0.0625 0.9375
vt 0.1250 0.9375
vt 0.1250 1.0000
vt 0.0625 1.0000
vt 0.0625 0.9375
vt 0.0625 1.0000
vt 0.0625 0.9375
vt 0.1250 1.0000
vt 0.0625 1.0000
vt 0.0625 0.9375
vt 0.1250 0.9375
vt 0.1250 1.0000
vt 0.0625 1.0000
vt 0.0625 0.9375
vt 0.1250 0.9375
vt 0.0625 0.9375
vt 0.1250 0.9375
vt 0.1250 1.0000
vt 0.0625 1.0000
vn 0.0000 1.0000 0.0000
vn 0.0000 -1.0000 0.0000
vn -1.0000 0.0000 0.0000
vn -0.0000 0.0000 -1.0000
vn 1.0000 0.0000 0.0000
vn 0.0000 0.0000 1.0000
usemtl m_0
s 1
f 15/1/1 9/2/1 11/3/1 13/4/1
f 6/5/2 4/6/2 2/7/2 8/8/2
f 8/9/3 2/10/3 1/11/3 7/12/3
f 6/5/4 8/13/4 7/14/4 5/15/4
f 14/16/4 16/17/4 15/18/4 13/4/4
f 14/16/2 12/19/2 10/20/2 16/21/2
f 12/22/5 14/23/5 13/24/5 11/25/5
f 10/26/6 12/19/6 11/3/6 9/27/6
f 2/28/6 4/6/6 3/29/6 1/30/6
f 4/31/5 6/32/5 5/33/5 3/34/5
f 7/35/1 1/36/1 3/29/1 5/15/1
f 16/37/3 10/38/3 9/39/3 15/40/3
o cube
v 0.420272 -1.929968 0.176990
v 0.420272 -2.195560 0.176990
v 0.774394 -1.929968 0.176990
v 0.774394 -2.195560 0.176990
v 0.774394 -1.929968 -0.177132
v 0.774394 -2.195560 -0.177132
v 0.420272 -1.929968 -0.177132
v 0.420272 -2.195560 -0.177132
v 0.273589 -0.070825 0.176990
v 0.523992 -0.321227 0.176990
v 0.523992 0.179578 0.176990
v 0.774394 -0.070825 0.176990
v 0.523992 0.179578 -0.177132
v 0.774394 -0.070825 -0.177132
v 0.273589 -0.070825 -0.177132
v 0.523992 -0.321227 -0.177132
v 0.014940 0.179578 0.176991
v 0.014940 -0.174545 0.176991
v 0.523992 0.179578 0.176990
v 0.523992 -0.174545 0.176990
v 0.523992 0.179578 -0.177132
v 0.523992 -0.174545 -0.177132
v 0.014940 0.179578 -0.177132
v 0.014940 -0.174545 -0.177132
v -0.117856 0.223843 0.221256
v -0.117856 -0.218810 0.221256
v 0.014940 0.223843 0.221256
v 0.014940 -0.218810 0.221256
v 0.014940 0.223843 -0.221397
v 0.014940 -0.218810 -0.221397
v -0.117856 0.223843 -0.221397
v -0.117856 -0.218810 -0.221397
v 0.420272 -2.195560 0.176990
v 0.670674 -2.445963 0.176990
v 0.670674 -1.945158 0.176990
v 0.921077 -2.195560 0.176990
v 0.670674 -1.945158 -0.177132
v 0.921077 -2.195560 -0.177132
v 0.420272 -2.195560 -0.177132
v 0.670674 -2.445963 -0.177132
v 0.670674 -2.091840 0.176990
v 0.670674 -2.445963 0.176990
v 1.179725 -2.091840 0.176990
v 1.179725 -2.445963 0.176990
v 1.179725 -2.091840 -0.177132
v 1.179725 -2.445963 -0.177132
v 0.670674 -2.091840 -0.177132
v 0.670674 -2.445963 -0.177132
v 1.179725 -2.047575 0.221256
v 1.179725 -2.490228 0.221256
v 1.312521 -2.047575 0.221256
v 1.312521 -2.490228 0.221256
v 1.312521 -2.047575 -0.221398
v 1.312521 -2.490228 -0.221398
v 1.179725 -2.047575 -0.221398
v 1.179725 -2.490228 -0.221398
v 0.420272 -0.070825 0.176990
v 0.420272 -0.336417 0.176990
v 0.774394 -0.070825 0.176990
v 0.774394 -0.336417 0.176990
v 0.774394 -0.070825 -0.177132
v 0.774394 -0.336417 -0.177132
v 0.420272 -0.070825 -0.177132
v 0.420272 -0.336417 -0.177132
v 0.442404 -0.336417 0.154858
v 0.442404 -1.929968 0.154858
v 0.752262 -0.336417 0.154858
v 0.752262 -1.929968 0.154858
v 0.752262 -0.336417 -0.154999
v 0.752262 -1.929968 -0.154999
v 0.442404 -0.336417 -0.154999
v 0.442404 -1.929968 -0.154999
v 0.420272 -0.336417 0.176990
v 0.420272 -1.929968 0.176990
v 0.774394 -0.336417 0.176990
v 0.774394 -1.929968 0.176990
v 0.774394 -0.336417 -0.177132
v 0.774394 -1.929968 -0.177132
v 0.420272 -0.336417 -0.177132
v 0.420272 -1.929968 -0.177132
vt 0.0000 0.9375
vt 0.0625 0.9375
vt 0.0625 1.0000
vt 0.0000 1.0000
vt 0.0000 0.9375
vt 0.0625 0.9375
vt 0.0625 1.0000
vt 0.0000 1.0000
vt 0.6250 0.0000
vt 0.8125 0.0000
vt 0.8125 1.0000
vt 0.6250 1.0000
vt 0.0000 0.9375
vt 0.0625 0.9375
vt 0.0625 1.0000
vt 0.0000 1.0000
vt 0.6250 0.0000
vt 0.8125 0.0000
vt 0.8125 1.0000
vt 0.6250 1.0000
vt 0.0000 0.9375
vt 0.0625 1.0000
vt 0.0000 1.0000
vt 0.0000 0.9375
vt 0.0625 0.9375
vt 0.0625 1.0000
vt 0.0000 1.0000
vt 0.0000 0.9375
vt 0.0625 0.9375
vt 0.0000 1.0000
vt 0.0000 0.9375
vt 0.0625 0.9375
vt 0.0625 1.0000
vt 0.0000 1.0000
vt 0.0000 0.9375
vt 0.0625 0.9375
vt 0.0625 1.0000
vt 0.0000 1.0000
vt 0.0000 0.9375
vt 0.0625 0.9375
vt 0.0625 1.0000
vt 0.0000 1.0000
vt 0.0000 0.9375
vt 0.0625 0.9375
vt 0.0625 1.0000
vt 0.0000 1.0000
vt 0.0000 0.9375
vt 0.0625 0.9375
vt 0.0625 1.0000
vt 0.0000 1.0000
vt 0.0000 0.9375
vt 0.0625 0.9375
vt 0.0625 1.0000
vt 0.0000 0.9375
vt 0.0625 0.9375
vt 0.0625 1.0000
vt 0.0000 1.0000
vt 0.0000 0.9375
vt 0.0625 0.9375
vt 0.0625 1.0000
vt 0.0000 1.0000
vt 0.0625 0.9375
vt 0.0625 1.0000
vt 0.0000 1.0000
vt 0.0000 0.9375
vt 0.0625 0.9375
vt 0.0000 0.9375
vt 0.0625 0.9375
vt 0.0625 1.0000
vt 0.0000 1.0000
vt 0.0000 0.9375
vt 0.0625 0.9375
vt 0.0000 1.0000
vt 0.0000 0.9375
vt 0.0625 0.9375
vt 0.0625 1.0000
vt 0.0000 1.0000
vt 0.0000 0.9375
vt 0.0625 0.9375
vt 0.0625 1.0000
vt 0.0000 0.9375
vt 0.0625 0.9375
vt 0.0625 1.0000
vt 0.0000 1.0000
vt 0.3750 0.0000
vt 0.6250 0.0000
vt 0.6250 1.0000
vt 0.3750 1.0000
vt 0.1250 0.0000
vt 0.1250 1.0000
vt 0.0625 0.9375
vt 0.0625 1.0000
vt 0.0000 1.0000
vt 0.0000 0.9375
vt 0.0625 0.9375
vt 0.0625 1.0000
vt 0.0000 1.0000
vt 0.0000 0.9375
vt 0.0625 0.9375
vt 0.0625 1.0000
vt 0.0000 0.9375
vt 0.0625 0.9375
vt 0.0000 1.0000
vt 0.0000 0.9375
vt 0.0625 0.9375
vt 0.0625 1.0000
vt 0.0000 1.0000
vt 0.0000 0.9375
vt 0.0625 0.9375
vt 0.0625 1.0000
vt 0.0000 1.0000
vt 0.0625 0.9375
vt 0.0625 1.0000
vt 0.0000 1.0000
vt 0.0000 0.9375
vt 0.0625 0.9375
vt 0.0625 1.0000
vt 0.0000 1.0000
vt 0.6250 0.0000
vt 0.8125 0.0000
vt 0.8125 1.0000
vt 0.6250 1.0000
vt 0.0000 0.9375
vt 0.0625 0.9375
vt 0.0625 1.0000
vt 0.0000 0.9375
vt 0.0625 0.9375
vt 0.0000 1.0000
vt 0.6250 0.0000
vt 0.8125 0.0000
vt 0.8125 1.0000
vt 0.6250 1.0000
vt 0.0000 0.9375
vt 0.0625 1.0000
vt 0.0000 1.0000
vt 0.0000 0.9375
vt 0.0625 0.9375
vt 0.0625 1.0000
vt 0.0000 1.0000
vt 0.0625 0.9375
vt 0.0625 1.0000
vt 0.0000 1.0000
vt 0.0000 0.9375
vt 0.0625 0.9375
vt 0.0625 1.0000
vt 0.0000 1.0000
vt 0.0000 0.9375
vt 0.0625 0.9375
vt 0.0625 1.0000
vt 0.0000 1.0000
vt 0.0000 0.9375
vt 0.0625 0.9375
vt 0.0625 1.0000
vt 0.0000 1.0000
vt 0.0000 0.9375
vt 0.0625 0.9375
vt 0.0625 1.0000
vt 0.0000 1.0000
vt 0.1250 0.0000
vt 0.3750 0.0000
vt 0.3750 1.0000
vt 0.1250 1.0000
vt 0.0000 0.9375
vt 0.0625 0.9375
vt 0.0625 1.0000
vt 0.0000 0.9375
vt 0.0625 0.9375
vt 0.0625 1.0000
vt 0.0000 1.0000
vt 0.0625 1.0000
vt 0.0000 1.0000
vt 0.6250 0.0000
vt 0.6250 1.0000
vt 0.0000 0.9375
vt 0.0625 0.9375
vt 0.0625 1.0000
vt 0.0000 1.0000
vt 0.0000 0.9375
vt 0.0625 1.0000
vt 0.0000 1.0000
vt 0.0000 0.9375
vt 0.0625 0.9375
vt 0.0625 1.0000
vt 0.0000 1.0000
vt 0.0000 0.9375
vt 0.0625 0.9375
vt 0.0000 0.9375
vt 0.0000 1.0000
vt 0.0625 1.0000
vt 0.0000 1.0000
vt 0.0000 0.9375
vt 0.0625 0.9375
vt 0.0000 0.9375
vt 0.0625 0.9375
vt 0.0625 1.0000
vt 0.0000 1.0000
vt 0.0625 1.0000
vt 0.0000 1.0000
vt 0.0000 0.9375
vt 0.0625 0.9375
vt 0.0625 1.0000
vt 0.0000 1.0000
vt 0.0625 1.0000
vt 0.0000 1.0000
vn 0.0000 -1.0000 0.0000
vn 0.7071 -0.7071 -0.0000
vn 0.0000 0.0000 1.0000
vn -0.0000 0.0000 -1.0000
vn -1.0000 -0.0000 0.0000
vn 0.0000 1.0000 0.0000
vn 0.7071 0.7071 0.0000
vn -0.7071 0.7071 0.0000
vn 1.0000 0.0000 -0.0000
vn -0.7071 -0.7071 -0.0000
usemtl m_0
s 1
f 70/41/7 68/42/7 66/43/7 72/44/7
f 54/45/8 52/46/8 50/47/8 56/48/8
f 82/49/9 84/50/9 83/51/9 81/52/9
f 46/53/10 48/54/10 47/55/10 45/56/10
f 88/57/11 82/58/11 81/59/11 87/60/11
f 66/61/9 68/42/9 67/62/9 65/63/9
f 79/64/12 73/65/12 75/66/12 77/67/12
f 74/68/9 76/69/9 75/66/9 73/70/9
f 34/71/9 36/72/9 35/73/9 33/74/9
f 28/75/13 30/76/13 29/77/13 27/78/13
f 62/79/10 64/80/10 63/81/10 61/82/10
f 87/83/12 81/84/12 83/85/12 85/86/12
f 22/87/10 24/88/10 23/89/10 21/90/10
f 23/91/12 17/92/12 19/93/12 21/90/12
f 95/94/12 89/95/12 91/96/12 93/97/12
f 72/98/11 66/99/11 65/100/11 71/101/11
f 70/41/10 72/102/10 71/103/10 69/104/10
f 71/105/12 65/106/12 67/62/12 69/104/12
f 26/107/9 28/108/9 27/109/9 25/110/9
f 31/111/14 25/112/14 27/109/14 29/113/14
f 52/114/13 54/115/13 53/116/13 51/117/13
f 78/118/10 80/119/10 79/120/10 77/67/10
f 76/121/15 78/122/15 77/123/15 75/124/15
f 96/125/11 90/126/11 89/127/11 95/128/11
f 94/129/10 96/125/10 95/128/10 93/130/10
f 46/53/7 44/131/7 42/132/7 48/133/7
f 56/134/16 50/135/16 49/136/16 55/137/16
f 47/138/12 41/139/12 43/140/12 45/56/12
f 39/141/12 33/142/12 35/73/12 37/143/12
f 60/144/15 62/145/15 61/146/15 59/147/15
f 64/148/11 58/149/11 57/150/11 63/151/11
f 62/79/7 60/152/7 58/153/7 64/154/7
f 94/155/7 92/156/7 90/157/7 96/158/7
f 86/159/10 88/160/10 87/161/10 85/162/10
f 30/163/10 32/164/10 31/165/10 29/113/10
f 18/166/9 20/167/9 19/93/9 17/168/9
f 84/169/15 86/170/15 85/171/15 83/172/15
f 50/173/9 52/46/9 51/174/9 49/175/9
f 32/176/16 26/177/16 25/178/16 31/179/16
f 54/45/10 56/180/10 55/181/10 53/182/10
f 44/183/15 46/184/15 45/185/15 43/186/15
f 36/187/15 38/188/15 37/189/15 35/190/15
f 80/191/11 74/192/11 73/193/11 79/194/11
f 20/195/15 22/196/15 21/197/15 19/198/15
f 90/199/9 92/200/9 91/201/9 89/202/9
f 38/203/10 40/204/10 39/205/10 37/143/10
f 48/206/11 42/207/11 41/208/11 47/209/11
f 22/87/7 20/167/7 18/210/7 24/211/7
f 92/200/15 94/212/15 93/213/15 91/201/15
f 40/214/11 34/215/11 33/216/11 39/217/11
f 58/218/9 60/152/9 59/219/9 57/220/9
f 86/221/7 84/222/7 82/223/7 88/224/7
f 63/225/12 57/226/12 59/219/12 61/82/12
f 42/227/9 44/131/9 43/140/9 41/228/9
f 78/118/7 76/69/7 74/229/7 80/230/7
f 55/231/14 49/232/14 51/174/14 53/182/14
f 68/233/15 70/234/15 69/235/15 67/236/15
f 38/203/7 36/72/7 34/237/7 40/238/7
f 24/239/11 18/240/11 17/241/11 23/242/11
f 30/163/8 28/108/8 26/243/8 32/244/8
