# Blender v2.79 (sub 0) OBJ File: ''
# www.blender.org
mtllib radiocopscanner.mtl
o led2
v -0.093750 0.109375 0.132812
v -0.101562 0.101562 0.140625
v -0.101562 0.085937 0.140625
v -0.093750 0.078125 0.132812
v -0.117188 0.085937 0.140625
v -0.117188 0.101562 0.140625
v -0.125000 0.109375 0.132812
v -0.125000 0.078125 0.132812
vt 0.039062 0.468750
vt 0.031250 0.468750
vt 0.031250 0.453125
vt 0.039062 0.453125
vt 0.039062 0.421875
vt 0.039062 0.437500
vt 0.031250 0.437500
vt 0.031250 0.421875
vt 0.062500 0.460938
vt 0.078125 0.460938
vt 0.078125 0.468750
vt 0.062500 0.468750
vt 0.078125 0.429688
vt 0.078125 0.437500
vt 0.062500 0.437500
vt 0.062500 0.429688
vt 0.046875 0.453125
vt 0.046875 0.468750
vt 0.031250 0.468750
vt 0.031250 0.453125
vt 0.046875 0.468750
vt 0.031250 0.468750
vt 0.031250 0.453125
vt 0.046875 0.453125
vn 0.7071 0.0000 0.7071
vn -0.7071 0.0000 0.7071
vn 0.0000 0.7071 0.7071
vn 0.0000 -0.7071 0.7071
vn 0.0000 0.0000 1.0000
vn 0.0000 0.0000 -1.0000
usemtl m_0
s 1
f 1/1/1 2/2/1 3/3/1 4/4/1
f 5/5/2 6/6/2 7/7/2 8/8/2
f 6/9/3 2/10/3 1/11/3 7/12/3
f 4/13/4 3/14/4 5/15/4 8/16/4
f 3/17/5 2/18/5 6/19/5 5/20/5
f 7/21/6 1/22/6 4/23/6 8/24/6
o led1
v -0.140625 0.109375 0.132812
v -0.148438 0.101562 0.140625
v -0.148438 0.085937 0.140625
v -0.140625 0.078125 0.132812
v -0.164062 0.085937 0.140625
v -0.164062 0.101562 0.140625
v -0.171875 0.109375 0.132812
v -0.171875 0.078125 0.132812
vt 0.039062 0.468750
vt 0.031250 0.468750
vt 0.031250 0.453125
vt 0.039062 0.453125
vt 0.039062 0.421875
vt 0.039062 0.437500
vt 0.031250 0.437500
vt 0.031250 0.421875
vt 0.062500 0.460938
vt 0.078125 0.460938
vt 0.078125 0.468750
vt 0.062500 0.468750
vt 0.078125 0.429688
vt 0.078125 0.437500
vt 0.062500 0.437500
vt 0.062500 0.429688
vt 0.046875 0.453125
vt 0.046875 0.468750
vt 0.031250 0.468750
vt 0.031250 0.453125
vt 0.046875 0.468750
vt 0.031250 0.468750
vt 0.031250 0.453125
vt 0.046875 0.453125
vn 0.7071 0.0000 0.7071
vn -0.7071 0.0000 0.7071
vn 0.0000 0.7071 0.7071
vn 0.0000 -0.7071 0.7071
vn 0.0000 0.0000 1.0000
vn 0.0000 0.0000 -1.0000
usemtl m_0
s 1
f 9/25/7 10/26/7 11/27/7 12/28/7
f 13/29/8 14/30/8 15/31/8 16/32/8
f 14/33/9 10/34/9 9/35/9 15/36/9
f 12/37/10 11/38/10 13/39/10 16/40/10
f 11/41/11 10/42/11 14/43/11 13/44/11
f 15/45/12 9/46/12 12/47/12 16/48/12
o led5
v 0.046875 0.109375 0.132812
v 0.039062 0.101562 0.140625
v 0.039062 0.085937 0.140625
v 0.046875 0.078125 0.132812
v 0.023438 0.085937 0.140625
v 0.023438 0.101562 0.140625
v 0.015625 0.109375 0.132812
v 0.015625 0.078125 0.132812
vt 0.039062 0.468750
vt 0.031250 0.468750
vt 0.031250 0.453125
vt 0.039062 0.453125
vt 0.039062 0.421875
vt 0.039062 0.437500
vt 0.031250 0.437500
vt 0.031250 0.421875
vt 0.062500 0.460938
vt 0.078125 0.460938
vt 0.078125 0.468750
vt 0.062500 0.468750
vt 0.078125 0.429688
vt 0.078125 0.437500
vt 0.062500 0.437500
vt 0.062500 0.429688
vt 0.046875 0.453125
vt 0.046875 0.468750
vt 0.031250 0.468750
vt 0.031250 0.453125
vt 0.046875 0.468750
vt 0.031250 0.468750
vt 0.031250 0.453125
vt 0.046875 0.453125
vn 0.7071 0.0000 0.7071
vn -0.7071 0.0000 0.7071
vn 0.0000 0.7071 0.7071
vn 0.0000 -0.7071 0.7071
vn 0.0000 0.0000 1.0000
vn 0.0000 0.0000 -1.0000
usemtl m_0
s 1
f 17/49/13 18/50/13 19/51/13 20/52/13
f 21/53/14 22/54/14 23/55/14 24/56/14
f 22/57/15 18/58/15 17/59/15 23/60/15
f 20/61/16 19/62/16 21/63/16 24/64/16
f 19/65/17 18/66/17 22/67/17 21/68/17
f 23/69/18 17/70/18 20/71/18 24/72/18
o led3
v -0.046875 0.109375 0.132812
v -0.054688 0.101562 0.140625
v -0.054688 0.085937 0.140625
v -0.046875 0.078125 0.132812
v -0.070312 0.085937 0.140625
v -0.070312 0.101562 0.140625
v -0.078125 0.109375 0.132812
v -0.078125 0.078125 0.132812
vt 0.039062 0.468750
vt 0.031250 0.468750
vt 0.031250 0.453125
vt 0.039062 0.453125
vt 0.039062 0.421875
vt 0.039062 0.437500
vt 0.031250 0.437500
vt 0.031250 0.421875
vt 0.062500 0.460938
vt 0.078125 0.460938
vt 0.078125 0.468750
vt 0.062500 0.468750
vt 0.078125 0.429688
vt 0.078125 0.437500
vt 0.062500 0.437500
vt 0.062500 0.429688
vt 0.046875 0.453125
vt 0.046875 0.468750
vt 0.031250 0.468750
vt 0.031250 0.453125
vt 0.046875 0.468750
vt 0.031250 0.468750
vt 0.031250 0.453125
vt 0.046875 0.453125
vn 0.7071 0.0000 0.7071
vn -0.7071 0.0000 0.7071
vn 0.0000 0.7071 0.7071
vn 0.0000 -0.7071 0.7071
vn 0.0000 0.0000 1.0000
vn 0.0000 0.0000 -1.0000
usemtl m_0
s 1
f 25/73/19 26/74/19 27/75/19 28/76/19
f 29/77/20 30/78/20 31/79/20 32/80/20
f 30/81/21 26/82/21 25/83/21 31/84/21
f 28/85/22 27/86/22 29/87/22 32/88/22
f 27/89/23 26/90/23 30/91/23 29/92/23
f 31/93/24 25/94/24 28/95/24 32/96/24
o thing
v 0.156250 0.046875 0.093750
v 0.156250 0.046875 0.156250
v 0.156250 0.015625 0.156250
v 0.156250 0.015625 0.093750
v 0.093750 0.015625 0.156250
v 0.093750 0.046875 0.156250
v 0.093750 0.046875 0.093750
v 0.093750 0.015625 0.093750
v 0.093750 0.078125 0.093750
v 0.093750 0.078125 0.156250
v 0.093750 0.109375 0.156250
v 0.093750 0.109375 0.093750
v 0.156250 0.109375 0.156250
v 0.156250 0.078125 0.156250
v 0.156250 0.078125 0.093750
v 0.156250 0.109375 0.093750
vt 0.625000 0.812500
vt 0.625000 0.875000
vt 0.593750 0.875000
vt 0.593750 0.812500
vt 0.625000 0.812500
vt 0.625000 0.843750
vt 0.562500 0.843750
vt 0.562500 0.812500
vt 0.625000 0.812500
vt 0.562500 0.875000
vt 0.562500 0.812500
vt 0.625000 0.812500
vt 0.625000 0.875000
vt 0.562500 0.875000
vt 0.625000 0.843750
vt 0.562500 0.875000
vt 0.562500 0.843750
vt 0.593750 0.812500
vt 0.593750 0.875000
vt 0.562500 0.875000
vt 0.625000 0.812500
vt 0.625000 0.875000
vt 0.593750 0.875000
vt 0.593750 0.812500
vt 0.625000 0.812500
vt 0.625000 0.843750
vt 0.562500 0.843750
vt 0.562500 0.812500
vt 0.625000 0.812500
vt 0.562500 0.875000
vt 0.562500 0.812500
vt 0.625000 0.812500
vt 0.625000 0.875000
vt 0.562500 0.875000
vt 0.625000 0.843750
vt 0.562500 0.875000
vt 0.562500 0.843750
vt 0.593750 0.812500
vt 0.593750 0.875000
vt 0.562500 0.875000
vn 1.0000 0.0000 0.0000
vn -1.0000 0.0000 0.0000
vn 0.0000 1.0000 0.0000
vn 0.0000 -1.0000 -0.0000
vn 0.0000 0.0000 1.0000
vn 0.0000 0.0000 -1.0000
usemtl m_0
s 1
f 33/97/25 34/98/25 35/99/25 36/100/25
f 37/101/26 38/102/26 39/103/26 40/104/26
f 38/105/27 34/98/27 33/106/27 39/107/27
f 36/108/28 35/109/28 37/110/28 40/104/28
f 35/111/29 34/98/29 38/112/29 37/113/29
f 39/114/30 33/115/30 36/116/30 40/104/30
f 41/117/26 42/118/26 43/119/26 44/120/26
f 45/121/25 46/122/25 47/123/25 48/124/25
f 46/125/28 42/118/28 41/126/28 47/127/28
f 44/128/27 43/129/27 45/130/27 48/124/27
f 43/131/29 42/118/29 46/132/29 45/133/29
f 47/134/30 41/135/30 44/136/30 48/124/30
o ledbar
v 0.054688 0.117187 0.125000
v 0.046875 0.109375 0.132812
v 0.046875 0.078125 0.132812
v 0.054688 0.070312 0.125000
v -0.171875 0.078125 0.132812
v -0.171875 0.109375 0.132812
v -0.179688 0.117187 0.125000
v -0.179688 0.070312 0.125000
vt 0.070312 0.687500
vt 0.062500 0.687500
vt 0.062500 0.671875
vt 0.070312 0.671875
vt 0.195312 0.671875
vt 0.195312 0.687500
vt 0.187500 0.687500
vt 0.187500 0.671875
vt 0.062500 0.742188
vt 0.171875 0.742188
vt 0.171875 0.750000
vt 0.062500 0.750000
vt 0.171875 0.742188
vt 0.171875 0.750000
vt 0.062500 0.750000
vt 0.062500 0.742188
vt 0.171875 0.703125
vt 0.171875 0.718750
vt 0.062500 0.718750
vt 0.062500 0.703125
vt 0.171875 0.718750
vt 0.062500 0.718750
vt 0.062500 0.703125
vt 0.171875 0.703125
vn 0.7071 0.0000 0.7071
vn -0.7071 0.0000 0.7071
vn 0.0000 0.7071 0.7071
vn 0.0000 -0.7071 0.7071
vn 0.0000 0.0000 1.0000
vn 0.0000 0.0000 -1.0000
usemtl m_0
s 1
f 49/137/31 50/138/31 51/139/31 52/140/31
f 53/141/32 54/142/32 55/143/32 56/144/32
f 54/145/33 50/146/33 49/147/33 55/148/33
f 52/149/34 51/150/34 53/151/34 56/152/34
f 51/153/35 50/154/35 54/155/35 53/156/35
f 55/157/36 49/158/36 52/159/36 56/160/36
o led4
v 0.000000 0.109375 0.132812
v -0.007812 0.101562 0.140625
v -0.007812 0.085937 0.140625
v 0.000000 0.078125 0.132812
v -0.023438 0.085937 0.140625
v -0.023438 0.101562 0.140625
v -0.031250 0.109375 0.132812
v -0.031250 0.078125 0.132812
vt 0.039062 0.468750
vt 0.031250 0.468750
vt 0.031250 0.453125
vt 0.039062 0.453125
vt 0.039062 0.421875
vt 0.039062 0.437500
vt 0.031250 0.437500
vt 0.031250 0.421875
vt 0.062500 0.460938
vt 0.078125 0.460938
vt 0.078125 0.468750
vt 0.062500 0.468750
vt 0.078125 0.429688
vt 0.078125 0.437500
vt 0.062500 0.437500
vt 0.062500 0.429688
vt 0.046875 0.453125
vt 0.046875 0.468750
vt 0.031250 0.468750
vt 0.031250 0.453125
vt 0.046875 0.468750
vt 0.031250 0.468750
vt 0.031250 0.453125
vt 0.046875 0.453125
vn 0.7071 0.0000 0.7071
vn -0.7071 0.0000 0.7071
vn 0.0000 0.7071 0.7071
vn 0.0000 -0.7071 0.7071
vn 0.0000 0.0000 1.0000
vn 0.0000 0.0000 -1.0000
usemtl m_0
s 1
f 57/161/37 58/162/37 59/163/37 60/164/37
f 61/165/38 62/166/38 63/167/38 64/168/38
f 62/169/39 58/170/39 57/171/39 63/172/39
f 60/173/40 59/174/40 61/175/40 64/176/40
f 59/177/41 58/178/41 62/179/41 61/180/41
f 63/181/42 57/182/42 60/183/42 64/184/42
o knob3
v 0.000000 0.054687 0.109375
v 0.000000 0.054687 0.140625
v 0.000000 0.007812 0.140625
v 0.000000 0.007812 0.109375
v -0.046875 0.007812 0.140625
v -0.046875 0.054687 0.140625
v -0.046875 0.054687 0.109375
v -0.046875 0.007812 0.109375
vt 0.937500 0.937500
vt 0.937500 1.000000
vt 0.875000 1.000000
vt 0.875000 0.937500
vt 0.875000 0.875000
vt 0.875000 0.937500
vt 0.812500 0.937500
vt 0.812500 0.875000
vt 1.000000 0.937500
vt 1.000000 1.000000
vt 0.937500 1.000000
vt 0.937500 0.937500
vt 0.937500 0.875000
vt 0.937500 0.937500
vt 0.875000 0.937500
vt 0.875000 0.875000
vt 0.875000 0.937500
vt 0.875000 1.000000
vt 0.812500 1.000000
vt 0.812500 0.937500
vt 0.531250 0.968750
vt 0.531250 0.875000
vt 0.656250 0.875000
vt 0.656250 0.968750
vn 1.0000 0.0000 0.0000
vn -1.0000 0.0000 0.0000
vn 0.0000 1.0000 0.0000
vn 0.0000 -1.0000 -0.0000
vn 0.0000 0.0000 1.0000
vn 0.0000 0.0000 -1.0000
usemtl m_0
s 1
f 65/185/43 66/186/43 67/187/43 68/188/43
f 69/189/44 70/190/44 71/191/44 72/192/44
f 70/193/45 66/194/45 65/195/45 71/196/45
f 68/197/46 67/198/46 69/199/46 72/200/46
f 67/201/47 66/202/47 70/203/47 69/204/47
f 71/205/48 65/206/48 68/207/48 72/208/48
o knob2
v -0.125000 0.007812 0.140625
v -0.125000 0.054687 0.140625
v -0.125000 0.054687 0.109375
v -0.125000 0.007812 0.109375
v -0.078125 0.054687 0.109375
v -0.078125 0.054687 0.140625
v -0.078125 0.007812 0.140625
v -0.078125 0.007812 0.109375
vt 0.875000 1.000000
vt 0.937500 1.000000
vt 0.937500 0.937500
vt 0.875000 0.937500
vt 0.812500 0.937500
vt 0.875000 0.937500
vt 0.875000 0.875000
vt 0.812500 0.875000
vt 0.937500 1.000000
vt 1.000000 1.000000
vt 1.000000 0.937500
vt 0.937500 0.937500
vt 0.875000 0.937500
vt 0.937500 0.937500
vt 0.937500 0.875000
vt 0.875000 0.875000
vt 0.812500 1.000000
vt 0.875000 1.000000
vt 0.875000 0.937500
vt 0.812500 0.937500
vt 0.656250 0.875000
vt 0.531250 0.875000
vt 0.531250 0.968750
vt 0.656250 0.968750
vn -1.0000 0.0000 0.0000
vn 1.0000 0.0000 0.0000
vn 0.0000 1.0000 0.0000
vn 0.0000 -1.0000 -0.0000
vn 0.0000 0.0000 1.0000
vn 0.0000 0.0000 -1.0000
usemtl m_0
s 1
f 73/209/49 74/210/49 75/211/49 76/212/49
f 77/213/50 78/214/50 79/215/50 80/216/50
f 75/217/51 74/218/51 78/219/51 77/220/51
f 79/221/52 73/222/52 76/223/52 80/224/52
f 78/225/53 74/226/53 73/227/53 79/228/53
f 76/229/54 75/230/54 77/231/54 80/232/54
o cube
v 0.187500 0.125000 -0.125000
v 0.187500 0.125000 0.125000
v 0.187500 -0.000000 0.125000
v 0.187500 0.000000 -0.125000
v -0.187500 -0.000000 0.125000
v -0.187500 0.125000 0.125000
v -0.187500 0.125000 -0.125000
v -0.187500 0.000000 -0.125000
vt 0.125000 0.812500
vt 0.000000 0.812500
vt 0.000000 0.750000
vt 0.125000 0.750000
vt 0.250000 0.750000
vt 0.250000 0.812500
vt 0.125000 0.812500
vt 0.125000 0.750000
vt 0.187500 0.875000
vt 0.375000 0.875000
vt 0.375000 1.000000
vt 0.187500 1.000000
vt 0.187500 0.875000
vt 0.187500 1.000000
vt 0.000000 1.000000
vt 0.000000 0.875000
vt 0.375000 0.812500
vt 0.187500 0.812500
vt 0.187500 0.875000
vt 0.000000 0.875000
vt 0.000000 0.812500
vt 0.187500 0.812500
vn 1.0000 0.0000 0.0000
vn -1.0000 -0.0000 0.0000
vn 0.0000 1.0000 0.0000
vn 0.0000 -1.0000 -0.0000
vn 0.0000 0.0000 1.0000
vn 0.0000 0.0000 -1.0000
usemtl m_0
s 1
f 81/233/55 82/234/55 83/235/55 84/236/55
f 85/237/56 86/238/56 87/239/56 88/240/56
f 86/241/57 82/242/57 81/243/57 87/244/57
f 84/245/58 83/246/58 85/247/58 88/248/58
f 83/249/59 82/242/59 86/241/59 85/250/59
f 87/251/60 81/252/60 84/253/60 88/254/60
