# Blender v2.79 (sub 0) OBJ File: ''
# www.blender.org
mtllib radiocb.mtl
o knob3
v 0.039062 0.054687 0.109375
v 0.039062 0.054687 0.140625
v 0.039062 0.007812 0.140625
v 0.039062 0.007812 0.109375
v -0.007812 0.007812 0.140625
v -0.007812 0.054687 0.140625
v -0.007812 0.054687 0.109375
v -0.007812 0.007812 0.109375
vt 0.937500 0.937500
vt 0.937500 1.000000
vt 0.875000 1.000000
vt 0.875000 0.937500
vt 0.875000 0.875000
vt 0.875000 0.937500
vt 0.812500 0.937500
vt 0.812500 0.875000
vt 1.000000 0.937500
vt 1.000000 1.000000
vt 0.937500 1.000000
vt 0.937500 0.937500
vt 0.937500 0.875000
vt 0.937500 0.937500
vt 0.875000 0.937500
vt 0.875000 0.875000
vt 0.875000 0.937500
vt 0.875000 1.000000
vt 0.812500 1.000000
vt 0.812500 0.937500
vt 0.531250 0.968750
vt 0.531250 0.875000
vt 0.656250 0.875000
vt 0.656250 0.968750
vn 1.0000 0.0000 0.0000
vn -1.0000 0.0000 0.0000
vn 0.0000 1.0000 0.0000
vn 0.0000 -1.0000 -0.0000
vn 0.0000 0.0000 1.0000
vn 0.0000 0.0000 -1.0000
usemtl m_0
s 1
f 1/1/1 2/2/1 3/3/1 4/4/1
f 5/5/2 6/6/2 7/7/2 8/8/2
f 6/9/3 2/10/3 1/11/3 7/12/3
f 4/13/4 3/14/4 5/15/4 8/16/4
f 3/17/5 2/18/5 6/19/5 5/20/5
f 7/21/6 1/22/6 4/23/6 8/24/6
o cube
v 0.187500 0.125000 -0.125000
v 0.187500 0.125000 0.125000
v 0.187500 -0.000000 0.125000
v 0.187500 0.000000 -0.125000
v -0.187500 -0.000000 0.125000
v -0.187500 0.125000 0.125000
v -0.187500 0.125000 -0.125000
v -0.187500 0.000000 -0.125000
vt 0.125000 0.812500
vt 0.000000 0.812500
vt 0.000000 0.750000
vt 0.125000 0.750000
vt 0.250000 0.750000
vt 0.250000 0.812500
vt 0.125000 0.812500
vt 0.125000 0.750000
vt 0.187500 0.875000
vt 0.375000 0.875000
vt 0.375000 1.000000
vt 0.187500 1.000000
vt 0.187500 0.875000
vt 0.187500 1.000000
vt 0.000000 1.000000
vt 0.000000 0.875000
vt 0.375000 0.812500
vt 0.187500 0.812500
vt 0.187500 0.875000
vt 0.000000 0.875000
vt 0.000000 0.812500
vt 0.187500 0.812500
vn 1.0000 0.0000 0.0000
vn -1.0000 -0.0000 0.0000
vn 0.0000 1.0000 0.0000
vn 0.0000 -1.0000 -0.0000
vn 0.0000 0.0000 1.0000
vn 0.0000 0.0000 -1.0000
usemtl m_0
s 1
f 9/25/7 10/26/7 11/27/7 12/28/7
f 13/29/8 14/30/8 15/31/8 16/32/8
f 14/33/9 10/34/9 9/35/9 15/36/9
f 12/37/10 11/38/10 13/39/10 16/40/10
f 11/41/11 10/34/11 14/33/11 13/42/11
f 15/43/12 9/44/12 12/45/12 16/46/12
o thing
v 0.078125 0.109375 0.078125
v 0.078125 0.109375 0.171875
v 0.171875 0.109375 0.171875
v 0.171875 0.109375 0.078125
v 0.171875 0.015625 0.171875
v 0.078125 0.015625 0.171875
v 0.078125 0.015625 0.078125
v 0.171875 0.015625 0.078125
v 0.148438 0.085937 0.171875
v 0.101562 0.085937 0.171875
v 0.101562 0.039062 0.171875
v 0.148438 0.039062 0.171875
v 0.101562 0.085937 0.179688
v 0.148438 0.085937 0.179688
v 0.101562 0.039062 0.179688
v 0.148438 0.039062 0.179688
v 0.156250 0.015625 0.093750
v 0.156250 0.015625 0.156250
v 0.156250 -0.015625 0.156250
v 0.156250 -0.015625 0.093750
v 0.093750 -0.015625 0.156250
v 0.093750 0.015625 0.156250
v 0.093750 0.015625 0.093750
v 0.093750 -0.015625 0.093750
vt 0.625000 0.812500
vt 0.625000 0.875000
vt 0.562500 0.875000
vt 0.562500 0.812500
vt 0.625000 0.875000
vt 0.625000 0.812500
vt 0.562500 0.812500
vt 0.562500 0.875000
vt 0.562500 0.875000
vt 0.625000 0.812500
vt 0.312500 0.906250
vt 0.312500 0.968750
vt 0.250000 0.968750
vt 0.250000 0.906250
vt 0.531250 0.968750
vt 0.531250 0.875000
vt 0.656250 0.875000
vt 0.656250 0.968750
vt 0.613281 0.859375
vt 0.613281 0.828125
vt 0.625631 0.812500
vt 0.625631 0.875000
vt 0.578125 0.862647
vt 0.609375 0.862647
vt 0.562500 0.875000
vt 0.574850 0.828125
vt 0.574850 0.859375
vt 0.562500 0.812500
vt 0.609375 0.824219
vt 0.578125 0.824219
vt 0.562500 0.811866
vt 0.625000 0.811866
vt 0.187500 0.718750
vt 0.187500 0.695312
vt 0.218750 0.695312
vt 0.218750 0.718750
vt 0.187500 0.687500
vt 0.210938 0.687500
vt 0.210938 0.718750
vt 0.187500 0.718750
vt 0.218750 0.695312
vt 0.218750 0.718750
vt 0.187500 0.695312
vt 0.210938 0.718750
vt 0.187500 0.718750
vt 0.187500 0.687500
vt 0.210938 0.687500
vt 0.625000 0.812500
vt 0.625000 0.875000
vt 0.593750 0.875000
vt 0.593750 0.812500
vt 0.625000 0.812500
vt 0.625000 0.843750
vt 0.562500 0.843750
vt 0.562500 0.812500
vt 0.625000 0.812500
vt 0.562500 0.875000
vt 0.562500 0.812500
vt 0.625000 0.812500
vt 0.625000 0.875000
vt 0.562500 0.875000
vt 0.625000 0.843750
vt 0.562500 0.875000
vt 0.562500 0.843750
vt 0.593750 0.812500
vt 0.593750 0.875000
vt 0.562500 0.875000
vn 0.0000 1.0000 0.0000
vn 0.0000 -1.0000 -0.0000
vn -1.0000 0.0000 0.0000
vn 1.0000 0.0000 0.0000
vn 0.0000 0.0000 1.0000
vn 0.0000 0.0000 -1.0000
vn 0.0000 0.3162 0.9487
vn -0.3162 0.0000 0.9487
vn 0.0000 -0.3162 0.9487
vn 0.3162 0.0000 0.9487
usemtl m_0
s 1
f 17/47/13 18/48/13 19/49/13 20/50/13
f 21/51/14 22/52/14 23/53/14 24/54/14
f 22/52/15 18/48/15 17/55/15 23/53/15
f 20/50/16 19/49/16 21/51/16 24/56/16
f 25/57/17 26/58/17 27/59/17 28/60/17
f 23/61/18 17/62/18 20/63/18 24/64/18
f 29/65/19 30/66/19 19/67/19 18/68/19
f 31/69/20 29/70/20 18/48/20 22/71/20
f 32/72/21 31/73/21 22/71/21 21/74/21
f 30/75/22 32/76/22 21/77/22 19/78/22
f 26/79/14 25/80/14 30/81/14 29/82/14
f 27/83/16 26/84/16 29/85/16 31/86/16
f 28/87/13 27/88/13 31/86/13 32/89/13
f 25/90/15 28/91/15 32/92/15 30/93/15
f 33/94/16 34/95/16 35/96/16 36/97/16
f 37/98/15 38/99/15 39/100/15 40/101/15
f 38/102/13 34/95/13 33/103/13 39/104/13
f 36/105/14 35/106/14 37/107/14 40/101/14
f 35/108/17 34/95/17 38/109/17 37/110/17
f 39/111/18 33/112/18 36/113/18 40/101/18
o knob2alt
v -0.007812 0.070312 0.140625
v -0.007812 0.117187 0.140625
v -0.007812 0.117187 0.109375
v -0.007812 0.070312 0.109375
v 0.039062 0.117187 0.109375
v 0.039062 0.117187 0.140625
v 0.039062 0.070312 0.140625
v 0.039062 0.070312 0.109375
vt 0.875000 1.000000
vt 0.937500 1.000000
vt 0.937500 0.937500
vt 0.875000 0.937500
vt 0.812500 0.937500
vt 0.875000 0.937500
vt 0.875000 0.875000
vt 0.812500 0.875000
vt 0.937500 1.000000
vt 1.000000 1.000000
vt 1.000000 0.937500
vt 0.937500 0.937500
vt 0.875000 0.937500
vt 0.937500 0.937500
vt 0.937500 0.875000
vt 0.875000 0.875000
vt 0.812500 1.000000
vt 0.875000 1.000000
vt 0.875000 0.937500
vt 0.812500 0.937500
vt 0.656250 0.875000
vt 0.531250 0.875000
vt 0.531250 0.968750
vt 0.656250 0.968750
vn -1.0000 0.0000 0.0000
vn 1.0000 0.0000 0.0000
vn 0.0000 1.0000 0.0000
vn 0.0000 -1.0000 0.0000
vn 0.0000 0.0000 1.0000
vn 0.0000 0.0000 -1.0000
usemtl m_0
s 1
f 41/114/23 42/115/23 43/116/23 44/117/23
f 45/118/24 46/119/24 47/120/24 48/121/24
f 43/122/25 42/123/25 46/124/25 45/125/25
f 47/126/26 41/127/26 44/128/26 48/129/26
f 46/130/27 42/131/27 41/132/27 47/133/27
f 44/134/28 43/135/28 45/136/28 48/137/28
o tuner
v -0.015625 0.093750 0.125000
v -0.015625 0.093750 0.132812
v -0.015625 0.031250 0.132812
v -0.015625 0.023437 0.125000
v -0.179688 0.031250 0.132812
v -0.179688 0.093750 0.132812
v -0.179688 0.093750 0.125000
v -0.179688 0.023437 0.125000
v -0.023082 0.036458 0.132812
v -0.023082 0.088542 0.132812
v -0.172230 0.088542 0.132812
v -0.172230 0.036458 0.132812
vt 0.070312 0.687500
vt 0.062500 0.687500
vt 0.062500 0.671875
vt 0.070312 0.671875
vt 0.195312 0.671875
vt 0.195312 0.687500
vt 0.187500 0.687500
vt 0.187500 0.671875
vt 0.062500 0.742188
vt 0.171875 0.742188
vt 0.171875 0.750000
vt 0.062500 0.750000
vt 0.171875 0.742188
vt 0.171875 0.750000
vt 0.062500 0.750000
vt 0.062500 0.742188
vt 0.531250 0.718750
vt 0.531250 0.812500
vt 0.250000 0.812500
vt 0.250000 0.718750
vt 0.171875 0.718750
vt 0.062500 0.718750
vt 0.062500 0.703125
vt 0.171875 0.703125
vt 0.093750 0.652344
vt 0.093750 0.636719
vt 0.097656 0.632812
vt 0.097656 0.656250
vt 0.066406 0.652344
vt 0.175781 0.652344
vt 0.179688 0.656250
vt 0.062500 0.656250
vt 0.097656 0.636719
vt 0.097656 0.652344
vt 0.093750 0.656250
vt 0.093750 0.632812
vt 0.175781 0.656250
vt 0.066406 0.656250
vt 0.062500 0.652344
vt 0.179688 0.652344
vn 1.0000 0.0000 0.0000
vn -1.0000 0.0000 0.0000
vn 0.0000 1.0000 0.0000
vn 0.0000 -0.7071 0.7071
vn -0.0000 0.0000 1.0000
vn 0.0000 0.0000 -1.0000
usemtl m_0
s 1
f 49/138/29 50/139/29 51/140/29 52/141/29
f 53/142/30 54/143/30 55/144/30 56/145/30
f 54/146/31 50/147/31 49/148/31 55/149/31
f 52/150/32 51/151/32 53/152/32 56/153/32
f 57/154/33 58/155/33 59/156/33 60/157/33
f 55/158/34 49/159/34 52/160/34 56/161/34
f 58/162/33 57/163/33 51/164/33 50/165/33
f 59/166/33 58/167/33 50/168/33 54/169/33
f 60/170/33 59/171/33 54/172/33 53/173/33
f 57/174/33 60/175/33 53/176/33 51/177/33
