# Blender v2.79 (sub 0) OBJ File: ''
# www.blender.org
mtllib vh_propcap.mtl
o propeller
v 0.000000 0.337500 0.715946
v 0.715946 0.337500 0.000000
v 0.715946 0.337500 0.000000
v 0.000000 0.337500 0.715946
v -0.715946 0.337500 0.000000
v -0.715946 0.337500 0.000000
v 0.000000 0.337500 -0.715946
v 0.000000 0.337500 -0.715946
vt 0.500000 0.500000
vt 0.937500 0.500000
vt 0.937500 0.500000
vt 0.500000 0.500000
vt 0.500000 0.500000
vt 1.000000 0.500000
vt 1.000000 0.500000
vt 0.500000 0.500000
vt 0.500000 0.500000
vt 1.000000 0.500000
vt 1.000000 0.500000
vt 0.500000 0.500000
vt 0.500000 0.500000
vt 1.000000 0.500000
vt 1.000000 0.500000
vt 0.500000 0.500000
vt 0.500000 0.000000
vt 1.000000 0.000000
vt 0.500000 0.000000
vt 1.000000 0.000000
vn 0.1802 0.0000 -0.9836
vn 0.0000 0.0000 -1.0000
vn 0.9974 -0.0006 -0.0714
vn -0.9974 0.0006 -0.0714
vn -0.1802 0.0000 -0.9836
vn -0.4540 -0.0000 0.8910
vn 0.0000 0.0000 1.0000
vn -0.9659 0.0006 0.2588
vn 0.9659 -0.0006 0.2588
vn 0.4540 -0.0000 0.8910
vn 0.0000 1.0000 0.0000
vn 0.0000 -1.0000 -0.0000
usemtl m_7463111b-cb30-1498-fcdf-7c469295b1f3
s 1
f 1/1/1 2/2/2 3/3/3 4/4/2
f 5/5/4 1/6/2 4/7/5 6/8/2
f 7/9/6 5/10/7 6/11/8 8/12/7
f 2/13/9 7/14/7 8/15/10 3/16/7
f 8/17/11 6/18/11 4/7/11 3/16/11
f 2/19/12 1/20/12 5/10/12 7/9/12
o cube
v -0.450113 -0.000112 0.450113
v 0.450113 -0.000112 0.450113
v 0.450113 0.225113 0.450113
v -0.450113 0.225113 0.450113
v -0.450113 -0.000113 -0.450113
v -0.450113 0.225112 -0.450113
v 0.450113 -0.000113 -0.450113
v 0.450113 0.225112 -0.450113
v -0.450000 0.000517 0.675000
v 0.450000 0.000517 0.675000
v 0.450000 0.000517 0.675000
v -0.450000 0.000517 0.675000
v -0.450000 0.000517 0.450000
v -0.450000 0.000517 0.450000
v 0.450000 0.000517 0.450000
v 0.450000 0.000517 0.450000
v -0.337500 0.000517 0.787500
v 0.337500 0.000517 0.787500
v 0.337500 0.000517 0.787500
v -0.337500 0.000517 0.787500
v -0.337500 0.000517 0.675000
v -0.337500 0.000517 0.675000
v 0.337500 0.000517 0.675000
v 0.337500 0.000517 0.675000
v 0.000000 0.168750 0.079550
v 0.079550 0.168750 0.000000
v 0.079550 0.393750 0.000000
v 0.000000 0.393750 0.079550
v -0.079550 0.168750 0.000000
v -0.079550 0.393750 0.000000
v 0.000000 0.168750 -0.079550
v 0.000000 0.393750 -0.079550
vt 0.500000 0.875000
vt 0.000000 0.875000
vt 0.000000 1.000000
vt 0.500000 1.000000
vt 0.375000 0.500000
vt 0.375000 1.000000
vt 0.500000 0.500000
vt 0.000000 0.625000
vt 0.500000 0.625000
vt 0.000000 0.500000
vt 0.125000 1.000000
vt 0.125000 0.500000
vt 0.500000 0.500000
vt 1.000000 0.500000
vt 1.000000 1.000000
vt 0.500000 1.000000
vt 0.000000 0.500000
vt 0.500000 0.500000
vt 0.500000 0.500000
vt 0.000000 0.500000
vt 0.000000 0.500000
vt 0.125000 0.500000
vt 0.125000 0.500000
vt 0.000000 0.500000
vt 0.000000 0.500000
vt 0.500000 0.500000
vt 0.500000 0.500000
vt 0.000000 0.500000
vt 0.000000 0.500000
vt 0.125000 0.500000
vt 0.125000 0.500000
vt 0.000000 0.500000
vt 0.500000 0.500000
vt 0.000000 0.375000
vt 0.500000 0.375000
vt 0.500000 0.375000
vt 0.000000 0.375000
vt 0.500000 0.500000
vt 0.062500 0.375000
vt 0.437500 0.375000
vt 0.437500 0.375000
vt 0.062500 0.375000
vt 0.062500 0.375000
vt 0.125000 0.375000
vt 0.125000 0.375000
vt 0.062500 0.375000
vt 0.062500 0.375000
vt 0.437500 0.375000
vt 0.437500 0.375000
vt 0.062500 0.375000
vt 0.062500 0.375000
vt 0.125000 0.375000
vt 0.125000 0.375000
vt 0.062500 0.375000
vt 0.437500 0.375000
vt 0.062500 0.312500
vt 0.437500 0.312500
vt 0.062500 0.312500
vt 0.437500 0.312500
vt 0.000000 0.000000
vt 0.062500 0.000000
vt 0.062500 0.125000
vt 0.000000 0.125000
vt 0.000000 0.000000
vt 0.062500 0.000000
vt 0.062500 0.125000
vt 0.000000 0.125000
vt 0.000000 0.000000
vt 0.062500 0.000000
vt 0.062500 0.125000
vt 0.000000 0.125000
vt 0.000000 0.000000
vt 0.062500 0.000000
vt 0.062500 0.125000
vt 0.000000 0.125000
vt 0.000000 0.062500
vt 0.062500 0.062500
vt 0.000000 0.062500
vt 0.062500 0.062500
vt 0.062500 0.125000
vt 0.000000 0.125000
vn 0.0000 0.0000 1.0000
vn -1.0000 0.0000 0.0000
vn 0.0000 0.0000 -1.0000
vn 1.0000 0.0000 0.0000
vn 0.0000 1.0000 -0.0000
vn 0.0000 -1.0000 0.0000
vn 0.0000 0.0000 0.0000
vn 0.7071 -0.0000 0.7071
vn -0.7071 -0.0000 0.7071
vn -0.7071 0.0000 -0.7071
vn 0.7071 0.0000 -0.7071
usemtl m_7463111b-cb30-1498-fcdf-7c469295b1f3
s 1
f 9/21/13 10/22/13 11/23/13 12/24/13
f 13/25/14 9/26/14 12/24/14 14/27/14
f 15/28/15 13/29/15 14/27/15 16/30/15
f 10/31/16 15/32/16 16/30/16 11/23/16
f 16/30/17 14/27/17 12/24/17 11/23/17
f 10/33/18 9/34/18 13/35/18 15/36/18
f 17/37/15 18/38/15 19/39/15 20/40/15
f 21/41/19 17/42/19 20/43/19 22/44/19
f 23/45/13 21/46/13 22/47/13 24/48/13
f 18/49/19 23/50/19 24/51/19 19/52/19
f 24/53/17 22/44/17 20/54/17 19/55/17
f 18/56/18 17/57/18 21/41/18 23/58/18
f 25/59/15 26/60/15 27/61/15 28/62/15
f 29/63/19 25/64/19 28/65/19 30/66/19
f 31/67/13 29/68/13 30/69/13 32/70/13
f 26/71/19 31/72/19 32/73/19 27/74/19
f 32/75/17 30/66/17 28/76/17 27/77/17
f 26/60/18 25/59/18 29/78/18 31/79/18
f 33/80/20 34/81/20 35/82/20 36/83/20
f 37/84/21 33/85/21 36/86/21 38/87/21
f 39/88/22 37/89/22 38/90/22 40/91/22
f 34/92/23 39/93/23 40/94/23 35/95/23
f 40/96/17 38/97/17 36/86/17 35/95/17
f 34/98/18 33/99/18 37/100/18 39/101/18
