# Blender v2.78 (sub 0) OBJ File: ''
# www.blender.org
mtllib defaultcube.mtl
o DeleteTheDefaultCube
v 0.500000 1.000000 0.500000
v 0.500000 -0.000000 0.500000
v 0.500000 1.000000 -0.500000
v 0.500000 0.000000 -0.500000
v -0.500000 1.000000 -0.500000
v -0.500000 0.000000 -0.500000
v -0.500000 1.000000 0.500000
v -0.500000 -0.000000 0.500000
vt 0.0000 0.0000
vt 1.0000 0.0000
vt 1.0000 1.0000
vt 0.0000 1.0000
vt 0.0000 0.0000
vt 1.0000 0.0000
vt 1.0000 1.0000
vt 0.0000 1.0000
vt 0.0000 0.0000
vt 1.0000 0.0000
vt 1.0000 1.0000
vt 0.0000 1.0000
vt 0.0000 0.0000
vt 1.0000 0.0000
vt 1.0000 1.0000
vt 0.0000 0.0000
vt 1.0000 0.0000
vt 0.0000 1.0000
vt 1.0000 1.0000
vt 0.0000 1.0000
vn -1.0000 0.0000 0.0000
vn 0.0000 -0.0000 1.0000
vn 0.0000 0.0000 -1.0000
vn 0.0000 1.0000 0.0000
vn 1.0000 0.0000 0.0000
vn 0.0000 -1.0000 -0.0000
usemtl m_0
s 1
f 6/1/1 8/2/1 7/3/1 5/4/1
f 8/5/2 2/6/2 1/7/2 7/8/2
f 4/9/3 6/10/3 5/11/3 3/12/3
f 7/13/4 1/14/4 3/15/4 5/4/4
f 2/16/5 4/17/5 3/15/5 1/18/5
f 6/1/6 4/17/6 2/19/6 8/20/6
