# Blender v2.79 (sub 0) OBJ File: ''
# www.blender.org
mtllib siren_.mtl
o cube
v 0.500000 0.125000 -0.500000
v 0.500000 0.125000 0.500000
v 0.500000 -0.000000 0.500000
v 0.500000 0.000000 -0.500000
v -0.500000 -0.000000 0.500000
v -0.500000 0.125000 0.500000
v -0.500000 0.125000 -0.500000
v -0.500000 0.000000 -0.500000
v -0.375000 0.250000 0.375000
v 0.375000 0.250000 0.375000
v 0.375000 0.250000 -0.375000
v -0.375000 0.250000 -0.375000
v 0.250000 0.312500 -0.250000
v 0.250000 0.312500 -0.125000
v 0.312500 0.250000 -0.062500
v 0.312500 0.250000 -0.312500
v -0.312500 0.250000 -0.062500
v -0.250000 0.312500 -0.125000
v -0.250000 0.312500 -0.250000
v -0.312500 0.250000 -0.312500
v 0.250000 0.312500 0.031250
v 0.250000 0.312500 0.281250
v 0.312500 0.250000 0.343750
v 0.312500 0.250000 -0.031250
v -0.312500 0.250000 0.343750
v -0.250000 0.312500 0.281250
v -0.250000 0.312500 0.031250
v -0.312500 0.250000 -0.031250
v -0.203125 0.312500 0.234375
v 0.000000 0.312500 0.234375
v 0.000000 0.312500 0.078125
v -0.203125 0.312500 0.078125
v 0.000000 0.250000 -0.031250
v 0.000000 0.250000 0.343750
v 0.000000 0.312500 0.281250
v 0.000000 0.312500 0.031250
v 0.000000 0.296875 0.250000
v -0.218750 0.296875 0.250000
v 0.218750 0.296875 0.062500
v 0.218750 0.296875 0.250000
v -0.218750 0.296875 0.062500
v 0.000000 0.296875 0.062500
v 0.203125 0.312500 0.078125
v 0.203125 0.312500 0.234375
vt 0.500000 0.687500
vt 0.000000 0.687500
vt 0.000000 0.625000
vt 0.500000 0.625000
vt 0.500000 0.750000
vt 0.500000 0.812500
vt 0.000000 0.812500
vt 0.000000 0.750000
vt 0.062500 0.562500
vt 0.437500 0.562500
vt 0.437500 0.937500
vt 0.062500 0.937500
vt 0.500000 0.500000
vt 0.500000 1.000000
vt 0.000000 1.000000
vt 0.000000 0.500000
vt 0.500000 0.875000
vt 0.500000 0.937500
vt 0.000000 0.937500
vt 0.000000 0.875000
vt 0.500000 0.562500
vt 0.000000 0.562500
vt 0.000000 0.500000
vt 0.500000 0.500000
vt 0.437500 1.000000
vt 0.062500 1.000000
vt 0.000000 0.911613
vt 0.500000 0.911613
vt 0.437500 0.750000
vt 0.062500 0.750000
vt 0.000000 0.661613
vt 0.500000 0.661613
vt 0.437500 0.625000
vt 0.062500 0.625000
vt 0.000000 0.536613
vt 0.500000 0.536613
vt 0.437500 0.875000
vt 0.062500 0.875000
vt 0.000000 0.786613
vt 0.500000 0.786613
vt 0.625000 0.937500
vt 0.562500 0.937500
vt 0.531250 0.893306
vt 0.656250 0.893306
vt 0.656250 0.830806
vt 0.625000 0.875000
vt 0.562500 0.875000
vt 0.531250 0.830806
vt 0.500000 0.562500
vt 1.000000 0.562500
vt 1.000000 0.687500
vt 0.500000 0.687500
vt 0.906250 0.687500
vt 0.906250 0.812500
vt 0.593750 0.812500
vt 0.593750 0.687500
vt 0.968750 0.830806
vt 0.937500 0.875000
vt 0.687500 0.875000
vt 0.937500 0.937500
vt 0.687500 0.937500
vt 0.968750 0.893306
vt 0.375000 0.250000
vt 0.125000 0.250000
vt 0.062500 0.161612
vt 0.437500 0.161612
vt 0.437500 0.161612
vt 0.375000 0.250000
vt 0.125000 0.250000
vt 0.062500 0.161612
vt 0.562500 0.218750
vt 0.765625 0.218750
vt 0.765625 0.375000
vt 0.562500 0.375000
vt 0.000000 0.000000
vt 0.312500 0.000000
vt 0.312500 0.375000
vt 0.000000 0.375000
vt 0.000000 0.224106
vt 0.312500 0.224106
vt 0.312500 0.312500
vt 0.062500 0.312500
vt 0.250000 0.312500
vt 0.000000 0.312500
vt 0.000000 0.224112
vt 0.312500 0.224112
vt 0.500000 0.312500
vt 0.250000 0.312500
vt 0.250000 0.277562
vt 0.468750 0.277562
vt 0.031250 0.215062
vt 0.218750 0.215062
vt 0.250000 0.250000
vt 0.000000 0.250000
vt 0.031250 0.277556
vt 0.250000 0.277556
vt 0.250000 0.312500
vt 0.000000 0.312500
vt 0.093750 0.215062
vt 0.281250 0.215062
vt 0.312500 0.250000
vt 0.062500 0.250000
vt 0.687500 0.165400
vt 0.906250 0.165400
vt 0.906250 0.187500
vt 0.703125 0.187500
vt 0.796875 0.312500
vt 0.640625 0.312500
vt 0.625000 0.290406
vt 0.812500 0.290406
vt 0.890625 0.375000
vt 0.687500 0.375000
vt 0.687500 0.352906
vt 0.906250 0.352906
vt 0.734375 0.312500
vt 0.578125 0.312500
vt 0.562500 0.290406
vt 0.750000 0.290406
vt 0.250000 0.437500
vt 0.000000 0.437500
vt 0.000000 0.349106
vt 0.312500 0.349106
vt 0.312500 0.437500
vt 0.000000 0.437500
vt 0.000000 0.062500
vt 0.312500 0.062500
vt 0.000000 0.161612
vt 0.312500 0.161612
vt 0.312500 0.250000
vt 0.062500 0.250000
vt 0.500000 0.312500
vt 0.468750 0.277556
vt 0.687500 0.352906
vt 0.906250 0.352906
vt 0.906250 0.375000
vt 0.703125 0.375000
vt 0.953125 0.375000
vt 0.750000 0.375000
vt 0.750000 0.218750
vt 0.953125 0.218750
vt 0.890625 0.312500
vt 0.687500 0.312500
vt 0.687500 0.290400
vt 0.906250 0.290400
vt 0.031250 0.277562
vt 0.000000 0.312500
vn 1.0000 0.0000 0.0000
vn -1.0000 0.0000 0.0000
vn 0.0000 1.0000 0.0000
vn 0.0000 -1.0000 -0.0000
vn 0.0000 0.0000 1.0000
vn 0.0000 0.0000 -1.0000
vn 0.0000 0.7071 0.7071
vn 0.7071 0.7071 0.0000
vn 0.0000 0.7071 -0.7071
vn -0.7071 0.7071 0.0000
vn 0.0000 0.8944 -0.4472
vn -0.4472 0.8944 0.0000
vn 0.0000 0.8944 0.4472
vn 0.4472 0.8944 0.0000
usemtl m_0
s 1
f 1/1/1 2/2/1 3/3/1 4/4/1
f 5/5/2 6/6/2 7/7/2 8/8/2
f 9/9/3 10/10/3 11/11/3 12/12/3
f 4/13/4 3/14/4 5/15/4 8/16/4
f 3/17/5 2/18/5 6/19/5 5/20/5
f 7/21/6 1/22/6 4/23/6 8/24/6
f 10/25/7 9/26/7 6/27/7 2/28/7
f 11/29/8 10/30/8 2/31/8 1/32/8
f 12/33/9 11/34/9 1/35/9 7/36/9
f 9/37/10 12/38/10 7/39/10 6/40/10
f 13/41/8 14/42/8 15/43/8 16/44/8
f 17/45/10 18/46/10 19/47/10 20/48/10
f 18/49/3 14/50/3 13/51/3 19/52/3
f 16/53/4 15/54/4 17/55/4 20/56/4
f 15/57/7 14/58/7 18/59/7 17/45/7
f 19/60/9 13/61/9 16/44/9 20/62/9
f 21/63/8 22/64/8 23/65/8 24/66/8
f 25/67/10 26/68/10 27/69/10 28/70/10
f 29/71/3 30/72/3 31/73/3 32/74/3
f 28/75/4 33/76/4 34/77/4 25/78/4
f 25/79/7 34/80/7 35/81/7 26/82/7
f 27/83/9 36/84/9 33/85/9 28/86/9
f 26/87/11 35/88/11 37/89/11 38/90/11
f 39/91/12 40/92/12 22/93/12 21/94/12
f 41/95/13 42/96/13 36/97/13 27/98/13
f 38/99/14 41/100/14 27/101/14 26/102/14
f 38/103/7 37/104/7 30/105/7 29/106/7
f 43/107/8 44/108/8 40/109/8 39/110/8
f 32/111/9 31/112/9 42/113/9 41/114/9
f 29/115/10 32/116/10 41/117/10 38/118/10
f 22/119/7 35/120/7 34/121/7 23/122/7
f 23/123/4 34/124/4 33/125/4 24/126/4
f 24/127/9 33/128/9 36/129/9 21/130/9
f 21/131/13 36/97/13 42/96/13 39/132/13
f 39/133/9 42/134/9 31/135/9 43/136/9
f 43/137/3 31/138/3 30/139/3 44/140/3
f 44/141/7 30/142/7 37/143/7 40/144/7
f 40/145/11 37/89/11 35/88/11 22/146/11
