# Blender v2.79 (sub 0) OBJ File: ''
# www.blender.org
mtllib coronet_bumperfront.mtl
o $Bumper_Front
v -1.187500 0.093748 -0.062500
v -1.187500 0.093748 0.062500
v 1.187500 0.093748 0.062500
v 1.187500 0.093748 -0.062500
v 1.187500 -0.093752 -0.062500
v 1.187500 -0.093752 0.062500
v -1.187500 -0.093752 0.062500
v -1.187500 -0.093752 -0.062500
v -1.281250 0.062498 -0.187500
v -1.281250 0.062498 0.000000
v -1.187500 0.093748 0.062500
v -1.187500 0.093748 -0.125000
v -1.187500 -0.093752 -0.125000
v -1.187500 -0.093752 0.062500
v -1.281250 -0.062502 0.000000
v -1.281250 -0.062502 -0.187500
v 1.187500 0.093748 -0.125000
v 1.187500 0.093748 0.062500
v 1.281250 0.062498 0.000000
v 1.281250 0.062498 -0.187500
v 1.281250 -0.062502 -0.187500
v 1.281250 -0.062502 0.000000
v 1.187500 -0.093752 0.062500
v 1.187500 -0.093752 -0.125000
v -0.562500 0.093748 0.093750
v 0.000000 0.093748 0.125000
v 0.000000 0.093748 -0.031250
v -0.562500 0.093748 -0.031250
v -0.562500 -0.125002 -0.031250
v 0.000000 -0.125002 -0.031250
v 0.000000 -0.125002 0.125000
v -0.562500 -0.125002 0.093750
v -1.187500 0.093748 0.062500
v -1.187500 0.093748 -0.062500
v -1.187500 -0.093752 -0.062500
v -1.187500 -0.093752 0.062500
v 1.187500 0.093748 -0.062500
v 1.187500 0.093748 0.062500
v 1.187500 -0.093752 0.062500
v 1.187500 -0.093752 -0.062500
v -1.281250 0.093748 -0.187500
v -1.281250 0.093748 0.000000
v -1.187500 0.093748 0.062500
v -1.187500 0.093748 -0.125000
v -1.187500 -0.093752 -0.125000
v -1.187500 -0.093752 0.062500
v -1.281250 -0.062502 0.000000
v -1.281250 -0.062502 -0.187500
v 1.187500 0.093748 -0.125000
v 1.187500 0.093748 0.062500
v 1.281250 0.093748 0.000000
v 1.281250 0.093748 -0.187500
v 1.281250 -0.062502 -0.187500
v 1.281250 -0.062502 0.000000
v 1.187500 -0.093752 0.062500
v 1.187500 -0.093752 -0.125000
v 0.625000 0.093748 0.062500
v 0.625000 -0.093752 0.062500
v 0.625000 -0.093752 -0.062500
v 0.625000 0.093748 -0.062500
v -0.625000 -0.093752 0.062500
v -0.625000 0.093748 0.062500
v -0.625000 0.093748 -0.062500
v -0.625000 -0.093752 -0.062500
v 0.562500 0.093748 0.093750
v 0.562500 -0.125002 0.093750
v 0.562500 -0.125002 -0.031250
v 0.562500 0.093748 -0.031250
v -0.296875 0.124998 0.062500
v -0.343750 0.124998 0.062500
v -0.343750 0.124998 0.156250
v -0.296875 0.124998 0.125000
v -0.390625 0.124998 0.125000
v -0.390625 0.124998 0.062500
v -0.390625 -0.093752 0.062500
v -0.390625 -0.093752 0.125000
v -0.296875 -0.093752 0.125000
v -0.296875 -0.093752 0.062500
v -0.343750 -0.093752 0.156250
v -0.343750 -0.093752 0.062500
v -0.296875 -0.156252 0.093750
v -0.296875 -0.156252 0.031250
v -0.343750 -0.156252 0.125000
v -0.390625 -0.156252 0.031250
v -0.390625 -0.156252 0.093750
v -0.343750 -0.156252 0.031250
v 0.343750 0.124998 0.156250
v 0.343750 0.124998 0.062500
v 0.296875 0.124998 0.062500
v 0.296875 0.124998 0.125000
v 0.390625 -0.093752 0.062500
v 0.390625 0.124998 0.062500
v 0.390625 0.124998 0.125000
v 0.390625 -0.093752 0.125000
v 0.296875 -0.093752 0.125000
v 0.296875 -0.093752 0.062500
v 0.343750 -0.093752 0.156250
v 0.343750 -0.093752 0.062500
v 0.296875 -0.156252 0.031250
v 0.296875 -0.156252 0.093750
v 0.343750 -0.156252 0.125000
v 0.390625 -0.156252 0.093750
v 0.390625 -0.156252 0.031250
v 0.343750 -0.156252 0.031250
vt 0.685547 0.548828
vt 0.689453 0.548828
vt 0.689453 0.623047
vt 0.685547 0.623047
vt 0.689453 0.548828
vt 0.693359 0.548828
vt 0.693359 0.623047
vt 0.689453 0.623047
vt 0.685547 0.542969
vt 0.689453 0.542969
vt 0.767578 0.548828
vt 0.763672 0.548828
vt 0.763672 0.542969
vt 0.767578 0.542969
vt 0.611328 0.548828
vt 0.611328 0.542969
vt 0.365234 0.931641
vt 0.371094 0.931641
vt 0.371094 0.935547
vt 0.365234 0.935547
vt 0.371094 0.931641
vt 0.376953 0.931641
vt 0.376953 0.935547
vt 0.371094 0.935547
vt 0.365234 0.925781
vt 0.371094 0.925781
vt 0.380859 0.931641
vt 0.375000 0.931641
vt 0.375000 0.925781
vt 0.380859 0.925781
vt 0.361328 0.931641
vt 0.361328 0.925781
vt 0.740234 0.931641
vt 0.746094 0.931641
vt 0.746094 0.935547
vt 0.740234 0.935547
vt 0.746094 0.931641
vt 0.751953 0.931641
vt 0.751953 0.935547
vt 0.746094 0.935547
vt 0.740234 0.925781
vt 0.746094 0.925781
vt 0.755859 0.931641
vt 0.750000 0.931641
vt 0.750000 0.925781
vt 0.755859 0.925781
vt 0.736328 0.931641
vt 0.736328 0.925781
vt 0.689453 0.568359
vt 0.689453 0.585938
vt 0.685547 0.585938
vt 0.685547 0.568359
vt 0.689453 0.603516
vt 0.689453 0.585938
vt 0.693359 0.585938
vt 0.693359 0.603516
vt 0.689453 0.548828
vt 0.685547 0.548828
vt 0.685547 0.542969
vt 0.689453 0.542969
vt 0.767578 0.548828
vt 0.763672 0.548828
vt 0.763672 0.542969
vt 0.767578 0.542969
vt 0.708984 0.542969
vt 0.726562 0.542969
vt 0.726562 0.548828
vt 0.708984 0.548828
vt 0.666016 0.548828
vt 0.648438 0.548828
vt 0.648438 0.542969
vt 0.666016 0.542969
vt 0.365234 0.931641
vt 0.371094 0.931641
vt 0.371094 0.935547
vt 0.365234 0.935547
vt 0.371094 0.931641
vt 0.376953 0.931641
vt 0.376953 0.935547
vt 0.371094 0.935547
vt 0.365234 0.925781
vt 0.371094 0.925781
vt 0.380859 0.931641
vt 0.375000 0.931641
vt 0.375000 0.925781
vt 0.380859 0.925781
vt 0.361328 0.931641
vt 0.361328 0.925781
vt 0.740234 0.931641
vt 0.746094 0.931641
vt 0.746094 0.935547
vt 0.740234 0.935547
vt 0.746094 0.931641
vt 0.751953 0.931641
vt 0.751953 0.935547
vt 0.746094 0.935547
vt 0.740234 0.925781
vt 0.746094 0.925781
vt 0.755859 0.931641
vt 0.750000 0.931641
vt 0.750000 0.925781
vt 0.755859 0.925781
vt 0.736328 0.931641
vt 0.736328 0.925781
vt 0.746094 0.548828
vt 0.746094 0.542969
vt 0.693359 0.548828
vt 0.693359 0.566406
vt 0.689453 0.566406
vt 0.689453 0.548828
vt 0.611328 0.542969
vt 0.628906 0.542969
vt 0.628906 0.548828
vt 0.611328 0.548828
vt 0.685547 0.623047
vt 0.685547 0.605469
vt 0.689453 0.605469
vt 0.689453 0.623047
vt 0.707031 0.542969
vt 0.707031 0.548828
vt 0.689453 0.566406
vt 0.685547 0.566406
vt 0.667969 0.548828
vt 0.667969 0.542969
vt 0.689453 0.623047
vt 0.689453 0.605469
vt 0.693359 0.605469
vt 0.693359 0.623047
vt 0.744141 0.548828
vt 0.744141 0.542969
vt 0.693359 0.568359
vt 0.689453 0.568359
vt 0.630859 0.542969
vt 0.630859 0.548828
vt 0.685547 0.603516
vt 0.689453 0.603516
vt 0.265137 0.767578
vt 0.263672 0.767578
vt 0.263672 0.764648
vt 0.265137 0.765625
vt 0.265625 0.771484
vt 0.263672 0.771484
vt 0.263672 0.764648
vt 0.265625 0.764648
vt 0.265625 0.771484
vt 0.263672 0.771484
vt 0.263672 0.764648
vt 0.265625 0.764648
vt 0.267386 0.771484
vt 0.265625 0.771484
vt 0.265625 0.764648
vt 0.267386 0.764648
vt 0.261719 0.764648
vt 0.263184 0.764648
vt 0.263184 0.771484
vt 0.261719 0.771484
vt 0.262695 0.767578
vt 0.264648 0.767578
vt 0.263672 0.769531
vt 0.261719 0.769531
vt 0.263479 0.767578
vt 0.261719 0.767578
vt 0.262261 0.765463
vt 0.264021 0.765463
vt 0.261719 0.767578
vt 0.263672 0.767578
vt 0.264648 0.769531
vt 0.262695 0.769531
vt 0.265625 0.765395
vt 0.267090 0.765395
vt 0.267090 0.767578
vt 0.265625 0.767578
vt 0.265137 0.770508
vt 0.263672 0.771484
vt 0.263672 0.768555
vt 0.265137 0.768555
vt 0.263672 0.765463
vt 0.265432 0.765463
vt 0.265974 0.767578
vt 0.264214 0.767578
vt 0.259766 0.764648
vt 0.261526 0.764648
vt 0.261526 0.771484
vt 0.259766 0.771484
vt 0.263672 0.769531
vt 0.265137 0.768555
vt 0.265137 0.771484
vt 0.265137 0.771484
vt 0.263672 0.771484
vt 0.263672 0.764648
vt 0.265137 0.764648
vt 0.261230 0.767578
vt 0.259766 0.767578
vt 0.259766 0.765395
vt 0.261230 0.765395
vt 0.263672 0.764648
vt 0.265137 0.764648
vt 0.265137 0.767578
vt 0.263672 0.766602
vt 0.271484 0.764648
vt 0.271484 0.767578
vt 0.272949 0.767578
vt 0.272949 0.765625
vt 0.271484 0.764648
vt 0.271484 0.771484
vt 0.273438 0.771484
vt 0.273438 0.764648
vt 0.271484 0.764648
vt 0.271484 0.771484
vt 0.273438 0.771484
vt 0.273438 0.764648
vt 0.273438 0.764648
vt 0.273438 0.771484
vt 0.275198 0.771484
vt 0.275198 0.764648
vt 0.270996 0.771484
vt 0.270996 0.764648
vt 0.269531 0.764648
vt 0.269531 0.771484
vt 0.271484 0.769531
vt 0.272461 0.767578
vt 0.270508 0.767578
vt 0.269531 0.769531
vt 0.270073 0.765463
vt 0.269531 0.767578
vt 0.271292 0.767578
vt 0.271834 0.765463
vt 0.272461 0.769531
vt 0.271484 0.767578
vt 0.269531 0.767578
vt 0.270508 0.769531
vt 0.274902 0.767578
vt 0.274902 0.765395
vt 0.273438 0.765395
vt 0.273438 0.767578
vt 0.271484 0.768555
vt 0.271484 0.771484
vt 0.272949 0.770508
vt 0.272949 0.768555
vt 0.273787 0.767578
vt 0.273245 0.765463
vt 0.271484 0.765463
vt 0.272026 0.767578
vt 0.269339 0.771484
vt 0.269339 0.764648
vt 0.267578 0.764648
vt 0.267578 0.771484
vt 0.272949 0.771484
vt 0.272949 0.768555
vt 0.271484 0.769531
vt 0.271484 0.764648
vt 0.271484 0.771484
vt 0.272949 0.771484
vt 0.272949 0.764648
vt 0.267578 0.765395
vt 0.267578 0.767578
vt 0.269043 0.767578
vt 0.269043 0.765395
vt 0.272949 0.767578
vt 0.272949 0.764648
vt 0.271484 0.764648
vt 0.271484 0.766602
vn 0.0000 1.0000 0.0000
vn 0.0000 -1.0000 0.0000
vn -1.0000 0.0000 0.0000
vn 1.0000 0.0000 0.0000
vn 0.0000 0.0000 1.0000
vn 0.0000 0.0000 -1.0000
vn -0.3162 0.9487 0.0000
vn -0.3162 -0.9487 0.0000
vn -0.5547 0.0000 0.8321
vn 0.5547 0.0000 -0.8321
vn 0.3162 0.9487 0.0000
vn 0.3162 -0.9487 0.0000
vn 0.5547 0.0000 0.8321
vn -0.5547 0.0000 -0.8321
vn -0.0555 0.0000 0.9985
vn 0.4472 0.0000 0.8944
vn 0.4472 -0.8944 0.0000
vn -0.4472 0.0000 -0.8944
vn -0.4472 0.0000 0.8944
vn 0.4472 0.0000 -0.8944
vn -0.4472 -0.8944 0.0000
vn 0.0555 0.0000 0.9985
vn 0.5121 -0.3841 0.7682
vn 0.0000 0.4472 -0.8944
vn -0.5121 -0.3841 0.7682
usemtl m_88ababb4-4424-963d-86ea-e23bfeff6c73
s 1
f 1/1/1 2/2/1 3/3/1 4/4/1
f 5/5/2 6/6/2 7/7/2 8/8/2
f 2/2/3 1/1/3 8/9/3 7/10/3
f 4/11/4 3/12/4 6/13/4 5/14/4
f 3/12/5 2/2/5 7/10/5 6/13/5
f 1/1/6 4/15/6 5/16/6 8/9/6
f 9/17/7 10/18/7 11/19/7 12/20/7
f 13/21/8 14/22/8 15/23/8 16/24/8
f 10/18/3 9/17/3 16/25/3 15/26/3
f 12/27/4 11/28/4 14/29/4 13/30/4
f 11/28/9 10/18/9 15/26/9 14/29/9
f 9/17/10 12/31/10 13/32/10 16/25/10
f 17/33/11 18/34/11 19/35/11 20/36/11
f 21/37/12 22/38/12 23/39/12 24/40/12
f 18/34/3 17/33/3 24/41/3 23/42/3
f 20/43/4 19/44/4 22/45/4 21/46/4
f 19/44/13 18/34/13 23/42/13 22/45/13
f 17/33/14 20/47/14 21/48/14 24/41/14
f 25/49/1 26/50/1 27/51/1 28/52/1
f 29/53/2 30/54/2 31/55/2 32/56/2
f 33/57/3 34/58/3 35/59/3 36/60/3
f 37/61/4 38/62/4 39/63/4 40/64/4
f 32/65/15 31/66/15 26/67/15 25/68/15
f 28/69/6 27/70/6 30/71/6 29/72/6
f 41/73/1 42/74/1 43/75/1 44/76/1
f 45/77/8 46/78/8 47/79/8 48/80/8
f 42/74/3 41/73/3 48/81/3 47/82/3
f 44/83/4 43/84/4 46/85/4 45/86/4
f 43/84/9 42/74/9 47/82/9 46/85/9
f 41/73/10 44/87/10 45/88/10 48/81/10
f 49/89/1 50/90/1 51/91/1 52/92/1
f 53/93/12 54/94/12 55/95/12 56/96/12
f 50/90/3 49/89/3 56/97/3 55/98/3
f 52/99/4 51/100/4 54/101/4 53/102/4
f 51/100/13 50/90/13 55/98/13 54/101/13
f 49/89/14 52/103/14 53/104/14 56/97/14
f 38/62/5 57/105/5 58/106/5 39/63/5
f 39/107/2 58/108/2 59/109/2 40/110/2
f 40/111/6 59/112/6 60/113/6 37/114/6
f 37/115/1 60/116/1 57/117/1 38/118/1
f 36/60/5 61/119/5 62/120/5 33/57/5
f 33/57/1 62/121/1 63/122/1 34/58/1
f 34/58/6 63/123/6 64/124/6 35/59/6
f 35/125/2 64/126/2 61/127/2 36/128/2
f 57/105/16 65/129/16 66/130/16 58/106/16
f 58/108/17 66/131/17 67/132/17 59/109/17
f 59/112/18 67/133/18 68/134/18 60/113/18
f 60/116/1 68/135/1 65/136/1 57/117/1
f 61/119/19 32/65/19 25/68/19 62/120/19
f 62/121/1 25/49/1 28/52/1 63/122/1
f 63/123/20 28/69/20 29/72/20 64/124/20
f 64/126/21 29/53/21 32/56/21 61/127/21
f 65/129/22 26/67/22 31/66/22 66/130/22
f 66/131/2 31/55/2 30/54/2 67/132/2
f 67/133/6 30/71/6 27/70/6 68/134/6
f 68/135/1 27/51/1 26/50/1 65/136/1
f 69/137/1 70/138/1 71/139/1 72/140/1
f 73/141/3 74/142/3 75/143/3 76/144/3
f 69/145/4 72/146/4 77/147/4 78/148/4
f 72/149/13 71/150/13 79/151/13 77/152/13
f 78/153/6 80/154/6 70/155/6 69/156/6
f 81/157/4 82/158/4 78/159/4 77/160/4
f 77/161/23 79/162/23 83/163/23 81/164/23
f 84/165/3 85/166/3 76/167/3 75/168/3
f 82/169/24 86/170/24 80/171/24 78/172/24
f 81/173/2 83/174/2 86/175/2 82/176/2
f 85/177/25 83/178/25 79/179/25 76/180/25
f 76/181/9 79/182/9 71/183/9 73/184/9
f 73/185/1 71/186/1 70/187/1 74/142/1
f 74/188/6 70/189/6 80/190/6 75/191/6
f 75/192/24 80/193/24 86/194/24 84/195/24
f 84/196/2 86/197/2 83/198/2 85/199/2
f 87/200/1 88/201/1 89/202/1 90/203/1
f 91/204/4 92/205/4 93/206/4 94/207/4
f 95/208/3 90/209/3 89/210/3 96/211/3
f 97/212/9 87/213/9 90/214/9 95/215/9
f 88/216/6 98/217/6 96/218/6 89/219/6
f 96/220/3 99/221/3 100/222/3 95/223/3
f 101/224/25 97/225/25 95/226/25 100/227/25
f 94/228/4 102/229/4 103/230/4 91/231/4
f 98/232/24 104/233/24 99/234/24 96/235/24
f 104/236/2 101/237/2 100/238/2 99/239/2
f 97/240/23 101/241/23 102/242/23 94/243/23
f 87/244/13 97/245/13 94/246/13 93/247/13
f 88/248/1 87/249/1 93/250/1 92/205/1
f 98/251/6 88/252/6 92/253/6 91/254/6
f 104/255/24 98/256/24 91/257/24 103/258/24
f 101/259/2 104/260/2 103/261/2 102/262/2
