# Blender v2.79 (sub 0) OBJ File: ''
# www.blender.org
mtllib fueltank.mtl
o cube_placedonground
v 0.312500 0.062500 -0.250000
v 0.312500 0.062500 0.250000
v 0.375000 -0.000000 0.312500
v 0.375000 0.000000 -0.312500
v -0.375000 -0.000000 0.312500
v -0.312500 0.062500 0.250000
v -0.312500 0.062500 -0.250000
v -0.375000 0.000000 -0.312500
v -0.281250 -0.031250 0.312500
v -0.343750 -0.093750 0.437500
v -0.343750 -0.156250 0.437500
v -0.281250 -0.093750 0.312500
v -0.406250 -0.156250 0.437500
v -0.406250 -0.093750 0.437500
v -0.343750 -0.031250 0.312500
v -0.343750 -0.093750 0.312500
v 0.343750 -0.093750 -0.437500
v 0.343750 -0.031250 -0.312500
v 0.343750 -0.093750 -0.312500
v 0.343750 -0.156250 -0.437500
v 0.281250 -0.093750 -0.312500
v 0.281250 -0.031250 -0.312500
v 0.281250 -0.093750 -0.437500
v 0.281250 -0.156250 -0.437500
v -0.109375 -0.031250 0.312500
v -0.109375 -0.093750 0.437500
v -0.109375 -0.156250 0.437500
v -0.109375 -0.093750 0.312500
v -0.171875 -0.156250 0.437500
v -0.171875 -0.093750 0.437500
v -0.171875 -0.031250 0.312500
v -0.171875 -0.093750 0.312500
v 0.234375 -0.093750 -0.437500
v 0.171875 -0.031250 -0.312500
v 0.171875 -0.093750 -0.312500
v 0.234375 -0.156250 -0.437500
v 0.109375 -0.093750 -0.312500
v 0.109375 -0.031250 -0.312500
v 0.171875 -0.093750 -0.437500
v 0.171875 -0.156250 -0.437500
vt 0.546875 0.718750
vt 0.421875 0.718750
vt 0.406250 0.703125
vt 0.562500 0.703125
vt 0.562500 0.671875
vt 0.546875 0.687500
vt 0.421875 0.687500
vt 0.406250 0.671875
vt 0.171875 0.531250
vt 0.328125 0.531250
vt 0.328125 0.656250
vt 0.171875 0.656250
vt 0.390625 0.671875
vt 0.390625 0.828125
vt 0.203125 0.828125
vt 0.203125 0.671875
vt 0.593750 0.828125
vt 0.578125 0.843750
vt 0.421875 0.843750
vt 0.406250 0.828125
vt 0.578125 0.812500
vt 0.421875 0.812500
vt 0.406250 0.796875
vt 0.593750 0.796875
vt 0.515625 0.531250
vt 0.468750 0.531250
vt 0.468750 0.515625
vt 0.515625 0.515625
vt 0.046875 0.515625
vt 0.031250 0.515625
vt 0.031250 0.468750
vt 0.046875 0.468750
vt 0.015625 0.515625
vt 0.000000 0.515625
vt 0.000000 0.468750
vt 0.015625 0.468750
vt 0.515625 0.562500
vt 0.468750 0.562500
vt 0.468750 0.546875
vt 0.515625 0.546875
vt 0.140625 0.500000
vt 0.140625 0.515625
vt 0.125000 0.515625
vt 0.125000 0.500000
vt 0.171875 0.515625
vt 0.156250 0.515625
vt 0.156250 0.500000
vt 0.171875 0.500000
vt 0.375000 0.562500
vt 0.375000 0.515625
vt 0.390625 0.515625
vt 0.390625 0.562500
vt 0.453125 0.515625
vt 0.453125 0.531250
vt 0.406250 0.531250
vt 0.406250 0.515625
vt 0.359375 0.562500
vt 0.343750 0.562500
vt 0.343750 0.515625
vt 0.359375 0.515625
vt 0.453125 0.562500
vt 0.406250 0.562500
vt 0.406250 0.546875
vt 0.453125 0.546875
vt 0.078125 0.500000
vt 0.078125 0.515625
vt 0.062500 0.515625
vt 0.062500 0.500000
vt 0.109375 0.515625
vt 0.093750 0.515625
vt 0.093750 0.500000
vt 0.109375 0.500000
vt 0.515625 0.468750
vt 0.468750 0.468750
vt 0.468750 0.453125
vt 0.515625 0.453125
vt 0.046875 0.453125
vt 0.031250 0.453125
vt 0.031250 0.406250
vt 0.046875 0.406250
vt 0.015625 0.453125
vt 0.000000 0.453125
vt 0.000000 0.406250
vt 0.015625 0.406250
vt 0.515625 0.500000
vt 0.468750 0.500000
vt 0.468750 0.484375
vt 0.515625 0.484375
vt 0.140625 0.437500
vt 0.140625 0.453125
vt 0.125000 0.453125
vt 0.125000 0.437500
vt 0.171875 0.453125
vt 0.156250 0.453125
vt 0.156250 0.437500
vt 0.171875 0.437500
vt 0.375000 0.500000
vt 0.375000 0.453125
vt 0.390625 0.453125
vt 0.390625 0.500000
vt 0.453125 0.453125
vt 0.453125 0.468750
vt 0.406250 0.468750
vt 0.406250 0.453125
vt 0.359375 0.500000
vt 0.343750 0.500000
vt 0.343750 0.453125
vt 0.359375 0.453125
vt 0.453125 0.500000
vt 0.406250 0.500000
vt 0.406250 0.484375
vt 0.453125 0.484375
vt 0.078125 0.437500
vt 0.078125 0.453125
vt 0.062500 0.453125
vt 0.062500 0.437500
vt 0.109375 0.453125
vt 0.093750 0.453125
vt 0.093750 0.437500
vt 0.109375 0.437500
vn 0.7071 0.7071 0.0000
vn -0.7071 0.7071 0.0000
vn 0.0000 1.0000 0.0000
vn 0.0000 -1.0000 -0.0000
vn 0.0000 0.7071 0.7071
vn 0.0000 0.7071 -0.7071
vn 0.8944 0.0000 0.4472
vn -0.8944 0.0000 -0.4472
vn 0.0000 0.8944 0.4472
vn 0.0000 -0.8944 -0.4472
vn 0.0000 0.0000 1.0000
vn 0.0000 0.0000 -1.0000
vn 1.0000 0.0000 0.0000
vn -1.0000 0.0000 0.0000
vn 0.0000 0.8944 -0.4472
vn 0.0000 -0.8944 0.4472
usemtl m_e11b27a0-279a-0958-ff58-4995937084ef
s 1
f 1/1/1 2/2/1 3/3/1 4/4/1
f 5/5/2 6/6/2 7/7/2 8/8/2
f 6/9/3 2/10/3 1/11/3 7/12/3
f 4/13/4 3/14/4 5/15/4 8/16/4
f 3/17/5 2/18/5 6/19/5 5/20/5
f 7/21/6 1/22/6 4/23/6 8/24/6
f 9/25/7 10/26/7 11/27/7 12/28/7
f 13/29/8 14/30/8 15/31/8 16/32/8
f 14/33/9 10/34/9 9/35/9 15/36/9
f 12/37/10 11/38/10 13/39/10 16/40/10
f 11/41/11 10/42/11 14/43/11 13/44/11
f 15/45/12 9/46/12 12/47/12 16/48/12
f 17/49/13 18/50/13 19/51/13 20/52/13
f 21/53/14 22/54/14 23/55/14 24/56/14
f 22/57/15 18/58/15 17/59/15 23/60/15
f 20/61/16 19/62/16 21/63/16 24/64/16
f 19/65/11 18/66/11 22/67/11 21/68/11
f 23/69/12 17/70/12 20/71/12 24/72/12
f 25/73/13 26/74/13 27/75/13 28/76/13
f 29/77/14 30/78/14 31/79/14 32/80/14
f 30/81/9 26/82/9 25/83/9 31/84/9
f 28/85/10 27/86/10 29/87/10 32/88/10
f 27/89/11 26/90/11 30/91/11 29/92/11
f 31/93/12 25/94/12 28/95/12 32/96/12
f 33/97/7 34/98/7 35/99/7 36/100/7
f 37/101/8 38/102/8 39/103/8 40/104/8
f 38/105/15 34/106/15 33/107/15 39/108/15
f 36/109/16 35/110/16 37/111/16 40/112/16
f 35/113/11 34/114/11 38/115/11 37/116/11
f 39/117/12 33/118/12 36/119/12 40/120/12
o #gas_translucent
v -0.500000 -0.185547 0.500000
v 0.500000 -0.185547 0.500000
v 0.500000 -0.185547 -0.500000
v -0.500000 -0.185547 -0.500000
vt 0.750000 0.000000
vt 1.000000 0.000000
vt 1.000000 0.250000
vt 0.750000 0.250000
vn 0.0000 1.0000 0.0000
usemtl m_e11b27a0-279a-0958-ff58-4995937084ef
s 1
f 41/121/17 42/122/17 43/123/17 44/124/17
o bulge
v 0.187500 -0.250000 -0.125000
v 0.187500 -0.250000 0.125000
v -0.187500 -0.250000 0.125000
v -0.187500 -0.250000 -0.125000
v 0.312500 -0.187500 -0.250000
v 0.312500 -0.187500 0.250000
v -0.312500 -0.187500 0.250000
v -0.312500 -0.187500 -0.250000
vt 0.125000 0.562500
vt 0.125000 0.625000
vt 0.031250 0.625000
vt 0.031250 0.562500
vt 0.156250 0.531250
vt 0.156250 0.656250
vt 0.000000 0.656250
vt 0.000000 0.531250
vn 0.0000 -1.0000 0.0000
vn 0.4472 -0.8944 0.0000
vn 0.0000 -0.8944 0.4472
vn -0.4472 -0.8944 0.0000
vn 0.0000 -0.8944 -0.4472
usemtl m_e11b27a0-279a-0958-ff58-4995937084ef
s 1
f 45/125/18 46/126/18 47/127/18 48/128/18
f 46/126/19 45/125/19 49/129/19 50/130/19
f 47/127/20 46/126/20 50/130/20 51/131/20
f 48/128/21 47/127/21 51/131/21 52/132/21
f 45/125/22 48/128/22 52/132/22 49/129/22
o cube
v 0.375000 0.000000 -0.312500
v 0.375000 -0.000000 0.312500
v 0.375000 -0.125000 0.312500
v 0.375000 -0.125000 -0.312500
v -0.375000 -0.125000 0.312500
v -0.375000 -0.000000 0.312500
v -0.375000 0.000000 -0.312500
v -0.375000 -0.125000 -0.312500
v 0.375000 -0.125000 -0.312500
v 0.375000 -0.125000 0.312500
v 0.312500 -0.187500 0.250000
v 0.312500 -0.187500 -0.250000
v -0.312500 -0.187500 0.250000
v -0.375000 -0.125000 0.312500
v -0.375000 -0.125000 -0.312500
v -0.312500 -0.187500 -0.250000
vt 0.562500 1.000000
vt 0.406250 1.000000
vt 0.406250 0.968750
vt 0.562500 0.968750
vt 0.562500 0.921875
vt 0.562500 0.953125
vt 0.406250 0.953125
vt 0.406250 0.921875
vt 0.000000 0.843750
vt 0.187500 0.843750
vt 0.187500 1.000000
vt 0.000000 1.000000
vt 0.187500 0.671875
vt 0.187500 0.828125
vt 0.000000 0.828125
vt 0.000000 0.671875
vt 0.531250 0.625000
vt 0.531250 0.656250
vt 0.343750 0.656250
vt 0.343750 0.625000
vt 0.531250 0.609375
vt 0.343750 0.609375
vt 0.343750 0.578125
vt 0.531250 0.578125
vt 0.562500 0.781250
vt 0.406250 0.781250
vt 0.421875 0.765625
vt 0.546875 0.765625
vt 0.546875 0.734375
vt 0.562500 0.750000
vt 0.406250 0.750000
vt 0.421875 0.734375
vt 0.203125 0.843750
vt 0.390625 0.843750
vt 0.390625 1.000000
vt 0.203125 1.000000
vt 0.578125 0.890625
vt 0.593750 0.906250
vt 0.406250 0.906250
vt 0.421875 0.890625
vt 0.593750 0.875000
vt 0.406250 0.875000
vt 0.421875 0.859375
vt 0.578125 0.859375
vn 1.0000 0.0000 0.0000
vn -1.0000 0.0000 0.0000
vn 0.0000 1.0000 0.0000
vn 0.0000 -1.0000 -0.0000
vn 0.0000 0.0000 1.0000
vn 0.0000 0.0000 -1.0000
vn 0.7071 -0.7071 -0.0000
vn -0.7071 -0.7071 -0.0000
vn 0.0000 -0.7071 0.7071
vn 0.0000 -0.7071 -0.7071
usemtl m_e11b27a0-279a-0958-ff58-4995937084ef
s 1
f 53/133/23 54/134/23 55/135/23 56/136/23
f 57/137/24 58/138/24 59/139/24 60/140/24
f 58/141/25 54/142/25 53/143/25 59/144/25
f 56/145/26 55/146/26 57/147/26 60/148/26
f 55/149/27 54/150/27 58/151/27 57/152/27
f 59/153/28 53/154/28 56/155/28 60/156/28
f 61/157/29 62/158/29 63/159/29 64/160/29
f 65/161/30 66/162/30 67/163/30 68/164/30
f 66/165/25 62/166/25 61/167/25 67/168/25
f 63/169/31 62/170/31 66/171/31 65/172/31
f 67/173/32 61/174/32 64/175/32 68/176/32
