# Blender v2.79 (sub 0) OBJ File: ''
# www.blender.org
mtllib hitchadapterxl.mtl
o connector_industrial
v -0.046875 -0.000000 -0.046875
v -0.046875 0.000000 0.046875
v -0.046875 0.015625 0.046875
v -0.046875 0.015625 -0.046875
v 0.046875 0.015625 0.046875
v 0.046875 0.000000 0.046875
v 0.046875 -0.000000 -0.046875
v 0.046875 0.015625 -0.046875
v -0.011719 0.097656 -0.011719
v -0.011719 0.097656 0.011719
v 0.011719 0.097656 0.011719
v 0.011719 0.097656 -0.011719
v 0.046875 0.046875 0.035156
v -0.046875 0.046875 0.035156
v -0.046875 0.046875 -0.058594
v 0.046875 0.046875 -0.058594
v 0.046875 0.078125 0.046875
v -0.046875 0.078125 0.046875
v -0.046875 0.078125 -0.046875
v 0.046875 0.078125 -0.046875
v 0.041016 0.085938 0.041016
v -0.041016 0.085938 0.041016
v -0.041016 0.085938 -0.041016
v 0.041016 0.085938 -0.041016
v 0.035156 0.093750 0.035156
v -0.035156 0.093750 0.035156
v -0.035156 0.093750 -0.035156
v 0.035156 0.093750 -0.035156
vt 0.500000 0.062500
vt 0.500000 0.125000
vt 0.562500 0.125000
vt 0.562500 0.062500
vt 0.500000 0.125000
vt 0.562500 0.125000
vt 0.562500 0.062500
vt 0.500000 0.062500
vt 0.562500 0.062500
vt 0.500000 0.062500
vt 0.500000 0.125000
vt 0.562500 0.125000
vt 0.500000 0.125000
vt 0.562500 0.125000
vt 0.562500 0.062500
vt 0.500000 0.062500
vt 0.585938 0.023438
vt 0.585938 0.039062
vt 0.601562 0.039062
vt 0.601562 0.023438
vt 0.312500 0.250000
vt 0.312500 0.500000
vt 0.187500 0.500000
vt 0.187500 0.250000
vt 0.202257 0.500000
vt 0.320312 0.500000
vt 0.305556 0.250000
vt 0.312500 0.250000
vt 0.312500 0.500000
vt 0.187500 0.500000
vt 0.187500 0.250000
vt 0.305556 0.250000
vt 0.320312 0.500000
vt 0.202257 0.500000
vt 0.187500 0.250000
vt 0.312500 0.250000
vt 0.312500 0.500000
vt 0.437500 0.500000
vt 0.437500 0.250000
vt 0.327257 0.250000
vt 0.312500 0.500000
vt 0.430556 0.500000
vt 0.445312 0.250000
vt 0.312500 0.250000
vt 0.312500 0.500000
vt 0.437500 0.500000
vt 0.437500 0.250000
vt 0.445312 0.250000
vt 0.430556 0.500000
vt 0.327257 0.250000
vt 0.621094 0.093506
vt 0.566406 0.093506
vt 0.562500 0.125000
vt 0.625000 0.125000
vt 0.593994 0.121094
vt 0.593994 0.066406
vt 0.562500 0.062500
vt 0.566406 0.093506
vt 0.621094 0.093506
vt 0.625000 0.062013
vt 0.562500 0.062013
vt 0.593994 0.066406
vt 0.593994 0.121094
vt 0.625488 0.125000
vt 0.625488 0.062500
vt 0.617188 0.054688
vt 0.601562 0.032594
vt 0.585938 0.032594
vt 0.570312 0.054688
vt 0.592412 0.039062
vt 0.592412 0.023438
vt 0.570312 0.007812
vt 0.570312 0.009156
vt 0.585938 0.031250
vt 0.601562 0.031250
vt 0.617188 0.009156
vt 0.615850 0.007812
vt 0.593750 0.023438
vt 0.593750 0.039062
vt 0.615850 0.054688
vt 0.554931 0.062744
vt 0.554931 0.008056
vt 0.523438 0.011963
vt 0.523438 0.058837
vt 0.500000 0.062744
vt 0.554688 0.062744
vt 0.550781 0.031250
vt 0.503906 0.031250
vt 0.500000 0.008056
vt 0.531494 0.058837
vt 0.531494 0.011963
vt 0.554688 0.000000
vt 0.500000 0.000000
vt 0.503906 0.031494
vt 0.550781 0.031494
vn -1.0000 0.0000 0.0000
vn 1.0000 0.0000 -0.0000
vn 0.0000 0.0000 1.0000
vn -0.0000 0.0000 -1.0000
vn 0.0000 -1.0000 0.0000
vn 0.0000 1.0000 -0.0000
vn 0.0000 0.3511 0.9363
vn -0.0000 -0.3511 -0.9363
vn 0.0000 -0.3511 0.9363
vn -0.0000 0.3511 -0.9363
vn 0.0000 0.6000 0.8000
vn -0.8000 0.6000 0.0000
vn -0.0000 0.6000 -0.8000
vn 0.8000 0.6000 -0.0000
vn 0.0000 0.9864 0.1644
vn -0.1644 0.9864 0.0000
vn -0.0000 0.9864 -0.1644
vn 0.1644 0.9864 -0.0000
usemtl m_4c7fa4ea-1a1b-cd61-28db-dd4dffbe0852
s 1
f 1/1/1 2/2/1 3/3/1 4/4/1
f 5/5/2 6/6/2 7/7/2 8/8/2
f 3/3/3 2/9/3 6/10/3 5/5/3
f 7/11/4 1/12/4 4/4/4 8/8/4
f 6/13/5 2/14/5 1/15/5 7/16/5
f 9/17/6 10/18/6 11/19/6 12/20/6
f 5/21/7 13/22/7 14/23/7 3/24/7
f 3/24/1 14/25/1 15/26/1 4/27/1
f 4/28/8 15/29/8 16/30/8 8/31/8
f 8/32/2 16/33/2 13/34/2 5/35/2
f 13/36/9 17/37/9 18/38/9 14/39/9
f 14/40/1 18/41/1 19/42/1 15/43/1
f 15/44/10 19/45/10 20/46/10 16/47/10
f 16/48/2 20/49/2 17/37/2 13/50/2
f 21/51/11 22/52/11 18/53/11 17/54/11
f 22/55/12 23/56/12 19/57/12 18/53/12
f 23/58/13 24/59/13 20/60/13 19/61/13
f 24/62/14 21/63/14 17/64/14 20/65/14
f 25/66/15 11/67/15 10/68/15 26/69/15
f 26/69/16 10/70/16 9/71/16 27/72/16
f 27/73/17 9/74/17 12/75/17 28/76/17
f 28/77/18 12/78/18 11/79/18 25/80/18
f 21/81/14 24/82/14 28/83/14 25/84/14
f 22/85/11 21/86/11 25/87/11 26/88/11
f 23/89/12 22/85/12 26/90/12 27/91/12
f 24/92/13 23/93/13 27/94/13 28/95/13
