# Blender v2.79 (sub 0) OBJ File: ''
# www.blender.org
mtllib hitchadapter.mtl
o connector
v -0.023438 0.125000 0.023438
v -0.023438 0.125000 -0.023438
v -0.031250 0.101563 -0.031250
v -0.031250 0.101563 0.031250
v 0.031250 0.101563 -0.031250
v 0.023438 0.125000 -0.023438
v 0.023438 0.125000 0.023438
v 0.031250 0.101563 0.031250
v -0.031250 0.000000 0.031250
v -0.031250 0.000000 -0.031250
v 0.031250 0.000000 -0.031250
v 0.031250 0.000000 0.031250
vt 0.312500 0.187500
vt 0.500000 0.187500
vt 0.500000 0.250000
vt 0.312500 0.250000
vt 0.312500 0.187500
vt 0.500000 0.187500
vt 0.500000 0.250000
vt 0.312500 0.250000
vt 0.312500 0.000000
vt 0.500000 0.000000
vt 0.500000 0.187500
vt 0.312500 0.187500
vt 0.500000 0.125000
vt 0.625000 0.125000
vt 0.625000 0.250000
vt 0.500000 0.250000
vt 0.312500 0.187500
vt 0.500000 0.250000
vt 0.312500 0.250000
vt 0.500000 0.250000
vt 0.625000 0.000000
vt 0.812500 0.000000
vt 0.812500 0.281250
vt 0.625000 0.281250
vt 0.812500 0.000000
vt 0.812500 0.281250
vt 0.625000 0.000000
vt 0.625000 0.281250
vn -0.9487 0.3162 0.0000
vn 0.9487 0.3162 0.0000
vn 0.0000 1.0000 0.0000
vn 0.0000 -1.0000 -0.0000
vn 0.0000 0.3162 -0.9487
vn 0.0000 0.3162 0.9487
vn -1.0000 0.0000 0.0000
vn 0.0000 0.0000 -1.0000
vn 1.0000 0.0000 0.0000
vn 0.0000 0.0000 1.0000
usemtl m_0
s 1
f 1/1/1 2/2/1 3/3/1 4/4/1
f 5/5/2 6/6/2 7/7/2 8/8/2
f 6/9/3 2/10/3 1/11/3 7/12/3
f 9/13/4 10/14/4 11/15/4 12/16/4
f 3/17/5 2/2/5 6/18/5 5/19/5
f 7/12/6 1/11/6 4/20/6 8/8/6
f 10/21/7 9/22/7 4/23/7 3/24/7
f 11/25/8 10/21/8 3/24/8 5/26/8
f 12/27/9 11/25/9 5/26/9 8/28/9
f 9/22/10 12/27/10 8/28/10 4/23/10
