# Blender v2.79 (sub 0) OBJ File: ''
# www.blender.org
mtllib kristiina_hood_cut.mtl
o $Hood
v 0.750000 -0.156272 1.585938
v 0.750000 -0.187522 1.562500
v 0.750000 -0.187522 1.578125
v 0.000000 -0.000022 1.562500
v 0.500000 -0.000022 1.531250
v 0.500000 -0.000022 1.406250
v 0.000000 -0.000022 1.500000
v 0.500000 0.062478 1.406250
v 0.773438 -0.000022 1.375000
v 0.750000 -0.062522 1.437500
v 0.750000 -0.062522 1.500000
v 0.500000 -0.000022 1.468750
v 0.750000 -0.125022 1.500000
v 0.750000 -0.125022 1.562500
v 0.500000 -0.125022 1.593750
v 0.500000 -0.125022 1.531250
v -0.500000 -0.000022 1.406250
v -0.500000 0.062478 1.406250
v -0.500000 -0.000022 1.468750
v -0.773438 -0.062522 1.375000
v -0.750000 -0.062522 1.437500
v -0.750000 -0.062522 1.500000
v -0.500000 -0.000022 1.531250
v -0.500000 -0.125022 1.531250
v -0.500000 -0.125022 1.593750
v -1.000000 0.062478 0.000000
v -0.773438 -0.000022 1.375000
v -0.937500 0.062478 0.000000
v -0.937500 -0.000022 -0.000000
v -1.000000 -0.000022 -0.000000
v 0.937500 0.062478 0.000000
v 1.000000 0.062478 0.000000
v 1.000000 -0.000022 -0.000000
v 0.773438 -0.062522 1.375000
v 0.937500 -0.000022 -0.000000
v 0.000000 0.062478 0.000000
v 0.000000 0.062478 1.437500
v 0.000000 -0.000022 1.437500
v 0.000000 -0.000022 -0.000000
v 0.000000 -0.125022 1.562500
v 0.000000 -0.125022 1.625000
v 0.750000 -0.187522 1.500000
v 0.000000 -0.187522 1.625000
v -0.750000 -0.125022 1.500000
v 0.000000 -0.187522 1.562500
v -0.750000 -0.187522 1.562500
v -0.750000 -0.187522 1.500000
v -0.750000 -0.125022 1.562500
v -0.750000 -0.156272 1.585938
v 0.000000 -0.156272 1.648438
v 0.000000 -0.187522 1.640625
v -0.750000 -0.187522 1.578125
v 0.000000 -0.000022 1.125000
v 0.000000 0.062478 1.125000
v -0.343750 0.062478 1.125000
v -0.343750 -0.000022 1.125000
v 0.343750 -0.000022 1.125000
v 0.343750 -0.000022 0.171875
v 0.343750 0.062478 1.125000
v 0.343750 0.062478 0.171875
v -0.343750 0.062478 0.171875
v -0.343750 -0.000022 0.171875
v 0.000000 -0.000022 0.171875
v 0.000000 0.062478 0.171875
v 0.343750 -0.000022 1.125000
v 0.343750 0.062478 1.125000
v 0.343750 -0.000022 0.171875
v 0.343750 0.062478 0.171875
v -0.343750 -0.000022 0.171875
v -0.343750 0.062478 0.171875
v 0.000000 -0.000022 0.171875
v 0.000000 0.062478 0.171875
v -0.343750 -0.000022 1.125000
v -0.343750 0.062478 1.125000
v 0.000000 -0.000022 1.125000
v 0.000000 0.062478 1.125000
vt 0.814453 0.810547
vt 0.816406 0.810547
vt 0.816406 0.841797
vt 0.814453 0.841797
vt 0.816406 0.810547
vt 0.818359 0.810547
vt 0.818359 0.841797
vt 0.816406 0.841797
vt 0.814453 0.808594
vt 0.816406 0.808594
vt 0.849609 0.810547
vt 0.847656 0.810547
vt 0.847656 0.808594
vt 0.849609 0.808594
vt 0.783203 0.810547
vt 0.783203 0.808594
vt 0.501953 0.966797
vt 0.503906 0.966797
vt 0.503906 0.982422
vt 0.501953 0.982422
vt 0.503906 0.966797
vt 0.505859 0.966797
vt 0.505859 0.982422
vt 0.503906 0.982422
vt 0.501953 0.960938
vt 0.503906 0.960938
vt 0.521484 0.966797
vt 0.519531 0.966797
vt 0.519531 0.960938
vt 0.521484 0.960938
vt 0.486328 0.966797
vt 0.486328 0.960938
vt 0.501953 0.794922
vt 0.503906 0.794922
vt 0.503906 0.810547
vt 0.501953 0.810547
vt 0.501953 0.791016
vt 0.503906 0.791016
vt 0.521484 0.794922
vt 0.519531 0.794922
vt 0.519531 0.791016
vt 0.521484 0.791016
vt 0.486328 0.794922
vt 0.486328 0.791016
vt 0.970703 0.794922
vt 0.972656 0.794922
vt 0.972656 0.810547
vt 0.970703 0.810547
vt 0.972656 0.794922
vt 0.974609 0.794922
vt 0.974609 0.810547
vt 0.972656 0.810547
vt 0.990234 0.794922
vt 0.988281 0.794922
vt 0.988281 0.791016
vt 0.990234 0.791016
vt 0.972656 0.791016
vt 0.955078 0.794922
vt 0.955078 0.791016
vt 0.970703 0.791016
vt 0.894531 0.779297
vt 0.896484 0.779297
vt 0.896484 0.794922
vt 0.894531 0.794922
vt 0.912109 0.779297
vt 0.910156 0.779297
vt 0.910156 0.773438
vt 0.912109 0.773438
vt 0.894531 0.779297
vt 0.894531 0.773438
vt 0.892578 0.779297
vt 0.876953 0.779297
vt 0.876953 0.773438
vt 0.892578 0.773438
vt 0.392578 0.763672
vt 0.394531 0.763672
vt 0.394531 0.779297
vt 0.392578 0.779297
vt 0.394531 0.763672
vt 0.396484 0.763672
vt 0.396484 0.779297
vt 0.394531 0.779297
vt 0.392578 0.757812
vt 0.394531 0.757812
vt 0.410156 0.763672
vt 0.410156 0.757812
vt 0.376953 0.763672
vt 0.376953 0.757812
vt 0.517578 0.763672
vt 0.519531 0.763672
vt 0.519531 0.779297
vt 0.517578 0.779297
vt 0.517578 0.759766
vt 0.519531 0.759766
vt 0.535156 0.763672
vt 0.535156 0.759766
vt 0.501953 0.763672
vt 0.501953 0.759766
vt 0.423828 0.748047
vt 0.425781 0.748047
vt 0.425781 0.763672
vt 0.423828 0.763672
vt 0.425781 0.748047
vt 0.427734 0.748047
vt 0.427734 0.763672
vt 0.425781 0.763672
vt 0.423828 0.744141
vt 0.425781 0.744141
vt 0.441406 0.748047
vt 0.441406 0.744141
vt 0.408203 0.748047
vt 0.408203 0.744141
vt 0.472656 0.748047
vt 0.474609 0.748047
vt 0.474609 0.763672
vt 0.472656 0.763672
vt 0.472656 0.748047
vt 0.470703 0.748047
vt 0.470703 0.742188
vt 0.472656 0.742188
vt 0.488281 0.748047
vt 0.488281 0.742188
vt 0.455078 0.748047
vt 0.455078 0.742188
vt 0.309475 0.734105
vt 0.280585 0.738787
vt 0.275391 0.724609
vt 0.352444 0.738551
vt 0.361328 0.748047
vt 0.318359 0.748047
vt 0.318359 0.724609
vt 0.275391 0.722656
vt 0.318359 0.722656
vt 0.384766 0.724609
vt 0.379628 0.724376
vt 0.379628 0.722656
vt 0.384766 0.722656
vt 0.251953 0.724609
vt 0.251953 0.722656
vt 0.166016 0.802734
vt 0.208984 0.802734
vt 0.208984 0.810547
vt 0.166016 0.810547
vt 0.208984 0.802734
vt 0.251953 0.802734
vt 0.251953 0.810547
vt 0.208984 0.810547
vt 0.166016 0.800781
vt 0.208984 0.800781
vt 0.158203 0.802734
vt 0.158203 0.800781
vt 0.541016 0.755859
vt 0.583984 0.755859
vt 0.583984 0.763672
vt 0.541016 0.763672
vt 0.583984 0.755859
vt 0.626953 0.755859
vt 0.626953 0.763672
vt 0.583984 0.763672
vt 0.541016 0.753906
vt 0.583984 0.753906
vt 0.634766 0.755859
vt 0.591797 0.755859
vt 0.591797 0.753906
vt 0.634766 0.753906
vt 0.533203 0.755859
vt 0.533203 0.753906
vt 0.528225 0.738551
vt 0.537109 0.748047
vt 0.494141 0.748047
vt 0.571194 0.734105
vt 0.542304 0.738787
vt 0.537109 0.724609
vt 0.537109 0.724609
vt 0.527768 0.724609
vt 0.527768 0.722656
vt 0.537109 0.722656
vt 0.494141 0.724609
vt 0.470703 0.724609
vt 0.470703 0.722656
vt 0.494141 0.722656
vt 0.470703 0.779297
vt 0.472656 0.779297
vt 0.472656 0.810547
vt 0.470703 0.810547
vt 0.472656 0.779297
vt 0.474609 0.779297
vt 0.474609 0.810547
vt 0.472656 0.810547
vt 0.470703 0.777344
vt 0.472656 0.777344
vt 0.505859 0.779297
vt 0.503906 0.779297
vt 0.503906 0.777344
vt 0.505859 0.777344
vt 0.439453 0.779297
vt 0.439453 0.777344
vt 0.048828 0.732422
vt 0.050781 0.732422
vt 0.050781 0.763672
vt 0.048828 0.763672
vt 0.050781 0.732422
vt 0.052734 0.732422
vt 0.052734 0.763672
vt 0.050781 0.763672
vt 0.048828 0.730469
vt 0.050781 0.730469
vt 0.082031 0.732422
vt 0.082031 0.730469
vt 0.017578 0.732422
vt 0.017578 0.730469
vt 0.814453 0.810547
vt 0.816406 0.810547
vt 0.816406 0.841797
vt 0.814453 0.841797
vt 0.816406 0.810547
vt 0.818359 0.810547
vt 0.818359 0.841797
vt 0.816406 0.841797
vt 0.814453 0.808594
vt 0.816406 0.808594
vt 0.847656 0.810547
vt 0.847656 0.808594
vt 0.494141 0.724609
vt 0.494141 0.722656
vt 0.470703 0.722656
vt 0.470703 0.724609
vt 0.275391 0.722656
vt 0.251953 0.722656
vt 0.251953 0.724609
vt 0.275391 0.724609
vt 0.379628 0.724609
vt 0.351138 0.724609
vt 0.351138 0.722656
vt 0.379628 0.722656
vt 0.503906 0.794922
vt 0.503906 0.810547
vt 0.501953 0.810547
vt 0.501953 0.794922
vt 0.517578 0.763672
vt 0.519531 0.763672
vt 0.519531 0.779297
vt 0.517578 0.779297
vt 0.351138 0.722656
vt 0.351138 0.724609
vt 0.379628 0.724609
vt 0.379628 0.722656
vt 0.280528 0.748047
vt 0.275391 0.748047
vt 0.318359 0.724609
vt 0.323554 0.733869
vt 0.323497 0.724609
vt 0.499335 0.733869
vt 0.499278 0.724609
vt 0.580078 0.748047
vt 0.570737 0.748047
vt 0.580078 0.724609
vt 0.361328 0.724609
vt 0.351987 0.724609
vt 0.542247 0.748047
vt 0.537109 0.748047
vt 0.318359 0.748047
vt 0.309018 0.748047
vn 0.0665 0.5987 0.7982
vn 0.0000 -1.0000 0.0000
vn -1.0000 0.0000 0.0000
vn 1.0000 0.0000 0.0000
vn 0.0806 -0.2418 0.9670
vn -0.0830 0.0000 -0.9965
vn 0.0000 1.0000 0.0000
vn 0.0558 0.4465 0.8930
vn -0.0558 -0.4465 -0.8930
vn -0.0624 0.0000 -0.9981
vn 0.0279 0.8941 0.4470
vn -0.1135 0.0000 -0.9935
vn -0.2425 -0.9701 -0.0000
vn 0.9829 0.0000 0.1843
vn 0.2476 0.8666 0.4333
vn -0.2314 -0.9690 -0.0868
vn 0.2182 0.4364 0.8729
vn -0.2563 -0.6835 -0.6835
vn -0.0558 0.4465 0.8930
vn 0.0558 -0.4465 -0.8930
vn 0.0624 0.0000 -0.9981
vn -0.0279 0.8941 0.4470
vn 0.1135 0.0000 -0.9935
vn 0.2425 -0.9701 -0.0000
vn -0.9363 -0.0000 0.3511
vn -0.2474 0.8473 0.4700
vn 0.2228 -0.9749 0.0000
vn -0.2563 0.6835 0.6835
vn 0.2182 -0.4365 -0.8729
vn 0.2182 -0.4364 -0.8729
vn -0.9549 0.0000 0.2971
vn 0.0000 0.0000 -1.0000
vn -0.2310 0.9695 0.0821
vn 0.2300 -0.9706 -0.0716
vn -0.9867 0.0000 0.1626
vn 0.2300 0.9705 0.0716
vn 0.2300 0.9706 0.0716
vn -0.2310 -0.9695 -0.0821
vn -0.9549 0.0000 -0.2971
vn 0.9867 0.0000 0.1626
vn -0.0830 0.0000 0.9965
vn 0.0830 0.0000 -0.9965
vn -0.0665 0.5987 0.7982
vn -0.0806 -0.2418 0.9670
vn -0.0000 -0.0000 1.0000
usemtl m_8075f062-5e3f-bfc2-4764-a4aa01724f70
s off
f 41/1/1 50/2/1 1/3/1 14/4/1
f 2/5/2 3/6/2 51/7/2 43/8/2
f 50/2/3 41/1/3 43/9/3 51/10/3
f 14/11/4 1/12/4 3/13/4 2/14/4
f 1/12/5 50/2/5 51/10/5 3/13/5
f 41/1/6 14/15/6 2/16/6 43/9/6
f 7/17/7 4/18/7 5/19/7 12/20/7
f 16/21/2 15/22/2 41/23/2 40/24/2
f 4/18/3 7/17/3 40/25/3 41/26/3
f 12/27/4 5/28/4 15/29/4 16/30/4
f 5/28/8 4/18/8 41/26/8 15/29/8
f 7/17/9 12/31/9 16/32/9 40/25/9
f 38/33/10 37/34/10 8/35/10 6/36/10
f 37/34/3 38/33/3 7/37/3 4/38/3
f 6/39/4 8/40/4 5/41/4 12/42/4
f 8/40/11 37/34/11 4/38/11 5/41/11
f 38/33/2 6/43/2 12/44/2 7/37/2
f 6/45/12 8/46/12 9/47/12 34/48/12
f 10/49/13 11/50/13 5/51/13 12/52/13
f 34/53/14 9/54/14 11/55/14 10/56/14
f 9/54/15 8/46/15 5/57/15 11/55/15
f 6/45/16 34/58/16 10/59/16 12/60/16
f 13/61/2 14/62/2 15/63/2 16/64/2
f 10/65/4 11/66/4 14/67/4 13/68/4
f 11/66/17 5/69/17 15/70/17 14/67/17
f 12/71/18 10/72/18 13/73/18 16/74/18
f 19/75/7 23/76/7 4/77/7 7/78/7
f 40/79/2 41/80/2 25/81/2 24/82/2
f 23/76/3 19/75/3 24/83/3 25/84/3
f 4/85/19 23/76/19 25/84/19 41/86/19
f 19/75/20 7/87/20 40/88/20 24/83/20
f 17/89/21 18/90/21 37/91/21 38/92/21
f 18/90/3 17/89/3 19/93/3 23/94/3
f 37/95/22 18/90/22 23/94/22 4/96/22
f 17/89/2 38/97/2 7/98/2 19/93/2
f 20/99/23 27/100/23 18/101/23 17/102/23
f 19/103/24 23/104/24 22/105/24 21/106/24
f 27/100/25 20/99/25 21/107/25 22/108/25
f 18/109/26 27/100/26 22/108/26 23/110/26
f 20/99/27 17/111/27 19/112/27 21/107/27
f 24/113/2 25/114/2 48/115/2 44/116/2
f 22/117/3 21/118/3 44/119/3 48/120/3
f 23/121/28 22/117/28 48/120/28 25/122/28
f 21/118/29 19/123/30 24/124/29 44/119/30
f 74/125/7 70/126/7 28/127/7
f 73/128/2 17/129/2 29/130/2
f 18/131/31 28/127/31 29/132/31 17/133/31
f 36/134/4 72/135/4 71/136/4 39/137/4
f 28/127/32 36/138/32 39/139/32 29/132/32
f 26/140/33 27/141/33 18/142/33 28/143/33
f 29/144/34 17/145/34 20/146/34 30/147/34
f 27/141/35 26/140/35 30/148/35 20/149/35
f 26/140/32 28/150/32 29/151/32 30/148/32
f 31/152/36 8/153/37 9/154/37 32/155/36
f 33/156/38 34/157/38 6/158/38 35/159/38
f 8/153/39 31/152/39 35/160/39 6/161/39
f 32/162/40 9/163/40 34/164/40 33/165/40
f 31/152/32 32/166/32 33/167/32 35/160/32
f 66/168/7 8/169/7 31/170/7
f 65/171/2 67/172/2 35/173/2
f 37/174/3 76/175/3 75/176/3 38/177/3
f 36/178/32 31/179/32 35/180/32 39/181/32
f 40/182/7 41/183/7 14/184/7 13/185/7
f 42/186/2 2/187/2 43/188/2 45/189/2
f 41/183/3 40/182/3 45/190/3 43/191/3
f 13/192/4 14/193/4 2/194/4 42/195/4
f 40/182/6 13/196/6 42/197/6 45/190/6
f 44/198/7 48/199/7 41/200/7 40/201/7
f 45/202/2 43/203/2 46/204/2 47/205/2
f 48/199/3 44/198/3 47/206/3 46/207/3
f 41/208/41 48/199/41 46/207/41 43/209/41
f 44/198/42 40/210/42 45/211/42 47/206/42
f 48/212/43 49/213/43 50/214/43 41/215/43
f 43/216/2 51/217/2 52/218/2 46/219/2
f 49/213/3 48/212/3 46/220/3 52/221/3
f 50/222/44 49/213/44 52/221/44 51/223/44
f 64/224/45 63/225/45 58/226/45 60/227/45
f 62/228/45 63/229/45 64/230/45 61/231/45
f 61/232/4 55/233/4 56/234/4 62/235/4
f 54/236/32 59/237/32 57/238/32 53/239/32
f 56/240/32 55/241/32 54/242/32 53/243/32
f 37/174/7 8/169/7 66/168/7 76/175/7
f 57/244/3 59/245/3 60/246/3 58/247/3
f 72/248/7 36/249/7 70/126/7
f 36/249/7 28/127/7 70/126/7
f 18/131/7 74/125/7 28/127/7
f 29/130/2 39/250/2 69/251/2
f 39/250/2 71/252/2 69/251/2
f 29/130/2 69/251/2 73/128/2
f 31/170/7 36/178/7 68/253/7
f 36/178/7 72/254/7 68/253/7
f 38/255/2 75/256/2 65/171/2 6/257/2
f 31/170/7 68/253/7 66/168/7
f 38/258/2 17/129/2 73/128/2 75/259/2
f 71/260/2 39/261/2 67/172/2
f 39/261/2 35/173/2 67/172/2
f 6/257/2 65/171/2 35/173/2
f 37/262/7 76/263/7 74/125/7 18/131/7
o $Trim_HoodOrnament
v -0.023438 0.124982 1.250000
v -0.031250 0.124982 1.500000
v 0.031250 0.124982 1.500000
v 0.023437 0.124982 1.250000
v 0.023437 -0.000018 1.250000
v 0.031250 0.062482 1.500000
v -0.031250 0.062482 1.500000
v -0.023438 -0.000018 1.250000
v -0.031250 0.124982 1.500000
v -0.023438 0.124982 1.625000
v 0.023437 0.124982 1.625000
v 0.031250 0.124982 1.500000
v 0.031250 0.062482 1.500000
v 0.023437 0.078107 1.625000
v -0.023438 0.078107 1.625000
v -0.031250 0.062482 1.500000
v 0.000000 0.109357 1.281250
v 0.000000 0.109357 1.531250
v 0.187500 0.109357 1.281250
v 0.187500 0.109357 1.218750
v 0.187500 0.078107 1.218750
v 0.187500 0.078107 1.281250
v 0.000000 0.078107 1.531250
v 0.000000 0.078107 1.281250
v -0.187500 0.109357 1.218750
v -0.187500 0.109357 1.281250
v 0.000000 0.109357 1.531250
v 0.000000 0.109357 1.281250
v 0.000000 0.078107 1.281250
v 0.000000 0.078107 1.531250
v -0.187500 0.078107 1.281250
v -0.187500 0.078107 1.218750
vt 0.791016 0.923828
vt 0.798828 0.923828
vt 0.798828 0.925781
vt 0.791016 0.925781
vt 0.798828 0.923828
vt 0.806641 0.923828
vt 0.806641 0.925781
vt 0.798828 0.925781
vt 0.791016 0.921875
vt 0.798828 0.921875
vt 0.808594 0.923828
vt 0.800781 0.923828
vt 0.800781 0.921875
vt 0.808594 0.921875
vt 0.789062 0.923828
vt 0.789062 0.921875
vt 0.773438 0.919922
vt 0.777344 0.919922
vt 0.777344 0.921875
vt 0.773438 0.921875
vt 0.777344 0.919922
vt 0.781250 0.919922
vt 0.781250 0.921875
vt 0.777344 0.921875
vt 0.773438 0.917969
vt 0.777344 0.917969
vt 0.783203 0.919922
vt 0.779297 0.919922
vt 0.779297 0.917969
vt 0.783203 0.917969
vt 0.771484 0.919922
vt 0.771484 0.917969
vt 0.800781 0.908203
vt 0.806641 0.908203
vt 0.806641 0.914062
vt 0.800781 0.914062
vt 0.806641 0.908203
vt 0.812500 0.908203
vt 0.812500 0.914062
vt 0.806641 0.914062
vt 0.800781 0.906250
vt 0.806641 0.906250
vt 0.818359 0.908203
vt 0.812500 0.908203
vt 0.812500 0.906250
vt 0.818359 0.906250
vt 0.794922 0.908203
vt 0.794922 0.906250
vt 0.775391 0.908203
vt 0.781250 0.908203
vt 0.781250 0.914062
vt 0.775391 0.914062
vt 0.781250 0.908203
vt 0.787109 0.908203
vt 0.787109 0.914062
vt 0.781250 0.914062
vt 0.775391 0.906250
vt 0.781250 0.906250
vt 0.792969 0.908203
vt 0.787109 0.908203
vt 0.787109 0.906250
vt 0.792969 0.906250
vt 0.769531 0.908203
vt 0.769531 0.906250
vn 0.0000 1.0000 0.0000
vn 0.0000 -0.9701 0.2425
vn -0.9995 0.0000 -0.0312
vn 0.9995 0.0000 -0.0312
vn 0.0000 0.0000 1.0000
vn 0.0000 0.0000 -1.0000
vn 0.0000 -0.9923 0.1240
vn -0.9981 0.0000 0.0624
vn 0.9981 0.0000 0.0624
vn 0.0000 -1.0000 -0.0000
vn -1.0000 0.0000 0.0000
vn 1.0000 0.0000 0.0000
vn 0.8000 0.0000 0.6000
vn -0.3162 0.0000 -0.9487
vn -0.8000 0.0000 0.6000
vn 0.3162 0.0000 -0.9487
usemtl m_8075f062-5e3f-bfc2-4764-a4aa01724f70
s 1
f 77/264/46 78/265/46 79/266/46 80/267/46
f 81/268/47 82/269/47 83/270/47 84/271/47
f 78/265/48 77/264/48 84/272/48 83/273/48
f 80/274/49 79/275/49 82/276/49 81/277/49
f 79/275/50 78/265/50 83/273/50 82/276/50
f 77/264/51 80/278/51 81/279/51 84/272/51
f 85/280/46 86/281/46 87/282/46 88/283/46
f 89/284/52 90/285/52 91/286/52 92/287/52
f 86/281/53 85/280/53 92/288/53 91/289/53
f 88/290/54 87/291/54 90/292/54 89/293/54
f 87/291/50 86/281/50 91/289/50 90/292/50
f 85/280/51 88/294/51 89/295/51 92/288/51
f 93/296/46 94/297/46 95/298/46 96/299/46
f 97/300/55 98/301/55 99/302/55 100/303/55
f 94/297/56 93/296/56 100/304/56 99/305/56
f 96/306/57 95/307/57 98/308/57 97/309/57
f 95/307/58 94/297/58 99/305/58 98/308/58
f 93/296/59 96/310/59 97/311/59 100/304/59
f 101/312/46 102/313/46 103/314/46 104/315/46
f 105/316/55 106/317/55 107/318/55 108/319/55
f 102/313/56 101/312/56 108/320/56 107/321/56
f 104/322/57 103/323/57 106/324/57 105/325/57
f 103/323/60 102/313/60 107/321/60 106/324/60
f 101/312/61 104/326/61 105/327/61 108/320/61
o $Trim_V_Hood
v -0.081250 -0.043784 1.557981
v -0.081250 -0.028904 1.585461
v 0.081250 -0.028904 1.585461
v 0.081250 -0.043784 1.557981
v 0.081250 -0.098744 1.587740
v 0.081250 -0.083864 1.615221
v -0.081250 -0.083864 1.615221
v -0.081250 -0.098744 1.587740
vt 0.136719 0.894531
vt 0.138672 0.894531
vt 0.138672 0.919922
vt 0.136719 0.919922
vt 0.138672 0.894531
vt 0.140625 0.894531
vt 0.140625 0.919922
vt 0.138672 0.919922
vt 0.136719 0.884766
vt 0.138672 0.884766
vt 0.166016 0.894531
vt 0.164062 0.894531
vt 0.164062 0.884766
vt 0.166016 0.884766
vt 0.111328 0.894531
vt 0.111328 0.884766
vn 0.0000 0.8794 -0.4762
vn 0.0000 -0.8794 0.4761
vn -1.0000 -0.0000 0.0000
vn 1.0000 -0.0000 0.0000
vn 0.0000 0.4762 0.8794
vn 0.0000 -0.4761 -0.8794
usemtl m_8075f062-5e3f-bfc2-4764-a4aa01724f70
s 1
f 109/328/62 110/329/62 111/330/62 112/331/62
f 113/332/63 114/333/63 115/334/63 116/335/63
f 110/329/64 109/328/64 116/336/64 115/337/64
f 112/338/65 111/339/65 114/340/65 113/341/65
f 111/339/66 110/329/66 115/337/66 114/340/66
f 109/328/67 112/342/67 113/343/67 116/336/67
