# Blender v2.79 (sub 0) OBJ File: ''
# www.blender.org
mtllib parkbench.mtl
o cuboid
v 1.500000 0.687500 0.250000
v 1.500000 0.687500 0.500000
v 1.500000 0.625000 0.500000
v 1.500000 0.625000 0.250000
v -1.500000 0.625000 0.500000
v -1.500000 0.687500 0.500000
v -1.500000 0.687500 0.250000
v -1.500000 0.625000 0.250000
v 1.250000 0.625000 -0.375000
v 1.250000 0.625000 0.437500
v 1.250000 0.562500 0.375000
v 1.250000 0.562500 -0.375000
v 1.125000 0.562500 0.375000
v 1.125000 0.625000 0.437500
v 1.125000 0.625000 -0.375000
v 1.125000 0.562500 -0.375000
v 1.250000 0.750000 -0.500000
v 1.250000 0.625000 -0.375000
v 1.250000 0.562500 -0.375000
v 1.250000 0.687500 -0.500000
v 1.125000 0.562500 -0.375000
v 1.125000 0.625000 -0.375000
v 1.125000 0.750000 -0.500000
v 1.125000 0.687500 -0.500000
v 1.250000 1.500000 -0.562500
v 1.250000 1.562500 -0.500000
v 1.250000 0.687500 -0.500000
v 1.250000 0.750000 -0.562500
v 1.125000 0.687500 -0.500000
v 1.125000 1.562500 -0.500000
v 1.125000 1.500000 -0.562500
v 1.125000 0.750000 -0.562500
v -1.250000 0.687500 -0.500000
v -1.250000 1.562500 -0.500000
v -1.250000 1.500000 -0.562500
v -1.250000 0.750000 -0.562500
v -1.125000 1.500000 -0.562500
v -1.125000 1.562500 -0.500000
v -1.125000 0.687500 -0.500000
v -1.125000 0.750000 -0.562500
v -1.250000 0.562500 0.375000
v -1.250000 0.625000 0.437500
v -1.250000 0.625000 -0.375000
v -1.250000 0.562500 -0.375000
v -1.125000 0.625000 -0.375000
v -1.125000 0.625000 0.437500
v -1.125000 0.562500 0.375000
v -1.125000 0.562500 -0.375000
v -1.250000 0.562500 -0.375000
v -1.250000 0.625000 -0.375000
v -1.250000 0.750000 -0.500000
v -1.250000 0.687500 -0.500000
v -1.125000 0.750000 -0.500000
v -1.125000 0.625000 -0.375000
v -1.125000 0.562500 -0.375000
v -1.125000 0.687500 -0.500000
v -0.500000 0.687500 -0.500000
v -0.500000 1.562500 -0.500000
v -0.500000 1.500000 -0.562500
v -0.500000 0.750000 -0.562500
v -0.375000 1.500000 -0.562500
v -0.375000 1.562500 -0.500000
v -0.375000 0.687500 -0.500000
v -0.375000 0.750000 -0.562500
v -0.500000 0.562500 -0.375000
v -0.500000 0.625000 -0.375000
v -0.500000 0.750000 -0.500000
v -0.500000 0.687500 -0.500000
v -0.375000 0.750000 -0.500000
v -0.375000 0.625000 -0.375000
v -0.375000 0.562500 -0.375000
v -0.375000 0.687500 -0.500000
v -0.500000 0.562500 0.375000
v -0.500000 0.625000 0.437500
v -0.500000 0.625000 -0.375000
v -0.500000 0.562500 -0.375000
v -0.375000 0.625000 -0.375000
v -0.375000 0.625000 0.437500
v -0.375000 0.562500 0.375000
v -0.375000 0.562500 -0.375000
v 0.500000 1.500000 -0.562500
v 0.500000 1.562500 -0.500000
v 0.500000 0.687500 -0.500000
v 0.500000 0.750000 -0.562500
v 0.375000 0.687500 -0.500000
v 0.375000 1.562500 -0.500000
v 0.375000 1.500000 -0.562500
v 0.375000 0.750000 -0.562500
v 0.500000 0.750000 -0.500000
v 0.500000 0.625000 -0.375000
v 0.500000 0.562500 -0.375000
v 0.500000 0.687500 -0.500000
v 0.375000 0.562500 -0.375000
v 0.375000 0.625000 -0.375000
v 0.375000 0.750000 -0.500000
v 0.375000 0.687500 -0.500000
v 0.500000 0.625000 -0.375000
v 0.500000 0.625000 0.437500
v 0.500000 0.562500 0.375000
v 0.500000 0.562500 -0.375000
v 0.375000 0.562500 0.375000
v 0.375000 0.625000 0.437500
v 0.375000 0.625000 -0.375000
v 0.375000 0.562500 -0.375000
v 1.500000 0.687500 -0.062500
v 1.500000 0.687500 0.187500
v 1.500000 0.625000 0.187500
v 1.500000 0.625000 -0.062500
v -1.500000 0.625000 0.187500
v -1.500000 0.687500 0.187500
v -1.500000 0.687500 -0.062500
v -1.500000 0.625000 -0.062500
v 1.500000 0.687500 -0.375000
v 1.500000 0.687500 -0.125000
v 1.500000 0.625000 -0.125000
v 1.500000 0.625000 -0.375000
v -1.500000 0.625000 -0.125000
v -1.500000 0.687500 -0.125000
v -1.500000 0.687500 -0.375000
v -1.500000 0.625000 -0.375000
v 1.500000 1.000000 -0.437500
v 1.500000 0.750000 -0.437500
v 1.500000 0.750000 -0.500000
v 1.500000 1.000000 -0.500000
v -1.500000 0.750000 -0.500000
v -1.500000 0.750000 -0.437500
v -1.500000 1.000000 -0.437500
v -1.500000 1.000000 -0.500000
v 1.500000 1.312500 -0.437500
v 1.500000 1.062500 -0.437500
v 1.500000 1.062500 -0.500000
v 1.500000 1.312500 -0.500000
v -1.500000 1.062500 -0.500000
v -1.500000 1.062500 -0.437500
v -1.500000 1.312500 -0.437500
v -1.500000 1.312500 -0.500000
v 1.500000 1.625000 -0.437500
v 1.500000 1.375000 -0.437500
v 1.500000 1.375000 -0.500000
v 1.500000 1.625000 -0.500000
v -1.500000 1.375000 -0.500000
v -1.500000 1.375000 -0.437500
v -1.500000 1.625000 -0.437500
v -1.500000 1.625000 -0.500000
v 1.250000 0.562500 0.187500
v 1.250000 0.562500 0.312500
v 1.187500 0.500000 0.312500
v 1.187500 0.500000 0.187500
v -1.187500 0.500000 0.312500
v -1.250000 0.562500 0.312500
v -1.250000 0.562500 0.187500
v -1.187500 0.500000 0.187500
v 1.187500 0.500000 -0.312500
v 1.250000 0.562500 -0.312500
v 1.250000 0.562500 -0.187500
v 1.187500 0.500000 -0.187500
v -1.250000 0.562500 -0.187500
v -1.250000 0.562500 -0.312500
v -1.187500 0.500000 -0.312500
v -1.187500 0.500000 -0.187500
v 0.750000 0.500000 -0.187500
v 0.750000 0.500000 -0.312500
v 0.750000 0.000000 -0.312500
v 0.750000 0.000000 -0.187500
v 0.875000 0.000000 -0.312500
v 0.875000 0.500000 -0.312500
v 0.875000 0.500000 -0.187500
v 0.875000 0.000000 -0.187500
v -0.750000 0.500000 0.187500
v -0.750000 0.500000 0.312500
v -0.750000 -0.000000 0.312500
v -0.750000 -0.000000 0.187500
v -0.875000 -0.000000 0.312500
v -0.875000 0.500000 0.312500
v -0.875000 0.500000 0.187500
v -0.875000 -0.000000 0.187500
v -0.750000 0.000000 -0.312500
v -0.750000 0.500000 -0.312500
v -0.750000 0.500000 -0.187500
v -0.750000 0.000000 -0.187500
v -0.875000 0.500000 -0.187500
v -0.875000 0.500000 -0.312500
v -0.875000 0.000000 -0.312500
v -0.875000 0.000000 -0.187500
v 0.750000 -0.000000 0.312500
v 0.750000 0.500000 0.312500
v 0.750000 0.500000 0.187500
v 0.750000 -0.000000 0.187500
v 0.875000 0.500000 0.187500
v 0.875000 0.500000 0.312500
v 0.875000 -0.000000 0.312500
v 0.875000 -0.000000 0.187500
vt 0.828125 0.640625
vt 0.765625 0.640625
vt 0.765625 0.625000
vt 0.828125 0.625000
vt 0.921875 0.687500
vt 0.921875 0.703125
vt 0.859375 0.703125
vt 0.859375 0.687500
vt 0.000000 0.937500
vt 0.750000 0.937500
vt 0.750000 1.000000
vt 0.000000 1.000000
vt 0.750000 0.921875
vt 0.750000 0.859375
vt 0.000000 0.859375
vt 0.000000 0.921875
vt 0.750000 0.828125
vt 0.750000 0.843750
vt 0.000000 0.843750
vt 0.000000 0.828125
vt 0.750000 0.812500
vt 0.000000 0.812500
vt 0.000000 0.796875
vt 0.750000 0.796875
vt 0.968750 0.765625
vt 0.765625 0.765625
vt 0.781250 0.750000
vt 0.968750 0.750000
vt 0.953125 0.718750
vt 0.968750 0.734375
vt 0.765625 0.734375
vt 0.765625 0.718750
vt 0.812500 0.796875
vt 0.843750 0.796875
vt 0.843750 1.000000
vt 0.812500 1.000000
vt 0.890625 0.812500
vt 0.890625 1.000000
vt 0.859375 1.000000
vt 0.859375 0.812500
vt 0.796875 0.562500
vt 0.796875 0.578125
vt 0.765625 0.578125
vt 0.765625 0.562500
vt 0.906250 0.609375
vt 0.875000 0.609375
vt 0.875000 0.593750
vt 0.906250 0.593750
vt 0.918246 0.671875
vt 0.874052 0.671875
vt 0.863004 0.656250
vt 0.907198 0.656250
vt 0.843750 0.585382
vt 0.859375 0.596431
vt 0.859375 0.640625
vt 0.843750 0.629576
vt 0.765625 0.656250
vt 0.796875 0.656250
vt 0.796875 0.703125
vt 0.765625 0.703125
vt 0.812500 0.703125
vt 0.812500 0.656250
vt 0.843750 0.656250
vt 0.843750 0.703125
vt 0.906250 0.625000
vt 0.906250 0.640625
vt 0.875000 0.640625
vt 0.875000 0.625000
vt 0.796875 0.609375
vt 0.765625 0.609375
vt 0.765625 0.593750
vt 0.796875 0.593750
vt 0.968750 0.984375
vt 0.953125 1.000000
vt 0.953125 0.781250
vt 0.968750 0.796875
vt 1.000000 0.781250
vt 1.000000 1.000000
vt 0.984375 0.984375
vt 0.984375 0.796875
vt 0.953125 0.640625
vt 0.921875 0.640625
vt 0.921875 0.625000
vt 0.953125 0.625000
vt 0.875000 0.578125
vt 0.875000 0.562500
vt 0.906250 0.562500
vt 0.906250 0.578125
vt 0.796875 0.781250
vt 0.796875 1.000000
vt 0.765625 1.000000
vt 0.765625 0.781250
vt 0.937500 1.000000
vt 0.906250 1.000000
vt 0.906250 0.812500
vt 0.937500 0.812500
vt 0.953125 0.781250
vt 0.953125 1.000000
vt 0.968750 0.984375
vt 0.968750 0.796875
vt 0.984375 0.984375
vt 1.000000 1.000000
vt 1.000000 0.781250
vt 0.984375 0.796875
vt 0.921875 0.625000
vt 0.921875 0.640625
vt 0.953125 0.640625
vt 0.953125 0.625000
vt 0.906250 0.562500
vt 0.875000 0.562500
vt 0.875000 0.578125
vt 0.906250 0.578125
vt 0.765625 1.000000
vt 0.796875 1.000000
vt 0.796875 0.781250
vt 0.765625 0.781250
vt 0.906250 0.812500
vt 0.906250 1.000000
vt 0.937500 1.000000
vt 0.937500 0.812500
vt 0.781250 0.750000
vt 0.765625 0.765625
vt 0.968750 0.765625
vt 0.968750 0.750000
vt 0.765625 0.734375
vt 0.968750 0.734375
vt 0.953125 0.718750
vt 0.765625 0.718750
vt 0.843750 1.000000
vt 0.843750 0.796875
vt 0.812500 0.796875
vt 0.812500 1.000000
vt 0.859375 1.000000
vt 0.890625 1.000000
vt 0.890625 0.812500
vt 0.859375 0.812500
vt 0.765625 0.578125
vt 0.796875 0.578125
vt 0.796875 0.562500
vt 0.765625 0.562500
vt 0.875000 0.593750
vt 0.875000 0.609375
vt 0.906250 0.609375
vt 0.906250 0.593750
vt 0.863004 0.656250
vt 0.874052 0.671875
vt 0.918246 0.671875
vt 0.907198 0.656250
vt 0.859375 0.640625
vt 0.859375 0.596431
vt 0.843750 0.585382
vt 0.843750 0.629576
vt 0.796875 0.703125
vt 0.796875 0.656250
vt 0.765625 0.656250
vt 0.765625 0.703125
vt 0.843750 0.656250
vt 0.812500 0.656250
vt 0.812500 0.703125
vt 0.843750 0.703125
vt 0.875000 0.640625
vt 0.906250 0.640625
vt 0.906250 0.625000
vt 0.875000 0.625000
vt 0.765625 0.593750
vt 0.765625 0.609375
vt 0.796875 0.609375
vt 0.796875 0.593750
vt 0.953125 0.781250
vt 0.953125 1.000000
vt 0.968750 0.984375
vt 0.968750 0.796875
vt 0.984375 0.984375
vt 1.000000 1.000000
vt 1.000000 0.781250
vt 0.984375 0.796875
vt 0.921875 0.625000
vt 0.921875 0.640625
vt 0.953125 0.640625
vt 0.953125 0.625000
vt 0.906250 0.562500
vt 0.875000 0.562500
vt 0.875000 0.578125
vt 0.906250 0.578125
vt 0.765625 1.000000
vt 0.796875 1.000000
vt 0.796875 0.781250
vt 0.765625 0.781250
vt 0.906250 0.812500
vt 0.906250 1.000000
vt 0.937500 1.000000
vt 0.937500 0.812500
vt 0.863004 0.656250
vt 0.874052 0.671875
vt 0.918246 0.671875
vt 0.907198 0.656250
vt 0.859375 0.640625
vt 0.859375 0.596431
vt 0.843750 0.585382
vt 0.843750 0.629576
vt 0.796875 0.703125
vt 0.796875 0.656250
vt 0.765625 0.656250
vt 0.765625 0.703125
vt 0.843750 0.656250
vt 0.812500 0.656250
vt 0.812500 0.703125
vt 0.843750 0.703125
vt 0.875000 0.640625
vt 0.906250 0.640625
vt 0.906250 0.625000
vt 0.875000 0.625000
vt 0.765625 0.593750
vt 0.765625 0.609375
vt 0.796875 0.609375
vt 0.796875 0.593750
vt 0.781250 0.750000
vt 0.765625 0.765625
vt 0.968750 0.765625
vt 0.968750 0.750000
vt 0.765625 0.734375
vt 0.968750 0.734375
vt 0.953125 0.718750
vt 0.765625 0.718750
vt 0.843750 1.000000
vt 0.843750 0.796875
vt 0.812500 0.796875
vt 0.812500 1.000000
vt 0.859375 1.000000
vt 0.890625 1.000000
vt 0.890625 0.812500
vt 0.859375 0.812500
vt 0.765625 0.578125
vt 0.796875 0.578125
vt 0.796875 0.562500
vt 0.765625 0.562500
vt 0.875000 0.593750
vt 0.875000 0.609375
vt 0.906250 0.609375
vt 0.906250 0.593750
vt 0.968750 0.984375
vt 0.953125 1.000000
vt 0.953125 0.781250
vt 0.968750 0.796875
vt 1.000000 0.781250
vt 1.000000 1.000000
vt 0.984375 0.984375
vt 0.984375 0.796875
vt 0.953125 0.640625
vt 0.921875 0.640625
vt 0.921875 0.625000
vt 0.953125 0.625000
vt 0.875000 0.578125
vt 0.875000 0.562500
vt 0.906250 0.562500
vt 0.906250 0.578125
vt 0.796875 0.781250
vt 0.796875 1.000000
vt 0.765625 1.000000
vt 0.765625 0.781250
vt 0.937500 1.000000
vt 0.906250 1.000000
vt 0.906250 0.812500
vt 0.937500 0.812500
vt 0.918246 0.671875
vt 0.874052 0.671875
vt 0.863004 0.656250
vt 0.907198 0.656250
vt 0.843750 0.585382
vt 0.859375 0.596431
vt 0.859375 0.640625
vt 0.843750 0.629576
vt 0.765625 0.656250
vt 0.796875 0.656250
vt 0.796875 0.703125
vt 0.765625 0.703125
vt 0.812500 0.703125
vt 0.812500 0.656250
vt 0.843750 0.656250
vt 0.843750 0.703125
vt 0.906250 0.625000
vt 0.906250 0.640625
vt 0.875000 0.640625
vt 0.875000 0.625000
vt 0.796875 0.609375
vt 0.765625 0.609375
vt 0.765625 0.593750
vt 0.796875 0.593750
vt 0.968750 0.765625
vt 0.765625 0.765625
vt 0.781250 0.750000
vt 0.968750 0.750000
vt 0.953125 0.718750
vt 0.968750 0.734375
vt 0.765625 0.734375
vt 0.765625 0.718750
vt 0.812500 0.796875
vt 0.843750 0.796875
vt 0.843750 1.000000
vt 0.812500 1.000000
vt 0.890625 0.812500
vt 0.890625 1.000000
vt 0.859375 1.000000
vt 0.859375 0.812500
vt 0.796875 0.562500
vt 0.796875 0.578125
vt 0.765625 0.578125
vt 0.765625 0.562500
vt 0.906250 0.609375
vt 0.875000 0.609375
vt 0.875000 0.593750
vt 0.906250 0.593750
vt 0.828125 0.640625
vt 0.765625 0.640625
vt 0.765625 0.625000
vt 0.828125 0.625000
vt 0.921875 0.687500
vt 0.921875 0.703125
vt 0.859375 0.703125
vt 0.859375 0.687500
vt 0.000000 0.718750
vt 0.750000 0.718750
vt 0.750000 0.781250
vt 0.000000 0.781250
vt 0.750000 0.703125
vt 0.750000 0.640625
vt 0.000000 0.640625
vt 0.000000 0.703125
vt 0.750000 0.609375
vt 0.750000 0.625000
vt 0.000000 0.625000
vt 0.000000 0.609375
vt 0.750000 0.593750
vt 0.000000 0.593750
vt 0.000000 0.578125
vt 0.750000 0.578125
vt 0.828125 0.640625
vt 0.765625 0.640625
vt 0.765625 0.625000
vt 0.828125 0.625000
vt 0.921875 0.687500
vt 0.921875 0.703125
vt 0.859375 0.703125
vt 0.859375 0.687500
vt 0.000000 0.500000
vt 0.750000 0.500000
vt 0.750000 0.562500
vt 0.000000 0.562500
vt 0.750000 0.484375
vt 0.750000 0.421875
vt 0.000000 0.421875
vt 0.000000 0.484375
vt 0.750000 0.390625
vt 0.750000 0.406250
vt 0.000000 0.406250
vt 0.000000 0.390625
vt 0.750000 0.375000
vt 0.000000 0.375000
vt 0.000000 0.359375
vt 0.750000 0.359375
vt 0.828125 0.640625
vt 0.765625 0.640625
vt 0.765625 0.625000
vt 0.828125 0.625000
vt 0.921875 0.687500
vt 0.921875 0.703125
vt 0.859375 0.703125
vt 0.859375 0.687500
vt 0.000000 0.937500
vt 0.750000 0.937500
vt 0.750000 1.000000
vt 0.000000 1.000000
vt 0.750000 0.921875
vt 0.750000 0.859375
vt 0.000000 0.859375
vt 0.000000 0.921875
vt 0.750000 0.828125
vt 0.750000 0.843750
vt 0.000000 0.843750
vt 0.000000 0.828125
vt 0.750000 0.812500
vt 0.000000 0.812500
vt 0.000000 0.796875
vt 0.750000 0.796875
vt 0.828125 0.640625
vt 0.765625 0.640625
vt 0.765625 0.625000
vt 0.828125 0.625000
vt 0.921875 0.687500
vt 0.921875 0.703125
vt 0.859375 0.703125
vt 0.859375 0.687500
vt 0.000000 0.718750
vt 0.750000 0.718750
vt 0.750000 0.781250
vt 0.000000 0.781250
vt 0.750000 0.703125
vt 0.750000 0.640625
vt 0.000000 0.640625
vt 0.000000 0.703125
vt 0.750000 0.609375
vt 0.750000 0.625000
vt 0.000000 0.625000
vt 0.000000 0.609375
vt 0.750000 0.593750
vt 0.000000 0.593750
vt 0.000000 0.578125
vt 0.750000 0.578125
vt 0.828125 0.640625
vt 0.765625 0.640625
vt 0.765625 0.625000
vt 0.828125 0.625000
vt 0.921875 0.687500
vt 0.921875 0.703125
vt 0.859375 0.703125
vt 0.859375 0.687500
vt 0.000000 0.500000
vt 0.750000 0.500000
vt 0.750000 0.562500
vt 0.000000 0.562500
vt 0.750000 0.484375
vt 0.750000 0.421875
vt 0.000000 0.421875
vt 0.000000 0.484375
vt 0.750000 0.390625
vt 0.750000 0.406250
vt 0.000000 0.406250
vt 0.000000 0.390625
vt 0.750000 0.375000
vt 0.000000 0.375000
vt 0.000000 0.359375
vt 0.750000 0.359375
vt 0.671875 0.343750
vt 0.640625 0.343750
vt 0.640625 0.328125
vt 0.671875 0.328125
vt 0.671875 0.296875
vt 0.671875 0.312500
vt 0.640625 0.312500
vt 0.640625 0.296875
vt 0.000000 0.250000
vt 0.625000 0.250000
vt 0.625000 0.281250
vt 0.000000 0.281250
vt 0.609375 0.203125
vt 0.609375 0.234375
vt 0.015625 0.234375
vt 0.015625 0.203125
vt 0.609375 0.328125
vt 0.625000 0.343750
vt 0.000000 0.343750
vt 0.015625 0.328125
vt 0.625000 0.312500
vt 0.000000 0.312500
vt 0.015625 0.296875
vt 0.609375 0.296875
vt 0.640625 0.328125
vt 0.640625 0.343750
vt 0.671875 0.343750
vt 0.671875 0.328125
vt 0.640625 0.312500
vt 0.671875 0.312500
vt 0.671875 0.296875
vt 0.640625 0.296875
vt 0.625000 0.250000
vt 0.625000 0.281250
vt 0.000000 0.281250
vt 0.000000 0.250000
vt 0.015625 0.203125
vt 0.609375 0.203125
vt 0.609375 0.234375
vt 0.015625 0.234375
vt 0.625000 0.343750
vt 0.000000 0.343750
vt 0.015625 0.328125
vt 0.609375 0.328125
vt 0.609375 0.296875
vt 0.625000 0.312500
vt 0.000000 0.312500
vt 0.015625 0.296875
vt 0.843750 0.546875
vt 0.812500 0.546875
vt 0.812500 0.421875
vt 0.843750 0.421875
vt 0.937500 0.421875
vt 0.937500 0.546875
vt 0.906250 0.546875
vt 0.906250 0.421875
vt 0.765625 0.375000
vt 0.796875 0.375000
vt 0.796875 0.406250
vt 0.765625 0.406250
vt 0.843750 0.375000
vt 0.843750 0.406250
vt 0.812500 0.406250
vt 0.812500 0.375000
vt 0.890625 0.421875
vt 0.890625 0.546875
vt 0.859375 0.546875
vt 0.859375 0.421875
vt 0.796875 0.546875
vt 0.765625 0.546875
vt 0.765625 0.421875
vt 0.796875 0.421875
vt 0.843750 0.546875
vt 0.812500 0.546875
vt 0.812500 0.421875
vt 0.843750 0.421875
vt 0.937500 0.421875
vt 0.937500 0.546875
vt 0.906250 0.546875
vt 0.906250 0.421875
vt 0.765625 0.375000
vt 0.796875 0.375000
vt 0.796875 0.406250
vt 0.765625 0.406250
vt 0.843750 0.375000
vt 0.843750 0.406250
vt 0.812500 0.406250
vt 0.812500 0.375000
vt 0.890625 0.421875
vt 0.890625 0.546875
vt 0.859375 0.546875
vt 0.859375 0.421875
vt 0.796875 0.546875
vt 0.765625 0.546875
vt 0.765625 0.421875
vt 0.796875 0.421875
vt 0.812500 0.421875
vt 0.812500 0.546875
vt 0.843750 0.546875
vt 0.843750 0.421875
vt 0.906250 0.546875
vt 0.937500 0.546875
vt 0.937500 0.421875
vt 0.906250 0.421875
vt 0.796875 0.406250
vt 0.796875 0.375000
vt 0.765625 0.375000
vt 0.765625 0.406250
vt 0.812500 0.406250
vt 0.843750 0.406250
vt 0.843750 0.375000
vt 0.812500 0.375000
vt 0.859375 0.546875
vt 0.890625 0.546875
vt 0.890625 0.421875
vt 0.859375 0.421875
vt 0.765625 0.421875
vt 0.765625 0.546875
vt 0.796875 0.546875
vt 0.796875 0.421875
vt 0.812500 0.421875
vt 0.812500 0.546875
vt 0.843750 0.546875
vt 0.843750 0.421875
vt 0.906250 0.546875
vt 0.937500 0.546875
vt 0.937500 0.421875
vt 0.906250 0.421875
vt 0.796875 0.406250
vt 0.796875 0.375000
vt 0.765625 0.375000
vt 0.765625 0.406250
vt 0.812500 0.406250
vt 0.843750 0.406250
vt 0.843750 0.375000
vt 0.812500 0.375000
vt 0.859375 0.546875
vt 0.890625 0.546875
vt 0.890625 0.421875
vt 0.859375 0.421875
vt 0.765625 0.421875
vt 0.765625 0.546875
vt 0.796875 0.546875
vt 0.796875 0.421875
vn 1.0000 -0.0000 0.0000
vn -1.0000 -0.0000 0.0000
vn 0.0000 1.0000 0.0000
vn 0.0000 -1.0000 0.0000
vn 0.0000 -0.0000 1.0000
vn 0.0000 0.0000 -1.0000
vn 0.0000 -0.7071 0.7071
vn 0.0000 0.7071 0.7071
vn 0.0000 -0.7071 -0.7071
vn 0.0000 0.7071 -0.7071
vn 0.7071 -0.7071 0.0000
vn -0.7071 -0.7071 0.0000
usemtl m_92e5ade8-2b7e-9e01-23cf-c45e39779fa5
s 1
f 1/1/1 2/2/1 3/3/1 4/4/1
f 5/5/2 6/6/2 7/7/2 8/8/2
f 6/9/3 2/10/3 1/11/3 7/12/3
f 4/13/4 3/14/4 5/15/4 8/16/4
f 3/17/5 2/18/5 6/19/5 5/20/5
f 7/21/6 1/22/6 4/23/6 8/24/6
f 9/25/1 10/26/1 11/27/1 12/28/1
f 13/29/2 14/30/2 15/31/2 16/32/2
f 14/33/3 10/34/3 9/35/3 15/36/3
f 12/37/4 11/38/4 13/39/4 16/40/4
f 11/41/7 10/42/7 14/43/7 13/44/7
f 15/45/6 9/46/6 12/47/6 16/48/6
f 17/49/1 18/50/1 19/51/1 20/52/1
f 21/53/2 22/54/2 23/55/2 24/56/2
f 22/57/8 18/58/8 17/59/8 23/60/8
f 20/61/9 19/62/9 21/63/9 24/64/9
f 19/65/5 18/66/5 22/67/5 21/68/5
f 23/69/6 17/70/6 20/71/6 24/72/6
f 25/73/1 26/74/1 27/75/1 28/76/1
f 29/77/2 30/78/2 31/79/2 32/80/2
f 30/81/10 26/82/10 25/83/10 31/84/10
f 28/85/9 27/86/9 29/87/9 32/88/9
f 27/89/5 26/90/5 30/91/5 29/92/5
f 31/93/6 25/94/6 28/95/6 32/96/6
f 33/97/2 34/98/2 35/99/2 36/100/2
f 37/101/1 38/102/1 39/103/1 40/104/1
f 35/105/10 34/106/10 38/107/10 37/108/10
f 39/109/9 33/110/9 36/111/9 40/112/9
f 38/113/5 34/114/5 33/115/5 39/116/5
f 36/117/6 35/118/6 37/119/6 40/120/6
f 41/121/2 42/122/2 43/123/2 44/124/2
f 45/125/1 46/126/1 47/127/1 48/128/1
f 43/129/3 42/130/3 46/131/3 45/132/3
f 47/133/4 41/134/4 44/135/4 48/136/4
f 46/137/7 42/138/7 41/139/7 47/140/7
f 44/141/6 43/142/6 45/143/6 48/144/6
f 49/145/2 50/146/2 51/147/2 52/148/2
f 53/149/1 54/150/1 55/151/1 56/152/1
f 51/153/8 50/154/8 54/155/8 53/156/8
f 55/157/9 49/158/9 52/159/9 56/160/9
f 54/161/5 50/162/5 49/163/5 55/164/5
f 52/165/6 51/166/6 53/167/6 56/168/6
f 57/169/2 58/170/2 59/171/2 60/172/2
f 61/173/1 62/174/1 63/175/1 64/176/1
f 59/177/10 58/178/10 62/179/10 61/180/10
f 63/181/9 57/182/9 60/183/9 64/184/9
f 62/185/5 58/186/5 57/187/5 63/188/5
f 60/189/6 59/190/6 61/191/6 64/192/6
f 65/193/2 66/194/2 67/195/2 68/196/2
f 69/197/1 70/198/1 71/199/1 72/200/1
f 67/201/8 66/202/8 70/203/8 69/204/8
f 71/205/9 65/206/9 68/207/9 72/208/9
f 70/209/5 66/210/5 65/211/5 71/212/5
f 68/213/6 67/214/6 69/215/6 72/216/6
f 73/217/2 74/218/2 75/219/2 76/220/2
f 77/221/1 78/222/1 79/223/1 80/224/1
f 75/225/3 74/226/3 78/227/3 77/228/3
f 79/229/4 73/230/4 76/231/4 80/232/4
f 78/233/7 74/234/7 73/235/7 79/236/7
f 76/237/6 75/238/6 77/239/6 80/240/6
f 81/241/1 82/242/1 83/243/1 84/244/1
f 85/245/2 86/246/2 87/247/2 88/248/2
f 86/249/10 82/250/10 81/251/10 87/252/10
f 84/253/9 83/254/9 85/255/9 88/256/9
f 83/257/5 82/258/5 86/259/5 85/260/5
f 87/261/6 81/262/6 84/263/6 88/264/6
f 89/265/1 90/266/1 91/267/1 92/268/1
f 93/269/2 94/270/2 95/271/2 96/272/2
f 94/273/8 90/274/8 89/275/8 95/276/8
f 92/277/9 91/278/9 93/279/9 96/280/9
f 91/281/5 90/282/5 94/283/5 93/284/5
f 95/285/6 89/286/6 92/287/6 96/288/6
f 97/289/1 98/290/1 99/291/1 100/292/1
f 101/293/2 102/294/2 103/295/2 104/296/2
f 102/297/3 98/298/3 97/299/3 103/300/3
f 100/301/4 99/302/4 101/303/4 104/304/4
f 99/305/7 98/306/7 102/307/7 101/308/7
f 103/309/6 97/310/6 100/311/6 104/312/6
f 105/313/1 106/314/1 107/315/1 108/316/1
f 109/317/2 110/318/2 111/319/2 112/320/2
f 110/321/3 106/322/3 105/323/3 111/324/3
f 108/325/4 107/326/4 109/327/4 112/328/4
f 107/329/5 106/330/5 110/331/5 109/332/5
f 111/333/6 105/334/6 108/335/6 112/336/6
f 113/337/1 114/338/1 115/339/1 116/340/1
f 117/341/2 118/342/2 119/343/2 120/344/2
f 118/345/3 114/346/3 113/347/3 119/348/3
f 116/349/4 115/350/4 117/351/4 120/352/4
f 115/353/5 114/354/5 118/355/5 117/356/5
f 119/357/6 113/358/6 116/359/6 120/360/6
f 121/361/1 122/362/1 123/363/1 124/364/1
f 125/365/2 126/366/2 127/367/2 128/368/2
f 126/369/5 122/370/5 121/371/5 127/372/5
f 124/373/6 123/374/6 125/375/6 128/376/6
f 123/377/4 122/378/4 126/379/4 125/380/4
f 127/381/3 121/382/3 124/383/3 128/384/3
f 129/385/1 130/386/1 131/387/1 132/388/1
f 133/389/2 134/390/2 135/391/2 136/392/2
f 134/393/5 130/394/5 129/395/5 135/396/5
f 132/397/6 131/398/6 133/399/6 136/400/6
f 131/401/4 130/402/4 134/403/4 133/404/4
f 135/405/3 129/406/3 132/407/3 136/408/3
f 137/409/1 138/410/1 139/411/1 140/412/1
f 141/413/2 142/414/2 143/415/2 144/416/2
f 142/417/5 138/418/5 137/419/5 143/420/5
f 140/421/6 139/422/6 141/423/6 144/424/6
f 139/425/4 138/426/4 142/427/4 141/428/4
f 143/429/3 137/430/3 140/431/3 144/432/3
f 145/433/11 146/434/11 147/435/11 148/436/11
f 149/437/12 150/438/12 151/439/12 152/440/12
f 150/441/3 146/442/3 145/443/3 151/444/3
f 148/445/4 147/446/4 149/447/4 152/448/4
f 147/449/5 146/450/5 150/451/5 149/452/5
f 151/453/6 145/454/6 148/455/6 152/456/6
f 153/457/11 154/458/11 155/459/11 156/460/11
f 157/461/12 158/462/12 159/463/12 160/464/12
f 155/465/3 154/466/3 158/467/3 157/468/3
f 159/469/4 153/470/4 156/471/4 160/472/4
f 158/473/6 154/474/6 153/475/6 159/476/6
f 156/477/5 155/478/5 157/479/5 160/480/5
f 161/481/2 162/482/2 163/483/2 164/484/2
f 165/485/1 166/486/1 167/487/1 168/488/1
f 166/489/3 162/490/3 161/491/3 167/492/3
f 164/493/4 163/494/4 165/495/4 168/496/4
f 163/497/6 162/498/6 166/499/6 165/500/6
f 167/501/5 161/502/5 164/503/5 168/504/5
f 169/505/1 170/506/1 171/507/1 172/508/1
f 173/509/2 174/510/2 175/511/2 176/512/2
f 174/513/3 170/514/3 169/515/3 175/516/3
f 172/517/4 171/518/4 173/519/4 176/520/4
f 171/521/5 170/522/5 174/523/5 173/524/5
f 175/525/6 169/526/6 172/527/6 176/528/6
f 177/529/1 178/530/1 179/531/1 180/532/1
f 181/533/2 182/534/2 183/535/2 184/536/2
f 179/537/3 178/538/3 182/539/3 181/540/3
f 183/541/4 177/542/4 180/543/4 184/544/4
f 182/545/6 178/546/6 177/547/6 183/548/6
f 180/549/5 179/550/5 181/551/5 184/552/5
f 185/553/2 186/554/2 187/555/2 188/556/2
f 189/557/1 190/558/1 191/559/1 192/560/1
f 187/561/3 186/562/3 190/563/3 189/564/3
f 191/565/4 185/566/4 188/567/4 192/568/4
f 190/569/5 186/570/5 185/571/5 191/572/5
f 188/573/6 187/574/6 189/575/6 192/576/6
