# Blender v2.79 (sub 0) OBJ File: ''
# www.blender.org
mtllib rocket.mtl
o cuboid
v 0.077665 -0.000000 0.500000
v 0.187500 0.109835 0.500000
v 0.000000 0.187500 0.500000
v 0.187500 0.109835 0.187500
v 0.077665 -0.000000 0.187500
v 0.187500 0.265165 0.500000
v 0.187500 0.265165 0.187500
v 0.077665 0.375000 0.500000
v 0.077665 0.375000 0.187500
v -0.077665 0.375000 0.500000
v -0.077665 0.375000 0.187500
v -0.187500 0.265165 0.500000
v -0.187500 0.265165 0.187500
v -0.187500 0.109835 0.500000
v -0.187500 0.109835 0.187500
v -0.077665 -0.000000 0.500000
v -0.077665 -0.000000 0.187500
v 0.038833 0.078125 0.578125
v 0.109375 0.148667 0.578125
v 0.000000 0.187500 0.578125
v 0.171875 0.122779 0.500000
v 0.064721 0.015625 0.500000
v 0.109375 0.226332 0.578125
v 0.171875 0.252221 0.500000
v 0.038833 0.296875 0.578125
v 0.064721 0.359375 0.500000
v -0.038833 0.296875 0.578125
v -0.064721 0.359375 0.500000
v -0.109375 0.226332 0.578125
v -0.171875 0.252221 0.500000
v -0.109375 0.148667 0.578125
v -0.171875 0.122779 0.500000
v -0.038833 0.078125 0.578125
v -0.064721 0.015625 0.500000
v 0.187500 0.109835 -0.125000
v 0.140625 0.129251 0.062500
v 0.058249 0.046875 0.062500
v 0.077665 0.000000 -0.125000
v 0.105336 0.143868 0.062500
v 0.140449 0.129324 -0.125000
v 0.058176 0.047051 -0.125000
v 0.043632 0.082164 0.062500
v 0.187500 0.265165 -0.125000
v 0.140625 0.245749 0.062500
v 0.105336 0.231132 0.062500
v 0.140449 0.245676 -0.125000
v 0.077665 0.375000 -0.125000
v 0.058249 0.328125 0.062500
v 0.043632 0.292836 0.062500
v 0.058176 0.327949 -0.125000
v -0.077665 0.375000 -0.125000
v -0.058249 0.328125 0.062500
v -0.043632 0.292836 0.062500
v -0.058176 0.327949 -0.125000
v -0.187500 0.265165 -0.125000
v -0.140625 0.245749 0.062500
v -0.105336 0.231132 0.062500
v -0.140449 0.245676 -0.125000
v -0.187500 0.109835 -0.125000
v -0.140625 0.129251 0.062500
v -0.105336 0.143868 0.062500
v -0.140449 0.129324 -0.125000
v -0.077665 0.000000 -0.125000
v -0.058249 0.046875 0.062500
v -0.043632 0.082164 0.062500
v -0.058176 0.047051 -0.125000
v -0.062500 0.375000 0.531250
v -0.062500 0.250000 0.531250
v -0.062500 0.250000 0.468750
v -0.062500 0.406250 0.468750
v -0.125000 0.250000 0.468750
v -0.125000 0.250000 0.531250
v -0.125000 0.375000 0.531250
v -0.125000 0.406250 0.468750
v -0.062500 0.406250 0.468750
v -0.062500 0.343750 0.468750
v -0.062500 0.343750 0.156250
v -0.062500 0.406250 0.156250
v -0.125000 0.343750 0.156250
v -0.125000 0.343750 0.468750
v -0.125000 0.406250 0.468750
v -0.125000 0.406250 0.156250
v -0.062500 0.406250 0.156250
v -0.062500 0.343750 0.156250
v 0.015625 0.343750 -0.046875
v 0.015625 0.375000 0.000000
v -0.046875 0.343750 -0.046875
v -0.125000 0.343750 0.156250
v -0.125000 0.406250 0.156250
v -0.046875 0.375000 0.000000
v -0.015625 0.343750 -0.046875
v 0.062500 0.343750 0.156250
v 0.062500 0.406250 0.156250
v -0.015625 0.375000 0.000000
v 0.125000 0.406250 0.156250
v 0.125000 0.343750 0.156250
v 0.046875 0.343750 -0.046875
v 0.046875 0.375000 0.000000
v 0.062500 0.343750 0.156250
v 0.062500 0.343750 0.468750
v 0.062500 0.406250 0.468750
v 0.062500 0.406250 0.156250
v 0.125000 0.406250 0.468750
v 0.125000 0.343750 0.468750
v 0.125000 0.343750 0.156250
v 0.125000 0.406250 0.156250
v 0.117188 0.138959 -0.062500
v 0.109375 0.142195 0.000000
v 0.045305 0.078125 0.000000
v 0.048541 0.070312 -0.062500
v 0.101562 0.145431 -0.062500
v 0.042069 0.085938 -0.062500
v 0.000000 0.187500 -0.031250
v 0.117188 0.236041 -0.062500
v 0.109375 0.232805 0.000000
v 0.101562 0.229569 -0.062500
v 0.048541 0.304688 -0.062500
v 0.045305 0.296875 0.000000
v 0.042069 0.289062 -0.062500
v -0.048541 0.304688 -0.062500
v -0.045305 0.296875 0.000000
v -0.042069 0.289062 -0.062500
v -0.117188 0.236041 -0.062500
v -0.109375 0.232805 0.000000
v -0.101562 0.229569 -0.062500
v -0.117188 0.138959 -0.062500
v -0.109375 0.142195 0.000000
v -0.101562 0.145431 -0.062500
v -0.048541 0.070312 -0.062500
v -0.045305 0.078125 0.000000
v -0.042069 0.085938 -0.062500
v 0.125000 0.375000 0.531250
v 0.125000 0.250000 0.531250
v 0.125000 0.250000 0.468750
v 0.125000 0.406250 0.468750
v 0.062500 0.250000 0.468750
v 0.062500 0.250000 0.531250
v 0.062500 0.375000 0.531250
v 0.062500 0.406250 0.468750
v 0.187500 0.109835 0.000000
v 0.187500 0.109835 0.062500
v 0.077665 -0.000000 0.062500
v 0.077665 -0.000000 -0.000000
v 0.000000 0.187500 0.000000
v 0.187500 0.265165 0.000000
v 0.187500 0.265165 0.062500
v 0.077665 0.375000 0.000000
v 0.077665 0.375000 0.062500
v -0.077665 0.375000 0.000000
v -0.077665 0.375000 0.062500
v -0.187500 0.265165 0.000000
v -0.187500 0.265165 0.062500
v -0.187500 0.109835 0.000000
v -0.187500 0.109835 0.062500
v -0.077665 -0.000000 -0.000000
v -0.077665 -0.000000 0.062500
v 0.000000 0.187500 0.062500
v 0.171875 0.116307 0.062500
v 0.187500 0.109835 0.187500
v 0.077665 -0.000000 0.187500
v 0.071193 0.015625 0.062500
v 0.171875 0.258693 0.062500
v 0.187500 0.265165 0.187500
v 0.071193 0.359375 0.062500
v 0.077665 0.375000 0.187500
v -0.071193 0.359375 0.062500
v -0.077665 0.375000 0.187500
v -0.171875 0.258693 0.062500
v -0.187500 0.265165 0.187500
v -0.171875 0.116307 0.062500
v -0.187500 0.109835 0.187500
v -0.071193 0.015625 0.062500
v -0.077665 -0.000000 0.187500
vt 0.132581 0.625000
vt 0.187500 0.679919
vt 0.093750 0.718750
vt 0.062500 0.375000
vt 0.062500 0.531250
vt 0.000000 0.531250
vt 0.000000 0.375000
vt 0.187500 0.757581
vt 0.437500 0.625000
vt 0.437500 0.781250
vt 0.375000 0.781250
vt 0.375000 0.625000
vt 0.132581 0.812500
vt 0.125000 0.375000
vt 0.125000 0.531250
vt 0.062500 0.531250
vt 0.062500 0.375000
vt 0.054919 0.812500
vt 0.406250 0.468750
vt 0.406250 0.625000
vt 0.343750 0.625000
vt 0.343750 0.468750
vt 0.000000 0.757581
vt 0.531250 0.468750
vt 0.531250 0.625000
vt 0.468750 0.625000
vt 0.468750 0.468750
vt 0.000000 0.679919
vt 0.468750 0.468750
vt 0.468750 0.625000
vt 0.406250 0.625000
vt 0.406250 0.468750
vt 0.054919 0.625000
vt 0.187500 0.375000
vt 0.187500 0.531250
vt 0.125000 0.531250
vt 0.125000 0.375000
vt 0.500000 0.625000
vt 0.500000 0.781250
vt 0.437500 0.781250
vt 0.437500 0.625000
vt 0.300666 0.515625
vt 0.335938 0.550897
vt 0.281250 0.570312
vt 0.207994 0.587531
vt 0.172412 0.625000
vt 0.128791 0.600807
vt 0.141734 0.550782
vt 0.335938 0.589728
vt 0.766734 0.937500
vt 0.753791 1.000000
vt 0.714959 1.000000
vt 0.702016 0.937500
vt 0.300666 0.625000
vt 0.452016 0.925784
vt 0.464959 0.975806
vt 0.421338 1.000000
vt 0.385757 0.962534
vt 0.261834 0.625000
vt 0.516734 0.925781
vt 0.503791 0.975806
vt 0.226562 0.589728
vt 0.582993 0.962534
vt 0.547412 1.000000
vt 0.226562 0.550897
vt 0.579234 0.250000
vt 0.566291 0.312500
vt 0.527459 0.312500
vt 0.514516 0.250000
vt 0.261834 0.515625
vt 0.077016 0.550782
vt 0.089959 0.600807
vt 0.046338 0.625000
vt 0.010756 0.587531
vt 0.593750 0.687500
vt 0.584041 0.781250
vt 0.525791 0.781250
vt 0.516084 0.687500
vt 0.011597 0.375000
vt 0.004325 0.281250
vt 0.062500 0.281250
vt 0.055228 0.375000
vt 0.163975 0.935337
vt 0.187500 0.945081
vt 0.132581 1.000000
vt 0.122837 0.976475
vt 0.554456 0.375000
vt 0.544750 0.468750
vt 0.486500 0.468750
vt 0.476794 0.375000
vt 0.603184 0.906250
vt 0.595913 0.812500
vt 0.654087 0.812500
vt 0.646816 0.906250
vt 0.163975 0.877163
vt 0.187500 0.867419
vt 0.358916 0.375000
vt 0.349206 0.468750
vt 0.290956 0.468750
vt 0.281250 0.375000
vt 0.069772 0.375000
vt 0.062500 0.281250
vt 0.120675 0.281250
vt 0.113403 0.375000
vt 0.122837 0.836025
vt 0.132581 0.812500
vt 0.648206 0.406250
vt 0.638500 0.500000
vt 0.580250 0.500000
vt 0.570544 0.406250
vt 0.571934 0.406250
vt 0.564663 0.312500
vt 0.622837 0.312500
vt 0.615566 0.406250
vt 0.064663 0.836025
vt 0.054919 0.812500
vt 0.625000 0.593750
vt 0.615294 0.687500
vt 0.557044 0.687500
vt 0.547334 0.593750
vt 0.199097 0.375000
vt 0.191825 0.281250
vt 0.250000 0.281250
vt 0.242728 0.375000
vt 0.023525 0.877163
vt 0.000000 0.867419
vt 0.616956 0.500000
vt 0.607250 0.593750
vt 0.549000 0.593750
vt 0.539294 0.500000
vt 0.071934 0.968750
vt 0.064663 0.875000
vt 0.122837 0.875000
vt 0.115566 0.968750
vt 0.023525 0.935337
vt 0.000000 0.945081
vt 0.452666 0.375000
vt 0.442959 0.468750
vt 0.384709 0.468750
vt 0.375000 0.375000
vt 0.132272 0.375000
vt 0.125000 0.281250
vt 0.183175 0.281250
vt 0.175903 0.375000
vt 0.064663 0.976475
vt 0.054919 1.000000
vt 0.679456 0.906250
vt 0.669750 1.000000
vt 0.611500 1.000000
vt 0.601794 0.906250
vt 0.603184 0.812500
vt 0.595913 0.718750
vt 0.654087 0.718750
vt 0.646816 0.812500
vt 0.375000 0.328125
vt 0.375000 0.250000
vt 0.406250 0.250000
vt 0.406250 0.343750
vt 0.593750 0.218750
vt 0.625000 0.218750
vt 0.625000 0.296875
vt 0.593750 0.312500
vt 0.375000 0.906250
vt 0.406250 0.906250
vt 0.406250 0.937500
vt 0.375000 0.937500
vt 0.031250 0.875000
vt 0.062500 0.875000
vt 0.062500 0.937500
vt 0.031250 0.937500
vt 0.625000 0.312500
vt 0.625000 0.218750
vt 0.656250 0.218750
vt 0.656250 0.312500
vt 0.593750 0.718750
vt 0.593750 0.687500
vt 0.750000 0.687500
vt 0.750000 0.718750
vt 0.250000 0.343750
vt 0.406250 0.343750
vt 0.406250 0.375000
vt 0.250000 0.375000
vt 0.656250 0.531250
vt 0.656250 0.687500
vt 0.625000 0.687500
vt 0.625000 0.531250
vt 0.406250 0.218750
vt 0.437500 0.218750
vt 0.437500 0.375000
vt 0.406250 0.375000
vt 0.672434 0.437500
vt 0.672434 0.406250
vt 0.781250 0.406250
vt 0.759375 0.421875
vt 0.250000 0.468750
vt 0.343750 0.468750
vt 0.343750 0.500000
vt 0.271875 0.484375
vt 0.375000 0.218750
vt 0.375000 0.327566
vt 0.343750 0.338784
vt 0.343750 0.229968
vt 0.582031 0.906250
vt 0.550781 0.906250
vt 0.511719 0.826578
vt 0.542969 0.826578
vt 0.511719 0.798409
vt 0.542969 0.798409
vt 0.656250 0.281250
vt 0.750000 0.281250
vt 0.750000 0.312500
vt 0.678125 0.296875
vt 0.687500 0.937500
vt 0.687500 0.906250
vt 0.796313 0.906250
vt 0.774437 0.921875
vt 0.778767 0.531250
vt 0.767549 0.562500
vt 0.658733 0.562500
vt 0.669951 0.531250
vt 0.269531 0.420328
vt 0.230469 0.500000
vt 0.199219 0.500000
vt 0.238281 0.420328
vt 0.238281 0.392159
vt 0.269531 0.392159
vt 0.625000 0.500000
vt 0.781250 0.500000
vt 0.781250 0.531250
vt 0.625000 0.531250
vt 0.625000 0.406250
vt 0.625000 0.375000
vt 0.781250 0.375000
vt 0.781250 0.406250
vt 0.468750 0.375000
vt 0.437500 0.375000
vt 0.437500 0.218750
vt 0.468750 0.218750
vt 0.468750 0.375000
vt 0.468750 0.218750
vt 0.500000 0.218750
vt 0.500000 0.375000
vt 0.812500 0.781250
vt 0.810881 0.812500
vt 0.765575 0.812500
vt 0.763959 0.781250
vt 0.489319 0.867381
vt 0.456901 0.894192
vt 0.439249 0.839843
vt 0.805522 0.875000
vt 0.803903 0.906250
vt 0.758597 0.906250
vt 0.756978 0.875000
vt 0.511693 0.327986
vt 0.550807 0.312500
vt 0.550807 0.369641
vt 0.204791 0.218750
vt 0.203172 0.250000
vt 0.157866 0.250000
vt 0.156250 0.218750
vt 0.457934 0.789062
vt 0.488602 0.817859
vt 0.436900 0.842194
vt 0.774272 0.250000
vt 0.772653 0.281250
vt 0.727347 0.281250
vt 0.725728 0.250000
vt 0.415865 0.789062
vt 0.281250 0.218750
vt 0.279634 0.250000
vt 0.234328 0.250000
vt 0.232709 0.218750
vt 0.386118 0.818809
vt 0.414915 0.788141
vt 0.805522 0.843750
vt 0.803903 0.875000
vt 0.758597 0.875000
vt 0.756978 0.843750
vt 0.386118 0.860878
vt 0.798541 0.812500
vt 0.796925 0.843750
vt 0.751619 0.843750
vt 0.750000 0.812500
vt 0.414915 0.891546
vt 0.149272 0.218750
vt 0.147653 0.250000
vt 0.102347 0.250000
vt 0.100728 0.218750
vt 0.378306 0.864116
vt 0.378306 0.815572
vt 0.412628 0.781250
vt 0.461171 0.781250
vt 0.487681 0.818809
vt 0.495493 0.815572
vt 0.487681 0.860878
vt 0.495493 0.864116
vt 0.496792 0.871340
vt 0.459388 0.902274
vt 0.459641 0.902192
vt 0.411193 0.899139
vt 0.411434 0.899253
vt 0.378208 0.863869
vt 0.000000 0.265625
vt 0.000000 0.187500
vt 0.031250 0.187500
vt 0.031250 0.281250
vt 0.031250 0.187500
vt 0.062500 0.187500
vt 0.062500 0.265625
vt 0.031250 0.281250
vt 0.000000 0.531250
vt 0.031250 0.531250
vt 0.031250 0.562500
vt 0.000000 0.562500
vt 0.125000 0.875000
vt 0.156250 0.875000
vt 0.156250 0.937500
vt 0.125000 0.937500
vt 0.062500 0.281250
vt 0.062500 0.187500
vt 0.093750 0.187500
vt 0.093750 0.281250
vt 0.781250 0.343750
vt 0.781250 0.375000
vt 0.718750 0.375000
vt 0.718750 0.343750
vt 0.375000 0.945081
vt 0.320081 1.000000
vt 0.281250 0.906250
vt 0.125000 0.843750
vt 0.125000 0.875000
vt 0.062500 0.875000
vt 0.062500 0.843750
vt 0.375000 0.867419
vt 0.343750 0.250000
vt 0.343750 0.281250
vt 0.281250 0.281250
vt 0.281250 0.250000
vt 0.320081 0.812500
vt 0.156250 0.250000
vt 0.156250 0.281250
vt 0.093750 0.281250
vt 0.093750 0.250000
vt 0.242419 0.812500
vt 0.781250 0.312500
vt 0.781250 0.343750
vt 0.718750 0.343750
vt 0.718750 0.312500
vt 0.187500 0.867419
vt 0.218750 0.250000
vt 0.218750 0.281250
vt 0.156250 0.281250
vt 0.156250 0.250000
vt 0.187500 0.945081
vt 0.718750 0.250000
vt 0.718750 0.281250
vt 0.656250 0.281250
vt 0.656250 0.250000
vt 0.242419 1.000000
vt 0.281250 0.250000
vt 0.281250 0.281250
vt 0.218750 0.281250
vt 0.218750 0.250000
vt 0.320081 0.625000
vt 0.375000 0.679919
vt 0.281250 0.718750
vt 0.375000 0.757581
vt 0.320081 0.812500
vt 0.242419 0.812500
vt 0.187500 0.757581
vt 0.187500 0.679919
vt 0.242419 0.625000
vt 0.746763 0.781250
vt 0.750000 0.843750
vt 0.672334 0.843750
vt 0.675569 0.781250
vt 0.332472 0.281250
vt 0.335706 0.343750
vt 0.258044 0.343750
vt 0.261278 0.281250
vt 0.699428 0.312500
vt 0.702666 0.375000
vt 0.625000 0.375000
vt 0.628234 0.312500
vt 0.738722 0.562500
vt 0.741956 0.625000
vt 0.664294 0.625000
vt 0.667528 0.562500
vt 0.746766 0.718750
vt 0.750000 0.781250
vt 0.672334 0.781250
vt 0.675572 0.718750
vt 0.738722 0.625000
vt 0.741956 0.687500
vt 0.664294 0.687500
vt 0.667528 0.625000
vt 0.730681 0.843750
vt 0.733916 0.906250
vt 0.656250 0.906250
vt 0.659487 0.843750
vt 0.738722 0.437500
vt 0.741956 0.500000
vt 0.664294 0.500000
vt 0.667528 0.437500
vn -0.0000 0.0000 1.0000
vn 0.7071 -0.7071 -0.0000
vn 1.0000 -0.0000 0.0000
vn 0.7071 0.7071 0.0000
vn 0.0000 1.0000 0.0000
vn -0.7071 0.7071 0.0000
vn -1.0000 -0.0000 0.0000
vn -0.7071 -0.7071 -0.0000
vn 0.0000 -1.0000 -0.0000
vn 0.5522 -0.5522 0.6247
vn 0.7809 0.0000 0.6247
vn 0.5522 0.5522 0.6247
vn 0.0000 0.7809 0.6247
vn -0.5522 0.5522 0.6247
vn -0.7809 0.0000 0.6247
vn -0.5522 -0.5522 0.6247
vn 0.0000 -0.7809 0.6247
vn 0.6860 -0.6860 0.2425
vn -0.6950 0.6950 -0.1841
vn 0.0000 0.0000 -1.0000
vn 0.9701 -0.0000 0.2425
vn -0.9829 0.0000 -0.1841
vn 0.6860 0.6860 0.2425
vn -0.6950 -0.6950 -0.1841
vn 0.0000 0.9701 0.2425
vn 0.0000 -0.9829 -0.1841
vn -0.6860 0.6860 0.2425
vn 0.6950 -0.6950 -0.1841
vn -0.9701 -0.0000 0.2425
vn 0.9829 0.0000 -0.1841
vn -0.6860 -0.6860 0.2425
vn 0.6950 0.6950 -0.1841
vn 0.0000 -0.9701 0.2425
vn 0.0000 0.9829 -0.1841
vn 0.0000 0.8944 0.4472
vn 0.9333 -0.0000 0.3590
vn 0.9334 0.0000 0.3590
vn -0.9333 0.0000 -0.3590
vn 0.0000 0.9806 -0.1961
vn 0.0000 0.8321 -0.5547
vn -0.9333 -0.0000 0.3590
vn -0.9334 0.0000 0.3590
vn 0.9333 0.0000 -0.3590
vn 0.7016 -0.7016 0.1240
vn -0.2080 0.2080 -0.9558
vn 0.9923 0.0000 0.1240
vn -0.2941 0.0000 -0.9558
vn 0.7016 0.7016 0.1240
vn -0.2079 -0.2079 -0.9558
vn 0.0000 0.9923 0.1240
vn 0.0000 -0.2941 -0.9558
vn -0.7016 0.7016 0.1240
vn 0.2079 -0.2079 -0.9558
vn -0.9923 0.0000 0.1240
vn 0.2941 0.0000 -0.9558
vn -0.7016 -0.7016 0.1240
vn 0.2080 0.2080 -0.9558
vn 0.0000 -0.9923 0.1240
vn 0.0000 0.2941 -0.9558
vn 0.7016 -0.7016 -0.1240
vn 0.9923 -0.0000 -0.1240
vn 0.7016 0.7016 -0.1240
vn 0.0000 0.9923 -0.1240
vn -0.7016 0.7016 -0.1240
vn -0.9923 0.0000 -0.1240
vn -0.7016 -0.7016 -0.1240
vn 0.0000 -0.9923 -0.1240
usemtl m_bc064cab-ff1a-1997-07b4-2d960e52488f
s 1
f 1/1/1 2/2/1 3/3/1
f 4/4/2 2/5/2 1/6/2 5/7/2
f 2/2/1 6/8/1 3/3/1
f 7/9/3 6/10/3 2/11/3 4/12/3
f 6/8/1 8/13/1 3/3/1
f 9/14/4 8/15/4 6/16/4 7/17/4
f 8/13/1 10/18/1 3/3/1
f 11/19/5 10/20/5 8/21/5 9/22/5
f 10/18/1 12/23/1 3/3/1
f 13/24/6 12/25/6 10/26/6 11/27/6
f 12/23/1 14/28/1 3/3/1
f 15/29/7 14/30/7 12/31/7 13/32/7
f 14/28/1 16/33/1 3/3/1
f 17/34/8 16/35/8 14/36/8 15/37/8
f 16/33/1 1/1/1 3/3/1
f 5/38/9 1/39/9 16/40/9 17/41/9
f 18/42/1 19/43/1 20/44/1
f 21/45/10 19/46/10 18/47/10 22/48/10
f 19/43/1 23/49/1 20/44/1
f 24/50/11 23/51/11 19/52/11 21/53/11
f 23/49/1 25/54/1 20/44/1
f 26/55/12 25/56/12 23/57/12 24/58/12
f 25/54/1 27/59/1 20/44/1
f 28/60/13 27/61/13 25/56/13 26/55/13
f 27/59/1 29/62/1 20/44/1
f 30/63/14 29/64/14 27/61/14 28/60/14
f 29/62/1 31/65/1 20/44/1
f 32/66/15 31/67/15 29/68/15 30/69/15
f 31/65/1 33/70/1 20/44/1
f 34/71/16 33/72/16 31/73/16 32/74/16
f 33/70/1 18/42/1 20/44/1
f 22/48/17 18/47/17 33/72/17 34/71/17
f 35/75/18 36/76/18 37/77/18 38/78/18
f 39/79/19 40/80/19 41/81/19 42/82/19
f 40/83/20 35/84/20 38/85/20 41/86/20
f 43/87/21 44/88/21 36/89/21 35/90/21
f 45/91/22 46/92/22 40/93/22 39/94/22
f 46/95/20 43/96/20 35/84/20 40/83/20
f 47/97/23 48/98/23 44/99/23 43/100/23
f 49/101/24 50/102/24 46/103/24 45/104/24
f 50/105/20 47/106/20 43/96/20 46/95/20
f 51/107/25 52/108/25 48/109/25 47/110/25
f 53/111/26 54/112/26 50/113/26 49/114/26
f 54/115/20 51/116/20 47/106/20 50/105/20
f 55/117/27 56/118/27 52/119/27 51/120/27
f 57/121/28 58/122/28 54/123/28 53/124/28
f 58/125/20 55/126/20 51/116/20 54/115/20
f 59/127/29 60/128/29 56/129/29 55/130/29
f 61/131/30 62/132/30 58/133/30 57/134/30
f 62/135/20 59/136/20 55/126/20 58/125/20
f 63/137/31 64/138/31 60/139/31 59/140/31
f 65/141/32 66/142/32 62/143/32 61/144/32
f 66/145/20 63/146/20 59/136/20 62/135/20
f 38/147/33 37/148/33 64/149/33 63/150/33
f 42/151/34 41/152/34 66/153/34 65/154/34
f 41/86/20 38/85/20 63/146/20 66/145/20
f 67/155/3 68/156/3 69/157/3 70/158/3
f 71/159/7 72/160/7 73/161/7 74/162/7
f 73/163/35 67/164/35 70/165/35 74/166/35
f 72/167/1 68/168/1 67/169/1 73/170/1
f 70/171/20 69/172/20 71/173/20 74/174/20
f 75/175/3 76/176/3 77/177/3 78/178/3
f 79/179/7 80/180/7 81/181/7 82/182/7
f 77/183/9 76/184/9 80/185/9 79/186/9
f 81/187/5 75/188/5 78/189/5 82/190/5
f 83/191/36 84/192/36 85/193/36 86/194/37
f 87/195/38 88/196/38 89/197/38 90/198/38
f 85/199/9 84/200/9 88/201/9 87/202/9
f 89/203/39 83/204/39 86/205/39 90/206/39
f 86/205/40 85/207/40 87/208/40 90/206/40
f 91/209/41 92/210/41 93/211/41 94/212/42
f 95/213/43 96/214/43 97/215/43 98/216/43
f 96/217/9 92/218/9 91/219/9 97/220/9
f 94/221/39 93/222/39 95/223/39 98/224/39
f 97/225/40 91/226/40 94/221/40 98/224/40
f 99/227/7 100/228/7 101/229/7 102/230/7
f 103/231/3 104/232/3 105/233/3 106/234/3
f 104/235/9 100/236/9 99/237/9 105/238/9
f 102/239/5 101/240/5 103/241/5 106/242/5
f 107/243/44 108/244/44 109/245/44 110/246/44
f 111/247/45 112/248/45 113/249/45
f 114/250/46 115/251/46 108/252/46 107/253/46
f 116/254/47 111/255/47 113/256/47
f 117/257/48 118/258/48 115/259/48 114/260/48
f 119/261/49 116/262/49 113/263/49
f 120/264/50 121/265/50 118/266/50 117/267/50
f 122/268/51 119/261/51 113/263/51
f 123/269/52 124/270/52 121/271/52 120/272/52
f 125/273/53 122/274/53 113/249/53
f 126/275/54 127/276/54 124/277/54 123/278/54
f 128/279/55 125/273/55 113/249/55
f 129/280/56 130/281/56 127/282/56 126/283/56
f 131/284/57 128/279/57 113/249/57
f 110/285/58 109/286/58 130/287/58 129/288/58
f 112/248/59 131/284/59 113/249/59
f 125/273/20 128/279/20 126/289/20 123/290/20
f 122/268/20 125/273/20 123/290/20 120/291/20
f 119/261/20 122/268/20 120/291/20 117/292/20
f 116/293/20 119/261/20 117/292/20 114/294/20
f 111/295/20 116/293/20 114/294/20 107/296/20
f 112/248/20 111/247/20 107/297/20 110/298/20
f 131/284/20 112/248/20 110/299/20 129/300/20
f 128/279/20 131/284/20 129/301/20 126/302/20
f 132/303/3 133/304/3 134/305/3 135/306/3
f 136/307/7 137/308/7 138/309/7 139/310/7
f 138/311/35 132/312/35 135/313/35 139/314/35
f 137/315/1 133/316/1 132/317/1 138/318/1
f 135/319/20 134/320/20 136/321/20 139/322/20
f 140/323/2 141/324/2 142/325/2 143/326/2
f 140/327/20 143/328/20 144/329/20
f 145/330/3 146/331/3 141/332/3 140/333/3
f 145/334/20 140/327/20 144/329/20
f 147/335/4 148/336/4 146/337/4 145/338/4
f 147/339/20 145/334/20 144/329/20
f 149/340/5 150/341/5 148/342/5 147/343/5
f 149/344/20 147/339/20 144/329/20
f 151/345/6 152/346/6 150/347/6 149/348/6
f 151/349/20 149/344/20 144/329/20
f 153/350/7 154/351/7 152/352/7 151/353/7
f 153/354/20 151/349/20 144/329/20
f 155/355/8 156/356/8 154/357/8 153/358/8
f 155/359/20 153/354/20 144/329/20
f 143/360/9 142/361/9 156/362/9 155/363/9
f 143/328/20 155/359/20 144/329/20
f 142/364/1 141/365/1 157/366/1
f 141/365/1 146/367/1 157/366/1
f 146/367/1 148/368/1 157/366/1
f 148/368/1 150/369/1 157/366/1
f 150/369/1 152/370/1 157/366/1
f 152/370/1 154/371/1 157/366/1
f 154/371/1 156/372/1 157/366/1
f 156/372/1 142/364/1 157/366/1
f 158/373/60 159/374/60 160/375/60 161/376/60
f 162/377/61 163/378/61 159/379/61 158/380/61
f 164/381/62 165/382/62 163/383/62 162/384/62
f 166/385/63 167/386/63 165/387/63 164/388/63
f 168/389/64 169/390/64 167/391/64 166/392/64
f 170/393/65 171/394/65 169/395/65 168/396/65
f 172/397/66 173/398/66 171/399/66 170/400/66
f 161/401/67 160/402/67 173/403/67 172/404/67
