# Blender v2.78 (sub 0) OBJ File: ''
# www.blender.org
mtllib rollbar.mtl
o rollbar
v -0.359375 0.015630 -0.046870
v -0.359375 0.000005 -0.046870
v -0.359375 0.015630 0.046880
v -0.359375 0.000005 0.046880
v -0.265625 0.015630 0.046880
v -0.265625 0.000005 0.046880
v -0.265625 0.015630 -0.046870
v -0.265625 0.000005 -0.046870
v -0.046875 0.015630 -0.046870
v -0.046875 0.000005 -0.046870
v -0.046875 0.015630 0.046880
v -0.046875 0.000005 0.046880
v 0.046875 0.015630 0.046880
v 0.046875 0.000005 0.046880
v 0.046875 0.015630 -0.046870
v 0.046875 0.000005 -0.046870
v 0.265625 0.015630 -0.046870
v 0.265625 0.000005 -0.046870
v 0.265625 0.015630 0.046880
v 0.265625 0.000005 0.046880
v 0.359375 0.015630 0.046880
v 0.359375 0.000005 0.046880
v 0.359375 0.015630 -0.046870
v 0.359375 0.000005 -0.046870
v -0.343750 0.250005 -0.031245
v -0.343750 0.015630 -0.031245
v -0.343750 0.250005 0.031255
v -0.343750 0.015630 0.031255
v -0.281250 0.250005 0.031255
v -0.281250 0.015630 0.031255
v -0.281250 0.250005 -0.031245
v -0.281250 0.015630 -0.031245
v -0.031250 0.281255 -0.031245
v -0.031250 0.015630 -0.031245
v -0.031250 0.281255 0.031255
v -0.031250 0.015630 0.031255
v 0.031250 0.281255 0.031255
v 0.031250 0.015630 0.031255
v 0.031250 0.281255 -0.031245
v 0.031250 0.015630 -0.031245
v 0.281250 0.250005 -0.031245
v 0.281250 0.015630 -0.031245
v 0.281250 0.250005 0.031255
v 0.281250 0.015630 0.031255
v 0.343750 0.250005 0.031255
v 0.343750 0.015630 0.031255
v 0.343750 0.250005 -0.031245
v 0.343750 0.015630 -0.031245
v -0.277459 0.316296 -0.031245
v -0.343750 0.250005 -0.031245
v -0.277459 0.316296 0.031255
v -0.343750 0.250005 0.031255
v -0.233265 0.272102 0.031255
v -0.299556 0.205811 0.031255
v -0.233265 0.272102 -0.031245
v -0.299556 0.205811 -0.031245
v -0.277459 0.316296 -0.031245
v -0.277459 0.253796 -0.031245
v -0.277459 0.316296 0.031255
v -0.277459 0.253796 0.031255
v 0.003791 0.316296 0.031255
v 0.003791 0.253796 0.031255
v 0.003791 0.316296 -0.031245
v 0.003791 0.253796 -0.031245
v -0.003791 0.316296 -0.031245
v -0.003791 0.253796 -0.031245
v -0.003791 0.316296 0.031255
v -0.003791 0.253796 0.031255
v 0.277459 0.316296 0.031255
v 0.277459 0.253796 0.031255
v 0.277459 0.316296 -0.031245
v 0.277459 0.253796 -0.031245
v 0.277459 0.316296 -0.031245
v 0.233265 0.272102 -0.031245
v 0.277459 0.316296 0.031255
v 0.233265 0.272102 0.031255
v 0.343750 0.250005 0.031255
v 0.299556 0.205811 0.031255
v 0.343750 0.250005 -0.031245
v 0.299556 0.205811 -0.031245
v 0.156250 0.531337 -0.002692
v 0.156250 0.314458 -0.031245
v 0.156250 0.523179 0.059273
v 0.156250 0.306300 0.030720
v 0.218750 0.523179 0.059273
v 0.218750 0.306300 0.030720
v 0.218750 0.531337 -0.002692
v 0.218750 0.314458 -0.031245
v -0.218750 0.531337 -0.002692
v -0.218750 0.314458 -0.031245
v -0.218750 0.523179 0.059273
v -0.218750 0.306300 0.030720
v -0.156250 0.523179 0.059273
v -0.156250 0.306300 0.030720
v -0.156250 0.531337 -0.002692
v -0.156250 0.314458 -0.031245
v 0.152459 0.597061 0.005960
v 0.108265 0.553245 0.000192
v 0.152459 0.588903 0.067926
v 0.108265 0.545087 0.062157
v 0.218750 0.523179 0.059273
v 0.174556 0.479363 0.053504
v 0.218750 0.531337 -0.002692
v 0.174556 0.487521 -0.008461
v -0.152459 0.597061 0.005960
v -0.152459 0.535096 -0.002197
v -0.152459 0.588903 0.067926
v -0.152459 0.526938 0.059768
v 0.003791 0.588903 0.067926
v 0.003791 0.526938 0.059768
v 0.003791 0.597061 0.005960
v 0.003791 0.535096 -0.002197
v -0.152459 0.597061 0.005960
v -0.218750 0.531337 -0.002692
v -0.152459 0.588903 0.067926
v -0.218750 0.523179 0.059273
v -0.108265 0.545087 0.062157
v -0.174556 0.479363 0.053504
v -0.108265 0.553245 0.000192
v -0.174556 0.487521 -0.008461
v -0.003791 0.597061 0.005960
v -0.003791 0.535096 -0.002197
v -0.003791 0.588903 0.067926
v -0.003791 0.526938 0.059768
v 0.152459 0.588903 0.067926
v 0.152459 0.526938 0.059768
v 0.152459 0.597061 0.005960
v 0.152459 0.535096 -0.002197
vt 0.5625 0.5625
vt 0.9375 0.5625
vt 0.9375 0.9375
vt 0.5625 0.5625
vt 0.9375 0.5625
vt 0.5625 0.5625
vt 0.9375 0.5625
vt 0.9375 0.9375
vt 0.5625 0.5625
vt 0.9375 0.5625
vt 0.9375 0.5625
vt 0.5625 0.5625
vt 0.9375 0.5625
vt 0.5625 0.5625
vt 0.9375 0.9375
vt 0.9375 0.9375
vt 0.5625 0.5625
vt 0.9375 0.9375
vt 0.5625 0.5625
vt 0.5625 0.5625
vt 0.9375 0.5625
vt 0.9375 0.9375
vt 0.5625 0.5625
vt 0.9375 0.5625
vt 0.5625 0.5625
vt 0.9375 0.5625
vt 0.9375 0.9375
vt 0.5625 0.5625
vt 0.9375 0.5625
vt 0.9375 0.5625
vt 0.5625 0.5625
vt 0.9375 0.5625
vt 0.5625 0.5625
vt 0.9375 0.9375
vt 0.9375 0.9375
vt 0.5625 0.5625
vt 0.9375 0.9375
vt 0.5625 0.5625
vt 0.5625 0.5625
vt 0.9375 0.5625
vt 0.9375 0.9375
vt 0.5625 0.5625
vt 0.9375 0.5625
vt 0.5625 0.5625
vt 0.9375 0.5625
vt 0.9375 0.9375
vt 0.5625 0.5625
vt 0.9375 0.5625
vt 0.9375 0.5625
vt 0.5625 0.5625
vt 0.9375 0.5625
vt 0.5625 0.5625
vt 0.9375 0.9375
vt 0.9375 0.9375
vt 0.5625 0.5625
vt 0.9375 0.9375
vt 0.5625 0.5625
vt 0.0625 0.5625
vt 0.4375 0.5625
vt 0.4375 0.9375
vt 0.0625 0.5625
vt 0.4375 0.5625
vt 0.0625 0.5625
vt 0.4375 0.5625
vt 0.4375 0.9375
vt 0.0625 0.5625
vt 0.4375 0.5625
vt 0.4375 0.5625
vt 0.0625 0.5625
vt 0.4375 0.5625
vt 0.0625 0.5625
vt 0.4375 0.9375
vt 0.4375 0.9375
vt 0.0625 0.5625
vt 0.4375 0.9375
vt 0.0625 0.5625
vt 0.0625 0.5625
vt 0.4375 0.5625
vt 0.4375 0.9375
vt 0.0625 0.5625
vt 0.4375 0.5625
vt 0.0625 0.5625
vt 0.4375 0.5625
vt 0.4375 0.9375
vt 0.0625 0.5625
vt 0.4375 0.5625
vt 0.4375 0.5625
vt 0.0625 0.5625
vt 0.4375 0.5625
vt 0.0625 0.5625
vt 0.4375 0.9375
vt 0.4375 0.9375
vt 0.0625 0.5625
vt 0.4375 0.9375
vt 0.0625 0.5625
vt 0.0625 0.5625
vt 0.4375 0.5625
vt 0.4375 0.9375
vt 0.0625 0.5625
vt 0.4375 0.5625
vt 0.0625 0.5625
vt 0.4375 0.5625
vt 0.4375 0.9375
vt 0.0625 0.5625
vt 0.4375 0.5625
vt 0.4375 0.5625
vt 0.0625 0.5625
vt 0.4375 0.5625
vt 0.0625 0.5625
vt 0.4375 0.9375
vt 0.4375 0.9375
vt 0.0625 0.5625
vt 0.4375 0.9375
vt 0.0625 0.5625
vt 0.0625 0.5625
vt 0.4375 0.5625
vt 0.4375 0.9375
vt 0.0625 0.5625
vt 0.4375 0.5625
vt 0.0625 0.5625
vt 0.4375 0.5625
vt 0.4375 0.9375
vt 0.0625 0.5625
vt 0.4375 0.5625
vt 0.4375 0.5625
vt 0.0625 0.5625
vt 0.4375 0.5625
vt 0.0625 0.5625
vt 0.4375 0.9375
vt 0.4375 0.9375
vt 0.0625 0.5625
vt 0.4375 0.9375
vt 0.0625 0.5625
vt 0.0625 0.5625
vt 0.4375 0.5625
vt 0.4375 0.9375
vt 0.0625 0.5625
vt 0.4375 0.5625
vt 0.0625 0.5625
vt 0.4375 0.5625
vt 0.4375 0.9375
vt 0.0625 0.5625
vt 0.4375 0.5625
vt 0.4375 0.5625
vt 0.0625 0.5625
vt 0.4375 0.5625
vt 0.0625 0.5625
vt 0.4375 0.9375
vt 0.4375 0.9375
vt 0.0625 0.5625
vt 0.4375 0.9375
vt 0.0625 0.5625
vt 0.0625 0.5625
vt 0.4375 0.5625
vt 0.4375 0.9375
vt 0.0625 0.5625
vt 0.4375 0.5625
vt 0.0625 0.5625
vt 0.4375 0.5625
vt 0.4375 0.9375
vt 0.0625 0.5625
vt 0.4375 0.5625
vt 0.4375 0.5625
vt 0.0625 0.5625
vt 0.4375 0.5625
vt 0.0625 0.5625
vt 0.4375 0.9375
vt 0.4375 0.9375
vt 0.0625 0.5625
vt 0.4375 0.9375
vt 0.0625 0.5625
vt 0.0625 0.5625
vt 0.4375 0.5625
vt 0.4375 0.9375
vt 0.0625 0.5625
vt 0.4375 0.5625
vt 0.0625 0.5625
vt 0.4375 0.5625
vt 0.4375 0.9375
vt 0.0625 0.5625
vt 0.4375 0.5625
vt 0.4375 0.5625
vt 0.0625 0.5625
vt 0.4375 0.5625
vt 0.0625 0.5625
vt 0.4375 0.9375
vt 0.4375 0.9375
vt 0.0625 0.5625
vt 0.4375 0.9375
vt 0.0625 0.5625
vt 0.0625 0.5625
vt 0.4375 0.5625
vt 0.4375 0.9375
vt 0.0625 0.5625
vt 0.4375 0.5625
vt 0.0625 0.5625
vt 0.4375 0.5625
vt 0.4375 0.9375
vt 0.0625 0.5625
vt 0.4375 0.5625
vt 0.4375 0.5625
vt 0.0625 0.5625
vt 0.4375 0.5625
vt 0.0625 0.5625
vt 0.4375 0.9375
vt 0.4375 0.9375
vt 0.0625 0.5625
vt 0.4375 0.9375
vt 0.0625 0.5625
vt 0.0625 0.5625
vt 0.4375 0.5625
vt 0.4375 0.9375
vt 0.0625 0.5625
vt 0.4375 0.5625
vt 0.0625 0.5625
vt 0.4375 0.5625
vt 0.4375 0.9375
vt 0.0625 0.5625
vt 0.4375 0.5625
vt 0.4375 0.5625
vt 0.0625 0.5625
vt 0.4375 0.5625
vt 0.0625 0.5625
vt 0.4375 0.9375
vt 0.4375 0.9375
vt 0.0625 0.5625
vt 0.4375 0.9375
vt 0.0625 0.5625
vt 0.0625 0.5625
vt 0.4375 0.5625
vt 0.4375 0.9375
vt 0.0625 0.5625
vt 0.4375 0.5625
vt 0.0625 0.5625
vt 0.4375 0.5625
vt 0.4375 0.9375
vt 0.0625 0.5625
vt 0.4375 0.5625
vt 0.4375 0.5625
vt 0.0625 0.5625
vt 0.4375 0.5625
vt 0.0625 0.5625
vt 0.4375 0.9375
vt 0.4375 0.9375
vt 0.0625 0.5625
vt 0.4375 0.9375
vt 0.0625 0.5625
vt 0.0625 0.5625
vt 0.4375 0.5625
vt 0.4375 0.9375
vt 0.0625 0.5625
vt 0.4375 0.5625
vt 0.0625 0.5625
vt 0.4375 0.5625
vt 0.4375 0.9375
vt 0.0625 0.5625
vt 0.4375 0.5625
vt 0.4375 0.5625
vt 0.0625 0.5625
vt 0.4375 0.5625
vt 0.0625 0.5625
vt 0.4375 0.9375
vt 0.4375 0.9375
vt 0.0625 0.5625
vt 0.4375 0.9375
vt 0.0625 0.5625
vt 0.0625 0.5625
vt 0.4375 0.5625
vt 0.4375 0.9375
vt 0.0625 0.5625
vt 0.4375 0.5625
vt 0.0625 0.5625
vt 0.4375 0.5625
vt 0.4375 0.9375
vt 0.0625 0.5625
vt 0.4375 0.5625
vt 0.4375 0.5625
vt 0.0625 0.5625
vt 0.4375 0.5625
vt 0.0625 0.5625
vt 0.4375 0.9375
vt 0.4375 0.9375
vt 0.0625 0.5625
vt 0.4375 0.9375
vt 0.0625 0.5625
vt 0.0625 0.5625
vt 0.4375 0.5625
vt 0.4375 0.9375
vt 0.0625 0.5625
vt 0.4375 0.5625
vt 0.0625 0.5625
vt 0.4375 0.5625
vt 0.4375 0.9375
vt 0.0625 0.5625
vt 0.4375 0.5625
vt 0.4375 0.5625
vt 0.0625 0.5625
vt 0.4375 0.5625
vt 0.0625 0.5625
vt 0.4375 0.9375
vt 0.4375 0.9375
vt 0.0625 0.5625
vt 0.4375 0.9375
vt 0.0625 0.5625
vn -1.0000 0.0000 0.0000
vn 1.0000 0.0000 0.0000
vn 0.0000 1.0000 0.0000
vn 0.0000 -1.0000 -0.0000
vn 0.0000 0.0000 -1.0000
vn 0.0000 0.0000 1.0000
vn -0.7071 0.7071 0.0000
vn 0.7071 -0.7071 0.0000
vn 0.7071 0.7071 0.0000
vn -0.7071 -0.7071 0.0000
vn 0.0000 0.9914 0.1305
vn 0.0000 -0.9914 -0.1305
vn 0.0000 0.1305 -0.9914
vn 0.0000 -0.1305 0.9914
vn -0.7071 0.7011 0.0923
vn 0.7071 -0.7011 -0.0923
vn 0.7071 0.7011 0.0923
vn -0.7071 -0.7011 -0.0923
usemtl m_0
s 1
f 1/1/1 2/2/1 3/3/1
f 2/4/1 4/5/1 3/3/1
f 5/6/2 6/7/2 7/8/2
f 6/9/2 8/10/2 7/8/2
f 5/6/3 7/11/3 3/3/3
f 7/12/3 1/13/3 3/3/3
f 8/14/4 6/7/4 2/15/4
f 6/9/4 4/5/4 2/15/4
f 7/12/5 8/10/5 1/16/5
f 8/14/5 2/2/5 1/16/5
f 3/17/6 4/5/6 5/18/6
f 4/19/6 6/7/6 5/18/6
f 9/20/1 10/21/1 11/22/1
f 10/23/1 12/24/1 11/22/1
f 13/25/2 14/26/2 15/27/2
f 14/28/2 16/29/2 15/27/2
f 13/25/3 15/30/3 11/22/3
f 15/31/3 9/32/3 11/22/3
f 16/33/4 14/26/4 10/34/4
f 14/28/4 12/24/4 10/34/4
f 15/31/5 16/29/5 9/35/5
f 16/33/5 10/21/5 9/35/5
f 11/36/6 12/24/6 13/37/6
f 12/38/6 14/26/6 13/37/6
f 17/39/1 18/40/1 19/41/1
f 18/42/1 20/43/1 19/41/1
f 21/44/2 22/45/2 23/46/2
f 22/47/2 24/48/2 23/46/2
f 21/44/3 23/49/3 19/41/3
f 23/50/3 17/51/3 19/41/3
f 24/52/4 22/45/4 18/53/4
f 22/47/4 20/43/4 18/53/4
f 23/50/5 24/48/5 17/54/5
f 24/52/5 18/40/5 17/54/5
f 19/55/6 20/43/6 21/56/6
f 20/57/6 22/45/6 21/56/6
f 25/58/1 26/59/1 27/60/1
f 26/61/1 28/62/1 27/60/1
f 29/63/2 30/64/2 31/65/2
f 30/66/2 32/67/2 31/65/2
f 29/63/3 31/68/3 27/60/3
f 31/69/3 25/70/3 27/60/3
f 32/71/4 30/64/4 26/72/4
f 30/66/4 28/62/4 26/72/4
f 31/69/5 32/67/5 25/73/5
f 32/71/5 26/59/5 25/73/5
f 27/74/6 28/62/6 29/75/6
f 28/76/6 30/64/6 29/75/6
f 33/77/1 34/78/1 35/79/1
f 34/80/1 36/81/1 35/79/1
f 37/82/2 38/83/2 39/84/2
f 38/85/2 40/86/2 39/84/2
f 37/82/3 39/87/3 35/79/3
f 39/88/3 33/89/3 35/79/3
f 40/90/4 38/83/4 34/91/4
f 38/85/4 36/81/4 34/91/4
f 39/88/5 40/86/5 33/92/5
f 40/90/5 34/78/5 33/92/5
f 35/93/6 36/81/6 37/94/6
f 36/95/6 38/83/6 37/94/6
f 41/96/1 42/97/1 43/98/1
f 42/99/1 44/100/1 43/98/1
f 45/101/2 46/102/2 47/103/2
f 46/104/2 48/105/2 47/103/2
f 45/101/3 47/106/3 43/98/3
f 47/107/3 41/108/3 43/98/3
f 48/109/4 46/102/4 42/110/4
f 46/104/4 44/100/4 42/110/4
f 47/107/5 48/105/5 41/111/5
f 48/109/5 42/97/5 41/111/5
f 43/112/6 44/100/6 45/113/6
f 44/114/6 46/102/6 45/113/6
f 49/115/7 50/116/7 51/117/7
f 50/118/7 52/119/7 51/117/7
f 53/120/8 54/121/8 55/122/8
f 54/123/8 56/124/8 55/122/8
f 53/120/9 55/125/9 51/117/9
f 55/126/9 49/127/9 51/117/9
f 56/128/10 54/121/10 50/129/10
f 54/123/10 52/119/10 50/129/10
f 55/126/5 56/124/5 49/130/5
f 56/128/5 50/116/5 49/130/5
f 51/131/6 52/119/6 53/132/6
f 52/133/6 54/121/6 53/132/6
f 57/134/1 58/135/1 59/136/1
f 58/137/1 60/138/1 59/136/1
f 61/139/2 62/140/2 63/141/2
f 62/142/2 64/143/2 63/141/2
f 61/139/3 63/144/3 59/136/3
f 63/145/3 57/146/3 59/136/3
f 64/147/4 62/140/4 58/148/4
f 62/142/4 60/138/4 58/148/4
f 63/145/5 64/143/5 57/149/5
f 64/147/5 58/135/5 57/149/5
f 59/150/6 60/138/6 61/151/6
f 60/152/6 62/140/6 61/151/6
f 65/153/1 66/154/1 67/155/1
f 66/156/1 68/157/1 67/155/1
f 69/158/2 70/159/2 71/160/2
f 70/161/2 72/162/2 71/160/2
f 69/158/3 71/163/3 67/155/3
f 71/164/3 65/165/3 67/155/3
f 72/166/4 70/159/4 66/167/4
f 70/161/4 68/157/4 66/167/4
f 71/164/5 72/162/5 65/168/5
f 72/166/5 66/154/5 65/168/5
f 67/169/6 68/157/6 69/170/6
f 68/171/6 70/159/6 69/170/6
f 73/172/7 74/173/7 75/174/7
f 74/175/7 76/176/7 75/174/7
f 77/177/8 78/178/8 79/179/8
f 78/180/8 80/181/8 79/179/8
f 77/177/9 79/182/9 75/174/9
f 79/183/9 73/184/9 75/174/9
f 80/185/10 78/178/10 74/186/10
f 78/180/10 76/176/10 74/186/10
f 79/183/5 80/181/5 73/187/5
f 80/185/5 74/173/5 73/187/5
f 75/188/6 76/176/6 77/189/6
f 76/190/6 78/178/6 77/189/6
f 81/191/1 82/192/1 83/193/1
f 82/194/1 84/195/1 83/193/1
f 85/196/2 86/197/2 87/198/2
f 86/199/2 88/200/2 87/198/2
f 85/196/11 87/201/11 83/193/11
f 87/202/11 81/203/11 83/193/11
f 88/204/12 86/197/12 82/205/12
f 86/199/12 84/195/12 82/205/12
f 87/202/13 88/200/13 81/206/13
f 88/204/13 82/192/13 81/206/13
f 83/207/14 84/195/14 85/208/14
f 84/209/14 86/197/14 85/208/14
f 89/210/1 90/211/1 91/212/1
f 90/213/1 92/214/1 91/212/1
f 93/215/2 94/216/2 95/217/2
f 94/218/2 96/219/2 95/217/2
f 93/215/11 95/220/11 91/212/11
f 95/221/11 89/222/11 91/212/11
f 96/223/12 94/216/12 90/224/12
f 94/218/12 92/214/12 90/224/12
f 95/221/13 96/219/13 89/225/13
f 96/223/13 90/211/13 89/225/13
f 91/226/14 92/214/14 93/227/14
f 92/228/14 94/216/14 93/227/14
f 97/229/15 98/230/15 99/231/15
f 98/232/15 100/233/15 99/231/15
f 101/234/16 102/235/16 103/236/16
f 102/237/16 104/238/16 103/236/16
f 101/234/17 103/239/17 99/231/17
f 103/240/17 97/241/17 99/231/17
f 104/242/18 102/235/18 98/243/18
f 102/237/18 100/233/18 98/243/18
f 103/240/13 104/238/13 97/244/13
f 104/242/13 98/230/13 97/244/13
f 99/245/14 100/233/14 101/246/14
f 100/247/14 102/235/14 101/246/14
f 105/248/1 106/249/1 107/250/1
f 106/251/1 108/252/1 107/250/1
f 109/253/2 110/254/2 111/255/2
f 110/256/2 112/257/2 111/255/2
f 109/253/11 111/258/11 107/250/11
f 111/259/11 105/260/11 107/250/11
f 112/261/12 110/254/12 106/262/12
f 110/256/12 108/252/12 106/262/12
f 111/259/13 112/257/13 105/263/13
f 112/261/13 106/249/13 105/263/13
f 107/264/14 108/252/14 109/265/14
f 108/266/14 110/254/14 109/265/14
f 113/267/15 114/268/15 115/269/15
f 114/270/15 116/271/15 115/269/15
f 117/272/16 118/273/16 119/274/16
f 118/275/16 120/276/16 119/274/16
f 117/272/17 119/277/17 115/269/17
f 119/278/17 113/279/17 115/269/17
f 120/280/18 118/273/18 114/281/18
f 118/275/18 116/271/18 114/281/18
f 119/278/13 120/276/13 113/282/13
f 120/280/13 114/268/13 113/282/13
f 115/283/14 116/271/14 117/284/14
f 116/285/14 118/273/14 117/284/14
f 121/286/1 122/287/1 123/288/1
f 122/289/1 124/290/1 123/288/1
f 125/291/2 126/292/2 127/293/2
f 126/294/2 128/295/2 127/293/2
f 125/291/11 127/296/11 123/288/11
f 127/297/11 121/298/11 123/288/11
f 128/299/12 126/292/12 122/300/12
f 126/294/12 124/290/12 122/300/12
f 127/297/13 128/295/13 121/301/13
f 128/299/13 122/287/13 121/301/13
f 123/302/14 124/290/14 125/303/14
f 124/304/14 126/292/14 125/303/14
