# Blender v2.78 (sub 0) OBJ File: ''
# www.blender.org
mtllib scoutstand.mtl
o cube
v 0.072225 0.361742 0.072225
v 0.072225 0.325630 0.072225
v 0.072225 0.361742 -0.072224
v 0.072225 0.325630 -0.072224
v -0.072225 0.361742 -0.072224
v -0.072225 0.325630 -0.072224
v -0.072225 0.361742 0.072225
v -0.072225 0.325630 0.072225
v 0.018056 0.331356 -0.036968
v 0.018056 -0.585307 -0.240187
v 0.018056 0.339172 -0.072224
v 0.018056 -0.577491 -0.275444
v -0.018056 0.339172 -0.072224
v -0.018056 -0.577491 -0.275444
v -0.018056 0.331356 -0.036968
v -0.018056 -0.585307 -0.240187
v 0.036112 -0.569304 -0.216674
v 0.036112 -0.587361 -0.216674
v 0.036112 -0.569304 -0.288898
v 0.036112 -0.587361 -0.288898
v -0.036112 -0.569304 -0.288898
v -0.036112 -0.587361 -0.288898
v -0.036112 -0.569304 -0.216674
v -0.036112 -0.587361 -0.216674
v 0.288683 -0.569304 0.288986
v 0.288683 -0.587361 0.288986
v 0.288683 -0.569304 0.216761
v 0.288683 -0.587361 0.216761
v 0.216458 -0.569304 0.216761
v 0.216458 -0.587361 0.216761
v 0.216458 -0.569304 0.288986
v 0.216458 -0.587361 0.288986
v 0.068409 0.342840 0.068317
v 0.270627 -0.569304 0.275444
v 0.070101 0.335209 0.033060
v 0.272318 -0.576935 0.240188
v 0.034845 0.327393 0.033060
v 0.237062 -0.584751 0.240188
v 0.033153 0.335024 0.068317
v 0.235370 -0.577121 0.275444
v -0.033153 0.335024 0.068317
v -0.235370 -0.577121 0.275444
v -0.034845 0.327393 0.033060
v -0.237062 -0.584751 0.240188
v -0.070101 0.335209 0.033060
v -0.272318 -0.576935 0.240188
v -0.068409 0.342840 0.068317
v -0.270627 -0.569304 0.275444
v -0.216889 -0.569304 0.288986
v -0.216889 -0.587361 0.288986
v -0.216889 -0.569304 0.216761
v -0.216889 -0.587361 0.216761
v -0.289113 -0.569304 0.216761
v -0.289113 -0.587361 0.216761
v -0.289113 -0.569304 0.288986
v -0.289113 -0.587361 0.288986
v 0.054168 0.357228 0.076739
v 0.054168 0.330144 0.076739
v 0.054168 0.357228 0.072225
v 0.054168 0.330144 0.072225
v -0.054168 0.357228 0.072225
v -0.054168 0.330144 0.072225
v -0.054168 0.357228 0.076739
v -0.054168 0.330144 0.076739
v -0.040912 0.379798 0.061229
v -0.040912 0.361742 0.061229
v 0.061229 0.379798 -0.040912
v 0.061229 0.361742 -0.040912
v 0.040912 0.379798 -0.061229
v 0.040912 0.361742 -0.061229
v -0.061229 0.379798 0.040912
v -0.061229 0.361742 0.040912
v -0.014366 0.379798 0.072225
v -0.014366 0.361742 0.072225
v 0.040912 0.379798 -0.061229
v 0.040912 0.361742 -0.061229
v 0.014366 0.379798 -0.072224
v 0.014366 0.361742 -0.072224
v -0.040912 0.379798 0.061229
v -0.040912 0.361742 0.061229
v 0.014366 0.379798 0.072225
v 0.014366 0.361742 0.072225
v 0.014366 0.379798 -0.072224
v 0.014366 0.361742 -0.072224
v -0.014366 0.379798 -0.072224
v -0.014366 0.361742 -0.072224
v -0.014366 0.379798 0.072225
v -0.014366 0.361742 0.072225
v 0.040912 0.379798 0.061229
v 0.040912 0.361742 0.061229
v -0.014366 0.379798 -0.072224
v -0.014366 0.361742 -0.072224
v -0.040912 0.379798 -0.061229
v -0.040912 0.361742 -0.061229
v 0.014366 0.379798 0.072225
v 0.014366 0.361742 0.072225
v 0.061229 0.379798 0.040912
v 0.061229 0.361742 0.040912
v -0.040912 0.379798 -0.061229
v -0.040912 0.361742 -0.061229
v -0.061229 0.379798 -0.040912
v -0.061229 0.361742 -0.040912
v 0.040912 0.379798 0.061229
v 0.040912 0.361742 0.061229
v 0.061229 0.379798 0.040912
v 0.061229 0.361742 0.040912
v 0.072225 0.379798 0.014366
v 0.072225 0.361742 0.014366
v -0.061229 0.379798 -0.040912
v -0.061229 0.361742 -0.040912
v -0.072225 0.379798 -0.014366
v -0.072225 0.361742 -0.014366
v 0.072225 0.379798 0.014366
v 0.072225 0.361742 0.014366
v 0.072225 0.379798 -0.014366
v 0.072225 0.361742 -0.014366
v -0.072225 0.379798 -0.014366
v -0.072225 0.361742 -0.014366
v -0.072225 0.379798 0.014366
v -0.072225 0.361742 0.014366
v 0.072225 0.379798 -0.014366
v 0.072225 0.361742 -0.014366
v 0.061229 0.379798 -0.040912
v 0.061229 0.361742 -0.040912
v -0.072225 0.379798 0.014366
v -0.072225 0.361742 0.014366
v -0.061229 0.379798 0.040912
v -0.061229 0.361742 0.040912
v -0.032730 0.433967 0.048983
v -0.032730 0.379798 0.048983
v 0.048983 0.433967 -0.032729
v 0.048983 0.379798 -0.032729
v 0.032730 0.433967 -0.048983
v 0.032730 0.379798 -0.048983
v -0.048983 0.433967 0.032730
v -0.048983 0.379798 0.032730
v -0.011493 0.433967 0.057780
v -0.011493 0.379798 0.057780
v 0.032730 0.433967 -0.048983
v 0.032730 0.379798 -0.048983
v 0.011493 0.433967 -0.057780
v 0.011493 0.379798 -0.057780
v -0.032730 0.433967 0.048983
v -0.032730 0.379798 0.048983
v 0.011493 0.433967 0.057780
v 0.011493 0.379798 0.057780
v 0.011493 0.433967 -0.057780
v 0.011493 0.379798 -0.057780
v -0.011493 0.433967 -0.057780
v -0.011493 0.379798 -0.057780
v -0.011493 0.433967 0.057780
v -0.011493 0.379798 0.057780
v 0.032730 0.433967 0.048983
v 0.032730 0.379798 0.048983
v -0.011493 0.433967 -0.057780
v -0.011493 0.379798 -0.057780
v -0.032730 0.433967 -0.048983
v -0.032730 0.379798 -0.048983
v 0.011493 0.433967 0.057780
v 0.011493 0.379798 0.057780
v 0.048983 0.433967 0.032730
v 0.048983 0.379798 0.032730
v -0.032730 0.433967 -0.048983
v -0.032730 0.379798 -0.048983
v -0.048983 0.433967 -0.032729
v -0.048983 0.379798 -0.032729
v 0.032730 0.433967 0.048983
v 0.032730 0.379798 0.048983
v 0.048983 0.433967 0.032730
v 0.048983 0.379798 0.032730
v 0.057780 0.433967 0.011493
v 0.057780 0.379798 0.011493
v -0.048983 0.433967 -0.032729
v -0.048983 0.379798 -0.032729
v -0.057780 0.433967 -0.011493
v -0.057780 0.379798 -0.011493
v 0.057780 0.433967 0.011493
v 0.057780 0.379798 0.011493
v 0.057780 0.433967 -0.011493
v 0.057780 0.379798 -0.011493
v -0.057780 0.433967 -0.011493
v -0.057780 0.379798 -0.011493
v -0.057780 0.433967 0.011493
v -0.057780 0.379798 0.011493
v 0.057780 0.433967 -0.011493
v 0.057780 0.379798 -0.011493
v 0.048983 0.433967 -0.032729
v 0.048983 0.379798 -0.032729
v -0.057780 0.433967 0.011493
v -0.057780 0.379798 0.011493
v -0.048983 0.433967 0.032730
v -0.048983 0.379798 0.032730
vt 0.0625 0.9375
vt 0.1250 0.9375
vt 0.1250 1.0000
vt 0.0625 1.0000
vt 0.0000 0.9375
vt 0.0625 0.9375
vt 0.0625 1.0000
vt 0.0000 1.0000
vt 0.0000 0.9375
vt 0.0625 0.9375
vt 0.0625 1.0000
vt 0.0000 1.0000
vt 0.0625 0.9375
vt 0.1250 0.9375
vt 0.1250 1.0000
vt 0.0625 1.0000
vt 0.0625 0.9375
vt 0.1250 0.9375
vt 0.1250 1.0000
vt 0.0625 1.0000
vt 0.0000 0.9375
vt 0.0625 0.9375
vt 0.0625 1.0000
vt 0.0000 1.0000
vt 0.0625 0.9375
vt 0.1250 0.9375
vt 0.1250 1.0000
vt 0.0625 1.0000
vt 0.0625 0.9375
vt 0.1250 0.9375
vt 0.1250 1.0000
vt 0.0625 1.0000
vt 0.0625 0.9375
vt 0.1250 0.9375
vt 0.1250 1.0000
vt 0.0625 1.0000
vt 0.0625 0.9375
vt 0.1250 0.9375
vt 0.1250 1.0000
vt 0.0625 1.0000
vt 0.0625 0.9375
vt 0.1250 0.9375
vt 0.1250 1.0000
vt 0.0625 1.0000
vt 0.0625 0.9375
vt 0.1250 0.9375
vt 0.1250 1.0000
vt 0.0625 1.0000
vt 0.0000 0.9375
vt 0.0625 0.9375
vt 0.0625 1.0000
vt 0.0000 1.0000
vt 0.0625 0.9375
vt 0.1250 0.9375
vt 0.1250 1.0000
vt 0.0625 1.0000
vt 0.0625 0.9375
vt 0.1250 0.9375
vt 0.1250 1.0000
vt 0.0625 1.0000
vt 0.0000 0.9375
vt 0.0625 0.9375
vt 0.0625 1.0000
vt 0.0000 1.0000
vt 0.0000 0.9375
vt 0.0625 0.9375
vt 0.0625 1.0000
vt 0.0000 1.0000
vt 0.0625 0.9375
vt 0.1250 0.9375
vt 0.1250 1.0000
vt 0.0625 1.0000
vt 0.1250 0.9375
vt 0.1250 1.0000
vt 0.0625 1.0000
vt 0.0000 0.9375
vt 0.0625 0.9375
vt 0.0625 1.0000
vt 0.0000 1.0000
vt 0.0625 0.9375
vt 0.1250 0.9375
vt 0.1250 1.0000
vt 0.0625 1.0000
vt 0.0625 0.9375
vt 0.0625 1.0000
vt 0.0000 1.0000
vt 0.0625 0.9375
vt 0.1250 0.9375
vt 0.1250 1.0000
vt 0.0625 1.0000
vt 0.0000 0.9375
vt 0.0625 0.9375
vt 0.0625 1.0000
vt 0.0000 1.0000
vt 0.0625 0.9375
vt 0.1250 0.9375
vt 0.0625 1.0000
vt 0.0625 0.9375
vt 0.1250 0.9375
vt 0.1250 1.0000
vt 0.0625 1.0000
vt 0.0000 0.9375
vt 0.0625 0.9375
vt 0.0625 1.0000
vt 0.0000 1.0000
vt 0.0625 0.9375
vt 0.1250 0.9375
vt 0.1250 1.0000
vt 0.0625 1.0000
vt 0.0625 0.9375
vt 0.1250 0.9375
vt 0.1250 1.0000
vt 0.0000 0.9375
vt 0.0625 0.9375
vt 0.0625 1.0000
vt 0.0000 1.0000
vt 0.0625 0.9375
vt 0.1250 0.9375
vt 0.1250 1.0000
vt 0.0625 1.0000
vt 0.0000 0.9375
vt 0.0625 0.9375
vt 0.0625 1.0000
vt 0.0625 0.9375
vt 0.1250 0.9375
vt 0.1250 1.0000
vt 0.0625 1.0000
vt 0.1250 0.9375
vt 0.1875 0.9375
vt 0.1875 1.0000
vt 0.1250 1.0000
vt 0.0625 0.9375
vt 0.1250 0.9375
vt 0.1250 1.0000
vt 0.0625 1.0000
vt 0.0625 0.9375
vt 0.1250 0.9375
vt 0.1250 1.0000
vt 0.0625 1.0000
vt 0.0625 0.9375
vt 0.1250 0.9375
vt 0.1250 1.0000
vt 0.1250 0.9375
vt 0.1250 1.0000
vt 0.0625 1.0000
vt 0.0625 0.9375
vt 0.1250 0.9375
vt 0.1250 1.0000
vt 0.0625 1.0000
vt 0.0625 0.9375
vt 0.1250 0.9375
vt 0.0625 1.0000
vt 0.0625 0.9375
vt 0.1250 0.9375
vt 0.1250 1.0000
vt 0.0625 1.0000
vt 0.0625 0.9375
vt 0.1250 0.9375
vt 0.1250 1.0000
vt 0.0625 1.0000
vt 0.0000 0.9375
vt 0.0625 0.9375
vt 0.0625 1.0000
vt 0.0000 1.0000
vt 0.0000 0.9375
vt 0.0625 0.9375
vt 0.0625 1.0000
vt 0.0000 1.0000
vt 0.1250 0.9375
vt 0.1875 0.9375
vt 0.1875 1.0000
vt 0.1250 1.0000
vt 0.0000 0.9375
vt 0.0625 1.0000
vt 0.0000 1.0000
vt 0.0625 0.9375
vt 0.1250 0.9375
vt 0.1250 1.0000
vt 0.0625 1.0000
vt 0.0625 0.9375
vt 0.1250 0.9375
vt 0.0625 1.0000
vt 0.0625 0.9375
vt 0.1250 0.9375
vt 0.1250 1.0000
vt 0.0625 1.0000
vt 0.0625 0.9375
vt 0.0625 1.0000
vt 0.1250 0.9375
vt 0.1250 1.0000
vt 0.0000 0.9375
vt 0.0625 0.9375
vt 0.0625 1.0000
vt 0.0000 0.9375
vt 0.0625 0.9375
vt 0.0000 1.0000
vt 0.0000 0.9375
vt 0.0625 0.9375
vt 0.0625 1.0000
vt 0.0000 0.9375
vt 0.0625 0.9375
vt 0.0625 1.0000
vt 0.0000 1.0000
vt 0.0625 0.9375
vt 0.1250 0.9375
vt 0.1250 1.0000
vt 0.0625 1.0000
vt 0.1250 0.9375
vt 0.1250 1.0000
vt 0.0625 1.0000
vt 0.0625 0.9375
vt 0.1250 0.9375
vt 0.1250 1.0000
vt 0.0625 0.9375
vt 0.1250 0.9375
vt 0.1250 1.0000
vt 0.0625 1.0000
vt 0.0000 0.9375
vt 0.0625 0.9375
vt 0.0625 1.0000
vt 0.0000 1.0000
vt 0.0000 0.9375
vt 0.0625 0.9375
vt 0.0625 1.0000
vt 0.0000 1.0000
vt 0.0625 0.9375
vt 0.1250 0.9375
vt 0.1250 1.0000
vt 0.0625 1.0000
vt 0.0625 0.9375
vt 0.1250 0.9375
vt 0.0625 1.0000
vt 0.0625 0.9375
vt 0.1250 0.9375
vt 0.1250 1.0000
vt 0.0625 1.0000
vt 0.0625 0.9375
vt 0.1250 0.9375
vt 0.1250 1.0000
vt 0.0625 1.0000
vt 0.1250 0.9375
vt 0.1250 1.0000
vt 0.0625 1.0000
vt 0.0625 0.9375
vt 0.1250 1.0000
vt 0.0625 1.0000
vt 0.0625 0.9375
vt 0.1250 0.9375
vt 0.1250 1.0000
vt 0.0625 1.0000
vt 0.0625 0.9375
vt 0.1250 0.9375
vt 0.1250 1.0000
vt 0.0625 0.9375
vt 0.1250 0.9375
vt 0.1250 1.0000
vt 0.0625 0.9375
vt 0.1250 0.9375
vt 0.1250 1.0000
vt 0.0625 1.0000
vt 0.0625 0.9375
vt 0.1250 0.9375
vt 0.0625 1.0000
vt 0.0000 1.0000
vt 0.0625 0.9375
vt 0.0625 1.0000
vt 0.0000 1.0000
vt 0.0625 0.9375
vt 0.1250 0.9375
vt 0.1250 1.0000
vt 0.0000 0.9375
vt 0.0000 1.0000
vt 0.1250 0.9375
vt 0.1250 1.0000
vt 0.0625 1.0000
vt 0.0625 0.9375
vt 0.1250 0.9375
vt 0.1250 1.0000
vt 0.0625 1.0000
vt 0.1250 0.9375
vt 0.1250 1.0000
vt 0.0625 1.0000
vt 0.0625 0.9375
vt 0.1250 1.0000
vt 0.0625 1.0000
vt 0.0625 0.9375
vt 0.1250 0.9375
vt 0.1250 1.0000
vt 0.0000 0.9375
vt 0.0625 0.9375
vt 0.0625 0.9375
vt 0.0625 1.0000
vt 0.0000 1.0000
vt 0.0625 0.9375
vt 0.0625 1.0000
vt 0.0625 0.9375
vt 0.1250 0.9375
vt 0.1250 1.0000
vt 0.0625 0.9375
vt 0.1250 0.9375
vt 0.1250 1.0000
vt 0.0625 1.0000
vt 0.0625 0.9375
vt 0.1250 0.9375
vt 0.0625 1.0000
vt 0.0625 0.9375
vt 0.1250 0.9375
vt 0.1250 1.0000
vt 0.0625 1.0000
vt 0.1250 1.0000
vt 0.0625 1.0000
vt 0.1250 1.0000
vt 0.0625 1.0000
vt 0.0000 0.9375
vt 0.0625 0.9375
vt 0.0625 1.0000
vt 0.0000 1.0000
vt 0.1875 0.9375
vt 0.1875 1.0000
vt 0.0625 0.9375
vt 0.1250 0.9375
vt 0.1250 1.0000
vt 0.0625 1.0000
vt 0.0625 0.9375
vt 0.1250 0.9375
vt 0.1250 1.0000
vt 0.0625 1.0000
vt 0.0625 0.9375
vt 0.1250 0.9375
vt 0.1250 1.0000
vt 0.0625 1.0000
vt 0.0625 0.9375
vt 0.1250 0.9375
vt 0.1250 1.0000
vt 0.0625 1.0000
vt 0.0000 0.9375
vt 0.0000 1.0000
vt 0.0625 0.9375
vt 0.0625 1.0000
vt 0.0000 0.9375
vt 0.0625 0.9375
vt 0.0625 1.0000
vt 0.0000 1.0000
vt 0.0625 0.9375
vt 0.1250 1.0000
vt 0.0625 1.0000
vt 0.0625 0.9375
vt 0.1250 0.9375
vt 0.1250 1.0000
vt 0.0625 1.0000
vt 0.0625 0.9375
vt 0.1250 0.9375
vt 0.1250 1.0000
vt 0.0625 1.0000
vt 0.0625 0.9375
vt 0.1250 0.9375
vt 0.1250 1.0000
vt 0.0625 1.0000
vt 0.0000 0.9375
vt 0.0625 1.0000
vt 0.0000 1.0000
vt 0.0000 0.9375
vt 0.0625 0.9375
vt 0.0000 1.0000
vt 0.0000 0.9375
vt 0.0625 0.9375
vt 0.0625 1.0000
vt 0.0000 1.0000
vt 0.0625 0.9375
vt 0.1250 0.9375
vt 0.0625 1.0000
vt 0.0625 0.9375
vt 0.1250 0.9375
vt 0.1250 1.0000
vt 0.0625 1.0000
vt 0.0000 0.9375
vt 0.0625 0.9375
vt 0.0625 1.0000
vt 0.0000 1.0000
vt 0.0625 0.9375
vt 0.0625 1.0000
vt 0.1250 0.9375
vt 0.1250 1.0000
vt 0.1250 1.0000
vt 0.0625 1.0000
vt 0.0000 0.9375
vt 0.0625 0.9375
vt 0.0625 1.0000
vt 0.0000 1.0000
vt 0.0000 0.0000
vt 0.7500 0.0000
vt 0.7500 0.2188
vt 0.0000 0.2188
vt 0.0625 0.9375
vt 0.1250 0.9375
vt 0.1250 1.0000
vt 0.0625 1.0000
vt 0.0625 0.9375
vt 0.1250 0.9375
vt 0.1250 1.0000
vt 0.0625 1.0000
vt 0.1250 0.9375
vt 0.1875 0.9375
vt 0.1875 1.0000
vt 0.1250 1.0000
vt 0.0625 0.9375
vt 0.1250 0.9375
vt 0.0625 1.0000
vt 0.0625 0.9375
vt 0.1250 0.9375
vt 0.1250 1.0000
vt 0.0625 1.0000
vt 0.0625 0.9375
vt 0.0625 1.0000
vt 0.1250 0.9375
vt 0.1250 1.0000
vt 0.0625 0.9375
vt 0.1250 0.9375
vt 0.1250 1.0000
vt 0.0625 0.9375
vt 0.1250 0.9375
vt 0.1250 1.0000
vt 0.0625 1.0000
vt 0.0625 0.9375
vt 0.1250 0.9375
vt 0.1250 1.0000
vt 0.0625 1.0000
vt 0.0625 0.9375
vt 0.0625 1.0000
vt 0.0625 0.9375
vt 0.0625 1.0000
vt 0.0625 0.9375
vt 0.1250 0.9375
vt 0.1250 1.0000
vt 0.0625 1.0000
vt 0.1250 1.0000
vt 0.0625 1.0000
vt 0.0000 0.9375
vt 0.0625 0.9375
vt 0.0625 1.0000
vt 0.0000 1.0000
vt 0.0000 0.9375
vt 0.0625 0.9375
vt 0.0625 0.9375
vt 0.0625 1.0000
vt 0.0625 0.9375
vt 0.1250 0.9375
vt 0.1250 1.0000
vt 0.0625 1.0000
vt 0.0000 0.9375
vt 0.0625 0.9375
vt 0.0625 1.0000
vt 0.0000 1.0000
vt 0.0000 0.9375
vt 0.0000 1.0000
vt 0.1250 0.9375
vt 0.1250 1.0000
vt 0.0625 0.9375
vt 0.0625 1.0000
vt 0.0625 0.9375
vt 0.0625 1.0000
vt 0.1250 0.9375
vt 0.1250 1.0000
vt 0.0625 0.9375
vt 0.1250 0.9375
vt 0.1250 1.0000
vt 0.0625 1.0000
vt 0.0000 1.0000
vt 0.1250 1.0000
vt 0.0625 1.0000
vt 0.0625 0.9375
vt 0.1250 0.9375
vt 0.1250 1.0000
vt 0.0625 1.0000
vt 0.0000 0.9375
vt 0.0625 0.9375
vt 0.0625 1.0000
vt 0.0000 1.0000
vt 0.1250 0.9375
vt 0.1250 1.0000
vn 0.3827 -0.0000 0.9239
vn 0.0000 0.0000 -1.0000
vn 0.9763 0.2164 -0.0000
vn 0.0000 -1.0000 0.0000
vn 0.0000 1.0000 -0.0000
vn -0.7071 -0.0000 0.7071
vn -0.9239 0.0000 -0.3827
vn -0.7071 0.0000 -0.7071
vn 0.3827 0.0000 -0.9239
vn -0.3827 0.0000 0.9239
vn 1.0000 0.0000 0.0000
vn 0.9239 0.0000 -0.3827
vn 0.0000 0.0000 1.0000
vn -1.0000 0.0000 0.0000
vn -0.0468 -0.2113 -0.9763
vn 0.7071 -0.0000 0.7071
vn 0.0000 0.9763 0.2164
vn 0.7071 0.0000 -0.7071
vn -0.3827 0.0000 -0.9239
vn 0.0000 -0.2164 0.9763
vn -0.2113 0.9532 -0.2164
vn -0.9763 -0.2164 -0.0000
vn -0.9763 0.2164 -0.0000
vn -0.9239 0.0000 0.3827
vn 0.0468 0.2113 0.9763
vn 0.9239 0.0000 0.3827
vn 0.2113 -0.9532 0.2164
vn -0.2113 -0.9532 0.2164
vn 0.0000 -0.9763 -0.2164
vn 0.9763 -0.2164 -0.0000
vn -0.0468 0.2113 0.9763
vn 0.2113 0.9532 -0.2164
vn 0.0000 0.2164 -0.9763
vn 0.0468 -0.2113 -0.9763
usemtl m_0
s 1
f 192/1/1 186/2/1 185/3/1 191/4/1
f 52/5/2 54/6/2 53/7/2 51/8/2
f 34/9/3 36/10/3 35/11/3 33/12/3
f 190/13/4 188/14/4 186/15/4 192/16/4
f 159/17/5 153/18/5 155/19/5 157/20/5
f 31/21/5 25/22/5 27/23/5 29/24/5
f 166/25/6 168/26/6 167/27/6 165/28/6
f 142/29/7 144/30/7 143/31/7 141/32/7
f 70/33/8 72/34/8 71/35/8 69/36/8
f 108/37/9 110/38/9 109/39/9 107/40/9
f 151/41/5 145/42/5 147/43/5 149/44/5
f 111/45/5 105/46/5 107/47/5 109/48/5
f 30/49/4 28/50/4 26/51/4 32/52/4
f 80/53/10 74/54/10 73/55/10 79/56/10
f 116/57/2 118/58/2 117/59/2 115/60/2
f 54/61/4 52/62/4 50/63/4 56/64/4
f 18/65/11 20/66/11 19/67/11 17/68/11
f 122/69/12 124/70/12 123/71/12 121/72/12
f 142/29/4 140/73/4 138/74/4 144/75/4
f 24/76/13 18/77/13 17/78/13 23/79/13
f 175/80/5 169/81/5 171/82/5 173/83/5
f 54/61/14 56/84/14 55/85/14 53/86/14
f 119/87/5 113/88/5 115/89/5 117/90/5
f 20/91/2 22/92/2 21/93/2 19/94/2
f 114/95/11 116/96/11 115/89/11 113/97/11
f 100/98/8 102/99/8 101/100/8 99/101/8
f 14/102/14 16/103/14 15/104/14 13/105/14
f 102/106/6 104/107/6 103/108/6 101/109/6
f 71/110/5 65/111/5 67/112/5 69/36/5
f 44/113/15 46/114/15 45/115/15 43/116/15
f 168/117/16 162/118/16 161/119/16 167/120/16
f 15/121/17 9/122/17 11/123/17 13/105/17
f 164/124/8 166/125/8 165/126/8 163/127/8
f 63/128/5 57/129/5 59/130/5 61/131/5
f 182/132/14 184/133/14 183/134/14 181/135/14
f 132/136/18 134/137/18 133/138/18 131/139/18
f 150/140/14 152/141/14 151/142/14 149/44/14
f 70/33/4 68/143/4 66/144/4 72/145/4
f 92/146/19 94/147/19 93/148/19 91/149/19
f 127/150/5 121/151/5 123/71/5 125/152/5
f 152/153/13 146/154/13 145/155/13 151/156/13
f 87/157/5 81/158/5 83/159/5 85/160/5
f 16/161/20 10/162/20 9/163/20 15/164/20
f 6/165/14 8/166/14 7/167/14 5/168/14
f 62/169/4 60/170/4 58/171/4 64/172/4
f 22/173/4 20/66/4 18/174/4 24/175/4
f 134/176/4 132/177/4 130/178/4 136/179/4
f 82/180/11 84/181/11 83/159/11 81/182/11
f 98/183/18 100/184/18 99/185/18 97/186/18
f 66/187/16 68/143/16 67/112/16 65/188/16
f 58/189/11 60/170/11 59/130/11 57/190/11
f 55/191/5 49/192/5 51/193/5 53/86/5
f 39/194/21 33/195/21 35/11/21 37/196/21
f 38/197/22 40/198/22 39/199/22 37/196/22
f 46/200/23 48/201/23 47/202/23 45/203/23
f 94/204/24 96/205/24 95/206/24 93/207/24
f 166/25/4 164/208/4 162/209/4 168/210/4
f 183/211/5 177/212/5 179/213/5 181/135/5
f 78/214/4 76/215/4 74/216/4 80/217/4
f 2/218/11 4/219/11 3/220/11 1/221/11
f 48/222/25 42/223/25 41/224/25 47/225/25
f 148/226/2 150/227/2 149/228/2 147/229/2
f 106/230/26 108/231/26 107/47/26 105/232/26
f 158/233/4 156/234/4 154/235/4 160/236/4
f 84/237/2 86/238/2 85/239/2 83/240/2
f 94/204/4 92/241/4 90/242/4 96/243/4
f 74/244/26 76/215/26 75/245/26 73/246/26
f 128/247/1 122/248/1 121/249/1 127/250/1
f 167/251/5 161/252/5 163/253/5 165/28/5
f 95/254/5 89/255/5 91/256/5 93/207/5
f 191/257/5 185/258/5 187/259/5 189/260/5
f 103/261/5 97/262/5 99/185/5 101/109/5
f 38/197/27 36/10/27 34/263/27 40/264/27
f 46/200/28 44/265/28 42/266/28 48/267/28
f 126/268/24 128/269/24 127/270/24 125/152/24
f 26/271/11 28/50/11 27/23/11 25/272/11
f 134/176/8 136/273/8 135/274/8 133/275/8
f 172/276/9 174/277/9 173/278/9 171/279/9
f 150/140/4 148/280/4 146/281/4 152/282/4
f 86/283/4 84/181/4 82/284/4 88/285/4
f 118/286/14 120/287/14 119/288/14 117/90/14
f 7/289/5 1/290/5 3/220/5 5/168/5
f 14/102/29 12/291/29 10/292/29 16/293/29
f 90/294/12 92/241/12 91/256/12 89/295/12
f 143/296/5 137/297/5 139/298/5 141/32/5
f 120/299/13 114/300/13 113/301/13 119/302/13
f 178/303/11 180/304/11 179/213/11 177/305/11
f 96/306/1 90/307/1 89/308/1 95/309/1
f 118/286/4 116/96/4 114/310/4 120/311/4
f 126/268/4 124/70/4 122/312/4 128/313/4
f 4/314/2 6/315/2 5/316/2 3/317/2
f 62/169/14 64/318/14 63/319/14 61/131/14
f 184/320/13 178/321/13 177/322/13 183/323/13
f 180/324/2 182/325/2 181/326/2 179/327/2
f 124/328/19 126/329/19 125/330/19 123/331/19
f 112/332/10 106/333/10 105/334/10 111/335/10
f 10/336/11 12/291/11 11/123/11 9/337/11
f 154/338/12 156/234/12 155/19/12 153/339/12
f 28/340/2 30/341/2 29/342/2 27/343/2
f 110/344/4 108/231/4 106/345/4 112/346/4
f 176/347/10 170/348/10 169/349/10 175/350/10
f 156/351/19 158/352/19 157/353/19 155/354/19
f 104/355/16 98/356/16 97/357/16 103/358/16
f 42/359/30 44/265/30 43/360/30 41/361/30
f 23/362/5 17/363/5 19/67/5 21/364/5
f 56/365/13 50/366/13 49/367/13 55/368/13
f 170/369/26 172/370/26 171/82/26 169/371/26
f 160/372/1 154/373/1 153/374/1 159/375/1
f 8/376/13 2/377/13 1/378/13 7/379/13
f 146/380/11 148/280/11 147/43/11 145/381/11
f 86/283/14 88/382/14 87/383/14 85/160/14
f 102/106/4 100/184/4 98/384/4 104/385/4
f 32/386/13 26/387/13 25/388/13 31/389/13
f 64/390/13 58/391/13 57/392/13 63/393/13
f 136/394/6 130/395/6 129/396/6 135/397/6
f 72/398/6 66/399/6 65/400/6 71/401/6
f 60/402/2 62/403/2 61/404/2 59/405/2
f 79/406/5 73/407/5 75/245/5 77/408/5
f 144/409/10 138/410/10 137/411/10 143/412/10
f 138/413/26 140/73/26 139/298/26 137/414/26
f 158/233/24 160/415/24 159/416/24 157/20/24
f 135/417/5 129/418/5 131/419/5 133/275/5
f 76/420/9 78/421/9 77/422/9 75/423/9
f 188/424/19 190/425/19 189/426/19 187/427/19
f 130/428/16 132/177/16 131/419/16 129/429/16
f 186/430/12 188/14/12 187/259/12 185/431/12
f 140/432/9 142/433/9 141/434/9 139/435/9
f 182/132/4 180/304/4 178/436/4 184/437/4
f 40/438/31 34/439/31 33/440/31 39/441/31
f 47/442/32 41/443/32 43/360/32 45/203/32
f 162/444/18 164/208/18 163/253/18 161/445/18
f 88/446/13 82/447/13 81/448/13 87/449/13
f 12/450/33 14/451/33 13/452/33 11/453/33
f 50/454/11 52/62/11 51/193/11 49/455/11
f 110/344/7 112/456/7 111/457/7 109/48/7
f 22/173/14 24/458/14 23/459/14 21/364/14
f 30/49/14 32/460/14 31/461/14 29/24/14
f 190/13/24 192/462/24 191/463/24 189/260/24
f 174/464/7 176/465/7 175/466/7 173/83/7
f 6/165/4 4/219/4 2/467/4 8/468/4
f 174/464/4 172/370/4 170/469/4 176/470/4
f 68/471/18 70/472/18 69/473/18 67/474/18
f 36/475/34 38/476/34 37/477/34 35/478/34
f 78/214/7 80/479/7 79/480/7 77/408/7
