# Blender v2.79 (sub 0) OBJ File: ''
# www.blender.org
mtllib skidplate_small.mtl
o small
v 0.468750 0.062500 -0.093750
v 0.453125 0.062500 -0.031250
v 0.453125 0.000000 -0.046875
v 0.468750 0.000000 -0.093750
v -0.453125 0.000000 -0.046875
v -0.453125 0.062500 -0.031250
v -0.468750 0.062500 -0.093750
v -0.468750 0.000000 -0.093750
v -0.406250 0.062500 0.000000
v 0.406250 0.062500 0.000000
v 0.406250 0.000000 -0.093750
v -0.406250 0.000000 -0.093750
v 0.406250 -0.062500 -0.093750
v 0.406250 0.000000 -0.031250
v -0.406250 0.000000 -0.031250
v -0.406250 -0.062500 -0.093750
v -0.406250 -0.031250 -0.593750
v 0.406250 -0.031250 -0.593750
v 0.406250 -0.093750 -0.593750
v -0.406250 -0.093750 -0.593750
v 0.406250 -0.031250 -0.281250
v -0.406250 -0.031250 -0.281250
v 0.468750 -0.062500 -0.281250
v 0.468750 0.000000 -0.281250
v -0.406250 -0.093750 -0.281250
v 0.406250 -0.093750 -0.281250
v -0.468750 0.000000 -0.281250
v -0.468750 -0.062500 -0.281250
v 0.468750 -0.062500 -0.593750
v 0.468750 0.000000 -0.593750
v -0.468750 0.000000 -0.593750
v -0.468750 -0.062500 -0.593750
vt 0.064425 0.937500
vt 0.000000 0.937500
vt 0.015156 0.874888
vt 0.064425 0.875119
vt 0.111769 0.874888
vt 0.126925 0.937500
vt 0.062500 0.937500
vt 0.062500 0.875119
vt 0.812500 1.000000
vt 0.000000 1.000000
vt 0.000000 0.887325
vt 0.812500 0.887325
vt 0.812500 0.911606
vt 0.812500 1.000000
vt 0.000000 1.000000
vt 0.000000 0.911606
vt 0.812500 0.867625
vt 0.812500 0.937500
vt 0.000000 0.937500
vt 0.000000 0.867625
vt 0.812500 1.000000
vt 0.000000 1.000000
vt 0.000000 0.937500
vt 0.812500 0.937500
vt 0.125000 0.809913
vt 0.937500 0.809913
vt 0.937500 1.000000
vt 0.125000 1.000000
vt 0.187500 0.875000
vt 0.187500 0.937500
vt 0.000000 1.000000
vt 0.000000 0.937500
vt 0.125000 0.809913
vt 0.937500 0.809913
vt 0.937500 1.000000
vt 0.125000 1.000000
vt 0.000000 0.937500
vt 0.000000 0.875000
vt 0.187500 0.937500
vt 0.187500 1.000000
vt 0.937500 1.000000
vt 0.125000 1.000000
vt 0.125000 0.687500
vt 0.937500 0.687500
vt 0.312500 0.875000
vt 0.312500 0.937500
vt 0.000000 0.937500
vt 0.000000 0.875000
vt 0.125000 0.687500
vt 0.937500 0.687500
vt 0.937500 1.000000
vt 0.125000 1.000000
vt 0.000000 0.937500
vt 0.000000 0.875000
vt 0.312500 0.875000
vt 0.312500 0.937500
vt 0.129937 0.996581
vt 0.125000 0.932344
vt 0.174413 0.932344
vt 0.184294 1.000000
vt 0.000000 1.000000
vt 0.015625 0.937500
vt 0.062500 0.906250
vt 0.062500 1.000000
vt 0.049413 1.000000
vt 0.000000 1.000000
vt 0.019762 0.913850
vt 0.079056 0.972794
vt 0.192128 0.937500
vt 0.000000 0.891121
vt 0.006626 0.821561
vt 0.192128 0.853266
vt 0.086149 0.802361
vt 0.086149 1.000000
vt 0.000000 0.980234
vt 0.020407 0.792478
vt 0.062500 0.937500
vt 0.062500 1.000000
vt 0.000000 0.968750
vt 0.000000 0.906250
vt 0.000000 0.805125
vt 0.312500 0.805125
vt 0.312500 0.812500
vt 0.000000 0.812500
vt 0.000000 0.742625
vt 0.312500 0.742625
vt 0.126925 0.937500
vt 0.062500 0.937500
vt 0.077662 0.850425
vt 0.168612 0.911112
vt 0.065000 0.936162
vt 0.056338 1.000000
vt 0.017331 0.933513
vt 0.062500 0.937500
vt 0.046875 0.984375
vt 0.000000 1.000000
vt 0.000000 0.937500
vt 0.192128 0.937500
vt 0.000000 0.891121
vt 0.006626 0.821561
vt 0.192128 0.853266
vt 0.086149 0.802361
vt 0.086149 1.000000
vt 0.000000 0.980234
vt 0.020402 0.792476
vt 0.125000 1.000000
vt 0.125000 0.937500
vt 0.187500 0.906250
vt 0.187500 0.968750
vt 0.312500 0.812500
vt 0.000000 0.812500
vt 0.000000 0.742625
vt 0.312500 0.742625
vt 0.000000 0.805125
vt 0.312500 0.805125
vn 0.9684 -0.0605 0.2421
vn -0.9684 -0.0605 0.2421
vn 0.0000 0.8321 -0.5547
vn 0.0000 -0.7071 0.7071
vn 0.0000 -0.4472 0.8944
vn 0.0000 0.0000 -1.0000
vn 0.0000 0.9864 -0.1644
vn 1.0000 0.0000 0.0000
vn 0.0000 -0.9864 0.1644
vn -1.0000 0.0000 0.0000
vn 0.0000 1.0000 0.0000
vn 0.0000 -1.0000 0.0000
vn -0.3077 -0.2308 0.9231
vn -0.6883 -0.6882 0.2294
vn -0.6882 -0.6882 0.2294
vn -0.6882 -0.6883 0.2294
vn -0.4286 -0.8571 0.2857
vn 0.6883 0.6882 -0.2294
vn 0.6882 0.6883 -0.2294
vn 0.6882 0.6882 -0.2294
vn -0.4472 -0.8944 -0.0000
vn 0.4472 0.8944 0.0000
vn -0.6963 0.6963 -0.1741
vn 0.5431 -0.2037 0.8146
vn 0.5431 -0.2036 0.8146
vn 0.0001 -1.0000 -0.0000
vn -0.4286 0.8571 -0.2857
vn 0.6882 -0.6882 0.2294
vn 0.6883 -0.6882 0.2294
vn 0.6882 -0.6883 0.2294
vn -0.4472 0.8944 0.0000
vn 0.4472 -0.8944 -0.0000
usemtl m_569450a1-0084-cd64-c677-10271c232f57
s 1
f 1/1/1 2/2/1 3/3/1 4/4/1
f 5/5/2 6/6/2 7/7/2 8/8/2
f 9/9/3 10/10/3 11/11/3 12/12/3
f 13/13/4 14/14/4 15/15/4 16/16/4
f 14/17/5 10/18/5 9/19/5 15/20/5
f 17/21/6 18/22/6 19/23/6 20/24/6
f 21/25/7 22/26/7 12/27/7 11/28/7
f 23/29/8 24/30/8 1/31/8 4/32/8
f 25/33/9 26/34/9 13/35/9 16/36/9
f 27/37/10 28/38/10 8/39/10 7/40/10
f 18/41/11 17/42/11 22/43/11 21/44/11
f 29/45/8 30/46/8 24/47/8 23/48/8
f 20/49/12 19/50/12 26/51/12 25/52/12
f 31/53/10 32/54/10 28/55/10 27/56/10
f 6/57/13 5/58/13 15/59/13 9/60/13
f 7/61/11 6/62/11 9/63/11 12/64/11
f 5/65/14 8/66/15 16/67/16 15/68/16
f 8/69/17 28/70/17 25/71/17 16/72/17
f 27/73/18 7/74/18 12/75/19 22/76/20
f 32/77/6 31/78/6 17/79/6 20/80/6
f 28/55/21 32/54/21 20/81/21 25/82/21
f 31/83/22 27/84/22 22/85/22 17/86/22
f 2/87/23 1/88/23 11/89/23 10/90/23
f 3/91/24 2/92/25 10/10/24 14/93/25
f 4/94/12 3/95/12 14/96/12 13/97/26
f 1/98/27 24/99/27 21/100/27 11/101/27
f 23/102/28 4/103/29 13/104/29 26/105/30
f 30/106/6 29/107/6 19/108/6 18/109/6
f 24/110/31 30/111/31 18/112/31 21/113/31
f 29/45/32 23/48/32 26/114/32 19/115/32
