# Blender v2.79 (sub 0) OBJ File: ''
# www.blender.org
mtllib trucknuts_lugnuts.mtl
o lugnutright
v 0.023438 -0.304688 0.031250
v -0.007812 -0.363001 0.031250
v -0.007812 -0.363001 -0.000000
v 0.023438 -0.304688 -0.000000
v -0.070312 -0.363001 0.031250
v -0.070312 -0.363001 -0.000000
v -0.101562 -0.304688 0.031250
v -0.101562 -0.304688 -0.000000
v -0.070312 -0.246374 0.031250
v -0.070312 -0.246374 -0.000000
v -0.007812 -0.246374 0.031250
v -0.007812 -0.246374 -0.000000
v -0.023437 -0.333844 -0.000000
v -0.007812 -0.304688 -0.000000
v -0.054687 -0.333844 -0.000000
v -0.070312 -0.304688 -0.000000
v -0.054688 -0.275531 -0.000000
v -0.023437 -0.275531 -0.000000
v -0.007812 -0.304688 0.031250
v -0.023437 -0.333844 0.031250
v -0.054687 -0.333844 0.031250
v -0.070312 -0.304688 0.031250
v -0.054688 -0.275531 0.031250
v -0.023437 -0.275531 0.031250
vt 0.062500 0.343750
vt 0.128656 0.343750
vt 0.128656 0.375000
vt 0.062500 0.375000
vt 0.062500 0.343750
vt 0.125000 0.343750
vt 0.125000 0.375000
vt 0.062500 0.375000
vt 0.062500 0.343750
vt 0.128662 0.343750
vt 0.128662 0.375000
vt 0.062500 0.375000
vt 0.187500 0.343750
vt 0.253656 0.343750
vt 0.253656 0.375000
vt 0.187500 0.375000
vt 0.187500 0.343750
vt 0.250000 0.343750
vt 0.250000 0.375000
vt 0.187500 0.375000
vt 0.062500 0.343750
vt 0.128656 0.343750
vt 0.128656 0.375000
vt 0.062500 0.375000
vt 0.110340 0.437500
vt 0.077261 0.437500
vt 0.062500 0.409956
vt 0.128658 0.409956
vt 0.062500 0.234375
vt 0.062500 0.203125
vt 0.091656 0.187500
vt 0.091656 0.250000
vt 0.062500 0.422739
vt 0.062500 0.389660
vt 0.090044 0.371342
vt 0.090044 0.437500
vt 0.080818 0.347456
vt 0.113897 0.347456
vt 0.062500 0.375000
vt 0.091656 0.203125
vt 0.091656 0.234375
vt 0.062500 0.250000
vt 0.062500 0.187500
vt 0.090044 0.386103
vt 0.090044 0.419182
vt 0.062500 0.437500
vt 0.062500 0.371342
vt 0.062500 0.360239
vt 0.062500 0.327160
vt 0.090044 0.308842
vt 0.090044 0.375000
vt 0.062500 0.359375
vt 0.062500 0.328125
vt 0.091656 0.312500
vt 0.091656 0.375000
vt 0.110340 0.437500
vt 0.077261 0.437500
vt 0.062500 0.409956
vt 0.128658 0.409956
vt 0.090044 0.386103
vt 0.090044 0.419182
vt 0.062500 0.437500
vt 0.062500 0.371342
vt 0.091656 0.328125
vt 0.091656 0.359375
vt 0.062500 0.375000
vt 0.062500 0.312500
vt 0.080818 0.347456
vt 0.113897 0.347456
vt 0.128658 0.375000
vt 0.220575 0.343750
vt 0.220575 0.375000
vt 0.187500 0.375000
vt 0.187500 0.343750
vt 0.218750 0.375000
vt 0.187500 0.375000
vt 0.187500 0.343750
vt 0.218750 0.343750
vt 0.095581 0.375000
vt 0.062500 0.375000
vt 0.062500 0.343750
vt 0.095581 0.343750
vt 0.095575 0.375000
vt 0.062500 0.375000
vt 0.062500 0.343750
vt 0.095575 0.343750
vt 0.093750 0.343750
vt 0.093750 0.375000
vt 0.062500 0.375000
vt 0.062500 0.343750
vt 0.095581 0.375000
vt 0.062500 0.375000
vt 0.062500 0.343750
vt 0.095581 0.343750
vn 0.8814 -0.4723 0.0000
vn 0.0000 -1.0000 0.0000
vn -0.8814 -0.4723 0.0000
vn -0.8814 0.4723 0.0000
vn 0.0000 1.0000 0.0000
vn 0.8814 0.4723 0.0000
vn -0.0000 0.0000 -1.0000
vn 0.0000 -0.0000 1.0000
usemtl m_0
s 1
f 1/1/1 2/2/1 3/3/1 4/4/1
f 2/5/2 5/6/2 6/7/2 3/8/2
f 5/9/3 7/10/3 8/11/3 6/12/3
f 7/13/4 9/14/4 10/15/4 8/16/4
f 9/17/5 11/18/5 12/19/5 10/20/5
f 11/21/6 1/22/6 4/23/6 12/24/6
f 13/25/7 14/26/7 4/27/7 3/28/7
f 15/29/7 13/30/7 3/31/7 6/32/7
f 16/33/7 15/34/7 6/35/7 8/36/7
f 17/37/7 16/38/7 8/11/7 10/39/7
f 18/40/7 17/41/7 10/42/7 12/43/7
f 14/44/7 18/45/7 12/46/7 4/47/7
f 19/48/8 20/49/8 2/50/8 1/51/8
f 20/52/8 21/53/8 5/54/8 2/55/8
f 21/56/8 22/57/8 7/58/8 5/59/8
f 22/60/8 23/61/8 9/62/8 7/63/8
f 23/64/8 24/65/8 11/66/8 9/67/8
f 24/68/8 19/69/8 1/70/8 11/66/8
f 19/71/4 14/72/4 13/73/4 20/74/4
f 13/75/5 15/76/5 21/77/5 20/78/5
f 15/79/6 16/80/6 22/81/6 21/82/6
f 16/83/1 17/84/1 23/85/1 22/86/1
f 23/87/2 17/88/2 18/89/2 24/90/2
f 18/91/3 14/92/3 19/93/3 24/94/3
o string
v 0.015625 0.015625 -0.015625
v 0.015625 0.015625 0.015625
v 0.015625 -0.093750 0.015625
v 0.015625 -0.093750 -0.015625
v -0.015625 -0.093750 0.015625
v -0.015625 0.015625 0.015625
v -0.015625 0.015625 -0.015625
v -0.015625 -0.093750 -0.015625
v 0.015625 -0.093750 -0.015625
v 0.015625 -0.093750 0.015625
v 0.031250 -0.125000 0.015625
v 0.031250 -0.125000 -0.015625
v -0.031250 -0.125000 0.015625
v -0.015625 -0.093750 0.015625
v -0.015625 -0.093750 -0.015625
v -0.031250 -0.125000 -0.015625
v 0.000000 -0.093750 0.015625
v 0.000000 -0.093750 -0.015625
v -0.054688 -0.281250 -0.007813
v -0.023438 -0.281250 -0.007813
v -0.023438 -0.281250 0.039062
v -0.054688 -0.281250 0.039062
v 0.000000 -0.125000 0.015625
v 0.000000 -0.125000 -0.015625
v 0.054688 -0.281250 0.007812
v 0.023438 -0.281250 0.007812
v 0.023438 -0.281250 -0.039063
v 0.054688 -0.281250 -0.039063
v 0.023438 -0.242188 0.007812
v 0.054688 -0.242188 0.007812
v 0.023438 -0.242188 -0.039063
v 0.054688 -0.242188 -0.039063
v -0.023438 -0.242188 -0.007813
v -0.054688 -0.242188 -0.007813
v -0.023438 -0.242188 0.039062
v -0.054688 -0.242188 0.039062
vt 0.718750 0.937500
vt 0.687500 0.937500
vt 0.687500 0.828125
vt 0.718750 0.828125
vt 0.593750 0.828125
vt 0.593750 0.937500
vt 0.562500 0.937500
vt 0.562500 0.828125
vt 0.625000 0.906250
vt 0.656250 0.906250
vt 0.656250 0.937500
vt 0.625000 0.937500
vt 0.656250 0.843750
vt 0.656250 0.875000
vt 0.625000 0.875000
vt 0.625000 0.843750
vt 0.656250 0.828125
vt 0.656250 0.937500
vt 0.625000 0.937500
vt 0.625000 0.828125
vt 0.656250 0.937500
vt 0.625000 0.937500
vt 0.625000 0.828125
vt 0.656250 0.828125
vt 0.781250 0.875000
vt 0.750000 0.875000
vt 0.750000 0.840062
vt 0.781250 0.840062
vt 0.593750 0.840062
vt 0.593750 0.875000
vt 0.562500 0.875000
vt 0.562500 0.840062
vt 0.625000 0.781250
vt 0.640625 0.781250
vt 0.640625 0.812500
vt 0.625000 0.812500
vt 0.750000 0.765625
vt 0.781250 0.765625
vt 0.781250 0.812500
vt 0.750000 0.812500
vt 0.625000 0.781250
vt 0.656250 0.781250
vt 0.656250 0.812500
vt 0.640625 0.812500
vt 0.640625 0.812500
vt 0.625000 0.812500
vt 0.625000 0.781250
vt 0.656250 0.781250
vt 0.640625 0.812500
vt 0.625000 0.812500
vt 0.625000 0.781250
vt 0.656250 0.781250
vt 0.656250 0.750000
vt 0.625000 0.750000
vt 0.625000 0.703125
vt 0.656250 0.703125
vt 0.625000 0.781250
vt 0.656250 0.781250
vt 0.656250 0.812500
vt 0.640625 0.812500
vt 0.625000 0.781250
vt 0.640625 0.781250
vt 0.585938 0.820050
vt 0.617188 0.820050
vt 0.593750 0.937500
vt 0.562500 0.937500
vt 0.562500 0.817994
vt 0.609375 0.817994
vt 0.617188 0.937500
vt 0.585938 0.937500
vt 0.687500 0.817994
vt 0.718750 0.817994
vt 0.742188 0.937500
vt 0.710938 0.937500
vt 0.757812 0.755488
vt 0.804688 0.755488
vt 0.781250 0.875000
vt 0.750000 0.875000
vt 0.585938 0.695050
vt 0.617188 0.695050
vt 0.593750 0.812500
vt 0.562500 0.812500
vt 0.625000 0.817994
vt 0.671875 0.817994
vt 0.679688 0.937500
vt 0.648438 0.937500
vt 0.625000 0.755494
vt 0.656250 0.755494
vt 0.679688 0.875000
vt 0.648438 0.875000
vt 0.570312 0.755488
vt 0.617188 0.755488
vt 0.593750 0.875000
vt 0.562500 0.875000
vt 0.562500 0.898438
vt 0.593750 0.898438
vt 0.593750 0.937500
vt 0.562500 0.937500
vt 0.625000 0.898438
vt 0.671875 0.898438
vt 0.671875 0.937500
vt 0.625000 0.937500
vt 0.687500 0.898438
vt 0.718750 0.898438
vt 0.718750 0.937500
vt 0.687500 0.937500
vt 0.562500 0.898438
vt 0.609375 0.898438
vt 0.609375 0.937500
vt 0.562500 0.937500
vt 0.562500 0.898438
vt 0.593750 0.898438
vt 0.593750 0.937500
vt 0.562500 0.937500
vt 0.562500 0.898438
vt 0.609375 0.898438
vt 0.609375 0.937500
vt 0.562500 0.937500
vt 0.687500 0.898438
vt 0.718750 0.898438
vt 0.718750 0.937500
vt 0.687500 0.937500
vt 0.750000 0.898438
vt 0.796875 0.898438
vt 0.796875 0.937500
vt 0.750000 0.937500
vn 1.0000 0.0000 0.0000
vn -1.0000 -0.0000 0.0000
vn 0.0000 1.0000 0.0000
vn 0.0000 -1.0000 0.0000
vn 0.0000 -0.0000 1.0000
vn 0.0000 0.0000 -1.0000
vn 0.8944 0.4472 0.0000
vn -0.8944 0.4472 0.0000
vn 0.0000 -0.0665 0.9978
vn -0.9806 -0.1961 0.0000
vn 0.0000 0.1961 -0.9806
vn 0.9806 0.1961 0.0000
vn 0.0000 -0.0665 -0.9978
vn 0.9806 -0.1961 0.0000
vn 0.0000 0.1961 0.9806
vn -0.9806 0.1961 0.0000
usemtl m_0
s 1
f 25/95/9 26/96/9 27/97/9 28/98/9
f 29/99/10 30/100/10 31/101/10 32/102/10
f 30/103/11 26/104/11 25/105/11 31/106/11
f 28/107/12 27/108/12 29/109/12 32/110/12
f 27/111/13 26/112/13 30/113/13 29/114/13
f 31/115/14 25/116/14 28/117/14 32/118/14
f 33/119/15 34/120/15 35/121/15 36/122/15
f 37/123/16 38/124/16 39/125/16 40/126/16
f 38/127/11 41/128/11 42/129/11 39/130/11
f 43/131/12 44/132/12 45/133/12 46/134/12
f 37/135/13 47/136/13 41/137/13 38/138/13
f 39/139/14 42/140/14 48/141/14 40/142/14
f 34/143/13 41/144/13 47/145/13 35/146/13
f 49/147/12 50/148/12 51/149/12 52/150/12
f 36/151/14 48/152/14 42/153/14 33/154/14
f 33/154/11 42/140/11 41/155/11 34/156/11
f 53/157/17 54/158/17 35/159/17 47/160/17
f 55/161/18 53/162/18 47/163/18 48/164/18
f 56/165/19 55/166/19 48/167/19 36/168/19
f 54/169/20 56/170/20 36/171/20 35/172/20
f 57/173/21 58/174/21 40/175/21 48/176/21
f 59/177/22 57/178/22 48/179/22 47/180/22
f 60/181/23 59/182/23 47/183/23 37/184/23
f 58/185/24 60/186/24 37/187/24 40/188/24
f 44/189/14 43/190/14 58/191/14 57/192/14
f 45/193/9 44/194/9 57/195/9 59/196/9
f 46/197/13 45/198/13 59/199/13 60/200/13
f 43/201/10 46/202/10 60/203/10 58/204/10
f 50/205/13 49/206/13 54/207/13 53/208/13
f 51/209/10 50/210/10 53/211/10 55/212/10
f 52/213/14 51/214/14 55/215/14 56/216/14
f 49/217/9 52/218/9 56/219/9 54/220/9
o lugnutleft
v 0.007812 -0.363001 -0.031250
v 0.007812 -0.363001 -0.000000
v -0.023438 -0.304688 -0.000000
v -0.023438 -0.304688 -0.031250
v 0.070312 -0.363001 -0.031250
v 0.070312 -0.363001 -0.000000
v 0.101562 -0.304688 -0.031250
v 0.101562 -0.304688 -0.000000
v 0.070312 -0.246374 -0.031250
v 0.070312 -0.246374 -0.000000
v 0.007812 -0.246374 -0.031250
v 0.007812 -0.246374 -0.000000
v 0.007812 -0.304688 -0.031250
v 0.023437 -0.333844 -0.031250
v 0.054687 -0.333844 -0.031250
v 0.070312 -0.304688 -0.031250
v 0.054688 -0.275531 -0.031250
v 0.023437 -0.275531 -0.031250
v 0.023437 -0.333844 -0.000000
v 0.007812 -0.304688 -0.000000
v 0.054687 -0.333844 -0.000000
v 0.070312 -0.304688 -0.000000
v 0.054688 -0.275531 -0.000000
v 0.023437 -0.275531 -0.000000
vt 0.125000 0.312500
vt 0.125000 0.281250
vt 0.191156 0.281250
vt 0.191156 0.312500
vt 0.187500 0.312500
vt 0.187500 0.281250
vt 0.250000 0.281250
vt 0.250000 0.312500
vt 0.062500 0.312500
vt 0.062500 0.281250
vt 0.128662 0.281250
vt 0.128662 0.312500
vt 0.062500 0.312500
vt 0.062500 0.281250
vt 0.128656 0.281250
vt 0.128656 0.312500
vt 0.062500 0.312500
vt 0.062500 0.281250
vt 0.125000 0.281250
vt 0.125000 0.312500
vt 0.062500 0.312500
vt 0.062500 0.281250
vt 0.128656 0.281250
vt 0.128656 0.312500
vt 0.125000 0.246342
vt 0.152544 0.261103
vt 0.152544 0.294182
vt 0.125000 0.187500
vt 0.154156 0.203125
vt 0.154156 0.234375
vt 0.125000 0.250000
vt 0.062500 0.312500
vt 0.080818 0.284956
vt 0.113897 0.284956
vt 0.090044 0.250000
vt 0.062500 0.235239
vt 0.062500 0.202160
vt 0.090044 0.183842
vt 0.091656 0.250000
vt 0.062500 0.234375
vt 0.062500 0.203125
vt 0.091656 0.187500
vt 0.128658 0.284956
vt 0.110340 0.312500
vt 0.077261 0.312500
vt 0.062500 0.284956
vt 0.125000 0.312500
vt 0.143318 0.284956
vt 0.176397 0.284956
vt 0.191158 0.312500
vt 0.125000 0.312500
vt 0.154156 0.328125
vt 0.154156 0.359375
vt 0.125000 0.375000
vt 0.187500 0.308842
vt 0.215044 0.323603
vt 0.215044 0.356682
vt 0.187500 0.375000
vt 0.253658 0.347456
vt 0.235340 0.375000
vt 0.202261 0.375000
vt 0.187500 0.347456
vt 0.091656 0.375000
vt 0.062500 0.359375
vt 0.062500 0.328125
vt 0.091656 0.312500
vt 0.152544 0.375000
vt 0.125000 0.360239
vt 0.125000 0.327160
vt 0.152544 0.308842
vt 0.095575 0.375000
vt 0.062500 0.375000
vt 0.062500 0.343750
vt 0.095575 0.343750
vt 0.093750 0.343750
vt 0.093750 0.375000
vt 0.062500 0.375000
vt 0.062500 0.343750
vt 0.095581 0.343750
vt 0.095581 0.375000
vt 0.062500 0.375000
vt 0.062500 0.343750
vt 0.220575 0.343750
vt 0.220575 0.375000
vt 0.187500 0.375000
vt 0.187500 0.343750
vt 0.218750 0.375000
vt 0.187500 0.375000
vt 0.187500 0.343750
vt 0.218750 0.343750
vt 0.095581 0.343750
vt 0.095581 0.375000
vt 0.062500 0.375000
vt 0.062500 0.343750
vn -0.8814 -0.4723 0.0000
vn -0.0000 -1.0000 0.0000
vn 0.8814 -0.4723 0.0000
vn 0.8814 0.4723 0.0000
vn 0.0000 1.0000 0.0000
vn -0.8814 0.4723 0.0000
vn 0.0000 0.0000 -1.0000
vn -0.0000 -0.0000 1.0000
usemtl m_0
s 1
f 61/221/25 62/222/25 63/223/25 64/224/25
f 65/225/26 66/226/26 62/227/26 61/228/26
f 67/229/27 68/230/27 66/231/27 65/232/27
f 69/233/28 70/234/28 68/235/28 67/236/28
f 71/237/29 72/238/29 70/239/29 69/240/29
f 64/241/30 63/242/30 72/243/30 71/244/30
f 64/245/31 73/246/31 74/247/31 61/221/31
f 61/248/31 74/249/31 75/250/31 65/251/31
f 65/252/31 75/253/31 76/254/31 67/236/31
f 67/255/31 76/256/31 77/257/31 69/258/31
f 69/259/31 77/260/31 78/261/31 71/262/31
f 71/263/31 78/264/31 73/265/31 64/266/31
f 62/267/32 79/268/32 80/269/32 63/270/32
f 66/271/32 81/272/32 79/273/32 62/274/32
f 68/275/32 82/276/32 81/277/32 66/278/32
f 70/279/32 83/280/32 82/281/32 68/282/32
f 72/283/32 84/284/32 83/285/32 70/286/32
f 63/287/32 80/288/32 84/289/32 72/290/32
f 74/291/28 73/292/28 80/293/28 79/294/28
f 81/295/29 75/296/29 74/297/29 79/298/29
f 82/299/30 76/300/30 75/301/30 81/302/30
f 83/303/25 77/304/25 76/305/25 82/306/25
f 78/307/26 77/308/26 83/309/26 84/310/26
f 80/311/27 73/312/27 78/313/27 84/314/27
o cube
v 0.062500 0.062500 -0.062500
v 0.062500 0.062500 0.062500
v 0.046875 -0.000000 0.046875
v 0.046875 0.000000 -0.046875
v -0.046875 -0.000000 0.046875
v -0.062500 0.062500 0.062500
v -0.062500 0.062500 -0.062500
v -0.046875 0.000000 -0.046875
vt 0.187500 0.937500
vt 0.062500 0.937500
vt 0.078125 0.873075
vt 0.171875 0.873075
vt 0.171875 0.873075
vt 0.187500 0.937500
vt 0.062500 0.937500
vt 0.078125 0.873075
vt 0.125000 0.812500
vt 0.250000 0.812500
vt 0.250000 0.937500
vt 0.125000 0.937500
vt 0.218750 0.781250
vt 0.218750 0.875000
vt 0.125000 0.875000
vt 0.125000 0.781250
vt 0.234375 0.810581
vt 0.250000 0.875000
vt 0.125000 0.875000
vt 0.140625 0.810581
vt 0.250000 0.875000
vt 0.125000 0.875000
vt 0.140625 0.810575
vt 0.234375 0.810575
vn 0.9701 -0.2425 -0.0000
vn -0.9701 -0.2425 -0.0000
vn 0.0000 1.0000 0.0000
vn 0.0000 -1.0000 -0.0000
vn 0.0000 -0.2425 0.9701
vn 0.0000 -0.2425 -0.9701
usemtl m_0
s 1
f 85/315/33 86/316/33 87/317/33 88/318/33
f 89/319/34 90/320/34 91/321/34 92/322/34
f 90/323/35 86/324/35 85/325/35 91/326/35
f 88/327/36 87/328/36 89/329/36 92/330/36
f 87/331/37 86/332/37 90/333/37 89/334/37
f 91/335/38 85/336/38 88/337/38 92/338/38
