# Blender v2.78 (sub 0) OBJ File: ''
# www.blender.org
mtllib turbo.mtl
o cube
v 0.102077 0.214595 0.477920
v 0.123161 -0.328827 0.200271
v 0.315848 0.320289 0.287286
v 0.336932 -0.223133 0.009637
v -0.119589 0.501532 -0.100511
v -0.098505 -0.041890 -0.378161
v -0.333359 0.395838 0.090122
v -0.312276 -0.147584 -0.187527
v 0.123161 -0.328827 0.200271
v 0.040703 -0.536783 -0.007493
v 0.336932 -0.223133 0.009637
v 0.254474 -0.431089 -0.198126
v 0.135157 -0.026172 -0.107425
v 0.052699 -0.234128 -0.315189
v -0.078614 -0.131866 0.083208
v -0.161072 -0.339822 -0.124555
v 0.040703 -0.536783 -0.007493
v -0.125607 -0.630295 -0.245834
v 0.254474 -0.431089 -0.198126
v 0.088164 -0.524601 -0.436468
v 0.113572 -0.160359 -0.206028
v -0.052738 -0.253872 -0.444369
v -0.100199 -0.266053 -0.015394
v -0.266509 -0.359565 -0.253735
vt 0.0000 0.8750
vt 0.1250 0.8750
vt 0.1250 1.0000
vt 0.0000 1.0000
vt 0.0000 0.8750
vt 0.1250 0.8750
vt 0.1250 1.0000
vt 0.0000 1.0000
vt 0.0000 0.8750
vt 0.1250 1.0000
vt 0.0000 1.0000
vt 0.0000 0.8750
vt 0.1250 0.8750
vt 0.1250 1.0000
vt 0.0000 1.0000
vt 0.5000 0.2500
vt 1.0000 0.2500
vt 1.0000 0.7500
vt 0.5000 0.7500
vt 0.0000 0.8750
vt 0.1250 0.8750
vt 0.1250 1.0000
vt 0.0000 1.0000
vt 0.1250 0.8750
vt 0.1250 1.0000
vt 0.0000 1.0000
vt 0.0000 0.8750
vt 0.1250 0.8750
vt 0.1250 1.0000
vt 0.0000 0.8750
vt 0.1250 0.8750
vt 0.1250 1.0000
vt 0.0000 1.0000
vt 0.0000 0.8750
vt 0.1250 0.8750
vt 0.0000 0.2500
vt 0.5000 0.2500
vt 0.5000 0.7500
vt 0.0000 0.7500
vt 0.1250 0.8750
vt 0.1250 1.0000
vt 0.0000 1.0000
vt 0.0000 0.8750
vt 0.1250 0.8750
vt 0.1250 1.0000
vt 0.0000 0.8750
vt 0.1250 0.8750
vt 0.1250 1.0000
vt 0.0000 1.0000
vt 0.0000 0.8750
vt 0.0000 1.0000
vt 0.0000 0.8750
vt 0.1250 0.8750
vt 0.1250 1.0000
vt 0.0000 1.0000
vt 0.5000 0.2500
vt 1.0000 0.2500
vt 1.0000 0.7500
vt 0.5000 0.7500
vt 0.0000 0.8750
vt 0.1250 0.8750
vt 0.0000 1.0000
vn -0.2701 -0.6811 -0.6805
vn 0.7002 0.3462 -0.6244
vn 0.6609 -0.6451 0.3834
vn -0.7002 -0.3462 0.6244
vn -0.5447 -0.3063 -0.7807
vn -0.4615 0.8868 -0.0259
vn -0.6609 0.6451 -0.3834
vn 0.5447 0.3063 0.7807
vn 0.0345 -0.8900 -0.4547
vn 0.2701 0.6811 0.6805
vn -0.7131 0.2968 -0.6351
vn -0.0345 0.8900 0.4547
vn 0.7131 -0.2968 0.6351
vn 0.4615 -0.8868 0.0259
usemtl m_0
s 1
f 14/1/1 12/2/1 10/3/1 16/4/1
f 20/5/2 22/6/2 21/7/2 19/8/2
f 10/9/3 12/2/3 11/10/3 9/11/3
f 16/12/4 10/13/4 9/14/4 15/15/4
f 22/16/5 20/17/5 18/18/5 24/19/5
f 22/20/6 24/21/6 23/22/6 21/23/6
f 14/1/7 16/24/7 15/25/7 13/26/7
f 23/27/8 17/28/8 19/29/8 21/23/8
f 6/30/9 4/31/9 2/32/9 8/33/9
f 15/34/10 9/35/10 11/10/10 13/26/10
f 4/36/2 6/37/2 5/38/2 3/39/2
f 6/30/11 8/40/11 7/41/11 5/42/11
f 7/43/12 1/44/12 3/45/12 5/42/12
f 24/46/4 18/47/4 17/48/4 23/49/4
f 2/50/13 4/31/13 3/45/13 1/51/13
f 12/52/2 14/53/2 13/54/2 11/55/2
f 8/56/4 2/57/4 1/58/4 7/59/4
f 18/60/14 20/61/14 19/29/14 17/62/14
