# Blender v2.79 (sub 0) OBJ File: ''
# www.blender.org
mtllib va_weed.mtl
o cube
v -0.062500 -0.062500 -0.375000
v -0.062500 -0.062500 -0.250000
v -0.062500 0.062500 -0.250000
v -0.062500 0.062500 -0.375000
v 0.062500 -0.062500 -0.375000
v 0.062500 0.062500 -0.375000
v 0.062500 -0.062500 -0.250000
v 0.062500 0.062500 -0.250000
v -0.062500 -0.062500 0.250000
v -0.062500 -0.062500 0.375000
v -0.062500 0.062500 0.375000
v -0.062500 0.062500 0.250000
v 0.062500 -0.062500 0.250000
v 0.062500 0.062500 0.250000
v 0.062500 -0.062500 0.375000
v 0.062500 0.062500 0.375000
v -0.062500 -0.062500 -0.000000
v -0.062500 -0.062500 0.250000
v -0.062500 0.062500 0.250000
v -0.062500 0.062500 -0.000000
v 0.062500 -0.062500 0.000000
v 0.062500 0.062500 0.000000
v 0.062500 -0.062500 0.250000
v 0.062500 0.062500 0.250000
v -0.062500 -0.062500 -0.250000
v -0.062500 -0.062500 -0.000000
v -0.062500 0.062500 -0.000000
v -0.062500 0.062500 -0.250000
v 0.062500 -0.062500 -0.250000
v 0.062500 0.062500 -0.250000
v 0.062500 -0.062500 0.000000
v 0.062500 0.062500 0.000000
v -0.066406 -0.066406 -0.191406
v -0.066406 -0.066406 0.066406
v -0.066406 0.066406 0.066406
v -0.066406 0.066406 -0.191406
v 0.066406 -0.066406 -0.191406
v 0.066406 0.066406 -0.191406
v 0.066406 -0.066406 0.066406
v 0.066406 0.066406 0.066406
vt 0.031250 0.312500
vt 0.093750 0.312500
vt 0.093750 0.437500
vt 0.031250 0.437500
vt 0.093750 0.312500
vt 0.156250 0.312500
vt 0.156250 0.437500
vt 0.093750 0.437500
vt 0.093750 0.062500
vt 0.156250 0.062500
vt 0.156250 0.187500
vt 0.093750 0.187500
vt 0.031250 0.062500
vt 0.031250 0.187500
vt 0.156250 0.312500
vt 0.093750 0.312500
vt 0.031250 0.187500
vt 0.093750 0.187500
vt 0.031250 0.312500
vt 0.312500 0.812500
vt 0.375000 0.812500
vt 0.375000 0.937500
vt 0.312500 0.937500
vt 0.375000 0.562500
vt 0.437500 0.562500
vt 0.437500 0.687500
vt 0.375000 0.687500
vt 0.312500 0.687500
vt 0.375000 0.687500
vt 0.375000 0.812500
vt 0.312500 0.812500
vt 0.437500 0.812500
vt 0.437500 0.937500
vt 0.375000 0.687500
vt 0.437500 0.687500
vt 0.437500 0.812500
vt 0.375000 0.812500
vt 0.312500 0.562500
vt 0.375000 0.562500
vt 0.125000 0.875000
vt 0.250000 0.875000
vt 0.250000 1.000000
vt 0.125000 1.000000
vt 0.000000 0.875000
vt 0.062500 0.875000
vt 0.062500 1.000000
vt 0.000000 1.000000
vt 0.125000 0.750000
vt 0.250000 0.750000
vt 0.250000 0.875000
vt 0.125000 0.875000
vt 0.000000 0.750000
vt 0.062500 0.750000
vt 0.062500 0.875000
vt 0.000000 0.875000
vt 0.125000 0.625000
vt 0.250000 0.625000
vt 0.250000 0.750000
vt 0.125000 0.750000
vt 0.125000 0.500000
vt 0.250000 0.500000
vt 0.250000 0.625000
vt 0.125000 0.625000
vt 0.000000 0.875000
vt 0.125000 0.875000
vt 0.125000 1.000000
vt 0.000000 1.000000
vt 0.000000 0.875000
vt 0.062500 0.875000
vt 0.062500 1.000000
vt 0.000000 1.000000
vt 0.000000 0.750000
vt 0.125000 0.750000
vt 0.125000 0.875000
vt 0.000000 0.875000
vt 0.000000 0.750000
vt 0.062500 0.750000
vt 0.062500 0.875000
vt 0.000000 0.875000
vt 0.000000 0.625000
vt 0.125000 0.625000
vt 0.125000 0.750000
vt 0.000000 0.750000
vt 0.000000 0.500000
vt 0.125000 0.500000
vt 0.125000 0.625000
vt 0.000000 0.625000
vt 0.375000 0.125000
vt 0.500000 0.125000
vt 0.500000 0.250000
vt 0.375000 0.250000
vt 0.312500 0.187500
vt 0.375000 0.187500
vt 0.375000 0.312500
vt 0.312500 0.312500
vt 0.250000 0.125000
vt 0.375000 0.125000
vt 0.375000 0.250000
vt 0.250000 0.250000
vt 0.375000 0.187500
vt 0.437500 0.187500
vt 0.437500 0.312500
vt 0.375000 0.312500
vt 0.375000 0.250000
vt 0.500000 0.250000
vt 0.500000 0.375000
vt 0.375000 0.375000
vt 0.250000 0.250000
vt 0.375000 0.250000
vt 0.375000 0.375000
vt 0.250000 0.375000
vn -1.0000 0.0000 -0.0000
vn -0.0000 0.0000 -1.0000
vn 1.0000 -0.0000 0.0000
vn 0.0000 0.0000 1.0000
vn 0.0000 1.0000 0.0000
vn -0.0000 -1.0000 0.0000
usemtl m_691cdfcc-0077-2881-1012-c48678a7ce2a
s 1
f 1/1/1 2/2/1 3/3/1 4/4/1
f 5/5/2 1/6/2 4/7/2 6/8/2
f 7/9/3 5/10/3 6/11/3 8/12/3
f 2/13/4 7/9/4 8/12/4 3/14/4
f 8/12/5 6/11/5 4/15/5 3/16/5
f 2/17/6 1/18/6 5/5/6 7/19/6
f 9/20/1 10/21/1 11/22/1 12/23/1
f 13/24/2 9/25/2 12/26/2 14/27/2
f 15/28/3 13/29/3 14/30/3 16/31/3
f 10/21/4 15/32/4 16/33/4 11/22/4
f 16/34/5 14/35/5 12/36/5 11/37/5
f 10/38/6 9/39/6 13/29/6 15/28/6
f 17/40/1 18/41/1 19/42/1 20/43/1
f 21/44/2 17/45/2 20/46/2 22/47/2
f 23/48/3 21/49/3 22/50/3 24/51/3
f 18/52/4 23/53/4 24/54/4 19/55/4
f 24/56/5 22/57/5 20/58/5 19/59/5
f 18/60/6 17/61/6 21/62/6 23/63/6
f 25/64/1 26/65/1 27/66/1 28/67/1
f 29/68/2 25/69/2 28/70/2 30/71/2
f 31/72/3 29/73/3 30/74/3 32/75/3
f 26/76/4 31/77/4 32/78/4 27/79/4
f 32/80/5 30/81/5 28/82/5 27/83/5
f 26/84/6 25/85/6 29/86/6 31/87/6
f 33/88/1 34/89/1 35/90/1 36/91/1
f 37/92/2 33/93/2 36/94/2 38/95/2
f 39/96/3 37/97/3 38/98/3 40/99/3
f 34/100/4 39/101/4 40/102/4 35/103/4
f 40/104/5 38/105/5 36/106/5 35/107/5
f 34/108/6 33/109/6 37/110/6 39/111/6
o smoke1
v -0.088388 0.062500 0.224112
v 0.088388 0.062500 0.400888
v 0.088388 0.437500 0.400888
v -0.088388 0.437500 0.224112
v -0.088388 0.062500 0.224112
v -0.088388 0.437500 0.224112
v 0.088388 0.062500 0.400888
v 0.088388 0.437500 0.400888
v -0.088388 0.062500 0.400888
v -0.088388 0.062500 0.400888
v -0.088388 0.437500 0.400888
v -0.088388 0.437500 0.400888
v 0.088388 0.062500 0.224112
v 0.088388 0.437500 0.224112
v 0.088388 0.062500 0.224112
v 0.088388 0.437500 0.224112
vt 0.500000 0.250000
vt 0.750000 0.250000
vt 0.750000 1.000000
vt 0.500000 1.000000
vt 0.500000 1.000000
vt 0.500000 1.000000
vt 0.500000 1.000000
vt 0.750000 0.250000
vt 0.500000 0.250000
vt 0.750000 1.000000
vt 0.500000 1.000000
vt 0.500000 1.000000
vt 0.500000 1.000000
vt 0.500000 1.000000
vt 0.500000 1.000000
vt 0.500000 1.000000
vt 0.500000 1.000000
vt 0.500000 1.000000
vt 0.500000 0.250000
vt 0.750000 0.250000
vt 0.750000 1.000000
vt 0.500000 1.000000
vt 0.500000 1.000000
vt 0.500000 1.000000
vt 0.500000 1.000000
vt 0.750000 0.250000
vt 0.500000 0.250000
vt 0.750000 1.000000
vn -0.7071 0.0000 0.7071
vn 0.0000 0.0000 -0.7071
vn 0.7071 0.0000 -0.7071
vn 0.0000 0.0000 0.7071
vn 0.0000 -1.0000 -0.0000
vn 0.0000 0.0000 -0.0001
vn 0.0000 -1.0000 -0.0001
vn 0.0000 0.0000 -0.0000
vn -0.0000 1.0000 -0.0000
vn 0.0000 1.0000 -0.0001
vn -0.7071 0.0000 -0.7071
vn 0.7071 0.0000 0.7071
vn 0.0000 0.0000 0.5878
vn -0.0000 0.8090 0.5878
vn 0.0000 0.0000 -0.6632
vn -0.0000 0.7485 -0.6632
vn 0.0000 -0.7485 -0.6632
vn -0.0000 -0.8090 0.5878
usemtl m_691cdfcc-0077-2881-1012-c48678a7ce2a
s 1
f 41/112/7 42/113/7 43/114/7 44/115/7
f 45/116/8 41/117/9 44/115/8 46/118/9
f 47/119/9 45/120/9 46/118/9 48/121/9
f 42/122/10 47/123/7 48/124/10 43/125/7
f 48/124/11 46/118/12 44/115/13 43/125/14
f 42/122/15 41/117/12 45/116/16 47/123/14
f 49/126/8 50/127/17 51/128/8 52/129/17
f 53/130/17 49/131/17 52/132/17 54/133/17
f 55/134/10 53/135/18 54/133/10 56/136/18
f 50/137/18 55/138/18 56/136/18 51/139/18
f 56/136/19 54/133/20 52/129/21 51/128/22
f 50/127/21 49/126/23 53/135/19 55/134/24
o smoke2
v -0.088388 0.062500 0.400888
v -0.088388 0.062500 0.400888
v -0.088388 0.437500 0.400888
v -0.088388 0.437500 0.400888
v 0.088388 0.062500 0.224112
v 0.088388 0.437500 0.224112
v 0.088388 0.062500 0.224112
v 0.088388 0.437500 0.224112
v -0.088388 0.062500 0.224112
v 0.088388 0.062500 0.400888
v 0.088388 0.437500 0.400888
v -0.088388 0.437500 0.224112
v -0.088388 0.062500 0.224112
v -0.088388 0.437500 0.224112
v 0.088388 0.062500 0.400888
v 0.088388 0.437500 0.400888
vt 0.750000 1.000000
vt 0.750000 1.000000
vt 0.750000 1.000000
vt 0.750000 1.000000
vt 0.750000 0.250000
vt 1.000000 0.250000
vt 1.000000 1.000000
vt 0.750000 1.000000
vt 0.750000 1.000000
vt 0.750000 1.000000
vt 0.750000 1.000000
vt 1.000000 0.250000
vt 0.750000 0.250000
vt 1.000000 1.000000
vt 0.500000 1.000000
vt 0.500000 1.000000
vt 0.500000 1.000000
vt 0.500000 1.000000
vt 0.500000 1.000000
vt 0.500000 1.000000
vt 0.500000 1.000000
vt 0.500000 1.000000
vt 0.750000 0.250000
vt 1.000000 0.250000
vt 1.000000 1.000000
vt 0.750000 1.000000
vt 0.750000 1.000000
vt 0.750000 1.000000
vt 0.750000 1.000000
vt 1.000000 0.250000
vt 0.750000 0.250000
vt 1.000000 1.000000
vt 0.750000 1.000000
vt 0.750000 1.000000
vt 0.750000 1.000000
vt 0.750000 1.000000
vt 0.500000 1.000000
vt 0.500000 1.000000
vt 0.500000 1.000000
vt 0.500000 1.000000
vt 0.500000 1.000000
vt 0.500000 1.000000
vt 0.500000 1.000000
vt 0.500000 1.000000
vn 0.0000 0.0000 -0.7071
vn -0.7071 0.0000 -0.7071
vn 0.0000 0.0000 0.7071
vn 0.7071 0.0000 0.7071
vn 0.0000 0.0000 0.5878
vn -0.0000 0.8090 0.5878
vn 0.0000 0.0000 -0.6632
vn -0.0000 0.7485 -0.6632
vn 0.0000 -0.7485 -0.6632
vn -0.0000 -0.8090 0.5878
vn -0.7071 0.0000 0.7071
vn 0.7071 0.0000 -0.7071
vn 0.0000 -1.0000 -0.0000
vn 0.0000 0.0000 -0.0001
vn 0.0000 -1.0000 -0.0001
vn 0.0000 0.0000 -0.0000
vn -0.0000 1.0000 -0.0000
vn 0.0000 1.0000 -0.0001
usemtl m_691cdfcc-0077-2881-1012-c48678a7ce2a
s 1
f 57/140/25 58/141/26 59/142/25 60/143/26
f 61/144/26 57/145/26 60/146/26 62/147/26
f 63/148/27 61/149/28 62/147/27 64/150/28
f 58/151/28 63/152/28 64/150/28 59/153/28
f 64/154/29 62/155/30 60/156/31 59/157/32
f 58/158/31 57/159/33 61/160/29 63/161/34
f 65/162/35 66/163/35 67/164/35 68/165/35
f 69/166/25 65/167/36 68/165/25 70/168/36
f 71/169/36 69/170/36 70/168/36 72/171/36
f 66/172/27 71/173/35 72/174/27 67/175/35
f 72/176/37 70/177/38 68/178/39 67/179/40
f 66/180/41 65/181/38 69/182/42 71/183/40
