# Blender v2.79 (sub 0) OBJ File: ''
# www.blender.org
mtllib whiskers.mtl
o leftwhiskers
v 0.250000 -0.093750 -0.000000
v 0.250000 -0.093750 0.062500
v 0.250000 -0.156250 0.062500
v 0.250000 -0.156250 -0.000000
v 0.000000 -0.093750 -0.000000
v 0.000000 -0.031250 -0.000000
v 0.000000 -0.031250 -0.062500
v 0.000000 -0.093750 -0.062500
v 0.250000 0.031250 0.000000
v 0.250000 0.031250 0.062500
v 0.250000 -0.031250 0.062500
v 0.250000 -0.031250 -0.000000
v 0.000000 -0.031250 -0.000000
v 0.000000 0.031250 0.000000
v 0.000000 0.031250 -0.062500
v 0.000000 -0.031250 -0.062500
v 0.250000 0.156250 0.000000
v 0.250000 0.156250 0.062500
v 0.250000 0.093750 0.062500
v 0.250000 0.093750 0.000000
v 0.000000 0.031250 0.000000
v 0.000000 0.093750 0.000000
v 0.000000 0.093750 -0.062500
v 0.000000 0.031250 -0.062500
vt 0.480957 0.682129
vt 0.480957 0.683105
vt 0.481934 0.683105
vt 0.481934 0.682129
vt 0.480957 0.682129
vt 0.480957 0.683105
vt 0.481934 0.683105
vt 0.481934 0.682129
vt 0.375000 0.750000
vt 0.250000 0.242306
vt 0.375000 0.242306
vt 0.500000 0.750000
vt 0.480957 0.682129
vt 0.480957 0.683105
vt 0.481934 0.683105
vt 0.480957 0.682129
vt 0.481934 0.683105
vt 0.481934 0.682129
vt 0.480957 0.682129
vt 0.480957 0.683105
vt 0.481934 0.683105
vt 0.480957 0.682129
vt 0.480957 0.683105
vt 0.481934 0.683105
vt 0.481934 0.682129
vt 0.480957 0.682129
vt 0.480957 0.683105
vt 0.481934 0.683105
vt 0.481934 0.682129
vt 0.875000 0.250000
vt 1.000000 0.750000
vt 0.875000 0.750000
vt 0.750000 0.250000
vt 0.480957 0.682129
vt 0.480957 0.683105
vt 0.481934 0.683105
vt 0.480957 0.682129
vt 0.481934 0.683105
vt 0.481934 0.682129
vt 0.480957 0.682129
vt 0.480957 0.683105
vt 0.481934 0.683105
vt 0.480957 0.682129
vt 0.480957 0.683105
vt 0.481934 0.683105
vt 0.481934 0.682129
vt 0.480957 0.682129
vt 0.480957 0.683105
vt 0.481934 0.683105
vt 0.481934 0.682129
vt 0.125000 0.242300
vt 0.250000 0.750000
vt 0.125000 0.750000
vt 0.000000 0.242300
vt 0.480957 0.682129
vt 0.480957 0.683105
vt 0.481934 0.683105
vt 0.480957 0.682129
vt 0.481934 0.683105
vt 0.481934 0.682129
vt 0.480957 0.682129
vt 0.480957 0.683105
vt 0.481934 0.683105
vn 1.0000 0.0000 0.0000
vn -1.0000 0.0000 0.0000
vn 0.2425 0.9701 0.0000
vn -0.2425 -0.9701 0.0000
vn -0.2425 -0.0000 0.9701
vn 0.2425 0.0000 -0.9701
vn 0.0000 1.0000 0.0000
vn 0.0000 -1.0000 0.0000
vn -0.2425 0.9701 0.0000
vn 0.2425 -0.9701 0.0000
usemtl m_0cd255ef-50ea-d92d-3ff6-d8a1ec0a292f
s 1
f 1/1/1 2/2/1 3/3/1 4/4/1
f 5/5/2 6/6/2 7/7/2 8/8/2
f 6/9/3 2/10/3 1/11/3 7/12/3
f 4/13/4 3/14/4 5/15/4 8/8/4
f 3/16/5 2/2/5 6/17/5 5/18/5
f 7/19/6 1/20/6 4/21/6 8/8/6
f 9/22/1 10/23/1 11/24/1 12/25/1
f 13/26/2 14/27/2 15/28/2 16/29/2
f 14/30/7 10/31/7 9/32/7 15/33/7
f 12/34/8 11/35/8 13/36/8 16/29/8
f 11/37/5 10/23/5 14/38/5 13/39/5
f 15/40/6 9/41/6 12/42/6 16/29/6
f 17/43/1 18/44/1 19/45/1 20/46/1
f 21/47/2 22/48/2 23/49/2 24/50/2
f 22/51/9 18/52/9 17/53/9 23/54/9
f 20/55/10 19/56/10 21/57/10 24/50/10
f 19/58/5 18/44/5 22/59/5 21/60/5
f 23/61/6 17/62/6 20/63/6 24/50/6
o rightwhiskers
v -0.250000 0.093750 0.062500
v -0.250000 0.156250 0.062500
v -0.250000 0.156250 0.000000
v -0.250000 0.093750 0.000000
v 0.000000 0.093750 -0.062500
v 0.000000 0.093750 0.000000
v 0.000000 0.031250 0.000000
v 0.000000 0.031250 -0.062500
v -0.250000 -0.156250 0.062500
v -0.250000 -0.093750 0.062500
v -0.250000 -0.093750 -0.000000
v -0.250000 -0.156250 -0.000000
v 0.000000 -0.031250 -0.062500
v 0.000000 -0.031250 -0.000000
v 0.000000 -0.093750 -0.000000
v 0.000000 -0.093750 -0.062500
v -0.250000 -0.031250 0.062500
v -0.250000 0.031250 0.062500
v -0.250000 0.031250 0.000000
v -0.250000 -0.031250 -0.000000
v 0.000000 0.031250 -0.062500
v 0.000000 0.031250 0.000000
v 0.000000 -0.031250 -0.000000
v 0.000000 -0.031250 -0.062500
vt 0.481934 0.683105
vt 0.480957 0.683105
vt 0.480957 0.682129
vt 0.481934 0.682129
vt 0.481934 0.683105
vt 0.480957 0.683105
vt 0.480957 0.682129
vt 0.481934 0.682129
vt 0.125000 0.750000
vt 0.000000 0.750000
vt 0.125000 0.242300
vt 0.250000 0.242300
vt 0.481934 0.683105
vt 0.480957 0.683105
vt 0.480957 0.682129
vt 0.481934 0.683105
vt 0.480957 0.682129
vt 0.481934 0.682129
vt 0.481934 0.683105
vt 0.480957 0.683105
vt 0.480957 0.682129
vt 0.481934 0.683105
vt 0.480957 0.683105
vt 0.480957 0.682129
vt 0.481934 0.682129
vt 0.481934 0.683105
vt 0.480957 0.683105
vt 0.480957 0.682129
vt 0.481934 0.682129
vt 0.375000 0.242306
vt 0.500000 0.242306
vt 0.375000 0.750000
vt 0.250000 0.750000
vt 0.481934 0.683105
vt 0.480957 0.683105
vt 0.480957 0.682129
vt 0.481934 0.683105
vt 0.480957 0.682129
vt 0.481934 0.682129
vt 0.481934 0.683105
vt 0.480957 0.683105
vt 0.480957 0.682129
vt 0.481934 0.683105
vt 0.480957 0.683105
vt 0.480957 0.682129
vt 0.481934 0.682129
vt 0.481934 0.683105
vt 0.480957 0.683105
vt 0.480957 0.682129
vt 0.481934 0.682129
vt 0.875000 0.250000
vt 1.000000 0.250000
vt 0.875000 0.750000
vt 0.750000 0.750000
vt 0.481934 0.683105
vt 0.480957 0.683105
vt 0.480957 0.682129
vt 0.481934 0.683105
vt 0.480957 0.682129
vt 0.481934 0.682129
vt 0.481934 0.683105
vt 0.480957 0.683105
vt 0.480957 0.682129
vn -1.0000 -0.0000 0.0000
vn 1.0000 0.0000 0.0000
vn 0.2425 0.9701 0.0000
vn -0.2425 -0.9701 0.0000
vn 0.2425 -0.0000 0.9701
vn -0.2425 0.0000 -0.9701
vn -0.2425 0.9701 0.0000
vn 0.2425 -0.9701 0.0000
vn 0.0000 1.0000 0.0000
vn 0.0000 -1.0000 0.0000
usemtl m_0cd255ef-50ea-d92d-3ff6-d8a1ec0a292f
s 1
f 25/64/11 26/65/11 27/66/11 28/67/11
f 29/68/12 30/69/12 31/70/12 32/71/12
f 27/72/13 26/73/13 30/74/13 29/75/13
f 31/76/14 25/77/14 28/78/14 32/71/14
f 30/79/15 26/65/15 25/80/15 31/81/15
f 28/82/16 27/83/16 29/84/16 32/71/16
f 33/85/11 34/86/11 35/87/11 36/88/11
f 37/89/12 38/90/12 39/91/12 40/92/12
f 35/93/17 34/94/17 38/95/17 37/96/17
f 39/97/18 33/98/18 36/99/18 40/92/18
f 38/100/15 34/86/15 33/101/15 39/102/15
f 36/103/16 35/104/16 37/105/16 40/92/16
f 41/106/11 42/107/11 43/108/11 44/109/11
f 45/110/12 46/111/12 47/112/12 48/113/12
f 43/114/19 42/115/19 46/116/19 45/117/19
f 47/118/20 41/119/20 44/120/20 48/113/20
f 46/121/15 42/107/15 41/122/15 47/123/15
f 44/124/16 43/125/16 45/126/16 48/113/16
