# Blender v2.78 (sub 0) OBJ File: ''
# www.blender.org
mtllib laptop.mtl
o cube
v -0.375000 -0.000300 0.234375
v 0.375000 -0.000300 0.234375
v 0.375000 0.030950 0.234375
v -0.375000 0.030950 0.234375
v -0.375000 -0.000300 -0.265625
v -0.375000 0.030950 -0.265625
v 0.375000 -0.000300 -0.265625
v 0.375000 0.030950 -0.265625
v 0.234375 0.030950 -0.234375
v 0.296875 0.030950 -0.234375
v 0.296875 0.062200 -0.234375
v 0.234375 0.062200 -0.234375
v 0.234375 0.030950 -0.265625
v 0.234375 0.062200 -0.265625
v 0.296875 0.030950 -0.265625
v 0.296875 0.062200 -0.265625
v -0.296875 0.030950 -0.234375
v -0.234375 0.030950 -0.234375
v -0.234375 0.062200 -0.234375
v -0.296875 0.062200 -0.234375
v -0.296875 0.030950 -0.265625
v -0.296875 0.062200 -0.265625
v -0.234375 0.030950 -0.265625
v -0.234375 0.062200 -0.265625
vt 0.9844 0.0156
vt 0.9844 0.0469
vt 0.9531 0.0469
vt 0.9531 0.0156
vt 0.9844 0.0156
vt 0.9844 0.0469
vt 0.9531 0.0469
vt 0.9531 0.0156
vt 0.9844 0.0156
vt 0.9844 0.0469
vt 0.9531 0.0469
vt 0.9531 0.0156
vt 0.9844 0.0156
vt 0.9844 0.0469
vt 0.9531 0.0469
vt 0.9531 0.0156
vt 0.7500 0.5000
vt 0.0000 0.5000
vt 0.0000 0.0000
vt 0.7500 0.0000
vt 0.9531 0.0469
vt 0.9531 0.0156
vt 0.9844 0.0156
vt 0.9844 0.0469
vt 0.9531 0.0469
vt 0.9531 0.0156
vt 0.9844 0.0156
vt 0.9844 0.0469
vt 0.9531 0.0469
vt 0.9531 0.0156
vt 0.9844 0.0156
vt 0.9844 0.0469
vt 0.9531 0.0469
vt 0.9531 0.0156
vt 0.9844 0.0156
vt 0.9844 0.0469
vt 0.9531 0.0469
vt 0.9531 0.0156
vt 0.9844 0.0156
vt 0.9844 0.0469
vt 0.9531 0.0469
vt 0.9531 0.0156
vt 0.9844 0.0156
vt 0.9844 0.0469
vt 0.9531 0.0469
vt 0.9531 0.0156
vt 0.9844 0.0156
vt 0.9844 0.0469
vt 0.9531 0.0469
vt 0.9531 0.0156
vt 0.9844 0.0156
vt 0.9844 0.0469
vt 0.9531 0.0469
vt 0.9531 0.0156
vt 0.9844 0.0156
vt 0.9844 0.0469
vt 0.9531 0.0469
vt 0.9531 0.0156
vt 0.9844 0.0156
vt 0.9844 0.0469
vt 0.9531 0.0469
vt 0.9531 0.0156
vn 0.0000 0.0000 1.0000
vn -1.0000 0.0000 0.0000
vn -0.0000 0.0000 -1.0000
vn 1.0000 0.0000 -0.0000
vn -0.0000 1.0000 -0.0000
vn 0.0000 -1.0000 0.0000
usemtl m_0
s 1
f 1/1/1 2/2/1 3/3/1 4/4/1
f 5/5/2 1/6/2 4/7/2 6/8/2
f 7/9/3 5/10/3 6/11/3 8/12/3
f 2/13/4 7/14/4 8/15/4 3/16/4
f 8/17/5 6/18/5 4/19/5 3/20/5
f 2/13/6 1/6/6 5/21/6 7/22/6
f 9/23/1 10/24/1 11/25/1 12/26/1
f 13/27/2 9/28/2 12/29/2 14/30/2
f 15/31/3 13/32/3 14/33/3 16/34/3
f 10/35/4 15/36/4 16/37/4 11/38/4
f 16/39/5 14/40/5 12/29/5 11/38/5
f 10/35/6 9/28/6 13/41/6 15/42/6
f 17/43/1 18/44/1 19/45/1 20/46/1
f 21/47/2 17/48/2 20/49/2 22/50/2
f 23/51/3 21/52/3 22/53/3 24/54/3
f 18/55/4 23/56/4 24/57/4 19/58/4
f 24/59/5 22/60/5 20/49/5 19/58/5
f 18/55/6 17/48/6 21/61/6 23/62/6
o screen_translucent
v -0.328125 0.136419 -0.232422
v 0.328125 0.136419 -0.232422
v 0.328125 0.487981 -0.232422
v -0.328125 0.487981 -0.232422
v -0.328125 0.136419 -0.240234
v -0.328125 0.487981 -0.240234
v 0.328125 0.136419 -0.240234
v 0.328125 0.487981 -0.240234
vt 0.0469 0.5781
vt 0.7031 0.5781
vt 0.7031 0.9531
vt 0.0469 0.9531
vt 0.9531 0.1406
vt 0.9844 0.1406
vt 0.9844 0.1719
vt 0.9531 0.1719
vt 0.9531 0.1406
vt 0.9844 0.1406
vt 0.9844 0.1719
vt 0.9531 0.1719
vt 0.9531 0.1406
vt 0.9844 0.1406
vt 0.9844 0.1719
vt 0.9531 0.1719
vt 0.9531 0.1406
vt 0.9844 0.1406
vt 0.9844 0.1719
vt 0.9531 0.1719
vn 0.0000 0.0000 1.0000
vn -1.0000 0.0000 0.0000
vn -0.0000 -0.0000 -1.0000
vn 1.0000 0.0000 0.0000
vn 0.0000 1.0000 0.0000
vn 0.0000 -1.0000 0.0000
usemtl m_0
s 1
f 25/63/7 26/64/7 27/65/7 28/66/7
f 29/67/8 25/68/8 28/69/8 30/70/8
f 31/71/9 29/72/9 30/73/9 32/74/9
f 26/75/10 31/76/10 32/77/10 27/78/10
f 32/79/11 30/80/11 28/69/11 27/78/11
f 26/75/12 25/68/12 29/81/12 31/82/12
o lid
v -0.375000 0.062200 -0.234375
v 0.375000 0.062200 -0.234375
v 0.375000 0.530950 -0.234375
v -0.375000 0.530950 -0.234375
v -0.375000 0.062200 -0.265625
v -0.375000 0.530950 -0.265625
v 0.375000 0.062200 -0.265625
v 0.375000 0.530950 -0.265625
v -0.234375 0.030950 -0.234375
v 0.234375 0.030950 -0.234375
v 0.234375 0.062200 -0.234375
v -0.234375 0.062200 -0.234375
v -0.234375 0.030950 -0.265625
v -0.234375 0.062200 -0.265625
v 0.234375 0.030950 -0.265625
v 0.234375 0.062200 -0.265625
v 0.296875 0.030950 -0.234375
v 0.375000 0.030950 -0.234375
v 0.375000 0.062200 -0.234375
v 0.296875 0.062200 -0.234375
v 0.296875 0.030950 -0.265625
v 0.296875 0.062200 -0.265625
v 0.375000 0.030950 -0.265625
v 0.375000 0.062200 -0.265625
v -0.375000 0.030950 -0.234375
v -0.296875 0.030950 -0.234375
v -0.296875 0.062200 -0.234375
v -0.375000 0.062200 -0.234375
v -0.375000 0.030950 -0.265625
v -0.375000 0.062200 -0.265625
v -0.296875 0.030950 -0.265625
v -0.296875 0.062200 -0.265625
v -0.156250 0.140325 -0.259766
v 0.156250 0.140325 -0.259766
v 0.156250 0.452825 -0.259766
v -0.156250 0.452825 -0.259766
v -0.156250 0.140325 -0.267578
v -0.156250 0.452825 -0.267578
v 0.156250 0.140325 -0.267578
v 0.156250 0.452825 -0.267578
vt 0.0000 0.5000
vt 0.7500 0.5000
vt 0.7500 1.0000
vt 0.0000 1.0000
vt 0.9531 0.1094
vt 0.9531 0.0781
vt 0.9844 0.0781
vt 0.9844 0.1094
vt 0.9531 0.0781
vt 0.9844 0.0781
vt 0.9531 0.1094
vt 0.9844 0.0781
vt 0.9844 0.1094
vt 0.9531 0.0781
vt 0.9844 0.1094
vt 0.9531 0.1094
vt 0.9531 0.0781
vt 0.9844 0.0781
vt 0.9531 0.0781
vt 0.9844 0.0781
vt 0.9844 0.1094
vt 0.9531 0.1094
vt 0.9531 0.1094
vt 0.9531 0.0781
vt 0.9844 0.0781
vt 0.9844 0.1094
vt 0.9531 0.1094
vt 0.9531 0.0781
vt 0.9844 0.0781
vt 0.9844 0.1094
vt 0.9531 0.1094
vt 0.9531 0.0781
vt 0.9844 0.0781
vt 0.9844 0.1094
vt 0.9531 0.1094
vt 0.9531 0.0781
vt 0.9844 0.0781
vt 0.9844 0.1094
vt 0.9531 0.1094
vt 0.9531 0.0781
vt 0.9844 0.0781
vt 0.9844 0.1094
vt 0.9609 0.0898
vt 0.9609 0.1094
vt 0.9531 0.1094
vt 0.9531 0.0898
vt 0.9609 0.1016
vt 0.9609 0.1094
vt 0.9531 0.1094
vt 0.9531 0.1016
vt 0.9609 0.0898
vt 0.9609 0.1094
vt 0.9531 0.1094
vt 0.9531 0.0898
vt 0.9609 0.1016
vt 0.9609 0.1094
vt 0.9531 0.1094
vt 0.9531 0.1016
vt 0.9609 0.0898
vt 0.9609 0.1094
vt 0.9531 0.0898
vt 0.9609 0.0898
vt 0.9531 0.1094
vt 0.9531 0.0898
vt 0.9531 0.1094
vt 0.9531 0.0781
vt 0.9844 0.0781
vt 0.9844 0.1094
vt 0.9531 0.1094
vt 0.9531 0.0781
vt 0.9844 0.0781
vt 0.9844 0.1094
vt 0.9531 0.1094
vt 0.9531 0.0781
vt 0.9844 0.0781
vt 0.9844 0.1094
vt 0.9531 0.1094
vt 0.9531 0.0781
vt 0.9844 0.0781
vt 0.9844 0.1094
vt 0.9531 0.1094
vt 0.9531 0.0781
vt 0.9844 0.0781
vt 0.9844 0.1094
vt 0.9531 0.1406
vt 0.9844 0.1406
vt 0.9844 0.1719
vt 0.9531 0.1719
vt 0.9531 0.1406
vt 0.9844 0.1406
vt 0.9844 0.1719
vt 0.9531 0.1719
vt 0.7500 0.7500
vt 1.0000 0.7500
vt 1.0000 1.0000
vt 0.7500 1.0000
vt 0.9531 0.1406
vt 0.9844 0.1406
vt 0.9844 0.1719
vt 0.9531 0.1719
vt 0.9531 0.1406
vt 0.9844 0.1406
vt 0.9844 0.1719
vt 0.9531 0.1719
vn 0.0000 0.0000 1.0000
vn -1.0000 0.0000 0.0000
vn -0.0000 -0.0000 -1.0000
vn 1.0000 0.0000 0.0000
vn 0.0000 1.0000 0.0000
vn 0.0000 -1.0000 0.0000
usemtl m_0
s 1
f 33/83/13 34/84/13 35/85/13 36/86/13
f 37/87/14 33/88/14 36/89/14 38/90/14
f 39/91/15 37/92/15 38/90/15 40/93/15
f 34/94/16 39/95/16 40/93/16 35/96/16
f 40/97/17 38/98/17 36/99/17 35/100/17
f 34/101/18 33/102/18 37/103/18 39/104/18
f 41/105/13 42/106/13 43/107/13 44/108/13
f 45/109/14 41/110/14 44/111/14 46/112/14
f 47/113/15 45/114/15 46/115/15 48/116/15
f 42/117/16 47/118/16 48/119/16 43/120/16
f 48/121/17 46/122/17 44/111/17 43/120/17
f 42/117/18 41/110/18 45/123/18 47/124/18
f 49/125/13 50/126/13 51/127/13 52/128/13
f 53/129/14 49/130/14 52/131/14 54/132/14
f 55/133/15 53/134/15 54/135/15 56/136/15
f 50/137/16 55/138/16 56/139/16 51/140/16
f 56/141/17 54/142/17 52/131/17 51/143/17
f 50/144/18 49/130/18 53/145/18 55/146/18
f 57/147/13 58/148/13 59/149/13 60/150/13
f 61/151/14 57/152/14 60/153/14 62/154/14
f 63/155/15 61/156/15 62/157/15 64/158/15
f 58/159/16 63/160/16 64/161/16 59/162/16
f 64/163/17 62/164/17 60/153/17 59/162/17
f 58/159/18 57/152/18 61/165/18 63/166/18
f 65/167/13 66/168/13 67/169/13 68/170/13
f 69/171/14 65/172/14 68/173/14 70/174/14
f 71/175/15 69/176/15 70/177/15 72/178/15
f 66/179/16 71/180/16 72/181/16 67/182/16
f 72/183/17 70/184/17 68/173/17 67/182/17
f 66/179/18 65/172/18 69/185/18 71/186/18
