# Blender v2.79 (sub 0) OBJ File: ''
# www.blender.org
mtllib logo.mtl
o cube
v 0.500625 -0.000625 -0.500625
v -0.500625 -0.000625 -0.500625
v -0.500625 1.000625 -0.500625
v 0.500625 1.000625 -0.500625
v 0.500625 -0.000625 -0.499375
v 0.500625 1.000625 -0.499375
v -0.500625 -0.000625 -0.499375
v -0.500625 1.000625 -0.499375
vt 1.000000 0.000000
vt 0.000000 0.000000
vt 0.000000 1.000000
vt 1.000000 1.000000
vt 0.937500 0.000000
vt 0.937500 1.000000
vt 0.000000 0.000000
vt 1.000000 0.000000
vt 1.000000 1.000000
vt 0.000000 1.000000
vt 0.062500 0.000000
vt 0.062500 1.000000
vt 1.000000 1.000000
vt 0.000000 1.000000
vt 0.000000 0.937500
vt 1.000000 0.937500
vt 1.000000 0.062500
vt 0.000000 0.062500
vt 0.000000 0.000000
vt 1.000000 0.000000
vn 0.0000 0.0000 -1.0000
vn 1.0000 -0.0000 0.0000
vn 0.0000 -0.0000 1.0000
vn -1.0000 -0.0000 0.0000
vn 0.0000 1.0000 0.0000
vn 0.0000 -1.0000 -0.0000
usemtl m_f010517d-3b94-bf24-ed4c-d83ec571fa3c
s 1
f 1/1/1 2/2/1 3/3/1 4/4/1
f 5/5/2 1/1/2 4/4/2 6/6/2
f 7/7/3 5/8/3 6/9/3 8/10/3
f 2/2/4 7/11/4 8/12/4 3/3/4
f 8/13/5 6/14/5 4/15/5 3/16/5
f 2/17/6 1/18/6 5/19/6 7/20/6
