# Blender v2.78 (sub 0) OBJ File: ''
# www.blender.org
mtllib poster.mtl
o cube
v 0.375000 0.062500 -0.499536
v 0.375000 0.062500 -0.499599
v 0.375000 0.937500 -0.499599
v 0.375000 0.937500 -0.499536
v -0.375000 0.062500 -0.499599
v -0.375000 0.937500 -0.499599
v -0.375000 0.062500 -0.499536
v -0.375000 0.937500 -0.499536
vt 0.0000 1.0000
vt 0.0000 1.0000
vt 0.0000 1.0000
vt 0.0000 1.0000
vt 0.0000 1.0000
vt 0.0000 1.0000
vt 0.0625 0.0000
vt 0.9375 0.0000
vt 0.9375 1.0000
vt 0.0625 1.0000
vt 0.0000 1.0000
vt 0.0000 1.0000
vn 1.0000 0.0000 0.0000
vn 0.0000 0.0000 -1.0000
vn 0.0000 -0.0000 1.0000
vn 0.0000 1.0000 0.0000
vn -1.0000 0.0000 0.0000
vn 0.0000 -1.0000 0.0000
usemtl m_0
s 1
f 1/1/1 2/2/1 3/3/1 4/4/1
f 2/2/2 5/5/2 6/6/2 3/3/2
f 7/7/3 1/8/3 4/9/3 8/10/3
f 3/3/4 6/6/4 8/11/4 4/4/4
f 5/5/5 7/12/5 8/11/5 6/6/5
f 1/1/6 7/12/6 5/5/6 2/2/6
