# Blender v2.79 (sub 0) OBJ File: ''
# www.blender.org
mtllib television.mtl
o emblem_translucent
v -0.117188 0.031250 0.437562
v -0.328125 0.031250 0.437562
v -0.328125 0.093750 0.437562
v -0.117188 0.093750 0.437562
v -0.117188 0.031250 0.437562
v -0.117188 0.093750 0.437562
v -0.328125 0.031250 0.437562
v -0.328125 0.093750 0.437562
vt 0.000000 0.750000
vt 0.781250 0.750000
vt 0.781250 1.000000
vt 0.000000 1.000000
vt 0.000000 0.750000
vt 0.781250 0.750000
vt 0.781250 1.000000
vt 0.000000 1.000000
vt 0.000000 0.750000
vt 0.781250 0.750000
vt 0.781250 1.000000
vt 0.000000 1.000000
vt 0.000000 0.750000
vt 0.781250 0.750000
vt 0.781250 1.000000
vt 0.000000 1.000000
vt 0.000000 0.750000
vt 0.781250 0.750000
vt 0.781250 1.000000
vt 0.000000 1.000000
vn 0.0000 0.0000 -1.0000
vn 0.0000 0.0000 -0.0000
vn 1.0000 0.0000 -0.0000
vn 0.0000 0.0000 1.0000
vn -1.0000 -0.0000 -0.0000
vn -0.0000 1.0000 -0.0000
vn 0.0000 -1.0000 -0.0000
usemtl m_0
s 1
f 1/1/1 2/2/1 3/3/1 4/4/1
f 5/5/2 1/6/3 4/7/2 6/8/3
f 7/9/4 5/10/4 6/11/4 8/12/4
f 2/13/2 7/14/5 8/15/2 3/16/5
f 8/17/6 6/18/2 4/7/6 3/16/2
f 2/13/7 1/6/2 5/19/7 7/20/2
o screenoff
v 0.312500 0.125000 0.363281
v -0.312500 0.125000 0.363281
v -0.312500 0.750000 0.363281
v 0.312500 0.750000 0.363281
v 0.312500 0.125000 0.425781
v 0.312500 0.750000 0.425781
v -0.312500 0.125000 0.425781
v -0.312500 0.750000 0.425781
vt 0.007812 0.039062
vt 0.117188 0.039062
vt 0.117188 0.148438
vt 0.007812 0.148438
vt 0.007812 0.039062
vt 0.117188 0.039062
vt 0.117188 0.148438
vt 0.007812 0.148438
vt 0.007812 0.039062
vt 0.117188 0.039062
vt 0.117188 0.148438
vt 0.007812 0.148438
vt 0.007812 0.039062
vt 0.117188 0.039062
vt 0.117188 0.148438
vt 0.007812 0.148438
vt 0.007812 0.039062
vt 0.117188 0.039062
vt 0.117188 0.148438
vt 0.007812 0.148438
vn 0.0000 0.0000 -1.0000
vn 1.0000 0.0000 0.0000
vn 0.0000 -0.0000 1.0000
vn -1.0000 0.0000 0.0000
vn 0.0000 1.0000 0.0000
vn 0.0000 -1.0000 0.0000
usemtl m_0
s 1
f 9/21/8 10/22/8 11/23/8 12/24/8
f 13/25/9 9/26/9 12/27/9 14/28/9
f 15/29/10 13/30/10 14/31/10 16/32/10
f 10/33/11 15/34/11 16/35/11 11/36/11
f 16/37/12 14/38/12 12/27/12 11/36/12
f 10/33/13 9/26/13 13/39/13 15/40/13
o imageURL
v 0.312500 0.125000 0.365234
v -0.312500 0.125000 0.365234
v -0.312500 0.750000 0.365234
v 0.312500 0.750000 0.365234
v 0.312500 0.125000 0.427734
v 0.312500 0.750000 0.427734
v -0.312500 0.125000 0.427734
v -0.312500 0.750000 0.427734
vt 0.000000 0.000000
vt 1.000000 0.000000
vt 1.000000 1.000000
vt 0.000000 1.000000
vt 0.000000 0.000000
vt 1.000000 0.000000
vt 1.000000 1.000000
vt 0.000000 1.000000
vt 0.000000 0.000000
vt 1.000000 0.000000
vt 1.000000 1.000000
vt 0.000000 1.000000
vt 0.000000 0.000000
vt 1.000000 0.000000
vt 1.000000 1.000000
vt 0.000000 1.000000
vt 0.000000 0.000000
vt 1.000000 0.000000
vt 1.000000 1.000000
vt 0.000000 1.000000
vn 0.0000 0.0000 -1.0000
vn 1.0000 0.0000 0.0000
vn 0.0000 -0.0000 1.0000
vn -1.0000 0.0000 0.0000
vn 0.0000 1.0000 0.0000
vn 0.0000 -1.0000 -0.0000
usemtl m_0
s 1
f 17/41/14 18/42/14 19/43/14 20/44/14
f 21/45/15 17/46/15 20/47/15 22/48/15
f 23/49/16 21/50/16 22/51/16 24/52/16
f 18/53/17 23/54/17 24/55/17 19/56/17
f 24/57/18 22/58/18 20/47/18 19/56/18
f 18/53/19 17/46/19 21/59/19 23/60/19
o cube
v 0.343750 0.035156 0.437500
v 0.289062 0.035156 0.437500
v 0.289062 0.093750 0.437500
v 0.343750 0.093750 0.437500
v 0.343750 0.035156 0.445312
v 0.343750 0.093750 0.445312
v 0.289062 0.035156 0.445312
v 0.289062 0.093750 0.445312
v 0.273438 0.042969 0.437500
v 0.234375 0.042969 0.437500
v 0.234375 0.082031 0.437500
v 0.273438 0.082031 0.437500
v 0.273438 0.042969 0.445312
v 0.273438 0.082031 0.445312
v 0.234375 0.042969 0.445312
v 0.234375 0.082031 0.445312
v 0.218750 0.042969 0.437500
v 0.179688 0.042969 0.437500
v 0.179688 0.082031 0.437500
v 0.218750 0.082031 0.437500
v 0.218750 0.042969 0.445312
v 0.218750 0.082031 0.445312
v 0.179688 0.042969 0.445312
v 0.179688 0.082031 0.445312
v 0.375000 -0.000000 0.125000
v -0.375000 -0.000000 0.125000
v -0.375000 0.125000 0.125000
v 0.375000 0.125000 0.125000
v 0.375000 -0.000000 0.437500
v 0.375000 0.125000 0.437500
v -0.375000 -0.000000 0.437500
v -0.375000 0.125000 0.437500
v 0.312500 0.000000 -0.343750
v 0.265625 0.000000 -0.343750
v 0.265625 0.031250 -0.343750
v 0.312500 0.031250 -0.343750
v 0.312500 0.000000 -0.296875
v 0.312500 0.031250 -0.296875
v 0.265625 0.000000 -0.296875
v 0.265625 0.031250 -0.296875
v -0.265625 0.000000 -0.343750
v -0.312500 0.000000 -0.343750
v -0.312500 0.031250 -0.343750
v -0.265625 0.031250 -0.343750
v -0.265625 0.000000 -0.296875
v -0.265625 0.031250 -0.296875
v -0.312500 0.000000 -0.296875
v -0.312500 0.031250 -0.296875
v 0.343750 0.031250 -0.375000
v -0.343750 0.031250 -0.375000
v -0.343750 0.718750 -0.375000
v 0.343750 0.718750 -0.375000
v 0.343750 0.031250 0.125000
v 0.343750 0.718750 0.125000
v -0.343750 0.031250 0.125000
v -0.343750 0.718750 0.125000
v 0.343750 0.656716 -0.367383
v -0.343750 0.656716 -0.367383
v -0.343750 0.718750 -0.375000
v 0.343750 0.718750 -0.375000
v 0.343750 0.720507 0.152153
v 0.343750 0.782541 0.144536
v -0.343750 0.720507 0.152153
v -0.343750 0.782541 0.144536
v 0.375000 0.750000 0.125000
v -0.312500 0.750000 0.125000
v -0.312500 0.812500 0.125000
v 0.375000 0.812500 0.125000
v 0.375000 0.750000 0.437500
v 0.375000 0.812500 0.437500
v -0.312500 0.750000 0.437500
v -0.312500 0.812500 0.437500
v 0.375000 0.125000 0.125000
v 0.312500 0.125000 0.125000
v 0.312500 0.750000 0.125000
v 0.375000 0.750000 0.125000
v 0.375000 0.125000 0.437500
v 0.375000 0.750000 0.437500
v 0.312500 0.125000 0.437500
v 0.312500 0.750000 0.437500
v -0.312500 0.125000 0.125000
v -0.375000 0.125000 0.125000
v -0.375000 0.812500 0.125000
v -0.312500 0.812500 0.125000
v -0.312500 0.125000 0.437500
v -0.312500 0.812500 0.437500
v -0.375000 0.125000 0.437500
v -0.375000 0.812500 0.437500
v 0.046875 0.812500 0.203125
v -0.046875 0.812500 0.203125
v -0.046875 0.820312 0.203125
v 0.046875 0.820312 0.203125
v 0.046875 0.812500 0.250000
v 0.046875 0.820312 0.250000
v -0.046875 0.812500 0.250000
v -0.046875 0.820312 0.250000
v 0.005985 0.807478 0.218750
v -0.005985 0.817522 0.218750
v 0.194886 1.056911 0.218750
v 0.206856 1.046867 0.218750
v 0.005985 0.807478 0.234375
v 0.206856 1.046867 0.234375
v -0.005985 0.817522 0.234375
v 0.194886 1.056911 0.234375
v 0.006198 0.817256 0.218750
v -0.006198 0.807744 0.218750
v -0.196436 1.055667 0.218750
v -0.184040 1.065179 0.218750
v 0.006198 0.817256 0.234375
v -0.184040 1.065179 0.234375
v -0.006198 0.807744 0.234375
v -0.196436 1.055667 0.234375
v 0.312500 0.125000 0.363281
v -0.312500 0.125000 0.363281
v -0.312500 0.750000 0.363281
v 0.312500 0.750000 0.363281
v 0.312500 0.125000 0.425781
v 0.312500 0.750000 0.425781
v -0.312500 0.125000 0.425781
v -0.312500 0.750000 0.425781
vt 0.101562 0.007812
vt 0.117188 0.007812
vt 0.117188 0.023438
vt 0.101562 0.023438
vt 0.101562 0.007812
vt 0.117188 0.007812
vt 0.117188 0.023438
vt 0.101562 0.023438
vt 0.101562 0.007812
vt 0.117188 0.007812
vt 0.117188 0.023438
vt 0.101562 0.023438
vt 0.101562 0.007812
vt 0.117188 0.007812
vt 0.117188 0.023438
vt 0.101562 0.023438
vt 0.101562 0.007812
vt 0.117188 0.007812
vt 0.117188 0.023438
vt 0.101562 0.023438
vt 0.070312 0.007812
vt 0.085938 0.007812
vt 0.085938 0.023438
vt 0.070312 0.023438
vt 0.070312 0.007812
vt 0.085938 0.007812
vt 0.085938 0.023438
vt 0.070312 0.023438
vt 0.070312 0.007812
vt 0.085938 0.007812
vt 0.085938 0.023438
vt 0.070312 0.023438
vt 0.070312 0.007812
vt 0.085938 0.007812
vt 0.085938 0.023438
vt 0.070312 0.023438
vt 0.070312 0.007812
vt 0.085938 0.007812
vt 0.085938 0.023438
vt 0.070312 0.023438
vt 0.070312 0.007812
vt 0.085938 0.007812
vt 0.085938 0.023438
vt 0.070312 0.023438
vt 0.070312 0.007812
vt 0.085938 0.007812
vt 0.085938 0.023438
vt 0.070312 0.023438
vt 0.070312 0.007812
vt 0.085938 0.007812
vt 0.085938 0.023438
vt 0.070312 0.023438
vt 0.070312 0.007812
vt 0.085938 0.007812
vt 0.085938 0.023438
vt 0.070312 0.023438
vt 0.070312 0.007812
vt 0.085938 0.007812
vt 0.085938 0.023438
vt 0.070312 0.023438
vt 0.007812 0.007812
vt 0.023438 0.007812
vt 0.023438 0.023438
vt 0.007812 0.023438
vt 0.007812 0.007812
vt 0.023438 0.007812
vt 0.023438 0.023438
vt 0.007812 0.023438
vt 0.007812 0.007812
vt 0.023438 0.007812
vt 0.023438 0.023438
vt 0.007812 0.023438
vt 0.007812 0.007812
vt 0.023438 0.007812
vt 0.023438 0.023438
vt 0.007812 0.023438
vt 0.007812 0.007812
vt 0.023438 0.007812
vt 0.023438 0.023438
vt 0.007812 0.023438
vt 0.007812 0.007812
vt 0.023438 0.007812
vt 0.023438 0.023438
vt 0.007812 0.023438
vt 0.007812 0.007812
vt 0.023438 0.007812
vt 0.023438 0.023438
vt 0.007812 0.023438
vt 0.007812 0.007812
vt 0.023438 0.007812
vt 0.023438 0.023438
vt 0.007812 0.023438
vt 0.007812 0.007812
vt 0.023438 0.007812
vt 0.023438 0.023438
vt 0.007812 0.023438
vt 0.007812 0.007812
vt 0.023438 0.007812
vt 0.023438 0.023438
vt 0.007812 0.023438
vt 0.007812 0.007812
vt 0.023438 0.007812
vt 0.023438 0.023438
vt 0.007812 0.023438
vt 0.007812 0.007812
vt 0.023438 0.007812
vt 0.023438 0.023438
vt 0.007812 0.023438
vt 0.007812 0.007812
vt 0.023438 0.007812
vt 0.023438 0.023438
vt 0.007812 0.023438
vt 0.007812 0.007812
vt 0.023438 0.007812
vt 0.023438 0.023438
vt 0.007812 0.023438
vt 0.007812 0.007812
vt 0.023438 0.007812
vt 0.023438 0.023438
vt 0.007812 0.023438
vt 0.007812 0.007812
vt 0.023438 0.007812
vt 0.023438 0.023438
vt 0.007812 0.023438
vt 0.007812 0.007812
vt 0.023438 0.007812
vt 0.023438 0.023438
vt 0.007812 0.023438
vt 0.007812 0.007812
vt 0.023438 0.007812
vt 0.023438 0.023438
vt 0.007812 0.023438
vt 0.007812 0.007812
vt 0.023438 0.007812
vt 0.023438 0.023438
vt 0.007812 0.023438
vt 0.007812 0.007812
vt 0.023438 0.007812
vt 0.023438 0.023438
vt 0.007812 0.023438
vt 0.007812 0.007812
vt 0.023438 0.007812
vt 0.023438 0.023438
vt 0.007812 0.023438
vt 0.007812 0.007812
vt 0.023438 0.007812
vt 0.023438 0.023438
vt 0.007812 0.023438
vt 0.007812 0.007812
vt 0.023438 0.007812
vt 0.023438 0.023438
vt 0.007812 0.023438
vt 0.007812 0.007812
vt 0.023438 0.007812
vt 0.023438 0.023438
vt 0.007812 0.023438
vt 0.007812 0.007812
vt 0.023438 0.007812
vt 0.023438 0.023438
vt 0.007812 0.023438
vt 0.007812 0.007812
vt 0.023438 0.007812
vt 0.023438 0.023438
vt 0.007812 0.023438
vt 0.007812 0.007812
vt 0.023438 0.007812
vt 0.023438 0.023438
vt 0.007812 0.023438
vt 0.007812 0.007812
vt 0.023438 0.007812
vt 0.023438 0.023438
vt 0.007812 0.023438
vt 0.007812 0.007812
vt 0.023438 0.007812
vt 0.023438 0.023438
vt 0.007812 0.023438
vt 0.007812 0.007812
vt 0.023438 0.007812
vt 0.023438 0.023438
vt 0.007812 0.023438
vt 0.007812 0.007812
vt 0.023438 0.007812
vt 0.023438 0.023438
vt 0.007812 0.023438
vt 0.007812 0.007812
vt 0.023438 0.007812
vt 0.023438 0.023438
vt 0.007812 0.023438
vt 0.007812 0.007812
vt 0.023438 0.007812
vt 0.023438 0.023438
vt 0.007812 0.023438
vt 0.007812 0.007812
vt 0.023438 0.007812
vt 0.023438 0.023438
vt 0.007812 0.023438
vt 0.007812 0.007812
vt 0.023438 0.007812
vt 0.023438 0.023438
vt 0.007812 0.023438
vt 0.007812 0.007812
vt 0.023438 0.007812
vt 0.023438 0.023438
vt 0.007812 0.023438
vt 0.007812 0.007812
vt 0.023438 0.007812
vt 0.023438 0.023438
vt 0.007812 0.023438
vt 0.007812 0.007812
vt 0.023438 0.007812
vt 0.023438 0.023438
vt 0.007812 0.023438
vt 0.007812 0.007812
vt 0.023438 0.007812
vt 0.023438 0.023438
vt 0.007812 0.023438
vt 0.007812 0.007812
vt 0.023438 0.007812
vt 0.023438 0.023438
vt 0.007812 0.023438
vt 0.039062 0.007812
vt 0.054688 0.007812
vt 0.054688 0.023438
vt 0.039062 0.023438
vt 0.039062 0.007812
vt 0.054688 0.007812
vt 0.054688 0.023438
vt 0.039062 0.023438
vt 0.039062 0.007812
vt 0.054688 0.007812
vt 0.054688 0.023438
vt 0.039062 0.023438
vt 0.039062 0.007812
vt 0.054688 0.007812
vt 0.054688 0.023438
vt 0.039062 0.023438
vt 0.039062 0.007812
vt 0.054688 0.007812
vt 0.054688 0.023438
vt 0.039062 0.023438
vt 0.039062 0.007812
vt 0.054688 0.007812
vt 0.054688 0.023438
vt 0.039062 0.023438
vt 0.039062 0.007812
vt 0.054688 0.007812
vt 0.054688 0.023438
vt 0.039062 0.023438
vt 0.039062 0.007812
vt 0.054688 0.007812
vt 0.054688 0.023438
vt 0.039062 0.023438
vt 0.039062 0.007812
vt 0.054688 0.007812
vt 0.054688 0.023438
vt 0.039062 0.023438
vt 0.039062 0.007812
vt 0.054688 0.007812
vt 0.054688 0.023438
vt 0.039062 0.023438
vt 0.039062 0.007812
vt 0.054688 0.007812
vt 0.054688 0.023438
vt 0.039062 0.023438
vt 0.039062 0.007812
vt 0.054688 0.007812
vt 0.054688 0.023438
vt 0.039062 0.023438
vt 0.039062 0.007812
vt 0.054688 0.007812
vt 0.054688 0.023438
vt 0.039062 0.023438
vt 0.039062 0.007812
vt 0.054688 0.007812
vt 0.054688 0.023438
vt 0.039062 0.023438
vt 0.039062 0.007812
vt 0.054688 0.007812
vt 0.054688 0.023438
vt 0.039062 0.023438
vt 0.007812 0.039062
vt 0.117188 0.039062
vt 0.117188 0.148438
vt 0.007812 0.148438
vt 0.007812 0.039062
vt 0.117188 0.039062
vt 0.117188 0.148438
vt 0.007812 0.148438
vt 0.007812 0.039062
vt 0.117188 0.039062
vt 0.117188 0.148438
vt 0.007812 0.148438
vt 0.007812 0.039062
vt 0.117188 0.039062
vt 0.117188 0.148438
vt 0.007812 0.148438
vt 0.007812 0.039062
vt 0.117188 0.039062
vt 0.117188 0.148438
vt 0.007812 0.148438
vn 0.0000 0.0000 -1.0000
vn 1.0000 0.0000 0.0000
vn 0.0000 0.0000 1.0000
vn -1.0000 0.0000 0.0000
vn 0.0000 1.0000 0.0000
vn 0.0000 -1.0000 0.0000
vn 0.0000 -0.1219 -0.9925
vn 0.0000 0.1219 0.9925
vn 0.0000 0.9925 -0.1219
vn 0.0000 -0.9925 0.1219
vn 0.7660 -0.6428 0.0000
vn -0.7660 0.6428 0.0000
vn 0.6428 0.7660 0.0000
vn -0.6428 -0.7660 0.0000
vn 0.7934 0.6088 0.0000
vn -0.7934 -0.6088 0.0000
vn -0.6088 0.7934 0.0000
vn 0.6088 -0.7934 0.0000
usemtl m_0
s 1
f 25/61/20 26/62/20 27/63/20 28/64/20
f 29/65/21 25/66/21 28/67/21 30/68/21
f 31/69/22 29/70/22 30/71/22 32/72/22
f 26/73/23 31/74/23 32/75/23 27/76/23
f 32/77/24 30/78/24 28/67/24 27/76/24
f 26/73/25 25/66/25 29/79/25 31/80/25
f 33/81/20 34/82/20 35/83/20 36/84/20
f 37/85/21 33/86/21 36/87/21 38/88/21
f 39/89/22 37/90/22 38/91/22 40/92/22
f 34/93/23 39/94/23 40/95/23 35/96/23
f 40/97/24 38/98/24 36/87/24 35/96/24
f 34/93/25 33/86/25 37/99/25 39/100/25
f 41/101/20 42/102/20 43/103/20 44/104/20
f 45/105/21 41/106/21 44/107/21 46/108/21
f 47/109/22 45/110/22 46/111/22 48/112/22
f 42/113/23 47/114/23 48/115/23 43/116/23
f 48/117/24 46/118/24 44/107/24 43/116/24
f 42/113/25 41/106/25 45/119/25 47/120/25
f 49/121/20 50/122/20 51/123/20 52/124/20
f 53/125/21 49/126/21 52/127/21 54/128/21
f 55/129/22 53/130/22 54/131/22 56/132/22
f 50/133/23 55/134/23 56/135/23 51/136/23
f 56/137/24 54/138/24 52/127/24 51/136/24
f 50/133/25 49/126/25 53/139/25 55/140/25
f 57/141/20 58/142/20 59/143/20 60/144/20
f 61/145/21 57/146/21 60/147/21 62/148/21
f 63/149/22 61/150/22 62/151/22 64/152/22
f 58/153/23 63/154/23 64/155/23 59/156/23
f 64/157/24 62/158/24 60/147/24 59/156/24
f 58/153/25 57/146/25 61/159/25 63/160/25
f 65/161/20 66/162/20 67/163/20 68/164/20
f 69/165/21 65/166/21 68/167/21 70/168/21
f 71/169/22 69/170/22 70/171/22 72/172/22
f 66/173/23 71/174/23 72/175/23 67/176/23
f 72/177/24 70/178/24 68/167/24 67/176/24
f 66/173/25 65/166/25 69/179/25 71/180/25
f 73/181/20 74/182/20 75/183/20 76/184/20
f 77/185/21 73/186/21 76/187/21 78/188/21
f 79/189/22 77/190/22 78/191/22 80/192/22
f 74/193/23 79/194/23 80/195/23 75/196/23
f 80/197/24 78/198/24 76/187/24 75/196/24
f 74/193/25 73/186/25 77/199/25 79/200/25
f 81/201/26 82/202/26 83/203/26 84/204/26
f 85/205/21 81/206/21 84/207/21 86/208/21
f 87/209/27 85/210/27 86/211/27 88/212/27
f 82/213/23 87/214/23 88/215/23 83/216/23
f 88/217/28 86/218/28 84/207/28 83/216/28
f 82/213/29 81/206/29 85/219/29 87/220/29
f 89/221/20 90/222/20 91/223/20 92/224/20
f 93/225/21 89/226/21 92/227/21 94/228/21
f 95/229/22 93/230/22 94/231/22 96/232/22
f 90/233/23 95/234/23 96/235/23 91/236/23
f 96/237/24 94/238/24 92/227/24 91/236/24
f 90/233/25 89/226/25 93/239/25 95/240/25
f 97/241/20 98/242/20 99/243/20 100/244/20
f 101/245/21 97/246/21 100/247/21 102/248/21
f 103/249/22 101/250/22 102/251/22 104/252/22
f 98/253/23 103/254/23 104/255/23 99/256/23
f 104/257/24 102/258/24 100/247/24 99/256/24
f 98/253/25 97/246/25 101/259/25 103/260/25
f 105/261/20 106/262/20 107/263/20 108/264/20
f 109/265/21 105/266/21 108/267/21 110/268/21
f 111/269/22 109/270/22 110/271/22 112/272/22
f 106/273/23 111/274/23 112/275/23 107/276/23
f 112/277/24 110/278/24 108/267/24 107/276/24
f 106/273/25 105/266/25 109/279/25 111/280/25
f 113/281/20 114/282/20 115/283/20 116/284/20
f 117/285/21 113/286/21 116/287/21 118/288/21
f 119/289/22 117/290/22 118/291/22 120/292/22
f 114/293/23 119/294/23 120/295/23 115/296/23
f 120/297/24 118/298/24 116/287/24 115/296/24
f 114/293/25 113/286/25 117/299/25 119/300/25
f 121/301/20 122/302/20 123/303/20 124/304/20
f 125/305/30 121/306/30 124/307/30 126/308/30
f 127/309/22 125/310/22 126/311/22 128/312/22
f 122/313/31 127/314/31 128/315/31 123/316/31
f 128/317/32 126/318/32 124/307/32 123/316/32
f 122/313/33 121/306/33 125/319/33 127/320/33
f 129/321/20 130/322/20 131/323/20 132/324/20
f 133/325/34 129/326/34 132/327/34 134/328/34
f 135/329/22 133/330/22 134/331/22 136/332/22
f 130/333/35 135/334/35 136/335/35 131/336/35
f 136/337/36 134/338/36 132/327/36 131/336/36
f 130/333/37 129/326/37 133/339/37 135/340/37
f 137/341/20 138/342/20 139/343/20 140/344/20
f 141/345/21 137/346/21 140/347/21 142/348/21
f 143/349/22 141/350/22 142/351/22 144/352/22
f 138/353/23 143/354/23 144/355/23 139/356/23
f 144/357/24 142/358/24 140/347/24 139/356/24
f 138/353/25 137/346/25 141/359/25 143/360/25
o glass_translucent
v 0.312500 0.125000 0.425781
v -0.312500 0.125000 0.425781
v -0.312500 0.750000 0.425781
v 0.312500 0.750000 0.425781
v 0.312500 0.125000 0.429688
v 0.312500 0.750000 0.429688
v -0.312500 0.125000 0.429688
v -0.312500 0.750000 0.429688
vt 0.125000 0.000000
vt 0.375000 0.000000
vt 0.375000 0.250000
vt 0.125000 0.250000
vt 0.125000 0.000000
vt 0.375000 0.000000
vt 0.375000 0.250000
vt 0.125000 0.250000
vt 0.125000 0.000000
vt 0.375000 0.000000
vt 0.375000 0.250000
vt 0.125000 0.250000
vt 0.125000 0.000000
vt 0.375000 0.000000
vt 0.375000 0.250000
vt 0.125000 0.250000
vt 0.125000 0.000000
vt 0.375000 0.000000
vt 0.375000 0.250000
vt 0.125000 0.250000
vn 0.0000 0.0000 -1.0000
vn 1.0000 0.0000 0.0000
vn 0.0000 -0.0000 1.0000
vn -1.0000 0.0000 0.0000
vn 0.0000 1.0000 0.0000
vn 0.0000 -1.0000 -0.0000
usemtl m_0
s 1
f 145/361/38 146/362/38 147/363/38 148/364/38
f 149/365/39 145/366/39 148/367/39 150/368/39
f 151/369/40 149/370/40 150/371/40 152/372/40
f 146/373/41 151/374/41 152/375/41 147/376/41
f 152/377/42 150/378/42 148/367/42 147/376/42
f 146/373/43 145/366/43 149/379/43 151/380/43
