# Blender v2.79 (sub 0) OBJ File: ''
# www.blender.org
mtllib pineapple.mtl
o pineapple
v -0.062500 0.062500 0.075000
v -0.062500 0.062500 -0.018750
v -0.062500 -0.062500 -0.018750
v -0.062500 -0.062500 0.075000
v 0.062500 -0.062500 -0.018750
v 0.062500 0.062500 -0.018750
v 0.062500 0.062500 0.075000
v 0.062500 -0.062500 0.075000
v -0.046875 -0.046875 -0.112500
v -0.046875 0.046875 -0.112500
v 0.046875 0.046875 -0.112500
v 0.046875 -0.046875 -0.112500
v 0.031250 0.031250 0.121875
v -0.031250 0.031250 0.121875
v -0.031250 -0.031250 0.121875
v 0.031250 -0.031250 0.121875
v -0.031250 0.031250 -0.065625
v -0.031250 -0.031250 -0.065625
v 0.031250 0.031250 -0.065625
v 0.031250 -0.031250 -0.065625
vt 0.250000 0.281250
vt 0.156250 0.281250
vt 0.156250 0.156250
vt 0.250000 0.156250
vt 0.312500 0.156250
vt 0.312500 0.281250
vt 0.218750 0.281250
vt 0.218750 0.156250
vt 0.156250 0.125000
vt 0.281250 0.125000
vt 0.281250 0.218750
vt 0.156250 0.218750
vt 0.281250 0.187500
vt 0.281250 0.281250
vt 0.156250 0.281250
vt 0.156250 0.187500
vt 0.890625 0.218750
vt 0.890625 0.312500
vt 0.796875 0.312500
vt 0.796875 0.218750
vt 0.281250 0.281250
vt 0.218750 0.281250
vt 0.218750 0.218750
vt 0.281250 0.218750
vt 0.187500 0.162412
vt 0.250000 0.162412
vt 0.281250 0.218750
vt 0.156250 0.218750
vt 0.181338 0.187500
vt 0.181338 0.250000
vt 0.125000 0.281250
vt 0.125000 0.156250
vt 0.250000 0.218750
vt 0.187500 0.218750
vt 0.156250 0.162412
vt 0.281250 0.162412
vt 0.218750 0.250000
vt 0.218750 0.187500
vt 0.275088 0.156250
vt 0.275088 0.281250
vt 0.156250 0.250000
vt 0.156250 0.187500
vt 0.212588 0.156250
vt 0.212588 0.281250
vt 0.187500 0.162412
vt 0.250000 0.162412
vt 0.281250 0.218750
vt 0.156250 0.218750
vt 0.275088 0.187500
vt 0.275088 0.250000
vt 0.218750 0.281250
vt 0.218750 0.156250
vt 0.250000 0.218750
vt 0.187500 0.218750
vt 0.156250 0.162412
vt 0.281250 0.162412
vt 0.796875 0.312500
vt 0.796875 0.218750
vt 0.846281 0.234375
vt 0.846281 0.296875
vt 0.890625 0.312500
vt 0.812500 0.263088
vt 0.875000 0.263088
vt 0.846281 0.218750
vt 0.846281 0.312500
vt 0.796875 0.296875
vt 0.796875 0.234375
vt 0.796875 0.263088
vt 0.890625 0.263088
vt 0.875000 0.312500
vt 0.812500 0.312500
vn -1.0000 0.0000 0.0000
vn 1.0000 0.0000 0.0000
vn 0.0000 1.0000 0.0000
vn 0.0000 -1.0000 0.0000
vn 0.0000 0.0000 -1.0000
vn 0.0000 0.0000 1.0000
vn 0.0000 0.8321 0.5547
vn -0.8321 0.0000 0.5547
vn 0.0000 -0.8321 0.5547
vn 0.8321 0.0000 0.5547
vn -0.8321 -0.0000 -0.5547
vn 0.0000 0.8321 -0.5547
vn 0.8321 -0.0000 -0.5547
vn 0.0000 -0.8321 -0.5547
vn -0.9487 0.0000 0.3162
vn 0.0000 0.9487 0.3162
vn 0.9487 0.0000 0.3162
vn 0.0000 -0.9487 0.3162
usemtl m_0
s 1
f 1/1/1 2/2/1 3/3/1 4/4/1
f 5/5/2 6/6/2 7/7/2 8/8/2
f 6/9/3 2/10/3 1/11/3 7/12/3
f 4/13/4 3/14/4 5/15/4 8/16/4
f 9/17/5 10/18/5 11/19/5 12/20/5
f 13/21/6 14/22/6 15/23/6 16/24/6
f 14/25/7 13/26/7 7/27/7 1/28/7
f 15/29/8 14/30/8 1/31/8 4/32/8
f 16/33/9 15/34/9 4/35/9 8/36/9
f 13/37/10 16/38/10 8/39/10 7/40/10
f 17/41/11 18/42/11 3/43/11 2/44/11
f 19/45/12 17/46/12 2/47/12 6/48/12
f 20/49/13 19/50/13 6/51/13 5/52/13
f 18/53/14 20/54/14 5/55/14 3/56/14
f 10/57/15 9/58/15 18/59/15 17/60/15
f 11/61/16 10/57/16 17/62/16 19/63/16
f 12/64/17 11/65/17 19/66/17 20/67/17
f 9/68/18 12/69/18 20/70/18 18/71/18
