# Blender v2.78 (sub 0) OBJ File: ''
# www.blender.org
mtllib boatmobile.mtl
o boat
v -1.441359 0.540510 -2.863904
v 1.441360 0.540510 -2.863904
v -1.441359 0.000000 -2.863904
v 1.441360 -0.000000 -2.863904
v -1.441360 0.000000 3.349062
v 1.441359 -0.000000 3.349062
v -1.441360 0.540510 3.349062
v 1.441359 0.540510 3.349062
v -1.441360 1.621530 3.168892
v 1.441359 1.621529 3.168892
v -1.441360 0.540510 3.168892
v 1.441359 0.540510 3.168892
v -1.441360 0.540510 3.529232
v 1.441359 0.540510 3.529232
v -1.441360 1.621530 3.529232
v 1.441359 1.621529 3.529232
v -1.441359 1.621530 -3.044074
v 1.441360 1.621529 -3.044074
v -1.441359 0.540510 -3.044074
v 1.441360 0.540510 -3.044074
v -1.441359 0.540510 -2.683734
v 1.441360 0.540510 -2.683734
v -1.441359 1.621530 -2.683734
v 1.441360 1.621529 -2.683734
v 1.261190 1.621529 -2.863904
v 1.621530 1.621529 -2.863903
v 1.261190 0.540510 -2.863904
v 1.621530 0.540510 -2.863903
v 1.261189 0.540510 3.349062
v 1.621529 0.540510 3.349062
v 1.261189 1.621529 3.349062
v 1.621529 1.621529 3.349062
v -1.621529 1.621530 -2.863904
v -1.261189 1.621529 -2.863904
v -1.621529 0.540510 -2.863904
v -1.261189 0.540510 -2.863904
v -1.621530 0.540510 3.349062
v -1.261190 0.540510 3.349062
v -1.621530 1.621530 3.349062
v -1.261190 1.621529 3.349062
vt 0.0000 0.9688
vt 0.2188 0.9688
vt 0.2188 1.0000
vt 0.0000 1.0000
vt 0.0000 0.9688
vt 0.0469 0.9688
vt 0.0469 1.0000
vt 0.0000 1.0000
vt 0.0000 0.9531
vt 0.2188 0.9531
vt 0.2188 1.0000
vt 0.0000 1.0000
vt 0.0000 0.7500
vt 0.0156 0.7500
vt 0.0156 1.0000
vt 0.0000 1.0000
vt 0.0000 0.9688
vt 0.2188 0.9688
vt 0.2188 1.0000
vt 0.0000 1.0000
vt 0.0000 1.0000
vt 0.2188 1.0000
vt 0.2188 0.9062
vt 0.0000 0.9062
vt 0.0000 0.4062
vt 0.2188 0.4062
vt 0.2188 0.4375
vt 0.0000 0.4375
vt 0.0000 0.7500
vt 0.0469 0.7500
vt 0.0469 1.0000
vt 0.0000 1.0000
vt 0.0000 0.9531
vt 0.2188 0.9531
vt 0.2188 1.0000
vt 0.0000 1.0000
vt 0.0000 0.7500
vt 0.0469 0.7500
vt 0.0469 1.0000
vt 0.0000 1.0000
vt 0.0000 0.9062
vt 0.0156 0.9062
vt 0.0156 1.0000
vt 0.0000 1.0000
vt 0.0000 0.9062
vt 0.2188 0.9062
vt 0.2188 1.0000
vt 0.0000 0.7500
vt 0.0156 0.7500
vt 0.0156 1.0000
vt 0.0000 1.0000
vt 0.0000 0.9688
vt 0.0469 0.9688
vt 0.0469 1.0000
vt 0.0000 1.0000
vt 0.0000 0.7500
vt 0.0234 0.7500
vt 0.0234 1.0000
vt 0.0000 0.7500
vt 0.0469 0.7500
vt 0.0469 1.0000
vt 0.0000 1.0000
vt 0.0000 0.7500
vt 0.2188 0.7500
vt 0.2188 1.0000
vt 0.0000 1.0000
vt 0.0000 0.9062
vt 0.0156 0.9062
vt 0.0156 1.0000
vt 0.0625 0.9688
vt 0.1094 0.9688
vt 0.1094 1.0000
vt 0.0625 1.0000
vt 0.0000 0.9688
vt 0.0469 0.9688
vt 0.0469 1.0000
vt 0.0000 1.0000
vt 0.0000 0.7500
vt 0.0156 0.7500
vt 0.0156 1.0000
vt 0.0000 1.0000
vt 0.0000 0.9062
vt 0.2188 0.9062
vt 0.2188 1.0000
vt 0.0000 1.0000
vt 0.0000 0.9062
vt 0.0156 0.9062
vt 0.0156 1.0000
vt 0.0000 1.0000
vt 0.0000 0.9062
vt 0.0156 0.9062
vt 0.0156 1.0000
vt 0.0000 1.0000
vt 0.0000 0.7500
vt 0.2188 0.7500
vt 0.2188 1.0000
vt 0.0000 1.0000
vt 0.0000 0.7500
vt 0.0234 0.7500
vt 0.0234 1.0000
vt 0.0000 1.0000
vt 0.0000 0.9688
vt 0.2188 0.9688
vt 0.0000 0.7500
vt 0.0469 0.7500
vt 0.0469 1.0000
vt 0.0000 0.7500
vt 0.0156 0.7500
vt 0.0156 1.0000
vt 0.0000 1.0000
vt 0.0000 0.9062
vt 0.2188 0.9062
vt 0.2188 1.0000
vt 0.0000 1.0000
vn 0.0000 1.0000 0.0000
vn -0.0000 0.0000 1.0000
vn 1.0000 0.0000 0.0000
vn 0.0000 -1.0000 0.0000
vn -1.0000 0.0000 -0.0000
vn 0.0000 0.0000 -1.0000
usemtl m_0
s 1
f 32/1/1 26/2/1 25/3/1 31/4/1
f 30/5/2 32/6/2 31/7/2 29/8/2
f 6/9/3 4/10/3 2/11/3 8/12/3
f 16/13/1 10/14/1 9/15/1 15/16/1
f 28/17/4 30/18/4 29/19/4 27/20/4
f 39/21/5 33/22/5 35/23/5 37/24/5
f 36/25/4 38/26/4 37/27/4 35/28/4
f 10/29/6 12/30/6 11/31/6 9/32/6
f 7/33/5 1/34/5 3/35/5 5/36/5
f 18/37/6 20/38/6 19/39/6 17/40/6
f 23/41/5 17/42/5 19/43/5 21/44/5
f 31/45/5 25/46/5 27/47/5 29/8/5
f 20/48/4 22/49/4 21/50/4 19/51/4
f 26/52/6 28/53/6 27/54/6 25/55/6
f 6/56/2 8/57/2 7/58/2 5/36/2
f 14/59/2 16/60/2 15/61/2 13/62/2
f 4/63/4 6/64/4 5/65/4 3/66/4
f 15/67/5 9/68/5 11/69/5 13/62/5
f 38/70/2 40/71/2 39/72/2 37/73/2
f 34/74/6 36/75/6 35/76/6 33/77/6
f 24/78/1 18/79/1 17/80/1 23/81/1
f 30/82/3 28/83/3 26/84/3 32/85/3
f 14/86/3 12/87/3 10/88/3 16/89/3
f 22/90/3 20/91/3 18/92/3 24/93/3
f 8/94/1 2/95/1 1/96/1 7/97/1
f 2/98/6 4/99/6 3/100/6 1/101/6
f 40/102/1 34/103/1 33/22/1 39/21/1
f 22/104/2 24/105/2 23/106/2 21/44/2
f 12/107/4 14/108/4 13/109/4 11/110/4
f 38/111/3 36/112/3 34/113/3 40/114/3
