# Blender v2.78 (sub 0) OBJ File: ''
# www.blender.org
mtllib billboard.mtl
o cube
v 2.562500 0.125000 0.562500
v 2.562500 0.062500 0.562500
v 2.562500 0.125000 -0.562500
v 2.562500 0.062500 -0.562500
v -2.562500 0.125000 -0.562500
v -2.562500 0.062500 -0.562500
v -2.562500 0.125000 0.562500
v -2.562500 0.062500 0.562500
v 0.507812 0.062500 0.507812
v 0.507812 -0.015625 0.507812
v 0.507812 0.062500 -0.507812
v 0.507812 -0.015625 -0.507812
v -0.507812 0.062500 -0.507812
v -0.507812 -0.015625 -0.507812
v -0.507812 0.062500 0.507812
v -0.507812 -0.015625 0.507812
v 2.500000 3.250000 0.031250
v 2.500000 0.125000 0.031250
v 2.500000 3.250000 -0.031250
v 2.500000 0.125000 -0.031250
v -2.500000 3.250000 -0.031250
v -2.500000 0.125000 -0.031250
v -2.500000 3.250000 0.031250
v -2.500000 0.125000 0.031250
v 2.531250 3.250000 0.062500
v 2.531250 0.125000 0.062500
v 2.531250 3.250000 -0.062500
v 2.531250 0.125000 -0.062500
v 2.500000 3.250000 -0.062500
v 2.500000 0.125000 -0.062500
v 2.500000 3.250000 0.062500
v 2.500000 0.125000 0.062500
v -2.500000 3.250000 0.062500
v -2.500000 0.125000 0.062500
v -2.500000 3.250000 -0.062500
v -2.500000 0.125000 -0.062500
v -2.531250 3.250000 -0.062500
v -2.531250 0.125000 -0.062500
v -2.531250 3.250000 0.062500
v -2.531250 0.125000 0.062500
v 2.531250 3.281250 0.062500
v 2.531250 3.250000 0.062500
v 2.531250 3.281250 -0.062500
v 2.531250 3.250000 -0.062500
v -2.531250 3.281250 -0.062500
v -2.531250 3.250000 -0.062500
v -2.531250 3.281250 0.062500
v -2.531250 3.250000 0.062500
vt 0.0000 0.0000
vt 0.0078 0.0000
vt 0.0078 0.0058
vt 0.0000 0.0058
vt 0.5000 0.6250
vt 1.0000 0.6250
vt 1.0000 1.0000
vt 0.5000 1.0000
vt 0.0078 0.0001
vt 0.0156 0.0001
vt 0.0156 0.0058
vt 0.0078 0.0058
vt 0.0078 0.0001
vt 0.0156 0.0001
vt 0.0156 0.0058
vt 0.0078 0.0058
vt 0.0000 0.0000
vt 0.0078 0.0000
vt 0.0078 0.0058
vt 0.0000 0.0058
vt 0.0000 0.0000
vt 0.0078 0.0000
vt 0.0078 0.0058
vt 0.0000 0.0058
vt 0.0078 0.0001
vt 0.0156 0.0001
vt 0.0156 0.0058
vt 0.0078 0.0058
vt 0.0078 0.0001
vt 0.0156 0.0001
vt 0.0156 0.0058
vt 0.0078 0.0058
vt 0.0000 0.6250
vt 0.5000 0.6250
vt 0.5000 1.0000
vt 0.0000 1.0000
vt 0.0000 0.0000
vt 0.0078 0.0000
vt 0.0078 0.0058
vt 0.0000 0.0058
vt 0.0078 0.0001
vt 0.0156 0.0001
vt 0.0156 0.0058
vt 0.0078 0.0058
vt 0.0000 0.0000
vt 0.0078 0.0000
vt 0.0078 0.0058
vt 0.0078 0.0001
vt 0.0156 0.0001
vt 0.0156 0.0058
vt 0.0078 0.0058
vt 0.0000 0.0000
vt 0.0078 0.0000
vt 0.0078 0.0058
vt 0.0000 0.0058
vt 0.0078 0.0001
vt 0.0156 0.0001
vt 0.0156 0.0058
vt 0.0078 0.0058
vt 0.0156 0.0001
vt 0.0156 0.0058
vt 0.0078 0.0058
vt 0.0000 0.0000
vt 0.0078 0.0000
vt 0.0000 0.0058
vt 0.0078 0.0001
vt 0.0156 0.0001
vt 0.0156 0.0058
vt 0.0078 0.0058
vt 0.0078 0.0001
vt 0.0156 0.0001
vt 0.0156 0.0058
vt 0.0078 0.0058
vt 0.0000 0.0000
vt 0.0078 0.0000
vt 0.0000 0.0058
vt 0.0078 0.0001
vt 0.0156 0.0001
vt 0.0156 0.0058
vt 0.0078 0.0058
vt 0.0000 0.0000
vt 0.0078 0.0058
vt 0.0000 0.0058
vt 0.0078 0.0001
vt 0.0156 0.0001
vt 0.0156 0.0058
vt 0.0078 0.0058
vt 0.0156 0.0001
vt 0.0156 0.0058
vt 0.0078 0.0001
vt 0.0156 0.0058
vt 0.0078 0.0058
vt 0.0156 0.0058
vt 0.0078 0.0058
vt 0.0078 0.0001
vt 0.0156 0.0058
vt 0.0078 0.0058
vt 0.0078 0.0001
vt 0.0156 0.0001
vt 0.0078 0.0058
vt 0.0000 0.0058
vt 0.0078 0.0000
vt 0.0078 0.0058
vt 0.0078 0.0001
vt 0.0078 0.0058
vt 0.0078 0.0001
vt 0.0156 0.0001
vt 0.0156 0.0001
vt 0.0156 0.0058
vt 0.0078 0.0058
vt 0.0000 0.0000
vt 0.0078 0.0000
vt 0.0078 0.0058
vt 0.0000 0.0058
vt 0.0078 0.0001
vt 0.0156 0.0001
vt 0.0078 0.0001
vt 0.0156 0.0001
vt 0.0156 0.0058
vt 0.0078 0.0058
vn -1.0000 0.0000 0.0000
vn 0.0000 -0.0000 1.0000
vn 0.0000 -1.0000 0.0000
vn 0.0000 0.0000 -1.0000
vn 0.0000 1.0000 0.0000
vn 1.0000 0.0000 0.0000
usemtl m_0
s 1
f 6/1/1 8/2/1 7/3/1 5/4/1
f 24/5/2 18/6/2 17/7/2 23/8/2
f 46/9/3 44/10/3 42/11/3 48/12/3
f 44/13/4 46/14/4 45/15/4 43/16/4
f 8/17/2 2/18/2 1/19/2 7/20/2
f 16/21/2 10/22/2 9/23/2 15/24/2
f 22/25/3 20/26/3 18/27/3 24/28/3
f 30/29/3 28/30/3 26/31/3 32/32/3
f 20/33/4 22/34/4 21/35/4 19/36/4
f 4/37/4 6/38/4 5/39/4 3/40/4
f 40/41/2 34/42/2 33/43/2 39/44/2
f 7/45/5 1/46/5 3/47/5 5/4/5
f 38/48/1 40/49/1 39/50/1 37/51/1
f 10/52/6 12/53/6 11/54/6 9/55/6
f 48/56/2 42/57/2 41/58/2 47/59/2
f 22/25/1 24/60/1 23/61/1 21/62/1
f 15/63/5 9/64/5 11/54/5 13/65/5
f 32/66/2 26/67/2 25/68/2 31/69/2
f 34/70/6 36/71/6 35/72/6 33/73/6
f 2/74/6 4/75/6 3/47/6 1/76/6
f 36/77/4 38/78/4 37/79/4 35/80/4
f 14/81/3 12/53/3 10/82/3 16/83/3
f 47/84/5 41/85/5 43/86/5 45/87/5
f 46/9/1 48/88/1 47/89/1 45/87/1
f 18/90/6 20/26/6 19/91/6 17/92/6
f 38/48/3 36/71/3 34/93/3 40/94/3
f 26/95/6 28/30/6 27/96/6 25/97/6
f 23/98/5 17/99/5 19/91/5 21/62/5
f 6/1/3 4/75/3 2/100/3 8/101/3
f 14/81/1 16/102/1 15/103/1 13/65/1
f 42/104/6 44/10/6 43/86/6 41/105/6
f 39/106/5 33/107/5 35/72/5 37/51/5
f 30/29/1 32/108/1 31/109/1 29/110/1
f 12/111/4 14/112/4 13/113/4 11/114/4
f 31/115/5 25/116/5 27/96/5 29/110/5
f 28/117/4 30/118/4 29/119/4 27/120/4
