# Blender v2.78 (sub 0) OBJ File: ''
# www.blender.org
mtllib cc.mtl
o cube
v 0.250000 -0.000000 0.465722
v 0.250000 -0.000000 -0.284278
v 0.250000 0.001953 0.465722
v 0.250000 0.001953 -0.284278
v -0.250000 0.001953 0.465722
v -0.250000 0.001953 -0.284278
v -0.250000 -0.000000 0.465722
v -0.250000 -0.000000 -0.284278
v 0.500000 -0.000000 0.465722
v 0.500000 -0.000000 -0.284278
v 0.500000 0.001953 0.465722
v 0.500000 0.001953 -0.284278
v 0.250000 0.001953 0.465722
v 0.250000 0.001953 -0.284278
v 0.250000 -0.000000 0.465722
v 0.250000 -0.000000 -0.284278
v -0.250000 -0.000000 0.465722
v -0.250000 -0.000000 -0.284278
v -0.250000 0.001953 0.465722
v -0.250000 0.001953 -0.284278
v -0.500000 0.001953 0.465722
v -0.500000 0.001953 -0.284278
v -0.500000 -0.000000 0.465722
v -0.500000 -0.000000 -0.284278
v 0.250000 -0.000000 0.965722
v 0.250000 -0.000000 0.465722
v 0.250000 0.001953 0.965722
v 0.250000 0.001953 0.465722
v -0.250000 0.001953 0.965722
v -0.250000 0.001953 0.465722
v -0.250000 -0.000000 0.965722
v -0.250000 -0.000000 0.465722
v 0.265625 0.001953 0.981347
v 0.265625 0.001953 0.450097
v 0.265625 0.003906 0.981347
v 0.265625 0.003906 0.450097
v -0.265625 0.003906 0.981347
v -0.265625 0.003906 0.450097
v -0.265625 0.001953 0.981347
v -0.265625 0.001953 0.450097
v -0.000476 0.000062 -0.279548
v -0.000476 -0.000000 -0.279548
v -0.065842 0.000062 -1.026694
v -0.065842 -0.000000 -1.026694
v -0.314891 0.000062 -1.004905
v -0.314891 -0.000000 -1.004905
v -0.249524 0.000062 -0.257759
v -0.249524 -0.000000 -0.257759
v 0.249524 0.000062 -0.257759
v 0.249524 -0.000000 -0.257759
v 0.314891 0.000062 -1.004905
v 0.314891 -0.000000 -1.004905
v 0.065842 0.000062 -1.026694
v 0.065842 -0.000000 -1.026694
v 0.000476 0.000062 -0.279548
v 0.000476 -0.000000 -0.279548
v -0.029244 0.000062 -0.349002
v -0.029244 -0.000000 -0.349002
v -0.511335 0.000062 -0.923535
v -0.511335 -0.000000 -0.923535
v -0.702846 0.000062 -0.762838
v -0.702846 -0.000000 -0.762838
v -0.220756 0.000062 -0.188305
v -0.220756 -0.000000 -0.188305
v 0.227394 0.000062 -0.196956
v 0.227394 -0.000000 -0.196956
v 0.657576 0.000062 -0.811320
v 0.657576 -0.000000 -0.811320
v 0.452788 0.000062 -0.954714
v 0.452788 -0.000000 -0.954714
v 0.022606 0.000062 -0.340350
v 0.022606 -0.000000 -0.340350
vt 0.4375 0.7500
vt 0.3125 0.7500
vt 0.3125 0.6875
vt 0.4375 0.6875
vt 0.7500 0.5000
vt 0.8125 0.5000
vt 0.8125 0.6875
vt 0.7500 0.6875
vt 0.3750 0.7500
vt 0.5000 0.7500
vt 0.5000 0.8750
vt 0.3750 0.8750
vt 0.3750 0.0000
vt 0.4375 0.0000
vt 0.4375 0.1875
vt 0.3750 0.1875
vt 0.7500 0.5000
vt 0.8125 0.5000
vt 0.8125 0.6875
vt 0.7500 0.6875
vt 0.1250 0.5000
vt 0.1250 0.6875
vt 0.0625 0.6875
vt 0.0625 0.5000
vt 0.6250 0.5000
vt 0.6875 0.5000
vt 0.6875 0.6875
vt 0.6250 0.6875
vt 0.6875 0.5000
vt 0.6875 0.6875
vt 0.3125 0.1875
vt 0.2500 0.1875
vt 0.2500 0.0000
vt 0.3125 0.0000
vt 0.0625 0.5000
vt 0.0625 0.6875
vt 0.0000 0.6875
vt 0.0000 0.5000
vt 0.7500 0.7500
vt 0.6875 0.7500
vt 0.5625 0.7500
vt 0.4375 0.7500
vt 0.4375 0.6875
vt 0.5625 0.6875
vt 0.1875 0.6875
vt 0.1875 0.5000
vt 0.2500 0.5000
vt 0.2500 0.6875
vt 0.0000 0.5000
vt 0.0000 0.6875
vt 0.0625 0.5000
vt 0.0625 0.6875
vt 0.0000 0.6875
vt 0.0000 0.5000
vt 0.8750 0.5000
vt 0.8750 0.6875
vt 0.1250 0.8750
vt 0.2500 0.8750
vt 0.2500 1.0000
vt 0.1250 1.0000
vt 0.1250 0.5000
vt 0.1250 0.6875
vt 0.0625 0.6875
vt 0.0625 0.5000
vt 0.8750 0.5000
vt 0.8750 0.6875
vt 0.6250 0.7500
vt 0.7500 0.7500
vt 0.7500 0.8750
vt 0.6250 0.8750
vt 0.3125 0.5000
vt 0.4375 0.5000
vt 0.6250 0.5000
vt 0.6250 0.6875
vt 0.5000 0.5000
vt 0.6250 0.5000
vt 0.6250 0.6875
vt 0.5000 0.6875
vt 0.7500 0.7500
vt 0.7500 0.6875
vt 0.8125 0.6875
vt 0.8125 0.7500
vt 0.4375 0.5000
vt 0.5000 0.5000
vt 0.5000 0.6875
vt 0.4375 0.6875
vt 0.2500 0.7500
vt 0.2500 0.8750
vt 0.1875 0.6875
vt 0.1875 0.5000
vt 0.2500 0.5000
vt 0.2500 0.6875
vt 0.7500 0.8750
vt 0.8750 0.8750
vt 0.8750 1.0000
vt 0.7500 1.0000
vt 0.7500 0.7500
vt 0.7500 0.6875
vt 0.8125 0.6875
vt 0.8125 0.7500
vt 0.0625 0.5000
vt 0.0625 0.6875
vt 0.0000 0.5000
vt 0.3125 0.1875
vt 0.2500 0.1875
vt 0.2500 0.0000
vt 0.3125 0.0000
vt 0.0000 0.5000
vt 0.0625 0.5000
vt 0.0625 0.6875
vt 0.2500 0.8750
vt 0.3750 0.8750
vt 0.3750 1.0000
vt 0.2500 1.0000
vt 0.1250 0.5000
vt 0.1875 0.5000
vt 0.1875 0.6875
vt 0.1250 0.6875
vt 0.7500 0.7500
vt 0.6875 0.7500
vt 0.1875 0.6875
vt 0.1875 0.5000
vt 0.2500 0.5000
vt 0.2500 0.6875
vt 0.5000 0.7500
vt 0.5000 0.8750
vt 0.1250 0.5000
vt 0.1875 0.5000
vt 0.1875 0.6875
vt 0.1250 0.6875
vt 0.1250 0.5000
vt 0.1250 0.6875
vt 0.0625 0.6875
vt 0.0625 0.5000
vt 0.6250 0.8750
vt 0.7500 0.8750
vt 0.7500 1.0000
vt 0.6250 1.0000
vt 0.1250 0.5000
vt 0.1875 0.5000
vt 0.1875 0.6875
vt 0.1250 0.6875
vt 0.0625 0.5000
vt 0.0625 0.6875
vt 0.0000 0.6875
vt 0.0000 0.5000
vt 0.8750 0.7500
vt 1.0000 0.7500
vt 1.0000 0.8750
vt 0.8750 0.8750
vt 0.1250 0.7500
vt 0.1250 0.8750
vt 0.2500 0.5000
vt 0.3125 0.5000
vt 0.3125 0.6875
vt 0.2500 0.6875
vt 0.1875 0.6875
vt 0.1875 0.5000
vt 0.2500 0.5000
vt 0.2500 0.6875
vt 0.1250 0.5000
vt 0.1875 0.5000
vt 0.1875 0.6875
vt 0.1250 0.6875
vt 0.0000 0.7500
vt 0.0000 0.8750
vt 0.3750 0.0000
vt 0.4375 0.0000
vt 0.4375 0.1875
vt 0.3750 0.1875
vt 0.1250 0.6875
vt 0.1250 0.5000
vn 0.0000 0.0000 1.0000
vn 0.0000 -1.0000 -0.0000
vn 0.0000 1.0000 0.0000
vn 0.9962 0.0000 0.0872
vn -1.0000 0.0000 0.0000
vn -0.0872 0.0000 -0.9962
vn 0.0000 0.0000 -1.0000
vn -0.9962 0.0000 -0.0872
vn 0.5736 0.0000 -0.8192
vn 1.0000 0.0000 0.0000
vn 0.9962 0.0000 -0.0872
vn -0.7660 0.0000 0.6428
vn 0.0872 0.0000 -0.9962
vn -0.5736 0.0000 0.8192
vn -0.9962 0.0000 0.0872
vn 0.6428 0.0000 0.7660
vn 0.7660 0.0000 -0.6428
vn 0.0872 0.0000 0.9962
vn -0.6428 0.0000 -0.7660
vn -0.8192 0.0000 -0.5736
vn -0.0872 0.0000 0.9962
vn 0.8192 0.0000 0.5736
usemtl m_0
s 1
f 7/1/1 1/2/1 3/3/1 5/4/1
f 16/5/2 10/6/2 9/7/2 15/8/2
f 32/9/2 26/10/2 25/11/2 31/12/2
f 47/13/3 41/14/3 43/15/3 45/16/3
f 24/17/2 18/18/2 17/19/2 23/20/2
f 50/21/4 52/22/4 51/23/4 49/24/4
f 12/25/3 14/26/3 13/27/3 11/28/3
f 22/29/5 24/17/5 23/20/5 21/30/5
f 62/31/2 60/32/2 58/33/2 64/34/2
f 44/35/6 46/36/6 45/37/6 43/38/6
f 15/8/1 9/39/1 11/40/1 13/27/1
f 14/26/5 16/5/5 15/8/5 13/27/5
f 6/41/7 4/42/7 2/43/7 8/44/7
f 54/45/8 56/46/8 55/47/8 53/48/8
f 55/49/3 49/24/3 51/23/3 53/50/3
f 68/51/9 70/52/9 69/53/9 67/54/9
f 18/18/10 20/55/10 19/56/10 17/19/10
f 30/57/7 28/58/7 26/59/7 32/60/7
f 42/61/11 44/62/11 43/63/11 41/64/11
f 10/6/10 12/65/10 11/66/10 9/7/10
f 36/67/3 38/68/3 37/69/3 35/70/3
f 4/71/3 6/72/3 5/4/3 3/3/3
f 20/73/3 22/29/3 21/30/3 19/74/3
f 8/75/2 2/76/2 1/77/2 7/78/2
f 14/79/7 12/80/7 10/81/7 16/82/7
f 2/83/10 4/84/10 3/85/10 1/86/10
f 30/87/5 32/9/5 31/12/5 29/88/5
f 62/89/12 64/90/12 63/91/12 61/92/12
f 38/93/7 36/94/7 34/95/7 40/96/7
f 22/97/7 20/98/7 18/99/7 24/100/7
f 52/101/13 54/102/13 53/50/13 51/103/13
f 46/104/2 44/105/2 42/106/2 48/107/2
f 71/108/3 65/109/3 67/110/3 69/53/3
f 54/45/2 52/22/2 50/21/2 56/46/2
f 31/111/1 25/112/1 27/113/1 29/114/1
f 72/115/14 66/116/14 65/117/14 71/118/14
f 23/20/1 17/119/1 19/120/1 21/30/1
f 46/121/15 48/122/15 47/123/15 45/124/15
f 34/125/10 36/67/10 35/70/10 33/126/10
f 64/127/16 58/128/16 57/129/16 63/130/16
f 58/131/17 60/132/17 59/133/17 57/134/17
f 39/135/1 33/136/1 35/137/1 37/138/1
f 48/139/18 42/140/18 41/141/18 47/142/18
f 60/143/19 62/144/19 61/145/19 59/146/19
f 40/147/2 34/148/2 33/149/2 39/150/2
f 28/151/3 30/87/3 29/88/3 27/152/3
f 6/153/5 8/154/5 7/155/5 5/156/5
f 70/157/20 72/158/20 71/159/20 69/160/20
f 56/161/21 50/162/21 49/163/21 55/164/21
f 26/165/10 28/151/10 27/152/10 25/166/10
f 63/167/3 57/168/3 59/169/3 61/170/3
f 70/157/2 68/171/2 66/172/2 72/158/2
f 38/68/5 40/147/5 39/150/5 37/69/5
f 66/172/22 68/171/22 67/110/22 65/109/22
