# Blender v2.78 (sub 0) OBJ File: ''
# www.blender.org
mtllib 8ball.mtl
o cube
v 0.132583 0.000000 -0.000000
v 0.000000 0.000000 -0.132583
v 0.000000 0.062500 -0.132583
v 0.132583 0.062500 -0.000000
v -0.000000 0.000000 0.132583
v -0.000000 0.062500 0.132583
v -0.132583 0.000000 -0.000000
v -0.132583 0.062500 -0.000000
v 0.132583 0.062500 -0.000000
v 0.088388 0.062500 -0.044194
v 0.088388 0.187500 -0.044194
v 0.132583 0.187500 -0.000000
v 0.044194 0.062500 0.088388
v 0.044194 0.187500 0.088388
v -0.000000 0.062500 0.044194
v -0.000000 0.187500 0.044194
v 0.088388 0.062500 -0.044194
v 0.000000 0.062500 -0.132583
v 0.000000 0.187500 -0.132583
v 0.088388 0.187500 -0.044194
v 0.044194 0.062500 -0.000000
v 0.044194 0.187500 -0.000000
v -0.044194 0.062500 -0.088388
v -0.044194 0.187500 -0.088388
v 0.044194 0.062500 0.088388
v -0.044194 0.062500 -0.000000
v -0.044194 0.187500 -0.000000
v 0.044194 0.187500 0.088388
v -0.000000 0.062500 0.132583
v -0.000000 0.187500 0.132583
v -0.088388 0.062500 0.044194
v -0.088388 0.187500 0.044194
v 0.000000 0.062500 -0.044194
v -0.044194 0.062500 -0.088388
v -0.044194 0.187500 -0.088388
v 0.000000 0.187500 -0.044194
v -0.088388 0.062500 0.044194
v -0.088388 0.187500 0.044194
v -0.132583 0.062500 -0.000000
v -0.132583 0.187500 -0.000000
v 0.044194 0.109375 -0.000000
v 0.000000 0.109375 -0.044194
v 0.000000 0.171875 -0.044194
v 0.044194 0.171875 -0.000000
v -0.000000 0.109375 0.044194
v -0.000000 0.171875 0.044194
v -0.044194 0.109375 -0.000000
v -0.044194 0.171875 -0.000000
vt 0.3750 0.0000
vt 0.5625 0.0000
vt 0.5625 0.0625
vt 0.3750 0.0625
vt 0.1875 0.0000
vt 0.1875 0.0625
vt 0.7500 0.0000
vt 0.9375 0.0000
vt 0.9375 0.0625
vt 0.7500 0.0625
vt 0.0000 0.1875
vt 0.0000 0.0000
vt 0.1875 0.0000
vt 0.1875 0.1875
vt 0.1875 0.0000
vt 0.1875 0.1875
vt 0.0000 0.1875
vt 0.0000 0.0000
vt 0.3750 0.0625
vt 0.4375 0.0625
vt 0.4375 0.1875
vt 0.3750 0.1875
vt 0.2500 0.0625
vt 0.2500 0.1875
vt 0.3750 0.0625
vt 0.4375 0.0625
vt 0.4375 0.1875
vt 0.3750 0.1875
vt 0.2500 0.0625
vt 0.2500 0.1875
vt 0.0625 0.2500
vt 0.0625 0.1875
vt 0.1875 0.1875
vt 0.1875 0.2500
vt 0.1875 0.1875
vt 0.1875 0.2500
vt 0.0625 0.2500
vt 0.0625 0.1875
vt 0.4375 0.0625
vt 0.5625 0.0625
vt 0.5625 0.1875
vt 0.4375 0.1875
vt 0.5625 0.0625
vt 0.6250 0.0625
vt 0.6250 0.1875
vt 0.5625 0.1875
vt 0.4375 0.0625
vt 0.4375 0.1875
vt 0.6250 0.0625
vt 0.6250 0.1875
vt 0.1250 0.3750
vt 0.1250 0.2500
vt 0.1875 0.2500
vt 0.1875 0.3750
vt 0.1875 0.2500
vt 0.1875 0.3750
vt 0.1250 0.3750
vt 0.1250 0.2500
vt 0.8125 0.0625
vt 0.9375 0.0625
vt 0.9375 0.1875
vt 0.8125 0.1875
vt 0.1875 0.0625
vt 0.2500 0.0625
vt 0.2500 0.1875
vt 0.1875 0.1875
vt 0.8125 0.0625
vt 0.9375 0.0625
vt 0.9375 0.1875
vt 0.8125 0.1875
vt 0.1875 0.0625
vt 0.2500 0.0625
vt 0.2500 0.1875
vt 0.1875 0.1875
vt 0.0000 0.3125
vt 0.0000 0.1875
vt 0.0625 0.1875
vt 0.0625 0.3125
vt 0.0625 0.1875
vt 0.0625 0.3125
vt 0.0000 0.3125
vt 0.0000 0.1875
vt 0.7500 0.0625
vt 0.8125 0.0625
vt 0.8125 0.1875
vt 0.7500 0.1875
vt 0.6250 0.0625
vt 0.6250 0.1875
vt 0.7500 0.0625
vt 0.8125 0.0625
vt 0.8125 0.1875
vt 0.7500 0.1875
vt 0.6250 0.0625
vt 0.6250 0.1875
vt 0.0000 0.3750
vt 0.0000 0.3125
vt 0.1250 0.3125
vt 0.1250 0.3750
vt 0.1250 0.3125
vt 0.1250 0.3750
vt 0.0000 0.3750
vt 0.0000 0.3125
vt 0.2500 0.2500
vt 1.0000 0.2500
vt 1.0000 1.0000
vt 0.2500 1.0000
vt 0.2500 0.2500
vt 1.0000 0.2500
vt 1.0000 1.0000
vt 0.2500 1.0000
vt 0.2500 0.2500
vt 1.0000 0.2500
vt 1.0000 1.0000
vt 0.2500 1.0000
vt 0.2500 0.2500
vt 1.0000 0.2500
vt 1.0000 1.0000
vt 0.2500 1.0000
vt 0.2500 0.2500
vt 1.0000 0.2500
vt 1.0000 1.0000
vt 0.2500 1.0000
vn 0.7071 0.0000 -0.7071
vn 0.7071 0.0000 0.7071
vn -0.7071 0.0000 0.7071
vn -0.7071 0.0000 -0.7071
vn 0.0000 1.0000 0.0000
vn 0.0000 -1.0000 0.0000
usemtl m_0
s 1
f 1/1/1 2/2/1 3/3/1 4/4/1
f 5/5/2 1/1/2 4/4/2 6/6/2
f 7/7/3 5/8/3 6/9/3 8/10/3
f 2/2/4 7/7/4 8/10/4 3/3/4
f 8/11/5 6/12/5 4/13/5 3/14/5
f 2/15/6 1/16/6 5/17/6 7/18/6
f 9/19/1 10/20/1 11/21/1 12/22/1
f 13/23/2 9/19/2 12/22/2 14/24/2
f 15/25/3 13/26/3 14/27/3 16/28/3
f 10/29/4 15/25/4 16/28/4 11/30/4
f 16/31/5 14/32/5 12/33/5 11/34/5
f 10/35/6 9/36/6 13/37/6 15/38/6
f 17/39/1 18/40/1 19/41/1 20/42/1
f 21/43/2 17/44/2 20/45/2 22/46/2
f 23/47/3 21/43/3 22/46/3 24/48/3
f 18/40/4 23/49/4 24/50/4 19/41/4
f 24/51/5 22/52/5 20/53/5 19/54/5
f 18/55/6 17/56/6 21/57/6 23/58/6
f 25/59/1 26/60/1 27/61/1 28/62/1
f 29/63/2 25/64/2 28/65/2 30/66/2
f 31/67/3 29/68/3 30/69/3 32/70/3
f 26/71/4 31/72/4 32/73/4 27/74/4
f 32/75/5 30/76/5 28/77/5 27/78/5
f 26/79/6 25/80/6 29/81/6 31/82/6
f 33/83/1 34/84/1 35/85/1 36/86/1
f 37/87/2 33/83/2 36/86/2 38/88/2
f 39/89/3 37/90/3 38/91/3 40/92/3
f 34/93/4 39/89/4 40/92/4 35/94/4
f 40/95/5 38/96/5 36/97/5 35/98/5
f 34/99/6 33/100/6 37/101/6 39/102/6
f 41/103/1 42/104/1 43/105/1 44/106/1
f 45/107/2 41/108/2 44/109/2 46/110/2
f 47/111/3 45/112/3 46/113/3 48/114/3
f 42/115/4 47/116/4 48/117/4 43/118/4
f 48/114/5 46/119/5 44/120/5 43/105/5
f 42/104/6 41/121/6 45/122/6 47/111/6
