# Blender v2.78 (sub 0) OBJ File: ''
# www.blender.org
mtllib babycm.mtl
o cube.001
v -0.176650 0.488791 -0.063652
v -0.176650 -0.000000 -0.063652
v -0.097148 0.488791 0.145796
v -0.097148 0.000000 0.145796
v 0.169422 0.488791 0.044612
v 0.169422 0.000000 0.044612
v 0.089921 0.488791 -0.164837
v 0.089921 -0.000000 -0.164837
v 0.019555 0.519967 -0.138127
v -0.002305 0.463519 -0.129830
v 0.099057 0.519967 0.071321
v 0.077197 0.463519 0.079618
v 0.169422 0.488791 0.044612
v 0.147563 0.432343 0.052909
v 0.089921 0.488791 -0.164837
v 0.068061 0.432343 -0.156539
v -0.056608 0.519967 -0.109218
v -0.056608 0.458868 -0.109218
v 0.022894 0.519967 0.100231
v 0.022894 0.458868 0.100231
v 0.099057 0.519967 0.071321
v 0.099057 0.458868 0.071321
v 0.019555 0.519967 -0.138127
v 0.019555 0.458868 -0.138127
v -0.106284 0.519967 -0.090362
v -0.106284 0.458868 -0.090362
v -0.026783 0.519967 0.119087
v -0.026783 0.458868 0.119087
v 0.049380 0.519967 0.090177
v 0.049380 0.458868 0.090177
v -0.030121 0.519967 -0.119271
v -0.030121 0.458868 -0.119271
v -0.176650 0.488791 -0.063652
v -0.154790 0.432343 -0.071950
v -0.097148 0.488791 0.145796
v -0.075288 0.432343 0.137498
v -0.026783 0.519967 0.119087
v -0.004923 0.463519 0.110789
v -0.106284 0.519967 -0.090362
v -0.084425 0.463519 -0.098659
v -0.172064 0.397143 -0.108961
v -0.172064 0.173114 -0.108961
v -0.157609 0.397143 -0.070880
v -0.157609 0.173114 -0.070880
v 0.070880 0.397143 -0.157609
v 0.070880 0.173114 -0.157609
v 0.056425 0.397143 -0.195691
v 0.056425 0.173114 -0.195691
v -0.059067 0.448059 0.131341
v -0.059067 0.285128 0.131341
v -0.055453 0.448059 0.140861
v -0.055453 0.285128 0.140861
v 0.134955 0.448059 0.068587
v 0.134955 0.285128 0.068587
v 0.131341 0.448059 0.059067
v 0.131341 0.285128 0.059067
v -0.097148 0.101832 0.145796
v -0.097148 0.000000 0.145796
v -0.050170 0.101832 0.269561
v -0.050170 0.000000 0.269561
v 0.045034 0.101832 0.233424
v 0.045034 0.000000 0.233424
v -0.001944 0.101832 0.109659
v -0.001944 0.000000 0.109659
v 0.074219 0.101832 0.080749
v 0.074219 0.000000 0.080749
v 0.121197 0.101832 0.204514
v 0.121197 0.000000 0.204514
v 0.216401 0.101832 0.168377
v 0.216401 0.000000 0.168377
v 0.169422 0.101832 0.044612
v 0.169422 0.000000 0.044612
vt 0.5000 0.9375
vt 1.0000 0.9375
vt 1.0000 1.0000
vt 0.5000 1.0000
vt 0.0000 0.5000
vt 0.5000 0.5000
vt 0.5000 1.0000
vt 0.0000 1.0000
vt 0.0000 0.5000
vt 0.5000 0.5000
vt 0.5000 1.0000
vt 0.0000 1.0000
vt 0.5000 0.5000
vt 1.0000 0.5000
vt 1.0000 1.0000
vt 0.5000 1.0000
vt 0.0000 0.5000
vt 0.5000 0.5000
vt 0.5000 1.0000
vt 0.0000 1.0000
vt 0.0000 0.5000
vt 0.5000 0.5000
vt 0.5000 1.0000
vt 0.0000 1.0000
vt 0.0000 0.5000
vt 0.5000 0.5000
vt 0.5000 1.0000
vt 0.0000 1.0000
vt 0.5000 0.5000
vt 0.5000 1.0000
vt 0.0000 1.0000
vt 0.5000 0.5000
vt 0.5625 0.5000
vt 0.5625 1.0000
vt 0.5000 1.0000
vt 0.0000 0.5000
vt 0.5000 0.5000
vt 0.5000 1.0000
vt 0.0000 1.0000
vt 0.9375 0.5000
vt 1.0000 0.5000
vt 1.0000 1.0000
vt 0.9375 1.0000
vt 0.0000 0.5000
vt 0.5000 0.5000
vt 0.5000 1.0000
vt 0.0000 1.0000
vt 0.0000 0.5000
vt 0.5000 0.5000
vt 0.5000 1.0000
vt 0.0000 1.0000
vt 0.0000 0.5000
vt 0.5000 0.5000
vt 0.5000 1.0000
vt 0.0000 1.0000
vt 0.0000 0.5000
vt 0.5000 0.5000
vt 0.5000 1.0000
vt 0.0000 1.0000
vt 0.0000 0.5000
vt 0.5000 0.5000
vt 0.5000 1.0000
vt 0.0000 1.0000
vt 0.0000 0.5000
vt 0.5000 0.5000
vt 0.0000 1.0000
vt 0.0000 0.5000
vt 0.5000 0.5000
vt 0.5000 1.0000
vt 0.0000 1.0000
vt 0.0000 0.5000
vt 0.5000 0.5000
vt 0.5000 1.0000
vt 0.0000 0.5000
vt 0.5000 0.5000
vt 0.5000 1.0000
vt 0.0000 1.0000
vt 0.0000 0.5000
vt 0.5000 0.5000
vt 0.5000 1.0000
vt 0.0000 1.0000
vt 0.0000 0.5000
vt 0.5000 0.5000
vt 0.5000 1.0000
vt 0.0000 1.0000
vt 0.0000 0.5000
vt 0.5000 0.5000
vt 0.0000 1.0000
vt 0.0000 0.5000
vt 0.5000 1.0000
vt 0.0000 1.0000
vt 0.0000 0.5000
vt 0.5000 0.5000
vt 0.5000 1.0000
vt 0.0000 1.0000
vt 0.0000 0.5000
vt 0.5000 0.5000
vt 0.5000 1.0000
vt 0.0000 1.0000
vt 0.0000 0.5000
vt 0.5000 0.5000
vt 0.0000 1.0000
vt 0.0000 0.5000
vt 0.5000 0.5000
vt 0.0000 0.5000
vt 0.5000 0.5000
vt 0.5000 1.0000
vt 0.0000 1.0000
vt 0.0000 0.0000
vt 0.5000 0.0000
vt 0.5000 0.5000
vt 0.0000 0.5000
vt 0.0000 0.0000
vt 0.5000 0.0000
vt 0.5000 0.5000
vt 0.0000 0.5000
vt 0.0000 0.5000
vt 0.5000 1.0000
vt 0.0000 1.0000
vt 0.0000 0.5000
vt 0.5000 0.5000
vt 0.5000 1.0000
vt 0.0000 0.5000
vt 0.5000 0.5000
vt 0.5000 1.0000
vt 0.0000 1.0000
vt 0.5000 0.5000
vt 0.5000 1.0000
vt 0.0000 1.0000
vt 0.5000 0.5000
vt 0.5000 1.0000
vt 0.0000 1.0000
vt 0.0000 0.5000
vt 0.5000 0.5000
vt 0.0000 0.5000
vt 0.5000 1.0000
vt 0.0000 1.0000
vt 0.0000 0.5000
vt 0.0000 1.0000
vt 0.5000 0.5000
vt 1.0000 0.5000
vt 1.0000 1.0000
vt 0.5000 1.0000
vt 0.0000 0.5000
vt 0.5000 0.5000
vt 0.5000 1.0000
vt 0.0000 1.0000
vt 0.0000 0.5000
vt 0.5000 0.5000
vt 0.5000 1.0000
vt 0.0000 0.5000
vt 0.5000 0.5000
vt 0.0000 1.0000
vt 0.5000 1.0000
vt 0.0000 1.0000
vt 0.5000 1.0000
vt 0.0000 1.0000
vt 0.0000 0.5000
vt 0.5000 0.5000
vt 0.5000 1.0000
vt 0.0000 1.0000
vt 0.5000 0.5000
vt 0.5000 1.0000
vt 0.5000 1.0000
vt 0.0000 1.0000
vt 0.5000 0.5000
vt 0.5000 1.0000
vt 0.0000 0.5000
vt 0.5000 0.5000
vt 0.5000 1.0000
vt 0.0000 1.0000
vt 0.5000 0.5000
vt 1.0000 0.5000
vt 1.0000 0.5625
vt 0.5000 0.5625
vt 0.0000 0.5000
vt 0.5000 0.5000
vt 0.5000 1.0000
vt 0.0000 0.5000
vt 0.5000 0.5000
vt 0.5000 1.0000
vt 0.0000 1.0000
vt 0.0000 0.5000
vt 0.0000 1.0000
vn 0.0000 1.0000 -0.0000
vn -0.3549 0.0000 -0.9349
vn -0.9349 0.0000 0.3549
vn 0.3549 0.0000 0.9349
vn -0.3578 0.9239 0.1358
vn 0.8637 -0.3827 -0.3279
vn -0.3578 -0.9239 0.1358
vn 0.9349 -0.0000 -0.3549
vn -0.8637 -0.3827 0.3279
vn -0.8637 0.3827 0.3279
vn 0.3578 0.9239 -0.1358
vn 0.3578 -0.9239 -0.1358
vn 0.0000 -1.0000 0.0000
vn 0.8637 0.3827 -0.3279
usemtl m_0.002
s 1
f 55/1/1 49/2/1 51/3/1 53/4/1
f 16/5/2 10/6/2 9/7/2 15/8/2
f 58/9/3 60/10/3 59/11/3 57/12/3
f 52/13/4 54/14/4 53/15/4 51/16/4
f 39/17/5 33/18/5 35/19/5 37/20/5
f 64/21/2 58/22/2 57/23/2 63/24/2
f 14/25/6 16/26/6 15/27/6 13/28/6
f 14/25/7 12/29/7 10/30/7 16/31/7
f 50/32/3 52/33/3 51/34/3 49/35/3
f 40/36/2 34/37/2 33/38/2 39/39/2
f 54/40/8 56/41/8 55/42/8 53/43/8
f 47/44/1 41/45/1 43/46/1 45/47/1
f 44/48/4 46/49/4 45/50/4 43/51/4
f 30/52/8 32/53/8 31/54/8 29/55/8
f 22/56/8 24/57/8 23/58/8 21/59/8
f 32/60/2 26/61/2 25/62/2 31/63/2
f 63/64/1 57/65/1 59/11/1 61/66/1
f 6/67/8 8/68/8 7/69/8 5/70/8
f 31/71/1 25/72/1 27/73/1 29/55/1
f 18/74/3 20/75/3 19/76/3 17/77/3
f 70/78/8 72/79/8 71/80/8 69/81/8
f 28/82/4 30/83/4 29/84/4 27/85/4
f 34/86/9 36/87/9 35/19/9 33/88/9
f 10/89/10 12/29/10 11/90/10 9/91/10
f 72/92/2 66/93/2 65/94/2 71/95/2
f 12/96/4 14/97/4 13/98/4 11/99/4
f 42/100/3 44/101/3 43/46/3 41/102/3
f 15/103/11 9/104/11 11/90/11 13/28/11
f 4/105/4 6/106/4 5/107/4 3/108/4
f 68/109/4 70/110/4 69/111/4 67/112/4
f 60/113/4 62/114/4 61/115/4 59/116/4
f 38/117/12 36/87/12 34/118/12 40/119/12
f 46/120/8 48/121/8 47/122/8 45/47/8
f 20/123/4 22/124/4 21/125/4 19/126/4
f 30/52/13 28/127/13 26/128/13 32/129/13
f 6/67/13 4/130/13 2/131/13 8/132/13
f 23/133/1 17/134/1 19/76/1 21/59/1
f 62/135/13 60/10/13 58/136/13 64/137/13
f 26/138/3 28/127/3 27/73/3 25/139/3
f 56/140/2 50/141/2 49/142/2 55/143/2
f 8/144/2 2/145/2 1/146/2 7/147/2
f 71/148/1 65/149/1 67/150/1 69/81/1
f 66/151/3 68/152/3 67/150/3 65/153/3
f 70/78/13 68/152/13 66/154/13 72/155/13
f 46/120/13 44/101/13 42/156/13 48/157/13
f 48/158/2 42/159/2 41/160/2 47/161/2
f 62/135/8 64/162/8 63/163/8 61/66/8
f 22/56/13 20/75/13 18/164/13 24/165/13
f 38/117/14 40/166/14 39/167/14 37/20/14
f 24/168/2 18/169/2 17/170/2 23/171/2
f 54/172/13 52/173/13 50/174/13 56/175/13
f 7/176/1 1/177/1 3/178/1 5/70/1
f 36/179/4 38/180/4 37/181/4 35/182/4
f 2/183/3 4/130/3 3/178/3 1/184/3
