# Blender v2.79 (sub 0) OBJ File: ''
# www.blender.org
mtllib button.mtl
o cube
v 0.187500 0.062500 -0.187500
v 0.187500 0.062500 0.187500
v 0.250000 -0.000000 0.250000
v 0.250000 0.000000 -0.250000
v -0.250000 -0.000000 0.250000
v -0.187500 0.062500 0.187500
v -0.187500 0.062500 -0.187500
v -0.250000 0.000000 -0.250000
v -0.031250 1.125000 0.031250
v -0.046875 1.125000 0.000000
v -0.046875 0.062500 0.000000
v -0.031250 0.062500 0.031250
v 0.031250 1.125000 0.031250
v 0.000000 1.125000 0.046875
v 0.000000 0.062500 0.046875
v 0.031250 0.062500 0.031250
v 0.031250 0.062500 -0.031250
v 0.000000 0.062500 -0.046875
v 0.000000 1.125000 -0.046875
v 0.031250 1.125000 -0.031250
v -0.031250 1.125000 -0.031250
v -0.031250 0.062500 -0.031250
v 0.046875 0.062500 0.000000
v 0.046875 1.125000 0.000000
v 0.171875 1.562500 -0.062500
v 0.171875 1.562500 0.062500
v 0.171875 1.125000 0.062500
v 0.171875 1.125000 -0.062500
v -0.171875 1.125000 0.062500
v -0.171875 1.562500 0.062500
v -0.171875 1.562500 -0.062500
v -0.171875 1.125000 -0.062500
vt 0.375000 0.375000
vt 0.375000 0.125000
vt 0.437500 0.062500
vt 0.437500 0.437500
vt 0.062500 0.437500
vt 0.125000 0.375000
vt 0.125000 0.125000
vt 0.062500 0.062500
vt 0.125000 0.125000
vt 0.125000 0.375000
vt 0.437500 0.062500
vt 0.437500 0.437500
vt 0.062500 0.062500
vt 0.375000 0.375000
vt 0.125000 0.375000
vt 0.062500 0.437500
vt 0.437500 0.437500
vt 0.531250 1.000000
vt 0.500000 1.000000
vt 0.500000 0.500000
vt 0.531250 0.500000
vt 0.531250 1.000000
vt 0.500000 1.000000
vt 0.500000 0.500000
vt 0.531250 0.500000
vt 0.531250 1.000000
vt 0.500000 1.000000
vt 0.500000 0.500000
vt 0.531250 0.500000
vt 0.531250 1.000000
vt 0.500000 1.000000
vt 0.500000 0.500000
vt 0.531250 0.500000
vt 0.531250 1.000000
vt 0.500000 1.000000
vt 0.500000 0.500000
vt 0.531250 0.500000
vt 0.531250 1.000000
vt 0.500000 1.000000
vt 0.500000 0.500000
vt 0.531250 0.500000
vt 0.531250 1.000000
vt 0.500000 1.000000
vt 0.500000 0.500000
vt 0.531250 0.500000
vt 0.531250 1.000000
vt 0.500000 1.000000
vt 0.500000 0.500000
vt 0.531250 0.500000
vt 0.062500 0.750000
vt 0.000000 0.750000
vt 0.000000 0.500000
vt 0.062500 0.500000
vt 0.125000 0.500000
vt 0.125000 0.750000
vt 0.062500 0.750000
vt 0.062500 0.500000
vt 0.000000 0.750000
vt 0.187500 0.750000
vt 0.187500 0.812500
vt 0.000000 0.812500
vt 0.187500 0.812500
vt 0.187500 0.875000
vt 0.000000 0.875000
vt 0.000000 0.812500
vt 0.312500 0.500000
vt 0.312500 0.750000
vt 0.500000 0.750000
vt 0.312500 0.750000
vt 0.312500 0.500000
vt 0.500000 0.500000
vn 0.7071 0.7071 0.0000
vn -0.7071 0.7071 0.0000
vn 0.0000 1.0000 0.0000
vn 0.0000 -1.0000 -0.0000
vn 0.0000 0.7071 0.7071
vn 0.0000 0.7071 -0.7071
vn -0.8944 -0.0000 0.4472
vn 0.4472 -0.0000 0.8944
vn 0.4472 0.0000 -0.8944
vn -0.4472 0.0000 -0.8944
vn -0.4472 -0.0000 0.8944
vn 0.8944 -0.0000 0.4472
vn 0.8944 0.0000 -0.4472
vn -0.8944 0.0000 -0.4472
vn 1.0000 -0.0000 0.0000
vn -1.0000 -0.0000 0.0000
vn 0.0000 -0.0000 1.0000
vn 0.0000 0.0000 -1.0000
usemtl m_0
s 1
f 1/1/1 2/2/1 3/3/1 4/4/1
f 5/5/2 6/6/2 7/7/2 8/8/2
f 6/9/3 2/2/3 1/1/3 7/10/3
f 4/11/4 3/12/4 5/5/4 8/8/4
f 3/3/5 2/2/5 6/9/5 5/13/5
f 7/14/6 1/15/6 4/16/6 8/17/6
f 9/18/7 10/19/7 11/20/7 12/21/7
f 13/22/8 14/23/8 15/24/8 16/25/8
f 17/26/9 18/27/9 19/28/9 20/29/9
f 21/30/10 19/31/10 18/32/10 22/33/10
f 12/34/11 15/35/11 14/36/11 9/37/11
f 16/38/12 23/39/12 24/40/12 13/41/12
f 20/42/13 24/43/13 23/44/13 17/45/13
f 22/46/14 11/47/14 10/48/14 21/49/14
f 25/50/15 26/51/15 27/52/15 28/53/15
f 29/54/16 30/55/16 31/56/16 32/57/16
f 30/58/3 26/59/3 25/60/3 31/61/3
f 28/62/4 27/63/4 29/64/4 32/65/4
f 27/66/17 26/67/17 30/55/17 29/54/17
f 31/68/18 25/69/18 28/70/18 32/71/18
o button
v 0.041667 1.337794 0.109375
v -0.000000 1.348958 0.109375
v -0.000000 1.265625 0.125000
v 0.062500 1.373878 0.078125
v -0.000000 1.390625 0.078125
v -0.000000 1.390625 0.046875
v 0.062500 1.373878 0.046875
v -0.000000 1.265625 0.046875
v 0.072169 1.307292 0.109375
v 0.108253 1.328125 0.078125
v 0.108253 1.328125 0.046875
v 0.083333 1.265625 0.109375
v 0.125000 1.265625 0.078125
v 0.125000 1.265625 0.046875
v 0.072169 1.223958 0.109375
v 0.108253 1.203125 0.078125
v 0.108253 1.203125 0.046875
v 0.041667 1.193456 0.109375
v 0.062500 1.157372 0.078125
v 0.062500 1.157372 0.046875
v 0.000000 1.182292 0.109375
v 0.000000 1.140625 0.078125
v 0.000000 1.140625 0.046875
v -0.041667 1.193456 0.109375
v -0.062500 1.157372 0.078125
v -0.062500 1.157372 0.046875
v -0.072169 1.223958 0.109375
v -0.108253 1.203125 0.078125
v -0.108253 1.203125 0.046875
v -0.083333 1.265625 0.109375
v -0.125000 1.265625 0.078125
v -0.125000 1.265625 0.046875
v -0.072169 1.307292 0.109375
v -0.108253 1.328125 0.078125
v -0.108253 1.328125 0.046875
v -0.041667 1.337794 0.109375
v -0.062500 1.373878 0.078125
v -0.062500 1.373878 0.046875
vt 0.812500 0.389506
vt 0.718750 0.406250
vt 0.718750 0.281250
vt 0.718750 0.281250
vt 0.813600 0.281250
vt 0.813600 0.406250
vt 0.718750 0.406250
vt 0.718750 0.281250
vt 0.812500 0.297994
vt 0.718750 0.406250
vt 0.843751 0.312498
vt 0.827003 0.406250
vt 0.718750 0.312498
vt 0.718750 0.281250
vt 0.813600 0.281250
vt 0.813600 0.406250
vt 0.718750 0.406250
vt 0.718750 0.281249
vt 0.812502 0.297997
vt 0.843750 0.312500
vt 0.827006 0.406250
vt 0.718750 0.281250
vt 0.813600 0.281250
vt 0.813600 0.406250
vt 0.718750 0.406250
vt 0.827006 0.312500
vt 0.843750 0.406250
vt 0.827006 0.312500
vt 0.843750 0.406250
vt 0.718750 0.406250
vt 0.718750 0.281250
vt 0.813600 0.281250
vt 0.813600 0.406250
vt 0.718750 0.406250
vt 0.843750 0.312500
vt 0.827006 0.406250
vt 0.718750 0.312500
vt 0.718750 0.281249
vt 0.812502 0.297997
vt 0.718750 0.281250
vt 0.813600 0.281250
vt 0.813600 0.406250
vt 0.718750 0.406250
vt 0.843751 0.312498
vt 0.827003 0.406250
vt 0.718750 0.281250
vt 0.812500 0.297994
vt 0.813600 0.281250
vt 0.813600 0.406250
vt 0.718750 0.406250
vt 0.812500 0.389506
vt 0.718750 0.406250
vt 0.718750 0.281250
vt 0.718750 0.297994
vt 0.812500 0.281250
vt 0.812500 0.406250
vt 0.813600 0.281250
vt 0.813600 0.406250
vt 0.718750 0.406250
vt 0.812500 0.406250
vt 0.718750 0.389506
vt 0.812500 0.281250
vt 0.718750 0.406250
vt 0.735499 0.312498
vt 0.843751 0.406250
vt 0.718750 0.281250
vt 0.813600 0.281250
vt 0.813600 0.406250
vt 0.718750 0.406250
vt 0.812502 0.406250
vt 0.718750 0.389501
vt 0.718750 0.406250
vt 0.735494 0.312500
vt 0.718750 0.281250
vt 0.813600 0.281250
vt 0.813600 0.406250
vt 0.718750 0.406250
vt 0.735494 0.406250
vt 0.718750 0.312500
vt 0.843750 0.312500
vt 0.735494 0.406250
vt 0.718750 0.312500
vt 0.843750 0.312500
vt 0.718750 0.281250
vt 0.813600 0.281250
vt 0.813600 0.406250
vt 0.718750 0.406250
vt 0.718750 0.406250
vt 0.735494 0.312500
vt 0.843750 0.406250
vt 0.812502 0.406250
vt 0.718750 0.389501
vt 0.812502 0.281249
vt 0.718750 0.281250
vt 0.813600 0.281250
vt 0.813600 0.406250
vt 0.718750 0.406250
vt 0.718750 0.406250
vt 0.735499 0.312498
vt 0.812500 0.406250
vt 0.718750 0.389506
vt 0.718750 0.281250
vt 0.813600 0.281250
vt 0.813600 0.406250
vt 0.718750 0.406250
vt 0.718750 0.297994
vt 0.812500 0.281250
vt 0.812500 0.406250
vt 0.805512 0.375000
vt 0.718750 0.375000
vt 0.718750 0.281250
vt 0.805512 0.281250
vt 0.805516 0.375000
vt 0.718750 0.375000
vt 0.718750 0.281250
vt 0.805516 0.281250
vt 0.836762 0.406250
vt 0.750000 0.406250
vt 0.750000 0.312500
vt 0.836762 0.312500
vt 0.836762 0.406250
vt 0.750000 0.406250
vt 0.750000 0.312500
vt 0.836762 0.312500
vt 0.836766 0.406250
vt 0.750000 0.406250
vt 0.750000 0.312500
vt 0.836766 0.312500
vt 0.805512 0.406250
vt 0.718750 0.406250
vt 0.718750 0.312500
vt 0.805512 0.312500
vt 0.805512 0.406250
vt 0.718750 0.312500
vt 0.805512 0.312500
vt 0.805516 0.406250
vt 0.718750 0.406250
vt 0.718750 0.312500
vt 0.805516 0.312500
vt 0.805512 0.406250
vt 0.718750 0.406250
vt 0.718750 0.312500
vt 0.805512 0.312500
vt 0.805512 0.406250
vt 0.718750 0.312500
vt 0.805512 0.312500
vt 0.805516 0.406250
vt 0.718750 0.312500
vt 0.805516 0.312500
vt 0.805512 0.375000
vt 0.718750 0.375000
vt 0.718750 0.281250
vt 0.805512 0.281250
vn 0.0493 0.1841 0.9817
vn 0.1587 0.5924 0.7899
vn 0.0000 0.0000 -1.0000
vn 0.1347 0.1347 0.9817
vn 0.4337 0.4337 0.7899
vn 0.1841 0.0493 0.9817
vn 0.5924 0.1587 0.7899
vn 0.1841 -0.0493 0.9817
vn 0.5924 -0.1587 0.7899
vn 0.1347 -0.1347 0.9817
vn 0.4337 -0.4337 0.7899
vn 0.0493 -0.1841 0.9817
vn 0.1587 -0.5924 0.7899
vn -0.0493 -0.1841 0.9817
vn -0.1587 -0.5924 0.7899
vn -0.1347 -0.1347 0.9817
vn -0.4337 -0.4337 0.7899
vn -0.1841 -0.0493 0.9817
vn -0.5924 -0.1587 0.7899
vn -0.1841 0.0493 0.9817
vn -0.5924 0.1587 0.7899
vn -0.1347 0.1347 0.9817
vn -0.4337 0.4337 0.7899
vn -0.0493 0.1841 0.9817
vn -0.1587 0.5924 0.7899
vn 0.2588 0.9659 0.0000
vn 0.7071 0.7071 0.0000
vn 0.9659 0.2588 0.0000
vn 0.9659 -0.2588 0.0000
vn 0.7071 -0.7071 0.0000
vn 0.2588 -0.9659 0.0000
vn -0.2588 -0.9659 0.0000
vn -0.7071 -0.7071 0.0000
vn -0.9659 -0.2588 0.0000
vn -0.9659 0.2588 0.0000
vn -0.7071 0.7071 0.0000
vn -0.2588 0.9659 0.0000
usemtl m_0
s 1
f 33/72/19 34/73/19 35/74/19
f 34/75/20 33/76/20 36/77/20 37/78/20
f 38/79/21 39/80/21 40/81/21
f 41/82/22 33/83/22 35/84/22
f 33/85/23 41/86/23 42/87/23 36/88/23
f 39/89/21 43/90/21 40/81/21
f 44/91/24 41/92/24 35/84/24
f 41/93/25 44/94/25 45/95/25 42/96/25
f 43/97/21 46/98/21 40/81/21
f 47/99/26 44/100/26 35/101/26
f 44/102/27 47/103/27 48/104/27 45/105/27
f 46/106/21 49/107/21 40/108/21
f 50/109/28 47/110/28 35/101/28
f 47/111/29 50/112/29 51/113/29 48/114/29
f 49/115/21 52/116/21 40/108/21
f 53/117/30 50/118/30 35/101/30
f 50/109/31 53/119/31 54/120/31 51/121/31
f 52/122/21 55/123/21 40/124/21
f 56/125/32 53/126/32 35/127/32
f 53/117/33 56/128/33 57/129/33 54/130/33
f 55/131/21 58/132/21 40/133/21
f 59/134/34 56/135/34 35/136/34
f 56/137/35 59/138/35 60/139/35 57/140/35
f 58/141/21 61/142/21 40/133/21
f 62/143/36 59/144/36 35/136/36
f 59/145/37 62/146/37 63/147/37 60/148/37
f 61/149/21 64/150/21 40/151/21
f 65/152/38 62/153/38 35/154/38
f 62/155/39 65/156/39 66/157/39 63/158/39
f 64/159/21 67/160/21 40/161/21
f 68/162/40 65/163/40 35/164/40
f 65/165/41 68/166/41 69/167/41 66/168/41
f 67/169/21 70/170/21 40/161/21
f 34/171/42 68/172/42 35/164/42
f 68/173/43 34/174/43 37/175/43 69/176/43
f 70/177/21 38/178/21 40/179/21
f 39/180/44 38/181/44 37/182/44 36/183/44
f 43/184/45 39/185/45 36/186/45 42/187/45
f 46/188/46 43/189/46 42/190/46 45/191/46
f 49/192/47 46/193/47 45/194/47 48/195/47
f 52/196/48 49/197/48 48/198/48 51/199/48
f 55/200/49 52/201/49 51/202/49 54/203/49
f 58/204/50 55/123/50 54/205/50 57/206/50
f 61/207/51 58/208/51 57/209/51 60/210/51
f 64/211/52 61/212/52 60/213/52 63/214/52
f 67/215/53 64/159/53 63/216/53 66/217/53
f 70/218/54 67/169/54 66/219/54 69/220/54
f 38/221/55 70/222/55 69/223/55 37/224/55
