# Blender v2.78 (sub 0) OBJ File: ''
# www.blender.org
mtllib flag.mtl
o cube
v 0.007812 0.007812 0.007812
v -0.007812 0.007812 0.007812
v -0.007812 0.007812 -0.007812
v 0.007812 0.007812 -0.007812
v -0.007812 1.757812 -0.007813
v 0.007812 1.757812 -0.007813
v 0.757812 1.179688 -0.000063
v 0.007812 1.179688 -0.000063
v 0.007812 1.742188 -0.000063
v 0.757812 1.742188 -0.000063
v 0.017578 0.000000 0.017578
v -0.017578 0.000000 0.017578
v -0.017578 -0.000000 -0.017578
v 0.017578 -0.000000 -0.017578
v 0.009766 1.742188 -0.009766
v -0.009766 1.742188 -0.009766
v -0.009766 1.742188 0.009766
v 0.009766 1.742188 0.009766
v 0.017578 0.039062 -0.017578
v -0.017578 0.039062 -0.017578
v -0.017578 0.039062 0.017578
v 0.017578 0.039062 0.017578
v -0.015625 0.000000 0.015625
v 0.015625 0.000000 0.015625
v 0.015625 0.046875 0.015625
v -0.015625 0.046875 0.015625
v 0.757812 1.179688 -0.000000
v 0.757812 1.742188 -0.000000
v -0.009766 1.179688 -0.009766
v -0.009766 1.179688 0.009766
v 0.009766 1.179688 -0.009766
v -0.015625 -0.000000 -0.015625
v -0.015625 0.046875 -0.015625
v 0.015625 0.046875 -0.015625
v 0.015625 -0.000000 -0.015625
v 0.009766 1.179688 0.009766
v -0.007812 1.757812 0.007812
v 0.007812 1.757812 0.007812
v 0.007812 1.179688 -0.000000
v 0.007812 1.742188 -0.000000
vt 0.0000 0.0000
vt 0.0312 0.0000
vt 0.0312 0.0312
vt 0.0000 0.0312
vt 0.0000 0.0000
vt 0.0312 0.0000
vt 0.0312 0.0312
vt 0.0000 0.0312
vt 0.7500 0.4375
vt 0.0000 0.4375
vt 0.0000 1.0000
vt 0.7500 1.0000
vt 0.0000 0.0000
vt 0.0312 0.0000
vt 0.0312 0.0312
vt 0.0000 0.0312
vt 0.0000 1.0000
vt 0.0000 1.0000
vt 0.0000 1.0000
vt 0.0000 1.0000
vt 0.0000 0.0000
vt 0.0312 0.0000
vt 0.0312 0.0312
vt 0.0000 0.0312
vt 0.0000 0.0000
vt 0.0312 0.0000
vt 0.0312 0.0312
vt 0.0000 0.0312
vt 0.0000 0.4375
vt 0.0000 0.4375
vt 0.0000 1.0000
vt 0.0000 1.0000
vt 0.0000 0.4375
vt 0.0000 0.4375
vt 0.0000 0.4375
vt 0.0000 0.0000
vt 0.0312 0.0000
vt 0.0312 0.0312
vt 0.0000 0.0312
vt 0.0000 0.0000
vt 0.0312 0.0000
vt 0.0000 0.0312
vt 0.0000 0.0000
vt 0.0312 0.0312
vt 0.0000 0.0312
vt 0.0000 0.4375
vt 0.0000 0.0000
vt 0.0000 0.0312
vt 0.0312 0.0000
vt 0.0312 0.0312
vt 0.0312 0.0000
vt 0.0312 0.0312
vt 0.0000 0.0000
vt 0.0312 0.0000
vt 0.0312 0.0312
vt 0.0000 0.0312
vt 0.0000 0.0000
vt 0.0312 0.0000
vt 0.0312 0.0312
vt 0.0000 0.0312
vt 0.0312 0.0000
vt 0.0312 0.0312
vt 0.0000 0.0000
vt 0.0000 0.0312
vt 0.0000 0.0000
vt 0.0312 0.0000
vt 0.0312 0.0312
vt 0.0000 0.0312
vt 0.0000 0.0000
vt 0.0312 0.0000
vt 0.0312 0.0312
vt 0.0000 0.0312
vt 0.0000 0.4375
vt 0.0000 1.0000
vt 0.0000 0.0000
vt 0.0312 0.0000
vt 0.0312 0.0312
vt 0.0000 0.0312
vt 0.0000 1.0000
vt 0.7500 1.0000
vt 0.7500 1.0000
vt 0.0000 1.0000
vt 0.7500 1.0000
vt 0.7500 1.0000
vt 0.7500 0.4375
vt 0.7500 1.0000
vn 0.0000 -1.0000 0.0000
vn -0.0000 -0.0000 -1.0000
vn 0.0000 1.0000 0.0000
vn 0.0000 0.0000 1.0000
vn 1.0000 -0.0000 0.0000
vn -1.0000 0.0000 0.0000
usemtl m_0
s 1
f 1/1/1 2/2/1 3/3/1 4/4/1
f 4/5/2 3/6/2 5/7/2 6/8/2
f 7/9/2 8/10/2 9/11/2 10/12/2
f 11/13/1 12/14/1 13/15/1 14/16/1
f 15/17/3 16/18/3 17/19/3 18/20/3
f 19/21/3 20/22/3 21/23/3 22/24/3
f 23/25/4 24/26/4 25/27/4 26/28/4
f 27/29/5 7/30/5 10/31/5 28/32/5
f 29/33/6 30/34/6 17/19/6 16/18/6
f 31/35/2 29/33/2 16/18/2 15/17/2
f 32/36/6 23/37/6 26/38/6 33/39/6
f 34/40/3 33/41/3 26/38/3 25/42/3
f 24/43/1 23/37/1 32/44/1 35/45/1
f 36/46/1 30/34/1 29/33/1 31/35/1
f 13/47/6 12/14/6 21/23/6 20/48/6
f 24/43/5 35/49/5 34/50/5 25/42/5
f 11/13/5 14/51/5 19/52/5 22/24/5
f 6/53/3 5/54/3 37/55/3 38/56/3
f 12/57/4 11/58/4 22/59/4 21/60/4
f 1/1/5 4/61/5 6/62/5 38/56/5
f 3/63/6 2/2/6 37/55/6 5/64/6
f 30/34/4 36/46/4 18/20/4 17/19/4
f 2/65/4 1/66/4 38/67/4 37/68/4
f 35/69/2 32/70/2 33/71/2 34/72/2
f 8/10/6 39/73/6 40/74/6 9/11/6
f 14/75/2 13/76/2 20/77/2 19/78/2
f 27/79/1 39/80/1 8/81/1 7/82/1
f 10/31/3 9/83/3 40/84/3 28/32/3
f 36/46/5 31/35/5 15/17/5 18/20/5
f 39/73/4 27/85/4 28/86/4 40/74/4
