# Blender v2.78 (sub 0) OBJ File: ''
# www.blender.org
mtllib junkconsole0.mtl
o rotor_translucent
v 0.117188 0.812500 -0.200881
v 0.234375 0.812500 0.000000
v 0.000000 0.812500 0.000000
v 0.117188 1.312500 -0.200881
v 0.234375 1.312500 0.000000
v 0.000000 1.312500 0.000000
v -0.117188 0.812500 -0.200881
v -0.117188 1.312500 -0.200881
v -0.234375 0.812500 0.000000
v -0.234375 1.312500 0.000000
v -0.117188 0.812500 0.200881
v -0.117188 1.312500 0.200881
v 0.117188 0.812500 0.200881
v 0.117188 1.312500 0.200881
vt 0.1172 0.1172
vt 0.0703 0.1172
vt 0.0703 0.0703
vt 0.1172 0.1172
vt 0.0703 0.1172
vt 0.0703 0.0703
vt 0.1172 0.0703
vt 0.1172 0.1172
vt 0.0703 0.1172
vt 0.0703 0.0703
vt 0.1172 0.1172
vt 0.0703 0.1172
vt 0.0703 0.0703
vt 0.1172 0.0703
vt 0.1172 0.1172
vt 0.0703 0.1172
vt 0.1172 0.1172
vt 0.0703 0.1172
vt 0.0703 0.0703
vt 0.1172 0.0703
vt 0.1172 0.1172
vt 0.0703 0.1172
vt 0.1172 0.1172
vt 0.0703 0.1172
vt 0.0703 0.0703
vt 0.1172 0.0703
vt 0.1172 0.1172
vt 0.0703 0.1172
vt 0.1172 0.1172
vt 0.0703 0.1172
vt 0.0703 0.0703
vt 0.1172 0.0703
vt 0.1172 0.1172
vt 0.0703 0.1172
vt 0.0703 0.0703
vt 0.1172 0.0703
vt 0.1172 0.1172
vt 0.0703 0.1172
vn 0.0000 -1.0000 0.0000
vn 0.8638 0.0000 -0.5039
vn 0.0000 1.0000 0.0000
vn 0.0000 0.0000 -1.0000
vn -0.8638 0.0000 -0.5039
vn -0.8638 0.0000 0.5039
vn 0.0000 -0.0000 1.0000
vn 0.8638 0.0000 0.5039
usemtl m_0
s 1
f 1/1/1 2/2/1 3/3/1
f 2/4/2 1/5/2 4/6/2 5/7/2
f 5/8/3 4/9/3 6/10/3
f 7/11/1 1/5/1 3/3/1
f 1/1/4 7/12/4 8/13/4 4/14/4
f 4/15/3 8/16/3 6/10/3
f 9/17/1 7/12/1 3/3/1
f 7/11/5 9/18/5 10/19/5 8/20/5
f 8/21/3 10/22/3 6/10/3
f 11/23/1 9/18/1 3/3/1
f 9/17/6 11/24/6 12/25/6 10/26/6
f 10/27/3 12/28/3 6/10/3
f 13/29/1 11/24/1 3/3/1
f 11/23/7 13/30/7 14/31/7 12/32/7
f 12/33/3 14/34/3 6/10/3
f 2/4/1 13/30/1 3/3/1
f 13/29/8 2/2/8 5/35/8 14/36/8
f 14/37/3 5/38/3 6/10/3
o rotor
v -0.140625 1.062500 -0.015625
v -0.140625 1.156250 -0.015625
v -0.093750 1.109375 -0.015625
v -0.046875 1.062500 -0.015625
v -0.093750 1.109375 0.015625
v -0.140625 1.156250 0.015625
v -0.140625 1.062500 0.015625
v -0.046875 1.062500 0.015625
v -0.046875 1.156250 -0.015625
v -0.046875 1.062500 -0.015625
v -0.140625 1.156250 -0.015625
v -0.093750 1.109375 -0.015625
v -0.046875 1.156250 0.015625
v -0.140625 1.156250 0.015625
v -0.046875 1.062500 0.015625
v -0.093750 1.109375 0.015625
v 0.046875 1.062500 -0.015625
v 0.046875 1.156250 -0.015625
v 0.093750 1.109375 -0.015625
v 0.140625 1.062500 -0.015625
v 0.093750 1.109375 0.015625
v 0.046875 1.156250 0.015625
v 0.046875 1.062500 0.015625
v 0.140625 1.062500 0.015625
v 0.140625 1.156250 -0.015625
v 0.140625 1.062500 -0.015625
v 0.046875 1.156250 -0.015625
v 0.093750 1.109375 -0.015625
v 0.140625 1.156250 0.015625
v 0.046875 1.156250 0.015625
v 0.140625 1.062500 0.015625
v 0.093750 1.109375 0.015625
v -0.015625 1.093750 0.125000
v -0.015625 1.093750 -0.125000
v -0.015625 1.000000 -0.125000
v -0.015625 1.000000 0.125000
v 0.015625 1.000000 -0.125000
v 0.015625 1.093750 -0.125000
v 0.015625 1.093750 0.125000
v 0.015625 1.000000 0.125000
v 0.031250 0.812500 -0.054127
v 0.062500 0.812500 0.000000
v 0.000000 0.812500 0.000000
v 0.031250 1.187500 -0.054127
v 0.062500 1.187500 0.000000
v 0.000000 1.250000 0.000000
v -0.031250 0.812500 -0.054127
v -0.031250 1.187500 -0.054127
v -0.062500 0.812500 0.000000
v -0.062500 1.187500 0.000000
v -0.031250 0.812500 0.054127
v -0.031250 1.187500 0.054127
v 0.031250 0.812500 0.054127
v 0.031250 1.187500 0.054127
vt 0.1797 0.0547
vt 0.1328 0.0547
vt 0.1328 0.0078
vt 0.1797 0.0078
vt 0.1797 0.0547
vt 0.1328 0.0547
vt 0.1328 0.0078
vt 0.1797 0.0078
vt 0.1797 0.0547
vt 0.1328 0.0078
vt 0.1797 0.0078
vt 0.1797 0.0547
vt 0.1328 0.0547
vt 0.1328 0.0078
vt 0.1797 0.0547
vt 0.1328 0.0078
vt 0.1797 0.0078
vt 0.1797 0.0547
vt 0.1328 0.0547
vt 0.1328 0.0078
vt 0.1328 0.1172
vt 0.1328 0.0703
vt 0.1797 0.1172
vt 0.1797 0.0703
vt 0.1797 0.1172
vt 0.1328 0.1172
vt 0.1328 0.0703
vt 0.1797 0.0703
vt 0.1328 0.0703
vt 0.1797 0.0703
vt 0.1797 0.1172
vt 0.1328 0.1172
vt 0.1797 0.1172
vt 0.1328 0.0703
vt 0.1797 0.0703
vt 0.1797 0.1172
vt 0.1328 0.1172
vt 0.1328 0.0703
vt 0.1797 0.0547
vt 0.1328 0.0547
vt 0.1328 0.0078
vt 0.1797 0.0078
vt 0.1797 0.0547
vt 0.1328 0.0547
vt 0.1328 0.0078
vt 0.1797 0.0078
vt 0.1797 0.0547
vt 0.1328 0.0078
vt 0.1797 0.0078
vt 0.1797 0.0547
vt 0.1328 0.0547
vt 0.1328 0.0078
vt 0.1797 0.0547
vt 0.1328 0.0078
vt 0.1797 0.0078
vt 0.1797 0.0547
vt 0.1328 0.0547
vt 0.1328 0.0078
vt 0.1328 0.1172
vt 0.1328 0.0703
vt 0.1797 0.1172
vt 0.1797 0.0703
vt 0.1797 0.1172
vt 0.1328 0.1172
vt 0.1328 0.0703
vt 0.1797 0.0703
vt 0.1328 0.0703
vt 0.1797 0.0703
vt 0.1797 0.1172
vt 0.1328 0.1172
vt 0.1797 0.1172
vt 0.1328 0.0703
vt 0.1797 0.0703
vt 0.1797 0.1172
vt 0.1328 0.1172
vt 0.1328 0.0703
vt 0.2422 0.1172
vt 0.1953 0.1172
vt 0.1953 0.0703
vt 0.2422 0.0703
vt 0.1953 0.0703
vt 0.2422 0.1172
vt 0.1953 0.1172
vt 0.2422 0.0703
vt 0.1953 0.0703
vt 0.2422 0.0703
vt 0.2422 0.1172
vt 0.1953 0.1172
vt 0.2422 0.1172
vt 0.1953 0.0703
vt 0.2422 0.0703
vt 0.2422 0.1172
vt 0.1953 0.1172
vt 0.1953 0.0703
vt 0.2422 0.0547
vt 0.1953 0.0547
vt 0.1953 0.0078
vt 0.2422 0.0547
vt 0.1953 0.0547
vt 0.1953 0.0078
vt 0.2422 0.0078
vt 0.2422 0.0547
vt 0.1953 0.0547
vt 0.1953 0.0078
vt 0.2422 0.0547
vt 0.1953 0.0547
vt 0.1953 0.0078
vt 0.2422 0.0078
vt 0.2422 0.0547
vt 0.1953 0.0547
vt 0.2422 0.0547
vt 0.1953 0.0547
vt 0.1953 0.0078
vt 0.2422 0.0078
vt 0.2422 0.0547
vt 0.1953 0.0547
vt 0.2422 0.0547
vt 0.1953 0.0547
vt 0.1953 0.0078
vt 0.2422 0.0078
vt 0.2422 0.0547
vt 0.1953 0.0547
vt 0.2422 0.0547
vt 0.1953 0.0547
vt 0.1953 0.0078
vt 0.2422 0.0078
vt 0.2422 0.0547
vt 0.1953 0.0547
vt 0.1953 0.0078
vt 0.2422 0.0078
vt 0.2422 0.0547
vt 0.1953 0.0547
vn 0.0000 0.0000 -1.0000
vn 0.0000 -0.0000 1.0000
vn 0.7071 0.7071 0.0000
vn 0.0000 -1.0000 0.0000
vn -1.0000 0.0000 0.0000
vn 0.0000 1.0000 0.0000
vn -0.7071 -0.7071 0.0000
vn 1.0000 0.0000 0.0000
vn 0.8660 0.0000 -0.5000
vn 0.6547 0.6547 -0.3780
vn 0.0000 0.6547 -0.7559
vn -0.8660 0.0000 -0.5000
vn -0.6547 0.6547 -0.3780
vn -0.8660 -0.0000 0.5000
vn -0.6547 0.6547 0.3780
vn 0.0000 0.6547 0.7559
vn 0.8660 -0.0000 0.5000
vn 0.6547 0.6547 0.3780
usemtl m_0
s 1
f 15/39/9 16/40/9 17/41/9 18/42/9
f 19/43/10 20/44/10 21/45/10 22/46/10
f 17/47/11 16/40/11 20/48/11 19/49/11
f 21/50/12 15/51/12 18/52/12 22/46/12
f 20/53/13 16/40/13 15/54/13 21/55/13
f 18/56/11 17/57/11 19/58/11 22/46/11
f 23/59/9 24/60/9 25/61/9 26/62/9
f 27/63/10 28/64/10 29/65/10 30/66/10
f 27/63/14 23/59/14 25/67/14 28/68/14
f 26/69/15 24/70/15 29/65/15 30/66/15
f 24/71/16 23/59/16 27/72/16 29/73/16
f 28/74/15 25/75/15 26/76/15 30/66/15
f 31/77/9 32/78/9 33/79/9 34/80/9
f 35/81/10 36/82/10 37/83/10 38/84/10
f 33/85/11 32/78/11 36/86/11 35/87/11
f 37/88/12 31/89/12 34/90/12 38/84/12
f 36/91/13 32/78/13 31/92/13 37/93/13
f 34/94/11 33/95/11 35/96/11 38/84/11
f 39/97/9 40/98/9 41/99/9 42/100/9
f 43/101/10 44/102/10 45/103/10 46/104/10
f 43/101/14 39/97/14 41/105/14 44/106/14
f 42/107/15 40/108/15 45/103/15 46/104/15
f 40/109/16 39/97/16 43/110/16 45/111/16
f 44/112/15 41/113/15 42/114/15 46/104/15
f 47/115/13 48/116/13 49/117/13 50/118/13
f 51/119/16 52/120/16 53/121/16 54/122/16
f 52/120/14 48/116/14 47/123/14 53/124/14
f 50/125/12 49/126/12 51/119/12 54/122/12
f 49/127/9 48/116/9 52/128/9 51/129/9
f 53/130/10 47/131/10 50/132/10 54/122/10
f 55/133/12 56/134/12 57/135/12
f 56/136/17 55/137/17 58/138/17 59/139/17
f 59/140/18 58/141/18 60/142/18
f 61/143/12 55/137/12 57/135/12
f 55/133/9 61/144/9 62/145/9 58/146/9
f 58/147/19 62/148/19 60/142/19
f 63/149/12 61/144/12 57/135/12
f 61/143/20 63/150/20 64/151/20 62/152/20
f 62/153/21 64/154/21 60/142/21
f 65/155/12 63/150/12 57/135/12
f 63/149/22 65/156/22 66/157/22 64/158/22
f 64/159/23 66/160/23 60/142/23
f 67/161/12 65/156/12 57/135/12
f 65/155/10 67/162/10 68/163/10 66/164/10
f 66/165/24 68/166/24 60/142/24
f 56/136/12 67/162/12 57/135/12
f 67/161/25 56/134/25 59/167/25 68/168/25
f 68/169/26 59/170/26 60/142/26
o console
v 0.250000 0.125000 -0.433013
v 0.500000 0.125000 0.000000
v 0.000000 0.125000 0.000000
v 0.250000 0.500000 -0.433013
v 0.500000 0.500000 0.000000
v 0.000000 0.500000 0.000000
v -0.250000 0.125000 -0.433013
v -0.250000 0.500000 -0.433013
v -0.500000 0.125000 0.000000
v -0.500000 0.500000 0.000000
v -0.250000 0.125000 0.433013
v -0.250000 0.500000 0.433013
v 0.250000 0.125000 0.433013
v 0.250000 0.500000 0.433013
v 0.281250 0.000000 -0.495513
v 0.562500 -0.000000 0.000000
v -0.000000 -0.000000 0.000000
v 0.250000 0.125000 -0.433013
v 0.500000 0.125000 0.000000
v 0.000000 0.125000 0.000000
v -0.281250 0.000000 -0.495513
v -0.250000 0.125000 -0.433013
v -0.562500 0.000000 -0.000000
v -0.500000 0.125000 0.000000
v -0.281250 -0.000000 0.495513
v -0.250000 0.125000 0.433013
v 0.281250 -0.000000 0.495513
v 0.250000 0.125000 0.433013
v 0.250000 0.500000 -0.433013
v 0.500000 0.500000 0.000000
v 0.000000 0.500000 0.000000
v 0.437500 0.750000 -0.808013
v 0.875000 0.750000 0.000000
v -0.000000 0.750000 0.000000
v -0.250000 0.500000 -0.433013
v -0.437500 0.750000 -0.808013
v -0.500000 0.500000 0.000000
v -0.875000 0.750000 0.000000
v -0.250000 0.500000 0.433013
v -0.437500 0.750000 0.808013
v 0.250000 0.500000 0.433013
v 0.437500 0.750000 0.808013
v 0.875000 0.750000 0.000000
v 0.437500 0.750000 -0.808013
v 0.187500 1.000000 -0.308013
v 0.375000 1.000000 0.000000
v 0.250000 1.000000 0.000000
v 0.125000 1.000000 -0.216506
v 0.187500 0.750000 -0.341506
v 0.375000 0.750000 0.000000
v -0.437500 0.750000 -0.808013
v -0.187500 1.000000 -0.308013
v -0.125000 1.000000 -0.216506
v -0.187500 0.750000 -0.341506
v -0.875000 0.750000 0.000000
v -0.375000 1.000000 0.000000
v -0.250000 1.000000 0.000000
v -0.375000 0.750000 0.000000
v -0.437500 0.750000 0.808013
v -0.187500 1.000000 0.308013
v -0.125000 1.000000 0.216506
v -0.187500 0.750000 0.341506
v 0.437500 0.750000 0.808013
v 0.187500 1.000000 0.308013
v 0.125000 1.000000 0.216506
v 0.187500 0.750000 0.341506
vt 0.0547 0.1172
vt 0.0078 0.1172
vt 0.0078 0.0703
vt 0.0547 0.1172
vt 0.0078 0.1172
vt 0.0078 0.0703
vt 0.0547 0.0703
vt 0.0000 0.9375
vt 0.0541 0.9688
vt 0.0000 1.0000
vt 0.0547 0.1172
vt 0.0078 0.1172
vt 0.0078 0.0703
vt 0.0547 0.0703
vt 0.0541 0.9375
vt 0.0541 1.0000
vt 0.0000 0.9688
vt 0.0547 0.1172
vt 0.0078 0.1172
vt 0.0078 0.0703
vt 0.0547 0.0703
vt 0.0541 0.9688
vt 0.0000 1.0000
vt 0.0000 0.9375
vt 0.0547 0.1172
vt 0.0078 0.1172
vt 0.0078 0.0703
vt 0.0547 0.0703
vt 0.0541 1.0000
vt 0.0000 0.9688
vt 0.0541 0.9375
vt 0.0547 0.1172
vt 0.0078 0.1172
vt 0.0078 0.0703
vt 0.0547 0.0703
vt 0.0000 1.0000
vt 0.0000 0.9375
vt 0.0541 0.9688
vt 0.0078 0.0703
vt 0.0547 0.0703
vt 0.0000 0.9688
vt 0.0541 0.9375
vt 0.0541 1.0000
vt 0.0547 0.1172
vt 0.0078 0.1172
vt 0.0078 0.0703
vt 0.0547 0.1172
vt 0.0078 0.1172
vt 0.0078 0.0703
vt 0.0547 0.0703
vt 0.0000 0.9375
vt 0.0541 0.9688
vt 0.0000 1.0000
vt 0.0547 0.1172
vt 0.0078 0.1172
vt 0.0078 0.0703
vt 0.0547 0.0703
vt 0.0541 0.9375
vt 0.0541 1.0000
vt 0.0000 0.9688
vt 0.0547 0.1172
vt 0.0078 0.1172
vt 0.0078 0.0703
vt 0.0547 0.0703
vt 0.0541 0.9688
vt 0.0000 1.0000
vt 0.0000 0.9375
vt 0.0547 0.1172
vt 0.0078 0.1172
vt 0.0078 0.0703
vt 0.0547 0.0703
vt 0.0541 1.0000
vt 0.0000 0.9688
vt 0.0541 0.9375
vt 0.0547 0.1172
vt 0.0078 0.1172
vt 0.0078 0.0703
vt 0.0547 0.0703
vt 0.0000 1.0000
vt 0.0000 0.9375
vt 0.0541 0.9688
vt 0.0078 0.0703
vt 0.0547 0.0703
vt 0.0000 0.9688
vt 0.0541 0.9375
vt 0.0541 1.0000
vt 0.0547 0.0547
vt 0.0078 0.0547
vt 0.0078 0.0078
vt 0.0547 0.1172
vt 0.0078 0.1172
vt 0.0078 0.0703
vt 0.0547 0.0703
vt 0.1172 0.0547
vt 0.0703 0.0547
vt 0.0703 0.0078
vt 0.0547 0.0547
vt 0.0078 0.0547
vt 0.0547 0.1172
vt 0.0078 0.1172
vt 0.0078 0.0703
vt 0.0547 0.0703
vt 0.1172 0.0547
vt 0.0703 0.0547
vt 0.0547 0.0547
vt 0.0078 0.0547
vt 0.0547 0.1172
vt 0.0078 0.1172
vt 0.0078 0.0703
vt 0.0547 0.0703
vt 0.1172 0.0547
vt 0.0703 0.0547
vt 0.0547 0.0547
vt 0.0078 0.0547
vt 0.0547 0.1172
vt 0.0078 0.1172
vt 0.0078 0.0703
vt 0.0547 0.0703
vt 0.1172 0.0547
vt 0.0703 0.0547
vt 0.0547 0.0547
vt 0.0078 0.0547
vt 0.0547 0.1172
vt 0.0078 0.1172
vt 0.0078 0.0703
vt 0.0547 0.0703
vt 0.1172 0.0547
vt 0.0703 0.0547
vt 0.0547 0.0547
vt 0.0078 0.0547
vt 0.0547 0.1172
vt 0.0078 0.1172
vt 0.0078 0.0703
vt 0.0547 0.0703
vt 0.1172 0.0547
vt 0.0703 0.0547
vt 0.5000 0.9141
vt 0.6250 0.9141
vt 0.5820 1.0000
vt 0.5312 1.0000
vt 0.1172 0.0547
vt 0.0703 0.0547
vt 0.0703 0.0078
vt 0.1172 0.0078
vt 0.0000 0.9844
vt 0.0000 0.9531
vt 0.0271 0.9375
vt 0.0271 1.0000
vt 0.0547 0.1172
vt 0.0078 0.1172
vt 0.0078 0.0703
vt 0.0547 0.0703
vt 0.7500 0.9141
vt 0.7148 1.0000
vt 0.6602 1.0000
vt 0.1172 0.0547
vt 0.0703 0.0547
vt 0.0703 0.0078
vt 0.1172 0.0078
vt 0.0000 0.9844
vt 0.0000 0.9531
vt 0.0271 0.9375
vt 0.0271 1.0000
vt 0.0547 0.1172
vt 0.0078 0.1172
vt 0.0078 0.0703
vt 0.0547 0.0703
vt 0.0000 0.9141
vt 0.1250 0.9141
vt 0.0938 1.0000
vt 0.0430 1.0000
vt 0.1172 0.0547
vt 0.0703 0.0547
vt 0.0703 0.0078
vt 0.1172 0.0078
vt 0.0469 1.0000
vt 0.0156 1.0000
vt 0.0000 0.9729
vt 0.0625 0.9729
vt 0.0547 0.1172
vt 0.0078 0.1172
vt 0.0078 0.0703
vt 0.0547 0.0703
vt 0.2500 0.9141
vt 0.2070 1.0000
vt 0.1582 1.0000
vt 0.1172 0.0547
vt 0.0703 0.0547
vt 0.0703 0.0078
vt 0.1172 0.0078
vt 0.0271 0.9531
vt 0.0271 0.9844
vt 0.0000 1.0000
vt 0.0000 0.9375
vt 0.0547 0.1172
vt 0.0078 0.1172
vt 0.0078 0.0703
vt 0.0547 0.0703
vt 0.3750 0.9141
vt 0.3398 1.0000
vt 0.2852 1.0000
vt 0.1172 0.0547
vt 0.0703 0.0547
vt 0.0703 0.0078
vt 0.1172 0.0078
vt 0.0271 0.9531
vt 0.0271 0.9844
vt 0.0000 1.0000
vt 0.0000 0.9375
vt 0.0547 0.1172
vt 0.0078 0.1172
vt 0.0078 0.0703
vt 0.0547 0.0703
vt 0.4688 1.0000
vt 0.4199 1.0000
vt 0.1172 0.0547
vt 0.0703 0.0547
vt 0.0703 0.0078
vt 0.1172 0.0078
vt 0.0156 0.9729
vt 0.0469 0.9729
vt 0.0625 1.0000
vt 0.0547 0.1172
vt 0.0078 0.1172
vt 0.0078 0.0703
vt 0.0547 0.0703
vn 0.0000 -1.0000 -0.0000
vn 0.8660 0.0000 -0.5000
vn 0.0000 1.0000 0.0000
vn 0.0000 0.0000 -1.0000
vn -0.8660 0.0000 -0.5000
vn -0.8660 -0.0000 0.5000
vn 0.0000 -0.0000 1.0000
vn 0.8660 0.0000 0.5000
vn 0.7888 0.4211 -0.4477
vn 0.0000 0.4472 -0.8944
vn -0.7975 0.3988 -0.4527
vn -0.7888 0.4211 0.4477
vn 0.0000 0.4472 0.8944
vn 0.7975 0.3988 0.4527
vn 0.5035 -0.8136 -0.2907
vn 0.0000 -0.8321 -0.5547
vn -0.5283 -0.7924 -0.3050
vn -0.5035 -0.8136 0.2907
vn 0.0000 -0.8321 0.5547
vn 0.5283 -0.7924 0.3050
vn 0.4214 0.8777 -0.2282
vn 0.4214 0.8777 -0.2281
vn -0.7848 -0.4228 0.4531
vn 0.0000 0.8944 -0.4472
vn 0.0000 -0.4472 0.8944
vn -0.4347 0.8693 -0.2353
vn -0.4346 0.8693 -0.2353
vn 0.7947 -0.3974 0.4588
vn -0.4214 0.8777 0.2282
vn -0.4214 0.8777 0.2281
vn 0.7848 -0.4228 -0.4531
vn 0.0000 0.8944 0.4472
vn 0.0000 -0.4472 -0.8944
vn 0.4347 0.8693 0.2353
vn 0.4346 0.8693 0.2353
vn -0.7947 -0.3974 -0.4588
usemtl m_0
s 1
f 69/171/27 70/172/27 71/173/27
f 70/174/28 69/175/28 72/176/28 73/177/28
f 73/178/29 72/179/29 74/180/29
f 75/181/27 69/175/27 71/173/27
f 69/171/30 75/182/30 76/183/30 72/184/30
f 72/185/29 76/186/29 74/187/29
f 77/188/27 75/182/27 71/173/27
f 75/181/31 77/189/31 78/190/31 76/191/31
f 76/192/29 78/193/29 74/194/29
f 79/195/27 77/189/27 71/173/27
f 77/188/32 79/196/32 80/197/32 78/198/32
f 78/199/29 80/200/29 74/201/29
f 81/202/27 79/196/27 71/173/27
f 79/195/33 81/203/33 82/204/33 80/205/33
f 80/206/29 82/207/29 74/208/29
f 70/174/27 81/203/27 71/173/27
f 81/202/34 70/172/34 73/209/34 82/210/34
f 82/211/29 73/212/29 74/213/29
f 83/214/27 84/215/27 85/216/27
f 84/217/35 83/218/35 86/219/35 87/220/35
f 87/221/29 86/222/29 88/223/29
f 89/224/27 83/218/27 85/216/27
f 83/214/36 89/225/36 90/226/36 86/227/36
f 86/228/29 90/229/29 88/230/29
f 91/231/27 89/225/27 85/216/27
f 89/224/37 91/232/37 92/233/37 90/234/37
f 90/235/29 92/236/29 88/237/29
f 93/238/27 91/232/27 85/216/27
f 91/231/38 93/239/38 94/240/38 92/241/38
f 92/242/29 94/243/29 88/244/29
f 95/245/27 93/239/27 85/216/27
f 93/238/39 95/246/39 96/247/39 94/248/39
f 94/249/29 96/250/29 88/251/29
f 84/217/27 95/246/27 85/216/27
f 95/245/40 84/215/40 87/252/40 96/253/40
f 96/254/29 87/255/29 88/256/29
f 97/257/27 98/258/27 99/259/27
f 98/260/41 97/261/41 100/262/41 101/263/41
f 101/264/29 100/265/29 102/266/29
f 103/267/27 97/268/27 99/259/27
f 97/269/42 103/270/42 104/271/42 100/272/42
f 100/273/29 104/274/29 102/266/29
f 105/275/27 103/276/27 99/259/27
f 103/277/43 105/278/43 106/279/43 104/280/43
f 104/281/29 106/282/29 102/266/29
f 107/283/27 105/284/27 99/259/27
f 105/285/44 107/286/44 108/287/44 106/288/44
f 106/289/29 108/290/29 102/266/29
f 109/291/27 107/292/27 99/259/27
f 107/293/45 109/294/45 110/295/45 108/296/45
f 108/297/29 110/298/29 102/266/29
f 98/299/27 109/300/27 99/259/27
f 109/301/46 98/302/46 101/303/46 110/304/46
f 110/305/29 101/306/29 102/266/29
f 111/307/47 112/308/48 113/309/47 114/310/47
f 115/311/49 116/312/49 117/313/49 118/314/49
f 118/315/27 117/316/27 112/317/27 111/318/27
f 114/319/29 113/320/29 116/321/29 115/322/29
f 112/308/50 119/323/50 120/324/50 113/325/50
f 116/326/51 121/327/51 122/328/51 117/329/51
f 117/330/27 122/331/27 119/332/27 112/333/27
f 113/334/29 120/335/29 121/336/29 116/337/29
f 119/338/52 123/339/52 124/340/53 120/341/52
f 121/342/54 125/343/54 126/344/54 122/345/54
f 122/346/27 126/347/27 123/348/27 119/349/27
f 120/350/29 124/351/29 125/352/29 121/353/29
f 123/339/55 127/354/56 128/355/55 124/356/55
f 125/357/57 129/358/57 130/359/57 126/360/57
f 126/361/27 130/362/27 127/363/27 123/364/27
f 124/365/29 128/366/29 129/367/29 125/368/29
f 127/354/58 131/369/58 132/370/58 128/371/58
f 129/372/59 133/373/59 134/374/59 130/375/59
f 130/376/27 134/377/27 131/378/27 127/379/27
f 128/380/29 132/381/29 133/382/29 129/383/29
f 131/369/60 111/307/60 114/384/61 132/385/60
f 133/386/62 115/387/62 118/388/62 134/389/62
f 134/390/27 118/391/27 111/392/27 131/378/27
f 132/393/29 114/394/29 115/395/29 133/396/29
