# Blender v2.78 (sub 0) OBJ File: ''
# www.blender.org
mtllib printer.mtl
o cube
v -0.443571 0.055446 -0.295714
v -0.443571 -0.000000 -0.295714
v -0.443571 0.055446 0.295714
v -0.443571 0.000000 0.295714
v 0.443571 0.055446 0.295714
v 0.443571 0.000000 0.295714
v 0.443571 0.055446 -0.295714
v 0.443571 -0.000000 -0.295714
v -0.443571 0.147857 -0.295714
v -0.443571 0.055446 -0.295714
v -0.443571 0.147857 0.147857
v -0.443571 0.055446 0.147857
v 0.443571 0.147857 0.147857
v 0.443571 0.055446 0.147857
v 0.443571 0.147857 -0.295714
v 0.443571 0.055446 -0.295714
v -0.443571 0.147857 0.147857
v -0.443571 0.055446 0.147857
v -0.443571 0.147857 0.295714
v -0.443571 0.055446 0.295714
v -0.295714 0.147857 0.295714
v -0.295714 0.055446 0.295714
v -0.295714 0.147857 0.147857
v -0.295714 0.055446 0.147857
v 0.295714 0.147857 0.147857
v 0.295714 0.055446 0.147857
v 0.295714 0.147857 0.295714
v 0.295714 0.055446 0.295714
v 0.443571 0.147857 0.295714
v 0.443571 0.055446 0.295714
v 0.443571 0.147857 0.147857
v 0.443571 0.055446 0.147857
v -0.443571 0.240268 -0.295714
v -0.443571 0.147857 -0.295714
v -0.443571 0.240268 0.295714
v -0.443571 0.147857 0.295714
v 0.443571 0.240268 0.295714
v 0.443571 0.147857 0.295714
v 0.443571 0.240268 -0.295714
v 0.443571 0.147857 -0.295714
v -0.295714 0.070502 0.149119
v -0.295714 0.052090 0.147509
v -0.295714 0.049561 0.388473
v -0.295714 0.031150 0.386862
v 0.295714 0.049561 0.388473
v 0.295714 0.031150 0.386862
v 0.295714 0.070502 0.149120
v 0.295714 0.052090 0.147509
v -0.295714 0.277232 -0.221785
v -0.295714 0.055446 -0.221785
v -0.295714 0.277232 0.240267
v -0.295714 0.055446 0.240268
v 0.295714 0.277232 0.240268
v 0.295714 0.055446 0.240268
v 0.295714 0.277232 -0.221785
v 0.295714 0.055446 -0.221785
v -0.443571 0.314196 -0.000000
v -0.443571 0.240268 -0.000000
v -0.443571 0.314196 0.295714
v -0.443571 0.240268 0.295714
v 0.443571 0.314196 0.295714
v 0.443571 0.240268 0.295714
v 0.443571 0.314196 0.000000
v 0.443571 0.240268 0.000000
v -0.443571 0.314196 -0.295714
v -0.443571 0.240268 -0.295714
v -0.443571 0.314196 -0.184821
v -0.443571 0.240268 -0.184821
v 0.443571 0.314196 -0.184821
v 0.443571 0.240268 -0.184821
v 0.443571 0.314196 -0.295714
v 0.443571 0.240268 -0.295714
v -0.443571 0.314196 -0.092411
v -0.443571 0.240268 -0.092411
v -0.443571 0.314196 -0.000000
v -0.443571 0.240268 -0.000000
v 0.443571 0.314196 0.000000
v 0.443571 0.240268 0.000000
v 0.443571 0.314196 -0.092411
v 0.443571 0.240268 -0.092411
v -0.443571 0.314196 -0.184821
v -0.443571 0.240268 -0.184821
v -0.443571 0.314196 -0.092411
v -0.443571 0.240268 -0.092411
v -0.295714 0.314196 -0.092411
v -0.295714 0.240268 -0.092411
v -0.295714 0.314196 -0.184821
v -0.295714 0.240268 -0.184821
v 0.295714 0.314196 -0.184821
v 0.295714 0.240268 -0.184821
v 0.295714 0.314196 -0.092411
v 0.295714 0.240268 -0.092411
v 0.443571 0.314196 -0.092411
v 0.443571 0.240268 -0.092411
v 0.443571 0.314196 -0.184821
v 0.443571 0.240268 -0.184821
v -0.295714 0.579185 -0.269598
v -0.295714 0.572112 -0.286673
v -0.295714 0.220605 -0.121069
v -0.295714 0.213532 -0.138145
v 0.295714 0.220605 -0.121069
v 0.295714 0.213532 -0.138145
v 0.295714 0.579185 -0.269598
v 0.295714 0.572112 -0.286673
v -0.258750 0.598029 -0.272402
v -0.258750 0.596260 -0.276671
v -0.258750 0.222373 -0.116801
v -0.258750 0.220605 -0.121069
v 0.258750 0.222373 -0.116800
v 0.258750 0.220605 -0.121069
v 0.258750 0.598029 -0.272402
v 0.258750 0.596260 -0.276671
v -0.258750 0.610033 -0.279333
v -0.258750 0.607723 -0.283334
v -0.258750 0.598029 -0.272402
v -0.258750 0.595718 -0.276404
v 0.258750 0.598029 -0.272402
v 0.258750 0.595718 -0.276404
v 0.258750 0.610033 -0.279333
v 0.258750 0.607723 -0.283334
v -0.258750 0.621030 -0.287771
v -0.258750 0.618217 -0.291437
v -0.258750 0.610033 -0.279333
v -0.258750 0.607220 -0.282999
v 0.258750 0.610033 -0.279333
v 0.258750 0.607220 -0.282999
v 0.258750 0.621030 -0.287771
v 0.258750 0.618217 -0.291437
v 0.355781 0.318817 0.254129
v 0.355781 0.314196 0.254129
v 0.355781 0.318817 0.281852
v 0.355781 0.314196 0.281852
v 0.429709 0.318817 0.281852
v 0.429709 0.314196 0.281852
v 0.429709 0.318817 0.254129
v 0.429709 0.314196 0.254129
v 0.406607 0.323437 0.258750
v 0.406607 0.318817 0.258750
v 0.406607 0.323437 0.277232
v 0.406607 0.318817 0.277232
v 0.425089 0.323437 0.277232
v 0.425089 0.318817 0.277232
v 0.425089 0.323437 0.258750
v 0.425089 0.318817 0.258750
v 0.383504 0.323437 0.258750
v 0.383504 0.318817 0.258750
v 0.383504 0.323437 0.277232
v 0.383504 0.318817 0.277232
v 0.401986 0.323437 0.277232
v 0.401986 0.318817 0.277232
v 0.401986 0.323437 0.258750
v 0.401986 0.318817 0.258750
v -0.258750 0.053762 0.393478
v -0.258750 0.049251 0.392478
v -0.258750 0.050761 0.407011
v -0.258750 0.046250 0.406011
v 0.258750 0.050761 0.407011
v 0.258750 0.046250 0.406011
v 0.258750 0.053762 0.393478
v 0.258750 0.049251 0.392478
v -0.258750 0.075105 0.149522
v -0.258750 0.070502 0.149119
v -0.258750 0.053762 0.393478
v -0.258750 0.049159 0.393076
v 0.258750 0.053762 0.393478
v 0.258750 0.049159 0.393076
v 0.258750 0.075105 0.149522
v 0.258750 0.070502 0.149120
v -0.258750 0.050761 0.407011
v -0.258750 0.046760 0.404701
v -0.258750 0.043831 0.419016
v -0.258750 0.039829 0.416706
v 0.258750 0.043831 0.419016
v 0.258750 0.039829 0.416706
v 0.258750 0.050761 0.407011
v 0.258750 0.046760 0.404701
v -0.258750 0.043831 0.419016
v -0.258750 0.040291 0.416046
v -0.258750 0.037891 0.426095
v -0.258750 0.034351 0.423125
v 0.258750 0.037891 0.426095
v 0.258750 0.034351 0.423125
v 0.258750 0.043831 0.419016
v 0.258750 0.040291 0.416046
v 0.360401 0.323437 0.258750
v 0.360401 0.318817 0.258750
v 0.360401 0.323437 0.277232
v 0.360401 0.318817 0.277232
v 0.378883 0.323437 0.277232
v 0.378883 0.318817 0.277232
v 0.378883 0.323437 0.258750
v 0.378883 0.318817 0.258750
vt 0.0000 0.1875
vt 1.0000 0.1875
vt 1.0000 0.2500
vt 0.0000 0.2500
vt 0.0000 0.0000
vt 0.0625 0.0000
vt 0.0625 0.0625
vt 0.0000 0.0625
vt 0.2500 0.8750
vt 0.3750 0.8750
vt 0.3750 1.0000
vt 0.2500 1.0000
vt 0.0000 0.8750
vt 0.1250 0.8750
vt 0.1250 1.0000
vt 0.0000 1.0000
vt 0.0000 0.8750
vt 0.1250 0.8750
vt 0.1250 1.0000
vt 0.0000 1.0000
vt 0.2500 0.8750
vt 0.3750 0.8750
vt 0.3750 1.0000
vt 0.2500 1.0000
vt 0.0000 0.8750
vt 0.1250 0.8750
vt 0.1250 1.0000
vt 0.0000 1.0000
vt 0.0000 0.0000
vt 0.0625 0.0000
vt 0.0625 0.0625
vt 0.0000 0.0625
vt 0.0000 0.8750
vt 0.1250 0.8750
vt 0.1250 1.0000
vt 0.0000 1.0000
vt 0.0000 0.8750
vt 0.1250 0.8750
vt 0.1250 1.0000
vt 0.0000 1.0000
vt 0.0000 0.0000
vt 0.0625 0.0000
vt 0.0625 0.0625
vt 0.0000 0.8750
vt 0.1250 0.8750
vt 0.1250 1.0000
vt 0.0000 1.0000
vt 0.2500 0.8750
vt 0.3750 0.8750
vt 0.3750 1.0000
vt 0.2500 1.0000
vt 0.0000 0.8750
vt 0.1250 0.8750
vt 0.1250 1.0000
vt 0.0000 1.0000
vt 0.1875 0.0000
vt 0.2500 0.0000
vt 0.2500 0.0625
vt 0.1875 0.0625
vt 0.0000 0.8750
vt 0.1250 1.0000
vt 0.0000 1.0000
vt 0.0000 0.8750
vt 0.1250 0.8750
vt 0.1250 1.0000
vt 0.0000 1.0000
vt 0.2500 0.0000
vt 0.2500 0.0625
vt 0.1875 0.0625
vt 0.1875 0.0000
vt 0.2500 0.0625
vt 0.1875 0.0625
vt 0.0625 0.0000
vt 0.1250 0.0000
vt 0.1250 0.0625
vt 0.0625 0.0625
vt 0.3750 0.8750
vt 0.3750 1.0000
vt 0.2500 1.0000
vt 0.0625 0.0000
vt 0.0625 0.0625
vt 0.0000 0.0625
vt 0.0000 0.0000
vt 0.0000 0.0625
vt 0.0000 0.8750
vt 0.1250 0.8750
vt 0.1250 1.0000
vt 0.0000 1.0000
vt 0.0000 0.8750
vt 0.1250 0.8750
vt 0.1250 1.0000
vt 0.0000 1.0000
vt 0.0000 0.8750
vt 0.1250 0.8750
vt 0.1250 1.0000
vt 0.0000 1.0000
vt 0.2500 0.8750
vt 0.3750 0.8750
vt 0.3750 1.0000
vt 0.2500 1.0000
vt 0.1250 0.8750
vt 0.2500 0.8750
vt 0.2500 1.0000
vt 0.1250 1.0000
vt 0.1250 0.0000
vt 0.1875 0.0000
vt 0.1875 0.0625
vt 0.1250 0.0625
vt 0.2500 0.8750
vt 0.3750 0.8750
vt 0.3750 1.0000
vt 0.2500 1.0000
vt 0.2500 0.8750
vt 0.3750 0.8750
vt 0.3750 1.0000
vt 0.2500 1.0000
vt 0.0000 0.8750
vt 0.1250 0.8750
vt 0.1250 1.0000
vt 0.0000 1.0000
vt 0.2500 0.8750
vt 0.3750 1.0000
vt 0.2500 1.0000
vt 0.2500 0.8750
vt 0.3750 0.8750
vt 0.3750 1.0000
vt 0.2500 1.0000
vt 0.2500 0.8750
vt 0.3750 0.8750
vt 0.2500 1.0000
vt 0.2500 0.8750
vt 0.2500 1.0000
vt 0.1250 1.0000
vt 0.0000 0.8750
vt 0.1250 0.8750
vt 0.1250 1.0000
vt 0.0000 1.0000
vt 0.0000 0.8750
vt 0.1250 0.8750
vt 0.0000 1.0000
vt 0.0000 0.8750
vt 0.1250 0.8750
vt 0.0000 1.0000
vt 0.0000 0.8750
vt 0.1250 0.8750
vt 0.1250 1.0000
vt 0.0000 1.0000
vt 0.0000 0.8750
vt 0.1250 0.8750
vt 0.1250 1.0000
vt 0.0000 1.0000
vt 0.0000 0.8750
vt 0.1250 0.8750
vt 0.1250 1.0000
vt 0.0000 1.0000
vt 0.0625 0.0000
vt 0.1250 0.0000
vt 0.1250 0.0625
vt 0.0000 0.2500
vt 1.0000 0.2500
vt 1.0000 0.8750
vt 0.0000 0.8750
vt 0.2500 0.0000
vt 0.3125 0.0000
vt 0.3125 0.0625
vt 0.2500 0.0625
vt 0.0000 0.8750
vt 0.1250 0.8750
vt 0.1250 1.0000
vt 0.0000 1.0000
vt 0.2500 0.0000
vt 0.3125 0.0625
vt 0.2500 0.0625
vt 0.0000 0.8750
vt 0.1250 1.0000
vt 0.0000 1.0000
vt 0.0000 0.8750
vt 0.1250 1.0000
vt 0.0000 1.0000
vt 0.0000 0.8750
vt 0.1250 0.8750
vt 0.1250 1.0000
vt 0.0000 1.0000
vt 0.2500 0.8750
vt 0.3750 0.8750
vt 0.3750 1.0000
vt 0.2500 1.0000
vt 0.0000 0.8750
vt 0.1250 0.8750
vt 0.1250 1.0000
vt 0.0625 0.0000
vt 0.1250 0.0000
vt 0.1250 0.0625
vt 0.0625 0.0625
vt 0.1250 0.0000
vt 0.1875 0.0000
vt 0.1875 0.0625
vt 0.1250 0.0625
vt 0.0000 0.8750
vt 0.1250 0.8750
vt 0.1250 1.0000
vt 0.0000 1.0000
vt 0.0625 0.0000
vt 0.1250 0.0000
vt 0.0625 0.0625
vt 0.0000 0.8750
vt 0.1250 0.8750
vt 0.1250 1.0000
vt 0.0000 1.0000
vt 0.0000 0.8750
vt 0.0000 1.0000
vt 0.1250 0.8750
vt 0.1250 1.0000
vt 0.1875 0.0000
vt 0.1875 0.0625
vt 0.0000 0.8750
vt 0.1250 0.8750
vt 0.1250 1.0000
vt 0.0000 1.0000
vt 0.0000 0.8750
vt 0.1250 1.0000
vt 0.0000 1.0000
vt 0.0000 0.8750
vt 0.1250 0.8750
vt 0.1250 1.0000
vt 0.0000 1.0000
vt 0.0000 0.8750
vt 0.1250 0.8750
vt 0.1250 1.0000
vt 0.0000 1.0000
vt 0.0000 0.8750
vt 0.1250 0.8750
vt 0.1250 1.0000
vt 0.0000 1.0000
vt 0.0000 0.8750
vt 0.1250 0.8750
vt 0.1250 1.0000
vt 0.0000 1.0000
vt 0.0000 0.8750
vt 0.1250 0.8750
vt 0.1250 1.0000
vt 0.0000 0.8750
vt 0.1250 0.8750
vt 0.0000 1.0000
vt 0.2500 0.8750
vt 0.3750 1.0000
vt 0.2500 1.0000
vt 0.1250 0.8750
vt 0.1250 1.0000
vt 0.0000 0.8750
vt 0.1250 0.8750
vt 0.1250 1.0000
vt 0.0000 1.0000
vt 0.2500 0.8750
vt 0.3750 0.8750
vt 0.3750 1.0000
vt 0.2500 1.0000
vt 0.0000 0.8750
vt 0.1250 0.8750
vt 0.1250 1.0000
vt 0.0000 1.0000
vt 0.1250 0.8750
vt 0.2500 1.0000
vt 0.1250 1.0000
vt 0.2500 0.8750
vt 0.3750 1.0000
vt 0.2500 1.0000
vt 0.2500 0.8750
vt 0.3750 1.0000
vt 0.2500 1.0000
vt 0.1250 0.8750
vt 0.2500 0.8750
vt 0.2500 1.0000
vt 0.1250 1.0000
vt 0.2500 0.8750
vt 0.3750 0.8750
vt 0.0000 0.8750
vt 0.1250 0.8750
vt 0.0000 1.0000
vt 0.2500 0.8750
vt 0.3750 0.8750
vt 0.3750 1.0000
vt 0.2500 1.0000
vt 0.2500 0.8750
vt 0.3750 0.8750
vt 0.3750 1.0000
vt 0.2500 1.0000
vt 0.1250 0.0000
vt 0.1875 0.0000
vt 0.1875 0.0625
vt 0.1250 0.0625
vt 0.3750 1.0000
vt 0.2500 1.0000
vt 0.2500 0.8750
vt 0.3750 0.8750
vt 0.0625 0.0000
vt 0.1250 0.0000
vt 0.1250 0.0625
vt 0.0625 0.0625
vt 0.1250 0.8750
vt 0.1250 1.0000
vt 0.1250 0.8750
vt 0.2500 0.8750
vt 0.2500 1.0000
vt 0.1250 1.0000
vt 0.1250 0.8750
vt 0.2500 0.8750
vt 0.2500 1.0000
vt 0.1250 1.0000
vt 0.3750 0.8750
vt 0.3750 1.0000
vt 0.2500 1.0000
vt 0.1250 0.8750
vt 0.2500 0.8750
vt 0.0000 0.8750
vt 0.1250 0.8750
vt 0.1250 1.0000
vt 0.0000 1.0000
vt 0.3750 0.8750
vt 0.3750 1.0000
vt 0.2500 0.8750
vt 0.3750 0.8750
vt 0.3750 1.0000
vt 0.2500 1.0000
vt 0.1250 0.8750
vt 0.2500 0.8750
vt 0.2500 1.0000
vt 0.1250 1.0000
vt 0.2500 0.8750
vt 0.3750 0.8750
vt 0.3750 1.0000
vt 0.2500 1.0000
vt 0.2500 0.0000
vt 0.3125 0.0000
vt 0.3125 0.0625
vt 0.2500 0.0625
vt 0.0000 0.8750
vt 0.1250 0.8750
vt 0.1250 1.0000
vt 0.0000 1.0000
vt 0.1250 0.8750
vt 0.1250 1.0000
vt 0.0000 0.8750
vt 0.1250 0.8750
vt 0.1250 1.0000
vt 0.0000 1.0000
vt 0.0000 0.8750
vt 0.0000 1.0000
vt 0.2500 0.8750
vt 0.3750 0.8750
vt 0.3750 1.0000
vt 0.2500 1.0000
vt 0.0000 0.8750
vt 0.1250 0.8750
vt 0.1250 1.0000
vt 0.0000 1.0000
vt 0.1250 1.0000
vt 0.0000 1.0000
vt 0.0000 0.0000
vt 0.0625 0.0000
vt 0.0625 0.0625
vt 0.0000 0.0625
vt 0.0000 0.8750
vt 0.0000 1.0000
vt 0.2500 0.0000
vt 0.3125 0.0000
vt 0.2500 0.0625
vt 0.1875 0.0000
vt 0.2500 0.0000
vt 0.2500 0.0625
vt 0.1875 0.0625
vt 0.1250 0.8750
vt 0.2500 0.8750
vt 0.2500 1.0000
vt 0.1250 1.0000
vt 0.1250 0.8750
vt 0.1250 1.0000
vt 0.0000 0.8750
vt 0.0000 1.0000
vt 0.2500 0.8750
vt 0.3750 0.8750
vt 0.3750 1.0000
vt 0.2500 1.0000
vt 0.2500 0.8750
vt 0.3750 0.8750
vt 0.3750 1.0000
vt 0.2500 1.0000
vt 0.1250 0.8750
vt 0.1250 1.0000
vt 0.0000 1.0000
vt 0.3750 1.0000
vt 0.2500 1.0000
vt 0.1250 0.8750
vt 0.1250 1.0000
vt 0.3750 0.8750
vt 0.3750 1.0000
vt 0.2500 1.0000
vt 0.1250 0.0000
vt 0.1875 0.0000
vt 0.1875 0.0625
vt 0.1250 0.0625
vt 0.1250 1.0000
vt 0.0000 1.0000
vt 0.2500 0.8750
vt 0.3750 0.8750
vt 0.3750 1.0000
vt 0.2500 1.0000
vt 0.2500 0.8750
vt 0.3750 0.8750
vt 0.3750 1.0000
vt 0.2500 1.0000
vt 0.2500 0.8750
vt 0.3750 0.8750
vt 0.3750 1.0000
vt 0.2500 1.0000
vt 0.2500 0.8750
vt 0.3750 0.8750
vt 0.3750 1.0000
vt 0.2500 1.0000
vt 0.2500 0.8750
vt 0.3750 0.8750
vt 0.3750 1.0000
vt 0.2500 1.0000
vt 0.2500 0.8750
vt 0.3750 0.8750
vt 0.3750 1.0000
vt 0.2500 1.0000
vt 0.3750 1.0000
vt 0.2500 1.0000
vt 0.1875 0.0000
vt 0.2500 0.0000
vt 0.0000 0.8750
vt 0.1250 0.8750
vt 0.1250 1.0000
vt 0.0000 1.0000
vt 0.2500 0.8750
vt 0.3750 0.8750
vt 0.3750 1.0000
vt 0.2500 1.0000
vt 0.0000 0.1250
vt 1.0000 0.1250
vt 1.0000 0.1875
vt 0.0000 0.1875
vt 0.2500 0.8750
vt 0.2500 1.0000
vt 0.2500 0.8750
vt 0.3750 0.8750
vt 0.3750 1.0000
vt 0.2500 1.0000
vt 0.0000 0.8750
vt 0.1250 0.8750
vt 0.0000 1.0000
vt 0.2500 0.0000
vt 0.3125 0.0000
vt 0.3125 0.0625
vt 0.2500 0.0625
vt 0.1250 0.8750
vt 0.1250 1.0000
vt 0.0000 0.8750
vt 0.1250 0.8750
vt 0.1250 1.0000
vt 0.0000 1.0000
vt 0.1250 0.0000
vt 0.1250 0.0625
vt 0.0000 0.0625
vt 1.0000 0.0625
vt 1.0000 0.1250
vt 0.0000 0.1250
vt 0.3125 0.0000
vt 0.3125 0.0625
vt 0.1250 0.0625
vt 0.0625 0.0625
vt 0.1875 0.0000
vt 0.2500 0.0000
vt 0.2500 0.0625
vt 0.1875 0.0625
vt 0.0000 0.8750
vt 0.1250 0.8750
vt 0.0000 0.8750
vt 0.1250 0.8750
vt 0.1250 1.0000
vt 0.0000 1.0000
vt 0.1250 0.8750
vt 0.1250 1.0000
vt 0.1250 0.8750
vt 0.2500 0.8750
vt 0.2500 1.0000
vt 0.1250 1.0000
vn -0.0000 0.9763 0.2164
vn -0.0000 0.0000 1.0000
vn 0.0000 -0.3827 -0.9239
vn 0.0000 0.0000 -1.0000
vn -0.0000 -1.0000 0.0000
vn -0.0000 -0.9239 0.3827
vn 0.0000 1.0000 0.0000
vn -1.0000 0.0000 -0.0000
vn 1.0000 0.0000 0.0000
vn 0.0000 -0.9962 -0.0872
vn -0.0000 0.5000 0.8660
vn -0.0000 0.9962 0.0872
vn 0.0000 -0.7660 -0.6428
vn 0.0000 -0.5000 -0.8660
vn -0.0000 0.6088 0.7934
vn 0.0000 0.6428 -0.7660
vn 0.0000 -0.8660 -0.5000
vn -0.0000 0.3827 0.9239
vn 0.0000 0.0872 -0.9962
vn 0.0000 0.9239 -0.3827
vn -0.0000 -0.2164 0.9763
vn 0.0000 0.8660 -0.5000
vn -0.0000 -0.0872 0.9962
vn 0.0000 0.2164 -0.9763
vn 0.0000 -0.9763 -0.2164
vn 0.0000 0.7934 -0.6088
vn -0.0000 -0.7934 0.6088
vn -0.0000 -0.5000 0.8660
vn -0.0000 -0.6428 0.7660
vn 0.0000 0.5000 -0.8660
vn -0.0000 -0.8660 0.5000
vn 0.0000 -0.6088 -0.7934
vn -0.0000 -0.0871 0.9962
vn -0.0000 0.8660 0.5000
vn -0.0000 0.7660 0.6428
usemtl m_0.001
s 1
f 159/1/1 153/2/1 155/3/1 157/4/1
f 52/5/2 54/6/2 53/7/2 51/8/2
f 110/9/3 108/10/3 106/11/3 112/12/3
f 8/13/4 2/14/4 1/15/4 7/16/4
f 14/17/5 12/18/5 10/19/5 16/20/5
f 108/21/6 110/22/6 109/23/6 107/24/6
f 76/25/2 78/26/2 77/27/2 75/28/2
f 55/29/7 49/30/7 51/31/7 53/32/7
f 16/33/4 10/34/4 9/35/4 15/36/4
f 58/37/8 60/38/8 59/39/8 57/40/8
f 54/41/9 56/42/9 55/43/9 53/32/9
f 79/44/7 73/45/7 75/46/7 77/47/7
f 122/48/8 124/49/8 123/50/8 121/51/8
f 60/52/2 62/53/2 61/54/2 59/55/2
f 150/56/9 152/57/9 151/58/9 149/59/9
f 10/60/8 12/18/8 11/61/8 9/62/8
f 71/63/7 65/64/7 67/65/7 69/66/7
f 150/56/5 148/67/5 146/68/5 152/69/5
f 146/70/8 148/67/8 147/71/8 145/72/8
f 134/73/9 136/74/9 135/75/9 133/76/9
f 110/9/9 112/77/9 111/78/9 109/79/9
f 54/41/5 52/80/5 50/81/5 56/82/5
f 50/83/8 52/80/8 51/31/8 49/84/8
f 20/85/2 22/86/2 21/87/2 19/88/2
f 22/89/5 20/90/5 18/91/5 24/92/5
f 88/93/4 82/94/4 81/95/4 87/96/4
f 114/97/8 116/98/8 115/99/8 113/100/8
f 46/101/9 48/102/9 47/103/9 45/104/9
f 143/105/7 137/106/7 139/107/7 141/108/7
f 170/109/8 172/110/8 171/111/8 169/112/8
f 162/113/8 164/114/8 163/115/8 161/116/8
f 82/117/8 84/118/8 83/119/8 81/120/8
f 166/121/10 164/114/10 162/122/10 168/123/10
f 178/124/8 180/125/8 179/126/8 177/127/8
f 119/128/11 113/129/11 115/99/11 117/130/11
f 46/101/10 44/131/10 42/132/10 48/133/10
f 34/134/8 36/135/8 35/136/8 33/137/8
f 87/138/7 81/139/7 83/119/7 85/140/7
f 63/141/7 57/142/7 59/39/7 61/143/7
f 70/144/5 68/145/5 66/146/5 72/147/5
f 84/148/2 86/149/2 85/150/2 83/151/2
f 94/152/5 92/153/5 90/154/5 96/155/5
f 135/156/7 129/157/7 131/158/7 133/76/7
f 167/159/12 161/160/12 163/161/12 165/162/12
f 190/163/5 188/164/5 186/165/5 192/166/5
f 23/167/7 17/168/7 19/169/7 21/170/7
f 186/171/8 188/164/8 187/172/8 185/173/8
f 38/174/5 36/135/5 34/175/5 40/176/5
f 62/177/5 60/38/5 58/178/5 64/179/5
f 2/180/8 4/181/8 3/182/8 1/183/8
f 154/184/8 156/185/8 155/186/8 153/187/8
f 86/188/9 88/189/9 87/190/9 85/140/9
f 132/191/2 134/192/2 133/193/2 131/194/2
f 142/195/5 140/196/5 138/197/5 144/198/5
f 78/199/5 76/200/5 74/201/5 80/202/5
f 130/203/8 132/204/8 131/158/8 129/205/8
f 72/206/4 66/207/4 65/208/4 71/209/4
f 66/210/8 68/145/8 67/65/8 65/211/8
f 78/199/9 80/212/9 79/213/9 77/47/9
f 142/195/9 144/214/9 143/215/9 141/108/9
f 95/216/7 89/217/7 91/218/7 93/219/7
f 6/220/5 4/181/5 2/221/5 8/222/5
f 64/223/4 58/224/4 57/225/4 63/226/4
f 96/227/4 90/228/4 89/229/4 95/230/4
f 31/231/7 25/232/7 27/233/7 29/234/7
f 24/235/4 18/236/4 17/237/4 23/238/4
f 30/239/9 32/240/9 31/241/9 29/234/9
f 39/242/7 33/243/7 35/136/7 37/244/7
f 106/245/8 108/10/8 107/246/8 105/247/8
f 70/144/9 72/248/9 71/249/9 69/66/9
f 4/250/2 6/251/2 5/252/2 3/253/2
f 126/254/9 128/255/9 127/256/9 125/257/9
f 80/258/4 74/259/4 73/260/4 79/261/4
f 42/262/8 44/131/8 43/263/8 41/264/8
f 182/265/13 180/125/13 178/266/13 184/267/13
f 118/268/14 116/98/14 114/269/14 120/270/14
f 100/271/6 102/272/6 101/273/6 99/274/6
f 127/275/15 121/276/15 123/50/15 125/257/15
f 26/277/8 28/278/8 27/233/8 25/279/8
f 184/280/16 178/281/16 177/282/16 183/283/16
f 174/284/9 176/285/9 175/286/9 173/287/9
f 140/288/2 142/289/2 141/290/2 139/291/2
f 174/284/17 172/110/17 170/292/17 176/293/17
f 111/294/18 105/295/18 107/246/18 109/79/18
f 136/296/4 130/297/4 129/298/4 135/299/4
f 62/177/9 64/300/9 63/301/9 61/143/9
f 103/302/18 97/303/18 99/304/18 101/305/18
f 48/306/19 42/307/19 41/308/19 47/309/19
f 166/121/9 168/310/9 167/311/9 165/312/9
f 47/313/12 41/314/12 43/263/12 45/104/12
f 32/315/4 26/316/4 25/317/4 31/318/4
f 118/268/9 120/319/9 119/320/9 117/130/9
f 112/321/20 106/322/20 105/323/20 111/324/20
f 102/325/3 100/326/3 98/327/3 104/328/3
f 156/329/21 158/330/21 157/331/21 155/332/21
f 188/333/2 190/334/2 189/335/2 187/336/2
f 40/337/4 34/338/4 33/339/4 39/340/4
f 98/341/8 100/326/8 99/304/8 97/342/8
f 12/343/2 14/344/2 13/345/2 11/346/2
f 18/347/8 20/90/8 19/169/8 17/348/8
f 120/349/22 114/350/22 113/351/22 119/352/22
f 92/353/2 94/354/2 93/355/2 91/356/2
f 30/239/5 28/278/5 26/357/5 32/358/5
f 56/359/4 50/360/4 49/361/4 55/362/4
f 74/363/8 76/200/8 75/46/8 73/364/8
f 191/365/7 185/366/7 187/172/7 189/367/7
f 148/368/2 150/369/2 149/370/2 147/371/2
f 44/372/23 46/373/23 45/374/23 43/375/23
f 94/152/9 96/376/9 95/377/9 93/219/9
f 90/378/8 92/153/8 91/218/8 89/379/8
f 160/380/24 154/381/24 153/382/24 159/383/24
f 158/384/9 160/385/9 159/386/9 157/387/9
f 6/220/9 8/388/9 7/389/9 5/390/9
f 158/384/25 156/185/25 154/391/25 160/392/25
f 22/89/9 24/393/9 23/394/9 21/170/9
f 182/265/9 184/395/9 183/396/9 181/397/9
f 144/398/4 138/399/4 137/400/4 143/401/4
f 86/188/5 84/118/5 82/402/5 88/403/5
f 128/404/26 122/405/26 121/406/26 127/407/26
f 124/408/27 126/409/27 125/410/27 123/411/27
f 172/412/28 174/413/28 173/414/28 171/415/28
f 180/416/29 182/417/29 181/418/29 179/419/29
f 176/420/30 170/421/30 169/422/30 175/423/30
f 116/424/31 118/425/31 117/426/31 115/427/31
f 126/254/32 124/49/32 122/428/32 128/429/32
f 151/430/7 145/431/7 147/71/7 149/59/7
f 68/432/2 70/433/2 69/434/2 67/435/2
f 164/436/33 166/437/33 165/438/33 163/439/33
f 175/440/34 169/441/34 171/442/34 173/443/34
f 102/325/9 104/444/9 103/445/9 101/305/9
f 168/446/19 162/447/19 161/448/19 167/449/19
f 15/450/7 9/451/7 11/61/7 13/452/7
f 192/453/4 186/454/4 185/455/4 191/456/4
f 14/17/9 16/457/9 15/458/9 13/452/9
f 28/459/2 30/460/2 29/461/2 27/462/2
f 138/463/8 140/196/8 139/107/8 137/464/8
f 183/465/35 177/466/35 179/467/35 181/468/35
f 190/163/9 192/469/9 191/470/9 189/367/9
f 134/73/5 132/204/5 130/471/5 136/472/5
f 152/473/4 146/474/4 145/475/4 151/476/4
f 7/477/7 1/478/7 3/182/7 5/390/7
f 36/479/2 38/480/2 37/481/2 35/482/2
f 38/174/9 40/483/9 39/484/9 37/244/9
f 104/485/20 98/486/20 97/487/20 103/488/20
