# Blender v2.79 (sub 0) OBJ File: ''
# www.blender.org
mtllib printer.mtl
o paper
v 0.312500 0.094760 0.281250
v 0.312500 0.125993 0.125000
v -0.312500 0.125993 0.125000
v -0.312500 0.094760 0.281250
v 0.312500 0.093783 0.281250
v 0.312500 0.062550 0.437510
v -0.312500 0.062550 0.437510
v -0.312500 0.093783 0.281250
v -0.312500 0.063527 0.437510
v 0.312500 0.063527 0.437510
v -0.312500 0.125017 0.125000
v 0.312500 0.125017 0.125000
v -0.312500 0.125977 -0.031250
v 0.312500 0.125977 -0.031250
v 0.312500 0.125000 -0.031250
v -0.312500 0.125000 -0.031250
v 0.312500 0.001043 0.593773
v -0.312500 0.001043 0.593773
v -0.312500 0.000067 0.593773
v 0.312500 0.000067 0.593773
v 0.312500 0.366871 -0.280827
v 0.312500 0.443869 -0.397451
v -0.312500 0.443869 -0.397451
v -0.312500 0.366871 -0.280827
v -0.312500 0.149876 -0.156673
v -0.312500 0.366382 -0.281673
v 0.312500 0.366382 -0.281673
v 0.312500 0.149876 -0.156673
v 0.312500 0.150364 -0.155827
v -0.312500 0.150364 -0.155827
v -0.312500 0.443380 -0.398296
v 0.312500 0.443380 -0.398296
v -0.312500 0.477732 -0.524797
v 0.312500 0.477732 -0.524797
v 0.312500 0.477243 -0.525643
v -0.312500 0.477243 -0.525643
v 0.312500 0.368824 -0.277444
v 0.312500 0.445822 -0.394068
v -0.312500 0.445822 -0.394068
v -0.312500 0.368824 -0.277444
v -0.312500 0.151829 -0.153290
v -0.312500 0.368336 -0.278290
v 0.312500 0.368336 -0.278290
v 0.312500 0.151829 -0.153290
v 0.312500 0.152318 -0.152444
v -0.312500 0.152318 -0.152444
v -0.312500 0.445333 -0.394913
v 0.312500 0.445333 -0.394913
v -0.312500 0.479685 -0.521414
v 0.312500 0.479685 -0.521414
v 0.312500 0.479196 -0.522260
v -0.312500 0.479196 -0.522260
v 0.312500 0.370777 -0.274061
v 0.312500 0.447775 -0.390685
v -0.312500 0.447775 -0.390685
v -0.312500 0.370777 -0.274061
v -0.312500 0.153782 -0.149907
v -0.312500 0.370289 -0.274907
v 0.312500 0.370289 -0.274907
v 0.312500 0.153782 -0.149907
v 0.312500 0.154271 -0.149061
v -0.312500 0.154271 -0.149061
v -0.312500 0.447286 -0.391530
v 0.312500 0.447286 -0.391530
v -0.312500 0.481638 -0.518031
v 0.312500 0.481638 -0.518031
v 0.312500 0.481150 -0.518877
v -0.312500 0.481150 -0.518877
v 0.312500 0.372730 -0.270678
v 0.312500 0.449728 -0.387302
v -0.312500 0.449728 -0.387302
v -0.312500 0.372730 -0.270678
v -0.312500 0.155735 -0.146524
v -0.312500 0.372242 -0.271524
v 0.312500 0.372242 -0.271524
v 0.312500 0.155735 -0.146524
v 0.312500 0.156224 -0.145678
v -0.312500 0.156224 -0.145678
v -0.312500 0.449240 -0.388148
v 0.312500 0.449240 -0.388148
v -0.312500 0.483591 -0.514648
v 0.312500 0.483591 -0.514648
v 0.312500 0.483103 -0.515494
v -0.312500 0.483103 -0.515494
v 0.312500 0.374683 -0.267295
v 0.312500 0.451681 -0.383919
v -0.312500 0.451681 -0.383919
v -0.312500 0.374683 -0.267295
v -0.312500 0.157689 -0.143141
v -0.312500 0.374195 -0.268141
v 0.312500 0.374195 -0.268141
v 0.312500 0.157689 -0.143141
v 0.312500 0.158177 -0.142295
v -0.312500 0.158177 -0.142295
v -0.312500 0.451193 -0.384765
v 0.312500 0.451193 -0.384765
v -0.312500 0.485544 -0.511265
v 0.312500 0.485544 -0.511265
v 0.312500 0.485056 -0.512111
v -0.312500 0.485056 -0.512111
v 0.312500 0.376636 -0.263913
v 0.312500 0.453634 -0.380536
v -0.312500 0.453634 -0.380536
v -0.312500 0.376636 -0.263913
v -0.312500 0.159642 -0.139758
v -0.312500 0.376148 -0.264758
v 0.312500 0.376148 -0.264758
v 0.312500 0.159642 -0.139758
v 0.312500 0.160130 -0.138913
v -0.312500 0.160130 -0.138913
v -0.312500 0.453146 -0.381382
v 0.312500 0.453146 -0.381382
v -0.312500 0.487497 -0.507882
v 0.312500 0.487497 -0.507882
v 0.312500 0.487009 -0.508728
v -0.312500 0.487009 -0.508728
v 0.312500 0.378589 -0.260530
v 0.312500 0.455587 -0.377153
v -0.312500 0.455587 -0.377153
v -0.312500 0.378589 -0.260530
v -0.312500 0.161595 -0.136375
v -0.312500 0.378101 -0.261375
v 0.312500 0.378101 -0.261375
v 0.312500 0.161595 -0.136375
v 0.312500 0.162083 -0.135530
v -0.312500 0.162083 -0.135530
v -0.312500 0.455099 -0.377999
v 0.312500 0.455099 -0.377999
v -0.312500 0.489450 -0.504499
v 0.312500 0.489450 -0.504499
v 0.312500 0.488962 -0.505345
v -0.312500 0.488962 -0.505345
v 0.312500 0.380543 -0.257147
v 0.312500 0.457540 -0.373770
v -0.312500 0.457540 -0.373770
v -0.312500 0.380543 -0.257147
v -0.312500 0.163548 -0.132992
v -0.312500 0.380054 -0.257992
v 0.312500 0.380054 -0.257992
v 0.312500 0.163548 -0.132992
v 0.312500 0.164036 -0.132147
v -0.312500 0.164036 -0.132147
v -0.312500 0.457052 -0.374616
v 0.312500 0.457052 -0.374616
v -0.312500 0.491403 -0.501116
v 0.312500 0.491403 -0.501116
v 0.312500 0.490915 -0.501962
v -0.312500 0.490915 -0.501962
v 0.312500 0.098666 0.277344
v 0.312500 0.129899 0.121094
v -0.312500 0.129899 0.121094
v -0.312500 0.098666 0.277344
v 0.312500 0.097690 0.277344
v 0.312500 0.066456 0.433604
v -0.312500 0.066456 0.433604
v -0.312500 0.097690 0.277344
v -0.312500 0.067433 0.433604
v 0.312500 0.067433 0.433604
v -0.312500 0.128923 0.121094
v 0.312500 0.128923 0.121094
v -0.312500 0.129883 -0.035156
v 0.312500 0.129883 -0.035156
v 0.312500 0.128906 -0.035156
v -0.312500 0.128906 -0.035156
v 0.312500 0.004949 0.589867
v -0.312500 0.004949 0.589867
v -0.312500 0.003973 0.589867
v 0.312500 0.003973 0.589867
vt 0.500000 0.398438
vt 0.500000 0.574219
vt 0.000000 0.574219
vt 0.000000 0.398438
vt 0.984375 0.812500
vt 0.984375 0.820312
vt 0.953125 0.820312
vt 0.953125 0.812500
vt 0.000000 0.222656
vt 0.500000 0.222656
vt 0.953125 0.804688
vt 0.984375 0.804688
vt 0.000000 0.750000
vt 0.500000 0.750000
vt 0.984375 0.796875
vt 0.953125 0.796875
vt 0.500000 0.046875
vt 0.000000 0.046875
vt 0.953125 0.828125
vt 0.984375 0.828125
vt 0.984375 0.812500
vt 0.984375 0.820312
vt 0.953125 0.820312
vt 0.953125 0.812500
vt 0.953125 0.828125
vt 0.953125 0.812500
vt 0.984375 0.812500
vt 0.984375 0.828125
vt 0.984375 0.796875
vt 0.953125 0.796875
vt 0.953125 0.804688
vt 0.984375 0.804688
vt 0.953125 0.828125
vt 0.984375 0.828125
vt 0.984375 0.796875
vt 0.953125 0.796875
vt 0.984375 0.812500
vt 0.984375 0.820312
vt 0.953125 0.820312
vt 0.953125 0.812500
vt 0.953125 0.828125
vt 0.953125 0.812500
vt 0.984375 0.812500
vt 0.984375 0.828125
vt 0.984375 0.796875
vt 0.953125 0.796875
vt 0.953125 0.804688
vt 0.984375 0.804688
vt 0.953125 0.828125
vt 0.984375 0.828125
vt 0.984375 0.796875
vt 0.953125 0.796875
vt 0.984375 0.812500
vt 0.984375 0.820312
vt 0.953125 0.820312
vt 0.953125 0.812500
vt 0.953125 0.828125
vt 0.953125 0.812500
vt 0.984375 0.812500
vt 0.984375 0.828125
vt 0.984375 0.796875
vt 0.953125 0.796875
vt 0.953125 0.804688
vt 0.984375 0.804688
vt 0.953125 0.828125
vt 0.984375 0.828125
vt 0.984375 0.796875
vt 0.953125 0.796875
vt 0.984375 0.812500
vt 0.984375 0.820312
vt 0.953125 0.820312
vt 0.953125 0.812500
vt 0.953125 0.828125
vt 0.953125 0.812500
vt 0.984375 0.812500
vt 0.984375 0.828125
vt 0.984375 0.796875
vt 0.953125 0.796875
vt 0.953125 0.804688
vt 0.984375 0.804688
vt 0.953125 0.828125
vt 0.984375 0.828125
vt 0.984375 0.796875
vt 0.953125 0.796875
vt 0.984375 0.812500
vt 0.984375 0.820312
vt 0.953125 0.820312
vt 0.953125 0.812500
vt 0.953125 0.828125
vt 0.953125 0.812500
vt 0.984375 0.812500
vt 0.984375 0.828125
vt 0.984375 0.796875
vt 0.953125 0.796875
vt 0.953125 0.804688
vt 0.984375 0.804688
vt 0.953125 0.828125
vt 0.984375 0.828125
vt 0.984375 0.796875
vt 0.953125 0.796875
vt 0.984375 0.812500
vt 0.984375 0.820312
vt 0.953125 0.820312
vt 0.953125 0.812500
vt 0.953125 0.828125
vt 0.953125 0.812500
vt 0.984375 0.812500
vt 0.984375 0.828125
vt 0.984375 0.796875
vt 0.953125 0.796875
vt 0.953125 0.804688
vt 0.984375 0.804688
vt 0.953125 0.828125
vt 0.984375 0.828125
vt 0.984375 0.796875
vt 0.953125 0.796875
vt 0.984375 0.812500
vt 0.984375 0.820312
vt 0.953125 0.820312
vt 0.953125 0.812500
vt 0.953125 0.828125
vt 0.953125 0.812500
vt 0.984375 0.812500
vt 0.984375 0.828125
vt 0.984375 0.796875
vt 0.953125 0.796875
vt 0.953125 0.804688
vt 0.984375 0.804688
vt 0.953125 0.828125
vt 0.984375 0.828125
vt 0.984375 0.796875
vt 0.953125 0.796875
vt 0.984375 0.812500
vt 0.984375 0.820312
vt 0.953125 0.820312
vt 0.953125 0.812500
vt 0.953125 0.828125
vt 0.953125 0.812500
vt 0.984375 0.812500
vt 0.984375 0.828125
vt 0.984375 0.796875
vt 0.953125 0.796875
vt 0.953125 0.804688
vt 0.984375 0.804688
vt 0.953125 0.828125
vt 0.984375 0.828125
vt 0.984375 0.796875
vt 0.953125 0.796875
vt 1.000000 0.398438
vt 1.000000 0.574219
vt 0.500000 0.574219
vt 0.500000 0.398438
vt 0.984375 0.812500
vt 0.984375 0.820312
vt 0.953125 0.820312
vt 0.953125 0.812500
vt 0.500000 0.222656
vt 1.000000 0.222656
vt 0.953125 0.804688
vt 0.984375 0.804688
vt 0.500000 0.750000
vt 1.000000 0.750000
vt 0.984375 0.796875
vt 0.953125 0.796875
vt 1.000000 0.046875
vt 0.500000 0.046875
vt 0.953125 0.828125
vt 0.984375 0.828125
vn 0.0000 0.9806 0.1960
vn 0.0000 -0.9806 -0.1960
vn 0.0000 1.0000 -0.0001
vn 0.0000 -1.0000 0.0001
vn 0.0000 0.9285 0.3713
vn 0.0000 -0.9285 -0.3713
vn 0.0000 0.8345 0.5510
vn 0.0000 -0.5000 -0.8660
vn 0.0000 0.5000 0.8660
vn 0.0000 -0.8345 -0.5510
vn 0.0000 0.9664 0.2570
vn 0.0000 -0.9664 -0.2570
usemtl m_0
s 1
f 1/1/1 2/2/1 3/3/1 4/4/1
f 5/5/2 6/6/2 7/7/2 8/8/2
f 4/4/1 9/9/1 10/10/1 1/1/1
f 8/8/2 11/11/2 12/12/2 5/5/2
f 13/13/3 3/3/3 2/2/3 14/14/3
f 15/15/4 12/12/4 11/11/4 16/16/4
f 17/17/5 10/10/5 9/9/5 18/18/5
f 19/19/6 7/7/6 6/6/6 20/20/6
f 21/21/7 22/22/7 23/23/7 24/24/7
f 25/25/8 26/26/8 27/27/8 28/28/8
f 29/29/9 21/21/9 24/24/9 30/30/9
f 26/26/10 31/31/10 32/32/10 27/27/10
f 33/33/11 23/23/11 22/22/11 34/34/11
f 35/35/12 32/32/12 31/31/12 36/36/12
f 37/37/7 38/38/7 39/39/7 40/40/7
f 41/41/8 42/42/8 43/43/8 44/44/8
f 45/45/9 37/37/9 40/40/9 46/46/9
f 42/42/10 47/47/10 48/48/10 43/43/10
f 49/49/11 39/39/11 38/38/11 50/50/11
f 51/51/12 48/48/12 47/47/12 52/52/12
f 53/53/7 54/54/7 55/55/7 56/56/7
f 57/57/8 58/58/8 59/59/8 60/60/8
f 61/61/9 53/53/9 56/56/9 62/62/9
f 58/58/10 63/63/10 64/64/10 59/59/10
f 65/65/11 55/55/11 54/54/11 66/66/11
f 67/67/12 64/64/12 63/63/12 68/68/12
f 69/69/7 70/70/7 71/71/7 72/72/7
f 73/73/8 74/74/8 75/75/8 76/76/8
f 77/77/9 69/69/9 72/72/9 78/78/9
f 74/74/10 79/79/10 80/80/10 75/75/10
f 81/81/11 71/71/11 70/70/11 82/82/11
f 83/83/12 80/80/12 79/79/12 84/84/12
f 85/85/7 86/86/7 87/87/7 88/88/7
f 89/89/8 90/90/8 91/91/8 92/92/8
f 93/93/9 85/85/9 88/88/9 94/94/9
f 90/90/10 95/95/10 96/96/10 91/91/10
f 97/97/11 87/87/11 86/86/11 98/98/11
f 99/99/12 96/96/12 95/95/12 100/100/12
f 101/101/7 102/102/7 103/103/7 104/104/7
f 105/105/8 106/106/8 107/107/8 108/108/8
f 109/109/9 101/101/9 104/104/9 110/110/9
f 106/106/10 111/111/10 112/112/10 107/107/10
f 113/113/11 103/103/11 102/102/11 114/114/11
f 115/115/12 112/112/12 111/111/12 116/116/12
f 117/117/7 118/118/7 119/119/7 120/120/7
f 121/121/8 122/122/8 123/123/8 124/124/8
f 125/125/9 117/117/9 120/120/9 126/126/9
f 122/122/10 127/127/10 128/128/10 123/123/10
f 129/129/11 119/119/11 118/118/11 130/130/11
f 131/131/12 128/128/12 127/127/12 132/132/12
f 133/133/7 134/134/7 135/135/7 136/136/7
f 137/137/8 138/138/8 139/139/8 140/140/8
f 141/141/9 133/133/9 136/136/9 142/142/9
f 138/138/10 143/143/10 144/144/10 139/139/10
f 145/145/11 135/135/11 134/134/11 146/146/11
f 147/147/12 144/144/12 143/143/12 148/148/12
f 149/149/1 150/150/1 151/151/1 152/152/1
f 153/153/2 154/154/2 155/155/2 156/156/2
f 152/152/1 157/157/1 158/158/1 149/149/1
f 156/156/2 159/159/2 160/160/2 153/153/2
f 161/161/3 151/151/3 150/150/3 162/162/3
f 163/163/4 160/160/4 159/159/4 164/164/4
f 165/165/5 158/158/5 157/157/5 166/166/5
f 167/167/6 155/155/6 154/154/6 168/168/6
o cube
v 0.375000 0.062500 -0.005132
v 0.375000 0.106694 0.039063
v 0.375000 0.062500 0.083257
v 0.375000 0.018306 0.039062
v -0.375000 0.062500 0.083257
v -0.375000 0.106694 0.039063
v -0.375000 0.062500 -0.005132
v -0.375000 0.018306 0.039062
v -0.375000 0.312500 0.044194
v -0.375000 0.356694 -0.062500
v -0.375000 0.312500 -0.106694
v -0.375000 0.268306 0.000000
v 0.375000 0.312500 -0.106694
v 0.375000 0.356694 -0.062500
v 0.375000 0.312500 0.044194
v 0.375000 0.268306 0.000000
v 0.375000 0.312500 -0.356694
v 0.375000 0.356694 -0.312500
v 0.375000 0.312500 -0.268306
v 0.375000 0.268306 -0.312500
v -0.375000 0.312500 -0.268306
v -0.375000 0.356694 -0.312500
v -0.375000 0.312500 -0.356694
v -0.375000 0.268306 -0.312500
v 0.406250 0.390625 -0.015625
v 0.406250 0.390625 0.195313
v 0.406250 0.265625 0.234375
v 0.406250 0.265625 -0.015625
v -0.406250 0.265625 0.234375
v -0.406250 0.390625 0.195313
v -0.406250 0.390625 -0.015625
v -0.406250 0.265625 -0.015625
v 0.312500 0.406250 -0.406250
v 0.312500 0.390625 -0.328125
v 0.375000 0.375000 -0.312500
v 0.375000 0.375000 -0.437500
v -0.375000 0.375000 -0.312500
v -0.312500 0.390625 -0.328125
v -0.312500 0.406250 -0.406250
v -0.375000 0.375000 -0.437500
v 0.468750 0.250000 -0.375000
v 0.468750 0.250000 0.000000
v 0.468750 0.000977 0.062500
v 0.468750 0.000977 -0.375000
v -0.468750 0.000977 0.062500
v -0.468750 0.250000 0.000000
v -0.468750 0.250000 -0.375000
v -0.468750 0.000977 -0.375000
v 0.375000 0.406250 0.156250
v 0.375000 0.406250 0.210938
v 0.375000 0.343750 0.234375
v 0.375000 0.343750 0.156250
v -0.250000 0.343750 0.234375
v -0.250000 0.406250 0.210938
v -0.250000 0.406250 0.156250
v -0.250000 0.343750 0.156250
v -0.250000 0.406250 0.156250
v -0.250000 0.406250 0.210938
v -0.250000 0.343750 0.234375
v -0.250000 0.343750 0.156250
v -0.375000 0.343750 0.234375
v -0.375000 0.406250 0.210938
v -0.375000 0.406250 0.156250
v -0.375000 0.343750 0.156250
v -0.375000 0.203125 0.083257
v -0.375000 0.247319 0.039063
v -0.375000 0.203125 -0.005132
v -0.375000 0.158931 0.039063
v 0.375000 0.203125 -0.005132
v 0.375000 0.247319 0.039063
v 0.375000 0.203125 0.083257
v 0.375000 0.158931 0.039063
v 0.437500 0.375000 -0.437500
v 0.437500 0.375000 0.187500
v 0.437500 -0.000000 0.312500
v 0.437500 0.000000 -0.437500
v -0.437500 -0.000000 0.312500
v -0.437500 0.375000 0.187500
v -0.437500 0.375000 -0.437500
v -0.437500 0.000000 -0.437500
v -0.375000 0.312500 -0.062500
v 0.375000 0.312500 -0.062500
v 0.375000 0.312500 -0.312500
v -0.375000 0.312500 -0.312500
v 0.375000 0.062500 0.039528
v 0.375000 0.203125 0.036321
v -0.375000 0.203125 0.036321
v -0.375000 0.062500 0.039528
v 0.375000 0.203125 0.246560
v 0.375000 0.062500 0.292736
v -0.375000 0.203125 0.246560
v -0.375000 0.062500 0.292736
v 0.375000 0.375000 -0.062500
v -0.375000 0.375000 -0.062500
v 0.375000 0.375000 -0.312500
v -0.375000 0.375000 -0.312500
vt 0.546875 0.906250
vt 0.531250 0.906250
vt 0.531250 0.890625
vt 0.546875 0.890625
vt 0.531250 0.890625
vt 0.531250 0.906250
vt 0.515625 0.906250
vt 0.515625 0.890625
vt 0.515625 0.890625
vt 0.703125 0.890625
vt 0.703125 0.906250
vt 0.703125 0.890625
vt 0.703125 0.906250
vt 0.515625 0.906250
vt 0.703125 0.890625
vt 0.703125 0.906250
vt 0.515625 0.906250
vt 0.515625 0.890625
vt 0.703125 0.906250
vt 0.515625 0.906250
vt 0.515625 0.890625
vt 0.703125 0.890625
vt 0.531250 0.890625
vt 0.531250 0.906250
vt 0.546875 0.906250
vt 0.546875 0.890625
vt 0.515625 0.906250
vt 0.531250 0.906250
vt 0.531250 0.890625
vt 0.515625 0.890625
vt 0.703125 0.906250
vt 0.703125 0.890625
vt 0.515625 0.890625
vt 0.515625 0.906250
vt 0.703125 0.906250
vt 0.703125 0.890625
vt 0.515625 0.906250
vt 0.703125 0.906250
vt 0.703125 0.890625
vt 0.515625 0.890625
vt 0.515625 0.890625
vt 0.515625 0.906250
vt 0.703125 0.906250
vt 0.703125 0.890625
vt 0.546875 0.906250
vt 0.531250 0.906250
vt 0.531250 0.890625
vt 0.546875 0.890625
vt 0.531250 0.890625
vt 0.531250 0.906250
vt 0.515625 0.906250
vt 0.515625 0.890625
vt 0.515625 0.890625
vt 0.703125 0.890625
vt 0.703125 0.906250
vt 0.703125 0.890625
vt 0.703125 0.906250
vt 0.515625 0.906250
vt 0.703125 0.890625
vt 0.703125 0.906250
vt 0.515625 0.906250
vt 0.515625 0.890625
vt 0.703125 0.906250
vt 0.515625 0.906250
vt 0.515625 0.890625
vt 0.703125 0.890625
vt 0.359375 0.937500
vt 0.306641 0.937500
vt 0.296875 0.906250
vt 0.359375 0.906250
vt 0.359375 0.906250
vt 0.349609 0.937500
vt 0.296875 0.937500
vt 0.296875 0.906250
vt 0.296875 0.884766
vt 0.500000 0.884766
vt 0.500000 0.937500
vt 0.500000 0.875000
vt 0.500000 0.937500
vt 0.296875 0.937500
vt 0.296875 0.875000
vt 0.500000 0.889134
vt 0.500000 0.921875
vt 0.296875 0.921875
vt 0.296875 0.889134
vt 0.500000 0.937500
vt 0.296875 0.937500
vt 0.296875 0.906250
vt 0.500000 0.906250
vt 0.300387 0.875000
vt 0.281250 0.869475
vt 0.281250 0.852904
vt 0.311018 0.860269
vt 0.308322 0.846551
vt 0.321760 0.856249
vt 0.315041 0.875000
vt 0.296875 0.875000
vt 0.281250 0.839456
vt 0.437500 0.839456
vt 0.437500 0.859375
vt 0.281250 0.859375
vt 0.468750 0.828125
vt 0.468750 0.859375
vt 0.281250 0.859375
vt 0.281250 0.828125
vt 0.468750 0.822602
vt 0.453125 0.828125
vt 0.296875 0.828125
vt 0.281250 0.822602
vt 0.453125 0.812500
vt 0.296875 0.812500
vt 0.281250 0.801452
vt 0.468750 0.801452
vt 0.359375 0.890625
vt 0.265625 0.890625
vt 0.250000 0.828125
vt 0.359375 0.828125
vt 0.359375 0.828125
vt 0.343750 0.890625
vt 0.250000 0.890625
vt 0.250000 0.828125
vt 0.265625 0.796875
vt 0.500000 0.796875
vt 0.500000 0.890625
vt 0.265625 0.890625
vt 0.500000 0.796875
vt 0.500000 0.906250
vt 0.265625 0.906250
vt 0.265625 0.796875
vt 0.500000 0.826202
vt 0.500000 0.890625
vt 0.265625 0.890625
vt 0.265625 0.826202
vt 0.500000 0.890625
vt 0.265625 0.890625
vt 0.265625 0.828125
vt 0.500000 0.828125
vt 0.128906 0.875000
vt 0.115234 0.875000
vt 0.109375 0.859375
vt 0.128906 0.859375
vt 0.128906 0.859375
vt 0.123047 0.875000
vt 0.109375 0.875000
vt 0.109375 0.859375
vt 0.531250 0.828125
vt 0.671875 0.828125
vt 0.671875 0.843750
vt 0.531250 0.843750
vt 0.671875 0.812500
vt 0.671875 0.843750
vt 0.531250 0.843750
vt 0.531250 0.812500
vt 0.671875 0.812500
vt 0.531250 0.812500
vt 0.671875 0.843750
vt 0.531250 0.843750
vt 0.531250 0.812500
vt 0.671875 0.812500
vt 0.335938 0.921875
vt 0.316406 0.921875
vt 0.312500 0.906250
vt 0.335938 0.906250
vt 0.351562 0.906250
vt 0.347656 0.921875
vt 0.328125 0.921875
vt 0.328125 0.906250
vt 0.281250 0.830078
vt 0.312500 0.830078
vt 0.312500 0.843750
vt 0.281250 0.843750
vt 0.375000 0.787109
vt 0.375000 0.812500
vt 0.343750 0.812500
vt 0.343750 0.787109
vt 0.750000 0.812500
vt 0.750000 0.843750
vt 0.687500 0.843750
vt 0.687500 0.812500
vt 0.750000 0.843750
vt 0.687500 0.843750
vt 0.687500 0.812500
vt 0.750000 0.812500
vt 0.531250 0.890625
vt 0.531250 0.906250
vt 0.546875 0.906250
vt 0.546875 0.890625
vt 0.515625 0.906250
vt 0.531250 0.906250
vt 0.531250 0.890625
vt 0.515625 0.890625
vt 0.703125 0.906250
vt 0.703125 0.890625
vt 0.515625 0.890625
vt 0.515625 0.906250
vt 0.703125 0.906250
vt 0.703125 0.890625
vt 0.515625 0.906250
vt 0.703125 0.906250
vt 0.703125 0.890625
vt 0.515625 0.890625
vt 0.515625 0.890625
vt 0.515625 0.906250
vt 0.703125 0.906250
vt 0.703125 0.890625
vt 0.234375 0.984375
vt 0.078125 0.984375
vt 0.046875 0.890625
vt 0.234375 0.890625
vt 0.218750 0.890625
vt 0.187500 0.984375
vt 0.031250 0.984375
vt 0.031250 0.890625
vt 0.984375 0.890625
vt 0.953125 0.890625
vt 0.953125 0.859375
vt 0.984375 0.859375
vt 0.234375 0.765625
vt 0.234375 0.953125
vt 0.015625 0.953125
vt 0.015625 0.765625
vt 0.984375 0.859375
vt 0.984375 0.890625
vt 0.953125 0.890625
vt 0.953125 0.859375
vt 0.718750 1.000000
vt 0.500000 1.000000
vt 0.500000 0.906250
vt 0.718750 0.906250
vt 0.194014 1.000000
vt 0.157011 1.000000
vt 0.140625 0.984374
vt 0.239446 0.984371
vt 0.015625 0.892064
vt 0.203125 0.892064
vt 0.218750 0.937500
vt 0.000000 0.937500
vt 0.125015 0.917567
vt 0.125015 0.954570
vt 0.109375 1.000000
vt 0.109397 0.901180
vt 0.203125 1.000000
vt 0.015625 1.000000
vt 0.000000 0.983612
vt 0.218750 0.983612
vt 0.078125 0.984377
vt 0.078125 0.796876
vt 0.140624 0.781250
vt 0.140626 1.000000
vt 0.203124 0.796875
vt 0.203124 0.859375
vt 0.187500 0.921875
vt 0.187500 0.765624
vt 0.093751 0.796874
vt 0.093751 0.984374
vt 0.062501 1.000000
vt 0.062500 0.781251
vt 0.078125 0.921874
vt 0.140625 0.921874
vt 0.171876 0.937500
vt 0.015625 0.937498
vt 0.000000 0.859375
vt 0.187500 0.859375
vt 0.187500 0.875000
vt 0.000000 0.875000
vt 0.109375 0.921875
vt 0.171875 0.921875
vt 0.171875 0.937500
vt 0.109375 0.937500
vt 0.000000 0.984375
vt 0.187500 0.984375
vt 0.187500 1.000000
vt 0.000000 1.000000
vt 0.015625 0.921875
vt 0.078125 0.921875
vt 0.078125 0.937500
vt 0.015625 0.937500
vt 0.015625 0.906250
vt 0.016428 0.871094
vt 0.079730 0.871094
vt 0.068186 0.906250
vt 0.000000 0.884939
vt 0.187500 0.884939
vt 0.187500 0.937500
vt 0.000000 0.937500
vt 0.141427 0.933594
vt 0.142230 0.968750
vt 0.089669 0.968750
vt 0.078125 0.933594
vt 0.187500 1.000000
vt 0.000000 1.000000
vt 0.000000 0.936698
vt 0.187500 0.936698
vn 1.0000 0.0000 0.0000
vn -1.0000 0.0000 0.0000
vn 0.0000 0.7071 -0.7071
vn 0.0000 -0.7071 0.7071
vn 0.0000 0.7071 0.7071
vn 0.0000 -0.7071 -0.7071
vn 0.0000 0.9239 0.3827
vn 0.0000 -0.9239 -0.3827
vn 0.0000 1.0000 0.0000
vn 0.0000 -1.0000 0.0000
vn 0.0000 0.2983 0.9545
vn 0.0000 0.0000 -1.0000
vn 0.1925 0.9623 0.1924
vn 0.1924 0.9622 0.1925
vn -0.1924 0.9622 0.1925
vn -0.1925 0.9623 0.1924
vn 0.0000 0.9806 0.1961
vn 0.0000 0.2434 0.9699
vn 0.0000 0.3511 0.9363
vn 0.0000 0.0228 0.9997
vn 0.0115 0.3119 0.9500
vn 0.0115 0.3120 0.9500
vn 0.0000 0.3250 0.9457
vn -0.0398 0.3117 0.9493
vn 0.0000 0.3015 0.9535
vn 0.0000 -0.0000 1.0000
usemtl m_0
s 1
f 169/169/13 170/170/13 171/171/13 172/172/13
f 173/173/14 174/174/14 175/175/14 176/176/14
f 174/177/15 170/178/15 169/179/15 175/175/15
f 172/180/16 171/181/16 173/182/16 176/176/16
f 171/183/17 170/184/17 174/185/17 173/186/17
f 175/187/18 169/188/18 172/189/18 176/190/18
f 177/191/14 178/192/14 179/193/14 180/194/14
f 181/195/13 182/196/13 183/197/13 184/198/13
f 179/199/15 178/200/15 182/201/15 181/195/15
f 183/202/16 177/203/16 180/204/16 184/198/16
f 182/205/19 178/206/19 177/207/19 183/208/19
f 180/209/20 179/210/20 181/211/20 184/212/20
f 185/213/13 186/214/13 187/215/13 188/216/13
f 189/217/14 190/218/14 191/219/14 192/220/14
f 190/221/15 186/222/15 185/223/15 191/219/15
f 188/224/16 187/225/16 189/226/16 192/220/16
f 187/227/17 186/228/17 190/229/17 189/230/17
f 191/231/18 185/232/18 188/233/18 192/234/18
f 193/235/13 194/236/13 195/237/13 196/238/13
f 197/239/14 198/240/14 199/241/14 200/242/14
f 198/243/21 194/244/21 193/245/21 199/241/21
f 196/246/22 195/247/22 197/248/22 200/249/22
f 195/250/23 194/251/23 198/252/23 197/253/23
f 199/254/24 193/255/24 196/256/24 200/257/24
f 201/258/25 202/259/25 203/260/26 204/261/25
f 205/262/27 206/263/28 207/264/28 208/265/28
f 206/266/29 202/267/29 201/268/29 207/269/29
f 204/270/22 203/271/22 205/272/22 208/273/22
f 203/274/17 202/275/17 206/276/17 205/277/17
f 207/278/15 201/279/15 204/280/15 208/281/15
f 209/282/13 210/283/13 211/284/13 212/285/13
f 213/286/14 214/287/14 215/288/14 216/289/14
f 214/290/21 210/291/21 209/292/21 215/293/21
f 212/294/22 211/295/22 213/296/22 216/297/22
f 211/298/30 210/299/30 214/300/30 213/301/30
f 215/302/24 209/303/24 212/304/24 216/305/24
f 217/306/13 218/307/13 219/308/13 220/309/13
f 221/310/14 222/311/14 223/312/14 224/313/14
f 222/314/21 218/315/21 217/316/21 223/317/21
f 220/318/22 219/319/22 221/320/22 224/321/22
f 219/322/31 218/315/31 222/314/31 221/323/31
f 223/324/24 217/325/24 220/326/24 224/327/24
f 225/328/13 226/329/13 227/330/13 228/331/13
f 229/332/14 230/333/14 231/334/14 232/335/14
f 230/336/21 226/337/21 225/338/21 231/339/21
f 228/340/22 227/341/22 229/342/22 232/343/22
f 227/344/31 226/345/31 230/346/31 229/347/31
f 231/348/24 225/349/24 228/350/24 232/351/24
f 233/352/14 234/353/14 235/354/14 236/355/14
f 237/356/13 238/357/13 239/358/13 240/359/13
f 235/360/15 234/361/15 238/362/15 237/356/15
f 239/363/16 233/364/16 236/365/16 240/359/16
f 238/366/17 234/367/17 233/368/17 239/369/17
f 236/370/18 235/371/18 237/372/18 240/373/18
f 241/374/13 242/375/13 243/376/13 244/377/13
f 245/378/14 246/379/14 247/380/14 248/381/14
f 249/382/21 250/383/21 251/384/21 252/385/21
f 244/386/22 243/387/22 245/388/22 248/389/22
f 253/390/32 254/391/32 255/392/32 256/393/32
f 247/394/24 241/395/24 244/396/24 248/397/24
f 257/398/33 258/399/33 243/400/33 242/401/34
f 259/402/35 257/403/35 242/404/35 246/405/35
f 260/406/36 259/407/36 246/408/36 245/409/36
f 258/410/37 260/411/37 245/412/37 243/413/37
f 261/414/21 262/415/21 246/416/21 242/417/21
f 263/418/21 261/419/21 242/420/21 241/421/21
f 264/422/21 263/423/21 241/424/21 247/425/21
f 262/426/21 264/427/21 247/428/21 246/429/21
f 250/430/24 249/431/24 262/432/24 261/433/24
f 251/434/14 250/435/14 261/436/14 263/437/14
f 252/438/38 251/439/38 263/440/38 264/441/38
f 249/442/13 252/443/13 264/444/13 262/445/13
f 254/446/14 253/447/14 258/448/14 257/449/14
f 255/450/22 254/451/22 257/452/22 259/453/22
f 256/454/13 255/455/13 259/456/13 260/457/13
f 253/458/21 256/459/21 260/460/21 258/461/21
