# Blender v2.78 (sub 0) OBJ File: ''
# www.blender.org
mtllib robot.mtl
o Head
v -0.256250 1.396639 0.287947
v 0.243750 1.396639 0.287947
v 0.243750 1.873498 0.438300
v -0.256250 1.873498 0.438300
v -0.256250 1.546992 -0.188911
v -0.256250 2.023851 -0.038558
v 0.243750 1.546992 -0.188911
v 0.243750 2.023851 -0.038558
v -0.271875 1.377039 0.298151
v 0.259375 1.377039 0.298151
v 0.259375 1.883701 0.457901
v -0.271875 1.883701 0.457900
v -0.271875 1.536789 -0.208512
v -0.271875 2.043451 -0.048762
v 0.259375 1.536789 -0.208511
v 0.259375 2.043451 -0.048762
vt 0.1250 0.7500
vt 0.2500 0.7500
vt 0.2500 0.8750
vt 0.1250 0.8750
vt 0.0000 0.7500
vt 0.0000 0.8750
vt 0.3750 0.7500
vt 0.5000 0.7500
vt 0.5000 0.8750
vt 0.3750 0.8750
vt 0.2500 1.0000
vt 0.1250 1.0000
vt 0.3750 0.8750
vt 0.2500 0.8750
vt 0.2500 1.0000
vt 0.3750 1.0000
vt 0.6250 0.7500
vt 0.7500 0.7500
vt 0.7500 0.8750
vt 0.6250 0.8750
vt 0.5000 0.7500
vt 0.5000 0.8750
vt 0.8750 0.7500
vt 1.0000 0.7500
vt 1.0000 0.8750
vt 0.8750 0.8750
vt 0.7500 1.0000
vt 0.6250 1.0000
vt 0.8750 0.8750
vt 0.7500 0.8750
vt 0.7500 1.0000
vt 0.8750 1.0000
vn -0.0000 -0.3007 0.9537
vn -1.0000 0.0000 -0.0000
vn 0.0000 0.3007 -0.9537
vn 1.0000 0.0000 0.0000
vn -0.0000 0.9537 0.3007
vn 0.0000 -0.9537 -0.3007
usemtl m_0
s 1
f 1/1/1 2/2/1 3/3/1 4/4/1
f 5/5/2 1/1/2 4/4/2 6/6/2
f 7/7/3 5/8/3 6/9/3 8/10/3
f 2/2/4 7/7/4 8/10/4 3/3/4
f 8/11/5 6/12/5 4/4/5 3/3/5
f 2/13/6 1/14/6 5/15/6 7/16/6
f 9/17/1 10/18/1 11/19/1 12/20/1
f 13/21/2 9/17/2 12/20/2 14/22/2
f 15/23/3 13/24/3 14/25/3 16/26/3
f 10/18/4 15/23/4 16/26/4 11/19/4
f 16/27/5 14/28/5 12/20/5 11/19/5
f 10/29/6 9/30/6 13/31/6 15/32/6
o Body
v -0.256250 0.728211 0.124049
v 0.243750 0.728211 0.124049
v 0.243750 1.475357 0.189415
v -0.256250 1.475357 0.189415
v -0.256250 0.750000 -0.125000
v -0.256250 1.497146 -0.059633
v 0.243750 0.750000 -0.125000
v 0.243750 1.497146 -0.059633
v -0.271875 0.711284 0.138252
v 0.259375 0.711284 0.138252
v 0.259375 1.489561 0.206343
v -0.271875 1.489561 0.206343
v -0.271875 0.735796 -0.141927
v -0.271875 1.514073 -0.073837
v 0.259375 0.735796 -0.141927
v 0.259375 1.514073 -0.073837
vt 0.3125 0.5000
vt 0.4375 0.5000
vt 0.4375 0.6875
vt 0.3125 0.6875
vt 0.2500 0.5000
vt 0.2500 0.6875
vt 0.5000 0.5000
vt 0.6250 0.5000
vt 0.6250 0.6875
vt 0.5000 0.6875
vt 0.4375 0.7500
vt 0.3125 0.7500
vt 0.5625 0.6875
vt 0.4375 0.6875
vt 0.4375 0.7500
vt 0.5625 0.7500
vt 0.3125 0.2500
vt 0.4375 0.2500
vt 0.4375 0.4375
vt 0.3125 0.4375
vt 0.2500 0.2500
vt 0.2500 0.4375
vt 0.5000 0.2500
vt 0.6250 0.2500
vt 0.6250 0.4375
vt 0.5000 0.4375
vt 0.4375 0.5000
vt 0.3125 0.5000
vt 0.5625 0.4375
vt 0.4375 0.4375
vt 0.4375 0.5000
vt 0.5625 0.5000
vn -0.0000 -0.0872 0.9962
vn -1.0000 0.0000 -0.0000
vn 0.0000 0.0872 -0.9962
vn 1.0000 -0.0000 0.0000
vn -0.0000 0.9962 0.0872
vn 0.0000 -0.9962 -0.0872
usemtl m_0
s 1
f 17/33/7 18/34/7 19/35/7 20/36/7
f 21/37/8 17/33/8 20/36/8 22/38/8
f 23/39/9 21/40/9 22/41/9 24/42/9
f 18/34/10 23/39/10 24/42/10 19/35/10
f 24/43/11 22/44/11 20/36/11 19/35/11
f 18/45/12 17/46/12 21/47/12 23/48/12
f 25/49/7 26/50/7 27/51/7 28/52/7
f 29/53/8 25/49/8 28/52/8 30/54/8
f 31/55/9 29/56/9 30/57/9 32/58/9
f 26/50/10 31/55/10 32/58/10 27/51/10
f 32/59/11 30/60/11 28/52/11 27/51/11
f 26/61/12 25/62/12 29/63/12 31/64/12
o Left_Leg
v -0.021875 -0.015625 0.140625
v 0.259375 -0.015625 0.140625
v 0.259375 0.765625 0.140625
v -0.021875 0.765625 0.140625
v -0.021875 -0.015625 -0.140625
v -0.021875 0.765625 -0.140625
v 0.259375 -0.015625 -0.140625
v 0.259375 0.765625 -0.140625
v -0.006250 0.000000 0.125000
v 0.243750 0.000000 0.125000
v 0.243750 0.750000 0.125000
v -0.006250 0.750000 0.125000
v -0.006250 -0.000000 -0.125000
v -0.006250 0.750000 -0.125000
v 0.243750 -0.000000 -0.125000
v 0.243750 0.750000 -0.125000
vt 0.0625 0.0000
vt 0.1250 0.0000
vt 0.1250 0.1875
vt 0.0625 0.1875
vt 0.0000 0.0000
vt 0.0000 0.1875
vt 0.1875 0.0000
vt 0.2500 0.0000
vt 0.2500 0.1875
vt 0.1875 0.1875
vt 0.1250 0.2500
vt 0.0625 0.2500
vt 0.1875 0.1875
vt 0.1250 0.1875
vt 0.1250 0.2500
vt 0.1875 0.2500
vt 0.3125 0.0000
vt 0.3750 0.0000
vt 0.3750 0.1875
vt 0.3125 0.1875
vt 0.2500 0.0000
vt 0.2500 0.1875
vt 0.4375 0.0000
vt 0.5000 0.0000
vt 0.5000 0.1875
vt 0.4375 0.1875
vt 0.3750 0.2500
vt 0.3125 0.2500
vt 0.4375 0.1875
vt 0.3750 0.1875
vt 0.3750 0.2500
vt 0.4375 0.2500
vn -0.0000 0.0000 1.0000
vn -1.0000 0.0000 -0.0000
vn 0.0000 -0.0000 -1.0000
vn 1.0000 0.0000 0.0000
vn 0.0000 1.0000 -0.0000
vn -0.0000 -1.0000 0.0000
usemtl m_0
s 1
f 33/65/13 34/66/13 35/67/13 36/68/13
f 37/69/14 33/65/14 36/68/14 38/70/14
f 39/71/15 37/72/15 38/73/15 40/74/15
f 34/66/16 39/71/16 40/74/16 35/67/16
f 40/75/17 38/76/17 36/68/17 35/67/17
f 34/77/18 33/78/18 37/79/18 39/80/18
f 41/81/13 42/82/13 43/83/13 44/84/13
f 45/85/14 41/81/14 44/84/14 46/86/14
f 47/87/15 45/88/15 46/89/15 48/90/15
f 42/82/16 47/87/16 48/90/16 43/83/16
f 48/91/17 46/92/17 44/84/17 43/83/17
f 42/93/18 41/94/18 45/95/18 47/96/18
o Left_Arm
v 0.243750 0.746238 0.228065
v 0.493750 0.746238 0.228065
v 0.493750 1.494839 0.182279
v 0.243750 1.494839 0.182279
v 0.243750 0.730976 -0.021468
v 0.243750 1.479577 -0.067255
v 0.493750 0.730976 -0.021468
v 0.493750 1.479577 -0.067255
v 0.228125 0.731596 0.244615
v 0.509375 0.731596 0.244615
v 0.509375 1.511389 0.196921
v 0.228125 1.511389 0.196921
v 0.228125 0.714426 -0.036110
v 0.228125 1.494219 -0.083805
v 0.509375 0.714426 -0.036110
v 0.509375 1.494219 -0.083805
vt 0.5625 0.0000
vt 0.6250 0.0000
vt 0.6250 0.1875
vt 0.5625 0.1875
vt 0.5000 0.0000
vt 0.5000 0.1875
vt 0.6875 0.0000
vt 0.7500 0.0000
vt 0.7500 0.1875
vt 0.6875 0.1875
vt 0.6250 0.2500
vt 0.5625 0.2500
vt 0.6875 0.1875
vt 0.6250 0.1875
vt 0.6250 0.2500
vt 0.6875 0.2500
vt 0.8125 0.0000
vt 0.8750 0.0000
vt 0.8750 0.1875
vt 0.8125 0.1875
vt 0.7500 0.0000
vt 0.7500 0.1875
vt 0.9375 0.0000
vt 1.0000 0.0000
vt 1.0000 0.1875
vt 0.9375 0.1875
vt 0.8750 0.2500
vt 0.8125 0.2500
vt 0.9375 0.1875
vt 0.8750 0.1875
vt 0.8750 0.2500
vt 0.9375 0.2500
vn -0.0000 0.0610 0.9981
vn -1.0000 0.0000 -0.0000
vn 0.0000 -0.0610 -0.9981
vn 1.0000 0.0000 0.0000
vn 0.0000 0.9981 -0.0610
vn -0.0000 -0.9981 0.0610
usemtl m_0
s 1
f 49/97/19 50/98/19 51/99/19 52/100/19
f 53/101/20 49/97/20 52/100/20 54/102/20
f 55/103/21 53/104/21 54/105/21 56/106/21
f 50/98/22 55/103/22 56/106/22 51/99/22
f 56/107/23 54/108/23 52/100/23 51/99/23
f 50/109/24 49/110/24 53/111/24 55/112/24
f 57/113/19 58/114/19 59/115/19 60/116/19
f 61/117/20 57/113/20 60/116/20 62/118/20
f 63/119/21 61/120/21 62/121/21 64/122/21
f 58/114/22 63/119/22 64/122/22 59/115/22
f 64/123/23 62/124/23 60/116/23 59/115/23
f 58/125/24 57/126/24 61/127/24 63/128/24
o Right_Arm
v -0.521875 0.731596 0.244615
v -0.240625 0.731596 0.244615
v -0.240625 1.511389 0.196921
v -0.521875 1.511389 0.196921
v -0.521875 0.714426 -0.036110
v -0.521875 1.494219 -0.083805
v -0.240625 0.714426 -0.036110
v -0.240625 1.494219 -0.083805
v -0.506250 0.746238 0.228065
v -0.256250 0.746238 0.228065
v -0.256250 1.494839 0.182279
v -0.506250 1.494839 0.182279
v -0.506250 0.730976 -0.021468
v -0.506250 1.479577 -0.067255
v -0.256250 0.730976 -0.021468
v -0.256250 1.479577 -0.067255
vt 0.6875 0.2500
vt 0.7500 0.2500
vt 0.7500 0.4375
vt 0.6875 0.4375
vt 0.6250 0.2500
vt 0.6250 0.4375
vt 0.8125 0.2500
vt 0.8750 0.2500
vt 0.8750 0.4375
vt 0.8125 0.4375
vt 0.7500 0.5000
vt 0.6875 0.5000
vt 0.8125 0.4375
vt 0.7500 0.4375
vt 0.7500 0.5000
vt 0.8125 0.5000
vt 0.6875 0.5000
vt 0.7500 0.5000
vt 0.7500 0.6875
vt 0.6875 0.6875
vt 0.6250 0.5000
vt 0.6250 0.6875
vt 0.8125 0.5000
vt 0.8750 0.5000
vt 0.8750 0.6875
vt 0.8125 0.6875
vt 0.7500 0.7500
vt 0.6875 0.7500
vt 0.8125 0.6875
vt 0.7500 0.6875
vt 0.7500 0.7500
vt 0.8125 0.7500
vn -0.0000 0.0610 0.9981
vn -1.0000 -0.0000 -0.0000
vn 0.0000 -0.0610 -0.9981
vn 1.0000 -0.0000 0.0000
vn 0.0000 0.9981 -0.0610
vn -0.0000 -0.9981 0.0610
usemtl m_0
s 1
f 65/129/25 66/130/25 67/131/25 68/132/25
f 69/133/26 65/129/26 68/132/26 70/134/26
f 71/135/27 69/136/27 70/137/27 72/138/27
f 66/130/28 71/135/28 72/138/28 67/131/28
f 72/139/29 70/140/29 68/132/29 67/131/29
f 66/141/30 65/142/30 69/143/30 71/144/30
f 73/145/25 74/146/25 75/147/25 76/148/25
f 77/149/26 73/145/26 76/148/26 78/150/26
f 79/151/27 77/152/27 78/153/27 80/154/27
f 74/146/28 79/151/28 80/154/28 75/147/28
f 80/155/29 78/156/29 76/148/29 75/147/29
f 74/157/30 73/158/30 77/159/30 79/160/30
o Right_Leg
v -0.259375 -0.015625 0.140625
v 0.021875 -0.015625 0.140625
v 0.021875 0.765625 0.140625
v -0.259375 0.765625 0.140625
v -0.259375 -0.015625 -0.140625
v -0.259375 0.765625 -0.140625
v 0.021875 -0.015625 -0.140625
v 0.021875 0.765625 -0.140625
v -0.243750 0.000000 0.125000
v 0.006250 0.000000 0.125000
v 0.006250 0.750000 0.125000
v -0.243750 0.750000 0.125000
v -0.243750 -0.000000 -0.125000
v -0.243750 0.750000 -0.125000
v 0.006250 -0.000000 -0.125000
v 0.006250 0.750000 -0.125000
vt 0.0625 0.2500
vt 0.1250 0.2500
vt 0.1250 0.4375
vt 0.0625 0.4375
vt 0.0000 0.2500
vt 0.0000 0.4375
vt 0.1875 0.2500
vt 0.2500 0.2500
vt 0.2500 0.4375
vt 0.1875 0.4375
vt 0.1250 0.5000
vt 0.0625 0.5000
vt 0.1875 0.4375
vt 0.1250 0.4375
vt 0.1250 0.5000
vt 0.1875 0.5000
vt 0.0625 0.5000
vt 0.1250 0.5000
vt 0.1250 0.6875
vt 0.0625 0.6875
vt 0.0000 0.5000
vt 0.0000 0.6875
vt 0.1875 0.5000
vt 0.2500 0.5000
vt 0.2500 0.6875
vt 0.1875 0.6875
vt 0.1250 0.7500
vt 0.0625 0.7500
vt 0.1875 0.6875
vt 0.1250 0.6875
vt 0.1250 0.7500
vt 0.1875 0.7500
vn -0.0000 0.0000 1.0000
vn -1.0000 0.0000 -0.0000
vn 0.0000 -0.0000 -1.0000
vn 1.0000 0.0000 0.0000
vn 0.0000 1.0000 0.0000
vn -0.0000 -1.0000 0.0000
usemtl m_0
s 1
f 81/161/31 82/162/31 83/163/31 84/164/31
f 85/165/32 81/161/32 84/164/32 86/166/32
f 87/167/33 85/168/33 86/169/33 88/170/33
f 82/162/34 87/167/34 88/170/34 83/163/34
f 88/171/35 86/172/35 84/164/35 83/163/35
f 82/173/36 81/174/36 85/175/36 87/176/36
f 89/177/31 90/178/31 91/179/31 92/180/31
f 93/181/32 89/177/32 92/180/32 94/182/32
f 95/183/33 93/184/33 94/185/33 96/186/33
f 90/178/34 95/183/34 96/186/34 91/179/34
f 96/187/35 94/188/35 92/180/35 91/179/35
f 90/189/36 89/190/36 93/191/36 95/192/36
