# Made in Blockbench 4.2.5
mtllib robotpdupose2alt.mtl

o 2
v 1.3217379999999999 -0.30519 0.047461
v 1.331098 -0.090808 -0.020198
v 0.713106 -0.039271 0.057606
v 0.703746 -0.253654 0.125264
v 1.289472 -0.370926 -0.16529
v 0.6714789999999999 -0.319389 -0.087486
v 1.298832 -0.156543 -0.232949
v 0.680839 -0.105006 -0.155146
v 0.5833269999999999 -0.218895 0.237932
v 0.6773009999999999 -0.044541 0.210191
v 0.17170400000000002 0.193153 -0.00861
v 0.07773000000000002 0.018798 0.019131
v 0.635919 -0.276541 0.053782
v 0.130322 -0.038846 -0.165018
v 0.729893 -0.102186 0.026042
v 0.224296 0.135507 -0.192759
v 0.012612999999999985 -0.36005 0.285316
v 0.267046 -0.01655 0.144707
v -0.10233599999999998 0.234477 0.089549
v -0.35677000000000003 -0.109023 0.230158
v -0.023719999999999963 -0.506656 -0.138578
v -0.39310199999999995 -0.25563 -0.193736
v 0.23071399999999997 -0.163155 -0.279187
v -0.13866900000000004 0.087871 -0.334346
v 0.6927369999999999 -0.453254 0.13321
v 0.70992 -0.059706 0.063751
v 0.110491 -0.033534 0.063751
v 0.093308 -0.427082 0.13321
v 0.691222 -0.48795 -0.063751
v 0.09179399999999999 -0.461779 -0.063751
v 0.708405 -0.094402 -0.13321
v 0.10897600000000002 -0.068231 -0.13321
v -0.335222 -0.486438 0.16298
v -0.30061400000000005 -0.301389 0.095462
v 0.263959 -0.455324 -0.037055
v 0.22935100000000003 -0.640374 0.030463
v -0.27703 -0.43055 0.345983
v 0.287544 -0.584486 0.213466
v -0.24242200000000003 -0.2455 0.278465
v 0.322152 -0.399435 0.145948
v 1.2817859999999999 -0.465021 0.183466
v 1.2903769999999999 -0.268246 0.148737
v 0.692833 -0.251246 0.097238
v 0.684242 -0.448021 0.131967
v 1.297691 -0.500346 -0.012746
v 0.700147 -0.483346 -0.064245
v 1.306282 -0.303571 -0.047475
v 0.708738 -0.286571 -0.098974
v 1.308106 -0.295902 0.033438
v 1.3164259999999999 -0.105339 -0.026702
v 0.7231529999999999 -0.055864 0.047989
v 0.714833 -0.246426 0.10813
v 1.279425 -0.354333 -0.155673
v 0.686151 -0.304857 -0.080982
v 1.2877450000000001 -0.16377 -0.215814
v 0.6944710000000001 -0.114295 -0.141123
v -0.352784 -0.49829 0.158523
v -0.31384999999999996 -0.290109 0.082565
v 0.274246 -0.450458 -0.055474
v 0.23531400000000002 -0.65864 0.020485
v -0.28731700000000004 -0.435416 0.364402
v 0.30078 -0.595765 0.226363
v -0.24838400000000005 -0.227234 0.288443
v 0.33971399999999996 -0.387584 0.150405
v 1.292704 -0.475466 0.198973
v 1.302369 -0.254094 0.159902
v 0.679927 -0.236386 0.106258
v 0.670262 -0.457757 0.145328
v 1.3105980000000002 -0.515206 -0.021766
v 0.688155 -0.497498 -0.07541
v 1.320262 -0.293835 -0.060836
v 0.697821 -0.276126 -0.114481
v 0.004209000000000018 -0.335166 0.25089
v 0.23037200000000002 -0.029832 0.125905
v -0.09796800000000006 0.193303 0.076875
v -0.32413099999999995 -0.112031 0.201862
v -0.028086999999999973 -0.465482 -0.125905
v -0.35642700000000005 -0.242347 -0.174934
v 0.19807599999999997 -0.160148 -0.25089
v -0.13026400000000005 0.062986 -0.29992
v 0.7047829999999999 -0.46393 0.147691
v 0.72304 -0.045784 0.07389
v 0.098634 -0.018522 0.07389
v 0.080378 -0.436667 0.147691
v 0.703078 -0.502963 -0.07389
v 0.07867400000000002 -0.475701 -0.07389
v 0.7213350000000001 -0.084818 -0.147691
v 0.09693000000000002 -0.057556 -0.147691
v 0.5847 -0.231142 0.255734
v 0.690421 -0.034993 0.224525
v 0.16375800000000001 0.212605 -0.003393
v 0.05803799999999998 0.016456 0.027816
v 0.643866 -0.295992 0.048566
v 0.117203 -0.048394 -0.179352
v 0.749586 -0.099844 0.017357
v 0.22292299999999998 0.147754 -0.210561
vt 0.0625 0
vt 0.125 0
vt 0.125 0.1875
vt 0.0625 0.1875
vt 0 0
vt 0.0625 0
vt 0.0625 0.1875
vt 0 0.1875
vt 0.1875 0
vt 0.25 0
vt 0.25 0.1875
vt 0.1875 0.1875
vt 0.125 0
vt 0.1875 0
vt 0.1875 0.1875
vt 0.125 0.1875
vt 0.125 0.25
vt 0.0625 0.25
vt 0.0625 0.1875
vt 0.125 0.1875
vt 0.1875 0.1875
vt 0.125 0.1875
vt 0.125 0.25
vt 0.1875 0.25
vt 0.5625 0
vt 0.625 0
vt 0.625 0.1875
vt 0.5625 0.1875
vt 0.5 0
vt 0.5625 0
vt 0.5625 0.1875
vt 0.5 0.1875
vt 0.6875 0
vt 0.75 0
vt 0.75 0.1875
vt 0.6875 0.1875
vt 0.625 0
vt 0.6875 0
vt 0.6875 0.1875
vt 0.625 0.1875
vt 0.625 0.25
vt 0.5625 0.25
vt 0.5625 0.1875
vt 0.625 0.1875
vt 0.6875 0.1875
vt 0.625 0.1875
vt 0.625 0.25
vt 0.6875 0.25
vt 0.625 0.75
vt 0.75 0.75
vt 0.75 0.875
vt 0.625 0.875
vt 0.5 0.75
vt 0.625 0.75
vt 0.625 0.875
vt 0.5 0.875
vt 0.875 0.75
vt 1 0.75
vt 1 0.875
vt 0.875 0.875
vt 0.75 0.75
vt 0.875 0.75
vt 0.875 0.875
vt 0.75 0.875
vt 0.75 1
vt 0.625 1
vt 0.625 0.875
vt 0.75 0.875
vt 0.875 0.875
vt 0.75 0.875
vt 0.75 1
vt 0.875 1
vt 0.3125 0.5
vt 0.4375 0.5
vt 0.4375 0.6875
vt 0.3125 0.6875
vt 0.25 0.5
vt 0.3125 0.5
vt 0.3125 0.6875
vt 0.25 0.6875
vt 0.5 0.5
vt 0.625 0.5
vt 0.625 0.6875
vt 0.5 0.6875
vt 0.4375 0.5
vt 0.5 0.5
vt 0.5 0.6875
vt 0.4375 0.6875
vt 0.4375 0.75
vt 0.3125 0.75
vt 0.3125 0.6875
vt 0.4375 0.6875
vt 0.5625 0.6875
vt 0.4375 0.6875
vt 0.4375 0.75
vt 0.5625 0.75
vt 0.6875 0.5
vt 0.75 0.5
vt 0.75 0.6875
vt 0.6875 0.6875
vt 0.625 0.5
vt 0.6875 0.5
vt 0.6875 0.6875
vt 0.625 0.6875
vt 0.8125 0.5
vt 0.875 0.5
vt 0.875 0.6875
vt 0.8125 0.6875
vt 0.75 0.5
vt 0.8125 0.5
vt 0.8125 0.6875
vt 0.75 0.6875
vt 0.75 0.75
vt 0.6875 0.75
vt 0.6875 0.6875
vt 0.75 0.6875
vt 0.8125 0.6875
vt 0.75 0.6875
vt 0.75 0.75
vt 0.8125 0.75
vt 0.0625 0.5
vt 0.125 0.5
vt 0.125 0.6875
vt 0.0625 0.6875
vt 0 0.5
vt 0.0625 0.5
vt 0.0625 0.6875
vt 0 0.6875
vt 0.1875 0.5
vt 0.25 0.5
vt 0.25 0.6875
vt 0.1875 0.6875
vt 0.125 0.5
vt 0.1875 0.5
vt 0.1875 0.6875
vt 0.125 0.6875
vt 0.125 0.75
vt 0.0625 0.75
vt 0.0625 0.6875
vt 0.125 0.6875
vt 0.1875 0.6875
vt 0.125 0.6875
vt 0.125 0.75
vt 0.1875 0.75
vt 0.3125 0
vt 0.375 0
vt 0.375 0.1875
vt 0.3125 0.1875
vt 0.25 0
vt 0.3125 0
vt 0.3125 0.1875
vt 0.25 0.1875
vt 0.4375 0
vt 0.5 0
vt 0.5 0.1875
vt 0.4375 0.1875
vt 0.375 0
vt 0.4375 0
vt 0.4375 0.1875
vt 0.375 0.1875
vt 0.375 0.25
vt 0.3125 0.25
vt 0.3125 0.1875
vt 0.375 0.1875
vt 0.4375 0.1875
vt 0.375 0.1875
vt 0.375 0.25
vt 0.4375 0.25
vt 0.6875 0.25
vt 0.75 0.25
vt 0.75 0.4375
vt 0.6875 0.4375
vt 0.625 0.25
vt 0.6875 0.25
vt 0.6875 0.4375
vt 0.625 0.4375
vt 0.8125 0.25
vt 0.875 0.25
vt 0.875 0.4375
vt 0.8125 0.4375
vt 0.75 0.25
vt 0.8125 0.25
vt 0.8125 0.4375
vt 0.75 0.4375
vt 0.75 0.5
vt 0.6875 0.5
vt 0.6875 0.4375
vt 0.75 0.4375
vt 0.8125 0.4375
vt 0.75 0.4375
vt 0.75 0.5
vt 0.8125 0.5
vt 0.0625 0.25
vt 0.125 0.25
vt 0.125 0.4375
vt 0.0625 0.4375
vt 0 0.25
vt 0.0625 0.25
vt 0.0625 0.4375
vt 0 0.4375
vt 0.1875 0.25
vt 0.25 0.25
vt 0.25 0.4375
vt 0.1875 0.4375
vt 0.125 0.25
vt 0.1875 0.25
vt 0.1875 0.4375
vt 0.125 0.4375
vt 0.125 0.5
vt 0.0625 0.5
vt 0.0625 0.4375
vt 0.125 0.4375
vt 0.1875 0.4375
vt 0.125 0.4375
vt 0.125 0.5
vt 0.1875 0.5
vt 0.125 0.75
vt 0.25 0.75
vt 0.25 0.875
vt 0.125 0.875
vt 0 0.75
vt 0.125 0.75
vt 0.125 0.875
vt 0 0.875
vt 0.375 0.75
vt 0.5 0.75
vt 0.5 0.875
vt 0.375 0.875
vt 0.25 0.75
vt 0.375 0.75
vt 0.375 0.875
vt 0.25 0.875
vt 0.25 1
vt 0.125 1
vt 0.125 0.875
vt 0.25 0.875
vt 0.375 0.875
vt 0.25 0.875
vt 0.25 1
vt 0.375 1
vt 0.3125 0.25
vt 0.4375 0.25
vt 0.4375 0.4375
vt 0.3125 0.4375
vt 0.25 0.25
vt 0.3125 0.25
vt 0.3125 0.4375
vt 0.25 0.4375
vt 0.5 0.25
vt 0.625 0.25
vt 0.625 0.4375
vt 0.5 0.4375
vt 0.4375 0.25
vt 0.5 0.25
vt 0.5 0.4375
vt 0.4375 0.4375
vt 0.4375 0.5
vt 0.3125 0.5
vt 0.3125 0.4375
vt 0.4375 0.4375
vt 0.5625 0.4375
vt 0.4375 0.4375
vt 0.4375 0.5
vt 0.5625 0.5
vt 0.8125 0
vt 0.875 0
vt 0.875 0.1875
vt 0.8125 0.1875
vt 0.75 0
vt 0.8125 0
vt 0.8125 0.1875
vt 0.75 0.1875
vt 0.9375 0
vt 1 0
vt 1 0.1875
vt 0.9375 0.1875
vt 0.875 0
vt 0.9375 0
vt 0.9375 0.1875
vt 0.875 0.1875
vt 0.875 0.25
vt 0.8125 0.25
vt 0.8125 0.1875
vt 0.875 0.1875
vt 0.9375 0.1875
vt 0.875 0.1875
vt 0.875 0.25
vt 0.9375 0.25
vn 0.1434080414643114 0.2921568021266749 0.9455572624724986
vn -0.04159909035990279 -0.952808411368169 0.30070857471527995
vn -0.1434077605669078 -0.2921555838536481 -0.9455576814940053
vn 0.041601139233406643 0.9528095283457356 -0.3007047520543359
vn -0.9887887696293893 0.08245945780934173 0.1244877780048624
vn 0.9887895395148766 -0.0824577272029276 -0.12448280913638607
vn -0.2629577909284759 0.28822786435492276 0.9207485532974876
vn -0.4698667734110323 -0.8717715089406064 0.13870707063348964
vn 0.26295893329015674 -0.2882217963742989 -0.9207501265260163
vn 0.4698658095790499 0.8717725653891414 -0.13870369578154446
vn -0.8426587435044844 0.39616031142628305 -0.3646686847620376
vn 0.8426591119532262 -0.39615796831833666 0.3646703788081616
vn 0.08074029697543766 0.32579042370643724 0.9419881125924564
vn -0.5654086467898889 -0.7633336849553005 0.31246559418244607
vn -0.08073919190658645 -0.32579013797177125 -0.9419883061326216
vn 0.5654080627560857 0.7633352058534512 -0.3124629355220865
vn -0.8208514511361665 0.5578333910802182 -0.12257570299041373
vn 0.8208503488658897 -0.5578355434035567 0.12257328943291838
vn 0.007574506772646967 0.1734823101108437 0.9848078568562276
vn -0.04295732606974814 -0.9838708164703914 0.17364585982632283
vn -0.0075742305223882 -0.17348232217240897 -0.9848078568561801
vn 0.04295568784586638 0.9838708879966311 -0.17364585982513084
vn -0.9990483283733339 0.043616941172046064 -0.000004152287454065181
vn 0.9990481816067435 -0.043620302932910984 -5.481520395892338e-7
vn -0.29096464076664047 -0.27944097825621705 -0.9150149274709941
vn -0.17303900110176676 -0.9252516509391905 0.337589819947233
vn 0.29096438092412485 0.2794396904162487 0.9150154033968564
vn 0.17303593261936068 0.9252508277941457 -0.3375936487684511
vn 0.9409553142524902 -0.25656024129127336 -0.2208618101179132
vn -0.9409562392150748 0.2565613004207086 0.22085663904138778
vn -0.0795273841827323 0.1766204345809103 0.9810609651053817
vn -0.042956733560709656 -0.9838703112273104 0.1736488690641836
vn 0.07952738418273227 -0.17662043458091048 -0.9810609651053814
vn 0.04295673356070957 0.9838703112273103 -0.17364886906418386
vn -0.9959069333587667 0.028332213471260706 -0.08582928269394029
vn 0.9959069333587665 -0.02833221347126062 0.08582928269394083
vn 0.14340598494191384 0.29214923819774746 0.9455599114298976
vn -0.04160121408814771 -0.9528092188098349 0.30070572248858946
vn -0.14340642675417692 -0.2921537224295602 -0.945558458920521
vn 0.041600286490632854 0.9528097534090336 -0.3007041568926407
vn -0.9887887050612814 0.08245916756271858 0.12448848311429499
vn 0.988789367842272 -0.08245691913139318 -0.12448470801443451
vn -0.29096566086958503 -0.2794406320125673 -0.9150147088299416
vn -0.17303903240664692 -0.9252517029239872 0.3375896614234997
vn 0.2909659353654894 0.2794445615825628 0.9150134214637592
vn 0.17303762310107784 0.9252503494273076 -0.3375940933668343
vn 0.9409565940740999 -0.25656038853555757 -0.22085618647199695
vn -0.9409553310937157 0.25656160150910623 0.22086015828437425
vn -0.07952603659503821 0.1766241014513808 0.9810604141896548
vn -0.042957552235860515 -0.9838708608699644 0.173645552309578
vn 0.07952607863531097 -0.17662023249132688 -0.9810611073177858
vn 0.042958045001454816 0.9838699165508284 -0.17365078080998952
vn -0.9959067595417619 0.028336824473663067 -0.0858297773373344
vn 0.9959066380285658 -0.02833177747385457 0.08583285335937109
vn 0.08073747965283871 0.3257895360284791 0.9419886610748857
vn -0.5654082229722185 -0.7633343949515332 0.31246462660495694
vn -0.08073941273073777 -0.3257882223423535 -0.9419889497307837
vn 0.5654079389474543 0.7633345879700858 -0.31246466901672454
vn -0.8208496547338227 0.5578367034651551 -0.12257265841325687
vn 0.8208502947297569 -0.5578357730025431 0.1225726070569067
vn 0.007574417442688255 0.1734836658249287 0.9848076187217221
vn -0.042958125088243974 -0.9838707440753033 0.17364607234720855
vn -0.007574459192539181 -0.17348406638024436 -0.9848075478387216
vn 0.04295651927194006 0.9838700541411391 -0.17365037868185398
vn -0.9990482914556111 0.04361778695466642 -8.954167916205431e-7
vn 0.9990481597806592 -0.043620802699330906 -0.0000032779013678738957
vn -0.2629579057573726 0.288228864583346 0.9207482073947753
vn -0.469867465492332 -0.871772223548457 0.13870023475535834
vn 0.26295785298378277 -0.28822896249682123 -0.9207481918158544
vn 0.46986839998120744 0.8717708027254099 -0.1387059992018912
vn -0.8426619859122111 0.3961569907101715 -0.36466479979557936
vn 0.8426600686639578 -0.39615764124319486 0.36466852340705574
usemtl none
f 1/1/1 2/2/1 3/3/1 4/4/1
f 5/5/2 1/6/2 4/7/2 6/8/2
f 7/9/3 5/10/3 6/11/3 8/12/3
f 2/13/4 7/14/4 8/15/4 3/16/4
f 8/17/5 6/18/5 4/19/5 3/20/5
f 2/21/6 1/22/6 5/23/6 7/24/6
f 9/25/7 10/26/7 11/27/7 12/28/7
f 13/29/8 9/30/8 12/31/8 14/32/8
f 15/33/9 13/34/9 14/35/9 16/36/9
f 10/37/10 15/38/10 16/39/10 11/40/10
f 16/41/11 14/42/11 12/43/11 11/44/11
f 10/45/12 9/46/12 13/47/12 15/48/12
f 17/49/13 18/50/13 19/51/13 20/52/13
f 21/53/14 17/54/14 20/55/14 22/56/14
f 23/57/15 21/58/15 22/59/15 24/60/15
f 18/61/16 23/62/16 24/63/16 19/64/16
f 24/65/17 22/66/17 20/67/17 19/68/17
f 18/69/18 17/70/18 21/71/18 23/72/18
f 25/73/19 26/74/19 27/75/19 28/76/19
f 29/77/20 25/78/20 28/79/20 30/80/20
f 31/81/21 29/82/21 30/83/21 32/84/21
f 26/85/22 31/86/22 32/87/22 27/88/22
f 32/89/23 30/90/23 28/91/23 27/92/23
f 26/93/24 25/94/24 29/95/24 31/96/24
f 33/97/25 34/98/25 35/99/25 36/100/25
f 37/101/26 33/102/26 36/103/26 38/104/26
f 39/105/27 37/106/27 38/107/27 40/108/27
f 34/109/28 39/110/28 40/111/28 35/112/28
f 40/113/29 38/114/29 36/115/29 35/116/29
f 34/117/30 33/118/30 37/119/30 39/120/30
f 41/121/31 42/122/31 43/123/31 44/124/31
f 45/125/32 41/126/32 44/127/32 46/128/32
f 47/129/33 45/130/33 46/131/33 48/132/33
f 42/133/34 47/134/34 48/135/34 43/136/34
f 48/137/35 46/138/35 44/139/35 43/140/35
f 42/141/36 41/142/36 45/143/36 47/144/36
f 49/145/37 50/146/37 51/147/37 52/148/37
f 53/149/38 49/150/38 52/151/38 54/152/38
f 55/153/39 53/154/39 54/155/39 56/156/39
f 50/157/40 55/158/40 56/159/40 51/160/40
f 56/161/41 54/162/41 52/163/41 51/164/41
f 50/165/42 49/166/42 53/167/42 55/168/42
f 57/169/43 58/170/43 59/171/43 60/172/43
f 61/173/44 57/174/44 60/175/44 62/176/44
f 63/177/45 61/178/45 62/179/45 64/180/45
f 58/181/46 63/182/46 64/183/46 59/184/46
f 64/185/47 62/186/47 60/187/47 59/188/47
f 58/189/48 57/190/48 61/191/48 63/192/48
f 65/193/49 66/194/49 67/195/49 68/196/49
f 69/197/50 65/198/50 68/199/50 70/200/50
f 71/201/51 69/202/51 70/203/51 72/204/51
f 66/205/52 71/206/52 72/207/52 67/208/52
f 72/209/53 70/210/53 68/211/53 67/212/53
f 66/213/54 65/214/54 69/215/54 71/216/54
f 73/217/55 74/218/55 75/219/55 76/220/55
f 77/221/56 73/222/56 76/223/56 78/224/56
f 79/225/57 77/226/57 78/227/57 80/228/57
f 74/229/58 79/230/58 80/231/58 75/232/58
f 80/233/59 78/234/59 76/235/59 75/236/59
f 74/237/60 73/238/60 77/239/60 79/240/60
f 81/241/61 82/242/61 83/243/61 84/244/61
f 85/245/62 81/246/62 84/247/62 86/248/62
f 87/249/63 85/250/63 86/251/63 88/252/63
f 82/253/64 87/254/64 88/255/64 83/256/64
f 88/257/65 86/258/65 84/259/65 83/260/65
f 82/261/66 81/262/66 85/263/66 87/264/66
f 89/265/67 90/266/67 91/267/67 92/268/67
f 93/269/68 89/270/68 92/271/68 94/272/68
f 95/273/69 93/274/69 94/275/69 96/276/69
f 90/277/70 95/278/70 96/279/70 91/280/70
f 96/281/71 94/282/71 92/283/71 91/284/71
f 90/285/72 89/286/72 93/287/72 95/288/72